<?xml version="1.0" encoding="UTF-8"?>
<svg fill="#000000" width="4.2812" height="6.3438" version="1.1" viewBox="0 0 4.2812 6.3437" xmlns="http://www.w3.org/2000/svg" xmlns:xlink="http://www.w3.org/1999/xlink">
<defs>
<g id="a">
<path d="m4.375-5.2031-0.1875-0.125-0.65625 1.1562c-0.23438-0.14062-0.60938-0.29688-1.0312-0.29688-1.1875 0-2.1562 1.0625-2.1562 2.3438 0 0.79688 0.40625 1.4688 0.9375 1.8438l-0.60938 1.0781-0.078125 0.09375 0.1875 0.125 0.6875-1.1719c0.21875 0.125 0.59375 0.26562 1.0156 0.26562 1.1875 0 2.1406-1 2.1406-2.2344 0-0.96875-0.53125-1.6406-0.92188-1.9219zm-2.9219 4.6094c-0.35938-0.40625-0.42188-0.98438-0.42188-1.5469 0-0.40625 0.03125-0.96875 0.29688-1.4219 0.29688-0.51562 0.79688-0.6875 1.1562-0.6875 0.39062 0 0.70312 0.1875 0.89062 0.34375zm2.0781-3.1406c0.39062 0.46875 0.40625 1.1875 0.40625 1.5938 0 0.34375 0 0.9375-0.28125 1.3906-0.29688 0.45312-0.78125 0.64062-1.1562 0.64062-0.25 0-0.59375-0.0625-0.875-0.3125z"/>
</g>
</defs>
<g transform="translate(-149.06 -129.44)">
<use x="148.71201" y="134.765" xlink:href="#a"/>
</g>
</svg>
