<?xml version="1.0" encoding="UTF-8"?>
<svg fill="#000000" version="1.1" viewBox="0 0 11.812 7.5312" xmlns="http://www.w3.org/2000/svg" xmlns:xlink="http://www.w3.org/1999/xlink">
<defs>
<g id="a">
<path d="m1.2344-0.14062c-0.23438 0-0.42188-0.03125-0.54688-0.17188-0.015625-0.03125-0.03125-0.09375-0.03125-0.14062v-0.046875c0.046875 0.015625 0.09375 0.03125 0.14062 0.03125 0.25 0 0.57812-0.20312 0.57812-0.40625 0-0.26562-0.15625-0.35938-0.34375-0.35938-0.17188 0-0.375 0.078125-0.46875 0.20312-0.015625 0-0.078125 0.0625-0.09375 0.078125-0.125 0.17188-0.17188 0.32812-0.17188 0.46875 0 0.35938 0.40625 0.5625 0.875 0.5625 1.4062 0 2.625-1.9062 3.75-3.1562 0.71875-0.82812 1.6562-1.5312 2.6094-2.2344-0.85938 1.1719-1.8438 2.3438-2.6875 3.5156-0.35938 0.51562-0.51562 1.0156-0.5625 1.4531v0.14062c0 0.26562 0.078125 0.5625 0.45312 0.5625 0.29688 0 1.9688-1.9688 2.9688-3.1562 0.09375-0.10938 0.17188-0.20312 0.25-0.29688 0.48438-0.5625 1.0312-1.0781 1.625-1.6094-0.625 0.96875-1.1875 1.9375-1.875 2.9062-0.32812 0.45312-0.45312 0.89062-0.45312 1.2656v0.15625c0.046875 0.35938 0.25 0.65625 0.71875 0.65625 0.32812 0 0.73438-0.21875 1.0781-0.46875 0.4375-0.3125 0.79688-0.6875 1.0781-1.0781 0-0.015625 0.01563-0.03125 0.01563-0.046875s-0.01563-0.046875-0.04687-0.0625c0-0.015625-0.03125-0.015625-0.03125-0.015625h-0.10938c-0.03125 0-0.0625 0-0.078125 0.03125-0.25 0.35938-0.57812 0.71875-0.96875 1.0156-0.3125 0.21875-0.65625 0.40625-0.90625 0.40625-0.10938 0-0.17188-0.078125-0.17188-0.20312 0-0.0625 0.015625-0.15625 0.046875-0.25 0.09375-0.40625 0.34375-0.85938 0.67188-1.3125 0.90625-1.2812 1.4688-2.5469 2.375-3.8281l1.1875-1.4688v-0.046875c0-0.015625 0-0.046875-0.01563-0.0625l-0.031245-0.015625-0.10938-0.03125c-0.01563 0-0.04687 0.015625-0.0625 0.015625l-1.6875 1.5156c-0.10938 0.09375-0.1875 0.20312-0.28125 0.29688-0.79688 0.6875-1.5625 1.375-2.2031 2.1406-1.375 1.625-2.7344 3.1875-2.8594 3.1875-0.015625 0-0.03125-0.015625-0.03125-0.046875 0-0.046875 0.03125-0.15625 0.125-0.375 0.17188-0.40625 0.4375-0.84375 0.75-1.2656l2.7344-3.8438 1.1719-1.4531c0.015625-0.03125 0.015625-0.03125 0.015625-0.046875 0-0.03125-0.015625-0.0625-0.03125-0.078125l-0.09375-0.046875-0.046875-0.015625c-0.015625 0-0.03125 0.015625-0.046875 0.03125-1.4844 1.3906-3.4219 2.4688-4.7344 3.9375-1.3281 1.5156-2.1562 3-3.3438 3.0625z"/>
</g>
</defs>
<g transform="translate(-149.01 -127.59)">
<use x="148.71201" y="134.765" xlink:href="#a"/>
</g>
</svg>
