<?xml version="1.0" encoding="UTF-8"?>
<svg fill="#000000" version="1.1" viewBox="0 0 8.2078 6.6347" xmlns="http://www.w3.org/2000/svg">
<path d="m3.8539 1.1195-0.12109-1h0.74609l-0.125 1" fill="none" stroke="#000" stroke-linecap="round" stroke-miterlimit="10" stroke-width=".23907"/>
<path d="m3.8539 6.1h0.5" fill="none" stroke="#000" stroke-linecap="round" stroke-miterlimit="10" stroke-width=".23907"/>
<path d="m3.8539 1.1195c-2.7383-1.7461-3.7344 0.49609-3.7344 2.4883" fill="none" stroke="#000" stroke-linecap="round" stroke-miterlimit="10" stroke-width=".23907"/>
<path d="m3.8539 6.1c-2.2383 1.2461-3.7344-0.5-3.7344-2.4922" fill="none" stroke="#000" stroke-linecap="round" stroke-miterlimit="10" stroke-width=".23907"/>
<path d="m3.1078 2.3617c0-0.27343-0.22266-0.49609-0.5-0.49609-0.27344 0-0.4961 0.22266-0.4961 0.49609 0 0.27735 0.22266 0.5 0.4961 0.5 0.27734 0 0.5-0.22265 0.5-0.5z"/>
<path d="m4.3539 1.1195c2.7383-1.7461 3.7344 0.49609 3.7344 2.4883" fill="none" stroke="#000" stroke-linecap="round" stroke-miterlimit="10" stroke-width=".23907"/>
<path d="m4.3539 6.1c2.2422 1.2461 3.7344-0.5 3.7344-2.4922" fill="none" stroke="#000" stroke-linecap="round" stroke-miterlimit="10" stroke-width=".23907"/>
<path d="m6.0961 2.3617c0-0.27343-0.22266-0.49609-0.49609-0.49609-0.27735 0-0.5 0.22266-0.5 0.49609 0 0.27735 0.22265 0.5 0.5 0.5 0.27343 0 0.49609-0.22265 0.49609-0.5z"/>
<path d="m1.6156 3.8578 0.74609 0.99609 0.7461-0.25 0.99609 0.74609 0.9961-0.74609 0.74609 0.25 0.75-0.99609-0.99609 0.49609-0.75-0.24609-0.7461 0.49609-0.74609-0.49609-0.7461 0.24609z"/>
</svg>
