<?xml version="1.0" encoding="UTF-8"?>
<svg fill="#000000" version="1.1" viewBox="0 0 4.7969 4.7812" xmlns="http://www.w3.org/2000/svg" xmlns:xlink="http://www.w3.org/1999/xlink">
<defs>
<g id="a">
<path d="m5.3906-0.39062c0-0.0625-0.03125-0.125-0.09375-0.17188-0.60938-0.51562-0.92188-1.25-0.92188-1.9844s0.3125-1.4688 0.92188-1.9844c0.0625-0.046875 0.09375-0.10938 0.09375-0.17188 0-0.125-0.09375-0.23438-0.23438-0.23438-0.046875 0-0.10938 0.015625-0.14062 0.046875-1.3125 1.1094-2.625 2.125-4.1875 2.125-0.125 0-0.23438 0.078125-0.23438 0.21875s0.10938 0.23438 0.23438 0.23438c1.5625 0 2.875 1 4.1875 2.1094 0.03125 0.03125 0.09375 0.046875 0.14062 0.046875 0.14062 0 0.23438-0.10938 0.23438-0.23438zm-1.2969-1.125c-0.57812-0.42188-1.2188-0.8125-1.9062-1.0312 0.6875-0.21875 1.3281-0.60938 1.9062-1.0312-0.10938 0.32812-0.17188 0.67188-0.17188 1.0312s0.0625 0.70312 0.17188 1.0312z"/>
</g>
</defs>
<g transform="translate(-149.31 -129.83)">
<use x="148.71201" y="134.765" xlink:href="#a"/>
</g>
</svg>
