<?xml version="1.0" encoding="UTF-8"?>
<svg fill="#000000" version="1.1" viewBox="0 0 6.1031 6.9672" xmlns="http://www.w3.org/2000/svg" xmlns:xlink="http://www.w3.org/1999/xlink">
<defs>
<g id="a">
<path d="m2.625-3.2812v-0.015625c0.21875-0.03125 0.45312-0.10938 0.65625-0.1875 0.42188-0.14062 0.85938-0.3125 1.2656-0.53125 0.375-0.20312 0.73438-0.40625 1.0781-0.64062 0.35938-0.23438 0.71875-0.5 1.0469-0.78125 0.078125-0.0625 0.1875-0.10938 0.23438-0.1875 0.03125-0.0625 0.015625-0.125-0.03125-0.15625-0.03125-0.015625-0.078125-0.015625-0.10938-0.015625-0.09375 0-0.20312-0.03125-0.28125 0.015625-0.10938 0.046875-0.20312 0.15625-0.29688 0.23438-0.17188 0.14062-0.35938 0.28125-0.5625 0.40625-1.0156 0.73438-2.1719 1.2969-3.4062 1.5312-0.29688 0.046875-0.60938 0.09375-0.90625 0.10938-0.09375 0-0.1875 0.015625-0.28125 0.015625-0.046875 0-0.10938-0.015625-0.15625 0.015625-0.0625 0.046875-0.0625 0.20312-0.046875 0.28125 0.03125 0.14062 0.23438 0.09375 0.34375 0.09375 0.14062 0.015625 0.28125 0.015625 0.40625 0.03125 0.23438 0.015625 0.46875 0.0625 0.6875 0.10938 1.3125 0.25 2.5156 0.875 3.5938 1.6719 0.14062 0.09375 0.28125 0.21875 0.42188 0.32812 0.0625 0.0625 0.14062 0.14062 0.23438 0.17188h0.10938c0.078125 0 0.25 0.03125 0.28125-0.0625 0.0625-0.10938-0.09375-0.20312-0.17188-0.25-0.21875-0.20312-0.46875-0.375-0.71875-0.5625-0.73438-0.53125-1.5469-1-2.4062-1.3281-0.20312-0.078125-0.42188-0.14062-0.64062-0.20312-0.10938-0.046875-0.23438-0.078125-0.34375-0.09375zm-1.7344 1.375c-0.0625 0.03125-0.0625 0.10938-0.0625 0.17188 0 0.078125-0.015625 0.1875 0.09375 0.20312 0.046875 0.03125 0.10938 0.015625 0.15625 0.015625 0.078125 0 0.15625 0.015625 0.23438 0.015625 0.32812 0.03125 0.625 0.0625 0.9375 0.14062 1.125 0.25 2.1562 0.79688 3.0781 1.4844 0.35938 0.28125 0.6875 0.57812 1.0156 0.875 0.0625 0.046875 0.10938 0.10938 0.17188 0.14062s0.14062 0.015625 0.20312 0.015625c0.046875 0 0.10938 0.015625 0.15625-0.015625s0.0625-0.10938 0.03125-0.15625c-0.0625-0.09375-0.15625-0.17188-0.23438-0.23438-0.34375-0.32812-0.70312-0.625-1.0625-0.90625-1.0469-0.76562-2.1875-1.3906-3.4688-1.6406-0.29688-0.0625-0.59375-0.09375-0.89062-0.10938h-0.23438-0.125z"/>
</g>
</defs>
<g transform="translate(-149.53 -128.96)">
<use x="148.71201" y="134.765" xlink:href="#a"/>
</g>
</svg>
