<?xml version="1.0" encoding="UTF-8"?>
<svg fill="#000000" version="1.1" viewBox="0 0 4.375 6.7656" xmlns="http://www.w3.org/2000/svg" xmlns:xlink="http://www.w3.org/1999/xlink">
<defs>
<g id="a">
<path d="m0.15625 1.3125 0.10938 0.125 0.35938-0.1875c0.53125 0.4375 1.2188 0.82812 1.9219 0.82812 0.078125 0 0.25-0.03125 0.35938-0.078125 0.59375-0.5625 1.125-1.1875 1.625-1.8281l-0.28125-1.2656c-0.03125-0.125-0.046875-0.26562-0.046875-0.40625 0-1.2344-0.09375-2.4531 0.21875-3.0781l-0.0625-0.0625-0.71875 0.40625c-0.40625-0.09375-0.79688-0.21875-1.1406-0.45312-0.54688 0.32812-1.0781 0.65625-1.6094 1.0156-0.10938 0.65625-0.15625 1.3281-0.15625 2 0 0.34375 0.015625 0.6875 0.046875 1.0312l0.71875 0.875c-0.45312 0.39062-0.89062 0.76562-1.3438 1.0781zm3.25-2.2812c0.10938 0.46875 0.26562 1.2031 0.26562 1.4219 0 0.45312-0.25 0.89062-0.73438 0.89062-0.5625 0-1.0625-0.39062-1.4688-0.79688 0.60938-0.53125 1.2656-1.0469 1.9375-1.5156zm-1.1406 0.5625c-0.23438-0.23438-0.51562-0.54688-0.67188-0.82812-0.03125-0.45312-0.046875-0.90625-0.046875-1.3594 0-0.4375 0.015625-0.9375 0.17188-1.3281 0.48438 0.21875 1.1875 0.34375 1.7656 0.42188-0.078125 0.75-0.09375 1.5156-0.09375 2.2812z"/>
</g>
</defs>
<g transform="translate(-148.87 -130.08)">
<use x="148.71201" y="134.765" xlink:href="#a"/>
</g>
</svg>
