<?xml version="1.0" encoding="UTF-8"?>
<svg fill="#000000" version="1.1" viewBox="0 0 2.2031 7.5469" xmlns="http://www.w3.org/2000/svg" xmlns:xlink="http://www.w3.org/1999/xlink">
<defs>
<g id="a">
<path d="m0.95312-4.5c0-0.39062 0.3125-0.70312 0.70312-0.70312 0.375 0 0.70312 0.3125 0.70312 0.70312s-0.32812 0.6875-0.70312 0.6875c-0.39062 0-0.70312-0.29688-0.70312-0.6875zm0.70312-1.1094c-0.60938 0-1.1094 0.5-1.1094 1.1094s0.5 1.0938 1.1094 1.0938 1.0938-0.48438 1.0938-1.0938-0.48438-1.1094-1.0938-1.1094zm-0.70312 4.5156c0-0.39062 0.3125-0.70312 0.70312-0.70312 0.375 0 0.70312 0.3125 0.70312 0.70312 0 0.375-0.32812 0.6875-0.70312 0.6875-0.39062 0-0.70312-0.3125-0.70312-0.6875zm0.1875 2.7188c-0.03125 0.03125-0.03125 0.0625-0.03125 0.10938 0 0.0625 0.015625 0.125 0.078125 0.17188 0.03125 0.015625 0.0625 0.03125 0.10938 0.03125 0.0625 0 0.125-0.03125 0.17188-0.078125 0.60938-0.85938 1.2812-1.8125 1.2812-2.9531 0-0.60938-0.48438-1.1094-1.0938-1.1094s-1.1094 0.5-1.1094 1.1094 0.5 1.0938 1.1094 1.0938c0.17188 0 0.35938-0.046875 0.51562-0.125-0.23438 0.60938-0.60938 1.1719-1.0312 1.75z"/>
</g>
</defs>
<g transform="translate(-149.26 -129.16)">
<use x="148.71201" y="134.765" xlink:href="#a"/>
</g>
</svg>
