<?xml version="1.0" encoding="UTF-8"?>
<svg fill="#000000" version="1.1" viewBox="0 0 6.0781 7.7656" xmlns="http://www.w3.org/2000/svg" xmlns:xlink="http://www.w3.org/1999/xlink">
<defs>
<g id="a">
<path d="m6.6094-0.5625c0.03125 0.03125 0.0625 0.03125 0.09375 0.03125 0.078125 0 0.125-0.046875 0.17188-0.10938 0-0.03125 0.015625-0.0625 0.015625-0.09375v-5.4062c0-0.03125-0.015625-0.0625-0.015625-0.09375-0.046875-0.0625-0.10938-0.10938-0.17188-0.10938-0.046875 0-0.0625 0.015625-0.09375 0.03125l-5.6719 2.6875c-0.0625 0.03125-0.125 0.10938-0.125 0.1875s0.0625 0.14062 0.125 0.17188zm-0.125-0.5-5-2.375 5-2.3906zm0.21875 2.4844c0.10938 0 0.1875-0.09375 0.1875-0.20312s-0.078125-0.1875-0.1875-0.1875h-5.6875c-0.10938 0-0.20312 0.078125-0.20312 0.1875s0.09375 0.20312 0.20312 0.20312z"/>
</g>
</defs>
<g transform="translate(-149.52 -128.42)">
<use x="148.71201" y="134.765" xlink:href="#a"/>
</g>
</svg>
