<?xml version="1.0" encoding="UTF-8"?>
<svg fill="#000000" version="1.1" viewBox="0 0 4.3125 7.5312" xmlns="http://www.w3.org/2000/svg" xmlns:xlink="http://www.w3.org/1999/xlink">
<defs>
<g id="a">
<path d="m4.0312-4.625c0-0.0625-0.03125-0.125-0.078125-0.15625l-0.375-0.39062 0.25-0.95312c0.03125-0.078125-0.046875-0.1875-0.14062-0.1875-0.0625 0-0.125 0.046875-0.15625 0.10938l-0.20312 0.78125-0.45312-0.45312c-0.046875-0.046875-0.10938-0.0625-0.15625-0.0625-0.0625 0-0.10938 0.015625-0.17188 0.0625l-1.0781 1.0938c-0.046875 0.03125-0.0625 0.09375-0.0625 0.15625 0 0.125 0.078125 0.23438 0.23438 0.23438 0.046875 0 0.10938-0.03125 0.15625-0.078125l0.92188-0.92188 0.46875 0.48438-0.32812 1.2344h-2.0781c-0.125 0-0.21875 0.10938-0.21875 0.23438s0.09375 0.23438 0.21875 0.23438h1.9531l-0.35938 1.3125h-1.5938c-0.125 0-0.21875 0.10938-0.21875 0.23438s0.09375 0.23438 0.21875 0.23438h1.4844l-0.65625 2.4531c-0.03125 0.078125 0.03125 0.1875 0.14062 0.1875 0.0625 0 0.125-0.046875 0.14062-0.10938l0.6875-2.5312h2.0625c0.14062 0 0.23438-0.10938 0.23438-0.23438s-0.09375-0.23438-0.23438-0.23438h-1.9531l0.35938-1.3125h1.5938c0.14062 0 0.23438-0.10938 0.23438-0.23438s-0.09375-0.23438-0.23438-0.23438h-1.4688l0.26562-1 0.20312 0.20312c0.03125 0.046875 0.09375 0.078125 0.15625 0.078125 0.125 0 0.23438-0.09375 0.23438-0.23438z"/>
</g>
</defs>
<g transform="translate(-149.27 -128.45)">
<use x="148.71201" y="134.765" xlink:href="#a"/>
</g>
</svg>
