<?xml version="1.0" encoding="UTF-8"?>
<svg fill="#000000" version="1.1" viewBox="0 0 6.1719 7.0781" xmlns="http://www.w3.org/2000/svg" xmlns:xlink="http://www.w3.org/1999/xlink">
<defs>
<g id="a">
<path d="m1.3125-3.4375h4.9844c0.14062 0 0.15625-0.078125 0.15625-0.1875 0-0.92188-0.25-1.9844-0.9375-2.625-0.51562-0.5-1.2344-0.73438-1.9531-0.73438-1.875 0-3.2812 1.625-3.2812 3.5312 0 1.7031 1.1719 3.4062 3.2031 3.5469h0.14062c0.96875 0 2.2188-0.15625 2.75-1.125 0.03125-0.046875 0.078125-0.10938 0.078125-0.17188s-0.078125-0.10938-0.10938-0.10938c-0.15625 0-0.29688 0.35938-0.4375 0.5-0.57812 0.54688-1.4688 0.65625-2.2031 0.65625-0.89062 0-1.625-0.57812-2.0156-1.3438-0.29688-0.59375-0.375-1.2812-0.375-1.9375zm0-0.21875c0.015625-1.3125 0.59375-3.1094 2.2031-3.1094 0.71875 0 1.2969 0.4375 1.625 1.125 0.28125 0.60938 0.35938 1.3125 0.35938 1.9844z"/>
</g>
</defs>
<g transform="translate(-148.99 -127.78)">
<use x="148.71201" y="134.765" xlink:href="#a"/>
</g>
</svg>
