<?xml version="1.0" encoding="UTF-8"?>
<svg fill="#000000" version="1.1" viewBox="0 0 8.8438 5.2031" xmlns="http://www.w3.org/2000/svg" xmlns:xlink="http://www.w3.org/1999/xlink">
<defs>
<g id="a">
<path d="m1.6406-2.6875c0.54688-0.42188 0.82812-0.82812 0.90625-0.96875 0.4375-0.6875 0.53125-1.3125 0.53125-1.3125 0-0.125-0.125-0.125-0.20312-0.125-0.17188 0-0.1875 0.015625-0.21875 0.20312-0.23438 0.96875-0.82812 1.7969-1.9531 2.2656-0.10938 0.046875-0.14062 0.0625-0.14062 0.125 0 0.078125 0.046875 0.09375 0.14062 0.14062 1.0469 0.42188 1.7031 1.2031 1.9531 2.3125 0.03125 0.125 0.046875 0.15625 0.21875 0.15625 0.078125 0 0.20312 0 0.20312-0.125 0-0.015625-0.09375-0.64062-0.51562-1.3125-0.20312-0.29688-0.48438-0.64062-0.92188-0.96875h6.6719c-0.54688 0.42188-0.8125 0.82812-0.89062 0.96875-0.45312 0.6875-0.53125 1.3125-0.53125 1.3125 0 0.125 0.125 0.125 0.20312 0.125 0.15625 0 0.17188-0.015625 0.21875-0.20312 0.21875-0.96875 0.8125-1.8125 1.9375-2.2656 0.125-0.046875 0.15625-0.0625 0.15625-0.14062 0-0.0625-0.0625-0.09375-0.078125-0.10938-0.45312-0.15625-1.6562-0.65625-2.0312-2.3281-0.03125-0.125-0.046875-0.15625-0.20312-0.15625-0.078125 0-0.20312 0-0.20312 0.125 0 0.015625 0.09375 0.64062 0.5 1.3125 0.20312 0.29688 0.5 0.64062 0.92188 0.96875z"/>
</g>
</defs>
<g transform="translate(-149.27 -129.67)">
<use x="148.71201" y="134.765" xlink:href="#a"/>
</g>
</svg>
