<?xml version="1.0" encoding="UTF-8"?>
<svg fill="#000000" version="1.1" viewBox="0 0 6.1043 9.5384" xmlns="http://www.w3.org/2000/svg" xmlns:xlink="http://www.w3.org/1999/xlink">
<defs>
<g id="a">
<path d="m5.1406-4.7656v0.015625c-0.21875 0.03125-0.45312 0.10938-0.67188 0.1875-0.42188 0.14062-0.85938 0.3125-1.2656 0.53125-0.35938 0.20312-0.73438 0.40625-1.0781 0.64062-0.35938 0.23438-0.70312 0.5-1.0469 0.78125-0.078125 0.0625-0.1875 0.10938-0.23438 0.20312-0.03125 0.046875 0 0.10938 0.046875 0.14062 0.03125 0.015625 0.0625 0.015625 0.10938 0.015625 0.078125 0 0.1875 0.03125 0.26562-0.015625 0.10938-0.046875 0.20312-0.15625 0.29688-0.23438 0.1875-0.14062 0.375-0.28125 0.5625-0.40625 1.0156-0.73438 2.1875-1.2969 3.4062-1.5312 0.29688-0.046875 0.60938-0.09375 0.90625-0.10938 0.09375 0 0.1875-0.015625 0.28125-0.015625 0.046875 0 0.10938 0.015625 0.15625-0.015625 0.078125-0.046875 0.0625-0.20312 0.046875-0.28125-0.03125-0.14062-0.23438-0.078125-0.34375-0.09375-0.14062-0.015625-0.26562-0.015625-0.40625-0.03125-0.23438-0.015625-0.45312-0.0625-0.6875-0.09375-1.3125-0.26562-2.5156-0.89062-3.5781-1.6875-0.15625-0.09375-0.29688-0.21875-0.4375-0.32812-0.0625-0.046875-0.14062-0.14062-0.21875-0.15625-0.046875-0.015625-0.078125-0.015625-0.125-0.015625-0.078125 0-0.23438-0.03125-0.28125 0.0625-0.0625 0.10938 0.10938 0.20312 0.17188 0.25 0.23438 0.20312 0.46875 0.39062 0.71875 0.5625 0.75 0.53125 1.5625 1 2.4062 1.3281 0.21875 0.078125 0.42188 0.14062 0.64062 0.20312 0.10938 0.046875 0.23438 0.078125 0.35938 0.09375zm-2.8125 3.0938c-0.17188 0.015625-0.34375 0.046875-0.5 0.10938-0.375 0.14062-0.67188 0.45312-0.82812 0.8125-0.0625 0.14062-0.125 0.29688-0.15625 0.4375-0.015625 0.078125-0.03125 0.15625 0.046875 0.1875 0.0625 0.03125 0.14062 0.015625 0.17188-0.046875 0.03125-0.03125 0.03125-0.09375 0.046875-0.14062 0.015625-0.078125 0.046875-0.15625 0.078125-0.21875 0.046875-0.10938 0.10938-0.21875 0.1875-0.3125 0.20312-0.23438 0.48438-0.35938 0.78125-0.35938 0.28125 0 0.53125 0.10938 0.75 0.25s0.4375 0.29688 0.64062 0.45312c0.39062 0.29688 0.79688 0.625 1.2812 0.73438 0.25 0.078125 0.53125 0.078125 0.78125 0.03125 0.5-0.09375 0.92188-0.40625 1.1406-0.875 0.0625-0.15625 0.125-0.3125 0.17188-0.48438 0.015625-0.09375-0.015625-0.1875-0.10938-0.1875-0.078125 0-0.10938 0.046875-0.14062 0.10938-0.046875 0.17188-0.10938 0.35938-0.20312 0.51562-0.26562 0.39062-0.75 0.5625-1.2031 0.42188-0.21875-0.078125-0.40625-0.1875-0.59375-0.3125-0.39062-0.26562-0.75-0.57812-1.1562-0.8125-0.23438-0.14062-0.48438-0.26562-0.75-0.3125-0.14062 0-0.29688-0.015625-0.4375 0zm0 1.9688c-0.17188 0.015625-0.34375 0.046875-0.5 0.125-0.375 0.14062-0.67188 0.4375-0.82812 0.79688-0.0625 0.14062-0.125 0.29688-0.15625 0.45312-0.015625 0.0625-0.03125 0.14062 0.046875 0.1875 0.0625 0.03125 0.14062 0 0.17188-0.0625 0.03125-0.03125 0.03125-0.078125 0.046875-0.125 0.015625-0.09375 0.046875-0.17188 0.078125-0.23438 0.046875-0.10938 0.10938-0.21875 0.1875-0.3125 0.20312-0.23438 0.48438-0.34375 0.78125-0.34375 0.28125 0 0.53125 0.10938 0.75 0.25 0.21875 0.125 0.4375 0.28125 0.64062 0.4375 0.39062 0.3125 0.79688 0.625 1.2812 0.75 0.25 0.0625 0.53125 0.0625 0.78125 0.015625 0.5-0.09375 0.92188-0.40625 1.1406-0.875 0.0625-0.15625 0.125-0.3125 0.17188-0.48438 0.015625-0.09375-0.015625-0.17188-0.10938-0.17188-0.078125-0.015625-0.10938 0.03125-0.14062 0.09375-0.046875 0.1875-0.10938 0.35938-0.20312 0.51562-0.26562 0.39062-0.75 0.57812-1.2031 0.42188-0.21875-0.0625-0.40625-0.1875-0.59375-0.3125-0.39062-0.25-0.75-0.57812-1.1562-0.8125-0.23438-0.14062-0.48438-0.26562-0.75-0.29688-0.14062-0.015625-0.29688-0.015625-0.4375-0.015625z"/>
</g>
</defs>
<g transform="translate(-149.54 -127.49)">
<use x="148.71201" y="134.765" xlink:href="#a"/>
</g>
</svg>
