<?xml version="1.0" encoding="UTF-8"?>
<svg fill="#000000" version="1.1" viewBox="0 0 9.3594 7.3594" xmlns="http://www.w3.org/2000/svg" xmlns:xlink="http://www.w3.org/1999/xlink">
<defs>
<g id="a">
<path d="m4.6875-6.5c-0.75 0.39062-1.4531 0.95312-1.8906 1.5625-0.35938 0.48438-0.54688 0.96875-0.54688 1.3906v0.17188c0.078125 0.4375 0.42188 0.6875 0.95312 0.6875 0.42188 0 0.9375-0.21875 1.3906-0.51562 0.54688-0.375 0.98438-0.82812 1.3125-1.2812s0.42188-0.875 0.42188-1.25c0-0.17188-0.015625-0.32812-0.03125-0.46875 0-0.046875-0.046875-0.078125-0.09375-0.078125-0.03125 0-0.0625 0.015625-0.09375 0.03125s-0.046875 0.0625-0.046875 0.09375c0.015625 0.046875 0.015625 0.10938 0.015625 0.17188 0 0.39062-0.1875 0.875-0.5625 1.4062-0.29688 0.42188-0.65625 0.84375-1.1406 1.2031-0.39062 0.28125-0.8125 0.46875-1.125 0.46875-0.45312 0-0.70312-0.20312-0.73438-0.51562-0.015625-0.046875-0.015625-0.09375-0.015625-0.125 0-0.35938 0.20312-0.8125 0.53125-1.2812 0.40625-0.57812 1.0625-1.125 1.7812-1.4844 0.79688-0.42188 1.5781-0.60938 2.2188-0.60938 0.9375 0 1.7188 0.1875 2.1875 0.60938-1.1094 0.90625-2.0312 2.0781-2.8438 3.2188-0.03125-0.03125-0.078125-0.0625-0.10938-0.078125-0.078125-0.0625-0.14062-0.17188-0.14062-0.29688 0-0.09375 0.03125-0.20312 0.10938-0.3125 0.078125-0.125 0.17188-0.23438 0.29688-0.32812 0.09375-0.0625 0.1875-0.10938 0.25-0.10938 0.03125 0 0.046875-0.015625 0.0625-0.03125l0.046875-0.0625v-0.046875c0-0.015625 0-0.046875-0.015625-0.0625-0.03125-0.015625-0.03125-0.015625-0.0625-0.015625-0.14062 0-0.29688 0.078125-0.42188 0.17188-0.15625 0.10938-0.29688 0.23438-0.39062 0.375-0.10938 0.15625-0.15625 0.29688-0.15625 0.4375 0 0.1875 0.09375 0.32812 0.23438 0.4375 0.046875 0.046875 0.10938 0.078125 0.15625 0.10938-0.09375 0.14062-0.1875 0.28125-0.28125 0.40625-0.92188 1.2969-2.5 2.5-3.6562 2.5-0.625 0-1.0781-0.20312-1.0781-0.59375 0-0.09375 0.03125-0.1875 0.078125-0.29688 0.0625 0.0625 0.15625 0.09375 0.25 0.09375 0.25 0 0.54688-0.20312 0.54688-0.39062 0-0.25-0.15625-0.34375-0.32812-0.34375-0.20312 0-0.45312 0.125-0.5625 0.29688-0.1875 0.25-0.26562 0.48438-0.26562 0.67188 0 0.51562 0.59375 0.78125 1.3281 0.78125 1.4844 0 3.5156-1.1562 4.5469-2.6094l0.20312-0.29688h0.32812c0.40625 0 0.875-0.078125 1.375-0.3125 0.39062-0.1875 0.79688-0.45312 1.0312-0.78125 0.375-0.53125 0.53125-1 0.53125-1.4062 0-0.39062-0.14062-0.71875-0.35938-0.98438-0.03125-0.046875-0.078125-0.10938-0.125-0.15625 0.1875-0.20312 0.34375-0.34375 0.46875-0.42188 0.01563-0.015625 0.03125-0.03125 0.03125-0.0625l-0.03125-0.125c0-0.03125-0.04687-0.046875-0.07813-0.046875-0.01563 0-0.03125 0-0.04687 0.015625-0.20312 0.125-0.42188 0.26562-0.625 0.42188-0.59375-0.42188-1.4688-0.59375-2.4375-0.59375-0.70312 0-1.5312 0.20312-2.3906 0.64062zm2.7031 3.5938h-0.21875c0.75-1.0469 1.625-2.2812 2.3125-3.0781 0.09375 0.17188 0.14062 0.375 0.14062 0.60938 0 0.4375-0.17188 0.9375-0.5625 1.4844-0.1875 0.26562-0.42188 0.53125-0.71875 0.70312-0.34375 0.20312-0.67188 0.28125-0.95312 0.28125z"/>
</g>
</defs>
<g transform="translate(-149.65 -127.62)">
<use x="148.71201" y="134.765" xlink:href="#a"/>
</g>
</svg>
