<?xml version="1.0" encoding="UTF-8"?>
<svg fill="#000000" version="1.1" viewBox="0 0 3.4531 5.0781" xmlns="http://www.w3.org/2000/svg" xmlns:xlink="http://www.w3.org/1999/xlink">
<defs>
<g id="a">
<path d="m1.6406 0.28125c0.79688-0.32812 1.5469-0.73438 2.25-1.2031 0.17188-0.6875 0.21875-1.375 0.21875-2.0938 0-0.375-0.015625-0.75-0.046875-1.125-0.53125-0.10938-1.0156-0.35938-1.4688-0.65625-0.5625 0.42188-1.1406 0.8125-1.75 1.1719-0.14062 0.96875-0.1875 2.0625-0.1875 2.9531 0.28125 0.32812 0.64062 0.65625 0.98438 0.95312zm1.0312-0.71875c-0.45312-0.0625-0.84375-0.42188-1.1406-0.78125-0.046875-0.25-0.0625-0.5625-0.0625-0.89062 0-0.9375 0.17188-1.5469 0.375-1.8906 0.45312 0.20312 1.0312 0.42188 1.4844 0.45312 0 1.4219 0.046875 2.3281-0.4375 2.9219-0.046875 0.0625-0.15625 0.1875-0.21875 0.1875z"/>
</g>
</defs>
<g transform="translate(-149.37 -129.97)">
<use x="148.71201" y="134.765" xlink:href="#a"/>
</g>
</svg>
