<?xml version="1.0" encoding="UTF-8"?>
<svg fill="#000000" version="1.1" viewBox="0 0 5.5156 5.5" xmlns="http://www.w3.org/2000/svg" xmlns:xlink="http://www.w3.org/1999/xlink">
<defs>
<g id="a">
<path d="m6.1562-1.0312c0 0.046875 0.03125 0.10938 0.0625 0.15625l1.0156 1.0156c0.046875 0.046875 0.10938 0.0625 0.15625 0.0625 0.125 0 0.23438-0.078125 0.23438-0.21875 0-0.0625-0.03125-0.125-0.0625-0.15625l-1.0156-1.0312c-0.046875-0.03125-0.10938-0.046875-0.17188-0.046875-0.10938 0-0.21875 0.078125-0.21875 0.21875zm-1.0625-3.5312c0-0.14062-0.10938-0.23438-0.23438-0.23438-0.046875 0-0.21875 0.015625-0.5625 0.015625-1.3906 0-1.75-0.51562-1.9531-0.51562-0.14062 0-0.23438 0.10938-0.23438 0.21875 0 0.20312 0.53125 0.5625 0.53125 1.9531 0 0.34375-0.015625 0.51562-0.015625 0.57812 0 0.125 0.09375 0.21875 0.21875 0.21875 0.23438 0 0.25-0.23438 0.25-0.48438v-0.0625c0-0.34375-0.046875-0.70312-0.046875-1.0625v-0.10938l0.90625 0.90625c0.046875 0.046875 0.10938 0.0625 0.15625 0.0625 0.125 0 0.23438-0.078125 0.23438-0.21875 0-0.0625-0.03125-0.125-0.0625-0.17188l-0.90625-0.89062h0.03125c0.375 0 0.76562 0.03125 1.1406 0.03125h0.09375c0.21875 0 0.45312-0.015625 0.45312-0.23438zm1.1094 0.1875c-0.046875 0-0.10938 0.03125-0.125 0.078125l-1.9375 4.125v0.0625c0 0.078125 0.0625 0.15625 0.14062 0.15625 0.0625 0 0.10938-0.03125 0.14062-0.09375l1.9219-4.125c0-0.015625 0.015625-0.03125 0.015625-0.0625 0-0.078125-0.0625-0.14062-0.15625-0.14062z"/>
</g>
</defs>
<g transform="translate(-150.82 -129.47)">
<use x="148.71201" y="134.765" xlink:href="#a"/>
</g>
</svg>
