<?xml version="1.0" encoding="UTF-8"?>
<svg fill="#000000" version="1.1" viewBox="0 0 1.7031 6.5469" xmlns="http://www.w3.org/2000/svg" xmlns:xlink="http://www.w3.org/1999/xlink">
<defs>
<g id="a">
<path d="m2.2969-4c0-0.48438-0.35938-0.85938-0.84375-0.85938-0.5 0-0.85938 0.375-0.85938 0.85938 0 0.46875 0.35938 0.82812 0.85938 0.82812 0.48438 0 0.84375-0.35938 0.84375-0.82812zm-0.4375 0c0 0.21875-0.1875 0.39062-0.40625 0.39062-0.23438 0-0.42188-0.17188-0.42188-0.39062 0-0.23438 0.1875-0.42188 0.42188-0.42188 0.21875 0 0.40625 0.17188 0.40625 0.42188zm-0.8125 5.6875c1.0781-0.5625 1.25-1.1406 1.25-2.0625 0-0.375-0.14062-1.0469-0.875-1.0469-0.5 0-0.82812 0.39062-0.82812 0.875 0 0.46875 0.34375 0.82812 0.78125 0.82812 0.15625 0 0.14062-0.03125 0.25-0.03125 0.078125 0 0.10938 0.046875 0.10938 0.125 0 0.25-0.23438 0.60938-0.89062 0.9375zm0.78125-2.2344c0 0.23438-0.15625 0.39062-0.375 0.39062-0.25 0-0.42188-0.17188-0.42188-0.39062 0-0.23438 0.1875-0.42188 0.42188-0.42188 0.21875 0 0.375 0.1875 0.375 0.42188z"/>
</g>
</defs>
<g transform="translate(-149.31 -129.91)">
<use x="148.71201" y="134.765" xlink:href="#a"/>
</g>
</svg>
