<?xml version="1.0" encoding="UTF-8"?>
<svg fill="#000000" version="1.1" viewBox="0 0 5.2812 6.1562" xmlns="http://www.w3.org/2000/svg" xmlns:xlink="http://www.w3.org/1999/xlink">
<defs>
<g id="a">
<path d="m5.8125-2.2188-0.40625-0.15625c-0.15625 0.5-0.42188 0.96875-1.0156 0.96875-0.39062 0-0.85938-0.375-1.1875-0.57812l0.375-0.92188c0.20312 0.078125 0.40625 0.14062 0.625 0.14062 0.95312 0 1.4531-0.5625 1.6094-1.4844l-0.40625-0.15625c-0.15625 0.51562-0.42188 0.98438-1.0156 0.98438-0.1875 0-0.375-0.09375-0.53125-0.1875l0.8125-2.0312h-0.54688l-0.70312 1.7656c-0.375-0.23438-0.78125-0.5-1.25-0.5-0.89062 0-1.3906 0.48438-1.6406 1.3125l0.39062 0.15625c0.21875-0.46875 0.53125-0.79688 1.0781-0.79688 0.375 0 0.8125 0.35938 1.125 0.54688l-0.35938 0.9375c-0.1875-0.078125-0.39062-0.14062-0.59375-0.14062-0.89062 0-1.3906 0.5-1.6406 1.3281l0.39062 0.14062c0.21875-0.46875 0.53125-0.79688 1.0781-0.79688 0.17188 0 0.34375 0.078125 0.5 0.15625l-0.82812 2.0469h0.54688l0.70312-1.7656c0.39062 0.25 0.8125 0.5 1.2812 0.5 0.95312 0 1.4531-0.5625 1.6094-1.4688z"/>
</g>
</defs>
<g transform="translate(-149.24 -129.12)">
<use x="148.71201" y="134.765" xlink:href="#a"/>
</g>
</svg>
