<?xml version="1.0" encoding="UTF-8"?>
<svg fill="#000000" version="1.1" viewBox="0 0 6.6562 4.6719" xmlns="http://www.w3.org/2000/svg" xmlns:xlink="http://www.w3.org/1999/xlink">
<defs>
<g id="a">
<path d="m7.2031-4.625c0-0.10938-0.078125-0.20312-0.20312-0.20312-0.0625 0-0.078125 0-0.26562 0.15625-1.0156 0.79688-1.9844 1.125-2.8594 1.125-1.0312 0-2-0.45312-2.9062-1.1406-0.125-0.10938-0.15625-0.14062-0.21875-0.14062-0.125 0-0.20312 0.09375-0.20312 0.20312 0 0.046875 0 0.078125 0.046875 0.14062 0.03125 0.015625 0.65625 0.5625 1.4688 0.92188 0.76562 0.34375 1.375 0.40625 1.8125 0.40625 0.89062 0 1.8594-0.29688 2.9219-1.0625 0.09375-0.078125 0.3125-0.23438 0.34375-0.28125 0.015625 0 0.0625-0.0625 0.0625-0.125zm0 4.2656c0-0.046875 0-0.078125-0.0625-0.14062-0.015625-0.015625-0.65625-0.5625-1.4531-0.92188-0.76562-0.34375-1.375-0.40625-1.8125-0.40625-0.89062 0-1.875 0.29688-2.9219 1.0625-0.10938 0.078125-0.3125 0.23438-0.35938 0.28125 0 0-0.046875 0.0625-0.046875 0.125 0 0.10938 0.078125 0.20312 0.20312 0.20312 0.0625 0 0.078125 0 0.25-0.15625 1.0312-0.79688 2-1.125 2.875-1.125 1.0312 0 2 0.45312 2.9062 1.1406 0.10938 0.10938 0.14062 0.14062 0.21875 0.14062 0.125 0 0.20312-0.09375 0.20312-0.20312z"/>
</g>
</defs>
<g transform="translate(-149.26 -129.94)">
<use x="148.71201" y="134.765" xlink:href="#a"/>
</g>
</svg>
