<?xml version="1.0" encoding="UTF-8"?>
<svg fill="#000000" version="1.1" viewBox="0 0 7.1875 10.672" xmlns="http://www.w3.org/2000/svg" xmlns:xlink="http://www.w3.org/1999/xlink">
<defs>
<g id="a">
<path d="m1.5312 2.5938v-10.031h5.9062v10.031h0.64062v-10.672h-7.1875v10.672zm3.4062-4.4531c-0.125-0.14062-0.29688-0.29688-0.45312-0.29688-0.14062 0-0.3125 0.17188-0.45312 0.29688-0.125 0.14062-0.29688 0.29688-0.29688 0.45312s0.17188 0.3125 0.29688 0.45312c0.14062 0.14062 0.3125 0.29688 0.45312 0.29688 0.15625 0 0.32812-0.17188 0.45312-0.29688 0.14062-0.14062 0.29688-0.3125 0.29688-0.46875 0-0.14062-0.17188-0.29688-0.29688-0.4375z"/>
</g>
</defs>
<g transform="translate(-149.6 -126.69)">
<use x="148.71201" y="134.765" xlink:href="#a"/>
</g>
</svg>
