<?xml version="1.0" encoding="UTF-8"?>
<svg fill="#000000" version="1.1" viewBox="0 0 6.4219 7.9844" xmlns="http://www.w3.org/2000/svg" xmlns:xlink="http://www.w3.org/1999/xlink">
<defs>
<g id="a">
<path d="m7.3125-4.8906c-0.0625 0-0.125 0.03125-0.17188 0.078125l-1.2969 1.2969-1.3125-2.8281c-0.03125-0.046875-0.078125-0.078125-0.14062-0.078125-0.10938 0-0.1875 0.10938-0.14062 0.21875l1.375 2.9062-1.2656 1.2656-1.5938-1.5938c-0.046875-0.046875-0.10938-0.078125-0.17188-0.078125-0.17188 0-0.23438 0.17188-0.23438 0.23438s0.015625 0.125 0.078125 0.15625l3.5312 3.5312c0.046875 0.046875 0.10938 0.078125 0.15625 0.078125 0.10938 0 0.21875-0.09375 0.21875-0.23438 0-0.0625-0.015625-0.125-0.046875-0.15625l-1.6094-1.6094 1.1406-1.1406 1.3125 2.8281c0.03125 0.078125 0.125 0.10938 0.20312 0.0625 0.078125-0.03125 0.10938-0.10938 0.078125-0.20312l-1.375-2.9219 1.4219-1.4062c0.046875-0.046875 0.0625-0.10938 0.0625-0.17188 0-0.125-0.078125-0.23438-0.21875-0.23438zm-6.2031 2.6875c0 0.046875 0.015625 0.10938 0.0625 0.15625l3.5312 3.5312c0.046875 0.046875 0.10938 0.078125 0.15625 0.078125 0.125 0 0.23438-0.09375 0.23438-0.23438 0-0.0625-0.015625-0.125-0.0625-0.17188l-3.5312-3.5312c-0.046875-0.03125-0.10938-0.0625-0.17188-0.0625-0.10938 0-0.21875 0.078125-0.21875 0.23438z"/>
</g>
</defs>
<g transform="translate(-149.82 -128.34)">
<use x="148.71201" y="134.765" xlink:href="#a"/>
</g>
</svg>
