<?xml version="1.0" encoding="UTF-8"?>
<svg fill="#000000" version="1.1" viewBox="0 0 3.3524 3.8545" xmlns="http://www.w3.org/2000/svg" xmlns:xlink="http://www.w3.org/1999/xlink">
<defs>
<g id="a">
<path d="m3.4531-4.4219c-0.09375 0.03125-0.1875 0.09375-0.26562 0.15625-0.1875 0.09375-0.35938 0.20312-0.53125 0.29688-0.54688 0.32812-1.0938 0.65625-1.6562 0.95312l-0.5625 0.32812c-0.0625 0.046875-0.17188 0.078125-0.17188 0.17188-0.015625 0.09375 0.078125 0.14062 0.14062 0.17188 0.1875 0.09375 0.35938 0.20312 0.54688 0.3125 0.625 0.35938 1.2656 0.73438 1.8906 1.1094 0.17188 0.078125 0.3125 0.17188 0.46875 0.28125 0.0625 0.015625 0.14062 0.078125 0.21875 0.0625 0.09375-0.03125 0.078125-0.125 0.078125-0.20312v-2.9688c0-0.1875 0.015625-0.375 0-0.5625-0.015625-0.078125-0.078125-0.14062-0.15625-0.10938zm-2.6875 1.9219v-0.015625l0.29688-0.17188 0.57812-0.32812 1.6562-0.96875v2.9531l-1.6562-0.95312-0.57812-0.34375z"/>
</g>
</defs>
<g transform="translate(-148.98 -130.33)">
<use x="148.71201" y="134.765" xlink:href="#a"/>
</g>
</svg>
