<?xml version="1.0" encoding="UTF-8"?>
<svg fill="#000000" version="1.1" viewBox="0 0 5.2969 4.8281" xmlns="http://www.w3.org/2000/svg" xmlns:xlink="http://www.w3.org/1999/xlink">
<defs>
<g id="a">
<path d="m3.8594-3.9688c0.39062 0.375 0.5625 0.90625 0.5625 1.4531 0 0.75-0.34375 2-1.625 2-0.67188 0-0.9375-0.57812-0.9375-1.2812s0.046875-1.2969 0.046875-1.9531c0-0.45312-0.10938-0.95312-0.65625-0.95312-0.5 0-0.98438 0.35938-1.375 0.70312l0.17188 0.21875c0.20312-0.17188 0.4375-0.34375 0.70312-0.34375 0.29688 0 0.375 0.42188 0.375 0.82812v2.1094c0 0.65625 0.26562 1.3125 1.0781 1.3125 1.5625 0 2.9688-1.5156 2.9688-3.0781 0-0.65625-0.28125-1.2656-0.73438-1.7344l-0.20312 0.03125-0.42188 0.51562z"/>
</g>
</defs>
<g transform="translate(-148.59 -130.06)">
<use x="148.71201" y="134.765" xlink:href="#a"/>
</g>
</svg>
