<?xml version="1.0" encoding="UTF-8"?>
<svg fill="#000000" version="1.1" viewBox="0 0 3.0383 8.955" xmlns="http://www.w3.org/2000/svg" xmlns:xlink="http://www.w3.org/1999/xlink">
<defs>
<g id="a">
<path d="m0.32812-6.8125v0.29688c0.15625 0 0.29688 0 0.4375 0.03125 0.09375 0.015625 0.17188 0.03125 0.23438 0.09375 0.14062 0.125 0.10938 0.35938 0.10938 0.53125v6.0625c0 0.14062-0.015625 0.29688 0 0.4375 0.015625 0.23438 0.0625 0.45312 0.17188 0.65625 0.125 0.28125 0.35938 0.53125 0.65625 0.65625 0.45312 0.1875 1.1562 0.046875 1.375-0.4375 0.10938-0.26562 0.0625-0.60938-0.23438-0.70312-0.0625-0.03125-0.10938-0.03125-0.17188-0.03125s-0.10938 0-0.17188 0.03125c-0.28125 0.10938-0.375 0.48438-0.1875 0.71875 0.078125 0.078125 0.17188 0.14062 0.28125 0.15625-0.14062 0.0625-0.26562 0.10938-0.42188 0.125-0.046875 0-0.078125 0-0.14062-0.015625-0.21875-0.03125-0.32812-0.23438-0.39062-0.4375-0.14062-0.46875-0.09375-0.95312-0.09375-1.4219v-6.8594z"/>
</g>
</defs>
<g transform="translate(-149.04 -127.84)">
<use x="148.71201" y="134.765" xlink:href="#a"/>
</g>
</svg>
