<?xml version="1.0" encoding="UTF-8"?>
<svg fill="#000000" version="1.1" viewBox="0 0 6.625 8.1094" xmlns="http://www.w3.org/2000/svg" xmlns:xlink="http://www.w3.org/1999/xlink">
<defs>
<g id="a">
<path d="m3.8125-2h3.0312c0.17188 0 0.34375 0 0.34375-0.20312s-0.1875-0.20312-0.375-0.20312h-2.7656l0.89062-1.5469c0.28125 0.09375 0.5 0.09375 0.59375 0.09375 0.98438 0 1.6562-0.75 1.6562-1.6094 0-0.25-0.078125-0.3125-0.14062-0.3125-0.046875 0-0.125 0.046875-0.14062 0.26562-0.03125 0.65625-0.70312 1.0938-1.375 1.0938-0.0625 0-0.17188 0-0.3125-0.03125l0.98438-1.7031c0.0625-0.125 0.078125-0.14062 0.078125-0.1875 0-0.10938-0.078125-0.20312-0.20312-0.20312-0.10938 0-0.15625 0.078125-0.21875 0.1875l-0.95312 1.6719c-0.078125 0.10938-0.078125 0.10938-0.09375 0.10938s-0.20312-0.046875-0.84375-0.46875c-0.54688-0.35938-1.1094-0.75-1.75-0.75-0.92188 0-1.6562 0.71875-1.6562 1.625 0 0.21875 0.0625 0.29688 0.14062 0.29688 0.10938 0 0.14062-0.17188 0.14062-0.21875 0.046875-0.84375 0.85938-1.1406 1.375-1.1406 0.46875 0 0.875 0.20312 1.25 0.45312 0.42188 0.25 0.625 0.4375 1.0938 0.67188l-0.96875 1.7031h-2.6719c-0.17188 0-0.35938 0-0.35938 0.20312s0.17188 0.20312 0.34375 0.20312h2.4531l-0.875 1.5312h-1.5625c-0.17188 0-0.35938 0-0.35938 0.20312s0.17188 0.20312 0.34375 0.20312h1.3438c-0.4375 0.76562-0.60938 1.0781-0.71875 1.2656-0.046875 0.078125-0.0625 0.10938-0.0625 0.15625 0 0.10938 0.078125 0.20312 0.20312 0.20312 0.10938 0 0.14062-0.0625 0.23438-0.23438l0.8125-1.3906h4.125c0.17188 0 0.34375 0 0.34375-0.20312s-0.1875-0.20312-0.375-0.20312h-3.875z"/>
</g>
</defs>
<g transform="translate(-149.27 -128.22)">
<use x="148.71201" y="134.765" xlink:href="#a"/>
</g>
</svg>
