<?xml version="1.0" encoding="UTF-8"?>
<svg fill="#000000" version="1.1" viewBox="0 0 6.2031 6.2031" xmlns="http://www.w3.org/2000/svg" xmlns:xlink="http://www.w3.org/1999/xlink">
<defs>
<g id="a">
<path d="m4.4531-2.1406c0 0.45312-0.20312 0.90625-0.53125 1.2344-0.3125 0.3125-0.76562 0.5-1.2188 0.5-0.46875 0-0.90625-0.1875-1.2344-0.5-0.32812-0.32812-0.51562-0.78125-0.51562-1.2344 0-0.46875 0.1875-0.90625 0.51562-1.2344s0.76562-0.51562 1.2344-0.51562c0.45312 0 0.90625 0.1875 1.2344 0.51562 0.3125 0.32812 0.51562 0.76562 0.51562 1.2344zm-3.2812-1.5312c-0.39062 0.40625-0.625 0.95312-0.625 1.5312 0 0.5625 0.23438 1.1094 0.625 1.5156 0.40625 0.39062 0.96875 0.625 1.5312 0.625s1.1094-0.23438 1.5156-0.625c0.39062-0.40625 0.625-0.95312 0.625-1.5156 0-0.51562-0.17188-0.98438-0.5-1.375l2-2v1.4531c0 0.10938 0.09375 0.1875 0.20312 0.1875s0.20312-0.078125 0.20312-0.1875v-1.9375c0-0.046875-0.015625-0.09375-0.0625-0.14062-0.03125-0.046875-0.078125-0.0625-0.14062-0.0625h-1.9375c-0.10938 0-0.1875 0.09375-0.1875 0.20312s0.078125 0.20312 0.1875 0.20312h1.4688l-2.0156 2c-0.375-0.3125-0.85938-0.5-1.3594-0.5-0.5625 0-1.125 0.23438-1.5312 0.625z"/>
</g>
</defs>
<g transform="translate(-149.26 -129.42)">
<use x="148.71201" y="135.623" xlink:href="#a"/>
</g>
</svg>
