<?xml version="1.0" encoding="UTF-8"?>
<svg fill="#000000" version="1.1" viewBox="0 0 6.0312 6.7969" xmlns="http://www.w3.org/2000/svg" xmlns:xlink="http://www.w3.org/1999/xlink">
<defs>
<g id="a">
<path d="m0.32812-6.8125v0.29688c0.23438 0 0.45312 0 0.67188 0.03125 0.10938 0.015625 0.23438 0.03125 0.29688 0.14062 0.078125 0.10938 0.0625 0.28125 0.0625 0.42188v5.0312c0 0.125 0.015625 0.28125-0.046875 0.40625-0.078125 0.10938-0.1875 0.125-0.3125 0.14062-0.21875 0.03125-0.4375 0.03125-0.67188 0.03125v0.29688h5.75l0.1875-1.7656 0.09375-0.79688h-0.25c-0.03125 0.35938-0.078125 0.73438-0.17188 1.0938-0.0625 0.20312-0.125 0.40625-0.25 0.59375-0.10938 0.14062-0.25 0.26562-0.39062 0.35938-0.10938 0.0625-0.23438 0.10938-0.35938 0.15625-0.20312 0.0625-0.42188 0.0625-0.64062 0.0625-0.20312 0-0.4375 0.015625-0.64062-0.015625-0.09375-0.015625-0.20312-0.015625-0.25-0.09375-0.09375-0.10938-0.0625-0.28125-0.0625-0.40625v-5.1094c0-0.125-0.015625-0.28125 0.0625-0.39062 0.09375-0.125 0.21875-0.14062 0.35938-0.15625 0.28125-0.03125 0.57812-0.03125 0.85938-0.03125v-0.29688zm2.7188 0.29688v6.2031h-0.79688v-6.2031z"/>
</g>
</defs>
<g transform="translate(-149.04 -127.95)">
<use x="148.71201" y="134.765" xlink:href="#a"/>
</g>
</svg>
