<?xml version="1.0" encoding="UTF-8"?>
<svg fill="#000000" version="1.1" viewBox="0 0 7.1094 6.1562" xmlns="http://www.w3.org/2000/svg" xmlns:xlink="http://www.w3.org/1999/xlink">
<defs>
<g id="a">
<path d="m5.1094-2.5469c0 0.14062 0.10938 0.23438 0.21875 0.23438 0.078125 0 0.14062-0.03125 0.1875-0.09375 0.53125-0.64062 1.1875-1.1875 2-1.3438 0.10938-0.015625 0.1875-0.10938 0.1875-0.23438 0-0.10938-0.078125-0.1875-0.1875-0.21875-0.8125-0.14062-1.4688-0.71875-2-1.3438-0.046875-0.0625-0.10938-0.078125-0.1875-0.078125-0.10938 0-0.21875 0.078125-0.21875 0.21875 0 0.23438 0.65625 0.71875 1.1406 1.2031h-1.6562l0.21875-1.1719c0-0.078125-0.046875-0.15625-0.125-0.17188-0.09375-0.015625-0.15625 0.046875-0.1875 0.125l-0.20312 1.2188h-3.4688c-0.125 0-0.23438 0.10938-0.23438 0.21875 0 0.14062 0.10938 0.23438 0.23438 0.23438h3.3906l-0.4375 2.4062h-1.7344c0.46875-0.46875 1.1562-0.96875 1.1562-1.2031 0-0.14062-0.10938-0.23438-0.23438-0.23438-0.0625 0-0.125 0.03125-0.17188 0.09375-0.53125 0.64062-1.1875 1.1875-2.0156 1.3438-0.10938 0.015625-0.1875 0.10938-0.1875 0.23438 0 0.10938 0.078125 0.1875 0.1875 0.21875 0.82812 0.14062 1.4844 0.71875 2.0156 1.3438 0.046875 0.0625 0.10938 0.078125 0.17188 0.078125 0.125 0 0.23438-0.078125 0.23438-0.21875 0-0.23438-0.67188-0.71875-1.1562-1.2031h1.6562l-0.20312 1.1719c-0.015625 0.078125 0.03125 0.15625 0.125 0.17188 0.078125 0.015625 0.15625-0.046875 0.17188-0.125l0.21875-1.2188h3.4688c0.125 0 0.21875-0.10938 0.21875-0.21875 0-0.14062-0.09375-0.23438-0.21875-0.23438h-3.3906l0.42188-2.4062h1.7344c-0.45312 0.46875-1.1406 0.96875-1.1406 1.2031z"/>
</g>
</defs>
<g transform="translate(-149.31 -129.14)">
<use x="148.71201" y="134.765" xlink:href="#a"/>
</g>
</svg>
