<?xml version="1.0" encoding="UTF-8"?>
<svg fill="#000000" version="1.1" viewBox="0 0 6.4219 6.7969" xmlns="http://www.w3.org/2000/svg" xmlns:xlink="http://www.w3.org/1999/xlink">
<defs>
<g id="a">
<path d="m0.79688-6.8125-0.03125 0.54688-0.046875 1.125-0.03125 0.5625h0.25c0.015625-0.21875 0.046875-0.45312 0.125-0.65625 0.0625-0.17188 0.14062-0.3125 0.25-0.46875 0.0625-0.10938 0.15625-0.21875 0.26562-0.3125 0.25-0.21875 0.57812-0.32812 0.89062-0.40625 0.48438-0.09375 0.98438-0.09375 1.4844-0.09375h0.65625c-0.14062 0.21875-0.28125 0.4375-0.42188 0.65625l-0.75 1.1562c-0.65625 1-1.3125 2.0156-1.9688 3.0312-0.25 0.375-0.5 0.76562-0.75 1.1406-0.078125 0.10938-0.17188 0.21875-0.17188 0.35938 0 0.03125 0 0.078125 0.015625 0.10938 0.03125 0.046875 0.078125 0.046875 0.14062 0.046875h0.25 5.8438l0.046875-0.57812 0.078125-1.4844 0.046875-0.59375h-0.25c-0.015625 0.32812-0.0625 0.67188-0.15625 0.98438-0.046875 0.1875-0.125 0.35938-0.23438 0.51562-0.09375 0.14062-0.20312 0.28125-0.34375 0.39062-0.20312 0.17188-0.46875 0.26562-0.73438 0.32812-0.40625 0.09375-0.82812 0.10938-1.2344 0.10938h-1.1562c0.10938-0.21875 0.26562-0.42188 0.40625-0.625 0.20312-0.3125 0.40625-0.64062 0.625-0.95312 0.6875-1.0625 1.3906-2.1406 2.0938-3.2188 0.25-0.375 0.5-0.76562 0.75-1.1562 0.078125-0.10938 0.25-0.29688 0.15625-0.46875-0.015625-0.046875-0.078125-0.046875-0.125-0.046875h-0.23438zm5.7031 0.29688c-0.0625 0.17188-0.1875 0.3125-0.29688 0.45312-0.1875 0.3125-0.39062 0.625-0.59375 0.92188-0.64062 1-1.2812 1.9844-1.9375 2.9688-0.26562 0.40625-0.53125 0.8125-0.79688 1.2188-0.078125 0.14062-0.17188 0.28125-0.25 0.40625-0.046875 0.0625-0.078125 0.14062-0.125 0.17188-0.0625 0.046875-0.1875 0.03125-0.25 0.03125h-0.67188c0.078125-0.17188 0.20312-0.32812 0.3125-0.46875 0.1875-0.32812 0.40625-0.64062 0.60938-0.95312 0.64062-0.98438 1.2812-1.9844 1.9375-2.9688 0.26562-0.40625 0.53125-0.79688 0.78125-1.2031 0.078125-0.14062 0.17188-0.25 0.25-0.375 0.03125-0.0625 0.078125-0.14062 0.125-0.17188 0.0625-0.046875 0.17188-0.03125 0.25-0.03125z"/>
</g>
</defs>
<g transform="translate(-149.26 -127.95)">
<use x="148.71201" y="134.765" xlink:href="#a"/>
</g>
</svg>
