<?xml version="1.0" encoding="UTF-8"?>
<svg fill="#000000" version="1.1" viewBox="0 0 6.0938 11.016" xmlns="http://www.w3.org/2000/svg" xmlns:xlink="http://www.w3.org/1999/xlink">
<defs>
<g id="a">
<path d="m3.8438-1.9062 1.5156 0.70312c0.875 0.42188 1.2969 0.64062 1.3594 0.64062 0.10938 0 0.20312-0.10938 0.20312-0.20312 0-0.125-0.078125-0.15625-0.21875-0.23438l-2.7031-1.2656 1.2188-2.9531 1.4844-0.70312c0.15625-0.078125 0.21875-0.09375 0.21875-0.21875s-0.09375-0.20312-0.20312-0.20312c-0.0625 0-0.14062 0.03125-0.1875 0.0625l-1.0781 0.51562 0.76562-1.8438c0.046875-0.125 0.0625-0.14062 0.0625-0.20312 0-0.10938-0.078125-0.1875-0.20312-0.1875-0.0625 0-0.10938 0.015625-0.14062 0.0625l-1.0156 2.4219-3.8906 1.8281c-0.125 0.0625-0.20312 0.125-0.20312 0.23438 0 0.125 0.09375 0.17188 0.20312 0.21875l2.4531 1.1562-1.2656 3.0469h-1.0469c-0.17188 0-0.34375 0-0.34375 0.20312 0 0.1875 0.20312 0.1875 0.375 0.1875h0.84375c-0.078125 0.21875-0.57812 1.3594-0.57812 1.4688s0.078125 0.1875 0.20312 0.1875 0.15625-0.09375 0.21875-0.23438l0.59375-1.4219h4.0625c0.17188 0 0.375 0 0.375-0.1875 0-0.20312-0.17188-0.20312-0.35938-0.20312h-3.9062zm0.84375-3.0625-1.0469 2.5312-2.1406-1.0156z"/>
</g>
</defs>
<g transform="translate(-149.54 -126.76)">
<use x="148.71201" y="134.765" xlink:href="#a"/>
</g>
</svg>
