<?xml version="1.0" encoding="UTF-8"?>
<svg fill="#000000" version="1.1" viewBox="0 0 3.8594 4.5312" xmlns="http://www.w3.org/2000/svg" xmlns:xlink="http://www.w3.org/1999/xlink">
<defs>
<g id="a">
<path d="m2.0781-7.6562c-1.1094 0.125-1.7969 1.0625-1.7969 2.0625s0.8125 1.9688 1.9219 1.9688c1.0938 0 1.9375-0.9375 1.9375-1.9844s-0.79688-2.0469-1.9531-2.0469zm-0.96875 2.3438v-0.46875c0-0.45312 0.03125-0.98438 0.35938-1.3281 0.20312-0.20312 0.46875-0.32812 0.75-0.32812 0.625 0 1 0.5625 1.0625 1.1406 0.015625 0.21875 0.015625 0.4375 0.015625 0.67188 0 0.54688 0 1.2812-0.5625 1.5781-0.15625 0.10938-0.34375 0.15625-0.51562 0.15625-0.32812 0-0.64062-0.15625-0.84375-0.4375s-0.21875-0.64062-0.26562-0.98438zm-0.59375 1.9688c-0.046875 0.03125-0.078125 0.0625-0.078125 0.10938 0 0.078125 0.078125 0.10938 0.15625 0.10938h3.2188c0.0625 0 0.15625-0.03125 0.15625-0.10938 0-0.0625-0.046875-0.10938-0.09375-0.10938h-3.0938c-0.046875 0-0.10938-0.015625-0.15625-0.015625-0.03125 0-0.078125 0.015625-0.10938 0.015625z"/>
</g>
</defs>
<g transform="translate(-148.99 -127.11)">
<use x="148.71201" y="134.765" xlink:href="#a"/>
</g>
</svg>
