<?xml version="1.0" encoding="UTF-8"?>
<svg fill="#000000" version="1.1" viewBox="0 0 10.172 10.188" xmlns="http://www.w3.org/2000/svg" xmlns:xlink="http://www.w3.org/1999/xlink">
<defs>
<g id="a">
<path d="m10.703 4.4375c0-2.8281-2.2656-5.0938-5.0938-5.0938-2.8125 0-5.0781 2.2656-5.0781 5.0938 0 2.8125 2.2812 5.0938 5.0781 5.0938 2.8281 0 5.0938-2.2812 5.0938-5.0938zm-4.7656-0.32812v-3.9531c2.0938 0.15625 3.7812 1.8438 3.9375 3.9531zm-0.65625 0h-3.9531c0.17188-2.1094 1.8594-3.7969 3.9531-3.9531zm4.5938 0.65625c-0.15625 2.0938-1.8438 3.7812-3.9375 3.9531v-3.9531zm-4.5938 3.9531c-2.0938-0.17188-3.7812-1.8594-3.9531-3.9531h3.9531z"/>
</g>
</defs>
<g transform="translate(-149.24 -127.17)">
<use x="148.71201" y="127.823" xlink:href="#a"/>
</g>
</svg>
