<?xml version="1.0" encoding="UTF-8"?>
<svg fill="#000000" version="1.1" viewBox="0 0 7.9688 7.8125" xmlns="http://www.w3.org/2000/svg" xmlns:xlink="http://www.w3.org/1999/xlink">
<defs>
<g id="a">
<path d="m4.8438-6.1875h1.6562c1.3125 0 1.8125-0.76562 1.8125-0.89062 0-0.046875-0.03125-0.0625-0.09375-0.0625-0.10938 0-0.35938 0.09375-0.60938 0.26562-0.078125 0.0625-0.10938 0.0625-0.29688 0.0625h-4.3594c-1.2344 0-2.6094 1.0781-2.6094 1.8906 0 0.0625 0 0.10938 0.078125 0.10938 0.23438 0 0.85938-0.32812 0.89062-0.5625 0-0.17188 0.015625-0.35938 0.21875-0.60938 0.10938-0.125 0.1875-0.20312 0.625-0.20312h1.9844c-0.17188 0.10938-0.21875 0.25-0.23438 0.35938l-1.1406 4.5156c-0.10938 0.48438-0.32812 1.1094-0.60938 1.7656-0.0625 0.10938-0.0625 0.14062-0.0625 0.15625 0 0.0625 0.046875 0.0625 0.09375 0.0625 0.1875 0 0.6875-0.26562 0.82812-0.46875 0.0625-0.10938 0.5-1.125 0.71875-1.9531z"/>
</g>
</defs>
<g transform="translate(-149.06 -127.62)">
<use x="148.71201" y="134.765" xlink:href="#a"/>
</g>
</svg>
