<?xml version="1.0" encoding="UTF-8"?>
<svg fill="#000000" version="1.1" viewBox="0 0 6.1719 6.4375" xmlns="http://www.w3.org/2000/svg" xmlns:xlink="http://www.w3.org/1999/xlink">
<defs>
<g id="a">
<path d="m6.4688 0v-0.65625h-1c-0.125-0.95312-0.5-1.8125-1.0625-2.5312l0.92188-0.92188c0.09375-0.09375 0.17188-0.09375 0.21875-0.09375 0.1875 0 0.21875 0.14062 0.21875 0.3125 0 0.375 0 0.59375 0.09375 0.98438l0.28125-0.015625c-0.015625-0.3125-0.046875-0.5625-0.046875-0.84375 0-0.625 0.09375-1.2188 0.375-1.8906l-0.0625-0.0625c-0.6875 0.28125-1.2969 0.35938-1.9531 0.35938-0.25 0-0.51562-0.015625-0.79688-0.03125l-0.015625 0.26562c0.39062 0.078125 0.54688 0.09375 0.96875 0.09375 0.17188 0 0.35938 0.078125 0.35938 0.25 0 0.0625-0.03125 0.10938-0.09375 0.1875l-0.89062 0.90625c-0.17188-0.17188-0.35938-0.32812-0.5625-0.48438l-0.39062 0.53125c0.17188 0.125 0.32812 0.26562 0.48438 0.42188l-3.2188 3.2188h4.5469c0 0.20312-0.015625 0.42188-0.03125 0.625l0.64062 0.09375c0.046875-0.23438 0.046875-0.48438 0.046875-0.71875zm-4.5938-0.65625 2.0625-2.0625c0.45312 0.59375 0.75 1.2969 0.85938 2.0625z"/>
</g>
</defs>
<g transform="translate(-149.01 -129.05)">
<use x="148.71201" y="134.765" xlink:href="#a"/>
</g>
</svg>
