<?xml version="1.0" encoding="UTF-8"?>
<svg fill="#000000" version="1.1" viewBox="0 0 7.2344 6.9375" xmlns="http://www.w3.org/2000/svg" xmlns:xlink="http://www.w3.org/1999/xlink">
<defs>
<g id="a">
<path d="m4.0781-2.4375 0.0625-0.0625c1.1562-0.015625 1.9062-0.34375 2.2031-2.3594 0.17188-0.90625 0.17188-1.4531 0.60938-1.7344l-0.03125-0.17188c-0.34375 0.03125-0.6875 0.10938-1.0312 0.23438-0.125 0.4375-0.125 0.875-0.1875 1.3125-0.1875 1.2656-0.46875 2.4062-1.5938 2.4688l-0.0625-0.0625c-0.015625-0.57812-0.03125-1.1719-0.03125-1.75 0-0.75 0.0625-1.4844 0.125-2.2344l-0.03125-0.078125-0.85938 0.21875c0.0625 0.82812 0.0625 2.0156 0.0625 3.0156v0.82812l-0.0625 0.078125c-1.5-0.09375-1.6719-1.875-1.6719-3.2031 0-0.57812-0.078125-0.98438-0.4375-0.98438-0.10938 0-0.3125 0-0.34375 0.03125l-1.0781 0.34375 0.078125 0.23438 0.625-0.10938h0.015625c0.67188 0 0.20312 1.0469 0.6875 2.7188 0.23438 0.89062 0.9375 1.2344 2.125 1.2344l0.0625 0.0625v1.5312c0 0.09375-0.078125 0.45312-0.29688 0.5l-0.67188 0.10938v0.28125h2.6562v-0.28125l-0.57812-0.10938c-0.21875-0.046875-0.32812-0.26562-0.32812-0.48438z"/>
</g>
</defs>
<g transform="translate(-148.43 -127.84)">
<use x="148.71201" y="134.765" xlink:href="#a"/>
</g>
</svg>
