<?xml version="1.0" encoding="UTF-8"?>
<svg fill="#000000" version="1.1" viewBox="0 0 6.625 10.453" xmlns="http://www.w3.org/2000/svg" xmlns:xlink="http://www.w3.org/1999/xlink">
<defs>
<g id="a">
<path d="m7.1875 1.25c0-0.21875-0.0625-0.3125-0.14062-0.3125-0.10938 0-0.125 0.17188-0.14062 0.3125-0.046875 0.57812-0.67188 1.0469-1.375 1.0469-0.59375 0-1.0469-0.29688-1.7188-0.73438-0.4375-0.28125-0.96875-0.64062-1.5938-0.64062-0.92188 0-1.6562 0.70312-1.6562 1.625 0 0.21875 0.0625 0.29688 0.14062 0.29688 0.10938 0 0.14062-0.17188 0.14062-0.21875 0.046875-0.84375 0.875-1.1406 1.375-1.1406 0.59375 0 1.0469 0.29688 1.7188 0.75 0.42188 0.28125 0.95312 0.625 1.5938 0.625 0.9375 0 1.6562-0.71875 1.6562-1.6094zm0-2.3281c0-0.20312-0.0625-0.3125-0.14062-0.3125-0.10938 0-0.125 0.17188-0.14062 0.32812-0.046875 0.5625-0.67188 1.0469-1.375 1.0469-0.59375 0-1.0469-0.29688-1.7188-0.75-0.4375-0.28125-0.96875-0.625-1.5938-0.625-0.92188 0-1.6562 0.6875-1.6562 1.625 0 0.21875 0.0625 0.29688 0.14062 0.29688 0.10938 0 0.14062-0.1875 0.14062-0.23438 0.046875-0.82812 0.875-1.1406 1.375-1.1406 0.59375 0 1.0469 0.3125 1.7188 0.75 0.42188 0.28125 0.95312 0.625 1.5938 0.625 0.9375 0 1.6562-0.71875 1.6562-1.6094zm-3.0781-3.9219c1.3125-0.25 1.8594-0.70312 2.0469-0.875 0.6875-0.57812 0.76562-1.4688 0.76562-1.5156 0-0.125-0.10938-0.20312-0.20312-0.20312-0.046875 0-0.17188 0.015625-0.20312 0.17188-0.078125 0.54688-0.25 1.5156-2.2031 1.9688-1.0156 0.23438-2.4531 0.23438-3.0625 0.23438-0.23438 0-0.42188 0-0.42188 0.21875 0 0.1875 0.20312 0.1875 0.375 0.1875h0.57812c1.5469 0 2.5625 0.25 2.7188 0.29688 1.75 0.42188 1.9375 1.4219 2.0312 1.9219 0 0.046875 0.03125 0.17188 0.1875 0.17188 0.09375 0 0.20312-0.078125 0.20312-0.20312 0-0.015625-0.046875-0.875-0.73438-1.4844-0.57812-0.51562-1.3438-0.78125-2.0781-0.89062z"/>
</g>
</defs>
<g transform="translate(-149.27 -127.17)">
<use x="148.71201" y="134.765" xlink:href="#a"/>
</g>
</svg>
