<?xml version="1.0" encoding="UTF-8"?>
<svg fill="#000000" version="1.1" viewBox="0 0 5.5469 6.1875" xmlns="http://www.w3.org/2000/svg" xmlns:xlink="http://www.w3.org/1999/xlink">
<defs>
<g id="a">
<path d="m3.5469-5.75c-0.078125-0.17188-0.14062-0.21875-0.23438-0.21875-0.125 0-0.15625 0.078125-0.21875 0.21875l-2.4688 5.5781c-0.0625 0.125-0.078125 0.14062-0.078125 0.1875 0 0.10938 0.09375 0.20312 0.20312 0.20312 0.0625 0 0.14062-0.015625 0.23438-0.20312l2.3281-5.2969 2.3438 5.2969c0.09375 0.20312 0.20312 0.20312 0.23438 0.20312 0.10938 0 0.20312-0.09375 0.20312-0.20312 0-0.015625 0-0.03125-0.0625-0.15625z"/>
</g>
</defs>
<g transform="translate(-149.26 -128.8)">
<use x="148.71201" y="134.765" xlink:href="#a"/>
</g>
</svg>
