<?xml version="1.0" encoding="UTF-8"?>
<svg fill="#000000" version="1.1" viewBox="0 0 4.7969 8.1406" xmlns="http://www.w3.org/2000/svg" xmlns:xlink="http://www.w3.org/1999/xlink">
<defs>
<g id="a">
<path d="m4.0938-6.8125-0.75 2.75c-0.73438-0.29688-1.4375-0.75-1.9844-1.3438l-0.46875 0.4375c0.64062 0.6875 1.4375 1.2031 2.2969 1.5156l-0.046875 0.15625c-0.84375 0.32812-1.6094 0.82812-2.25 1.5l0.46875 0.4375c0.45312-0.5 1-0.875 1.5781-1.1562l-0.51562 1.8906h-1.5312v0.64062h1.3594l-0.3125 1.1562 0.5625 0.15625 0.34375-1.3125h2.8438v-0.64062h-2.6719l0.57812-2.1562c0.57812-0.17188 1.1562-0.28125 1.7656-0.28125h0.32812v-0.64062h-0.32812c-0.5 0-0.98438-0.0625-1.4688-0.1875l0.75-2.7656z"/>
</g>
</defs>
<g transform="translate(-149.6 -127.95)">
<use x="148.71201" y="134.765" xlink:href="#a"/>
</g>
</svg>
