<?xml version="1.0" encoding="UTF-8"?>
<svg fill="#000000" version="1.1" viewBox="0 0 6.1126 8.3096" xmlns="http://www.w3.org/2000/svg" xmlns:xlink="http://www.w3.org/1999/xlink">
<defs>
<g id="a">
<path d="m6.5312-5.8125v3.4688h-5.3906c-0.10938 0-0.29688-0.03125-0.3125 0.125-0.015625 0.0625-0.015625 0.1875 0.046875 0.25s0.21875 0.03125 0.29688 0.03125h5.3906 0.20312c0.046875 0 0.10938 0 0.14062-0.0625 0.046875-0.0625 0.015625-0.17188 0.015625-0.25v-3.7031c0-0.078125 0.03125-0.20312-0.046875-0.23438-0.078125-0.046875-0.20312-0.015625-0.28125-0.015625h-5.125-0.46875c-0.078125 0-0.15625 0-0.17188 0.09375-0.015625 0.0625-0.015625 0.21875 0.046875 0.26562 0.046875 0.046875 0.14062 0.03125 0.21875 0.03125zm-2.4688 5.4375c-0.20312 0.3125-0.4375 0.59375-0.65625 0.89062-0.046875 0.0625-0.09375 0.125-0.14062 0.20312-0.03125 0.03125-0.0625 0.0625-0.10938 0.09375h-0.1875-1.9375c-0.046875 0-0.125-0.015625-0.15625 0.03125-0.046875 0.03125-0.046875 0.09375-0.046875 0.14062 0 0.09375-0.015625 0.20312 0.10938 0.21875 0.0625 0.015625 0.15625 0 0.23438 0h1.7344c-0.17188 0.20312-0.3125 0.40625-0.46875 0.625-0.046875 0.0625-0.14062 0.17188-0.03125 0.25 0.03125 0.015625 0.0625 0.015625 0.09375 0.015625 0.078125 0 0.1875 0.015625 0.25-0.03125 0.078125-0.046875 0.125-0.15625 0.1875-0.21875 0.09375-0.14062 0.20312-0.28125 0.3125-0.42188 0.046875-0.078125 0.09375-0.20312 0.1875-0.21875h0.28125 2.8906c0.078125 0 0.20312 0.015625 0.26562-0.015625 0.046875-0.046875 0.046875-0.09375 0.046875-0.15625 0-0.078125 0.015625-0.20312-0.10938-0.21875-0.0625-0.015625-0.14062 0-0.20312 0h-2.9062c0.1875-0.29688 0.42188-0.59375 0.64062-0.875 0.046875-0.078125 0.10938-0.14062 0.15625-0.21875l0.09375-0.09375h0.1875 1.9375c0.0625 0 0.125 0.015625 0.17188-0.03125 0.03125-0.03125 0.03125-0.09375 0.03125-0.14062 0-0.09375 0.015625-0.20312-0.10938-0.21875-0.0625-0.015625-0.14062 0-0.21875 0h-1.7344c0.15625-0.20312 0.29688-0.40625 0.45312-0.625 0.046875-0.0625 0.14062-0.17188 0.046875-0.25-0.03125-0.015625-0.078125-0.015625-0.10938-0.015625-0.078125 0-0.17188-0.015625-0.25 0.03125-0.0625 0.046875-0.125 0.15625-0.17188 0.21875-0.10938 0.14062-0.21875 0.29688-0.32812 0.42188-0.03125 0.078125-0.09375 0.20312-0.1875 0.21875-0.078125 0.015625-0.1875 0-0.28125 0h-2.8906c-0.078125 0-0.1875-0.015625-0.26562 0.015625-0.046875 0.046875-0.046875 0.10938-0.046875 0.15625 0 0.078125-0.015625 0.20312 0.10938 0.21875 0.0625 0.015625 0.14062 0 0.20312 0z"/>
</g>
</defs>
<g transform="translate(-149.53 -128.55)">
<use x="148.71201" y="134.765" xlink:href="#a"/>
</g>
</svg>
