<?xml version="1.0" encoding="UTF-8"?>
<svg fill="#000000" version="1.1" viewBox="0 0 6.0938 9.6406" xmlns="http://www.w3.org/2000/svg" xmlns:xlink="http://www.w3.org/1999/xlink">
<defs>
<g id="a">
<path d="m3.8281-7.1094c1.6094 0 2.6875 1.1719 2.6875 2.4844 0 1.3594-1.125 2.4844-2.6719 2.4844h-2.6719c-0.17188 0-0.34375 0-0.34375 0.20312s0.17188 0.20312 0.34375 0.20312h2.7031c1.6719 0 3.0469-1.2656 3.0469-2.875 0-1.625-1.375-2.8906-3.0625-2.8906h-2.6875c-0.17188 0-0.34375 0-0.34375 0.1875 0 0.20312 0.17188 0.20312 0.34375 0.20312zm2.7344 9.25c0.17188 0 0.35938 0 0.35938-0.20312s-0.1875-0.20312-0.35938-0.20312h-5.3906c-0.17188 0-0.34375 0-0.34375 0.20312s0.17188 0.20312 0.34375 0.20312zm0-1.9375c0.17188 0 0.35938 0 0.35938-0.20312s-0.1875-0.20312-0.35938-0.20312h-5.3906c-0.17188 0-0.34375 0-0.34375 0.20312s0.17188 0.20312 0.34375 0.20312z"/>
</g>
</defs>
<g transform="translate(-149.54 -127.26)">
<use x="148.71201" y="134.765" xlink:href="#a"/>
</g>
</svg>
