<?xml version="1.0" encoding="UTF-8"?>
<svg fill="#000000" version="1.1" viewBox="0 0 8.8281 5.6406" xmlns="http://www.w3.org/2000/svg" xmlns:xlink="http://www.w3.org/1999/xlink">
<defs>
<g id="a">
<path d="m5.25-4.9375c0.046875-0.125 0.046875-0.14062 0.046875-0.17188 0-0.14062-0.10938-0.20312-0.1875-0.20312-0.125 0-0.17188 0.0625-0.21875 0.21875l-0.60938 1.4375h-3.375c-0.17188 0-0.34375 0-0.34375 0.20312 0 0.1875 0.1875 0.1875 0.35938 0.1875h3.1875l-0.65625 1.5469h-2.5312c-0.17188 0-0.35938 0-0.35938 0.1875 0 0.20312 0.17188 0.20312 0.34375 0.20312h2.3906c-0.09375 0.1875-0.60938 1.3906-0.60938 1.4531 0 0.14062 0.125 0.20312 0.20312 0.20312 0.125 0 0.17188-0.09375 0.20312-0.1875l0.625-1.4688h3.0469c-0.79688 0.875-1 1.4219-1 1.4531 0 0.125 0.10938 0.125 0.20312 0.125 0.15625 0 0.15625-0.015625 0.25-0.1875 0.51562-0.96875 1.4219-1.9688 3-2.4219 0.125-0.03125 0.17188-0.046875 0.17188-0.14062 0-0.078125-0.046875-0.09375-0.15625-0.125-1.5938-0.45312-2.5-1.4531-2.9844-2.3594-0.10938-0.1875-0.10938-0.20312-0.125-0.21875-0.046875-0.03125-0.09375-0.03125-0.15625-0.03125-0.09375 0-0.20312 0-0.20312 0.125 0 0.015625 0.20312 0.5625 1 1.4531h-2.0625zm-1.3594 3.2188 0.64062-1.5469h2.4844c0.1875 0 0.20312 0 0.32812 0.10938 0.5625 0.42188 1.0938 0.64062 1.1406 0.65625-0.046875 0.03125-0.625 0.28125-1.0625 0.60938-0.10938 0.09375-0.1875 0.14062-0.1875 0.14062-0.03125 0.015625-0.03125 0.03125-0.21875 0.03125z"/>
</g>
</defs>
<g transform="translate(-149.27 -129.45)">
<use x="148.71201" y="134.765" xlink:href="#a"/>
</g>
</svg>
