<?xml version="1.0" encoding="UTF-8"?>
<svg fill="#000000" version="1.1" viewBox="0 0 6.7969 7.1406" xmlns="http://www.w3.org/2000/svg" xmlns:xlink="http://www.w3.org/1999/xlink">
<defs>
<g id="a">
<path d="m0.78125-5.25 0.17188 0.14062c0.3125-0.40625 0.70312-0.8125 1.2812-0.8125 0.5625 0 0.98438 0.67188 1.0625 1.2031 0.046875 0.35938 0.046875 0.70312 0.046875 1.0625h-1.375l-0.375 0.42188c0.59375-0.078125 1.1719-0.078125 1.75-0.078125 0 0.85938-0.125 1.7812-0.71875 2.3594-0.25 0.26562-0.59375 0.46875-0.98438 0.46875-0.34375 0-0.64062-0.21875-0.78125-0.51562l-0.59375 0.6875c0.1875 0.29688 0.48438 0.53125 0.84375 0.53125 0.32812 0 0.6875-0.23438 0.96875-0.42188 0.39062-0.26562 0.73438-0.57812 1.0625-0.90625l0.42188-0.42188c0.17188 0.82812 0.64062 1.7969 1.5938 1.7969 0.10938 0 0.3125-0.0625 0.46875-0.10938l1.1094-0.89062v-0.21875c-0.3125 0.21875-0.65625 0.42188-1.0469 0.42188-1.3906 0-1.6562-1.8281-1.6562-2.7812 0.46875 0 0.9375 0.015625 1.3906 0.078125l0.375-0.42188h-1.7656c0-0.92188 0.3125-1.9688 1.0781-2.4844 0.10938 0.29688 0.59375 0.73438 0.9375 0.89062l1.0156-0.57812v-0.1875c-0.14062 0.0625-0.3125 0.15625-0.42188 0.15625-0.42188 0-0.5625-0.60938-0.78125-1.0156-0.79688 0.32812-1.4844 0.92188-1.875 1.7344v-0.0625c-0.10938-0.40625-0.23438-0.875-0.53125-1.1719-0.3125-0.29688-0.76562-0.4375-1.2031-0.46875z"/>
</g>
</defs>
<g transform="translate(-148.98 -127.89)">
<use x="148.71201" y="134.765" xlink:href="#a"/>
</g>
</svg>
