<?xml version="1.0" encoding="UTF-8"?>
<svg fill="#000000" version="1.1" viewBox="0 0 7.3906 7.3906" xmlns="http://www.w3.org/2000/svg" xmlns:xlink="http://www.w3.org/1999/xlink">
<defs>
<g id="a">
<path d="m7.7812-5.625-0.46875-0.46875-0.75 0.75c-0.625-0.53125-1.4531-0.85938-2.3594-0.85938s-1.7344 0.3125-2.375 0.84375l-0.73438-0.73438-0.46875 0.46875 0.73438 0.73438c-0.54688 0.65625-0.85938 1.4844-0.85938 2.375 0 0.90625 0.3125 1.7344 0.85938 2.3594l-0.75 0.75 0.46875 0.46875 0.75-0.75c0.64062 0.54688 1.4688 0.875 2.375 0.875 0.89062 0 1.7188-0.3125 2.3594-0.85938l0.75 0.73438 0.46875-0.46875-0.75-0.73438c0.54688-0.64062 0.85938-1.4688 0.85938-2.375 0-0.89062-0.3125-1.7188-0.85938-2.3594zm-3.5781 2.6406-1.9062-1.9062c0.51562-0.40625 1.1875-0.65625 1.9062-0.65625s1.375 0.25 1.8906 0.65625zm0.46875 0.46875 1.8906-1.9062c0.42188 0.53125 0.67188 1.1875 0.67188 1.9062s-0.25 1.3906-0.67188 1.9062zm-0.9375 0-1.9062 1.9062c-0.42188-0.53125-0.67188-1.1875-0.67188-1.9062s0.25-1.375 0.67188-1.9062zm2.3594 2.375c-0.51562 0.42188-1.1719 0.67188-1.8906 0.67188s-1.3906-0.25-1.9062-0.67188l1.9062-1.9062z"/>
</g>
</defs>
<g transform="translate(-149.21 -128.56)">
<use x="148.71201" y="134.765" xlink:href="#a"/>
</g>
</svg>
