<?xml version="1.0" encoding="UTF-8"?>
<svg fill="#000000" version="1.1" viewBox="0 0 6.6406 7.0284" xmlns="http://www.w3.org/2000/svg" xmlns:xlink="http://www.w3.org/1999/xlink">
<defs>
<g id="a">
<path d="m0.95312-6.4219h5.8438v6.4375c0 0.046875 0 0.10938 0.015625 0.14062 0.0625 0.078125 0.20312 0.0625 0.28125 0.046875 0.046875 0 0.09375-0.046875 0.10938-0.09375v-0.28125-6.3906c0-0.0625 0-0.125-0.015625-0.17188-0.015625-0.078125-0.09375-0.078125-0.15625-0.078125h-0.21875-6.0625c-0.046875 0-0.09375 0-0.125 0.015625-0.0625 0.03125-0.0625 0.078125-0.0625 0.125v0.25 6.25 0.21875c0 0.03125 0 0.078125 0.03125 0.125 0.046875 0.0625 0.15625 0.03125 0.21875 0.03125 0.1875 0 0.14062-0.21875 0.14062-0.35938zm1.5625 1.5625h2.7344v4.5469c0 0.0625-0.015625 0.14062 0 0.1875 0.015625 0.125 0.14062 0.10938 0.21875 0.10938 0.046875 0 0.10938 0 0.14062-0.03125 0.0625-0.078125 0.03125-0.21875 0.03125-0.29688v-4.5312-0.21875c0-0.046875 0-0.09375-0.03125-0.125-0.03125-0.0625-0.09375-0.046875-0.15625-0.046875h-3.1562c-0.046875 0-0.09375 0-0.14062 0.015625-0.078125 0.0625-0.046875 0.21875-0.046875 0.3125v4.625c0 0.078125-0.015625 0.1875 0.03125 0.26562 0.046875 0.0625 0.1875 0.046875 0.26562 0.03125 0.125-0.015625 0.10938-0.15625 0.10938-0.26562z"/>
</g>
</defs>
<g transform="translate(-149.27 -127.95)">
<use x="148.71201" y="134.765" xlink:href="#a"/>
</g>
</svg>
