<?xml version="1.0" encoding="UTF-8"?>
<svg fill="#000000" version="1.1" viewBox="0 0 7.9844 7.1406" xmlns="http://www.w3.org/2000/svg" xmlns:xlink="http://www.w3.org/1999/xlink">
<defs>
<g id="a">
<path d="m4.2031-5.3125c-0.25-0.78125-0.84375-1.5156-1.5781-1.5156-0.9375 0-1.5938 0.625-1.8281 0.85938-0.28125 0.28125-0.5 0.57812-0.5 0.96875 0 0.53125 0.40625 0.89062 0.70312 1.3281 0.0625 0.078125 0.14062 0.17188 0.14062 0.26562 0 0.32812-0.32812 0.64062-0.64062 0.8125l0.14062 0.10938c0.59375-0.29688 1.2344-0.70312 1.2344-1.3281 0-0.59375-0.92188-1.0625-0.92188-1.6875 0-0.5625 0.46875-0.70312 1-0.70312 0.46875 0 0.90625 0.34375 1.1719 0.71875 0.3125 0.4375 0.59375 1.625 0.59375 2.8281 0 0.625-0.046875 1.4844-0.42188 1.875-0.1875 0.1875-0.39062 0.375-0.67188 0.375-0.39062 0-0.625-0.35938-0.71875-0.59375h-0.10938l-0.5625 0.64062c0.1875 0.28125 0.51562 0.57812 0.85938 0.57812 0.45312 0 1.3125-0.75 1.7812-1.1719 0.03125-0.03125 0.10938-0.17188 0.15625-0.26562 0.35938-0.6875 0.4375-1.5 0.4375-2.2812 0-0.42188-0.078125-1.0781-0.15625-1.5 0.29688-0.51562 0.79688-1.2656 1.5312-1.2656 0.60938 0 0.67188 0.96875 0.85938 1.2188 0.0625 0.078125 0.14062 0.1875 0.3125 0.21875-0.26562 0.28125-0.65625 0.625-0.75 0.95312-0.0625 0.21875-0.0625 0.78125-0.0625 1.1719v1.6719l0.64062 1.3281 1.4375-1.0469v-0.23438c-0.17188 0.09375-0.42188 0.23438-0.64062 0.23438-0.57812 0-0.6875-1.3906-0.6875-2.0156 0-0.64062 0-1.75 0.375-2.0625 0.26562-0.21875 0.57812-0.45312 0.875-0.67188v-0.125c-0.125 0.0625-0.29688 0.10938-0.45312 0.10938-0.23438 0-0.32812-0.09375-0.46875-0.57812-0.14062-0.46875-0.32812-0.75-1.0781-0.75-0.54688 0-1.1719 0.34375-1.4844 0.82812-0.046875 0.09375-0.375 0.54688-0.51562 0.70312z"/>
</g>
</defs>
<g transform="translate(-149.01 -127.92)">
<use x="148.71201" y="134.765" xlink:href="#a"/>
</g>
</svg>
