<?xml version="1.0" encoding="UTF-8"?>
<svg fill="#000000" version="1.1" viewBox="0 0 4.3125 10.688" xmlns="http://www.w3.org/2000/svg" xmlns:xlink="http://www.w3.org/1999/xlink">
<defs>
<g id="a">
<path d="m4.875-0.92188c0-0.0625-0.046875-0.14062-0.10938-0.1875l-1.9688-1.1406 0.5625-2.1094 1.4062-0.8125c0.0625-0.046875 0.10938-0.125 0.10938-0.20312 0-0.125-0.10938-0.23438-0.23438-0.23438-0.03125 0-0.078125 0.015625-0.10938 0.03125l-1 0.59375 0.71875-2.7188c0.03125-0.09375-0.03125-0.1875-0.14062-0.1875-0.0625 0-0.125 0.03125-0.14062 0.10938l-0.8125 3-2.4844 1.4375c-0.078125 0.046875-0.10938 0.10938-0.10938 0.20312s0.03125 0.15625 0.10938 0.20312l1.7344 1-0.54688 1.9844h-1.0781c-0.125 0-0.21875 0.10938-0.21875 0.23438s0.09375 0.23438 0.21875 0.23438h0.96875l-0.57812 2.0938c-0.015625 0.09375 0.046875 0.1875 0.15625 0.1875 0.0625 0 0.125-0.03125 0.14062-0.10938l0.57812-2.1719h2.5938c0.14062 0 0.23438-0.10938 0.23438-0.23438s-0.09375-0.23438-0.23438-0.23438h-2.4688l0.5-1.8438 1.8594 1.0781c0.03125 0.015625 0.078125 0.03125 0.10938 0.03125 0.125 0 0.23438-0.09375 0.23438-0.23438zm-1.8906-3.2188-0.46875 1.7344-1.2656-0.73438zm1.125 0.46875c-0.3125 0-0.54688 0.25-0.54688 0.53125 0 0.3125 0.25 0.53125 0.54688 0.53125 0.3125 0 0.53125-0.25 0.53125-0.53125 0-0.3125-0.25-0.53125-0.53125-0.53125z"/>
</g>
</defs>
<g transform="translate(-149.27 -126.87)">
<use x="148.71201" y="134.765" xlink:href="#a"/>
</g>
</svg>
