<?xml version="1.0" encoding="UTF-8"?>
<svg fill="#000000" version="1.1" viewBox="0 0 6.6406 8.8594" xmlns="http://www.w3.org/2000/svg" xmlns:xlink="http://www.w3.org/1999/xlink">
<defs>
<g id="a">
<path d="m6.0156-6.1094c0.54688 0.625 1.1562 0.89062 1.4531 1v-0.29688c-0.45312-0.17188-1.2031-0.59375-1.6562-1.5156-0.32812 0.65625-0.90625 1.2188-1.6719 1.5156-0.70312-0.28125-1.3125-0.8125-1.6406-1.5156-0.40625 0.76562-1 1.2656-1.6719 1.5156v0.29688c0.5625-0.21875 1.0625-0.54688 1.4531-1v7.6719c0 0.1875 0 0.375 0.20312 0.375s0.20312-0.15625 0.20312-0.34375v-7.7188c0.21875 0.23438 0.6875 0.73438 1.4531 1.0156 0.78125-0.28125 1.25-0.78125 1.4688-1.0156v7.7188c0 0.1875 0 0.34375 0.20312 0.34375s0.20312-0.1875 0.20312-0.375z"/>
</g>
</defs>
<g transform="translate(-149.54 -127.84)">
<use x="148.71201" y="134.765" xlink:href="#a"/>
</g>
</svg>
