<?xml version="1.0" encoding="UTF-8"?>
<svg fill="#000000" version="1.1" viewBox="0 0 3.3507 3.8593" xmlns="http://www.w3.org/2000/svg" xmlns:xlink="http://www.w3.org/1999/xlink">
<defs>
<g id="a">
<path d="m1.4531-4.4219c-0.09375 0.03125-0.078125 0.125-0.078125 0.1875v2.8906c0 0.21875-0.015625 0.4375 0 0.64062 0.015625 0.078125 0.0625 0.15625 0.15625 0.125s0.1875-0.09375 0.26562-0.15625c0.1875-0.10938 0.35938-0.20312 0.53125-0.29688 0.54688-0.32812 1.0938-0.65625 1.6562-0.96875 0.1875-0.10938 0.375-0.21875 0.57812-0.32812 0.0625-0.046875 0.15625-0.078125 0.15625-0.17188s-0.09375-0.125-0.15625-0.15625c-0.17188-0.10938-0.34375-0.21875-0.51562-0.3125-0.64062-0.375-1.2812-0.75-1.9375-1.125-0.15625-0.09375-0.3125-0.1875-0.46875-0.26562-0.0625-0.03125-0.125-0.09375-0.1875-0.0625zm0.23438 3.3906v-2.9531l1.6562 0.96875 0.57812 0.32812 0.29688 0.17188v0.015625l-0.29688 0.17188-0.57812 0.34375z"/>
</g>
</defs>
<g transform="translate(-150.08 -130.33)">
<use x="148.71201" y="134.765" xlink:href="#a"/>
</g>
</svg>
