<?xml version="1.0" encoding="UTF-8"?>
<svg fill="#000000" width="6.1719" height="8.0938" version="1.1" viewBox="0 0 6.1719 8.0937" xmlns="http://www.w3.org/2000/svg" xmlns:xlink="http://www.w3.org/1999/xlink">
<defs>
<g id="a">
<path d="m0.82812-1.0938c-0.14062 0-0.23438 0.10938-0.23438 0.21875 0 0.078125 0.03125 0.14062 0.078125 0.1875 0.64062 0.53125 1.2188 1.1875 1.3594 2 0.015625 0.10938 0.10938 0.1875 0.21875 0.1875 0.125 0 0.21875-0.078125 0.23438-0.1875 0.14062-0.8125 0.70312-1.4688 1.3438-2 0.0625-0.046875 0.09375-0.10938 0.09375-0.1875 0-0.10938-0.10938-0.21875-0.25-0.21875-0.21875 0-0.70312 0.67188-1.1875 1.1406v-2.2344l2.4062-0.42188v3.8906c0 0.10938 0.09375 0.21875 0.21875 0.21875s0.23438-0.10938 0.23438-0.21875v-3.9688l1.2188-0.21875c0.078125-0.015625 0.14062-0.078125 0.10938-0.17188 0-0.078125-0.078125-0.125-0.15625-0.125l-1.1719 0.21875v-2.1562c0.45312 0.45312 0.95312 1.1406 1.2031 1.1406 0.125 0 0.21875-0.10938 0.21875-0.23438 0-0.0625-0.03125-0.125-0.09375-0.17188-0.625-0.53125-1.1875-1.1875-1.3438-2-0.015625-0.10938-0.10938-0.1875-0.21875-0.1875s-0.20312 0.078125-0.21875 0.1875c-0.15625 0.8125-0.71875 1.4688-1.3594 2-0.046875 0.046875-0.078125 0.10938-0.078125 0.17188 0 0.125 0.078125 0.23438 0.21875 0.23438 0.23438 0 0.71875-0.67188 1.2188-1.1406v2.2344l-2.4062 0.40625v-3.875c0-0.10938-0.10938-0.21875-0.23438-0.21875-0.10938 0-0.21875 0.10938-0.21875 0.21875v3.9688l-1.2188 0.21875c-0.078125 0.015625-0.14062 0.078125-0.125 0.17188 0.015625 0.078125 0.09375 0.125 0.17188 0.125l1.1719-0.21875v2.1562c-0.46875-0.45312-0.96875-1.1406-1.2031-1.1406z"/>
</g>
</defs>
<g transform="translate(-149.31 -128.17)">
<use x="148.71201" y="134.765" xlink:href="#a"/>
</g>
</svg>
