<?xml version="1.0" encoding="UTF-8"?>
<svg fill="#000000" version="1.1" viewBox="0 0 3.7656 9.5312" xmlns="http://www.w3.org/2000/svg" xmlns:xlink="http://www.w3.org/1999/xlink">
<defs>
<g id="a">
<path d="m1.75-7.0938v0.23438c0 1.1719-0.82812 2.0156-0.82812 2.2188 0 0.14062 0.09375 0.21875 0.21875 0.21875 0.21875 0 0.34375-0.32812 0.78125-1.1562 0.1875 0.85938 0.8125 1.1875 0.8125 1.7656 0 0.90625-1.4219 1.375-1.4219 2.5312 0 0.65625 0.53125 1.0938 0.73438 1.5469 0.09375 0.20312 0.125 0.45312 0.14062 0.70312-0.51562-0.26562-1.3438-0.90625-1.5781-0.90625-0.10938 0-0.23438 0.09375-0.23438 0.23438 0 0.078125 0.046875 0.15625 0.14062 0.20312 1.8906 0.89062 1.6406 1.7188 2.0312 1.7188 0.14062 0 0.21875-0.10938 0.21875-0.23438v-0.21875c0-1.1719 0.82812-2.0156 0.82812-2.2188 0-0.14062-0.10938-0.21875-0.21875-0.21875-0.21875 0-0.35938 0.32812-0.78125 1.1562-0.1875-0.85938-0.82812-1.1875-0.82812-1.7656 0-0.90625 1.4375-1.375 1.4375-2.5312 0-0.65625-0.53125-1.0938-0.73438-1.5469-0.09375-0.20312-0.125-0.45312-0.14062-0.70312 0.51562 0.26562 1.3438 0.90625 1.5781 0.90625 0.10938 0 0.23438-0.09375 0.23438-0.23438 0-0.078125-0.046875-0.15625-0.14062-0.20312-1.8906-0.89062-1.6406-1.7188-2.0312-1.7188-0.14062 0-0.21875 0.10938-0.21875 0.21875z"/>
</g>
</defs>
<g transform="translate(-149.09 -127.45)">
<use x="148.71201" y="134.765" xlink:href="#a"/>
</g>
</svg>
