<?xml version="1.0" encoding="UTF-8"?>
<svg fill="#000000" version="1.1" viewBox="0 0 7.1094 6.1562" xmlns="http://www.w3.org/2000/svg" xmlns:xlink="http://www.w3.org/1999/xlink">
<defs>
<g id="a">
<path d="m3.2031-5.4062c0-0.14062-0.10938-0.21875-0.23438-0.21875-0.0625 0-0.125 0.015625-0.17188 0.078125-0.53125 0.625-1.1875 1.2031-2.0156 1.3438-0.10938 0.03125-0.1875 0.10938-0.1875 0.21875 0 0.125 0.078125 0.21875 0.1875 0.23438 0.76562 0.14062 1.375 0.625 1.875 1.2031-0.5 0.57812-1.1094 1.0781-1.875 1.2031-0.10938 0.015625-0.1875 0.10938-0.1875 0.23438 0 0.10938 0.078125 0.1875 0.1875 0.21875 0.82812 0.14062 1.4844 0.71875 2.0156 1.3438 0.046875 0.0625 0.10938 0.078125 0.17188 0.078125 0.125 0 0.23438-0.078125 0.23438-0.21875 0-0.23438-0.67188-0.71875-1.1562-1.2031h2.0625l-0.42188 1.1562c-0.03125 0.0625 0.015625 0.15625 0.09375 0.1875s0.15625-0.015625 0.1875-0.09375l0.45312-1.25h3.0625c0.125 0 0.21875-0.10938 0.21875-0.21875 0-0.14062-0.09375-0.23438-0.21875-0.23438h-2.9062l0.89062-2.4062h2.0156c0.125 0 0.21875-0.09375 0.21875-0.23438 0-0.10938-0.09375-0.21875-0.21875-0.21875h-1.8594l0.42188-1.1562c0.03125-0.0625-0.015625-0.15625-0.09375-0.1875s-0.15625 0.015625-0.1875 0.09375l-0.45312 1.25h-3.2656c0.46875-0.46875 1.1562-0.95312 1.1562-1.2031zm1.0625 4.0625h-2.2188c0.35938-0.35938 0.78125-0.67188 1.0938-1.0469 0.046875-0.046875 0.0625-0.09375 0.0625-0.14062 0-0.28125-0.59375-0.65625-1.1562-1.2188h3.0938z"/>
</g>
</defs>
<g transform="translate(-149.31 -129.14)">
<use x="148.71201" y="134.765" xlink:href="#a"/>
</g>
</svg>
