<?xml version="1.0" encoding="UTF-8"?>
<svg fill="#000000" version="1.1" viewBox="0 0 5.7969 4.1719" xmlns="http://www.w3.org/2000/svg" xmlns:xlink="http://www.w3.org/1999/xlink">
<defs>
<g id="a">
<path d="m4-6.9375c0.0625 0.20312 0.17188 0.42188 0.25 0.625 0.17188 0.40625 0.53125 1.5469 0.73438 1.5781 0.15625 0 0.21875-0.34375 0.29688-0.51562 0.15625-0.375 0.29688-0.73438 0.45312-1.125l0.14062-0.35938c0.03125-0.078125 0.0625-0.14062 0.09375-0.21875v3.2969c0 0.0625 0.046875 0.125 0.125 0.125h0.03125c0.078125-0.03125 0.09375-0.125 0.09375-0.20312v-3.7969c0-0.078125-0.015625-0.15625-0.10938-0.17188h-0.03125c-0.15625 0-0.46875 0.98438-0.67188 1.4375-0.125 0.35938-0.28125 0.71875-0.42188 1.0781-0.375-0.78125-0.625-1.625-0.98438-2.4062-0.015625-0.046875-0.0625-0.10938-0.125-0.10938h-0.03125c-0.078125 0.015625-0.09375 0.09375-0.09375 0.17188v3.8281c0 0.078125 0.015625 0.17188 0.125 0.17188 0.078125 0 0.125-0.0625 0.125-0.15625zm-2.8594-0.54688c-0.53125 0.046875-0.71875 0.35938-0.71875 0.875 0 0.60938 0.1875 0.92188 0.98438 0.92188h0.60938c0.23438 0 0.51562 0 0.6875 0.1875 0.14062 0.15625 0.14062 0.39062 0.14062 0.60938v0.17188c0 0.625-0.34375 0.75-0.76562 0.75h-1.4531c-0.09375 0-0.1875 0.015625-0.1875 0.10938 0 0.078125 0.0625 0.10938 0.1875 0.10938h1.3438c0.3125 0 0.67188-0.015625 0.90625-0.23438 0.20312-0.20312 0.21875-0.48438 0.21875-0.76562v-0.1875c0-0.23438-0.015625-0.48438-0.17188-0.67188-0.23438-0.28125-0.59375-0.29688-0.9375-0.29688h-0.625c-0.39062 0-0.6875-0.03125-0.6875-0.70312 0-0.34375 0.0625-0.65625 0.625-0.65625h1.4375c0.078125 0 0.14062-0.015625 0.14062-0.10938 0-0.10938-0.14062-0.125-0.26562-0.125h-0.15625c-0.20312 0-0.40625 0.015625-0.60938 0.015625-0.15625 0-0.3125-0.015625-0.46875-0.015625-0.078125 0-0.15625 0-0.23438 0.015625z"/>
</g>
</defs>
<g transform="translate(-149.13 -127.06)">
<use x="148.71201" y="134.765" xlink:href="#a"/>
</g>
</svg>
