<?xml version="1.0" encoding="UTF-8"?>
<svg fill="#000000" version="1.1" viewBox="0 0 5.5469 7.8906" xmlns="http://www.w3.org/2000/svg" xmlns:xlink="http://www.w3.org/1999/xlink">
<defs>
<g id="a">
<path d="m5.8906 0.25v-0.67188l-2.2656-1.1406c-0.09375-0.34375-0.14062-0.67188-0.14062-0.95312 0-0.29688 0.046875-0.64062 0.14062-0.98438l2.2656-1.1406v-0.65625l-1.9531 0.95312c0.32812-0.67188 0.84375-1.2969 1.5625-1.6719l-0.26562-0.45312c-0.70312 0.42188-1.5938 1.2188-2.0156 2.4844l-2.875 1.4062v0.09375l2.8594 1.4219c0.40625 1.2812 1.3281 2.0625 2.0312 2.4844l0.26562-0.42188c-0.73438-0.375-1.25-1.0312-1.5781-1.7188zm-2.8438-3.4531c-0.03125 0.21875-0.0625 0.4375-0.0625 0.6875 0 0.21875 0.03125 0.45312 0.046875 0.65625l-1.3438-0.67188z"/>
</g>
</defs>
<g transform="translate(-149.06 -128.3)">
<use x="148.71201" y="134.765" xlink:href="#a"/>
</g>
</svg>
