<?xml version="1.0" encoding="UTF-8"?>
<svg fill="#000000" version="1.1" viewBox="0 0 4.9844 6.9062" xmlns="http://www.w3.org/2000/svg" xmlns:xlink="http://www.w3.org/1999/xlink">
<defs>
<g id="a">
<path d="m4.6875-1.1094c0.45312 0.5 0.46875 0.8125 0.48438 1 0.015625 0.0625 0.0625 0.09375 0.10938 0.09375s0.25-0.10938 0.25-0.625c0-0.20312 0-0.39062-0.5-1l-0.57812-0.6875 0.375-2.5938c0.03125 0.03125 0.3125 0.34375 0.34375 0.70312 0 0.046875 0.015625 0.125 0.10938 0.125 0.046875 0 0.25-0.10938 0.25-0.625 0-0.34375-0.078125-0.48438-0.53125-0.90625-0.25-0.20312-0.70312-1-0.76562-1.1875-0.03125-0.046875-0.046875-0.09375-0.10938-0.09375-0.046875 0-0.25 0.125-0.25 0.64062 0 0.29688 0.09375 0.51562 0.65625 1.0625-0.015625 0.28125-0.03125 0.5625-0.15625 1.2188-0.15625 0.89062-0.17188 0.96875-0.20312 1.3438l-2.7812-3.1562c-0.4375-0.51562-0.46875-0.82812-0.48438-1.0156-0.015625-0.0625-0.0625-0.09375-0.09375-0.09375-0.0625 0-0.26562 0.125-0.26562 0.64062 0 0.1875 0 0.39062 0.5 0.98438l0.59375 0.6875c-0.53125 0.8125-0.8125 1.5312-0.8125 2.1875 0 0.32812 0.09375 0.5625 0.34375 1.0469 0.15625 0.29688 0.25 0.54688 0.25 0.75 0 0.10938 0 0.375-0.70312 0.39062-0.09375 0-0.17188 0-0.17188 0.10938s0.09375 0.10938 0.26562 0.10938h0.5625c0.26562 0 1.0156-0.015625 1.0156-0.59375 0-0.375-0.23438-0.65625-0.45312-0.9375-0.40625-0.48438-0.4375-0.625-0.4375-0.9375 0-0.375 0.046875-1.1875 0.35938-1.875z"/>
</g>
</defs>
<g transform="translate(-149.26 -127.86)">
<use x="148.71201" y="134.765" xlink:href="#a"/>
</g>
</svg>
