<?xml version="1.0" encoding="UTF-8"?>
<svg fill="#000000" version="1.1" viewBox="0 0 7.0156 7.2031" xmlns="http://www.w3.org/2000/svg" xmlns:xlink="http://www.w3.org/1999/xlink">
<defs>
<g id="a">
<path d="m4.2812-7.1406c-1.2812 0.046875-1.6094 0.125-2.0625 0.98438l0.1875 2.4531c-0.1875 0.71875-0.5 1.0625-0.875 1.0625-0.48438-0.0625-0.79688-0.39062-0.79688-0.82812 0-0.35938 0.17188-0.625 0.51562-0.76562h-0.26562c-0.4375 0.1875-0.64062 0.5-0.64062 0.95312 0.0625 0.78125 0.40625 1.0312 1.4219 1.0312 1.0625-0.03125 1.6719-0.79688 1.6719-2.2031l-0.20312-1.5625c0.28125-0.5625 0.67188-0.84375 1.2031-0.84375 0.71875 0.046875 1.2812 0.65625 1.2812 1.4062 0 0.42188-0.14062 0.92188-0.4375 1.4844-0.85938 1.2812-1.3438 2.0781-1.4375 2.4062v0.60938c0.17188 0.6875 0.85938 1.0156 2.0312 1.0156 0.60938 0 1.4844-0.375 1.4844-1.2656 0-0.59375-0.51562-0.9375-0.95312-0.9375-0.39062 0.03125-0.60938 0.17188-0.60938 0.5 0.078125 0.42188 0.14062 0.54688 0.79688 0.54688 0.10938-0.14062 0.1875-0.21875 0.23438-0.21875 0.015625 0 0.015625 0 0.03125 0.015625l0.0625 0.34375c-0.26562 0.42188-0.57812 0.64062-0.95312 0.64062-0.4375-0.0625-1.0312-0.3125-1.0312-1.0469 0.1875-0.54688 0.64062-1.375 1.375-2.4688l0.34375-0.82812 0.0625-1.0938c-0.1875-0.92188-1-1.3906-2.4375-1.3906z"/>
</g>
</defs>
<g transform="translate(-149.06 -127.62)">
<use x="148.71201" y="134.765" xlink:href="#a"/>
</g>
</svg>
