<?xml version="1.0" encoding="UTF-8"?>
<svg fill="#000000" version="1.1" viewBox="0 0 11.219 8.0312" xmlns="http://www.w3.org/2000/svg" xmlns:xlink="http://www.w3.org/1999/xlink">
<defs>
<g id="a">
<path d="m11.078 0.25v0.65625c0 0.10938 0.09375 0.20312 0.20312 0.20312s0.20312-0.09375 0.20312-0.20312v-1.1094c0-0.0625-0.01563-0.10938-0.0625-0.14062-0.03125-0.03125-0.09375-0.0625-0.14062-0.0625h-1.1094c-0.10938 0-0.1875 0.09375-0.1875 0.20312s0.078125 0.20312 0.1875 0.20312h0.57812c-0.5625 0.42188-1.125 0.625-1.5938 0.625-0.64062 0-1.0781-0.32812-1.0781-0.82812v-5.0469c0-0.92188-0.75-1.6719-1.6719-1.6719-0.65625 0-1.2031 0.35938-1.4844 0.875-0.28125-0.51562-0.84375-0.875-1.4844-0.875s-1.2031 0.35938-1.4844 0.875c-0.28125-0.51562-0.84375-0.875-1.4844-0.875-0.10938 0-0.20312 0.09375-0.20312 0.20312s0.09375 0.20312 0.20312 0.20312c0.70312 0 1.2812 0.5625 1.2812 1.2656v5.0469c0 0.10938 0.09375 0.20312 0.20312 0.20312s0.20312-0.09375 0.20312-0.20312v-5.0469c0-0.70312 0.57812-1.2656 1.2812-1.2656s1.2812 0.5625 1.2812 1.2656v5.0469c0 0.10938 0.09375 0.20312 0.20312 0.20312s0.1875-0.09375 0.1875-0.20312v-5.0469c0-0.70312 0.57812-1.2656 1.2969-1.2656 0.70312 0 1.2656 0.5625 1.2656 1.2656v5.0469c0 0.79688 0.60938 1.2031 1.4062 1.2031 0.625 0 1.3594-0.25 2-0.75z"/>
</g>
</defs>
<g transform="translate(-148.98 -127.84)">
<use x="148.71201" y="134.765" xlink:href="#a"/>
</g>
</svg>
