<?xml version="1.0" encoding="UTF-8"?>
<svg fill="#000000" version="1.1" viewBox="0 0 7.7812 7.7812" xmlns="http://www.w3.org/2000/svg" xmlns:xlink="http://www.w3.org/1999/xlink">
<defs>
<g id="a">
<path d="m8.8281-5.1719c-0.0625 0-0.10938 0.015625-0.15625 0.0625l-6.0625 6.0625c-0.046875 0.046875-0.0625 0.10938-0.0625 0.15625 0 0.125 0.078125 0.23438 0.21875 0.23438 0.0625 0 0.125-0.03125 0.17188-0.0625l6.0469-6.0625c0.0625-0.046875 0.078125-0.10938 0.078125-0.15625 0-0.125-0.09375-0.23438-0.23438-0.23438zm-1.25-1.2656c-0.0625 0-0.125 0.03125-0.17188 0.0625l-6.0625 6.0625c-0.03125 0.046875-0.0625 0.10938-0.0625 0.15625 0 0.125 0.078125 0.23438 0.23438 0.23438 0.046875 0 0.10938-0.015625 0.15625-0.0625l6.0625-6.0625c0.046875-0.046875 0.078125-0.10938 0.078125-0.15625 0-0.125-0.09375-0.23438-0.23438-0.23438z"/>
</g>
</defs>
<g transform="translate(-149.99 -128.33)">
<use x="148.71201" y="134.765" xlink:href="#a"/>
</g>
</svg>
