<?xml version="1.0" encoding="UTF-8"?>
<svg fill="#000000" version="1.1" viewBox="0 0 6.3672 6.7349" xmlns="http://www.w3.org/2000/svg" xmlns:xlink="http://www.w3.org/1999/xlink">
<defs>
<g id="a">
<path d="m6.5312-1.0312h-4.5c0.15625-0.17188 0.29688-0.34375 0.45312-0.53125 0.078125-0.09375 0.14062-0.1875 0.23438-0.28125 0.046875-0.078125 0.125-0.17188 0.1875-0.25 0.03125-0.046875 0.0625-0.09375 0.078125-0.14062 0.03125-0.14062-0.15625-0.125-0.25-0.125-0.03125 0-0.0625 0-0.09375 0.015625-0.0625 0.046875-0.125 0.09375-0.17188 0.15625-0.09375 0.078125-0.20312 0.15625-0.29688 0.25-0.3125 0.25-0.64062 0.48438-0.98438 0.6875-0.15625 0.09375-0.3125 0.1875-0.48438 0.26562-0.0625 0.03125-0.14062 0.0625-0.14062 0.14062 0 0.09375 0.078125 0.125 0.14062 0.15625 0.17188 0.078125 0.32812 0.17188 0.48438 0.26562 0.34375 0.20312 0.67188 0.4375 0.98438 0.6875 0.09375 0.078125 0.20312 0.17188 0.29688 0.25 0.046875 0.046875 0.10938 0.10938 0.17188 0.15625 0.03125 0.015625 0.0625 0.015625 0.09375 0.015625 0.09375 0 0.28125 0.015625 0.25-0.125-0.015625-0.046875-0.046875-0.10938-0.078125-0.14062-0.0625-0.078125-0.14062-0.17188-0.1875-0.25-0.09375-0.10938-0.15625-0.1875-0.23438-0.29688-0.15625-0.17188-0.29688-0.34375-0.45312-0.51562h4.7344c0.03125 0 0.078125 0 0.125-0.03125 0.0625-0.0625 0.03125-0.20312 0.03125-0.28125v-4.7812c0-0.09375 0.03125-0.25-0.078125-0.29688-0.03125-0.015625-0.0625-0.015625-0.09375-0.015625-0.078125 0-0.15625 0-0.20312 0.0625-0.015625 0.046875-0.015625 0.078125-0.015625 0.125z"/>
</g>
</defs>
<g transform="translate(-149.27 -128.72)">
<use x="148.71201" y="134.765" xlink:href="#a"/>
</g>
</svg>
