<?xml version="1.0" encoding="UTF-8"?>
<svg fill="#000000" version="1.1" viewBox="0 0 4.7969 8.375" xmlns="http://www.w3.org/2000/svg" xmlns:xlink="http://www.w3.org/1999/xlink">
<defs>
<g id="a">
<path d="m2.7344-6.0938c0-0.3125 0.25-0.5625 0.5625-0.5625 0.15625 0 0.32812 0.078125 0.4375 0.20312l-0.23438 0.875c-0.078125 0.03125-0.14062 0.03125-0.20312 0.03125-0.3125 0-0.5625-0.25-0.5625-0.54688zm-0.48438 0c0 0.5625 0.48438 1.0312 1.0469 1.0312h0.0625l-0.28125 1.0469h-2.1875v0.64062h2.0156l-0.34375 1.2656h-1.6719v0.64062h1.5l-0.48438 1.8125 0.5625 0.14062 0.51562-1.9531h2.7031v-0.64062h-2.5312l0.34375-1.2656h2.1875v-0.64062h-2.0156l0.35938-1.375c0.1875-0.1875 0.29688-0.45312 0.29688-0.70312 0-0.09375-0.015625-0.17188-0.03125-0.25l0.375-1.3906-0.5625-0.15625-0.23438 0.9375c-0.17188-0.10938-0.375-0.1875-0.57812-0.1875-0.57812 0-1.0469 0.46875-1.0469 1.0469z"/>
</g>
</defs>
<g transform="translate(-149.6 -126.87)">
<use x="148.71201" y="134.765" xlink:href="#a"/>
</g>
</svg>
