<?xml version="1.0" encoding="UTF-8"?>
<svg fill="#000000" width="4.7969" height="3.9688" version="1.1" viewBox="0 0 4.7969 3.9687" xmlns="http://www.w3.org/2000/svg" xmlns:xlink="http://www.w3.org/1999/xlink">
<defs>
<g id="a">
<path d="m1.3438-4.7188-0.45312 0.4375c0.64062 0.64062 1.4844 1.0469 2.4062 1.0469 0.90625 0 1.75-0.39062 2.3906-1.0312l-0.45312-0.45312c-0.51562 0.51562-1.2031 0.85938-1.9375 0.85938-0.75 0-1.4219-0.34375-1.9375-0.85938zm0.015625 3.9688c0.51562-0.53125 1.1875-0.875 1.9375-0.875 0.73438 0 1.4062 0.34375 1.9219 0.875l0.46875-0.45312c-0.64062-0.64062-1.4844-1.0469-2.3906-1.0469-0.92188 0-1.7656 0.39062-2.4062 1.0312z"/>
</g>
</defs>
<g transform="translate(-149.6 -130.05)">
<use x="148.71201" y="134.765" xlink:href="#a"/>
</g>
</svg>
