<?xml version="1.0" encoding="UTF-8"?>
<svg fill="#000000" version="1.1" viewBox="0 0 7.1094 7.3125" xmlns="http://www.w3.org/2000/svg" xmlns:xlink="http://www.w3.org/1999/xlink">
<defs>
<g id="a">
<path d="m3.4688-6.8125c-1.4062 0-2.4688 0.6875-2.875 1.1562-0.35938 0.39062-0.39062 0.6875-0.39062 0.70312 0 0.0625 0.046875 0.078125 0.10938 0.078125 0.15625 0 0.39062-0.14062 0.46875-0.1875 0.20312-0.14062 0.23438-0.20312 0.29688-0.39062 0.14062-0.40625 0.42188-0.75 1.6719-0.8125-0.17188 2.25-0.78125 4.4375-1.6094 6.5156-0.0625 0.15625-0.0625 0.17188-0.0625 0.17188 0 0.03125 0.03125 0.078125 0.09375 0.078125 0.15625 0 0.64062-0.21875 0.75-0.48438 0.51562-1.2188 1.3438-3.5 1.6406-6.2812h0.51562c1.2188 0 2.375 0.46875 2.375 1.4688 0 0.75-0.71875 2.1406-2.6406 2.2031-0.21875 0.015625-0.32812 0.015625-0.60938 0.1875-0.17188 0.125-0.25 0.23438-0.25 0.29688s0.0625 0.0625 0.1875 0.0625c1.8125 0 4.1719-1.5312 4.1719-3.1719 0-1.1406-1.3438-1.5938-2.5-1.5938z"/>
</g>
</defs>
<g transform="translate(-148.92 -127.95)">
<use x="148.71201" y="134.765" xlink:href="#a"/>
</g>
</svg>
