<?xml version="1.0" encoding="UTF-8"?>
<svg fill="#000000" version="1.1" viewBox="0 0 6.625 3.5781" xmlns="http://www.w3.org/2000/svg" xmlns:xlink="http://www.w3.org/1999/xlink">
<defs>
<g id="a">
<path d="m5.2969-3.6562c-0.14062-0.85938-0.84375-1.25-1.4219-1.25-0.625 0-1.2969 0.42188-1.4375 1.25h-1.5312c-0.17188 0-0.34375 0-0.34375 0.20312 0 0.1875 0.1875 0.1875 0.35938 0.1875h1.5469c0.28125 0 0.34375 0 0.35938-0.29688 0.03125-0.46875 0.46875-0.9375 1.0469-0.9375 0.625 0 1.0156 0.51562 1.0469 0.9375 0.015625 0.25 0.015625 0.29688 0.35938 0.29688h1.5469c0.1875 0 0.35938 0 0.35938-0.1875 0-0.20312-0.17188-0.20312-0.34375-0.20312zm-4.375 1.9375c-0.17188 0-0.35938 0-0.35938 0.1875 0 0.20312 0.17188 0.20312 0.34375 0.20312h5.9375c0.17188 0 0.34375 0 0.34375-0.20312 0-0.1875-0.17188-0.1875-0.35938-0.1875z"/>
</g>
</defs>
<g transform="translate(-149.27 -129.86)">
<use x="148.71201" y="134.765" xlink:href="#a"/>
</g>
</svg>
