<?xml version="1.0" encoding="UTF-8"?>
<svg fill="#000000" version="1.1" viewBox="0 0 7.8281 11.406" xmlns="http://www.w3.org/2000/svg" xmlns:xlink="http://www.w3.org/1999/xlink">
<defs>
<g id="a">
<path d="m4.7812-2.9062v-3.1094c0-1.0469 0.078125-1.7656 0.57812-1.7656 0.078125 0 0.125 0.03125 0.125 0.10938 0 0.09375-0.09375 0.078125-0.09375 0.28125 0 0.25 0.1875 0.32812 0.35938 0.32812 0.21875 0 0.42188-0.14062 0.42188-0.42188 0-0.29688-0.20312-0.60938-0.6875-0.60938-1.2031 0-1.4219 1.375-1.4219 2.1719v3.0156h-1.7812c-0.17188 0-0.21875-0.10938-0.21875-0.20312 0-0.078125 0.046875-0.1875 0.14062-0.28125 0.29688-0.3125 0.59375-0.625 0.8125-0.95312l-0.1875-0.1875c-0.67188 0.75-1.4219 1.5-2.375 1.9062v0.10938c0.95312 0.39062 1.7031 1.125 2.3594 1.875l0.20312-0.1875c-0.21875-0.32812-0.53125-0.67188-0.82812-0.95312-0.09375-0.10938-0.14062-0.15625-0.14062-0.25s0.10938-0.21875 0.25-0.21875h1.7656v3.6094c0 1-0.078125 1.6406-0.54688 1.6406-0.09375 0-0.14062-0.046875-0.14062-0.10938 0-0.09375 0.09375-0.078125 0.09375-0.28125 0-0.25-0.17188-0.34375-0.35938-0.34375-0.20312 0-0.42188 0.15625-0.42188 0.42188 0 0.3125 0.20312 0.625 0.6875 0.625 1.125 0 1.4062-1.2031 1.4062-2.0156v-3.5469h2.1719c0.35938 0 0.67188 0.10938 0.67188 0.5625 0 0.42188-0.28125 0.59375-0.53125 0.59375h-0.70312v0.65625h0.73438c0.54688 0 1.1562-0.45312 1.1562-1.2344 0-0.84375-0.71875-1.2344-1.2969-1.2344z"/>
</g>
</defs>
<g transform="translate(-149.17 -126.63)">
<use x="148.71201" y="134.72501" xlink:href="#a"/>
</g>
</svg>
