<?xml version="1.0" encoding="UTF-8"?>
<svg fill="#000000" version="1.1" viewBox="0 0 5.6924 6.459" xmlns="http://www.w3.org/2000/svg" xmlns:xlink="http://www.w3.org/1999/xlink">
<defs>
<g id="a">
<path d="m0.3125-4.3125v0.3125c0.17188 0 0.32812 0 0.46875 0.03125 0.10938 0.015625 0.21875 0.078125 0.26562 0.17188 0.0625 0.14062 0.046875 0.32812 0.046875 0.48438v3.3906 0.76562c-0.015625 0.21875-0.03125 0.45312-0.10938 0.65625-0.03125 0.0625-0.0625 0.10938-0.09375 0.15625-0.015625 0.03125-0.046875 0.0625-0.078125 0.09375-0.21875 0.14062-0.45312 0.03125-0.65625-0.0625 0.046875 0 0.10938-0.015625 0.15625-0.046875 0.3125-0.14062 0.32812-0.64062 0.015625-0.8125-0.21875-0.10938-0.51562-0.046875-0.64062 0.17188-0.0625 0.14062-0.0625 0.28125-0.03125 0.42188 0.17188 0.53125 0.82812 0.73438 1.2969 0.54688 0.25-0.10938 0.42188-0.29688 0.54688-0.51562 0.14062-0.25 0.1875-0.5 0.23438-0.78125 0-0.046875 0.03125-0.10938 0.03125-0.15625 0.015625-0.21875 0-0.45312 0-0.67188v-2.3281c0-0.20312 0-0.42188 0.0625-0.625 0.14062-0.51562 0.54688-0.95312 1.0781-1.0625 0.25-0.046875 0.51562-0.03125 0.70312 0.15625 0.046875 0.046875 0.078125 0.09375 0.09375 0.14062 0.0625 0.09375 0.09375 0.20312 0.10938 0.3125 0.0625 0.26562 0.046875 0.54688 0.046875 0.82812v1.9531c0 0.10938 0.015625 0.25-0.078125 0.34375-0.046875 0.0625-0.125 0.09375-0.21875 0.09375-0.15625 0.03125-0.32812 0.03125-0.48438 0.03125v0.29688l0.4375-0.015625 0.92188-0.015625 0.89062 0.03125v-0.29688c-0.15625 0-0.3125 0-0.46875-0.03125-0.14062-0.015625-0.26562-0.0625-0.29688-0.21875-0.015625-0.078125 0-0.1875 0-0.28125v-1.9219c0-0.39062 0-0.75-0.17188-1.0938-0.1875-0.32812-0.53125-0.48438-0.875-0.53125-0.20312-0.03125-0.39062-0.03125-0.57812 0-0.39062 0.046875-0.73438 0.26562-0.98438 0.57812-0.078125 0.10938-0.17188 0.21875-0.20312 0.35938h-0.015625v-0.96875z"/>
</g>
</defs>
<g transform="translate(-148.35 -130.34)">
<use x="148.71201" y="134.765" xlink:href="#a"/>
</g>
</svg>
