<?xml version="1.0" encoding="UTF-8"?>
<svg fill="#000000" version="1.1" viewBox="0 0 5.6406 7.4062" xmlns="http://www.w3.org/2000/svg" xmlns:xlink="http://www.w3.org/1999/xlink">
<defs>
<g id="a">
<path d="m4.25-6.5156c0-0.35938-0.3125-0.625-0.625-0.625-0.32812 0-0.64062 0.25-0.64062 0.625 0 0.39062 0.25 0.64062 0.64062 0.64062 0.375 0 0.625-0.29688 0.625-0.64062zm1.9844 6.7812v-0.65625h-2.9062c-1.0312 0-1.875-0.84375-2.0469-1.7969h4.9531v-0.65625h-4.9531c0.17188-0.9375 1.0312-1.7969 2.0625-1.7969h2.8906v-0.65625h-2.9375c-1.5781 0-2.7031 1.3125-2.7031 2.7812 0 1.4844 1.1406 2.7812 2.7344 2.7812z"/>
</g>
</defs>
<g transform="translate(-149.31 -127.62)">
<use x="148.71201" y="134.765" xlink:href="#a"/>
</g>
</svg>
