<?xml version="1.0" encoding="UTF-8"?>
<svg fill="#000000" version="1.1" viewBox="0 0 6.6094 6.6094" xmlns="http://www.w3.org/2000/svg" xmlns:xlink="http://www.w3.org/1999/xlink">
<defs>
<g id="a">
<path d="m6.7812-2.5c0 0.78125-0.3125 1.5156-0.84375 2.0781-0.54688 0.54688-1.2969 0.84375-2.0625 0.84375-0.78125 0-1.5156-0.29688-2.0781-0.84375-0.54688-0.5625-0.84375-1.2969-0.84375-2.0781 0-0.76562 0.29688-1.5 0.84375-2.0625 0.5625-0.54688 1.2969-0.84375 2.0781-0.84375 0.76562 0 1.5156 0.29688 2.0625 0.84375 0.53125 0.5625 0.84375 1.2969 0.84375 2.0625zm-5.25-2.3281c-0.64062 0.60938-0.96875 1.4531-0.96875 2.3281 0 0.89062 0.32812 1.7344 0.96875 2.3438 0.60938 0.625 1.4531 0.96875 2.3438 0.96875 0.875 0 1.7188-0.34375 2.3281-0.96875 0.625-0.60938 0.96875-1.4531 0.96875-2.3438 0-0.875-0.34375-1.7188-0.96875-2.3281-0.60938-0.625-1.4531-0.96875-2.3281-0.96875-0.89062 0-1.7344 0.34375-2.3438 0.96875zm0.45312 3.4219c0.046875 0.09375 0.125 0.14062 0.21875 0.14062 0.046875 0 0.09375-0.015625 0.125-0.046875l1.4219-0.98438-0.14062 1.75c0 0.14062 0.125 0.23438 0.26562 0.23438 0.125 0 0.25-0.10938 0.25-0.25l-0.14062-1.7344 1.4062 0.98438c0.046875 0.03125 0.09375 0.046875 0.125 0.046875 0.09375 0 0.1875-0.046875 0.23438-0.14062 0.03125-0.046875 0.046875-0.09375 0.046875-0.14062 0-0.09375-0.0625-0.17188-0.14062-0.21875l-1.5625-0.73438 1.5625-0.71875c0.078125-0.046875 0.14062-0.125 0.14062-0.21875 0-0.046875-0.015625-0.09375-0.046875-0.14062-0.046875-0.09375-0.14062-0.14062-0.23438-0.14062-0.03125 0-0.078125 0.015625-0.125 0.046875l-1.4062 0.98438 0.14062-1.7344c0-0.14062-0.125-0.25-0.25-0.25-0.14062 0-0.26562 0.09375-0.26562 0.23438l0.14062 1.75-1.4219-0.98438c-0.03125-0.03125-0.078125-0.046875-0.125-0.046875-0.09375 0-0.17188 0.046875-0.21875 0.14062-0.03125 0.046875-0.046875 0.09375-0.046875 0.14062 0 0.09375 0.0625 0.17188 0.14062 0.21875l1.5625 0.71875-1.5625 0.73438c-0.078125 0.046875-0.14062 0.125-0.14062 0.21875 0 0.046875 0.015625 0.09375 0.046875 0.14062z"/>
</g>
</defs>
<g transform="translate(-149.27 -128.97)">
<use x="148.71201" y="134.765" xlink:href="#a"/>
</g>
</svg>
