<?xml version="1.0" encoding="UTF-8"?>
<svg fill="#000000" version="1.1" viewBox="0 0 5.8594 6.3281" xmlns="http://www.w3.org/2000/svg" xmlns:xlink="http://www.w3.org/1999/xlink">
<defs>
<g id="a">
<path d="m4.9844-6.3125-0.84375-0.078125c-0.25-0.015625-0.32812-0.10938-0.39062-0.28125l-0.34375-0.85938-0.32812 0.84375c-0.09375 0.20312-0.20312 0.28125-0.42188 0.3125l-0.82812 0.0625 0.73438 0.60938c0.078125 0.078125 0.14062 0.15625 0.14062 0.28125 0 0.0625-0.015625 0.125-0.03125 0.17188l-0.20312 0.6875 0.70312-0.42188c0.0625-0.046875 0.15625-0.0625 0.25-0.0625s0.14062 0.015625 0.21875 0.0625l0.70312 0.4375-0.14062-0.75c0-0.015625 0-0.03125-0.015625-0.0625s-0.015625-0.078125-0.015625-0.10938c0-0.14062 0.078125-0.21875 0.125-0.26562zm1.3594 3.125v-0.65625h-5.8594v0.65625zm0 1.9844v-0.65625h-5.8594v0.65625z"/>
</g>
</defs>
<g transform="translate(-149.2 -127.23)">
<use x="148.71201" y="134.765" xlink:href="#a"/>
</g>
</svg>
