<?xml version="1.0" encoding="UTF-8"?>
<svg fill="#000000" width="8.2031" height="7.8438" version="1.1" viewBox="0 0 8.2031 7.8437" xmlns="http://www.w3.org/2000/svg" xmlns:xlink="http://www.w3.org/1999/xlink">
<defs>
<g id="a">
<path d="m2.2969 0.59375c0.125 0 0.23438-0.0625 0.28125-0.1875l1.7344-4.3125 1.7344 4.3125c0.046875 0.125 0.15625 0.1875 0.29688 0.1875 0.17188 0 0.29688-0.14062 0.29688-0.29688 0-0.03125-0.015625-0.078125-0.015625-0.125l-1.9844-4.8906 0.57812-1.4062 2.6094 6.5312c0.0625 0.125 0.17188 0.1875 0.28125 0.1875 0.1875 0 0.3125-0.14062 0.3125-0.29688 0-0.03125-0.015625-0.078125-0.03125-0.125l-2.8906-7.2344c-0.0625-0.10938-0.15625-0.1875-0.28125-0.1875-0.14062 0-0.25 0.078125-0.29688 0.1875l-0.60938 1.5156-0.60938-1.5156c-0.046875-0.10938-0.14062-0.1875-0.28125-0.1875-0.125 0-0.23438 0.078125-0.26562 0.1875l-2.9219 7.2344c0 0.046875-0.015625 0.09375-0.015625 0.125 0 0.15625 0.125 0.29688 0.29688 0.29688 0.125 0 0.23438-0.0625 0.29688-0.1875l2.6094-6.5312 0.5625 1.4062-1.9531 4.8906c-0.03125 0.046875-0.03125 0.09375-0.03125 0.125 0 0.15625 0.125 0.29688 0.29688 0.29688z"/>
</g>
</defs>
<g transform="translate(-148.93 -128.29)">
<use x="148.71201" y="135.53999" xlink:href="#a"/>
</g>
</svg>
