<?xml version="1.0" encoding="UTF-8"?>
<svg fill="#000000" version="1.1" viewBox="0 0 4.7969 8.1406" xmlns="http://www.w3.org/2000/svg" xmlns:xlink="http://www.w3.org/1999/xlink">
<defs>
<g id="a">
<path d="m3.2344-3.6875s-0.015625-0.015625-0.03125-0.015625c0.015625 0 0.03125 0 0.046875-0.015625zm-0.10938 2.7031 0.5-1.8594c0.59375 0.26562 1.1406 0.67188 1.5938 1.1562l0.46875-0.42188c-0.54688-0.57812-1.1875-1.0469-1.9062-1.375l0.14062-0.5c0.65625-0.32812 1.25-0.76562 1.7656-1.2969l-0.46875-0.4375c-0.32812 0.32812-0.67188 0.64062-1.0625 0.875l0.48438-1.8125-0.54688-0.15625-0.64062 2.3438c-0.6875 0.29688-1.4531 0.4375-2.2344 0.4375h-0.32812v0.65625h0.5c0.57812 0.015625 1.1562 0.10938 1.6875 0.29688l-0.5 1.8594c-0.10938-0.03125-0.25-0.03125-0.39062-0.03125-0.51562 0-0.90625 0.40625-1.2969 0.79688l0.39062 0.375c0.25-0.26562 0.54688-0.54688 0.92188-0.54688 0.0625 0 0.14062 0 0.20312 0.03125l-0.46875 1.7656 0.5625 0.15625 0.4375-1.6562c0.046875 0.03125 0.10938 0.0625 0.15625 0.10938 0.35938 0.3125 0.79688 0.5625 1.2969 0.5625 0.53125 0 0.90625-0.42188 1.2969-0.79688l-0.39062-0.39062c-0.25 0.26562-0.54688 0.54688-0.92188 0.54688-0.5 0-0.89062-0.45312-1.25-0.6875z"/>
</g>
</defs>
<g transform="translate(-149.6 -127.95)">
<use x="148.71201" y="134.765" xlink:href="#a"/>
</g>
</svg>
