<?xml version="1.0" encoding="UTF-8"?>
<svg fill="#000000" version="1.1" viewBox="0 0 10.172 7.3125" xmlns="http://www.w3.org/2000/svg" xmlns:xlink="http://www.w3.org/1999/xlink">
<defs>
<g id="a">
<path d="m7.9688-1.3906c0-0.0625-0.03125-0.078125-0.078125-0.078125h-0.10938c-0.03125 0-0.0625 0-0.0625 0.015625-0.46875 0.64062-1.375 1.1406-2.0312 1.1406s-1.2344-0.14062-1.7969-0.28125c0.64062-0.39062 1.2031-0.89062 1.6094-1.4531l0.98438-1.3906c1.2969-0.1875 2.6094-0.6875 3.3594-1.75 0.29688-0.42188 0.45312-0.85938 0.45312-1.1875 0-0.46875-0.28125-0.76562-0.89062-0.76562-0.96875 0-2.4219 1.7656-3.7344 3.5469-0.15625 0.015625-0.29688 0.03125-0.45312 0.03125-1.0156 0-1.7344-0.375-1.7344-1.0312 0-0.26562 0.10938-0.57812 0.35938-0.9375 0.48438-0.6875 1.4375-1.2344 2.0938-1.2344 0.03125 0 0.046875 0 0.0625-0.015625l0.046875-0.0625c0-0.015625 0.015625-0.03125 0.015625-0.046875 0-0.03125-0.015625-0.0625-0.046875-0.0625 0-0.015625 0-0.015625-0.015625-0.03125-0.09375-0.03125-0.20312-0.03125-0.3125-0.03125-0.76562 0-1.8125 0.60938-2.375 1.3906-0.26562 0.39062-0.39062 0.73438-0.39062 1.0312 0 0.84375 1.0312 1.25 2.2656 1.25 0.10938 0 0.21875 0 0.3125-0.015625-0.29688 0.42188-0.57812 0.82812-0.85938 1.2188-0.35938 0.51562-0.85938 1.0156-1.375 1.3906-0.46875-0.10938-0.96875-0.20312-1.5469-0.20312h-0.0625c-0.48438 0-1.0938 0.015625-1.4219 0.48438-0.078125 0.09375-0.10938 0.1875-0.10938 0.26562 0 0.35938 0.79688 0.375 1.3125 0.375h0.15625c0.5625 0 1.2031-0.1875 1.8281-0.5l0.125 0.046875c0.5625 0.23438 1.1406 0.45312 1.9219 0.45312 0.8125 0 1.9219-0.70312 2.4844-1.5156 0.015625-0.015625 0.015625-0.03125 0.015625-0.046875zm-6.3281 1.3281c-0.57812 0-0.9375-0.015625-0.9375-0.17188 0-0.046875 0-0.078125 0.046875-0.14062 0.1875-0.26562 0.57812-0.35938 0.92188-0.35938 0.48438 0 0.875 0.09375 1.2656 0.21875-0.45312 0.28125-0.90625 0.45312-1.2969 0.45312zm7.7344-6.8594c0.375 0 0.54688 0.20312 0.54688 0.51562 0 0.28125-0.15625 0.6875-0.46875 1.125-0.60938 0.85938-1.6719 1.3594-2.7656 1.5625 1.2344-1.7031 2.3906-3.2031 2.6875-3.2031z"/>
</g>
</defs>
<g transform="translate(-148.84 -127.62)">
<use x="148.71201" y="134.765" xlink:href="#a"/>
</g>
</svg>
