<?xml version="1.0" encoding="UTF-8"?>
<svg fill="#000000" version="1.1" viewBox="0 0 6.7188 6.7656" xmlns="http://www.w3.org/2000/svg" xmlns:xlink="http://www.w3.org/1999/xlink">
<defs>
<g id="a">
<path d="m0.32812-6.7812v0.29688c0.23438 0 0.45312 0 0.67188 0.03125 0.10938 0.015625 0.23438 0.03125 0.29688 0.14062 0.078125 0.10938 0.0625 0.28125 0.0625 0.42188v5c0 0.125 0.015625 0.28125-0.046875 0.40625-0.078125 0.10938-0.1875 0.125-0.3125 0.14062-0.21875 0.03125-0.4375 0.03125-0.67188 0.03125v0.29688h6.2969l0.1875-1.1094 0.23438-1.4531h-0.25c-0.078125 0.42188-0.125 0.82812-0.26562 1.2344-0.078125 0.20312-0.15625 0.4375-0.32812 0.59375-0.4375 0.45312-1.125 0.4375-1.7188 0.4375h-0.76562c-0.10938 0-0.23438-0.015625-0.3125-0.10938-0.0625-0.078125-0.0625-0.1875-0.0625-0.28125v-2.6719h0.5c0.14062 0 0.26562 0 0.40625 0.015625 0.14062 0.03125 0.3125 0.09375 0.39062 0.23438 0.0625 0.078125 0.078125 0.1875 0.09375 0.29688 0.03125 0.20312 0.03125 0.42188 0.03125 0.60938h0.25v-2.6406h-0.25c0 0.20312 0 0.40625-0.03125 0.60938-0.015625 0.10938-0.03125 0.21875-0.09375 0.3125-0.078125 0.125-0.25 0.20312-0.39062 0.23438-0.14062 0.015625-0.26562 0.015625-0.40625 0.015625h-0.5v-2.4375c0-0.078125 0-0.1875 0.0625-0.25 0.078125-0.078125 0.1875-0.09375 0.29688-0.10938h0.73438c0.53125 0 1.2188-0.046875 1.6406 0.39062 0.125 0.14062 0.21875 0.32812 0.26562 0.51562 0.09375 0.34375 0.14062 0.6875 0.1875 1.0312h0.25l-0.125-1.0156-0.15625-1.2188zm2.7188 0.29688v6.1719h-0.79688v-6.1719z"/>
</g>
</defs>
<g transform="translate(-149.04 -127.98)">
<use x="148.71201" y="134.765" xlink:href="#a"/>
</g>
</svg>
