<?xml version="1.0" encoding="UTF-8"?>
<svg fill="#000000" version="1.1" viewBox="0 0 6.6992 6.814" xmlns="http://www.w3.org/2000/svg" xmlns:xlink="http://www.w3.org/1999/xlink">
<defs>
<g id="a">
<path d="m0.35938-6.8125v0.29688c0.23438 0 0.45312 0 0.67188 0.03125 0.10938 0.015625 0.23438 0.03125 0.29688 0.14062 0.078125 0.10938 0.0625 0.28125 0.0625 0.42188v5.0312c0 0.125 0.015625 0.28125-0.0625 0.40625-0.0625 0.10938-0.17188 0.125-0.29688 0.14062-0.21875 0.03125-0.4375 0.03125-0.67188 0.03125v0.29688h3.3438c0.39062 0 0.79688 0.03125 1.1875 0 0.42188-0.046875 0.84375-0.15625 1.2031-0.39062 0.21875-0.10938 0.42188-0.26562 0.57812-0.45312 0.10938-0.14062 0.21875-0.29688 0.28125-0.46875 0.0625-0.125 0.078125-0.23438 0.09375-0.35938 0.015625-0.10938 0.015625-0.20312 0-0.3125-0.09375-0.79688-0.90625-1.2969-1.6406-1.4844-0.15625-0.03125-0.34375-0.078125-0.51562-0.078125 0.14062-0.046875 0.3125-0.0625 0.46875-0.10938 0.40625-0.125 0.79688-0.32812 1.0938-0.65625 0.09375-0.09375 0.17188-0.21875 0.21875-0.34375 0.046875-0.10938 0.078125-0.20312 0.09375-0.3125 0.015625-0.09375 0.015625-0.1875 0-0.28125-0.078125-0.65625-0.65625-1.1094-1.2344-1.3281-0.67188-0.26562-1.4062-0.21875-2.125-0.21875zm2.6562 0.29688v6.2031h-0.79688v-6.2031zm0.29688 2.8594v-2.5c0-0.078125 0-0.1875 0.0625-0.25 0.078125-0.10938 0.28125-0.10938 0.39062-0.10938 0.35938 0 0.73438-0.03125 1.0781 0.09375 0.1875 0.078125 0.34375 0.15625 0.48438 0.29688 0.125 0.09375 0.23438 0.21875 0.3125 0.35938s0.125 0.26562 0.14062 0.40625c0.015625 0.09375 0.03125 0.20312 0.015625 0.3125-0.046875 0.65625-0.57812 1.125-1.1875 1.3125-0.40625 0.10938-0.85938 0.078125-1.2969 0.078125zm0 0.21875h0.84375c0.23438 0 0.46875-0.015625 0.70312 0.046875 0.76562 0.20312 1.3438 1.0156 1.1719 1.8281-0.03125 0.14062-0.078125 0.26562-0.15625 0.39062-0.25 0.4375-0.71875 0.71875-1.2031 0.8125-0.3125 0.0625-0.625 0.046875-0.9375 0.046875-0.10938 0-0.28125 0-0.35938-0.09375-0.0625-0.078125-0.0625-0.1875-0.0625-0.26562z"/>
</g>
</defs>
<g transform="translate(-149.07 -127.95)">
<use x="148.71201" y="134.765" xlink:href="#a"/>
</g>
</svg>
