<?xml version="1.0" encoding="UTF-8"?>
<svg fill="#000000" version="1.1" viewBox="0 0 6.1875 6.8125" xmlns="http://www.w3.org/2000/svg" xmlns:xlink="http://www.w3.org/1999/xlink">
<defs>
<g id="a">
<path d="m0.48438-6.8125v0.29688h0.375c0.34375 0 0.64062 0.046875 0.64062 0.42188v3.6719h-1.125c-0.078125 0-0.20312 0.015625-0.20312 0.10938v0.015625c0 0.078125 0.09375 0.09375 0.17188 0.09375h1.1562v1.2812c0 0.046875 0.015625 0.10938 0.015625 0.1875 0 0.375-0.35938 0.42188-0.75 0.42188h-0.28125v0.29688h2.9375v-0.29688h-0.375c-0.35938 0-0.67188-0.046875-0.67188-0.42188 0-0.078125 0.015625-0.14062 0.015625-0.1875v-1.2812h1.5625c0.078125 0 0.15625 0.015625 0.25 0.015625 0.0625 0 0.20312 0 0.20312-0.10938v-0.015625c0-0.125-0.14062-0.125-0.21875-0.125s-0.17188 0.015625-0.25 0.015625h-1.5469v-0.73438h1.8438c0.9375-0.078125 2.125-0.65625 2.125-1.7969 0-1.0625-1.0469-1.75-2.0469-1.8594-0.15625 0-0.29688-0.015625-0.4375-0.015625-0.20312 0-0.40625 0.015625-0.59375 0.015625zm1.875 3.3906v-2.7656c0-0.26562 0.17188-0.29688 0.35938-0.32812h0.75c0.5625 0 1.2031 0.03125 1.5938 0.5 0.23438 0.28125 0.26562 0.6875 0.26562 1.0469s-0.03125 0.73438-0.25 1.0312c-0.32812 0.42188-0.90625 0.51562-1.4219 0.51562z"/>
</g>
</defs>
<g transform="translate(-148.88 -127.94)">
<use x="148.71201" y="134.765" xlink:href="#a"/>
</g>
</svg>
