<?xml version="1.0" encoding="UTF-8"?>
<svg fill="#000000" version="1.1" viewBox="0 0 8.846 11.084" xmlns="http://www.w3.org/2000/svg" xmlns:xlink="http://www.w3.org/1999/xlink">
<defs>
<g id="a">
<path d="m1.0156 10.656v-0.01563c0.53125-0.07812 0.46875-0.76562 0.015625-0.82812-0.3125-0.03125-0.5 0.21875-0.46875 0.51562 0.03125 0.23438 0.17188 0.42188 0.35938 0.54688 0.64062 0.40625 1.4375 0.17188 1.8438-0.42188 0.35938-0.5 0.5-1.1406 0.57812-1.75 0.03125-0.21875 0.078125-0.45312 0.09375-0.67188 0.51562 0.35938 1.2344 0.48438 1.8438 0.4375 0.25-0.03125 0.48438-0.10938 0.71875-0.17188-0.015625 0.34375-0.046875 0.6875-0.09375 1.0469-0.0625 0.53125-0.17188 1.25-0.625 1.4375-0.28125 0.15625-0.70312 0.0625-0.9375-0.14062 0.125-0.03125 0.23438-0.0625 0.29688-0.15625 0.21875-0.32812-0.078125-0.75-0.45312-0.67188-0.375 0.10938-0.375 0.53125-0.20312 0.79688 0.1875 0.3125 0.57812 0.45312 0.90625 0.46875 0.125 0 0.25 0 0.35938-0.03125 0.98438-0.20312 1.2969-1.4219 1.4219-2.2812 0.015625-0.1875 0.046875-0.35938 0.0625-0.54688 0.03125-0.10938 0.015625-0.25 0.0625-0.35938 0.046875-0.078125 0.15625-0.14062 0.21875-0.20312 0.125-0.125 0.25-0.26562 0.35938-0.42188 0.57812-0.8125 0.73438-1.9844 0.23438-3-0.0625-0.14062-0.14062-0.26562-0.23438-0.39062-0.046875-0.0625-0.125-0.14062-0.14062-0.21875-0.03125-0.125 0.015625-0.3125 0.015625-0.45312 0.03125-0.4375 0.09375-0.89062 0.10938-1.3125 0.0625-0.5625 0.15625-1.5469 0.85938-1.625 0.29688-0.0625 0.51562 0.078125 0.71875 0.1875-0.03125 0-0.21875 0.09375-0.29688 0.17188-0.20312 0.28125 0.015625 0.6875 0.35938 0.67188 0.3125-0.015625 0.45312-0.28125 0.39062-0.5625-0.10938-0.5-0.71875-0.78125-1.3281-0.6875-1.0625 0.20312-1.3281 1.5156-1.4688 2.4219-0.015625 0.1875-0.046875 0.40625-0.078125 0.60938-0.51562-0.35938-1.2188-0.5-1.8438-0.4375-0.25 0.03125-0.46875 0.10938-0.71875 0.17188 0.10938-0.78125 0.03125-2.1562 0.71875-2.4844 0.28125-0.15625 0.6875-0.0625 0.9375 0.125-0.10938 0.03125-0.21875 0.078125-0.29688 0.17188-0.21875 0.32812 0.078125 0.75 0.45312 0.65625s0.375-0.51562 0.20312-0.79688c-0.1875-0.29688-0.5625-0.4375-0.90625-0.45312-0.125-0.015625-0.25 0-0.375 0.03125-0.98438 0.21875-1.2812 1.4531-1.3906 2.3281-0.03125 0.17188-0.0625 0.35938-0.078125 0.54688-0.015625 0.078125-0.015625 0.21875-0.0625 0.29688-0.03125 0.09375-0.14062 0.14062-0.20312 0.20312-0.45312 0.4375-0.8125 1.125-0.90625 1.8438-0.046875 0.54688 0.0625 1.0938 0.29688 1.5938 0.0625 0.14062 0.15625 0.28125 0.25 0.40625 0.03125 0.0625 0.125 0.125 0.14062 0.20312 0.03125 0.14062-0.015625 0.34375-0.03125 0.48438-0.03125 0.3125-0.046875 0.64062-0.078125 0.95312 0 0.125-0.015625 0.25-0.03125 0.375-0.0625 0.5625-0.15625 1.5-0.84375 1.5781-0.29688 0.0625-0.53125-0.09375-0.73438-0.1875zm5.0469-7.4219c0.10938 0.0625 0.3125 0.14062 0.375 0.23438 0.046875 0.0625 0 0.20312 0 0.29688-0.17188 1.2344-0.28125 2.5156-0.39062 3.8125 0 0.0625 0.015625 0.1875-0.03125 0.25-0.03125 0.0625-0.14062 0.09375-0.1875 0.10938-0.20312 0.0625-0.39062 0.10938-0.59375 0.125-0.45312 0.046875-0.89062-0.03125-1.3125-0.21875-0.125-0.046875-0.32812-0.125-0.40625-0.23438-0.03125-0.078125 0-0.21875 0.015625-0.28125 0.125-1.0156 0.25-2.0781 0.32812-3.125 0.015625-0.21875 0.03125-0.45312 0.046875-0.6875 0-0.078125-0.015625-0.21875 0.03125-0.28125 0.046875-0.046875 0.15625-0.078125 0.23438-0.10938 0.64062-0.1875 1.2969-0.15625 1.8906 0.10938zm-2.9688 0.625c-0.046875 0.98438-0.29688 1.9688-0.29688 2.9531h-0.015625c-0.40625-0.71875-0.45312-1.5625-0.125-2.3125 0.10938-0.21875 0.25-0.48438 0.4375-0.64062zm4.0938 0.42188c0.09375 0.1875 0.1875 0.39062 0.25 0.60938 0.21875 0.82812-0.078125 1.9062-0.5625 2.3281l0.21875-2.0312c0.03125-0.29688 0.0625-0.60938 0.09375-0.90625z"/>
</g>
</defs>
<g transform="translate(-149.27 -126.73)">
<use x="148.71201" y="126.739" xlink:href="#a"/>
</g>
</svg>
