<?xml version="1.0" encoding="UTF-8"?>
<svg fill="#000000" version="1.1" viewBox="0 0 6.625 10.875" xmlns="http://www.w3.org/2000/svg" xmlns:xlink="http://www.w3.org/1999/xlink">
<defs>
<g id="a">
<path d="m3.4375 1.1406c-0.0625 0.10938-0.0625 0.125-0.078125 0.125s-0.03125 0-0.09375-0.046875c-0.21875-0.10938-0.60938-0.29688-1.0469-0.29688-0.92188 0-1.6562 0.70312-1.6562 1.625 0 0.21875 0.0625 0.29688 0.14062 0.29688 0.10938 0 0.14062-0.17188 0.14062-0.21875 0.046875-0.84375 0.875-1.1406 1.375-1.1406 0.375 0 0.6875 0.125 0.92188 0.25-0.10938 0.21875-0.34375 0.65625-0.5 1-0.0625 0.10938-0.15625 0.29688-0.15625 0.34375 0 0.10938 0.0625 0.20312 0.20312 0.20312 0.10938 0 0.10938-0.015625 0.21875-0.21875 0.078125-0.10938 0.42188-0.82812 0.57812-1.125 0.48438 0.29688 0.60938 0.42188 0.90625 0.57812 0.46875 0.25 0.79688 0.34375 1.1406 0.34375 0.9375 0 1.6562-0.71875 1.6562-1.6094 0-0.21875-0.0625-0.3125-0.14062-0.3125-0.10938 0-0.125 0.17188-0.14062 0.3125-0.046875 0.57812-0.67188 1.0469-1.375 1.0469-0.53125 0-0.98438-0.23438-1.8281-0.79688l0.60938-1.1719c0.0625-0.125 0.0625-0.125 0.078125-0.125 0 0 0.03125 0 0.09375 0.046875 0.20312 0.10938 0.59375 0.28125 1.0469 0.28125 0.9375 0 1.6562-0.71875 1.6562-1.6094 0-0.20312-0.0625-0.3125-0.14062-0.3125-0.10938 0-0.125 0.17188-0.14062 0.32812-0.046875 0.5625-0.67188 1.0469-1.375 1.0469-0.375 0-0.70312-0.14062-0.92188-0.25l0.5-1c0.046875-0.10938 0.15625-0.29688 0.15625-0.34375 0-0.10938-0.078125-0.20312-0.20312-0.20312-0.10938 0-0.125 0.015625-0.23438 0.21875-0.0625 0.10938-0.40625 0.82812-0.57812 1.1094-0.46875-0.28125-0.59375-0.40625-0.90625-0.57812-0.46875-0.25-0.79688-0.32812-1.125-0.32812-0.92188 0-1.6562 0.6875-1.6562 1.625 0 0.21875 0.0625 0.29688 0.14062 0.29688 0.10938 0 0.14062-0.1875 0.14062-0.23438 0.046875-0.82812 0.875-1.1406 1.375-1.1406 0.53125 0 0.98438 0.25 1.8125 0.8125zm2.5312-5.9531h0.57812c0.15625 0 0.375 0 0.375-0.1875 0-0.125-0.09375-0.1875-0.15625-0.1875-0.0625-0.03125-0.32812-0.03125-0.51562-0.03125-4.3594 0-4.8281-1.1562-5.0312-2.2031-0.015625-0.10938-0.10938-0.17188-0.1875-0.17188-0.10938 0-0.20312 0.078125-0.20312 0.20312 0 0.015625 0.046875 0.875 0.73438 1.4844 0.57812 0.51562 1.3438 0.76562 2.0312 0.89062v0.015625c-1.2656 0.21875-1.8125 0.6875-2.0156 0.85938-0.6875 0.57812-0.75 1.4531-0.75 1.5156 0 0.125 0.09375 0.20312 0.20312 0.20312s0.17188-0.078125 0.1875-0.17188c0.10938-0.5625 0.28125-1.5156 2.1719-1.9688 0.78125-0.17188 1.9375-0.25 2.5781-0.25z"/>
</g>
</defs>
<g transform="translate(-149.27 -127.17)">
<use x="148.71201" y="134.765" xlink:href="#a"/>
</g>
</svg>
