<?xml version="1.0" encoding="UTF-8"?>
<svg fill="#000000" version="1.1" viewBox="0 0 10.859 7.5312" xmlns="http://www.w3.org/2000/svg" xmlns:xlink="http://www.w3.org/1999/xlink">
<defs>
<g id="a">
<path d="m3.8438-5.5781c0.26562 1.2969 0.70312 3.4375 1.2656 4.5938 0.21875 0.42188 0.32812 0.64062 0.4375 0.64062 0.03125 0 0.0625 0 0.23438-0.17188 0.76562-0.73438 1.2812-1.3125 1.9688-2.1094l2.1875-2.5312c-0.14062 0.84375-0.5 3.0781-0.5 4.25 0 0.26562 0.015625 0.53125 0.046875 0.79688 0 0.10938 0.046875 0.40625 0.46875 0.40625s1.1719-0.45312 1.1719-0.64062c0-0.0625-0.0625-0.078125-0.09375-0.078125-0.125 0-0.32812 0.09375-0.4375 0.15625-0.23438-0.03125-0.25-0.1875-0.28125-0.40625-0.03125-0.32812-0.03125-0.625-0.03125-0.65625 0-1.1094 0.4375-4.1406 0.73438-5.375 0.01563-0.0625 0.01563-0.078125 0.01563-0.17188 0-0.03125 0-0.14062-0.07813-0.14062-0.03125 0-0.04687 0-0.23438 0.23438-0.9375 1.125-3.8438 4.625-4.8438 5.4531-0.25-0.53125-0.42188-0.90625-0.76562-2.2969-0.29688-1.125-0.46875-1.9531-0.64062-2.9219-0.015625-0.14062-0.078125-0.40625-0.078125-0.4375-0.03125-0.046875-0.078125-0.046875-0.10938-0.046875-0.17188 0-0.59375 0.21875-0.625 0.4375-0.125 0.82812-0.3125 2.1406-1.0156 4.0469-0.79688 2.125-1.0156 2.125-1.2031 2.125-0.125 0-0.5-0.078125-0.71875-0.28125-0.046875-0.046875-0.078125-0.046875-0.09375-0.046875-0.14062 0-0.35938 0.45312-0.35938 0.73438 0 0.078125 0 0.20312 0.32812 0.375 0.25 0.125 0.48438 0.14062 0.53125 0.14062 0.625 0 1.2031-1.4219 1.4062-1.9375 0.46875-1.125 1.0312-2.7031 1.3125-4.1406z"/>
</g>
</defs>
<g transform="translate(-148.98 -127.73)">
<use x="148.71201" y="134.765" xlink:href="#a"/>
</g>
</svg>
