<?xml version="1.0" encoding="UTF-8"?>
<svg fill="#000000" version="1.1" viewBox="0 0 6.2031 4.1719" xmlns="http://www.w3.org/2000/svg" xmlns:xlink="http://www.w3.org/1999/xlink">
<defs>
<g id="a">
<path d="m4-6.9375c0.0625 0.20312 0.17188 0.42188 0.25 0.625 0.17188 0.40625 0.53125 1.5469 0.73438 1.5781 0.15625 0 0.21875-0.34375 0.29688-0.51562 0.15625-0.375 0.29688-0.73438 0.45312-1.125l0.14062-0.35938c0.03125-0.078125 0.0625-0.14062 0.09375-0.21875v3.2969c0 0.0625 0.046875 0.125 0.125 0.125h0.03125c0.078125-0.03125 0.09375-0.125 0.09375-0.20312v-3.7969c0-0.078125-0.015625-0.15625-0.10938-0.17188h-0.03125c-0.15625 0-0.46875 0.98438-0.67188 1.4375-0.125 0.35938-0.28125 0.71875-0.42188 1.0781-0.375-0.78125-0.625-1.625-0.98438-2.4062-0.015625-0.046875-0.0625-0.10938-0.125-0.10938h-0.03125c-0.078125 0.015625-0.09375 0.09375-0.09375 0.17188v3.8281c0 0.078125 0.015625 0.17188 0.125 0.17188 0.078125 0 0.125-0.0625 0.125-0.15625zm-2.4688-0.32812v3.5312c0 0.09375 0.015625 0.20312 0.14062 0.20312 0.10938 0 0.10938-0.125 0.10938-0.20312v-3.5312h1.4062c0.0625-0.015625 0.125-0.046875 0.125-0.10938 0-0.078125-0.09375-0.10938-0.15625-0.10938h-2.9844c-0.078125 0-0.15625 0.015625-0.15625 0.125 0 0.078125 0.09375 0.10938 0.15625 0.10938 0.046875 0 0.09375-0.015625 0.125-0.015625z"/>
</g>
</defs>
<g transform="translate(-148.73 -127.06)">
<use x="148.71201" y="134.765" xlink:href="#a"/>
</g>
</svg>
