<?xml version="1.0" encoding="UTF-8"?>
<svg fill="#000000" version="1.1" viewBox="0 0 7.7812 7.2969" xmlns="http://www.w3.org/2000/svg" xmlns:xlink="http://www.w3.org/1999/xlink">
<defs>
<g id="a">
<path d="m3.2969-3.3438c0.125-0.46875 0.26562-0.96875 0.35938-1.4531 0.125-0.67188 0.1875-1.3281 0.1875-1.4531 0-0.5625-0.54688-0.5625-0.65625-0.5625-0.76562 0-1.4375 0.28125-1.9062 0.60938-0.8125 0.54688-1.0781 1.2031-1.0781 1.2656s0.078125 0.0625 0.10938 0.0625c0.078125 0 0.54688-0.125 0.75-0.5 0.26562-0.5 0.5625-0.89062 1.4531-0.89062 0.42188 0 0.48438 0.28125 0.48438 0.4375 0 0.015625-0.03125 0.48438-0.15625 1.1719-0.046875 0.28125-0.078125 0.45312-0.28125 1.3125h-0.35938c-0.28125 0.015625-0.73438 0.32812-0.73438 0.48438 0 0.0625 0 0.0625 0.21875 0.0625h0.71875c-0.20312 0.70312-0.48438 1.6562-0.9375 2.875-0.09375 0.23438-0.09375 0.25-0.09375 0.26562 0 0.0625 0.078125 0.0625 0.09375 0.0625 0.14062 0 0.45312-0.125 0.65625-0.32812 0.046875-0.0625 0.0625-0.078125 0.10938-0.17188 0.34375-0.89062 0.64062-1.7812 0.90625-2.7031h2.25c0.10938 0 0.29688 0 0.45312-0.09375-0.10938 0.42188-0.51562 2.0469-0.51562 2.8281 0 0.29688 0.17188 0.54688 0.59375 0.54688 1.3281 0 2.0625-0.82812 2.0625-1.1406 0-0.0625-0.046875-0.078125-0.09375-0.078125-0.078125 0-0.60938 0.14062-0.76562 0.53125-0.03125 0.078125-0.046875 0.078125-0.23438 0.10938-0.10938 0.03125-0.29688 0.03125-0.3125 0.03125-0.17188 0-0.40625-0.10938-0.40625-0.42188 0-0.125 0.0625-0.67188 0.09375-0.89062 0.17188-1.1094 0.65625-2.9844 1.5156-5.25 0.03125-0.078125 0.03125-0.09375 0.03125-0.10938 0-0.078125-0.0625-0.078125-0.09375-0.078125-0.15625 0-0.4375 0.14062-0.625 0.3125-0.015625 0.015625-0.078125 0.0625-0.10938 0.15625-0.40625 0.98438-0.71875 1.9844-1.0156 3z"/>
</g>
</defs>
<g transform="translate(-148.92 -127.95)">
<use x="148.71201" y="134.765" xlink:href="#a"/>
</g>
</svg>
