<?xml version="1.0" encoding="UTF-8"?>
<svg fill="#000000" version="1.1" viewBox="0 0 5.1486 4.5041" xmlns="http://www.w3.org/2000/svg" xmlns:xlink="http://www.w3.org/1999/xlink">
<defs>
<g id="a">
<path d="m3.875-3.8125h0.015625c0.0625 0.17188 0.1875 0.32812 0.28125 0.5 0.1875 0.34375 0.39062 0.6875 0.59375 1.0156 0.20312 0.35938 0.39062 0.6875 0.59375 1.0469 0.15625 0.26562 0.3125 0.54688 0.46875 0.82812 0.078125 0.10938 0.14062 0.25 0.21875 0.35938 0.015625 0.015625 0.03125 0.03125 0.0625 0.046875h0.10938c0.078125 0 0.21875 0.03125 0.23438-0.078125 0.015625-0.09375-0.078125-0.20312-0.10938-0.26562-0.125-0.20312-0.25-0.42188-0.375-0.64062-0.46875-0.8125-0.9375-1.625-1.4062-2.4531-0.15625-0.26562-0.3125-0.54688-0.46875-0.8125-0.046875-0.078125-0.10938-0.25-0.21875-0.25s-0.17188 0.17188-0.20312 0.25c-0.15625 0.26562-0.32812 0.54688-0.46875 0.8125-0.48438 0.82812-0.95312 1.6562-1.4219 2.4688-0.125 0.20312-0.25 0.42188-0.35938 0.625-0.046875 0.0625-0.14062 0.17188-0.10938 0.26562 0.015625 0.10938 0.15625 0.078125 0.23438 0.078125h0.09375c0.03125-0.015625 0.046875-0.03125 0.078125-0.046875 0.078125-0.10938 0.14062-0.25 0.20312-0.35938 0.15625-0.28125 0.3125-0.5625 0.46875-0.82812 0.21875-0.35938 0.40625-0.6875 0.59375-1.0469 0.20312-0.32812 0.40625-0.67188 0.59375-1.0156 0.09375-0.17188 0.21875-0.32812 0.29688-0.5z"/>
</g>
</defs>
<g transform="translate(-150.02 -130.25)">
<use x="148.71201" y="134.765" xlink:href="#a"/>
</g>
</svg>
