<?xml version="1.0" encoding="UTF-8"?>
<svg fill="#000000" version="1.1" viewBox="0 0 4.9384 4.5156" xmlns="http://www.w3.org/2000/svg" xmlns:xlink="http://www.w3.org/1999/xlink">
<defs>
<g id="a">
<path d="m0.26562-4.3125v0.3125c0.15625 0 0.3125 0 0.46875 0.03125 0.09375 0.015625 0.1875 0.046875 0.25 0.125 0.0625 0.10938 0.0625 0.26562 0.0625 0.39062v3.4375l0.23438-0.015625 0.14062-0.17188 0.23438-0.42188c0.10938 0.125 0.20312 0.25 0.34375 0.35938 0.26562 0.25 0.60938 0.35938 0.95312 0.35938 0.4375 0 0.85938-0.125 1.2188-0.35938 0.25-0.15625 0.46875-0.35938 0.64062-0.60938 0.65625-0.95312 0.46875-2.3125-0.42188-3.0469-0.59375-0.53125-1.5-0.65625-2.2031-0.25-0.15625 0.09375-0.35938 0.23438-0.46875 0.40625v-0.65625zm4.0938 2.3906c-0.015625 0.14062-0.015625 0.28125-0.046875 0.42188-0.03125 0.29688-0.14062 0.59375-0.32812 0.84375-0.14062 0.17188-0.3125 0.3125-0.51562 0.42188-0.34375 0.15625-0.78125 0.15625-1.1094-0.046875-0.1875-0.09375-0.34375-0.25-0.46875-0.42188-0.046875-0.078125-0.10938-0.17188-0.14062-0.28125-0.015625-0.0625 0-0.15625 0-0.21875v-1.5625c0-0.1875-0.03125-0.39062 0-0.57812 0-0.0625 0.03125-0.09375 0.0625-0.14062 0.0625-0.10938 0.14062-0.20312 0.23438-0.29688 0.40625-0.39062 1.0625-0.5625 1.5781-0.25 0.078125 0.0625 0.15625 0.125 0.25 0.20312 0.35938 0.375 0.45312 0.875 0.48438 1.3594 0 0.1875 0.015625 0.35938 0 0.54688z"/>
</g>
</defs>
<g transform="translate(-148.98 -130.34)">
<use x="148.71201" y="134.765" xlink:href="#a"/>
</g>
</svg>
