<?xml version="1.0" encoding="UTF-8"?>
<svg fill="#000000" version="1.1" viewBox="0 0 6.625 9.0781" xmlns="http://www.w3.org/2000/svg" xmlns:xlink="http://www.w3.org/1999/xlink">
<defs>
<g id="a">
<path d="m0.32812 2.1094c1.7812-1.5156 2.6406-3.6719 2.9844-5.9688 0.34375 2.2969 1.2031 4.4531 2.9844 5.9688 0.046875 0.03125 0.078125 0.046875 0.14062 0.046875 0.046875 0 0.10938-0.015625 0.14062-0.0625s0.046875-0.09375 0.046875-0.14062c0-0.0625-0.03125-0.10938-0.0625-0.15625-2.3906-2.0156-3.0469-5.2969-3.0469-8.5156 0-0.10938-0.09375-0.20312-0.20312-0.20312s-0.20312 0.09375-0.20312 0.20312c0 3.2188-0.65625 6.5-3.0469 8.5156-0.03125 0.046875-0.0625 0.09375-0.0625 0.15625 0 0.046875 0.015625 0.09375 0.046875 0.14062 0.046875 0.046875 0.09375 0.0625 0.15625 0.0625 0.046875 0 0.09375-0.015625 0.125-0.046875z"/>
</g>
</defs>
<g transform="translate(-148.71 -127.84)">
<use x="148.71201" y="134.765" xlink:href="#a"/>
</g>
</svg>
