<?xml version="1.0" encoding="UTF-8"?>
<svg fill="#000000" version="1.1" viewBox="0 0 8.8594 8.0469" xmlns="http://www.w3.org/2000/svg" xmlns:xlink="http://www.w3.org/1999/xlink">
<defs>
<g id="a">
<path d="m1.8281-7.25c0.25 0 0.4375 0.21875 0.57812 0.48438 0.20312 0.40625 0.28125 0.85938 0.28125 1.2969 0 0.46875-0.078125 0.90625-0.28125 1.2969-0.14062 0.28125-0.32812 0.5-0.57812 0.5-0.21875 0-0.375-0.20312-0.5-0.48438-0.15625-0.40625-0.15625-0.84375-0.15625-1.3125 0-0.45312 0-0.89062 0.15625-1.2969 0.125-0.26562 0.28125-0.48438 0.5-0.48438zm3.4844 4.0156c0.25 0 0.4375 0.21875 0.57812 0.5 0.20312 0.375 0.26562 0.82812 0.26562 1.2812s-0.0625 0.89062-0.26562 1.2812c-0.14062 0.28125-0.32812 0.5-0.57812 0.5-0.21875 0-0.375-0.20312-0.5-0.48438-0.15625-0.40625-0.15625-0.84375-0.15625-1.2969s0-0.90625 0.15625-1.2969c0.125-0.28125 0.28125-0.48438 0.5-0.48438zm0-0.21875c-0.39062 0-0.71875 0.26562-0.92188 0.60938-0.25 0.40625-0.35938 0.90625-0.35938 1.3906s0.10938 0.96875 0.35938 1.4062c0.20312 0.3125 0.53125 0.60938 0.92188 0.60938 0.375 0 0.64062-0.32812 0.79688-0.625 0.21875-0.42188 0.29688-0.92188 0.29688-1.3906 0-0.48438-0.078125-0.95312-0.29688-1.3906-0.15625-0.3125-0.42188-0.60938-0.79688-0.60938zm2.9844 0.21875c0.25 0 0.45312 0.21875 0.57812 0.5 0.20312 0.375 0.28125 0.82812 0.28125 1.2812s-0.078125 0.89062-0.28125 1.2812c-0.125 0.28125-0.32812 0.5-0.57812 0.5-0.21875 0-0.375-0.20312-0.48438-0.48438-0.17188-0.40625-0.17188-0.84375-0.17188-1.2969s0-0.90625 0.17188-1.2969c0.10938-0.28125 0.26562-0.48438 0.48438-0.48438zm0-0.21875c-0.40625 0-0.71875 0.26562-0.92188 0.60938-0.25 0.40625-0.35938 0.90625-0.35938 1.3906s0.10938 0.96875 0.35938 1.4062c0.20312 0.3125 0.51562 0.60938 0.92188 0.60938 0.39062 0 0.64062-0.32812 0.79688-0.625 0.23438-0.42188 0.3125-0.92188 0.3125-1.3906 0-0.48438-0.078125-0.95312-0.3125-1.3906-0.15625-0.3125-0.40625-0.60938-0.79688-0.60938zm-5.5625-3.1562c0.28125 0.17188 0.60938 0.25 0.92188 0.25 0.32812 0 0.64062-0.09375 0.90625-0.26562l-3.1719 6.8906c0 0.03125-0.015625 0.046875-0.015625 0.078125 0 0.10938 0.09375 0.21875 0.20312 0.21875 0.078125 0 0.14062-0.046875 0.1875-0.125l3.5-7.6406c0.015625-0.03125 0.015625-0.046875 0.015625-0.078125 0-0.10938-0.09375-0.20312-0.20312-0.20312-0.078125 0-0.14062 0.0625-0.17188 0.125-0.23438 0.51562-0.75 0.78125-1.2656 0.78125-0.4375 0-0.875-0.1875-1.2031-0.57812-0.15625-0.1875-0.35938-0.32812-0.60938-0.32812-0.40625 0-0.71875 0.29688-0.90625 0.60938-0.28125 0.4375-0.375 0.92188-0.375 1.4062 0 0.5 0.09375 1 0.375 1.4219 0.1875 0.3125 0.5 0.60938 0.90625 0.60938 0.39062 0 0.64062-0.32812 0.79688-0.625 0.21875-0.4375 0.3125-0.92188 0.3125-1.4062 0-0.39062-0.0625-0.76562-0.20312-1.1406z"/>
</g>
</defs>
<g transform="translate(-149.26 -127.28)">
<use x="148.71201" y="134.765" xlink:href="#a"/>
</g>
</svg>
