<?xml version="1.0" encoding="UTF-8"?>
<svg fill="#000000" version="1.1" viewBox="0 0 4.7969 6.5625" xmlns="http://www.w3.org/2000/svg" xmlns:xlink="http://www.w3.org/1999/xlink">
<defs>
<g id="a">
<path d="m3.375-3.7031c-0.9375 0.3125-1.7969 0.85938-2.4844 1.5938l0.46875 0.42188c1.0312-1.1094 2.4844-1.6875 4-1.6875h0.32812v-0.64062h-0.32812c-1.5156 0-2.9688-0.60938-4-1.7031l-0.46875 0.4375c0.6875 0.73438 1.5469 1.2812 2.4844 1.5781zm-0.03125 1.9219-0.21875 0.79688c-0.28125-0.15625-0.59375-0.26562-0.9375-0.26562-0.51562 0-0.90625 0.40625-1.2969 0.79688l0.39062 0.35938c0.25-0.25 0.54688-0.53125 0.92188-0.53125 0.28125 0 0.53125 0.14062 0.75 0.3125l-0.26562 1.0156 0.54688 0.14062 0.21875-0.79688c0.28125 0.17188 0.59375 0.29688 0.9375 0.29688 0.53125 0 0.90625-0.42188 1.2969-0.79688l-0.39062-0.39062c-0.25 0.26562-0.54688 0.54688-0.92188 0.54688-0.28125 0-0.53125-0.14062-0.75-0.3125l0.26562-1.0156z"/>
</g>
</defs>
<g transform="translate(-149.6 -129.05)">
<use x="148.71201" y="134.765" xlink:href="#a"/>
</g>
</svg>
