<?xml version="1.0" encoding="UTF-8"?>
<svg fill="#000000" width="6.1719" height="8.0938" version="1.1" viewBox="0 0 6.1719 8.0937" xmlns="http://www.w3.org/2000/svg" xmlns:xlink="http://www.w3.org/1999/xlink">
<defs>
<g id="a">
<path d="m6.5469-6.5938h-5.7188c-0.125 0-0.23438 0.10938-0.23438 0.21875 0 0.14062 0.10938 0.23438 0.23438 0.23438h5.7188c0.10938 0 0.21875-0.09375 0.21875-0.23438 0-0.10938-0.10938-0.21875-0.21875-0.21875zm0 1.7812h-5.7188c-0.125 0-0.23438 0.09375-0.23438 0.23438 0 0.125 0.10938 0.21875 0.23438 0.21875h1.7344v5.6406c0 0.10938 0.09375 0.21875 0.23438 0.21875 0.125 0 0.21875-0.10938 0.21875-0.21875v-5.6406h1.3281v5.6406c0 0.10938 0.10938 0.21875 0.23438 0.21875s0.23438-0.10938 0.23438-0.21875v-5.6406h1.7344c0.10938 0 0.21875-0.09375 0.21875-0.21875 0-0.14062-0.10938-0.23438-0.21875-0.23438z"/>
</g>
</defs>
<g transform="translate(-149.31 -128.17)">
<use x="148.71201" y="134.765" xlink:href="#a"/>
</g>
</svg>
