<?xml version="1.0" encoding="UTF-8"?>
<svg fill="#000000" version="1.1" viewBox="0 0 3.5781 7.0312" xmlns="http://www.w3.org/2000/svg" xmlns:xlink="http://www.w3.org/1999/xlink">
<defs>
<g id="a">
<path d="m2.3438-3c-0.015625-0.125-0.09375-0.125-0.125-0.125-0.125 0-0.125 0.0625-0.125 0.25v0.15625c0 0.40625 0 1.4844-1.0312 2.3594-0.17188 0.15625-0.5 0.4375-0.5 1.0625 0 0.5625 0.3125 1.3438 1.6562 1.3438 1.0469 0 1.9219-0.53125 1.9219-1.3281 0-0.34375-0.23438-0.48438-0.46875-0.48438-0.26562 0-0.45312 0.20312-0.45312 0.46875 0 0.23438 0.1875 0.48438 0.54688 0.4375-0.29688 0.51562-1.0312 0.6875-1.5156 0.6875-0.85938 0-0.85938-0.57812-0.85938-1.0625 0-0.60938 0.10938-0.75 0.25-0.96875 0.625-0.89062 0.70312-1.7969 0.70312-2.5625zm0.39062-1.4531c0-0.29688-0.23438-0.53125-0.51562-0.53125-0.29688 0-0.53125 0.23438-0.53125 0.53125 0 0.28125 0.23438 0.53125 0.53125 0.53125 0.28125 0 0.51562-0.25 0.51562-0.53125z"/>
</g>
</defs>
<g transform="translate(-149.27 -129.78)">
<use x="148.71201" y="134.765" xlink:href="#a"/>
</g>
</svg>
