<?xml version="1.0" encoding="UTF-8"?>
<svg fill="#000000" version="1.1" viewBox="0 0 3.7188 7.8906" xmlns="http://www.w3.org/2000/svg" xmlns:xlink="http://www.w3.org/1999/xlink">
<defs>
<g id="a">
<path d="m2.875-1.0938 1.1562-2.2031c0.015625-0.03125 0.03125-0.0625 0.03125-0.09375 0-0.078125-0.046875-0.14062-0.10938-0.17188-0.03125-0.03125-0.0625-0.03125-0.09375-0.03125h-2.9844l1.5-3.0312c0.015625-0.03125 0.03125-0.0625 0.03125-0.09375 0-0.09375-0.09375-0.20312-0.20312-0.20312-0.0625 0-0.14062 0.046875-0.17188 0.10938l-1.6562 3.3281c-0.015625 0.03125-0.03125 0.0625-0.03125 0.09375 0 0.078125 0.0625 0.14062 0.10938 0.1875 0.03125 0 0.0625 0.015625 0.09375 0.015625h2.9844l-1.125 2.0938h-0.71875c-0.10938 0-0.1875 0.09375-0.1875 0.20312l0.17188 1.6719c0.015625 0.09375 0.09375 0.1875 0.1875 0.1875 0.078125 0 0.14062-0.03125 0.17188-0.0625l1.4844-1.6562c0.03125-0.046875 0.046875-0.09375 0.046875-0.14062 0-0.125-0.078125-0.20312-0.20312-0.20312z"/>
</g>
</defs>
<g transform="translate(-149.06 -127.84)">
<use x="148.71201" y="134.765" xlink:href="#a"/>
</g>
</svg>
