<?xml version="1.0" encoding="UTF-8"?>
<svg fill="#000000" version="1.1" viewBox="0 0 6.7969 7.3906" xmlns="http://www.w3.org/2000/svg" xmlns:xlink="http://www.w3.org/1999/xlink">
<defs>
<g id="a">
<path d="m2.2656-7.2969c-1.375 0.1875-2.0312 0.76562-2.0312 1.7969 0.078125 0.89062 0.46875 1.25 1.4688 1.5781-0.53125 2.2031-0.5625 2.3438-0.5625 2.7969 0 0.75 0.46875 1.1406 0.96875 1.1406 0.29688 0 0.5625-0.15625 1.3125-0.85938 0.29688 0.57812 0.79688 0.9375 1.3125 0.9375 0.92188-0.03125 1.9531-1.2812 1.9531-2.4219 0-0.29688-0.0625-0.5625-0.17188-0.78125-0.23438-0.46875-0.65625-0.70312-1.4375-0.79688 0.28125-1.1094 0.32812-1.3438 0.32812-1.5312 0-0.25-0.15625-0.375-0.375-0.35938-0.29688 0-0.34375 0.14062-0.79688 1.7344-0.46875 0-1-0.046875-1.5781-0.14062 0.29688-1.125 0.32812-1.2656 0.32812-1.4531 0-0.25-0.14062-0.375-0.375-0.375-0.3125 0.03125-0.3125 0.03125-0.78125 1.6562-1.125-0.5-1.2031-0.57812-1.2031-1.1562 0-0.84375 0.70312-1.0469 1.625-1.0469 0.71875 0 1.8594 0.21875 2.5625 0.375 0.34375 0.0625 0.625 0.10938 0.875 0.10938 0.6875 0 1.3438-0.42188 1.3438-0.79688 0-0.1875-0.14062-0.35938-0.26562-0.35938-0.14062 0-0.28125 0.10938-0.28125 0.26562-0.015625 0.20312-0.25 0.375-0.5 0.375-0.125 0-0.3125-0.046875-0.53125-0.125-0.8125-0.35938-1.9688-0.5625-3.1875-0.5625zm0.3125 3.4219c0.5625 0.10938 1.0938 0.17188 1.5625 0.17188-0.57812 2.125-1.2188 3.1875-1.9531 3.1875-0.25-0.015625-0.29688-0.17188-0.29688-0.34375 0-0.32812 0.15625-1.0781 0.6875-3.0156zm2.4688 0.25c0.76562 0.09375 1.2812 0.53125 1.2812 1.1094-0.03125 1.0625-0.71875 2.0781-1.4375 2.0781-0.42188-0.0625-0.60938-0.23438-0.60938-0.51562 0-0.20312 0.09375-0.54688 0.76562-2.6719z"/>
</g>
</defs>
<g transform="translate(-148.95 -127.47)">
<use x="148.71201" y="134.765" xlink:href="#a"/>
</g>
</svg>
