<?xml version="1.0" encoding="UTF-8"?>
<svg fill="#000000" version="1.1" viewBox="0 0 8.8438 3.3281" xmlns="http://www.w3.org/2000/svg" xmlns:xlink="http://www.w3.org/1999/xlink">
<defs>
<g id="a">
<path d="m9.0469-2.2969c0.1875 0 0.35938 0 0.35938-0.20312 0-0.1875-0.1875-0.1875-0.35938-0.1875h-5.8594c0.26562-0.23438 0.73438-0.73438 1-1.4688h-0.3125c-0.26562 0.73438-0.78125 1.2031-1.1562 1.4688h-1.3594c0.09375-0.078125 0.67188-0.57812 1.0156-1.4688h-0.3125c-0.17188 0.45312-0.5625 1.1719-1.5 1.6562 0.9375 0.51562 1.3438 1.2188 1.5 1.6719h0.3125c-0.34375-0.89062-0.92188-1.3906-1.0156-1.4688h1.3594c0.35938 0.25 0.875 0.71875 1.1562 1.4688h0.3125c-0.3125-0.85938-0.90625-1.3906-1-1.4688z"/>
</g>
</defs>
<g transform="translate(-149.27 -130.61)">
<use x="148.71201" y="134.765" xlink:href="#a"/>
</g>
</svg>
