<?xml version="1.0" encoding="UTF-8"?>
<svg fill="#000000" version="1.1" viewBox="0 0 10.516 8.0312" xmlns="http://www.w3.org/2000/svg" xmlns:xlink="http://www.w3.org/1999/xlink">
<defs>
<g id="a">
<path d="m3.0938-6.6094c0.45312 0.28125 1 0.42188 1.5312 0.42188 0.48438 0 0.92188-0.125 1.3438-0.35938-0.57812 0.9375-1.2188 1.8125-1.8281 2.7188-0.39062 0.59375-0.79688 1.2031-1.2031 1.7969l-1.2812 1.9062c-0.09375 0.14062-0.26562 0.35938-0.26562 0.46875 0 0.09375 0.078125 0.1875 0.17188 0.20312h0.015625c0.17188 0 0.25-0.20312 0.32812-0.3125 1.625-2.4531 3.2812-4.875 4.9219-7.3281 0.046875-0.0625 0.078125-0.14062 0.078125-0.20312 0-0.10938-0.10938-0.1875-0.20312-0.1875-0.14062 0-0.1875 0.14062-0.26562 0.23438-0.42188 0.53125-1.0781 0.84375-1.7656 0.84375s-1.25-0.20312-1.8281-0.65625c-0.23438-0.21875-0.46875-0.42188-0.82812-0.42188-0.96875 0-1.4375 1.1094-1.4688 1.875v0.10938c0 0.89062 0.48438 2.0312 1.4688 2.0312 0.9375 0 1.3125-1.2188 1.3125-2 0-0.39062-0.078125-0.78125-0.23438-1.1406zm6.5625 3.1406c-0.90625 0.125-1.3594 1.125-1.3594 2 0 0.82812 0.46875 2.0156 1.4688 2.0156h0.09375c0.85938-0.09375 1.2031-1.2188 1.2031-2.0156 0-0.78125-0.35938-2.0156-1.2969-2.0156-0.03125 0-0.078125 0.015625-0.10938 0.015625zm-3.3125 0c-0.90625 0.125-1.375 1.125-1.375 2 0 0.82812 0.46875 2.0156 1.4688 2.0156h0.10938c0.85938-0.09375 1.2031-1.2188 1.2031-2.0156 0-0.78125-0.375-2.0156-1.3125-2.0156-0.03125 0-0.0625 0.015625-0.09375 0.015625zm-3.2812-1.8281c-0.046875 0.60938-0.32812 1.5938-1.0312 1.5938-0.85938 0-0.85938-1.5-0.85938-1.8438 0-0.60938 0.125-1.7188 0.875-1.7188 0.15625 0 0.28125 0.0625 0.39062 0.15625 0.5 0.375 0.64062 1.0938 0.64062 1.6406 0 0.0625 0 0.10938-0.015625 0.17188zm4.4219 4.0156c-0.046875 0.60938-0.3125 1.5938-1.0312 1.5938-0.84375 0-0.85938-1.5-0.85938-1.8438 0-0.60938 0.125-1.7188 0.89062-1.7188 0.14062 0 0.26562 0.0625 0.39062 0.15625 0.48438 0.375 0.625 1.0938 0.625 1.6406 0 0.0625 0 0.125-0.015625 0.17188zm3.3281 0c-0.0625 0.60938-0.32812 1.5938-1.0469 1.5938-0.84375 0-0.85938-1.5-0.85938-1.8438 0-0.60938 0.14062-1.7188 0.89062-1.7188 0.15625 0 0.26562 0.0625 0.39062 0.15625 0.48438 0.375 0.625 1.0938 0.625 1.6406v0.17188z"/>
</g>
</defs>
<g transform="translate(-149.26 -127.28)">
<use x="148.71201" y="134.765" xlink:href="#a"/>
</g>
</svg>
