<?xml version="1.0" encoding="UTF-8"?>
<svg fill="#000000" version="1.1" viewBox="0 0 6.6562 6.6406" xmlns="http://www.w3.org/2000/svg" xmlns:xlink="http://www.w3.org/1999/xlink">
<defs>
<g id="a">
<path d="m7.2031-2.5c0-1.8281-1.5-3.3125-3.3281-3.3125-1.8438 0-3.3281 1.5-3.3281 3.3125 0 1.8438 1.5 3.3281 3.3281 3.3281 1.8438 0 3.3281-1.5 3.3281-3.3281zm-6.4062-0.125c0.09375-1.6719 1.3906-2.8594 2.9531-2.9375v2.9375zm3.2031-2.9375c1.5625 0.078125 2.8438 1.2812 2.9531 2.9375h-2.9531zm-0.25 6.1406c-1.5469-0.078125-2.8594-1.25-2.9531-2.9531h2.9531zm3.2031-2.9531c-0.10938 1.7031-1.4219 2.875-2.9531 2.9531v-2.9531z"/>
</g>
</defs>
<g transform="translate(-149.26 -128.95)">
<use x="148.71201" y="134.765" xlink:href="#a"/>
</g>
</svg>
