<?xml version="1.0" encoding="UTF-8"?>
<svg fill="#000000" version="1.1" viewBox="0 0 5.0938 6.1562" xmlns="http://www.w3.org/2000/svg" xmlns:xlink="http://www.w3.org/1999/xlink">
<defs>
<g id="a">
<path d="m5.7188-1.2812v-0.54688h-1.7969c0 0.375-0.3125 0.6875-0.70312 0.6875-0.10938 0-0.21875-0.03125-0.3125-0.078125l0.9375-2.375c0.046875 0.09375 0.078125 0.1875 0.078125 0.29688h1.7969v-0.5625h-1.375c-0.0625-0.125-0.14062-0.23438-0.25-0.34375l0.57812-1.4375h-0.54688l-0.46875 1.1875c-0.14062-0.046875-0.28125-0.078125-0.4375-0.078125-0.48438 0-0.90625 0.28125-1.1094 0.6875h-1.4844v0.54688h1.9062c0-0.375 0.3125-0.6875 0.6875-0.6875 0.078125 0 0.15625 0.03125 0.23438 0.046875l-0.90625 2.2656c0-0.046875-0.015625-0.10938-0.015625-0.15625h-1.9062v0.5625h1.4844c0.046875 0.09375 0.10938 0.17188 0.17188 0.26562l-0.60938 1.5156h0.54688l0.48438-1.2188c0.15625 0.078125 0.34375 0.10938 0.51562 0.10938 0.48438 0 0.92188-0.28125 1.125-0.6875z"/>
</g>
</defs>
<g transform="translate(-149.34 -129.12)">
<use x="148.71201" y="134.765" xlink:href="#a"/>
</g>
</svg>
