<?xml version="1.0" encoding="UTF-8"?>
<svg fill="#000000" width="6.7188" height="6.8438" version="1.1" viewBox="0 0 6.7188 6.8437" xmlns="http://www.w3.org/2000/svg" xmlns:xlink="http://www.w3.org/1999/xlink">
<defs>
<g id="a">
<path d="m0.875-0.34375 2.9375-1.0781v2.0625c0 0.125 0.10938 0.23438 0.21875 0.23438 0.14062 0 0.23438-0.10938 0.23438-0.23438v-2.2188l3.0312-1.1094c0.0625-0.015625 0.09375-0.078125 0.09375-0.14062v-0.046875c-0.03125-0.078125-0.10938-0.10938-0.1875-0.078125l-2.9375 1.0625v-1.8281h2.2812c0.10938 0 0.21875-0.09375 0.21875-0.23438 0-0.125-0.10938-0.21875-0.21875-0.21875h-5c-0.125 0-0.23438 0.09375-0.23438 0.21875 0 0.14062 0.10938 0.23438 0.23438 0.23438h2.2656v1.9844l-3.0312 1.1094c-0.0625 0.015625-0.10938 0.078125-0.10938 0.14062 0 0.10938 0.10938 0.17188 0.20312 0.14062zm5.6719-5.625h-5c-0.125 0-0.23438 0.10938-0.23438 0.23438s0.10938 0.23438 0.23438 0.23438h5c0.10938 0 0.21875-0.10938 0.21875-0.23438s-0.10938-0.23438-0.21875-0.23438z"/>
</g>
</defs>
<g transform="translate(-149.38 -128.8)">
<use x="148.71201" y="134.765" xlink:href="#a"/>
</g>
</svg>
