<?xml version="1.0" encoding="UTF-8"?>
<svg fill="#000000" version="1.1" viewBox="0 0 3.6719 4.7344" xmlns="http://www.w3.org/2000/svg" xmlns:xlink="http://www.w3.org/1999/xlink">
<defs>
<g id="a">
<path d="m2.6094-0.82812h1.6094v-0.6875c-0.53125 0-0.625-0.57812-0.625-1.2031 0-0.14062 0.015625-0.26562 0.015625-0.48438 0-0.79688-0.48438-1.5312-1.2344-1.5312-0.73438 0-1.2031 0.73438-1.2031 1.5156v0.5c0 0.625-0.078125 1.2031-0.625 1.2031v0.6875h1.625c-0.14062 0.078125-0.23438 0.21875-0.23438 0.39062 0 0.23438 0.20312 0.4375 0.4375 0.4375 0.25 0 0.45312-0.20312 0.45312-0.4375 0-0.17188-0.09375-0.3125-0.21875-0.39062z"/>
</g>
</defs>
<g transform="translate(-149.26 -130.03)">
<use x="148.71201" y="134.765" xlink:href="#a"/>
</g>
</svg>
