<?xml version="1.0" encoding="UTF-8"?>
<svg fill="#000000" version="1.1" viewBox="0 0 6.625 4.4219" xmlns="http://www.w3.org/2000/svg" xmlns:xlink="http://www.w3.org/1999/xlink">
<defs>
<g id="a">
<path d="m4.8906-3.1562c-0.35938-1.0469-1.2812-1.5469-2.125-1.5469-1.1719 0-2.2031 0.9375-2.2031 2.2031 0 1.2812 1.0312 2.2188 2.2031 2.2188 0.90625 0 1.8125-0.57812 2.1094-1.5469 0.34375 1.0625 1.3281 1.5469 2.0469 1.5469 0.0625 0 0.26562 0 0.26562-0.20312 0-0.125-0.09375-0.1875-0.17188-0.1875-1.3906-0.078125-1.8281-1.125-1.8281-1.8281 0-0.92188 0.70312-1.75 1.7344-1.8125 0.10938 0 0.26562 0 0.26562-0.1875 0-0.20312-0.20312-0.20312-0.26562-0.20312-0.76562 0-1.75 0.54688-2.0312 1.5469zm-2.125 2.4844c-0.96875 0-1.8125-0.78125-1.8125-1.8281 0-1.0312 0.84375-1.8125 1.8125-1.8125 0.9375 0 1.8125 0.75 1.8125 1.8125 0 1.0781-0.875 1.8281-1.8125 1.8281z"/>
</g>
</defs>
<g transform="translate(-149.27 -130.06)">
<use x="148.71201" y="134.765" xlink:href="#a"/>
</g>
</svg>
