<?xml version="1.0" encoding="UTF-8"?>
<svg fill="#000000" version="1.1" viewBox="0 0 8.8438 4.9844" xmlns="http://www.w3.org/2000/svg" xmlns:xlink="http://www.w3.org/1999/xlink">
<defs>
<g id="a">
<path d="m2.5625-5c-0.20312 1.0156-0.78125 1.8125-1.6875 2.3438-0.10938 0.046875-0.21875 0.09375-0.3125 0.15625 0.09375 0.0625 0.20312 0.09375 0.3125 0.14062 0.90625 0.54688 1.4844 1.3438 1.6875 2.3438h0.39062c-0.10938-0.79688-0.57812-1.6406-1.1562-2.125-0.0625-0.0625-0.10938-0.10938-0.1875-0.15625h7.5312c0.125 0 0.26562-0.03125 0.26562-0.20312 0-0.1875-0.14062-0.20312-0.26562-0.20312l-7.5312-0.015625c0.17188-0.09375 0.35938-0.29688 0.53125-0.48438 0.40625-0.5 0.71875-1.1406 0.8125-1.7969z"/>
</g>
</defs>
<g transform="translate(-149.27 -129.76)">
<use x="148.71201" y="134.765" xlink:href="#a"/>
</g>
</svg>
