<?xml version="1.0" encoding="UTF-8"?>
<svg fill="#000000" version="1.1" viewBox="0 0 5.2969 5.9062" xmlns="http://www.w3.org/2000/svg" xmlns:xlink="http://www.w3.org/1999/xlink">
<defs>
<g id="a">
<path d="m3.1406-0.84375c0.42188-0.6875 0.25-1.3438 0.57812-1.75 0.26562-0.29688 0.6875-0.35938 1.2812-0.35938 0.6875 0 1.25-0.078125 1.625-0.53125 0.26562-0.3125 0.3125-0.70312 0.3125-1.0625 0-0.26562-0.015625-0.5-0.015625-0.73438 0-0.125-0.10938-0.21875-0.23438-0.21875s-0.23438 0.09375-0.23438 0.21875c0 0.25 0.03125 0.5 0.03125 0.73438 0 0.92188-0.4375 1.1406-1.4844 1.1406-0.6875 0-1.2656 0.078125-1.625 0.53125-0.39062 0.4375-0.32812 1.0781-0.48438 1.5156-0.078125 0.1875-0.21875 0.375-0.375 0.57812-0.1875-0.54688-0.21875-1.1406-0.42188-1.6875-0.046875-0.09375-0.125-0.14062-0.21875-0.14062-0.14062 0-0.23438 0.10938-0.23438 0.23438 0 0.10938 0.32812 0.76562 0.32812 1.5938 0 0.29688-0.046875 0.60938-0.14062 0.875-0.015625 0.03125-0.015625 0.0625-0.015625 0.078125 0 0.14062 0.09375 0.23438 0.23438 0.23438 0.28125 0 0.40625-0.79688 2.3438-1.1406 0.10938-0.015625 0.1875-0.10938 0.1875-0.21875 0-0.14062-0.10938-0.23438-0.23438-0.23438-0.17188 0-0.95312 0.26562-1.2031 0.34375z"/>
</g>
</defs>
<g transform="translate(-150.35 -129.26)">
<use x="148.71201" y="134.765" xlink:href="#a"/>
</g>
</svg>
