<?xml version="1.0" encoding="UTF-8"?>
<svg fill="#000000" version="1.1" viewBox="0 0 8.8125 8.8281" xmlns="http://www.w3.org/2000/svg" xmlns:xlink="http://www.w3.org/1999/xlink">
<defs>
<g id="a">
<path d="m9.125-2.6562c0-2.4844-2-4.4219-4.4062-4.4219-2.4219 0-4.4062 1.9531-4.4062 4.4219 0 2.5 2.0312 4.4062 4.4062 4.4062 2.3594 0 4.4062-1.9062 4.4062-4.4062zm-4.4062 4.0156c-2.1875 0-4.0156-1.7812-4.0156-4.0156 0-2.2656 1.8281-4.0156 4.0156-4.0156 2.2031 0 4.0156 1.7656 4.0156 4.0156 0 2.2656-1.8594 4.0156-4.0156 4.0156zm-0.34375-4.0312h-0.85938v-1.75c0-0.28125 0.015625-0.39062 0.14062-0.42188 0.0625-0.03125 0.32812-0.03125 0.5-0.03125 0.73438 0 1.5781 0.03125 1.5781 1.0938 0 0.4375-0.0625 1.1094-1.3594 1.1094zm0.90625 0.125c0.70312-0.17188 1.3125-0.625 1.3125-1.2344 0-0.67188-0.82812-1.3438-2.1094-1.3438h-2.375v0.25c0.6875 0 0.71875 0.0625 0.71875 0.48438v3.6562c0 0.42188-0.03125 0.48438-0.71875 0.48438v0.25c0.29688-0.015625 0.78125-0.03125 1.0625-0.03125s0.8125 0.015625 1.0625 0.03125v-0.25c-0.67188 0-0.71875-0.0625-0.71875-0.48438v-1.7188h0.875c0.26562 0 0.53125 0 0.84375 0.32812 0.20312 0.21875 0.20312 0.4375 0.20312 0.90625 0 0.53125 0 0.71875 0.32812 1.0469 0.15625 0.14062 0.53125 0.3125 1.0156 0.3125 0.64062 0 0.79688-0.625 0.79688-0.8125 0-0.0625 0-0.15625-0.125-0.15625-0.10938 0-0.125 0.09375-0.125 0.125-0.078125 0.60938-0.4375 0.625-0.5 0.625-0.20312 0-0.28125-0.125-0.34375-0.23438-0.078125-0.17188-0.14062-0.4375-0.28125-1.0781-0.078125-0.35938-0.17188-0.85938-0.92188-1.1562z"/>
</g>
</defs>
<g transform="translate(-149.02 -127.69)">
<use x="148.71201" y="134.765" xlink:href="#a"/>
</g>
</svg>
