<?xml version="1.0" encoding="UTF-8"?>
<svg fill="#000000" version="1.1" viewBox="0 0 5.6094 6.4531" xmlns="http://www.w3.org/2000/svg" xmlns:xlink="http://www.w3.org/1999/xlink">
<defs>
<g id="a">
<path d="m5.8125-4.0156c0.10938-0.10938 0.10938-0.125 0.10938-0.15625 0-0.0625-0.046875-0.125-0.125-0.125-0.0625 0-0.09375 0.046875-0.15625 0.125l-2.2812 2.5312c-0.40625-1.2656-0.48438-1.5156-0.70312-2.0312-0.10938-0.23438-0.32812-0.73438-1.2031-0.73438-0.57812 0-0.84375 0.51562-0.84375 0.65625 0 0.015625 0 0.09375 0.125 0.09375 0.078125 0 0.10938-0.046875 0.125-0.10938 0.14062-0.375 0.46875-0.42188 0.53125-0.42188 0.29688 0 0.59375 0.76562 0.76562 1.2031 0.3125 0.78125 0.64062 1.9375 0.64062 1.9688 0 0.015625 0 0.03125-0.078125 0.10938l-2.2969 2.5625c-0.10938 0.10938-0.10938 0.125-0.10938 0.15625 0 0.0625 0.0625 0.125 0.10938 0.125 0.078125 0 0.125-0.078125 0.17188-0.10938l2.2812-2.5625c0.3125 1.0312 0.4375 1.4219 0.67188 1.9844 0.125 0.29688 0.34375 0.79688 1.2344 0.79688 0.57812 0 0.84375-0.51562 0.84375-0.65625 0-0.046875-0.015625-0.10938-0.10938-0.10938-0.10938 0-0.10938 0.046875-0.14062 0.14062-0.09375 0.25-0.34375 0.40625-0.53125 0.40625-0.5 0-1.1875-2.4219-1.4062-3.1875z"/>
</g>
</defs>
<g transform="translate(-149.02 -130.36)">
<use x="148.71201" y="134.765" xlink:href="#a"/>
</g>
</svg>
