<?xml version="1.0" encoding="UTF-8"?>
<svg fill="#000000" version="1.1" viewBox="0 0 6.0625 6.8125" xmlns="http://www.w3.org/2000/svg" xmlns:xlink="http://www.w3.org/1999/xlink">
<defs>
<g id="a">
<path d="m3.9844-1.3438c1.5312-0.125 2.6406-1.0469 2.6406-2.0625 0-1.0312-1.125-1.9375-2.6406-2.0625v-0.54688c0-0.34375 0-0.48438 0.9375-0.48438h0.32812v-0.3125c-0.35938 0.03125-1.2656 0.03125-1.6875 0.03125-0.40625 0-1.3281 0-1.6875-0.03125v0.3125h0.32812c0.95312 0 0.95312 0.125 0.95312 0.48438v0.54688c-1.5312 0.15625-2.5938 1.0781-2.5938 2.0625 0 1.0312 1.1094 1.9062 2.5938 2.0625v0.5625c0 0.32812 0 0.46875-0.95312 0.46875h-0.32812v0.3125c0.35938-0.03125 1.2812-0.03125 1.6875-0.03125s1.3281 0 1.6875 0.03125v-0.3125h-0.32812c-0.9375 0-0.9375-0.125-0.9375-0.46875zm-0.82812-0.23438c-1.4219-0.1875-1.5938-1.2031-1.5938-1.8281 0-0.51562 0.09375-1.625 1.5938-1.8281zm0.82812-3.6719c1.375 0.17188 1.6406 1.0781 1.6406 1.8438 0 0.59375-0.14062 1.6562-1.6406 1.8438z"/>
</g>
</defs>
<g transform="translate(-149.27 -127.95)">
<use x="148.71201" y="134.765" xlink:href="#a"/>
</g>
</svg>
