<?xml version="1.0" encoding="UTF-8"?>
<svg fill="#000000" version="1.1" viewBox="0 0 5.2344 6.5469" xmlns="http://www.w3.org/2000/svg" xmlns:xlink="http://www.w3.org/1999/xlink">
<defs>
<g id="a">
<path d="m0.40625-2.5312c0.39062-1.1406 1.4844-1.1562 1.5938-1.1562 1.5 0 1.6094 1.75 1.6094 2.5312 0 0.60938-0.046875 0.78125-0.125 0.98438-0.21875 0.71875-0.51562 1.875-0.51562 2.1406 0 0.10938 0.046875 0.17188 0.125 0.17188 0.14062 0 0.21875-0.21875 0.32812-0.59375 0.23438-0.84375 0.32812-1.4062 0.35938-1.7188 0.03125-0.125 0.046875-0.25 0.09375-0.39062 0.3125-0.98438 0.95312-2.4688 1.3438-3.25 0.078125-0.125 0.1875-0.34375 0.1875-0.39062 0-0.09375-0.09375-0.09375-0.10938-0.09375-0.03125 0-0.09375 0-0.125 0.0625-0.51562 0.95312-0.92188 1.9531-1.3125 2.9531-0.015625-0.29688-0.015625-1.0625-0.40625-2.0312-0.25-0.60938-0.64062-1.0938-1.3281-1.0938-1.25 0-1.9531 1.5156-1.9531 1.8281 0 0.09375 0.09375 0.09375 0.20312 0.09375z"/>
</g>
</defs>
<g transform="translate(-148.88 -130.36)">
<use x="148.71201" y="134.765" xlink:href="#a"/>
</g>
</svg>
