<?xml version="1.0" encoding="UTF-8"?>
<svg fill="#000000" version="1.1" viewBox="0 0 6.7009 8.9626" xmlns="http://www.w3.org/2000/svg" xmlns:xlink="http://www.w3.org/1999/xlink">
<defs>
<g id="a">
<path d="m4.8281 0.0625c0.0625 0.39062 0.10938 0.8125 0.26562 1.1719 0.10938 0.26562 0.28125 0.5 0.54688 0.60938 0.09375 0.046875 0.21875 0.0625 0.32812 0.078125 0.10938 0 0.1875 0 0.29688-0.015625 0.57812-0.125 0.84375-0.75 0.9375-1.2812 0.03125-0.15625 0.046875-0.32812 0.046875-0.5 0-0.0625 0.015625-0.14062-0.015625-0.1875-0.03125-0.0625-0.14062-0.0625-0.17188 0-0.03125 0.046875-0.03125 0.10938-0.03125 0.14062-0.015625 0.078125-0.015625 0.14062-0.046875 0.21875-0.10938 0.29688-0.35938 0.51562-0.67188 0.57812-0.078125 0.015625-0.17188 0.015625-0.26562 0.015625-0.40625-0.015625-0.64062-0.40625-0.79688-0.75-0.03125-0.078125-0.0625-0.15625-0.09375-0.21875 0.1875-0.0625 0.35938-0.1875 0.53125-0.29688 0.39062-0.26562 0.70312-0.60938 0.95312-1.0156 0.96875-1.5625 0.64062-3.7969-0.8125-4.9531-0.23438-0.1875-0.5-0.32812-0.78125-0.45312-0.29688-0.125-0.625-0.21875-0.95312-0.23438-0.375-0.03125-0.75 0.015625-1.1094 0.125-0.32812 0.10938-0.625 0.25-0.90625 0.45312-0.25 0.15625-0.46875 0.35938-0.65625 0.59375-1.0625 1.2812-1.1562 3.1875-0.25 4.5781 0.14062 0.21875 0.32812 0.42188 0.51562 0.60938 0.25 0.23438 0.54688 0.4375 0.85938 0.57812 0.34375 0.15625 0.71875 0.26562 1.0938 0.29688 0.40625 0.015625 0.79688-0.03125 1.1875-0.14062zm0.1875-0.48438c-0.17188-0.4375-0.4375-0.92188-0.92188-1.0469-0.15625-0.03125-0.3125-0.03125-0.46875 0.015625-0.29688 0.10938-0.53125 0.40625-0.54688 0.71875-0.03125 0.21875 0.046875 0.39062 0.14062 0.57812-0.09375-0.03125-0.17188-0.078125-0.26562-0.125-0.046875-0.015625-0.078125-0.046875-0.10938-0.078125-0.015625-0.046875-0.015625-0.09375-0.015625-0.125v-5.8438c0-0.046875 0-0.09375 0.015625-0.125 0.03125-0.0625 0.10938-0.09375 0.15625-0.10938 0.15625-0.09375 0.3125-0.14062 0.48438-0.1875 0.14062-0.03125 0.29688-0.03125 0.46875-0.03125 0.8125 0.015625 1.4844 0.625 1.8438 1.3438 0.26562 0.53125 0.35938 1.125 0.39062 1.7344 0.046875 0.65625-0.015625 1.3281-0.21875 1.9375-0.125 0.35938-0.3125 0.70312-0.5625 0.98438-0.10938 0.14062-0.25 0.26562-0.39062 0.35938zm-2.5-5.7969v5.625c-0.10938-0.09375-0.20312-0.21875-0.28125-0.32812-0.20312-0.25-0.34375-0.54688-0.45312-0.85938-0.20312-0.60938-0.26562-1.2812-0.21875-1.9219 0.015625-0.4375 0.078125-0.875 0.21875-1.2969 0.10938-0.32812 0.26562-0.65625 0.46875-0.9375 0.078125-0.09375 0.17188-0.20312 0.26562-0.28125zm1.2969 4.9531c0.21875-0.015625 0.45312 0.046875 0.60938 0.20312 0.125 0.125 0.1875 0.28125 0.25 0.4375 0.015625 0.09375 0.046875 0.17188 0.0625 0.25 0.015625 0.03125 0.015625 0.0625 0.015625 0.09375-0.03125 0.046875-0.10938 0.078125-0.17188 0.10938-0.15625 0.046875-0.32812 0.10938-0.48438 0.125-0.25 0.015625-0.48438 0.03125-0.65625-0.1875-0.25-0.29688-0.17188-0.8125 0.20312-0.98438 0.046875-0.015625 0.10938-0.03125 0.17188-0.046875z"/>
</g>
</defs>
<g transform="translate(-149.26 -127.72)">
<use x="148.71201" y="134.765" xlink:href="#a"/>
</g>
</svg>
