<?xml version="1.0" encoding="UTF-8"?>
<svg fill="#000000" width="5.3594" height="7.0938" version="1.1" viewBox="0 0 5.3594 7.0937" xmlns="http://www.w3.org/2000/svg" xmlns:xlink="http://www.w3.org/1999/xlink">
<defs>
<g id="a">
<path d="m3.8906-3.6875-0.046875 0.046875c-1.1094-0.09375-2.125-0.96875-2.125-2.1094 0-0.4375 0.32812-0.8125 0.76562-0.8125 0.60938 0 1 0.79688 1.1875 1.375 0.17188 0.48438 0.21875 0.98438 0.21875 1.5zm-2.8125 2.5156c0 0.75 0.3125 1.3125 1.0312 1.3125 1.0469 0 1.9531-0.9375 2.2969-1.9375 0.17188-0.5 0.23438-0.96875 0.23438-1.5l0.046875-0.03125h0.51562v-0.26562h-0.53125l-0.03125-0.0625c0-0.98438-0.20312-2.1406-0.96875-2.9062-0.23438-0.23438-0.54688-0.39062-0.89062-0.39062-0.84375 0-1.4844 0.625-1.4844 1.4531 0 1.3594 1.2812 2.0781 2.5938 2.2031l0.046875 0.046875c0 1.0312-0.1875 2.9062-1.4375 2.9062-0.5625 0-0.6875-0.35938-0.6875-1.5469v-1.0625c0-0.39062-0.1875-0.75-0.57812-0.75-0.5 0-1.0156 0.34375-1.3906 0.67188l0.10938 0.20312c0.21875-0.125 0.46875-0.28125 0.6875-0.28125 0.39062 0 0.4375 0.48438 0.4375 0.84375z"/>
</g>
</defs>
<g transform="translate(-148.56 -127.81)">
<use x="148.71201" y="134.765" xlink:href="#a"/>
</g>
</svg>
