<?xml version="1.0" encoding="UTF-8"?>
<svg fill="#000000" version="1.1" viewBox="0 0 3.5938 7.1406" xmlns="http://www.w3.org/2000/svg" xmlns:xlink="http://www.w3.org/1999/xlink">
<defs>
<g id="a">
<path d="m1.8438 1.3281c0 0.09375-0.015625 0.20312-0.015625 0.29688 0 0.3125 0.23438 0.51562 0.53125 0.51562s0.51562-0.20312 0.51562-0.5625c0-0.10938 0-0.1875-0.03125-0.28125 0.5625-0.10938 1.2969-0.375 1.2969-1.1094 0-0.26562-0.15625-0.48438-0.46875-0.48438-0.25 0-0.4375 0.20312-0.4375 0.45312 0 0.28125 0.20312 0.46875 0.5 0.46875-0.21875 0.26562-0.57812 0.40625-0.90625 0.4375 0-0.1875-0.03125-0.39062-0.046875-0.57812-0.09375-1.0469-0.17188-2.0938-0.26562-3.1562l-0.03125-0.29688c0-0.078125 0-0.15625-0.15625-0.15625h-0.0625c-0.15625 0-0.17188 0.046875-0.17188 0.14062v0.29688c-0.015625 0.67188-0.29688 1.2969-0.8125 1.75-0.39062 0.34375-0.73438 0.53125-0.73438 1.0938v0.078125c0.046875 0.67188 0.67188 1.0781 1.2969 1.0938zm0.03125-0.23438c-0.375-0.10938-0.5-0.375-0.5-0.90625 0-0.51562 0.29688-0.71875 0.59375-1.25 0.03125-0.078125 0.078125-0.14062 0.09375-0.21875l-0.14062 1.7656zm0.39062-6.0781c-0.23438 0.03125-0.4375 0.25-0.4375 0.51562 0 0.29688 0.25 0.53125 0.53125 0.53125 0.26562 0 0.51562-0.21875 0.51562-0.53125 0-0.28125-0.25-0.53125-0.51562-0.53125-0.03125 0-0.0625 0.015625-0.09375 0.015625z"/>
</g>
</defs>
<g transform="translate(-149.26 -129.76)">
<use x="148.71201" y="134.765" xlink:href="#a"/>
</g>
</svg>
