<?xml version="1.0" encoding="UTF-8"?>
<svg fill="#000000" version="1.1" viewBox="0 0 4.5781 5.2812" xmlns="http://www.w3.org/2000/svg" xmlns:xlink="http://www.w3.org/1999/xlink">
<defs>
<g id="a">
<path d="m1.25-5.1094c-0.14062 0-0.25 0.0625-0.25 0.21875 0 0.23438 0.125 0.5625 0.25 0.76562 0.39062 0.67188 1.1406 0.98438 1.875 1.1719-0.9375 0.25-2.125 0.84375-2.125 1.9688 0 0.14062 0.14062 0.20312 0.25 0.20312 0.0625 0 0.10938-0.015625 0.15625-0.046875 0.15625-0.09375 0.015625-1.0625 1.5938-1.5625 0.75-0.23438 1.5625-0.3125 2.3281-0.3125 0.15625 0 0.25-0.10938 0.25-0.25 0-0.09375-0.015625-0.14062-0.078125-0.20312-0.046875-0.03125-0.10938-0.046875-0.17188-0.046875-1.0781 0-2.8438-0.125-3.5625-1.0781-0.17188-0.21875-0.1875-0.40625-0.26562-0.65625-0.046875-0.125-0.10938-0.17188-0.25-0.17188zm4.3281 5.0156c0-0.125-0.10938-0.25-0.25-0.25h-4.0781c-0.14062 0-0.25 0.125-0.25 0.25 0 0.14062 0.10938 0.26562 0.25 0.26562h4.0781c0.14062 0 0.25-0.125 0.25-0.26562z"/>
</g>
</defs>
<g transform="translate(-149.71 -129.66)">
<use x="148.71201" y="134.765" xlink:href="#a"/>
</g>
</svg>
