<?xml version="1.0" encoding="UTF-8"?>
<svg fill="#000000" version="1.1" viewBox="0 0 4.875 4.4062" xmlns="http://www.w3.org/2000/svg" xmlns:xlink="http://www.w3.org/1999/xlink">
<defs>
<g id="a">
<path d="m0.1875-0.3125v0.29688l0.90625-0.03125 0.70312 0.03125v-0.29688c-0.1875 0-0.4375-0.046875-0.48438-0.26562-0.015625-0.046875-0.015625-0.078125-0.015625-0.125 0.015625-0.125 0.0625-0.25 0.125-0.35938l0.21875-0.57812c0.15625-0.39062 0.32812-0.78125 0.46875-1.1719 0.10938-0.23438 0.1875-0.46875 0.29688-0.70312 0.28125 0.70312 0.54688 1.3906 0.82812 2.0938l0.23438 0.5625c0.03125 0.078125 0.09375 0.1875 0.078125 0.26562s-0.0625 0.14062-0.125 0.17188c-0.125 0.078125-0.28125 0.10938-0.42188 0.10938v0.29688l0.89062-0.03125 0.8125 0.015625 0.35938 0.015625v-0.29688c-0.23438 0-0.51562-0.03125-0.70312-0.21875-0.078125-0.09375-0.125-0.20312-0.15625-0.32812l-0.21875-0.53125c-0.25-0.64062-0.53125-1.2812-0.78125-1.9219-0.10938-0.28125-0.21875-0.5625-0.32812-0.82812-0.046875-0.125-0.09375-0.28125-0.25-0.28125s-0.1875 0.14062-0.25 0.26562c-0.10938 0.28125-0.21875 0.5625-0.32812 0.85938-0.26562 0.64062-0.53125 1.2812-0.78125 1.9375-0.0625 0.17188-0.14062 0.35938-0.21875 0.51562-0.046875 0.14062-0.125 0.28125-0.23438 0.39062-0.17188 0.14062-0.40625 0.14062-0.625 0.14062z"/>
</g>
</defs>
<g transform="translate(-148.9 -130.34)">
<use x="148.71201" y="134.765" xlink:href="#a"/>
</g>
</svg>
