<?xml version="1.0" encoding="UTF-8"?>
<svg fill="#000000" version="1.1" viewBox="0 0 5.5156 5.5" xmlns="http://www.w3.org/2000/svg" xmlns:xlink="http://www.w3.org/1999/xlink">
<defs>
<g id="a">
<path d="m3.3438-1.25c-0.046875 0-0.10938 0.015625-0.15625 0.046875l-1 1.0312c-0.046875 0.03125-0.078125 0.09375-0.078125 0.15625 0 0.10938 0.09375 0.21875 0.23438 0.21875 0.0625 0 0.125-0.015625 0.15625-0.0625l1.0156-1.0156c0.046875-0.046875 0.0625-0.10938 0.0625-0.15625 0-0.10938-0.078125-0.21875-0.23438-0.21875zm3.5469-1.0781c0.14062 0 0.23438-0.09375 0.23438-0.21875 0-0.0625-0.03125-0.23438-0.03125-0.57812 0-1.375 0.53125-1.75 0.53125-1.9531 0-0.14062-0.10938-0.21875-0.23438-0.21875-0.1875 0-0.54688 0.51562-1.9531 0.51562-0.32812 0-0.51562-0.015625-0.5625-0.015625-0.125 0-0.23438 0.09375-0.23438 0.23438 0 0.21875 0.25 0.23438 0.5 0.23438h0.046875c0.39062 0 0.78125-0.03125 1.1562-0.03125h0.03125l-0.90625 0.89062c-0.046875 0.046875-0.078125 0.10938-0.078125 0.17188 0 0.10938 0.09375 0.21875 0.23438 0.21875 0.0625 0 0.10938-0.015625 0.17188-0.0625l0.89062-0.90625c0 0.39062-0.03125 0.78125-0.03125 1.1719v0.10938c0 0.21875 0 0.4375 0.23438 0.4375zm-3.5156-1.9062c0 0.03125 0 0.046875 0.015625 0.0625l1.9219 4.125c0.03125 0.0625 0.078125 0.09375 0.14062 0.09375 0.09375 0 0.15625-0.078125 0.15625-0.15625 0-0.015625-0.015625-0.046875-0.015625-0.0625l-1.9375-4.125c-0.015625-0.046875-0.0625-0.078125-0.125-0.078125-0.09375 0-0.15625 0.0625-0.15625 0.14062z"/>
</g>
</defs>
<g transform="translate(-150.82 -129.47)">
<use x="148.71201" y="134.765" xlink:href="#a"/>
</g>
</svg>
