<?xml version="1.0" encoding="UTF-8"?>
<svg fill="#000000" version="1.1" viewBox="0 0 7.8594 10.25" xmlns="http://www.w3.org/2000/svg" xmlns:xlink="http://www.w3.org/1999/xlink">
<defs>
<g id="a">
<path d="m7.4219 0.53125c0.15625-0.51562 0.60938-1.3906 0.60938-1.625 0-0.125-0.09375-0.23438-0.23438-0.23438-0.10938 0-0.20312 0.078125-0.23438 0.17188-0.51562 1.9375-1.3281 1.9375-1.3281 2.25 0 0.14062 0.10938 0.23438 0.21875 0.23438 0.03125 0 0.046875 0 0.0625-0.015625 0.25-0.03125 0.32812-0.078125 0.64062-0.078125 0.95312 0 1.7031 0.48438 1.8438 0.48438 0.10938 0 0.23438-0.09375 0.23438-0.23438 0-0.28125-0.48438-0.32812-1.4219-0.64062 1.1875-0.70312 1.9219-1.9844 1.9375-3.3906 0-1.875-1.3125-3.4531-3.1094-3.8438l0.20312-1.1094c0.015625-0.09375-0.046875-0.17188-0.15625-0.17188-0.0625 0-0.125 0.046875-0.14062 0.10938l-0.20312 1.125c-0.17188-0.03125-0.35938-0.046875-0.53125-0.046875-2.2188 0-3.9219 1.8281-3.9219 3.9375 0 1.875 1.2969 3.4531 3.0938 3.8438l-0.20312 1.1094c0 0.09375 0.046875 0.17188 0.15625 0.17188 0.0625 0 0.14062-0.046875 0.14062-0.10938l0.20312-1.1719c0.078125-0.046875 0.125-0.125 0.125-0.20312 0-0.046875-0.015625-0.09375-0.046875-0.14062l1.2031-6.8906c1.5938 0.35938 2.7344 1.75 2.7344 3.3906-0.015625 1.3125-0.75 2.5-1.875 3.0781zm-1.6094-6.5469c0.15625 0 0.3125 0 0.45312 0.03125l-1.2031 6.8281c-1.5781-0.34375-2.7188-1.75-2.7188-3.3906 0-1.9844 1.6094-3.4688 3.4688-3.4688z"/>
</g>
</defs>
<g transform="translate(-150.6 -127.09)">
<use x="148.71201" y="134.765" xlink:href="#a"/>
</g>
</svg>
