<?xml version="1.0" encoding="UTF-8"?>
<svg fill="#000000" version="1.1" viewBox="0 0 4.1719 11.156" xmlns="http://www.w3.org/2000/svg" xmlns:xlink="http://www.w3.org/1999/xlink">
<defs>
<g id="a">
<path d="m2.0312 0.92188v-6.9375c0.20312-0.21875 0.40625-0.45312 0.65625-0.65625 0.23438 0.20312 0.45312 0.4375 0.65625 0.65625v6.9375c-0.20312 0.21875-0.42188 0.45312-0.65625 0.65625-0.25-0.20312-0.45312-0.4375-0.65625-0.65625zm2.5-1.125c-0.10938 0-0.29688 0.15625-0.71875 0.625v-5.9375c0.29688 0.32812 0.57812 0.625 0.71875 0.625s0.23438-0.10938 0.23438-0.21875c0-0.078125-0.015625-0.14062-0.078125-0.1875-0.84375-0.6875-1.5938-1.5625-1.7812-2.6406-0.015625-0.10938-0.10938-0.1875-0.21875-0.1875s-0.20312 0.078125-0.21875 0.1875c-0.20312 1.0781-0.9375 1.9531-1.7969 2.6406-0.046875 0.046875-0.078125 0.10938-0.078125 0.1875 0 0.10938 0.09375 0.21875 0.23438 0.21875 0.125 0 0.29688-0.15625 0.73438-0.625v5.9375c-0.29688-0.32812-0.57812-0.625-0.73438-0.625-0.14062 0-0.23438 0.10938-0.23438 0.21875 0 0.078125 0.03125 0.14062 0.078125 0.1875 0.85938 0.6875 1.5938 1.5625 1.7969 2.6406 0.015625 0.10938 0.10938 0.1875 0.21875 0.1875s0.20312-0.078125 0.21875-0.1875c0.1875-1.0781 0.9375-1.9531 1.7812-2.6406 0.0625-0.046875 0.078125-0.10938 0.078125-0.1875 0-0.10938-0.09375-0.21875-0.23438-0.21875z"/>
</g>
</defs>
<g transform="translate(-149.31 -126.64)">
<use x="148.71201" y="134.765" xlink:href="#a"/>
</g>
</svg>
