<?xml version="1.0" encoding="UTF-8"?>
<svg fill="#000000" version="1.1" viewBox="0 0 6.3125 7.0312" xmlns="http://www.w3.org/2000/svg" xmlns:xlink="http://www.w3.org/1999/xlink">
<defs>
<g id="a">
<path d="m6.4531-6.5938c-0.046875-0.20312-0.0625-0.21875-0.29688-0.21875h-1.2969c-0.25 0-0.28125 0-0.28125 0.20312 0 0.70312 0.32812 1.5781 0.53125 2.1406 0.28125 0.70312 0.54688 1.4531 0.54688 2.2031 0 1.5312-1.0781 2.2656-2.0625 2.2656-1.0156 0-2.0625-0.76562-2.0625-2.2656 0-0.75 0.26562-1.5156 0.53125-2.1875 0.21875-0.57812 0.54688-1.4375 0.54688-2.1562 0-0.20312-0.03125-0.20312-0.26562-0.20312h-1.2969c-0.25 0-0.26562 0.015625-0.3125 0.21875l-0.26562 1.0938c-0.015625 0.03125-0.03125 0.09375-0.03125 0.14062 0 0.10938 0.078125 0.125 0.125 0.125 0.09375 0 0.10938-0.015625 0.17188-0.28125 0.10938-0.40625 0.14062-0.5 0.1875-0.57812 0.0625-0.10938 0.42188-0.10938 0.59375-0.10938h0.8125c-0.125 0.5625-0.39062 0.98438-0.89062 1.7344-0.46875 0.70312-0.875 1.3906-0.875 2.1875 0 1.3906 1.3438 2.5 3.0312 2.5 1.7031 0 3.0312-1.1406 3.0312-2.5 0-0.79688-0.40625-1.4844-0.875-2.1875-0.5-0.73438-0.76562-1.1562-0.89062-1.7344h0.8125c0.10938 0 0.53125 0 0.59375 0.09375 0.046875 0.0625 0.078125 0.17188 0.1875 0.57812 0.03125 0.17188 0.03125 0.1875 0.0625 0.21875 0.015625 0.0625 0.046875 0.078125 0.10938 0.078125 0.046875 0 0.125-0.015625 0.125-0.125 0-0.03125-0.015625-0.10938-0.03125-0.14062z"/>
</g>
</defs>
<g transform="translate(-149.15 -127.95)">
<use x="148.71201" y="134.765" xlink:href="#a"/>
</g>
</svg>
