<?xml version="1.0" encoding="UTF-8"?>
<svg fill="#000000" version="1.1" viewBox="0 0 5.2462 6.3605" xmlns="http://www.w3.org/2000/svg" xmlns:xlink="http://www.w3.org/1999/xlink">
<defs>
<g id="a">
<path d="m0.53125-4.3125-0.10938 1.6094h0.25c0.015625-0.34375 0.03125-0.75 0.25-1.0312 0.17188-0.23438 0.46875-0.29688 0.73438-0.32812 0.21875-0.03125 0.45312-0.03125 0.67188-0.03125h0.8125c-0.28125 0.35938-0.53125 0.73438-0.8125 1.0938l-1.4062 1.9219c-0.1875 0.23438-0.35938 0.46875-0.53125 0.70312-0.0625 0.078125-0.15625 0.20312-0.09375 0.3125 0.046875 0.078125 0.15625 0.046875 0.21875 0.046875h3.0312c0 0.53125-0.03125 1.0625 0.21875 1.5312 0.09375 0.1875 0.23438 0.34375 0.4375 0.45312 0.35938 0.17188 0.85938 0.046875 1.125-0.25 0.14062-0.14062 0.21875-0.35938 0.1875-0.5625-0.046875-0.28125-0.32812-0.4375-0.59375-0.35938-0.35938 0.09375-0.4375 0.625-0.10938 0.8125 0.046875 0.046875 0.10938 0.0625 0.1875 0.078125-0.125 0.0625-0.21875 0.10938-0.35938 0.10938-0.3125 0.0625-0.5625-0.15625-0.6875-0.4375-0.1875-0.4375-0.15625-0.90625-0.15625-1.375h0.03125l0.17188-1.8594h-0.25c-0.046875 0.40625-0.046875 0.875-0.3125 1.2188-0.17188 0.23438-0.48438 0.34375-0.76562 0.375-0.23438 0.015625-0.45312 0.015625-0.67188 0.015625h-0.875c0.73438-1 1.4844-1.9844 2.2188-2.9844 0.17188-0.23438 0.34375-0.46875 0.51562-0.70312 0.0625-0.078125 0.17188-0.1875 0.09375-0.29688-0.046875-0.078125-0.15625-0.0625-0.21875-0.0625z"/>
</g>
</defs>
<g transform="translate(-148.99 -130.45)">
<use x="148.71201" y="134.765" xlink:href="#a"/>
</g>
</svg>
