<?xml version="1.0" encoding="UTF-8"?>
<svg fill="#000000" version="1.1" viewBox="0 0 6.5312 6.5312" xmlns="http://www.w3.org/2000/svg" xmlns:xlink="http://www.w3.org/1999/xlink">
<defs>
<g id="a">
<path d="m8.1406 0.48438c0-0.1875-0.54688-0.5625-0.54688-1.9531 0-0.32812 0.03125-0.51562 0.03125-0.5625 0-0.125-0.09375-0.23438-0.23438-0.23438-0.23438 0-0.25 0.23438-0.25 0.48438v0.0625c0 0.39062 0.0625 0.78125 0.0625 1.1719l-4.3281-4.3281h0.015625c0.39062 0 0.76562 0.046875 1.1562 0.046875h0.09375c0.21875 0 0.45312-0.015625 0.45312-0.25 0-0.14062-0.10938-0.21875-0.23438-0.21875-0.046875 0-0.23438 0.015625-0.57812 0.015625-1.375 0-1.75-0.53125-1.9531-0.53125-0.14062 0-0.21875 0.125-0.21875 0.23438 0 0.1875 0.53125 0.5625 0.53125 1.9531 0 0.32812-0.03125 0.51562-0.03125 0.5625 0 0.125 0.09375 0.23438 0.23438 0.23438 0.23438 0 0.23438-0.25 0.23438-0.48438v-0.0625c0-0.39062-0.03125-0.78125-0.03125-1.1719l4.3281 4.3281h-0.03125c-0.39062 0-0.76562-0.046875-1.1562-0.046875h-0.09375c-0.21875 0-0.45312 0.015625-0.45312 0.25 0 0.14062 0.10938 0.21875 0.23438 0.21875 0.0625 0 0.23438-0.03125 0.57812-0.03125 1.3906 0 1.75 0.54688 1.9375 0.54688 0.15625 0 0.25-0.10938 0.25-0.23438z"/>
</g>
</defs>
<g transform="translate(-150.32 -128.95)">
<use x="148.71201" y="134.765" xlink:href="#a"/>
</g>
</svg>
