<?xml version="1.0" encoding="UTF-8"?>
<svg fill="#000000" version="1.1" viewBox="0 0 2.5312 6.9375" xmlns="http://www.w3.org/2000/svg" xmlns:xlink="http://www.w3.org/1999/xlink">
<defs>
<g id="a">
<path d="m0.26562-3.6719c0.14062-0.10938 0.3125-0.1875 0.42188-0.21875l0.20312 0.23438c0.03125 0.57812 0.046875 1.1406 0.046875 1.7188 0 0.46875 0 0.85938-0.03125 1.3906l0.54688 0.75c0.40625-0.3125 0.82812-0.65625 1.2188-1.0312l-0.0625-0.1875c-0.09375 0.0625-0.39062 0.26562-0.53125 0.26562-0.4375-0.42188-0.375-0.96875-0.375-1.625 0-0.60938 0.015625-1.2188 0.078125-1.8125-0.21875-0.15625-0.40625-0.34375-0.59375-0.54688-0.34375 0.3125-0.70312 0.64062-1.0469 0.92188zm1.5938-2.4688c-0.14062-0.125-0.35938-0.375-0.54688-0.59375-0.17188 0.21875-0.39062 0.39062-0.59375 0.57812 0.17188 0.21875 0.375 0.42188 0.57812 0.60938z"/>
</g>
</defs>
<g transform="translate(-148.85 -128.03)">
<use x="148.71201" y="134.765" xlink:href="#a"/>
</g>
</svg>
