<?xml version="1.0" encoding="UTF-8"?>
<svg fill="#000000" version="1.1" viewBox="0 0 3.4636 3.8823" xmlns="http://www.w3.org/2000/svg" xmlns:xlink="http://www.w3.org/1999/xlink">
<defs>
<g id="a">
<path d="m2.4375-4.4375c-0.20312 0.03125-0.34375 0.20312-0.32812 0.40625 0 0.10938 0.0625 0.21875 0.10938 0.32812 0.046875 0.17188 0.10938 0.34375 0.14062 0.51562 0.015625 0.09375 0.015625 0.1875 0.015625 0.28125 0 0.03125 0 0.078125-0.03125 0.10938-0.046875 0.046875-0.09375 0.015625-0.14062 0-0.09375-0.0625-0.1875-0.14062-0.26562-0.20312s-0.14062-0.125-0.21875-0.20312c-0.17188-0.20312-0.32812-0.51562-0.65625-0.45312-0.03125 0-0.078125 0.015625-0.10938 0.03125-0.21875 0.14062-0.25 0.46875-0.0625 0.64062 0.10938 0.09375 0.25 0.10938 0.39062 0.125 0.20312 0.03125 0.40625 0.078125 0.59375 0.14062 0.078125 0.03125 0.15625 0.078125 0.23438 0.125 0.03125 0.015625 0.046875 0.046875 0.0625 0.078125 0 0.046875-0.03125 0.078125-0.0625 0.10938-0.078125 0.046875-0.1875 0.09375-0.28125 0.125-0.15625 0.0625-0.35938 0.10938-0.53125 0.14062-0.125 0.015625-0.26562 0.015625-0.375 0.09375-0.20312 0.14062-0.21875 0.46875-0.015625 0.625 0.046875 0.03125 0.078125 0.0625 0.125 0.0625 0.10938 0.046875 0.25 0.03125 0.35938-0.0625 0.0625-0.046875 0.10938-0.10938 0.14062-0.15625 0.078125-0.09375 0.15625-0.17188 0.21875-0.25 0.078125-0.078125 0.14062-0.14062 0.21875-0.20312s0.14062-0.125 0.23438-0.17188c0.03125-0.015625 0.078125-0.046875 0.125-0.015625 0.03125 0.015625 0.046875 0.0625 0.046875 0.10938 0.015625 0.09375 0 0.20312-0.015625 0.29688-0.03125 0.17188-0.09375 0.35938-0.15625 0.53125-0.046875 0.10938-0.09375 0.21875-0.09375 0.32812 0 0.25 0.20312 0.42188 0.4375 0.39062 0.20312-0.03125 0.34375-0.20312 0.32812-0.42188 0-0.10938-0.0625-0.21875-0.10938-0.3125-0.046875-0.17188-0.10938-0.34375-0.14062-0.51562-0.015625-0.09375-0.015625-0.1875-0.015625-0.29688 0-0.03125 0-0.078125 0.046875-0.10938 0.03125-0.03125 0.078125 0 0.125 0.015625 0.09375 0.046875 0.17188 0.125 0.26562 0.1875 0.10938 0.10938 0.21875 0.21875 0.3125 0.32812 0.078125 0.09375 0.14062 0.1875 0.23438 0.26562 0.10938 0.09375 0.28125 0.10938 0.42188 0.046875 0.23438-0.125 0.28125-0.45312 0.09375-0.625-0.10938-0.10938-0.26562-0.10938-0.40625-0.14062-0.1875-0.03125-0.39062-0.078125-0.57812-0.15625-0.078125-0.03125-0.17188-0.0625-0.23438-0.10938-0.03125-0.015625-0.0625-0.046875-0.078125-0.09375 0-0.046875 0.03125-0.078125 0.0625-0.09375 0.078125-0.0625 0.1875-0.09375 0.28125-0.125 0.15625-0.078125 0.35938-0.10938 0.53125-0.14062 0.125-0.015625 0.26562-0.015625 0.375-0.09375 0.20312-0.14062 0.21875-0.46875 0.015625-0.64062-0.046875-0.03125-0.078125-0.046875-0.125-0.0625-0.10938-0.03125-0.25-0.015625-0.35938 0.0625-0.0625 0.0625-0.10938 0.10938-0.14062 0.17188-0.078125 0.09375-0.15625 0.17188-0.21875 0.25-0.078125 0.078125-0.14062 0.14062-0.21875 0.20312s-0.14062 0.125-0.23438 0.17188c-0.03125 0.015625-0.078125 0.03125-0.125 0.015625-0.03125-0.015625-0.046875-0.0625-0.046875-0.10938-0.015625-0.09375 0-0.20312 0.015625-0.29688 0.03125-0.1875 0.09375-0.35938 0.15625-0.53125 0.046875-0.10938 0.09375-0.21875 0.09375-0.34375 0-0.23438-0.20312-0.40625-0.4375-0.375z"/>
</g>
</defs>
<g transform="translate(-149.47 -130.32)">
<use x="148.71201" y="134.765" xlink:href="#a"/>
</g>
</svg>
