<?xml version="1.0" encoding="UTF-8"?>
<svg fill="#000000" version="1.1" viewBox="0 0 5.9531 5.2812" xmlns="http://www.w3.org/2000/svg" xmlns:xlink="http://www.w3.org/1999/xlink">
<defs>
<g id="a">
<path d="m6.5156-0.79688-0.92188-0.375c0.125-0.4375 0.17188-0.89062 0.17188-1.3438 0-0.46875-0.046875-0.9375-0.1875-1.3906l0.9375-0.40625-0.25-0.59375-0.90625 0.375c-0.078125-0.21875-0.20312-0.4375-0.3125-0.64062l-0.5625 0.34375c0.09375 0.17188 0.1875 0.35938 0.26562 0.54688l-4.1875 1.7656 4.2188 1.7188c-0.09375 0.1875-0.17188 0.39062-0.28125 0.5625l0.5625 0.34375c0.125-0.21875 0.23438-0.4375 0.32812-0.65625l0.875 0.375zm-4.25-1.7188 2.7031-1.1406c0.09375 0.375 0.14062 0.76562 0.14062 1.1406s-0.046875 0.73438-0.14062 1.0938z"/>
</g>
</defs>
<g transform="translate(-149.27 -129.59)">
<use x="148.71201" y="134.765" xlink:href="#a"/>
</g>
</svg>
