<?xml version="1.0" encoding="UTF-8"?>
<svg fill="#000000" width="6.2188" height="5.4688" version="1.1" viewBox="0 0 6.2188 5.4687" xmlns="http://www.w3.org/2000/svg" xmlns:xlink="http://www.w3.org/1999/xlink">
<defs>
<g id="a">
<path d="m7.875-4.0625c0 0.29688-0.20312 0.32812-0.20312 0.5 0 0.125 0.078125 0.23438 0.21875 0.23438 0.21875 0 0.4375-0.375 0.4375-0.73438 0-0.53125-0.4375-0.9375-0.9375-0.9375-0.25 0-0.48438 0.09375-0.65625 0.28125l-1.3438 1.3281-0.84375-1.7812c-0.015625-0.0625-0.078125-0.09375-0.14062-0.09375-0.09375 0-0.17188 0.10938-0.125 0.21875l0.875 1.8906-2.1094 2.1094v-0.10938c0-0.35938 0.046875-0.71875 0.046875-1.0625v-0.10938c0-0.21875-0.015625-0.4375-0.25-0.4375-0.125 0-0.21875 0.09375-0.21875 0.21875 0 0.0625 0.015625 0.23438 0.015625 0.57812 0 1.375-0.53125 1.75-0.53125 1.9531 0 0.14062 0.10938 0.21875 0.23438 0.21875 0.20312 0 0.5625-0.51562 1.9531-0.51562 0.34375 0 0.51562 0.015625 0.5625 0.015625 0.125 0 0.23438-0.09375 0.23438-0.23438 0-0.21875-0.23438-0.23438-0.48438-0.23438h-0.0625c-0.375 0-0.76562 0.03125-1.1406 0.03125h-0.03125l1.9844-1.9844 0.84375 1.7969c0.03125 0.078125 0.10938 0.10938 0.20312 0.078125 0.0625-0.046875 0.10938-0.14062 0.0625-0.20312l-0.875-1.8906 1.4531-1.4688c0.09375-0.09375 0.21875-0.14062 0.34375-0.14062 0.28125 0 0.48438 0.21875 0.48438 0.48438z"/>
</g>
</defs>
<g transform="translate(-150.82 -129.5)">
<use x="148.71201" y="134.765" xlink:href="#a"/>
</g>
</svg>
