<?xml version="1.0" encoding="UTF-8"?>
<svg fill="#000000" version="1.1" viewBox="0 0 4.2826 4.3004" xmlns="http://www.w3.org/2000/svg" xmlns:xlink="http://www.w3.org/1999/xlink">
<defs>
<g id="a">
<path d="m0.375-4.3125v0.25c0.14062 0 0.26562 0 0.40625 0.015625 0.078125 0.015625 0.17188 0.046875 0.21875 0.125 0.0625 0.078125 0.046875 0.20312 0.046875 0.29688v2.9219c0 0.10938 0 0.21875-0.046875 0.29688-0.046875 0.09375-0.125 0.10938-0.21875 0.14062-0.14062 0.015625-0.26562 0.015625-0.40625 0.015625v0.23438h2.2031c0.48438 0 0.96875 0.03125 1.4062-0.1875 0.15625-0.09375 0.29688-0.20312 0.42188-0.32812 0.0625-0.09375 0.14062-0.20312 0.17188-0.3125 0.046875-0.078125 0.0625-0.1875 0.078125-0.28125 0.03125-0.54688-0.46875-0.92188-0.95312-1.0625-0.10938-0.03125-0.21875-0.0625-0.34375-0.0625 0.09375-0.03125 0.1875-0.046875 0.29688-0.078125 0.21875-0.078125 0.45312-0.21875 0.625-0.40625 0.046875-0.0625 0.09375-0.14062 0.125-0.21875 0.03125-0.0625 0.046875-0.125 0.0625-0.20312 0.046875-0.46875-0.35938-0.82812-0.76562-1-0.42188-0.1875-0.875-0.15625-1.3281-0.15625zm1.3125 1.9531v-1.1719c0-0.10938-0.015625-0.20312 0-0.3125 0.015625-0.046875 0.015625-0.09375 0.046875-0.125 0.046875-0.046875 0.125-0.03125 0.17188-0.03125h0.46875c0.375 0 0.78125-0.0625 1.0781 0.21875 0.0625 0.078125 0.10938 0.15625 0.15625 0.23438s0.0625 0.15625 0.0625 0.23438c0.046875 0.35938-0.15625 0.6875-0.46875 0.84375-0.125 0.0625-0.25 0.09375-0.39062 0.10938-0.125 0.015625-0.26562 0-0.40625 0zm0 0.21875h0.92188c0.15625 0 0.32812-0.015625 0.48438 0.015625 0.45312 0.0625 0.78125 0.51562 0.75 0.95312 0 0.20312-0.078125 0.39062-0.21875 0.54688-0.14062 0.14062-0.32812 0.25-0.53125 0.28125-0.21875 0.046875-0.46875 0.03125-0.6875 0.03125h-0.5c-0.046875 0-0.125 0.015625-0.17188-0.03125-0.03125-0.03125-0.03125-0.09375-0.046875-0.14062-0.015625-0.10938 0-0.23438 0-0.35938z"/>
</g>
</defs>
<g transform="translate(-149.09 -130.45)">
<use x="148.71201" y="134.765" xlink:href="#a"/>
</g>
</svg>
