<?xml version="1.0" encoding="UTF-8"?>
<svg fill="#000000" version="1.1" viewBox="0 0 1.6719 6.6406" xmlns="http://www.w3.org/2000/svg" xmlns:xlink="http://www.w3.org/1999/xlink">
<defs>
<g id="a">
<path d="m2.2031 0.6875c0-0.09375-0.15625-0.125-0.20312-0.14062-0.1875-0.015625-0.4375-0.03125-0.6875-0.48438-0.20312-0.42188-0.20312-0.89062-0.20312-0.95312 0-0.5625 0.23438-1.0156 0.5-1.5 0.34375-0.625 0.60938-1.0938 0.60938-1.7031 0-0.875-0.45312-1.7188-1.3594-1.7188-0.26562 0-0.29688 0.10938-0.29688 0.14062 0 0.09375 0.17188 0.125 0.26562 0.14062 0.53125 0.03125 0.82812 0.79688 0.82812 1.4375 0 0.5625-0.23438 1.0156-0.51562 1.5-0.32812 0.625-0.59375 1.0938-0.59375 1.7031 0 0.82812 0.42188 1.7188 1.3594 1.7188 0.21875 0 0.29688-0.078125 0.29688-0.14062z"/>
</g>
</defs>
<g transform="translate(-149.26 -128.95)">
<use x="148.71201" y="134.765" xlink:href="#a"/>
</g>
</svg>
