<?xml version="1.0" encoding="UTF-8"?>
<svg fill="#000000" version="1.1" viewBox="0 0 6.6406 7.0156" xmlns="http://www.w3.org/2000/svg" xmlns:xlink="http://www.w3.org/1999/xlink">
<defs>
<g id="a">
<path d="m6.9062-6.5625v-0.28125c-0.8125 0.03125-1.9844 0.0625-2.4375 0.0625h-1.9688c-0.75 0-1.5-0.046875-2.2344-0.09375v0.29688c0.5625 0.17188 0.65625 0.20312 0.73438 0.28125 0.125 0.10938 0.14062 0.67188 0.14062 0.96875v0.73438c0 1.5312-0.015625 3.0469-0.078125 4.5781l0.0625 0.0625 0.84375-0.20312c-0.015625-1.0156-0.046875-2.2344-0.046875-3.0469 0-1.0312 0-2.0312 0.078125-3.0312 0-0.078125 0.078125-0.14062 0.14062-0.14062h2.875c0.015625 0 0.125 0.03125 0.125 0.125 0.015625 1.0781 0.015625 2.2812 0.015625 3.3594 0 0.98438 0 1.9375-0.015625 2.9219l0.14062 0.10938 0.79688-0.21875c-0.10938-1.3438-0.125-2.6875-0.125-4.0312 0-1 0.015625-2.1562 0.0625-2.2188 0.046875-0.03125 0.078125-0.046875 0.14062-0.0625z"/>
</g>
</defs>
<g transform="translate(-148.98 -127.89)">
<use x="148.71201" y="134.765" xlink:href="#a"/>
</g>
</svg>
