<?xml version="1.0" encoding="UTF-8"?>
<svg fill="#000000" version="1.1" viewBox="0 0 3.7543 4.2894" xmlns="http://www.w3.org/2000/svg" xmlns:xlink="http://www.w3.org/1999/xlink">
<defs>
<g id="a">
<path d="m2.0469-3.2656c-0.35938-0.10938-0.73438-0.21875-1.1094-0.3125-0.0625-0.015625-0.15625-0.078125-0.23438-0.046875-0.0625 0-0.10938 0.0625-0.078125 0.125 0.015625 0.09375 0.125 0.17188 0.20312 0.23438 0.17188 0.17188 0.34375 0.32812 0.53125 0.5 0.0625 0.0625 0.10938 0.125 0.17188 0.1875 0.03125 0.015625 0.0625 0.046875 0.0625 0.078125s-0.03125 0.0625-0.0625 0.078125c-0.0625 0.0625-0.10938 0.125-0.17188 0.17188-0.1875 0.17188-0.35938 0.34375-0.53125 0.51562-0.078125 0.0625-0.1875 0.14062-0.20312 0.23438-0.03125 0.046875 0.015625 0.10938 0.078125 0.125 0.078125 0.015625 0.17188-0.03125 0.23438-0.046875 0.375-0.10938 0.75-0.21875 1.1094-0.32812 0.09375 0.35938 0.1875 0.71875 0.28125 1.0781 0.015625 0.078125 0.03125 0.15625 0.0625 0.25 0.015625 0.03125 0.046875 0.0625 0.10938 0.0625 0.03125 0.015625 0.078125-0.015625 0.09375-0.0625 0.03125-0.0625 0.046875-0.17188 0.0625-0.25 0.09375-0.35938 0.1875-0.71875 0.28125-1.0781 0.35938 0.10938 0.73438 0.21875 1.1094 0.32812 0.0625 0.015625 0.15625 0.0625 0.23438 0.0625 0.0625-0.015625 0.10938-0.09375 0.078125-0.14062-0.015625-0.09375-0.125-0.17188-0.20312-0.23438-0.17188-0.17188-0.34375-0.34375-0.53125-0.51562-0.0625-0.046875-0.10938-0.10938-0.17188-0.17188-0.03125-0.015625-0.0625-0.046875-0.0625-0.078125s0.03125-0.0625 0.0625-0.078125c0.0625-0.0625 0.10938-0.125 0.17188-0.1875 0.1875-0.17188 0.35938-0.32812 0.53125-0.5 0.078125-0.0625 0.1875-0.14062 0.20312-0.23438 0.03125-0.0625-0.015625-0.125-0.078125-0.14062-0.078125 0-0.17188 0.046875-0.23438 0.0625-0.375 0.09375-0.75 0.20312-1.1094 0.3125-0.09375-0.35938-0.1875-0.71875-0.28125-1.0781-0.015625-0.078125-0.03125-0.17188-0.0625-0.23438-0.015625-0.046875-0.0625-0.078125-0.09375-0.0625-0.0625 0-0.09375 0.03125-0.10938 0.0625-0.03125 0.078125-0.046875 0.17188-0.0625 0.25-0.09375 0.35938-0.1875 0.70312-0.28125 1.0625z"/>
</g>
</defs>
<g transform="translate(-149.33 -130.12)">
<use x="148.71201" y="134.765" xlink:href="#a"/>
</g>
</svg>
