<?xml version="1.0" encoding="UTF-8"?>
<svg fill="#000000" version="1.1" viewBox="0 0 5.2969 5.9062" xmlns="http://www.w3.org/2000/svg" xmlns:xlink="http://www.w3.org/1999/xlink">
<defs>
<g id="a">
<path d="m7.5938-2.7188c0-0.10938-0.34375-0.76562-0.34375-1.5938 0-0.29688 0.0625-0.60938 0.15625-0.875 0.015625-0.03125 0.015625-0.0625 0.015625-0.09375 0-0.125-0.078125-0.21875-0.23438-0.21875-0.29688 0-0.40625 0.79688-2.3438 1.1406-0.10938 0.015625-0.1875 0.10938-0.1875 0.21875 0 0.14062 0.10938 0.23438 0.23438 0.23438 0.17188 0 0.96875-0.26562 1.2031-0.34375-0.65625 1.0312 0.09375 2.0312-1.625 2.0938l-0.9375-2.0156c-0.03125-0.078125-0.125-0.10938-0.1875-0.0625-0.078125 0.03125-0.10938 0.125-0.078125 0.1875l0.875 1.9062c-0.64062 0-1.1875 0.09375-1.5312 0.53125-0.26562 0.3125-0.3125 0.71875-0.3125 1.0625 0 0.25 0.015625 0.5 0.015625 0.71875 0 0.14062 0.10938 0.23438 0.23438 0.23438s0.21875-0.09375 0.21875-0.23438c0-0.23438-0.015625-0.48438-0.015625-0.71875 0-0.92188 0.4375-1.1406 1.4844-1.1406h0.125l0.82812 1.7656c0.03125 0.078125 0.125 0.10938 0.20312 0.078125s0.10938-0.125 0.078125-0.20312l-0.78125-1.6562c1.6719-0.14062 1.4062-1.375 1.6562-2.0312 0.078125-0.1875 0.21875-0.375 0.375-0.57812 0.17188 0.54688 0.23438 1.1406 0.42188 1.6875 0.03125 0.09375 0.125 0.14062 0.21875 0.14062 0.14062 0 0.23438-0.10938 0.23438-0.23438z"/>
</g>
</defs>
<g transform="translate(-151.01 -129.26)">
<use x="148.71201" y="134.765" xlink:href="#a"/>
</g>
</svg>
