<?xml version="1.0" encoding="UTF-8"?>
<svg fill="#000000" version="1.1" viewBox="0 0 8.8447 8.8383" xmlns="http://www.w3.org/2000/svg" xmlns:xlink="http://www.w3.org/1999/xlink">
<defs>
<g id="a">
<path d="m8.1875-6-7.2969 7.2969-0.078125 0.09375c-0.10938 0.10938-0.35938 0.29688-0.1875 0.46875 0 0.015625 0.015625 0.03125 0.046875 0.03125 0.17188 0.09375 0.3125-0.09375 0.42188-0.20312l0.078125-0.09375 7.3125-7.3125c0.015625 0.23438 0.015625 0.45312 0.046875 0.6875 0.015625 0.1875 0.03125 0.35938 0.0625 0.5625 0.015625 0.078125 0.015625 0.15625 0.046875 0.23438 0.015625 0.0625 0.078125 0.09375 0.14062 0.078125 0.078125-0.03125 0.15625-0.10938 0.1875-0.1875 0.015625-0.0625 0.015625-0.15625 0.015625-0.21875 0-0.125 0.015625-0.26562 0.03125-0.39062 0.046875-0.40625 0.10938-0.8125 0.21875-1.2031 0.03125-0.17188 0.09375-0.35938 0.14062-0.51562 0.03125-0.078125 0.0625-0.15625 0-0.21875-0.046875-0.0625-0.14062-0.015625-0.21875 0-0.17188 0.046875-0.34375 0.10938-0.51562 0.14062-0.39062 0.09375-0.79688 0.17188-1.2031 0.21875-0.125 0.015625-0.25 0.015625-0.375 0.03125-0.078125 0-0.17188-0.015625-0.25 0.015625-0.0625 0.03125-0.14062 0.10938-0.17188 0.1875-0.015625 0.0625 0.015625 0.125 0.0625 0.14062 0.078125 0.03125 0.17188 0.03125 0.25 0.046875 0.1875 0.03125 0.375 0.046875 0.5625 0.0625 0.23438 0.015625 0.45312 0.03125 0.67188 0.046875z"/>
</g>
</defs>
<g transform="translate(-149.28 -127.84)">
<use x="148.71201" y="134.765" xlink:href="#a"/>
</g>
</svg>
