<?xml version="1.0" encoding="UTF-8"?>
<svg fill="#000000" version="1.1" viewBox="0 0 9.8125 3.3281" xmlns="http://www.w3.org/2000/svg" xmlns:xlink="http://www.w3.org/1999/xlink">
<defs>
<g id="a">
<path d="m8.9062-2.2969c0.34375 0.23438 0.84375 0.67188 1.1562 1.4688h0.3125c-0.28125-0.76562-0.79688-1.2656-1.0312-1.4688v-0.39062c0.25-0.20312 0.75-0.70312 1.0312-1.4688h-0.3125c-0.3125 0.78125-0.79688 1.2188-1.1562 1.4688h-7.5469c0.34375-0.29688 0.75-0.76562 1.0156-1.4688h-0.3125c-0.29688 0.8125-0.89062 1.3594-1.5 1.6562 0.60938 0.3125 1.2031 0.875 1.5 1.6719h0.3125c-0.29688-0.73438-0.70312-1.2031-1.0156-1.4688z"/>
</g>
</defs>
<g transform="translate(-149.27 -130.61)">
<use x="148.71201" y="134.765" xlink:href="#a"/>
</g>
</svg>
