<?xml version="1.0" encoding="UTF-8"?>
<svg fill="#000000" version="1.1" viewBox="0 0 5.8594 10.531" xmlns="http://www.w3.org/2000/svg" xmlns:xlink="http://www.w3.org/1999/xlink">
<defs>
<g id="a">
<path d="m6.2031-5.2969c-2.0312-0.15625-4.3594-0.54688-5.5625-2.1562v0.78125c0.5 0.84375 2.1094 1.5625 3.3438 1.7031-1.2344 0.15625-2.8438 0.85938-3.3438 1.7188v0.76562c1.2031-1.6094 3.5312-1.9844 5.5625-2.1562zm-0.1875 5.9062c-0.14062 0.70312-0.46875 1.375-1.1562 1.375-0.40625 0-0.92188-0.40625-1.4531-0.76562l0.57812-1.1562c0.26562 0.14062 0.53125 0.23438 0.79688 0.23438 0.96875 0 1.5156-1.1875 1.5625-2.0469h-0.32812c-0.14062 0.71875-0.46875 1.375-1.1562 1.375-0.17188 0-0.35938-0.0625-0.5625-0.15625l0.78125-1.5469h-0.60938l-0.625 1.2656c-0.5625-0.375-1.1719-0.82812-1.7344-0.82812-0.98438 0-1.5781 1.0312-1.625 2.0312h0.32812c0.15625-0.70312 0.51562-1.375 1.2188-1.375 0.40625 0 0.9375 0.42188 1.4844 0.78125l-0.57812 1.1562c-0.28125-0.14062-0.5625-0.25-0.82812-0.25-0.98438 0-1.5781 1.0469-1.625 2.0312h0.32812c0.15625-0.70312 0.51562-1.375 1.2188-1.375 0.1875 0 0.375 0.078125 0.59375 0.20312l-0.76562 1.5156h0.60938l0.60938-1.2344c0.54688 0.375 1.1406 0.79688 1.7031 0.79688 0.96875 0 1.5156-1.1875 1.5625-2.0312z"/>
</g>
</defs>
<g transform="translate(-149.2 -127.31)">
<use x="148.71201" y="134.765" xlink:href="#a"/>
</g>
</svg>
