<?xml version="1.0" encoding="UTF-8"?>
<svg fill="#000000" version="1.1" viewBox="0 0 13.141 12.578" xmlns="http://www.w3.org/2000/svg" xmlns:xlink="http://www.w3.org/1999/xlink">
<defs>
<g id="a">
<path d="m13.469 0.78125c0-0.54688-0.6875-0.78125-1.1406-0.78125-1.875 0-2.1719 2.7188-2.2656 4.0938h-2.5c0.015625-0.84375-0.0625-3.7969 1.2031-3.7969 0.10938 0 0.23438 0.03125 0.32812 0.125-0.03125 0.046875-0.046875 0.10938-0.046875 0.1875 0 0.29688 0.39062 0.59375 0.6875 0.59375 0.21875 0 0.28125-0.21875 0.28125-0.42188 0-0.54688-0.6875-0.78125-1.1406-0.78125-1.8594 0-2.1562 2.7188-2.25 4.0938h-2.5c0.0625-0.84375-0.0625-3.7969 1.2031-3.7969 0.10938 0 0.23438 0.03125 0.3125 0.125-0.03125 0.046875-0.03125 0.10938-0.03125 0.1875 0 0.29688 0.375 0.59375 0.67188 0.59375 0.23438 0 0.28125-0.21875 0.28125-0.42188 0-0.54688-0.6875-0.78125-1.1406-0.78125-1.875 0-2.1562 2.7344-2.25 4.1094-1.0625 0.17188-1.8906 1.0156-2.0156 2.0781l-0.59375-0.53125-0.23438 0.21875 0.82812 0.90625c0.125 0.96875 0.8125 1.7812 1.75 2.0312 0 0.20312-0.015625 0.39062-0.03125 0.59375-0.03125 0.8125 0.078125 2.8594-1.125 2.8594-0.125 0-0.25-0.03125-0.32812-0.125 0.03125-0.0625 0.046875-0.125 0.046875-0.17188 0-0.3125-0.40625-0.60938-0.6875-0.60938-0.21875 0-0.26562 0.25-0.26562 0.42188 0 0.5625 0.65625 0.79688 1.125 0.79688 1.3438 0 1.7812-1.5938 1.9844-2.6562 0.0625-0.32812 0.10938-0.65625 0.14062-0.98438v-0.046875h2.5781c-0.078125 0.875 0.1875 3.375-1.1562 3.375-0.10938 0-0.23438-0.03125-0.3125-0.125 0.015625-0.0625 0.046875-0.125 0.046875-0.17188 0-0.3125-0.40625-0.60938-0.6875-0.60938-0.23438 0-0.28125 0.25-0.28125 0.42188 0 0.5625 0.67188 0.79688 1.125 0.79688 1.6875 0 1.875-2.4688 2.125-3.6875h2.5938c0 0.17188-0.015625 0.34375-0.015625 0.51562-0.015625 0.79688 0.0625 2.8594-1.1406 2.8594-0.125 0-0.23438-0.03125-0.3125-0.125 0.015625-0.0625 0.03125-0.125 0.03125-0.17188 0-0.3125-0.39062-0.60938-0.67188-0.60938-0.23438 0-0.28125 0.23438-0.28125 0.42188 0 0.54688 0.67188 0.79688 1.125 0.79688 1.7031 0 1.9844-2.4531 2.1406-3.7188 1.125-0.20312 1.9688-1.2188 1.9688-2.375 0-1.0156-0.64062-1.9219-1.6094-2.2656 0.03125-0.875-0.10938-3.9219 1.1875-3.9219 0.125 0 0.23438 0.03125 0.3125 0.125-0.01563 0.0625-0.03125 0.10938-0.03125 0.1875 0 0.3125 0.40625 0.59375 0.67188 0.59375 0.23438 0 0.29688-0.23438 0.29688-0.42188zm-1.3281 5.7031c0 0.875-0.59375 1.625-1.4219 1.8438 0.125-1.1875 0.1875-2.3906 0.26562-3.5938 0.70312 0.29688 1.1562 0.98438 1.1562 1.75zm-2.1094-1.9062c-0.078125 1.2812-0.15625 2.5469-0.21875 3.8125h-2.5625c0.10938-1.2656 0.1875-2.5312 0.28125-3.8125zm-3.4375 0c-0.078125 1.2812-0.15625 2.5469-0.21875 3.8125h-2.5625c0.14062-1.2656 0.1875-2.5312 0.28125-3.8125zm-3.4531 0.046875c-0.078125 1.2188-0.15625 2.4531-0.20312 3.6719-0.64062-0.21875-1.125-0.76562-1.2656-1.4219l0.92188-1-0.23438-0.21875-0.71875 0.64062c0.09375-0.82812 0.70312-1.4844 1.5-1.6719z"/>
</g>
</defs>
<g transform="translate(-149.04 -125.92)">
<use x="148.71201" y="125.923" xlink:href="#a"/>
</g>
</svg>
