<?xml version="1.0" encoding="UTF-8"?>
<svg fill="#000000" version="1.1" viewBox="0 0 7.3906 7.3906" xmlns="http://www.w3.org/2000/svg" xmlns:xlink="http://www.w3.org/1999/xlink">
<defs>
<g id="a">
<path d="m7.8906-2.5156c0-2.0469-1.6562-3.6875-3.6875-3.6875-2.0469 0-3.7031 1.6406-3.7031 3.6875s1.6562 3.7031 3.7031 3.7031c2.0312 0 3.6875-1.6562 3.6875-3.7031zm-3.6875-0.46875-1.9062-1.9062c0.51562-0.40625 1.1875-0.65625 1.9062-0.65625s1.375 0.25 1.8906 0.65625zm0.46875 0.46875 1.8906-1.9062c0.42188 0.53125 0.67188 1.1875 0.67188 1.9062s-0.25 1.3906-0.67188 1.9062zm-0.9375 0-1.9062 1.9062c-0.42188-0.51562-0.67188-1.1875-0.67188-1.9062s0.25-1.375 0.67188-1.9062zm2.3594 2.375c-0.51562 0.42188-1.1719 0.67188-1.8906 0.67188s-1.3906-0.25-1.9062-0.67188l1.9062-1.9062z"/>
</g>
</defs>
<g transform="translate(-149.21 -128.56)">
<use x="148.71201" y="134.765" xlink:href="#a"/>
</g>
</svg>
