<?xml version="1.0" encoding="UTF-8"?>
<svg fill="#000000" version="1.1" viewBox="0 0 4.0224 4.3038" xmlns="http://www.w3.org/2000/svg" xmlns:xlink="http://www.w3.org/1999/xlink">
<defs>
<g id="a">
<path d="m0.26562-4.3125v0.3125c0.15625 0 0.3125 0 0.46875 0.015625 0.09375 0.015625 0.1875 0.03125 0.25 0.10938 0.046875 0.09375 0.046875 0.1875 0.046875 0.28125v2.8594c0 0.09375 0 0.20312-0.046875 0.28125-0.0625 0.078125-0.15625 0.10938-0.25 0.10938-0.15625 0.03125-0.3125 0.03125-0.46875 0.03125v0.29688c0.60938 0 1.2188 0.015625 1.8281 0 0.5-0.015625 1.0625-0.03125 1.5156-0.26562 0.17188-0.09375 0.34375-0.20312 0.46875-0.35938 0.29688-0.40625 0.28125-1.0312-0.0625-1.4062-0.375-0.40625-0.98438-0.53125-1.5156-0.59375-0.17188-0.015625-0.35938-0.046875-0.54688-0.046875-0.046875 0-0.15625 0.015625-0.20312-0.03125-0.03125-0.015625-0.015625-0.078125-0.015625-0.125v-0.75c0-0.10938 0-0.20312 0.0625-0.28125s0.14062-0.09375 0.23438-0.10938c0.15625-0.015625 0.32812-0.015625 0.48438-0.015625v-0.3125zm1.4688 4.0781v-2.2344c0.17188 0 0.375 0.046875 0.53125 0.09375 0.3125 0.078125 0.625 0.1875 0.875 0.39062 0.09375 0.09375 0.1875 0.20312 0.23438 0.3125 0.125 0.28125 0.09375 0.60938-0.078125 0.84375-0.26562 0.375-0.78125 0.5-1.2188 0.5625-0.10938 0-0.23438 0.03125-0.34375 0.03125z"/>
</g>
</defs>
<g transform="translate(-148.98 -130.45)">
<use x="148.71201" y="134.765" xlink:href="#a"/>
</g>
</svg>
