<?xml version="1.0" encoding="UTF-8"?>
<svg fill="#000000" version="1.1" viewBox="0 0 6.4531 4.5781" xmlns="http://www.w3.org/2000/svg" xmlns:xlink="http://www.w3.org/1999/xlink">
<defs>
<g id="a">
<path d="m3.9531-2.5156c0.09375-1.4531 0.92188-1.7344 1.2812-1.7344 0.95312 0 1 1.3438 1.0156 1.7344zm-0.015625 0.21875h2.7188c0.21875 0 0.25 0 0.25-0.21875 0-1.1094-0.57812-1.9531-1.6562-1.9531-0.4375 0-1 0.15625-1.5156 0.76562-0.28125-0.46875-0.89062-0.76562-1.5156-0.76562-0.79688 0-1.5156 0.46875-1.5156 1.125 0 0.29688 0.20312 0.46875 0.46875 0.46875 0.28125 0 0.45312-0.20312 0.45312-0.45312 0-0.125-0.046875-0.45312-0.51562-0.45312 0.25-0.32812 0.71875-0.46875 1.0781-0.46875 0.51562 0 1.0625 0.40625 1.0625 1.2812v0.46875c-1.6094 0-2.7969 0.625-2.7969 1.5781 0 0.79688 0.90625 1.0312 1.5781 1.0312 0.8125 0 1.4219-0.40625 1.6719-0.89062 0.57812 0.8125 1.3594 0.89062 1.6562 0.89062 1.125 0 1.5469-1.1094 1.5469-1.2969 0-0.09375-0.078125-0.125-0.125-0.125-0.09375 0-0.10938 0.046875-0.15625 0.20312-0.14062 0.5-0.60938 0.96875-1.2188 0.96875-0.10938 0-1.4688 0-1.4688-2.1562zm-0.6875 0.015625c0 0.23438 0 0.4375 0.09375 0.75 0.03125 0.10938 0.03125 0.1875 0.03125 0.21875 0 0.64062-0.57812 1.2031-1.2969 1.2031-0.46875 0-0.85938-0.34375-0.85938-0.8125 0-0.53125 0.42188-1.2969 2.0312-1.3594z"/>
</g>
</defs>
<g transform="translate(-149.17 -130.3)">
<use x="148.71201" y="134.765" xlink:href="#a"/>
</g>
</svg>
