<?xml version="1.0" encoding="UTF-8"?>
<svg fill="#000000" version="1.1" viewBox="0 0 5.5625 8.1562" xmlns="http://www.w3.org/2000/svg" xmlns:xlink="http://www.w3.org/1999/xlink">
<defs>
<g id="a">
<path d="m6.2031 0.25v-0.65625h-2.8594c-0.15625 0-0.32812-0.015625-0.48438-0.078125l1.8125-4.1562h1.5312v-0.65625h-1.2344l0.5625-1.2969h-0.53125l-0.57812 1.2969h-1.0781c-1.5938 0-2.7031 1.2969-2.7031 2.7656 0 1.0625 0.5625 2.0469 1.4844 2.5156l-0.6875 1.5781h0.53125l0.60938-1.4062c0.23438 0.046875 0.46875 0.09375 0.73438 0.09375zm-2.0625-4.8906-1.7344 3.9688c-0.65625-0.375-1.0938-1.1094-1.0938-1.8594 0-1.0625 0.89062-2.1094 2.0312-2.1094z"/>
</g>
</defs>
<g transform="translate(-149.35 -128.17)">
<use x="148.71201" y="134.765" xlink:href="#a"/>
</g>
</svg>
