<?xml version="1.0" encoding="UTF-8"?>
<svg fill="#000000" version="1.1" viewBox="0 0 5.0938 7.1562" xmlns="http://www.w3.org/2000/svg" xmlns:xlink="http://www.w3.org/1999/xlink">
<defs>
<g id="a">
<path d="m5.7188-1.8906v-0.5c-1.0781 0.1875-1.9531 0.45312-2.6406 0.71875l0.375-0.9375c0.625-0.23438 1.375-0.4375 2.2656-0.57812v-0.23438c-0.67188-0.10938-1.2656-0.25-1.7656-0.42188l0.90625-2.2969h-0.53125l-0.85938 2.1406c-2.25-0.8125-2.8438-1.9688-2.8438-1.9844v0.76562s0.73438 1.0312 2.6719 1.6562l-0.21875 0.57812c-1.7656 0.625-2.4531 1.5938-2.4531 1.5938v0.76562s0.46875-0.9375 2.1875-1.7344l-0.375 0.98438c-1.4375 0.71875-1.8125 1.4531-1.8125 1.4688v0.76562c0-0.015625 0.375-0.76562 1.5156-1.4844l-0.67188 1.6406h0.54688l0.8125-2.0469c0.73438-0.35938 1.6719-0.6875 2.8906-0.85938zm-1.5156-1.4219c-0.1875 0.046875-0.35938 0.078125-0.51562 0.125l0.09375-0.23438c0.14062 0.046875 0.28125 0.078125 0.42188 0.10938z"/>
</g>
</defs>
<g transform="translate(-149.34 -128.62)">
<use x="148.71201" y="134.765" xlink:href="#a"/>
</g>
</svg>
