<?xml version="1.0" encoding="UTF-8"?>
<svg fill="#000000" version="1.1" viewBox="0 0 6.625 6.6406" xmlns="http://www.w3.org/2000/svg" xmlns:xlink="http://www.w3.org/1999/xlink">
<defs>
<g id="a">
<path d="m0.8125-2.6875c0.046875-0.73438 0.35938-1.4531 0.875-1.9844 0.57812-0.57812 1.3594-0.89062 2.1875-0.89062 0.73438 0 1.4688 0.26562 2.0312 0.76562zm0.71875-2.1562c-0.64062 0.625-0.98438 1.4688-0.98438 2.3438 0 0.89062 0.34375 1.7344 0.98438 2.3594 0.60938 0.625 1.4531 0.96875 2.3438 0.96875 0.875 0 1.7188-0.34375 2.3281-0.96875 0.625-0.625 0.96875-1.4688 0.96875-2.3594 0-0.875-0.34375-1.7188-0.96875-2.3438-0.60938-0.625-1.4531-0.96875-2.3281-0.96875-0.89062 0-1.7344 0.34375-2.3438 0.96875zm4.5625 4.4688-5.0938-2.125 5.0938-2.1094c0.53125 0.57812 0.82812 1.3281 0.82812 2.1094 0 0.79688-0.29688 1.5469-0.82812 2.125zm-4.4062 0.0625c-0.51562-0.53125-0.82812-1.25-0.875-1.9844l5.0938 2.1094c-0.5625 0.5-1.2969 0.76562-2.0312 0.76562-0.82812 0-1.6094-0.3125-2.1875-0.89062z"/>
</g>
</defs>
<g transform="translate(-149.26 -128.95)">
<use x="148.71201" y="134.765" xlink:href="#a"/>
</g>
</svg>
