<?xml version="1.0" encoding="UTF-8"?>
<svg fill="#000000" width="6.1719" height="8.0938" version="1.1" viewBox="0 0 6.1719 8.0937" xmlns="http://www.w3.org/2000/svg" xmlns:xlink="http://www.w3.org/1999/xlink">
<defs>
<g id="a">
<path d="m0.82812-1.0938c-0.14062 0-0.23438 0.10938-0.23438 0.21875 0 0.078125 0.03125 0.14062 0.078125 0.1875 0.64062 0.53125 1.2188 1.1875 1.3594 2 0.015625 0.10938 0.10938 0.1875 0.21875 0.1875 0.125 0 0.21875-0.078125 0.23438-0.1875 0.125-0.75 0.625-1.3594 1.1875-1.875 0.57812 0.51562 1.0781 1.125 1.2188 1.875 0.015625 0.10938 0.10938 0.1875 0.21875 0.1875s0.20312-0.078125 0.21875-0.1875c0.15625-0.8125 0.71875-1.4688 1.3438-2 0.0625-0.046875 0.09375-0.10938 0.09375-0.1875 0-0.10938-0.09375-0.21875-0.21875-0.21875-0.23438 0-0.71875 0.67188-1.2031 1.1406v-3.75l1.25-0.45312c0.078125-0.03125 0.10938-0.125 0.078125-0.1875-0.015625-0.078125-0.10938-0.125-0.1875-0.09375l-1.1406 0.42188v-2.3594c0-0.10938-0.10938-0.21875-0.23438-0.21875s-0.21875 0.10938-0.21875 0.21875v2.5156l-2.4062 0.875v-3.3906c0-0.10938-0.10938-0.21875-0.23438-0.21875-0.10938 0-0.21875 0.10938-0.21875 0.21875v3.5469l-1.25 0.46875c-0.078125 0.03125-0.125 0.10938-0.09375 0.1875s0.125 0.125 0.1875 0.09375l1.1562-0.42188v2.5469c-0.46875-0.45312-0.96875-1.1406-1.2031-1.1406zm2.8438 0c-0.21875 0-0.70312 0.67188-1.1875 1.1406v-2.7031l2.4062-0.875v3.5781c-0.5-0.46875-0.96875-1.1406-1.2188-1.1406z"/>
</g>
</defs>
<g transform="translate(-149.31 -128.17)">
<use x="148.71201" y="134.765" xlink:href="#a"/>
</g>
</svg>
