<?xml version="1.0" encoding="UTF-8"?>
<svg fill="#000000" version="1.1" viewBox="0 0 6.1065 6.964" xmlns="http://www.w3.org/2000/svg" xmlns:xlink="http://www.w3.org/1999/xlink">
<defs>
<g id="a">
<path d="m6.5312-6.1562c-0.078125 0.03125-0.125 0.10938-0.1875 0.15625-0.14062 0.125-0.26562 0.25-0.40625 0.375-0.39062 0.32812-0.8125 0.65625-1.2656 0.9375-0.8125 0.53125-1.7188 0.92188-2.6719 1.0938-0.21875 0.0625-0.46875 0.078125-0.6875 0.09375-0.125 0.015625-0.25 0-0.375 0.015625s-0.10938 0.14062-0.10938 0.21875c0 0.0625 0 0.125 0.0625 0.15625 0.03125 0.015625 0.09375 0.015625 0.125 0.015625h0.25c0.39062-0.015625 0.78125-0.078125 1.1406-0.17188 1.3125-0.32812 2.5-1.0156 3.5312-1.8438 0.25-0.20312 0.46875-0.40625 0.70312-0.60938 0.0625-0.0625 0.125-0.10938 0.17188-0.17188 0.046875-0.046875 0.078125-0.078125 0.10938-0.125 0.015625-0.046875-0.015625-0.10938-0.0625-0.14062h-0.10938c-0.078125 0-0.15625-0.015625-0.21875 0zm-3.9062 4.4531v-0.015625c0.10938-0.015625 0.23438-0.0625 0.34375-0.09375 0.21875-0.0625 0.4375-0.125 0.64062-0.21875 0.85938-0.3125 1.6719-0.78125 2.4062-1.3125 0.25-0.1875 0.5-0.35938 0.71875-0.5625 0.078125-0.046875 0.23438-0.15625 0.17188-0.26562-0.03125-0.078125-0.20312-0.0625-0.28125-0.0625-0.03125 0-0.078125 0-0.10938 0.015625-0.09375 0.03125-0.17188 0.10938-0.23438 0.17188-0.14062 0.10938-0.28125 0.23438-0.42188 0.32812-1.0781 0.78125-2.2812 1.4219-3.5938 1.6719-0.21875 0.046875-0.45312 0.078125-0.6875 0.10938-0.125 0-0.26562 0-0.40625 0.03125-0.10938 0-0.3125-0.0625-0.34375 0.09375-0.015625 0.078125-0.015625 0.23438 0.046875 0.28125 0.046875 0.03125 0.10938 0.015625 0.15625 0.015625 0.09375 0 0.1875 0.015625 0.28125 0.015625 0.29688 0 0.60938 0.046875 0.90625 0.10938 1.2344 0.21875 2.3906 0.79688 3.4062 1.5156 0.20312 0.14062 0.39062 0.28125 0.5625 0.42188 0.09375 0.078125 0.1875 0.1875 0.29688 0.23438 0.078125 0.03125 0.1875 0.015625 0.28125 0.015625 0.03125 0 0.078125 0 0.10938-0.015625 0.046875-0.03125 0.0625-0.10938 0.03125-0.15625-0.046875-0.078125-0.15625-0.14062-0.23438-0.20312-0.32812-0.26562-0.6875-0.53125-1.0469-0.76562-0.34375-0.23438-0.70312-0.4375-1.0781-0.64062-0.40625-0.21875-0.84375-0.39062-1.2656-0.54688-0.20312-0.0625-0.4375-0.14062-0.65625-0.17188z"/>
</g>
</defs>
<g transform="translate(-149.53 -128.6)">
<use x="148.71201" y="134.765" xlink:href="#a"/>
</g>
</svg>
