<?xml version="1.0" encoding="UTF-8"?>
<svg fill="#000000" width="7.1094" height="3.2188" version="1.1" viewBox="0 0 7.1094 3.2187" xmlns="http://www.w3.org/2000/svg" xmlns:xlink="http://www.w3.org/1999/xlink">
<defs>
<g id="a">
<path d="m0.82812-2.0312c0.03125 0 0.09375-0.015625 0.23438-0.015625 1.1719 0 2.0156 0.84375 2.2031 0.84375 0.14062 0 0.23438-0.10938 0.23438-0.23438 0-0.23438-0.40625-0.375-1.2031-0.79688 0.76562-0.20312 0.96875-0.79688 1.5156-0.79688 0.76562 0 1.3125 1.4219 2.3438 1.4219 0.71875 0 1.0781-0.65625 1.4844-1.0625 0.046875-0.046875 0.0625-0.09375 0.0625-0.15625 0-0.125-0.09375-0.23438-0.21875-0.23438-0.32812 0-0.70312 1-1.3281 1-0.78125 0-1.2969-1.4219-2.3438-1.4219-0.85938 0-0.95312 0.75-1.9531 0.875 0.25-0.51562 0.90625-1.3594 0.90625-1.5938 0-0.10938-0.10938-0.21875-0.23438-0.21875-0.09375 0-0.17188 0.046875-0.20312 0.14062-0.89062 1.8906-1.7344 1.6406-1.7344 2.0156 0 0.14062 0.10938 0.23438 0.23438 0.23438z"/>
</g>
</defs>
<g transform="translate(-149.31 -130.34)">
<use x="148.71201" y="134.765" xlink:href="#a"/>
</g>
</svg>
