<?xml version="1.0" encoding="UTF-8"?>
<svg fill="#000000" version="1.1" viewBox="0 0 6.3594 7.1406" xmlns="http://www.w3.org/2000/svg" xmlns:xlink="http://www.w3.org/1999/xlink">
<defs>
<g id="a">
<path d="m2.8594-3.3438c0-0.078125-0.0625-0.10938-0.09375-0.10938-1.5156-0.09375-1.9062-1.0938-1.9062-1.6875 0-0.98438 0.90625-1.6719 1.8125-1.6719 0.5625 0 0.89062 0.35938 1.3125 0.90625 0.45312 0.5625 0.9375 1.1719 1.7812 1.1719 0.70312 0 1.1406-0.3125 1.1406-0.70312 0-0.125-0.09375-0.125-0.15625-0.125-0.125 0-0.14062 0.046875-0.15625 0.14062-0.078125 0.46875-0.78125 0.46875-0.79688 0.46875-0.14062 0-0.20312-0.03125-0.35938-0.32812-0.89062-1.6406-2.3125-1.75-2.7188-1.75-1.2188 0-2.1719 0.84375-2.1719 1.8906 0 1.2344 1.2344 1.9062 2.1406 1.9062 0.0625 0 0.17188 0 0.17188-0.10938zm-2.0469 1.5156c-0.17188 0-0.26562 0-0.26562 0.10938 0 0.03125 0 0.10938 0.09375 0.10938 0.34375 0.03125 0.67188 0.046875 1.4375 0.75 1.0625 0.96875 1.2812 0.96875 2.0781 0.96875 0.51562 0 0.9375 0 1.4219-0.34375 0.35938-0.23438 0.64062-0.64062 0.64062-1.1406 0-0.35938-0.14062-0.5625-0.5-0.96875-0.39062-0.4375-0.42188-0.60938-0.42188-0.84375 0-0.42188 0.10938-0.89062 0.46875-0.89062 0.015625 0 0.75 0 0.82812 0.70312 0.015625 0.0625 0.03125 0.125 0.15625 0.125s0.15625-0.046875 0.15625-0.14062c0-0.42188-0.45312-0.90625-1.1562-0.90625-0.71875 0-1.2969 0.51562-1.2969 1.1406 0 0.40625 0.23438 0.65625 0.53125 1 0.375 0.40625 0.40625 0.57812 0.40625 0.78125 0 0.92188-1.0312 1.25-1.2188 1.25-0.0625 0-0.32812-0.078125-0.65625-0.29688-0.17188-0.14062-0.45312-0.39062-0.5-0.42188-0.71875-0.6875-1.1094-0.98438-1.7969-0.98438z"/>
</g>
</defs>
<g transform="translate(-149.26 -127.73)">
<use x="148.71201" y="134.765" xlink:href="#a"/>
</g>
</svg>
