<?xml version="1.0" encoding="UTF-8"?>
<svg fill="#000000" version="1.1" viewBox="0 0 6.375 8.846" xmlns="http://www.w3.org/2000/svg" xmlns:xlink="http://www.w3.org/1999/xlink">
<defs>
<g id="a">
<path d="m2.7969-3.4844v-1.9531c0-0.09375 0.015625-0.17188 0-0.26562 0-0.125-0.10938-0.125-0.21875-0.125-0.046875 0-0.10938 0-0.14062 0.046875s-0.03125 0.09375-0.03125 0.15625v5.4531 0.17188c-0.015625 0.046875-0.046875 0.09375-0.078125 0.15625-0.03125 0.078125-0.0625 0.14062-0.10938 0.21875-0.15625 0.35938-0.32812 0.6875-0.5 1.0156-0.046875 0.10938-0.10938 0.21875-0.15625 0.32812-0.03125 0.0625-0.046875 0.125 0 0.17188 0.03125 0.03125 0.078125 0.03125 0.125 0.03125 0.078125 0 0.17188 0.015625 0.23438-0.046875 0.03125-0.046875 0.046875-0.09375 0.078125-0.125 0.046875-0.09375 0.078125-0.17188 0.125-0.26562l0.20312-0.42188c0.046875-0.078125 0.09375-0.17188 0.125-0.25 0.09375 0 0.28125 0.046875 0.32812-0.0625 0.03125-0.046875 0.015625-0.125 0.015625-0.1875v-0.28125c0-0.0625 0-0.125 0.015625-0.17188 0.03125-0.125 0.125-0.26562 0.17188-0.375l0.39062-0.75c0.046875-0.125 0.10938-0.23438 0.15625-0.35938 0.03125-0.046875 0.0625-0.10938 0.10938-0.125 0.078125-0.03125 0.17188-0.015625 0.25-0.015625h3c0.078125 0 0.20312 0.015625 0.26562-0.03125 0.046875-0.046875 0.046875-0.14062 0.046875-0.20312 0-0.03125 0-0.0625-0.015625-0.09375s-0.03125-0.046875-0.0625-0.0625c-0.0625-0.015625-0.125 0-0.1875 0h-3.125c0.15625-0.28125 0.28125-0.59375 0.42188-0.875 0.046875-0.0625 0.078125-0.14062 0.10938-0.20312 0.015625-0.046875 0.03125-0.09375 0.078125-0.09375 0.046875-0.015625 0.14062-0.015625 0.1875-0.015625h2.3438c0.0625 0 0.15625 0.015625 0.20312-0.03125 0.046875-0.03125 0.046875-0.09375 0.046875-0.14062 0-0.0625 0-0.14062-0.03125-0.1875-0.03125-0.03125-0.09375-0.03125-0.14062-0.03125h-0.29688-2.1406c0.15625-0.35938 0.34375-0.70312 0.51562-1.0469 0.26562-0.53125 0.51562-1.0625 0.79688-1.5938l0.21875-0.4375c0.03125-0.078125 0.078125-0.15625 0.09375-0.23438 0.015625-0.14062-0.125-0.125-0.21875-0.125h-0.10938c-0.078125 0.03125-0.125 0.14062-0.15625 0.21875-0.10938 0.20312-0.1875 0.40625-0.29688 0.60938-0.3125 0.625-0.60938 1.2344-0.92188 1.8594-0.09375 0.17188-0.17188 0.34375-0.25 0.5-0.03125 0.078125-0.0625 0.17188-0.125 0.21875-0.03125 0.03125-0.078125 0.03125-0.10938 0.03125zm-1.8906-2.3281c-0.0625 0.015625-0.078125 0.078125-0.078125 0.14062v0.23438 6.0625c0 0.046875 0 0.09375 0.015625 0.125 0.046875 0.078125 0.14062 0.0625 0.20312 0.0625h0.09375c0.0625-0.015625 0.078125-0.0625 0.078125-0.10938 0.015625-0.078125 0-0.17188 0-0.25v-6.0938c0-0.046875 0-0.078125-0.015625-0.125-0.03125-0.0625-0.125-0.0625-0.20312-0.0625-0.015625 0-0.0625 0-0.09375 0.015625zm1.8906 3.9062v-1.1875h1.1562l-0.53125 1.0625-0.078125 0.09375-0.15625 0.03125zm0.015625 1.125h-0.015625v-0.73438h0.35938l-0.25 0.53125z"/>
</g>
</defs>
<g transform="translate(-149.54 -127.84)">
<use x="148.71201" y="134.765" xlink:href="#a"/>
</g>
</svg>
