<?xml version="1.0" encoding="UTF-8"?>
<svg fill="#000000" version="1.1" viewBox="0 0 4.7969 8.375" xmlns="http://www.w3.org/2000/svg" xmlns:xlink="http://www.w3.org/1999/xlink">
<defs>
<g id="a">
<path d="m3.0781-3.0625h-1.5156c0.10938-0.9375 0.73438-1.7656 1.6406-1.7656h0.34375zm-0.17188 0.64062-0.42188 1.5625c-0.51562-0.29688-0.84375-0.89062-0.92188-1.5625zm1.2031-4.5-0.39062 1.4531h-0.51562c-1.3438 0-2.3125 1.2969-2.3125 2.7344 0 1.0938 0.5625 2.0938 1.4219 2.5l-0.40625 1.5312 0.5625 0.15625 0.40625-1.5c0.10938 0.015625 0.21875 0.03125 0.32812 0.03125h2.4844v-0.64062h-2.4844c-0.046875 0-0.10938-0.015625-0.17188-0.015625l0.46875-1.75h2.1875v-0.64062h-2.0156l0.46875-1.7656h1.5469v-0.64062h-1.375l0.35938-1.3125z"/>
</g>
</defs>
<g transform="translate(-149.6 -127.84)">
<use x="148.71201" y="134.765" xlink:href="#a"/>
</g>
</svg>
