<?xml version="1.0" encoding="UTF-8"?>
<svg fill="#000000" version="1.1" viewBox="0 0 6.6406 3.5469" xmlns="http://www.w3.org/2000/svg" xmlns:xlink="http://www.w3.org/1999/xlink">
<defs>
<g id="a">
<path d="m7.1094-2.5938c-0.70312-0.29688-1.2812-0.875-1.5469-1.6094-0.015625-0.03125-0.0625-0.0625-0.10938-0.0625h-0.078125c-0.078125 0-0.10938 0.0625-0.10938 0.10938v0.046875c0.21875 0.57812 0.59375 1.0625 1.0781 1.4219h-5.5938c-0.125 0-0.20312 0.09375-0.20312 0.1875 0 0.10938 0.078125 0.20312 0.20312 0.20312h5.5938c-0.48438 0.35938-0.85938 0.84375-1.0781 1.4219v0.046875c0 0.046875 0.015625 0.078125 0.0625 0.09375 0.015625 0.015625 0.03125 0.015625 0.046875 0.015625h0.078125c0.046875 0 0.09375-0.03125 0.10938-0.0625 0.26562-0.73438 0.84375-1.3125 1.5469-1.6094 0.03125-0.015625 0.046875-0.03125 0.0625-0.0625l0.015625-0.046875s-0.015625-0.015625-0.015625-0.03125c-0.015625-0.03125-0.03125-0.046875-0.0625-0.0625z"/>
</g>
</defs>
<g transform="translate(-149.26 -130.5)">
<use x="148.71201" y="134.765" xlink:href="#a"/>
</g>
</svg>
