<?xml version="1.0" encoding="UTF-8"?>
<svg fill="#000000" version="1.1" viewBox="0 0 5.8594 3.25" xmlns="http://www.w3.org/2000/svg" xmlns:xlink="http://www.w3.org/1999/xlink">
<defs>
<g id="a">
<path d="m6.3438-0.89062v-0.67188h-2.2344c0.29688-0.20312 0.48438-0.54688 0.48438-0.95312 0-0.39062-0.20312-0.75-0.5-0.96875h2.25v-0.65625h-5.8594v0.65625h2.25c-0.3125 0.21875-0.51562 0.57812-0.51562 0.96875 0 0.40625 0.1875 0.75 0.48438 0.95312h-2.2188v0.67188zm-2.25-1.6094c0 0.375-0.3125 0.67188-0.6875 0.67188s-0.6875-0.3125-0.6875-0.6875c0-0.39062 0.3125-0.6875 0.70312-0.6875 0.35938 0 0.67188 0.3125 0.67188 0.70312z"/>
</g>
</defs>
<g transform="translate(-149.2 -130.62)">
<use x="148.71201" y="134.765" xlink:href="#a"/>
</g>
</svg>
