<?xml version="1.0" encoding="UTF-8"?>
<svg fill="#000000" version="1.1" viewBox="0 0 4.7969 5.5156" xmlns="http://www.w3.org/2000/svg" xmlns:xlink="http://www.w3.org/1999/xlink">
<defs>
<g id="a">
<path d="m3.7344-5.5-0.60938 2.25c-0.28125-0.17188-0.59375-0.28125-0.9375-0.28125-0.51562 0-0.90625 0.40625-1.2969 0.79688l0.39062 0.375c0.25-0.26562 0.54688-0.54688 0.92188-0.54688 0.26562 0 0.53125 0.14062 0.75 0.29688l-0.65625 2.4688 0.54688 0.15625 0.60938-2.25c0.28125 0.17188 0.59375 0.29688 0.9375 0.29688 0.53125 0 0.90625-0.42188 1.2969-0.79688l-0.39062-0.39062c-0.25 0.28125-0.54688 0.54688-0.92188 0.54688-0.26562 0-0.53125-0.14062-0.75-0.29688l0.65625-2.4688z"/>
</g>
</defs>
<g transform="translate(-149.6 -129.26)">
<use x="148.71201" y="134.765" xlink:href="#a"/>
</g>
</svg>
