<?xml version="1.0" encoding="UTF-8"?>
<svg fill="#000000" version="1.1" viewBox="0 0 6.0625 6.8125" xmlns="http://www.w3.org/2000/svg" xmlns:xlink="http://www.w3.org/1999/xlink">
<defs>
<g id="a">
<path d="m3.7031-3.25c0.09375-0.09375 0.09375-0.14062 0.09375-0.15625 0-0.046875-0.03125-0.10938-0.0625-0.14062l-2.0469-2.9531h2.2969c1.6875 0 2.1875 0.35938 2.3906 1.9375h0.25l-0.28125-2.25h-5.5312c-0.23438 0-0.25 0-0.25 0.23438l2.4844 3.6094-2.375 2.7031c-0.10938 0.10938-0.10938 0.125-0.10938 0.15625 0 0.10938 0.10938 0.10938 0.25 0.10938h5.5312l0.28125-2.3594h-0.25c-0.17188 1.6719-0.85938 1.9375-2.4219 1.9375h-2.75z"/>
</g>
</defs>
<g transform="translate(-149.27 -127.95)">
<use x="148.71201" y="134.765" xlink:href="#a"/>
</g>
</svg>
