<?xml version="1.0" encoding="UTF-8"?>
<svg fill="#000000" version="1.1" viewBox="0 0 4.6343 5.9936" xmlns="http://www.w3.org/2000/svg" xmlns:xlink="http://www.w3.org/1999/xlink">
<defs>
<g id="a">
<path d="m1.1719-4.9688c-0.14062 0.078125-0.1875 0.15625-0.15625 0.28125l2.0781 4.5156c0.0625 0.09375 0.078125 0.17188 0.21875 0.17188 0.15625 0 0.17188-0.078125 0.21875-0.17188l2.0938-4.5156c0.03125-0.125-0.015625-0.20312-0.15625-0.28125-0.14062-0.0625-0.26562 0-0.3125 0.10938l-1.8438 3.9844-1.8281-3.9844c-0.046875-0.10938-0.17188-0.17188-0.3125-0.10938zm0.078125 5.4688c-0.15625 0-0.25 0.09375-0.25 0.25s0.09375 0.25 0.25 0.25h4.1406c0.15625 0 0.23438-0.078125 0.23438-0.25 0-0.15625-0.09375-0.25-0.23438-0.25z"/>
</g>
</defs>
<g transform="translate(-149.71 -129.77)">
<use x="148.71201" y="134.765" xlink:href="#a"/>
</g>
</svg>
