<?xml version="1.0" encoding="UTF-8"?>
<svg fill="#000000" version="1.1" viewBox="0 0 6.0938 10.734" xmlns="http://www.w3.org/2000/svg" xmlns:xlink="http://www.w3.org/1999/xlink">
<defs>
<g id="a">
<path d="m5.7656-1.7344h0.79688c0.17188 0 0.35938 0 0.35938-0.20312s-0.1875-0.20312-0.35938-0.20312h-0.54688c0.14062-0.21875 0.28125-0.42188 0.42188-0.625 0.125-0.20312 0.125-0.21875 0.125-0.28125 0-0.10938-0.09375-0.1875-0.20312-0.1875s-0.125 0.03125-0.23438 0.1875l-0.57812 0.90625h-1.625c-1.6094 0-2.7031-1.1719-2.7031-2.4688 0-1.3594 1.1406-2.5 2.6875-2.5h2.6562c0.17188 0 0.35938 0 0.35938-0.20312 0-0.1875-0.1875-0.1875-0.35938-0.1875h-2.6875c-1.6719 0-3.0469 1.2656-3.0469 2.875 0 1.625 1.375 2.8906 3.0625 2.8906h1.3906l-0.98438 1.5312h-3.125c-0.17188 0-0.34375 0-0.34375 0.20312s0.17188 0.20312 0.34375 0.20312h2.8594l-0.98438 1.5312h-1.875c-0.17188 0-0.34375 0-0.34375 0.20312s0.17188 0.20312 0.34375 0.20312h1.625l-0.42188 0.625c-0.125 0.20312-0.125 0.21875-0.125 0.28125 0 0.10938 0.078125 0.1875 0.20312 0.1875 0.10938 0 0.14062-0.046875 0.23438-0.1875l0.57812-0.90625h3.2969c0.17188 0 0.35938 0 0.35938-0.20312s-0.1875-0.20312-0.35938-0.20312h-3.0312l0.98438-1.5312h2.0469c0.17188 0 0.35938 0 0.35938-0.20312s-0.1875-0.20312-0.35938-0.20312h-1.7812z"/>
</g>
</defs>
<g transform="translate(-149.54 -127.26)">
<use x="148.71201" y="134.765" xlink:href="#a"/>
</g>
</svg>
