<?xml version="1.0" encoding="UTF-8"?>
<svg fill="#000000" version="1.1" viewBox="0 0 8.4531 8.4219" xmlns="http://www.w3.org/2000/svg" xmlns:xlink="http://www.w3.org/1999/xlink">
<defs>
<g id="a">
<path d="m2.7031-2.9375c-0.125 0-0.25 0-0.32812 0.015625-0.70312 0.125-1.2969 0.5625-1.6094 1.1875-0.14062 0.29688-0.21875 0.60938-0.21875 0.9375 0 0.23438 0.046875 0.45312 0.125 0.6875 0.25 0.76562 0.89062 1.3125 1.7031 1.4375 0.078125 0.015625 0.20312 0.03125 0.32812 0.03125s0.25-0.015625 0.32812-0.03125c0.95312-0.17188 1.8281-0.95312 1.8281-2.1094 0-0.42188-0.14062-0.84375-0.375-1.2188-0.046875-0.0625-0.09375-0.125-0.09375-0.14062l-0.03125-0.015625s0.25-0.26562 0.5625-0.5625l0.54688-0.5625c0.35938 0.29688 0.78125 0.48438 1.375 0.48438h0.32812c0.96875-0.1875 1.8281-0.96875 1.8281-2.1406 0-0.48438-0.17188-0.98438-0.5-1.375s-0.79688-0.65625-1.3281-0.75h-0.39062-0.10938c-0.57812 0.046875-1.125 0.32812-1.4688 0.75-0.32812 0.40625-0.51562 0.89062-0.51562 1.3906 0 0.3125 0.09375 0.64062 0.23438 0.9375 0.0625 0.14062 0.21875 0.35938 0.26562 0.42188 0 0-0.25 0.26562-0.5625 0.5625l-0.54688 0.5625c-0.34375-0.29688-0.78125-0.5-1.375-0.5zm5.9062-1.9844c0 0.46875-0.20312 0.9375-0.5625 1.2656-0.34375 0.3125-0.76562 0.46875-1.2031 0.46875-0.5 0-0.98438-0.21875-1.3438-0.625-0.26562-0.32812-0.40625-0.71875-0.40625-1.1094 0-0.46875 0.1875-0.9375 0.5625-1.2812 0.32812-0.3125 0.75-0.46875 1.1875-0.46875 0.9375 0 1.7656 0.73438 1.7656 1.75zm-4.1562 4.1406c0 0.46875-0.20312 0.9375-0.5625 1.2656-0.32812 0.3125-0.76562 0.46875-1.1875 0.46875-0.5 0-1-0.21875-1.3438-0.64062-0.26562-0.3125-0.40625-0.71875-0.40625-1.0938 0-0.46875 0.1875-0.9375 0.54688-1.2812 0.32812-0.3125 0.76562-0.48438 1.2031-0.48438 0.9375 0 1.75 0.75 1.75 1.7656z"/>
</g>
</defs>
<g transform="translate(-149.26 -127.7)">
<use x="148.71201" y="134.765" xlink:href="#a"/>
</g>
</svg>
