<?xml version="1.0" encoding="UTF-8"?>
<svg fill="#000000" version="1.1" viewBox="0 0 5.5469 9.5625" xmlns="http://www.w3.org/2000/svg" xmlns:xlink="http://www.w3.org/1999/xlink">
<defs>
<g id="a">
<path d="m5.4531-7.2812h-0.53125l-0.53125 1.375c-0.28125-0.078125-0.57812-0.14062-0.89062-0.14062h-2.8594v0.65625h2.8594c0.23438 0 0.45312 0.046875 0.67188 0.125l-1.5312 4.0938h-2v0.65625h1.75l-0.32812 0.89062h-1.4219v0.65625h1.1875l-0.46875 1.25h0.53125l0.46875-1.25h3.7344v-0.65625h-3.4844l0.32812-0.89062h0.59375c1.5781 0 2.6562-1.2969 2.6562-2.7812 0-0.98438-0.5-1.9062-1.3281-2.3906zm-2.2656 6.1094 1.4219-3.8594c0.54688 0.40625 0.92188 1.0625 0.92188 1.7344 0 1.0781-0.90625 2.125-2.0469 2.125z"/>
</g>
</defs>
<g transform="translate(-149.35 -127.48)">
<use x="148.71201" y="134.765" xlink:href="#a"/>
</g>
</svg>
