<?xml version="1.0" encoding="UTF-8"?>
<svg fill="#000000" version="1.1" viewBox="0 0 8.8691 3.0538" xmlns="http://www.w3.org/2000/svg" xmlns:xlink="http://www.w3.org/1999/xlink">
<defs>
<g id="a">
<path d="m7.9375-2.7031h-6.9062-0.29688c-0.0625 0-0.10938 0-0.15625 0.046875-0.046875 0.0625-0.03125 0.17188 0.015625 0.21875 0.046875 0.0625 0.10938 0.078125 0.15625 0.10938 0.078125 0.03125 0.14062 0.078125 0.23438 0.10938 0.48438 0.28125 0.96875 0.625 1.3906 1 0.0625 0.046875 0.125 0.10938 0.17188 0.15625 0.03125 0.03125 0.078125 0.0625 0.10938 0.078125 0.046875 0.015625 0.09375 0 0.14062 0s0.10938 0 0.14062-0.015625c0.125-0.09375-0.03125-0.23438-0.078125-0.3125l-0.046875-0.046875c-0.25-0.32812-0.51562-0.64062-0.78125-0.9375h6.9062 0.29688c0.0625 0 0.10938 0 0.15625-0.0625 0.046875-0.046875 0.03125-0.15625-0.015625-0.21875-0.046875-0.046875-0.10938-0.0625-0.15625-0.09375-0.078125-0.046875-0.14062-0.078125-0.23438-0.125-0.48438-0.28125-0.96875-0.60938-1.3906-0.98438-0.0625-0.0625-0.10938-0.10938-0.17188-0.15625-0.03125-0.03125-0.078125-0.0625-0.10938-0.078125-0.046875-0.015625-0.09375-0.015625-0.14062-0.015625s-0.10938 0-0.14062 0.03125c-0.125 0.078125 0.03125 0.23438 0.078125 0.29688l0.046875 0.0625c0.25 0.32812 0.51562 0.64062 0.78125 0.9375z"/>
</g>
</defs>
<g transform="translate(-149.26 -130.73)">
<use x="148.71201" y="134.765" xlink:href="#a"/>
</g>
</svg>
