<?xml version="1.0" encoding="UTF-8"?>
<svg fill="#000000" version="1.1" viewBox="0 0 6.8281 6.0781" xmlns="http://www.w3.org/2000/svg" xmlns:xlink="http://www.w3.org/1999/xlink">
<defs>
<g id="a">
<path d="m5.0156-1.25c0 0.046875 0.015625 0.10938 0.046875 0.14062 0.54688 0.64062 0.98438 1.375 0.98438 2.2031 0 0.10938 0.078125 0.21875 0.1875 0.23438h0.03125c0.40625 0 0.0625-0.82812 1.9062-1.8906 0.0625-0.046875 0.10938-0.10938 0.10938-0.1875 0-0.14062-0.10938-0.23438-0.23438-0.23438-0.1875 0-0.8125 0.54688-1.2188 0.82812 0.015625-0.10938 0.015625-0.25 0.015625-0.35938 0-1.0625-0.40625-2.1094-1.1562-2.9219l1.3438-0.92188c0.0625-0.0625 0.078125-0.14062 0.03125-0.21875-0.046875-0.0625-0.14062-0.078125-0.21875-0.03125l-1.3594 0.95312c-1.0312-0.95312-2.1875-1.0938-2.8125-1.0938-0.35938 0-0.70312 0.03125-1.0625 0.125-0.10938 0.03125-0.15625 0.125-0.15625 0.23438 0 0.14062 0.10938 0.21875 0.21875 0.21875s0.40625-0.125 1-0.125c0.96875 0 1.7969 0.375 2.4219 0.92188l-1.7969 1.25c-0.0625 0.046875-0.09375 0.15625-0.03125 0.21875 0.046875 0.0625 0.14062 0.078125 0.20312 0.03125l1.8438-1.2969c0.70312 0.71875 1.0625 1.6719 1.0625 2.6562 0 0.15625 0 0.32812-0.03125 0.5-0.32812-0.45312-0.57812-0.96875-0.9375-1.3906-0.03125-0.046875-0.10938-0.078125-0.15625-0.078125-0.14062 0-0.23438 0.09375-0.23438 0.23438z"/>
</g>
</defs>
<g transform="translate(-150.17 -130.02)">
<use x="148.71201" y="134.765" xlink:href="#a"/>
</g>
</svg>
