<?xml version="1.0" encoding="UTF-8"?>
<svg fill="#000000" version="1.1" viewBox="0 0 6.4844 8.2812" xmlns="http://www.w3.org/2000/svg" xmlns:xlink="http://www.w3.org/1999/xlink">
<defs>
<g id="a">
<path d="m3.8281-1.6406c0.625 0.39062 1.25 0.9375 2.0312 0.9375 0.9375 0 1.625-0.73438 1.625-1.6719 0-0.078125-0.03125-0.28125-0.14062-0.28125-0.125 0-0.1875 0.5625-0.23438 0.67188-0.21875 0.45312-0.76562 0.70312-1.25 0.70312-0.76562 0-1.1562-0.46875-1.7812-0.79688l0.73438-1.2656c0.32812 0.1875 0.60938 0.3125 1.0156 0.3125 0.95312 0 1.6562-0.73438 1.6562-1.6719 0-0.078125-0.03125-0.28125-0.14062-0.28125-0.125 0-0.1875 0.5625-0.23438 0.67188-0.21875 0.45312-0.78125 0.70312-1.2812 0.70312-0.25 0-0.53125-0.0625-0.76562-0.1875 0.1875-0.3125 1.2812-2.1094 1.2812-2.2812 0-0.125-0.10938-0.23438-0.23438-0.23438-0.078125 0-0.17188 0.046875-0.20312 0.10938l-1.2656 2.1719c-0.57812-0.40625-1.2656-0.95312-2.0156-0.95312-0.375 0-0.75 0.125-1.0312 0.35938v-2.0469c0-0.1875-0.125-0.3125-0.29688-0.3125-0.1875 0-0.29688 0.14062-0.29688 0.3125v7.6719c0 0.17188 0.10938 0.29688 0.28125 0.29688 0.1875 0 0.3125-0.125 0.3125-0.29688v-2.6719c0.26562-0.26562 0.65625-0.40625 1.0156-0.40625 0.28125 0 0.54688 0.078125 0.79688 0.20312-0.17188 0.3125-1.2969 2.1406-1.2969 2.2969 0 0.14062 0.14062 0.23438 0.26562 0.23438 0.09375 0 0.15625-0.046875 0.20312-0.125zm-1.25-2.7656c0.64062 0 1.3438 0.42188 1.8125 0.8125l-0.71875 1.2656c-0.35938-0.1875-0.625-0.32812-1.0312-0.32812-0.375 0-0.75 0.125-1.0469 0.35938v-1.7031c0.25-0.26562 0.64062-0.40625 0.98438-0.40625z"/>
</g>
</defs>
<g transform="translate(-149.71 -127.78)">
<use x="148.71201" y="134.765" xlink:href="#a"/>
</g>
</svg>
