<?xml version="1.0" encoding="UTF-8"?>
<svg fill="#000000" width="6.4844" height="9.3438" version="1.1" viewBox="0 0 6.4844 9.3437" xmlns="http://www.w3.org/2000/svg" xmlns:xlink="http://www.w3.org/1999/xlink">
<defs>
<g id="a">
<path d="m0.40625 2.1406c0.40625-0.046875 0.46875-0.078125 0.75-0.4375 0.21875-0.25 0.92188-2.1406 1.3125-3.4531h0.03125c0.078125-0.35938 0.15625-0.71875 0.25-1.0938 0.73438-3.2969 0.92188-3.8125 1.6719-3.8125 0.51562 0.03125 0.875 0.46875 0.875 1.0938 0 0.51562-0.29688 0.85938-1.1875 1.2812-0.078125 0.14062-0.10938 0.26562-0.125 0.40625 1.1094 0.39062 1.6875 1.0469 1.6875 1.9375 0 0.92188-0.5625 1.6094-1.3125 1.6094-0.40625-0.015625-0.625-0.078125-1.5312-0.51562-0.125 0.125-0.21875 0.28125-0.29688 0.4375 0.84375 0.3125 1.3906 0.4375 1.9844 0.4375 1.25 0 2.1562-0.875 2.1562-2.0312 0-0.92188-0.59375-1.5781-1.7969-2 0.625-0.17188 1.2969-0.95312 1.2969-1.625 0-0.84375-0.92188-1.5781-1.9688-1.5781-1.3594 0.10938-1.4219 0.34375-2.4375 4.6875-0.54688 2.25-1.0781 3.8594-1.3125 3.9375-0.125 0.046875-0.26562 0.42188-0.26562 0.625 0.015625 0.0625 0.09375 0.09375 0.21875 0.09375z"/>
</g>
</defs>
<g transform="translate(-148.9 -127.56)">
<use x="148.71201" y="134.765" xlink:href="#a"/>
</g>
</svg>
