<?xml version="1.0" encoding="UTF-8"?>
<svg fill="#000000" version="1.1" viewBox="0 0 6.0938 9.2969" xmlns="http://www.w3.org/2000/svg" xmlns:xlink="http://www.w3.org/1999/xlink">
<defs>
<g id="b">
<path d="m6.2812-6.75c0.078125-0.14062 0.078125-0.15625 0.078125-0.1875 0-0.078125-0.0625-0.20312-0.20312-0.20312-0.10938 0-0.14062 0.0625-0.21875 0.20312l-4.4688 8.7031c-0.078125 0.14062-0.078125 0.15625-0.078125 0.1875 0 0.078125 0.0625 0.20312 0.1875 0.20312s0.15625-0.0625 0.21875-0.20312z"/>
</g>
<g id="a">
<path d="m6.5625-5.9375c0.17188 0 0.35938 0 0.35938-0.20312s-0.1875-0.20312-0.35938-0.20312h-2.6719c-1.7188 0-3.0625 1.3125-3.0625 2.8906 0 1.5938 1.375 2.8906 3.0625 2.8906h2.6719c0.17188 0 0.35938 0 0.35938-0.20312s-0.1875-0.20312-0.35938-0.20312h-2.6562c-1.5781 0-2.6875-1.1719-2.6875-2.4844 0-1.3594 1.1406-2.4844 2.6875-2.4844zm-5.1875 6.9062c-0.17188 0-0.34375 0-0.34375 0.20312 0 0.1875 0.17188 0.1875 0.34375 0.1875h5.1875c0.17188 0 0.35938 0 0.35938-0.1875 0-0.20312-0.1875-0.20312-0.35938-0.20312z"/>
</g>
</defs>
<g transform="translate(-149.54 -127.62)">
<use x="148.71201" y="134.765" xlink:href="#b"/>
<use x="148.71201" y="134.765" xlink:href="#a"/>
</g>
</svg>
