<?xml version="1.0" encoding="UTF-8"?>
<svg fill="#000000" version="1.1" viewBox="0 0 5.5469 9.5625" xmlns="http://www.w3.org/2000/svg" xmlns:xlink="http://www.w3.org/1999/xlink">
<defs>
<g id="a">
<path d="m6.1875 1.0312v-0.65625h-3.5312l0.34375-0.89062h0.29688 2.8906v-0.65625h-2.9531l1.5781-4.2188h1.375v-0.65625h-1.1406l0.46875-1.2344h-0.54688l-0.45312 1.2344h-1.1875c-1.5938 0-2.6875 1.2812-2.6875 2.75 0 1.2188 0.71875 2.3125 1.8594 2.6719l-0.375 1h-1.3906v0.65625h1.1562l-0.46875 1.25h0.53125l0.46875-1.25zm-1.9062-6.4219-1.5469 4.125c-0.84375-0.29688-1.4375-1.1406-1.4375-2.0312 0-1.0625 0.89062-2.0938 2.0312-2.0938z"/>
</g>
</defs>
<g transform="translate(-149.35 -127.48)">
<use x="148.71201" y="134.765" xlink:href="#a"/>
</g>
</svg>
