<?xml version="1.0" encoding="UTF-8"?>
<svg fill="#000000" version="1.1" viewBox="0 0 7.7407 6.5945" xmlns="http://www.w3.org/2000/svg" xmlns:xlink="http://www.w3.org/1999/xlink">
<defs>
<g id="a">
<path d="m2.4531-2.5v-0.015625c0.125-0.015625 0.26562-0.0625 0.375-0.09375 0.25-0.0625 0.48438-0.14062 0.70312-0.23438 0.96875-0.39062 1.875-0.96875 2.5938-1.75 0.21875-0.26562 0.45312-0.53125 0.64062-0.82812 0.0625-0.078125 0.20312-0.23438 0.125-0.32812-0.0625-0.078125-0.21875-0.046875-0.29688-0.046875-0.03125 0-0.0625 0-0.09375 0.03125-0.046875 0.03125-0.0625 0.0625-0.09375 0.10938l-0.09375 0.14062c-0.125 0.1875-0.26562 0.35938-0.40625 0.51562-0.96875 1.125-2.3281 1.875-3.7656 2.1562-0.29688 0.046875-0.59375 0.09375-0.89062 0.125-0.10938 0-0.21875 0-0.32812 0.015625-0.125 0.015625-0.35938-0.046875-0.35938 0.125 0 0.078125-0.03125 0.20312 0.046875 0.25 0.03125 0.03125 0.09375 0.03125 0.125 0.03125h0.21875c0.09375 0.015625 0.1875 0 0.28125 0.015625 0.21875 0.015625 0.40625 0.03125 0.625 0.0625 1.0312 0.17188 2.0312 0.5625 2.8906 1.1562 0.32812 0.23438 0.64062 0.5 0.90625 0.78125 0.21875 0.21875 0.40625 0.45312 0.57812 0.6875 0.0625 0.078125 0.10938 0.15625 0.17188 0.23438 0.03125 0.03125 0.046875 0.09375 0.09375 0.125 0.0625 0.046875 0.17188 0.015625 0.23438 0.015625h0.10938c0.15625-0.046875 0.015625-0.23438-0.03125-0.3125l-0.046875-0.0625c-0.21875-0.32812-0.46875-0.64062-0.75-0.92188-0.71875-0.71875-1.5625-1.2812-2.5-1.6406-0.21875-0.09375-0.45312-0.17188-0.6875-0.25-0.10938-0.03125-0.25-0.0625-0.375-0.09375zm2.7188 0v-0.015625c0.10938-0.046875 0.1875-0.10938 0.28125-0.17188 0.1875-0.125 0.375-0.26562 0.54688-0.39062 0.65625-0.51562 1.2344-1.0938 1.7188-1.7344 0.17188-0.21875 0.34375-0.45312 0.48438-0.6875 0.046875-0.0625 0.15625-0.1875 0.046875-0.26562-0.046875-0.03125-0.125-0.03125-0.1875-0.03125-0.046875 0-0.125 0-0.17188 0.03125-0.0625 0.03125-0.10938 0.125-0.14062 0.1875-0.10938 0.14062-0.20312 0.28125-0.29688 0.42188-0.53125 0.71875-1.1562 1.3438-1.875 1.875-0.23438 0.1875-0.48438 0.34375-0.75 0.51562-0.0625 0.03125-0.14062 0.078125-0.20312 0.10938-0.046875 0.03125-0.09375 0.046875-0.125 0.10938-0.046875 0.10938 0.09375 0.17188 0.17188 0.21875 0.25 0.14062 0.48438 0.29688 0.71875 0.46875 0.8125 0.57812 1.5312 1.2812 2.125 2.0938 0.078125 0.125 0.17188 0.25 0.25 0.375 0.046875 0.046875 0.0625 0.125 0.125 0.15625 0.046875 0.03125 0.14062 0.015625 0.1875 0.015625 0.0625 0 0.125 0.015625 0.17188-0.015625 0.10938-0.078125 0-0.20312-0.046875-0.28125-0.14062-0.21875-0.3125-0.45312-0.48438-0.67188-0.48438-0.65625-1.0625-1.2344-1.7188-1.7344-0.17188-0.125-0.35938-0.26562-0.54688-0.39062-0.09375-0.0625-0.17188-0.125-0.28125-0.1875z"/>
</g>
</defs>
<g transform="translate(-149.27 -128.96)">
<use x="148.71201" y="134.765" xlink:href="#a"/>
</g>
</svg>
