<?xml version="1.0" encoding="UTF-8"?>
<svg fill="#000000" version="1.1" viewBox="0 0 6.6094 7.2344" xmlns="http://www.w3.org/2000/svg" xmlns:xlink="http://www.w3.org/1999/xlink">
<defs>
<g id="a">
<path d="m1.7344-2.625c-0.09375-0.14062-0.09375-0.14062-0.15625-0.14062-0.23438 0-0.73438 0.3125-0.73438 0.48438 0 0.015625 0 0.03125 0.078125 0.17188l1.2656 2.0781c0.046875 0.09375 0.14062 0.25 0.15625 0.26562 0.015625 0.03125 0.0625 0.03125 0.125 0.03125 0.20312 0 0.67188-0.26562 0.71875-0.46875 0.32812-1.5 0.90625-2.9219 1.8125-4.1562 0.5-0.70312 1.1875-1.5 2.1719-2.2344 0.17188-0.125 0.28125-0.21875 0.28125-0.29688s-0.046875-0.078125-0.10938-0.078125c-0.46875 0-1.8906 1.3438-2.4531 2.0156-1.0156 1.1875-1.6875 2.3281-2.2188 3.8594z"/>
</g>
</defs>
<g transform="translate(-149.56 -127.8)">
<use x="148.71201" y="134.765" xlink:href="#a"/>
</g>
</svg>
