<?xml version="1.0" encoding="UTF-8"?>
<svg fill="#000000" version="1.1" viewBox="0 0 6 6" xmlns="http://www.w3.org/2000/svg" xmlns:xlink="http://www.w3.org/1999/xlink">
<defs>
<g id="a">
<path d="m6.1719-2.5625c0-1.6562-1.3438-3-3-3s-3 1.3438-3 3 1.3438 3 3 3 3-1.3438 3-3zm-1.5625-2.1094-3.9688 1.8281c0.14062-1.2812 1.2344-2.2656 2.5312-2.2656 0.5 0 1.0156 0.15625 1.4375 0.4375zm1.1094 2.1094c0 0.65625-0.25 1.2812-0.70312 1.75l-3.8281-1.7344 3.8438-1.7656c0.4375 0.46875 0.6875 1.1094 0.6875 1.75zm-1.1406 2.125c-0.40625 0.28125-0.90625 0.42188-1.4062 0.42188-1.2812 0-2.3906-0.96875-2.5312-2.2344z"/>
</g>
</defs>
<g transform="translate(-148.88 -129.2)">
<use x="148.71201" y="134.765" xlink:href="#a"/>
</g>
</svg>
