<?xml version="1.0" encoding="UTF-8"?>
<svg fill="#000000" version="1.1" viewBox="0 0 8.6406 7.2031" xmlns="http://www.w3.org/2000/svg" xmlns:xlink="http://www.w3.org/1999/xlink">
<defs>
<g id="a">
<path d="m9.0469-2.2969c0.1875 0 0.35938 0 0.35938-0.20312 0-0.1875-0.1875-0.1875-0.35938-0.1875h-7.3594c0.84375-0.57812 1.3281-1.1875 1.5469-1.4219 0.078125-0.10938 0.078125-0.125 0.28125-0.125h5.5312c0.17188 0 0.35938 0 0.35938-0.1875 0-0.20312-0.1875-0.20312-0.35938-0.20312h-5.4531c0.35938-0.59375 0.60938-1.1094 0.71875-1.4688h-0.46875c-0.53125 1.5156-1.5781 2.7812-3.0781 3.5938 1.4219 0.79688 2.5156 2.0156 3.0781 3.6094h0.46875c-0.14062-0.40625-0.375-0.92188-0.71875-1.4688h5.4531c0.17188 0 0.35938 0 0.35938-0.20312 0-0.1875-0.1875-0.1875-0.35938-0.1875h-5.5312c-0.20312 0-0.20312-0.015625-0.28125-0.10938-0.23438-0.28125-0.70312-0.85938-1.5469-1.4375z"/>
</g>
</defs>
<g transform="translate(-149.48 -128.67)">
<use x="148.71201" y="134.765" xlink:href="#a"/>
</g>
</svg>
