<?xml version="1.0" encoding="UTF-8"?>
<svg fill="#000000" version="1.1" viewBox="0 0 6.1719 6.4375" xmlns="http://www.w3.org/2000/svg" xmlns:xlink="http://www.w3.org/1999/xlink">
<defs>
<g id="a">
<path d="m6.4688 0.60938c-0.28125-0.67188-0.375-1.25-0.375-1.8906 0-0.28125 0.03125-0.53125 0.046875-0.84375l-0.28125-0.015625c-0.09375 0.39062-0.09375 0.60938-0.09375 0.98438 0 0.17188-0.03125 0.3125-0.21875 0.3125-0.046875 0-0.125 0-0.21875-0.078125l-0.92188-0.9375c0.5625-0.71875 0.9375-1.5781 1.0625-2.5312h1v-0.65625h-0.96875c0-0.23438 0-0.48438-0.046875-0.71875l-0.64062 0.10938c0.015625 0.1875 0.03125 0.40625 0.03125 0.60938h-4.5469l3.2188 3.2188c-0.15625 0.15625-0.3125 0.29688-0.48438 0.42188l0.39062 0.53125c0.20312-0.15625 0.39062-0.3125 0.5625-0.48438l0.89062 0.90625c0.0625 0.078125 0.09375 0.14062 0.09375 0.1875 0 0.17188-0.1875 0.25-0.35938 0.25-0.42188 0-0.57812 0.03125-0.96875 0.09375l0.015625 0.26562c0.28125-0.015625 0.54688-0.03125 0.79688-0.03125 0.65625 0 1.2656 0.09375 1.9531 0.35938zm-1.6719-5c-0.10938 0.76562-0.40625 1.4688-0.85938 2.0625l-2.0625-2.0625z"/>
</g>
</defs>
<g transform="translate(-149.01 -129)">
<use x="148.71201" y="134.765" xlink:href="#a"/>
</g>
</svg>
