<?xml version="1.0" encoding="UTF-8"?>
<svg fill="#000000" version="1.1" viewBox="0 0 4.2656 9" xmlns="http://www.w3.org/2000/svg" xmlns:xlink="http://www.w3.org/1999/xlink">
<defs>
<g id="a">
<path d="m3.2344-5.7656c0.17188 0.17188 0.40625 0.17188 0.60938 0.17188 0.25 0 0.875 0 0.875-0.3125 0-0.25-0.39062-0.26562-0.79688-0.26562-0.10938 0-0.375 0-0.625 0.09375-0.0625-0.10938-0.078125-0.15625-0.078125-0.375 0-0.14062 0.046875-0.34375 0.046875-0.35938 0-0.078125-0.046875-0.14062-0.10938-0.14062-0.1875 0-0.1875 0.46875-0.1875 0.5 0 0.15625 0.03125 0.34375 0.10938 0.48438-1.0469 0.53125-2.625 2.375-2.625 4.2969 0 1.4062 0.90625 1.7188 1.625 1.9531 0.29688 0.10938 0.32812 0.10938 0.60938 0.20312 0.21875 0.078125 0.625 0.21875 0.625 0.6875 0 0.26562-0.1875 0.65625-0.5625 0.65625-0.25 0-0.53125-0.125-0.73438-0.29688-0.078125-0.0625-0.078125-0.078125-0.125-0.078125s-0.09375 0.046875-0.09375 0.10938c0 0.10938 0.42188 0.48438 0.95312 0.48438 0.625 0 1.0938-0.64062 1.0938-1.2031 0-0.39062-0.1875-0.59375-0.28125-0.67188-0.15625-0.1875-0.35938-0.25-0.9375-0.45312-0.79688-0.26562-0.95312-0.3125-1.2031-0.53125-0.42188-0.375-0.42188-0.9375-0.42188-1.125 0-1.5469 1.2188-3.2969 2.2344-3.8281zm0.21875-0.10938c0.15625-0.078125 0.32812-0.078125 0.46875-0.078125 0.32812 0 0.35938 0.015625 0.54688 0.0625-0.078125 0.03125-0.1875 0.078125-0.625 0.078125-0.20312 0-0.28125 0-0.39062-0.0625z"/>
</g>
</defs>
<g transform="translate(-149.17 -127.81)">
<use x="148.71201" y="134.765" xlink:href="#a"/>
</g>
</svg>
