<?xml version="1.0" encoding="UTF-8"?>
<svg fill="#000000" version="1.1" viewBox="0 0 3.8884 7.0271" xmlns="http://www.w3.org/2000/svg" xmlns:xlink="http://www.w3.org/1999/xlink">
<defs>
<g id="a">
<path d="m0.92188-6.1719c0.10938-0.20312 0.29688-0.34375 0.5-0.4375 0.32812-0.17188 0.71875-0.23438 1.0781-0.20312 0.21875 0.03125 0.4375 0.078125 0.60938 0.20312 0.26562 0.17188 0.39062 0.45312 0.4375 0.75 0.10938 0.60938 0.046875 1.2969-0.40625 1.7656-0.078125 0.078125-0.15625 0.15625-0.25 0.21875-0.17188 0.125-0.39062 0.21875-0.60938 0.26562-0.078125 0.015625-0.23438 0.015625-0.28125 0.09375-0.03125 0.0625 0 0.15625 0 0.21875v2.0781c0 0.1875 0 0.375-0.015625 0.57812 0 0.078125-0.015625 0.15625-0.078125 0.21875s-0.14062 0.078125-0.21875 0.078125c-0.15625 0.03125-0.3125 0.03125-0.46875 0.03125v0.29688l0.89062-0.03125 0.92188 0.015625 0.42188 0.015625v-0.29688c-0.15625 0-0.32812 0-0.48438-0.03125-0.078125 0-0.15625-0.03125-0.20312-0.078125-0.078125-0.09375-0.078125-0.20312-0.078125-0.29688v-2.4688-0.23438c0.03125-0.03125 0.046875-0.046875 0.09375-0.0625 0.0625-0.015625 0.125-0.03125 0.17188-0.046875 0.25-0.09375 0.5-0.20312 0.71875-0.34375 0.28125-0.1875 0.5-0.4375 0.64062-0.75 0.23438-0.53125 0.10938-1.25-0.23438-1.7188-0.35938-0.46875-0.92188-0.64062-1.5-0.6875-0.32812-0.03125-0.6875 0-1 0.10938-0.375 0.125-0.73438 0.35938-0.92188 0.71875-0.09375 0.17188-0.14062 0.4375-0.09375 0.625 0.09375 0.29688 0.46875 0.40625 0.71875 0.23438 0.21875-0.15625 0.25-0.51562 0.046875-0.70312-0.10938-0.10938-0.25-0.14062-0.40625-0.125z"/>
</g>
</defs>
<g transform="translate(-149.26 -127.72)">
<use x="148.71201" y="134.765" xlink:href="#a"/>
</g>
</svg>
