<?xml version="1.0" encoding="UTF-8"?>
<svg fill="#000000" version="1.1" viewBox="0 0 6.6562 8.875" xmlns="http://www.w3.org/2000/svg" xmlns:xlink="http://www.w3.org/1999/xlink">
<defs>
<g id="a">
<path d="m0.59375-2.9375c-0.015625 0.03125-0.046875 0.078125-0.046875 0.125 0 0.09375 0.0625 0.14062 0.17188 0.25 1.4375 1.3125 2.4062 2.9062 2.9688 4.0469 0.015625 0.046875 0.078125 0.14062 0.1875 0.14062 0.125 0 0.15625-0.0625 0.23438-0.21875 0.57812-1.1875 1.5938-2.7656 2.9531-4 0.10938-0.09375 0.14062-0.125 0.14062-0.21875s-0.03125-0.125-0.17188-0.25c-0.90625-0.8125-2.0781-2.2344-2.9688-4.0469-0.015625-0.046875-0.0625-0.14062-0.1875-0.14062-0.10938 0-0.14062 0.0625-0.21875 0.21875-0.53125 1.0469-1.4531 2.5781-2.8125 3.8594zm3.2812 3.9219c-0.4375-0.82812-1.0781-1.9531-2.1562-3.1094-0.21875-0.23438-0.45312-0.48438-0.67188-0.6875 0.23438-0.20312 0.48438-0.46875 0.70312-0.71875 1.125-1.2344 1.8125-2.5 2.125-3.0625 0.4375 0.8125 1.0938 1.9375 2.1719 3.0938 0.20312 0.23438 0.4375 0.48438 0.65625 0.6875-0.21875 0.20312-0.46875 0.46875-0.6875 0.71875-1.1406 1.2344-1.8281 2.5-2.1406 3.0781z"/>
</g>
</defs>
<g transform="translate(-149.26 -127.52)">
<use x="148.71201" y="134.765" xlink:href="#a"/>
</g>
</svg>
