<?xml version="1.0" encoding="UTF-8"?>
<svg fill="#000000" version="1.1" viewBox="0 0 6.087 4.5822" xmlns="http://www.w3.org/2000/svg" xmlns:xlink="http://www.w3.org/1999/xlink">
<defs>
<g id="a">
<path d="m2.9531-3.2031c-0.21875 0.10938-0.4375 0.26562-0.65625 0.40625-0.4375 0.28125-0.875 0.57812-1.3125 0.85938-0.17188 0.10938-0.34375 0.21875-0.5 0.3125-0.0625 0.046875-0.17188 0.09375-0.1875 0.17188-0.03125 0.0625-0.015625 0.14062 0 0.21875 0 0.17188 0.046875 0.32812 0.10938 0.48438 0.046875 0.15625 0.15625 0.32812 0.28125 0.45312 0.21875 0.23438 0.51562 0.35938 0.8125 0.42188 0.45312 0.078125 0.90625 0.03125 1.3281-0.1875 0.8125-0.45312 1.2031-1.4531 1.0938-2.3438-0.03125-0.21875-0.078125-0.42188-0.15625-0.60938-0.015625-0.0625-0.046875-0.125-0.078125-0.1875-0.015625-0.03125-0.03125-0.0625-0.015625-0.09375 0-0.015625 0.046875-0.046875 0.078125-0.0625 0.0625-0.046875 0.125-0.078125 0.20312-0.125 0.25-0.17188 0.51562-0.35938 0.79688-0.51562v0.71875c0 0.15625-0.015625 0.3125 0.03125 0.45312 0.0625 0.25 0.26562 0.45312 0.53125 0.53125 0.09375 0.03125 0.20312 0.03125 0.3125 0.03125 0.3125 0 0.57812-0.20312 0.6875-0.48438 0.03125-0.09375 0.09375-0.23438 0.015625-0.32812-0.046875-0.0625-0.15625-0.046875-0.20312 0.015625-0.03125 0.046875-0.03125 0.125-0.03125 0.17188-0.015625 0.078125-0.046875 0.15625-0.10938 0.20312-0.17188 0.21875-0.5 0.28125-0.70312 0.0625-0.046875-0.046875-0.09375-0.09375-0.10938-0.15625-0.0625-0.15625-0.046875-0.3125-0.046875-0.45312v-0.75-0.28125c0-0.046875-0.015625-0.10938-0.0625-0.125-0.03125-0.03125-0.078125-0.03125-0.125-0.03125-0.03125 0-0.078125 0-0.10938 0.015625-0.09375 0.03125-0.1875 0.09375-0.26562 0.15625-0.25 0.15625-0.48438 0.3125-0.73438 0.46875-0.0625 0.046875-0.15625 0.10938-0.21875 0.15625-0.03125 0.015625-0.078125 0.046875-0.10938 0.046875-0.03125 0.015625-0.046875-0.015625-0.078125-0.046875-0.03125-0.046875-0.078125-0.09375-0.10938-0.14062-0.17188-0.15625-0.34375-0.29688-0.54688-0.40625-0.57812-0.32812-1.3125-0.32812-1.8438 0.0625-0.10938 0.078125-0.20312 0.15625-0.28125 0.26562-0.14062 0.17188-0.23438 0.35938-0.3125 0.54688-0.03125 0.078125-0.0625 0.17188-0.03125 0.23438 0.046875 0.078125 0.15625 0.078125 0.21875 0.015625 0.015625-0.046875 0.015625-0.09375 0.046875-0.14062 0.015625-0.0625 0.03125-0.125 0.078125-0.20312 0.125-0.26562 0.32812-0.48438 0.57812-0.625 0.32812-0.17188 0.71875-0.20312 1.0469-0.046875 0.10938 0.078125 0.23438 0.15625 0.34375 0.25 0.15625 0.1875 0.26562 0.39062 0.34375 0.60938zm-2.375 1.875 0.29688-0.17188 0.48438-0.3125 1.6875-1.0938c0.046875 0.39062 0.0625 0.75 0.046875 1.125-0.015625 0.46875-0.10938 0.95312-0.40625 1.3281-0.14062 0.15625-0.3125 0.29688-0.53125 0.35938-0.10938 0.046875-0.25 0.03125-0.35938 0.03125-0.32812-0.03125-0.65625-0.14062-0.89062-0.39062-0.15625-0.17188-0.25-0.39062-0.28125-0.60938-0.03125-0.09375-0.03125-0.17188-0.046875-0.26562z"/>
</g>
</defs>
<g transform="translate(-148.99 -130.34)">
<use x="148.71201" y="134.765" xlink:href="#a"/>
</g>
</svg>
