<?xml version="1.0" encoding="UTF-8"?>
<svg fill="#000000" version="1.1" viewBox="0 0 7.8438 11.406" xmlns="http://www.w3.org/2000/svg" xmlns:xlink="http://www.w3.org/1999/xlink">
<defs>
<g id="a">
<path d="m4.8906-3.0312 0.78125-3.1094c0.26562-1.0469 0.51562-1.7656 1-1.7656 0.078125 0 0.10938 0.03125 0.10938 0.078125 0 0.09375-0.17188 0.15625-0.17188 0.40625 0 0.17188 0.15625 0.25 0.3125 0.25 0.28125 0 0.51562-0.26562 0.51562-0.59375 0-0.23438-0.15625-0.45312-0.54688-0.45312-1.2031 0-1.7812 1.375-1.9688 2.1719l-0.75 3.0156h-2.0156c-0.1875 0-0.21875-0.10938-0.21875-0.20312 0-0.078125 0.046875-0.1875 0.14062-0.28125 0.29688-0.29688 0.57812-0.625 0.8125-0.95312l-0.20312-0.1875c-0.65625 0.76562-1.4062 1.5-2.375 1.9219v0.09375c0.96875 0.39062 1.7188 1.1406 2.375 1.8906l0.1875-0.20312c-0.21875-0.32812-0.51562-0.67188-0.8125-0.95312-0.09375-0.09375-0.14062-0.15625-0.14062-0.25s0.10938-0.21875 0.23438-0.21875h1.8438l-0.90625 3.6094c-0.25 1.0156-0.48438 1.6406-0.95312 1.6406-0.0625 0-0.10938-0.03125-0.10938-0.078125 0-0.10938 0.1875-0.09375 0.1875-0.39062 0-0.15625-0.17188-0.25-0.3125-0.25-0.28125 0-0.51562 0.25-0.51562 0.57812 0 0.25 0.14062 0.45312 0.54688 0.45312 1.1094 0 1.7188-1.2031 1.9062-2.0156l0.875-3.5469h2.1094c0.34375 0 0.67188 0.10938 0.67188 0.5625 0 0.42188-0.29688 0.59375-0.54688 0.59375h-0.6875v0.65625h0.71875c0.5625 0 1.1719-0.45312 1.1719-1.2344 0-0.82812-0.73438-1.2344-1.2969-1.2344z"/>
</g>
</defs>
<g transform="translate(-149.02 -126.51)">
<use x="148.71201" y="134.72501" xlink:href="#a"/>
</g>
</svg>
