<?xml version="1.0" encoding="UTF-8"?>
<svg fill="#000000" version="1.1" viewBox="0 0 5.5469 6.1875" xmlns="http://www.w3.org/2000/svg" xmlns:xlink="http://www.w3.org/1999/xlink">
<defs>
<g id="a">
<path d="m3.5156-2.8438h1.4219c0.14062 0 0.35938 0 0.35938-0.20312 0-0.1875-0.21875-0.1875-0.35938-0.1875h-1.4219v-1.4375c0-0.15625 0-0.34375-0.20312-0.34375-0.1875 0-0.1875 0.1875-0.1875 0.34375v1.4375h-1.4219c-0.14062 0-0.35938 0-0.35938 0.1875 0 0.20312 0.21875 0.20312 0.35938 0.20312h1.4219v1.4219c0 0.15625 0 0.34375 0.1875 0.34375 0.20312 0 0.20312-0.20312 0.20312-0.34375zm2.5781-2.7656c0-0.17188 0-0.35938-0.20312-0.35938s-0.20312 0.1875-0.20312 0.35938v3.6094c0 1.5-1.625 1.8281-2.375 1.8281-0.4375 0-1.0625-0.09375-1.5938-0.4375-0.76562-0.48438-0.76562-1.125-0.76562-1.3906v-3.6094c0-0.17188 0-0.35938-0.20312-0.35938s-0.20312 0.1875-0.20312 0.35938v3.6562c0 1.5156 1.5312 2.1719 2.7656 2.1719 1.2969 0 2.7812-0.70312 2.7812-2.1562z"/>
</g>
</defs>
<g transform="translate(-149.26 -128.8)">
<use x="148.71201" y="134.765" xlink:href="#a"/>
</g>
</svg>
