<?xml version="1.0" encoding="UTF-8"?>
<svg fill="#000000" version="1.1" viewBox="0 0 6.2812 6.2812" xmlns="http://www.w3.org/2000/svg" xmlns:xlink="http://www.w3.org/1999/xlink">
<defs>
<g id="a">
<path d="m7.6719-0.015625c0-0.0625-0.015625-0.125-0.0625-0.15625l-2.0469-2.0625 0.90625-1.9688c0.046875-0.078125 0.015625-0.15625-0.0625-0.1875-0.078125-0.046875-0.17188 0-0.20312 0.0625l-0.875 1.8594-2.5938-2.5938c0.4375-0.35938 0.98438-0.5625 1.5469-0.5625 0.3125 0 0.46875 0.046875 0.53125 0.046875 0.10938 0 0.21875-0.078125 0.21875-0.21875 0-0.17188-0.125-0.28125-0.75-0.28125-1.6562 0-2.8906 1.3594-2.8906 2.8906 0 0.625 0.10938 0.75 0.28125 0.75 0.14062 0 0.23438-0.10938 0.23438-0.21875 0-0.0625-0.0625-0.21875-0.0625-0.53125 0-0.57812 0.20312-1.125 0.5625-1.5625l2.7188 2.7344-0.92188 1.9688c-0.03125 0.09375 0.03125 0.20312 0.14062 0.20312 0.0625 0 0.10938-0.03125 0.14062-0.09375l0.875-1.8594 1.9219 1.9375c0.046875 0.046875 0.10938 0.0625 0.17188 0.0625 0.046875 0 0.21875-0.046875 0.21875-0.21875z"/>
</g>
</defs>
<g transform="translate(-150.1 -128.69)">
<use x="148.71201" y="134.765" xlink:href="#a"/>
</g>
</svg>
