<?xml version="1.0" encoding="UTF-8"?>
<svg fill="#000000" version="1.1" viewBox="0 0 6.3721 8.8455" xmlns="http://www.w3.org/2000/svg" xmlns:xlink="http://www.w3.org/1999/xlink">
<defs>
<g id="a">
<path d="m3.2969-5.8281h-2.5625c-0.0625 0-0.14062 0-0.17188 0.09375-0.015625 0.078125-0.03125 0.23438 0.046875 0.28125 0.046875 0.03125 0.125 0.015625 0.17188 0.015625h2.5156v1.1719h-1.875-0.4375c-0.0625 0-0.125 0.015625-0.14062 0.09375-0.015625 0.03125-0.015625 0.0625-0.015625 0.09375 0 0.0625-0.015625 0.125 0.046875 0.17188 0.03125 0.046875 0.09375 0.03125 0.14062 0.03125h2.2812v2.7344h-1.875-0.4375c-0.0625 0-0.125 0.015625-0.14062 0.09375-0.015625 0.03125-0.015625 0.0625-0.015625 0.09375 0 0.0625-0.015625 0.14062 0.046875 0.17188 0.03125 0.046875 0.09375 0.046875 0.14062 0.046875h2.2812v1.1562h-2.5625c-0.0625 0-0.14062 0.015625-0.17188 0.09375-0.015625 0.078125-0.03125 0.23438 0.046875 0.29688 0.046875 0.03125 0.125 0.015625 0.17188 0.015625h2.5156v0.67188c0 0.10938-0.015625 0.23438 0.015625 0.32812 0.03125 0.10938 0.14062 0.09375 0.21875 0.09375 0.03125 0 0.09375 0 0.125-0.03125 0.078125-0.0625 0.046875-0.20312 0.046875-0.28125v-0.78125h2.9531c0.0625 0 0.17188 0.015625 0.23438-0.03125 0.03125-0.03125 0.03125-0.078125 0.03125-0.125v-0.25-5.8906-0.20312c0-0.046875 0-0.09375-0.03125-0.125-0.0625-0.0625-0.17188-0.03125-0.23438-0.03125h-2.9531v-0.79688c0-0.078125 0.03125-0.21875-0.046875-0.26562-0.03125-0.03125-0.09375-0.03125-0.125-0.03125-0.078125 0-0.1875-0.015625-0.21875 0.078125-0.03125 0.10938-0.015625 0.23438-0.015625 0.32812zm0.40625 1.5625v-1.1719h2.8281v5.8594h-2.8281v-1.1562h1.4688c0.046875 0 0.10938 0 0.15625-0.03125 0.046875-0.046875 0.03125-0.14062 0.03125-0.21875v-3.0625c0-0.0625 0.015625-0.15625-0.03125-0.1875-0.046875-0.046875-0.10938-0.03125-0.15625-0.03125zm0 3.125v-2.7344h1.2656v2.7344z"/>
</g>
</defs>
<g transform="translate(-149.26 -127.84)">
<use x="148.71201" y="134.765" xlink:href="#a"/>
</g>
</svg>
