<?xml version="1.0" encoding="UTF-8"?>
<svg fill="#000000" version="1.1" viewBox="0 0 1.6489 1.6688" xmlns="http://www.w3.org/2000/svg" xmlns:xlink="http://www.w3.org/1999/xlink">
<defs>
<g id="a">
<path d="m0.625-4.4062c-0.15625 0.0625 0 0.26562 0.03125 0.34375l0.5 0.98438c0.046875 0.09375 0.078125 0.1875 0.125 0.26562 0.03125 0.046875 0.078125 0.078125 0.14062 0.046875 0.046875-0.015625 0.0625-0.0625 0.078125-0.10938 0.046875-0.0625 0.078125-0.14062 0.10938-0.20312l0.45312-0.90625c0.046875-0.078125 0.078125-0.15625 0.125-0.23438 0.015625-0.046875 0.03125-0.09375 0-0.14062s-0.078125-0.0625-0.14062-0.0625h-0.23438-1.0469c-0.03125 0-0.09375 0-0.14062 0.015625z"/>
</g>
</defs>
<g transform="translate(-149.27 -130.34)">
<use x="148.71201" y="134.765" xlink:href="#a"/>
</g>
</svg>
