<?xml version="1.0" encoding="UTF-8"?>
<svg fill="#000000" version="1.1" viewBox="0 0 5.5156 6.1875" xmlns="http://www.w3.org/2000/svg" xmlns:xlink="http://www.w3.org/1999/xlink">
<defs>
<g id="a">
<path d="m4.5469-3.1875c0-1-0.84375-1.2344-1.2344-1.2344-0.375 0-1.2188 0.25-1.2188 1.2344v3.0625c0 0.17188 0 0.34375 0.20312 0.34375s0.20312-0.17188 0.20312-0.34375v-3.0312c0-0.21875 0-0.40625 0.21875-0.625 0.1875-0.20312 0.4375-0.25 0.59375-0.25s0.42188 0.046875 0.60938 0.25c0.21875 0.21875 0.21875 0.40625 0.21875 0.625v3.0312c0 0.17188 0 0.34375 0.20312 0.34375s0.20312-0.17188 0.20312-0.34375zm1.5312-0.59375c0-1.5312-1.5312-2.1875-2.7656-2.1875-1.2188 0-2.75 0.67188-2.75 2.1875v3.6562c0 0.17188 0 0.34375 0.1875 0.34375 0.20312 0 0.20312-0.17188 0.20312-0.34375v-3.625c0-1.4062 1.5156-1.8125 2.3594-1.8125 0.5625 0 1.1719 0.15625 1.6406 0.45312 0.73438 0.5 0.73438 1.1094 0.73438 1.3594v3.625c0 0.17188 0 0.34375 0.1875 0.34375 0.20312 0 0.20312-0.17188 0.20312-0.34375z"/>
</g>
</defs>
<g transform="translate(-149.27 -128.8)">
<use x="148.71201" y="134.765" xlink:href="#a"/>
</g>
</svg>
