<?xml version="1.0" encoding="UTF-8"?>
<svg fill="#000000" version="1.1" viewBox="0 0 6.0938 9.2969" xmlns="http://www.w3.org/2000/svg" xmlns:xlink="http://www.w3.org/1999/xlink">
<defs>
<g id="b">
<path d="m6.2812-6.75c0.078125-0.14062 0.078125-0.15625 0.078125-0.1875 0-0.078125-0.0625-0.20312-0.20312-0.20312-0.10938 0-0.14062 0.0625-0.21875 0.20312l-4.4688 8.7031c-0.078125 0.14062-0.078125 0.15625-0.078125 0.1875 0 0.078125 0.0625 0.20312 0.1875 0.20312s0.15625-0.0625 0.21875-0.20312z"/>
</g>
<g id="a">
<path d="m3.8438-5.9375c1.5625 0 2.6719 1.1562 2.6719 2.4844 0 1.3438-1.125 2.4844-2.6719 2.4844h-2.6719c-0.17188 0-0.34375 0-0.34375 0.20312s0.17188 0.20312 0.34375 0.20312h2.6875c1.7188 0 3.0625-1.3125 3.0625-2.8906 0-1.5938-1.375-2.8906-3.0625-2.8906h-2.6875c-0.17188 0-0.34375 0-0.34375 0.20312s0.17188 0.20312 0.34375 0.20312zm2.5312 7.2969c0.17188 0 0.34375 0 0.34375-0.1875 0-0.20312-0.17188-0.20312-0.34375-0.20312h-5.2031c-0.17188 0-0.34375 0-0.34375 0.20312 0 0.1875 0.17188 0.1875 0.34375 0.1875z"/>
</g>
</defs>
<g transform="translate(-149.54 -127.62)">
<use x="148.71201" y="134.765" xlink:href="#b"/>
<use x="148.71201" y="134.765" xlink:href="#a"/>
</g>
</svg>
