<?xml version="1.0" encoding="UTF-8"?>
<svg fill="#000000" width="3.3281" height="8.0938" version="1.1" viewBox="0 0 3.3281 8.0937" xmlns="http://www.w3.org/2000/svg" xmlns:xlink="http://www.w3.org/1999/xlink">
<defs>
<g id="a">
<path d="m2.4844 1.2812v-2.2969c0-0.125-0.10938-0.23438-0.23438-0.23438-0.10938 0-0.21875 0.10938-0.21875 0.23438v2.2969c0 0.10938 0.10938 0.21875 0.21875 0.21875 0.125 0 0.23438-0.10938 0.23438-0.21875zm1.1875-5.2812c0.14062 0 0.25-0.10938 0.25-0.23438 0-0.0625-0.03125-0.125-0.09375-0.17188-0.64062-0.53125-1.2031-1.1875-1.3438-2-0.015625-0.10938-0.10938-0.1875-0.23438-0.1875-0.10938 0-0.20312 0.078125-0.21875 0.1875-0.14062 0.8125-0.71875 1.4688-1.3594 2-0.046875 0.046875-0.078125 0.10938-0.078125 0.17188 0 0.125 0.09375 0.23438 0.23438 0.23438 0.23438 0 0.71875-0.67188 1.2031-1.1406v2.2031c0 0.14062 0.10938 0.23438 0.21875 0.23438 0.125 0 0.23438-0.09375 0.23438-0.23438v-2.2031c0.46875 0.45312 0.96875 1.1406 1.1875 1.1406z"/>
</g>
</defs>
<g transform="translate(-149.31 -128.17)">
<use x="148.71201" y="134.765" xlink:href="#a"/>
</g>
</svg>
