<?xml version="1.0" encoding="UTF-8"?>
<svg fill="#000000" width="2.125" height="9.9688" version="1.1" viewBox="0 0 2.125 9.9687" xmlns="http://www.w3.org/2000/svg" xmlns:xlink="http://www.w3.org/1999/xlink">
<defs>
<g id="a">
<path d="m1.6562-2.5c0.5-0.20312 1.1094-0.40625 1.1875-1.125v-2.375c0-0.20312-0.015625-0.42188-0.09375-0.60938-0.29688-0.67188-1.25-0.875-1.8125-0.875h-0.0625c-0.0625 0-0.14062 0.015625-0.14062 0.10938 0 0.0625 0.0625 0.10938 0.125 0.10938 0.70312 0.03125 1.2812 0.40625 1.2812 1.2344v2.375c-0.0625 0.57812-0.5625 0.95312-1.1094 1.0312-0.09375 0.015625-0.29688-0.015625-0.3125 0.10938 0 0.15625 0.26562 0.14062 0.39062 0.15625 0.375 0.0625 0.73438 0.29688 0.92188 0.64062 0.10938 0.21875 0.10938 0.4375 0.10938 0.6875v1.7188c0 0.10938 0.015625 0.23438 0.015625 0.34375 0 0.57812-0.35938 1.125-1.0938 1.2188-0.10938 0.015625-0.32812-0.03125-0.32812 0.125 0 0.078125 0.0625 0.10938 0.17188 0.10938h0.10938c0.79688-0.078125 1.8281-0.32812 1.8281-1.4531v-0.40625-2c-0.078125-0.67188-0.625-0.89062-1.1875-1.125z"/>
</g>
</defs>
<g transform="translate(-149.43 -127.28)">
<use x="148.71201" y="134.765" xlink:href="#a"/>
</g>
</svg>
