<?xml version="1.0" encoding="UTF-8"?>
<svg fill="#000000" version="1.1" viewBox="0 0 3.1906 2.0944" xmlns="http://www.w3.org/2000/svg" xmlns:xlink="http://www.w3.org/1999/xlink">
<defs>
<g id="a">
<path d="m0.84375-3.7656c0 0.5625 0.26562 1.2656 0.85938 1.4219 0.5 0.125 1.0312-0.125 1.2344-0.60938 0.046875-0.125 0.10938-0.28125 0.078125-0.42188-0.015625-0.078125-0.125-0.125-0.20312-0.0625-0.03125 0.03125-0.046875 0.0625-0.046875 0.10938-0.015625 0.20312-0.078125 0.39062-0.23438 0.5625-0.23438 0.25-0.67188 0.32812-0.9375 0.078125-0.125-0.10938-0.20312-0.28125-0.25-0.45312-0.078125-0.28125-0.09375-0.5625-0.09375-0.85938 0-0.14062 0.03125-0.34375-0.14062-0.39062-0.03125-0.015625-0.046875-0.015625-0.078125-0.015625-0.125 0.015625-0.21875 0.125-0.29688 0.1875l-0.625 0.5c-0.0625 0.046875-0.10938 0.09375-0.17188 0.125-0.03125 0.03125-0.078125 0.078125-0.09375 0.10938-0.046875 0.10938 0.078125 0.21875 0.14062 0.28125 0.03125 0.015625 0.0625 0.03125 0.09375 0.015625 0.046875 0 0.09375-0.046875 0.14062-0.078125l0.25-0.1875c0.125-0.10938 0.25-0.20312 0.375-0.3125z"/>
</g>
</defs>
<g transform="translate(-148.55 -130.36)">
<use x="148.71201" y="134.765" xlink:href="#a"/>
</g>
</svg>
