<?xml version="1.0" encoding="UTF-8"?>
<svg fill="#000000" version="1.1" viewBox="0 0 7.1875 7.1719" xmlns="http://www.w3.org/2000/svg" xmlns:xlink="http://www.w3.org/1999/xlink">
<defs>
<g id="a">
<path d="m5.5312 0.84375h0.64062v-3.625c0-0.84375-0.79688-1.4531-1.6875-1.4531s-1.6875 0.60938-1.6875 1.4531v3.625h0.64062v-3.625c0-0.5 0.51562-0.8125 1.0469-0.8125 0.54688 0 1.0469 0.3125 1.0469 0.8125zm1.9062 0h0.64062v-4.0781c0-1.7969-1.7031-3.0938-3.5938-3.0938s-3.5938 1.2812-3.5938 3.0938v4.0781h0.64062v-4.0781c0-1.4531 1.4062-2.4531 2.9531-2.4531s2.9531 1 2.9531 2.4531z"/>
</g>
</defs>
<g transform="translate(-149.6 -128.44)">
<use x="148.71201" y="134.765" xlink:href="#a"/>
</g>
</svg>
