<?xml version="1.0" encoding="UTF-8"?>
<svg fill="#000000" version="1.1" viewBox="0 0 4.3125 8.1094" xmlns="http://www.w3.org/2000/svg" xmlns:xlink="http://www.w3.org/1999/xlink">
<defs>
<g id="a">
<path d="m4.6406-5.75c-0.046875 0-0.09375 0.015625-0.14062 0.0625-1.125 0.9375-2.3438 1.7188-3.7188 1.7188-0.14062 0-0.21875 0.09375-0.21875 0.23438s0.078125 0.21875 0.21875 0.21875c0.89062 0 1.7188 0.34375 2.5156 0.82812-0.046875 0.03125-0.078125 0.0625-0.09375 0.10938l-0.54688 2.0469c-0.26562-0.26562-0.5625-0.48438-0.95312-0.48438-0.92188 0-1.1406 1.1406-1.1406 1.3906 0 0.14062 0.046875 0.28125 0.21875 0.28125 0.10938 0 0.21875-0.09375 0.23438-0.21875 0.03125-0.375 0.23438-1 0.6875-1 0.29688 0 0.54688 0.25 0.8125 0.53125l-0.57812 2.2031c-0.03125 0.09375 0.03125 0.1875 0.14062 0.1875 0.0625 0 0.125-0.046875 0.14062-0.10938l0.54688-2.0469c0.28125 0.25 0.5625 0.46875 0.95312 0.46875 0.92188 0 1.1562-1.1562 1.1562-1.375 0-0.17188-0.0625-0.29688-0.23438-0.29688-0.10938 0-0.21875 0.09375-0.21875 0.21875-0.03125 0.375-0.25 0.98438-0.70312 0.98438-0.29688 0-0.54688-0.23438-0.8125-0.5l0.59375-2.2188v-0.03125c0.95312 0.65625 0.96875 0.82812 1.1406 0.82812 0.14062 0 0.23438-0.10938 0.23438-0.23438 0-0.0625-0.03125-0.125-0.078125-0.17188-0.78125-0.65625-1.6562-1.2812-2.6406-1.6094 0.98438-0.32812 1.8594-0.95312 2.6406-1.6094 0.046875-0.046875 0.078125-0.10938 0.078125-0.17188 0-0.125-0.09375-0.23438-0.23438-0.23438z"/>
</g>
</defs>
<g transform="translate(-149.27 -129.02)">
<use x="148.71201" y="134.765" xlink:href="#a"/>
</g>
</svg>
