<?xml version="1.0" encoding="UTF-8"?>
<svg fill="#000000" version="1.1" viewBox="0 0 3.0312 8.4375" xmlns="http://www.w3.org/2000/svg" xmlns:xlink="http://www.w3.org/1999/xlink">
<defs>
<g id="a">
<path d="m1.4375-6.7656c-0.125 0-0.23438 0.09375-0.23438 0.23438 0 0.09375 0.0625 0.1875 0.15625 0.21875 0.48438 0.17188 1 0.23438 1.4844 0.375-1 0.8125-1.6094 2.0469-1.6094 3.3906s0.60938 2.5781 1.6094 3.3906c-0.9375 0.26562-1.6406 0.25-1.6406 0.59375 0 0.14062 0.10938 0.23438 0.23438 0.23438s0.78125-0.32812 1.6094-0.32812c0.29688 0 0.59375 0.046875 0.875 0.14062 0.03125 0.015625 0.0625 0.015625 0.078125 0.015625 0.14062 0 0.23438-0.10938 0.23438-0.21875 0-0.29688-0.8125-0.40625-1.1406-2.3438-0.015625-0.125-0.125-0.20312-0.23438-0.20312-0.14062 0-0.23438 0.10938-0.23438 0.23438 0 0.21875 0.3125 1.0781 0.42188 1.4375-0.84375-0.71875-1.3594-1.7969-1.3594-2.9531s0.51562-2.2344 1.3594-2.9531c-0.10938 0.35938-0.42188 1.2188-0.42188 1.4375 0 0.125 0.09375 0.23438 0.23438 0.23438 0.10938 0 0.21875-0.078125 0.23438-0.20312 0.32812-1.9375 1.1406-2.0469 1.1406-2.3438 0-0.03125-0.015625-0.078125-0.03125-0.10938-0.0625-0.078125-0.10938-0.10938-0.17188-0.10938-0.15625 0-0.42188 0.15625-0.98438 0.15625-0.78125 0-1.5156-0.32812-1.6094-0.32812z"/>
</g>
</defs>
<g transform="translate(-149.92 -128)">
<use x="148.71201" y="134.765" xlink:href="#a"/>
</g>
</svg>
