<?xml version="1.0" encoding="UTF-8"?>
<svg fill="#000000" width="8.3906" height="3.3438" version="1.1" viewBox="0 0 8.3906 3.3437" xmlns="http://www.w3.org/2000/svg" xmlns:xlink="http://www.w3.org/1999/xlink">
<defs>
<g id="a">
<path d="m9.0156-2.5469c0-0.9375-0.75-1.6875-1.6719-1.6875-0.84375 0-1.5156 0.60938-1.6562 1.3906h-5.0625v0.5625h5.0625c0.125 0.79688 0.8125 1.3906 1.6562 1.3906 0.92188 0 1.6719-0.73438 1.6719-1.6562zm-0.5 0c0 0.64062-0.53125 1.1562-1.1719 1.1562-0.67188 0-1.1875-0.51562-1.1875-1.1562 0-0.65625 0.51562-1.1875 1.1875-1.1875 0.64062 0 1.1719 0.53125 1.1719 1.1875z"/>
</g>
</defs>
<g transform="translate(-149.34 -130.53)">
<use x="148.71201" y="134.765" xlink:href="#a"/>
</g>
</svg>
