<?xml version="1.0" encoding="UTF-8"?>
<svg fill="#000000" version="1.1" viewBox="0 0 6.375 8.8455" xmlns="http://www.w3.org/2000/svg" xmlns:xlink="http://www.w3.org/1999/xlink">
<defs>
<g id="a">
<path d="m2.7969-2.7031v-2.9062c0-0.0625 0.015625-0.125-0.03125-0.17188s-0.10938-0.046875-0.17188-0.046875c-0.046875 0-0.09375 0-0.15625 0.03125-0.03125 0.03125-0.03125 0.078125-0.03125 0.14062v0.25 4.8906 0.5c-0.015625 0.0625-0.046875 0.10938-0.0625 0.15625-0.046875 0.078125-0.078125 0.15625-0.125 0.23438-0.14062 0.34375-0.32812 0.6875-0.5 1.0156-0.046875 0.10938-0.10938 0.21875-0.15625 0.32812-0.03125 0.0625-0.046875 0.125 0 0.17188 0.03125 0.03125 0.078125 0.03125 0.125 0.03125 0.078125 0 0.17188 0.015625 0.23438-0.046875 0.03125-0.046875 0.046875-0.09375 0.078125-0.125 0.046875-0.09375 0.078125-0.17188 0.125-0.26562l0.20312-0.42188c0.046875-0.078125 0.09375-0.17188 0.125-0.25h0.14062c0.046875 0 0.125 0.015625 0.17188-0.03125s0.03125-0.14062 0.03125-0.20312v-0.3125c0-0.0625 0-0.125 0.03125-0.1875 0.078125-0.21875 0.20312-0.42188 0.29688-0.625 0.1875-0.375 0.39062-0.76562 0.57812-1.1406l0.21875-0.4375c0.015625-0.046875 0.046875-0.14062 0.09375-0.17188 0.0625-0.03125 0.15625 0 0.21875 0h2.6875c0.078125 0 0.17188 0.015625 0.21875-0.03125 0.0625-0.046875 0.0625-0.14062 0.0625-0.20312 0-0.03125 0-0.0625-0.015625-0.09375s-0.03125-0.046875-0.046875-0.0625c-0.046875-0.03125-0.10938-0.015625-0.15625-0.015625h-2.7812c0.078125-0.14062 0.15625-0.3125 0.23438-0.46875 0.14062-0.28125 0.28125-0.59375 0.42188-0.875 0.3125-0.64062 0.64062-1.2656 0.95312-1.9062l0.28125-0.5625c0.046875-0.078125 0.10938-0.17188 0.125-0.26562 0.03125-0.14062-0.125-0.14062-0.21875-0.14062-0.03125 0-0.09375 0-0.125 0.015625-0.046875 0.015625-0.078125 0.0625-0.09375 0.10938-0.03125 0.0625-0.0625 0.14062-0.09375 0.20312-0.10938 0.25-0.25 0.5-0.375 0.75-0.375 0.76562-0.75 1.5156-1.125 2.2812l-0.3125 0.60938-0.078125 0.15625c-0.015625 0.03125-0.03125 0.0625-0.0625 0.078125-0.015625 0.015625-0.0625 0.015625-0.078125 0.015625zm-1.8906-3.1094c-0.0625 0.015625-0.078125 0.078125-0.078125 0.14062v0.23438 6.0625c0 0.046875 0 0.09375 0.015625 0.125 0.046875 0.078125 0.14062 0.0625 0.20312 0.0625h0.09375c0.0625-0.015625 0.078125-0.0625 0.078125-0.10938 0.015625-0.078125 0-0.17188 0-0.25v-6.0938c0-0.046875 0-0.078125-0.015625-0.125-0.03125-0.0625-0.125-0.0625-0.20312-0.0625-0.015625 0-0.0625 0-0.09375 0.015625zm1.9062 5.0312h-0.015625v-1.5156h0.76562l-0.65625 1.3125z"/>
</g>
</defs>
<g transform="translate(-149.54 -127.84)">
<use x="148.71201" y="134.765" xlink:href="#a"/>
</g>
</svg>
