<?xml version="1.0" encoding="UTF-8"?>
<svg fill="#000000" version="1.1" viewBox="0 0 3.0312 6.9062" xmlns="http://www.w3.org/2000/svg" xmlns:xlink="http://www.w3.org/1999/xlink">
<defs>
<g id="a">
<path d="m1.0469-6.8125v0.29688c0.15625 0 0.29688 0 0.45312 0.03125 0.078125 0.015625 0.17188 0.046875 0.21875 0.10938 0.0625 0.0625 0.078125 0.14062 0.09375 0.23438 0.015625 0.15625 0.015625 0.3125 0.015625 0.48438v1.8125c-0.09375-0.015625-0.17188-0.03125-0.26562-0.03125-0.4375 0.015625-0.67188 0.45312-0.92188 0.75v0.015625c0.03125 0.03125 0.10938 0.125 0.17188 0.10938 0.03125-0.015625 0.0625-0.046875 0.078125-0.0625 0.03125-0.03125 0.078125-0.09375 0.10938-0.125 0.17188-0.15625 0.39062-0.26562 0.625-0.21875 0.046875 0 0.14062 0.015625 0.17188 0.0625 0.046875 0.046875 0.03125 0.14062 0.03125 0.1875v2.4375c0 0.09375 0 0.20312-0.078125 0.28125-0.046875 0.0625-0.14062 0.09375-0.21875 0.09375-0.17188 0.03125-0.32812 0.03125-0.48438 0.03125v0.29688l0.42188-0.015625 0.90625-0.015625 0.89062 0.03125v-0.29688c-0.15625 0-0.3125 0-0.46875-0.03125-0.078125 0-0.17188-0.03125-0.23438-0.078125-0.0625-0.09375-0.0625-0.20312-0.0625-0.29688v-2.2969c0.10938 0.03125 0.21875 0.046875 0.34375 0.03125 0.28125-0.0625 0.46875-0.3125 0.64062-0.51562 0.0625-0.078125 0.14062-0.15625 0.1875-0.25l-0.1875-0.125c-0.17188 0.21875-0.40625 0.45312-0.71875 0.4375-0.046875 0-0.125-0.015625-0.1875-0.03125-0.03125-0.015625-0.0625-0.03125-0.078125-0.0625v-0.09375-3.2969z"/>
</g>
</defs>
<g transform="translate(-149.35 -127.84)">
<use x="148.71201" y="134.765" xlink:href="#a"/>
</g>
</svg>
