<?xml version="1.0" encoding="UTF-8"?>
<svg fill="#000000" width="3.0312" height="8.0938" version="1.1" viewBox="0 0 3.0312 8.0937" xmlns="http://www.w3.org/2000/svg" xmlns:xlink="http://www.w3.org/1999/xlink">
<defs>
<g id="a">
<path d="m0.82812 1.5c0.15625 0 0.4375-0.25 1.2344-0.25 0.65625 0 1.2969 0.20312 1.3438 0.20312 0.10938 0 0.21875-0.09375 0.21875-0.23438 0-0.34375-0.59375-0.28125-1.5938-0.45312 1-0.875 1.5938-2.1562 1.5938-3.5312 0-1.75-0.9375-3.0781-2.0312-3.7969-0.03125-0.03125-0.09375-0.03125-0.125-0.03125-0.17188 0-0.23438 0.15625-0.23438 0.21875 0 0.078125 0.046875 0.15625 0.09375 0.1875 0.96875 0.64062 1.8438 1.8438 1.8438 3.4219 0 1.25-0.54688 2.4219-1.4844 3.2188 0.078125-0.46875 0.3125-1.2656 0.3125-1.5781 0-0.125-0.09375-0.23438-0.23438-0.23438-0.125 0-0.21875 0.09375-0.23438 0.21875-0.17188 1.9219-0.9375 2.1406-0.9375 2.4219 0 0.125 0.125 0.21875 0.23438 0.21875z"/>
</g>
</defs>
<g transform="translate(-149.31 -128.17)">
<use x="148.71201" y="134.765" xlink:href="#a"/>
</g>
</svg>
