<?xml version="1.0" encoding="UTF-8"?>
<svg fill="#000000" version="1.1" viewBox="0 0 7.1094 4.9062" xmlns="http://www.w3.org/2000/svg" xmlns:xlink="http://www.w3.org/1999/xlink">
<defs>
<g id="a">
<path d="m6.2969-0.09375c0.1875 0 1.4062-0.89062 1.4062-2.4531 0-0.96875-0.48438-1.875-1.2969-2.4062-0.03125-0.015625-0.078125-0.046875-0.10938-0.046875-0.1875 0-0.23438 0.17188-0.23438 0.23438 0 0.078125 0.03125 0.15625 0.09375 0.20312 0.60938 0.39062 1.0156 1.0625 1.0781 1.7969h-6.4062c-0.125 0-0.23438 0.09375-0.23438 0.21875s0.10938 0.23438 0.23438 0.23438h6.4062c-0.0625 0.71875-0.46875 1.3906-1.0781 1.7969-0.0625 0.03125-0.09375 0.10938-0.09375 0.1875 0 0.0625 0.046875 0.23438 0.23438 0.23438z"/>
</g>
</defs>
<g transform="translate(-149.31 -129.76)">
<use x="148.71201" y="134.765" xlink:href="#a"/>
</g>
</svg>
