<?xml version="1.0" encoding="UTF-8"?>
<svg fill="#000000" version="1.1" viewBox="0 0 7.1094 4.5625" xmlns="http://www.w3.org/2000/svg" xmlns:xlink="http://www.w3.org/1999/xlink">
<defs>
<g id="a">
<path d="m7.4844-2.0312c0.10938 0 0.21875-0.09375 0.21875-0.23438 0-0.0625-0.015625-0.10938-0.0625-0.15625-0.40625-0.40625-0.76562-1.0625-1.4844-1.0625-0.5 0-0.84375 0.29688-1.2344 0.67188l-0.6875-1.9219c-0.03125-0.0625-0.09375-0.09375-0.14062-0.09375-0.10938 0-0.17188 0.10938-0.14062 0.1875l0.73438 2.0625c-0.32812 0.32812-0.57812 0.51562-0.875 0.51562-0.51562 0-0.79688-0.59375-1.5156-0.79688 0.375-0.20312 0.75-0.375 1.1094-0.60938 0.046875-0.046875 0.09375-0.125 0.09375-0.1875 0-0.078125-0.0625-0.23438-0.23438-0.23438-0.046875 0-0.09375 0.015625-0.14062 0.046875-0.60938 0.4375-1.3281 0.79688-2.0625 0.79688-0.03125 0-0.09375-0.015625-0.17188-0.015625-0.125 0-0.29688 0.03125-0.29688 0.23438 0 0.35938 0.84375 0.14062 1.7344 2.0156 0.03125 0.09375 0.10938 0.14062 0.20312 0.14062 0.125 0 0.23438-0.10938 0.23438-0.21875 0-0.23438-0.64062-1.0469-0.90625-1.5938 1.0156 0.125 1.0938 0.875 1.9531 0.875 0.42188 0 0.78125-0.25 1.0469-0.5l0.64062 1.75c0.015625 0.0625 0.078125 0.09375 0.14062 0.09375 0.10938 0 0.1875-0.10938 0.14062-0.1875l-0.67188-1.8906c0.1875-0.20312 0.625-0.6875 1.0469-0.6875 0.625 0 1 1 1.3281 1z"/>
</g>
</defs>
<g transform="translate(-149.31 -129.94)">
<use x="148.71201" y="134.765" xlink:href="#a"/>
</g>
</svg>
