<?xml version="1.0" encoding="UTF-8"?>
<svg fill="#000000" version="1.1" viewBox="0 0 6.4219 7.9844" xmlns="http://www.w3.org/2000/svg" xmlns:xlink="http://www.w3.org/1999/xlink">
<defs>
<g id="a">
<path d="m7.5312-0.4375c0-0.0625-0.015625-0.125-0.0625-0.17188l-1.4219-1.4219 1.375-2.9062c0.03125-0.09375 0-0.17188-0.078125-0.20312-0.078125-0.046875-0.17188-0.015625-0.20312 0.0625l-1.3125 2.8281-1.1406-1.1406 1.6094-1.6094c0.03125-0.03125 0.046875-0.09375 0.046875-0.15625 0-0.125-0.078125-0.23438-0.21875-0.23438-0.046875 0-0.10938 0.03125-0.15625 0.078125l-3.5312 3.5312c-0.046875 0.03125-0.078125 0.09375-0.078125 0.15625 0 0.125 0.09375 0.23438 0.23438 0.23438 0.0625 0 0.125-0.03125 0.17188-0.078125l1.5938-1.6094 1.2656 1.2812-1.375 2.9062c-0.046875 0.10938 0.03125 0.21875 0.14062 0.21875 0.0625 0 0.10938-0.03125 0.14062-0.078125l1.3125-2.8281 1.2969 1.2969c0.046875 0.046875 0.10938 0.078125 0.17188 0.078125 0.10938 0 0.21875-0.09375 0.21875-0.23438zm-2.6719-6.2188c-0.046875 0-0.10938 0.03125-0.15625 0.078125l-3.5312 3.5312c-0.046875 0.046875-0.0625 0.10938-0.0625 0.15625 0 0.125 0.09375 0.23438 0.21875 0.23438 0.0625 0 0.125-0.03125 0.17188-0.0625l3.5312-3.5312c0.046875-0.046875 0.0625-0.10938 0.0625-0.17188 0-0.125-0.09375-0.23438-0.23438-0.23438z"/>
</g>
</defs>
<g transform="translate(-149.82 -128.11)">
<use x="148.71201" y="134.765" xlink:href="#a"/>
</g>
</svg>
