<?xml version="1.0" encoding="UTF-8"?>
<svg fill="#000000" version="1.1" viewBox="0 0 8.3594 3.75" xmlns="http://www.w3.org/2000/svg" xmlns:xlink="http://www.w3.org/1999/xlink">
<defs>
<g id="a">
<path d="m8.9531-2.2656c0-0.35938-0.84375-0.14062-1.7188-2.0156-0.03125-0.09375-0.125-0.14062-0.20312-0.14062-0.14062 0-0.25 0.10938-0.25 0.21875 0 0.23438 0.64062 1.0469 0.92188 1.5938-0.85938-0.125-1.0312-0.875-1.7969-0.875-0.98438 0-1.5469 1.4219-2.25 1.4219-0.46875 0-0.71875-0.5625-1.3906-0.78125 0.39062-0.20312 0.78125-0.375 1.1406-0.625 0.046875-0.046875 0.09375-0.125 0.09375-0.1875 0-0.078125-0.0625-0.23438-0.23438-0.23438-0.046875 0-0.09375 0.015625-0.14062 0.046875-0.60938 0.4375-1.3281 0.79688-2.0625 0.79688-0.015625 0-0.078125-0.015625-0.15625-0.015625-0.125 0-0.3125 0.03125-0.3125 0.23438 0 0.35938 0.84375 0.14062 1.7344 2.0156 0.03125 0.09375 0.10938 0.14062 0.20312 0.14062 0.125 0 0.23438-0.10938 0.23438-0.21875 0-0.23438-0.64062-1.0469-0.90625-1.5938 0.85938 0.125 1.0156 0.875 1.7969 0.875 0.98438 0 1.5156-1.4219 2.25-1.4219 0.46875 0 0.71875 0.5625 1.375 0.78125-0.39062 0.20312-0.78125 0.375-1.125 0.625-0.0625 0.046875-0.10938 0.125-0.10938 0.1875 0 0.078125 0.0625 0.23438 0.23438 0.23438 0.046875 0 0.09375-0.015625 0.14062-0.046875 0.60938-0.4375 1.3281-0.79688 2.0781-0.79688 0.14062 0 0.20312 0.015625 0.21875 0.015625 0.125 0 0.23438-0.09375 0.23438-0.23438z"/>
</g>
</defs>
<g transform="translate(-149.31 -130.34)">
<use x="148.71201" y="134.765" xlink:href="#a"/>
</g>
</svg>
