<?xml version="1.0" encoding="UTF-8"?>
<svg fill="#000000" version="1.1" viewBox="0 0 4.1719 9.625" xmlns="http://www.w3.org/2000/svg" xmlns:xlink="http://www.w3.org/1999/xlink">
<defs>
<g id="a">
<path d="m4.5312-0.98438c-0.10938 0-0.29688 0.17188-0.71875 0.64062v-6.7812c0-0.125-0.10938-0.23438-0.23438-0.23438s-0.23438 0.10938-0.23438 0.23438v7.2812c-0.20312 0.23438-0.42188 0.45312-0.65625 0.65625-0.25-0.20312-0.45312-0.42188-0.65625-0.65625v-7.2812c0-0.125-0.10938-0.23438-0.23438-0.23438s-0.23438 0.10938-0.23438 0.23438v6.7812c-0.29688-0.32812-0.57812-0.64062-0.73438-0.64062-0.14062 0-0.23438 0.10938-0.23438 0.23438 0 0.078125 0.03125 0.14062 0.078125 0.1875 0.85938 0.70312 1.5938 1.5625 1.7969 2.6406 0.015625 0.10938 0.10938 0.1875 0.21875 0.1875s0.20312-0.078125 0.21875-0.1875c0.1875-1.0781 0.9375-1.9375 1.7812-2.6406 0.0625-0.046875 0.078125-0.10938 0.078125-0.1875 0-0.125-0.09375-0.23438-0.23438-0.23438z"/>
</g>
</defs>
<g transform="translate(-149.31 -127.41)">
<use x="148.71201" y="134.765" xlink:href="#a"/>
</g>
</svg>
