<?xml version="1.0" encoding="UTF-8"?>
<svg fill="#000000" width="6.2344" height="6.2188" version="1.1" viewBox="0 0 6.2344 6.2187" xmlns="http://www.w3.org/2000/svg" xmlns:xlink="http://www.w3.org/1999/xlink">
<defs>
<g id="a">
<path d="m6.375-3.5156v3.8594c0 0.125 0.10938 0.21875 0.21875 0.21875 0.14062 0 0.23438-0.09375 0.23438-0.21875v-3.8594c0-1.3281-1.3906-2.1406-3.1094-2.1406-1.4844 0-3.125 0.65625-3.125 2.1406v3.8594c0 0.125 0.10938 0.21875 0.23438 0.21875s0.23438-0.09375 0.23438-0.21875v-3.8594c0-1.0625 1.2344-1.6875 2.6562-1.6875s2.6562 0.625 2.6562 1.6875zm-1.6875 1.1406v2.7188c0 0.125 0.10938 0.21875 0.23438 0.21875s0.21875-0.09375 0.21875-0.21875v-2.7188c0-0.82812-0.57812-1.6094-1.4219-1.6094s-1.4375 0.78125-1.4375 1.6094v2.7188c0 0.125 0.09375 0.21875 0.23438 0.21875 0.125 0 0.21875-0.09375 0.21875-0.21875v-2.7188c0-0.64062 0.4375-1.1406 0.98438-1.1406 0.53125 0 0.96875 0.5 0.96875 1.1406z"/>
</g>
</defs>
<g transform="translate(-149.31 -129.11)">
<use x="148.71201" y="134.765" xlink:href="#a"/>
</g>
</svg>
