<?xml version="1.0" encoding="UTF-8"?>
<svg fill="#000000" version="1.1" viewBox="0 0 7.1094 3.0312" xmlns="http://www.w3.org/2000/svg" xmlns:xlink="http://www.w3.org/1999/xlink">
<defs>
<g id="a">
<path d="m7.4844-4.3594c-0.28125 0-0.5 0.76562-2.4219 0.9375-0.125 0-0.21875 0.10938-0.21875 0.21875 0 0.14062 0.10938 0.23438 0.23438 0.23438 0.34375 0 1.2188-0.26562 1.7344-0.32812-0.625 0.9375-1.6719 1.5-2.8281 1.5-1.4219 0-2.4688-0.85938-2.9531-1.7969-0.03125-0.078125-0.10938-0.14062-0.20312-0.14062-0.125 0-0.23438 0.125-0.23438 0.23438 0 0.21875 1.0781 2.1719 3.3906 2.1719 1.1719 0 2.2812-0.54688 3.0156-1.4375 0.14062 1.0625 0.125 1.4375 0.42188 1.4375 0.14062 0 0.21875-0.125 0.21875-0.23438 0-0.046875-0.1875-0.6875-0.1875-1.3281 0-0.8125 0.25-1.0469 0.25-1.2344 0-0.125-0.09375-0.23438-0.21875-0.23438z"/>
</g>
</defs>
<g transform="translate(-149.31 -130.41)">
<use x="148.71201" y="134.765" xlink:href="#a"/>
</g>
</svg>
