<?xml version="1.0" encoding="UTF-8"?>
<svg fill="#000000" width="9.9375" height="9.9688" version="1.1" viewBox="0 0 9.9375 9.9687" xmlns="http://www.w3.org/2000/svg" xmlns:xlink="http://www.w3.org/1999/xlink">
<defs>
<g id="a">
<path d="m10.5 4.9844c0-2.7656-2.2188-4.9844-4.9688-4.9844-2.7344 0-4.9688 2.2188-4.9688 4.9844s2.2344 4.9844 4.9688 4.9844c2.75 0 4.9688-2.2188 4.9688-4.9844zm-4.9688 4.2969c-2.3594 0-4.2812-1.9219-4.2812-4.2969s1.9219-4.2969 4.2812-4.2969 4.2812 1.9219 4.2812 4.2969-1.9219 4.2969-4.2812 4.2969zm0.6875-4.2969c0-0.39062-0.29688-0.6875-0.6875-0.6875s-0.6875 0.29688-0.6875 0.6875 0.29688 0.6875 0.6875 0.6875 0.6875-0.29688 0.6875-0.6875z"/>
</g>
</defs>
<g transform="translate(-149.27 -127.29)">
<use x="148.71201" y="127.293" xlink:href="#a"/>
</g>
</svg>
