<?xml version="1.0" encoding="UTF-8"?>
<svg fill="#000000" version="1.1" viewBox="0 0 6.0781 7.1406" xmlns="http://www.w3.org/2000/svg" xmlns:xlink="http://www.w3.org/1999/xlink">
<defs>
<g id="a">
<path d="m2.9531-0.625c0.75 0.53125 1.0312 0.73438 1.5469 0.73438 1.1562 0 1.8125-1.1719 1.8125-1.4844 0-0.09375-0.10938-0.09375-0.15625-0.09375-0.10938 0-0.125 0-0.17188 0.15625-0.1875 0.5625-0.73438 1.0156-1.2969 1.0156-0.45312 0-0.6875-0.17188-1.4375-0.70312 0.125-0.21875 0.23438-0.45312 0.29688-0.6875l0.40625-1.625h0.8125c0.17188 0 0.26562 0 0.26562-0.20312 0-0.10938-0.078125-0.10938-0.23438-0.10938h-0.76562l0.4375-1.75c0.3125-1.0625 0.90625-1.4375 1.3438-1.4375 0.5 0 0.84375 0.375 0.84375 1.0625v0.17188c-0.1875 0-0.28125 0-0.40625 0.09375-0.10938 0.09375-0.17188 0.23438-0.17188 0.375 0 0.21875 0.17188 0.32812 0.32812 0.32812 0.48438 0 0.54688-0.5625 0.54688-0.9375 0-0.70312-0.35938-1.3125-1.1562-1.3125-0.875 0-1.7812 0.84375-2.0156 1.8125l-0.39062 1.5938h-0.5625c-0.17188 0-0.28125 0-0.28125 0.21875 0 0.09375 0.078125 0.09375 0.25 0.09375h0.51562c-0.09375 0.35938-0.1875 0.6875-0.26562 1.0469-0.09375 0.32812-0.20312 0.79688-0.28125 1-0.0625-0.03125-0.29688-0.125-0.57812-0.125-0.73438 0-1.3125 0.5625-1.3125 1.0156 0 0.34375 0.34375 0.48438 0.67188 0.48438 0.46875 0 1.0469-0.28125 1.4062-0.73438zm-0.375-0.21875c-0.3125 0.5-0.73438 0.73438-1.0312 0.73438-0.23438 0-0.29688-0.15625-0.29688-0.26562 0-0.25 0.32812-0.60938 0.75-0.60938 0.20312 0 0.39062 0.0625 0.57812 0.14062z"/>
</g>
</defs>
<g transform="translate(-149.59 -127.73)">
<use x="148.71201" y="134.765" xlink:href="#a"/>
</g>
</svg>
