<?xml version="1.0" encoding="UTF-8"?>
<svg fill="#000000" width="9.9375" height="9.9688" version="1.1" viewBox="0 0 9.9375 9.9687" xmlns="http://www.w3.org/2000/svg" xmlns:xlink="http://www.w3.org/1999/xlink">
<defs>
<g id="a">
<path d="m10.5 4.9844c0-2.7656-2.2188-4.9844-4.9688-4.9844-2.7344 0-4.9688 2.2188-4.9688 4.9844s2.2344 4.9844 4.9688 4.9844c2.75 0 4.9688-2.2188 4.9688-4.9844zm-5.3125-0.34375h-3.9219c0.15625-2.125 1.8906-3.7969 3.9219-3.9375zm0.6875 0v-3.9375c2.0156 0.14062 3.7812 1.8125 3.9219 3.9375zm0 0.6875h3.9375c-0.17188 2.1562-1.9375 3.7969-3.9375 3.9375zm-0.6875 0v3.9375c-2-0.14062-3.7656-1.7812-3.9375-3.9375z"/>
</g>
</defs>
<g transform="translate(-149.27 -127.29)">
<use x="148.71201" y="127.293" xlink:href="#a"/>
</g>
</svg>
