<?xml version="1.0" encoding="UTF-8"?>
<svg fill="#000000" version="1.1" viewBox="0 0 6.6094 6.6094" xmlns="http://www.w3.org/2000/svg" xmlns:xlink="http://www.w3.org/1999/xlink">
<defs>
<g id="a">
<path d="m6.7812-2.5c0 0.71875-0.25 1.3906-0.71875 1.9219l-4.1094-4.1094c0.53125-0.46875 1.2031-0.71875 1.9219-0.71875 0.76562 0 1.5156 0.29688 2.0625 0.84375 0.53125 0.5625 0.84375 1.2969 0.84375 2.0625zm-5.25-2.3281c-0.64062 0.60938-0.96875 1.4531-0.96875 2.3281 0 0.89062 0.32812 1.7344 0.96875 2.3438 0.60938 0.625 1.4531 0.96875 2.3438 0.96875 0.875 0 1.7188-0.34375 2.3281-0.96875 0.625-0.60938 0.96875-1.4531 0.96875-2.3438 0-0.875-0.34375-1.7188-0.96875-2.3281-0.60938-0.625-1.4531-0.96875-2.3281-0.96875-0.89062 0-1.7344 0.34375-2.3438 0.96875zm0.26562 4.4062c-0.54688-0.5625-0.84375-1.2969-0.84375-2.0781 0-0.70312 0.25-1.375 0.71875-1.9062l4.1094 4.1094c-0.53125 0.46875-1.2031 0.71875-1.9062 0.71875-0.78125 0-1.5156-0.29688-2.0781-0.84375z"/>
</g>
</defs>
<g transform="translate(-149.27 -128.97)">
<use x="148.71201" y="134.765" xlink:href="#a"/>
</g>
</svg>
