<?xml version="1.0" encoding="UTF-8"?>
<svg fill="#000000" width="6.2812" height="7.3438" version="1.1" viewBox="0 0 6.2812 7.3437" xmlns="http://www.w3.org/2000/svg" xmlns:xlink="http://www.w3.org/1999/xlink">
<defs>
<g id="a">
<path d="m4.1562-7.25c-1.3906 0-2.1562 0.76562-2.4688 1.1719-0.39062 0.57812-0.59375 1.1094-0.60938 1.5625h-0.51562l-0.32812 0.84375h0.76562v0.60938l-0.48438-0.015625-0.28125 0.84375h0.92188c0.34375 1.5469 1.4531 2.3281 3.2969 2.3281 0.9375-0.10938 1.5312-0.35938 1.7812-0.78125v-1.1719c-0.51562 0.67188-1.2969 1.0156-2.2812 1.0781-0.875-0.17188-1.4531-0.65625-1.7656-1.4531h2.6875l0.3125-0.82812h-3.2031l-0.0625-0.60938h3.4688l0.046875-0.10938 0.26562-0.71875h-3.6719c0.10938-1.1094 0.95312-1.875 1.9688-1.875 0.89062 0 1.5938 0.3125 2.1094 0.92188l0.40625-0.89062c-0.46875-0.60938-1.2656-0.90625-2.3594-0.90625z"/>
</g>
</defs>
<g transform="translate(-148.95 -127.52)">
<use x="148.71201" y="134.765" xlink:href="#a"/>
</g>
</svg>
