<?xml version="1.0" encoding="UTF-8"?>
<svg fill="#000000" version="1.1" viewBox="0 0 4.7812 8.8594" xmlns="http://www.w3.org/2000/svg" xmlns:xlink="http://www.w3.org/1999/xlink">
<defs>
<g id="a">
<path d="m2.1562-6.0625h-0.015625c-0.046875 0-0.078125 0.03125-0.09375 0.0625l-0.015625 0.078125c-0.015625 0.015625-0.015625 0.03125-0.015625 0.046875 0 0.046875 0.046875 0.10938 0.09375 0.10938h0.10938c0.57812 0 1.1406-0.17188 1.625-0.45312l-3.2812 7.8906c0 0.015625-0.015625 0.046875-0.015625 0.078125 0 0.10938 0.10938 0.1875 0.20312 0.1875 0.078125 0 0.14062-0.03125 0.1875-0.125l3.2656-7.875c0.15625 0.57812 0.46875 1.125 0.90625 1.5312 0.015625 0.03125 0.046875 0.03125 0.078125 0.03125s0.0625 0 0.078125-0.03125c0.015625 0 0.015625-0.015625 0.015625-0.03125l0.046875-0.078125v-0.03125c0-0.046875-0.015625-0.078125-0.03125-0.09375-0.5625-0.53125-0.875-1.2812-0.875-2.0469 0-0.0625-0.0625-0.10938-0.10938-0.10938-0.03125 0-0.0625 0.015625-0.078125 0.03125-0.53125 0.53125-1.2656 0.82812-2.0156 0.82812h-0.078125c-0.03125 0-0.03125 0.015625-0.03125 0.015625 0.015625 0 0.03125 0 0.046875-0.015625z"/>
</g>
</defs>
<g transform="translate(-149.26 -127.84)">
<use x="148.71201" y="134.765" xlink:href="#a"/>
</g>
</svg>
