<?xml version="1.0" encoding="UTF-8"?>
<svg fill="#000000" version="1.1" viewBox="0 0 6.1018 8.8472" xmlns="http://www.w3.org/2000/svg" xmlns:xlink="http://www.w3.org/1999/xlink">
<defs>
<g id="a">
<path d="m4.0781-1.5781c0.14062 0.078125 0.28125 0.15625 0.4375 0.21875 0.21875 0.125 0.4375 0.25 0.64062 0.375 0.3125 0.20312 0.60938 0.40625 0.89062 0.64062 0.14062 0.09375 0.25 0.1875 0.39062 0.29688 0.09375 0.078125 0.26562 0.0625 0.375 0.0625 0.078125-0.015625 0.125-0.078125 0.10938-0.15625-0.03125-0.0625-0.10938-0.10938-0.15625-0.15625-0.125-0.10938-0.25-0.20312-0.375-0.29688-0.48438-0.375-1-0.71875-1.5469-1.0156-0.17188-0.10938-0.375-0.20312-0.5625-0.29688-0.046875-0.03125-0.17188-0.0625-0.1875-0.125-0.03125-0.0625-0.015625-0.15625-0.015625-0.21875v-0.5c0-0.078125-0.015625-0.1875 0.015625-0.23438 0.03125-0.0625 0.125-0.09375 0.17188-0.10938 0.15625-0.078125 0.29688-0.14062 0.45312-0.21875 0.46875-0.25 0.90625-0.54688 1.3438-0.85938 0.23438-0.17188 0.48438-0.35938 0.70312-0.54688 0.078125-0.0625 0.23438-0.17188 0.125-0.26562-0.046875-0.046875-0.125-0.03125-0.1875-0.03125s-0.14062-0.015625-0.1875 0.015625c-0.0625 0.015625-0.10938 0.0625-0.15625 0.09375-0.0625 0.0625-0.15625 0.125-0.21875 0.1875-0.40625 0.3125-0.82812 0.60938-1.2812 0.875-0.25 0.14062-0.51562 0.26562-0.78125 0.42188v-3.25c0-0.0625 0.015625-0.14062-0.015625-0.20312-0.015625-0.015625-0.03125-0.03125-0.0625-0.046875h-0.09375c-0.0625 0-0.15625-0.015625-0.20312 0.046875s-0.03125 0.17188-0.03125 0.25v3.1094c0 0.0625 0.03125 0.17188 0 0.23438-0.015625 0.046875-0.09375 0.0625-0.14062 0.078125-0.125 0.046875-0.25 0.09375-0.375 0.125-0.53125 0.1875-1.0781 0.29688-1.6562 0.34375-0.14062 0.015625-0.28125 0.03125-0.42188 0.03125-0.0625 0-0.15625-0.015625-0.20312 0.03125-0.0625 0.046875-0.046875 0.10938-0.046875 0.17188s-0.015625 0.125 0.046875 0.17188c0.046875 0.046875 0.14062 0.03125 0.20312 0.03125 0.14062 0 0.28125 0 0.42188 0.03125 0.57812 0.046875 1.125 0.15625 1.6562 0.32812 0.125 0.046875 0.25 0.078125 0.375 0.14062 0.046875 0.015625 0.125 0.015625 0.14062 0.078125 0.03125 0.0625 0 0.15625 0 0.23438v3.1094c0 0.0625-0.015625 0.17188 0.03125 0.25 0.046875 0.0625 0.14062 0.046875 0.20312 0.046875 0.03125 0 0.0625 0 0.09375-0.015625 0.03125 0 0.046875-0.015625 0.0625-0.046875 0.03125-0.0625 0.015625-0.125 0.015625-0.1875zm-1.4531-0.92188v-0.015625l0.42188-0.10938 0.625-0.21875v0.6875l-0.625-0.21875z"/>
</g>
</defs>
<g transform="translate(-149.54 -127.84)">
<use x="148.71201" y="134.765" xlink:href="#a"/>
</g>
</svg>
