<?xml version="1.0" encoding="UTF-8"?>
<svg fill="#000000" version="1.1" viewBox="0 0 4.8906 4.5156" xmlns="http://www.w3.org/2000/svg" xmlns:xlink="http://www.w3.org/1999/xlink">
<defs>
<g id="a">
<path d="m0.59375-0.39062c-0.046875 0.14062-0.046875 0.15625-0.046875 0.23438 0 0.17188 0.14062 0.26562 0.29688 0.26562 0.29688 0 0.35938-0.23438 0.4375-0.5625 0.09375-0.35938 0.03125-0.17188 0.46875-1.8438 0.82812 0.03125 1.7031 0.20312 1.7031 0.84375 0 0.078125 0 0.125-0.03125 0.23438-0.03125 0.15625-0.046875 0.26562-0.046875 0.34375 0 0.57812 0.40625 0.98438 0.92188 0.98438 0.3125 0 0.57812-0.17188 0.78125-0.51562 0.25-0.42188 0.35938-1 0.35938-1.0156 0-0.10938-0.078125-0.10938-0.10938-0.10938-0.10938 0-0.10938 0.046875-0.14062 0.1875-0.1875 0.6875-0.42188 1.2344-0.875 1.2344-0.20312 0-0.3125-0.125-0.3125-0.48438 0-0.14062 0.03125-0.39062 0.078125-0.54688 0.015625-0.09375 0.046875-0.21875 0.046875-0.32812 0-0.9375-1.375-1.0156-1.9375-1.0312 0.32812-0.1875 0.65625-0.45312 0.92188-0.6875 0.45312-0.375 0.75-0.625 1.1406-0.79688-0.015625 0.0625-0.046875 0.17188-0.046875 0.21875 0 0.125 0.078125 0.35938 0.375 0.35938 0.32812 0 0.54688-0.29688 0.54688-0.54688 0-0.078125-0.046875-0.34375-0.40625-0.34375-0.60938 0-1.1875 0.5-1.625 0.875-0.6875 0.57812-0.92188 0.71875-1.2812 0.84375 0.03125-0.10938 0.15625-0.60938 0.20312-0.78125 0.0625-0.26562 0.17188-0.73438 0.17188-0.78125 0-0.17188-0.10938-0.26562-0.28125-0.26562-0.03125 0-0.3125 0-0.40625 0.35938z"/>
</g>
</defs>
<g transform="translate(-149.26 -130.36)">
<use x="148.71201" y="134.765" xlink:href="#a"/>
</g>
</svg>
