<?xml version="1.0" encoding="UTF-8"?>
<svg fill="#000000" version="1.1" viewBox="0 0 6.625 10.75" xmlns="http://www.w3.org/2000/svg" xmlns:xlink="http://www.w3.org/1999/xlink">
<defs>
<g id="a">
<path d="m3.9062 1.4375c0.54688 0.45312 1 0.8125 1.625 0.8125 1.0469 0 1.6562-1.0625 1.6562-1.9844 0-0.23438-0.0625-0.32812-0.14062-0.32812-0.125 0-0.14062 0.23438-0.14062 0.29688-0.03125 0.85938-0.65625 1.4531-1.375 1.4531-0.53125 0-0.9375-0.26562-1.3906-0.65625l1.0312-1.9062c0.09375-0.14062 0.09375-0.15625 0.09375-0.20312 0-0.09375-0.078125-0.20312-0.20312-0.20312s-0.14062 0.046875-0.25 0.26562l-0.96875 1.7656c-0.54688-0.45312-1-0.8125-1.625-0.8125-1.0469 0-1.6562 1.0625-1.6562 1.9844 0 0.23438 0.0625 0.32812 0.14062 0.32812 0.10938 0 0.14062-0.20312 0.14062-0.23438 0.046875-1.1406 0.84375-1.5312 1.375-1.5312 0.51562 0 0.9375 0.28125 1.3906 0.67188l-1.0312 1.8906c-0.09375 0.15625-0.09375 0.17188-0.09375 0.21875 0 0.09375 0.0625 0.1875 0.20312 0.1875 0.10938 0 0.14062-0.03125 0.25-0.25zm0.125-5.8438c-1.0938 0.20312-2.2656 0.625-2.8281 1.5625-0.20312 0.3125-0.375 0.75-0.375 1.1094 0 0.14062 0.09375 0.20312 0.20312 0.20312 0.17188 0 0.1875-0.10938 0.21875-0.35938 0.35938-2.1406 3.6094-2.3125 5.375-2.3125 0.10938 0 0.29688 0 0.29688-0.20312 0-0.078125-0.046875-0.125-0.078125-0.15625-0.03125-0.015625-0.0625-0.03125-0.078125-0.03125-0.015625-0.015625-0.03125-0.015625-0.34375-0.015625-0.54688 0-0.5625 0-1.2031-0.046875-2.5-0.20312-3.7656-0.95312-3.9844-2.4062-0.015625-0.0625-0.03125-0.23438-0.20312-0.23438-0.10938 0-0.20312 0.078125-0.20312 0.20312 0 0.03125 0.03125 1.0469 0.95312 1.7656 0.57812 0.46875 1.3125 0.75 2.25 0.92188z"/>
</g>
</defs>
<g transform="translate(-149.27 -127.47)">
<use x="148.71201" y="134.765" xlink:href="#a"/>
</g>
</svg>
