<?xml version="1.0" encoding="UTF-8"?>
<svg fill="#000000" version="1.1" viewBox="0 0 5.7344 9.625" xmlns="http://www.w3.org/2000/svg" xmlns:xlink="http://www.w3.org/1999/xlink">
<defs>
<g id="a">
<path d="m1.6875-0.98438c-0.14062 0-0.23438 0.10938-0.23438 0.23438 0 0.078125 0.03125 0.14062 0.078125 0.1875 0.84375 0.70312 1.5938 1.5625 1.7812 2.6406 0.015625 0.10938 0.10938 0.1875 0.21875 0.1875 0.125 0 0.21875-0.078125 0.23438-0.1875 0.1875-1.0781 0.9375-1.9375 1.7812-2.6406 0.046875-0.046875 0.078125-0.10938 0.078125-0.1875 0-0.125-0.09375-0.23438-0.23438-0.23438-0.10938 0-0.29688 0.17188-0.71875 0.64062v-3.8906l1.625-0.57812c0.0625-0.03125 0.10938-0.078125 0.10938-0.15625 0-0.10938-0.10938-0.17188-0.20312-0.14062l-1.5312 0.57812v-2.5938c0-0.125-0.10938-0.23438-0.23438-0.23438s-0.23438 0.10938-0.23438 0.23438v2.75l-1.3281 0.48438v-3.2344c0-0.125-0.10938-0.23438-0.21875-0.23438-0.14062 0-0.23438 0.10938-0.23438 0.23438v3.3906l-1.6406 0.60938c-0.0625 0.015625-0.10938 0.078125-0.10938 0.14062 0 0.10938 0.10938 0.17188 0.20312 0.14062l1.5469-0.5625v3.0625c-0.29688-0.32812-0.59375-0.64062-0.73438-0.64062zm2.5156-3.0781v4.2188c-0.20312 0.23438-0.42188 0.45312-0.67188 0.65625-0.23438-0.20312-0.4375-0.42188-0.65625-0.65625v-3.7188z"/>
</g>
</defs>
<g transform="translate(-149.38 -127.41)">
<use x="148.71201" y="134.765" xlink:href="#a"/>
</g>
</svg>
