<?xml version="1.0" encoding="UTF-8"?>
<svg fill="#000000" version="1.1" viewBox="0 0 6.0938 5.7656" xmlns="http://www.w3.org/2000/svg" xmlns:xlink="http://www.w3.org/1999/xlink">
<defs>
<g id="a">
<path d="m5.9375-2.5c0-0.32812-0.28125-0.625-0.64062-0.625-0.32812 0-0.625 0.26562-0.625 0.625 0 0.375 0.29688 0.64062 0.625 0.64062 0.35938 0 0.64062-0.29688 0.64062-0.64062zm0.78125-2.4531c0.15625-0.078125 0.20312-0.14062 0.20312-0.21875 0-0.14062-0.125-0.20312-0.20312-0.20312-0.046875 0-0.09375 0.015625-0.15625 0.046875l-5.5469 2.6094c-0.125 0.0625-0.1875 0.10938-0.1875 0.21875 0 0.14062 0.078125 0.17188 0.20312 0.23438l5.5156 2.5938c0.10938 0.046875 0.125 0.0625 0.17188 0.0625 0.078125 0 0.20312-0.0625 0.20312-0.20312 0-0.125-0.078125-0.14062-0.20312-0.20312l-5.2188-2.4844z"/>
</g>
</defs>
<g transform="translate(-149.54 -129.39)">
<use x="148.71201" y="134.765" xlink:href="#a"/>
</g>
</svg>
