<?xml version="1.0" encoding="UTF-8"?>
<svg fill="#000000" version="1.1" viewBox="0 0 3.8594 8.6562" xmlns="http://www.w3.org/2000/svg" xmlns:xlink="http://www.w3.org/1999/xlink">
<defs>
<g id="a">
<path d="m4.4219-2.1719c0-0.125 0-0.51562-0.39062-0.51562-0.40625 0-0.40625 0.42188-0.40625 0.5625v0.84375c0 0.21875 0 0.375-0.32812 0.54688-0.26562 0.125-0.57812 0.15625-0.79688 0.15625s-0.5-0.03125-0.76562-0.14062c-0.375-0.17188-0.375-0.34375-0.375-0.5625v-5.6562c0-0.21875 0-0.375 0.32812-0.54688 0.26562-0.125 0.57812-0.15625 0.8125-0.15625 0.20312 0 0.48438 0.03125 0.75 0.14062 0.375 0.15625 0.375 0.34375 0.375 0.5625v0.84375c0 0.14062 0 0.54688 0.40625 0.54688 0.39062 0 0.39062-0.375 0.39062-0.5v-0.96875c0-1.1406-1.1875-1.4219-1.9219-1.4219-0.75 0-1.9375 0.29688-1.9375 1.4219v5.7969c0 1.1562 1.1875 1.4375 1.9375 1.4375 0.73438 0 1.9219-0.29688 1.9219-1.4375z"/>
</g>
</defs>
<g transform="translate(-149.27 -126.33)">
<use x="148.71201" y="134.765" xlink:href="#a"/>
</g>
</svg>
