<?xml version="1.0" encoding="UTF-8"?>
<svg fill="#000000" version="1.1" viewBox="0 0 5.375 4.7812" xmlns="http://www.w3.org/2000/svg" xmlns:xlink="http://www.w3.org/1999/xlink">
<defs>
<g id="a">
<path d="m5.1406-4.9219-4.3438 2.1719c-0.078125 0.03125-0.125 0.10938-0.125 0.20312s0.046875 0.17188 0.125 0.20312l4.3438 2.1719c0.015625 0.015625 0.0625 0.015625 0.09375 0.015625 0.078125 0 0.15625-0.03125 0.20312-0.10938 0.40625-0.71875 0.60938-1.5 0.60938-2.2812s-0.20312-1.5625-0.60938-2.2812c-0.046875-0.078125-0.125-0.10938-0.20312-0.10938-0.03125 0-0.078125 0-0.09375 0.015625zm-3.7188 2.375 3.7188-1.8594c0.29688 0.57812 0.4375 1.2188 0.4375 1.8594s-0.14062 1.2812-0.4375 1.8594z"/>
</g>
</defs>
<g transform="translate(-149.38 -129.83)">
<use x="148.71201" y="134.765" xlink:href="#a"/>
</g>
</svg>
