<?xml version="1.0" encoding="UTF-8"?>
<svg fill="#000000" version="1.1" viewBox="0 0 3.2812 4.4062" xmlns="http://www.w3.org/2000/svg" xmlns:xlink="http://www.w3.org/1999/xlink">
<defs>
<g id="a">
<path d="m3.4844-1.7344c-0.21875 0.78125-0.75 1.4219-1.7031 1.4219h-0.3125c-0.1875 0-0.32812 0-0.32812 0.17188 0 0.14062 0.10938 0.14062 0.3125 0.14062h0.34375c1.2812 0 2.625-0.98438 2.625-2.5156 0-1.1094-0.75-1.8906-1.7969-1.8906-0.64062 0-1.2969 0.39062-1.2969 0.51562 0 0.046875 0.03125 0.125 0.09375 0.125 0.046875 0 0.0625 0 0.10938-0.03125 0.23438-0.15625 0.625-0.39062 1.0781-0.39062 0.40625 0 1.0625 0.25 1.0625 1.3125 0 0.14062 0 0.35938-0.10938 0.82812h-1.6562c-0.15625 0-0.32812 0-0.32812 0.17188 0 0.14062 0.10938 0.14062 0.29688 0.14062z"/>
</g>
</defs>
<g transform="translate(-149.85 -130.36)">
<use x="148.71201" y="134.765" xlink:href="#a"/>
</g>
</svg>
