<?xml version="1.0" encoding="UTF-8"?>
<svg fill="#000000" version="1.1" viewBox="0 0 5.0156 4.5296" xmlns="http://www.w3.org/2000/svg" xmlns:xlink="http://www.w3.org/1999/xlink">
<defs>
<g id="a">
<path d="m0.3125-4.3125v0.3125c0.14062 0 0.29688 0 0.4375 0.015625 0.078125 0.015625 0.15625 0.03125 0.23438 0.09375 0.10938 0.10938 0.10938 0.28125 0.10938 0.42188v0.96875h-0.42188c-0.078125 0-0.15625-0.015625-0.21875 0-0.09375 0.03125-0.10938 0.21875-0.03125 0.28125 0.046875 0.03125 0.14062 0.03125 0.20312 0.03125h0.46875v0.76562c0 0.39062 0.015625 0.78125 0.26562 1.0781 0.21875 0.26562 0.54688 0.375 0.875 0.42188 0.21875 0.03125 0.45312 0.046875 0.67188 0 0.4375-0.09375 0.82812-0.42188 0.96875-0.85938h0.015625v0.875l1.4375-0.10938v-0.29688c-0.14062 0-0.28125 0-0.42188-0.03125-0.078125 0-0.17188-0.03125-0.23438-0.09375-0.14062-0.125-0.10938-0.34375-0.10938-0.51562v-1.2344h0.42188c0.0625 0 0.15625 0 0.20312-0.015625 0.10938-0.03125 0.10938-0.20312 0.046875-0.26562-0.046875-0.046875-0.14062-0.03125-0.20312-0.03125h-0.46875v-1.9219l-1.4844 0.10938v0.3125c0.14062 0 0.29688 0 0.4375 0.015625 0.078125 0.015625 0.15625 0.03125 0.21875 0.09375 0.125 0.10938 0.125 0.28125 0.125 0.42188v0.96875h-2.0625v-1.9219zm1.4844 2.125h2.0625c0 0.26562 0.015625 0.53125-0.015625 0.79688-0.03125 0.29688-0.14062 0.60938-0.32812 0.84375-0.0625 0.078125-0.125 0.14062-0.20312 0.20312-0.26562 0.20312-0.57812 0.25-0.89062 0.20312-0.20312-0.03125-0.39062-0.10938-0.51562-0.28125-0.10938-0.17188-0.10938-0.45312-0.10938-0.65625z"/>
</g>
</defs>
<g transform="translate(-149.02 -130.34)">
<use x="148.71201" y="134.765" xlink:href="#a"/>
</g>
</svg>
