<?xml version="1.0" encoding="UTF-8"?>
<svg fill="#000000" version="1.1" viewBox="0 0 7.6719 8.0156" xmlns="http://www.w3.org/2000/svg" xmlns:xlink="http://www.w3.org/1999/xlink">
<defs>
<g id="a">
<path d="m8.1719 0v-0.65625h-4.2812l0.64062-0.5625-1.5156-0.9375v-1.6094l1.9531-1.5938-0.46875-0.46875-1.4844 1.25v-1.25h-0.65625v1.7812l-1.5781 1.2969 1.5781 0.95312v1.625l-0.8125 0.70312c-0.09375 0.09375-0.15625 0.10938-0.23438 0.10938-0.14062 0-0.1875-0.15625-0.20312-0.32812-0.015625-0.40625-0.046875-0.85938-0.15625-1.2344l-0.28125 0.015625c0.0625 0.40625 0.078125 0.82812 0.078125 1.25 0 0.26562 0 0.53125-0.03125 0.79688-0.046875 0.32812-0.10938 0.65625-0.21875 0.96875l0.0625 0.078125c0.9375-0.4375 1.8281-0.4375 2.9844-0.4375v-0.3125l-0.14062-0.015625c-0.21875-0.03125-0.35938-0.03125-0.40625-0.03125h-0.8125c-0.14062 0-0.25-0.09375-0.25-0.25 0-0.046875 0.046875-0.10938 0.09375-0.14062l1.125-1zm-5.8125-2.5625-0.46875-0.28125 0.46875-0.375zm1.0938 1.4219-0.4375 0.39062v-0.64062z"/>
</g>
</defs>
<g transform="translate(-149.21 -128.94)">
<use x="148.71201" y="134.765" xlink:href="#a"/>
</g>
</svg>
