<?xml version="1.0" encoding="UTF-8"?>
<svg fill="#000000" version="1.1" viewBox="0 0 5.2812 12.016" xmlns="http://www.w3.org/2000/svg" xmlns:xlink="http://www.w3.org/1999/xlink">
<defs>
<g id="a">
<path d="m6.2656-3.6094-1.7031-0.14062-0.046875 0.51562 0.76562 0.078125c-0.39062 0.29688-0.8125 0.54688-1.2656 0.64062v-4c0-0.76562 0.3125-1.5469 0.98438-1.5469 0.15625 0 0.32812 0.015625 0.48438 0.046875l0.17188-0.6875c-0.14062-0.046875-0.29688-0.046875-0.46875-0.046875-1.1562 0.03125-2.0312 1.0469-2.0312 2.2344v4c-0.65625-0.14062-1.25-0.57812-1.7344-1.0781l-0.4375 0.45312c0.60938 0.625 1.3438 1.125 2.1719 1.2656v2.875c0 0.78125-0.375 1.5625-1.0781 1.5625h-0.48438l0.09375 0.70312h0.0625c1.25 0 2.2656-1.0156 2.2656-2.2656v-2.875c0.59375-0.09375 1.1406-0.39062 1.6406-0.78125l-0.0625 0.71875 0.53125 0.046875z"/>
</g>
</defs>
<g transform="translate(-149.7 -126.02)">
<use x="148.71201" y="134.765" xlink:href="#a"/>
</g>
</svg>
