<?xml version="1.0" encoding="UTF-8"?>
<svg fill="#000000" version="1.1" viewBox="0 0 6.625 6.6094" xmlns="http://www.w3.org/2000/svg" xmlns:xlink="http://www.w3.org/1999/xlink">
<defs>
<g id="a">
<path d="m3.875 0.09375-1.9688-4.7344c0.53125-0.5 1.2344-0.76562 1.9688-0.76562 0.71875 0 1.4219 0.26562 1.9531 0.76562zm-2.3438-4.9219c-0.64062 0.60938-0.98438 1.4531-0.98438 2.3281 0 0.89062 0.34375 1.7344 0.98438 2.3438 0.60938 0.625 1.4531 0.96875 2.3438 0.96875 0.875 0 1.7188-0.34375 2.3281-0.96875 0.625-0.60938 0.96875-1.4531 0.96875-2.3438 0-0.875-0.34375-1.7188-0.96875-2.3281-0.60938-0.625-1.4531-0.96875-2.3281-0.96875-0.89062 0-1.7344 0.34375-2.3438 0.96875zm4.4062 4.4062c-0.48438 0.46875-1.1094 0.76562-1.7656 0.84375l1.9531-4.75c0.42188 0.51562 0.65625 1.1719 0.65625 1.8281 0 0.78125-0.3125 1.5156-0.84375 2.0781zm-4.9844-2.0781c0-0.65625 0.23438-1.3125 0.65625-1.8281l1.9531 4.75c-0.65625-0.078125-1.2812-0.375-1.7656-0.84375-0.54688-0.5625-0.84375-1.2969-0.84375-2.0781z"/>
</g>
</defs>
<g transform="translate(-149.26 -128.97)">
<use x="148.71201" y="134.765" xlink:href="#a"/>
</g>
</svg>
