<?xml version="1.0" encoding="UTF-8"?>
<svg fill="#000000" version="1.1" viewBox="0 0 4.7969 7.4375" xmlns="http://www.w3.org/2000/svg" xmlns:xlink="http://www.w3.org/1999/xlink">
<defs>
<g id="a">
<path d="m3.9844-6.4531-0.4375 1.6406c-0.09375 0-0.17188-0.015625-0.25-0.015625-0.92188 0-1.7656 0.40625-2.4062 1.0625l0.45312 0.45312c0.51562-0.51562 1.2031-0.875 1.9531-0.875 0.015625 0 0.046875 0.015625 0.078125 0.015625l-0.75 2.7812c-0.46875-0.14062-0.90625-0.42188-1.2656-0.78125h-0.015625l-0.45312 0.45312c0.4375 0.45312 0.98438 0.78125 1.5781 0.9375l-0.4375 1.5938 0.5625 0.17188 0.4375-1.6562c0.09375 0 0.17188 0.015625 0.26562 0.015625 0.90625 0 1.75-0.40625 2.3906-1.0625l-0.45312-0.45312c-0.51562 0.51562-1.2031 0.875-1.9375 0.875-0.03125 0-0.0625-0.015625-0.09375-0.015625l0.75-2.7812c0.46875 0.14062 0.90625 0.42188 1.2656 0.78125l0.46875-0.45312c-0.4375-0.45312-0.98438-0.78125-1.5781-0.9375l0.4375-1.5938z"/>
</g>
</defs>
<g transform="translate(-149.6 -128.31)">
<use x="148.71201" y="134.765" xlink:href="#a"/>
</g>
</svg>
