<?xml version="1.0" encoding="UTF-8"?>
<svg fill="#000000" version="1.1" viewBox="0 0 9.1562 3.2656" xmlns="http://www.w3.org/2000/svg" xmlns:xlink="http://www.w3.org/1999/xlink">
<defs>
<g id="a">
<path d="m9.6406-3.1875v-0.65625h-5.0781v0.65625zm0 1.9844v-0.65625h-5.0781v0.65625zm-5.8906-2.3281c0-0.35938-0.3125-0.625-0.625-0.625-0.32812 0-0.64062 0.25-0.64062 0.625 0 0.39062 0.25 0.64062 0.64062 0.64062 0.375 0 0.625-0.29688 0.625-0.64062zm-2 0c0-0.35938-0.3125-0.625-0.64062-0.625-0.3125 0-0.625 0.25-0.625 0.625 0 0.39062 0.25 0.64062 0.625 0.64062 0.39062 0 0.64062-0.29688 0.64062-0.64062zm2 2c0-0.40625-0.29688-0.625-0.64062-0.625-0.32812 0-0.625 0.23438-0.625 0.625 0 0.34375 0.29688 0.64062 0.625 0.64062 0.34375 0 0.64062-0.29688 0.64062-0.64062zm-2 0c0-0.40625-0.29688-0.625-0.64062-0.625-0.32812 0-0.625 0.23438-0.625 0.625 0 0.34375 0.29688 0.64062 0.625 0.64062 0.34375 0 0.64062-0.29688 0.64062-0.64062z"/>
</g>
</defs>
<g transform="translate(-149.2 -130.61)">
<use x="148.71201" y="134.765" xlink:href="#a"/>
</g>
</svg>
