<?xml version="1.0" encoding="UTF-8"?>
<svg fill="#000000" version="1.1" viewBox="0 0 6.3721 8.8455" xmlns="http://www.w3.org/2000/svg" xmlns:xlink="http://www.w3.org/1999/xlink">
<defs>
<g id="a">
<path d="m4.2656-5.8281h-3.1562c-0.0625 0-0.1875-0.03125-0.23438 0.03125-0.046875 0.03125-0.046875 0.078125-0.046875 0.125v0.20312 5.8906 0.25c0 0.046875 0 0.09375 0.046875 0.125 0.046875 0.046875 0.17188 0.03125 0.23438 0.03125h3.1562v0.67188c0 0.10938-0.015625 0.23438 0.015625 0.32812 0.03125 0.10938 0.14062 0.09375 0.21875 0.09375 0.03125 0 0.078125 0 0.125-0.03125 0.0625-0.0625 0.046875-0.20312 0.046875-0.28125v-0.78125h2.3125c0.046875 0 0.10938 0.015625 0.15625-0.015625 0.078125-0.0625 0.0625-0.21875 0.046875-0.29688s-0.09375-0.09375-0.15625-0.09375h-0.4375-1.9219v-1.1562h1.7656 0.32812c0.046875 0 0.10938 0 0.125-0.046875 0.046875-0.046875 0.03125-0.10938 0.03125-0.17188v-0.10938c-0.03125-0.0625-0.09375-0.078125-0.15625-0.078125h-0.39062-1.7031v-2.7344h1.7656 0.32812c0.046875 0 0.10938 0 0.125-0.03125 0.046875-0.046875 0.03125-0.125 0.03125-0.17188v-0.10938c-0.03125-0.0625-0.09375-0.078125-0.15625-0.078125h-0.39062-1.7031v-1.1719h1.9219 0.4375c0.0625 0 0.14062 0 0.15625-0.078125 0.015625-0.09375 0.03125-0.25-0.046875-0.29688-0.046875-0.03125-0.10938-0.015625-0.15625-0.015625h-2.3125v-0.79688c0-0.078125 0.015625-0.21875-0.046875-0.26562-0.046875-0.03125-0.09375-0.03125-0.125-0.03125-0.078125 0-0.1875-0.015625-0.21875 0.078125-0.03125 0.10938-0.015625 0.23438-0.015625 0.32812zm0 5.0938v1.1562h-3.0469v-5.8594h3.0469v1.1719h-1.6719c-0.046875 0-0.10938-0.015625-0.15625 0.03125-0.0625 0.03125-0.046875 0.125-0.046875 0.1875v3.0625c0 0.078125-0.015625 0.17188 0.046875 0.21875 0.046875 0.03125 0.10938 0.03125 0.15625 0.03125zm-1.4688-0.40625v-2.7344h1.4688v2.7344z"/>
</g>
</defs>
<g transform="translate(-149.54 -127.84)">
<use x="148.71201" y="134.765" xlink:href="#a"/>
</g>
</svg>
