<?xml version="1.0" encoding="UTF-8"?>
<svg fill="#000000" version="1.1" viewBox="0 0 4.4219 6.4219" xmlns="http://www.w3.org/2000/svg" xmlns:xlink="http://www.w3.org/1999/xlink">
<defs>
<g id="a">
<path d="m0.75-5.0781c-0.09375 0.046875-0.20312 0.10938-0.20312 0.21875s0.09375 0.20312 0.20312 0.20312c0.03125 0 0.0625 0 0.17188-0.0625l1-0.51562v4.8281h-1.0156c-0.15625 0-0.35938 0-0.35938 0.20312s0.20312 0.20312 0.35938 0.20312h3.7188c0.17188 0 0.34375 0 0.34375-0.20312s-0.17188-0.20312-0.34375-0.20312h-1.0312v-5.6562c0-0.17188 0-0.35938-0.1875-0.35938-0.03125 0-0.0625 0-0.17188 0.078125zm2.4531 4.6719h-0.875v-5.0312l0.875-0.45312z"/>
</g>
</defs>
<g transform="translate(-149.26 -128.34)">
<use x="148.71201" y="134.765" xlink:href="#a"/>
</g>
</svg>
