<?xml version="1.0" encoding="UTF-8"?>
<svg fill="#000000" width="3.0312" height="8.0938" version="1.1" viewBox="0 0 3.0312 8.0937" xmlns="http://www.w3.org/2000/svg" xmlns:xlink="http://www.w3.org/1999/xlink">
<defs>
<g id="a">
<path d="m4.2344 1.2812c0-0.28125-0.78125-0.5-0.9375-2.4219-0.015625-0.125-0.10938-0.21875-0.21875-0.21875-0.14062 0-0.25 0.10938-0.25 0.23438 0 0.3125 0.25 1.1094 0.3125 1.5781-0.92188-0.79688-1.4844-1.9688-1.4844-3.2188 0-1.5781 0.85938-2.7656 1.8281-3.4219 0.078125-0.03125 0.10938-0.10938 0.10938-0.1875 0-0.125-0.10938-0.21875-0.21875-0.21875-0.0625 0-0.09375 0-0.14062 0.03125-1.0781 0.70312-2.0312 2.0312-2.0312 3.7969 0 1.375 0.59375 2.6562 1.6094 3.5312-0.48438 0.078125-0.98438 0.10938-1.4531 0.23438-0.09375 0.015625-0.15625 0.10938-0.15625 0.21875 0 0.14062 0.10938 0.23438 0.21875 0.23438 0.046875 0 0.6875-0.20312 1.3438-0.20312 0.79688 0 1.0781 0.25 1.2344 0.25 0.10938 0 0.23438-0.10938 0.23438-0.21875z"/>
</g>
</defs>
<g transform="translate(-149.92 -128.17)">
<use x="148.71201" y="134.765" xlink:href="#a"/>
</g>
</svg>
