<?xml version="1.0" encoding="UTF-8"?>
<svg fill="#000000" width="4.0781" height="7.2188" version="1.1" viewBox="0 0 4.0781 7.2187" xmlns="http://www.w3.org/2000/svg" xmlns:xlink="http://www.w3.org/1999/xlink">
<defs>
<g id="a">
<path d="m2.625-4.3594c-1.2344 0.29688-2.2031 1.5938-2.2031 2.7969 0 0.96875 0.64062 1.6875 1.5781 1.6875 1.1562 0 1.9844-1.5781 1.9844-2.9531 0-0.90625-0.39062-1.4062-0.73438-1.8438-0.35938-0.45312-0.95312-1.2031-0.95312-1.6406 0-0.21875 0.20312-0.45312 0.54688-0.45312 0.3125 0 0.5 0.125 0.71875 0.26562 0.20312 0.125 0.39062 0.25 0.54688 0.25 0.25 0 0.39062-0.23438 0.39062-0.40625 0-0.21875-0.15625-0.23438-0.51562-0.32812-0.51562-0.10938-0.65625-0.10938-0.8125-0.10938-0.78125 0-1.1406 0.4375-1.1406 1.0312 0 0.54688 0.29688 1.0938 0.59375 1.7031zm0.125 0.21875c0.25 0.46875 0.54688 1 0.54688 1.7188 0 0.65625-0.375 2.3281-1.2969 2.3281-0.54688 0-0.96875-0.42188-0.96875-1.1875 0-0.625 0.375-2.5 1.7188-2.8594z"/>
</g>
</defs>
<g transform="translate(-149.13 -127.67)">
<use x="148.71201" y="134.765" xlink:href="#a"/>
</g>
</svg>
