<?xml version="1.0" encoding="UTF-8"?>
<svg fill="#000000" version="1.1" viewBox="0 0 5.8305 6.4558" xmlns="http://www.w3.org/2000/svg" xmlns:xlink="http://www.w3.org/1999/xlink">
<defs>
<g id="a">
<path d="m0.3125-4.3125v0.3125c0.15625 0 0.3125 0 0.46875 0.03125 0.09375 0.015625 0.1875 0.046875 0.25 0.125 0.0625 0.10938 0.0625 0.23438 0.0625 0.34375v2.7656c0 0.09375 0 0.20312-0.0625 0.28125-0.046875 0.078125-0.14062 0.10938-0.23438 0.10938-0.15625 0.03125-0.3125 0.03125-0.48438 0.03125v0.29688l0.4375-0.015625 0.92188-0.015625 0.90625 0.03125v-0.29688c-0.17188 0-0.32812 0-0.48438-0.03125-0.09375 0-0.1875-0.03125-0.23438-0.09375-0.078125-0.09375-0.0625-0.23438-0.0625-0.35938v-1.5c0-0.20312-0.015625-0.39062 0.015625-0.57812 0.046875-0.3125 0.15625-0.59375 0.34375-0.82812 0.078125-0.09375 0.15625-0.17188 0.25-0.23438 0.10938-0.09375 0.23438-0.15625 0.375-0.20312 0.17188-0.0625 0.35938-0.078125 0.53125-0.03125 0.0625 0 0.10938 0.03125 0.15625 0.0625 0.39062 0.20312 0.39062 0.73438 0.39062 1.125v3.3438c0 0.15625 0 0.3125 0.015625 0.48438 0.03125 0.15625 0.09375 0.32812 0.17188 0.48438 0.14062 0.26562 0.34375 0.5 0.625 0.60938 0.3125 0.14062 0.70312 0.125 1.0156-0.03125 0.17188-0.078125 0.3125-0.21875 0.39062-0.39062 0.125-0.26562 0.078125-0.60938-0.21875-0.70312-0.0625-0.03125-0.125-0.03125-0.17188-0.03125-0.0625 0-0.10938 0-0.17188 0.03125-0.28125 0.09375-0.375 0.46875-0.20312 0.70312 0.078125 0.09375 0.17188 0.15625 0.29688 0.17188-0.17188 0.0625-0.34375 0.14062-0.53125 0.125-0.20312-0.03125-0.32812-0.17188-0.39062-0.34375-0.125-0.29688-0.125-0.625-0.125-0.9375v-3.4688c0-0.32812-0.03125-0.65625-0.20312-0.95312-0.17188-0.3125-0.5-0.45312-0.84375-0.5-0.20312-0.03125-0.40625-0.03125-0.59375 0-0.40625 0.0625-0.76562 0.29688-0.98438 0.64062-0.078125 0.10938-0.15625 0.23438-0.1875 0.35938h-0.015625v-1.0312z"/>
</g>
</defs>
<g transform="translate(-149.02 -130.34)">
<use x="148.71201" y="134.765" xlink:href="#a"/>
</g>
</svg>
