<?xml version="1.0" encoding="UTF-8"?>
<svg fill="#000000" version="1.1" viewBox="0 0 4.9219 11.406" xmlns="http://www.w3.org/2000/svg" xmlns:xlink="http://www.w3.org/1999/xlink">
<defs>
<g id="a">
<path d="m5.3281-2.9531c-0.14062 0.21875-0.1875 0.40625-0.29688 0.60938-0.03125 0.046875-0.0625 0.125-0.14062 0.125-0.0625 0-0.078125-0.03125-0.10938-0.078125-0.21875-0.39062-0.42188-0.65625-0.82812-0.90625-0.25-0.15625-0.53125-0.25-0.82812-0.29688v-2.9375c0-0.5625 0.046875-1.4688 0.5625-1.4688 0.078125 0 0.125 0.03125 0.125 0.10938 0 0.09375-0.078125 0.10938-0.078125 0.28125 0 0.21875 0.14062 0.34375 0.35938 0.34375 0.23438 0 0.40625-0.1875 0.40625-0.42188 0-0.40625-0.29688-0.625-0.6875-0.625-1.125 0-1.4219 1.2656-1.4219 2.1719v2.5469c-1.0625 0.1875-1.8594 1.0938-1.8594 2.2031h0.39062c0-0.89062 0.625-1.6562 1.4688-1.8281v4.625c0 0.51562-0.03125 1.375-0.54688 1.375-0.0625 0-0.125-0.03125-0.125-0.10938s0.078125-0.10938 0.078125-0.26562c0-0.23438-0.14062-0.34375-0.34375-0.34375-0.25 0-0.42188 0.17188-0.42188 0.42188 0 0.40625 0.29688 0.60938 0.6875 0.60938 1.0781 0 1.4062-1.125 1.4062-2.0156v-4.2656c0.5 0.10938 1.0469 0.42188 1.2656 0.85938 0.015625 0.046875 0.0625 0.09375 0.0625 0.15625 0 0.078125-0.078125 0.10938-0.14062 0.10938s-0.59375-0.17188-0.75-0.20312l-0.03125 0.125c0.53125 0.15625 1.0469 0.375 1.4531 0.75l0.046875-0.03125c0-0.54688 0.1875-1.0781 0.42188-1.5625z"/>
</g>
</defs>
<g transform="translate(-149.24 -126.51)">
<use x="148.71201" y="134.72501" xlink:href="#a"/>
</g>
</svg>
