<?xml version="1.0" encoding="UTF-8"?>
<svg fill="#000000" version="1.1" viewBox="0 0 6.7031 7.5469" xmlns="http://www.w3.org/2000/svg" xmlns:xlink="http://www.w3.org/1999/xlink">
<defs>
<g id="a">
<path d="m7.0625-5.1562c0-1.25-0.71875-2.0781-1.7812-2.0781-0.59375 0-1.1094 0.32812-1.5625 1-0.5-0.70312-0.98438-1-1.5781-1-1.1094 0-1.7812 0.82812-1.7812 2.2656 0.28125 1.625 0.39062 2.0156 3.3594 5.2812 2.7656-3.0312 3.3438-3.9375 3.3438-5.4688zm-0.625 0.125c-0.046875 1.2656-0.70312 2.375-2.7188 4.5469-2.0625-2.1875-2.7188-3.3125-2.7188-4.5469 0-0.90625 0.54688-1.5625 1.2812-1.5625 0.48438 0 0.98438 0.35938 1.4375 1.0469 0.48438-0.71875 0.9375-1.0469 1.4219-1.0469 0.76562 0 1.2969 0.625 1.2969 1.5625z"/>
</g>
</defs>
<g transform="translate(-149.07 -127.53)">
<use x="148.71201" y="134.765" xlink:href="#a"/>
</g>
</svg>
