<?xml version="1.0" encoding="UTF-8"?>
<svg fill="#000000" width="6.4219" height="7.8438" version="1.1" viewBox="0 0 6.4219 7.8437" xmlns="http://www.w3.org/2000/svg" xmlns:xlink="http://www.w3.org/1999/xlink">
<defs>
<g id="a">
<path d="m4.0312-1.3281v-0.96875h0.96875c0.15625 0 0.29688-0.14062 0.29688-0.29688 0-0.17188-0.14062-0.3125-0.29688-0.3125h-0.96875v-0.95312c0-0.17188-0.125-0.29688-0.29688-0.29688s-0.3125 0.125-0.3125 0.29688v0.95312h-0.9375c-0.17188 0-0.3125 0.14062-0.3125 0.3125 0 0.15625 0.14062 0.29688 0.3125 0.29688h0.9375v0.96875c0 0.15625 0.14062 0.29688 0.3125 0.29688s0.29688-0.14062 0.29688-0.29688zm2.3125-5.3125v6.9375c0 0.17188 0.14062 0.29688 0.3125 0.29688 0.15625 0 0.29688-0.125 0.29688-0.29688v-7.2344c0-0.1875-0.14062-0.3125-0.29688-0.3125h-5.8281c-0.17188 0-0.29688 0.125-0.29688 0.3125v7.2344c0 0.17188 0.125 0.29688 0.29688 0.29688s0.3125-0.125 0.3125-0.29688v-6.9375z"/>
</g>
</defs>
<g transform="translate(-149.24 -128.29)">
<use x="148.71201" y="135.53999" xlink:href="#a"/>
</g>
</svg>
