<?xml version="1.0" encoding="UTF-8"?>
<svg fill="#000000" version="1.1" viewBox="0 0 4.6875 7.3594" xmlns="http://www.w3.org/2000/svg" xmlns:xlink="http://www.w3.org/1999/xlink">
<defs>
<g id="a">
<path d="m2.75-0.0625c-0.48438 0-0.85938-0.17188-1.1719-0.625-0.29688-0.45312-0.29688-0.90625-0.29688-1.5 0-0.53125 0-1 0.21875-1.4062 0.40625-0.75 0.98438-0.75 1.1875-0.75 1.0469 0 1.5469 1.0156 1.5469 1.8906 0 0.078125 0 0.17188-0.015625 0.23438 0 1.4375-0.65625 2.1562-1.4688 2.1562zm0.35938-6.0625c0.5 0.40625 1.1406 1.0938 1.1406 2.7188v0.015625c-0.10938-0.23438-0.51562-1.1719-1.5625-1.1719-0.53125 0-1.0469 0.14062-1.5156 0.60938-0.59375 0.57812-0.75 1.1094-0.75 1.7656 0 0.28125 0 1 0.64062 1.6562 0.32812 0.32812 0.78125 0.75 1.6719 0.75 1.1875 0 2.375-0.92188 2.375-3.5938 0-0.28125 0-0.95312-0.4375-1.7188-0.20312-0.32812-0.54688-0.8125-1.1406-1.2188 0.29688-0.125 0.57812-0.25 0.875-0.39062v0.45312c0 0.125 0 0.20312 0.28125 0.20312s0.28125-0.0625 0.28125-0.28125v-0.45312c0-0.23438 0-0.29688-0.28125-0.29688-0.125 0-0.1875 0.03125-0.34375 0.09375l-1.0938 0.46875c-0.92188-0.5-1.7188-0.625-2.2969-0.625-0.14062 0-0.20312 0-0.20312 0.125s0.0625 0.125 0.15625 0.125c0.29688 0.015625 1.125 0.046875 1.9219 0.5625l-1.7031 0.73438v-0.48438c0-0.078125 0-0.17188-0.28125-0.17188s-0.28125 0.078125-0.28125 0.28125v0.46875c0 0.21875 0 0.28125 0.28125 0.28125 0.125 0 0.14062 0 0.29688-0.078125z"/>
</g>
</defs>
<g transform="translate(-149.13 -127.62)">
<use x="148.71201" y="134.765" xlink:href="#a"/>
</g>
</svg>
