<?xml version="1.0" encoding="UTF-8"?>
<svg fill="#000000" version="1.1" viewBox="0 0 3.3531 6.4685" xmlns="http://www.w3.org/2000/svg" xmlns:xlink="http://www.w3.org/1999/xlink">
<defs>
<g id="a">
<path d="m1.0469-4.4219c-0.0625 0.015625-0.125 0.03125-0.17188 0.0625-0.17188 0.0625-0.28125 0.20312-0.375 0.35938-0.125 0.23438-0.17188 0.51562-0.1875 0.78125 0 0.0625-0.015625 0.125-0.015625 0.20312 0 0.046875-0.015625 0.10938 0 0.17188 0.015625 0.078125 0.10938 0.10938 0.1875 0.0625 0.046875-0.03125 0.046875-0.078125 0.046875-0.14062 0.015625-0.09375 0.015625-0.1875 0.03125-0.28125 0.015625-0.17188 0.03125-0.35938 0.09375-0.53125 0.03125-0.14062 0.09375-0.26562 0.20312-0.35938 0.125-0.10938 0.3125-0.14062 0.45312-0.046875 0.078125 0.046875 0.14062 0.125 0.17188 0.20312 0.125 0.25 0.125 0.53125 0.125 0.8125v3.875c0 0.20312 0.015625 0.375 0.09375 0.5625 0.20312 0.45312 0.70312 0.79688 1.2031 0.71875 0.53125-0.09375 0.67188-0.71875 0.71875-1.1875v-0.20312c0.015625-0.046875 0.03125-0.125 0-0.17188-0.015625-0.078125-0.10938-0.10938-0.17188-0.0625-0.046875 0.015625-0.0625 0.078125-0.0625 0.125-0.015625 0.09375-0.015625 0.20312-0.015625 0.28125-0.03125 0.21875-0.0625 0.45312-0.14062 0.65625-0.046875 0.09375-0.09375 0.1875-0.17188 0.25-0.125 0.09375-0.29688 0.125-0.4375 0.046875-0.078125-0.046875-0.15625-0.125-0.1875-0.21875-0.10938-0.25-0.125-0.54688-0.125-0.8125v-3.8125c0-0.20312 0-0.39062-0.078125-0.57812-0.1875-0.46875-0.67188-0.8125-1.1875-0.76562z"/>
</g>
</defs>
<g transform="translate(-149 -128.4)">
<use x="148.71201" y="132.828" xlink:href="#a"/>
</g>
</svg>
