<?xml version="1.0" encoding="UTF-8"?>
<svg fill="#000000" version="1.1" viewBox="0 0 3.3906 3.3906" xmlns="http://www.w3.org/2000/svg" xmlns:xlink="http://www.w3.org/1999/xlink">
<defs>
<g id="a">
<path d="m4.1406-3.8906c0-0.17188-0.15625-0.3125-0.32812-0.3125-0.078125 0-0.15625 0.03125-0.21875 0.09375l-1.1562 1.1719-1.1719-1.1719c-0.046875-0.0625-0.125-0.09375-0.20312-0.09375-0.17188 0-0.3125 0.14062-0.3125 0.3125 0 0.09375 0.03125 0.15625 0.09375 0.21875l1.1562 1.1719-1.1562 1.1719c-0.0625 0.046875-0.09375 0.10938-0.09375 0.20312 0 0.17188 0.14062 0.3125 0.3125 0.3125 0.078125 0 0.15625-0.03125 0.21875-0.09375l1.1562-1.1719 1.1562 1.1719c0.078125 0.0625 0.14062 0.09375 0.21875 0.09375 0.17188 0 0.32812-0.14062 0.32812-0.3125 0-0.078125-0.046875-0.15625-0.10938-0.21875l-1.1562-1.1562 1.1562-1.1719c0.0625-0.0625 0.10938-0.125 0.10938-0.21875z"/>
</g>
</defs>
<g transform="translate(-149.46 -130.56)">
<use x="148.71201" y="134.765" xlink:href="#a"/>
</g>
</svg>
