<?xml version="1.0" encoding="UTF-8"?>
<svg fill="#000000" version="1.1" viewBox="0 0 7.7031 7.9531" xmlns="http://www.w3.org/2000/svg" xmlns:xlink="http://www.w3.org/1999/xlink">
<defs>
<g id="a">
<path d="m4.3125-5.9375c1.2656 0 2.2188 0.48438 2.2188 2.6406 0 0.625-0.046875 1.2656-0.29688 1.8438-0.3125 0.67188-0.95312 1.0781-1.6875 1.0781-0.9375 0-1.7031-0.39062-2.5625-0.65625-0.10938-0.046875-0.28125-0.09375-0.40625-0.09375 0.45312-0.34375 1.0312-0.89062 1.0312-1.4844 0-0.67188-0.96875-1.5625-0.96875-2.2188 0-0.35938 0.40625-0.73438 0.70312-0.95312l-0.20312-0.10938c-0.67188 0.39062-1.3438 1.0625-1.3438 1.7969 0 0.25 0.26562 0.51562 0.64062 1.0781 0.1875 0.28125 0.42188 0.60938 0.42188 0.95312 0 0.5-0.40625 0.85938-0.84375 1-0.32812 0.32812-0.625 0.6875-0.90625 1.0625l0.15625 0.15625c0.21875-0.3125 0.57812-0.53125 0.95312-0.53125s0.73438 0.20312 1.0625 0.32812c0.51562 0.20312 1.0469 0.3125 1.5938 0.3125 0.4375 0 0.84375-0.15625 1.2188-0.35938h0.015625c0.40625 0.375 1 0.625 1.5312 0.78125l1.1719-0.625v-0.26562c-0.21875 0.14062-0.46875 0.26562-0.75 0.26562-0.39062 0-0.76562-0.42188-1.0469-0.73438 0.17188-0.14062 0.34375-0.29688 0.51562-0.4375 0.6875-0.625 0.90625-1.8438 0.90625-2.875 0-1.3125-0.48438-2.4531-2.3906-2.6094-0.9375-0.078125-1.6406-0.10938-1.6406-0.42188 0-0.078125 0.046875-0.1875 0.10938-0.25h-0.17188l-0.57812 0.57812c-0.10938 0.10938-0.10938 0.23438-0.10938 0.3125 0 0.34375 0.48438 0.46875 0.79688 0.46875z"/>
</g>
</defs>
<g transform="translate(-148.82 -127.5)">
<use x="148.71201" y="134.765" xlink:href="#a"/>
</g>
</svg>
