<?xml version="1.0" encoding="UTF-8"?>
<svg fill="#000000" version="1.1" viewBox="0 0 3.3125 9.9844" xmlns="http://www.w3.org/2000/svg" xmlns:xlink="http://www.w3.org/1999/xlink">
<defs>
<g id="a">
<path d="m0.95312-6.3594c0.03125-0.40625 0.35938-0.71875 0.76562-0.71875 0.42188 0 0.78125 0.3125 0.78125 0.70312 0 2.4688-1.0938 4.8906-1.0938 6.875 0 1.2031 0.51562 2 2.25 2 0.10938 0 0.20312-0.09375 0.20312-0.20312s-0.09375-0.20312-0.20312-0.20312c-1.25 0-1.8594-0.48438-1.8594-1.6562 0-1.9375 1.0938-4.7812 1.0938-6.8125 0-0.64062-0.54688-1.1094-1.1719-1.1094-0.60938 0-1.125 0.48438-1.1719 1.0938 0 0.10938 0.078125 0.20312 0.1875 0.21875 0.10938 0 0.21875-0.078125 0.21875-0.1875z"/>
</g>
</defs>
<g transform="translate(-149.26 -127.28)">
<use x="148.71201" y="134.765" xlink:href="#a"/>
</g>
</svg>
