<?xml version="1.0" encoding="UTF-8"?>
<svg fill="#000000" version="1.1" viewBox="0 0 8.8438 6.6406" xmlns="http://www.w3.org/2000/svg" xmlns:xlink="http://www.w3.org/1999/xlink">
<defs>
<g id="a">
<path d="m8.6094-3.9531c-0.21875 0.20312-0.75 0.6875-1.0156 1.4531 0.26562 0.78125 0.79688 1.2656 1.0156 1.4688h-7.7188c-0.1875 0-0.32812 0-0.32812 0.20312s0.1875 0.20312 0.375 0.20312h7.6562c-0.23438 0.21875-0.70312 0.67188-1 1.4531h0.29688c0.29688-0.73438 0.76562-1.2812 1.5156-1.6562-0.57812-0.29688-1.1875-0.82812-1.5156-1.6719 0.35938-0.89062 0.98438-1.4062 1.5156-1.6406-0.76562-0.42188-1.2188-0.9375-1.5156-1.6719h-0.29688c0.29688 0.78125 0.76562 1.2344 1 1.4531h-7.6562c-0.1875 0-0.375 0-0.375 0.20312s0.14062 0.20312 0.32812 0.20312z"/>
</g>
</defs>
<g transform="translate(-149.27 -128.95)">
<use x="148.71201" y="134.765" xlink:href="#a"/>
</g>
</svg>
