<?xml version="1.0" encoding="UTF-8"?>
<svg fill="#000000" version="1.1" viewBox="0 0 12.156 6.2969" xmlns="http://www.w3.org/2000/svg" xmlns:xlink="http://www.w3.org/1999/xlink">
<defs>
<g id="a">
<path d="m6.1562-5.2188c0.14062-0.078125 0.20312-0.10938 0.20312-0.21875 0-0.14062-0.10938-0.20312-0.20312-0.20312-0.046875 0-0.0625 0.015625-0.17188 0.0625l-5.2344 2.8594c-0.125 0.078125-0.1875 0.10938-0.1875 0.21875 0 0.125 0.03125 0.14062 0.1875 0.23438l5.2188 2.8594c0.125 0.0625 0.15625 0.0625 0.1875 0.0625 0.14062 0 0.20312-0.10938 0.20312-0.20312 0-0.10938-0.0625-0.14062-0.20312-0.21875l-4.9844-2.7344zm6.3594 0c0.14062-0.078125 0.20312-0.10938 0.20312-0.21875 0-0.14062-0.10938-0.20312-0.20312-0.20312-0.04687 0-0.0625 0.015625-0.17188 0.0625l-5.2344 2.8594c-0.125 0.078125-0.1875 0.10938-0.1875 0.21875 0 0.125 0.03125 0.14062 0.20312 0.23438l5.2031 2.8594c0.125 0.0625 0.15625 0.0625 0.1875 0.0625 0.14062 0 0.20312-0.10938 0.20312-0.20312 0-0.10938-0.0625-0.14062-0.20312-0.21875l-4.9844-2.7344zm-3.1719 0c0.125-0.078125 0.20312-0.10938 0.20312-0.21875 0-0.14062-0.10938-0.20312-0.20312-0.20312-0.046875 0-0.078125 0.015625-0.1875 0.0625l-5.2344 2.8594c-0.10938 0.078125-0.1875 0.10938-0.1875 0.21875 0 0.125 0.046875 0.14062 0.20312 0.23438l5.2188 2.8594c0.10938 0.0625 0.15625 0.0625 0.1875 0.0625 0.14062 0 0.20312-0.10938 0.20312-0.20312 0-0.10938-0.078125-0.14062-0.20312-0.21875l-4.9844-2.7344z"/>
</g>
</defs>
<g transform="translate(-149.27 -129.12)">
<use x="148.71201" y="134.765" xlink:href="#a"/>
</g>
</svg>
