<?xml version="1.0" encoding="UTF-8"?>
<svg fill="#000000" version="1.1" viewBox="0 0 6.3688 8.8504" xmlns="http://www.w3.org/2000/svg" xmlns:xlink="http://www.w3.org/1999/xlink">
<defs>
<g id="a">
<path d="m5.2969-5.8125c-0.046875-0.015625-0.125-0.015625-0.1875-0.015625-0.03125 0-0.078125 0-0.10938 0.03125-0.0625 0.0625-0.046875 0.14062-0.046875 0.20312v0.29688c0 0.0625 0.015625 0.125-0.015625 0.17188 0 0.0625-0.03125 0.10938-0.0625 0.15625l-0.125 0.25c-0.14062 0.28125-0.28125 0.54688-0.40625 0.82812l-0.14062 0.28125c-0.015625 0.046875-0.03125 0.09375-0.09375 0.10938-0.078125 0.03125-0.17188 0.015625-0.25 0.015625h-3c-0.078125 0-0.20312-0.03125-0.26562 0.03125-0.046875 0.046875-0.03125 0.14062-0.03125 0.20312v0.09375c0.015625 0.03125 0.03125 0.046875 0.0625 0.0625 0.0625 0.015625 0.125 0 0.1875 0h3.1406c-0.17188 0.28125-0.29688 0.57812-0.4375 0.875-0.03125 0.0625-0.0625 0.14062-0.10938 0.20312-0.015625 0.046875-0.03125 0.078125-0.0625 0.09375-0.0625 0.015625-0.14062 0.015625-0.20312 0.015625h-2.3438c-0.0625 0-0.15625-0.03125-0.20312 0.03125-0.03125 0.03125-0.03125 0.09375-0.03125 0.14062 0 0.0625-0.015625 0.125 0.03125 0.17188 0.03125 0.046875 0.078125 0.046875 0.14062 0.046875h0.28125 2.1406c-0.15625 0.35938-0.32812 0.70312-0.51562 1.0469-0.26562 0.53125-0.51562 1.0625-0.78125 1.5781l-0.21875 0.45312c-0.046875 0.078125-0.09375 0.15625-0.10938 0.23438-0.015625 0.14062 0.14062 0.125 0.21875 0.125 0.046875 0 0.078125 0 0.10938-0.015625 0.078125-0.015625 0.125-0.125 0.15625-0.20312 0.10938-0.20312 0.20312-0.40625 0.3125-0.60938 0.29688-0.625 0.60938-1.25 0.90625-1.8594 0.09375-0.17188 0.17188-0.34375 0.25-0.51562 0.03125-0.0625 0.078125-0.17188 0.14062-0.21875 0.03125-0.015625 0.0625-0.015625 0.10938-0.015625h1.2188v1.9531c0 0.09375-0.015625 0.17188 0 0.26562 0.015625 0.10938 0.125 0.10938 0.21875 0.10938 0.046875 0 0.10938 0 0.15625-0.03125 0.03125-0.046875 0.03125-0.09375 0.03125-0.14062v-5.4688c0-0.0625-0.015625-0.10938 0-0.17188 0-0.046875 0.03125-0.10938 0.0625-0.15625 0.046875-0.078125 0.078125-0.14062 0.10938-0.23438 0.15625-0.34375 0.34375-0.67188 0.51562-1.0156 0.046875-0.10938 0.10938-0.21875 0.15625-0.32812 0.03125-0.046875 0.03125-0.10938-0.015625-0.15625-0.03125-0.03125-0.078125-0.03125-0.10938-0.03125-0.09375 0-0.1875-0.03125-0.25 0.046875-0.03125 0.03125-0.046875 0.09375-0.0625 0.125-0.046875 0.09375-0.078125 0.17188-0.14062 0.26562l-0.20312 0.40625c-0.03125 0.09375-0.09375 0.17188-0.125 0.26562zm1.2969 0c-0.046875 0.015625-0.0625 0.078125-0.0625 0.125v0.25 6.0781c0 0.03125 0 0.078125 0.015625 0.10938 0.046875 0.078125 0.125 0.0625 0.20312 0.0625h0.09375c0.046875-0.015625 0.078125-0.0625 0.078125-0.10938 0.015625-0.078125 0-0.17188 0-0.26562v-6.0625-0.125c-0.046875-0.078125-0.14062-0.078125-0.21875-0.078125-0.03125 0-0.078125 0-0.10938 0.015625zm-2 2.3281 0.26562-0.53125 0.078125-0.20312h0.015625v0.73438zm-0.78125 1.5781 0.53125-1.0625 0.0625-0.10938 0.15625-0.015625h0.39062v1.1875z"/>
</g>
</defs>
<g transform="translate(-149.27 -127.84)">
<use x="148.71201" y="134.765" xlink:href="#a"/>
</g>
</svg>
