<?xml version="1.0" encoding="UTF-8"?>
<svg fill="#000000" version="1.1" viewBox="0 0 4.3125 10.094" xmlns="http://www.w3.org/2000/svg" xmlns:xlink="http://www.w3.org/1999/xlink">
<defs>
<g id="a">
<path d="m4.6406-1.8906c-0.03125 0-0.078125 0.015625-0.10938 0.03125l-2.1875 1.2656 0.39062-1.4844 2.0312-1.1562c0.0625-0.046875 0.10938-0.10938 0.10938-0.20312s-0.046875-0.15625-0.10938-0.20312l-1.3906-0.79688 0.79688-2.9688c0.03125-0.09375-0.03125-0.1875-0.14062-0.1875-0.0625 0-0.125 0.03125-0.14062 0.10938l-0.78125 2.8906-2.2188-1.2656c-0.015625-0.015625-0.0625-0.03125-0.10938-0.03125-0.10938 0-0.21875 0.09375-0.21875 0.23438 0 0.0625 0.03125 0.14062 0.10938 0.1875l2.3125 1.3281-0.4375 1.6406-1.875 1.0938c-0.078125 0.046875-0.10938 0.125-0.10938 0.20312 0 0.125 0.10938 0.21875 0.21875 0.21875 0.046875 0 0.09375 0 0.10938-0.015625l1.4844-0.85938-0.39062 1.4844-1.3125 0.75c-0.078125 0.046875-0.10938 0.125-0.10938 0.20312 0 0.125 0.10938 0.21875 0.21875 0.21875 0.046875 0 0.09375-0.015625 0.10938-0.03125l0.92188-0.53125-0.5625 2.0781c-0.015625 0.09375 0.046875 0.1875 0.15625 0.1875 0.0625 0 0.125-0.03125 0.14062-0.10938l0.64062-2.3594 2.5781-1.4844c0.0625-0.046875 0.10938-0.125 0.10938-0.20312 0-0.125-0.10938-0.23438-0.23438-0.23438zm-1.7344-0.8125 0.34375-1.2812 0.9375 0.54688z"/>
</g>
</defs>
<g transform="translate(-149.27 -127.17)">
<use x="148.71201" y="134.765" xlink:href="#a"/>
</g>
</svg>
