<?xml version="1.0" encoding="UTF-8"?>
<svg fill="#000000" version="1.1" viewBox="0 0 5.7344 10.922" xmlns="http://www.w3.org/2000/svg" xmlns:xlink="http://www.w3.org/1999/xlink">
<defs>
<g id="a">
<path d="m1.0625-5.2656c0 0.1875 0.48438 1.1562 1.5625 1.3906l-0.32812 1.8438c-0.10938 0.70312-0.39062 2.4219-1.0625 2.4219-0.125 0-0.25-0.046875-0.35938-0.14062-0.03125-0.1875-0.17188-0.25-0.29688-0.25-0.15625 0-0.3125 0.14062-0.3125 0.3125 0 0.078125 0.046875 0.15625 0.09375 0.20312 0.26562 0.1875 0.5625 0.29688 0.85938 0.29688 1.25 0 1.5938-1.5 1.8281-2.8438l0.3125-1.7812c1.2031-0.125 1.8438-1.2031 1.8438-1.4531 0-0.125-0.09375-0.23438-0.23438-0.23438-0.078125 0-0.15625 0.0625-0.20312 0.14062-0.23438 0.5625-0.73438 0.96875-1.3281 1.0625l0.53125-2.9844c0.125-0.6875 0.39062-2.4062 1.0781-2.4062 0.125 0 0.25 0.046875 0.34375 0.125 0.03125 0.1875 0.1875 0.26562 0.29688 0.26562 0.17188 0 0.3125-0.14062 0.3125-0.3125 0-0.34375-0.67188-0.5-0.95312-0.5-1.2344 0-1.5781 1.5-1.8125 2.8281l-0.51562 2.9688c-0.54688-0.14062-1-0.51562-1.2188-1.0469-0.03125-0.078125-0.10938-0.14062-0.20312-0.14062-0.14062 0-0.23438 0.10938-0.23438 0.23438z"/>
</g>
</defs>
<g transform="translate(-148.98 -126.76)">
<use x="148.71201" y="136.868" xlink:href="#a"/>
</g>
</svg>
