<?xml version="1.0" encoding="UTF-8"?>
<svg fill="#000000" version="1.1" viewBox="0 0 5.5625 8.1562" xmlns="http://www.w3.org/2000/svg" xmlns:xlink="http://www.w3.org/1999/xlink">
<defs>
<g id="a">
<path d="m5.3906-6.5938h-0.53125l-0.625 1.4062c-0.21875-0.0625-0.46875-0.10938-0.71875-0.10938h-2.875v0.65625h2.875c0.15625 0 0.3125 0.03125 0.45312 0.0625l-1.8125 4.1719h-1.5156v0.65625h1.2188l-0.5625 1.3125h0.53125l0.57812-1.3125h1.1406c1.5938 0 2.6562-1.3125 2.6562-2.7812 0-1.0625-0.57812-2.0312-1.5-2.5zm-2.7031 6.1875 1.7344-3.9844c0.67188 0.35938 1.125 1.0938 1.125 1.8594 0 1.0625-0.90625 2.125-2.0312 2.125z"/>
</g>
</defs>
<g transform="translate(-149.35 -128.17)">
<use x="148.71201" y="134.765" xlink:href="#a"/>
</g>
</svg>
