<?xml version="1.0" encoding="UTF-8"?>
<svg fill="#000000" version="1.1" viewBox="0 0 9.1094 9.1094" xmlns="http://www.w3.org/2000/svg" xmlns:xlink="http://www.w3.org/1999/xlink">
<defs>
<g id="a">
<path d="m8.4688 1.2812c-0.17188-0.03125-0.40625-0.0625-0.57812-0.0625-0.20312 0-0.6875 0.03125-1.2656 0.23438-0.078125 0.03125-0.8125 0.34375-0.8125 0.5 0 0.078125 0.15625 0.23438 0.23438 0.23438 0.03125 0 0.0625-0.015625 0.125-0.046875 0.78125-0.53125 1.4688-0.53125 1.7188-0.53125 0.60938 0 1.0625 0.17188 1.2969 0.28125 0.046875 0.015625 0.078125 0.03125 0.10938 0.03125 0.046875 0 0.10938-0.015625 0.10938-0.09375 0-0.03125 0-0.046875-0.03125-0.125-0.14062-0.26562-0.28125-0.70312-0.28125-1.2812 0-0.42188 0.0625-1.0156 0.51562-1.7344 0.046875-0.0625 0.046875-0.078125 0.046875-0.125 0-0.0625-0.15625-0.23438-0.21875-0.23438-0.14062 0-0.42188 0.625-0.5 0.8125-0.21875 0.5625-0.23438 1.0312-0.23438 1.2656 0 0.32812 0 0.32812 0.046875 0.57812l-7.7812-7.7656c-0.125-0.125-0.14062-0.14062-0.21875-0.14062-0.125 0-0.20312 0.09375-0.20312 0.1875 0 0.078125 0.015625 0.10938 0.15625 0.23438z"/>
</g>
</defs>
<g transform="translate(-149.26 -127.84)">
<use x="148.71201" y="134.765" xlink:href="#a"/>
</g>
</svg>
