<?xml version="1.0" encoding="UTF-8"?>
<svg fill="#000000" version="1.1" viewBox="0 0 6.4844 6.9844" xmlns="http://www.w3.org/2000/svg" xmlns:xlink="http://www.w3.org/1999/xlink">
<defs>
<g id="a">
<path d="m3.0938-1.2188h4.0781c0.15625 0 0.3125-0.14062 0.3125-0.3125 0-0.15625-0.15625-0.29688-0.3125-0.29688h-4.0781v-1.3281h4.0781c0.15625 0 0.3125-0.14062 0.3125-0.29688 0-0.17188-0.15625-0.3125-0.3125-0.3125h-4.0781v-1.9219c0-0.15625-0.14062-0.29688-0.29688-0.29688-0.17188 0-0.29688 0.14062-0.29688 0.29688v6.3906c0 0.15625 0.125 0.29688 0.29688 0.29688 0.15625 0 0.29688-0.14062 0.29688-0.29688zm-1.5 1.9219v-6.3906c0-0.15625-0.14062-0.29688-0.29688-0.29688s-0.29688 0.14062-0.29688 0.29688v6.3906c0 0.15625 0.14062 0.29688 0.29688 0.29688s0.29688-0.14062 0.29688-0.29688z"/>
</g>
</defs>
<g transform="translate(-149.71 -128.78)">
<use x="148.71201" y="134.765" xlink:href="#a"/>
</g>
</svg>
