<?xml version="1.0" encoding="UTF-8"?>
<svg fill="#000000" version="1.1" viewBox="0 0 7.4844 5" xmlns="http://www.w3.org/2000/svg" xmlns:xlink="http://www.w3.org/1999/xlink">
<defs>
<g id="a">
<path d="m1.6719-3.75v-0.4375c0-0.015625-0.32812-0.34375-0.5-0.51562l-1.1094 0.92188 0.125 0.125 0.4375-0.23438 0.25 0.25c0.03125 0.625 0.046875 1.25 0.046875 1.875 0 0.39062-0.03125 0.78125-0.078125 1.1875l0.48438 0.79688 0.82812-0.70312c-0.5-0.625-0.48438-0.5625-0.48438-1.0312v-1.9688l0.60938-0.40625c0.34375 0.078125 0.79688 0.21875 1.0469 0.4375 0.046875 0.32812 0.046875 0.65625 0.046875 0.98438 0 1.2031-0.046875 1.625-0.14062 2.0156 0.1875 0.1875 0.42188 0.45312 0.54688 0.71875l0.85938-0.73438c-0.4375-0.5625-0.5-0.70312-0.5-0.875v-2.1719c0.20312-0.14062 0.42188-0.26562 0.64062-0.375 0.29688 0.078125 0.95312 0.21875 1 0.48438 0.015625 0.17188 0.03125 0.42188 0.03125 0.67188 0 1.3906-0.046875 1.7188-0.10938 2.1406 0.20312 0.25 0.48438 0.59375 0.59375 0.78125l1.25-1.0625-0.125-0.17188c-0.1875 0.15625-0.26562 0.1875-0.46875 0.26562-0.14062-0.14062-0.25-0.3125-0.35938-0.46875v-1.2188c0-0.5625 0-1.125 0.03125-1.7031-0.35938-0.09375-0.8125-0.34375-1.2031-0.54688-0.40625 0.32812-0.84375 0.64062-1.2812 0.9375v-0.39062c-0.42188-0.14062-0.82812-0.32812-1.2031-0.5625z"/>
</g>
</defs>
<g transform="translate(-148.77 -130.03)">
<use x="148.71201" y="134.765" xlink:href="#a"/>
</g>
</svg>
