<?xml version="1.0" encoding="UTF-8"?>
<svg fill="#000000" version="1.1" viewBox="0 0 9.3906 6.9219" xmlns="http://www.w3.org/2000/svg" xmlns:xlink="http://www.w3.org/1999/xlink">
<defs>
<g id="a">
<path d="m1.7656-4.4688c0.26562 0 0.53125 0.10938 0.71875 0.29688s0.28125 0.4375 0.28125 0.71875c0 0.26562-0.09375 0.51562-0.28125 0.71875-0.1875 0.1875-0.45312 0.28125-0.71875 0.28125s-0.53125-0.09375-0.71875-0.28125c-0.1875-0.20312-0.29688-0.45312-0.29688-0.71875 0-0.28125 0.10938-0.53125 0.29688-0.71875s0.45312-0.29688 0.71875-0.29688zm3.7812-2.0469c1.0469 0 2.0625 0.35938 2.875 1.0156 0.03125 0.03125 0.078125 0.03125 0.125 0.03125 0.10938 0 0.20312-0.078125 0.20312-0.1875 0-0.0625-0.03125-0.125-0.078125-0.17188-0.89062-0.70312-1.9844-1.0938-3.125-1.0938-2.5156 0-5.2031 1.0625-5.2031 3.4688 0 0.35938 0.15625 0.71875 0.42188 0.98438s0.625 0.42188 1 0.42188 0.73438-0.15625 1-0.42188 0.42188-0.625 0.42188-0.98438c0-0.39062-0.15625-0.75-0.42188-1.0156-0.26562-0.25-0.625-0.40625-1-0.40625-0.23438 0-0.45312 0.0625-0.67188 0.17188 0.73438-1.2031 2.5625-1.8125 4.4531-1.8125zm2.7812 4.0625c-0.26562 0-0.53125-0.09375-0.71875-0.28125-0.1875-0.20312-0.29688-0.45312-0.29688-0.71875 0-0.28125 0.10938-0.53125 0.29688-0.71875s0.45312-0.29688 0.71875-0.29688 0.53125 0.10938 0.71875 0.29688 0.28125 0.4375 0.28125 0.71875c0 0.26562-0.09375 0.51562-0.28125 0.71875-0.1875 0.1875-0.45312 0.28125-0.71875 0.28125zm-3.7969 2.0469c-1.0469 0-2.0469-0.34375-2.8594-1.0156-0.046875-0.03125-0.09375-0.046875-0.125-0.046875-0.10938 0-0.21875 0.10938-0.21875 0.21875 0 0.046875 0.03125 0.10938 0.09375 0.14062 0.875 0.71875 1.9844 1.1094 3.1094 1.1094 2.5312 0 5.2031-1.0781 5.2031-3.4531 0-0.39062-0.14062-0.75-0.40625-1-0.28125-0.26562-0.64062-0.42188-1-0.42188-0.39062 0-0.73438 0.15625-1.0156 0.42188-0.25 0.25-0.40625 0.60938-0.40625 1 0 0.35938 0.15625 0.71875 0.42188 0.98438s0.60938 0.42188 1 0.42188c0.21875 0 0.45312-0.0625 0.65625-0.17188-0.73438 1.2031-2.5469 1.8125-4.4531 1.8125z"/>
</g>
</defs>
<g transform="translate(-149.06 -127.84)">
<use x="148.71201" y="134.765" xlink:href="#a"/>
</g>
</svg>
