<?xml version="1.0" encoding="UTF-8"?>
<svg fill="#000000" version="1.1" viewBox="0 0 4.25 9.625" xmlns="http://www.w3.org/2000/svg" xmlns:xlink="http://www.w3.org/1999/xlink">
<defs>
<g id="a">
<path d="m1.2031-1.9688v-0.015625c0.21875-0.046875 0.40625-0.10938 0.625-0.10938 0.54688 0 1.1719 0.25 1.1719 0.89062 0 0.60938-0.48438 1.0781-0.89062 1.4531-0.32812 0.29688-0.67188 0.59375-1.0156 0.89062l-0.39062 0.34375c-0.09375 0.078125-0.21875 0.15625-0.21875 0.29688 0 0.046875 0.015625 0.09375 0.015625 0.14062h3.1406l0.28125-1.75h-0.25c-0.09375 0.4375-0.078125 0.90625-0.39062 0.95312-0.1875 0.015625-0.375 0.015625-0.5625 0.015625h-1.2656c0.4375-0.34375 0.92188-0.6875 1.3906-0.98438 0.5-0.3125 1.0781-0.71875 1.0781-1.375 0-0.92188-1.0469-1.1875-1.875-1.1875-0.625 0-1.5469 0.17188-1.5469 0.90625 0 0.28125 0.15625 0.53125 0.53125 0.53125 0.29688 0 0.51562-0.21875 0.51562-0.5 0-0.21875-0.125-0.42188-0.34375-0.5zm-0.51562-5.3438v0.3125c0.40625 0 0.84375 0 1.2188-0.14062v3c0 0.40625-0.32812 0.45312-0.73438 0.45312h-0.34375v0.3125h2.9062v-0.3125h-0.375c-0.45312 0-0.70312-0.03125-0.70312-0.45312v-3.3594c0-0.14062-0.03125-0.20312-0.1875-0.20312-0.10938 0.015625-0.25 0.10938-0.34375 0.17188-0.45312 0.1875-0.95312 0.21875-1.4375 0.21875zm-0.45312 4.3438c-0.09375 0.015625-0.14062 0.09375-0.14062 0.1875 0 0.125 0.078125 0.20312 0.26562 0.20312h0.17188 3.5469c0.14062 0 0.26562-0.0625 0.26562-0.20312 0-0.125-0.10938-0.20312-0.25-0.20312h-3.5-0.20312c-0.046875 0-0.09375 0-0.15625 0.015625z"/>
</g>
</defs>
<g transform="translate(-148.81 -127.06)">
<use x="148.71201" y="134.765" xlink:href="#a"/>
</g>
</svg>
