<?xml version="1.0" encoding="UTF-8"?>
<svg fill="#000000" version="1.1" viewBox="0 0 6.0938 11.562" xmlns="http://www.w3.org/2000/svg" xmlns:xlink="http://www.w3.org/1999/xlink">
<defs>
<g id="a">
<path d="m3.9219-2.4531c-1.6094 0-2.7031-1.1719-2.7031-2.4844 0-1.3594 1.1406-2.4844 2.6875-2.4844h2.6562c0.17188 0 0.35938 0 0.35938-0.20312s-0.1875-0.20312-0.35938-0.20312h-2.6875c-1.6719 0-3.0469 1.2656-3.0469 2.8906s1.375 2.8906 3.0625 2.8906h2.6719c0.17188 0 0.35938 0 0.35938-0.20312s-0.1875-0.20312-0.35938-0.20312zm0.875 2.9688h1.7656c0.17188 0 0.35938 0 0.35938-0.20312 0-0.1875-0.1875-0.1875-0.35938-0.1875h-1.4219c0.09375-0.10938 0.48438-0.5625 0.6875-0.79688 0.1875-0.20312 0.1875-0.21875 0.1875-0.29688 0-0.10938-0.10938-0.20312-0.20312-0.20312s-0.09375 0.015625-0.3125 0.25l-0.89062 1.0469h-3.4375c-0.17188 0-0.34375 0-0.34375 0.1875 0 0.20312 0.17188 0.20312 0.34375 0.20312h3.0938l-1.3125 1.5312h-1.7812c-0.17188 0-0.34375 0-0.34375 0.20312s0.17188 0.20312 0.34375 0.20312h1.4375c-0.09375 0.10938-0.53125 0.60938-0.6875 0.78125-0.1875 0.21875-0.1875 0.23438-0.1875 0.29688 0 0.125 0.09375 0.20312 0.20312 0.20312 0.09375 0 0.09375 0 0.3125-0.23438l0.875-1.0469h3.4375c0.17188 0 0.35938 0 0.35938-0.20312s-0.1875-0.20312-0.35938-0.20312h-3.0781z"/>
</g>
</defs>
<g transform="translate(-149.54 -126.94)">
<use x="148.71201" y="134.765" xlink:href="#a"/>
</g>
</svg>
