<?xml version="1.0" encoding="UTF-8"?>
<svg fill="#000000" width="5.125" height="7.3438" version="1.1" viewBox="0 0 5.125 7.3437" xmlns="http://www.w3.org/2000/svg" xmlns:xlink="http://www.w3.org/1999/xlink">
<defs>
<g id="a">
<path d="m1.9219-7.1406v0.98438h-1.3906v0.28125h1.3906v3.0781h1.0625c0.25-1.0625 0.67188-1.5625 1.25-1.5625 0.046875 0 0.10938 0 0.14062 0.015625l0.21875 0.14062 0.21875 0.5c0 1.7812-1.2812 3.1875-3.5156 3.9062h0.5c2.5625-0.82812 3.8594-2.0625 3.8594-3.7188-0.03125-0.84375-0.42188-1.2812-1.2812-1.2812-0.54688 0-1.0156 0.375-1.3906 1.0938v-2.1719h2.2344v-0.28125h-2.2344v-0.98438z"/>
</g>
</defs>
<g transform="translate(-149.24 -127.62)">
<use x="148.71201" y="134.765" xlink:href="#a"/>
</g>
</svg>
