<?xml version="1.0" encoding="UTF-8"?>
<svg fill="#000000" version="1.1" viewBox="0 0 5.6719 6.5781" xmlns="http://www.w3.org/2000/svg" xmlns:xlink="http://www.w3.org/1999/xlink">
<defs>
<g id="a">
<path d="m1.6875 1.6875c-0.03125 0.14062-0.046875 0.15625-0.046875 0.20312 0 0.21875 0.1875 0.28125 0.29688 0.28125 0.046875 0 0.26562-0.03125 0.35938-0.26562 0.03125-0.078125 0.078125-0.40625 0.35938-1.8125 0.078125 0 0.15625 0.015625 0.32812 0.015625 1.6562 0 3.1875-1.5625 3.1875-3.1406 0-0.78125-0.39062-1.375-1.1406-1.375-1.4375 0-2.0469 1.9375-2.6406 3.875-1.0781-0.20312-1.6406-0.75-1.6406-1.4688 0-0.28125 0.23438-1.375 0.82812-2.0625 0.09375-0.09375 0.09375-0.10938 0.09375-0.14062s-0.03125-0.09375-0.125-0.09375c-0.28125 0-1.0469 1.4531-1.0469 2.4062 0 0.9375 0.65625 1.6562 1.7188 1.9062zm1.3906-2.1562c-0.09375 0-0.10938 0-0.1875-0.015625-0.125 0-0.125 0-0.125-0.03125 0-0.015625 0.17188-0.9375 0.1875-1.0781 0.3125-1.2812 1.0938-2.2344 1.9844-2.2344 0.6875 0 0.95312 0.53125 0.95312 1.0156 0 1.125-1.2812 2.3438-2.8125 2.3438z"/>
</g>
</defs>
<g transform="translate(-149.21 -130.36)">
<use x="148.71201" y="134.765" xlink:href="#a"/>
</g>
</svg>
