<?xml version="1.0" encoding="UTF-8"?>
<svg fill="#000000" version="1.1" viewBox="0 0 3.856 9.2912" xmlns="http://www.w3.org/2000/svg" xmlns:xlink="http://www.w3.org/1999/xlink">
<defs>
<g id="a">
<path d="m1.3125 0.17188c-0.21875-0.03125-0.46875-0.015625-0.6875 0.03125-0.20312 0.0625-0.39062 0.15625-0.54688 0.28125-0.09375 0.09375-0.1875 0.1875-0.25 0.3125-0.0625 0.09375-0.09375 0.21875-0.09375 0.32812-0.015625 0.10938-0.015625 0.23438 0.015625 0.34375 0.015625 0.09375 0.0625 0.17188 0.10938 0.25 0.3125 0.5 1.0469 0.54688 1.4844 0.1875 0.15625-0.125 0.28125-0.29688 0.375-0.48438 0.10938-0.23438 0.21875-0.51562 0.23438-0.78125 0.09375 0.0625 0.1875 0.125 0.26562 0.20312 0.23438 0.1875 0.4375 0.46875 0.53125 0.75 0.046875 0.15625 0.078125 0.29688 0.09375 0.45312 0 0.0625-0.015625 0.14062 0.0625 0.1875 0.078125 0.03125 0.17188 0 0.1875-0.078125 0.015625-0.14062-0.015625-0.3125-0.046875-0.45312-0.09375-0.375-0.3125-0.70312-0.57812-0.96875-0.09375-0.09375-0.20312-0.17188-0.3125-0.23438-0.046875-0.03125-0.125-0.0625-0.15625-0.125-0.015625-0.03125 0-0.078125 0-0.125 0-0.09375 0.015625-0.1875 0-0.26562v-0.625-4.5781c0-0.15625-0.015625-0.3125 0-0.46875 0.015625-0.28125 0.03125-0.5625 0.14062-0.8125 0.0625-0.15625 0.1875-0.28125 0.34375-0.3125 0.1875-0.03125 0.34375 0.046875 0.53125 0.078125-0.10938 0.046875-0.1875 0.078125-0.26562 0.17188-0.125 0.1875-0.125 0.45312 0.03125 0.60938 0.17188 0.17188 0.48438 0.1875 0.65625 0.015625 0.20312-0.1875 0.17188-0.51562 0.015625-0.71875-0.0625-0.10938-0.15625-0.17188-0.26562-0.23438-0.42188-0.25-0.98438-0.1875-1.3594 0.125-0.0625 0.0625-0.14062 0.14062-0.1875 0.21875-0.17188 0.21875-0.26562 0.48438-0.29688 0.75-0.015625 0.15625-0.015625 0.29688-0.015625 0.45312v0.625 4.5469c0 0.125-0.015625 0.23438-0.015625 0.34375zm0 0.23438c0 0.23438-0.015625 0.46875-0.0625 0.70312-0.015625 0.15625-0.046875 0.3125-0.10938 0.45312-0.046875 0.125-0.125 0.23438-0.23438 0.29688-0.26562 0.17188-0.64062 0-0.8125-0.23438-0.21875-0.29688-0.10938-0.70312 0.14062-0.9375 0.10938-0.10938 0.26562-0.1875 0.42188-0.23438 0.125-0.046875 0.28125-0.078125 0.42188-0.078125 0.078125 0.015625 0.14062 0.03125 0.23438 0.03125z"/>
</g>
</defs>
<g transform="translate(-148.44 -127.72)">
<use x="148.71201" y="134.765" xlink:href="#a"/>
</g>
</svg>
