<?xml version="1.0" encoding="UTF-8"?>
<svg fill="#000000" version="1.1" viewBox="0 0 8.8346 11.083" xmlns="http://www.w3.org/2000/svg" xmlns:xlink="http://www.w3.org/1999/xlink">
<defs>
<g id="a">
<path d="m1.0156 10.656v-0.01563c0.51562-0.07812 0.48438-0.73437 0.046875-0.82812-0.46875-0.078125-0.59375 0.4375-0.42188 0.76562 0.28125 0.53125 1.0781 0.60938 1.5781 0.375 0.21875-0.10938 0.39062-0.26562 0.51562-0.45312 0.5625-0.73438 0.60938-1.75 0.73438-2.6562 0.15625-1.0781 0.26562-2.1562 0.35938-3.2344 0.0625-0.84375 0.10938-1.6875 0.1875-2.5312 0.0625-0.70312 0.1875-1.8125 0.90625-1.8594 0.29688-0.03125 0.51562 0.078125 0.6875 0.20312-0.10938 0.03125-0.21875 0.078125-0.29688 0.1875-0.17188 0.26562-0.015625 0.60938 0.29688 0.65625 0.046875 0 0.10938 0 0.15625-0.015625 0.35938-0.09375 0.375-0.51562 0.20312-0.78125-0.09375-0.15625-0.23438-0.26562-0.39062-0.34375-0.625-0.29688-1.3281-0.0625-1.7031 0.5-0.5625 0.79688-0.60938 1.8438-0.71875 2.7812-0.21875 1.7812-0.35938 3.5625-0.51562 5.3438-0.015625 0.125-0.015625 0.26562-0.03125 0.40625-0.0625 0.57812-0.14062 1.6094-0.875 1.7031-0.29688 0.03125-0.51562-0.10938-0.71875-0.20312zm3.3281-0.01563c0.125-0.03125 0.23438-0.0625 0.29688-0.17188 0.17188-0.26562 0.015625-0.625-0.29688-0.65624h-0.15625c-0.375 0.10938-0.375 0.53125-0.20312 0.79688 0.29688 0.46875 1.0312 0.57812 1.5156 0.35938 0.25-0.10938 0.46875-0.3125 0.625-0.54688 0.51562-0.76562 0.5625-1.7812 0.67188-2.6719 0.125-0.95312 0.23438-1.9062 0.32812-2.8594 0.078125-0.85938 0.125-1.7031 0.1875-2.5625 0.015625-0.125 0.03125-0.26562 0.046875-0.39062 0.046875-0.59375 0.14062-1.625 0.85938-1.7188 0.29688-0.03125 0.51562 0.09375 0.71875 0.20312-0.14062 0.0625-0.28125 0.09375-0.32812 0.25-0.15625 0.35938 0.1875 0.6875 0.53125 0.5625 0.42188-0.14062 0.26562-0.71875 0-0.95312-0.59375-0.53125-1.5312-0.26562-1.9375 0.32812-0.5625 0.78125-0.60938 1.8438-0.71875 2.7656-0.25 1.875-0.39062 3.7656-0.54688 5.6406-0.03125 0.45312-0.078125 0.9375-0.26562 1.3438-0.125 0.25-0.34375 0.48438-0.64062 0.5-0.28125 0.03125-0.5-0.07813-0.6875-0.21875z"/>
</g>
</defs>
<g transform="translate(-149.28 -126.73)">
<use x="148.71201" y="126.739" xlink:href="#a"/>
</g>
</svg>
