<?xml version="1.0" encoding="UTF-8"?>
<svg fill="#000000" version="1.1" viewBox="0 0 7.3906 7.1562" xmlns="http://www.w3.org/2000/svg" xmlns:xlink="http://www.w3.org/1999/xlink">
<defs>
<g id="a">
<path d="m4.2031-4.3438c0-1.1406 0.57812-2.3125 1.7344-2.3125 0.75 0 1.3438 0.59375 1.3438 1.2969 0 0.078125 0 0.15625-0.015625 0.21875 0 0.14062 0.078125 0.21875 0.17188 0.23438 0.26562 0 0.26562-0.26562 0.26562-0.45312 0-0.9375-0.79688-1.6875-1.75-1.6875s-1.6406 0.67188-1.9531 1.5312c-0.29688-0.85938-0.98438-1.5312-1.9375-1.5312s-1.75 0.76562-1.75 1.6875c0 0.17188 0 0.45312 0.21875 0.45312 0.14062-0.015625 0.20312-0.09375 0.20312-0.1875 0-0.10938-0.015625-0.1875-0.015625-0.26562 0-0.70312 0.60938-1.2969 1.3594-1.2969 1.0781 0 1.7344 1.125 1.7344 2.3125v4.25c0 0.10938 0.078125 0.20312 0.1875 0.20312s0.20312-0.09375 0.20312-0.20312z"/>
</g>
</defs>
<g transform="translate(-149.02 -127.72)">
<use x="148.71201" y="134.765" xlink:href="#a"/>
</g>
</svg>
