<?xml version="1.0" encoding="UTF-8"?>
<svg fill="#000000" width="8.2031" height="7.8438" version="1.1" viewBox="0 0 8.2031 7.8437" xmlns="http://www.w3.org/2000/svg" xmlns:xlink="http://www.w3.org/1999/xlink">
<defs>
<g id="a">
<path d="m6.3438-7.25c-0.14062 0-0.25 0.078125-0.29688 0.1875l-1.7344 4.3281-1.7344-4.3281c-0.046875-0.10938-0.15625-0.1875-0.28125-0.1875-0.17188 0-0.29688 0.15625-0.29688 0.3125 0 0.03125 0 0.0625 0.03125 0.10938l1.9531 4.9062-0.5625 1.4062-2.6094-6.5469c-0.0625-0.10938-0.17188-0.1875-0.29688-0.1875-0.17188 0-0.29688 0.15625-0.29688 0.3125 0 0.03125 0.015625 0.0625 0.015625 0.10938l2.9219 7.2344c0.03125 0.125 0.14062 0.1875 0.26562 0.1875 0.14062 0 0.23438-0.0625 0.28125-0.1875l0.60938-1.5156 0.60938 1.5156c0.046875 0.125 0.15625 0.1875 0.29688 0.1875 0.125 0 0.21875-0.0625 0.28125-0.1875l2.8906-7.2344c0.015625-0.046875 0.03125-0.078125 0.03125-0.10938 0-0.15625-0.125-0.3125-0.3125-0.3125-0.10938 0-0.21875 0.078125-0.28125 0.1875l-2.6094 6.5469-0.57812-1.4062 1.9844-4.9062c0-0.046875 0.015625-0.078125 0.015625-0.10938 0-0.15625-0.125-0.3125-0.29688-0.3125z"/>
</g>
</defs>
<g transform="translate(-148.93 -128.29)">
<use x="148.71201" y="135.53999" xlink:href="#a"/>
</g>
</svg>
