<?xml version="1.0" encoding="UTF-8"?>
<svg fill="#000000" version="1.1" viewBox="0 0 5.1719 6.3455" xmlns="http://www.w3.org/2000/svg" xmlns:xlink="http://www.w3.org/1999/xlink">
<defs>
<g id="a">
<path d="m3.7812-0.40625h0.015625v1.3906c0 0.15625 0.046875 0.40625-0.078125 0.53125-0.0625 0.0625-0.15625 0.0625-0.23438 0.078125-0.15625 0.015625-0.29688 0.015625-0.46875 0.015625v0.3125l0.90625-0.03125 0.90625 0.015625 0.45312 0.015625v-0.3125c-0.17188 0-0.34375 0-0.5-0.015625-0.09375-0.015625-0.20312-0.046875-0.25-0.14062-0.0625-0.125-0.03125-0.28125-0.03125-0.39062v-4.4844c0-0.14062-0.03125-0.29688 0.03125-0.42188 0.046875-0.078125 0.15625-0.125 0.25-0.14062 0.15625-0.015625 0.32812-0.015625 0.5-0.015625v-0.3125l-0.45312 0.03125h-0.90625l-0.90625-0.03125v0.3125c0.17188 0 0.32812 0 0.48438 0.015625 0.09375 0.015625 0.17188 0.03125 0.23438 0.10938 0.078125 0.09375 0.0625 0.21875 0.0625 0.32812v2.375c0 0.078125 0.015625 0.17188-0.015625 0.25 0 0.078125-0.046875 0.15625-0.078125 0.21875-0.09375 0.17188-0.21875 0.32812-0.39062 0.4375-0.35938 0.25-0.82812 0.17188-1.1094-0.15625-0.14062-0.17188-0.21875-0.40625-0.26562-0.625-0.0625-0.29688-0.0625-0.59375-0.0625-0.89062v-0.96875-0.29688c0-0.125 0.015625-0.25-0.015625-0.375-0.10938-0.48438-0.5625-0.875-1.0781-0.84375-0.046875 0-0.10938 0.015625-0.15625 0.03125-0.35938 0.14062-0.45312 0.54688-0.48438 0.89062-0.015625 0.078125-0.015625 0.14062-0.015625 0.20312 0 0.125-0.015625 0.25-0.015625 0.35938 0 0.0625 0.015625 0.125 0.0625 0.14062 0.09375 0.03125 0.17188 0 0.1875-0.09375s0-0.20312 0-0.3125c0-0.15625 0.015625-0.3125 0.046875-0.46875 0.015625-0.10938 0.03125-0.21875 0.09375-0.3125 0.10938-0.1875 0.375-0.29688 0.53125-0.125 0.10938 0.10938 0.14062 0.23438 0.15625 0.375 0.015625 0.17188 0 0.32812-0.015625 0.5v0.29688 0.95312 0.42188c0.03125 0.39062 0.125 0.76562 0.35938 1.0781 0.25 0.35938 0.67188 0.53125 1.0938 0.57812 0.14062 0 0.29688 0.015625 0.4375-0.015625 0.28125-0.046875 0.59375-0.23438 0.71875-0.48438z"/>
</g>
</defs>
<g transform="translate(-148.82 -130.34)">
<use x="148.71201" y="134.765" xlink:href="#a"/>
</g>
</svg>
