<?xml version="1.0" encoding="UTF-8"?>
<svg fill="#000000" version="1.1" viewBox="0 0 4.4395 8.8541" xmlns="http://www.w3.org/2000/svg" xmlns:xlink="http://www.w3.org/1999/xlink">
<defs>
<g id="a">
<path d="m2.5469-3.4844h-1.5-0.34375c-0.0625 0-0.10938 0-0.14062 0.0625-0.015625 0.046875-0.015625 0.078125-0.015625 0.125 0 0.078125-0.015625 0.1875 0.078125 0.21875 0.0625 0.03125 0.14062 0.015625 0.21875 0.015625h1.7031v1.2344h-1.5-0.34375c-0.0625 0-0.10938 0-0.14062 0.0625-0.015625 0.03125-0.015625 0.078125-0.015625 0.10938 0 0.078125-0.015625 0.20312 0.078125 0.23438 0.0625 0.03125 0.14062 0.015625 0.20312 0.015625h1.7188v3.0781c0 0.0625 0 0.15625 0.03125 0.21875 0.046875 0.046875 0.15625 0.03125 0.21875 0.03125 0.03125 0 0.0625 0 0.09375-0.015625 0.09375-0.015625 0.09375-0.10938 0.09375-0.1875v-3.125h1.7188c0.0625 0 0.14062 0.015625 0.20312-0.015625 0.09375-0.03125 0.078125-0.15625 0.078125-0.23438 0-0.03125 0-0.078125-0.015625-0.10938-0.03125-0.0625-0.078125-0.0625-0.14062-0.0625h-0.34375-1.5v-1.2344h1.7031c0.078125 0 0.15625 0.015625 0.21875-0.015625 0.09375-0.03125 0.078125-0.14062 0.078125-0.21875 0-0.046875 0-0.078125-0.015625-0.125-0.03125-0.0625-0.078125-0.0625-0.14062-0.0625h-0.34375-1.5v-3.2344c0-0.078125 0-0.17188-0.09375-0.20312h-0.09375c-0.0625 0-0.17188-0.03125-0.21875 0.03125s-0.03125 0.15625-0.03125 0.21875z"/>
</g>
</defs>
<g transform="translate(-149.26 -127.84)">
<use x="148.71201" y="134.765" xlink:href="#a"/>
</g>
</svg>
