<?xml version="1.0" encoding="UTF-8"?>
<svg fill="#000000" version="1.1" viewBox="0 0 6.3916 4.5998" xmlns="http://www.w3.org/2000/svg" xmlns:xlink="http://www.w3.org/1999/xlink">
<defs>
<g id="a">
<path d="m6.9844-1.3438h-0.15625c-0.03125 0-0.0625 0-0.078125 0.015625-0.03125 0.015625-0.03125 0.078125-0.046875 0.10938 0 0.078125-0.03125 0.14062-0.046875 0.21875-0.078125 0.23438-0.1875 0.45312-0.39062 0.59375-0.1875 0.10938-0.42188 0.14062-0.64062 0.14062-0.26562 0.03125-0.51562 0.015625-0.79688 0.015625-0.14062 0-0.39062 0.046875-0.46875-0.09375-0.03125-0.0625-0.046875-0.10938-0.046875-0.17188-0.015625-0.10938 0-0.23438 0-0.375v-1.2031c0.28125 0 0.57812-0.015625 0.875 0.015625 0.125 0 0.26562 0 0.35938 0.09375 0.15625 0.125 0.1875 0.3125 0.1875 0.5h0.25v-1.5h-0.25c0 0.17188-0.03125 0.375-0.1875 0.48438-0.09375 0.09375-0.23438 0.09375-0.35938 0.10938-0.29688 0.015625-0.59375 0.015625-0.875 0.015625v-1.1562c0-0.10938-0.015625-0.20312 0-0.3125 0.015625-0.046875 0.03125-0.10938 0.0625-0.15625 0.046875-0.0625 0.14062-0.0625 0.21875-0.0625h0.46875c0.23438 0 0.46875-0.015625 0.70312 0.03125 0.17188 0.015625 0.32812 0.0625 0.45312 0.17188 0.078125 0.078125 0.14062 0.17188 0.1875 0.26562 0.078125 0.17188 0.10938 0.32812 0.14062 0.5h0.23438l-0.1875-1.2188h-1.7656c-0.29688 0-0.60938 0.03125-0.90625 0-0.28125-0.015625-0.54688-0.10938-0.82812-0.14062-0.21875-0.015625-0.46875 0-0.6875 0.0625-0.26562 0.046875-0.51562 0.15625-0.73438 0.29688-0.78125 0.48438-1.2031 1.4375-1.0469 2.3438 0.046875 0.28125 0.15625 0.5625 0.3125 0.79688 0.42188 0.70312 1.2344 1.1094 2.0469 1.0938 0.3125-0.015625 0.60938-0.125 0.92188-0.15625h0.42188 2.25c0.046875 0 0.09375 0.015625 0.125-0.015625 0.03125-0.015625 0.03125-0.0625 0.03125-0.09375l0.046875-0.25c0.0625-0.32812 0.14062-0.64062 0.20312-0.96875zm-5.5781-0.73438c-0.015625-0.125 0-0.25 0.015625-0.375 0.03125-0.57812 0.29688-1.2031 0.78125-1.5469 0.26562-0.17188 0.5625-0.26562 0.89062-0.23438 0.17188 0.03125 0.3125 0.0625 0.42188 0.20312 0.10938 0.125 0.14062 0.3125 0.15625 0.46875 0.015625 0.20312 0 0.42188 0.015625 0.625 0.015625 0.46875 0.015625 0.9375 0.015625 1.3906 0 0.078125-0.015625 0.15625-0.015625 0.21875 0 0.21875 0 0.45312-0.03125 0.67188-0.015625 0.125-0.046875 0.25-0.125 0.34375-0.09375 0.14062-0.25 0.20312-0.42188 0.21875-0.25 0.03125-0.5 0-0.71875-0.125-0.46875-0.26562-0.76562-0.78125-0.89062-1.2812-0.046875-0.1875-0.078125-0.39062-0.09375-0.57812z"/>
</g>
</defs>
<g transform="translate(-149.3 -130.31)">
<use x="148.71201" y="134.765" xlink:href="#a"/>
</g>
</svg>
