<?xml version="1.0" encoding="UTF-8"?>
<svg fill="#000000" version="1.1" viewBox="0 0 12.156 6.2969" xmlns="http://www.w3.org/2000/svg" xmlns:xlink="http://www.w3.org/1999/xlink">
<defs>
<g id="a">
<path d="m6.375-2.2656c0.125-0.078125 0.1875-0.10938 0.1875-0.23438 0-0.10938-0.0625-0.14062-0.1875-0.21875l-5.4375-2.8594c-0.046875-0.03125-0.125-0.0625-0.1875-0.0625-0.078125 0-0.1875 0.0625-0.1875 0.20312 0 0.10938 0.078125 0.15625 0.1875 0.21875l5.1875 2.7188-5.1875 2.7344c-0.10938 0.0625-0.1875 0.10938-0.1875 0.21875 0 0.09375 0.0625 0.20312 0.1875 0.20312 0.046875 0 0.0625 0 0.20312-0.0625zm6.1562 0c0.10938-0.0625 0.1875-0.10938 0.1875-0.23438 0-0.10938-0.04687-0.125-0.20312-0.21875l-5.4219-2.8594c-0.046875-0.03125-0.10938-0.0625-0.17188-0.0625-0.03125 0-0.20312 0.015625-0.20312 0.20312 0 0.10938 0.046875 0.125 0.1875 0.20312l5.1875 2.7344-5.2031 2.75c-0.10938 0.0625-0.17188 0.09375-0.17188 0.20312 0 0.125 0.078125 0.20312 0.20312 0.20312 0.03125 0 0.0625 0 0.1875-0.0625zm-3.0781 0c0.10938-0.0625 0.1875-0.10938 0.1875-0.23438 0-0.10938-0.046875-0.125-0.20312-0.21875l-5.4219-2.8594c-0.046875-0.03125-0.125-0.0625-0.17188-0.0625-0.078125 0-0.20312 0.046875-0.20312 0.20312 0 0.10938 0.078125 0.15625 0.17188 0.20312l5.2031 2.7344-5.1719 2.7344c-0.14062 0.078125-0.20312 0.10938-0.20312 0.21875s0.0625 0.20312 0.20312 0.20312c0.03125 0 0.046875 0 0.1875-0.0625z"/>
</g>
</defs>
<g transform="translate(-149.27 -129.12)">
<use x="148.71201" y="134.765" xlink:href="#a"/>
</g>
</svg>
