<?xml version="1.0" encoding="UTF-8"?>
<svg fill="#000000" version="1.1" viewBox="0 0 8.8594 6.2969" xmlns="http://www.w3.org/2000/svg" xmlns:xlink="http://www.w3.org/1999/xlink">
<defs>
<g id="a">
<path d="m6.1875-2.2656c0.10938-0.078125 0.1875-0.10938 0.1875-0.23438 0-0.10938-0.078125-0.14062-0.1875-0.21875l-5.2656-2.8594c-0.03125-0.03125-0.10938-0.0625-0.17188-0.0625-0.09375 0-0.20312 0.0625-0.20312 0.20312 0 0.10938 0.078125 0.14062 0.20312 0.21875l5 2.7188-5 2.7344c-0.125 0.078125-0.20312 0.10938-0.20312 0.21875 0 0.20312 0.1875 0.20312 0.26562 0.20312zm3.0312 0c0.125-0.078125 0.1875-0.10938 0.1875-0.23438 0-0.10938-0.0625-0.14062-0.1875-0.21875l-5.25-2.8594c-0.046875-0.03125-0.10938-0.0625-0.1875-0.0625s-0.1875 0.0625-0.1875 0.20312c0 0.10938 0.078125 0.14062 0.1875 0.21875l5.0156 2.7188-5.0156 2.7344c-0.10938 0.078125-0.1875 0.10938-0.1875 0.21875 0 0.20312 0.1875 0.20312 0.25 0.20312z"/>
</g>
</defs>
<g transform="translate(-149.26 -129.12)">
<use x="148.71201" y="134.765" xlink:href="#a"/>
</g>
</svg>
