<?xml version="1.0" encoding="UTF-8"?>
<svg fill="#000000" version="1.1" viewBox="0 0 6.7812 6.8125" xmlns="http://www.w3.org/2000/svg" xmlns:xlink="http://www.w3.org/1999/xlink">
<defs>
<g id="a">
<path d="m6.0938-6.0312c0-0.40625 0-0.46875 0.76562-0.46875 0.1875 0 0.26562 0 0.26562-0.15625s-0.10938-0.15625-0.17188-0.15625c-0.28125 0-1 0.03125-1.2812 0.03125h-0.64062c-0.20312 0-0.42188-0.03125-0.64062-0.03125-0.0625 0-0.15625 0-0.15625 0.15625s0.046875 0.15625 0.29688 0.15625c0.71875 0 0.71875 0.0625 0.71875 0.46875v5.7188h-3.0312v-5.7188c0-0.40625 0-0.46875 0.76562-0.46875 0.1875 0 0.25 0 0.25-0.15625s-0.09375-0.15625-0.15625-0.15625c-0.28125 0-1 0.03125-1.2812 0.03125h-0.64062c-0.20312 0-0.42188-0.03125-0.64062-0.03125-0.0625 0-0.17188 0-0.17188 0.15625s0.0625 0.15625 0.3125 0.15625c0.71875 0 0.71875 0.0625 0.71875 0.46875v5.25c0 0.40625 0 0.46875-0.76562 0.46875-0.1875 0-0.26562 0-0.26562 0.15625s0.078125 0.15625 0.28125 0.15625h6.2188c0.20312 0 0.28125 0 0.28125-0.15625s-0.0625-0.15625-0.3125-0.15625c-0.71875 0-0.71875-0.0625-0.71875-0.46875z"/>
</g>
</defs>
<g transform="translate(-149.06 -127.95)">
<use x="148.71201" y="134.765" xlink:href="#a"/>
</g>
</svg>
