<?xml version="1.0" encoding="UTF-8"?>
<svg fill="#000000" version="1.1" viewBox="0 0 5.2812 4.4062" xmlns="http://www.w3.org/2000/svg" xmlns:xlink="http://www.w3.org/1999/xlink">
<defs>
<g id="a">
<path d="m5.1562-3.7188c0.14062 0 0.5 0 0.5-0.34375 0-0.23438-0.21875-0.23438-0.39062-0.23438h-2.2812c-1.5 0-2.6094 1.6406-2.6094 2.8281 0 0.875 0.59375 1.5781 1.5 1.5781 1.1719 0 2.5-1.2031 2.5-2.7344 0-0.17188 0-0.65625-0.3125-1.0938zm-3.2656 3.6094c-0.5 0-0.89062-0.35938-0.89062-1.0781 0-0.29688 0.10938-1.1094 0.46875-1.7031 0.42188-0.6875 1.0156-0.82812 1.3594-0.82812 0.82812 0 0.90625 0.65625 0.90625 0.96875 0 0.46875-0.20312 1.2812-0.53125 1.7969-0.39062 0.57812-0.9375 0.84375-1.3125 0.84375z"/>
</g>
</defs>
<g transform="translate(-149.09 -130.47)">
<use x="148.71201" y="134.765" xlink:href="#a"/>
</g>
</svg>
