<?xml version="1.0" encoding="UTF-8"?>
<svg fill="#000000" version="1.1" viewBox="0 0 7.9531 10.188" xmlns="http://www.w3.org/2000/svg" xmlns:xlink="http://www.w3.org/1999/xlink">
<defs>
<g id="a">
<path d="m8.5312 6.5469h-0.29688c-0.21875 1-0.57812 1.6719-1.6875 1.6719h-4.1406l1.4688-1.8906c0.28125 0.10938 0.57812 0.15625 0.875 0.15625 1.3438 0 2.4531-1.0938 2.4531-2.4375s-1.1094-2.4375-2.4531-2.4375c-0.20312 0-0.42188 0.03125-0.625 0.078125l-1.25-1.6875h3.2812c1.3281 0 1.5938 0.5 1.8125 1.8438h0.3125v-2.5h-7.4531l2.1562 3.0156c-0.4375 0.45312-0.67188 1.0625-0.67188 1.6875 0 0.76562 0.35938 1.4844 0.98438 1.9531l-2.7188 3.5312h7.4219zm-2.7656-2.6562-1.3125-1.7656c0.09375-0.015625 0.20312-0.015625 0.29688-0.015625 1.0781 0 1.9531 0.85938 1.9531 1.9375s-0.875 1.9375-1.9531 1.9375c-0.1875 0-0.375-0.015625-0.54688-0.078125zm-1.2812 0.5625-0.89062 1.1562c-0.5-0.375-0.78125-0.95312-0.78125-1.5625 0-0.46875 0.17188-0.92188 0.48438-1.2812z"/>
</g>
</defs>
<g transform="translate(-149.29 -127.17)">
<use x="148.71201" y="127.823" xlink:href="#a"/>
</g>
</svg>
