<?xml version="1.0" encoding="UTF-8"?>
<svg fill="#000000" version="1.1" viewBox="0 0 6.5312 6.5156" xmlns="http://www.w3.org/2000/svg" xmlns:xlink="http://www.w3.org/1999/xlink">
<defs>
<g id="a">
<path d="m7.125-0.015625c0-0.20312-0.53125-0.5625-0.53125-1.9531 0-0.34375 0.03125-0.51562 0.03125-0.57812 0-0.125-0.10938-0.21875-0.23438-0.21875-0.23438 0-0.25 0.23438-0.25 0.48438v0.0625c0 0.39062 0.046875 0.76562 0.046875 1.1719l-2.6562-2.6562c-0.35938-0.53125-0.48438-1.1562-0.48438-1.8125 0-0.34375 0.03125-0.5 0.03125-0.5625 0-0.125-0.09375-0.23438-0.23438-0.23438-0.23438 0-0.23438 0.23438-0.23438 0.48438v0.0625c0 0.375 0.046875 0.76562 0.046875 1.1562 0 0.10938-0.015625 0.21875-0.03125 0.32812-0.10938 0.015625-0.21875 0.015625-0.32812 0.015625-0.39062 0-0.76562-0.046875-1.1562-0.046875h-0.09375c-0.21875 0-0.45312 0.015625-0.45312 0.25 0 0.14062 0.10938 0.21875 0.23438 0.21875 0.0625 0 0.23438-0.015625 0.57812-0.015625 0.64062 0 1.2812 0.10938 1.7969 0.48438l2.6562 2.6406h-0.03125c-0.375 0-0.76562-0.03125-1.1406-0.03125h-0.10938c-0.21875 0-0.4375 0.015625-0.4375 0.23438 0 0.14062 0.10938 0.23438 0.21875 0.23438 0.0625 0 0.23438-0.015625 0.57812-0.015625 1.375 0 1.7656 0.51562 1.9531 0.51562 0.14062 0 0.23438-0.10938 0.23438-0.21875z"/>
</g>
</defs>
<g transform="translate(-149.31 -128.45)">
<use x="148.71201" y="134.765" xlink:href="#a"/>
</g>
</svg>
