<?xml version="1.0" encoding="UTF-8"?>
<svg fill="#000000" version="1.1" viewBox="0 0 11.688 7.3906" xmlns="http://www.w3.org/2000/svg" xmlns:xlink="http://www.w3.org/1999/xlink">
<defs>
<g id="a">
<path d="m7.8594-6.9844c-0.03125 0-0.046875 0.015625-0.0625 0.03125-1.1406 1.6094-2.2812 3.2188-3.3906 4.8125-0.75 1.0781-1.8438 2.1406-2.7188 2.1406-0.67188 0-1.1562-0.20312-1.1562-0.60938 0-0.09375 0.03125-0.20312 0.09375-0.34375 0.0625 0.10938 0.17188 0.15625 0.29688 0.15625 0.25 0 0.5625-0.20312 0.5625-0.39062 0-0.25-0.15625-0.34375-0.32812-0.34375-0.20312 0-0.45312 0.125-0.5625 0.29688-0.1875 0.25-0.26562 0.48438-0.26562 0.67188 0 0.51562 0.59375 0.78125 1.3125 0.78125 1.0156 0 2.2031-1.1719 3-2.2656 0.71875-0.95312 1.4062-1.9375 2.3594-3.2812-0.125 0.5-0.14062 0.73438-0.15625 0.73438l-0.03125 1.1094c0.015625 0.45312 0.0625 0.89062 0.0625 1.3438 0 0.65625-0.09375 1.3281-0.5 2.0938-0.015625 0.015625-0.015625 0.03125-0.015625 0.046875 0 0.03125 0.015625 0.0625 0.046875 0.0625 0.015625 0.015625 0.03125 0.015625 0.03125 0.015625h0.10938c0.046875 0 0.0625-0.015625 0.078125-0.03125 0.73438-1.5 1.6562-3.0156 2.7188-4.5312 0.65625-0.92188 1.5312-1.8594 2.5938-2.2969 0.03125-0.03125 0.0625-0.046875 0.0625-0.078125l0.01563-0.23438c0-0.046875-0.01563-0.078125-0.0625-0.078125h-0.04687c-1.2031 0.5-2.0938 1.5938-2.7969 2.5938-0.5625 0.8125-1.0938 1.625-1.5781 2.4219 0.10938-0.42188 0.17188-0.79688 0.17188-1.1719v-0.15625c0-0.21875-0.09375-0.79688-0.09375-1.4531s0.09375-1.4062 0.4375-1.9219c0.015615-0.015625 0.015615-0.015625 0.015615-0.03125 0-0.046875-0.03125-0.09375-0.09375-0.09375z"/>
</g>
</defs>
<g transform="translate(-149.04 -127.59)">
<use x="148.71201" y="134.765" xlink:href="#a"/>
</g>
</svg>
