<?xml version="1.0" encoding="UTF-8"?>
<svg fill="#000000" version="1.1" viewBox="0 0 6.8438 6.0781" xmlns="http://www.w3.org/2000/svg" xmlns:xlink="http://www.w3.org/1999/xlink">
<defs>
<g id="a">
<path d="m1.2812-0.92188c-0.125 0-0.23438 0.078125-0.23438 0.21875 0 0.10938 0.0625 0.20312 0.17188 0.23438 0.34375 0.09375 0.70312 0.125 1.0469 0.125 2.3281 0 4.1875-1.9219 4.1875-4.2344 0-0.10938-0.015625-0.25-0.015625-0.35938 0.40625 0.29688 1.0312 0.82812 1.2188 0.82812 0.125 0 0.23438-0.09375 0.23438-0.23438 0-0.078125-0.046875-0.14062-0.10938-0.1875-0.67188-0.39062-1.2969-0.875-1.625-1.5781-0.0625-0.17188-0.10938-0.3125-0.28125-0.3125h-0.03125c-0.03125 0-0.1875 0.0625-0.1875 0.23438 0 0.82812-0.45312 1.5625-0.98438 2.2031-0.03125 0.03125-0.0625 0.09375-0.0625 0.14062 0 0.14062 0.10938 0.23438 0.23438 0.23438 0.078125 0 0.125-0.03125 0.1875-0.078125 0.35938-0.42188 0.59375-0.9375 0.9375-1.3906 0.015625 0.17188 0.015625 0.34375 0.015625 0.5 0 2.0781-1.6406 3.7812-3.7188 3.7812-0.59375 0-0.89062-0.125-0.98438-0.125z"/>
</g>
</defs>
<g transform="translate(-149.76 -128.34)">
<use x="148.71201" y="134.765" xlink:href="#a"/>
</g>
</svg>
