<?xml version="1.0" encoding="UTF-8"?>
<svg fill="#000000" width="6.2188" height="5.4688" version="1.1" viewBox="0 0 6.2188 5.4687" xmlns="http://www.w3.org/2000/svg" xmlns:xlink="http://www.w3.org/1999/xlink">
<defs>
<g id="a">
<path d="m6.8906-2.3281c0.14062 0 0.23438-0.09375 0.23438-0.21875 0-0.0625-0.03125-0.23438-0.03125-0.57812 0-1.375 0.53125-1.75 0.53125-1.9531 0-0.14062-0.10938-0.21875-0.23438-0.21875-0.1875 0-0.54688 0.51562-1.9531 0.51562-0.32812 0-0.51562-0.015625-0.5625-0.015625-0.125 0-0.23438 0.09375-0.23438 0.23438 0 0.21875 0.25 0.23438 0.5 0.23438h0.046875c0.39062 0 0.78125-0.03125 1.1562-0.03125h0.03125l-2 1.9844-0.84375-1.7969c-0.03125-0.078125-0.125-0.10938-0.1875-0.0625-0.078125 0.03125-0.10938 0.125-0.078125 0.1875l0.875 1.8906-1.4531 1.4688c-0.09375 0.09375-0.21875 0.14062-0.34375 0.14062-0.28125 0-0.48438-0.21875-0.48438-0.48438 0-0.29688 0.20312-0.32812 0.20312-0.5 0-0.125-0.078125-0.23438-0.23438-0.23438-0.1875 0-0.42188 0.375-0.42188 0.73438 0 0.53125 0.4375 0.9375 0.9375 0.9375 0.25 0 0.48438-0.09375 0.67188-0.26562l1.3438-1.3438 0.82812 1.7812c0.03125 0.0625 0.09375 0.09375 0.14062 0.09375 0.10938 0 0.1875-0.10938 0.14062-0.21875l-0.89062-1.8906 2.1094-2.1094c0 0.39062-0.03125 0.78125-0.03125 1.1719v0.10938c0 0.21875 0 0.4375 0.23438 0.4375z"/>
</g>
</defs>
<g transform="translate(-150.12 -129.47)">
<use x="148.71201" y="134.765" xlink:href="#a"/>
</g>
</svg>
