<?xml version="1.0" encoding="UTF-8"?>
<svg fill="#000000" version="1.1" viewBox="0 0 6.8594 6.375" xmlns="http://www.w3.org/2000/svg" xmlns:xlink="http://www.w3.org/1999/xlink">
<defs>
<g id="a">
<path d="m5.4688-5.7344c-0.10938 0-0.21875 0.078125-0.21875 0.21875 0 0.10938 0.046875 0.1875 0.14062 0.21875 0.54688 0.20312 1.125 0.25 1.6719 0.4375-0.8125 0.65625-1.3438 0.20312-1.9844 0.73438-0.45312 0.39062-0.46875 1.0312-0.46875 1.4688v0.10938c0 0.57812-0.03125 0.98438-0.3125 1.2344-0.40625 0.32812-0.95312 0.09375-1.6406 0.48438 0.09375-0.28125 0.35938-1.0469 0.35938-1.2188 0-0.125-0.09375-0.23438-0.23438-0.23438-0.10938 0-0.20312 0.078125-0.23438 0.1875-0.34375 1.9375-1.1406 2.0469-1.1406 2.3438 0 0.046875 0.015625 0.078125 0.03125 0.125 0.046875 0.078125 0.09375 0.10938 0.17188 0.10938 0.15625 0 0.42188-0.17188 0.98438-0.17188 0.78125 0 1.5156 0.32812 1.6094 0.32812 0.10938 0 0.23438-0.078125 0.23438-0.21875 0-0.10938-0.0625-0.1875-0.15625-0.21875-0.54688-0.20312-1.125-0.25-1.6719-0.4375 0.8125-0.65625 1.3438-0.20312 1.9688-0.73438 0.46875-0.39062 0.48438-1.0312 0.48438-1.4688v-0.10938c0-0.57812 0.03125-0.98438 0.32812-1.2344 0.39062-0.32812 0.95312-0.09375 1.625-0.48438-0.09375 0.28125-0.34375 1.0469-0.34375 1.2188 0 0.125 0.09375 0.23438 0.21875 0.23438s0.21875-0.078125 0.23438-0.1875c0.34375-1.9375 1.1406-2.0469 1.1406-2.3438 0-0.046875-0.015625-0.078125-0.03125-0.125-0.046875-0.078125-0.09375-0.10938-0.17188-0.10938-0.15625 0-0.42188 0.17188-0.96875 0.17188-0.78125 0-1.5312-0.32812-1.625-0.32812z"/>
</g>
</defs>
<g transform="translate(-150.12 -129.03)">
<use x="148.71201" y="134.765" xlink:href="#a"/>
</g>
</svg>
