<?xml version="1.0" encoding="UTF-8"?>
<svg fill="#000000" version="1.1" viewBox="0 0 1.1875 2.9844" xmlns="http://www.w3.org/2000/svg" xmlns:xlink="http://www.w3.org/1999/xlink">
<defs>
<g id="a">
<path d="m2.0469-5.875c0-0.59375-0.23438-1.0469-0.65625-1.0469-0.35938 0-0.53125 0.26562-0.53125 0.53125s0.17188 0.53125 0.53125 0.53125c0.1875 0 0.32812-0.10938 0.39062-0.15625 0.015625-0.03125 0.015625-0.03125 0.03125-0.03125s0.015625 0.14062 0.015625 0.17188c0 0.32812-0.0625 1.0469-0.6875 1.6562-0.125 0.125-0.125 0.14062-0.125 0.17188 0 0.0625 0.046875 0.10938 0.09375 0.10938 0.10938 0 0.9375-0.75 0.9375-1.9375z"/>
</g>
</defs>
<g transform="translate(-149.57 -127.84)">
<use x="148.71201" y="134.765" xlink:href="#a"/>
</g>
</svg>
