<?xml version="1.0" encoding="UTF-8"?>
<svg fill="#000000" version="1.1" viewBox="0 0 9.0312 7.3125" xmlns="http://www.w3.org/2000/svg" xmlns:xlink="http://www.w3.org/1999/xlink">
<defs>
<g id="a">
<path d="m2.875-1.7969c-0.32812 0.46875-0.45312 0.90625-0.45312 1.2812v0.0625c0.015625 0.3125 0.15625 0.625 0.57812 0.625 0.34375 0 0.76562-0.20312 1.1406-0.46875 0.20312-0.125 0.39062-0.26562 0.54688-0.4375 0 0.09375-0.015625 0.17188-0.015625 0.23438l0.015625 0.15625c0.03125 0.26562 0.17188 0.51562 0.53125 0.51562 0.32812 0 0.75-0.17188 1.125-0.42188 0.42188-0.26562 0.79688-0.59375 1.0469-0.95312 0-0.015625 0.015625-0.03125 0.015625-0.046875 0-0.0625-0.046875-0.078125-0.09375-0.078125h-0.10938c-0.03125 0-0.046875 0-0.0625 0.015625-0.21875 0.32812-0.54688 0.64062-0.9375 0.89062-0.32812 0.21875-0.6875 0.35938-0.95312 0.35938-0.015625 0-0.03125 0-0.03125-0.03125 0-0.046875 0.015625-0.125 0.078125-0.26562 0.10938-0.3125 0.3125-0.64062 0.5625-0.98438 1.0938-1.5625 2.3281-3.125 3.6875-4.6719 0-0.015625 0.015625-0.03125 0.015625-0.0625 0-0.015625-0.015625-0.046875-0.03125-0.046875-0.015625-0.03125-0.03125-0.03125-0.046875-0.03125h-0.71875c-0.03125 0-0.046875 0.015625-0.078125 0.03125-1.3438 1.5469-2.5781 3.1094-3.6875 4.6719-0.25 0.35938-0.57812 0.70312-1 1-0.32812 0.23438-0.6875 0.39062-0.95312 0.39062-0.0625 0-0.09375-0.03125-0.09375-0.09375 0-0.046875 0.03125-0.15625 0.09375-0.3125 0.125-0.39062 0.375-0.8125 0.6875-1.2188l1.7188-2.4531c0.45312-0.625 0.70312-1.25 0.70312-1.7812 0-0.10938-0.015625-0.21875-0.03125-0.3125-0.14062-0.57812-0.64062-0.90625-1.3906-0.90625-0.59375 0-1.3125 0.23438-2 0.64062-0.70312 0.42188-1.3125 0.98438-1.7344 1.5625-0.28125 0.40625-0.46875 0.82812-0.46875 1.1719 0 0.0625 0 0.10938 0.015625 0.17188 0.0625 0.35938 0.35938 0.59375 0.8125 0.59375 0.35938 0 0.78125-0.10938 1.1875-0.32812 0.39062-0.20312 0.73438-0.48438 0.96875-0.8125 0.35938-0.46875 0.4375-0.60938 0.4375-1.8438 0-0.046875-0.03125-0.078125-0.0625-0.09375-0.03125 0-0.0625 0.015625-0.09375 0.03125l-0.09375 0.03125c-0.015625 0.015625-0.03125 0.046875-0.046875 0.078125-0.0625 0.53125-0.23438 1.0938-0.67188 1.7031-0.17188 0.26562-0.40625 0.53125-0.71875 0.71875-0.29688 0.20312-0.60938 0.29688-0.85938 0.29688-0.375 0-0.5625-0.17188-0.60938-0.4375l-0.015625-0.09375c0-0.29688 0.17188-0.67188 0.46875-1.0781 0.39062-0.5625 0.95312-1.0938 1.6094-1.4844s1.3125-0.60938 1.8281-0.60938c0.59375 0 0.89062 0.29688 0.92188 0.73438v0.0625c0 0.51562-0.375 1.2812-0.84375 1.8906z"/>
</g>
</defs>
<g transform="translate(-149.24 -127.62)">
<use x="148.71201" y="134.765" xlink:href="#a"/>
</g>
</svg>
