<?xml version="1.0" encoding="UTF-8"?>
<svg fill="#000000" version="1.1" viewBox="0 0 8.9688 8.9844" xmlns="http://www.w3.org/2000/svg" xmlns:xlink="http://www.w3.org/1999/xlink">
<defs>
<g id="a">
<path d="m9.9688-2.5c0-2.4062-2.0781-4.4844-4.4844-4.4844-2.5 0-4.4844 2.0781-4.4844 4.4844 0 2.5156 1.9844 4.5 4.4844 4.5 2.4062 0 4.4844-2.0156 4.4844-4.5zm-0.59375 0c0 2.1562-1.7969 3.9062-3.8906 3.9062-2.1719 0-3.8906-1.7188-3.8906-3.9062 0-2.0781 1.7188-3.875 3.8906-3.875 2.0938 0 3.8906 1.7969 3.8906 3.875zm-1.9062-2.9688c0-0.125-0.125-0.26562-0.25-0.26562-0.09375 0-0.1875 0.046875-0.23438 0.125l-3.4531 5.9844c-0.015625 0.03125-0.015625 0.078125-0.015625 0.10938 0 0.14062 0.10938 0.26562 0.25 0.26562 0.09375 0 0.17188-0.046875 0.21875-0.125l3.4531-5.9688c0.015625-0.046875 0.03125-0.078125 0.03125-0.125z"/>
</g>
</defs>
<g transform="translate(-149.71 -127.78)">
<use x="148.71201" y="134.765" xlink:href="#a"/>
</g>
</svg>
