<?xml version="1.0" encoding="UTF-8"?>
<svg fill="#000000" version="1.1" viewBox="0 0 4.8766 6.3316" xmlns="http://www.w3.org/2000/svg" xmlns:xlink="http://www.w3.org/1999/xlink">
<defs>
<g id="a">
<path d="m0.1875-0.3125v0.29688l0.90625-0.03125 0.70312 0.03125v-0.29688c-0.078125 0-0.15625-0.03125-0.23438-0.0625-0.17188-0.09375-0.25-0.28125-0.21875-0.48438 0.046875-0.125 0.10938-0.25 0.15625-0.39062 0.09375-0.21875 0.17188-0.42188 0.26562-0.64062 0.125-0.3125 0.26562-0.625 0.39062-0.9375 0.078125-0.1875 0.14062-0.40625 0.25-0.59375 0.09375 0.25 0.20312 0.48438 0.29688 0.73438 0.1875 0.4375 0.375 0.90625 0.5625 1.3594 0.0625 0.17188 0.14062 0.34375 0.21875 0.53125 0.03125 0.078125 0.078125 0.17188 0.0625 0.26562-0.015625 0.078125-0.078125 0.125-0.14062 0.15625-0.125 0.0625-0.28125 0.0625-0.40625 0.0625v0.29688l0.875-0.03125 0.82812 0.015625 0.35938 0.015625v-0.29688c-0.10938 0-0.20312 0-0.3125-0.015625s-0.23438-0.015625-0.32812-0.09375c-0.09375-0.09375-0.14062-0.20312-0.1875-0.32812-0.078125-0.17188-0.14062-0.34375-0.20312-0.5-0.28125-0.67188-0.54688-1.3281-0.82812-2-0.10938-0.26562-0.21875-0.53125-0.32812-0.78125-0.03125-0.09375-0.125-0.21875-0.09375-0.32812 0.0625-0.17188 0.15625-0.34375 0.21875-0.53125 0.14062-0.34375 0.29688-0.71875 0.5625-0.98438 0.25-0.21875 0.57812-0.32812 0.89062-0.1875 0.046875 0.03125 0.10938 0.0625 0.15625 0.10938-0.10938 0.015625-0.23438 0.0625-0.3125 0.17188-0.10938 0.15625-0.09375 0.40625 0.046875 0.54688 0.0625 0.078125 0.15625 0.09375 0.23438 0.125 0.0625 0 0.10938 0 0.17188-0.015625 0.046875-0.015625 0.078125-0.03125 0.125-0.046875 0.23438-0.14062 0.21875-0.46875 0.125-0.6875-0.21875-0.42188-0.75-0.57812-1.1719-0.4375-0.23438 0.078125-0.42188 0.23438-0.57812 0.42188-0.23438 0.26562-0.375 0.59375-0.5 0.9375-0.078125 0.20312-0.17188 0.42188-0.25 0.625-0.35938 0.875-0.71875 1.7344-1.0781 2.5938-0.078125 0.17188-0.14062 0.34375-0.21875 0.51562-0.10938 0.28125-0.21875 0.59375-0.51562 0.76562-0.0625 0.03125-0.14062 0.0625-0.20312 0.078125-0.09375 0.03125-0.1875 0.046875-0.29688 0.046875z"/>
</g>
</defs>
<g transform="translate(-148.9 -128.42)">
<use x="148.71201" y="134.765" xlink:href="#a"/>
</g>
</svg>
