<?xml version="1.0" encoding="UTF-8"?>
<svg fill="#000000" version="1.1" viewBox="0 0 10.438 6.8906" xmlns="http://www.w3.org/2000/svg" xmlns:xlink="http://www.w3.org/1999/xlink">
<defs>
<g id="a">
<path d="m0.17188-6.8125v0.29688c0.15625 0 0.3125 0 0.46875 0.03125 0.09375 0 0.17188 0.015625 0.25 0.0625 0.14062 0.10938 0.1875 0.32812 0.21875 0.48438 0.125 0.35938 0.23438 0.71875 0.34375 1.0938 0.34375 1.1406 0.70312 2.2812 1.0469 3.4219 0.10938 0.32812 0.21875 0.67188 0.3125 1 0.015625 0.09375 0.046875 0.1875 0.078125 0.28125 0.015625 0.046875 0.03125 0.10938 0.0625 0.15625 0.0625 0.0625 0.125 0.0625 0.20312 0.0625h0.51562c0.0625 0 0.10938 0 0.17188-0.03125 0.03125-0.03125 0.046875-0.09375 0.078125-0.14062 0.015625-0.078125 0.03125-0.15625 0.0625-0.23438 0.10938-0.32812 0.20312-0.67188 0.3125-1 0.125-0.45312 0.28125-0.90625 0.40625-1.3594 0.15625-0.5 0.3125-1 0.46875-1.5156 0.078125-0.23438 0.125-0.48438 0.21875-0.71875 0.09375 0.23438 0.15625 0.48438 0.21875 0.71875 0.15625 0.5 0.3125 1.0156 0.46875 1.5156 0.125 0.45312 0.28125 0.90625 0.40625 1.3594 0.10938 0.32812 0.21875 0.67188 0.3125 1 0.03125 0.078125 0.046875 0.15625 0.078125 0.23438 0.015625 0.046875 0.03125 0.10938 0.078125 0.14062s0.10938 0.03125 0.17188 0.03125h0.51562c0.0625 0 0.14062 0 0.1875-0.0625 0.03125-0.046875 0.046875-0.10938 0.0625-0.15625 0.03125-0.09375 0.0625-0.1875 0.078125-0.28125 0.10938-0.32812 0.21875-0.67188 0.3125-1 0.35938-1.1562 0.70312-2.2969 1.0625-3.4531l0.23438-0.79688c0.078125-0.25 0.15625-0.48438 0.375-0.65625 0.1875-0.14062 0.4375-0.1875 0.65625-0.1875v-0.29688h-2.0938v0.29688c0.23438 0 0.51562 0.0625 0.70312 0.21875 0.09375 0.078125 0.17188 0.1875 0.17188 0.3125 0.015625 0.078125-0.015625 0.15625-0.046875 0.21875-0.03125 0.10938-0.0625 0.21875-0.09375 0.3125-0.10938 0.39062-0.23438 0.76562-0.34375 1.1562-0.28125 0.90625-0.5625 1.8125-0.84375 2.7188-0.125 0.40625-0.25 0.8125-0.35938 1.2188-0.0625-0.15625-0.10938-0.3125-0.15625-0.48438-0.09375-0.3125-0.20312-0.64062-0.29688-0.95312l-0.875-2.875c-0.10938-0.375-0.23438-0.75-0.34375-1.125-0.03125-0.078125-0.0625-0.1875-0.09375-0.28125 0-0.046875-0.03125-0.10938-0.015625-0.17188 0.03125-0.09375 0.125-0.15625 0.23438-0.20312 0.1875-0.0625 0.40625-0.0625 0.60938-0.0625v-0.29688h-2.5781v0.29688c0.10938 0 0.23438 0 0.34375 0.015625 0.09375 0.015625 0.21875 0.015625 0.29688 0.0625 0.10938 0.0625 0.15625 0.1875 0.20312 0.29688l0.14062 0.51562c0.03125 0.078125 0.09375 0.1875 0.078125 0.28125 0 0.09375-0.046875 0.1875-0.078125 0.26562-0.046875 0.15625-0.09375 0.32812-0.14062 0.5-0.15625 0.48438-0.3125 1-0.46875 1.5-0.046875 0.17188-0.09375 0.32812-0.14062 0.5-0.046875 0.10938-0.078125 0.21875-0.10938 0.32812-0.03125-0.125-0.078125-0.25-0.10938-0.35938-0.0625-0.20312-0.125-0.40625-0.1875-0.59375l-0.60938-1.9844c-0.0625-0.25-0.14062-0.5-0.21875-0.75-0.03125-0.10938-0.10938-0.23438-0.0625-0.34375 0.03125-0.09375 0.14062-0.14062 0.21875-0.17188 0.1875-0.0625 0.375-0.0625 0.54688-0.0625v-0.29688zm3.5625 6.4531-0.39062-1.2344-1.0156-3.3281-0.48438-1.5938h0.76562l0.078125 0.03125 0.03125 0.10938 0.078125 0.21875 0.25 0.85938 0.76562 2.5156 0.23438 0.73438 0.0625 0.21875 0.03125 0.125-0.046875 0.14062-0.078125 0.26562z"/>
</g>
</defs>
<g transform="translate(-148.88 -127.95)">
<use x="148.71201" y="134.765" xlink:href="#a"/>
</g>
</svg>
