<?xml version="1.0" encoding="UTF-8"?>
<svg fill="#000000" version="1.1" viewBox="0 0 6.5625 6.8125" xmlns="http://www.w3.org/2000/svg" xmlns:xlink="http://www.w3.org/1999/xlink">
<defs>
<g id="a">
<path d="m3.5312-6.8125c-1.2344 0-1.7656 0.23438-2 0.32812-1.0156 0.42188-1.25 1.0938-1.25 1.2344 0 0.0625 0.046875 0.078125 0.10938 0.078125 0.17188 0 0.65625-0.25 0.73438-0.46875 0.125-0.375 0.15625-0.46875 0.8125-0.5625 0.34375-0.03125 0.67188-0.0625 1.0156-0.0625h0.90625c-0.625 0.60938-0.92188 1.6875-1.2812 3.1094-0.28125 1.1875-0.51562 1.9531-0.92188 2.4844-0.09375 0.10938-0.10938 0.125-0.375 0.125h-0.64062c-0.1875 0-0.29688 0-0.54688 0.14062-0.10938 0.0625-0.32812 0.23438-0.32812 0.34375 0 0.046875 0 0.0625 0.21875 0.0625h3.4219c1.1562 0 2.0312-0.875 2.0312-1.2188 0-0.078125-0.078125-0.078125-0.10938-0.078125-0.17188 0-0.64062 0.23438-0.75 0.48438-0.0625 0.20312-0.09375 0.26562-0.59375 0.26562h-1.9062c0.71875-0.60938 1.0156-1.5938 1.3438-2.9531 0.28125-1.0781 0.51562-2.0469 0.92188-2.6562 0.0625-0.09375 0.078125-0.10938 0.26562-0.10938h0.85938c0.1875 0 0.28125 0 0.54688-0.14062 0.078125-0.046875 0.3125-0.21875 0.3125-0.32812 0-0.0625-0.015625-0.078125-0.23438-0.078125z"/>
</g>
</defs>
<g transform="translate(-148.48 -127.95)">
<use x="148.71201" y="134.765" xlink:href="#a"/>
</g>
</svg>
