<?xml version="1.0" encoding="UTF-8"?>
<svg fill="#000000" version="1.1" viewBox="0 0 6.8125 6.7812" xmlns="http://www.w3.org/2000/svg" xmlns:xlink="http://www.w3.org/1999/xlink">
<defs>
<g id="a">
<path d="m6.1094-6c0-0.35938 0.015625-0.46875 0.78125-0.46875h0.25v-0.3125h-6.8125v0.3125h0.23438c0.76562 0 0.79688 0.10938 0.79688 0.46875v5.2188c0 0.35938-0.03125 0.46875-0.79688 0.46875h-0.23438v0.3125c0.34375-0.03125 1.0938-0.03125 1.4688-0.03125s1.125 0 1.4688 0.03125v-0.3125h-0.23438c-0.76562 0-0.78125-0.10938-0.78125-0.46875v-5.6875h2.9688v5.6875c0 0.35938-0.015625 0.46875-0.78125 0.46875h-0.23438v0.3125c0.34375-0.03125 1.0781-0.03125 1.4531-0.03125 0.39062 0 1.125 0 1.4844 0.03125v-0.3125h-0.25c-0.76562 0-0.78125-0.10938-0.78125-0.46875z"/>
</g>
</defs>
<g transform="translate(-149.04 -127.98)">
<use x="148.71201" y="134.765" xlink:href="#a"/>
</g>
</svg>
