<?xml version="1.0" encoding="UTF-8"?>
<svg fill="#000000" version="1.1" viewBox="0 0 3.856 9.9663" xmlns="http://www.w3.org/2000/svg" xmlns:xlink="http://www.w3.org/1999/xlink">
<defs>
<g id="a">
<path d="m0.625-7.4844c-0.0625 0.03125-0.078125 0.125-0.03125 0.1875 0.03125 0.046875 0.078125 0.0625 0.125 0.10938 0.0625 0.046875 0.125 0.10938 0.20312 0.17188 0.35938 0.3125 0.6875 0.64062 1 1 0.078125 0.078125 0.15625 0.17188 0.23438 0.26562 0.03125 0.03125 0.078125 0.078125 0.09375 0.125 0 0.03125-0.03125 0.0625-0.046875 0.09375-0.046875 0.046875-0.078125 0.09375-0.125 0.14062-0.15625 0.21875-0.29688 0.42188-0.4375 0.64062-0.39062 0.64062-0.64062 1.3438-0.65625 2.0938-0.03125 0.78125 0.17188 1.5469 0.5625 2.2344 0.14062 0.26562 0.3125 0.5 0.48438 0.73438 0.046875 0.0625 0.10938 0.14062 0.15625 0.20312 0.015625 0.015625 0.0625 0.046875 0.0625 0.09375 0 0.03125-0.0625 0.09375-0.078125 0.125-0.078125 0.078125-0.14062 0.17188-0.23438 0.26562-0.29688 0.35938-0.625 0.6875-0.98438 1-0.10938 0.078125-0.25 0.17188-0.35938 0.28125-0.03125 0.046875-0.046875 0.125 0 0.17188 0.0625 0.046875 0.125 0.015625 0.17188-0.015625 0.10938-0.078125 0.21875-0.17188 0.3125-0.25 0.375-0.3125 0.73438-0.625 1.0781-0.96875 0.09375-0.09375 0.17188-0.17188 0.25-0.26562 0.03125-0.03125 0.0625-0.0625 0.10938-0.0625 0.0625 0.03125 0.09375 0.10938 0.14062 0.14062 0.078125 0.09375 0.17188 0.1875 0.26562 0.28125 0.29688 0.29688 0.60938 0.5625 0.9375 0.82812 0.10938 0.09375 0.21875 0.1875 0.32812 0.26562 0.046875 0.046875 0.10938 0.09375 0.17188 0.0625s0.078125-0.10938 0.03125-0.17188l-0.10938-0.10938c-0.078125-0.046875-0.14062-0.10938-0.21875-0.17188-0.35938-0.3125-0.6875-0.64062-1-1-0.078125-0.09375-0.15625-0.17188-0.23438-0.26562-0.03125-0.046875-0.078125-0.078125-0.09375-0.125 0-0.03125 0.03125-0.0625 0.046875-0.09375 0.046875-0.046875 0.078125-0.10938 0.125-0.15625 0.15625-0.20312 0.29688-0.42188 0.4375-0.64062 0.39062-0.625 0.64062-1.3438 0.65625-2.0781 0.03125-0.78125-0.17188-1.5469-0.5625-2.2344-0.14062-0.26562-0.3125-0.5-0.48438-0.75-0.046875-0.0625-0.10938-0.125-0.15625-0.1875-0.015625-0.03125-0.0625-0.0625-0.0625-0.09375 0-0.046875 0.0625-0.09375 0.078125-0.125 0.078125-0.09375 0.14062-0.17188 0.23438-0.26562 0.29688-0.35938 0.625-0.6875 0.98438-1 0.10938-0.09375 0.25-0.17188 0.35938-0.28125 0.03125-0.0625 0.046875-0.14062 0-0.17188-0.0625-0.046875-0.125-0.03125-0.17188 0.015625-0.10938 0.078125-0.21875 0.15625-0.3125 0.25-0.375 0.3125-0.73438 0.625-1.0781 0.96875l-0.25 0.25c-0.03125 0.03125-0.0625 0.078125-0.10938 0.0625-0.0625-0.03125-0.09375-0.09375-0.14062-0.14062l-0.26562-0.26562c-0.29688-0.29688-0.60938-0.5625-0.9375-0.82812l-0.32812-0.28125c-0.046875-0.03125-0.10938-0.078125-0.17188-0.0625zm1.8594 2.1875h0.015625c0.078125 0.15625 0.1875 0.3125 0.28125 0.46875 0.15625 0.26562 0.29688 0.5625 0.39062 0.85938 0.14062 0.4375 0.23438 0.89062 0.25 1.3438 0.015625 0.60938-0.10938 1.2344-0.32812 1.8125-0.10938 0.23438-0.21875 0.46875-0.34375 0.6875-0.078125 0.14062-0.17188 0.28125-0.25 0.42188h-0.015625c-0.078125-0.14062-0.17188-0.28125-0.25-0.42188-0.125-0.21875-0.23438-0.45312-0.34375-0.6875-0.21875-0.57812-0.34375-1.2031-0.32812-1.8125 0.015625-0.45312 0.10938-0.90625 0.25-1.3438 0.09375-0.29688 0.23438-0.59375 0.39062-0.85938 0.09375-0.15625 0.20312-0.3125 0.28125-0.46875z"/>
</g>
</defs>
<g transform="translate(-149.28 -127.28)">
<use x="148.71201" y="134.765" xlink:href="#a"/>
</g>
</svg>
