<?xml version="1.0" encoding="UTF-8"?>
<svg fill="#000000" version="1.1" viewBox="0 0 6.625 11.375" xmlns="http://www.w3.org/2000/svg" xmlns:xlink="http://www.w3.org/1999/xlink">
<defs>
<g id="a">
<path d="m6.6875-7.1719c0.14062-0.0625 0.23438-0.09375 0.23438-0.21875 0-0.10938-0.09375-0.20312-0.20312-0.20312-0.046875 0-0.0625 0.015625-0.17188 0.0625l-5.5 2.2969c-0.125 0.046875-0.21875 0.09375-0.21875 0.23438 0 0.125 0.10938 0.17188 0.21875 0.21875l5.4844 2.2969c0.14062 0.0625 0.15625 0.0625 0.1875 0.0625 0.10938 0 0.20312-0.09375 0.20312-0.20312 0-0.125-0.10938-0.17188-0.21875-0.21875l-5.1562-2.1562zm-3.1875 9.3125c0.046875-0.14062 0.0625-0.14062 0.078125-0.14062s0.3125 0.20312 0.40625 0.26562c0.57812 0.39062 1.0469 0.59375 1.5469 0.59375 0.9375 0 1.6562-0.73438 1.6562-1.6094 0-0.21875-0.0625-0.3125-0.14062-0.3125-0.10938 0-0.125 0.17188-0.14062 0.3125-0.046875 0.54688-0.64062 1.0469-1.375 1.0469-0.59375 0-0.98438-0.25-1.7656-0.76562l0.5-1.2344c0.015625-0.03125 0.046875-0.125 0.078125-0.125 0.015625 0 0.09375 0.03125 0.14062 0.0625 0.23438 0.14062 0.625 0.29688 1.0469 0.29688 0.9375 0 1.6562-0.73438 1.6562-1.6094 0-0.20312-0.0625-0.3125-0.14062-0.3125-0.10938 0-0.125 0.17188-0.14062 0.32812-0.046875 0.54688-0.64062 1.0469-1.375 1.0469-0.26562 0-0.64062-0.078125-1-0.29688 0.09375-0.25 0.73438-1.7188 0.73438-1.8125 0-0.10938-0.10938-0.1875-0.20312-0.1875-0.14062 0-0.17188 0.09375-0.21875 0.20312l-0.59375 1.4375c-0.046875 0.14062-0.078125 0.14062-0.078125 0.14062-0.03125 0-0.32812-0.20312-0.40625-0.26562-0.57812-0.39062-1.0469-0.59375-1.5469-0.59375-0.92188 0-1.6562 0.71875-1.6562 1.625 0 0.21875 0.0625 0.29688 0.14062 0.29688 0.09375 0 0.14062-0.1875 0.14062-0.23438 0.046875-0.8125 0.84375-1.1406 1.375-1.1406 0.57812 0 0.98438 0.26562 1.7656 0.78125l-0.5 1.2344c-0.03125 0.03125-0.0625 0.125-0.078125 0.125s-0.09375-0.046875-0.14062-0.078125c-0.23438-0.125-0.625-0.29688-1.0469-0.29688-0.92188 0-1.6562 0.71875-1.6562 1.625 0 0.21875 0.0625 0.29688 0.14062 0.29688 0.09375 0 0.14062-0.17188 0.14062-0.21875 0.046875-0.82812 0.84375-1.1406 1.375-1.1406 0.26562 0 0.625 0.078125 1 0.29688-0.09375 0.25-0.73438 1.7031-0.73438 1.8125s0.10938 0.1875 0.20312 0.1875c0.14062 0 0.17188-0.10938 0.21875-0.20312z"/>
</g>
</defs>
<g transform="translate(-149.27 -127.17)">
<use x="148.71201" y="134.765" xlink:href="#a"/>
</g>
</svg>
