<?xml version="1.0" encoding="UTF-8"?>
<svg fill="#000000" version="1.1" viewBox="0 0 4.3125 15.156" xmlns="http://www.w3.org/2000/svg" xmlns:xlink="http://www.w3.org/1999/xlink">
<defs>
<g id="a">
<path d="m4.875-3.7344c0-0.078125-0.046875-0.15625-0.10938-0.20312l-1.3125-0.75 0.79688-3.0156 0.51562-0.29688c0.0625-0.03125 0.10938-0.10938 0.10938-0.1875 0-0.14062-0.10938-0.23438-0.23438-0.23438-0.03125 0-0.078125 0.015625-0.10938 0.03125l-0.10938 0.0625 0.4375-1.6094c0.015625-0.09375-0.046875-0.1875-0.15625-0.1875-0.0625 0-0.125 0.04687-0.14062 0.10938l-0.5 1.9062-3.3906 1.9531c-0.078125 0.03125-0.10938 0.10938-0.10938 0.1875 0 0.09375 0.03125 0.15625 0.10938 0.20312l2.375 1.375-0.42188 1.625h-1.8438c-0.125 0-0.21875 0.09375-0.21875 0.21875s0.09375 0.23438 0.21875 0.23438h1.7188l-0.39062 1.4531-1.2188-0.70312c-0.015625-0.015625-0.0625-0.015625-0.10938-0.015625-0.10938 0-0.21875 0.09375-0.21875 0.21875 0 0.078125 0.03125 0.15625 0.10938 0.20312l1.3125 0.75-0.8125 3.0156-0.5 0.29688c-0.078125 0.03125-0.10938 0.10938-0.10938 0.1875 0 0.14062 0.10938 0.23438 0.21875 0.23438 0.046875 0 0.09375-0.015625 0.10938-0.03125l0.125-0.0625-0.4375 1.6094c-0.015625 0.09375 0.046875 0.1875 0.15625 0.1875 0.046875 0 0.10938-0.046875 0.14062-0.10938l0.5-1.9062 3.3906-1.9531c0.0625-0.03125 0.10938-0.10938 0.10938-0.1875 0-0.09375-0.046875-0.15625-0.10938-0.20312l-2.3906-1.375 0.4375-1.6094h1.8281c0.14062 0 0.23438-0.10938 0.23438-0.23438s-0.09375-0.21875-0.23438-0.21875h-1.7031l0.375-1.4688 1.2188 0.70312c0.03125 0.015625 0.078125 0.015625 0.10938 0.015625 0.125 0 0.23438-0.09375 0.23438-0.21875zm-3.3281 6.125 0.70312-2.6406 1.9375 1.125zm2.3438-9.875-0.70312 2.6406-1.9375-1.125z"/>
</g>
</defs>
<g transform="translate(-149.27 -124.87)">
<use x="148.71201" y="134.996" xlink:href="#a"/>
</g>
</svg>
