<?xml version="1.0" encoding="UTF-8"?>
<svg fill="#000000" version="1.1" viewBox="0 0 4.25 9.625" xmlns="http://www.w3.org/2000/svg" xmlns:xlink="http://www.w3.org/1999/xlink">
<defs>
<g id="a">
<path d="m0.28125 0.92188h2.0938v0.26562c0 0.375-0.3125 0.4375-0.625 0.4375-0.125 0-0.25-0.015625-0.34375-0.015625v0.3125h2.7031v-0.3125c-0.10938 0-0.23438 0.015625-0.34375 0.015625-0.32812 0-0.60938-0.046875-0.60938-0.4375v-0.26562h0.98438v-0.3125h-0.98438v-2.9531c0-0.09375-0.046875-0.17188-0.17188-0.17188-0.1875 0-0.26562 0.15625-0.35938 0.26562-0.70312 0.89062-1.4531 1.75-2.1719 2.6406-0.09375 0.10938-0.17188 0.17188-0.17188 0.34375zm0.40625-8.2344v0.3125c0.40625 0 0.84375 0 1.2188-0.14062v3c0 0.40625-0.32812 0.45312-0.73438 0.45312h-0.34375v0.3125h2.9062v-0.3125h-0.375c-0.45312 0-0.70312-0.03125-0.70312-0.45312v-3.3594c0-0.14062-0.03125-0.20312-0.1875-0.20312-0.10938 0.015625-0.25 0.10938-0.34375 0.17188-0.45312 0.1875-0.95312 0.21875-1.4375 0.21875zm-0.10938 7.9219 1.8594-2.25v2.25zm-0.34375-3.5781c-0.09375 0.015625-0.14062 0.09375-0.14062 0.1875 0 0.125 0.078125 0.20312 0.26562 0.20312h0.17188 3.5469c0.14062 0 0.26562-0.0625 0.26562-0.20312 0-0.125-0.10938-0.20312-0.25-0.20312h-3.5-0.20312c-0.046875 0-0.09375 0-0.15625 0.015625z"/>
</g>
</defs>
<g transform="translate(-148.81 -127.06)">
<use x="148.71201" y="134.765" xlink:href="#a"/>
</g>
</svg>
