<?xml version="1.0" encoding="UTF-8"?>
<svg fill="#000000" version="1.1" viewBox="0 0 6.7812 8.0312" xmlns="http://www.w3.org/2000/svg" xmlns:xlink="http://www.w3.org/1999/xlink">
<defs>
<g id="a">
<path d="m3.8906-7.4844v0.45312c-0.21875 0.015625-0.42188 0.03125-0.625 0.078125-1.625 0.39062-2.7188 1.9062-2.7188 3.5469 0 1.5625 1 3.1094 2.75 3.5312 0.1875 0.046875 0.39062 0.046875 0.59375 0.078125v0.34375h0.3125v-0.34375c0.54688-0.078125 1.0312-0.15625 1.4531-0.51562 0.10938-0.09375 0.17188-0.21875 0.26562-0.32812 0.125 0.25 0.5 0.625 0.625 0.625 0.0625 0 0.09375-0.046875 0.09375-0.14062v-1.6875c0-0.0625-0.015625-0.125-0.015625-0.20312 0-0.34375 0.26562-0.35938 0.70312-0.35938v-0.3125h-2.8281v0.3125c0.14062 0 0.29688-0.015625 0.45312-0.015625 0.48438 0 0.79688 0.03125 0.79688 0.48438v0.59375c0 0.92188-0.82812 1.25-1.5469 1.25v-6.6406c1.1875 0.03125 1.9531 1.2031 2.0938 2.2656 0.03125 0.125-0.015625 0.28125 0.20312 0.28125 0.09375 0 0.14062-0.046875 0.14062-0.125v-2.5625c0-0.078125-0.015625-0.15625-0.10938-0.15625-0.125 0-0.34375 0.375-0.46875 0.57812-0.078125 0.078125-0.14062 0.17188-0.1875 0.26562-0.5-0.40625-0.76562-0.6875-1.5781-0.84375-0.0625 0-0.09375-0.03125-0.09375-0.09375v-0.35938zm0 0.78125v6.5781c-1.1094-0.17188-1.9219-0.98438-2.1875-2.0625-0.09375-0.4375-0.125-0.875-0.125-1.3125 0-1.2812 0.46875-2.5781 1.7188-3.0625 0.1875-0.078125 0.39062-0.14062 0.59375-0.14062z"/>
</g>
</defs>
<g transform="translate(-149.26 -127.28)">
<use x="148.71201" y="134.765" xlink:href="#a"/>
</g>
</svg>
