<?xml version="1.0" encoding="UTF-8"?>
<svg fill="#000000" version="1.1" viewBox="0 0 4.7969 7.4219" xmlns="http://www.w3.org/2000/svg" xmlns:xlink="http://www.w3.org/1999/xlink">
<defs>
<g id="a">
<path d="m5.6875-5.625c0-0.10938-0.125-0.23438-0.21875-0.34375-0.10938-0.09375-0.23438-0.21875-0.34375-0.21875-0.125 0-0.23438 0.125-0.34375 0.21875-0.09375 0.10938-0.21875 0.23438-0.21875 0.34375 0 0.125 0.125 0.23438 0.21875 0.34375 0.10938 0.09375 0.23438 0.21875 0.34375 0.21875 0.125 0 0.23438-0.125 0.34375-0.21875 0.09375-0.10938 0.21875-0.23438 0.21875-0.34375zm-3.6719 5.7656c0-0.10938-0.125-0.23438-0.21875-0.34375-0.10938-0.09375-0.23438-0.21875-0.34375-0.21875-0.125 0-0.23438 0.125-0.34375 0.21875-0.09375 0.10938-0.21875 0.23438-0.21875 0.34375 0 0.125 0.125 0.23438 0.21875 0.34375 0.10938 0.09375 0.23438 0.21875 0.34375 0.21875 0.125 0 0.23438-0.125 0.34375-0.21875 0.09375-0.10938 0.21875-0.23438 0.21875-0.34375zm1.9688-6.5938-0.64062 2.4375h-2.4531v0.64062h2.2656l-0.32812 1.2656h-1.9375v0.64062h1.7656l-0.625 2.2812 0.5625 0.15625 0.64062-2.4375h2.4531v-0.64062h-2.2656l0.34375-1.2656h1.9219v-0.64062h-1.7656l0.625-2.2812z"/>
</g>
</defs>
<g transform="translate(-149.6 -128.31)">
<use x="148.71201" y="134.765" xlink:href="#a"/>
</g>
</svg>
