<?xml version="1.0" encoding="UTF-8"?>
<svg fill="#000000" version="1.1" viewBox="0 0 7.3125 6.9219" xmlns="http://www.w3.org/2000/svg" xmlns:xlink="http://www.w3.org/1999/xlink">
<defs>
<g id="a">
<path d="m5.125-3.2656c0.078125 1.4062 0.9375 2.6719 2.2344 3.25 0.03125 0 0.046875 0.015625 0.078125 0.015625 0.10938 0 0.20312-0.09375 0.20312-0.20312 0-0.078125-0.046875-0.14062-0.125-0.17188-1.2188-0.54688-2-1.7656-2-3.0781 0-1.3438 0.78125-2.5469 2-3.0938 0.078125-0.03125 0.125-0.09375 0.125-0.17188 0-0.10938-0.09375-0.20312-0.20312-0.20312-0.03125 0-0.046875 0-0.078125 0.015625-1.2969 0.57812-2.1562 1.8281-2.2344 3.25h-2.2812c-0.078125-1.4219-0.9375-2.6719-2.2188-3.25-0.03125-0.015625-0.0625-0.015625-0.09375-0.015625-0.09375 0-0.20312 0.078125-0.20312 0.1875 0 0.078125 0.046875 0.15625 0.125 0.1875 1.2188 0.54688 2 1.75 2 3.0938 0 1.3125-0.78125 2.5312-2 3.0781-0.078125 0.03125-0.125 0.09375-0.125 0.17188 0 0.10938 0.09375 0.20312 0.20312 0.20312 0.03125 0 0.0625-0.015625 0.09375-0.015625 1.2812-0.57812 2.1406-1.8438 2.2188-3.25z"/>
</g>
</defs>
<g transform="translate(-149.04 -127.84)">
<use x="148.71201" y="134.765" xlink:href="#a"/>
</g>
</svg>
