<?xml version="1.0" encoding="UTF-8"?>
<svg fill="#000000" version="1.1" viewBox="0 0 4.7969 2.5469" xmlns="http://www.w3.org/2000/svg" xmlns:xlink="http://www.w3.org/1999/xlink">
<defs>
<g id="a">
<path d="m0.89062-1.4688h4.7969v-0.64062h-1.5781c0.14062-0.17188 0.21875-0.39062 0.21875-0.625 0-0.25-0.078125-0.46875-0.21875-0.64062h1.5781v-0.64062h-4.7969v0.64062h1.5781c-0.14062 0.17188-0.21875 0.39062-0.21875 0.64062 0 0.23438 0.078125 0.45312 0.21875 0.625h-1.5781zm2.4062-0.71875c-0.3125 0-0.5625-0.25-0.5625-0.54688 0-0.3125 0.25-0.5625 0.5625-0.5625 0.29688 0 0.54688 0.25 0.54688 0.5625 0 0.29688-0.25 0.54688-0.54688 0.54688z"/>
</g>
</defs>
<g transform="translate(-149.6 -130.75)">
<use x="148.71201" y="134.765" xlink:href="#a"/>
</g>
</svg>
