<?xml version="1.0" encoding="UTF-8"?>
<svg fill="#000000" version="1.1" viewBox="0 0 8.1719 8.1719" xmlns="http://www.w3.org/2000/svg" xmlns:xlink="http://www.w3.org/1999/xlink">
<defs>
<g id="a">
<path d="m6.4531-2.5156c0-1.0469-0.79688-1.9219-1.9219-1.9219-1.0625 0-1.9219 0.875-1.9219 1.9219 0 1.0625 0.85938 1.9219 1.9219 1.9219 1.0469 0 1.9219-0.875 1.9219-1.9219zm-0.51562 0c0 0.79688-0.64062 1.4062-1.4062 1.4062-0.79688 0-1.4062-0.60938-1.4062-1.4062 0-0.78125 0.60938-1.4062 1.4062-1.4062 0.76562 0 1.4062 0.625 1.4062 1.4062zm2.6875 4.0938v-8.1719h-8.1719v8.1719zm-0.65625-0.65625h-6.8594v-6.8594h6.8594z"/>
</g>
</defs>
<g transform="translate(-149.17 -128.17)">
<use x="148.71201" y="134.765" xlink:href="#a"/>
</g>
</svg>
