<?xml version="1.0" encoding="UTF-8"?>
<svg fill="#000000" version="1.1" viewBox="0 0 6.8594 6.375" xmlns="http://www.w3.org/2000/svg" xmlns:xlink="http://www.w3.org/1999/xlink">
<defs>
<g id="a">
<path d="m7.4062-2.8125c0.10938 0 0.20312-0.078125 0.21875-0.1875 0.34375-1.9375 1.1406-2.0469 1.1406-2.3438 0-0.046875 0-0.078125-0.015625-0.125-0.0625-0.078125-0.10938-0.10938-0.17188-0.10938-0.17188 0-0.4375 0.17188-0.98438 0.17188-0.78125 0-1.5312-0.32812-1.6094-0.32812-0.125 0-0.25 0.078125-0.25 0.21875 0 0.10938 0.0625 0.1875 0.17188 0.21875 0.53125 0.20312 1.125 0.25 1.6719 0.4375-0.15625 0.125-0.32812 0.23438-0.51562 0.29688-0.65625 0.23438-1.9062-0.10938-1.9531 1.7344l-1.7656-0.82812c-0.078125-0.015625-0.15625 0-0.20312 0.09375-0.03125 0.0625 0 0.15625 0.078125 0.1875l1.8906 0.875c0 0.5625-0.03125 0.95312-0.3125 1.1875-0.40625 0.32812-0.95312 0.09375-1.6406 0.48438 0.09375-0.28125 0.35938-1.0469 0.35938-1.2188 0-0.125-0.09375-0.23438-0.23438-0.23438-0.10938 0-0.20312 0.078125-0.23438 0.1875-0.32812 1.9375-1.1406 2.0469-1.1406 2.3438 0 0.046875 0.015625 0.078125 0.03125 0.125 0.0625 0.078125 0.10938 0.10938 0.17188 0.10938 0.15625 0 0.4375-0.17188 0.98438-0.17188 0.78125 0 1.5156 0.32812 1.6094 0.32812 0.125 0 0.23438-0.078125 0.23438-0.21875 0-0.10938-0.046875-0.1875-0.15625-0.21875-0.53125-0.20312-1.125-0.25-1.6719-0.4375 0.15625-0.125 0.32812-0.23438 0.51562-0.29688 0.65625-0.23438 1.9062 0.10938 1.9531-1.7344l1.7656 0.8125c0.078125 0.03125 0.15625 0 0.1875-0.078125 0.046875-0.0625 0.015625-0.15625-0.0625-0.1875l-1.8906-0.89062c0-0.54688 0.03125-0.9375 0.29688-1.1719 0.42188-0.32812 0.96875-0.09375 1.6562-0.48438-0.10938 0.28125-0.35938 1.0469-0.35938 1.2188 0 0.125 0.09375 0.23438 0.23438 0.23438z"/>
</g>
</defs>
<g transform="translate(-150.62 -129.03)">
<use x="148.71201" y="134.765" xlink:href="#a"/>
</g>
</svg>
