<?xml version="1.0" encoding="UTF-8"?>
<svg fill="#000000" version="1.1" viewBox="0 0 7.3906 6.7969" xmlns="http://www.w3.org/2000/svg" xmlns:xlink="http://www.w3.org/1999/xlink">
<defs>
<g id="a">
<path d="m0.46875-6.8125v0.29688h0.5c0.28125 0 0.53125 0.03125 0.53125 0.17188v1.9844h-1.125c-0.078125 0-0.20312 0.015625-0.20312 0.10938v0.015625c0 0.09375 0.09375 0.09375 0.17188 0.09375h1.1562v1.7188h-1.125c-0.078125 0-0.20312 0.015625-0.20312 0.10938v0.015625c0 0.078125 0.09375 0.09375 0.17188 0.09375h1.1562v1.0938c0 0.73438-0.5625 0.79688-1.0312 0.79688v0.29688h2.3281v-0.29688c-0.46875 0-1.0156-0.0625-1.0156-0.79688v-1.0938h2.4844c0.046875 0 0.09375-0.015625 0.14062-0.015625 0.1875 0 0.32812 0.3125 0.45312 0.5 0.34375 0.51562 0.71875 1.0312 1.0625 1.5625 0.046875 0.0625 0.09375 0.14062 0.1875 0.14062 0.078125 0 0.14062-0.03125 0.14062-0.14062v-2.0469h1.1406c0.09375 0 0.17188-0.015625 0.17188-0.09375v-0.015625c0-0.09375-0.10938-0.10938-0.20312-0.10938h-1.1094v-1.7188h1.1406c0.09375 0 0.17188 0 0.17188-0.09375v-0.015625c0-0.09375-0.10938-0.10938-0.20312-0.10938h-1.1094v-1.375c0-0.71875 0.57812-0.78125 1.0312-0.78125v-0.29688h-2.3438v0.29688c0.45312 0 1.0312 0.0625 1.0312 0.78125v1.375h-1.75l-0.17188-0.015625-1.6719-2.4219-0.1875-0.015625zm1.3125 4.3906v-1.7188h1.4219l1.1719 1.7188zm2.4219-1.7188h1.7656v1.7188h-0.60938l-0.90625-1.3438zm-2.4219-0.21875v-1.875l1.2969 1.875zm3.7344 2.1562h0.45312v0.67188z"/>
</g>
</defs>
<g transform="translate(-148.88 -127.95)">
<use x="148.71201" y="134.765" xlink:href="#a"/>
</g>
</svg>
