<?xml version="1.0" encoding="UTF-8"?>
<svg fill="#000000" version="1.1" viewBox="0 0 4.8125 4.8125" xmlns="http://www.w3.org/2000/svg" xmlns:xlink="http://www.w3.org/1999/xlink">
<defs>
<g id="a">
<path d="m3.875-2.2188c0.078125 0.078125 0.15625 0.17188 0.23438 0.25l1.6094 1.5938c0.10938 0.10938 0.21875 0.28125 0.35938 0.28125 0.10938 0 0.20312-0.09375 0.20312-0.20312s-0.078125-0.17188-0.15625-0.25l-1.7969-1.7969c-0.046875-0.03125-0.125-0.09375-0.125-0.15625s0.078125-0.125 0.125-0.15625l1.7969-1.7969c0.078125-0.078125 0.15625-0.14062 0.15625-0.25s-0.09375-0.20312-0.20312-0.20312c-0.14062 0-0.25 0.17188-0.35938 0.26562l-1.6094 1.6094c-0.078125 0.078125-0.15625 0.15625-0.23438 0.25l-2-2c-0.046875-0.046875-0.125-0.125-0.20312-0.125-0.10938 0-0.20312 0.09375-0.20312 0.20312s0.09375 0.1875 0.17188 0.25l1.7812 1.7969c0.03125 0.03125 0.125 0.09375 0.125 0.15625s-0.09375 0.125-0.125 0.15625l-1.7969 1.7969c-0.0625 0.0625-0.15625 0.14062-0.15625 0.25s0.09375 0.20312 0.20312 0.20312c0.078125 0 0.15625-0.078125 0.20312-0.125l2-2z"/>
</g>
</defs>
<g transform="translate(-150.18 -129.86)">
<use x="148.71201" y="134.765" xlink:href="#a"/>
</g>
</svg>
