<?xml version="1.0" encoding="UTF-8"?>
<svg fill="#000000" version="1.1" viewBox="0 0 5.2188 5.6562" xmlns="http://www.w3.org/2000/svg" xmlns:xlink="http://www.w3.org/1999/xlink">
<defs>
<g id="a">
<path d="m4.3125-5.3438h-0.65625v2.9688c0 0.35938-0.1875 0.65625-0.5625 0.65625s-0.57812-0.29688-0.57812-0.65625v-2.9688h-0.65625v2.9844c0 0.76562 0.51562 1.2969 1.2344 1.2969s1.2188-0.53125 1.2188-1.2969zm1.3906 0h-0.65625v2.9375c0 1.1406-0.875 2.0625-1.9531 2.0625-1.0625 0-1.9531-0.90625-1.9531-2.0469v-2.9531h-0.65625v2.9531c0 1.5938 1.125 2.7031 2.6094 2.7031s2.6094-1.0938 2.6094-2.6719z"/>
</g>
</defs>
<g transform="translate(-149.2 -129.42)">
<use x="148.71201" y="134.765" xlink:href="#a"/>
</g>
</svg>
