<?xml version="1.0" encoding="UTF-8"?>
<svg fill="#000000" version="1.1" viewBox="0 0 6.6406 4.5156" xmlns="http://www.w3.org/2000/svg" xmlns:xlink="http://www.w3.org/1999/xlink">
<defs>
<g id="a">
<path d="m7.2031-0.3125c-0.046875 0-0.20312 0.015625-0.23438 0.015625-0.78125 0-1.3125-0.78125-1.6562-1.2969-0.09375-0.17188-0.375-0.57812-0.48438-0.75 0.25-0.53125 0.90625-1.7656 2.0938-1.7656 0.078125 0 0.17188 0 0.28125 0.015625 0-0.25-0.015625-0.26562-0.03125-0.28125-0.078125-0.015625-0.21875-0.03125-0.3125-0.03125-1.2656 0-2 1.2188-2.25 1.7188-0.39062-0.60938-0.53125-0.82812-0.90625-1.1406-0.60938-0.53125-1.1562-0.57812-1.4062-0.57812-1.0938 0-1.7344 1.1094-1.7344 2.2656 0 1.1094 0.60938 2.25 1.7031 2.25 1.2656 0 2.0156-1.2188 2.25-1.7188 0.40625 0.60938 0.53125 0.82812 0.90625 1.1406 0.60938 0.53125 1.1562 0.57812 1.4062 0.57812 0.125 0 0.28125-0.015625 0.375-0.046875zm-2.9062-1.6406c-0.23438 0.53125-0.90625 1.7812-2.0938 1.7812-0.96875 0-1.4219-1.0625-1.4219-1.9688 0-0.98438 0.54688-1.8594 1.375-1.8594 0.79688 0 1.3281 0.78125 1.6562 1.2969 0.10938 0.17188 0.375 0.57812 0.48438 0.75z"/>
</g>
</defs>
<g transform="translate(-149.27 -130.36)">
<use x="148.71201" y="134.765" xlink:href="#a"/>
</g>
</svg>
