<?xml version="1.0" encoding="UTF-8"?>
<svg fill="#000000" version="1.1" viewBox="0 0 6.625 7.25" xmlns="http://www.w3.org/2000/svg" xmlns:xlink="http://www.w3.org/1999/xlink">
<defs>
<g id="a">
<path d="m7.1875-3.375c0-2.0312-1.5-3.6562-3.3125-3.6562-1.7969 0-3.3125 1.5938-3.3125 3.6562 0 2.0469 1.5312 3.5938 3.3125 3.5938 1.8125 0 3.3125-1.5781 3.3125-3.5938zm-3.3125 3.3594c-0.98438 0-2.3438-0.85938-2.3438-3.3594 0-2.5625 1.375-3.4375 2.3438-3.4375 1 0 2.3438 0.90625 2.3438 3.4375s-1.4062 3.3594-2.3438 3.3594zm1.7812-4.1094h-0.25v0.34375h-3.0625v-0.34375h-0.25v1.4375h0.25v-0.34375h3.0625v0.34375h0.25z"/>
</g>
</defs>
<g transform="translate(-149.27 -127.73)">
<use x="148.71201" y="134.765" xlink:href="#a"/>
</g>
</svg>
