<?xml version="1.0" encoding="UTF-8"?>
<svg fill="#000000" version="1.1" viewBox="0 0 5.0469 8.4375" xmlns="http://www.w3.org/2000/svg" xmlns:xlink="http://www.w3.org/1999/xlink">
<defs>
<g id="a">
<path d="m1.75 1.4375c0 0.14062 0.125 0.23438 0.25 0.23438 0.10938 0 0.76562-0.32812 1.5938-0.32812 0.29688 0 0.59375 0.046875 0.875 0.14062 0.03125 0.015625 0.0625 0.015625 0.09375 0.015625 0.125 0 0.21875-0.10938 0.21875-0.21875 0-0.29688-0.79688-0.40625-1.1406-2.3438-0.015625-0.125-0.10938-0.20312-0.21875-0.20312-0.14062 0-0.23438 0.10938-0.23438 0.23438 0 0.21875 0.29688 1.0781 0.40625 1.4375-0.8125-0.70312-1.3125-1.7344-1.3438-2.8438l1.9375-0.34375c0.078125-0.015625 0.125-0.09375 0.125-0.17188-0.03125-0.078125-0.09375-0.14062-0.17188-0.125l-1.8906 0.34375c0.046875-1.0781 0.54688-2.0781 1.3438-2.7656-0.10938 0.35938-0.40625 1.2188-0.40625 1.4375 0 0.125 0.09375 0.23438 0.23438 0.23438 0.10938 0 0.20312-0.078125 0.21875-0.20312 0.34375-1.9375 1.1406-2.0469 1.1406-2.3438 0-0.03125 0-0.078125-0.03125-0.10938-0.046875-0.078125-0.09375-0.10938-0.17188-0.10938-0.15625 0-0.42188 0.15625-0.98438 0.15625-0.76562 0-1.5156-0.32812-1.5938-0.32812-0.125 0-0.25 0.09375-0.25 0.23438 0 0.09375 0.0625 0.1875 0.15625 0.21875 0.48438 0.17188 1 0.23438 1.5 0.375-0.96875 0.78125-1.5781 1.9844-1.6094 3.2812l-1.9531 0.34375c-0.0625 0.015625-0.10938 0.0625-0.10938 0.14062 0 0.09375 0.09375 0.17188 0.17188 0.14062l1.8906-0.32812c0.0625 1.2656 0.65625 2.4219 1.6094 3.2031-0.9375 0.26562-1.6562 0.25-1.6562 0.59375z"/>
</g>
</defs>
<g transform="translate(-148.45 -128)">
<use x="148.71201" y="134.765" xlink:href="#a"/>
</g>
</svg>
