<?xml version="1.0" encoding="UTF-8"?>
<svg fill="#000000" version="1.1" viewBox="0 0 6.1719 6.1719" xmlns="http://www.w3.org/2000/svg" xmlns:xlink="http://www.w3.org/1999/xlink">
<defs>
<g id="a">
<path d="m6.5938 0-3.2188-3.2188c0.15625-0.15625 0.3125-0.29688 0.48438-0.42188l-0.40625-0.53125c-0.1875 0.15625-0.375 0.3125-0.54688 0.48438l-1.75-1.7656-0.48438 0.45312 1.8125 1.8125c-0.5625 0.71875-0.9375 1.5781-1.0625 2.5312h-1v0.65625h0.96875c0 0.23438 0 0.48438 0.046875 0.71875l0.64062-0.09375c-0.03125-0.20312-0.03125-0.42188-0.03125-0.625zm-1.5781-0.65625h-2.9219c0.10938-0.76562 0.40625-1.4688 0.85938-2.0625z"/>
</g>
</defs>
<g transform="translate(-149.13 -129.31)">
<use x="148.71201" y="134.765" xlink:href="#a"/>
</g>
</svg>
