<?xml version="1.0" encoding="UTF-8"?>
<svg fill="#000000" version="1.1" viewBox="0 0 6.7812 6.7812" xmlns="http://www.w3.org/2000/svg" xmlns:xlink="http://www.w3.org/1999/xlink">
<defs>
<g id="a">
<path d="m6.1719-3.625c0-0.14062-0.10938-0.21875-0.23438-0.21875-0.0625 0-0.21875 0.015625-0.57812 0.015625-0.64062 0-1.2656-0.10938-1.7969-0.48438l-0.6875-0.6875h0.015625c0.39062 0 0.76562 0.046875 1.1562 0.046875h0.09375c0.21875 0 0.45312-0.015625 0.45312-0.25 0-0.125-0.10938-0.23438-0.23438-0.23438-0.046875 0-0.23438 0.03125-0.57812 0.03125-1.375 0-1.75-0.53125-1.9531-0.53125-0.14062 0-0.21875 0.10938-0.21875 0.23438 0 0.20312 0.53125 0.5625 0.53125 1.9375 0 0.35938-0.03125 0.53125-0.03125 0.57812 0 0.125 0.09375 0.23438 0.23438 0.23438 0.23438 0 0.23438-0.23438 0.23438-0.48438v-0.0625c0-0.39062-0.03125-0.78125-0.03125-1.1719l0.6875 0.6875c0.35938 0.53125 0.48438 1.1562 0.48438 1.8125 0 0.34375-0.03125 0.5-0.03125 0.5625 0 0.14062 0.09375 0.23438 0.23438 0.23438 0.23438 0 0.25-0.23438 0.25-0.48438v-0.0625c0-0.39062-0.0625-0.78125-0.0625-1.1719l3.8906 3.8594c0.03125 0.046875 0.09375 0.078125 0.15625 0.078125s0.23438-0.046875 0.23438-0.23438c0-0.0625-0.03125-0.125-0.078125-0.15625l-3.8594-3.875h0.015625c0.39062 0 0.76562 0.046875 1.1562 0.046875h0.09375c0.21875 0 0.45312-0.015625 0.45312-0.25z"/>
</g>
</defs>
<g transform="translate(-150.32 -128.83)">
<use x="148.71201" y="134.765" xlink:href="#a"/>
</g>
</svg>
