<?xml version="1.0" encoding="UTF-8"?>
<svg fill="#000000" width="5.2188" height="4.7188" version="1.1" viewBox="0 0 5.2188 4.7187" xmlns="http://www.w3.org/2000/svg" xmlns:xlink="http://www.w3.org/1999/xlink">
<defs>
<g id="a">
<path d="m5.4688-3.6875c0.125 0 0.20312-0.09375 0.57812-0.39062-0.28125 0.85938-1.0625 1.3438-1.8125 1.3438-1.0469 0-1.9219-0.82812-1.9219-1.9219 0-1.0312 0.82812-1.9062 1.9062-1.9062 0.82812 0 1.4531 0.5 1.7344 1.0938 0.03125 0.078125 0.125 0.14062 0.20312 0.14062 0.125 0 0.21875-0.10938 0.21875-0.21875 0-0.20312-0.70312-1.4688-2.1562-1.4688-1.3438 0-2.3438 1.1094-2.3438 2.3594 0 1.3438 1.0938 2.3594 2.3594 2.3594 1.1562 0 1.9531-0.8125 2.2188-1.5938 0.14062 0.23438 0.25 0.45312 0.40625 0.45312 0.125 0 0.23438-0.09375 0.23438-0.21875 0-0.1875-0.53125-0.54688-0.53125-1.1719 0-0.10938-0.078125-0.20312-0.17188-0.21875-0.03125 0-0.046875-0.015625-0.078125-0.015625-0.26562 0-0.0625 0.4375-0.96875 0.96875-0.0625 0.03125-0.10938 0.10938-0.10938 0.1875 0 0.125 0.10938 0.21875 0.23438 0.21875z"/>
</g>
</defs>
<g transform="translate(-150.59 -129.85)">
<use x="148.71201" y="136.868" xlink:href="#a"/>
</g>
</svg>
