<?xml version="1.0" encoding="UTF-8"?>
<svg fill="#000000" version="1.1" viewBox="0 0 5.8594 4.875" xmlns="http://www.w3.org/2000/svg" xmlns:xlink="http://www.w3.org/1999/xlink">
<defs>
<g id="a">
<path d="m4.0156-2.1094c-0.5 0.71875-1.0781 1.4844-1.6562 1.4844-0.6875 0-0.85938-0.95312-0.85938-1.5312 0-0.73438 0.23438-1.9375 1.1562-1.9375 0.75 0 1.0156 0.85938 1.3594 1.9844zm1.5469-2.5625-0.9375 1.6094-0.09375-0.015625c-0.15625-0.54688-0.5-1.5938-1.375-1.5938-1.5156 0-2.3125 1.6094-2.3125 2.9844 0 0.6875 0.25 1.8125 1.0469 1.8125 0.60938 0 1.2031-0.5 1.5625-0.9375l0.64062-0.78125 0.10938 0.015625 0.46875 1.3438c0.046875 0.25 0.29688 0.4375 0.53125 0.4375 0.34375 0 0.82812-0.42188 1.5-0.95312l-0.0625-0.20312h-0.09375c-0.28125 0.20312-0.625 0.45312-0.875 0.45312-0.48438 0-0.8125-1.2656-0.98438-1.8594 0-0.015625 0.92188-1.3906 1.3906-2.0781z"/>
</g>
</defs>
<g transform="translate(-149.56 -130.09)">
<use x="148.71201" y="134.765" xlink:href="#a"/>
</g>
</svg>
