<?xml version="1.0" encoding="UTF-8"?>
<svg fill="#000000" version="1.1" viewBox="0 0 7.375 7.0156" xmlns="http://www.w3.org/2000/svg" xmlns:xlink="http://www.w3.org/1999/xlink">
<defs>
<g id="a">
<path d="m0.32812-6.8125v0.29688c0.21875 0 0.42188 0 0.65625 0.03125 0.09375 0 0.20312 0.015625 0.28125 0.09375 0.09375 0.078125 0.09375 0.20312 0.09375 0.3125v3.3906c0 0.3125-0.03125 0.625 0.0625 0.9375 0.046875 0.1875 0.10938 0.375 0.21875 0.54688 0.32812 0.60938 0.90625 1.0625 1.5781 1.2656 0.32812 0.10938 0.67188 0.14062 1.0156 0.14062 0.29688 0 0.59375-0.0625 0.85938-0.17188 0.23438-0.09375 0.4375-0.20312 0.625-0.35938 0.48438-0.39062 0.82812-0.95312 0.92188-1.5781 0.0625-0.34375 0.03125-0.70312 0.03125-1.0469v-2.6562c0-0.21875-0.015625-0.45312 0.125-0.625 0.21875-0.25 0.59375-0.28125 0.90625-0.28125v-0.29688h-2.375v0.29688c0.3125 0 0.6875 0.03125 0.90625 0.28125 0.15625 0.1875 0.125 0.4375 0.125 0.65625v2.6719c0 0.3125 0.015625 0.64062-0.03125 0.95312-0.078125 0.59375-0.39062 1.1094-0.89062 1.4531-0.15625 0.125-0.35938 0.21875-0.5625 0.28125-0.25 0.09375-0.51562 0.125-0.78125 0.125-0.20312-0.015625-0.39062-0.046875-0.5625-0.10938-0.046875-0.015625-0.15625-0.03125-0.17188-0.09375-0.015625-0.046875-0.015625-0.10938-0.015625-0.14062v-5.4375c0-0.15625-0.03125-0.34375 0.0625-0.46875 0.0625-0.10938 0.1875-0.125 0.29688-0.14062 0.21875-0.03125 0.4375-0.03125 0.67188-0.03125v-0.29688zm2.7188 0.29688v6.0625c-0.125-0.0625-0.21875-0.17188-0.3125-0.26562-0.34375-0.375-0.4375-0.85938-0.48438-1.3594-0.015625-0.1875 0-0.39062 0-0.57812v-3.8594z"/>
</g>
</defs>
<g transform="translate(-149.04 -127.95)">
<use x="148.71201" y="134.765" xlink:href="#a"/>
</g>
</svg>
