<?xml version="1.0" encoding="UTF-8"?>
<svg fill="#000000" version="1.1" viewBox="0 0 10.766 5.0312" xmlns="http://www.w3.org/2000/svg" xmlns:xlink="http://www.w3.org/1999/xlink">
<defs>
<g id="a">
<path d="m0.5625-0.40625c-0.10938 0-0.20312 0.09375-0.20312 0.20312s0.09375 0.20312 0.20312 0.20312h10.359c0.10938 0 0.20312-0.09375 0.20312-0.20312s-0.09375-0.20312-0.20312-0.20312zm7.2969-1.7344v0.03125c0 0.09375 0.078125 0.1875 0.1875 0.20312h2.875c0.10938 0 0.20312-0.09375 0.20312-0.20312s-0.09375-0.20312-0.20312-0.20312h-2.6406v-0.046875c0-0.70312-0.25-1.4062-0.75-1.9375-0.46875-0.48438-1.125-0.73438-1.7969-0.73438-0.65625 0-1.2969 0.25-1.7656 0.73438-0.51562 0.53125-0.75 1.2344-0.75 1.9375v0.046875h-2.6562c-0.10938 0-0.20312 0.09375-0.20312 0.20312s0.09375 0.20312 0.20312 0.20312h2.8906c0.09375-0.015625 0.17188-0.10938 0.17188-0.20312v-0.03125-0.21875c0-0.625 0.20312-1.2188 0.625-1.6406 0.39062-0.40625 0.9375-0.625 1.4844-0.625 0.57812 0 1.1094 0.21875 1.5 0.625 0.4375 0.42188 0.64062 1.0156 0.64062 1.6406 0 0.078125 0 0.14062-0.015625 0.21875z"/>
</g>
</defs>
<g transform="translate(-149.07 -129.73)">
<use x="148.71201" y="134.765" xlink:href="#a"/>
</g>
</svg>
