<?xml version="1.0" encoding="UTF-8"?>
<svg fill="#000000" version="1.1" viewBox="0 0 6.0975 5.8758" xmlns="http://www.w3.org/2000/svg" xmlns:xlink="http://www.w3.org/1999/xlink">
<defs>
<g id="a">
<path d="m3.5625-1.9844h-2.125c-0.15625 0-0.34375-0.015625-0.5 0-0.125 0.015625-0.10938 0.125-0.10938 0.21875 0 0.046875 0 0.10938 0.046875 0.15625 0.03125 0.03125 0.078125 0.03125 0.125 0.03125h0.20312 5.3125 0.25c0.03125 0 0.078125 0 0.125-0.03125 0.046875-0.0625 0.03125-0.14062 0.03125-0.21875v-0.078125c-0.015625-0.03125-0.03125-0.0625-0.0625-0.0625-0.046875-0.03125-0.09375-0.015625-0.14062-0.015625h-2.5312c0.17188-0.32812 0.39062-0.64062 0.59375-0.96875 0.375-0.64062 0.76562-1.2812 1.1562-1.9219 0.14062-0.23438 0.28125-0.45312 0.42188-0.6875 0.046875-0.0625 0.14062-0.17188 0.078125-0.26562-0.03125-0.03125-0.046875-0.03125-0.078125-0.046875-0.078125 0-0.21875-0.015625-0.28125 0.03125s-0.10938 0.14062-0.14062 0.20312c-0.09375 0.14062-0.1875 0.3125-0.28125 0.45312-0.375 0.60938-0.71875 1.2031-1.0938 1.8125-0.14062 0.23438-0.28125 0.46875-0.4375 0.70312-0.078125 0.125-0.17188 0.26562-0.23438 0.40625h-0.015625c-0.0625-0.125-0.15625-0.25-0.23438-0.375-0.10938-0.1875-0.23438-0.375-0.34375-0.5625-0.39062-0.67188-0.79688-1.3281-1.2031-1.9844-0.09375-0.15625-0.1875-0.3125-0.26562-0.45312-0.046875-0.0625-0.078125-0.15625-0.14062-0.20312-0.03125-0.015625-0.0625-0.03125-0.10938-0.03125-0.078125 0-0.20312-0.015625-0.26562 0.046875-0.046875 0.09375 0.046875 0.20312 0.09375 0.28125 0.125 0.21875 0.28125 0.45312 0.42188 0.6875 0.375 0.625 0.76562 1.2656 1.1562 1.9062 0.1875 0.32812 0.40625 0.64062 0.57812 0.96875zm-2.6719 1.5781c-0.078125 0.046875-0.0625 0.14062-0.0625 0.23438 0 0.015625 0 0.0625 0.015625 0.09375s0.03125 0.046875 0.0625 0.0625c0.078125 0.03125 0.1875 0 0.26562 0h5.5938c0.046875 0 0.09375 0 0.125-0.03125s0.03125-0.078125 0.03125-0.125c0-0.09375 0.015625-0.20312-0.078125-0.23438h-0.14062-5.6562c-0.046875 0-0.09375-0.015625-0.15625 0z"/>
</g>
</defs>
<g transform="translate(-149.54 -128.89)">
<use x="148.71201" y="134.765" xlink:href="#a"/>
</g>
</svg>
