<?xml version="1.0" encoding="UTF-8"?>
<svg fill="#000000" version="1.1" viewBox="0 0 6.0938 11.516" xmlns="http://www.w3.org/2000/svg" xmlns:xlink="http://www.w3.org/1999/xlink">
<defs>
<g id="a">
<path d="m6.1562-7.1094h0.40625c0.17188 0 0.35938 0 0.35938-0.20312 0-0.09375-0.078125-0.1875-0.1875-0.1875h-0.40625c0.15625-0.32812 0.23438-0.5 0.23438-0.5625 0-0.125-0.125-0.1875-0.20312-0.1875-0.125 0-0.15625 0.0625-0.26562 0.3125-0.10938 0.20312-0.125 0.26562-0.1875 0.4375h-2.0312c-1.6719 0-3.0469 1.2656-3.0469 2.875 0 1.3594 0.98438 2.5781 2.5156 2.8438l-0.71875 1.5781h-1.4531c-0.17188 0-0.34375 0-0.34375 0.20312s0.17188 0.20312 0.34375 0.20312h1.2812l-0.6875 1.5312h-0.59375c-0.17188 0-0.34375 0-0.34375 0.20312s0.17188 0.20312 0.34375 0.20312h0.40625c-0.015625 0.03125-0.15625 0.35938-0.1875 0.4375-0.078125 0.15625-0.20312 0.45312-0.20312 0.5 0 0.125 0.125 0.1875 0.20312 0.1875 0.125 0 0.17188-0.09375 0.1875-0.17188 0.15625-0.3125 0.3125-0.625 0.45312-0.95312h4.5312c0.17188 0 0.35938 0 0.35938-0.20312s-0.1875-0.20312-0.35938-0.20312h-4.3594l0.6875-1.5312h3.6719c0.17188 0 0.35938 0 0.35938-0.20312s-0.1875-0.20312-0.35938-0.20312h-3.4844l0.67188-1.5312h2.8125c0.17188 0 0.35938 0 0.35938-0.20312s-0.1875-0.20312-0.35938-0.20312h-2.6406zm-0.4375 0-2.1562 4.8125-0.03125 0.078125c-0.015625 0.046875-0.015625 0.0625-0.046875 0.0625-0.046875 0-0.46875-0.0625-0.92188-0.29688-0.73438-0.39062-1.3438-1.1719-1.3438-2.1562 0-1.3594 1.1406-2.5 2.6875-2.5z"/>
</g>
</defs>
<g transform="translate(-149.54 -126.52)">
<use x="148.71201" y="134.765" xlink:href="#a"/>
</g>
</svg>
