<?xml version="1.0" encoding="UTF-8"?>
<svg fill="#000000" version="1.1" viewBox="0 0 7.7812 12.016" xmlns="http://www.w3.org/2000/svg" xmlns:xlink="http://www.w3.org/1999/xlink">
<defs>
<g id="a">
<path d="m2.8594-1.2031c-0.17188-0.0625-0.34375-0.125-0.5-0.21875-0.5-0.26562-0.82812-0.76562-0.82812-1.3125 0-0.5625 0.32812-1.0625 0.82812-1.3281 0.15625-0.078125 0.32812-0.15625 0.5-0.21875zm3 0.17188c-0.35938 0.03125-0.71875 0.046875-1.0781 0.046875s-0.71875-0.015625-1.0625-0.046875v-3.4219c0.34375-0.03125 0.70312-0.046875 1.0625-0.046875s0.71875 0.015625 1.0781 0.046875zm2.1719-1.7031c0 0.54688-0.32812 1.0469-0.8125 1.3125-0.17188 0.09375-0.32812 0.15625-0.51562 0.21875v-3.0781c0.1875 0.0625 0.34375 0.14062 0.51562 0.21875 0.48438 0.26562 0.8125 0.76562 0.8125 1.3281zm0.32812-5.9531c-0.17188-0.046875-0.3125-0.0625-0.46875-0.0625-1.1562 0.03125-2.0312 1.0469-2.0312 2.2344v1.4219c-0.35938-0.03125-0.71875-0.046875-1.0781-0.046875s-0.71875 0.015625-1.0625 0.046875v-1.4219c0-0.76562 0.3125-1.5469 0.98438-1.5469 0.15625 0 0.32812 0.015625 0.48438 0.046875l0.17188-0.6875c-0.14062-0.046875-0.3125-0.046875-0.46875-0.046875-1.1562 0.03125-2.0312 1.0469-2.0312 2.2344v1.5781c-0.34375 0.078125-0.67188 0.21875-0.98438 0.40625-0.625 0.375-0.98438 1.0625-0.98438 1.7969 0 0.71875 0.35938 1.4062 0.98438 1.7812 0.3125 0.20312 0.64062 0.32812 0.98438 0.42188v1.5312c0 0.78125-0.375 1.5625-1.0781 1.5625h-0.48438l0.09375 0.70312h0.0625c1.25 0 2.2656-1.0156 2.2656-2.2656v-1.3906c0.34375 0.03125 0.70312 0.046875 1.0625 0.046875s0.71875-0.015625 1.0781-0.046875v1.3906c0 0.78125-0.39062 1.5625-1.0938 1.5625h-0.48438l0.10938 0.70312h0.046875c1.25 0 2.2656-1.0156 2.2656-2.2656v-1.5312c0.35938-0.09375 0.6875-0.21875 1-0.42188 0.60938-0.375 0.96875-1.0625 0.96875-1.7812 0-0.73438-0.35938-1.4219-0.96875-1.7969-0.3125-0.1875-0.64062-0.32812-1-0.40625v-1.5781c0-0.76562 0.3125-1.5469 1-1.5469 0.15625 0 0.32812 0.015625 0.46875 0.046875z"/>
</g>
</defs>
<g transform="translate(-149.6 -126.02)">
<use x="148.71201" y="134.765" xlink:href="#a"/>
</g>
</svg>
