<?xml version="1.0" encoding="UTF-8"?>
<svg fill="#000000" version="1.1" viewBox="0 0 10.969 3.5938" xmlns="http://www.w3.org/2000/svg" xmlns:xlink="http://www.w3.org/1999/xlink">
<defs>
<g id="a">
<path d="m10.109-4.2969c-0.95312 0-1.5 0.64062-1.75 1.5h-7.0469c-0.17188 0-0.3125 0.14062-0.3125 0.29688 0 0.1875 0.15625 0.3125 0.3125 0.3125h7.0469c0.25 0.84375 0.76562 1.4844 1.7344 1.4844s1.875-0.79688 1.875-1.7812c0-1-0.85938-1.8125-1.8594-1.8125zm1.2344 1.7969c0 0.67188-0.53125 1.2031-1.2031 1.2031-0.65625 0-1.1875-0.53125-1.1875-1.2031s0.51562-1.2031 1.1875-1.2031 1.2031 0.5625 1.2031 1.2031z"/>
</g>
</defs>
<g transform="translate(-149.71 -130.47)">
<use x="148.71201" y="134.765" xlink:href="#a"/>
</g>
</svg>
