<?xml version="1.0" encoding="UTF-8"?>
<svg fill="#000000" version="1.1" viewBox="0 0 6.7656 6.8906" xmlns="http://www.w3.org/2000/svg" xmlns:xlink="http://www.w3.org/1999/xlink">
<defs>
<g id="a">
<path d="m8.6562-5.9375c-0.0625 0-0.10938 0.03125-0.15625 0.078125l-1.7031 1.6875-0.82812-1.7969c-0.03125-0.046875-0.078125-0.078125-0.14062-0.078125-0.10938 0-0.17188 0.10938-0.14062 0.20312l0.89062 1.8906-1.9531 1.9531c0-0.39062 0.046875-0.78125 0.046875-1.1719v-0.09375c0-0.21875-0.015625-0.45312-0.25-0.45312-0.14062 0-0.21875 0.09375-0.21875 0.23438 0 0.0625 0.03125 0.21875 0.03125 0.5625 0 0.65625-0.125 1.2812-0.5 1.8125l-0.6875 0.6875v-0.10938c0-0.34375 0.046875-0.71875 0.046875-1.0625v-0.09375c0-0.21875-0.015625-0.45312-0.25-0.45312-0.125 0-0.21875 0.10938-0.21875 0.23438 0 0.046875 0.015625 0.21875 0.015625 0.57812 0 1.375-0.53125 1.75-0.53125 1.9375 0 0.14062 0.10938 0.23438 0.23438 0.23438 0.20312 0 0.5625-0.53125 1.9531-0.53125 0.34375 0 0.51562 0.03125 0.5625 0.03125 0.125 0 0.23438-0.10938 0.23438-0.23438 0-0.23438-0.23438-0.25-0.48438-0.25h-0.0625c-0.375 0-0.76562 0.046875-1.1406 0.046875h-0.03125l0.6875-0.6875c0.53125-0.375 1.1562-0.48438 1.8125-0.48438 0.32812 0 0.51562 0.015625 0.5625 0.015625 0.125 0 0.23438-0.078125 0.23438-0.21875 0-0.23438-0.23438-0.25-0.48438-0.25h-0.0625c-0.39062 0-0.76562 0.046875-1.1562 0.046875h-0.03125l1.8438-1.8438 0.82812 1.7969c0.046875 0.078125 0.14062 0.10938 0.20312 0.078125 0.078125-0.03125 0.10938-0.125 0.078125-0.20312l-0.875-1.8906 1.8125-1.8125c0.03125-0.03125 0.046875-0.09375 0.046875-0.15625 0-0.125-0.078125-0.23438-0.21875-0.23438z"/>
</g>
</defs>
<g transform="translate(-150.82 -128.72)">
<use x="148.71201" y="134.765" xlink:href="#a"/>
</g>
</svg>
