<?xml version="1.0" encoding="UTF-8"?>
<svg fill="#000000" version="1.1" viewBox="0 0 6 6" xmlns="http://www.w3.org/2000/svg" xmlns:xlink="http://www.w3.org/1999/xlink">
<defs>
<g id="a">
<path d="m6.1719-2.5625c0-1.6562-1.3438-3-3-3s-3 1.3438-3 3 1.3438 3 3 3 3-1.3438 3-3zm-0.46875-0.28125-3.9688-1.8281c0.42188-0.28125 0.92188-0.4375 1.4375-0.4375 1.2969 0 2.3906 0.98438 2.5312 2.2656zm-0.54688 0.29688-3.8281 1.7344c-0.45312-0.46875-0.70312-1.0938-0.70312-1.75 0-0.64062 0.25-1.2812 0.6875-1.75zm0.54688 0.29688c-0.15625 1.2656-1.25 2.2344-2.5312 2.2344-0.5 0-1-0.14062-1.4219-0.42188z"/>
</g>
</defs>
<g transform="translate(-148.88 -129.2)">
<use x="148.71201" y="134.765" xlink:href="#a"/>
</g>
</svg>
