<?xml version="1.0" encoding="UTF-8"?>
<svg fill="#000000" width="6.081" height="6.8438" version="1.1" viewBox="0 0 6.081 6.8437" xmlns="http://www.w3.org/2000/svg" xmlns:xlink="http://www.w3.org/1999/xlink">
<defs>
<g id="a">
<path d="m6.4844 0.64062c0 0.125 0.09375 0.23438 0.23438 0.23438 0.09375 0 0.20312-0.0625 0.21875-0.17188 0.09375-0.34375 0.14062-0.6875 0.14062-1.0469 0-1.1562-0.46875-2.1562-1.1719-2.875l0.75-1.6094c0.046875-0.09375 0-0.17188-0.0625-0.20312-0.078125-0.046875-0.15625-0.015625-0.20312 0.0625l-0.70312 1.5312c-0.79688-0.70312-1.8125-1.0781-2.8438-1.0781-0.125 0-0.25 0-0.375 0.015625 0.29688-0.42188 0.84375-1.0312 0.84375-1.2344 0-0.10938-0.10938-0.23438-0.23438-0.23438-0.078125 0-0.15625 0.046875-0.20312 0.125-0.375 0.67188-0.875 1.2969-1.5625 1.6094-0.10938 0.03125-0.34375 0.10938-0.3125 0.3125 0 0.046875 0.0625 0.20312 0.21875 0.20312 0.82812 0 1.5781 0.4375 2.2031 0.98438 0.046875 0.03125 0.10938 0.046875 0.15625 0.046875 0.14062 0 0.23438-0.10938 0.23438-0.23438 0-0.0625-0.03125-0.125-0.078125-0.17188-0.4375-0.35938-0.95312-0.59375-1.3906-0.9375 0.17188-0.015625 0.32812-0.03125 0.5-0.03125 0.96875 0 1.9062 0.375 2.625 1.0469l-1 2.1719c-0.046875 0.078125 0 0.17188 0.0625 0.20312 0.078125 0.03125 0.17188 0 0.20312-0.0625l0.96875-2.0625c0.625 0.70312 0.92188 1.5625 0.92188 2.4219 0 0.59375-0.14062 0.89062-0.14062 0.98438z"/>
</g>
</defs>
<g transform="translate(-149.71 -128.8)">
<use x="148.71201" y="134.765" xlink:href="#a"/>
</g>
</svg>
