<?xml version="1.0" encoding="UTF-8"?>
<svg fill="#000000" version="1.1" viewBox="0 0 6.6406 7.2564" xmlns="http://www.w3.org/2000/svg" xmlns:xlink="http://www.w3.org/1999/xlink">
<defs>
<g id="a">
<path d="m0.625-7.0312c-0.0625 0.03125-0.0625 0.10938-0.0625 0.1875v3.3125 0.59375c0.046875 0.32812 0.10938 0.67188 0.25 1 0.46875 1.2031 1.6094 2.0781 2.9219 2.1406 0.35938 0.03125 0.73438-0.03125 1.0938-0.14062 1.1875-0.35938 2.0625-1.4219 2.2969-2.6094 0.078125-0.35938 0.078125-0.71875 0.078125-1.0781v-3.2188c0-0.046875 0-0.10938-0.046875-0.15625-0.046875-0.0625-0.1875-0.046875-0.26562-0.03125-0.0625 0.015625-0.09375 0.0625-0.09375 0.14062-0.015625 0.125 0 0.28125 0 0.42188v2.8281c0 0.4375-0.015625 0.84375-0.125 1.2656-0.29688 1.0625-1.2031 1.9531-2.3125 2.1406-0.28125 0.0625-0.5625 0.0625-0.84375 0.03125-0.3125-0.0625-0.64062-0.15625-0.92188-0.3125-0.23438-0.125-0.46875-0.28125-0.67188-0.46875-0.45312-0.4375-0.76562-1-0.89062-1.625-0.078125-0.375-0.078125-0.75-0.078125-1.125v-3.0312c0-0.0625 0.015625-0.125 0-0.1875-0.03125-0.09375-0.14062-0.078125-0.21875-0.078125h-0.10938zm1.5625 0.21875c-0.046875 0.03125-0.078125 0.078125-0.078125 0.14062v0.29688 2.5312c0 0.29688-0.015625 0.60938 0.03125 0.90625 0.078125 0.5625 0.40625 1.0781 0.90625 1.3594 0.15625 0.10938 0.32812 0.15625 0.51562 0.20312 0.21875 0.046875 0.45312 0.046875 0.67188-0.015625 0.17188-0.03125 0.34375-0.09375 0.48438-0.1875 0.5-0.29688 0.8125-0.8125 0.90625-1.375 0.03125-0.3125 0.015625-0.60938 0.015625-0.92188v-2.7188c0-0.0625 0.015625-0.10938-0.015625-0.17188-0.046875-0.078125-0.17188-0.046875-0.25-0.046875-0.17188 0-0.125 0.20312-0.125 0.32812v2.7031c0 0.35938 0.03125 0.73438-0.10938 1.0781-0.21875 0.625-0.85938 1.0781-1.5156 0.92188-0.14062-0.015625-0.28125-0.078125-0.39062-0.15625-0.39062-0.21875-0.625-0.625-0.70312-1.0469-0.03125-0.25-0.015625-0.5-0.015625-0.75v-2.8906c0-0.046875 0-0.09375-0.015625-0.14062-0.046875-0.0625-0.14062-0.046875-0.20312-0.046875h-0.10938z"/>
</g>
</defs>
<g transform="translate(-149.27 -127.72)">
<use x="148.71201" y="134.765" xlink:href="#a"/>
</g>
</svg>
