<?xml version="1.0" encoding="UTF-8"?>
<svg fill="#000000" version="1.1" viewBox="0 0 3.3279 6.3449" xmlns="http://www.w3.org/2000/svg" xmlns:xlink="http://www.w3.org/1999/xlink">
<defs>
<g id="a">
<path d="m0.46875-4.3125v0.3125c0.20312 0 0.39062 0 0.59375 0.015625 0.078125 0.015625 0.1875 0.03125 0.26562 0.09375 0.125 0.09375 0.10938 0.26562 0.10938 0.40625v0.98438h-0.70312c-0.078125 0-0.20312-0.015625-0.25 0.046875-0.046875 0.078125-0.03125 0.23438 0.078125 0.26562h0.29688 0.57812v2.0469c0 0.4375 0.03125 0.875-0.078125 1.2812-0.078125 0.29688-0.21875 0.60938-0.54688 0.65625-0.10938 0.03125-0.25 0-0.35938-0.015625s-0.20312-0.046875-0.28125-0.10938c0.3125-0.046875 0.42188-0.42188 0.29688-0.67188-0.078125-0.14062-0.23438-0.21875-0.40625-0.21875-0.0625 0-0.125 0-0.20312 0.03125-0.32812 0.15625-0.3125 0.59375-0.10938 0.84375s0.5625 0.35938 0.875 0.375c0.39062 0.015625 0.78125-0.125 1.0469-0.39062 0.1875-0.1875 0.29688-0.42188 0.375-0.67188 0.0625-0.1875 0.0625-0.39062 0.0625-0.59375v-2.5625h0.57812c0.0625 0 0.15625 0.015625 0.21875-0.046875 0.046875-0.078125 0.03125-0.23438-0.0625-0.26562-0.078125-0.015625-0.17188 0-0.25 0h-0.48438v-1c0-0.14062-0.03125-0.29688 0.078125-0.40625 0.0625-0.046875 0.15625-0.0625 0.23438-0.078125 0.15625-0.015625 0.3125-0.015625 0.45312-0.015625v-0.3125l-0.42188 0.03125h-0.98438z"/>
</g>
</defs>
<g transform="translate(-148.32 -130.45)">
<use x="148.71201" y="134.765" xlink:href="#a"/>
</g>
</svg>
