<?xml version="1.0" encoding="UTF-8"?>
<svg fill="#000000" version="1.1" viewBox="0 0 3.9062 3.7031" xmlns="http://www.w3.org/2000/svg" xmlns:xlink="http://www.w3.org/1999/xlink">
<defs>
<g id="a">
<path d="m3.0938-2.9844-0.21875-1.5c0-0.0625-0.046875-0.09375-0.10938-0.09375-0.046875 0-0.10938 0.03125-0.10938 0.09375l-0.21875 1.5-1.4844-0.28125c-0.0625 0-0.14062 0.046875-0.14062 0.125 0 0.046875 0.03125 0.078125 0.078125 0.09375l1.3594 0.67188-0.71875 1.3438c-0.046875 0.078125 0.03125 0.15625 0.10938 0.15625 0.03125 0 0.046875-0.015625 0.078125-0.03125l1.0469-1.0938 1.0469 1.0938c0.03125 0.015625 0.0625 0.03125 0.078125 0.03125 0.078125 0 0.15625-0.078125 0.10938-0.15625l-0.70312-1.3438 1.3594-0.67188c0.03125-0.015625 0.0625-0.046875 0.0625-0.09375 0-0.078125-0.0625-0.125-0.14062-0.125z"/>
</g>
</defs>
<g transform="translate(-149.52 -130.19)">
<use x="148.71201" y="134.765" xlink:href="#a"/>
</g>
</svg>
