<?xml version="1.0" encoding="UTF-8"?>
<svg fill="#000000" width="6.2188" height="6.2188" version="1.1" viewBox="0 0 6.2188 6.2187" xmlns="http://www.w3.org/2000/svg" xmlns:xlink="http://www.w3.org/1999/xlink">
<defs>
<g id="a">
<path d="m7.7188-2.8594c-0.046875 0-0.10938 0.03125-0.15625 0.0625l-0.96875 0.98438-3.2031-3.2188c-0.046875-0.03125-0.10938-0.0625-0.15625-0.0625-0.125 0-0.23438 0.09375-0.23438 0.23438 0 0.046875 0.015625 0.10938 0.0625 0.17188l3.2031 3.1875-0.9375 0.9375-3.2031-3.2031c-0.046875-0.046875-0.09375-0.0625-0.15625-0.0625-0.125 0-0.23438 0.09375-0.23438 0.23438 0 0.0625 0.015625 0.10938 0.0625 0.15625l3.2031 3.2031-0.96875 0.96875c-0.046875 0.046875-0.0625 0.10938-0.0625 0.15625 0 0.125 0.09375 0.23438 0.23438 0.23438 0.046875 0 0.10938-0.015625 0.15625-0.0625l3.5312-3.5312c0.046875-0.046875 0.0625-0.10938 0.0625-0.15625 0-0.125-0.09375-0.23438-0.23438-0.23438z"/>
</g>
</defs>
<g transform="translate(-150.45 -129.67)">
<use x="148.71201" y="134.765" xlink:href="#a"/>
</g>
</svg>
