<?xml version="1.0" encoding="UTF-8"?>
<svg fill="#000000" version="1.1" viewBox="0 0 7.1875 7.25" xmlns="http://www.w3.org/2000/svg" xmlns:xlink="http://www.w3.org/1999/xlink">
<defs>
<g id="a">
<path d="m7.75-4.8125c0-1.2656-0.5625-2.2188-1.7812-2.2188-1.0312 0-1.9062 0.84375-1.9844 0.90625-0.79688 0.78125-1.0938 1.6719-1.0938 1.7031 0 0.0625 0.046875 0.0625 0.09375 0.0625 0.20312 0 0.35938-0.09375 0.5-0.20312 0.1875-0.125 0.1875-0.15625 0.29688-0.39062 0.09375-0.20312 0.32812-0.6875 0.6875-1.1094 0.25-0.26562 0.45312-0.42188 0.84375-0.42188 0.96875 0 1.5781 0.79688 1.5781 2.1094 0 2.0312-1.4375 4.0469-3.2812 4.0469-1.4219 0-2.1875-1.125-2.1875-2.5469 0-1.3594 0.6875-2.8594 2.1406-3.7188 0.10938-0.0625 0.40625-0.23438 0.40625-0.35938 0-0.078125-0.078125-0.078125-0.09375-0.078125-0.35938 0-3.3125 1.5938-3.3125 4.5781 0 1.3906 0.73438 2.6719 2.3906 2.6719 1.9375 0 4.7969-1.9531 4.7969-5.0312z"/>
</g>
</defs>
<g transform="translate(-149.27 -127.73)">
<use x="148.71201" y="134.765" xlink:href="#a"/>
</g>
</svg>
