<?xml version="1.0" encoding="UTF-8"?>
<svg fill="#000000" version="1.1" viewBox="0 0 6.4375 6.1875" xmlns="http://www.w3.org/2000/svg" xmlns:xlink="http://www.w3.org/1999/xlink">
<defs>
<g id="a">
<path d="m6.7812 0.51562c-0.28125-0.6875-0.35938-1.2969-0.35938-1.9531 0-0.25 0.015625-0.51562 0.03125-0.8125h-0.26562c-0.078125 0.39062-0.09375 0.54688-0.10938 0.96875 0 0.17188-0.0625 0.35938-0.23438 0.35938-0.0625 0-0.125-0.03125-0.1875-0.09375l-0.90625-0.89062c0.17188-0.17188 0.32812-0.35938 0.46875-0.5625l-0.53125-0.39062c-0.125 0.17188-0.26562 0.32812-0.40625 0.48438l-3.2188-3.2344v4.5625c-0.21875 0-0.42188-0.015625-0.625-0.046875l-0.09375 0.65625c0.21875 0.03125 0.46875 0.046875 0.71875 0.046875v0.96875h0.65625v-1c0.9375-0.125 1.8125-0.5 2.5312-1.0625l0.92188 0.92188c0.09375 0.09375 0.09375 0.15625 0.09375 0.21875 0 0.1875-0.14062 0.21875-0.32812 0.21875-0.35938 0-0.59375 0-0.96875 0.09375l0.015625 0.28125c0.29688-0.015625 0.5625-0.046875 0.82812-0.046875 0.64062 0 1.2344 0.09375 1.8906 0.375zm-3-2.4688c-0.59375 0.45312-1.2969 0.75-2.0625 0.85938v-2.9219z"/>
</g>
</defs>
<g transform="translate(-149.06 -129.16)">
<use x="148.71201" y="134.765" xlink:href="#a"/>
</g>
</svg>
