<?xml version="1.0" encoding="UTF-8"?>
<svg fill="#000000" version="1.1" viewBox="0 0 4.3125 9.5312" xmlns="http://www.w3.org/2000/svg" xmlns:xlink="http://www.w3.org/1999/xlink">
<defs>
<g id="a">
<path d="m1.625 2.0938 0.42188-1.5781h2.5938c0.14062 0 0.23438-0.10938 0.23438-0.23438s-0.09375-0.23438-0.23438-0.23438h-2.4688l0.48438-1.7656 2.1094-1.2188c0.0625-0.046875 0.10938-0.10938 0.10938-0.20312s-0.046875-0.15625-0.10938-0.20312l-1.4531-0.82812 0.78125-2.9531c0.015625-0.078125-0.03125-0.1875-0.14062-0.1875-0.0625 0-0.125 0.0625-0.14062 0.125l-0.76562 2.8438-2.1562-1.2344c-0.03125-0.015625-0.078125-0.03125-0.10938-0.03125-0.10938 0-0.21875 0.09375-0.21875 0.23438v4.4531c0 0.14062 0.10938 0.23438 0.21875 0.23438 0.03125 0 0.078125-0.015625 0.10938-0.03125l1.3906-0.79688-0.42188 1.5625h-1.0781c-0.125 0-0.21875 0.10938-0.21875 0.23438s0.09375 0.23438 0.21875 0.23438h0.96875l-0.42188 1.5156c-0.015625 0.078125 0.046875 0.1875 0.15625 0.1875 0.0625 0 0.125-0.0625 0.14062-0.125zm1.5625-5.8125 1 0.57812-1.3594 0.78125zm-0.26562-0.15625-0.46875 1.7344-1.4375 0.82812v-3.6562z"/>
</g>
</defs>
<g transform="translate(-149.27 -127.45)">
<use x="148.71201" y="134.765" xlink:href="#a"/>
</g>
</svg>
