<?xml version="1.0" encoding="UTF-8"?>
<svg fill="#000000" version="1.1" viewBox="0 0 4.4219 8.8125" xmlns="http://www.w3.org/2000/svg" xmlns:xlink="http://www.w3.org/1999/xlink">
<defs>
<g id="a">
<path d="m2.2969 0.59375h-0.015625c-0.3125-0.64062-1.2344-1.1875-2-1.3594v0.3125c0 0.10938 0.53125 0.25 0.76562 0.39062 0.54688 0.29688 1.25 0.98438 1.25 1.4688 0.10938 0.046875 0.15625 0.3125 0.1875 0.48438h0.015625c0.03125-0.17188 0.078125-0.4375 0.1875-0.48438 0-1.0156 2.0156-1.8281 2.0156-1.8594v-0.3125c-0.76562 0.17188-1.6875 0.71875-2 1.3594-0.015625-0.03125-0.015625-0.078125-0.015625-0.10938v-6.9219c0-0.0625 0.015625-0.125 0.015625-0.20312 0-0.125-0.046875-0.28125-0.20312-0.28125-0.125 0-0.20312 0.10938-0.20312 0.21875z"/>
</g>
</defs>
<g transform="translate(-148.99 -127.84)">
<use x="148.71201" y="134.765" xlink:href="#a"/>
</g>
</svg>
