<?xml version="1.0" encoding="UTF-8"?>
<svg fill="#000000" version="1.1" viewBox="0 0 6.6562 6.6406" xmlns="http://www.w3.org/2000/svg" xmlns:xlink="http://www.w3.org/1999/xlink">
<defs>
<g id="a">
<path d="m7.2031-2.5c0-1.8281-1.5-3.3125-3.3281-3.3125-1.8438 0-3.3281 1.5-3.3281 3.3125 0 1.8438 1.5 3.3281 3.3281 3.3281 1.8438 0 3.3281-1.5 3.3281-3.3281zm-3.3281 3.0781c-1.7188 0-3.0781-1.3906-3.0781-3.0781 0-1.7031 1.3906-3.0625 3.0781-3.0625 1.7031 0 3.0781 1.3906 3.0781 3.0625 0 1.7188-1.4062 3.0781-3.0781 3.0781zm0.6875-3.0781c0-0.375-0.3125-0.6875-0.6875-0.6875-0.39062 0-0.6875 0.34375-0.6875 0.6875 0 0.39062 0.3125 0.70312 0.6875 0.70312 0.39062 0 0.6875-0.34375 0.6875-0.70312z"/>
</g>
</defs>
<g transform="translate(-149.26 -128.95)">
<use x="148.71201" y="134.765" xlink:href="#a"/>
</g>
</svg>
