<?xml version="1.0" encoding="UTF-8"?>
<svg fill="#000000" version="1.1" viewBox="0 0 6.6719 7.3594" xmlns="http://www.w3.org/2000/svg" xmlns:xlink="http://www.w3.org/1999/xlink">
<defs>
<g id="a">
<path d="m5.7188-6.9844c-0.09375-0.14062-0.09375-0.15625-0.23438-0.15625-0.6875 0-1.9062 0.28125-2.4219 1.125-0.15625-0.28125-0.64062-1.0156-1.3906-1.0156-0.6875 0-1.125 0.625-1.125 1.2031 0 0.375 0.23438 0.625 0.51562 0.90625 0.54688 0.5625 0.54688 0.71875 0.54688 1.0938 0 0.59375-0.046875 1.1875-0.48438 1.1875-0.26562 0-0.3125-0.375-0.32812-0.54688 0-0.078125-0.015625-0.15625-0.125-0.15625-0.125 0-0.125 0.10938-0.125 0.14062 0 0.1875 0.09375 0.78125 0.57812 0.78125 0.8125 0 0.8125-1.2812 0.8125-1.5 0-0.3125-0.03125-0.6875-0.70312-1.3125-0.28125-0.25-0.39062-0.39062-0.39062-0.625 0-0.42188 0.29688-0.95312 0.8125-0.95312s0.92188 0.78125 0.92188 1.9531v2.9375c0 0.09375 0 1.9219-0.65625 1.9219-0.35938 0-0.73438-0.3125-0.9375-0.9375 0.015625 0 0.21875-0.0625 0.21875-0.15625 0-0.0625-0.078125-0.10938-0.10938-0.10938s-0.17188 0.046875-0.20312 0.0625c-0.015625-0.0625-0.0625-0.17188-0.14062-0.17188-0.046875 0-0.125 0.09375-0.125 0.14062 0 0.03125 0.015625 0.09375 0.046875 0.125-0.0625 0.015625-0.21875 0.0625-0.21875 0.15625 0 0.046875 0.0625 0.10938 0.10938 0.10938 0.03125 0 0.15625-0.046875 0.1875-0.0625 0.3125 0.85938 0.82812 1.0625 1.1719 1.0625 0.70312 0 1.5-0.90625 1.5-2.9375v-0.71875h1.1406l0.125 2.1875c0 0.0625-0.03125 0.14062-0.03125 0.32812 0 0.59375 0.48438 1.1406 1.1562 1.1406 0.125 0 0.15625 0 0.34375-0.14062l0.71875-0.5625c0.10938-0.09375 0.125-0.10938 0.125-0.14062 0-0.078125-0.15625-0.14062-0.1875-0.14062-0.046875 0-0.40625 0.28125-0.85938 0.65625-0.34375-0.21875-0.45312-0.54688-0.45312-0.8125 0-0.1875 0.03125-0.21875 0.03125-0.32812 0-0.29688-0.046875-0.8125-0.0625-1.125-0.015625-0.20312-0.0625-1-0.0625-1.1406 0.5625-0.17188 1.6406-0.8125 1.6562-0.82812 0.03125-0.015625 0.0625-0.046875 0.0625-0.09375 0-0.015625-0.0625-0.14062-0.078125-0.14062zm0.5625 2.7344c-0.92188 0.5-1.125 0.5-1.4219 0.5h-1.4375v-0.48438c0-0.6875-0.09375-1.0781-0.20312-1.3906 0.34375-0.95312 1.6406-1.1406 1.6406-1.1406 0.03125 0 0.078125 0.10938 0.09375 0.10938z"/>
</g>
</defs>
<g transform="translate(-149.17 -127.62)">
<use x="148.71201" y="134.765" xlink:href="#a"/>
</g>
</svg>
