<?xml version="1.0" encoding="UTF-8"?>
<svg fill="#000000" version="1.1" viewBox="0 0 6.1114 8.8455" xmlns="http://www.w3.org/2000/svg" xmlns:xlink="http://www.w3.org/1999/xlink">
<defs>
<g id="a">
<path d="m3.6719-5.4219h-2.5781c-0.078125 0-0.17188-0.015625-0.21875 0.03125-0.0625 0.046875-0.046875 0.15625-0.046875 0.23438v3.7344c0 0.078125-0.015625 0.20312 0.046875 0.25 0.0625 0.03125 0.15625 0.015625 0.23438 0.015625h2.5625v1.1719h-2.6719c-0.0625 0-0.14062 0.015625-0.15625 0.09375-0.03125 0.078125-0.03125 0.23438 0.03125 0.29688 0.046875 0.015625 0.125 0.015625 0.1875 0.015625h2.6094v1.25c0 0.046875 0 0.10938 0.015625 0.15625 0.015625 0.10938 0.125 0.09375 0.20312 0.09375 0.046875 0 0.09375 0 0.125-0.015625 0.046875-0.015625 0.0625-0.078125 0.0625-0.125v-0.25-1.1094h2.625c0.0625 0 0.125 0 0.17188-0.015625 0.078125-0.0625 0.0625-0.21875 0.046875-0.29688-0.03125-0.078125-0.10938-0.09375-0.17188-0.09375h-2.6719v-1.1719h2.6719c0.0625 0 0.14062-0.015625 0.17188-0.09375 0.015625-0.078125 0.03125-0.23438-0.046875-0.28125-0.046875-0.03125-0.10938-0.03125-0.17188-0.03125h-2.625v-3.4688h2.625c0.0625 0 0.125 0.015625 0.17188-0.015625 0.078125-0.046875 0.0625-0.20312 0.046875-0.28125-0.03125-0.078125-0.10938-0.09375-0.17188-0.09375h-2.6719v-1.125-0.23438c0-0.0625-0.015625-0.10938-0.0625-0.125-0.03125-0.015625-0.078125-0.015625-0.125-0.015625-0.078125 0-0.1875-0.015625-0.20312 0.078125-0.015625 0.0625-0.015625 0.10938-0.015625 0.17188zm-2.4531 3.8594v-3.4688h2.4531v3.4688z"/>
</g>
</defs>
<g transform="translate(-149.54 -127.84)">
<use x="148.71201" y="134.765" xlink:href="#a"/>
</g>
</svg>
