<?xml version="1.0" encoding="UTF-8"?>
<svg fill="#000000" version="1.1" viewBox="0 0 7.6406 7.1562" xmlns="http://www.w3.org/2000/svg" xmlns:xlink="http://www.w3.org/1999/xlink">
<defs>
<g id="a">
<path d="m5.3594 0.26562c0.60938 0 1.2031-0.5 2.3906-1.4844 0.14062-0.39062 0.21875-0.57812 0.21875-1.0156 0-0.9375-0.65625-1.5781-1.7656-1.5781l0.89062-0.64062c0.32812-0.21875 0.65625-0.32812 1.0312-0.46875v-0.21875c-0.14062 0.046875-0.29688 0.09375-0.4375 0.10938-0.625 0-0.48438-1.2969-0.78125-1.5938-0.17188-0.17188-0.40625-0.21875-0.64062-0.21875-0.75 0-1.5 0.53125-2.0156 1.0625-0.26562-0.54688-0.84375-1.1094-1.4219-1.1094-0.9375 0-1.5938 0.625-1.8281 0.85938-0.28125 0.28125-0.51562 0.57812-0.51562 0.98438 0 0.67188 0.84375 1.3125 0.84375 1.5938 0 0.32812-0.35938 0.65625-0.625 0.79688l0.14062 0.10938c0.32812-0.15625 1.2344-0.60938 1.2344-1.3281 0-0.46875-0.89062-1.1875-0.89062-1.5156 0-0.59375 0.39062-0.875 0.96875-0.875 0.625 0 1.5781 0.64062 1.5781 2.2656 0 0.46875-0.046875 1.1719-0.078125 1.4844-0.03125 0.28125-0.21875 0.84375-1.4688 1.5781l-1.2344 0.73438 0.125 0.20312c0.42188-0.26562 0.92188-0.48438 1.4219-0.48438 0.79688 0 1.7969 0.75 2.8594 0.75zm-0.8125-3.75c0.015625-0.14062 0.015625-0.35938 0.015625-0.5 0-0.42188-0.03125-0.98438-0.09375-1.2344 0.17188-0.53125 0.5-1.0938 1.2188-1.0938 0.40625 0 0.65625 0.26562 0.75 0.92188 0.046875 0.3125 0.14062 0.75 0.375 0.85938-0.84375 0.57812-1.2969 0.6875-2.2656 1.0469zm-0.34375 1.4219c0.1875-0.375 0.28125-0.76562 0.32812-1.1719 0.25-0.10938 0.51562-0.17188 0.78125-0.17188 0.92188 0 1.8125 0.67188 1.8125 1.6562 0 0.64062-0.375 1.375-1.125 1.375-0.78125 0-1.8906-0.79688-2.9688-0.79688z"/>
</g>
</defs>
<g transform="translate(-149.2 -127.87)">
<use x="148.71201" y="134.765" xlink:href="#a"/>
</g>
</svg>
