<?xml version="1.0" encoding="UTF-8"?>
<svg fill="#000000" version="1.1" viewBox="0 0 4.7969 8.1406" xmlns="http://www.w3.org/2000/svg" xmlns:xlink="http://www.w3.org/1999/xlink">
<defs>
<g id="a">
<path d="m3.3438-1.7969s0.015625 0.015625 0.03125 0.015625c-0.015625 0-0.03125 0-0.046875 0.015625zm0.75-5.0156-0.64062 2.3594c-0.57812-0.3125-1.0938-0.76562-1.5781-1.25l-0.45312 0.4375c0.5625 0.57812 1.1875 1.0781 1.8594 1.4219l-0.32812 1.2188c-0.59375-0.28125-1.1406-0.6875-1.5938-1.1719l-0.46875 0.42188c0.54688 0.57812 1.1875 1.0469 1.9062 1.375l-0.14062 0.5c-0.65625 0.32812-1.25 0.76562-1.7656 1.2969l0.46875 0.4375c0.32812-0.32812 0.67188-0.64062 1.0625-0.875l-0.48438 1.8125 0.5625 0.15625 0.625-2.3281c0.6875-0.3125 1.4531-0.45312 2.2344-0.45312h0.32812v-0.65625h-0.5c-0.57812-0.015625-1.1562-0.10938-1.6875-0.29688l0.3125-1.1875c0.39062 0.14062 0.79688 0.20312 1.2344 0.20312h0.64062v-0.64062h-0.64062c-0.375 0-0.73438-0.0625-1.0625-0.1875l0.65625-2.4375z"/>
</g>
</defs>
<g transform="translate(-149.6 -127.95)">
<use x="148.71201" y="134.765" xlink:href="#a"/>
</g>
</svg>
