<?xml version="1.0" encoding="UTF-8"?>
<svg fill="#000000" version="1.1" viewBox="0 0 3.7177 3.2153" xmlns="http://www.w3.org/2000/svg" xmlns:xlink="http://www.w3.org/1999/xlink">
<defs>
<g id="a">
<path d="m0.70312-3.5625c-0.09375 0.03125-0.078125 0.125-0.03125 0.1875 0.09375 0.1875 0.20312 0.35938 0.29688 0.53125 0.375 0.625 0.75 1.2812 1.1406 1.9219 0.078125 0.15625 0.15625 0.29688 0.25 0.45312 0.046875 0.0625 0.09375 0.125 0.17188 0.09375s0.09375-0.10938 0.14062-0.17188c0.078125-0.15625 0.17188-0.29688 0.26562-0.45312 0.35938-0.59375 0.6875-1.1875 1.0469-1.7969 0.09375-0.15625 0.1875-0.34375 0.29688-0.51562 0.03125-0.0625 0.09375-0.14062 0.0625-0.21875-0.0625-0.0625-0.17188-0.046875-0.23438-0.046875h-3.1562c-0.078125 0-0.1875-0.015625-0.25 0.015625z"/>
</g>
</defs>
<g transform="translate(-149.35 -131.18)">
<use x="148.71201" y="134.765" xlink:href="#a"/>
</g>
</svg>
