<?xml version="1.0" encoding="UTF-8"?>
<svg fill="#000000" version="1.1" viewBox="0 0 5.2344 6.1562" xmlns="http://www.w3.org/2000/svg" xmlns:xlink="http://www.w3.org/1999/xlink">
<defs>
<g id="a">
<path d="m5.7969-3.0625c-0.23438-0.78125-0.70312-1.2969-1.5625-1.2969h-0.078125l0.51562-1.2812h-0.54688l-0.59375 1.4688c-0.48438 0.25-1.0625 0.89062-1.6406 0.89062-0.65625 0-0.96875-0.5-1.1406-1.0781l-0.1875 0.09375c0.14062 0.875 0.57812 1.5 1.5312 1.5 0.39062 0 0.75-0.1875 1.0625-0.42188l-0.54688 1.3594h-1.9688v0.5625h1.7344l-0.70312 1.7812h0.54688l0.70312-1.7969h2.8125v-0.54688h-2.5781l0.73438-1.875c0.15625-0.078125 0.34375-0.15625 0.53125-0.15625 0.57812 0 0.9375 0.375 1.1719 0.89062z"/>
</g>
</defs>
<g transform="translate(-149.27 -129.12)">
<use x="148.71201" y="134.765" xlink:href="#a"/>
</g>
</svg>
