<?xml version="1.0" encoding="UTF-8"?>
<svg fill="#000000" version="1.1" viewBox="0 0 3.5 9.125" xmlns="http://www.w3.org/2000/svg" xmlns:xlink="http://www.w3.org/1999/xlink">
<defs>
<g id="a">
<path d="m1.25 0.82812c0.3125 0 0.20312-0.65625 1.7812-1.1406 0.09375-0.03125 0.17188-0.10938 0.17188-0.21875 0-0.14062-0.125-0.21875-0.23438-0.21875-0.17188 0-0.70312 0.26562-1.0625 0.4375l2.2344-4.5312-2.375 0.64062 2.2656-3.7969-0.875-0.29688-2.3125 4.7031 2.2344-0.60938-1.6094 3.7656c-0.14062-0.35938-0.21875-0.73438-0.40625-1.0938-0.03125-0.078125-0.10938-0.125-0.1875-0.125-0.14062 0-0.23438 0.125-0.23438 0.23438 0 0.15625 0.42188 0.73438 0.42188 1.5469 0 0.28125-0.046875 0.42188-0.046875 0.46875 0 0.125 0.09375 0.23438 0.23438 0.23438z"/>
</g>
</defs>
<g transform="translate(-149.35 -126.47)">
<use x="148.71201" y="134.765" xlink:href="#a"/>
</g>
</svg>
