<?xml version="1.0" encoding="UTF-8"?>
<svg fill="#000000" version="1.1" viewBox="0 0 4.7969 8.1406" xmlns="http://www.w3.org/2000/svg" xmlns:xlink="http://www.w3.org/1999/xlink">
<defs>
<g id="a">
<path d="m3.2344-3.6875s-0.015625-0.015625-0.03125-0.015625c0.015625 0 0.03125 0 0.046875-0.015625zm0.85938-3.125-0.64062 2.3438c-0.6875 0.29688-1.4531 0.4375-2.2344 0.4375h-0.32812v0.65625h0.5c0.57812 0.015625 1.1562 0.10938 1.6875 0.29688l-0.3125 1.1875c-0.39062-0.14062-0.79688-0.20312-1.2344-0.20312h-0.64062v0.64062h0.64062c0.375 0 0.71875 0.0625 1.0625 0.17188l-0.65625 2.4531 0.5625 0.15625 0.625-2.3594c0.57812 0.3125 1.0938 0.76562 1.5625 1.25l0.46875-0.4375c-0.57812-0.5625-1.1719-1.0781-1.8594-1.4219l0.32812-1.2031c0.59375 0.26562 1.1406 0.67188 1.5938 1.1562l0.46875-0.42188c-0.54688-0.57812-1.1875-1.0469-1.9062-1.375l0.14062-0.5c0.65625-0.32812 1.25-0.76562 1.7656-1.2969l-0.46875-0.4375c-0.32812 0.32812-0.67188 0.64062-1.0625 0.875l0.48438-1.8125z"/>
</g>
</defs>
<g transform="translate(-149.6 -127.95)">
<use x="148.71201" y="134.765" xlink:href="#a"/>
</g>
</svg>
