<?xml version="1.0" encoding="UTF-8"?>
<svg fill="#000000" version="1.1" viewBox="0 0 2.1515 8.8648" xmlns="http://www.w3.org/2000/svg" xmlns:xlink="http://www.w3.org/1999/xlink">
<defs>
<g id="a">
<path d="m1.2188-6.9219c-0.0625 0.03125-0.078125 0.078125-0.078125 0.14062v0.32812 8.1406c0 0.046875-0.015625 0.10938 0 0.15625 0.03125 0.09375 0.20312 0.09375 0.28125 0.0625 0.0625-0.015625 0.078125-0.0625 0.078125-0.125v-0.32812-8.1406c0-0.046875 0.015625-0.10938 0-0.15625-0.03125-0.10938-0.20312-0.10938-0.28125-0.078125zm1.7656 0c-0.0625 0.03125-0.078125 0.078125-0.078125 0.14062v0.34375 8.125c0 0.046875 0 0.10938 0.015625 0.15625 0.03125 0.09375 0.20312 0.09375 0.28125 0.0625 0.0625-0.015625 0.078125-0.0625 0.078125-0.125v-0.34375-8.125c0-0.046875 0.015625-0.10938-0.015625-0.15625-0.03125-0.078125-0.10938-0.078125-0.1875-0.078125h-0.09375z"/>
</g>
</defs>
<g transform="translate(-149.85 -127.83)">
<use x="148.71201" y="134.765" xlink:href="#a"/>
</g>
</svg>
