<?xml version="1.0" encoding="UTF-8"?>
<svg fill="#000000" width="6.1018" height="8.8438" version="1.1" viewBox="0 0 6.1018 8.8437" xmlns="http://www.w3.org/2000/svg" xmlns:xlink="http://www.w3.org/1999/xlink">
<defs>
<g id="a">
<path d="m3.6719-1.3125c-0.6875-0.29688-1.4219-0.5-2.1875-0.57812-0.14062-0.015625-0.28125-0.015625-0.42188-0.015625-0.046875 0-0.10938-0.015625-0.17188 0-0.015625 0.015625-0.046875 0.03125-0.046875 0.0625-0.015625 0.03125-0.015625 0.0625-0.015625 0.09375 0 0.0625-0.015625 0.15625 0.046875 0.20312 0.046875 0.046875 0.14062 0.03125 0.21875 0.03125 0.14062 0 0.29688 0.015625 0.45312 0.03125 0.54688 0.0625 1.0938 0.20312 1.6094 0.39062 0.125 0.046875 0.25 0.09375 0.35938 0.14062 0.046875 0.03125 0.125 0.046875 0.14062 0.09375 0.03125 0.046875 0.015625 0.125 0.015625 0.1875v2.3438c0 0.0625 0 0.125 0.03125 0.1875s0.09375 0.0625 0.15625 0.0625c0.09375 0 0.20312 0 0.21875-0.125 0.015625-0.09375 0-0.1875 0-0.28125v-2.1875c0.125 0.078125 0.25 0.14062 0.375 0.21875 0.17188 0.09375 0.34375 0.20312 0.5 0.3125 0.48438 0.32812 0.92188 0.70312 1.3594 1.1094 0.0625 0.0625 0.14062 0.14062 0.21875 0.17188 0.0625 0.03125 0.14062 0.015625 0.21875 0.015625 0.0625 0 0.17188-0.015625 0.17188-0.10938 0-0.078125-0.09375-0.15625-0.15625-0.20312-0.14062-0.14062-0.29688-0.28125-0.45312-0.42188-0.45312-0.40625-0.95312-0.76562-1.4688-1.0938-0.15625-0.10938-0.32812-0.20312-0.5-0.3125-0.046875-0.015625-0.10938-0.046875-0.15625-0.078125-0.03125-0.015625-0.078125-0.03125-0.09375-0.046875-0.015625-0.03125-0.015625-0.078125-0.015625-0.10938v-1.1406c0.14062 0.078125 0.28125 0.14062 0.4375 0.21875 0.21875 0.10938 0.4375 0.25 0.64062 0.375 0.3125 0.20312 0.60938 0.40625 0.89062 0.625 0.14062 0.10938 0.25 0.20312 0.39062 0.29688 0.09375 0.09375 0.26562 0.078125 0.375 0.0625 0.078125 0 0.125-0.078125 0.10938-0.14062-0.03125-0.078125-0.10938-0.10938-0.15625-0.17188l-0.375-0.28125c-0.48438-0.375-1-0.73438-1.5469-1.0312-0.17188-0.09375-0.375-0.20312-0.5625-0.28125-0.046875-0.03125-0.17188-0.0625-0.1875-0.125-0.03125-0.0625-0.015625-0.15625-0.015625-0.23438v-0.48438c0-0.078125-0.015625-0.20312 0.015625-0.25s0.125-0.078125 0.17188-0.09375c0.15625-0.078125 0.29688-0.15625 0.45312-0.23438 0.46875-0.25 0.90625-0.53125 1.3438-0.84375 0.23438-0.1875 0.48438-0.35938 0.70312-0.54688 0.078125-0.0625 0.23438-0.1875 0.125-0.26562-0.046875-0.046875-0.125-0.03125-0.1875-0.03125s-0.14062-0.015625-0.1875 0c-0.0625 0.03125-0.10938 0.078125-0.15625 0.10938-0.0625 0.0625-0.15625 0.10938-0.21875 0.17188-0.40625 0.32812-0.82812 0.625-1.2812 0.875-0.25 0.15625-0.51562 0.28125-0.78125 0.42188v-2.2969c0-0.09375 0.015625-0.1875 0-0.29688s-0.125-0.10938-0.21875-0.10938c-0.0625 0-0.125 0-0.15625 0.046875-0.03125 0.0625-0.03125 0.14062-0.03125 0.20312v2.4219c0 0.046875 0.015625 0.14062-0.015625 0.1875-0.015625 0.046875-0.09375 0.0625-0.14062 0.078125-0.10938 0.046875-0.25 0.09375-0.35938 0.125-0.53125 0.1875-1.0781 0.29688-1.625 0.34375-0.14062 0-0.28125 0.015625-0.40625 0.03125-0.0625 0-0.14062-0.015625-0.20312 0s-0.09375 0.0625-0.09375 0.125-0.015625 0.17188 0.046875 0.23438c0.046875 0.046875 0.125 0.03125 0.1875 0.03125 0.15625 0 0.3125 0.015625 0.46875 0.03125 0.51562 0.046875 1.0469 0.15625 1.5625 0.32812 0.125 0.03125 0.25 0.078125 0.375 0.125 0.0625 0.015625 0.125 0.03125 0.1875 0.0625 0.015625 0.03125 0.015625 0.078125 0.015625 0.10938v0.21875zm-1.0469-1.9688v-0.015625l0.42188-0.10938 0.625-0.21875v0.67188l-0.625-0.21875z"/>
</g>
</defs>
<g transform="translate(-149.54 -127.84)">
<use x="148.71201" y="134.765" xlink:href="#a"/>
</g>
</svg>
