<?xml version="1.0" encoding="UTF-8"?>
<svg fill="#000000" version="1.1" viewBox="0 0 4.5781 4.3281" xmlns="http://www.w3.org/2000/svg" xmlns:xlink="http://www.w3.org/1999/xlink">
<defs>
<g id="a">
<path d="m5.5781-4.4375c0-0.14062-0.14062-0.20312-0.25-0.20312-0.0625 0-0.10938 0-0.17188 0.03125-0.17188 0.10938-0.015625 1.0625-1.6094 1.5781-0.73438 0.23438-1.5156 0.29688-2.2969 0.29688-0.15625 0-0.25 0.09375-0.25 0.25s0.09375 0.26562 0.25 0.26562c0.75 0 1.5469 0.0625 2.2656 0.28125 1.625 0.5 1.4844 1.4844 1.6406 1.5781 0.0625 0.03125 0.10938 0.046875 0.17188 0.046875 0.14062 0 0.25-0.078125 0.25-0.21875 0-0.25-0.10938-0.57812-0.25-0.78125-0.40625-0.65625-1.1719-0.96875-1.9062-1.1562 0.75-0.1875 1.5156-0.51562 1.9062-1.1875 0.14062-0.21875 0.25-0.53125 0.25-0.78125z"/>
</g>
</defs>
<g transform="translate(-149.71 -130.12)">
<use x="148.71201" y="134.765" xlink:href="#a"/>
</g>
</svg>
