<?xml version="1.0" encoding="UTF-8"?>
<svg fill="#000000" width="7.0312" height="7.0938" version="1.1" viewBox="0 0 7.0312 7.0937" xmlns="http://www.w3.org/2000/svg" xmlns:xlink="http://www.w3.org/1999/xlink">
<defs>
<g id="a">
<path d="m4.9219-2.9531c-0.23438 0.84375-0.57812 2.0781-0.57812 2.8438 0 0.26562 0.15625 0.39062 0.40625 0.39062 0.39062 0 1.1406-0.4375 1.1406-0.625 0-0.0625-0.046875-0.078125-0.09375-0.078125-0.125 0-0.29688 0.09375-0.40625 0.15625-0.14062-0.03125-0.20312-0.125-0.20312-0.26562 0-1.2188 1.125-4.7031 1.4219-5.4375 0.125-0.28125 0.25-0.6875 0.25-0.76562s-0.0625-0.078125-0.09375-0.078125c-0.21875 0-0.67188 0.26562-0.75 0.46875-0.125 0.34375-0.14062 0.39062-0.26562 0.76562-0.32812 0.9375-1.3125 2.5938-2.2969 3.75-0.3125 0.34375-1.2969 1.5-2 1.5-0.46875 0-0.78125-0.40625-0.78125-1.0625 0-0.70312 0.39062-1.5938 1-2.9688 0.35938-0.8125 0.65625-1.5156 0.65625-1.9688 0-0.46875-0.32812-0.48438-0.5-0.48438-0.76562 0-1.7344 0.625-1.7344 0.82812 0 0.0625 0.078125 0.0625 0.10938 0.0625 0.125 0 0.3125-0.078125 0.46875-0.1875 0.0625-0.046875 0.21875-0.15625 0.5-0.15625 0.21875 0 0.29688 0.14062 0.29688 0.35938 0 0.4375-0.35938 1.2656-0.76562 2.2188-0.65625 1.5-0.875 2.125-0.875 2.7031 0 0.67188 0.26562 1.2031 0.96875 1.2031 0.625 0 1.5312-0.40625 2.5469-1.3594 0.6875-0.64062 1.125-1.2344 1.5625-1.8125z"/>
</g>
</defs>
<g transform="translate(-148.54 -127.95)">
<use x="148.71201" y="134.765" xlink:href="#a"/>
</g>
</svg>
