<?xml version="1.0" encoding="UTF-8"?>
<svg fill="#000000" width="3.4375" height="8.9688" version="1.1" viewBox="0 0 3.4375 8.9687" xmlns="http://www.w3.org/2000/svg" xmlns:xlink="http://www.w3.org/1999/xlink">
<defs>
<g id="a">
<path d="m3.625 0.98438c-0.20312 0.21875-0.42188 0.32812-0.6875 0.32812-0.5 0-0.78125-0.51562-0.78125-1.25 0-1.7344 1.1094-3.4375 1.1094-5.4688 0-0.96875-0.60938-1.5938-1.3594-1.5938-0.71875 0-1.3594 0.53125-1.3594 1.2969v1.3438h0.65625v-1.3281c0-0.35938 0.28125-0.65625 0.6875-0.65625 0.32812 0 0.71875 0.26562 0.71875 0.9375 0 1.9531-1.1094 3.5781-1.1094 5.4688 0 0.92188 0.4375 1.9062 1.4375 1.9062 0.40625 0 0.79688-0.17188 1.0469-0.46875z"/>
</g>
</defs>
<g transform="translate(-149.26 -127.76)">
<use x="148.71201" y="134.765" xlink:href="#a"/>
</g>
</svg>
