<?xml version="1.0" encoding="UTF-8"?>
<svg fill="#000000" width="9.625" height="7.2188" version="1.1" viewBox="0 0 9.625 7.2187" xmlns="http://www.w3.org/2000/svg" xmlns:xlink="http://www.w3.org/1999/xlink">
<defs>
<g id="a">
<path d="m7.3594-1.4688c-0.375 0.375-0.875 0.67188-1.3125 0.76562l3.9062-6.3125c0.015625-0.015625 0.015625-0.03125 0.015625-0.046875 0-0.03125-0.015625-0.0625-0.03125-0.0625-0.015625-0.015625-0.03125-0.015625-0.046875-0.015625h-0.10938c-0.03125 0-0.046875 0.015625-0.078125 0.03125l-0.09375 0.14062c-0.60938 0.42188-1.2188 0.875-1.8125 1.3125-0.76562 0.57812-1.5312 1.1875-2.2188 1.8125-0.35938-0.4375-0.9375-0.6875-1.7969-0.6875-0.42188 0-1 0.1875-1.2812 0.57812-0.42188 0.60938-0.60938 1.1406-0.60938 1.5781 0 0.64062 0.39062 1.1094 1.0312 1.4219-0.54688 0.46875-1.1875 0.8125-1.6875 0.8125-0.39062 0-0.64062-0.15625-0.64062-0.40625 0-0.078125 0-0.15625 0.046875-0.23438 0.0625 0.078125 0.15625 0.125 0.26562 0.125 0.26562 0 0.5625-0.20312 0.5625-0.39062 0-0.25-0.15625-0.34375-0.32812-0.34375-0.21875 0-0.45312 0.125-0.57812 0.29688-0.14062 0.21875-0.21875 0.40625-0.21875 0.57812 0 0.35938 0.34375 0.59375 0.85938 0.59375 0.59375 0 1.3438-0.39062 1.9531-0.92188 0.51562 0.20312 1.1562 0.32812 1.8594 0.375l-0.23438 0.34375c-0.015625 0-0.03125 0.03125-0.03125 0.046875s0.03125 0.046875 0.046875 0.0625 0.03125 0.015625 0.046875 0.015625h0.71875c0.03125 0 0.0625-0.015625 0.0625-0.046875l0.26562-0.40625c0.51562-0.078125 1.1406-0.40625 1.5781-0.85938 0.015625-0.015625 0.03125-0.046875 0.03125-0.078125v-0.03125c0-0.03125-0.015625-0.0625-0.046875-0.078125h-0.03125c-0.015625 0-0.046875 0-0.0625 0.03125zm-1.2969-0.48438c0.015625-0.09375 0.015625-0.20312 0.015625-0.3125 0-0.53125-0.10938-1.0156-0.35938-1.3906 0.70312-0.65625 1.4844-1.2656 2.2812-1.8594 0.39062-0.28125 0.78125-0.5625 1.1875-0.84375zm-3.1562-1.7812c0.21875-0.29688 0.59375-0.57812 0.84375-0.57812 0.78125 0 1.2969 0.23438 1.6406 0.64062-0.67188 0.59375-1.25 1.2344-1.7031 1.875-0.15625 0.21875-0.34375 0.4375-0.53125 0.625-0.5-0.26562-0.79688-0.65625-0.79688-1.1562 0-0.39062 0.17188-0.85938 0.54688-1.4062zm1.0156 2.0469c0.4375-0.625 0.98438-1.2188 1.5938-1.7969 0.20312 0.34375 0.28125 0.76562 0.28125 1.25 0 0.23438-0.015625 0.48438-0.0625 0.73438l-0.57812 0.8125c-0.6875-0.046875-1.2969-0.15625-1.7812-0.375 0.21875-0.1875 0.40625-0.40625 0.54688-0.625z"/>
</g>
</defs>
<g transform="translate(-149.06 -127.62)">
<use x="148.71201" y="134.765" xlink:href="#a"/>
</g>
</svg>
