<?xml version="1.0" encoding="UTF-8"?>
<svg fill="#000000" version="1.1" viewBox="0 0 13.953 3.0474" xmlns="http://www.w3.org/2000/svg" xmlns:xlink="http://www.w3.org/1999/xlink">
<defs>
<g id="a">
<path d="m13.047-2.7031h-0.57812c-0.125 0-0.25-0.015625-0.39062 0-0.1875 0.015625-0.35938 0.078125-0.53125 0.15625-0.25 0.10938-0.4375 0.28125-0.65625 0.42188-0.15625 0.09375-0.32812 0.1875-0.51562 0.20312-0.09375 0.015625-0.17188 0.015625-0.26562-0.015625-0.26562-0.0625-0.45312-0.28125-0.59375-0.51562-0.046875-0.09375-0.078125-0.21875-0.14062-0.3125-0.23438-0.42188-0.65625-0.76562-1.1562-0.71875-0.45312 0.046875-0.79688 0.375-0.98438 0.75-0.0625 0.10938-0.10938 0.21875-0.17188 0.32812-0.14062 0.26562-0.40625 0.51562-0.71875 0.5-0.3125-0.03125-0.54688-0.28125-0.6875-0.53125-0.0625-0.10938-0.10938-0.25-0.15625-0.35938-0.25-0.40625-0.64062-0.71875-1.125-0.6875-0.4375 0.015625-0.8125 0.32812-1 0.71875-0.0625 0.10938-0.10938 0.25-0.1875 0.35938-0.14062 0.25-0.40625 0.5-0.71875 0.5-0.3125-0.03125-0.54688-0.28125-0.6875-0.53125-0.0625-0.125-0.10938-0.25-0.17188-0.35938-0.21875-0.39062-0.60938-0.6875-1.0625-0.6875v0.39062c0.3125 0.015625 0.54688 0.21875 0.70312 0.48438 0.0625 0.10938 0.10938 0.25 0.17188 0.35938 0.21875 0.375 0.5625 0.70312 1 0.73438 0.51562 0.03125 0.92188-0.3125 1.1406-0.73438 0.0625-0.10938 0.10938-0.25 0.17188-0.35938 0.14062-0.23438 0.375-0.46875 0.6875-0.48438 0.32812 0 0.57812 0.26562 0.73438 0.53125 0.0625 0.09375 0.09375 0.20312 0.14062 0.3125 0.20312 0.39062 0.5625 0.70312 1 0.73438 0.48438 0.03125 0.89062-0.28125 1.125-0.67188 0.0625-0.14062 0.10938-0.28125 0.1875-0.42188 0.14062-0.23438 0.35938-0.45312 0.64062-0.48438 0.35938-0.03125 0.625 0.25 0.76562 0.51562 0.0625 0.10938 0.10938 0.21875 0.15625 0.32812 0.17188 0.32812 0.46875 0.625 0.84375 0.70312 0.39062 0.09375 0.79688-0.03125 1.125-0.25 0.1875-0.14062 0.375-0.3125 0.59375-0.39062 0.23438-0.10938 0.46875-0.10938 0.71875-0.10938h0.59375c-0.17188 0.15625-0.3125 0.32812-0.46875 0.51562-0.078125 0.09375-0.14062 0.1875-0.23438 0.28125-0.04687 0.078125-0.125 0.17188-0.1875 0.25-0.03125 0.046875-0.0625 0.09375-0.07813 0.14062-0.03125 0.14062 0.15625 0.125 0.25 0.125 0.03125 0 0.0625 0 0.09375-0.015625 0.0625-0.03125 0.125-0.09375 0.17188-0.14062 0.09375-0.078125 0.20312-0.17188 0.29688-0.25 0.3125-0.25 0.64062-0.5 0.98438-0.6875 0.15625-0.10938 0.32812-0.1875 0.48438-0.28125 0.062505-0.015625 0.14063-0.0625 0.14063-0.14062s-0.09375-0.125-0.15625-0.15625c-0.15625-0.078125-0.3125-0.17188-0.46875-0.26562-0.34375-0.20312-0.67188-0.4375-0.98438-0.6875-0.09375-0.078125-0.20312-0.17188-0.29688-0.25-0.046875-0.046875-0.10938-0.10938-0.17188-0.14062-0.03125-0.03125-0.0625-0.03125-0.09375-0.03125-0.09375 0-0.28125 0-0.25 0.14062 0.01563 0.046875 0.04687 0.09375 0.07813 0.125 0.0625 0.09375 0.14062 0.17188 0.1875 0.25 0.09375 0.10938 0.15625 0.20312 0.23438 0.29688 0.15625 0.17188 0.29688 0.34375 0.46875 0.51562z"/>
</g>
</defs>
<g transform="translate(-149.26 -130.73)">
<use x="148.71201" y="134.765" xlink:href="#a"/>
</g>
</svg>
