<?xml version="1.0" encoding="UTF-8"?>
<svg fill="#000000" version="1.1" viewBox="0 0 5.875 9.9531" xmlns="http://www.w3.org/2000/svg" xmlns:xlink="http://www.w3.org/1999/xlink">
<defs>
<g id="a">
<path d="m6.1562-8.3906c-0.09375 0.48438-0.39062 0.875-0.82812 0.875-0.45312 0-1.2812-0.875-1.8906-0.875s-1.1406 0.6875-1.1719 1.375h0.20312c0.10938-0.48438 0.4375-0.875 0.85938-0.875 0.45312 0 1.2812 0.875 1.8906 0.875s1.0938-0.79688 1.125-1.375zm0.1875 7.1875v-0.65625h-1.875l0.53125-1.3281h1.3438v-0.65625h-1.0938l1.0938-2.75h-0.54688l-1.0938 2.75h-1.5469l1.0938-2.75h-0.54688l-1.0938 2.75h-2.125v0.65625h1.8594l-0.53125 1.3281h-1.3281v0.65625h1.0781l-1.0938 2.7656h0.54688l1.0938-2.7656h1.5469l-1.0781 2.7656h0.54688l1.0781-2.7656zm-1.8906-1.9844-0.53125 1.3281h-1.5625l0.53125-1.3281z"/>
</g>
</defs>
<g transform="translate(-149.18 -126.37)">
<use x="148.71201" y="134.765" xlink:href="#a"/>
</g>
</svg>
