<?xml version="1.0" encoding="UTF-8"?>
<svg fill="#000000" version="1.1" viewBox="0 0 11.641 7.3594" xmlns="http://www.w3.org/2000/svg" xmlns:xlink="http://www.w3.org/1999/xlink">
<defs>
<g id="a">
<path d="m7.4531-0.45312c-0.26562 0.21875-0.5625 0.39062-0.75 0.39062-0.42188 0-0.57812-0.25-0.57812-0.59375v-0.03125c0.015625-0.48438 0.29688-1.0938 0.73438-1.7031 0.21875-0.32812 0.375-0.64062 0.375-0.92188 0.29688-0.125 0.59375-0.3125 0.89062-0.5 0.78125-0.54688 1.4219-1.2188 1.9062-1.9062 0.42188-0.57812 1.2188-1.0469 1.7969-1.0469h0.046875c0.04687 0 0.09375-0.046875 0.09375-0.078125s-0.01563-0.046875-0.01563-0.078125c-0.01563-0.03125-0.03125-0.046875-0.0625-0.0625-0.07813-0.015625-0.15625-0.03125-0.25-0.03125-0.67188 0-1.5938 0.53125-2.0781 1.2188-0.4375 0.64062-0.98438 1.2656-1.7031 1.8125-0.21875 0.15625-0.4375 0.3125-0.65625 0.42188-0.07812-0.20312-0.26562-0.32812-0.54687-0.32812-0.125 0-0.25 0.046875-0.39062 0.125 0.78125-1.0625 1.5938-2.1094 2.4219-3.1562 0-0.03125 0.015625-0.046875 0.015625-0.0625l-0.03125-0.10938c-0.015625-0.03125-0.03125-0.046875-0.0625-0.046875h-0.03125c-0.015625 0-0.03125 0.015625-0.046875 0.015625-0.5 0.48438-0.98438 0.96875-1.5156 1.5-0.17188 0.23438-0.45312 0.45312-0.75 0.60938-0.34375 0.1875-0.67188 0.26562-0.9375 0.26562-0.125 0-0.1875-0.0625-0.1875-0.10938 0-0.015625-0.015625-0.03125-0.015625-0.0625 0-0.0625 0.03125-0.15625 0.10938-0.26562 0.14062-0.20312 0.20312-0.39062 0.20312-0.54688 0-0.078125 0-0.15625-0.03125-0.21875-0.10938-0.23438-0.35938-0.32812-0.65625-0.32812-0.23438 0-0.5 0.20312-0.70312 0.375-0.3125 0.28125-0.5625 0.57812-0.78125 0.875v0.046875c0 0.046875 0.03125 0.078125 0.078125 0.078125h0.10938c0.03125 0 0.046875-0.015625 0.0625-0.03125 0.20312-0.28125 0.40625-0.5625 0.6875-0.8125 0.1875-0.17188 0.375-0.3125 0.5-0.3125 0.1875 0 0.28125 0.078125 0.29688 0.1875v0.015625c0 0.14062-0.125 0.34375-0.28125 0.57812-0.078125 0.09375-0.09375 0.17188-0.09375 0.25 0 0.10938 0.046875 0.20312 0.10938 0.28125 0.125 0.14062 0.3125 0.21875 0.54688 0.21875 0.29688 0 0.65625-0.09375 1-0.25-0.76562 0.85938-1.4688 1.75-2.1094 2.6406-0.73438 1.0469-1.6562 2.1406-2.4844 2.1406-0.67188 0-1.1562-0.20312-1.1562-0.60938 0-0.09375 0.03125-0.20312 0.09375-0.34375 0.078125 0.10938 0.1875 0.15625 0.29688 0.15625 0.26562 0 0.5625-0.20312 0.5625-0.39062 0-0.25-0.15625-0.34375-0.32812-0.34375-0.20312 0-0.45312 0.125-0.5625 0.29688-0.1875 0.25-0.26562 0.48438-0.26562 0.67188 0 0.51562 0.59375 0.78125 1.3125 0.78125 1.1094 0 2.5781-1.1094 3.3906-2.2656 0.26562-0.35938 0.53125-0.73438 0.79688-1.1094l0.046875 0.046875c0.078125 0.0625 0.1875 0.078125 0.28125 0.078125 0.14062 0 0.26562-0.015625 0.40625-0.046875-0.10938 0.1875-0.25 0.39062-0.39062 0.57812-0.40625 0.5625-0.57812 1.1094-0.57812 1.5781 0 0.09375 0 0.1875 0.015625 0.28125 0.078125 0.46875 0.4375 0.8125 1.0469 0.8125 0.29688 0 0.65625-0.23438 0.9375-0.46875 0.40625-0.3125 0.75-0.6875 1.0156-1.0469 0-0.015625 0.015625-0.03125 0.015625-0.046875 0-0.0625-0.046875-0.078125-0.09375-0.078125h-0.10938c-0.03125 0-0.046875 0-0.0625 0.015625-0.25 0.35938-0.54688 0.70312-0.90625 1zm-1.0781-3.1094c0.078125-0.078125 0.17188-0.10938 0.23438-0.10938 0.09375 0 0.125 0.046875 0.125 0.14062 0 0.03125 0 0.078125-0.015625 0.125 0 0.03125-0.015625 0.046875-0.015625 0.0625-0.1875 0.0625-0.35938 0.09375-0.5 0.09375-0.0625 0-0.10938 0-0.10938-0.015625 0.078125-0.10938 0.15625-0.21875 0.28125-0.29688z"/>
</g>
</defs>
<g transform="translate(-149.04 -127.62)">
<use x="148.71201" y="134.765" xlink:href="#a"/>
</g>
</svg>
