<?xml version="1.0" encoding="UTF-8"?>
<svg fill="#000000" width="5.8281" height="6.9088" version="1.1" viewBox="0 0 5.8281 6.9087" xmlns="http://www.w3.org/2000/svg" xmlns:xlink="http://www.w3.org/1999/xlink">
<defs>
<g id="a">
<path d="m0.26562-6.9219v0.29688c0.15625 0 0.32812 0 0.48438 0.03125 0.10938 0 0.20312 0.046875 0.25 0.14062 0.078125 0.14062 0.046875 0.32812 0.046875 0.46875v5.0469c0 0.14062 0.03125 0.3125-0.03125 0.4375-0.046875 0.10938-0.14062 0.14062-0.26562 0.15625-0.15625 0.03125-0.32812 0.03125-0.48438 0.03125v0.29688h3.3281v-0.29688c-0.14062 0-0.29688 0-0.45312-0.03125-0.078125 0-0.15625-0.015625-0.21875-0.0625-0.09375-0.078125-0.09375-0.20312-0.09375-0.3125v-0.82812c0-0.03125 0-0.078125 0.015625-0.125 0.03125-0.078125 0.14062-0.15625 0.20312-0.21875 0.15625-0.14062 0.3125-0.26562 0.4375-0.4375h0.015625c0.29688 0.51562 0.64062 0.98438 0.95312 1.4844 0.078125 0.14062 0.14062 0.35938-0.015625 0.46875-0.03125 0.015625-0.0625 0.03125-0.09375 0.03125-0.0625 0.015625-0.125 0.03125-0.1875 0.03125v0.29688h1.9375v-0.29688c-0.17188 0-0.35938 0-0.51562-0.09375-0.20312-0.10938-0.34375-0.34375-0.46875-0.54688-0.23438-0.35938-0.46875-0.73438-0.6875-1.0938-0.10938-0.17188-0.21875-0.32812-0.32812-0.5-0.03125-0.0625-0.10938-0.14062-0.10938-0.20312 0-0.046875 0.0625-0.09375 0.09375-0.125 0.09375-0.078125 0.1875-0.1875 0.28125-0.28125 0.42188-0.40625 0.89062-0.84375 1.5156-0.84375v-0.3125h-1.8125v0.3125c0.046875 0 0.09375 0.015625 0.14062 0.03125l0.09375 0.046875c0.15625 0.15625 0.09375 0.35938-0.03125 0.5-0.125 0.15625-0.28125 0.29688-0.4375 0.4375-0.32812 0.32812-0.67188 0.64062-1 0.95312v-4.5469c0-0.09375 0.015625-0.26562-0.046875-0.3125-0.046875-0.046875-0.14062-0.03125-0.20312-0.03125zm2.25 0.29688v6.3125h-0.79688v-6.3125z"/>
</g>
</defs>
<g transform="translate(-148.98 -127.84)">
<use x="148.71201" y="134.765" xlink:href="#a"/>
</g>
</svg>
