<?xml version="1.0" encoding="UTF-8"?>
<svg fill="#000000" version="1.1" viewBox="0 0 8.8457 6.6482" xmlns="http://www.w3.org/2000/svg" xmlns:xlink="http://www.w3.org/1999/xlink">
<defs>
<g id="a">
<path d="m3.6562-2.7031h-1.0156c-0.23438 0-0.48438-0.015625-0.71875 0.046875-0.29688 0.0625-0.57812 0.21875-0.8125 0.40625-0.15625 0.17188-0.29688 0.35938-0.39062 0.5625-0.28125 0.64062-0.1875 1.4062 0.28125 1.9375 0.10938 0.10938 0.21875 0.20312 0.35938 0.28125 0.15625 0.10938 0.32812 0.1875 0.51562 0.23438 0.17188 0.046875 0.375 0.0625 0.5625 0.046875 0.21875-0.015625 0.4375-0.078125 0.64062-0.17188 0.21875-0.10938 0.42188-0.26562 0.57812-0.45312 0.17188-0.20312 0.29688-0.45312 0.35938-0.71875 0.046875-0.25 0.046875-0.5 0.046875-0.75v-1.0156h3.875c-0.15625 0.15625-0.29688 0.32812-0.45312 0.51562-0.078125 0.09375-0.14062 0.1875-0.23438 0.28125-0.046875 0.078125-0.125 0.17188-0.1875 0.25-0.03125 0.046875-0.0625 0.09375-0.078125 0.14062-0.03125 0.14062 0.15625 0.125 0.25 0.125 0.03125 0 0.0625 0 0.09375-0.015625 0.0625-0.03125 0.125-0.09375 0.17188-0.14062 0.09375-0.078125 0.20312-0.17188 0.29688-0.25 0.3125-0.25 0.64062-0.5 0.98438-0.6875 0.15625-0.10938 0.3125-0.1875 0.48438-0.28125 0.0625-0.015625 0.14062-0.0625 0.14062-0.14062s-0.09375-0.125-0.15625-0.15625c-0.15625-0.078125-0.3125-0.17188-0.46875-0.26562-0.34375-0.20312-0.67188-0.4375-0.98438-0.6875-0.09375-0.078125-0.20312-0.17188-0.29688-0.25-0.046875-0.046875-0.10938-0.10938-0.17188-0.14062-0.03125-0.03125-0.0625-0.03125-0.09375-0.03125-0.09375 0-0.28125 0-0.25 0.14062 0.015625 0.046875 0.046875 0.09375 0.078125 0.125 0.0625 0.09375 0.14062 0.17188 0.1875 0.25 0.09375 0.10938 0.15625 0.20312 0.23438 0.29688 0.15625 0.17188 0.29688 0.34375 0.45312 0.51562h-3.875v-2.9219c0-0.09375 0-0.17188-0.10938-0.20312-0.0625 0-0.21875-0.015625-0.26562 0.046875-0.03125 0.0625-0.03125 0.14062-0.03125 0.20312zm0 0.40625v0.98438c0 0.21875 0.015625 0.45312-0.03125 0.67188-0.0625 0.23438-0.17188 0.46875-0.34375 0.64062-0.125 0.125-0.26562 0.23438-0.4375 0.3125-0.15625 0.0625-0.34375 0.10938-0.51562 0.10938-0.21875 0-0.42188-0.046875-0.60938-0.14062-0.6875-0.32812-0.96875-1.2031-0.60938-1.8594 0.10938-0.1875 0.25-0.34375 0.40625-0.46875 0.17188-0.125 0.375-0.21875 0.59375-0.25 0.1875-0.015625 0.39062 0 0.59375 0z"/>
</g>
</defs>
<g transform="translate(-149.27 -128.94)">
<use x="148.71201" y="134.765" xlink:href="#a"/>
</g>
</svg>
