<?xml version="1.0" encoding="UTF-8"?>
<svg fill="#000000" version="1.1" viewBox="0 0 8.1094 7.1301" xmlns="http://www.w3.org/2000/svg" xmlns:xlink="http://www.w3.org/1999/xlink">
<defs>
<g id="a">
<path d="m8.2812-6.4375c0-0.45312-0.78125-0.375-1.0781-0.375h-3.7656c-0.5 0-1.3906 0.28125-1.5469 0.82812 0.015625 0.046875 0.046875 0.0625 0.10938 0.0625 0.21875 0 0.51562-0.17188 0.65625-0.32812 0.29688 0 0.60938-0.015625 0.90625-0.015625h0.625s-0.046875 0.17188-0.046875 0.1875c-0.375 1.8281-0.96875 3.3594-1.4062 4.3438-0.0625 0.125-0.59375 1.375-0.73438 1.5-0.4375 0-0.78125-0.25-0.95312-0.64062-0.03125-0.046875-0.03125-0.09375-0.09375-0.09375-0.23438 0-0.78125 0.32812-0.78125 0.48438 0 0.03125 0 0.046875 0.015625 0.0625 0.1875 0.46875 0.625 0.73438 1.125 0.73438s1.0938-0.35938 1.4062-0.73438c0.32812-0.375 0.98438-2.0156 1.25-2.6094h1.9219c-0.015625 0.015625-0.015625 0.015625-0.015625 0.03125 0 0.046875 0.0625 0.0625 0.09375 0.0625 0.21875 0 0.79688-0.26562 0.79688-0.57812 0-0.078125-0.078125-0.0625-0.20312-0.0625h-2.3906c0.26562-0.89062 0.60938-1.7812 0.78125-2.6875h1.3125c0.25 0 0.95312-0.046875 1.125 0.17188 0.03125 0.046875 0 0.15625 0.03125 0.20312 0.015625 0.015625 0.046875 0.03125 0.078125 0.03125 0.23438 0 0.78125-0.29688 0.78125-0.57812z"/>
</g>
</defs>
<g transform="translate(-148.88 -127.95)">
<use x="148.71201" y="134.765" xlink:href="#a"/>
</g>
</svg>
