<?xml version="1.0" encoding="UTF-8"?>
<svg fill="#000000" version="1.1" viewBox="0 0 3.7812 4.9219" xmlns="http://www.w3.org/2000/svg" xmlns:xlink="http://www.w3.org/1999/xlink">
<defs>
<g id="a">
<path d="m1.8125-3.8125v-0.3125c-0.23438-0.1875-0.45312-0.39062-0.65625-0.59375l-1 0.92188 0.10938 0.09375 0.375-0.15625c0.10938 0.078125 0.20312 0.14062 0.29688 0.21875 0.0625-0.078125 0.09375 0.59375 0.09375 1.2031s0 1.1094-0.0625 1.6875c0.32812 0.34375 0.65625 0.67188 1.0312 0.95312l1.4531-1.0312-0.03125-0.1875-0.875 0.42188c-0.3125-0.23438-0.73438-0.60938-0.73438-0.92188v-1.9688c0.0625-0.09375 0.21875-0.21875 0.375-0.34375 0.21875 0.21875 0.54688 0.48438 0.82812 0.48438 0.10938 0 0.23438-0.015625 0.32812-0.09375l0.57812-0.54688 0.015625-0.125c-0.09375 0.046875-0.26562 0.14062-0.375 0.14062-0.25 0-0.51562-0.4375-0.65625-0.70312z"/>
</g>
</defs>
<g transform="translate(-148.87 -130.05)">
<use x="148.71201" y="134.765" xlink:href="#a"/>
</g>
</svg>
