<?xml version="1.0" encoding="UTF-8"?>
<svg fill="#000000" version="1.1" viewBox="0 0 4.7969 7.4375" xmlns="http://www.w3.org/2000/svg" xmlns:xlink="http://www.w3.org/1999/xlink">
<defs>
<g id="a">
<path d="m3.9844-6.4531-0.17188 0.625c-0.15625-0.0625-0.32812-0.10938-0.51562-0.10938-0.60938 0-1.1094 0.40625-1.25 0.95312h-1.1562v0.64062h1.7656v-0.32812c0-0.34375 0.28125-0.625 0.64062-0.625 0.125 0 0.25 0.046875 0.35938 0.10938l-0.57812 2.125h-2.1875v0.64062h2.0156l-0.34375 1.2812h-1.6719v0.64062h1.5l-0.35938 1.3125 0.5625 0.17188 0.39062-1.4844h2.7031v-0.64062h-2.5312l0.34375-1.2812h2.1875v-0.64062h-2.0156l0.34375-1.2812h1.6719v-0.64062h-1.1562c-0.046875-0.17188-0.125-0.3125-0.21875-0.45312l0.23438-0.85938z"/>
</g>
</defs>
<g transform="translate(-149.6 -128.31)">
<use x="148.71201" y="134.765" xlink:href="#a"/>
</g>
</svg>
