<?xml version="1.0" encoding="UTF-8"?>
<svg fill="#000000" version="1.1" viewBox="0 0 4.7969 5.9531" xmlns="http://www.w3.org/2000/svg" xmlns:xlink="http://www.w3.org/1999/xlink">
<defs>
<g id="a">
<path d="m1.2812-4.2812c0.25-0.26562 0.54688-0.54688 0.92188-0.54688 0.32812 0 0.625 0.1875 0.89062 0.40625 0.35938 0.3125 0.79688 0.5625 1.2969 0.5625 0.53125 0 0.90625-0.42188 1.2969-0.8125l-0.39062-0.375c-0.25 0.26562-0.54688 0.54688-0.92188 0.54688-0.32812 0-0.625-0.1875-0.89062-0.40625-0.35938-0.3125-0.79688-0.5625-1.2969-0.5625-0.51562 0-0.90625 0.42188-1.2969 0.79688zm2.25 0.71875-0.125 0.5h-2.5156v0.64062h2.3438l-0.35938 1.2812h-1.9844v0.64062h1.8281l-0.21875 0.84375 0.54688 0.14062 0.26562-0.98438h2.375v-0.64062h-2.2031l0.34375-1.2812h1.8594v-0.64062h-1.6875l0.09375-0.35938z"/>
</g>
</defs>
<g transform="translate(-149.6 -129.3)">
<use x="148.71201" y="134.765" xlink:href="#a"/>
</g>
</svg>
