<?xml version="1.0" encoding="UTF-8"?>
<svg fill="#000000" version="1.1" viewBox="0 0 6.0938 11.016" xmlns="http://www.w3.org/2000/svg" xmlns:xlink="http://www.w3.org/1999/xlink">
<defs>
<g id="a">
<path d="m4.2656-2.9219c1.5469 0.42188 2.1094 1.1875 2.25 2.0781 0.015625 0.125 0.03125 0.28125 0.20312 0.28125 0.0625 0 0.20312-0.0625 0.20312-0.21875 0-0.1875-0.14062-0.96875-0.67188-1.5156-0.48438-0.48438-1.1094-0.79688-1.8281-1l0.15625-0.375c1.0312-0.3125 1.7188-0.82812 2.0625-1.5 0.26562-0.54688 0.28125-0.95312 0.28125-0.95312 0-0.14062-0.10938-0.21875-0.20312-0.21875-0.125 0-0.17188 0.078125-0.20312 0.1875-0.078125 0.5-0.23438 1.4062-1.7344 1.9844l1.4375-3.4375c0.046875-0.125 0.0625-0.14062 0.0625-0.20312 0-0.10938-0.078125-0.1875-0.20312-0.1875-0.0625 0-0.10938 0.015625-0.14062 0.0625l-1.6562 3.9375c-0.96875 0.26562-1.9688 0.34375-2.9688 0.34375-0.34375 0-0.48438 0-0.48438 0.20312 0 0.1875 0.15625 0.1875 0.48438 0.1875 0.85938 0 1.7188 0.0625 2.5625 0.25l-1.6562 3.9844h-1.0469c-0.17188 0-0.34375 0-0.34375 0.20312 0 0.1875 0.17188 0.1875 0.34375 0.1875h0.875c-0.078125 0.21875-0.57812 1.3594-0.57812 1.4688s0.078125 0.1875 0.20312 0.1875 0.15625-0.09375 0.21875-0.23438l0.59375-1.4219h4.0781c0.17188 0 0.35938 0 0.35938-0.1875 0-0.20312-0.1875-0.20312-0.35938-0.20312h-3.9062zm-0.53125-0.53125 0.35938-0.078125-0.0625 0.14062z"/>
</g>
</defs>
<g transform="translate(-149.54 -126.76)">
<use x="148.71201" y="134.765" xlink:href="#a"/>
</g>
</svg>
