<?xml version="1.0" encoding="UTF-8"?>
<svg fill="#000000" version="1.1" viewBox="0 0 5.2188 11.406" xmlns="http://www.w3.org/2000/svg" xmlns:xlink="http://www.w3.org/1999/xlink">
<defs>
<g id="a">
<path d="m5.6719 0.23438v-2.5938c0-1.4531-0.95312-2.4688-2.25-2.6406v-1.0156c0-1.0469 0.078125-1.7656 0.57812-1.7656 0.078125 0 0.125 0.03125 0.125 0.10938 0 0.09375-0.09375 0.078125-0.09375 0.28125 0 0.25 0.1875 0.32812 0.35938 0.32812 0.21875 0 0.42188-0.14062 0.42188-0.42188 0-0.29688-0.20312-0.60938-0.6875-0.60938-1.1875 0-1.4219 1.375-1.4219 2.1719v0.92188c-1.2969 0.17188-2.25 1.2188-2.25 2.6719v2.5625h0.65625v-2.5625c0-1 0.6875-1.8281 1.5938-2.0156v5.7031c0 1-0.078125 1.6406-0.54688 1.6406-0.078125 0-0.125-0.046875-0.125-0.10938 0-0.09375 0.078125-0.078125 0.078125-0.28125 0-0.25-0.17188-0.34375-0.35938-0.34375-0.20312 0-0.42188 0.15625-0.42188 0.42188 0 0.3125 0.20312 0.625 0.70312 0.625 1.1094 0 1.3906-1.2031 1.3906-2.0156v-5.6406c0.92188 0.1875 1.5938 1.0312 1.5938 2.0312v2.5469z"/>
</g>
</defs>
<g transform="translate(-149.17 -126.63)">
<use x="148.71201" y="134.72501" xlink:href="#a"/>
</g>
</svg>
