<?xml version="1.0" encoding="UTF-8"?>
<svg fill="#000000" version="1.1" viewBox="0 0 8.1406 5.3125" xmlns="http://www.w3.org/2000/svg" xmlns:xlink="http://www.w3.org/1999/xlink">
<defs>
<g id="a">
<path d="m8.6875-2.5781c-0.96875-0.39062-1.7188-1.1406-2.375-1.8906l-0.1875 0.1875c0.21875 0.32812 0.53125 0.6875 0.8125 0.96875 0.09375 0.09375 0.14062 0.15625 0.14062 0.23438 0 0.10938-0.15625 0.23438-0.26562 0.23438h-5v0.65625h5c0.17188 0 0.25 0.09375 0.25 0.1875s-0.046875 0.20312-0.14062 0.28125c-0.29688 0.3125-0.57812 0.625-0.8125 0.96875l0.20312 0.1875c0.65625-0.76562 1.4062-1.5 2.375-1.9062zm-6.875-1.9844c0-0.375-0.3125-0.625-0.625-0.625s-0.64062 0.25-0.64062 0.625c0 0.39062 0.26562 0.64062 0.64062 0.64062s0.625-0.3125 0.625-0.64062zm0 4.0469c0-0.40625-0.28125-0.625-0.64062-0.625-0.32812 0-0.625 0.23438-0.625 0.625 0 0.34375 0.29688 0.64062 0.625 0.64062 0.35938 0 0.64062-0.29688 0.64062-0.64062z"/>
</g>
</defs>
<g transform="translate(-149.26 -129.58)">
<use x="148.71201" y="134.765" xlink:href="#a"/>
</g>
</svg>
