<?xml version="1.0" encoding="UTF-8"?>
<svg fill="#000000" version="1.1" viewBox="0 0 3.4173 6.4483" xmlns="http://www.w3.org/2000/svg" xmlns:xlink="http://www.w3.org/1999/xlink">
<defs>
<g id="a">
<path d="m1.0625-4.3125h-0.89062v0.3125h0.85938v2.2344c0 0.4375-0.03125 0.89062 0.1875 1.2969 0.1875 0.34375 0.57812 0.51562 0.95312 0.5625 0.15625 0.015625 0.29688 0.015625 0.4375-0.03125 0.1875-0.0625 0.32812-0.17188 0.4375-0.32812 0.32812-0.45312 0.26562-1.0156 0.26562-1.5469h-0.23438c0 0.4375 0.046875 0.95312-0.1875 1.3438-0.046875 0.078125-0.10938 0.15625-0.1875 0.21875-0.1875 0.125-0.4375 0.125-0.60938 0-0.125-0.09375-0.21875-0.21875-0.26562-0.35938-0.078125-0.20312-0.09375-0.45312-0.09375-0.67188v-2.7188h1.4219v-0.3125h-1.4219c0-0.4375-0.03125-0.90625 0.125-1.3281 0.09375-0.21875 0.25-0.4375 0.5-0.48438 0.21875-0.03125 0.42188 0.046875 0.625 0.09375-0.10938 0.0625-0.21875 0.125-0.28125 0.26562-0.078125 0.21875 0 0.46875 0.20312 0.59375 0.078125 0.03125 0.1875 0.0625 0.29688 0.046875 0.0625-0.015625 0.10938-0.03125 0.15625-0.046875 0.046875-0.03125 0.078125-0.0625 0.10938-0.09375 0.23438-0.25 0.09375-0.64062-0.14062-0.82812-0.15625-0.125-0.35938-0.20312-0.5625-0.21875-0.15625-0.03125-0.34375-0.046875-0.51562-0.015625-0.42188 0.0625-0.76562 0.3125-0.96875 0.67188-0.078125 0.17188-0.15625 0.35938-0.1875 0.54688-0.046875 0.26562-0.03125 0.53125-0.03125 0.79688z"/>
</g>
</defs>
<g transform="translate(-148.88 -128.42)">
<use x="148.71201" y="134.765" xlink:href="#a"/>
</g>
</svg>
