<?xml version="1.0" encoding="UTF-8"?>
<svg fill="#000000" version="1.1" viewBox="0 0 7.6875 7.7031" xmlns="http://www.w3.org/2000/svg" xmlns:xlink="http://www.w3.org/1999/xlink">
<defs>
<g id="a">
<path d="m5.9375-1.6406c0.046875 0.625 0.15625 1.0781 0.21875 1.2656 0.10938 0.45312 0.15625 0.67188 0.57812 0.67188 0.45312 0 1.2188-0.45312 1.2188-0.64062 0-0.0625-0.03125-0.078125-0.09375-0.078125-0.125 0-0.32812 0.10938-0.35938 0.125-0.078125 0.046875-0.09375 0.046875-0.10938 0.046875-0.28125 0-0.34375-0.26562-0.46875-0.85938-0.0625-0.34375-0.15625-0.73438-0.23438-2.0938-0.0625-1.0312-0.10938-2.0469-0.10938-3.0625 0-0.23438 0.015625-0.5 0.015625-0.73438 0-0.15625 0-0.20312-0.10938-0.20312-0.14062 0-0.54688 0.17188-0.73438 0.4375l-0.0625 0.10938c-0.79688 1.6875-1.5312 2.8906-2.0469 3.7031-0.59375 0.90625-1.625 2.5312-2.1719 2.5312-0.35938 0-0.67188-0.23438-0.76562-0.59375 0-0.015625-0.03125-0.078125-0.0625-0.078125-0.15625 0-0.375 0.46875-0.375 0.75 0 0.40625 0.4375 0.84375 0.90625 0.84375 0.6875 0 1.8281-1.7969 2.0469-2.1406zm-0.20312-4.3281v0.57812c0 0.57812 0.015625 1.1562 0.046875 1.7344 0.015625 0.20312 0.046875 0.9375 0.09375 1.4688h-1.8125c-0.17188 0-0.3125 0-0.57812 0.15625 0.70312-1.0781 1.2812-2.1094 1.3438-2.2188 0.5-0.89062 0.76562-1.4688 0.89062-1.7188z"/>
</g>
</defs>
<g transform="translate(-148.98 -127.56)">
<use x="148.71201" y="134.765" xlink:href="#a"/>
</g>
</svg>
