<?xml version="1.0" encoding="UTF-8"?>
<svg fill="#000000" version="1.1" viewBox="0 0 6.7031 4.4844" xmlns="http://www.w3.org/2000/svg" xmlns:xlink="http://www.w3.org/1999/xlink">
<defs>
<g id="a">
<path d="m0.89062-4.9844v0.64062h0.79688c0.95312 0 1.4844 0.89062 2.125 1.6094-0.64062 0.70312-1.1719 1.5938-2.125 1.5938h-0.79688v0.64062h0.79688c1.1094 0 1.7969-0.96875 2.5625-1.7812 0.75 0.8125 1.4531 1.7812 2.5469 1.7812h0.79688v-0.64062h-0.79688c-0.9375 0-1.4844-0.89062-2.1094-1.5938 0.64062-0.71875 1.1719-1.6094 2.1094-1.6094h0.79688v-0.64062h-0.79688c-1.0938 0-1.7969 0.98438-2.5469 1.7812-0.76562-0.79688-1.4531-1.7812-2.5625-1.7812z"/>
</g>
</defs>
<g transform="translate(-149.6 -129.78)">
<use x="148.71201" y="134.765" xlink:href="#a"/>
</g>
</svg>
