<?xml version="1.0" encoding="UTF-8"?>
<svg fill="#000000" version="1.1" viewBox="0 0 4.9844 5.7969" xmlns="http://www.w3.org/2000/svg" xmlns:xlink="http://www.w3.org/1999/xlink">
<defs>
<g id="a">
<path d="m2.7344-4.9844c1.4062 0 2.5469 0.95312 2.6719 2.2969h-4.2344c-0.17188 0-0.34375 0-0.34375 0.1875 0 0.20312 0.17188 0.20312 0.34375 0.20312h4.2344c-0.125 1.3438-1.2656 2.2969-2.6719 2.2969h-1.5625c-0.17188 0-0.34375 0-0.34375 0.20312s0.17188 0.20312 0.34375 0.20312h1.5781c1.7031 0 3.0625-1.2969 3.0625-2.9062 0-1.5938-1.3594-2.8906-3.0625-2.8906h-1.5781c-0.17188 0-0.34375 0-0.34375 0.20312s0.17188 0.20312 0.34375 0.20312z"/>
</g>
</defs>
<g transform="translate(-149.54 -129.37)">
<use x="148.71201" y="134.765" xlink:href="#a"/>
</g>
</svg>
