<?xml version="1.0" encoding="UTF-8"?>
<svg fill="#000000" version="1.1" viewBox="0 0 12.031 7.3594" xmlns="http://www.w3.org/2000/svg" xmlns:xlink="http://www.w3.org/1999/xlink">
<defs>
<g id="a">
<path d="m9.1719-1.3906c0-0.0625-0.046875-0.078125-0.078125-0.078125h-0.10938c-0.03125 0-0.0625 0-0.078125 0.015625-0.46875 0.67188-1.0938 1.3125-1.5938 1.3125-0.39062 0-0.5625-0.1875-0.5625-0.5 0-0.48438 0.39062-1.2656 0.98438-2.0938 0.23438-0.34375 0.48438-0.6875 0.73438-1.0312 1.3281-0.078125 2.6562-0.35938 3.4062-1.4219 0.3125-0.4375 0.48438-0.89062 0.48438-1.2344 0-0.375-0.20312-0.64062-0.70312-0.64062-1.4219 0-2.7812 1.5156-3.9688 3.1094h-1.2812c0.73438-0.98438 1.5-1.9844 2.2812-2.9688 0.015625-0.03125 0.015625-0.0625 0.015625-0.09375l-0.03125-0.078125c-0.015625-0.03125-0.03125-0.046875-0.078125-0.046875-0.015625 0-0.046875 0-0.0625 0.015625-0.5 0.48438-0.98438 0.96875-1.5156 1.5-0.375 0.51562-1.1406 0.875-1.6875 0.875-0.125 0-0.20312-0.0625-0.20312-0.17188 0-0.0625 0.03125-0.15625 0.125-0.26562 0.14062-0.20312 0.20312-0.39062 0.20312-0.54688 0-0.34375-0.26562-0.54688-0.70312-0.54688-0.51562 0-1.0625 0.65625-1.4375 1.1719v0.046875c0 0.046875 0.03125 0.09375 0.078125 0.09375h0.10938c0.03125 0 0.046875-0.03125 0.0625-0.046875 0.39062-0.53125 0.76562-1.0469 1.1406-1.0469 0.15625 0 0.25 0.09375 0.25 0.23438s-0.078125 0.3125-0.23438 0.54688c-0.09375 0.125-0.14062 0.23438-0.14062 0.34375 0 0.26562 0.34375 0.40625 0.71875 0.40625 0.28125 0 0.64062-0.078125 0.96875-0.23438-0.25 0.29688-0.5 0.57812-0.75 0.875-1.1406 0.10938-2.25 0.4375-2.9375 1.3906l-0.015625 0.0625c0 0.03125 0.03125 0.078125 0.078125 0.078125h0.10938c0.03125 0 0.0625-0.015625 0.078125-0.03125 0.57812-0.8125 1.5-1.1406 2.5-1.2656-0.40625 0.5-0.79688 1-1.1562 1.5156-0.73438 1.0469-1.6562 2.1406-2.4844 2.1406-0.67188 0-1.1562-0.20312-1.1562-0.60938 0-0.09375 0.03125-0.20312 0.09375-0.34375 0.078125 0.10938 0.1875 0.15625 0.29688 0.15625 0.26562 0 0.5625-0.20312 0.5625-0.39062 0-0.25-0.15625-0.34375-0.32812-0.34375-0.20312 0-0.45312 0.125-0.5625 0.29688-0.1875 0.25-0.26562 0.48438-0.26562 0.67188 0 0.51562 0.59375 0.78125 1.3125 0.78125 1.1094 0 2.5781-1.1094 3.3906-2.2656 0.40625-0.5625 0.79688-1.1094 1.2031-1.6719 0.23438-0.015625 0.46875-0.015625 0.6875-0.015625h0.60938c-0.21875 0.3125-0.4375 0.60938-0.64062 0.89062-0.48438 0.6875-0.76562 1.375-0.76562 1.9062 0 0.60938 0.35938 1.0156 1.1562 1.0156 0.64062 0 1.3906-0.75 1.875-1.4219 0.015625-0.015625 0.015625-0.03125 0.015625-0.046875zm2.4375-5.4531c0.32812 0 0.5 0.17188 0.5 0.45312s-0.17188 0.67188-0.48438 1.1094c-0.65625 0.90625-1.7812 1.1875-2.9844 1.2969 1.0938-1.5156 2.2188-2.8594 2.9688-2.8594z"/>
</g>
</defs>
<g transform="translate(-149.04 -127.62)">
<use x="148.71201" y="134.765" xlink:href="#a"/>
</g>
</svg>
