<?xml version="1.0" encoding="UTF-8"?>
<svg fill="#000000" version="1.1" viewBox="0 0 5.7969 6.6094" xmlns="http://www.w3.org/2000/svg" xmlns:xlink="http://www.w3.org/1999/xlink">
<defs>
<g id="a">
<path d="m2.875-2.0469h-0.10938l-0.89062-1.9219c-0.14062-0.29688-0.375-0.67188-0.73438-0.67188-0.25 0-0.5 0.078125-0.6875 0.21875l-0.625 0.48438 0.14062 0.20312c0.1875-0.14062 0.46875-0.35938 0.65625-0.35938 0.28125 0 0.5 0.32812 0.64062 0.60938 0.34375 0.71875 1.0938 2.1406 1.0938 2.1562-0.75 0.95312-1.4375 1.9375-2.1094 2.9375l0.5 0.29688 0.17188-0.0625c0.35938-0.90625 0.95312-1.7969 1.5312-2.6719h0.09375c0.625 1.4688 1.0469 2.7969 1.7031 2.7969 0.40625 0 0.9375-0.32812 1.375-0.57812l-0.078125-0.21875c-0.21875 0.10938-0.45312 0.14062-0.6875 0.14062-0.625 0-1.3281-1.6875-1.8438-2.875 0.14062-0.20312 0.3125-0.39062 0.46875-0.57812l1.7969-2.0625-0.015625-0.0625-0.32812-0.3125-0.20312 0.03125z"/>
</g>
</defs>
<g transform="translate(-148.54 -130.12)">
<use x="148.71201" y="134.765" xlink:href="#a"/>
</g>
</svg>
