<?xml version="1.0" encoding="UTF-8"?>
<svg fill="#000000" version="1.1" viewBox="0 0 5.7969 5.7812" xmlns="http://www.w3.org/2000/svg" xmlns:xlink="http://www.w3.org/1999/xlink">
<defs>
<g id="a">
<path d="m5.5781-3.0469-1.875 0.3125 0.57812-1.875-0.60938-0.078125-0.29688 1.875-1.6094-1.125-0.26562 0.5625 1.7031 0.85938-1.5625 1.1875 0.4375 0.40625 1.3438-1.3438 0.64062 1.8594 0.54688-0.29688-0.875-1.7031 1.9688-0.03125zm0.8125 0.5c0-1.6562-1.3594-2.8906-2.9062-2.8906-1.6562 0-2.8906 1.3438-2.8906 2.8906 0 1.6562 1.3438 2.8906 2.8906 2.8906 1.6562 0 2.9062-1.3438 2.9062-2.8906zm-2.9062 2.4375c-1.375 0-2.4375-1.1406-2.4375-2.4375 0-1.375 1.1406-2.4375 2.4375-2.4375 1.3906 0 2.4531 1.1406 2.4531 2.4375 0 1.375-1.1406 2.4375-2.4531 2.4375z"/>
</g>
</defs>
<g transform="translate(-149.31 -129.33)">
<use x="148.71201" y="134.765" xlink:href="#a"/>
</g>
</svg>
