<?xml version="1.0" encoding="UTF-8"?>
<svg fill="#000000" version="1.1" viewBox="0 0 2.1406 4.2969" xmlns="http://www.w3.org/2000/svg" xmlns:xlink="http://www.w3.org/1999/xlink">
<defs>
<g id="a">
<path d="m0.29688-4.3125v0.25c0.15625 0 0.29688 0 0.4375 0.015625 0.09375 0.015625 0.17188 0.046875 0.23438 0.125 0.046875 0.078125 0.046875 0.1875 0.046875 0.29688v2.9219c0 0.10938 0 0.21875-0.046875 0.29688-0.0625 0.09375-0.14062 0.10938-0.23438 0.14062-0.14062 0.015625-0.28125 0.015625-0.4375 0.015625v0.23438l0.42188-0.015625 0.85938-0.015625 0.85938 0.03125v-0.23438c-0.15625 0-0.29688 0-0.4375-0.015625-0.09375-0.03125-0.17188-0.046875-0.23438-0.14062-0.046875-0.078125-0.046875-0.1875-0.046875-0.29688v-2.9219c0-0.10938 0-0.21875 0.046875-0.29688 0.0625-0.078125 0.14062-0.10938 0.23438-0.125 0.14062-0.015625 0.28125-0.015625 0.4375-0.015625v-0.25l-0.42188 0.03125h-0.875z"/>
</g>
</defs>
<g transform="translate(-149.01 -130.45)">
<use x="148.71201" y="134.765" xlink:href="#a"/>
</g>
</svg>
