<?xml version="1.0" encoding="UTF-8"?>
<svg fill="#000000" version="1.1" viewBox="0 0 4.3125 4.0312" xmlns="http://www.w3.org/2000/svg" xmlns:xlink="http://www.w3.org/1999/xlink">
<defs>
<g id="a">
<path d="m4.6406-4.5625c-0.046875 0-0.09375 0.015625-0.14062 0.0625-1.125 0.9375-2.3438 1.7344-3.7188 1.7344-0.14062 0-0.21875 0.078125-0.21875 0.21875s0.078125 0.23438 0.21875 0.23438c1.375 0 2.5938 0.78125 3.7188 1.7188 0.046875 0.046875 0.09375 0.0625 0.14062 0.0625 0.14062 0 0.23438-0.10938 0.23438-0.23438 0-0.0625-0.03125-0.125-0.078125-0.17188-0.78125-0.64062-1.6562-1.2812-2.6406-1.6094 0.98438-0.32812 1.8594-0.96875 2.6406-1.6094 0.046875-0.046875 0.078125-0.10938 0.078125-0.17188 0-0.125-0.09375-0.23438-0.23438-0.23438z"/>
</g>
</defs>
<g transform="translate(-149.27 -130.2)">
<use x="148.71201" y="134.765" xlink:href="#a"/>
</g>
</svg>
