<?xml version="1.0" encoding="UTF-8"?>
<svg fill="#000000" version="1.1" viewBox="0 0 3.7969 7.0156" xmlns="http://www.w3.org/2000/svg" xmlns:xlink="http://www.w3.org/1999/xlink">
<defs>
<g id="a">
<path d="m3.8281-6.8438c-0.29688-0.046875-0.53125-0.078125-0.79688-0.078125-0.73438 0-1.3594 0.21875-1.7031 0.92188-0.0625 0.125-0.10938 0.23438-0.10938 0.375 0 0.375 0.53125 0.875 0.92188 1.2188-0.78125 0.76562-1.5781 1.7812-1.5781 2.8125 0 0.8125 0.4375 1.6875 1.4688 1.6875 1.3125 0 2.3281-1.3125 2.3281-2.5938 0-0.54688-0.29688-1.0469-0.67188-1.4375l-0.95312-0.90625c-0.79688-0.76562-1.0469-0.92188-1.0469-1.1875 0-0.3125 0.32812-0.40625 0.65625-0.40625 0.65625 0 1.0312 0.0625 1.3906 0.09375l0.14062-0.42188zm-1.4531 2.6406c0.59375 0.59375 1.3594 1.4062 1.3594 2.125 0 0.82812-0.45312 1.6406-1.2031 1.6406-0.84375 0-1.2031-0.95312-1.2031-1.6719 0-0.76562 0.34375-1.375 1.0469-2.0938z"/>
</g>
</defs>
<g transform="translate(-149.27 -127.84)">
<use x="148.71201" y="134.765" xlink:href="#a"/>
</g>
</svg>
