<?xml version="1.0" encoding="UTF-8"?>
<svg fill="#000000" version="1.1" viewBox="0 0 5.5156 11.078" xmlns="http://www.w3.org/2000/svg" xmlns:xlink="http://www.w3.org/1999/xlink">
<defs>
<g id="a">
<path d="m3.5781 7.3906c1.0938-0.15625 1.6719-1.0312 1.6719-1.8438 0-0.73438-0.45312-1.5-1.2969-1.7812 0.0625-1.0469 0.10938-1.4062 0.10938-1.6094 0.10938-1.0938 0.25-1.9375 0.92188-1.9375 0.09375 0 0.40625 0.015625 0.625 0.20312-0.28125 0.046875-0.35938 0.28125-0.35938 0.42188 0 0.28125 0.21875 0.40625 0.40625 0.40625 0.20312 0 0.42188-0.125 0.42188-0.42188 0-0.48438-0.5-0.82812-1.1094-0.82812-0.79688 0-1.1719 0.67188-1.375 1.25-0.125 0.39062-0.1875 0.70312-0.40625 2.4219-1.0781 0.17188-1.6562 1.0469-1.6562 1.8594 0 0.73438 0.4375 1.5 1.2969 1.7812-0.078125 1.0156-0.10938 1.3438-0.125 1.5469-0.09375 1.0781-0.28125 2-1.0469 2-0.125 0-0.4375-0.03125-0.64062-0.21875 0.29688-0.03125 0.375-0.26562 0.375-0.40625 0-0.28125-0.21875-0.42188-0.40625-0.42188-0.20312 0-0.42188 0.14062-0.42188 0.4375 0 0.46875 0.5 0.82812 1.0938 0.82812 0.78125 0 1.2188-0.59375 1.4688-1.2031 0.21875-0.5625 0.29688-1.125 0.45312-2.4844zm-0.73438-0.5c-0.46875-0.1875-0.92188-0.67188-0.92188-1.3594 0-0.67188 0.5-1.2969 1.2031-1.4375zm1.0781-2.7188c0.51562 0.21875 0.92188 0.73438 0.92188 1.3594 0 0.71875-0.51562 1.3125-1.2031 1.4531z"/>
</g>
</defs>
<g transform="translate(-149.27 -126.74)">
<use x="148.71201" y="126.739" xlink:href="#a"/>
</g>
</svg>
