<?xml version="1.0" encoding="UTF-8"?>
<svg fill="#000000" version="1.1" viewBox="0 0 5.0312 7.1094" xmlns="http://www.w3.org/2000/svg" xmlns:xlink="http://www.w3.org/1999/xlink">
<defs>
<g id="a">
<path d="m5.2031-6.6875c-0.23438 0.21875-0.57812 0.53125-1 0.53125-0.20312 0-0.35938-0.078125-0.53125-0.15625-0.5-0.23438-1.125-0.53125-1.5312-0.53125-0.9375 0-1.3594 0.85938-1.8594 2.1875l0.17188 0.10938c0.25-0.67188 0.6875-1.4375 1.4531-1.4375 0.4375 0 1.0469 0.26562 1.8594 0.57812 0.57812-0.3125 1.0781-0.6875 1.5469-1.125zm-4.7812 6.8438 0.53125-0.35938c0.26562 0.23438 0.59375 0.46875 0.95312 0.46875 0.82812 0 1.5625-0.4375 2.125-1 0.45312-0.45312 0.59375-1.0938 0.59375-1.7031 0-0.71875-0.15625-1.3125-0.15625-2.1875 0-0.45312 0.32812-0.84375 0.65625-1.1406l-0.125-0.0625c-0.5 0.3125-1 0.78125-1.3906 1.2188-0.015625 0.10938-0.015625 0.21875-0.015625 0.32812 0 0.625 0.17188 1.3281 0.17188 2.2188 0 0.79688-0.23438 1.8906-1.1094 1.8906-0.25 0-0.51562-0.125-0.6875-0.29688-0.14062-0.125-0.1875-0.23438-0.45312-0.8125-0.046875 0.046875-0.8125 0.84375-1.1406 1.2812z"/>
</g>
</defs>
<g transform="translate(-148.99 -127.92)">
<use x="148.71201" y="134.765" xlink:href="#a"/>
</g>
</svg>
