<?xml version="1.0" encoding="UTF-8"?>
<svg fill="#000000" version="1.1" viewBox="0 0 7.1094 4.7969" xmlns="http://www.w3.org/2000/svg" xmlns:xlink="http://www.w3.org/1999/xlink">
<defs>
<g id="a">
<path d="m7.7031-0.96875c0-0.1875-0.25-0.42188-0.25-1.2344 0-0.64062 0.1875-1.2812 0.1875-1.3281 0-0.125-0.078125-0.23438-0.21875-0.23438-0.29688 0-0.28125 0.40625-0.42188 1.4375-0.70312-0.85938-1.75-1.3906-2.875-1.4375l0.29688-1.5938c0-0.078125-0.0625-0.17188-0.15625-0.17188-0.0625 0-0.14062 0.046875-0.15625 0.125l-0.28125 1.6406c-1.5 0.0625-2.6562 0.96875-3.2031 2.0781-0.015625 0.015625-0.03125 0.046875-0.03125 0.09375 0 0.10938 0.10938 0.23438 0.23438 0.23438 0.09375 0 0.17188-0.0625 0.20312-0.14062 0.46875-0.9375 1.4688-1.7031 2.7188-1.7969l-0.39062 2.1719c-0.015625 0.078125 0.046875 0.15625 0.125 0.17188 0.078125 0 0.15625-0.046875 0.17188-0.125l0.39062-2.2188c1.1094 0.015625 2.1562 0.57812 2.7656 1.5-0.51562-0.0625-1.3906-0.32812-1.7344-0.32812-0.125 0-0.23438 0.09375-0.23438 0.23438 0 0.10938 0.09375 0.21875 0.21875 0.21875 1.9219 0.17188 2.1406 0.9375 2.4219 0.9375 0.125 0 0.21875-0.10938 0.21875-0.23438z"/>
</g>
</defs>
<g transform="translate(-149.31 -129.23)">
<use x="148.71201" y="134.765" xlink:href="#a"/>
</g>
</svg>
