<?xml version="1.0" encoding="UTF-8"?>
<svg fill="#000000" version="1.1" viewBox="0 0 6.5781 6.5781" xmlns="http://www.w3.org/2000/svg" xmlns:xlink="http://www.w3.org/1999/xlink">
<defs>
<g id="a">
<path d="m1.6875-5.6094c-0.625 0.60938-0.96875 1.4531-0.96875 2.3125 0 0.89062 0.34375 1.7188 0.96875 2.3438 0.60938 0.60938 1.4375 0.95312 2.3125 0.95312s1.7188-0.34375 2.3281-0.96875c0.625-0.60938 0.96875-1.4375 0.96875-2.3281 0-0.85938-0.34375-1.7031-0.96875-2.3125-0.60938-0.625-1.4531-0.96875-2.3281-0.96875s-1.7031 0.34375-2.3125 0.96875zm1.2812 3.3594c0.3125 0.1875 0.67188 0.29688 1.0312 0.29688s0.71875-0.10938 1.0312-0.29688l0.26562 0.25c-0.29688 0.42188-0.78125 0.67188-1.2969 0.67188s-0.98438-0.25-1.2812-0.67188zm0.26562-1.8125c-0.078125 0.09375-0.1875 0.14062-0.29688 0.14062s-0.21875-0.046875-0.3125-0.14062c-0.078125-0.078125-0.10938-0.1875-0.10938-0.29688s0.03125-0.21875 0.10938-0.29688c0.09375-0.078125 0.20312-0.125 0.3125-0.125s0.21875 0.046875 0.29688 0.125 0.125 0.1875 0.125 0.29688-0.046875 0.21875-0.125 0.29688zm2.1406 0c-0.078125 0.09375-0.1875 0.14062-0.29688 0.14062s-0.21875-0.046875-0.29688-0.14062c-0.09375-0.078125-0.14062-0.1875-0.14062-0.29688s0.046875-0.21875 0.14062-0.29688c0.078125-0.078125 0.1875-0.125 0.29688-0.125s0.21875 0.046875 0.29688 0.125 0.125 0.1875 0.125 0.29688-0.046875 0.21875-0.125 0.29688z"/>
</g>
</defs>
<g transform="translate(-149.43 -128.19)">
<use x="148.71201" y="134.765" xlink:href="#a"/>
</g>
</svg>
