<?xml version="1.0" encoding="UTF-8"?>
<svg fill="#000000" version="1.1" viewBox="0 0 3.5312 9.9844" xmlns="http://www.w3.org/2000/svg" xmlns:xlink="http://www.w3.org/1999/xlink">
<defs>
<g id="a">
<path d="m2.1562 1.1719c0 0.39062-0.26562 1.0312-1.3438 1.0938-0.0625 0.015625-0.09375 0.0625-0.09375 0.10938 0 0.125 0.10938 0.125 0.20312 0.125 0.96875 0 1.8906-0.5 1.9062-1.25v-2.2812c0-0.39062 0-0.70312 0.39062-1.0312 0.34375-0.29688 0.73438-0.3125 0.95312-0.3125 0.046875-0.015625 0.078125-0.0625 0.078125-0.125 0-0.09375-0.046875-0.09375-0.15625-0.10938-0.65625-0.03125-1.1406-0.39062-1.25-0.875-0.015625-0.10938-0.015625-0.14062-0.015625-0.5v-1.9688c0-0.42188 0-0.73438-0.48438-1.1094-0.40625-0.3125-1.0938-0.42188-1.4219-0.42188-0.09375 0-0.20312 0-0.20312 0.125 0 0.09375 0.0625 0.09375 0.15625 0.10938 0.625 0.03125 1.125 0.35938 1.25 0.85938 0.03125 0.09375 0.03125 0.10938 0.03125 0.46875v2.0938c0 0.45312 0.078125 0.625 0.39062 0.95312 0.21875 0.20312 0.5 0.29688 0.78125 0.375-0.8125 0.23438-1.1719 0.70312-1.1719 1.2812z"/>
</g>
</defs>
<g transform="translate(-149.43 -127.28)">
<use x="148.71201" y="134.765" xlink:href="#a"/>
</g>
</svg>
