<?xml version="1.0" encoding="UTF-8"?>
<svg fill="#000000" version="1.1" viewBox="0 0 7.4826 7.4796" xmlns="http://www.w3.org/2000/svg" xmlns:xlink="http://www.w3.org/1999/xlink">
<defs>
<g id="a">
<path d="m0.20312-6.2344c-0.046875 0.03125-0.0625 0.078125-0.0625 0.125-0.015625 0.09375 0 0.1875 0 0.28125v6.8906c0 0.046875 0 0.09375 0.03125 0.14062 0.03125 0.03125 0.09375 0.03125 0.14062 0.03125h0.29688 6.7812c0.046875 0 0.10938 0.015625 0.15625-0.015625 0.046875-0.015625 0.0625-0.0625 0.0625-0.10938 0.015625-0.10938 0-0.1875 0-0.29688v-6.875c0-0.046875 0-0.09375-0.015625-0.14062-0.03125-0.03125-0.09375-0.03125-0.14062-0.03125h-0.3125-6.7656c-0.0625 0-0.10938-0.015625-0.17188 0zm3.5469 2.2812c-0.23438 0.03125-0.45312 0.10938-0.65625 0.21875-0.14062 0.09375-0.26562 0.21875-0.375 0.35938-0.42188 0.57812-0.35938 1.4062 0.14062 1.9062 0.1875 0.1875 0.4375 0.3125 0.67188 0.375 0.15625 0.03125 0.3125 0.046875 0.46875 0.03125 0.23438-0.03125 0.45312-0.09375 0.65625-0.21875 0.15625-0.078125 0.28125-0.21875 0.39062-0.35938 0.42188-0.5625 0.35938-1.4062-0.15625-1.8906-0.1875-0.1875-0.42188-0.3125-0.67188-0.375-0.15625-0.046875-0.3125-0.046875-0.46875-0.046875zm-1.0156 1.5469c0-0.14062 0.015625-0.28125 0.046875-0.40625 0.046875-0.14062 0.10938-0.26562 0.20312-0.39062 0.375-0.46875 1.0781-0.57812 1.5781-0.20312 0.09375 0.078125 0.1875 0.17188 0.26562 0.28125 0.10938 0.15625 0.15625 0.34375 0.1875 0.53125 0.015625 0.125-0.015625 0.26562-0.046875 0.40625-0.046875 0.14062-0.10938 0.26562-0.1875 0.39062-0.39062 0.46875-1.0938 0.57812-1.5781 0.20312-0.10938-0.078125-0.20312-0.17188-0.26562-0.28125-0.10938-0.15625-0.17188-0.34375-0.20312-0.53125zm-2.2031 3.25v-6.6875h6.6875v6.6875z"/>
</g>
</defs>
<g transform="translate(-148.85 -128.52)">
<use x="148.71201" y="134.765" xlink:href="#a"/>
</g>
</svg>
