<?xml version="1.0" encoding="UTF-8"?>
<svg fill="#000000" version="1.1" viewBox="0 0 5.8594 7.1562" xmlns="http://www.w3.org/2000/svg" xmlns:xlink="http://www.w3.org/1999/xlink">
<defs>
<g id="a">
<path d="m5.0469-5.4688c0-0.40625-0.28125-0.625-0.625-0.625-0.32812 0-0.64062 0.23438-0.64062 0.625 0 0.34375 0.3125 0.64062 0.64062 0.64062 0.34375 0 0.625-0.29688 0.625-0.64062zm-2 0c0-0.40625-0.29688-0.625-0.64062-0.625-0.32812 0-0.625 0.23438-0.625 0.625 0 0.34375 0.29688 0.64062 0.625 0.64062 0.34375 0 0.64062-0.29688 0.64062-0.64062zm3.2969 2.2812v-0.65625h-5.8594v0.65625zm0 1.9844v-0.65625h-5.8594v0.65625zm-1.2969 1.625c0-0.40625-0.28125-0.625-0.625-0.625-0.32812 0-0.64062 0.21875-0.64062 0.625 0 0.32812 0.3125 0.64062 0.64062 0.64062 0.34375 0 0.625-0.3125 0.625-0.64062zm-2 0c0-0.40625-0.29688-0.625-0.64062-0.625-0.32812 0-0.625 0.21875-0.625 0.625 0 0.32812 0.29688 0.64062 0.625 0.64062 0.34375 0 0.64062-0.3125 0.64062-0.64062z"/>
</g>
</defs>
<g transform="translate(-149.2 -128.67)">
<use x="148.71201" y="134.765" xlink:href="#a"/>
</g>
</svg>
