<?xml version="1.0" encoding="UTF-8"?>
<svg fill="#000000" width="4.9417" height="8.8438" version="1.1" viewBox="0 0 4.9417 8.8437" xmlns="http://www.w3.org/2000/svg" xmlns:xlink="http://www.w3.org/1999/xlink">
<defs>
<g id="a">
<path d="m0.26562-6.8125v0.29688c0.14062 0 0.29688 0 0.4375 0.03125 0.078125 0 0.17188 0.03125 0.23438 0.09375 0.125 0.10938 0.10938 0.3125 0.10938 0.46875v7.125c0 0.078125 0 0.17188-0.046875 0.25-0.046875 0.09375-0.14062 0.125-0.25 0.14062-0.15625 0.015625-0.32812 0.015625-0.48438 0.015625v0.3125l0.4375-0.015625 0.92188-0.015625 0.89062 0.03125v-0.3125c-0.14062 0-0.29688 0-0.45312-0.015625-0.078125-0.015625-0.17188-0.015625-0.23438-0.0625-0.10938-0.10938-0.078125-0.29688-0.078125-0.4375v-1.0312c0.26562-0.015625 0.54688-0.078125 0.8125-0.125 0.34375-0.078125 0.67188-0.14062 1-0.26562 0.4375-0.15625 0.875-0.35938 1.2031-0.70312 0.64062-0.65625 0.51562-1.7031 0.0625-2.4219-0.078125-0.14062-0.1875-0.25-0.29688-0.35938-0.1875-0.1875-0.42188-0.34375-0.67188-0.45312-0.54688-0.23438-1.1719-0.20312-1.6875 0.10938-0.17188 0.09375-0.34375 0.23438-0.45312 0.39062v-3.1562zm1.4844 6.6406v-2.8438c0-0.10938-0.03125-0.21875 0-0.32812 0.015625-0.0625 0.046875-0.10938 0.078125-0.17188 0.078125-0.10938 0.17188-0.20312 0.28125-0.29688 0.3125-0.28125 0.79688-0.4375 1.2031-0.29688 0.14062 0.03125 0.28125 0.125 0.39062 0.21875 0.42188 0.375 0.60938 0.96875 0.65625 1.5156 0 0.21875 0 0.40625-0.046875 0.60938-0.0625 0.23438-0.17188 0.42188-0.32812 0.59375-0.42188 0.48438-1.0625 0.73438-1.6562 0.875-0.1875 0.0625-0.39062 0.10938-0.57812 0.125z"/>
</g>
</defs>
<g transform="translate(-148.98 -127.84)">
<use x="148.71201" y="134.765" xlink:href="#a"/>
</g>
</svg>
