<?xml version="1.0" encoding="UTF-8"?>
<svg fill="#000000" version="1.1" viewBox="0 0 6.0987 8.8449" xmlns="http://www.w3.org/2000/svg" xmlns:xlink="http://www.w3.org/1999/xlink">
<defs>
<g id="a">
<path d="m3.5625-2.2969c-0.09375 0.14062-0.15625 0.29688-0.25 0.46875-0.125 0.28125-0.28125 0.57812-0.42188 0.875l-1.2344 2.4688c-0.046875 0.09375-0.125 0.1875-0.125 0.28125 0 0.14062 0.14062 0.125 0.21875 0.125 0.03125 0 0.078125 0 0.10938-0.015625 0.09375-0.015625 0.14062-0.17188 0.1875-0.25 0.10938-0.26562 0.25-0.51562 0.375-0.78125 0.20312-0.42188 0.40625-0.82812 0.625-1.25 0.14062-0.26562 0.26562-0.53125 0.40625-0.79688 0.10938-0.26562 0.25-0.51562 0.35938-0.76562l0.10938-0.21875c0.03125-0.03125 0.046875-0.09375 0.078125-0.10938 0.03125-0.046875 0.125-0.03125 0.17188-0.03125h2.3594v2.8594c0 0.0625-0.015625 0.14062 0.015625 0.1875 0.03125 0.09375 0.14062 0.0625 0.21875 0.0625 0.046875 0 0.09375 0 0.125-0.03125s0.03125-0.09375 0.03125-0.14062v-6.0781-0.21875c0-0.046875 0-0.09375-0.03125-0.125-0.03125-0.046875-0.09375-0.046875-0.14062-0.046875-0.09375 0-0.20312 0-0.21875 0.10938-0.015625 0.078125 0 0.14062 0 0.20312v2.8125h-2.3281c0.09375-0.17188 0.1875-0.375 0.26562-0.54688 0.20312-0.39062 0.39062-0.78125 0.57812-1.1719 0.17188-0.34375 0.34375-0.6875 0.51562-1.0156 0.14062-0.29688 0.29688-0.60938 0.45312-0.90625l0.125-0.26562c0.03125-0.046875 0.0625-0.09375 0.078125-0.15625 0-0.015625 0.015625-0.03125 0-0.046875 0-0.125-0.125-0.10938-0.21875-0.10938-0.03125 0-0.09375 0-0.125 0.015625-0.078125 0.03125-0.10938 0.14062-0.14062 0.21875-0.10938 0.20312-0.1875 0.39062-0.29688 0.59375-0.23438 0.46875-0.46875 0.9375-0.6875 1.4062-0.15625 0.28125-0.3125 0.57812-0.4375 0.875-0.125 0.26562-0.26562 0.51562-0.40625 0.79688l-0.09375 0.20312c-0.03125 0.03125-0.03125 0.078125-0.078125 0.09375-0.03125 0.03125-0.125 0.015625-0.17188 0.015625h-2.5c-0.0625 0-0.14062-0.015625-0.1875 0.015625-0.0625 0.0625-0.0625 0.21875-0.03125 0.29688 0.015625 0.078125 0.09375 0.09375 0.15625 0.09375z"/>
</g>
</defs>
<g transform="translate(-149.54 -127.84)">
<use x="148.71201" y="134.765" xlink:href="#a"/>
</g>
</svg>
