<?xml version="1.0" encoding="UTF-8"?>
<svg fill="#000000" version="1.1" viewBox="0 0 7.3906 7.3906" xmlns="http://www.w3.org/2000/svg" xmlns:xlink="http://www.w3.org/1999/xlink">
<defs>
<g id="a">
<path d="m7.8906-2.5156c0-2.0469-1.6562-3.6875-3.6875-3.6875-2.0469 0-3.7031 1.6406-3.7031 3.6875s1.6562 3.7031 3.7031 3.7031c2.0312 0 3.6875-1.6562 3.6875-3.7031zm-3.3594-0.32812v-2.6875c1.4062 0.14062 2.5312 1.2812 2.6875 2.6875zm-0.65625 0h-2.7031c0.15625-1.4062 1.2812-2.5469 2.7031-2.6875zm3.3438 0.65625c-0.15625 1.4844-1.4531 2.7188-2.9688 2.7188-1.5781 0-2.9062-1.125-3.0781-2.7188z"/>
</g>
</defs>
<g transform="translate(-149.21 -128.56)">
<use x="148.71201" y="134.765" xlink:href="#a"/>
</g>
</svg>
