<?xml version="1.0" encoding="UTF-8"?>
<svg fill="#000000" version="1.1" viewBox="0 0 4.7031 8.2812" xmlns="http://www.w3.org/2000/svg" xmlns:xlink="http://www.w3.org/1999/xlink">
<defs>
<g id="a">
<path d="m4.6875 1.3594c0.32812-0.42188 0.75-0.95312 0.75-1.4219 0-0.42188-0.54688-0.51562-0.875-0.51562-0.39062 0-1.2344 0.10938-1.7969 0.10938-0.65625 0-1.1875-0.39062-1.1875-1.0781 0-1.3125 1.2188-1.7969 2.2969-1.7969v-0.21875c-0.73438-0.09375-1.5938-0.29688-1.5938-1.2031 0-1.0938 1.125-1.4375 1.9844-1.5312v-0.28125c-0.3125 0.0625-0.67188 0.10938-0.96875 0.10938-0.5 0-1.0156-0.125-1.4062-0.45312h-0.078125l-0.28125 0.46875c0.40625 0.21875 0.875 0.26562 1.3125 0.26562l0.015625 0.09375c-0.67188 0.26562-1.3594 0.8125-1.3594 1.5938 0 0.70312 0.57812 0.9375 1.0781 1.0469v0.0625c-0.9375 0.29688-1.8438 1.0625-1.8438 2.1406 0 0.79688 0.625 1.3281 1.4531 1.3281 0.28125 0 1.3281-0.15625 1.8438-0.15625 0.34375 0 0.79688 0.09375 0.79688 0.5 0 0.25-0.1875 0.54688-0.34375 0.79688z"/>
</g>
</defs>
<g transform="translate(-149.45 -127.84)">
<use x="148.71201" y="134.765" xlink:href="#a"/>
</g>
</svg>
