<?xml version="1.0" encoding="UTF-8"?>
<svg fill="#000000" version="1.1" viewBox="0 0 6.625 6.6406" xmlns="http://www.w3.org/2000/svg" xmlns:xlink="http://www.w3.org/1999/xlink">
<defs>
<g id="a">
<path d="m6.9219-2.5c0 0.75-0.26562 1.4844-0.76562 2.0469l-2.0938-5.1094c0.73438 0.046875 1.4375 0.375 1.9688 0.89062 0.57812 0.57812 0.89062 1.3594 0.89062 2.1719zm-5.3906-2.3438c-0.64062 0.625-0.98438 1.4688-0.98438 2.3438 0 0.89062 0.34375 1.7344 0.98438 2.3594 0.60938 0.625 1.4531 0.96875 2.3438 0.96875 0.875 0 1.7188-0.34375 2.3281-0.96875 0.625-0.625 0.96875-1.4688 0.96875-2.3594 0-0.875-0.34375-1.7188-0.96875-2.3438-0.60938-0.625-1.4531-0.96875-2.3281-0.96875-0.89062 0-1.7344 0.34375-2.3438 0.96875zm0.21875 4.5781 2.125-5.0938 2.0938 5.0938c-0.5625 0.54688-1.3125 0.84375-2.0938 0.84375-0.79688 0-1.5469-0.29688-2.125-0.84375zm-0.0625-4.4062c0.54688-0.51562 1.25-0.84375 1.9844-0.89062l-2.1094 5.1094c-0.48438-0.5625-0.76562-1.2969-0.76562-2.0469 0-0.8125 0.32812-1.5938 0.89062-2.1719z"/>
</g>
</defs>
<g transform="translate(-149.26 -128.95)">
<use x="148.71201" y="134.765" xlink:href="#a"/>
</g>
</svg>
