<?xml version="1.0" encoding="UTF-8"?>
<svg fill="#000000" version="1.1" viewBox="0 0 7.2969 7.3281" xmlns="http://www.w3.org/2000/svg" xmlns:xlink="http://www.w3.org/1999/xlink">
<defs>
<g id="a">
<path d="m3.9375-7.2344c-2.2969 0.046875-3.5938 1.7656-3.6406 3.75 0.03125 1.2812 0.625 2.3125 1.7656 3.0625l0.48438 0.23438 0.32812 0.125c0.35938 0.09375 0.64062 0.14062 0.875 0.15625 1.6719 0 2.9531-0.82812 3.5781-2.2812l0.20312-0.625 0.046875-0.3125 0.015625-0.79688c-0.015625-0.21875-0.09375-0.54688-0.23438-1-0.26562-0.70312-0.6875-1.2031-1.5-1.7812l-0.53125-0.26562c-0.51562-0.17188-0.96875-0.26562-1.3906-0.26562zm-0.03125 7.25c-2.0781-0.0625-3.5625-1.5938-3.5625-3.6719 0.015625-0.92188 0.4375-1.875 1.1406-2.5625 0.03125 0.015625 0.046875 0.015625 0.046875 0.046875l0.03125 0.015625 0.51562-0.40625 0.42188-0.1875h0.14062l0.51562-0.17188-0.078125 0.078125c-0.14062 0-0.39062 0.078125-0.78125 0.23438l-0.14062 0.15625-0.015625 0.03125 0.25-0.0625 0.23438 0.03125c0.10938 0.03125 0.10938 0.03125 0.17188 0.03125l0.71875-0.23438 0.09375-0.125c0-0.03125-0.03125-0.03125-0.078125-0.0625v-0.03125h0.0625l0.29688-0.29688c0.45312 0 0.875 0.078125 0.98438 0.14062l0.1875 0.25c0 0.015625-0.015625 0.046875-0.046875 0.046875l0.015625 0.078125c0.046875 0.015625 0.0625 0.046875 0.0625 0.0625v0.03125l-0.15625-0.03125-0.10938 0.14062c-0.015625-0.03125-0.015625-0.03125-0.046875-0.10938h-0.21875l0.015625 0.10938-0.078125 0.078125 0.015625 0.046875-0.046875 0.03125 0.015625 0.046875h-0.17188l-0.046875 0.17188c-0.09375 0-0.1875-0.03125-0.1875-0.078125l0.17188-0.21875v-0.03125l-0.10938-0.015625-0.17188 0.29688c0 0.015625 0 0.046875 0.015625 0.0625l0.15625 0.015625 0.015625 0.03125-0.28125 0.078125c-0.03125 0-0.03125-0.015625-0.03125-0.0625l-0.03125-0.015625c-0.03125 0-0.03125 0.03125-0.03125 0.078125l-0.046875-0.0625-0.21875-0.17188h-0.17188l-0.1875 0.046875c-0.0625 0.078125-0.10938 0.14062-0.20312 0.17188l-0.1875 0.03125c-0.09375 0.078125-0.10938 0.09375-0.14062 0.20312l0.046875 0.0625 0.0625-0.03125v0.03125l-0.125 0.015625-0.09375 0.14062h-0.125l-0.046875 0.0625-0.0625-0.015625 0.046875-0.0625 0.03125-0.20312c0.046875-0.015625 0.078125-0.0625 0.10938-0.10938l-0.09375-0.0625-0.125 0.14062-0.15625-0.015625-0.10938 0.10938 0.015625 0.078125c0.078125 0 0.10938 0.03125 0.10938 0.0625l-0.078125 0.046875 0.046875 0.046875-0.015625 0.015625c-0.046875 0-0.0625 0.015625-0.09375 0.03125v0.125c0 0.03125 0 0.0625-0.078125 0.15625l-0.10938-0.0625c-0.03125 0-0.046875-0.03125-0.046875-0.0625h-0.0625l-0.03125 0.078125-0.10938 0.10938c-0.0625 0.125-0.0625 0.14062-0.0625 0.17188l0.0625 0.046875v0.03125l0.078125 0.0625h0.09375l0.09375-0.0625 0.03125-0.078125 0.15625-0.03125 0.046875-0.078125h0.03125l0.03125 0.046875 0.15625-0.015625v0.09375l0.078125 0.1875 0.046875 0.046875v0.046875h-0.0625c-0.046875 0-0.09375 0-0.17188-0.015625v0.03125l0.14062 0.10938c0.015625 0 0.03125-0.015625 0.03125-0.03125l0.078125-0.03125 0.046875-0.078125 0.03125-0.015625 0.046875 0.015625 0.03125 0.046875v0.15625l0.078125 0.015625 0.0625-0.046875 0.03125 0.015625 0.015625-0.0625-0.046875-0.078125 0.10938-0.03125v0.17188l0.078125 0.125h0.078125c0.14062 0.046875 0.14062 0.046875 0.23438 0.046875l0.015625 0.03125-0.09375 0.21875c-0.015625 0.015625-0.015625 0.015625-0.03125 0.015625s-0.046875 0-0.078125-0.015625h-0.17188l-0.32812-0.20312h-0.078125c-0.015625 0.015625-0.03125 0.015625-0.03125 0.10938 0 0.03125-0.015625 0.03125-0.0625 0.03125l-0.10938-0.10938-0.015625-0.10938c-0.0625 0-0.125-0.03125-0.14062-0.09375l0.046875-0.09375-0.015625-0.125-0.015625-0.03125c-0.20312-0.046875-0.25-0.0625-0.46875-0.0625l-0.09375-0.078125-0.09375 0.0625-0.10938 0.015625c-0.0625 0.09375-0.10938 0.15625-0.10938 0.20312-0.15625 0-0.21875 0.03125-0.25 0.14062l-0.125 0.10938c0 0.20312-0.015625 0.28125-0.09375 0.375l-0.046875 0.15625c0.03125 0.25 0.0625 0.40625 0.10938 0.51562l0.046875 0.20312c0.046875 0.03125 0.078125 0.03125 0.15625 0.03125l0.09375 0.078125h0.1875l0.10938 0.078125 0.03125 0.14062h0.125l0.03125 0.046875c0 0.26562 0 0.26562-0.03125 0.29688l0.17188 0.23438 0.10938 0.39062-0.046875 0.046875-0.015625 0.15625 0.03125 0.09375 0.20312 0.25c0 0.078125 0.015625 0.10938 0.046875 0.125v0.0625c0.15625 0.10938 0.25 0.21875 0.28125 0.28125l0.125 0.078125 0.3125 0.03125 0.14062-0.046875c0.0625-0.09375 0.10938-0.15625 0.10938-0.20312 0.09375 0 0.10938 0 0.10938-0.0625l-0.046875-0.15625c0.046875-0.0625 0.14062-0.09375 0.25-0.10938l0.078125-0.09375-0.0625-0.26562-0.0625-0.09375c0.015625-0.0625 0.015625-0.0625-0.015625-0.14062l0.078125-0.125 0.1875-0.1875 0.17188-0.09375 0.20312-0.21875 0.09375-0.1875 0.03125-0.17188-0.078125-0.015625-0.0625 0.0625-0.3125 0.03125c-0.015625-0.015625-0.015625-0.046875-0.015625-0.0625s0-0.015625 0.015625-0.03125c0.125 0 0.85938-0.29688 0.85938-0.51562l0.078125-0.09375c0-0.03125-0.015625-0.0625-0.046875-0.09375 0-0.015625-0.046875-0.03125-0.10938-0.03125l-0.046875-0.125h0.015625l0.046875 0.046875 0.14062 0.03125c0.078125 0 0.17188-0.015625 0.34375-0.046875 0.015625 0 0.0625 0.046875 0.09375 0.125l0.15625 0.10938 0.078125-0.03125 0.03125 0.03125 0.0625 0.25 0.20312 0.34375 0.10938 0.125c0.015625-0.015625 0.03125-0.0625 0.078125-0.15625h0.015625v0.10938c0 0.10938 0.015625 0.10938 0.125 0.10938 0.015625-0.03125 0.03125-0.0625 0.03125-0.09375 0-0.046875-0.046875-0.10938-0.125-0.17188v-0.20312c0-0.0625 0-0.10938-0.015625-0.14062l0.125-0.09375 0.15625-0.3125 0.15625-0.125c0.015625 0.015625 0.046875 0.03125 0.046875 0.09375l0.125 0.078125c0 0.078125 0.03125 0.14062 0.078125 0.17188 0.046875-0.0625 0.0625-0.078125 0.078125-0.078125l0.078125 0.125 0.046875 0.3125 0.09375 0.078125 0.015625 0.14062-0.125-0.0625c-0.09375 0-0.09375 0.03125-0.09375 0.09375l0.17188 0.125 0.078125 0.1875c0.09375 0.0625 0.09375 0.0625 0.1875 0.09375l0.03125-0.21875c-0.03125-0.0625-0.078125-0.10938-0.17188-0.15625v-0.015625l0.10938 0.03125-0.03125-0.23438-0.09375-0.0625-0.09375-0.125-0.015625-0.20312 0.21875 0.10938 0.015625 0.046875c0.0625-0.125 0.09375-0.25 0.09375-0.35938-0.015625-0.14062-0.0625-0.20312-0.14062-0.20312-0.0625-0.078125-0.078125-0.09375-0.078125-0.14062l0.015625-0.125h0.0625v0.17188h0.0625v-0.21875l0.125-0.25v-0.25l-0.078125-0.28125-0.21875-0.1875-0.03125-0.1875h0.03125l0.125 0.09375 0.015625-0.15625-0.14062-0.10938-0.14062-0.25c0-0.015625 0-0.03125 0.03125-0.078125l-0.28125-0.35938-0.1875-0.17188-0.078125-0.015625-0.046875 0.046875-0.23438-0.26562 0.015625-0.09375 0.32812 0.17188 0.015625-0.03125-0.21875-0.14062-0.015625-0.046875-0.375-0.20312v-0.015625h0.03125c1.375 0.79688 1.9531 1.7344 1.9531 3.4688-0.09375 0.98438-0.46875 1.9844-1.7031 2.8125l-0.53125 0.26562c-0.34375 0.14062-0.82812 0.25-1.3906 0.25zm-1.2344-5.5156 0.0625 0.015625 0.14062-0.03125 0.078125-0.125 0.09375-0.046875-0.015625-0.09375 0.046875-0.046875h0.015625l0.125-0.0625-0.0625 0.046875-0.0625 0.09375 0.03125 0.10938-0.046875 0.03125 0.015625 0.0625-0.078125-0.015625c-0.046875 0.046875-0.078125 0.09375-0.078125 0.15625h-0.03125l-0.03125-0.046875-0.15625 0.015625zm-0.125-0.875-0.09375 0.0625-0.046875 0.125h0.17188c0.046875-0.046875 0.046875-0.078125 0.046875-0.09375-0.015625-0.015625-0.03125-0.015625-0.03125-0.09375zm0.46875 1.8125c-0.03125-0.015625-0.0625-0.046875-0.0625-0.078125 0-0.046875 0.046875-0.09375 0.125-0.14062l0.03125-0.046875c0.015625-0.015625 0.015625-0.015625 0.03125-0.015625s0.03125 0.015625 0.0625 0.125l0.14062-0.03125 0.03125 0.03125 0.14062 0.09375 0.015625 0.0625c-0.015625 0.03125-0.046875 0.046875-0.078125 0.046875-0.14062-0.015625-0.15625-0.015625-0.21875-0.078125-0.14062 0-0.14062 0-0.15625 0.03125zm-0.5-0.09375-0.10938-0.125-0.03125-0.15625h0.0625l0.03125 0.10938c0.046875 0.078125 0.09375 0.125 0.09375 0.14062zm1.4531 0.42188-0.078125-0.03125 0.015625-0.10938 0.078125-0.078125-0.17188-0.21875v-0.046875c0.078125-0.0625 0.14062-0.10938 0.1875-0.10938l0.015625 0.03125-0.0625 0.09375 0.078125 0.09375 0.015625 0.14062c0.046875 0.125 0.0625 0.1875 0.0625 0.21875zm-0.48438 1.4531-0.015625-0.03125-0.15625-0.125c-0.015625-0.10938-0.03125-0.10938-0.10938-0.21875v-0.21875l-0.078125-0.078125c-0.03125-0.078125-0.046875-0.125-0.046875-0.25h0.015625l0.10938 0.17188v0.078125l0.078125 0.0625v0.15625l0.09375 0.078125 0.03125 0.125 0.0625 0.0625 0.046875 0.1875zm0.39062 1.4375-0.078125 0.046875-0.078125 0.125h-0.046875c-0.046875 0-0.09375 0.03125-0.14062 0.09375l0.0625 0.078125-0.078125 0.078125c0 0.14062 0.03125 0.20312 0.1875 0.20312l0.09375-0.046875 0.14062-0.32812 0.046875-0.03125c0-0.125-0.03125-0.1875-0.10938-0.21875zm3.3594-1.9844v0.078125l-0.15625 0.26562v0.078125l-0.078125 0.09375 0.03125 0.20312 0.0625 0.03125 0.17188-0.10938 0.0625-0.29688-0.046875-0.14062 0.046875-0.17188zm-3.0625-0.125c-0.046875 0-0.046875 0-0.15625-0.03125-0.125-0.17188-0.15625-0.25-0.15625-0.28125l0.078125-0.015625 0.09375 0.14062 0.1875 0.078125 0.015625 0.046875z"/>
</g>
</defs>
<g transform="translate(-149.01 -127.53)">
<use x="148.71201" y="134.765" xlink:href="#a"/>
</g>
</svg>
