<?xml version="1.0" encoding="UTF-8"?>
<svg fill="#000000" version="1.1" viewBox="0 0 2.3125 9.9844" xmlns="http://www.w3.org/2000/svg" xmlns:xlink="http://www.w3.org/1999/xlink">
<defs>
<g id="a">
<path d="m3.125 2.4688c0.03125 0.03125 0.0625 0.03125 0.078125 0.03125 0.03125 0 0.0625-0.015625 0.078125-0.03125 0.015625-0.03125 0.015625-0.046875 0.015625-0.078125v-9.7656c0-0.03125 0-0.046875-0.015625-0.078125-0.03125-0.03125-0.0625-0.03125-0.09375-0.03125s-0.046875 0.015625-0.0625 0.03125c-1.5 1.1562-2.1406 3.0625-2.1406 4.9531 0 1.9062 0.64062 3.8125 2.1406 4.9688zm-0.21875-9.3906v8.8594c-1.0156-1.1875-1.3438-2.8125-1.3438-4.4375 0-1.6094 0.32812-3.2344 1.3438-4.4219z"/>
</g>
</defs>
<g transform="translate(-149.7 -127.28)">
<use x="148.71201" y="134.765" xlink:href="#a"/>
</g>
</svg>
