<?xml version="1.0" encoding="UTF-8"?>
<svg fill="#000000" version="1.1" viewBox="0 0 5.4062 6.9844" xmlns="http://www.w3.org/2000/svg" xmlns:xlink="http://www.w3.org/1999/xlink">
<defs>
<g id="a">
<path d="m5.4531-6.8594-5.0469-0.0625c-0.0625 0.5625-0.0625 1.1406-0.14062 1.7031l0.26562-0.015625 0.23438-0.64062c0.078125-0.20312 0.3125-0.28125 0.51562-0.28125h3.4375c0.1875 0 0.42188 0.10938 0.45312 0.32812l0.15625 0.60938h0.34375zm-4.2344 3.5781c0.46875-0.015625 0.9375-0.03125 1.4062-0.03125 0.54688 0 1.0781 0.015625 1.625 0.015625l0.14062-0.70312c-0.625 0.015625-1.2656 0.046875-1.8906 0.046875-0.375 0-0.75 0-1.1094-0.03125zm4.4531 1.8125h-0.25c-0.17188 0.625-0.17188 0.75-0.39062 0.75h-4c-0.15625 0-0.3125-0.10938-0.35938-0.29688l-0.14062-0.51562-0.26562 0.015625c0.046875 0.51562 0.10938 1.5 0.10938 1.5156 1.7188 0.015625 5.1406 0.0625 5.1406 0.0625z"/>
</g>
</defs>
<g transform="translate(-148.98 -127.84)">
<use x="148.71201" y="134.765" xlink:href="#a"/>
</g>
</svg>
