<?xml version="1.0" encoding="UTF-8"?>
<svg fill="#000000" version="1.1" viewBox="0 0 7.5312 7.5312" xmlns="http://www.w3.org/2000/svg" xmlns:xlink="http://www.w3.org/1999/xlink">
<defs>
<g id="a">
<path d="m4.1406 0.48438c0 0.14062 0.10938 0.23438 0.21875 0.23438 0.0625 0 0.23438-0.03125 0.57812-0.03125 1.375 0 1.7656 0.53125 1.9531 0.53125 0.14062 0 0.23438-0.10938 0.23438-0.23438 0-0.20312-0.53125-0.5625-0.53125-1.9531v-0.34375c0.125-0.015625 0.25-0.015625 0.35938-0.015625 1.3906 0 1.7656 0.53125 1.9531 0.53125 0.14062 0 0.23438-0.10938 0.23438-0.23438 0-0.1875-0.53125-0.5625-0.53125-1.9531 0-0.32812 0.03125-0.51562 0.03125-0.5625 0-0.125-0.09375-0.23438-0.23438-0.23438-0.23438 0-0.23438 0.25-0.23438 0.48438v0.0625c0 0.39062 0.03125 0.78125 0.03125 1.1875l-2.4844-2.4844 0.57812-1.2031c0.015625-0.078125 0-0.17188-0.09375-0.20312-0.0625-0.03125-0.15625 0-0.1875 0.078125l-0.51562 1.0938-1.4844-1.4688c-0.03125-0.0625-0.09375-0.078125-0.15625-0.078125-0.125 0-0.23438 0.09375-0.23438 0.23438 0 0.0625 0.03125 0.10938 0.078125 0.15625l1.5938 1.6094-1.0781 2.2969-2.2188-2.2188c-0.046875-0.03125-0.10938-0.0625-0.17188-0.0625-0.10938 0-0.21875 0.09375-0.21875 0.23438 0 0.0625 0.03125 0.10938 0.0625 0.17188l2.3281 2.3281-0.54688 1.2031c-0.03125 0.0625 0 0.15625 0.0625 0.20312 0.078125 0.03125 0.17188 0 0.20312-0.078125l0.51562-1.1094 1.625 1.625h-0.03125c-0.375 0-0.76562-0.046875-1.1406-0.046875h-0.10938c-0.21875 0-0.4375 0.015625-0.4375 0.25zm2-1.7031c0 0.39062 0.046875 0.79688 0.046875 1.1719l-1.7344-1.7344 1.0625-2.3125 2.3594 2.3594h-0.015625c-0.39062 0-0.76562-0.046875-1.1562-0.046875-0.51562 0-0.5625 0.03125-0.5625 0.5625z"/>
</g>
</defs>
<g transform="translate(-150.32 -128.45)">
<use x="148.71201" y="134.765" xlink:href="#a"/>
</g>
</svg>
