<?xml version="1.0" encoding="UTF-8"?>
<svg fill="#000000" version="1.1" viewBox="0 0 4.7969 4.7812" xmlns="http://www.w3.org/2000/svg" xmlns:xlink="http://www.w3.org/1999/xlink">
<defs>
<g id="a">
<path d="m0.82812-0.15625c0.0625 0 0.125-0.015625 0.17188-0.078125 0.53125-0.625 1.2656-0.9375 1.9844-0.9375 0.75 0 1.4844 0.3125 2 0.9375 0.046875 0.0625 0.10938 0.078125 0.17188 0.078125 0.125 0 0.23438-0.09375 0.23438-0.21875 0-0.046875-0.015625-0.10938-0.0625-0.15625-1.0938-1.2969-2.1094-2.625-2.1094-4.1875 0-0.125-0.09375-0.21875-0.23438-0.21875-0.125 0-0.21875 0.09375-0.21875 0.21875 0 1.5625-1.0156 2.8906-2.1094 4.1875-0.03125 0.046875-0.0625 0.10938-0.0625 0.15625 0 0.125 0.125 0.21875 0.23438 0.21875zm1.1406-1.2969c0.42188-0.57812 0.79688-1.2031 1.0156-1.8906 0.23438 0.6875 0.60938 1.3125 1.0469 1.8906-0.32812-0.10938-0.6875-0.17188-1.0469-0.17188-0.34375 0-0.6875 0.0625-1.0156 0.17188z"/>
</g>
</defs>
<g transform="translate(-149.31 -129.83)">
<use x="148.71201" y="134.765" xlink:href="#a"/>
</g>
</svg>
