<?xml version="1.0" encoding="UTF-8"?>
<svg fill="#000000" version="1.1" viewBox="0 0 5.7344 9.625" xmlns="http://www.w3.org/2000/svg" xmlns:xlink="http://www.w3.org/1999/xlink">
<defs>
<g id="a">
<path d="m0.875-1.4219 1.5469-0.5625v4.0156c0 0.125 0.09375 0.23438 0.23438 0.23438 0.10938 0 0.21875-0.10938 0.21875-0.23438v-4.1719l1.3281-0.48438v4.6562c0 0.125 0.10938 0.23438 0.23438 0.23438s0.23438-0.10938 0.23438-0.23438v-4.8281l1.625-0.59375c0.0625-0.03125 0.10938-0.078125 0.10938-0.14062 0-0.015625 0-0.03125-0.015625-0.0625-0.03125-0.0625-0.10938-0.10938-0.1875-0.078125l-1.5312 0.5625v-4.0156c0-0.125-0.10938-0.23438-0.23438-0.23438s-0.23438 0.10938-0.23438 0.23438v4.1719l-1.3281 0.48438v-4.6562c0-0.125-0.10938-0.23438-0.21875-0.23438-0.14062 0-0.23438 0.10938-0.23438 0.23438v4.8281l-1.6406 0.59375c-0.0625 0.03125-0.10938 0.078125-0.10938 0.14062 0 0.10938 0.10938 0.17188 0.20312 0.14062z"/>
</g>
</defs>
<g transform="translate(-149.38 -127.41)">
<use x="148.71201" y="134.765" xlink:href="#a"/>
</g>
</svg>
