<?xml version="1.0" encoding="UTF-8"?>
<svg fill="#000000" version="1.1" viewBox="0 0 7.2969 8.0312" xmlns="http://www.w3.org/2000/svg" xmlns:xlink="http://www.w3.org/1999/xlink">
<defs>
<g id="a">
<path d="m5.5156-6.1875c0.71875-0.1875 1.4062-0.48438 2.0312-0.92188 0.0625-0.03125 0.078125-0.10938 0.078125-0.17188 0-0.10938-0.09375-0.20312-0.20312-0.20312-0.03125 0-0.078125 0.015625-0.10938 0.046875-0.60938 0.42188-1.3125 0.73438-2.0469 0.90625-0.4375 0.09375-0.85938 0.14062-1.2812 0.14062-0.4375 0-0.875-0.046875-1.2969-0.14062-0.73438-0.17188-1.4375-0.48438-2.0469-0.90625-0.03125-0.03125-0.078125-0.046875-0.10938-0.046875-0.10938 0-0.20312 0.09375-0.20312 0.20312 0 0.0625 0.015625 0.14062 0.078125 0.17188 0.625 0.4375 1.3125 0.73438 2.0312 0.92188v5.4531c-0.71875 0.17188-1.4062 0.5-2.0312 0.92188-0.0625 0.046875-0.078125 0.10938-0.078125 0.15625 0 0.125 0.078125 0.20312 0.1875 0.20312 0.046875 0 0.09375-0.015625 0.125-0.03125 0.60938-0.42188 1.3125-0.73438 2.0469-0.89062 0.42188-0.10938 0.85938-0.15625 1.2969-0.15625 0.42188 0 0.84375 0.046875 1.2812 0.14062 0.73438 0.17188 1.4375 0.48438 2.0469 0.90625 0.03125 0.015625 0.078125 0.03125 0.10938 0.03125 0.125 0 0.20312-0.078125 0.20312-0.20312 0-0.046875-0.015625-0.10938-0.078125-0.15625-0.625-0.42188-1.3125-0.75-2.0312-0.92188zm-0.40625 0.09375v5.2656c-0.375-0.0625-0.75-0.09375-1.125-0.09375-0.39062 0-0.78125 0.03125-1.1406 0.09375v-5.2656c0.35938 0.078125 0.75 0.10938 1.1406 0.10938 0.375 0 0.75-0.03125 1.125-0.10938z"/>
</g>
</defs>
<g transform="translate(-149.04 -127.28)">
<use x="148.71201" y="134.765" xlink:href="#a"/>
</g>
</svg>
