<?xml version="1.0" encoding="UTF-8"?>
<svg fill="#000000" version="1.1" viewBox="0 0 8.4062 6.8125" xmlns="http://www.w3.org/2000/svg" xmlns:xlink="http://www.w3.org/1999/xlink">
<defs>
<g id="a">
<path d="m4.1406-3.125v2.375c0 0.4375-0.10938 0.4375-0.76562 0.4375v0.3125h4.9219l0.42188-2.5781h-0.25c-0.25 1.4844-0.39062 2.2656-2.0625 2.2656h-0.9375c-0.46875 0-0.5-0.0625-0.5-0.39062v-2.4219h0.85938c0.9375 0 1.0156 0.32812 1.0156 1.1719h0.25v-2.6406h-0.25c0 0.82812-0.078125 1.1719-1.0156 1.1719h-0.85938v-2.6719c0-0.34375 0.03125-0.40625 0.5-0.40625h0.9375c1.4219 0 1.625 0.57812 1.7812 1.9375h0.25l-0.28125-2.25h-5.5781v0.3125h0.4375c0.14062 0 0.28125 0.015625 0.40625 0.015625l-1.9688 5.5c-0.14062 0.39062-0.4375 0.67188-1.1406 0.67188v0.3125c0.21875-0.015625 0.625-0.03125 1.0156-0.03125 0.3125 0 0.82812 0.015625 1.1562 0.03125v-0.3125c-0.5 0-0.73438-0.25-0.73438-0.5 0-0.078125 0-0.078125 0.046875-0.21875l0.75-2.0938zm0-0.29688h-1.4844l1.0781-3.0312c0.40625 0 0.40625 0.26562 0.40625 0.4375z"/>
</g>
</defs>
<g transform="translate(-149.02 -127.95)">
<use x="148.71201" y="134.765" xlink:href="#a"/>
</g>
</svg>
