<?xml version="1.0" encoding="UTF-8"?>
<svg fill="#000000" version="1.1" viewBox="0 0 6.8594 6.375" xmlns="http://www.w3.org/2000/svg" xmlns:xlink="http://www.w3.org/1999/xlink">
<defs>
<g id="a">
<path d="m5.9844 0.64062c0.10938 0 0.78125-0.32812 1.6094-0.32812 0.29688 0 0.57812 0.046875 0.875 0.15625 0.03125 0.015625 0.046875 0.015625 0.078125 0.015625 0.14062 0 0.21875-0.10938 0.21875-0.23438 0-0.29688-0.79688-0.40625-1.1406-2.3438-0.015625-0.10938-0.10938-0.1875-0.21875-0.1875-0.14062 0-0.23438 0.10938-0.23438 0.23438 0 0.20312 0.25 0.9375 0.35938 1.2188-0.6875-0.39062-1.2344-0.15625-1.6562-0.48438-0.26562-0.23438-0.29688-0.625-0.29688-1.1875l1.8906-0.875c0.078125-0.03125 0.10938-0.125 0.0625-0.1875-0.03125-0.09375-0.10938-0.10938-0.1875-0.09375l-1.7656 0.82812c-0.015625-0.40625-0.078125-0.95312-0.48438-1.2969-0.625-0.51562-1.1875-0.09375-1.9844-0.73438 0.54688-0.1875 1.1406-0.23438 1.6719-0.4375 0.10938-0.03125 0.15625-0.10938 0.15625-0.21875 0-0.14062-0.10938-0.21875-0.23438-0.21875s-0.78125 0.32812-1.6094 0.32812c-0.29688 0-0.59375-0.046875-0.875-0.15625-0.03125-0.015625-0.0625-0.015625-0.078125-0.015625-0.14062 0-0.23438 0.10938-0.23438 0.23438 0 0.29688 0.8125 0.40625 1.1406 2.3438 0.03125 0.10938 0.125 0.1875 0.23438 0.1875 0.14062 0 0.23438-0.10938 0.23438-0.23438 0-0.20312-0.26562-0.9375-0.35938-1.2188 0.6875 0.39062 1.2344 0.15625 1.6406 0.48438 0.28125 0.23438 0.3125 0.625 0.3125 1.1719l-1.8906 0.89062c-0.078125 0.03125-0.10938 0.125-0.078125 0.1875 0.046875 0.078125 0.125 0.10938 0.20312 0.078125l1.7656-0.8125c0.015625 0.40625 0.078125 0.95312 0.48438 1.2969 0.60938 0.51562 1.1719 0.09375 1.9844 0.73438-0.54688 0.1875-1.1406 0.23438-1.6719 0.4375-0.10938 0.03125-0.17188 0.10938-0.17188 0.21875 0 0.14062 0.125 0.21875 0.25 0.21875z"/>
</g>
</defs>
<g transform="translate(-150.62 -129.03)">
<use x="148.71201" y="134.765" xlink:href="#a"/>
</g>
</svg>
