<?xml version="1.0" encoding="UTF-8"?>
<svg fill="#000000" width="4.5938" height="8.0938" version="1.1" viewBox="0 0 4.5938 8.0937" xmlns="http://www.w3.org/2000/svg" xmlns:xlink="http://www.w3.org/1999/xlink">
<defs>
<g id="a">
<path d="m3.6719 1.5c0.53125 0 0.95312-0.4375 0.95312-0.9375 0-0.125-0.09375-0.23438-0.23438-0.23438-0.125 0-0.21875 0.10938-0.21875 0.23438 0 0.28125-0.23438 0.48438-0.5 0.48438s-0.46875-0.23438-0.46875-0.48438v-2.3125l1.9531-0.71875c0.0625-0.03125 0.10938-0.078125 0.10938-0.14062 0-0.10938-0.10938-0.1875-0.21875-0.14062l-1.8438 0.67188v-3.0625c0.45312 0.45312 0.96875 1.1406 1.1875 1.1406 0.14062 0 0.23438-0.10938 0.23438-0.23438 0-0.0625-0.03125-0.125-0.078125-0.17188-0.64062-0.53125-1.2031-1.1875-1.3438-2-0.015625-0.10938-0.125-0.1875-0.23438-0.1875s-0.20312 0.078125-0.23438 0.1875c-0.125 0.8125-0.70312 1.4688-1.3438 2-0.046875 0.046875-0.078125 0.10938-0.078125 0.17188 0 0.125 0.09375 0.23438 0.23438 0.23438 0.23438 0 0.71875-0.67188 1.1875-1.1406v3.2344l-1.9531 0.70312c-0.0625 0.03125-0.10938 0.09375-0.10938 0.14062 0 0.10938 0.10938 0.1875 0.20312 0.14062l1.8594-0.67188v2.1562c0 0.53125 0.45312 0.9375 0.9375 0.9375z"/>
</g>
</defs>
<g transform="translate(-149.38 -128.17)">
<use x="148.71201" y="134.765" xlink:href="#a"/>
</g>
</svg>
