<?xml version="1.0" encoding="UTF-8"?>
<svg fill="#000000" version="1.1" viewBox="0 0 7.9531 9.0781" xmlns="http://www.w3.org/2000/svg" xmlns:xlink="http://www.w3.org/1999/xlink">
<defs>
<g id="a">
<path d="m4.0938-5.0781c0.35938-0.54688 0.82812-1.2344 1.5938-1.2344 0.46875 0 0.60938 0.26562 0.625 0.79688 0.03125 0.51562 0.20312 0.8125 0.5625 0.89062-0.375 0.3125-0.875 0.71875-0.875 1.1719 0 0.6875 0.98438 1.4219 0.98438 2.0781 0 0.48438-0.375 0.75-0.8125 0.75-0.40625 0-0.64062-0.125-2.0781-0.59375zm-0.125-0.3125c-0.23438-0.67188-0.84375-1.4375-1.5781-1.4375-0.9375 0-1.5781 0.625-1.8281 0.85938-0.26562 0.28125-0.5 0.57812-0.5 0.96875 0 0.53125 0.40625 0.89062 0.71875 1.3281 0.0625 0.078125 0.125 0.17188 0.125 0.26562 0 0.32812-0.32812 0.64062-0.64062 0.8125l0.15625 0.10938c0.57812-0.29688 1.2188-0.70312 1.2188-1.3281s-0.9375-1.0312-0.9375-1.6875c0-0.5 0.4375-0.70312 1.0156-0.70312 1 0 1.5781 1.125 1.5781 2.25v2.5c-0.17188-0.046875-0.34375-0.078125-0.46875-0.078125-0.85938 0-1.3125 0.79688-1.6562 1.4844l0.10938 0.20312c0.3125-0.42188 0.65625-0.95312 1.2188-0.95312 0.17188 0 0.46875 0.0625 0.79688 0.17188 0 0.90625-0.0625 2.1875-0.26562 2.7031l0.20312 0.10938c0.32812-0.23438 0.90625-0.65625 0.96875-0.70312-0.09375-0.60938-0.10938-1.2344-0.10938-1.8594l1.1719 0.42188c0.09375 0.03125 0.20312 0.0625 0.3125 0.0625 0.96875 0 1.9062-1.1719 1.9062-2.2344 0-0.75-0.75-1.25-0.75-1.8594 0-0.40625 0.78125-0.95312 1.2812-1.2188l-0.046875-0.15625c-0.125 0.03125-0.25 0.078125-0.375 0.078125-0.78125 0-0.09375-1.6094-1.2188-1.6094-0.9375 0-1.9219 0.79688-2.4062 1.5z"/>
</g>
</defs>
<g transform="translate(-148.77 -127.87)">
<use x="148.71201" y="134.765" xlink:href="#a"/>
</g>
</svg>
