<?xml version="1.0" encoding="UTF-8"?>
<svg fill="#000000" version="1.1" viewBox="0 0 5.2031 7.2656" xmlns="http://www.w3.org/2000/svg" xmlns:xlink="http://www.w3.org/1999/xlink">
<defs>
<g id="a">
<path d="m4.9375-1.5625c0-0.0625-0.046875-0.078125-0.09375-0.078125-0.17188 0-0.40625 0.15625-0.42188 0.15625-0.1875 0.125-0.23438 0.20312-0.35938 0.375-0.29688 0.46875-0.75 0.79688-1.3906 0.79688-0.89062 0-1.7031-0.64062-1.7031-2.1406 0-0.89062 0.35938-2.0781 0.89062-2.875 0.4375-0.64062 0.96875-1.1562 2-1.1562 0.375 0 0.60938 0.14062 0.60938 0.51562 0 0.34375-0.35938 1.0469-0.48438 1.25-0.0625 0.10938-0.0625 0.14062-0.0625 0.15625 0 0.0625 0.0625 0.0625 0.10938 0.0625 0.20312 0 0.57812-0.21875 0.6875-0.375 0.03125-0.046875 0.60938-1.0156 0.60938-1.5312 0-0.54688-0.45312-0.625-0.8125-0.625-1.4375 0-2.625 0.95312-3.0938 1.5156-1.1875 1.4219-1.2969 2.9688-1.2969 3.4844 0 1.4688 0.73438 2.2656 1.8906 2.2656 1.6094 0 2.9219-1.5469 2.9219-1.7969z"/>
</g>
</defs>
<g transform="translate(-148.84 -127.73)">
<use x="148.71201" y="134.765" xlink:href="#a"/>
</g>
</svg>
