<?xml version="1.0" encoding="UTF-8"?>
<svg fill="#000000" version="1.1" viewBox="0 0 10.172 10.188" xmlns="http://www.w3.org/2000/svg" xmlns:xlink="http://www.w3.org/1999/xlink">
<defs>
<g id="a">
<path d="m10.703 4.4375c0-2.8281-2.2656-5.0938-5.0938-5.0938-2.8125 0-5.0781 2.2656-5.0781 5.0938 0 2.8125 2.2812 5.0938 5.0781 5.0938 2.8281 0 5.0938-2.2812 5.0938-5.0938zm-5.0938-0.46875-2.7812-2.7969c0.73438-0.64062 1.7188-1.0312 2.7812-1.0312s2.0312 0.39062 2.7969 1.0312zm0.46875 0.46875 2.7812-2.7969c0.65625 0.76562 1.0469 1.7344 1.0469 2.7969s-0.39062 2.0312-1.0469 2.7812zm-0.9375 0-2.7812 2.7812c-0.64062-0.75-1.0312-1.7188-1.0312-2.7812s0.39062-2.0312 1.0312-2.7969zm3.2656 3.2656c-0.76562 0.64062-1.7344 1.0312-2.7969 1.0312s-2.0469-0.39062-2.7812-1.0312l2.7812-2.7969z"/>
</g>
</defs>
<g transform="translate(-149.24 -127.17)">
<use x="148.71201" y="127.823" xlink:href="#a"/>
</g>
</svg>
