<?xml version="1.0" encoding="UTF-8"?>
<svg fill="#000000" version="1.1" viewBox="0 0 6.2344 7.2656" xmlns="http://www.w3.org/2000/svg" xmlns:xlink="http://www.w3.org/1999/xlink">
<defs>
<g id="a">
<path d="m2.6875-0.85938c0.15625-1.2188 0.15625-2.125 0.15625-2.2656 0-0.71875 0-3.6875-1.8125-3.6875-0.34375 0-0.6875 0.28125-0.6875 0.42188 0 0.078125 0.046875 0.078125 0.1875 0.078125 1.4531 0.125 1.5781 2.4219 1.5781 3.5469 0 1-0.14062 2.2031-0.25 2.8594-0.03125 0.125-0.03125 0.14062-0.03125 0.1875s0 0.17188 0.078125 0.17188c0.10938 0 2.5156-1.8438 3.7812-3.7656 0.51562-0.78125 0.89062-1.6719 0.89062-2.3438 0-0.84375-0.5625-1.1562-0.96875-1.1562-0.28125 0-0.42188 0.625-0.42188 0.76562s0.046875 0.14062 0.17188 0.15625c0.65625 0.078125 0.78125 0.60938 0.78125 0.84375 0 0.8125-1.7344 2.8594-3.4531 4.1875z"/>
</g>
</defs>
<g transform="translate(-149.06 -127.95)">
<use x="148.71201" y="134.765" xlink:href="#a"/>
</g>
</svg>
