<?xml version="1.0" encoding="UTF-8"?>
<svg fill="#000000" version="1.1" viewBox="0 0 3.5856 6.3492" xmlns="http://www.w3.org/2000/svg" xmlns:xlink="http://www.w3.org/1999/xlink">
<defs>
<g id="a">
<path d="m2.2969-1.8594c-0.4375 0.046875-0.85938 0.23438-1.1875 0.53125-0.625 0.57812-0.90625 1.5625-0.51562 2.3438 0.09375 0.1875 0.21875 0.34375 0.35938 0.48438 0.17188 0.17188 0.375 0.29688 0.59375 0.39062 0.6875 0.28125 1.6094 0.15625 2.125-0.40625 0.20312-0.20312 0.32812-0.5 0.32812-0.78125 0-0.25-0.14062-0.45312-0.39062-0.5-0.15625-0.015625-0.3125 0.03125-0.42188 0.15625-0.17188 0.20312-0.14062 0.53125 0.078125 0.67188 0.078125 0.078125 0.20312 0.09375 0.3125 0.09375-0.09375 0.14062-0.1875 0.26562-0.3125 0.375-0.46875 0.35938-1.2344 0.46875-1.6719 0-0.23438-0.28125-0.3125-0.60938-0.32812-0.96875-0.015625-0.20312-0.015625-0.40625 0.015625-0.60938s0.0625-0.40625 0.17188-0.5625c0.23438-0.42188 0.70312-0.60938 1.1562-0.65625 0.0625-0.015625 0.125-0.015625 0.1875-0.015625 0.046875 0 0.09375 0.015625 0.14062 0 0.046875 0 0.09375-0.046875 0.078125-0.10938 0-0.078125-0.09375-0.14062-0.14062-0.20312-0.14062-0.15625-0.26562-0.28125-0.40625-0.4375-0.51562-0.5625-1.0156-1.1094-1.5469-1.6562 0.5625 0 1.125-0.015625 1.6875 0.015625 0.25 0 0.5625 0.015625 0.76562 0.17188 0.28125 0.1875 0.35938 0.57812 0.375 0.89062h0.25l-0.03125-0.42188-0.078125-1.25h-3.2188c-0.0625 0-0.17188-0.015625-0.21875 0.0625-0.03125 0.046875-0.015625 0.125-0.015625 0.17188 0 0.0625-0.015625 0.14062 0.015625 0.20312s0.078125 0.10938 0.10938 0.15625c0.078125 0.0625 0.14062 0.14062 0.20312 0.20312 0.29688 0.32812 0.59375 0.64062 0.90625 0.96875 0.20312 0.21875 0.40625 0.46875 0.625 0.6875z"/>
</g>
</defs>
<g transform="translate(-149.13 -130.45)">
<use x="148.71201" y="134.765" xlink:href="#a"/>
</g>
</svg>
