<?xml version="1.0" encoding="UTF-8"?>
<svg fill="#000000" version="1.1" viewBox="0 0 8.981 6.3971" xmlns="http://www.w3.org/2000/svg" xmlns:xlink="http://www.w3.org/1999/xlink">
<defs>
<g id="a">
<path d="m1.8906-3.9219c0.10938-0.0625 0.20312-0.10938 0.3125-0.17188 0.15625-0.078125 0.3125-0.15625 0.46875-0.25 0.65625-0.29688 1.3438-0.54688 2.0625-0.67188 0.90625-0.15625 1.8594-0.23438 2.7188 0.1875 0.92188 0.4375 1.625 1.375 1.5625 2.4219-0.03125 0.26562-0.078125 0.54688-0.1875 0.79688-0.09375 0.25-0.23438 0.48438-0.40625 0.6875-0.14062 0.17188-0.29688 0.32812-0.48438 0.45312-0.40625 0.3125-0.875 0.5-1.375 0.57812-0.54688 0.0625-1.125 0.015625-1.6562-0.0625-0.4375-0.078125-0.875-0.1875-1.2812-0.34375-0.25-0.078125-0.5-0.17188-0.75-0.28125-0.32812-0.15625-0.65625-0.3125-0.96875-0.5-0.25-0.14062-0.5-0.29688-0.73438-0.45312-0.17188-0.10938-0.32812-0.21875-0.48438-0.34375h-0.015625l-0.23438 0.3125c0.15625 0.14062 0.34375 0.25 0.51562 0.35938 0.26562 0.20312 0.54688 0.35938 0.82812 0.53125 0.34375 0.1875 0.6875 0.35938 1.0469 0.51562 0.85938 0.35938 1.7969 0.60938 2.7344 0.67188 0.29688 0.015625 0.5625 0.03125 0.85938 0.015625 0.71875-0.078125 1.4062-0.35938 1.9688-0.82812 0.1875-0.17188 0.375-0.375 0.51562-0.59375 0.21875-0.3125 0.35938-0.65625 0.4375-1.0156 0.0625-0.25 0.09375-0.53125 0.0625-0.78125-0.03125-0.34375-0.10938-0.67188-0.25-0.98438-0.46875-1.0156-1.4844-1.6875-2.5625-1.8438-0.45312-0.0625-0.90625-0.03125-1.3438 0.015625-0.84375 0.09375-1.6562 0.32812-2.4219 0.65625-0.40625 0.17188-0.78125 0.375-1.1562 0.57812 0.046875-0.21875 0.09375-0.45312 0.125-0.67188 0.03125-0.1875 0.046875-0.35938 0.0625-0.5625 0.015625-0.078125 0.046875-0.1875 0.03125-0.26562-0.015625-0.0625-0.0625-0.09375-0.125-0.09375-0.078125 0.015625-0.1875 0.078125-0.21875 0.14062-0.046875 0.0625-0.0625 0.14062-0.078125 0.21875-0.046875 0.125-0.09375 0.26562-0.14062 0.39062-0.125 0.39062-0.28125 0.76562-0.46875 1.125-0.078125 0.17188-0.17188 0.32812-0.26562 0.48438-0.03125 0.0625-0.078125 0.14062-0.03125 0.20312s0.14062 0.046875 0.21875 0.03125c0.17188 0 0.35938-0.015625 0.54688-0.03125 0.39062 0 0.79688 0.03125 1.1875 0.078125 0.125 0.015625 0.25 0.03125 0.375 0.0625 0.0625 0 0.125 0.03125 0.1875 0.03125 0.078125 0 0.1875-0.078125 0.23438-0.14062 0.046875-0.03125 0.046875-0.09375 0-0.14062-0.03125-0.03125-0.09375-0.046875-0.14062-0.078125-0.09375-0.03125-0.20312-0.078125-0.29688-0.10938-0.125-0.046875-0.25-0.09375-0.35938-0.14062l-0.32812-0.09375c-0.09375-0.046875-0.1875-0.078125-0.29688-0.09375z"/>
</g>
</defs>
<g transform="translate(-149.15 -128.91)">
<use x="148.71201" y="134.765" xlink:href="#a"/>
</g>
</svg>
