<?xml version="1.0" encoding="UTF-8"?>
<svg fill="#000000" width="4.8281" height="6.3438" version="1.1" viewBox="0 0 4.8281 6.3437" xmlns="http://www.w3.org/2000/svg" xmlns:xlink="http://www.w3.org/1999/xlink">
<defs>
<g id="a">
<path d="m0.17188-4.2969v0.3125c0.17188 0 0.35938 0 0.51562 0.078125 0.23438 0.125 0.375 0.375 0.51562 0.5625 0.26562 0.35938 0.51562 0.71875 0.76562 1.0781 0.10938 0.15625 0.23438 0.32812 0.35938 0.5 0.03125 0.046875 0.0625 0.09375 0.09375 0.125 0.015625 0.03125 0.03125 0.046875 0.015625 0.078125 0 0.046875-0.0625 0.09375-0.10938 0.125l-0.32812 0.28125c-0.45312 0.40625-0.96875 0.84375-1.6094 0.84375v0.3125l0.89062-0.03125 0.92188 0.03125v-0.3125c-0.046875 0-0.09375 0-0.125-0.03125-0.03125 0-0.0625-0.03125-0.078125-0.046875-0.17188-0.14062-0.03125-0.35938 0.078125-0.48438 0.15625-0.15625 0.3125-0.28125 0.46875-0.40625 0.32812-0.29688 0.67188-0.57812 1-0.875v4.2031l1.4531-0.10938v-0.3125c-0.17188 0-0.32812 0-0.46875-0.03125-0.10938-0.015625-0.21875-0.0625-0.26562-0.17188-0.0625-0.14062-0.046875-0.3125-0.046875-0.4375v-4.3906c0-0.125-0.03125-0.29688 0.03125-0.42188 0.0625-0.09375 0.15625-0.125 0.25-0.14062 0.17188-0.015625 0.32812-0.015625 0.5-0.015625v-0.3125l-0.4375 0.015625-0.89062 0.015625-0.875-0.03125v0.3125c0.15625 0 0.3125 0 0.46875 0.015625 0.078125 0.015625 0.15625 0.015625 0.21875 0.078125 0.09375 0.078125 0.09375 0.20312 0.09375 0.32812v0.92188c0 0.03125 0 0.078125-0.015625 0.125-0.03125 0.078125-0.14062 0.125-0.1875 0.1875-0.14062 0.10938-0.29688 0.23438-0.4375 0.35938-0.078125-0.15625-0.20312-0.29688-0.3125-0.4375-0.23438-0.34375-0.48438-0.6875-0.71875-1.0156-0.09375-0.14062-0.23438-0.39062-0.03125-0.51562 0.03125-0.015625 0.0625-0.03125 0.09375-0.03125 0.046875-0.015625 0.10938-0.015625 0.15625-0.015625v-0.3125l-0.875 0.03125-0.75-0.015625z"/>
</g>
</defs>
<g transform="translate(-148.88 -130.47)">
<use x="148.71201" y="134.765" xlink:href="#a"/>
</g>
</svg>
