<?xml version="1.0" encoding="UTF-8"?>
<svg fill="#000000" version="1.1" viewBox="0 0 6.0944 5.0258" xmlns="http://www.w3.org/2000/svg" xmlns:xlink="http://www.w3.org/1999/xlink">
<defs>
<g id="a">
<path d="m6.0469-2.5156v0.015625c-0.09375 0.03125-0.1875 0.078125-0.28125 0.10938-0.15625 0.0625-0.32812 0.14062-0.48438 0.20312-0.42188 0.1875-0.85938 0.35938-1.2969 0.53125-0.46875 0.1875-0.92188 0.375-1.3906 0.5625-0.54688 0.23438-1.1094 0.45312-1.6562 0.6875-0.125 0.046875-0.10938 0.14062-0.10938 0.25 0 0.0625 0 0.125 0.0625 0.15625 0.09375 0.046875 0.23438-0.046875 0.3125-0.078125 0.28125-0.10938 0.54688-0.23438 0.82812-0.34375 1.1562-0.45312 2.2812-0.9375 3.4375-1.4062 0.375-0.14062 0.73438-0.3125 1.125-0.45312 0.078125-0.046875 0.17188-0.078125 0.25-0.10938 0.046875-0.03125 0.078125-0.0625 0.078125-0.10938s-0.03125-0.09375-0.078125-0.10938c-0.078125-0.046875-0.17188-0.078125-0.26562-0.10938-0.375-0.15625-0.75-0.3125-1.1094-0.46875-1.1562-0.45312-2.2812-0.9375-3.4375-1.3906-0.28125-0.10938-0.54688-0.23438-0.82812-0.34375-0.078125-0.03125-0.21875-0.125-0.3125-0.078125-0.0625 0.03125-0.0625 0.078125-0.0625 0.14062 0 0.10938-0.015625 0.21875 0.10938 0.26562 0.54688 0.23438 1.1094 0.45312 1.6562 0.67188 0.46875 0.1875 0.92188 0.39062 1.3906 0.57812 0.4375 0.17188 0.875 0.34375 1.2969 0.51562 0.15625 0.078125 0.32812 0.14062 0.48438 0.21875 0.09375 0.03125 0.1875 0.0625 0.28125 0.09375zm-4.2031-0.5c-0.078125 0-0.15625 0.03125-0.21875 0.078125-0.3125 0.20312-0.3125 0.65625-0.015625 0.875 0.0625 0.03125 0.125 0.0625 0.1875 0.078125s0.125 0.015625 0.1875 0c0.078125-0.015625 0.15625-0.03125 0.21875-0.078125 0.3125-0.20312 0.3125-0.65625 0.015625-0.875-0.0625-0.03125-0.125-0.0625-0.1875-0.078125s-0.125-0.015625-0.1875 0z"/>
</g>
</defs>
<g transform="translate(-149.54 -129.75)">
<use x="148.71201" y="134.765" xlink:href="#a"/>
</g>
</svg>
