<?xml version="1.0" encoding="UTF-8"?>
<svg fill="#000000" version="1.1" viewBox="0 0 6.625 5.4531" xmlns="http://www.w3.org/2000/svg" xmlns:xlink="http://www.w3.org/1999/xlink">
<defs>
<g id="a">
<path d="m5.6094-2.8281c-0.20312-0.09375-0.35938-0.26562-0.35938-0.40625 0-0.29688 0.1875-0.4375 0.46875-0.4375 0.42188 0 0.64062 0.23438 0.70312 0.79688h0.1875v-0.89062h-0.125c-0.046875 0.0625-0.078125 0.0625-0.10938 0.0625-0.21875 0-0.29688-0.1875-0.64062-0.1875-0.51562 0-0.90625 0.34375-0.90625 0.8125 0 0.32812 0.25 0.53125 0.73438 0.8125l0.34375 0.1875c0.23438 0.14062 0.34375 0.29688 0.34375 0.51562 0 0.20312-0.17188 0.42188-0.51562 0.42188-0.45312 0-0.64062-0.21875-0.79688-0.76562h-0.1875v0.92188h0.17188c0.046875-0.0625 0.078125-0.125 0.17188-0.125 0.15625 0 0.25 0.17188 0.75 0.17188 0.51562 0 0.89062-0.39062 0.89062-0.8125 0-0.39062-0.21875-0.59375-0.65625-0.82812zm0.6875 2.8281v-0.65625h-4.6094l4.3438-4.3438-0.48438-0.45312-5.4375 5.4531z"/>
</g>
</defs>
<g transform="translate(-148.82 -129.31)">
<use x="148.71201" y="134.765" xlink:href="#a"/>
</g>
</svg>
