<?xml version="1.0" encoding="UTF-8"?>
<svg fill="#000000" version="1.1" viewBox="0 0 4.1562 7.5" xmlns="http://www.w3.org/2000/svg" xmlns:xlink="http://www.w3.org/1999/xlink">
<defs>
<g id="a">
<path d="m1.6875 1.6875c-0.03125-0.6875-0.046875-1.375-0.046875-2.0625 0.40625 0.078125 0.76562 0.29688 1.0781 0.54688l1.3438-1.0625c0.21875-0.59375 0.21875-1.3125 0.21875-1.9219 0-0.4375-0.015625-0.875-0.046875-1.3125-0.42188-0.15625-0.82812-0.35938-1.1719-0.64062-0.46875 0.375-0.92188 0.73438-1.4219 1.0625 0.015625-0.125 0.03125-0.32812 0.03125-0.34375-0.21875-0.21875-0.46875-0.51562-0.46875-0.8125 0-0.15625 0.078125-0.29688 0.1875-0.42188l-0.14062-0.078125c-0.29688 0.28125-0.82812 0.85938-0.82812 1.1562 0 0.09375 0.10938 0.21875 0.45312 0.6875v2.4688c-0.14062 0.09375-0.5 0.4375-0.75 0.67188l0.10938 0.14062c0.17188-0.17188 0.40625-0.23438 0.64062-0.23438 0 0.54688-0.0625 1.7031-0.09375 2.5312l0.10938 0.078125zm-0.03125-5.1406c0.26562-0.17188 0.51562-0.32812 0.8125-0.4375 0.29688 0.09375 0.70312 0.23438 0.95312 0.375 0.03125 0.40625 0.0625 0.8125 0.0625 1.2188 0 0.95312-0.10938 1.4844-0.26562 1.7812-0.48438-0.23438-1.1719-0.54688-1.5625-0.54688z"/>
</g>
</defs>
<g transform="translate(-148.84 -129.41)">
<use x="148.71201" y="134.765" xlink:href="#a"/>
</g>
</svg>
