<?xml version="1.0" encoding="UTF-8"?>
<svg fill="#000000" version="1.1" viewBox="0 0 5.7969 5.7812" xmlns="http://www.w3.org/2000/svg" xmlns:xlink="http://www.w3.org/1999/xlink">
<defs>
<g id="a">
<path d="m4.7812-2.5469c0-0.75-0.60938-1.2969-1.2969-1.2969-0.75 0-1.2969 0.60938-1.2969 1.2969 0 0.75 0.60938 1.2969 1.2969 1.2969 0.75 0 1.2969-0.60938 1.2969-1.2969zm-1.2969 0.84375c-0.46875 0-0.82812-0.40625-0.82812-0.84375 0-0.46875 0.39062-0.84375 0.82812-0.84375 0.46875 0 0.84375 0.40625 0.84375 0.84375 0 0.46875-0.39062 0.84375-0.84375 0.84375zm2.9062-0.84375c0-1.6562-1.3594-2.8906-2.9062-2.8906-1.6562 0-2.8906 1.3438-2.8906 2.8906 0 1.6562 1.3438 2.8906 2.8906 2.8906 1.6562 0 2.9062-1.3438 2.9062-2.8906zm-2.9062 2.4375c-1.375 0-2.4375-1.1406-2.4375-2.4375 0-1.375 1.1406-2.4375 2.4375-2.4375 1.3906 0 2.4531 1.1406 2.4531 2.4375 0 1.375-1.1406 2.4375-2.4531 2.4375z"/>
</g>
</defs>
<g transform="translate(-149.31 -129.33)">
<use x="148.71201" y="134.765" xlink:href="#a"/>
</g>
</svg>
