<?xml version="1.0" encoding="UTF-8"?>
<svg fill="#000000" version="1.1" viewBox="0 0 3.9375 6.2969" xmlns="http://www.w3.org/2000/svg" xmlns:xlink="http://www.w3.org/1999/xlink">
<defs>
<g id="a">
<path d="m2.25-6.0781c0 0.25 0.21875 0.45312 0.46875 0.45312 0.23438 0 0.42188-0.20312 0.42188-0.45312s-0.17188-0.45312-0.42188-0.45312-0.46875 0.21875-0.46875 0.45312zm-1.25 4.8281c0.15625 0 1.2656-0.6875 1.4688-0.79688v1.5469c0 0.125 0.10938 0.26562 0.25 0.26562 0.125 0 0.25-0.125 0.25-0.26562v-1.5469c0.21875 0.10938 1.2812 0.79688 1.4531 0.79688 0.14062 0 0.26562-0.078125 0.26562-0.25 0-0.078125-0.046875-0.17188-0.125-0.21875-0.42188-0.28125-0.89062-0.51562-1.3281-0.78125l1.3281-0.75c0.078125-0.046875 0.125-0.15625 0.125-0.23438 0-0.15625-0.125-0.25-0.26562-0.25-0.17188 0-1.2344 0.6875-1.4531 0.79688v-1.5312c0-0.14062-0.125-0.26562-0.25-0.26562-0.14062 0-0.25 0.125-0.25 0.26562v1.5312c-0.21875-0.125-1.2812-0.79688-1.4688-0.79688-0.125 0-0.25 0.09375-0.25 0.25 0 0.078125 0.03125 0.1875 0.125 0.23438 0.4375 0.26562 0.89062 0.51562 1.3438 0.75l-1.3438 0.78125c-0.09375 0.03125-0.125 0.14062-0.125 0.21875 0 0.15625 0.10938 0.25 0.25 0.25z"/>
</g>
</defs>
<g transform="translate(-149.46 -128.23)">
<use x="148.71201" y="134.765" xlink:href="#a"/>
</g>
</svg>
