<?xml version="1.0" encoding="UTF-8"?>
<svg fill="#000000" version="1.1" viewBox="0 0 6.6458 8.8455" xmlns="http://www.w3.org/2000/svg" xmlns:xlink="http://www.w3.org/1999/xlink">
<defs>
<g id="a">
<path d="m3.2969-5.8281h-2.5625c-0.0625 0-0.14062 0-0.17188 0.09375-0.015625 0.078125-0.03125 0.23438 0.046875 0.28125 0.046875 0.03125 0.125 0.015625 0.17188 0.015625h2.5156v1.1719h-1.875-0.4375c-0.0625 0-0.125 0.015625-0.14062 0.09375-0.015625 0.03125-0.015625 0.0625-0.015625 0.09375 0 0.0625-0.015625 0.125 0.046875 0.17188 0.03125 0.046875 0.09375 0.03125 0.14062 0.03125h2.2812v2.7344h-1.875-0.4375c-0.0625 0-0.125 0.015625-0.14062 0.09375-0.015625 0.03125-0.015625 0.0625-0.015625 0.09375 0 0.0625-0.015625 0.14062 0.046875 0.17188 0.03125 0.046875 0.09375 0.046875 0.14062 0.046875h2.2812v1.1562h-2.5625c-0.0625 0-0.14062 0.015625-0.17188 0.09375-0.015625 0.078125-0.03125 0.23438 0.046875 0.29688 0.046875 0.03125 0.125 0.015625 0.17188 0.015625h2.5156v0.67188c0 0.10938-0.015625 0.23438 0.015625 0.32812 0.03125 0.10938 0.14062 0.09375 0.21875 0.09375 0.03125 0 0.09375 0 0.125-0.03125 0.078125-0.0625 0.046875-0.20312 0.046875-0.28125v-0.78125c0.125 0 0.25 0.015625 0.375 0 0.42188-0.015625 0.84375-0.125 1.2188-0.29688 0.53125-0.26562 1-0.65625 1.3438-1.1562 0.75-1.1562 0.75-2.7188-0.0625-3.8281-0.125-0.15625-0.25-0.32812-0.39062-0.46875-0.45312-0.42188-1.0312-0.73438-1.6406-0.84375-0.28125-0.0625-0.5625-0.0625-0.84375-0.0625v-0.79688c0-0.078125 0.03125-0.21875-0.046875-0.26562-0.03125-0.03125-0.09375-0.03125-0.125-0.03125-0.078125 0-0.1875-0.015625-0.21875 0.078125-0.03125 0.10938-0.015625 0.23438-0.015625 0.32812zm0.40625 1.5625v-1.1719c0.25 0 0.48438 0 0.73438 0.046875 0.60938 0.10938 1.1719 0.45312 1.6094 0.90625 0.5 0.5625 0.76562 1.3281 0.75 2.0781-0.015625 0.6875-0.28125 1.375-0.75 1.8906-0.25 0.28125-0.54688 0.5-0.89062 0.67188-0.34375 0.15625-0.71875 0.25-1.0938 0.26562-0.125 0.015625-0.25 0-0.35938 0v-1.1562h0.34375c0.25-0.015625 0.48438-0.09375 0.70312-0.21875 0.14062-0.078125 0.28125-0.1875 0.39062-0.29688 0.65625-0.70312 0.65625-1.8594-0.03125-2.5312-0.25-0.25-0.59375-0.42188-0.9375-0.46875-0.17188-0.03125-0.3125-0.015625-0.46875-0.015625zm0 3.125v-2.7344c0.28125 0 0.5625 0.015625 0.82812 0.15625 0.10938 0.0625 0.21875 0.15625 0.3125 0.25 0.40625 0.40625 0.5 1.0625 0.25 1.5781-0.078125 0.17188-0.20312 0.3125-0.34375 0.4375-0.17188 0.15625-0.39062 0.26562-0.64062 0.29688-0.125 0.03125-0.26562 0.015625-0.40625 0.015625z"/>
</g>
</defs>
<g transform="translate(-149.26 -127.84)">
<use x="148.71201" y="134.765" xlink:href="#a"/>
</g>
</svg>
