<?xml version="1.0" encoding="UTF-8"?>
<svg fill="#000000" version="1.1" viewBox="0 0 6.0654 4.7364" xmlns="http://www.w3.org/2000/svg" xmlns:xlink="http://www.w3.org/1999/xlink">
<defs>
<g id="a">
<path d="m0.95312-3.875c0.10938-0.10938 0.21875-0.1875 0.375-0.25 0.125-0.046875 0.25-0.078125 0.375-0.10938 0.4375-0.0625 0.98438-0.125 1.3438 0.23438 0.03125 0.046875 0.078125 0.09375 0.10938 0.15625 0.26562 0.48438 0.03125 1.1719-0.5 1.3438-0.1875 0.0625-0.375 0.03125-0.54688 0.0625-0.078125 0-0.17188 0-0.17188 0.10938 0 0.046875 0.03125 0.078125 0.078125 0.09375 0.09375 0.03125 0.20312 0.015625 0.29688 0.015625 0.375 0 0.76562 0.15625 0.95312 0.5 0.078125 0.14062 0.125 0.29688 0.14062 0.46875 0.03125 0.4375-0.14062 0.875-0.57812 1.0781-0.375 0.17188-0.84375 0.10938-1.2344-0.03125-0.25-0.09375-0.48438-0.21875-0.70312-0.39062-0.0625-0.0625-0.14062-0.125-0.20312-0.1875-0.03125-0.046875-0.0625-0.10938-0.125-0.10938-0.10938-0.03125-0.15625 0.09375-0.14062 0.17188 0.015625 0.046875 0.046875 0.09375 0.078125 0.125 0.0625 0.0625 0.125 0.10938 0.17188 0.17188 0.625 0.54688 1.4844 0.73438 2.2812 0.5625 0.32812-0.078125 0.67188-0.20312 0.92188-0.4375 0.10938-0.125 0.21875-0.23438 0.29688-0.39062 0.046875-0.09375 0.078125-0.1875 0.09375-0.28125s0.03125-0.17188 0.015625-0.25c-0.03125-0.45312-0.40625-0.75-0.76562-0.9375-0.14062-0.078125-0.29688-0.14062-0.45312-0.17188 0.09375-0.015625 0.17188-0.046875 0.25-0.078125 0.3125-0.10938 0.625-0.29688 0.76562-0.60938 0.03125-0.078125 0.0625-0.1875 0.0625-0.28125 0-0.0625-0.015625-0.14062 0.03125-0.1875 0.046875-0.078125 0.17188-0.125 0.23438-0.17188 0.17188-0.125 0.375-0.23438 0.54688-0.35938v0.89062c0 0.10938-0.015625 0.21875 0 0.32812 0.015625 0.14062 0.09375 0.28125 0.1875 0.39062 0.375 0.39062 1.0938 0.29688 1.2969-0.20312 0.03125-0.078125 0.046875-0.17188 0.046875-0.26562-0.015625-0.09375-0.15625-0.14062-0.21875-0.0625-0.03125 0.03125-0.03125 0.09375-0.03125 0.14062-0.015625 0.0625-0.03125 0.10938-0.0625 0.15625-0.14062 0.26562-0.5 0.35938-0.70312 0.125-0.14062-0.17188-0.14062-0.34375-0.14062-0.54688v-1.1562c0-0.046875 0.015625-0.09375-0.015625-0.14062-0.03125-0.0625-0.09375-0.0625-0.14062-0.0625s-0.09375 0-0.14062 0.015625c-0.078125 0.015625-0.125 0.0625-0.1875 0.09375-0.10938 0.078125-0.21875 0.15625-0.32812 0.21875-0.15625 0.10938-0.3125 0.21875-0.48438 0.32812-0.14062-0.26562-0.375-0.4375-0.64062-0.54688-0.5625-0.26562-1.25-0.26562-1.8438-0.14062-0.3125 0.078125-0.625 0.20312-0.8125 0.45312-0.14062 0.15625-0.21875 0.39062-0.17188 0.59375 0.046875 0.25 0.3125 0.35938 0.54688 0.26562 0.21875-0.09375 0.28125-0.40625 0.125-0.59375-0.0625-0.09375-0.17188-0.14062-0.28125-0.14062z"/>
</g>
</defs>
<g transform="translate(-149.13 -130.23)">
<use x="148.71201" y="134.765" xlink:href="#a"/>
</g>
</svg>
