<?xml version="1.0" encoding="UTF-8"?>
<svg fill="#000000" version="1.1" viewBox="0 0 6 6" xmlns="http://www.w3.org/2000/svg" xmlns:xlink="http://www.w3.org/1999/xlink">
<defs>
<g id="a">
<path d="m6.1719-2.5625c0-1.6562-1.3438-3-3-3s-3 1.3438-3 3 1.3438 3 3 3 3-1.3438 3-3zm-0.45312 0c0 0.625-0.21875 1.2031-0.59375 1.6406l-3.5938-3.5938c0.45312-0.375 1.0156-0.59375 1.6406-0.59375 1.4062 0 2.5469 1.1406 2.5469 2.5469zm-0.90625 1.9531c-0.45312 0.375-1.0312 0.59375-1.6406 0.59375-1.3906 0-2.5469-1.1406-2.5469-2.5469 0-0.625 0.21875-1.2031 0.59375-1.6406z"/>
</g>
</defs>
<g transform="translate(-148.88 -129.2)">
<use x="148.71201" y="134.765" xlink:href="#a"/>
</g>
</svg>
