<?xml version="1.0" encoding="UTF-8"?>
<svg fill="#000000" version="1.1" viewBox="0 0 4.3125 5.2344" xmlns="http://www.w3.org/2000/svg" xmlns:xlink="http://www.w3.org/1999/xlink">
<defs>
<g id="a">
<path d="m4.6406-0.40625h-3.8594c-0.125 0-0.21875 0.10938-0.21875 0.23438s0.09375 0.23438 0.21875 0.23438h3.8594c0.14062 0 0.23438-0.10938 0.23438-0.23438s-0.09375-0.23438-0.23438-0.23438zm-4.0781-2.7344c0 0.26562 0.23438 1.4375 1.1406 1.4375 0.92188 0 1.3594-1.2344 2.0156-1.2344 0.42188 0 0.67188 0.54688 0.70312 1 0 0.125 0.10938 0.21875 0.21875 0.21875 0.14062 0 0.23438-0.10938 0.23438-0.23438 0-0.28125-0.25-1.4375-1.1562-1.4375s-1.3438 1.2344-2.0156 1.2344c-0.40625 0-0.65625-0.54688-0.6875-1-0.015625-0.125-0.125-0.21875-0.23438-0.21875-0.14062 0-0.21875 0.10938-0.21875 0.23438zm0-1.7812c0 0.26562 0.23438 1.4375 1.1406 1.4375 0.92188 0 1.3594-1.2344 2.0156-1.2344 0.42188 0 0.67188 0.54688 0.70312 1 0 0.125 0.10938 0.20312 0.21875 0.20312 0.14062 0 0.23438-0.09375 0.23438-0.21875 0-0.28125-0.25-1.4375-1.1562-1.4375s-1.3438 1.2188-2.0156 1.2188c-0.40625 0-0.65625-0.53125-0.6875-0.98438-0.015625-0.125-0.125-0.21875-0.23438-0.21875-0.14062 0-0.21875 0.10938-0.21875 0.23438z"/>
</g>
</defs>
<g transform="translate(-149.27 -129.59)">
<use x="148.71201" y="134.765" xlink:href="#a"/>
</g>
</svg>
