<?xml version="1.0" encoding="UTF-8"?>
<svg fill="#000000" version="1.1" viewBox="0 0 6.3764 8.8472" xmlns="http://www.w3.org/2000/svg" xmlns:xlink="http://www.w3.org/1999/xlink">
<defs>
<g id="a">
<path d="m3.6719-6.2031h-0.67188c-0.17188 0-0.32812-0.015625-0.5 0.015625-0.40625 0.046875-0.79688 0.20312-1.125 0.45312-0.1875 0.14062-0.34375 0.3125-0.46875 0.51562-0.09375 0.14062-0.1875 0.3125-0.23438 0.48438-0.25 0.71875-0.078125 1.5 0.42188 2.0625 0.1875 0.20312 0.40625 0.35938 0.625 0.48438 0.25 0.10938 0.53125 0.1875 0.79688 0.23438 0.15625 0.015625 0.32812 0.015625 0.48438 0.015625h0.67188v1.1719h-2.6719c-0.0625 0-0.14062 0.015625-0.15625 0.09375-0.03125 0.078125-0.03125 0.23438 0.03125 0.28125 0.046875 0.03125 0.125 0.015625 0.1875 0.015625h2.6094v1.1875h-2.6719c-0.0625 0-0.14062 0-0.15625 0.078125-0.03125 0.09375-0.03125 0.25 0.03125 0.29688 0.046875 0.03125 0.125 0.015625 0.1875 0.015625h2.6094v0.4375c0 0.0625 0 0.15625 0.015625 0.21875 0.015625 0.015625 0.046875 0.03125 0.0625 0.046875 0.03125 0.015625 0.0625 0.015625 0.09375 0.015625 0.078125 0 0.15625 0.015625 0.21875-0.046875 0.03125-0.0625 0.015625-0.15625 0.015625-0.20312v-0.46875h2.6719c0.0625 0 0.14062 0 0.17188-0.09375 0.015625-0.078125 0.03125-0.23438-0.046875-0.28125-0.046875-0.03125-0.10938-0.015625-0.17188-0.015625h-2.625v-1.1875h2.6719c0.0625 0 0.14062 0 0.17188-0.078125 0.015625-0.078125 0.03125-0.25-0.046875-0.29688-0.046875-0.03125-0.10938-0.015625-0.17188-0.015625h-2.625v-1.1719h2.6719c0.0625 0 0.14062-0.015625 0.17188-0.09375 0.015625-0.078125 0.03125-0.23438-0.046875-0.29688-0.046875-0.03125-0.10938-0.015625-0.17188-0.015625h-2.625v-3.4688h2.6719c0.0625 0 0.14062-0.015625 0.17188-0.09375 0.015625-0.078125 0.03125-0.23438-0.046875-0.28125-0.046875-0.03125-0.10938-0.015625-0.17188-0.015625h-2.625v-0.46875c0-0.0625 0.015625-0.14062-0.015625-0.20312-0.0625-0.0625-0.14062-0.046875-0.21875-0.046875h-0.09375c-0.015625 0.03125-0.046875 0.046875-0.0625 0.0625-0.015625 0.0625-0.015625 0.15625-0.015625 0.20312zm0 0.39062v3.4688h-0.65625c-0.21875 0-0.40625 0-0.60938-0.03125-0.26562-0.0625-0.51562-0.17188-0.71875-0.3125-0.1875-0.14062-0.32812-0.29688-0.45312-0.46875-0.09375-0.14062-0.15625-0.28125-0.20312-0.4375-0.046875-0.17188-0.078125-0.35938-0.078125-0.54688 0.03125-0.625 0.4375-1.1875 0.98438-1.4844 0.35938-0.17188 0.71875-0.1875 1.1094-0.1875z"/>
</g>
</defs>
<g transform="translate(-149.27 -127.84)">
<use x="148.71201" y="134.765" xlink:href="#a"/>
</g>
</svg>
