<?xml version="1.0" encoding="UTF-8"?>
<svg fill="#000000" version="1.1" viewBox="0 0 7.0469 7.1406" xmlns="http://www.w3.org/2000/svg" xmlns:xlink="http://www.w3.org/1999/xlink">
<defs>
<g id="a">
<path d="m5.2031-4.9219c-0.015625 0.03125-0.03125 0.046875-0.03125 0.0625 0 0.03125 0.015625 0.0625 0.046875 0.078125 0.29688 0.17188 0.65625 0.34375 1.125 0.35938-0.078125 0.65625-0.51562 1.4688-1.0938 2.2812-0.34375 0.5-0.75 1-1.2969 1.4375-0.42188 0.32812-0.90625 0.5625-1.25 0.5625-0.78125 0-1.125-0.4375-1.125-1.0625v-0.046875c0.03125-0.82812 0.59375-1.8594 1.3281-2.8906 0.46875-0.67188 0.96875-1.3438 1.6719-1.9219 0.53125-0.4375 1.1562-0.78125 1.5938-0.78125 0.64062 0 1.1562 0.14062 1.4219 0.46875 0.09375 0.10938 0.14062 0.25 0.14062 0.40625 0 0.20312-0.078125 0.42188-0.25 0.6875-0.125 0.17188-0.28125 0.34375-0.5 0.45312-0.078125 0.046875-0.14062 0.09375-0.21875 0.10938-0.09375-0.57812-0.5-0.96875-1.25-0.96875-0.375 0-0.84375 0.32812-1.2344 0.64062-0.54688 0.46875-1 0.98438-1.375 1.5156-0.59375 0.84375-0.84375 1.6406-0.9375 2.3594v0.046875c0.015625 0.03125 0.046875 0.046875 0.078125 0.046875 0 0 0.03125 0 0.03125-0.015625l0.14062-0.046875c0.03125 0 0.046875-0.03125 0.046875-0.0625 0.09375-0.6875 0.32812-1.4375 0.89062-2.2344 0.35938-0.5 0.76562-1.0156 1.2812-1.4531 0.35938-0.3125 0.75-0.57812 1.0469-0.57812 0.59375 0 0.85938 0.32812 0.85938 0.82812-0.39062-0.03125-0.67188-0.1875-0.98438-0.34375-0.015625-0.015625-0.03125-0.015625-0.046875-0.015625s-0.03125 0.015625-0.0625 0.03125zm1.9219 0.28125c0.23438-0.14062 0.45312-0.34375 0.59375-0.54688 0.20312-0.28125 0.28125-0.54688 0.28125-0.78125 0-0.21875-0.0625-0.40625-0.1875-0.54688-0.32812-0.40625-0.92188-0.54688-1.6094-0.54688-0.60938 0-1.4062 0.35938-2.1094 0.82812-0.84375 0.57812-1.5469 1.2812-2.0469 2-0.6875 0.96875-1.0938 1.9375-1.0938 2.7344 0 0.09375 0 0.1875 0.015625 0.28125 0.09375 0.79688 0.6875 1.2969 1.6875 1.2969 0.46875 0 1.0781-0.25 1.5938-0.625 0.64062-0.4375 1.1562-0.95312 1.5312-1.5 0.59375-0.84375 0.98438-1.7031 0.98438-2.4219v-0.03125c0.125-0.03125 0.25-0.078125 0.35938-0.14062z"/>
</g>
</defs>
<g transform="translate(-149.67 -127.7)">
<use x="148.71201" y="134.765" xlink:href="#a"/>
</g>
</svg>
