<?xml version="1.0" encoding="UTF-8"?>
<svg fill="#000000" version="1.1" viewBox="0 0 6.625 7.0625" xmlns="http://www.w3.org/2000/svg" xmlns:xlink="http://www.w3.org/1999/xlink">
<defs>
<g id="a">
<path d="m6.8281-5.4375c0-0.75-0.20312-1.5156-1.0625-1.5156-1.5312 0-2.0156 1.9844-2.2344 3.2188h-0.078125c-0.14062-1.2969-0.45312-3.2188-1.9062-3.2188-0.9375 0-1.2344 0.73438-1.3438 1.4219l0.1875 0.0625c0.125-0.39062 0.39062-0.76562 0.85938-0.76562 0.82812 0 1.3125 1.0156 1.5156 1.7812 0.20312 0.73438 0.28125 1.5 0.28125 2.25s0 1.5-0.046875 2.25l0.17188 0.0625 0.67188-0.35938c0-3.2031 0.015625-4.3281 1.2812-5.6094 0.20312-0.1875 0.45312-0.29688 0.73438-0.29688 0.51562 0 0.6875 0.375 0.75 0.75z"/>
</g>
</defs>
<g transform="translate(-148.92 -127.81)">
<use x="148.71201" y="134.765" xlink:href="#a"/>
</g>
</svg>
