<?xml version="1.0" encoding="UTF-8"?>
<svg fill="#000000" version="1.1" viewBox="0 0 5.5156 5.4219" xmlns="http://www.w3.org/2000/svg" xmlns:xlink="http://www.w3.org/1999/xlink">
<defs>
<g id="a">
<path d="m3.6719-5v2.3125h-2.3594c-0.10938 0-0.20312 0.078125-0.20312 0.1875 0 0.125 0.09375 0.20312 0.20312 0.20312h2.3438c-0.03125 1.1562-0.48438 2.125-1.3281 2.125-0.39062 0-0.71875-0.25-0.82812-0.60938-0.03125-0.09375-0.10938-0.15625-0.1875-0.15625-0.03125 0-0.046875 0-0.0625 0.015625-0.09375 0.03125-0.14062 0.10938-0.14062 0.1875v0.0625c0.17188 0.53125 0.67188 0.89062 1.2188 0.89062 0.8125 0 1.2969-0.59375 1.5469-1.3438 0.23438 0.75 0.71875 1.3438 1.5312 1.3438 0.5625 0 1.0469-0.35938 1.2188-0.89062v-0.0625c0-0.078125-0.0625-0.15625-0.14062-0.1875-0.015625-0.015625-0.03125-0.015625-0.046875-0.015625-0.09375 0-0.17188 0.0625-0.20312 0.15625-0.10938 0.35938-0.45312 0.60938-0.82812 0.60938-0.84375 0-1.2969-0.96875-1.3438-2.125h2.375c0.10938 0 0.1875-0.078125 0.1875-0.20312 0-0.10938-0.078125-0.1875-0.1875-0.1875h-2.375v-2.3125c0-0.10938-0.078125-0.20312-0.1875-0.20312s-0.20312 0.09375-0.20312 0.20312z"/>
</g>
</defs>
<g transform="translate(-149.82 -129.56)">
<use x="148.71201" y="134.765" xlink:href="#a"/>
</g>
</svg>
