<?xml version="1.0" encoding="UTF-8"?>
<svg fill="#000000" width="3.8594" height="5.5938" version="1.1" viewBox="0 0 3.8594 5.5937" xmlns="http://www.w3.org/2000/svg" xmlns:xlink="http://www.w3.org/1999/xlink">
<defs>
<g id="a">
<path d="m0.95312-2.2969c0 0.625-0.015625 1.0938-0.0625 1.6406 0.35938 0.28125 0.71875 0.60938 1.0156 0.9375l2.1562-1.1406c0.17188-0.39062 0.3125-1.2188 0.3125-1.5781 0-0.71875 0-1.0469-0.0625-1.7031-0.40625-0.17188-0.78125-0.375-1.1406-0.60938l-1.4219 1.0156v-0.32812c-0.25-0.28125-0.46875-0.51562-0.46875-0.75 0-0.17188 0.078125-0.32812 0.17188-0.46875l-0.14062-0.03125c-0.3125 0.29688-0.79688 0.84375-0.79688 1.1406 0 0.32812 0.40625 0.5 0.40625 0.73438 0.015625 0.45312 0.03125 0.82812 0.03125 1.1406zm0.79688-1.1719c0.28125-0.20312 0.625-0.45312 0.90625-0.48438 0.29688 0.0625 0.60938 0.17188 0.84375 0.39062 0.046875 0.375 0.078125 0.76562 0.078125 1.1406 0 0.67188-0.14062 1.9375-0.73438 1.9375-0.375 0-0.6875-0.4375-0.79688-0.4375-0.1875-0.15625-0.34375-0.375-0.32812-0.625z"/>
</g>
</defs>
<g transform="translate(-149.23 -129.45)">
<use x="148.71201" y="134.765" xlink:href="#a"/>
</g>
</svg>
