<?xml version="1.0" encoding="UTF-8"?>
<svg fill="#000000" width="3.5938" height="6.5938" version="1.1" viewBox="0 0 3.5938 6.5937" xmlns="http://www.w3.org/2000/svg" xmlns:xlink="http://www.w3.org/1999/xlink">
<defs>
<g id="a">
<path d="m1.9062-3.75 0.03125-0.3125c-0.14062-0.078125-0.51562-0.4375-0.76562-0.65625-0.35938 0.3125-0.70312 0.625-1.0312 0.95312l0.125 0.09375c0.046875 0 0.34375-0.17188 0.40625-0.17188 0.078125 0 0.26562 0.17188 0.40625 0.32812 0.03125 0.53125 0.03125 1.0781 0.03125 1.6094 0 0.40625-0.015625 0.90625-0.078125 1.3125-0.39062 0.4375-0.9375 1.0625-0.9375 1.5781 0 0.53125 0.67188 0.78125 1.125 0.89062l0.64062-0.40625v-0.078125c-0.51562-0.0625-1.2188-0.26562-1.2188-0.85938 0-0.375 0.34375-0.76562 0.60938-1.0156 0.3125 0.21875 0.59375 0.45312 0.84375 0.73438l1.4844-1.0469-0.03125-0.1875-0.625 0.34375c-0.09375 0.046875-0.17188 0.046875-0.21875 0.046875-0.1875 0-0.57812-0.39062-0.76562-0.57812-0.03125-0.46875-0.046875-0.95312-0.046875-1.4219 0-0.25-0.015625-0.5625 0.046875-0.85938 0.078125-0.10938 0.34375-0.34375 0.5-0.4375 0.10938 0.09375 0.29688 0.375 0.57812 0.51562l0.67188-0.59375c-0.26562-0.1875-0.51562-0.39062-0.6875-0.67188z"/>
</g>
</defs>
<g transform="translate(-148.81 -130.05)">
<use x="148.71201" y="134.765" xlink:href="#a"/>
</g>
</svg>
