<?xml version="1.0" encoding="UTF-8"?>
<svg fill="#000000" version="1.1" viewBox="0 0 6.5781 6.5781" xmlns="http://www.w3.org/2000/svg" xmlns:xlink="http://www.w3.org/1999/xlink">
<defs>
<g id="a">
<path d="m6.3281-5.6094c-0.60938-0.625-1.4531-0.96875-2.3281-0.96875s-1.7031 0.34375-2.3125 0.96875c-0.625 0.60938-0.96875 1.4531-0.96875 2.3125 0 0.89062 0.34375 1.7188 0.96875 2.3438 0.60938 0.60938 1.4375 0.95312 2.3125 0.95312s1.7188-0.34375 2.3281-0.96875c0.625-0.60938 0.96875-1.4375 0.96875-2.3281 0-0.85938-0.34375-1.7031-0.96875-2.3125zm-0.28125 4.3594c-0.54688 0.54688-1.2656 0.84375-2.0469 0.84375-0.76562 0-1.5-0.29688-2.0312-0.84375-0.54688-0.53125-0.85938-1.2656-0.85938-2.0469 0-0.76562 0.3125-1.4844 0.85938-2.0312 0.53125-0.54688 1.2656-0.85938 2.0312-0.85938 0.78125 0 1.5 0.3125 2.0469 0.85938s0.84375 1.2656 0.84375 2.0312c0 0.78125-0.29688 1.5156-0.84375 2.0469zm-0.95312-1.1562c-0.3125 0.23438-0.70312 0.35938-1.0938 0.35938s-0.76562-0.125-1.0938-0.35938l-0.17188 0.15625c0.23438 0.5 0.73438 0.79688 1.2656 0.79688 0.54688 0 1.0312-0.29688 1.2812-0.79688zm0.20312-1.5938c0.09375-0.078125 0.125-0.17188 0.125-0.28125s-0.03125-0.21875-0.125-0.29688c-0.078125-0.09375-0.1875-0.125-0.29688-0.125s-0.20312 0.03125-0.28125 0.125c-0.078125 0.078125-0.125 0.1875-0.125 0.29688s0.046875 0.20312 0.125 0.28125 0.17188 0.125 0.28125 0.125 0.21875-0.046875 0.29688-0.125zm-2 0c0.078125-0.078125 0.125-0.17188 0.125-0.28125s-0.046875-0.21875-0.125-0.29688c-0.09375-0.09375-0.20312-0.125-0.29688-0.125-0.10938 0-0.20312 0.03125-0.28125 0.125-0.09375 0.078125-0.14062 0.1875-0.14062 0.29688s0.046875 0.20312 0.14062 0.28125c0.078125 0.078125 0.17188 0.125 0.28125 0.125 0.09375 0 0.20312-0.046875 0.29688-0.125z"/>
</g>
</defs>
<g transform="translate(-149.43 -128.19)">
<use x="148.71201" y="134.765" xlink:href="#a"/>
</g>
</svg>
