<?xml version="1.0" encoding="UTF-8"?>
<svg fill="#000000" width="3.2969" height="2.9688" version="1.1" viewBox="0 0 3.2969 2.9687" xmlns="http://www.w3.org/2000/svg" xmlns:xlink="http://www.w3.org/1999/xlink">
<defs>
<g id="a">
<path d="m1.0469-0.21875c0 0.09375 0.015625 0.1875 0.015625 0.28125-0.03125 0.60938-0.28125 1.1562-0.71875 1.5781-0.03125 0.046875-0.10938 0.09375-0.10938 0.15625v0.03125c0 0.0625 0.078125 0.078125 0.10938 0.078125 0.14062 0 0.40625-0.34375 0.53125-0.54688 0.23438-0.39062 0.40625-0.875 0.40625-1.3438 0-0.40625-0.10938-1.0156-0.60938-1.0781-0.375 0-0.59375 0.1875-0.59375 0.53125 0 0.29688 0.21875 0.51562 0.53125 0.51562 0.17188 0 0.3125-0.0625 0.4375-0.20312zm2.0938 0c0 0.09375 0.015625 0.1875 0.015625 0.28125-0.03125 0.60938-0.28125 1.1562-0.71875 1.5781-0.03125 0.046875-0.10938 0.09375-0.10938 0.15625v0.03125c0 0.0625 0.078125 0.078125 0.10938 0.078125 0.14062 0 0.40625-0.34375 0.51562-0.54688 0.25-0.39062 0.42188-0.875 0.42188-1.3438 0-0.40625-0.10938-1.0156-0.60938-1.0781-0.375 0-0.59375 0.1875-0.59375 0.53125 0 0.29688 0.21875 0.51562 0.53125 0.51562 0.17188 0 0.3125-0.0625 0.4375-0.20312z"/>
</g>
</defs>
<g transform="translate(-148.79 -133.7)">
<use x="148.71201" y="134.765" xlink:href="#a"/>
</g>
</svg>
