<?xml version="1.0" encoding="UTF-8"?>
<svg fill="#000000" version="1.1" viewBox="0 0 4.3125 14.125" xmlns="http://www.w3.org/2000/svg" xmlns:xlink="http://www.w3.org/1999/xlink">
<defs>
<g id="a">
<path d="m4.875-1.4375c0-0.078125-0.046875-0.14062-0.10938-0.20312l-1.8594-1.0625 0.29688-1.0781 1.3281 0.76562c0.03125 0.015625 0.078125 0.03125 0.10938 0.03125 0.125 0 0.23438-0.09375 0.23438-0.23438 0-0.078125-0.046875-0.15625-0.10938-0.1875l-1.4375-0.84375 0.76562-2.8438 0.67188-0.39062c0.0625-0.03125 0.10938-0.10938 0.10938-0.1875 0-0.14062-0.10938-0.23438-0.23438-0.23438-0.03125 0-0.078125 0.015625-0.10938 0.03125l-0.28125 0.17188 0.46875-1.7188c0.015625-0.09375-0.046875-0.1875-0.15625-0.1875-0.0625 0-0.125 0.046875-0.14062 0.125l-0.53125 1.9844-3.2188 1.8594c-0.078125 0.03125-0.10938 0.10938-0.10938 0.20312 0 0.078125 0.03125 0.14062 0.10938 0.1875l2.2656 1.3125-0.29688 1.0938-1.75-1.0156c-0.015625-0.015625-0.0625-0.03125-0.10938-0.03125-0.10938 0-0.21875 0.10938-0.21875 0.23438 0 0.078125 0.03125 0.14062 0.10938 0.20312l1.8438 1.0625-0.28125 1.0781-1.3438-0.76562c-0.015625-0.015625-0.0625-0.03125-0.10938-0.03125-0.10938 0-0.21875 0.09375-0.21875 0.23438 0 0.078125 0.03125 0.15625 0.10938 0.1875l1.4375 0.84375-0.76562 2.8438-0.67188 0.375c-0.078125 0.046875-0.10938 0.125-0.10938 0.20312 0 0.14062 0.10938 0.23438 0.21875 0.23438 0.046875 0 0.09375-0.015625 0.10938-0.03125l0.28125-0.17188-0.45312 1.7188c-0.015625 0.09375 0.03125 0.1875 0.15625 0.1875 0.046875 0 0.10938-0.046875 0.125-0.125l0.54688-1.9844 3.2188-1.8594c0.0625-0.03125 0.10938-0.10938 0.10938-0.20312 0-0.078125-0.046875-0.14062-0.10938-0.1875l-2.2656-1.3125 0.29688-1.0938 1.7344 1.0156c0.03125 0.015625 0.078125 0.03125 0.10938 0.03125 0.125 0 0.23438-0.10938 0.23438-0.23438zm-3.1562 3.2188 0.65625-2.4844 1.8125 1.0469zm2-8.6562-0.65625 2.4844-1.8125-1.0469z"/>
</g>
</defs>
<g transform="translate(-149.27 -125.16)">
<use x="148.71201" y="134.765" xlink:href="#a"/>
</g>
</svg>
