<?xml version="1.0" encoding="UTF-8"?>
<svg fill="#000000" version="1.1" viewBox="0 0 2.75 5" xmlns="http://www.w3.org/2000/svg" xmlns:xlink="http://www.w3.org/1999/xlink">
<defs>
<g id="a">
<path d="m2.2031-7.4219c-0.015625 0.14062-0.046875 0.26562-0.09375 0.39062-0.1875 0.57812-0.6875 1.0469-1.2656 1.2031v0.40625c0.32812-0.078125 0.65625-0.26562 0.90625-0.48438 0.09375-0.078125 0.1875-0.1875 0.25-0.29688h0.015625v3.375c0 0.078125-0.015625 0.17188 0.015625 0.25 0.015625 0.09375 0.09375 0.15625 0.1875 0.15625 0.078125 0 0.15625-0.0625 0.1875-0.15625 0.015625-0.078125 0-0.17188 0-0.25v-3.375h0.015625c0.0625 0.10938 0.15625 0.21875 0.26562 0.29688 0.25 0.21875 0.57812 0.40625 0.90625 0.48438v-0.40625c-0.59375-0.15625-1.0938-0.625-1.2812-1.2031-0.046875-0.125-0.078125-0.25-0.09375-0.39062z"/>
</g>
</defs>
<g transform="translate(-149.56 -127.34)">
<use x="148.71201" y="134.765" xlink:href="#a"/>
</g>
</svg>
