<?xml version="1.0" encoding="UTF-8"?>
<svg fill="#000000" width="5.0156" height="4.9688" version="1.1" viewBox="0 0 5.0156 4.9687" xmlns="http://www.w3.org/2000/svg" xmlns:xlink="http://www.w3.org/1999/xlink">
<defs>
<g id="a">
<path d="m1.75-3.6562v-0.57812c-0.1875-0.14062-0.42188-0.32812-0.53125-0.45312-0.015625 0-0.70312 0.59375-1.0469 0.90625l0.14062 0.10938 0.34375-0.20312 0.23438 0.23438c0.03125 0.48438 0.046875 1.0156 0.046875 1.5312 0 0.60938-0.03125 1.1875-0.10938 1.6562 0.1875 0.20312 0.34375 0.4375 0.48438 0.6875l0.875-0.75-0.40625-0.54688c-0.03125-0.03125-0.0625-0.17188-0.0625-0.26562l0.03125-2.0781 0.65625-0.4375c0.32812 0.03125 0.71875 0.125 1 0.28125 0.03125 0.51562 0.046875 1.0781 0.046875 1.625 0 0.48438-0.015625 0.9375-0.078125 1.2969l0.54688 0.82812 1.2656-1.1094-0.10938-0.17188-0.3125 0.21875c-0.03125 0.03125-0.09375 0.0625-0.09375 0.0625-0.17188 0-0.3125-0.29688-0.39062-0.45312l-0.046875-1.25c0-0.625 0.046875-1.2188 0.078125-1.6406-0.39062-0.15625-0.78125-0.34375-1.125-0.57812z"/>
</g>
</defs>
<g transform="translate(-148.88 -130.03)">
<use x="148.71201" y="134.765" xlink:href="#a"/>
</g>
</svg>
