<?xml version="1.0" encoding="UTF-8"?>
<svg fill="#000000" version="1.1" viewBox="0 0 1.2812 7.0781" xmlns="http://www.w3.org/2000/svg" xmlns:xlink="http://www.w3.org/1999/xlink">
<defs>
<g id="a">
<path d="m3.1875-5.4062c0-0.375-0.3125-0.64062-0.64062-0.64062-0.3125 0-0.64062 0.25-0.64062 0.64062 0 0.375 0.26562 0.625 0.64062 0.625 0.39062 0 0.64062-0.29688 0.64062-0.625zm0 2.8906c0-0.35938-0.3125-0.625-0.64062-0.625-0.3125 0-0.64062 0.25-0.64062 0.625 0 0.39062 0.26562 0.64062 0.64062 0.64062 0.39062 0 0.64062-0.29688 0.64062-0.64062zm0 2.9219c0-0.375-0.3125-0.64062-0.64062-0.64062-0.3125 0-0.64062 0.25-0.64062 0.64062 0 0.375 0.26562 0.625 0.64062 0.625 0.39062 0 0.64062-0.29688 0.64062-0.625z"/>
</g>
</defs>
<g transform="translate(-150.62 -128.72)">
<use x="148.71201" y="134.765" xlink:href="#a"/>
</g>
</svg>
