<?xml version="1.0" encoding="UTF-8"?>
<svg fill="#000000" width="6.0839" height="6.8438" version="1.1" viewBox="0 0 6.0839 6.8437" xmlns="http://www.w3.org/2000/svg" xmlns:xlink="http://www.w3.org/1999/xlink">
<defs>
<g id="a">
<path d="m6.0938 0.64062c0 0.125 0.09375 0.23438 0.23438 0.23438 0.10938 0 0.1875-0.0625 0.21875-0.17188 0.09375-0.34375 0.14062-0.6875 0.14062-1.0469 0-2.3281-1.9219-4.1719-4.2344-4.1719-0.125 0-0.25 0-0.375 0.015625 0.29688-0.42188 0.84375-1.0312 0.84375-1.2344 0-0.10938-0.09375-0.23438-0.23438-0.23438-0.078125 0-0.15625 0.046875-0.1875 0.125-0.39062 0.67188-0.89062 1.2969-1.5781 1.6094-0.10938 0.03125-0.35938 0.10938-0.3125 0.3125-0.015625 0.046875 0.0625 0.20312 0.21875 0.20312 0.84375 0 1.5781 0.4375 2.2188 0.98438 0.03125 0.03125 0.078125 0.046875 0.14062 0.046875 0.14062 0 0.23438-0.10938 0.23438-0.23438 0-0.0625-0.03125-0.125-0.09375-0.17188-0.42188-0.35938-0.9375-0.59375-1.375-0.9375 0.15625-0.015625 0.32812-0.03125 0.5-0.03125 2.0625 0 3.7812 1.6562 3.7812 3.7188 0 0.59375-0.14062 0.89062-0.14062 0.98438z"/>
</g>
</defs>
<g transform="translate(-149.32 -128.8)">
<use x="148.71201" y="134.765" xlink:href="#a"/>
</g>
</svg>
