<?xml version="1.0" encoding="UTF-8"?>
<svg fill="#000000" version="1.1" viewBox="0 0 4.7969 6.0625" xmlns="http://www.w3.org/2000/svg" xmlns:xlink="http://www.w3.org/1999/xlink">
<defs>
<g id="a">
<path d="m3.2031-3.7031c0.9375-0.29688 1.7969-0.84375 2.4844-1.5781l-0.46875-0.4375c-1.0312 1.1094-2.4844 1.6875-4 1.6875h-0.32812v0.65625h0.5c1.4375 0.03125 2.8438 0.64062 3.8281 1.6875l0.46875-0.42188c-0.6875-0.73438-1.5469-1.2812-2.4844-1.5938zm-1.9219 3.625c0.25-0.26562 0.54688-0.54688 0.92188-0.54688 0.32812 0 0.625 0.1875 0.89062 0.40625 0.35938 0.3125 0.79688 0.5625 1.2969 0.5625 0.53125 0 0.90625-0.42188 1.2969-0.79688l-0.39062-0.39062c-0.25 0.26562-0.54688 0.54688-0.92188 0.54688-0.32812 0-0.625-0.1875-0.89062-0.40625-0.35938-0.3125-0.79688-0.54688-1.2969-0.54688-0.51562 0-0.90625 0.40625-1.2969 0.79688z"/>
</g>
</defs>
<g transform="translate(-149.6 -129.05)">
<use x="148.71201" y="134.765" xlink:href="#a"/>
</g>
</svg>
