<?xml version="1.0" encoding="UTF-8"?>
<svg fill="#000000" width="4.9062" height="8.0938" version="1.1" viewBox="0 0 4.9062 8.0937" xmlns="http://www.w3.org/2000/svg" xmlns:xlink="http://www.w3.org/1999/xlink">
<defs>
<g id="a">
<path d="m5.5-5.1875c0-0.1875-0.89062-1.4062-2.4531-1.4062-0.96875 0-1.875 0.48438-2.4062 1.2969-0.015625 0.03125-0.046875 0.078125-0.046875 0.10938 0 0.1875 0.15625 0.23438 0.23438 0.23438s0.15625-0.03125 0.1875-0.09375c0.40625-0.60938 1.0781-1.0156 1.7969-1.0781v7.4062c0 0.10938 0.10938 0.21875 0.23438 0.21875s0.21875-0.10938 0.21875-0.21875v-7.4062c0.73438 0.0625 1.4062 0.46875 1.7969 1.0781 0.046875 0.0625 0.125 0.09375 0.20312 0.09375 0.0625 0 0.23438-0.046875 0.23438-0.23438z"/>
</g>
</defs>
<g transform="translate(-149.31 -128.17)">
<use x="148.71201" y="134.765" xlink:href="#a"/>
</g>
</svg>
