<?xml version="1.0" encoding="UTF-8"?>
<svg fill="#000000" width="3.5" height="4.8438" version="1.1" viewBox="0 0 3.5 4.8437" xmlns="http://www.w3.org/2000/svg" xmlns:xlink="http://www.w3.org/1999/xlink">
<defs>
<g id="a">
<path d="m3.9062-4.2812c-0.3125-0.21875-0.65625-0.40625-1.0469-0.40625-0.84375 0-1.6562 0.54688-1.6562 1.5 0 0.29688 0.1875 0.64062 0.42188 0.78125v0.0625c-0.53125 0.25-0.84375 0.6875-0.84375 1.25 0 0.79688 0.73438 1.25 1.4688 1.25 0.79688 0 1.5156-0.40625 2.0312-0.96875l-0.078125-0.14062-0.09375-0.03125c-0.375 0.32812-0.85938 0.60938-1.3125 0.60938-0.64062 0-1.3281-0.40625-1.3281-1.125 0-0.54688 0.48438-0.8125 0.9375-0.8125 0.15625 0 0.3125 0.015625 0.45312 0.046875l0.21875-0.46875c-0.8125-0.046875-1.3906 0.078125-1.3906-0.78125 0-0.48438 0.45312-0.76562 0.85938-0.76562 0.39062 0 0.79688 0.20312 0.95312 0.625l0.10938 0.015625z"/>
</g>
</defs>
<g transform="translate(-149.49 -130.08)">
<use x="148.71201" y="134.765" xlink:href="#a"/>
</g>
</svg>
