<?xml version="1.0" encoding="UTF-8"?>
<svg fill="#000000" width="7.1719" height="9.9688" version="1.1" viewBox="0 0 7.1719 9.9687" xmlns="http://www.w3.org/2000/svg" xmlns:xlink="http://www.w3.org/1999/xlink">
<defs>
<g id="a">
<path d="m3.7812 9.625c0.0625 0.1875 0.14062 0.34375 0.35938 0.34375 0.25 0 0.3125-0.17188 0.35938-0.3125l3.1875-9.0938c0.046875-0.14062 0.046875-0.20312 0.046875-0.21875 0-0.20312-0.17188-0.34375-0.34375-0.34375s-0.28125 0.09375-0.35938 0.29688l-2.8906 8.2812-2.875-8.2344c-0.0625-0.17188-0.125-0.34375-0.375-0.34375-0.15625 0-0.32812 0.14062-0.32812 0.34375 0 0.03125 0 0.078125 0.046875 0.21875z"/>
</g>
</defs>
<g transform="translate(-149.27 -127.29)">
<use x="148.71201" y="127.293" xlink:href="#a"/>
</g>
</svg>
