<?xml version="1.0" encoding="UTF-8"?>
<svg fill="#000000" version="1.1" viewBox="0 0 5.2188 5.6562" xmlns="http://www.w3.org/2000/svg" xmlns:xlink="http://www.w3.org/1999/xlink">
<defs>
<g id="a">
<path d="m4.4688-2.5625v-0.65625h-1.0469c-0.10938 0-0.26562-0.125-0.26562-0.21875s0.046875-0.15625 0.14062-0.25c0.20312-0.20312 0.28125-0.34375 0.48438-0.65625l-0.1875-0.1875c-0.65625 0.75-0.90625 1.1875-1.875 1.5938v0.09375c0.96875 0.40625 1.2188 0.84375 1.875 1.6094l0.20312-0.1875c-0.1875-0.28125-0.23438-0.39062-0.48438-0.65625-0.09375-0.09375-0.14062-0.20312-0.14062-0.28125 0-0.10938 0.078125-0.20312 0.25-0.20312zm1.2344-2.7812h-0.65625v2.9531c0 1.1406-0.90625 2.0469-1.9531 2.0469-1.0938 0-1.9531-0.92188-1.9531-2.0625v-2.9375h-0.65625v2.9844c0 1.5781 1.125 2.6719 2.6094 2.6719 1.4688 0 2.6094-1.1094 2.6094-2.7031z"/>
</g>
</defs>
<g transform="translate(-149.2 -129.42)">
<use x="148.71201" y="134.765" xlink:href="#a"/>
</g>
</svg>
