<?xml version="1.0" encoding="UTF-8"?>
<svg fill="#000000" version="1.1" viewBox="0 0 6.3739 8.8488" xmlns="http://www.w3.org/2000/svg" xmlns:xlink="http://www.w3.org/1999/xlink">
<defs>
<g id="a">
<path d="m3.6719-4.6406h-2.6094c-0.0625 0-0.14062 0-0.1875 0.03125-0.0625 0.046875-0.0625 0.20312-0.03125 0.28125 0.015625 0.078125 0.09375 0.09375 0.15625 0.09375h2.6719v3.4688h-2.6719c-0.0625 0-0.14062 0.015625-0.15625 0.09375-0.03125 0.078125-0.03125 0.23438 0.03125 0.28125 0.046875 0.03125 0.125 0.015625 0.1875 0.015625h2.6094v1.8125 0.3125c0 0.046875 0 0.10938 0.046875 0.14062 0.046875 0.046875 0.125 0.03125 0.17188 0.03125 0.03125 0 0.078125 0 0.10938-0.015625 0.0625-0.015625 0.078125-0.078125 0.078125-0.14062v-0.40625-1.7344h0.67188c0.17188 0 0.32812 0.015625 0.5-0.015625 0.40625-0.046875 0.79688-0.20312 1.125-0.45312 0.1875-0.14062 0.34375-0.3125 0.46875-0.51562 0.10938-0.14062 0.1875-0.3125 0.25-0.48438 0.23438-0.71875 0.0625-1.5-0.4375-2.0625-0.17188-0.20312-0.39062-0.35938-0.625-0.48438-0.23438-0.10938-0.51562-0.1875-0.78125-0.23438-0.17188-0.015625-0.32812-0.015625-0.5-0.015625h-0.67188v-1.7344-0.39062c0-0.0625-0.015625-0.125-0.078125-0.15625h-0.10938c-0.046875 0-0.125-0.015625-0.17188 0.03125-0.046875 0.03125-0.046875 0.09375-0.046875 0.14062v0.3125zm0.40625 3.875v-3.4688h0.67188c0.20312 0 0.40625 0 0.60938 0.03125 0.25 0.0625 0.5 0.17188 0.71875 0.3125 0.17188 0.125 0.32812 0.29688 0.4375 0.46875 0.09375 0.125 0.15625 0.28125 0.20312 0.4375 0.0625 0.17188 0.09375 0.35938 0.078125 0.54688-0.03125 0.625-0.42188 1.1875-0.98438 1.4844-0.34375 0.17188-0.71875 0.1875-1.1094 0.1875z"/>
</g>
</defs>
<g transform="translate(-149.54 -127.84)">
<use x="148.71201" y="134.765" xlink:href="#a"/>
</g>
</svg>
