<?xml version="1.0" encoding="UTF-8"?>
<svg fill="#000000" version="1.1" viewBox="0 0 4.3125 6.4062" xmlns="http://www.w3.org/2000/svg" xmlns:xlink="http://www.w3.org/1999/xlink">
<defs>
<g id="a">
<path d="m4.875-0.71875c0-0.15625-0.0625-0.28125-0.23438-0.28125-0.10938 0-0.21875 0.09375-0.21875 0.21875-0.03125 0.375-0.25 0.98438-0.70312 0.98438-0.65625 0-1.0938-1.2188-2.0156-1.2188s-1.1406 1.1406-1.1406 1.3906c0 0.125 0.046875 0.26562 0.21875 0.26562 0.10938 0 0.21875-0.078125 0.23438-0.20312 0.03125-0.375 0.23438-1 0.6875-1 0.67188 0 1.0938 1.2344 2.0156 1.2344s1.1562-1.1562 1.1562-1.3906zm-0.23438-5.0156c-0.046875 0-0.09375 0-0.14062 0.046875-1.125 0.9375-2.3438 1.7344-3.7188 1.7344-0.14062 0-0.21875 0.078125-0.21875 0.21875s0.078125 0.23438 0.21875 0.23438c1.375 0 2.5938 0.78125 3.7188 1.7188 0.046875 0.046875 0.09375 0.0625 0.14062 0.0625 0.14062 0 0.23438-0.10938 0.23438-0.23438 0-0.0625-0.03125-0.125-0.078125-0.17188-0.78125-0.64062-1.6562-1.2812-2.6406-1.6094 0.98438-0.32812 1.8594-0.95312 2.6406-1.6094 0.046875-0.046875 0.078125-0.10938 0.078125-0.17188 0-0.125-0.09375-0.21875-0.23438-0.21875z"/>
</g>
</defs>
<g transform="translate(-149.27 -129.03)">
<use x="148.71201" y="134.765" xlink:href="#a"/>
</g>
</svg>
