<?xml version="1.0" encoding="UTF-8"?>
<svg fill="#000000" version="1.1" viewBox="0 0 5.9062 5.2969" xmlns="http://www.w3.org/2000/svg" xmlns:xlink="http://www.w3.org/1999/xlink">
<defs>
<g id="a">
<path d="m4.2031 0.17188c0.10938 0 0.23438-0.09375 0.23438-0.23438 0-0.09375-0.0625-0.17188-0.15625-0.21875-0.54688-0.1875-1.125-0.23438-1.6719-0.42188 0.17188-0.15625 0.35938-0.28125 0.57812-0.35938 0.4375-0.17188 1.0625-0.10938 1.5-0.5 0.45312-0.35938 0.53125-0.9375 0.53125-1.625 0-0.98438 0.1875-1.4844 1.1562-1.4844 0.21875 0 0.46875 0.03125 0.71875 0.03125 0.125 0 0.21875-0.10938 0.21875-0.23438s-0.09375-0.23438-0.21875-0.23438c-0.21875 0-0.46875-0.015625-0.71875-0.015625-0.35938 0-0.76562 0.046875-1.0781 0.3125-0.45312 0.375-0.53125 0.9375-0.53125 1.625 0 0.59375-0.046875 1.0312-0.35938 1.2812-0.40625 0.34375-1.0469 0.15625-1.75 0.59375 0.14062-0.40625 0.35938-1.0469 0.35938-1.2188 0-0.125-0.09375-0.23438-0.23438-0.23438-0.10938 0-0.20312 0.078125-0.23438 0.1875-0.34375 1.9531-1.1406 2.0625-1.1406 2.3594 0 0.046875 0.015625 0.078125 0.03125 0.10938 0.046875 0.078125 0.09375 0.10938 0.17188 0.10938 0.15625 0 0.42188-0.15625 0.98438-0.15625 0.78125 0 1.5156 0.32812 1.6094 0.32812z"/>
</g>
</defs>
<g transform="translate(-150.12 -129.64)">
<use x="148.71201" y="134.765" xlink:href="#a"/>
</g>
</svg>
