<?xml version="1.0" encoding="UTF-8"?>
<svg fill="#000000" version="1.1" viewBox="0 0 4.3125 4.0312" xmlns="http://www.w3.org/2000/svg" xmlns:xlink="http://www.w3.org/1999/xlink">
<defs>
<g id="a">
<path d="m0.78125-0.53125c0.0625 0 0.10938-0.015625 0.14062-0.0625 1.1406-0.9375 2.3594-1.7188 3.7188-1.7188 0.14062 0 0.23438-0.09375 0.23438-0.23438s-0.09375-0.21875-0.23438-0.21875c-1.3594 0-2.5781-0.79688-3.7188-1.7344-0.03125-0.046875-0.078125-0.0625-0.14062-0.0625-0.14062 0-0.21875 0.10938-0.21875 0.23438 0 0.0625 0.015625 0.125 0.078125 0.17188 0.76562 0.64062 1.6562 1.2812 2.6406 1.6094-0.98438 0.32812-1.875 0.96875-2.6406 1.6094-0.0625 0.046875-0.078125 0.10938-0.078125 0.17188 0 0.125 0.078125 0.23438 0.21875 0.23438z"/>
</g>
</defs>
<g transform="translate(-149.27 -130.2)">
<use x="148.71201" y="134.765" xlink:href="#a"/>
</g>
</svg>
