<?xml version="1.0" encoding="UTF-8"?>
<svg fill="#000000" version="1.1" viewBox="0 0 8.9062 7.3125" xmlns="http://www.w3.org/2000/svg" xmlns:xlink="http://www.w3.org/1999/xlink">
<defs>
<g id="a">
<path d="m6.4688-4.7188c-0.5 0.70312-0.90625 1.4062-1.375 2.1094-0.3125-0.09375-0.51562-0.29688-0.59375-0.5625-0.015625-0.0625-0.03125-0.14062-0.03125-0.23438 0-0.39062 0.21875-0.90625 0.60938-1.4219 0.65625-0.9375 1.8125-1.2969 2.9844-1.6562 0.125-0.03125 0.26562-0.078125 0.375-0.10938-0.78125 0.51562-1.4844 1.1875-1.9688 1.875zm0.53125 0.09375c0.59375-0.84375 1.4688-1.6562 2.4531-2.2812 0.03125-0.015625 0.03125-0.046875 0.03125-0.078125v-0.078125c-0.015625 0-0.015625-0.015625-0.015625-0.03125-0.015625-0.03125-0.046875-0.046875-0.078125-0.046875h-0.03125c-1.7969 0.73438-3.7344 0.67188-4.8125 2.2031-0.34375 0.5-0.53125 0.98438-0.53125 1.4062 0 0.15625 0.03125 0.3125 0.078125 0.4375 0.14062 0.35938 0.45312 0.59375 0.85938 0.71875l-0.17188 0.23438c-0.75 1.0469-1.9219 2.0781-2.8125 2.0781-0.6875 0-1.1719-0.17188-1.1719-0.57812 0-0.09375 0.015625-0.20312 0.078125-0.3125 0.0625 0.10938 0.17188 0.15625 0.29688 0.15625 0.25 0 0.54688-0.20312 0.54688-0.39062 0-0.25-0.14062-0.34375-0.32812-0.34375-0.20312 0-0.4375 0.125-0.5625 0.29688-0.17188 0.25-0.25 0.45312-0.25 0.64062 0 0.51562 0.625 0.76562 1.3594 0.76562 1.2031 0 2.9062-0.96875 3.7031-2.2188l0.1875-0.28125c0.26562-0.03125 0.59375-0.14062 0.90625-0.3125 0.375-0.20312 0.71875-0.48438 0.9375-0.79688 0.29688-0.40625 0.35938-0.78125 0.35938-1.1094 0-0.125 0-0.23438-0.015625-0.34375-0.015625-0.046875-0.046875-0.078125-0.078125-0.078125h-0.015625c-0.03125 0-0.0625 0.03125-0.09375 0.03125-0.03125 0.015625-0.046875 0.046875-0.046875 0.09375 0 0.078125 0.015625 0.15625 0.015625 0.23438 0 0.32812-0.09375 0.6875-0.375 1.0781-0.1875 0.26562-0.46875 0.53125-0.79688 0.71875-0.23438 0.125-0.46875 0.20312-0.67188 0.25 0.375-0.70312 0.54688-1.3594 1.0469-2.0625z"/>
</g>
</defs>
<g transform="translate(-149.29 -127.62)">
<use x="148.71201" y="134.765" xlink:href="#a"/>
</g>
</svg>
