<?xml version="1.0" encoding="UTF-8"?>
<svg fill="#000000" version="1.1" viewBox="0 0 8.8281 3.7031" xmlns="http://www.w3.org/2000/svg" xmlns:xlink="http://www.w3.org/1999/xlink">
<defs>
<g id="a">
<path d="m5.0781-2.2969h3.4688c-0.73438 0.54688-1.0625 1.375-1.0625 1.4531 0 0.09375 0.078125 0.125 0.14062 0.125 0.125 0 0.14062-0.0625 0.15625-0.09375 0.15625-0.34375 0.46875-1.0781 1.4688-1.5469 0.125-0.046875 0.14062-0.0625 0.14062-0.14062 0-0.0625-0.0625-0.09375-0.0625-0.09375-0.54688-0.25-1.125-0.60938-1.5312-1.5312-0.046875-0.09375-0.0625-0.14062-0.17188-0.14062-0.0625 0-0.14062 0.03125-0.14062 0.125 0 0.078125 0.32812 0.90625 1.0625 1.4531h-3.1875l0.75-1.125c0.078125-0.10938 0.17188-0.28125 0.17188-0.32812 0-0.125-0.09375-0.20312-0.1875-0.20312-0.046875 0-0.125 0-0.21875 0.14062l-1 1.5156h-3.4688c0.75-0.54688 1.0781-1.375 1.0781-1.4531 0-0.09375-0.078125-0.125-0.15625-0.125-0.10938 0-0.14062 0.0625-0.15625 0.09375-0.14062 0.35938-0.46875 1.0781-1.4688 1.5469-0.10938 0.046875-0.14062 0.0625-0.14062 0.125 0 0.078125 0.0625 0.09375 0.125 0.14062 0.82812 0.39062 1.2031 0.92188 1.4688 1.5 0.046875 0.09375 0.0625 0.14062 0.17188 0.14062 0.078125 0 0.15625-0.03125 0.15625-0.125 0-0.078125-0.32812-0.90625-1.0781-1.4531h3.2031l-0.76562 1.125c-0.0625 0.10938-0.17188 0.28125-0.17188 0.32812 0 0.125 0.09375 0.20312 0.20312 0.20312 0.046875 0 0.10938 0 0.21875-0.14062z"/>
</g>
</defs>
<g transform="translate(-149.27 -130.42)">
<use x="148.71201" y="134.765" xlink:href="#a"/>
</g>
</svg>
