<?xml version="1.0" encoding="UTF-8"?>
<svg fill="#000000" version="1.1" viewBox="0 0 6.4844 7.9844" xmlns="http://www.w3.org/2000/svg" xmlns:xlink="http://www.w3.org/1999/xlink">
<defs>
<g id="a">
<path d="m2.5 0.70312c0 0.15625 0.125 0.29688 0.29688 0.29688 0.15625 0 0.29688-0.14062 0.29688-0.29688v-2.8906h1.7969l-1.4062 3.375c-0.046875 0.125 0.0625 0.3125 0.20312 0.3125 0.09375 0 0.21875-0.046875 0.26562-0.15625l1.4688-3.5312h1.7344c0.17188 0 0.32812-0.125 0.32812-0.3125 0-0.17188-0.15625-0.29688-0.32812-0.29688h-1.4844l1.4062-3.375c0.046875-0.125-0.0625-0.3125-0.20312-0.3125-0.09375 0-0.21875 0.046875-0.26562 0.15625l-1.4688 3.5312h-2.0469v-2.8906c0-0.15625-0.14062-0.29688-0.29688-0.29688-0.17188 0-0.29688 0.14062-0.29688 0.29688zm-1.5 0c0 0.15625 0.14062 0.29688 0.29688 0.29688s0.29688-0.14062 0.29688-0.29688v-6.3906c0-0.15625-0.14062-0.29688-0.29688-0.29688s-0.29688 0.14062-0.29688 0.29688z"/>
</g>
</defs>
<g transform="translate(-149.71 -128.28)">
<use x="148.71201" y="134.765" xlink:href="#a"/>
</g>
</svg>
