<?xml version="1.0" encoding="UTF-8"?>
<svg fill="#000000" version="1.1" viewBox="0 0 6.6719 6.6719" xmlns="http://www.w3.org/2000/svg" xmlns:xlink="http://www.w3.org/1999/xlink">
<defs>
<g id="a">
<path d="m5.8125-2.5c0 0.45312-0.15625 0.89062-0.4375 1.2344l-2.75-2.7344c0.35938-0.28125 0.78125-0.4375 1.2344-0.4375 0.51562 0 1.0156 0.20312 1.375 0.5625 0.375 0.375 0.57812 0.85938 0.57812 1.375zm-3.4531-1.7812-1.4844-1.4844c-0.046875-0.046875-0.10938-0.0625-0.15625-0.0625-0.10938 0-0.1875 0.09375-0.1875 0.20312 0 0.046875 0 0.10938 0.046875 0.125l1.4844 1.5c-0.34375 0.42188-0.54688 0.95312-0.54688 1.5 0 0.625 0.25 1.2188 0.6875 1.6562 0.4375 0.45312 1.0312 0.6875 1.6562 0.6875 0.5625 0 1.0938-0.1875 1.5156-0.54688l1.4844 1.4844c0.03125 0.046875 0.09375 0.0625 0.14062 0.0625 0.09375 0 0.20312-0.09375 0.20312-0.20312 0-0.046875-0.03125-0.09375-0.0625-0.125l-1.4844-1.5c0.35938-0.42188 0.54688-0.95312 0.54688-1.5156 0-0.60938-0.23438-1.2031-0.6875-1.6406-0.4375-0.45312-1.0312-0.6875-1.6562-0.6875-0.54688 0-1.0938 0.1875-1.5 0.54688zm0.125 3.1719c-0.35938-0.375-0.57812-0.85938-0.57812-1.3906 0-0.4375 0.17188-0.875 0.45312-1.2188l2.7344 2.7344c-0.34375 0.28125-0.78125 0.4375-1.2344 0.4375-0.51562 0-1.0156-0.20312-1.375-0.5625z"/>
</g>
</defs>
<g transform="translate(-149.24 -128.94)">
<use x="148.71201" y="134.765" xlink:href="#a"/>
</g>
</svg>
