<?xml version="1.0" encoding="UTF-8"?>
<svg fill="#000000" version="1.1" viewBox="0 0 5.2188 5.6562" xmlns="http://www.w3.org/2000/svg" xmlns:xlink="http://www.w3.org/1999/xlink">
<defs>
<g id="a">
<path d="m5.7031 0.3125v-2.9844c0-1.5781-1.125-2.6719-2.6094-2.6719s-2.6094 1.1094-2.6094 2.7031v2.9531h0.65625v-2.9531c0-1.1406 0.89062-2.0469 1.9531-2.0469 1.0781 0 1.9531 0.92188 1.9531 2.0625v2.9375zm-1.3906 0v-2.9844c0-0.76562-0.5-1.2969-1.2188-1.2969s-1.2344 0.53125-1.2344 1.2969v2.9844h0.65625v-2.9688c0-0.35938 0.20312-0.65625 0.57812-0.65625s0.5625 0.29688 0.5625 0.65625v2.9688z"/>
</g>
</defs>
<g transform="translate(-149.2 -129.42)">
<use x="148.71201" y="134.765" xlink:href="#a"/>
</g>
</svg>
