<?xml version="1.0" encoding="UTF-8"?>
<svg fill="#000000" version="1.1" viewBox="0 0 5.875 5.5625" xmlns="http://www.w3.org/2000/svg" xmlns:xlink="http://www.w3.org/1999/xlink">
<defs>
<g id="a">
<path d="m6.1562-5.2969c-0.17188 0.70312-0.51562 1.0625-1.2031 1.0625-0.71875 0-1.8906-1.0625-2.8438-1.0625-0.98438 0-1.5781 0.73438-1.625 1.7344h0.1875c0.17188-0.71875 0.5625-1.0781 1.2656-1.0781 0.71875 0 1.875 1.0781 2.8438 1.0781s1.5156-0.89062 1.5625-1.7344zm0 1.9062c-0.17188 0.70312-0.5 1.0781-1.1875 1.0781-0.73438 0-1.8906-1.0781-2.8594-1.0781s-1.5781 0.73438-1.625 1.7344h0.20312c0.15625-0.70312 0.5625-1.0781 1.25-1.0781 0.71875 0 1.8906 1.0781 2.8438 1.0781 0.98438 0 1.5156-0.89062 1.5781-1.7344zm0 1.9219c-0.17188 0.70312-0.51562 1.0625-1.2031 1.0625-0.71875 0-1.8906-1.0625-2.8438-1.0625-0.98438 0-1.5781 0.73438-1.625 1.7344h0.1875c0.17188-0.71875 0.5625-1.0781 1.2656-1.0781 0.71875 0 1.875 1.0781 2.8438 1.0781s1.5156-0.89062 1.5625-1.7344z"/>
</g>
</defs>
<g transform="translate(-149.2 -129.47)">
<use x="148.71201" y="134.765" xlink:href="#a"/>
</g>
</svg>
