<?xml version="1.0" encoding="UTF-8"?>
<svg fill="#000000" version="1.1" viewBox="0 0 3.6682 6.3423" xmlns="http://www.w3.org/2000/svg" xmlns:xlink="http://www.w3.org/1999/xlink">
<defs>
<g id="a">
<path d="m0.53125-4.3125-0.078125 1.25-0.03125 0.42188h0.25c0.015625-0.3125 0.09375-0.70312 0.35938-0.89062 0.21875-0.15625 0.53125-0.17188 0.76562-0.17188 0.5625-0.03125 1.125-0.015625 1.6875-0.015625-0.1875 0.21875-0.40625 0.42188-0.60938 0.625-0.29688 0.32812-0.625 0.67188-0.9375 1-0.15625 0.15625-0.28125 0.29688-0.4375 0.45312-0.046875 0.0625-0.15625 0.125-0.17188 0.21875 0 0.0625 0.03125 0.10938 0.09375 0.10938 0.046875 0.03125 0.10938 0.015625 0.17188 0.015625 0.078125 0 0.14062 0.015625 0.20312 0.015625 0.51562 0.0625 1.0469 0.26562 1.2969 0.75 0.15625 0.29688 0.17188 0.65625 0.14062 0.98438-0.015625 0.3125-0.046875 0.64062-0.23438 0.90625-0.0625 0.078125-0.125 0.14062-0.1875 0.20312-0.45312 0.42188-1.2031 0.26562-1.6406-0.078125-0.14062-0.09375-0.25-0.21875-0.32812-0.35938 0.10938 0 0.1875-0.015625 0.28125-0.0625 0.21875-0.14062 0.28125-0.46875 0.125-0.67188-0.10938-0.125-0.25-0.1875-0.42188-0.1875-0.23438 0.03125-0.40625 0.21875-0.40625 0.46875 0 0.28125 0.10938 0.5625 0.29688 0.78125 0.20312 0.21875 0.45312 0.375 0.73438 0.45312 0.5 0.17188 1.0625 0.17188 1.5312-0.046875 0.21875-0.09375 0.4375-0.23438 0.60938-0.40625 0.14062-0.15625 0.25-0.32812 0.32812-0.51562 0.078125-0.15625 0.125-0.32812 0.15625-0.51562 0.0625-0.53125-0.125-1.0781-0.46875-1.4844-0.25-0.28125-0.5625-0.5-0.89062-0.625-0.21875-0.078125-0.45312-0.15625-0.67188-0.15625 0.0625-0.0625 0.10938-0.125 0.17188-0.1875 0.14062-0.125 0.26562-0.26562 0.39062-0.40625 0.32812-0.32812 0.625-0.65625 0.95312-0.98438 0.078125-0.09375 0.15625-0.17188 0.25-0.26562 0.046875-0.046875 0.125-0.125 0.15625-0.1875 0.015625-0.0625 0.015625-0.14062 0.015625-0.21875 0-0.046875 0-0.09375-0.015625-0.14062-0.03125-0.078125-0.125-0.078125-0.20312-0.078125z"/>
</g>
</defs>
<g transform="translate(-149.13 -130.45)">
<use x="148.71201" y="134.765" xlink:href="#a"/>
</g>
</svg>
