<?xml version="1.0" encoding="UTF-8"?>
<svg fill="#000000" version="1.1" viewBox="0 0 5.1562 6.8281" xmlns="http://www.w3.org/2000/svg" xmlns:xlink="http://www.w3.org/1999/xlink">
<defs>
<g id="a">
<path d="m3.375-4.6094c-0.1875 0-0.34375 0-0.34375 0.17188 0 0.14062 0.15625 0.17188 0.1875 0.17188 0.1875 0.03125 0.1875 0.26562 0.1875 0.28125 0 0.28125-0.1875 0.46875-0.40625 0.65625-0.20312 0.20312-0.75 0.67188-0.96875 0.875v-4.0156c0-0.34375-0.046875-0.35938-0.34375-0.35938h-1.1562c-0.1875 0-0.32812 0-0.32812 0.17188 0 0.14062 0.14062 0.17188 0.17188 0.17188 0.26562 0.046875 0.28125 0.45312 0.28125 0.79688v4.5469c0 0.73438-0.17188 0.76562-0.3125 0.79688-0.078125 0.015625-0.14062 0.078125-0.14062 0.17188 0 0.17188 0.14062 0.17188 0.32812 0.17188h1.6094c0.1875 0 0.32812 0 0.32812-0.17188 0-0.14062-0.125-0.17188-0.17188-0.17188-0.26562-0.0625-0.26562-0.4375-0.26562-0.625v-0.98438l0.10938-0.09375c0.20312 0.26562 0.75 0.95312 0.95312 1.2344 0.20312 0.21875 0.20312 0.25 0.26562 0.40625-0.078125 0.015625-0.03125 0.03125-0.125 0.046875-0.14062 0.015625-0.29688 0.015625-0.29688 0.1875s0.14062 0.17188 0.32812 0.17188h1.7656c0.17188 0 0.32812 0 0.32812-0.17188 0-0.14062-0.125-0.17188-0.15625-0.17188-0.078125-0.03125-0.09375-0.03125-0.14062-0.078125-0.25-0.23438-1.9219-2.375-1.9844-2.4688 0.046875-0.046875 0.57812-0.53125 0.70312-0.64062 0.59375-0.5 0.92188-0.70312 1.1875-0.73438 0.0625-0.015625 0.1875-0.03125 0.1875-0.17188 0-0.17188-0.14062-0.17188-0.32812-0.17188zm0.39062 0.64062c0-0.09375-0.015625-0.20312-0.0625-0.29688h0.4375zm-2.7656-1.75c0-0.26562-0.015625-0.54688-0.10938-0.76562h0.78125v5.5312c0 0.125 0 0.375 0.10938 0.60938h-0.89062c0.09375-0.21875 0.10938-0.5 0.10938-0.76562zm1.3906 3.4531 0.40625-0.39062 1.8438 2.3125h-0.9375c0-0.15625 0-0.25-0.17188-0.5z"/>
</g>
</defs>
<g transform="translate(-148.92 -127.94)">
<use x="148.71201" y="134.765" xlink:href="#a"/>
</g>
</svg>
