<?xml version="1.0" encoding="UTF-8"?>
<svg fill="#000000" version="1.1" viewBox="0 0 4.7969 8.375" xmlns="http://www.w3.org/2000/svg" xmlns:xlink="http://www.w3.org/1999/xlink">
<defs>
<g id="a">
<path d="m3.5-2.4219h1.5312c-0.125 0.95312-0.75 1.7656-1.6562 1.7656h-0.34375zm0.17188-0.64062 0.42188-1.5625c0.51562 0.29688 0.84375 0.89062 0.9375 1.5625zm0.4375-3.8594-0.39062 1.4844c-0.10938-0.015625-0.23438-0.03125-0.34375-0.03125h-2.4844v0.64062h2.4844c0.046875 0 0.10938 0.015625 0.17188 0.015625l-0.46875 1.75h-2.1875v0.64062h2.0156l-0.46875 1.7656h-1.5469v0.64062h1.375l-0.35938 1.3125 0.5625 0.15625 0.39062-1.4688h0.51562c1.3438 0 2.3125-1.2969 2.3125-2.7188 0-1.1094-0.54688-2.0938-1.4219-2.5156l0.40625-1.5312z"/>
</g>
</defs>
<g transform="translate(-149.6 -127.84)">
<use x="148.71201" y="134.765" xlink:href="#a"/>
</g>
</svg>
