<?xml version="1.0" encoding="UTF-8"?>
<svg fill="#000000" version="1.1" viewBox="0 0 6.3673 4.2808" xmlns="http://www.w3.org/2000/svg" xmlns:xlink="http://www.w3.org/1999/xlink">
<defs>
<g id="a">
<path d="m0.89062-4.625c-0.0625 0.03125-0.0625 0.10938-0.0625 0.17188 0 0.09375-0.015625 0.20312 0.09375 0.21875h0.17188 3.0312c0.3125 0 0.625-0.015625 0.92188 0 0.26562 0.015625 0.53125 0.078125 0.78125 0.20312 0.65625 0.32812 1.0781 1.0781 0.9375 1.8125-0.03125 0.17188-0.078125 0.34375-0.17188 0.5-0.09375 0.1875-0.23438 0.35938-0.39062 0.5-0.28125 0.23438-0.625 0.39062-0.98438 0.4375-0.28125 0.03125-0.57812 0.015625-0.85938 0.015625h-3.3281c-0.046875 0-0.078125 0-0.125 0.015625-0.03125 0-0.046875 0.015625-0.0625 0.046875s-0.015625 0.078125-0.015625 0.10938c0 0.078125-0.015625 0.17188 0.0625 0.21875 0.0625 0.015625 0.10938 0 0.15625 0h3.2188c0.3125 0 0.65625 0.03125 0.98438 0 0.45312-0.0625 0.875-0.25 1.2344-0.54688 0.17188-0.15625 0.3125-0.34375 0.4375-0.54688 0.45312-0.78125 0.32812-1.7969-0.28125-2.4531-0.29688-0.32812-0.70312-0.54688-1.1406-0.65625-0.32812-0.078125-0.67188-0.0625-1-0.0625h-3.3906c-0.0625 0-0.15625 0-0.21875 0.015625z"/>
</g>
</defs>
<g transform="translate(-149.54 -130.12)">
<use x="148.71201" y="134.765" xlink:href="#a"/>
</g>
</svg>
