<?xml version="1.0" encoding="UTF-8"?>
<svg fill="#000000" width="6.4219" height="7.8438" version="1.1" viewBox="0 0 6.4219 7.8437" xmlns="http://www.w3.org/2000/svg" xmlns:xlink="http://www.w3.org/1999/xlink">
<defs>
<g id="a">
<path d="m3.7344-4.9375c-0.39062 0-0.71875 0.32812-0.71875 0.70312 0 0.40625 0.32812 0.71875 0.71875 0.71875 0.40625 0 0.71875-0.32812 0.71875-0.71875s-0.34375-0.70312-0.71875-0.70312zm-2.5938 2.8281v-4.8281c0-0.17188-0.14062-0.3125-0.3125-0.3125s-0.29688 0.14062-0.29688 0.3125v4.8281c0 1.625 1.5469 2.7031 3.2031 2.7031 1.6719 0 3.2188-1.0781 3.2188-2.7031v-4.8281c0-0.17188-0.14062-0.3125-0.29688-0.3125-0.17188 0-0.3125 0.14062-0.3125 0.3125v4.8281c0 1.2656-1.2656 2.0938-2.6094 2.0938-1.3594 0-2.5938-0.82812-2.5938-2.0938z"/>
</g>
</defs>
<g transform="translate(-149.24 -128.29)">
<use x="148.71201" y="135.53999" xlink:href="#a"/>
</g>
</svg>
