<?xml version="1.0" encoding="UTF-8"?>
<svg fill="#000000" version="1.1" viewBox="0 0 8.8594 2.375" xmlns="http://www.w3.org/2000/svg" xmlns:xlink="http://www.w3.org/1999/xlink">
<defs>
<g id="a">
<path d="m9.4062-3.5625c0-0.078125-0.0625-0.14062-0.125-0.14062-0.015625 0-0.046875 0.015625-0.0625 0.03125 0 0.015625-0.015625 0.015625-0.14062 0.17188-0.78125 1-2.2031 1.7188-4.0938 1.7188-0.42188 0-1.375-0.015625-2.4062-0.4375-1.0781-0.46875-1.5625-1.1094-1.7969-1.4062-0.015625-0.03125-0.046875-0.078125-0.10938-0.078125s-0.125 0.0625-0.125 0.14062c0 0.10938 1.4531 2.2344 4.4219 2.2344 3.0156 0 4.4375-2.1406 4.4375-2.2344z"/>
</g>
</defs>
<g transform="translate(-149.26 -131.06)">
<use x="148.71201" y="134.765" xlink:href="#a"/>
</g>
</svg>
