<?xml version="1.0" encoding="UTF-8"?>
<svg fill="#000000" version="1.1" viewBox="0 0 8.4062 8.5625" xmlns="http://www.w3.org/2000/svg" xmlns:xlink="http://www.w3.org/1999/xlink">
<defs>
<g id="a">
<path d="m0.64062-0.21875 0.14062-0.21875c0-0.03125 0.03125-0.046875 0.0625-0.046875l0.32812 0.1875c0.03125 0.03125 0.03125 0.03125 0.03125 0.0625l-0.14062 0.25-0.046875 0.015625-0.32812-0.17188c-0.046875-0.015625-0.046875-0.03125-0.046875-0.078125zm0.28125-0.46875 0.10938-0.20312c0.03125-0.03125 0.046875-0.0625 0.078125-0.0625l0.34375 0.20312c0.015625 0.015625 0.015625 0.03125 0.015625 0.046875l-0.14062 0.26562-0.046875 0.015625-0.32812-0.1875c-0.03125-0.015625-0.03125-0.015625-0.03125-0.078125zm0.26562-0.45312 0.125-0.21875c0-0.03125 0.015625-0.046875 0.0625-0.046875l0.32812 0.1875c0.03125 0.015625 0.03125 0.046875 0.03125 0.0625l-0.125 0.25-0.0625 0.015625-0.32812-0.17188c-0.03125-0.03125-0.03125-0.03125-0.03125-0.078125zm0.0625 1.2969 0.14062-0.26562c0-0.015625 0.03125-0.015625 0.0625-0.015625l0.32812 0.17188c0.015625 0.015625 0.015625 0.046875 0.015625 0.078125l-0.125 0.25s-0.03125 0.015625-0.0625 0.015625zm0.20312-1.7656 0.125-0.21875c0-0.03125 0.03125-0.046875 0.0625-0.046875l0.32812 0.1875c0.03125 0.015625 0.03125 0.046875 0.03125 0.0625l-0.125 0.23438c0 0.03125-0.015625 0.03125-0.046875 0.03125l-0.34375-0.17188c-0.03125-0.015625-0.03125-0.03125-0.03125-0.078125zm0.078125 1.3125 0.125-0.26562c0.015625-0.03125 0.015625-0.03125 0.0625-0.03125l0.32812 0.1875c0.015625 0 0.03125 0.03125 0.03125 0.0625l-0.14062 0.25c0 0.015625-0.03125 0.015625-0.0625 0.015625zm0.25-0.46875 0.14062-0.26562c0.015625-0.015625 0.015625-0.015625 0.078125-0.015625l0.29688 0.17188c0.03125 0.015625 0.046875 0.03125 0.046875 0.0625l-0.14062 0.25c0 0.015625-0.015625 0.015625-0.0625 0.015625l-0.32812-0.1875c-0.015625-0.015625-0.03125-0.015625-0.03125-0.03125zm0.078125 1.2812 0.14062-0.26562c0.015625-0.015625 0.03125-0.03125 0.046875-0.03125l0.32812 0.1875c0.03125 0.015625 0.03125 0.015625 0.03125 0.078125l-0.17188 0.25-0.35938-0.20312zm0.1875-1.75 0.14062-0.26562s0.015625-0.015625 0.078125-0.015625l0.3125 0.1875c0.03125 0.015625 0.03125 0.015625 0.03125 0.078125l-0.14062 0.21875c0 0.03125 0 0.03125-0.0625 0.03125l-0.32812-0.20312c-0.015625-0.015625-0.03125-0.015625-0.03125-0.03125zm0.078125 1.2812 0.14062-0.25c0.015625-0.03125 0.03125-0.03125 0.0625-0.03125l0.3125 0.17188c0.03125 0.015625 0.046875 0.015625 0.046875 0.078125l-0.1875 0.26562-0.35938-0.21875zm0.26562-0.46875 0.125-0.23438c0.03125-0.03125 0.046875-0.046875 0.078125-0.046875l0.3125 0.17188c0.03125 0.015625 0.03125 0.03125 0.03125 0.09375l-0.17188 0.25-0.35938-0.20312zm0.26562-0.45312 0.14062-0.23438c0.015625-0.046875 0.03125-0.0625 0.0625-0.0625l0.32812 0.1875 0.015625 0.078125-0.15625 0.26562-0.375-0.21875zm-0.6875-1.9375 0.64062-1.1094c0.046875-0.10938 0.125-0.14062 0.26562-0.14062l0.078125 0.03125 1.375 0.79688c0.1875 0.10938 0.21875 0.15625 0.21875 0.3125l-0.64062 1.125c-0.03125 0.078125-0.125 0.125-0.25 0.125l-1.5625-0.89062c-0.078125-0.046875-0.125-0.125-0.125-0.25zm1.5469 2.5469-0.0625 0.09375c0.39062 0.10938 0.64062 0.125 1.125 0.125-0.375-0.015625-0.73438-0.09375-1.0625-0.21875zm0.5-0.82812-0.03125 0.0625 0.25 0.03125h0.34375l-0.29688-0.03125zm0.5625-4.1875c-0.57812 0-0.71875 0.046875-1.125 0.3125l0.20312 0.09375 0.1875-0.14062 0.25-0.125c0.14062-0.078125 0.3125-0.10938 0.48438-0.14062zm0-0.95312c-1.6719 0-2.75 1.0781-2.75 2.75l0.3125-0.54688c0.26562-1.3125 1.0938-2.0156 2.4375-2.2031zm0-0.95312c-0.8125 0-1.2812 0.10938-1.9531 0.48438-1.2188 0.84375-1.7656 1.75-1.7656 3.1719 0 0.39062 0.09375 0.8125 0.28125 1.2812l0.17188-0.29688-0.09375-0.29688-0.046875-0.375c-0.10938-2.2188 1.2031-3.7656 3.4062-3.9688zm-1.4531 2.2031c-0.078125 0-0.17188 0.03125-0.26562 0.09375l-0.75 1.0469-0.26562 0.4375-1.7188 3.2344c-0.046875 0.0625-0.0625 0.125-0.0625 0.1875 0 0.078125 0.03125 0.14062 0.125 0.21875l1.8281 1.0469c0.09375 0.0625 0.1875 0.09375 0.26562 0.09375s0.09375-0.03125 0.1875-0.125l2.1719-3.5156 0.51562-1.0781c0.03125-0.10938 0.0625-0.20312 0.0625-0.28125 0-0.0625-0.0625-0.26562-0.1875-0.35938-1.5781-0.9375-1.6719-0.96875-1.9062-1zm1.625-0.29688c0.90625 0.14062 1.4844 0.78125 1.5156 1.6406-0.015625 0.90625-0.60938 1.5469-1.5156 1.7031 1.0781 0 1.7969-0.70312 1.7969-1.7344 0-0.9375-0.75-1.6094-1.7969-1.6094zm0-0.95312c1.4375 0.14062 2.3906 1.1094 2.4688 2.625-0.03125 1.2812-0.90625 2.4688-2.4688 2.6094 1.2656 0 2.1406-0.57812 2.6094-1.7344l0.09375-0.39062c0.03125-0.17188 0.046875-0.5 0.046875-0.625 0-1.6406-1.5469-2.4844-2.75-2.4844zm0-0.95312c2 0.14062 3.4219 1.6406 3.4219 3.5938-0.09375 2.0156-1.3594 3.3125-3.4219 3.5625 2.1875 0 3.625-1.4219 3.7188-3.6875-0.0625-2.0156-1.5625-3.4531-3.7188-3.4688z"/>
</g>
</defs>
<g transform="translate(-148.77 -127.58)">
<use x="148.71201" y="134.765" xlink:href="#a"/>
</g>
</svg>
