<?xml version="1.0" encoding="UTF-8"?>
<svg fill="#000000" version="1.1" viewBox="0 0 4.9288 8.9567" xmlns="http://www.w3.org/2000/svg" xmlns:xlink="http://www.w3.org/1999/xlink">
<defs>
<g id="a">
<path d="m0.32812-6.8125v0.29688c0.15625 0 0.3125 0 0.45312 0.03125 0.125 0.03125 0.25 0.078125 0.28125 0.20312 0.0625 0.15625 0.046875 0.32812 0.046875 0.48438v4.8438c0 0.14062 0.03125 0.32812-0.046875 0.46875-0.046875 0.09375-0.14062 0.14062-0.25 0.14062-0.15625 0.03125-0.32812 0.03125-0.48438 0.03125v0.29688l0.89062-0.03125 0.90625 0.015625 0.42188 0.015625v-0.29688c-0.15625 0-0.3125 0-0.46875-0.03125-0.09375 0-0.1875-0.03125-0.23438-0.09375-0.0625-0.09375-0.0625-0.20312-0.0625-0.3125v-2.9688h2.8594c-0.20312 0.23438-0.42188 0.42188-0.64062 0.64062-0.32812 0.34375-0.65625 0.67188-0.98438 1-0.14062 0.15625-0.29688 0.29688-0.4375 0.46875-0.0625 0.046875-0.14062 0.10938-0.15625 0.1875-0.015625 0.0625 0.03125 0.10938 0.078125 0.10938 0.046875 0.03125 0.10938 0.015625 0.15625 0.015625 0.0625 0 0.10938 0.015625 0.17188 0.015625 0.48438 0.03125 1.0469 0.20312 1.3438 0.60938 0.21875 0.32812 0.26562 0.71875 0.23438 1.0938-0.015625 0.39062-0.09375 0.78125-0.375 1.0469-0.078125 0.078125-0.14062 0.14062-0.21875 0.1875-0.25 0.14062-0.5 0.17188-0.76562 0.14062-0.32812-0.015625-0.6875-0.078125-0.96875-0.26562-0.09375-0.0625-0.17188-0.14062-0.25-0.21875 0.0625 0 0.14062 0 0.20312-0.03125 0.23438-0.14062 0.32812-0.48438 0.15625-0.70312-0.078125-0.10938-0.21875-0.17188-0.35938-0.17188-0.0625 0-0.125 0-0.1875 0.015625-0.046875 0.03125-0.078125 0.046875-0.125 0.09375-0.26562 0.20312-0.17188 0.625 0 0.875 0.03125 0.046875 0.0625 0.09375 0.10938 0.14062 0.20312 0.1875 0.45312 0.3125 0.73438 0.39062 0.20312 0.0625 0.40625 0.09375 0.625 0.10938 0.39062 0.015625 0.78125-0.015625 1.125-0.17188 0.23438-0.10938 0.45312-0.25 0.64062-0.4375 0.14062-0.14062 0.26562-0.32812 0.35938-0.53125 0.078125-0.17188 0.125-0.35938 0.14062-0.5625 0.015625-0.10938 0-0.21875 0-0.32812-0.10938-1.0312-1.125-1.7812-2.0938-1.8438 0.54688-0.54688 1.0781-1.0938 1.625-1.6406 0.078125-0.078125 0.15625-0.17188 0.25-0.25 0.03125-0.046875 0.078125-0.09375 0.10938-0.14062 0.015625-0.0625 0-0.14062 0-0.20312 0-0.046875 0.015625-0.125-0.015625-0.17188-0.046875-0.078125-0.15625-0.0625-0.21875-0.0625h-3.125v-2.6094z"/>
</g>
</defs>
<g transform="translate(-149.04 -127.84)">
<use x="148.71201" y="134.765" xlink:href="#a"/>
</g>
</svg>
