<?xml version="1.0" encoding="UTF-8"?>
<svg fill="#000000" version="1.1" viewBox="0 0 6.5312 6.5312" xmlns="http://www.w3.org/2000/svg" xmlns:xlink="http://www.w3.org/1999/xlink">
<defs>
<g id="a">
<path d="m5.6562-0.015625c0 0.14062 0.10938 0.21875 0.21875 0.21875 0.0625 0 0.23438-0.03125 0.57812-0.03125 1.375 0 1.75 0.54688 1.9531 0.54688 0.14062 0 0.23438-0.10938 0.23438-0.23438 0-0.1875-0.53125-0.5625-0.53125-1.9531 0-0.32812 0.03125-0.51562 0.03125-0.5625 0-0.125-0.10938-0.23438-0.25-0.23438-0.21875 0-0.23438 0.23438-0.23438 0.48438v0.0625c0 0.35938 0.046875 0.71875 0.046875 1.0625v0.10938l-2.1094-2.1094 0.875-1.8906c0.046875-0.078125 0-0.17188-0.0625-0.20312-0.09375-0.03125-0.17188 0-0.20312 0.078125l-0.84375 1.7969-1.9844-2h0.03125c0.375 0 0.76562 0.046875 1.1406 0.046875h0.09375c0.21875 0 0.45312-0.015625 0.45312-0.25 0-0.14062-0.10938-0.21875-0.23438-0.21875-0.046875 0-0.21875 0.015625-0.5625 0.015625-1.3906 0-1.75-0.53125-1.9531-0.53125-0.14062 0-0.23438 0.125-0.23438 0.23438 0 0.1875 0.53125 0.5625 0.53125 1.9531 0 0.32812-0.015625 0.51562-0.015625 0.5625 0 0.125 0.09375 0.23438 0.21875 0.23438 0.23438 0 0.25-0.25 0.25-0.48438v-0.0625c0-0.35938-0.046875-0.71875-0.046875-1.0625v-0.10938l2.1094 2.1094-0.875 1.8906c-0.046875 0.078125 0 0.17188 0.0625 0.20312 0.078125 0.03125 0.17188 0 0.20312-0.078125l0.84375-1.7969 1.9844 2h-0.03125c-0.375 0-0.76562-0.046875-1.1406-0.046875h-0.10938c-0.21875 0-0.4375 0.015625-0.4375 0.25z"/>
</g>
</defs>
<g transform="translate(-150.82 -128.95)">
<use x="148.71201" y="134.765" xlink:href="#a"/>
</g>
</svg>
