<?xml version="1.0" encoding="UTF-8"?>
<svg fill="#000000" width="5.2188" height="6.2188" version="1.1" viewBox="0 0 5.2188 6.2187" xmlns="http://www.w3.org/2000/svg" xmlns:xlink="http://www.w3.org/1999/xlink">
<defs>
<g id="a">
<path d="m3.3438-5.3438c0.125 0 0.23438-0.09375 0.23438-0.23438 0-0.20312-0.375-0.4375-0.73438-0.4375-0.51562 0-0.9375 0.4375-0.9375 0.9375 0 0.25 0.09375 0.5 0.28125 0.67188l3.6719 3.6719h-0.03125c-0.375 0-0.76562-0.03125-1.1406-0.03125h-0.10938c-0.21875 0-0.4375 0.015625-0.4375 0.23438 0 0.14062 0.10938 0.23438 0.21875 0.23438 0.0625 0 0.23438-0.015625 0.57812-0.015625 1.375 0 1.7656 0.51562 1.9531 0.51562 0.14062 0 0.23438-0.10938 0.23438-0.21875 0-0.20312-0.53125-0.5625-0.53125-1.9531 0-0.34375 0.03125-0.51562 0.03125-0.57812 0-0.125-0.10938-0.21875-0.23438-0.21875-0.23438 0-0.25 0.23438-0.25 0.48438v0.0625c0 0.39062 0.046875 0.76562 0.046875 1.1719l-3.6875-3.6719c-0.09375-0.10938-0.14062-0.21875-0.14062-0.35938 0-0.28125 0.23438-0.46875 0.48438-0.46875 0.3125 0 0.32812 0.20312 0.5 0.20312z"/>
</g>
</defs>
<g transform="translate(-150.62 -128.75)">
<use x="148.71201" y="134.765" xlink:href="#a"/>
</g>
</svg>
