<?xml version="1.0" encoding="UTF-8"?>
<svg fill="#000000" width="9.9375" height="9.9688" version="1.1" viewBox="0 0 9.9375 9.9687" xmlns="http://www.w3.org/2000/svg" xmlns:xlink="http://www.w3.org/1999/xlink">
<defs>
<g id="a">
<path d="m10.5 4.9844c0-2.7656-2.2188-4.9844-4.9688-4.9844-2.7344 0-4.9688 2.2188-4.9688 4.9844s2.2344 4.9844 4.9688 4.9844c2.75 0 4.9688-2.2188 4.9688-4.9844zm-7.7344-3.2656c0.75-0.67188 1.7656-1.0312 2.7656-1.0312 1.0156 0 2.0312 0.375 2.7656 1.0312l-2.7656 2.7656zm-0.5 6.0469c-0.84375-1.0312-1.0156-2.0781-1.0156-2.7812 0-0.78125 0.21875-1.8125 1.0156-2.7812l2.7812 2.7812zm6.5312-5.5625c0.65625 0.78125 1.0156 1.7656 1.0156 2.7812 0 0.78125-0.21875 1.8125-1.0156 2.7812l-2.7812-2.7812zm-0.5 6.0469c-0.75 0.67188-1.7656 1.0312-2.7656 1.0312s-2.0156-0.375-2.7656-1.0312l2.7656-2.7656z"/>
</g>
</defs>
<g transform="translate(-149.27 -127.29)">
<use x="148.71201" y="127.293" xlink:href="#a"/>
</g>
</svg>
