<?xml version="1.0" encoding="UTF-8"?>
<svg fill="#000000" width="6.0312" height="8.9688" version="1.1" viewBox="0 0 6.0312 8.9687" xmlns="http://www.w3.org/2000/svg" xmlns:xlink="http://www.w3.org/1999/xlink">
<defs>
<g id="a">
<path d="m4.8125-6.6562c0-0.046875 0.015625-0.10938 0.015625-0.15625 0-0.09375-0.0625-0.10938-0.10938-0.10938-0.10938 0-0.10938 0.03125-0.15625 0.20312l-1.6562 6.5938c-0.75-0.09375-1.125-0.46875-1.125-1.125 0-0.20312 0-0.45312 0.53125-1.8438 0.046875-0.125 0.10938-0.29688 0.10938-0.5 0-0.4375-0.3125-0.8125-0.8125-0.8125-0.95312 0-1.3125 1.4531-1.3125 1.5312 0 0.10938 0.09375 0.10938 0.10938 0.10938 0.10938 0 0.10938-0.03125 0.15625-0.1875 0.28125-0.9375 0.67188-1.2344 1.0156-1.2344 0.078125 0 0.25 0 0.25 0.3125 0 0.26562-0.10938 0.51562-0.23438 0.85938-0.48438 1.2656-0.48438 1.5156-0.48438 1.6875 0 0.95312 0.78125 1.3594 1.7344 1.4219-0.078125 0.35938-0.078125 0.375-0.21875 0.90625-0.015625 0.10938-0.21875 0.90625-0.21875 0.9375 0 0.015625 0 0.10938 0.10938 0.10938 0.03125 0 0.078125 0 0.09375-0.046875 0.03125-0.015625 0.09375-0.26562 0.125-0.40625l0.375-1.4844c0.375 0 1.25 0 2.1875-1.0625 0.40625-0.46875 0.60938-0.90625 0.71875-1.2031 0.09375-0.25 0.3125-1.1094 0.3125-1.5469 0-0.5625-0.26562-0.70312-0.4375-0.70312-0.25 0-0.5 0.26562-0.5 0.48438 0 0.125 0.0625 0.1875 0.15625 0.26562 0.10938 0.10938 0.35938 0.35938 0.35938 0.84375 0 0.64062-0.51562 1.4531-0.875 1.8125-0.875 0.89062-1.5156 0.89062-1.875 0.89062z"/>
</g>
</defs>
<g transform="translate(-149.01 -127.84)">
<use x="148.71201" y="134.765" xlink:href="#a"/>
</g>
</svg>
