<?xml version="1.0" encoding="UTF-8"?>
<svg fill="#000000" version="1.1" viewBox="0 0 4.5938 9.5312" xmlns="http://www.w3.org/2000/svg" xmlns:xlink="http://www.w3.org/1999/xlink">
<defs>
<g id="a">
<path d="m4.6094-5.1562c0.125 0 0.23438-0.09375 0.23438-0.23438 0-0.078125-0.046875-0.15625-0.125-0.20312-1.9062-0.89062-1.6562-1.7188-2.0312-1.7188-0.14062 0-0.23438 0.10938-0.23438 0.21875 0 0.03125 0.015625 0.09375 0.015625 0.23438 0 1.1719-0.82812 2.0156-0.82812 2.2188 0 0.14062 0.09375 0.21875 0.21875 0.21875 0.21875 0 0.34375-0.32812 0.76562-1.1562 0.1875 0.85938 0.82812 1.1875 0.82812 1.7656 0 0.35938-0.23438 0.6875-0.60938 1.0625l-1.9688-0.71875c-0.09375-0.03125-0.20312 0.03125-0.20312 0.14062 0 0.0625 0.046875 0.125 0.10938 0.14062l1.8438 0.67188c-0.29688 0.32812-0.59375 0.73438-0.59375 1.2344 0 0.65625 0.53125 1.0938 0.73438 1.5469 0.078125 0.20312 0.125 0.45312 0.14062 0.70312-0.51562-0.26562-1.3594-0.90625-1.5781-0.90625-0.125 0-0.23438 0.09375-0.23438 0.23438 0 0.078125 0.046875 0.15625 0.125 0.20312 1.9062 0.89062 1.6562 1.7188 2.0469 1.7188 0.14062 0 0.21875-0.10938 0.21875-0.23438v-0.21875c0-1.1719 0.82812-2.0156 0.82812-2.2188 0-0.14062-0.10938-0.21875-0.23438-0.21875-0.20312 0-0.34375 0.32812-0.76562 1.1562-0.1875-0.85938-0.82812-1.1875-0.82812-1.7656 0-0.35938 0.23438-0.6875 0.60938-1.0625l1.9531 0.71875c0.10938 0.03125 0.21875-0.03125 0.21875-0.14062 0-0.0625-0.046875-0.125-0.10938-0.14062l-1.8438-0.67188c0.3125-0.32812 0.60938-0.73438 0.60938-1.2344 0-0.65625-0.54688-1.0938-0.73438-1.5469-0.09375-0.20312-0.14062-0.45312-0.15625-0.70312 0.51562 0.26562 1.3594 0.90625 1.5781 0.90625z"/>
</g>
</defs>
<g transform="translate(-149.38 -127.45)">
<use x="148.71201" y="134.765" xlink:href="#a"/>
</g>
</svg>
