<?xml version="1.0" encoding="UTF-8"?>
<svg fill="#000000" width="5.4531" height="8.8438" version="1.1" viewBox="0 0 5.4531 8.8437" xmlns="http://www.w3.org/2000/svg" xmlns:xlink="http://www.w3.org/1999/xlink">
<defs>
<g id="a">
<path d="m4.2031-6.5625c0-0.17188 0-0.35938-0.20312-0.35938-0.1875 0-0.1875 0.1875-0.1875 0.35938v6.3281c-0.39062 0.45312-0.65625 1-0.76562 1.25-0.125-0.26562-0.39062-0.8125-0.78125-1.25v-6.3281c0-0.17188 0-0.35938-0.1875-0.35938-0.20312 0-0.20312 0.1875-0.20312 0.35938v5.8594c-0.39062-0.35938-0.53125-0.4375-0.6875-0.54688-0.32812-0.23438-0.70312-0.4375-0.76562-0.4375-0.10938 0-0.10938 0.10938-0.10938 0.1875 0 0.14062 0 0.17188 0.10938 0.21875 1.5469 0.79688 2.2031 2.0156 2.5156 3.125 0.015625 0.0625 0.0625 0.078125 0.10938 0.078125 0.078125 0 0.09375-0.0625 0.10938-0.10938 0.375-1.2969 1.1094-2.375 2.5312-3.1094 0.078125-0.03125 0.078125-0.09375 0.078125-0.20312 0-0.078125 0-0.1875-0.10938-0.1875-0.046875 0-0.45312 0.21875-0.76562 0.42188-0.20312 0.15625-0.34375 0.26562-0.6875 0.5625z"/>
</g>
</defs>
<g transform="translate(-149.02 -127.84)">
<use x="148.71201" y="134.765" xlink:href="#a"/>
</g>
</svg>
