<?xml version="1.0" encoding="UTF-8"?>
<svg fill="#000000" version="1.1" viewBox="0 0 7.1094 4.7969" xmlns="http://www.w3.org/2000/svg" xmlns:xlink="http://www.w3.org/1999/xlink">
<defs>
<g id="a">
<path d="m7.4219-1.3281c0.14062 0 0.21875-0.125 0.21875-0.23438 0-0.046875-0.1875-0.6875-0.1875-1.3281 0-0.8125 0.25-1.0469 0.25-1.2344 0-0.125-0.09375-0.23438-0.21875-0.23438-0.28125 0-0.5 0.76562-2.4219 0.9375-0.125 0-0.21875 0.10938-0.21875 0.21875 0 0.14062 0.10938 0.23438 0.23438 0.23438 0.34375 0 1.2188-0.26562 1.7344-0.32812-0.60938 0.92188-1.625 1.4844-2.75 1.5l-0.8125-2.2344c-0.03125-0.078125-0.125-0.125-0.1875-0.09375-0.078125 0.03125-0.125 0.10938-0.09375 0.1875l0.78125 2.1406c-1.25-0.09375-2.2188-0.82812-2.7188-1.7969-0.03125-0.078125-0.10938-0.14062-0.20312-0.14062-0.125 0-0.23438 0.125-0.23438 0.23438 0 0.1875 1.0156 2.125 3.3281 2.1719l0.60938 1.6719c0.015625 0.0625 0.078125 0.09375 0.14062 0.09375 0.10938 0 0.15625-0.10938 0.14062-0.20312l-0.57812-1.5781c1.0938-0.0625 2.0781-0.59375 2.7656-1.4219 0.14062 1.0469 0.125 1.4375 0.42188 1.4375z"/>
</g>
</defs>
<g transform="translate(-149.31 -130.41)">
<use x="148.71201" y="134.765" xlink:href="#a"/>
</g>
</svg>
