<?xml version="1.0" encoding="UTF-8"?>
<svg fill="#000000" version="1.1" viewBox="0 0 8.9062 7.2031" xmlns="http://www.w3.org/2000/svg" xmlns:xlink="http://www.w3.org/1999/xlink">
<defs>
<g id="a">
<path d="m6.4062-7.0625c-0.70312 0-1.5156 0.1875-2.375 0.625-0.71875 0.35938-1.4219 0.90625-1.8594 1.5-0.34375 0.48438-0.54688 0.96875-0.54688 1.375 0 0.078125 0.015625 0.14062 0.015625 0.1875 0.078125 0.4375 0.40625 0.6875 0.95312 0.6875 0.34375 0 0.76562-0.10938 1.1719-0.3125 0.375-0.20312 0.73438-0.48438 0.95312-0.78125 0.39062-0.5625 0.5625-1.0938 0.5625-1.5469 0-0.09375-0.015625-0.1875-0.03125-0.28125 0-0.046875-0.046875-0.078125-0.09375-0.078125-0.015625 0.015625-0.046875 0.03125-0.078125 0.046875s-0.046875 0.03125-0.046875 0.0625v0.078125c0 0.42188-0.40625 1-0.82812 1.6094-0.1875 0.26562-0.42188 0.51562-0.71875 0.70312-0.29688 0.20312-0.60938 0.28125-0.85938 0.28125-0.4375 0-0.6875-0.20312-0.73438-0.51562v-0.125c0-0.35938 0.1875-0.8125 0.53125-1.2812 0.39062-0.5625 1.0312-1.0781 1.7344-1.4375 0.78125-0.39062 1.5625-0.57812 2.2031-0.57812 0.75 0 1.3906 0.10938 1.8281 0.39062-1.625 1.2031-2.7656 2.8281-3.8281 4.3125-0.71875 1.0312-1.7812 2.0625-2.6094 2.0625-0.6875 0-1.2031-0.1875-1.2031-0.57812 0-0.09375 0.03125-0.1875 0.078125-0.29688 0.0625 0.10938 0.17188 0.15625 0.29688 0.15625 0.25 0 0.54688-0.20312 0.54688-0.39062 0-0.25-0.14062-0.34375-0.32812-0.34375-0.20312 0-0.4375 0.125-0.5625 0.29688-0.17188 0.23438-0.23438 0.4375-0.23438 0.60938 0 0.53125 0.64062 0.76562 1.3594 0.76562 1.1406 0 2.7031-1.0312 3.5156-2.1875 0.21875-0.3125 0.45312-0.64062 0.70312-0.96875 0.14062 0.046875 0.29688 0.0625 0.45312 0.0625 0.35938 0 0.79688-0.14062 1.2188-0.375 0.15625 0.09375 0.26562 0.23438 0.32812 0.39062 0.015625 0.078125 0.03125 0.15625 0.03125 0.25 0 0.32812-0.17188 0.78125-0.5 1.2344-0.25 0.34375-0.51562 0.67188-0.89062 0.9375-0.3125 0.23438-0.65625 0.375-0.90625 0.375-0.32812 0-0.54688-0.125-0.59375-0.32812-0.015625-0.046875-0.015625-0.09375-0.015625-0.14062 0-0.20312 0.09375-0.45312 0.29688-0.73438 0.125-0.1875 0.375-0.34375 0.60938-0.45312 0.3125-0.14062 0.59375-0.1875 0.84375-0.1875 0.03125 0 0.046875-0.015625 0.078125-0.03125l0.03125-0.0625c0.015625 0 0.015625-0.03125 0.015625-0.046875 0-0.03125-0.046875-0.078125-0.078125-0.078125-0.29688 0-0.625 0.0625-0.96875 0.21875-0.26562 0.125-0.5625 0.3125-0.71875 0.53125-0.21875 0.3125-0.32812 0.60938-0.32812 0.875 0 0.0625 0 0.125 0.015625 0.1875 0.09375 0.3125 0.375 0.46875 0.76562 0.46875 0.375 0 0.82812-0.15625 1.2656-0.42188s0.82812-0.64062 1.0938-1c0.29688-0.4375 0.45312-0.84375 0.45312-1.2031 0-0.17188-0.03125-0.34375-0.10938-0.48438-0.09375-0.20312-0.25-0.35938-0.45312-0.48438 0.42188-0.26562 0.78125-0.60938 1.0312-0.96875s0.35938-0.6875 0.35938-0.98438c0-0.32812-0.14062-0.625-0.375-0.84375-0.046875-0.0625-0.09375-0.10938-0.15625-0.15625 0.14062-0.125 0.26562-0.20312 0.375-0.28125 0.015625-0.015625 0.03125-0.03125 0.03125-0.0625l-0.015625-0.10938c-0.015625-0.03125-0.046875-0.0625-0.09375-0.0625 0 0-0.03125 0-0.03125 0.015625l-0.51562 0.32812c-0.54688-0.3125-1.2656-0.42188-2.0625-0.42188zm0.40625 3.3281c-0.125 0-0.25 0-0.39062 0.03125 0.70312-0.96875 1.4375-1.9219 2.0469-2.5312 0.17188 0.17188 0.26562 0.40625 0.26562 0.67188 0 0.28125-0.10938 0.60938-0.375 0.98438-0.21875 0.32812-0.5 0.65625-0.85938 0.92188-0.1875-0.046875-0.4375-0.078125-0.6875-0.078125zm-0.42188 0.4375c0.078125-0.125 0.125-0.15625 0.125-0.15625 0.078125-0.0625 0.17188-0.0625 0.26562-0.0625 0.17188 0 0.32812 0.015625 0.46875 0.046875-0.29688 0.17188-0.59375 0.28125-0.82812 0.28125h-0.10938c0.015625-0.03125 0.046875-0.0625 0.078125-0.10938z"/>
</g>
</defs>
<g transform="translate(-149.06 -127.7)">
<use x="148.71201" y="134.765" xlink:href="#a"/>
</g>
</svg>
