<?xml version="1.0" encoding="UTF-8"?>
<svg fill="#000000" version="1.1" viewBox="0 0 5.5156 5.5" xmlns="http://www.w3.org/2000/svg" xmlns:xlink="http://www.w3.org/1999/xlink">
<defs>
<g id="a">
<path d="m2.1094-5.0781c0 0.0625 0.03125 0.125 0.078125 0.15625l1 1.0312c0.046875 0.03125 0.10938 0.0625 0.15625 0.0625 0.125 0 0.23438-0.09375 0.23438-0.23438 0-0.046875-0.015625-0.10938-0.0625-0.17188l-1.0156-1c-0.03125-0.046875-0.09375-0.0625-0.15625-0.0625-0.125 0-0.23438 0.078125-0.23438 0.21875zm1.5469 4.2812 1.9375-4.125c0.03125-0.078125 0-0.17188-0.078125-0.20312-0.015625-0.015625-0.046875-0.015625-0.0625-0.015625-0.0625 0-0.10938 0.03125-0.14062 0.09375l-1.9219 4.125c-0.015625 0.015625-0.015625 0.03125-0.015625 0.046875 0 0.10938 0.078125 0.15625 0.15625 0.15625 0.046875 0 0.10938-0.015625 0.125-0.078125zm3.9688 0.78125c0-0.20312-0.53125-0.5625-0.53125-1.9531 0-0.34375 0.03125-0.51562 0.03125-0.57812 0-0.125-0.09375-0.21875-0.23438-0.21875-0.23438 0-0.23438 0.23438-0.23438 0.48438v0.0625c0 0.39062 0.03125 0.76562 0.03125 1.1719l-0.89062-0.90625c-0.0625-0.046875-0.10938-0.0625-0.17188-0.0625-0.125 0-0.23438 0.078125-0.23438 0.21875 0 0.0625 0.03125 0.125 0.078125 0.17188l0.90625 0.89062h-0.03125c-0.375 0-0.76562-0.03125-1.1562-0.03125h-0.09375c-0.21875 0-0.45312 0.015625-0.45312 0.23438 0 0.14062 0.10938 0.23438 0.23438 0.23438 0.046875 0 0.23438-0.015625 0.5625-0.015625 1.3906 0 1.7656 0.51562 1.9531 0.51562 0.14062 0 0.23438-0.10938 0.23438-0.21875z"/>
</g>
</defs>
<g transform="translate(-150.82 -129.47)">
<use x="148.71201" y="134.765" xlink:href="#a"/>
</g>
</svg>
