<?xml version="1.0" encoding="UTF-8"?>
<svg fill="#000000" version="1.1" viewBox="0 0 4.2656 4.5156" xmlns="http://www.w3.org/2000/svg" xmlns:xlink="http://www.w3.org/1999/xlink">
<defs>
<g id="a">
<path d="m0.95312-2.1406v-1.7812c0-0.17188 0-0.375-0.20312-0.375-0.1875 0-0.1875 0.17188-0.1875 0.34375v2.0469l-0.625 0.35938c-0.046875 0.03125-0.14062 0.078125-0.14062 0.1875s0.078125 0.20312 0.20312 0.20312c0.0625 0 0.078125 0 0.29688-0.125 0-0.015625 0.17188-0.10938 0.26562-0.17188v1.3281c0 0.17188 0 0.34375 0.1875 0.34375 0.20312 0 0.20312-0.20312 0.20312-0.375v-1.5312l1.9531-1.1562v2.6875c0 0.17188 0 0.375 0.20312 0.375s0.20312-0.17188 0.20312-0.34375v-2.9531l0.625-0.35938c0.046875-0.03125 0.125-0.078125 0.125-0.1875s-0.078125-0.20312-0.1875-0.20312c-0.0625 0-0.09375 0-0.29688 0.125 0 0.015625-0.17188 0.10938-0.26562 0.17188v-0.42188c0-0.17188 0-0.34375-0.20312-0.34375s-0.20312 0.20312-0.20312 0.375v0.625z"/>
</g>
</defs>
<g transform="translate(-148.51 -130.47)">
<use x="148.71201" y="134.765" xlink:href="#a"/>
</g>
</svg>
