<?xml version="1.0" encoding="UTF-8"?>
<svg fill="#000000" version="1.1" viewBox="0 0 4.5694 8.9569" xmlns="http://www.w3.org/2000/svg" xmlns:xlink="http://www.w3.org/1999/xlink">
<defs>
<g id="a">
<path d="m0.32812-6.8125v0.29688c0.15625 0 0.3125 0 0.45312 0.03125 0.125 0.03125 0.25 0.078125 0.28125 0.20312 0.0625 0.15625 0.046875 0.32812 0.046875 0.48438v4.8438c0 0.14062 0.03125 0.32812-0.046875 0.46875-0.046875 0.09375-0.14062 0.14062-0.25 0.14062-0.15625 0.03125-0.32812 0.03125-0.48438 0.03125v0.29688l0.89062-0.03125 0.90625 0.015625 0.42188 0.015625v-0.29688c-0.15625 0-0.29688 0-0.46875-0.03125-0.078125 0-0.17188-0.015625-0.21875-0.078125-0.078125-0.078125-0.078125-0.1875-0.078125-0.28125v-2.7656c0-0.078125-0.03125-0.20312 0.015625-0.26562 0.015625-0.046875 0.0625-0.0625 0.09375-0.078125 0.32812-0.20312 0.70312-0.28125 1.0625-0.3125 0.14062-0.015625 0.32812-0.03125 0.46875 0.03125 0.10938 0.046875 0.1875 0.14062 0.25 0.23438 0.14062 0.21875 0.1875 0.51562 0.17188 0.76562-0.03125 0.1875-0.10938 0.35938-0.1875 0.51562-0.15625 0.28125-0.3125 0.5625-0.3125 0.89062 0 0.15625 0.09375 0.32812 0.17188 0.48438 0.1875 0.34375 0.48438 0.65625 0.51562 1.0625 0.015625 0.046875 0 0.10938 0 0.15625 0 0.078125 0.015625 0.17188 0.015625 0.25-0.015625 0.4375-0.15625 0.89062-0.45312 1.2188-0.078125 0.078125-0.17188 0.15625-0.28125 0.21875-0.29688 0.15625-0.67188 0.125-0.98438 0.046875-0.28125-0.0625-0.54688-0.1875-0.75-0.40625 0.14062 0 0.29688-0.03125 0.39062-0.14062 0.1875-0.21875 0.14062-0.59375-0.125-0.71875-0.26562-0.14062-0.59375 0-0.67188 0.28125-0.046875 0.20312 0.03125 0.42188 0.10938 0.59375 0.1875 0.32812 0.59375 0.51562 0.95312 0.60938 0.8125 0.1875 1.75-0.015625 2.2812-0.70312 0.17188-0.21875 0.29688-0.48438 0.34375-0.75 0.015625-0.10938 0.03125-0.21875 0.03125-0.32812 0-0.0625 0.015625-0.125 0-0.20312 0-0.29688-0.10938-0.60938-0.28125-0.875-0.10938-0.1875-0.29688-0.32812-0.4375-0.5-0.078125-0.078125-0.15625-0.17188-0.17188-0.28125-0.015625-0.078125 0-0.14062 0.03125-0.21875 0.03125-0.15625 0.10938-0.29688 0.20312-0.45312 0.125-0.20312 0.23438-0.42188 0.29688-0.67188v-0.23438c0-0.15625-0.03125-0.3125-0.10938-0.46875-0.046875-0.125-0.10938-0.23438-0.1875-0.32812l-0.1875-0.1875c-0.20312-0.17188-0.45312-0.26562-0.71875-0.29688-0.10938 0-0.21875 0-0.32812 0.015625-0.29688 0.015625-0.59375 0.09375-0.875 0.20312-0.125 0.0625-0.23438 0.125-0.34375 0.20312v-2.8125z"/>
</g>
</defs>
<g transform="translate(-149.04 -127.84)">
<use x="148.71201" y="134.765" xlink:href="#a"/>
</g>
</svg>
