<?xml version="1.0" encoding="UTF-8"?>
<svg fill="#000000" version="1.1" viewBox="0 0 7.1875 10.672" xmlns="http://www.w3.org/2000/svg" xmlns:xlink="http://www.w3.org/1999/xlink">
<defs>
<g id="a">
<path d="m3.3125-3.6562 0.64062 0.92188-0.64062 0.90625c-0.1875-0.26562-0.29688-0.57812-0.29688-0.90625 0-0.34375 0.10938-0.65625 0.29688-0.92188zm3.2812 0.92188c0-0.5625-0.21875-1.1094-0.60938-1.5-0.40625-0.40625-0.9375-0.625-1.5-0.625-0.28125 0-0.54688 0.0625-0.79688 0.17188l-1.7031-2.5156h6.0938v-0.875h-7.1875v0.875l2.0625 3c-0.375 0.40625-0.57812 0.92188-0.57812 1.4688 0 0.53125 0.20312 1.0469 0.57812 1.4531l-2.0625 3v0.875h7.1875v-0.875h-6.0938l1.7031-2.5c0.25 0.09375 0.51562 0.15625 0.79688 0.15625 0.5625 0 1.0938-0.21875 1.5-0.625 0.39062-0.39062 0.60938-0.9375 0.60938-1.4844zm-2.1094 1.4688c-0.14062 0-0.28125-0.015625-0.42188-0.0625l0.96875-1.4062-0.96875-1.4219c0.14062-0.046875 0.28125-0.0625 0.42188-0.0625 0.79688 0 1.4844 0.67188 1.4844 1.4844 0 0.79688-0.67188 1.4688-1.4844 1.4688z"/>
</g>
</defs>
<g transform="translate(-149.6 -126.69)">
<use x="148.71201" y="134.765" xlink:href="#a"/>
</g>
</svg>
