<?xml version="1.0" encoding="UTF-8"?>
<svg fill="#000000" version="1.1" viewBox="0 0 6.1032 6.8788" xmlns="http://www.w3.org/2000/svg" xmlns:xlink="http://www.w3.org/1999/xlink">
<defs>
<g id="a">
<path d="m2.625-2.9688v-0.015625c0.21875-0.03125 0.45312-0.10938 0.65625-0.1875 0.42188-0.14062 0.85938-0.3125 1.2656-0.53125 0.375-0.20312 0.73438-0.40625 1.0781-0.64062 0.35938-0.23438 0.71875-0.5 1.0469-0.78125 0.078125-0.0625 0.1875-0.125 0.23438-0.20312 0.03125-0.046875 0.015625-0.10938-0.03125-0.14062-0.03125-0.03125-0.078125-0.03125-0.10938-0.03125-0.09375 0-0.20312-0.015625-0.28125 0.03125-0.10938 0.046875-0.20312 0.15625-0.29688 0.21875-0.17188 0.15625-0.35938 0.29688-0.5625 0.42188-1.0156 0.73438-2.1719 1.2969-3.4062 1.5312-0.29688 0.046875-0.60938 0.09375-0.90625 0.10938h-0.28125c-0.046875 0-0.10938 0-0.15625 0.03125-0.0625 0.046875-0.0625 0.20312-0.046875 0.28125 0.03125 0.14062 0.23438 0.078125 0.34375 0.09375 0.14062 0.015625 0.28125 0.015625 0.40625 0.03125 0.23438 0.015625 0.46875 0.0625 0.6875 0.09375 1.3125 0.26562 2.5156 0.89062 3.5938 1.6719 0.14062 0.10938 0.28125 0.23438 0.42188 0.34375 0.0625 0.046875 0.14062 0.125 0.23438 0.15625 0.03125 0.015625 0.078125 0.015625 0.10938 0.015625 0.078125 0 0.25 0.03125 0.28125-0.0625 0.0625-0.10938-0.09375-0.20312-0.17188-0.25-0.21875-0.20312-0.46875-0.39062-0.71875-0.5625-0.73438-0.54688-1.5469-1.0156-2.4062-1.3281-0.20312-0.078125-0.42188-0.15625-0.64062-0.20312-0.10938-0.046875-0.23438-0.078125-0.34375-0.09375zm0.79688 3.4531c-0.15625 0.21875-0.35938 0.40625-0.54688 0.60938-0.046875 0.046875-0.15625 0.15625-0.078125 0.23438 0.03125 0.046875 0.09375 0.046875 0.14062 0.046875 0.10938 0 0.20312 0.015625 0.28125-0.0625 0.0625-0.0625 0.125-0.125 0.1875-0.20312 0.10938-0.125 0.21875-0.23438 0.34375-0.375 0.03125-0.046875 0.09375-0.10938 0.14062-0.15625 0.03125-0.03125 0.0625-0.0625 0.09375-0.078125 0.046875-0.03125 0.14062-0.015625 0.21875-0.015625h2.4219c0.078125 0 0.15625 0.015625 0.21875 0 0.078125-0.03125 0.078125-0.10938 0.078125-0.17188 0-0.09375 0.015625-0.20312-0.09375-0.21875-0.046875-0.015625-0.10938 0-0.15625 0h-2.3281c0.15625-0.21875 0.34375-0.40625 0.53125-0.60938 0.0625-0.046875 0.17188-0.15625 0.078125-0.23438-0.03125-0.046875-0.09375-0.046875-0.14062-0.046875-0.09375 0-0.20312-0.015625-0.28125 0.0625-0.0625 0.0625-0.10938 0.125-0.17188 0.20312-0.125 0.125-0.23438 0.23438-0.35938 0.375-0.03125 0.046875-0.078125 0.10938-0.125 0.15625-0.03125 0.03125-0.0625 0.0625-0.09375 0.078125-0.0625 0.03125-0.15625 0.015625-0.21875 0.015625h-2.4375c-0.0625 0-0.14062-0.015625-0.21875 0-0.078125 0.03125-0.078125 0.10938-0.078125 0.17188 0 0.09375-0.015625 0.20312 0.09375 0.21875 0.0625 0.015625 0.10938 0 0.17188 0z"/>
</g>
</defs>
<g transform="translate(-149.53 -129.26)">
<use x="148.71201" y="134.765" xlink:href="#a"/>
</g>
</svg>
