<?xml version="1.0" encoding="UTF-8"?>
<svg fill="#000000" version="1.1" viewBox="0 0 5.5469 7.8906" xmlns="http://www.w3.org/2000/svg" xmlns:xlink="http://www.w3.org/1999/xlink">
<defs>
<g id="a">
<path d="m6.4062-2.4688v-0.10938l-2.5156-1.2344c0.28125-0.85938 0.85938-1.7344 1.7656-2.2031l-0.25-0.45312c-0.6875 0.40625-1.5781 1.1875-2 2.4219l-0.90625-0.45312c0.32812-0.60938 0.8125-1.1719 1.4688-1.5156l-0.26562-0.45312c-0.54688 0.32812-1.2188 0.89062-1.6875 1.75l-1.1562-0.57812v0.65625l0.90625 0.46875c-0.1875 0.46875-0.29688 1.0156-0.29688 1.6562 0 0.625 0.09375 1.1875 0.28125 1.6406l-0.89062 0.45312v0.67188l1.1406-0.5625c0.46875 0.84375 1.1562 1.4062 1.7031 1.7344l0.26562-0.42188c-0.67188-0.35938-1.1562-0.9375-1.4844-1.5469l0.92188-0.45312c0.40625 1.25 1.2969 2 2 2.4219l0.25-0.42188c-0.90625-0.48438-1.4844-1.375-1.7656-2.2344zm-1.3594-0.046875-1.3281 0.65625c-0.046875-0.21875-0.0625-0.45312-0.0625-0.65625 0-0.21875 0.015625-0.4375 0.0625-0.67188zm-1.7969-0.90625c-0.0625 0.26562-0.09375 0.57812-0.09375 0.90625s0.03125 0.625 0.078125 0.90625l-1 0.5c-0.1875-0.5-0.26562-1-0.26562-1.4062 0-0.42188 0.078125-0.92188 0.28125-1.4219z"/>
</g>
</defs>
<g transform="translate(-149.57 -128.3)">
<use x="148.71201" y="134.765" xlink:href="#a"/>
</g>
</svg>
