<?xml version="1.0" encoding="UTF-8"?>
<svg fill="#000000" version="1.1" viewBox="0 0 7.7812 7.7812" xmlns="http://www.w3.org/2000/svg" xmlns:xlink="http://www.w3.org/1999/xlink">
<defs>
<g id="a">
<path d="m8.4062 1.1094c0-0.046875-0.015625-0.10938-0.0625-0.15625l-2.75-2.75 0.59375-1.2812 3.0781 3.0938c0.0625 0.046875 0.10938 0.0625 0.17188 0.0625 0.125 0 0.23438-0.09375 0.23438-0.23438 0-0.046875-0.03125-0.10938-0.078125-0.15625l-3.2031-3.2031 0.73438-1.5781c0.046875-0.078125 0.015625-0.17188-0.0625-0.20312s-0.17188 0-0.20312 0.078125l-0.6875 1.4844-2.6406-2.6406c-0.03125-0.03125-0.09375-0.0625-0.15625-0.0625-0.10938 0-0.21875 0.09375-0.21875 0.23438 0 0.046875 0.015625 0.10938 0.0625 0.15625l2.75 2.75-0.60938 1.2656-3.0781-3.0781c-0.046875-0.046875-0.10938-0.0625-0.17188-0.0625-0.10938 0-0.21875 0.09375-0.21875 0.23438 0 0.046875 0.015625 0.10938 0.0625 0.15625l3.2031 3.2031-0.73438 1.5781c-0.03125 0.078125 0 0.17188 0.078125 0.20312 0.0625 0.03125 0.15625 0 0.1875-0.078125l0.70312-1.4844 2.625 2.6406c0.046875 0.03125 0.09375 0.0625 0.15625 0.0625 0.125 0 0.23438-0.09375 0.23438-0.23438z"/>
</g>
</defs>
<g transform="translate(-150.6 -128.33)">
<use x="148.71201" y="134.765" xlink:href="#a"/>
</g>
</svg>
