<?xml version="1.0" encoding="UTF-8"?>
<svg fill="#000000" version="1.1" viewBox="0 0 9.9688 10.422" xmlns="http://www.w3.org/2000/svg" xmlns:xlink="http://www.w3.org/1999/xlink">
<defs>
<g id="a">
<path d="m5.2969-7.7031c-0.26562 0.03125-0.54688 0.046875-0.8125 0.10938-2.2656 0.53125-3.9375 2.625-3.9375 5.0781 0 2.1562 1.3438 4.375 3.6562 5.0312 0.4375 0.125 0.89062 0.20312 1.3438 0.20312 2.75 0 4.875-2.3594 4.9688-5.0156v-0.20312c0-2.6719-2.0156-5.2031-5.0781-5.2031zm-4.3438 5.4062v-0.14062c0-2.4844 1.7812-4.875 4.5781-4.875h0.14062c2.3594 0.10938 4.4531 2.1094 4.4531 4.8125 0 2.4375-1.875 4.7969-4.625 4.7969-2.1719 0-4.0625-1.6875-4.4688-3.8594-0.046875-0.23438-0.046875-0.48438-0.078125-0.73438zm1.4531-2.4844v0.3125h0.40625c0.34375 0 0.625 0.046875 0.625 0.46875v3.2188c0 0.42188-0.34375 0.46875-0.75 0.46875h-0.28125v0.29688h2.9219v-0.29688h-0.40625c-0.34375 0-0.625-0.0625-0.625-0.4375v-1.3906h1.9062c0.82812-0.046875 2.0938-0.40625 2.0938-1.2812 0-0.92188-1.2812-1.2969-2.1719-1.3594zm1.8906 2.3906v-1.7344c0-0.3125 0.17188-0.34375 0.5625-0.34375h0.46875 0.32812c0.71875 0 1.625 0.09375 1.625 1.0469 0 0.8125-0.76562 1.0312-1.4062 1.0312z"/>
</g>
</defs>
<g transform="translate(-149.26 -127.06)">
<use x="148.71201" y="134.765" xlink:href="#a"/>
</g>
</svg>
