<?xml version="1.0" encoding="UTF-8"?>
<svg fill="#000000" version="1.1" viewBox="0 0 4.8268 7.0339" xmlns="http://www.w3.org/2000/svg" xmlns:xlink="http://www.w3.org/1999/xlink">
<defs>
<g id="a">
<path d="m1.7812-4.3594c-0.26562 0.125-0.53125 0.26562-0.79688 0.40625-0.10938 0.0625-0.20312 0.10938-0.3125 0.17188-0.046875 0.015625-0.10938 0.03125-0.14062 0.078125-0.09375 0.078125 0.03125 0.25 0.078125 0.32812 0.015625 0.03125 0.03125 0.078125 0.078125 0.10938 0.046875 0 0.09375 0 0.125-0.03125 0.078125-0.03125 0.15625-0.078125 0.23438-0.10938 0.3125-0.17188 0.64062-0.32812 0.96875-0.5 0.078125 0.17188 0.17188 0.34375 0.26562 0.53125 0.03125 0.0625 0.09375 0.14062 0.09375 0.21875 0 0.0625-0.078125 0.14062-0.10938 0.1875-0.10938 0.14062-0.20312 0.29688-0.3125 0.45312-0.375 0.51562-0.71875 1.0625-1.0781 1.5938-0.09375 0.125-0.1875 0.25-0.28125 0.39062-0.0625 0.09375-0.125 0.1875-0.125 0.29688 0 0.32812 0.45312 0.46875 0.64062 0.20312 0.09375-0.14062 0.15625-0.3125 0.23438-0.45312 0.14062-0.29688 0.29688-0.57812 0.4375-0.875 0.15625-0.28125 0.29688-0.5625 0.4375-0.84375 0.078125-0.125 0.14062-0.26562 0.20312-0.39062 0.046875-0.078125 0.09375-0.15625 0.125-0.25h0.015625c0.046875 0.10938 0.09375 0.1875 0.14062 0.29688 0.0625 0.14062 0.14062 0.28125 0.21875 0.40625 0.15625 0.3125 0.29688 0.60938 0.45312 0.90625 0.10938 0.21875 0.21875 0.42188 0.32812 0.64062 0.078125 0.14062 0.14062 0.29688 0.23438 0.42188 0.078125 0.10938 0.1875 0.21875 0.3125 0.26562 0.10938 0.03125 0.25 0 0.35938 0 0.078125 0 0.23438 0.03125 0.26562-0.046875 0.046875-0.10938-0.10938-0.20312-0.15625-0.26562-0.17188-0.21875-0.29688-0.5-0.42188-0.75-0.34375-0.70312-0.70312-1.3906-1.0625-2.0938-0.20312-0.39062-0.39062-0.78125-0.60938-1.1719 0.09375-0.015625 0.17188-0.078125 0.25-0.10938 0.17188-0.09375 0.34375-0.1875 0.51562-0.26562 0.10938-0.0625 0.21875-0.10938 0.32812-0.17188 0.046875-0.03125 0.125-0.046875 0.17188-0.078125 0.078125-0.078125-0.015625-0.1875-0.046875-0.28125l-0.046875-0.078125c-0.015625-0.03125-0.03125-0.078125-0.09375-0.09375-0.046875-0.015625-0.078125 0.015625-0.125 0.03125-0.078125 0.046875-0.17188 0.09375-0.25 0.14062-0.3125 0.15625-0.60938 0.3125-0.92188 0.46875-0.17188-0.375-0.375-0.73438-0.5625-1.0938-0.0625-0.14062-0.14062-0.26562-0.20312-0.40625-0.0625-0.125-0.125-0.25-0.21875-0.34375-0.09375-0.10938-0.21875-0.1875-0.35938-0.25-0.21875-0.10938-0.5-0.14062-0.75-0.15625-0.078125 0-0.21875-0.03125-0.25 0.078125-0.015625 0.046875 0 0.10938 0.0625 0.125s0.14062 0.015625 0.20312 0.046875c0.14062 0.046875 0.26562 0.15625 0.35938 0.26562 0.15625 0.20312 0.25 0.42188 0.35938 0.625 0.17188 0.32812 0.34375 0.67188 0.51562 1 0.078125 0.14062 0.125 0.28125 0.21875 0.42188z"/>
</g>
</defs>
<g transform="translate(-148.77 -127.84)">
<use x="148.71201" y="134.765" xlink:href="#a"/>
</g>
</svg>
