<?xml version="1.0" encoding="UTF-8"?>
<svg fill="#000000" version="1.1" viewBox="0 0 6.625 9.0781" xmlns="http://www.w3.org/2000/svg" xmlns:xlink="http://www.w3.org/1999/xlink">
<defs>
<g id="a">
<path d="m0.078125-6.5625c2.4688 1.9219 3.0312 5.2656 3.0312 8.5312 0 0.10938 0.09375 0.1875 0.20312 0.1875s0.20312-0.078125 0.20312-0.1875c0-3.2656 0.5625-6.6094 3.0312-8.5312 0.046875-0.03125 0.078125-0.09375 0.078125-0.15625 0-0.046875-0.015625-0.09375-0.046875-0.125-0.03125-0.046875-0.09375-0.078125-0.14062-0.078125s-0.09375 0.015625-0.14062 0.046875c-1.8281 1.4219-2.6406 3.5625-2.9844 5.8125-0.32812-2.25-1.1719-4.3906-3-5.8125-0.015625-0.03125-0.078125-0.046875-0.10938-0.046875-0.0625 0-0.125 0.03125-0.15625 0.078125-0.03125 0.03125-0.046875 0.078125-0.046875 0.10938 0 0.0625 0.03125 0.125 0.078125 0.17188z"/>
</g>
</defs>
<g transform="translate(-148.71 -127.84)">
<use x="148.71201" y="134.765" xlink:href="#a"/>
</g>
</svg>
