<?xml version="1.0" encoding="UTF-8"?>
<svg fill="#000000" version="1.1" viewBox="0 0 6.5312 6.5312" xmlns="http://www.w3.org/2000/svg" xmlns:xlink="http://www.w3.org/1999/xlink">
<defs>
<g id="a">
<path d="m1.8281 0.71875c0.20312 0 0.57812-0.54688 1.9531-0.54688 0.34375 0 0.53125 0.03125 0.57812 0.03125 0.125 0 0.23438-0.078125 0.23438-0.21875 0-0.23438-0.25-0.25-0.48438-0.25h-0.0625c-0.39062 0-0.76562 0.046875-1.1562 0.046875h-0.015625l4.3281-4.3281c0 0.39062-0.0625 0.78125-0.0625 1.1719v0.0625c0 0.21875 0.015625 0.48438 0.25 0.48438 0.14062 0 0.23438-0.10938 0.23438-0.23438 0-0.046875-0.03125-0.23438-0.03125-0.5625 0-1.3906 0.54688-1.7656 0.54688-1.9531 0-0.14062-0.125-0.23438-0.25-0.23438-0.1875 0-0.54688 0.53125-1.9375 0.53125-0.34375 0-0.51562-0.015625-0.57812-0.015625-0.125 0-0.23438 0.078125-0.23438 0.21875 0 0.23438 0.25 0.25 0.48438 0.25h0.0625c0.39062 0 0.76562-0.046875 1.1562-0.046875h0.03125l-4.3281 4.3281c0-0.39062 0.03125-0.78125 0.03125-1.1719v-0.10938c0-0.21875 0-0.4375-0.23438-0.4375-0.14062 0-0.23438 0.10938-0.23438 0.23438 0 0.046875 0.03125 0.23438 0.03125 0.5625 0 1.3906-0.53125 1.7656-0.53125 1.9531 0 0.14062 0.10938 0.23438 0.21875 0.23438z"/>
</g>
</defs>
<g transform="translate(-150.32 -128.95)">
<use x="148.71201" y="134.765" xlink:href="#a"/>
</g>
</svg>
