<?xml version="1.0" encoding="UTF-8"?>
<svg fill="#000000" width="4.3125" height="5.2188" version="1.1" viewBox="0 0 4.3125 5.2187" xmlns="http://www.w3.org/2000/svg" xmlns:xlink="http://www.w3.org/1999/xlink">
<defs>
<g id="a">
<path d="m4.6406-0.40625h-3.8594c-0.125 0-0.21875 0.10938-0.21875 0.23438s0.09375 0.23438 0.21875 0.23438h3.8594c0.14062 0 0.23438-0.10938 0.23438-0.23438s-0.09375-0.23438-0.23438-0.23438zm-3.8594-0.73438c0.0625 0 0.10938 0 0.14062-0.046875 1.1406-0.95312 2.3594-1.7188 3.7188-1.7188 0.14062 0 0.23438-0.10938 0.23438-0.23438 0-0.14062-0.09375-0.23438-0.23438-0.23438-1.3594 0-2.5781-0.78125-3.7188-1.7344-0.03125-0.03125-0.078125-0.046875-0.14062-0.046875-0.14062 0-0.21875 0.10938-0.21875 0.23438 0 0.0625 0.015625 0.125 0.078125 0.17188 0.76562 0.64062 1.6562 1.2812 2.6406 1.6094-0.98438 0.3125-1.875 0.95312-2.6406 1.6094-0.0625 0.03125-0.078125 0.10938-0.078125 0.17188 0 0.125 0.078125 0.21875 0.21875 0.21875z"/>
</g>
</defs>
<g transform="translate(-149.27 -129.61)">
<use x="148.71201" y="134.765" xlink:href="#a"/>
</g>
</svg>
