<?xml version="1.0" encoding="UTF-8"?>
<svg fill="#000000" version="1.1" viewBox="0 0 6.1114 6.0742" xmlns="http://www.w3.org/2000/svg" xmlns:xlink="http://www.w3.org/1999/xlink">
<defs>
<g id="a">
<path d="m3.8125-5.5312c-0.078125 0.015625-0.15625 0.03125-0.21875 0.078125-0.3125 0.20312-0.3125 0.65625-0.015625 0.875 0.046875 0.03125 0.10938 0.0625 0.1875 0.078125 0.046875 0.015625 0.125 0.015625 0.1875 0 0.078125 0 0.14062-0.03125 0.21875-0.078125 0.29688-0.20312 0.29688-0.65625 0-0.85938-0.046875-0.046875-0.10938-0.078125-0.17188-0.09375s-0.125-0.015625-0.1875 0zm-0.39062 2.875c-0.15625 0-0.32812-0.03125-0.48438-0.046875-0.5-0.015625-1 0-1.5156 0h-0.375c-0.046875 0-0.125-0.015625-0.17188 0.015625-0.0625 0.0625-0.0625 0.21875-0.03125 0.29688 0.015625 0.078125 0.078125 0.09375 0.15625 0.09375h0.45312 1.4844c0.15625-0.015625 0.32812-0.046875 0.48438-0.046875l-1.1562 1.1562-0.375 0.39062c-0.078125 0.0625-0.14062 0.14062-0.21875 0.20312-0.078125 0.10938-0.015625 0.1875 0.0625 0.26562 0.046875 0.046875 0.09375 0.09375 0.17188 0.0625 0.0625-0.03125 0.10938-0.078125 0.15625-0.14062l0.29688-0.28125 1.375-1.375c0.03125-0.046875 0.078125-0.125 0.14062-0.125s0.10938 0.078125 0.15625 0.125l1.6562 1.6562c0.046875 0.0625 0.10938 0.10938 0.17188 0.14062s0.10938-0.015625 0.15625-0.0625c0.078125-0.078125 0.14062-0.15625 0.0625-0.26562l-1.75-1.75c0.15625 0 0.32812 0.03125 0.48438 0.046875h1.5156 0.375c0.0625 0 0.125 0 0.17188-0.03125 0.078125-0.046875 0.0625-0.20312 0.046875-0.28125-0.03125-0.078125-0.09375-0.09375-0.15625-0.09375h-0.46875c-0.5 0-0.98438-0.015625-1.4844 0-0.15625 0.015625-0.32812 0.046875-0.48438 0.046875l1.5469-1.5469c0.0625-0.078125 0.14062-0.14062 0.20312-0.21875 0.078125-0.09375 0.015625-0.17188-0.0625-0.25-0.046875-0.046875-0.09375-0.09375-0.15625-0.078125-0.0625 0.03125-0.125 0.09375-0.17188 0.14062l-0.28125 0.29688-1.375 1.375c-0.046875 0.03125-0.09375 0.10938-0.15625 0.10938s-0.10938-0.078125-0.14062-0.10938l-1.6719-1.6719c-0.046875-0.046875-0.09375-0.10938-0.15625-0.14062-0.078125-0.015625-0.125 0.03125-0.17188 0.078125-0.078125 0.078125-0.14062 0.15625-0.0625 0.25l0.21875 0.21875 0.375 0.39062zm0.39062 2.1406c-0.078125 0.015625-0.15625 0.03125-0.21875 0.09375-0.3125 0.20312-0.3125 0.65625-0.015625 0.85938 0.046875 0.046875 0.10938 0.078125 0.1875 0.09375h0.1875c0.078125-0.015625 0.14062-0.03125 0.21875-0.078125 0.29688-0.21875 0.29688-0.65625 0-0.875-0.046875-0.03125-0.10938-0.0625-0.17188-0.09375h-0.1875z"/>
</g>
</defs>
<g transform="translate(-149.54 -129.22)">
<use x="148.71201" y="134.765" xlink:href="#a"/>
</g>
</svg>
