<?xml version="1.0" encoding="UTF-8"?>
<svg fill="#000000" version="1.1" viewBox="0 0 6.625 9.5469" xmlns="http://www.w3.org/2000/svg" xmlns:xlink="http://www.w3.org/1999/xlink">
<defs>
<g id="a">
<path d="m7.1875 0.26562c0-0.23438-0.0625-0.32812-0.14062-0.32812-0.125 0-0.14062 0.23438-0.14062 0.29688-0.03125 0.85938-0.65625 1.4531-1.375 1.4531-0.64062 0-1.1094-0.40625-1.5469-0.8125-0.5625-0.48438-1.0781-0.9375-1.7656-0.9375-1.0469 0-1.6562 1.0625-1.6562 1.9844 0 0.23438 0.0625 0.32812 0.14062 0.32812 0.10938 0 0.14062-0.20312 0.14062-0.23438 0.046875-1.1406 0.84375-1.5312 1.375-1.5312 0.625 0 1.0938 0.42188 1.5469 0.82812 0.54688 0.48438 1.0625 0.9375 1.7656 0.9375 1.0469 0 1.6562-1.0625 1.6562-1.9844zm-0.75-4.4688h0.125c0.17188 0 0.35938 0 0.35938-0.20312s-0.1875-0.20312-0.35938-0.20312h-0.125c-0.5625 0-1.1094-0.03125-1.6562-0.09375-2.3125-0.26562-3.3594-1.0469-3.5469-2.3594-0.015625-0.0625-0.03125-0.23438-0.20312-0.23438-0.10938 0-0.20312 0.078125-0.20312 0.20312 0 0.03125 0.03125 1.0469 0.95312 1.7656 0.57812 0.46875 1.3125 0.75 2.2188 0.92188v0.015625c-1.0625 0.1875-2.2344 0.60938-2.7969 1.5469-0.20312 0.3125-0.375 0.75-0.375 1.1094 0 0.14062 0.09375 0.20312 0.20312 0.20312 0.17188 0 0.1875-0.10938 0.21875-0.35938 0.3125-1.9062 2.9844-2.3125 5.1875-2.3125z"/>
</g>
</defs>
<g transform="translate(-149.27 -127.47)">
<use x="148.71201" y="134.765" xlink:href="#a"/>
</g>
</svg>
