<?xml version="1.0" encoding="UTF-8"?>
<svg fill="#000000" version="1.1" viewBox="0 0 5.7969 7.1719" xmlns="http://www.w3.org/2000/svg" xmlns:xlink="http://www.w3.org/1999/xlink">
<defs>
<g id="a">
<path d="m2.5156-6.0156 0.48438-0.078125v2.5625h-1.0312l-0.35938-0.42188v-2.1406l0.48438 0.078125v-0.14062l-0.89062-0.96875-0.76562 1.1094 0.48438-0.078125v2.2031c0.09375 0.42188 0.25 0.65625 0.48438 0.70312l1.5938 0.0625v1.6562h-1.1094v0.28125h1.1094v1.2344h0.6875v-1.2344h1.1094v-0.28125h-1.1094v-1.6562h1.4531c0.32812-0.14062 0.53125-0.375 0.625-0.6875v-2.2812h0.46875l-0.875-1.0312-0.78125 1.1094 0.48438-0.078125v2.1406c-0.03125 0.3125-0.29688 0.46875-0.79688 0.46875-0.17188 0-0.35938-0.03125-0.57812-0.046875v-2.5625l0.48438 0.078125v-0.14062l-0.90625-0.96875z"/>
</g>
</defs>
<g transform="translate(-149.15 -127.64)">
<use x="148.71201" y="134.765" xlink:href="#a"/>
</g>
</svg>
