<?xml version="1.0" encoding="UTF-8"?>
<svg fill="#000000" version="1.1" viewBox="0 0 5.3906 6.7031" xmlns="http://www.w3.org/2000/svg" xmlns:xlink="http://www.w3.org/1999/xlink">
<defs>
<g id="a">
<path d="m0.89062-4.3125 2.25 2.2344-2.25 2.25 0.46875 0.45312 2.2344-2.2344 2.2344 2.2344 0.45312-0.45312-2.25-2.25 2.25-2.2344-0.45312-0.4375-2.2344 2.2344-2.2344-2.2344zm3.25-1.2031c0-0.10938-0.10938-0.25-0.21875-0.34375-0.09375-0.10938-0.21875-0.21875-0.32812-0.21875s-0.25 0.10938-0.34375 0.21875c-0.09375 0.09375-0.21875 0.23438-0.21875 0.34375s0.125 0.23438 0.21875 0.32812c0.09375 0.10938 0.23438 0.21875 0.34375 0.21875s0.23438-0.10938 0.32812-0.21875c0.10938-0.09375 0.21875-0.21875 0.21875-0.32812z"/>
</g>
</defs>
<g transform="translate(-149.6 -128.69)">
<use x="148.71201" y="134.765" xlink:href="#a"/>
</g>
</svg>
