<?xml version="1.0" encoding="UTF-8"?>
<svg fill="#000000" version="1.1" viewBox="0 0 5.2812 12.016" xmlns="http://www.w3.org/2000/svg" xmlns:xlink="http://www.w3.org/1999/xlink">
<defs>
<g id="a">
<path d="m6.2656-1.9219-0.14062-1.7031-0.53125 0.03125 0.0625 0.71875c-0.5-0.39062-1.0469-0.67188-1.6406-0.78125v-2.8594c0-0.76562 0.3125-1.5469 0.98438-1.5469 0.15625 0 0.32812 0.015625 0.48438 0.046875l0.17188-0.6875c-0.14062-0.046875-0.29688-0.046875-0.46875-0.046875-1.1562 0.03125-2.0312 1.0469-2.0312 2.2344v2.8594c-0.82812 0.14062-1.5625 0.64062-2.1719 1.2656l0.4375 0.45312c0.48438-0.5 1.0781-0.92188 1.7344-1.0625v4c0 0.78125-0.375 1.5625-1.0781 1.5625h-0.48438l0.09375 0.70312h0.0625c1.25 0 2.2656-1.0156 2.2656-2.2656v-4c0.45312 0.09375 0.875 0.32812 1.2656 0.625l-0.76562 0.0625 0.046875 0.53125z"/>
</g>
</defs>
<g transform="translate(-149.7 -126.02)">
<use x="148.71201" y="134.765" xlink:href="#a"/>
</g>
</svg>
