<?xml version="1.0" encoding="UTF-8"?>
<svg fill="#000000" width="7.8438" height="7.8438" version="1.1" viewBox="0 0 7.8438 7.8437" xmlns="http://www.w3.org/2000/svg" xmlns:xlink="http://www.w3.org/1999/xlink">
<defs>
<g id="a">
<path d="m4.4531-2.1875c-0.64062 0-1.1406-0.53125-1.1406-1.125 0-0.65625 0.53125-1.1562 1.1406-1.1562 0.64062 0 1.1406 0.53125 1.1406 1.1562s-0.53125 1.125-1.1406 1.125zm1.75-1.125c0-1.0156-0.8125-1.7656-1.75-1.7656-1 0-1.75 0.82812-1.75 1.7656 0 0.98438 0.8125 1.7344 1.75 1.7344 1 0 1.75-0.79688 1.75-1.7344zm-1.75 3.2969c-1.8906 0-3.3125-1.5469-3.3125-3.2969 0-1.9062 1.5469-3.3281 3.3125-3.3281 1.8906 0 3.3125 1.5469 3.3125 3.3281 0 1.875-1.5469 3.2969-3.3125 3.2969zm3.9219-3.2969c0-2.2344-1.8125-3.9375-3.9219-3.9375-2.2344 0-3.9219 1.8125-3.9219 3.9375 0 2.2188 1.8125 3.9062 3.9219 3.9062 2.2188 0 3.9219-1.8125 3.9219-3.9062z"/>
</g>
</defs>
<g transform="translate(-149.24 -128.29)">
<use x="148.71201" y="135.53999" xlink:href="#a"/>
</g>
</svg>
