<?xml version="1.0" encoding="UTF-8"?>
<svg fill="#000000" version="1.1" viewBox="0 0 3.3536 4.4139" xmlns="http://www.w3.org/2000/svg" xmlns:xlink="http://www.w3.org/1999/xlink">
<defs>
<g id="a">
<path d="m1.2188-4.3125v0.3125c0.20312 0 0.40625 0 0.60938 0.015625 0.09375 0.015625 0.20312 0.03125 0.28125 0.10938 0.078125 0.09375 0.078125 0.23438 0.078125 0.35938v0.6875c0 0.70312 0.0625 1.4688-0.28125 2.0938-0.21875 0.375-0.57812 0.67188-1.0156 0.60938v-0.015625c0.23438-0.09375 0.29688-0.42188 0.17188-0.60938-0.0625-0.125-0.1875-0.17188-0.3125-0.20312-0.046875 0-0.10938 0-0.15625 0.015625-0.0625 0.015625-0.10938 0.046875-0.14062 0.0625-0.25 0.17188-0.21875 0.53125-0.046875 0.73438 0.1875 0.20312 0.46875 0.26562 0.73438 0.23438 0.42188-0.046875 0.73438-0.32812 0.9375-0.6875 0.0625-0.125 0.10938-0.25 0.14062-0.39062h0.015625v1.0781l1.3906-0.10938v-0.29688c-0.14062 0-0.3125 0-0.45312-0.03125-0.09375-0.015625-0.1875-0.0625-0.25-0.14062-0.0625-0.09375-0.078125-0.21875-0.078125-0.32812v-2.7656c0-0.09375 0-0.20312 0.0625-0.29688 0.0625-0.078125 0.15625-0.09375 0.25-0.10938 0.15625-0.015625 0.3125-0.015625 0.46875-0.015625v-0.3125l-0.42188 0.03125h-0.98438z"/>
</g>
</defs>
<g transform="translate(-148.98 -130.45)">
<use x="148.71201" y="134.765" xlink:href="#a"/>
</g>
</svg>
