<?xml version="1.0" encoding="UTF-8"?>
<svg fill="#000000" version="1.1" viewBox="0 0 6.625 7.9219" xmlns="http://www.w3.org/2000/svg" xmlns:xlink="http://www.w3.org/1999/xlink">
<defs>
<g id="a">
<path d="m6.625-7.2344-0.20312-0.125-0.59375 0.85938c-0.015625 0.046875-0.0625 0.09375-0.09375 0.09375 0 0-0.015625 0-0.0625-0.046875-0.23438-0.14062-0.85938-0.57812-1.7969-0.57812-1.7969 0-3.3125 1.5938-3.3125 3.6562 0 1.4844 0.79688 2.4375 1.2344 2.7969l-0.59375 0.89062-0.09375 0.10938 0.20312 0.14062 0.59375-0.875c0.015625-0.015625 0.0625-0.09375 0.09375-0.09375 0 0 0.015625 0 0.078125 0.046875 0.71875 0.5 1.375 0.57812 1.7969 0.57812 1.8125 0 3.3125-1.5781 3.3125-3.5938 0-1.2344-0.5-2.1406-1.25-2.8438zm-4.5781 6.2656c-0.34375-0.48438-0.59375-1.1406-0.59375-2.4062 0-0.5625 0.015625-1.5469 0.51562-2.3281 0.46875-0.75 1.2031-1.1094 1.9062-1.1094 0.90625 0 1.4531 0.5625 1.6406 0.76562zm3.6406-4.875c0.5625 0.76562 0.60938 1.8281 0.60938 2.4688 0 0.5-0.015625 1.5781-0.57812 2.375-0.4375 0.625-1.125 1-1.8438 1-0.60938 0-1.2188-0.26562-1.6562-0.75z"/>
</g>
</defs>
<g transform="translate(-149.27 -127.41)">
<use x="148.71201" y="134.765" xlink:href="#a"/>
</g>
</svg>
