<?xml version="1.0" encoding="UTF-8"?>
<svg fill="#000000" version="1.1" viewBox="0 0 3.885 7.0211" xmlns="http://www.w3.org/2000/svg" xmlns:xlink="http://www.w3.org/1999/xlink">
<defs>
<g id="a">
<path d="m0.92188-6.1719c0.10938-0.20312 0.29688-0.34375 0.5-0.4375 0.32812-0.17188 0.71875-0.23438 1.0938-0.20312 0.21875 0.03125 0.46875 0.10938 0.65625 0.25 0.28125 0.23438 0.375 0.5625 0.40625 0.90625 0.015625 0.26562 0.03125 0.54688-0.03125 0.8125-0.09375 0.42188-0.35938 0.78125-0.73438 1.0156-0.15625 0.09375-0.34375 0.17188-0.53125 0.21875-0.078125 0.015625-0.21875 0.015625-0.26562 0.078125-0.015625 0.046875-0.015625 0.078125-0.015625 0.125v1.0312h-1.1406-0.15625c-0.09375 0.015625-0.10938 0.15625-0.078125 0.23438 0.03125 0.10938 0.23438 0.078125 0.32812 0.078125h1.0469v1.1719c0 0.15625 0.03125 0.35938-0.09375 0.46875-0.0625 0.0625-0.14062 0.078125-0.21875 0.078125-0.15625 0.03125-0.3125 0.03125-0.46875 0.03125v0.29688l0.89062-0.03125 0.92188 0.015625 0.42188 0.015625v-0.29688c-0.15625 0-0.3125 0-0.46875-0.03125-0.078125 0-0.15625-0.015625-0.21875-0.078125-0.10938-0.10938-0.078125-0.3125-0.078125-0.45312v-1.1875h1.0938c0.10938 0 0.28125 0.03125 0.29688-0.14062 0-0.015625 0-0.046875-0.015625-0.0625-0.03125-0.14062-0.21875-0.10938-0.32812-0.10938h-1.0469v-0.78125-0.1875c0-0.03125 0-0.078125 0.03125-0.09375 0.015625-0.046875 0.125-0.078125 0.1875-0.078125 0.17188-0.046875 0.32812-0.125 0.46875-0.1875 0.54688-0.28125 0.98438-0.73438 1.0469-1.3438 0.046875-0.53125-0.125-1.1406-0.53125-1.5-0.35938-0.3125-0.82812-0.45312-1.2969-0.48438-0.29688-0.015625-0.59375 0-0.89062 0.078125-0.29688 0.0625-0.59375 0.20312-0.8125 0.42188-0.21875 0.23438-0.40625 0.59375-0.32812 0.92188 0.0625 0.32812 0.5 0.45312 0.75 0.23438 0.20312-0.17188 0.20312-0.5 0.015625-0.6875-0.10938-0.09375-0.26562-0.125-0.40625-0.10938z"/>
</g>
</defs>
<g transform="translate(-149.26 -127.73)">
<use x="148.71201" y="134.765" xlink:href="#a"/>
</g>
</svg>
