<?xml version="1.0" encoding="UTF-8"?>
<svg fill="#000000" version="1.1" viewBox="0 0 4.3125 11.281" xmlns="http://www.w3.org/2000/svg" xmlns:xlink="http://www.w3.org/1999/xlink">
<defs>
<g id="a">
<path d="m0.5625-6.2656c0 0.078125 0.03125 0.17188 0.10938 0.20312l2.4531 1.4219-0.39062 1.4531-2.0625 1.1875c-0.078125 0.03125-0.10938 0.10938-0.10938 0.20312 0 0.125 0.10938 0.21875 0.21875 0.21875 0.046875 0 0.09375 0 0.10938-0.03125l1.6719-0.96875-0.45312 1.7344h-1.3281c-0.125 0-0.21875 0.10938-0.21875 0.21875 0 0.14062 0.09375 0.23438 0.21875 0.23438h1.2031l-0.35938 1.3281h-0.84375c-0.125 0-0.21875 0.09375-0.21875 0.23438 0 0.125 0.09375 0.21875 0.21875 0.21875h0.71875l-0.40625 1.5156c-0.015625 0.09375 0.046875 0.1875 0.15625 0.1875 0.0625 0 0.10938-0.03125 0.14062-0.10938l0.42188-1.5938h2.8281c0.14062 0 0.23438-0.09375 0.23438-0.21875 0-0.14062-0.09375-0.23438-0.23438-0.23438h-2.7031l0.35938-1.3281h2.3438c0.14062 0 0.23438-0.09375 0.23438-0.23438 0-0.10938-0.09375-0.21875-0.23438-0.21875h-2.2344l0.53125-1.9375 1.8281-1.0625c0.0625-0.03125 0.10938-0.10938 0.10938-0.1875s-0.046875-0.15625-0.10938-0.20312l-1.25-0.71875 0.82812-3.0469c0.015625-0.09375-0.046875-0.1875-0.15625-0.1875-0.0625 0-0.125 0.03125-0.14062 0.10938l-0.79688 2.9688-2.3594-1.3438c-0.015625-0.03125-0.0625-0.03125-0.10938-0.03125-0.10938 0-0.21875 0.09375-0.21875 0.21875zm2.5312 2.8594 0.29688-1.0938 0.79688 0.46875z"/>
</g>
</defs>
<g transform="translate(-149.27 -126.58)">
<use x="148.71201" y="134.765" xlink:href="#a"/>
</g>
</svg>
