<?xml version="1.0" encoding="UTF-8"?>
<svg fill="#000000" version="1.1" viewBox="0 0 4.804 8.969" xmlns="http://www.w3.org/2000/svg" xmlns:xlink="http://www.w3.org/1999/xlink">
<defs>
<g id="a">
<path d="m0.046875 1.6094v0.3125l0.4375-0.015625 0.92188-0.015625 0.89062 0.03125v-0.3125c-0.15625 0-0.29688 0-0.46875-0.015625-0.078125-0.015625-0.15625-0.015625-0.21875-0.078125-0.078125-0.078125-0.078125-0.20312-0.078125-0.29688v-1.7344c0.1875 0.20312 0.40625 0.39062 0.6875 0.5 0.64062 0.26562 1.4219 0.0625 1.9375-0.39062 0.29688-0.26562 0.51562-0.59375 0.625-0.98438 0.20312-0.75-0.046875-1.6094-0.64062-2.125-0.20312-0.15625-0.4375-0.3125-0.6875-0.375 0.078125-0.046875 0.15625-0.09375 0.21875-0.14062 0.17188-0.09375 0.3125-0.23438 0.4375-0.39062 0.46875-0.64062 0.40625-1.5469-0.125-2.1094-0.1875-0.1875-0.42188-0.32812-0.65625-0.42188-0.57812-0.20312-1.25-0.0625-1.7344 0.28125-0.39062 0.26562-0.67188 0.70312-0.75 1.1719-0.015625 0.17188-0.015625 0.3125-0.015625 0.46875v6.25c0 0.09375 0 0.21875-0.078125 0.29688-0.0625 0.0625-0.15625 0.0625-0.23438 0.078125-0.15625 0.015625-0.3125 0.015625-0.46875 0.015625zm3.6719-6.8125c-0.03125 0.375-0.09375 0.75-0.40625 1.0156-0.046875 0.046875-0.10938 0.09375-0.17188 0.125-0.23438 0.09375-0.48438 0.0625-0.73438 0.0625-0.078125 0-0.21875 0-0.20312 0.125 0.015625 0.14062 0.20312 0.09375 0.29688 0.09375 0.17188 0 0.34375 0 0.5 0.015625 0.15625 0.03125 0.3125 0.10938 0.4375 0.20312 0.42188 0.32812 0.53125 0.82812 0.5625 1.3281v0.5625c-0.015625 0.21875-0.046875 0.45312-0.10938 0.67188-0.078125 0.25-0.23438 0.48438-0.4375 0.64062-0.078125 0.0625-0.15625 0.125-0.25 0.15625-0.51562 0.21875-1.0938-0.03125-1.4375-0.45312-0.09375-0.10938-0.1875-0.23438-0.23438-0.375-0.015625-0.0625 0-0.10938 0-0.17188v-3.3906c0-0.51562-0.03125-1.0312 0.20312-1.5s0.73438-0.84375 1.25-0.6875c0.09375 0.015625 0.15625 0.046875 0.21875 0.10938 0.09375 0.046875 0.1875 0.125 0.25 0.21875 0.20312 0.23438 0.25 0.53125 0.26562 0.82812 0.015625 0.125 0.015625 0.28125 0 0.42188z"/>
</g>
</defs>
<g transform="translate(-148.76 -127.72)">
<use x="148.71201" y="134.765" xlink:href="#a"/>
</g>
</svg>
