<?xml version="1.0" encoding="UTF-8"?>
<svg fill="#000000" version="1.1" viewBox="0 0 3.8594 4.8125" xmlns="http://www.w3.org/2000/svg" xmlns:xlink="http://www.w3.org/1999/xlink">
<defs>
<g id="a">
<path d="m1.8438-2.4062c0.625-0.64062 1.1094-1.3594 1.4375-2.2031 0.015625-0.03125 0.03125-0.0625 0.03125-0.10938v-0.015625c0-0.0625-0.0625-0.09375-0.10938-0.09375-0.09375 0-0.125 0.125-0.15625 0.1875-0.4375 0.79688-1.0156 1.5469-1.7656 2.0469-0.0625 0.046875-0.17188 0.09375-0.17188 0.17188v0.015625c0 0.078125 0.20312 0.1875 0.3125 0.26562 0.64062 0.48438 1.1562 1.1094 1.5469 1.7969 0.046875 0.10938 0.14062 0.32812 0.23438 0.32812 0.0625 0 0.10938-0.046875 0.10938-0.09375 0-0.15625-0.14062-0.40625-0.21875-0.5625-0.3125-0.625-0.71875-1.3125-1.25-1.7344zm1.6562 0c0.625-0.64062 1.1094-1.3594 1.4375-2.2031 0.015625-0.03125 0.03125-0.0625 0.03125-0.10938v-0.015625c0-0.0625-0.0625-0.09375-0.10938-0.09375-0.09375 0-0.14062 0.125-0.17188 0.1875-0.42188 0.79688-1.0156 1.5469-1.75 2.0469-0.0625 0.046875-0.17188 0.09375-0.17188 0.17188v0.015625c0 0.078125 0.20312 0.1875 0.3125 0.26562 0.64062 0.48438 1.1562 1.1094 1.5469 1.7969 0.046875 0.10938 0.14062 0.32812 0.23438 0.32812 0.0625 0 0.10938-0.046875 0.10938-0.09375 0-0.15625-0.14062-0.40625-0.21875-0.5625-0.3125-0.625-0.71875-1.3125-1.25-1.7344z"/>
</g>
</defs>
<g transform="translate(-149.82 -129.94)">
<use x="148.71201" y="134.765" xlink:href="#a"/>
</g>
</svg>
