<?xml version="1.0" encoding="UTF-8"?>
<svg fill="#000000" version="1.1" viewBox="0 0 4.5781 5.2812" xmlns="http://www.w3.org/2000/svg" xmlns:xlink="http://www.w3.org/1999/xlink">
<defs>
<g id="a">
<path d="m5.5781-4.9219c0-0.125-0.14062-0.1875-0.25-0.1875-0.0625 0-0.10938 0-0.17188 0.03125-0.15625 0.09375-0.015625 1.0469-1.6094 1.5625-0.73438 0.25-1.5156 0.3125-2.2969 0.3125-0.0625 0-0.14062 0.015625-0.17188 0.046875-0.0625 0.0625-0.078125 0.10938-0.078125 0.20312 0 0.14062 0.09375 0.25 0.25 0.25 0.75 0 1.5469 0.0625 2.2812 0.29688 1.6094 0.5 1.4688 1.4844 1.625 1.5781 0.0625 0.03125 0.10938 0.046875 0.17188 0.046875 0.14062 0 0.25-0.078125 0.25-0.23438 0-0.23438-0.125-0.5625-0.25-0.76562-0.40625-0.67188-1.1719-0.98438-1.9062-1.1719 0.9375-0.23438 2.1562-0.84375 2.1562-1.9688zm0 4.8281c0-0.14062-0.125-0.25-0.25-0.25h-4.0781c-0.14062 0-0.25 0.125-0.25 0.25 0 0.14062 0.10938 0.26562 0.25 0.26562h4.0781c0.14062 0 0.25-0.125 0.25-0.26562z"/>
</g>
</defs>
<g transform="translate(-149.71 -129.66)">
<use x="148.71201" y="134.765" xlink:href="#a"/>
</g>
</svg>
