<?xml version="1.0" encoding="UTF-8"?>
<svg fill="#000000" version="1.1" viewBox="0 0 6.2812 7.1406" xmlns="http://www.w3.org/2000/svg" xmlns:xlink="http://www.w3.org/1999/xlink">
<defs>
<g id="a">
<path d="m3.6875-6.9219c-0.0625-0.20312-0.125-0.21875-0.23438-0.21875-0.15625 0-0.17188 0.046875-0.21875 0.21875l-1.9219 5.9219c-0.09375 0.29688-0.29688 0.6875-1 0.6875v0.3125c0.32812-0.015625 0.84375-0.03125 0.9375-0.03125 0.28125 0 0.8125 0.015625 1.125 0.03125v-0.3125c-0.54688 0-0.76562-0.28125-0.76562-0.51562 0-0.046875 0-0.078125 0.046875-0.21875l1.5-4.6406 1.5625 4.9062c0.0625 0.14062 0.0625 0.15625 0.0625 0.17188 0 0.29688-0.59375 0.29688-0.85938 0.29688v0.3125c0.35938-0.03125 1.0625-0.03125 1.4375-0.03125 0.39062 0 0.84375 0.015625 1.2344 0.03125v-0.3125c-0.76562 0-0.79688-0.0625-0.90625-0.42188z"/>
</g>
</defs>
<g transform="translate(-149.02 -127.62)">
<use x="148.71201" y="134.765" xlink:href="#a"/>
</g>
</svg>
