<?xml version="1.0" encoding="UTF-8"?>
<svg fill="#000000" version="1.1" viewBox="0 0 6.2188 6.2031" xmlns="http://www.w3.org/2000/svg" xmlns:xlink="http://www.w3.org/1999/xlink">
<defs>
<g id="a">
<path d="m2.7031-4.2812h-0.32812c-0.96875 0.1875-1.8281 0.95312-1.8281 2.125 0 1.1875 0.85938 1.9531 1.8281 2.1406 0.078125 0 0.20312 0.015625 0.32812 0.015625s0.25-0.015625 0.32812-0.015625c0.95312-0.1875 1.8281-0.96875 1.8281-2.125 0-0.42188-0.14062-0.84375-0.375-1.2031-0.046875-0.078125-0.09375-0.14062-0.09375-0.14062l-0.03125-0.03125c0-0.015625 2.375-2.3594 2.4062-2.4219v-0.078125c0-0.078125-0.078125-0.1875-0.1875-0.1875-0.03125 0-0.0625 0-0.09375 0.015625-0.046875 0.015625-0.28125 0.25-1.2344 1.2031l-1.1719 1.1875c-0.34375-0.29688-0.78125-0.48438-1.375-0.48438zm1.75 2.1406c0 0.46875-0.20312 0.9375-0.5625 1.2656-0.32812 0.3125-0.76562 0.46875-1.1875 0.46875-0.5 0-1-0.21875-1.3438-0.625-0.26562-0.32812-0.40625-0.71875-0.40625-1.1094 0-0.46875 0.1875-0.9375 0.54688-1.2812 0.32812-0.3125 0.76562-0.46875 1.2031-0.46875 0.9375 0 1.75 0.73438 1.75 1.75z"/>
</g>
</defs>
<g transform="translate(-149.26 -128.56)">
<use x="148.71201" y="134.765" xlink:href="#a"/>
</g>
</svg>
