<?xml version="1.0" encoding="UTF-8"?>
<svg fill="#000000" version="1.1" viewBox="0 0 8.3594 4.5625" xmlns="http://www.w3.org/2000/svg" xmlns:xlink="http://www.w3.org/1999/xlink">
<defs>
<g id="a">
<path d="m7.7031-2.4688c-0.26562 0.5-0.92188 1.3438-0.92188 1.5781 0 0.10938 0.10938 0.21875 0.25 0.21875 0.078125 0 0.17188-0.046875 0.20312-0.14062 0.875-1.8906 1.7188-1.6406 1.7188-2.0156 0-0.14062-0.10938-0.23438-0.23438-0.23438-0.03125 0-0.078125 0.015625-0.21875 0.015625-1.1875 0-2.0156-0.84375-2.2188-0.84375-0.125 0-0.23438 0.10938-0.23438 0.23438 0 0.23438 0.45312 0.39062 1.2344 0.8125-0.65625 0.21875-0.90625 0.78125-1.375 0.78125-0.3125 0-0.54688-0.21875-0.9375-0.60938l0.71875-1.9688c0.046875-0.078125-0.03125-0.1875-0.14062-0.1875-0.046875 0-0.10938 0.03125-0.14062 0.09375l-0.65625 1.8281c-0.34375-0.32812-0.65625-0.57812-1.0938-0.57812-0.79688 0-0.9375 0.73438-1.7969 0.85938 0.25-0.5 0.90625-1.3438 0.90625-1.5781 0-0.10938-0.10938-0.21875-0.23438-0.21875-0.09375 0-0.17188 0.046875-0.20312 0.14062-0.89062 1.9062-1.7344 1.6406-1.7344 2.0156 0 0.14062 0.10938 0.23438 0.23438 0.23438 0.03125 0 0.09375-0.015625 0.23438-0.015625 1.1719 0 2.0156 0.84375 2.2031 0.84375 0.14062 0 0.23438-0.10938 0.23438-0.23438 0-0.23438-0.45312-0.39062-1.2344-0.8125 0.67188-0.21875 0.92188-0.78125 1.3906-0.78125 0.29688 0 0.53125 0.21875 0.92188 0.60938l-0.71875 1.9688c-0.046875 0.078125 0.03125 0.1875 0.14062 0.1875 0.0625 0 0.10938-0.03125 0.14062-0.09375l0.67188-1.8281c0.32812 0.32812 0.65625 0.57812 1.0938 0.57812 0.78125 0 0.92188-0.73438 1.7969-0.85938z"/>
</g>
</defs>
<g transform="translate(-149.31 -129.94)">
<use x="148.71201" y="134.765" xlink:href="#a"/>
</g>
</svg>
