<?xml version="1.0" encoding="UTF-8"?>
<svg fill="#000000" version="1.1" viewBox="0 0 4.5076 4.5783" xmlns="http://www.w3.org/2000/svg" xmlns:xlink="http://www.w3.org/1999/xlink">
<defs>
<g id="a">
<path d="m1.6719-3.5625h-0.015625c-0.03125-0.21875-0.09375-0.4375-0.26562-0.59375-0.3125-0.3125-0.82812-0.26562-1.1094 0.0625-0.125 0.14062-0.20312 0.3125-0.21875 0.5-0.015625 0.10938 0 0.1875 0 0.29688v0.4375h0.25v-0.51562c0-0.14062 0-0.29688 0.0625-0.4375 0.078125-0.17188 0.23438-0.29688 0.40625-0.20312 0.10938 0.046875 0.1875 0.15625 0.21875 0.28125 0.03125 0.10938 0.03125 0.21875 0.03125 0.34375v1.6562c0 0.21875-0.015625 0.45312 0.03125 0.65625 0.03125 0.23438 0.14062 0.45312 0.28125 0.625 0.48438 0.57812 1.3594 0.75 2.0469 0.51562 0.34375-0.10938 0.65625-0.32812 0.8125-0.67188 0.078125-0.15625 0.10938-0.375 0.046875-0.53125-0.09375-0.28125-0.42188-0.35938-0.65625-0.25-0.25 0.14062-0.3125 0.51562-0.125 0.71875 0.10938 0.10938 0.25 0.15625 0.40625 0.15625-0.078125 0.078125-0.14062 0.14062-0.23438 0.20312-0.34375 0.25-0.875 0.34375-1.2656 0.15625-0.1875-0.09375-0.34375-0.25-0.45312-0.42188-0.20312-0.34375-0.1875-0.73438-0.1875-1.125 0.4375 0 0.89062-0.0625 1.3125-0.17188 0.29688-0.078125 0.60938-0.1875 0.875-0.375 0.17188-0.10938 0.32812-0.26562 0.4375-0.4375 0.078125-0.125 0.14062-0.26562 0.17188-0.40625 0.078125-0.3125 0.015625-0.64062-0.21875-0.89062-0.125-0.125-0.29688-0.21875-0.46875-0.28125-0.21875-0.078125-0.45312-0.125-0.6875-0.14062s-0.46875-0.015625-0.6875 0.0625c-0.20312 0.078125-0.375 0.20312-0.53125 0.34375-0.10938 0.125-0.23438 0.26562-0.26562 0.4375zm0.0625 1.6562v-0.76562c0-0.15625-0.015625-0.3125 0.015625-0.48438 0.03125-0.1875 0.09375-0.375 0.21875-0.54688 0.20312-0.28125 0.54688-0.48438 0.90625-0.5 0.5 0 0.96875 0.42188 0.90625 0.9375-0.015625 0.14062-0.046875 0.28125-0.10938 0.42188-0.078125 0.14062-0.1875 0.28125-0.29688 0.39062-0.1875 0.17188-0.42188 0.28125-0.64062 0.35938-0.32812 0.10938-0.65625 0.17188-1 0.1875z"/>
</g>
</defs>
<g transform="translate(-148.77 -130.35)">
<use x="148.71201" y="134.765" xlink:href="#a"/>
</g>
</svg>
