<?xml version="1.0" encoding="UTF-8"?>
<svg fill="#000000" version="1.1" viewBox="0 0 10.797 4.6094" xmlns="http://www.w3.org/2000/svg" xmlns:xlink="http://www.w3.org/1999/xlink">
<defs>
<g id="a">
<path d="m8.7656-2.375c0.23438 0.10938 0.48438 0.15625 0.71875 0.15625 0.89062 0 1.6562-0.71875 1.6562-1.6406 0-0.09375-0.01563-0.17188-0.03125-0.26562-0.01563-0.10938-0.09375-0.15625-0.1875-0.15625h-0.03125c-0.10938 0-0.17188 0.10938-0.17188 0.20312v0.015625c0 0.078125 0.01563 0.14062 0.01563 0.20312 0 0.70312-0.59375 1.25-1.25 1.25-0.1875 0-0.375-0.046875-0.54688-0.125-0.76562-0.375-1.0469-1.5625-2.0469-1.5625l-0.125 0.015625c-1.0469 0.078125-1.2656 1.4531-2.0781 1.5156h-0.078125c-0.75 0-1.125-1.125-1.8906-1.5156-0.25-0.10938-0.48438-0.17188-0.71875-0.17188-0.89062 0-1.6562 0.71875-1.6562 1.6562 0 0.078125 0 0.17188 0.015625 0.26562s0.09375 0.17188 0.20312 0.17188h0.03125c0.09375-0.015625 0.15625-0.10938 0.15625-0.1875v-0.046875c-0.015625-0.0625-0.015625-0.125-0.015625-0.1875 0-0.70312 0.59375-1.25 1.2656-1.25 0.17188 0 0.35938 0.03125 0.54688 0.125 0.76562 0.375 1.0312 1.5469 2.0469 1.5469h0.125c1.0312-0.09375 1.2656-1.4531 2.0625-1.5312h0.078125c0.75 0 1.125 1.125 1.9062 1.5156zm0 2.3594c0.23438 0.10938 0.48438 0.17188 0.71875 0.17188 0.89062 0 1.6562-0.71875 1.6562-1.6562 0-0.078125-0.01563-0.17188-0.03125-0.26562-0.015625-0.09375-0.10938-0.17188-0.20312-0.17188h-0.01563c-0.10938 0.03125-0.17188 0.10938-0.17188 0.21875v0.015625c0 0.0625 0.01563 0.14062 0.01563 0.20312 0 0.71875-0.59375 1.25-1.25 1.25-0.1875 0-0.375-0.046875-0.54688-0.125-0.76562-0.375-1.0469-1.5625-2.0625-1.5625h-0.10938c-1.0469 0.10938-1.2656 1.4688-2.0781 1.5312h-0.078125c-0.75 0-1.125-1.125-1.8906-1.5-0.25-0.125-0.48438-0.17188-0.71875-0.17188-0.89062 0-1.6562 0.71875-1.6562 1.6406 0 0.09375 0 0.17188 0.015625 0.26562 0.015625 0.10938 0.10938 0.17188 0.20312 0.17188h0.03125c0.09375-0.015625 0.15625-0.09375 0.15625-0.1875v-0.046875c-0.015625-0.0625-0.015625-0.14062-0.015625-0.1875 0-0.71875 0.59375-1.2656 1.2656-1.2656 0.17188 0 0.35938 0.046875 0.54688 0.125 0.76562 0.39062 1.0312 1.5781 2.0469 1.5781l0.125-0.015625c1.0312-0.09375 1.2656-1.4531 2.0625-1.5312h0.078125c0.75 0 1.125 1.125 1.9062 1.5156z"/>
</g>
</defs>
<g transform="translate(-149.06 -130.31)">
<use x="148.71201" y="134.765" xlink:href="#a"/>
</g>
</svg>
