<?xml version="1.0" encoding="UTF-8"?>
<svg fill="#000000" width="1.5156" height="9.9688" version="1.1" viewBox="0 0 1.5156 9.9687" xmlns="http://www.w3.org/2000/svg" xmlns:xlink="http://www.w3.org/1999/xlink">
<defs>
<g id="a">
<path d="m1.8906-7.4844c-0.125 0.03125-0.15625 0.17188-0.15625 0.28125 0 0.0625 0.015625 0.125 0.015625 0.17188v9.0625c0 0.046875-0.015625 0.10938-0.015625 0.15625 0 0.125 0.046875 0.29688 0.20312 0.29688 0.17188 0 0.21875-0.1875 0.21875-0.32812 0-0.0625-0.015625-0.125-0.015625-0.1875v-9.1094c0-0.14062 0-0.34375-0.20312-0.34375h-0.046875zm1.0938 0c-0.125 0.03125-0.15625 0.17188-0.15625 0.28125 0 0.0625 0.015625 0.125 0.015625 0.17188v9.0625c0 0.046875-0.015625 0.10938-0.015625 0.15625 0 0.125 0.046875 0.29688 0.20312 0.29688 0.17188 0 0.21875-0.1875 0.21875-0.32812 0-0.0625-0.015625-0.125-0.015625-0.1875v-9.1094c0-0.14062 0-0.34375-0.20312-0.34375h-0.046875z"/>
</g>
</defs>
<g transform="translate(-150.45 -127.28)">
<use x="148.71201" y="134.765" xlink:href="#a"/>
</g>
</svg>
