<?xml version="1.0" encoding="UTF-8"?>
<svg fill="#000000" version="1.1" viewBox="0 0 3.1406 8.7101" xmlns="http://www.w3.org/2000/svg" xmlns:xlink="http://www.w3.org/1999/xlink">
<defs>
<g id="a">
<path d="m1.7656-6.6719c-0.078125 0.015625-0.14062 0.03125-0.20312 0.078125-0.0625 0.03125-0.10938 0.078125-0.14062 0.14062-0.046875 0.046875-0.078125 0.125-0.09375 0.1875-0.078125 0.35938 0.25 0.6875 0.59375 0.64062 0.078125-0.015625 0.14062-0.03125 0.20312-0.078125 0.0625-0.03125 0.10938-0.09375 0.14062-0.14062 0.046875-0.0625 0.078125-0.125 0.09375-0.20312 0.078125-0.35938-0.25-0.6875-0.59375-0.625zm-0.90625 2.3594v0.3125c0.17188 0 0.34375 0 0.51562 0.03125 0.09375 0.015625 0.1875 0.046875 0.23438 0.125 0.09375 0.10938 0.09375 0.25 0.09375 0.375v3.3438c-0.28125 0-0.53125 0.03125-0.79688 0.14062-0.1875 0.078125-0.375 0.20312-0.5 0.35938-0.10938 0.125-0.1875 0.25-0.23438 0.40625-0.046875 0.10938-0.0625 0.25-0.0625 0.375 0 0.10938 0.03125 0.21875 0.0625 0.3125 0.046875 0.09375 0.10938 0.17188 0.17188 0.25 0.42188 0.45312 1.2031 0.39062 1.6094-0.046875 0.15625-0.17188 0.26562-0.375 0.34375-0.59375 0.09375-0.32812 0.078125-0.65625 0.078125-0.98438h0.67188c0.078125 0 0.20312 0 0.20312-0.10938s-0.125-0.10938-0.20312-0.10938h-0.67188v-4.2969zm0.84375 4.4062c0 0.28125 0.015625 0.54688-0.015625 0.82812-0.015625 0.17188-0.046875 0.32812-0.10938 0.5-0.03125 0.125-0.10938 0.26562-0.23438 0.32812-0.09375 0.0625-0.21875 0.078125-0.34375 0.046875-0.21875-0.03125-0.42188-0.15625-0.54688-0.34375-0.1875-0.28125-0.0625-0.6875 0.14062-0.92188 0.125-0.14062 0.28125-0.25 0.4375-0.32812 0.21875-0.09375 0.4375-0.10938 0.67188-0.10938z"/>
</g>
</defs>
<g transform="translate(-148.82 -128.09)">
<use x="148.71201" y="134.765" xlink:href="#a"/>
</g>
</svg>
