<?xml version="1.0" encoding="UTF-8"?>
<svg fill="#000000" version="1.1" viewBox="0 0 5.2969 5.9062" xmlns="http://www.w3.org/2000/svg" xmlns:xlink="http://www.w3.org/1999/xlink">
<defs>
<g id="a">
<path d="m1.6406-2.7188c0 0.125 0.09375 0.23438 0.23438 0.23438 0.09375 0 0.17188-0.046875 0.21875-0.14062 0.20312-0.54688 0.23438-1.1406 0.42188-1.6875 0.15625 0.1875 0.28125 0.35938 0.375 0.57812 0.15625 0.4375 0.09375 1.0781 0.48438 1.5156 0.35938 0.45312 0.9375 0.53125 1.625 0.53125 0.98438 0 1.4844 0.1875 1.4844 1.1406 0 0.23438-0.03125 0.48438-0.03125 0.71875 0 0.14062 0.10938 0.23438 0.23438 0.23438s0.23438-0.09375 0.23438-0.23438c0-0.21875 0.015625-0.46875 0.015625-0.71875 0-0.34375-0.046875-0.75-0.3125-1.0625-0.375-0.45312-0.9375-0.53125-1.625-0.53125-0.59375 0-1.0156-0.0625-1.2812-0.35938-0.34375-0.42188-0.15625-1.0625-0.57812-1.75 0.39062 0.14062 1.0312 0.34375 1.2031 0.34375 0.125 0 0.23438-0.09375 0.23438-0.23438 0-0.10938-0.078125-0.20312-0.1875-0.21875-1.9531-0.34375-2.0625-1.1406-2.3438-1.1406-0.046875 0-0.078125 0-0.125 0.03125-0.078125 0.046875-0.10938 0.09375-0.10938 0.17188 0 0.15625 0.15625 0.42188 0.15625 0.98438 0 0.78125-0.32812 1.5156-0.32812 1.5938z"/>
</g>
</defs>
<g transform="translate(-150.35 -129.26)">
<use x="148.71201" y="134.765" xlink:href="#a"/>
</g>
</svg>
