<?xml version="1.0" encoding="UTF-8"?>
<svg fill="#000000" version="1.1" viewBox="0 0 5.8594 9.4531" xmlns="http://www.w3.org/2000/svg" xmlns:xlink="http://www.w3.org/1999/xlink">
<defs>
<g id="a">
<path d="m6.1875-1.8906c-0.5-0.84375-2.0938-1.6562-3.3281-2 1.2344-0.35938 2.8281-1.1562 3.3281-2.0156v-0.76562c-1.1875 1.5938-3.5312 2.2812-5.5469 2.4375v0.67188c2.0156 0.15625 4.3594 0.84375 5.5469 2.4531zm-0.17188 1.6875c-0.14062 0.71875-0.46875 1.375-1.1562 1.375-0.32812 0-0.73438-0.25-1.1562-0.54688l0.78125-1.6719h-0.54688l-0.65625 1.3906c-0.39062-0.25-0.79688-0.4375-1.1719-0.4375-0.98438 0-1.5781 1.0312-1.625 2.0312h0.32812c0.15625-0.71875 0.51562-1.375 1.2188-1.375 0.26562 0 0.59375 0.17188 0.95312 0.40625l-0.84375 1.8125h0.54688l0.71875-1.5312c0.4375 0.3125 0.92188 0.57812 1.375 0.57812 0.96875 0 1.5156-1.1875 1.5625-2.0312z"/>
</g>
</defs>
<g transform="translate(-149.2 -128.09)">
<use x="148.71201" y="134.765" xlink:href="#a"/>
</g>
</svg>
