<?xml version="1.0" encoding="UTF-8"?>
<svg fill="#000000" version="1.1" viewBox="0 0 6.2188 6.9219" xmlns="http://www.w3.org/2000/svg" xmlns:xlink="http://www.w3.org/1999/xlink">
<defs>
<g id="a">
<path d="m4.7031 1.125c0.0625 0 0.10938-0.015625 0.15625-0.0625l3.5312-3.5312c0.046875-0.046875 0.078125-0.10938 0.078125-0.15625 0-0.125-0.09375-0.23438-0.23438-0.23438-0.0625 0-0.125 0.03125-0.17188 0.0625l-0.96875 0.98438-1.6875-1.7031 0.95312-2.0625c0.046875-0.09375-0.03125-0.21875-0.125-0.21875-0.0625 0-0.10938 0.03125-0.14062 0.09375l-0.92188 1.9688-1.2812-1.2969c-0.046875-0.03125-0.10938-0.0625-0.15625-0.0625-0.125 0-0.23438 0.09375-0.23438 0.23438 0 0.046875 0.015625 0.10938 0.0625 0.17188l1.4062 1.3906-0.59375 1.2656-1.75-1.7344c-0.046875-0.046875-0.09375-0.0625-0.15625-0.0625-0.10938 0-0.21875 0.09375-0.21875 0.23438 0 0.0625 0.015625 0.10938 0.046875 0.15625l1.875 1.8594-0.96875 2.0625c-0.03125 0.078125 0 0.15625 0.078125 0.20312 0.0625 0.03125 0.15625 0 0.20312-0.078125l0.90625-1.9688 1.125 1.125-0.98438 0.96875c-0.03125 0.046875-0.0625 0.10938-0.0625 0.15625 0 0.125 0.09375 0.23438 0.23438 0.23438zm0.48438-4.2031 1.5781 1.5781-0.9375 0.9375-1.2344-1.2344z"/>
</g>
</defs>
<g transform="translate(-150.96 -128.97)">
<use x="148.71201" y="134.765" xlink:href="#a"/>
</g>
</svg>
