<?xml version="1.0" encoding="UTF-8"?>
<svg fill="#000000" version="1.1" viewBox="0 0 1.1982 2.9784" xmlns="http://www.w3.org/2000/svg" xmlns:xlink="http://www.w3.org/1999/xlink">
<defs>
<g id="a">
<path d="m0.95312-6.0781c0.0625 0.078125 0.14062 0.14062 0.25 0.17188 0.1875 0.0625 0.42188 0.03125 0.57812-0.10938 0.21875-0.25 0.15625-0.71875-0.14062-0.85938-0.0625-0.015625-0.10938-0.03125-0.17188-0.046875h-0.15625c-0.3125 0.046875-0.46875 0.29688-0.53125 0.57812-0.17188 0.60938 0 1.3125 0.32812 1.8438 0.125 0.17188 0.25 0.34375 0.42188 0.48438 0.046875 0.0625 0.14062 0.10938 0.20312 0.03125 0.015625-0.015625 0.015625-0.03125 0.015625-0.046875 0.03125-0.078125-0.0625-0.14062-0.10938-0.1875-0.125-0.125-0.25-0.26562-0.34375-0.42188-0.21875-0.35938-0.34375-0.75-0.35938-1.1562 0-0.09375 0.015625-0.1875 0.015625-0.28125z"/>
</g>
</defs>
<g transform="translate(-149.43 -127.84)">
<use x="148.71201" y="134.765" xlink:href="#a"/>
</g>
</svg>
