<?xml version="1.0" encoding="UTF-8"?>
<svg fill="#000000" version="1.1" viewBox="0 0 4.7969 8.3281" xmlns="http://www.w3.org/2000/svg" xmlns:xlink="http://www.w3.org/1999/xlink">
<defs>
<g id="a">
<path d="m3.2031-4.3438c0.9375-0.3125 1.7969-0.84375 2.4844-1.5781l-0.46875-0.4375c-1.0312 1.1094-2.4844 1.6875-4 1.6875h-0.32812v0.64062h0.32812c1.5156 0 2.9688 0.60938 4 1.7031l0.46875-0.4375c-0.6875-0.73438-1.5469-1.2656-2.4844-1.5781zm0.39062 1.7656-0.26562 1h-2.4375v0.64062h2.2656l-0.32812 1.2812h-1.9375v0.64062h1.7656l-0.23438 0.82812 0.5625 0.15625 0.26562-0.98438h2.4375v-0.64062h-2.2656l0.34375-1.2812h1.9219v-0.64062h-1.7656l0.23438-0.85938z"/>
</g>
</defs>
<g transform="translate(-149.6 -128.41)">
<use x="148.71201" y="134.765" xlink:href="#a"/>
</g>
</svg>
