<?xml version="1.0" encoding="UTF-8"?>
<svg fill="#000000" version="1.1" viewBox="0 0 8.1719 7.1562" xmlns="http://www.w3.org/2000/svg" xmlns:xlink="http://www.w3.org/1999/xlink">
<defs>
<g id="a">
<path d="m0.8125-4.9375c0.95312-0.82812 2.375-1.2344 4.2656-1.2344 1.5938 0.015625 2.4844 0.70312 2.4844 1.9219l-0.53125 0.73438-0.82812 0.078125c-0.59375-0.26562-0.89062-0.59375-0.89062-1.0625 0-0.54688 0.23438-0.9375 0.6875-1.1875h-0.26562l-0.40625 0.20312-0.42188 0.48438c-0.09375 0.1875-0.15625 0.4375-0.15625 0.75 0 0.875 0.65625 1.3906 1.7344 1.3906 1.3281 0 2.0625-0.70312 2.0625-1.9688-0.10938-1.7344-1.1406-2.2969-4.4531-2.2969-1.5469 0.28125-2.6406 1-3.2812 2.1875zm1.7031 0.78125c-0.9375 0-2.1406 0.59375-2.1406 1.875 0.15625 1.7656 1.125 2.3125 4.4531 2.3125 1.6406-0.3125 2.7344-1.0156 3.2812-2.1094-1.1562 0.78125-2.5156 1.1719-4.0781 1.1719h-0.48438l-1.5-0.42188c-0.46875-0.28125-0.6875-0.71875-0.6875-1.2812 0.015625-0.4375 0.64062-1.0156 1.125-1.0156 0.59375 0 1.2188 0.57812 1.2188 1.1406 0 0.45312-0.25 0.84375-0.76562 1.1562h0.32812c0.65625-0.26562 0.98438-0.75 0.98438-1.4531 0-0.125 0-0.25-0.015625-0.39062-0.3125-0.65625-0.89062-0.98438-1.7188-0.98438z"/>
</g>
</defs>
<g transform="translate(-149.09 -127.64)">
<use x="148.71201" y="134.765" xlink:href="#a"/>
</g>
</svg>
