<?xml version="1.0" encoding="UTF-8"?>
<svg fill="#000000" version="1.1" viewBox="0 0 7.1094 3.3125" xmlns="http://www.w3.org/2000/svg" xmlns:xlink="http://www.w3.org/1999/xlink">
<defs>
<g id="a">
<path d="m3.2031-3.9844c0-0.125-0.10938-0.21875-0.23438-0.21875-0.0625 0-0.125 0.03125-0.17188 0.09375-0.53125 0.625-1.1875 1.1875-2.0156 1.3438-0.10938 0.015625-0.1875 0.10938-0.1875 0.21875s0.078125 0.20312 0.1875 0.21875c0.82812 0.15625 1.4844 0.71875 2.0156 1.3438 0.046875 0.0625 0.10938 0.09375 0.17188 0.09375 0.125 0 0.23438-0.09375 0.23438-0.21875 0-0.23438-0.67188-0.71875-1.1562-1.2031h4.7188c0.51562 0 0.9375-0.45312 0.9375-0.95312 0-0.51562-0.4375-0.9375-0.9375-0.9375-0.125 0-0.23438 0.10938-0.23438 0.21875 0 0.14062 0.10938 0.23438 0.23438 0.23438 0.28125 0 0.48438 0.23438 0.48438 0.48438 0 0.28125-0.23438 0.5-0.48438 0.5h-4.7188c0.46875-0.46875 1.1562-0.96875 1.1562-1.2188z"/>
</g>
</defs>
<g transform="translate(-149.31 -130.56)">
<use x="148.71201" y="134.765" xlink:href="#a"/>
</g>
</svg>
