<?xml version="1.0" encoding="UTF-8"?>
<svg fill="#000000" version="1.1" viewBox="0 0 4.9375 11.406" xmlns="http://www.w3.org/2000/svg" xmlns:xlink="http://www.w3.org/1999/xlink">
<defs>
<g id="a">
<path d="m5.1719-4.1406c-0.125 0.20312-0.20312 0.40625-0.3125 0.60938-0.015625 0.046875-0.078125 0.125-0.14062 0.125-0.046875 0-0.09375-0.046875-0.10938-0.078125-0.32812-0.625-0.9375-1.0781-1.625-1.2031v-1.75c0-0.54688 0.0625-1.4688 0.57812-1.4688 0.0625 0 0.125 0.03125 0.125 0.10938 0 0.09375-0.09375 0.09375-0.09375 0.28125 0 0.21875 0.15625 0.34375 0.35938 0.34375 0.25 0 0.42188-0.1875 0.42188-0.42188 0-0.40625-0.29688-0.625-0.6875-0.625-1.1406 0-1.4219 1.2656-1.4219 2.1719v1.3594c-1.0938 0.15625-1.9219 1.1094-1.9219 2.2188 0 1.1406 0.78125 2.0469 1.9219 2.2031v1.75c0 0.51562-0.046875 1.3906-0.54688 1.3906-0.078125 0-0.14062-0.03125-0.14062-0.10938s0.09375-0.078125 0.09375-0.26562c0-0.23438-0.14062-0.34375-0.35938-0.34375-0.23438 0-0.42188 0.17188-0.42188 0.42188 0 0.40625 0.3125 0.60938 0.6875 0.60938 1.0781 0 1.4062-1.125 1.4062-2.0156v-1.4375c1.0625-0.1875 1.8594-1.125 1.8594-2.2031 0-0.5625 0.1875-1.1094 0.4375-1.6094zm-2.1875-0.17188c0.5625 0.125 1 0.46875 1.2656 0.96875 0.015625 0.03125 0.03125 0.046875 0.03125 0.078125 0 0.078125-0.078125 0.10938-0.15625 0.10938-0.046875 0-0.5625-0.17188-0.70312-0.1875l-0.03125 0.10938c0.375 0.125 0.73438 0.28125 1.0625 0.5v-0.015625c0 0.09375 0.015625 0.1875 0.015625 0.28125 0 0.85938-0.625 1.6406-1.4844 1.8281zm-0.71875 3.6719c-0.875-0.17188-1.5312-0.9375-1.5312-1.8281 0-0.90625 0.64062-1.6719 1.5312-1.8438z"/>
</g>
</defs>
<g transform="translate(-149.06 -126.51)">
<use x="148.71201" y="134.72501" xlink:href="#a"/>
</g>
</svg>
