<?xml version="1.0" encoding="UTF-8"?>
<svg fill="#000000" version="1.1" viewBox="0 0 4.5781 7.9899" xmlns="http://www.w3.org/2000/svg" xmlns:xlink="http://www.w3.org/1999/xlink">
<defs>
<g id="a">
<path d="m1.25-2.2188c0.54688 0 1.125 0.03125 1.6875 0.14062l-1.3906 3.3438c-0.046875 0.09375 0 0.1875 0.09375 0.21875 0.09375 0.046875 0.1875 0 0.21875-0.09375l1.4219-3.3906c0.078125 0.015625 0.15625 0.03125 0.23438 0.0625 1.625 0.5 1.4844 1.4844 1.6406 1.5781 0.0625 0.03125 0.10938 0.046875 0.17188 0.046875 0.14062 0 0.25-0.078125 0.25-0.21875 0-0.25-0.10938-0.57812-0.25-0.78125-0.39062-0.65625-1.1406-0.95312-1.8594-1.1562l0.015625-0.015625c0.71875-0.1875 1.4531-0.5 1.8438-1.1719 0.14062-0.21875 0.25-0.53125 0.25-0.78125 0-0.14062-0.14062-0.20312-0.25-0.20312-0.0625 0-0.10938 0-0.17188 0.03125-0.15625 0.10938-0.015625 0.98438-1.4219 1.5156l1.2969-3.1406c0.046875-0.10938 0.015625-0.20312-0.078125-0.23438-0.10938-0.046875-0.20312 0-0.23438 0.09375l-1.4219 3.4219c-0.67188 0.15625-1.3594 0.21875-2.0469 0.21875-0.15625 0-0.25 0.09375-0.25 0.25s0.09375 0.26562 0.25 0.26562z"/>
</g>
</defs>
<g transform="translate(-149.71 -128.28)">
<use x="148.71201" y="134.765" xlink:href="#a"/>
</g>
</svg>
