<?xml version="1.0" encoding="UTF-8"?>
<svg fill="#000000" version="1.1" viewBox="0 0 6.4375 6.4375" xmlns="http://www.w3.org/2000/svg" xmlns:xlink="http://www.w3.org/1999/xlink">
<defs>
<g id="a">
<path d="m0.59375-5.9844c-0.078125 0.015625-0.14062 0.10938-0.14062 0.20312s0.0625 0.15625 0.10938 0.20312l0.82812 0.82812c0.03125 0.03125 0.0625 0.046875 0.078125 0.078125v0.03125c0 0.03125-0.10938 0.15625-0.15625 0.21875-0.32812 0.5-0.51562 1.0625-0.51562 1.6562 0 0.70312 0.25 1.2344 0.64062 1.8125 0.015625 0.015625 0.03125 0.046875 0.03125 0.0625v0.015625c-0.015625 0.046875-0.046875 0.0625-0.078125 0.09375l-0.75 0.73438c-0.078125 0.09375-0.1875 0.20312-0.1875 0.3125 0 0.078125 0.09375 0.1875 0.1875 0.1875 0.10938 0 0.20312-0.10938 0.28125-0.1875l0.76562-0.76562c0.03125-0.015625 0.046875-0.0625 0.09375-0.0625s0.09375 0.03125 0.125 0.0625c0.53125 0.375 1.0781 0.59375 1.75 0.59375 0.59375 0 1.2188-0.1875 1.7031-0.54688 0.046875-0.03125 0.125-0.10938 0.1875-0.10938 0.03125 0 0.0625 0.03125 0.078125 0.046875l0.75 0.75c0.09375 0.078125 0.1875 0.21875 0.3125 0.21875s0.20312-0.10938 0.20312-0.20312-0.078125-0.15625-0.125-0.21875l-0.82812-0.8125c-0.015625-0.03125-0.0625-0.0625-0.0625-0.09375v-0.015625c0-0.0625 0.09375-0.14062 0.125-0.20312 0.34375-0.48438 0.54688-1.0625 0.54688-1.6875 0-0.65625-0.23438-1.25-0.625-1.7812-0.015625-0.015625-0.046875-0.046875-0.046875-0.09375v-0.015625c0-0.03125 0.046875-0.046875 0.0625-0.078125l0.75-0.75c0.078125-0.078125 0.20312-0.1875 0.20312-0.29688s-0.10938-0.1875-0.20312-0.1875c-0.10938 0-0.1875 0.09375-0.26562 0.17188l-0.76562 0.76562c-0.03125 0.015625-0.046875 0.0625-0.09375 0.078125h-0.015625c-0.046875 0-0.078125-0.046875-0.10938-0.078125-0.53125-0.35938-1.0938-0.59375-1.75-0.59375-0.60938 0-1.2188 0.1875-1.7188 0.54688-0.046875 0.046875-0.10938 0.125-0.17188 0.125h-0.015625c-0.03125 0-0.0625-0.03125-0.078125-0.0625l-0.75-0.73438c-0.078125-0.09375-0.17188-0.21875-0.3125-0.21875h-0.046875zm0.60938 3.3594v-0.14062c0-1.2969 1.0625-2.4844 2.4531-2.4844 1.2812 0 2.4844 1.0469 2.4844 2.4531 0 1.2969-1.0469 2.4844-2.4531 2.4844-1.25 0-2.3594-0.89062-2.4844-2.3125z"/>
</g>
</defs>
<g transform="translate(-149.17 -128.78)">
<use x="148.71201" y="134.765" xlink:href="#a"/>
</g>
</svg>
