<?xml version="1.0" encoding="UTF-8"?>
<svg fill="#000000" version="1.1" viewBox="0 0 8.8457 6.6546" xmlns="http://www.w3.org/2000/svg" xmlns:xlink="http://www.w3.org/1999/xlink">
<defs>
<g id="a">
<path d="m3.6562-2.2969v2.875c0 0.0625 0 0.14062 0.03125 0.20312 0.046875 0.0625 0.20312 0.046875 0.26562 0.03125 0.10938-0.015625 0.10938-0.10938 0.10938-0.1875v-2.9219h3.875c-0.15625 0.15625-0.29688 0.32812-0.45312 0.51562-0.078125 0.09375-0.14062 0.1875-0.23438 0.28125-0.046875 0.078125-0.125 0.17188-0.1875 0.25-0.03125 0.046875-0.0625 0.09375-0.078125 0.14062-0.03125 0.14062 0.15625 0.125 0.25 0.125 0.03125 0 0.0625 0 0.09375-0.015625 0.0625-0.03125 0.125-0.09375 0.17188-0.14062 0.09375-0.078125 0.20312-0.17188 0.29688-0.25 0.3125-0.25 0.64062-0.5 0.98438-0.6875 0.15625-0.10938 0.3125-0.1875 0.48438-0.28125 0.0625-0.015625 0.14062-0.0625 0.14062-0.14062s-0.09375-0.125-0.15625-0.15625c-0.15625-0.078125-0.3125-0.17188-0.46875-0.26562-0.34375-0.20312-0.67188-0.4375-0.98438-0.6875-0.09375-0.078125-0.20312-0.17188-0.29688-0.25-0.046875-0.046875-0.10938-0.10938-0.17188-0.14062-0.03125-0.03125-0.0625-0.03125-0.09375-0.03125-0.09375 0-0.28125 0-0.25 0.14062 0.015625 0.046875 0.046875 0.09375 0.078125 0.125 0.0625 0.09375 0.14062 0.17188 0.1875 0.25 0.09375 0.10938 0.15625 0.20312 0.23438 0.29688 0.15625 0.17188 0.29688 0.34375 0.45312 0.51562h-3.875v-1.0156c0-0.25 0-0.5-0.046875-0.75-0.0625-0.26562-0.1875-0.51562-0.35938-0.71875-0.15625-0.20312-0.35938-0.35938-0.57812-0.45312-0.20312-0.09375-0.42188-0.15625-0.64062-0.1875-0.1875 0-0.39062 0.015625-0.5625 0.0625-0.1875 0.046875-0.35938 0.125-0.51562 0.21875-0.14062 0.078125-0.25 0.1875-0.35938 0.29688-0.46875 0.53125-0.5625 1.2969-0.28125 1.9375 0.09375 0.20312 0.23438 0.39062 0.39062 0.54688 0.23438 0.20312 0.51562 0.35938 0.8125 0.42188 0.23438 0.046875 0.48438 0.046875 0.71875 0.046875zm0-0.40625h-0.95312c-0.20312 0-0.40625 0.015625-0.59375-0.015625-0.20312-0.015625-0.42188-0.10938-0.57812-0.23438-0.17188-0.125-0.29688-0.26562-0.39062-0.4375-0.39062-0.67188-0.125-1.5625 0.57812-1.9062 0.1875-0.09375 0.40625-0.125 0.60938-0.125 0.17188 0 0.35938 0.03125 0.51562 0.10938 0.17188 0.0625 0.3125 0.17188 0.4375 0.3125 0.17188 0.17188 0.28125 0.39062 0.34375 0.64062 0.046875 0.21875 0.03125 0.4375 0.03125 0.65625z"/>
</g>
</defs>
<g transform="translate(-149.27 -128.94)">
<use x="148.71201" y="134.765" xlink:href="#a"/>
</g>
</svg>
