<?xml version="1.0" encoding="UTF-8"?>
<svg fill="#000000" version="1.1" viewBox="0 0 5.9641 5.0028" xmlns="http://www.w3.org/2000/svg" xmlns:xlink="http://www.w3.org/1999/xlink">
<defs>
<g id="a">
<path d="m3.125-4.8594-2.1094 4.5625c-0.03125 0.125 0.015625 0.20312 0.15625 0.28125 0.14062 0.0625 0.25 0 0.3125-0.10938l2.1094-4.5625c0.03125-0.125-0.015625-0.20312-0.17188-0.28125-0.125-0.0625-0.25 0-0.29688 0.10938zm-0.60938 4.8438c0.125 0.0625 0.25 0 0.3125-0.10938l1.8281-3.9844 1.8281 3.9844c0.0625 0.10938 0.1875 0.17188 0.3125 0.10938 0.15625-0.078125 0.20312-0.15625 0.15625-0.28125l-2.0781-4.5156c-0.046875-0.09375-0.0625-0.17188-0.21875-0.17188s-0.17188 0.078125-0.21875 0.17188l-2.0781 4.5156c-0.046875 0.125 0 0.20312 0.15625 0.28125z"/>
</g>
</defs>
<g transform="translate(-149.72 -129.77)">
<use x="148.71201" y="134.765" xlink:href="#a"/>
</g>
</svg>
