<?xml version="1.0" encoding="UTF-8"?>
<svg fill="#000000" version="1.1" viewBox="0 0 4.3125 12.344" xmlns="http://www.w3.org/2000/svg" xmlns:xlink="http://www.w3.org/1999/xlink">
<defs>
<g id="a">
<path d="m4.875 1.6875c0-0.078125-0.046875-0.15625-0.10938-0.20312l-2.5781-1.4844 0.34375-1.2812 2.2344-1.2969c0.0625-0.03125 0.10938-0.10938 0.10938-0.1875 0-0.14062-0.10938-0.23438-0.23438-0.23438-0.03125 0-0.078125 0.015625-0.10938 0.03125l-1.8281 1.0625 0.39062-1.4844 1.6719-0.96875c0.0625-0.03125 0.10938-0.10938 0.10938-0.20312 0-0.078125-0.046875-0.14062-0.10938-0.1875l-1.125-0.65625 0.82812-3.1094c0.03125-0.09375-0.03125-0.20312-0.14062-0.20312-0.0625 0-0.125 0.046875-0.14062 0.10938l-0.8125 3.0625-2.4844-1.4375c-0.015625-0.015625-0.0625-0.03125-0.10938-0.03125-0.10938 0-0.21875 0.10938-0.21875 0.23438 0 0.078125 0.03125 0.15625 0.10938 0.20312l2.5625 1.4844-0.32812 1.2812-2.2344 1.2969c-0.078125 0.03125-0.10938 0.10938-0.10938 0.1875 0 0.14062 0.10938 0.23438 0.21875 0.23438 0.046875 0 0.09375-0.015625 0.10938-0.03125l1.8438-1.0625-0.40625 1.4844-1.6562 0.96875c-0.078125 0.03125-0.10938 0.10938-0.10938 0.20312 0 0.078125 0.03125 0.14062 0.10938 0.1875l1.125 0.65625-0.84375 3.1094c-0.015625 0.09375 0.046875 0.20312 0.15625 0.20312 0.0625 0 0.10938-0.046875 0.14062-0.10938l0.8125-3.0625 2.4688 1.4375c0.03125 0.015625 0.078125 0.015625 0.10938 0.015625 0.125 0 0.23438-0.09375 0.23438-0.21875zm-1.6094-5.7031 0.25-0.92188 0.67188 0.375zm-1.1094 2.9375-0.23438 0.92188-0.67188-0.375z"/>
</g>
</defs>
<g transform="translate(-149.27 -126.05)">
<use x="148.71201" y="134.765" xlink:href="#a"/>
</g>
</svg>
