<?xml version="1.0" encoding="UTF-8"?>
<svg fill="#000000" version="1.1" viewBox="0 0 10.172 10.188" xmlns="http://www.w3.org/2000/svg" xmlns:xlink="http://www.w3.org/1999/xlink">
<defs>
<g id="a">
<path d="m6.4375 4.4531c0-0.45312-0.35938-0.82812-0.82812-0.82812-0.45312 0-0.82812 0.375-0.82812 0.82812 0 0.46875 0.375 0.82812 0.82812 0.82812 0.46875 0 0.82812-0.35938 0.82812-0.82812zm4.2656-0.015625c0-2.8281-2.2656-5.0938-5.0938-5.0938-2.8125 0-5.0781 2.2656-5.0781 5.0938 0 2.8125 2.2812 5.0938 5.0781 5.0938 2.8281 0 5.0938-2.2812 5.0938-5.0938zm-0.79688 0c0 2.3594-1.9375 4.2969-4.2969 4.2969s-4.2812-1.9375-4.2812-4.2969 1.9219-4.2969 4.2812-4.2969 4.2969 1.9375 4.2969 4.2969z"/>
</g>
</defs>
<g transform="translate(-149.24 -127.17)">
<use x="148.71201" y="127.823" xlink:href="#a"/>
</g>
</svg>
