<?xml version="1.0" encoding="UTF-8"?>
<svg fill="#000000" version="1.1" viewBox="0 0 4.9531 6.9219" xmlns="http://www.w3.org/2000/svg" xmlns:xlink="http://www.w3.org/1999/xlink">
<defs>
<g id="a">
<path d="m5.1719-2.2969c0.17188 0 0.34375 0 0.34375-0.20312 0-0.1875-0.1875-0.1875-0.35938-0.1875h-4.2031v-1.5469h4.2031c0.17188 0 0.35938 0 0.35938-0.1875 0-0.20312-0.17188-0.20312-0.34375-0.20312h-4.2188v-1.9375c0-0.17188 0-0.35938-0.20312-0.35938-0.1875 0-0.1875 0.1875-0.1875 0.35938v6.2031c0 0.17188 0 0.35938 0.1875 0.35938 0.20312 0 0.20312-0.17188 0.20312-0.34375v-1.9531z"/>
</g>
</defs>
<g transform="translate(-149.27 -127.84)">
<use x="148.71201" y="134.765" xlink:href="#a"/>
</g>
</svg>
