<?xml version="1.0" encoding="UTF-8"?>
<svg fill="#000000" version="1.1" viewBox="0 0 5.75 8.7812" xmlns="http://www.w3.org/2000/svg" xmlns:xlink="http://www.w3.org/1999/xlink">
<defs>
<g id="a">
<path d="m3.7031-7.0156c-0.0625-0.21875-0.17188-0.25-0.5-0.25-0.078125 0-0.17188 0.0625-0.29688 0.23438v0.9375c-1.125 0.32812-1.9219 1.0469-1.9219 1.7344 0.046875 0.82812 0.71875 1.2812 1.9219 1.3125v2.3594c-0.39062-0.015625-0.71875-0.0625-1-0.1875l-0.59375-0.39062c-0.09375-0.046875-0.17188-0.0625-0.29688-0.0625-0.23438 0.015625-0.35938 0.14062-0.35938 0.39062 0.078125 0.71875 0.59375 0.96875 2.25 1.0625v1.125l0.046875 0.17188c0.09375 0.0625 0.20312 0.09375 0.35938 0.09375 0.1875 0 0.28125-0.046875 0.375-0.23438l0.015625-1.2188c1.375-0.28125 2.0938-0.98438 2.0938-2.0312 0-0.98438-0.79688-1.6875-2.0938-1.7656v-1.6875l0.34375 0.015625c0.54688 0.10938 0.89062 0.15625 1.0312 0.15625 0.26562-0.03125 0.35938-0.10938 0.35938-0.42188-0.046875-0.26562-0.89062-0.53125-1.7188-0.53125zm-3.6406 5.1719-0.015625 0.09375c0.09375 0.14062 0.20312 0.21875 0.34375 0.25l0.20312 0.23438c0.015625 0.015625 0.03125 0.03125 0.078125 0.03125 0.078125-0.015625 0.078125-0.015625 0.078125-0.125l-0.15625-0.20312-0.078125-0.1875c-0.09375-0.15625-0.125-0.15625-0.23438-0.15625l-0.015625 0.078125c0.10938 0.0625 0.15625 0.09375 0.1875 0.21875l-0.15625-0.0625-0.14062-0.15625zm1.125 1.0312-0.125-0.10938v-0.078125l0.125 0.015625 0.015625-0.078125-0.046875-0.078125h0.10938l0.17188 0.10938c0 0.125-0.015625 0.14062-0.046875 0.21875zm-0.25 0.28125-0.125-0.078125-0.015625-0.15625c0.015625 0.046875 0.046875 0.0625 0.17188 0.0625 0.015625-0.03125 0.015625-0.046875 0.015625-0.0625 0-0.03125 0-0.046875-0.015625-0.078125h0.0625l0.125 0.10938 0.015625 0.15625c-0.03125 0.046875-0.0625 0.046875-0.23438 0.046875zm2.7656-0.21875v-2.1719l0.53125 0.17188c0.4375 0.20312 0.625 0.46875 0.625 0.84375-0.015625 0.46875-0.39062 0.90625-1.1562 1.1562zm-0.79688-3.0625c-0.5 0-0.90625-0.23438-0.90625-0.54688 0.015625-0.39062 0.34375-0.75 0.90625-0.92188z"/>
</g>
</defs>
<g transform="translate(-148.76 -127.5)">
<use x="148.71201" y="134.765" xlink:href="#a"/>
</g>
</svg>
