<?xml version="1.0" encoding="UTF-8"?>
<svg fill="#000000" version="1.1" viewBox="0 0 5.9219 11.076" xmlns="http://www.w3.org/2000/svg" xmlns:xlink="http://www.w3.org/1999/xlink">
<defs>
<g id="a">
<path d="m2.7812 6.8906c-0.35938-0.1875-0.67188-0.42188-0.8125-0.8125-0.0625-0.14062-0.078125-0.29688-0.10938-0.45312 0-0.078125 0.015625-0.17188-0.0625-0.23438-0.10938-0.09375-0.25-0.0625-0.35938-0.0625h-0.875v0.40625h0.90625c0.0625 0.48438 0.29688 0.9375 0.6875 1.25 0.10938 0.10938 0.25 0.1875 0.39062 0.25 0.0625 0.015625 0.17188 0.046875 0.1875 0.09375 0.03125 0.0625 0 0.17188 0 0.25l-0.046875 0.65625c-0.03125 0.42188-0.0625 0.85938-0.125 1.2969-0.0625 0.48438-0.20312 1.0312-0.5625 1.25-0.3125 0.15625-0.73438 0.0625-0.98438-0.14062 0.125-0.03125 0.23438-0.0625 0.29688-0.15625 0.17188-0.26562 0.015625-0.625-0.28125-0.67188h-0.15625c-0.375 0.09375-0.39062 0.53125-0.21875 0.79688 0.10938 0.17188 0.29688 0.3125 0.48438 0.375 0.64062 0.23438 1.3125-0.01563 1.6719-0.59375 0.39062-0.59375 0.48438-1.3125 0.59375-2l0.078125-0.6875c0.046875-0.34375 0.03125-0.3125 0.28125-0.35938 0.78125-0.20312 1.3125-0.85938 1.3906-1.6094h0.92188v-0.40625h-0.875c-0.10938 0-0.26562-0.03125-0.35938 0.0625-0.078125 0.0625-0.0625 0.15625-0.078125 0.26562-0.046875 0.75-0.59375 1.1406-1.1875 1.3281 0.078125-0.92188 0.20312-1.8438 0.28125-2.75 0.0625-0.96875 0.078125-1.9531 0.25-2.9062 0.09375-0.46875 0.28125-1.1094 0.875-1.1094 0.25 0 0.48438 0.078125 0.625 0.20312-0.09375 0.03125-0.17188 0.0625-0.23438 0.10938-0.17188 0.15625-0.17188 0.46875-0.015625 0.625 0.15625 0.14062 0.39062 0.14062 0.5625 0.03125 0.32812-0.23438 0.09375-0.75-0.15625-0.9375-0.40625-0.3125-0.98438-0.32812-1.4219-0.09375-0.60938 0.32812-0.85938 1.125-0.98438 1.75-0.17188 0.84375-0.23438 1.7188-0.34375 2.5625-0.09375 0.8125-0.21875 1.625-0.23438 2.4219zm-2.2656-1.5625c0 0.03125 0.015625 0.015625 0.015625 0.015625zm5.5781 0c0 0.03125 0.03125 0.015625 0.03125 0.015625zm-5.6094 0.03125v-0.015625zm5.6719 0v-0.015625zm-5.6875 0h-0.015625zm5.7188 0h-0.015625zm-5.7812 0.046875 0.015625-0.03125zm5.8281 0-0.03125-0.03125zm-5.8438 0.03125h-0.015625zm5.875 0h-0.015625zm-5.8906 0.03125v-0.015625zm5.8906 0v-0.015625zm-5.8906 0.03125-0.015625-0.015625zm5.9062 0-0.015625-0.015625zm-4.4531 0.125h0.015625zm-0.015625 0.03125h0.015625zm3 0h0.015625zm-3.0312 0.046875 0.015625-0.015625zm3.0781 0v-0.015625zm-3.1094 0.015625 0.015625-0.015625zm3.125 0 0.015625-0.015625zm-3.1406 0h0.015625zm3.1562 0h0.015625zm-3.1719 0.015625s-0.015625-0.015625 0-0.015625zm3.2031 0v-0.015625c0.015625 0 0 0.015625 0 0.015625z"/>
</g>
</defs>
<g transform="translate(-149.07 -126.73)">
<use x="148.71201" y="126.739" xlink:href="#a"/>
</g>
</svg>
