<?xml version="1.0" encoding="UTF-8"?>
<svg fill="#000000" width="3.8125" height="8.2188" version="1.1" viewBox="0 0 3.8125 8.2187" xmlns="http://www.w3.org/2000/svg" xmlns:xlink="http://www.w3.org/1999/xlink">
<defs>
<g id="a">
<path d="m2.3906 1.4844h0.21875v-1.2188c0-1.2031 0.14062-2.0938 0.40625-2.7812-0.28125-0.3125-0.40625-0.875-0.40625-1.8438 0.34375 0.015625 0.48438 0.046875 0.90625 0.21875 0.20312 0.078125 0.39062 0.10938 0.51562 0.10938 0.21875 0 0.375-0.17188 0.375-0.42188s-0.17188-0.4375-0.375-0.4375c-0.125 0-0.29688 0.046875-0.5 0.125-0.42188 0.17188-0.54688 0.20312-0.92188 0.21875 0-0.53125 0.03125-0.76562 0.23438-1.2812 0.078125-0.1875 0.125-0.35938 0.125-0.46875 0-0.21875-0.23438-0.4375-0.46875-0.4375s-0.46875 0.21875-0.46875 0.4375c0 0.10938 0.046875 0.28125 0.125 0.46875 0.20312 0.51562 0.23438 0.73438 0.23438 1.2812-0.35938-0.015625-0.5-0.046875-0.92188-0.21875-0.20312-0.078125-0.375-0.125-0.48438-0.125-0.23438 0-0.39062 0.1875-0.39062 0.4375 0 0.28125 0.14062 0.42188 0.4375 0.42188 0.10938 0 0.21875-0.03125 0.45312-0.10938 0.40625-0.17188 0.5625-0.20312 0.90625-0.21875 0 0.98438-0.125 1.5312-0.42188 1.8438 0.25 0.67188 0.42188 1.875 0.42188 2.7812z"/>
</g>
</defs>
<g transform="translate(-149.31 -128.03)">
<use x="148.71201" y="134.765" xlink:href="#a"/>
</g>
</svg>
