<?xml version="1.0" encoding="UTF-8"?>
<svg fill="#000000" version="1.1" viewBox="0 0 4.4062 6.6406" xmlns="http://www.w3.org/2000/svg" xmlns:xlink="http://www.w3.org/1999/xlink">
<defs>
<g id="a">
<path d="m2.5625-5.6094v0.92188c-0.51562 0.046875-1 0.26562-1.3594 0.64062-0.42188 0.40625-0.64062 0.96875-0.64062 1.5469 0 0.59375 0.21875 1.1562 0.64062 1.5781 0.35938 0.35938 0.84375 0.57812 1.3594 0.625v0.92188c0 0.10938 0.09375 0.20312 0.20312 0.20312s0.1875-0.09375 0.1875-0.20312v-0.92188c0.51562-0.046875 1-0.26562 1.3594-0.625 0.42188-0.42188 0.65625-0.98438 0.65625-1.5781 0-0.57812-0.23438-1.1406-0.65625-1.5625-0.35938-0.35938-0.84375-0.57812-1.3594-0.625v-0.92188c0-0.10938-0.078125-0.20312-0.1875-0.20312s-0.20312 0.09375-0.20312 0.20312zm-1.0781 4.3906c-0.34375-0.34375-0.53125-0.79688-0.53125-1.2812 0-0.46875 0.1875-0.92188 0.53125-1.2656 0.29688-0.29688 0.67188-0.48438 1.0781-0.51562v3.5781c-0.40625-0.03125-0.78125-0.21875-1.0781-0.51562zm2.5469-2.5469c0.34375 0.34375 0.53125 0.79688 0.53125 1.2656 0 0.48438-0.1875 0.9375-0.53125 1.2812-0.28125 0.29688-0.65625 0.48438-1.0781 0.51562v-3.5781c0.42188 0.03125 0.79688 0.21875 1.0781 0.51562z"/>
</g>
</defs>
<g transform="translate(-149.27 -128.95)">
<use x="148.71201" y="134.765" xlink:href="#a"/>
</g>
</svg>
