<?xml version="1.0" encoding="UTF-8"?>
<svg fill="#000000" version="1.1" viewBox="0 0 5.0666 7.0295" xmlns="http://www.w3.org/2000/svg" xmlns:xlink="http://www.w3.org/1999/xlink">
<defs>
<g id="a">
<path d="m1.4062-6.8125v0.29688c0.29688 0 0.59375 0 0.89062 0.03125 0.14062 0.015625 0.28125 0.03125 0.35938 0.14062 0.10938 0.125 0.078125 0.29688 0.078125 0.4375v3.8281c0 0.54688 0.046875 1.1406-0.26562 1.6406-0.0625 0.09375-0.14062 0.20312-0.21875 0.28125-0.35938 0.28125-0.89062 0.10938-1.1875-0.17188-0.078125-0.078125-0.14062-0.1875-0.20312-0.26562 0.17188 0.015625 0.35938-0.015625 0.5-0.14062 0.23438-0.23438 0.20312-0.6875-0.078125-0.875s-0.71875-0.078125-0.84375 0.26562c-0.078125 0.21875-0.015625 0.5 0.078125 0.70312 0.046875 0.125 0.10938 0.23438 0.20312 0.32812 0.23438 0.28125 0.5625 0.46875 0.92188 0.51562 0.25 0.03125 0.5 0 0.75 0s0.5 0.015625 0.73438 0c0.40625-0.046875 0.78125-0.23438 1.0781-0.5 0.25-0.23438 0.42188-0.5625 0.46875-0.90625 0.015625-0.125 0.015625-0.25 0.015625-0.375v-4.3906c0-0.14062-0.015625-0.34375 0.09375-0.45312 0.0625-0.046875 0.15625-0.0625 0.23438-0.0625 0.14062-0.03125 0.29688-0.03125 0.45312-0.03125v-0.29688zm2.9844 0.29688v4.7188c0 0.28125 0 0.54688-0.078125 0.8125-0.14062 0.4375-0.54688 0.78125-0.98438 0.92188-0.20312 0.046875-0.39062 0.046875-0.59375 0.046875 0.42188-0.25 0.75-0.67188 0.82812-1.1562 0.03125-0.14062 0.03125-0.28125 0.03125-0.4375v-4.9062z"/>
</g>
</defs>
<g transform="translate(-149.11 -127.95)">
<use x="148.71201" y="134.765" xlink:href="#a"/>
</g>
</svg>
