<?xml version="1.0" encoding="UTF-8"?>
<svg fill="#000000" version="1.1" viewBox="0 0 6.0469 5.375" xmlns="http://www.w3.org/2000/svg" xmlns:xlink="http://www.w3.org/1999/xlink">
<defs>
<g id="a">
<path d="m3.8438-4.0938c0-0.29688-0.23438-0.53125-0.53125-0.53125-0.28125 0-0.51562 0.23438-0.51562 0.53125 0 0.28125 0.23438 0.53125 0.51562 0.53125s0.53125-0.23438 0.53125-0.53125zm2.5 4.3125c0-0.28125-0.25-0.53125-0.53125-0.53125-0.29688 0-0.53125 0.25-0.53125 0.53125 0 0.29688 0.23438 0.53125 0.53125 0.53125 0.28125 0 0.53125-0.23438 0.53125-0.53125zm-4.9844 0c0-0.28125-0.25-0.53125-0.53125-0.53125-0.29688 0-0.53125 0.25-0.53125 0.53125 0 0.29688 0.23438 0.53125 0.53125 0.53125 0.28125 0 0.53125-0.23438 0.53125-0.53125z"/>
</g>
</defs>
<g transform="translate(-149.01 -130.14)">
<use x="148.71201" y="134.765" xlink:href="#a"/>
</g>
</svg>
