<?xml version="1.0" encoding="UTF-8"?>
<svg fill="#000000" version="1.1" viewBox="0 0 5.375 9.9844" xmlns="http://www.w3.org/2000/svg" xmlns:xlink="http://www.w3.org/1999/xlink">
<defs>
<g id="a">
<path d="m5.0312-4.7656c0.125-0.125 0.14062-0.14062 0.14062-0.21875 0-0.10938-0.09375-0.20312-0.20312-0.20312-0.078125 0-0.078125 0.015625-0.3125 0.23438l-1 1v-3.1406c0-0.1875 0-0.39062-0.20312-0.39062-0.1875 0-0.1875 0.17188-0.1875 0.34375v3.5781l-1.5469 1.5625v-5.1406c0-0.17188 0-0.34375-0.20312-0.34375s-0.20312 0.20312-0.20312 0.39062v5.5l-1.375 1.3594c-0.10938 0.10938-0.14062 0.17188-0.14062 0.23438 0 0.10938 0.10938 0.20312 0.20312 0.20312 0.078125 0 0.09375-0.015625 0.28125-0.20312l1.0312-1.0312v3.1406c0 0.1875 0 0.39062 0.20312 0.39062s0.20312-0.17188 0.20312-0.34375v-3.5781l1.5469-1.5625v5.1406c0 0.17188 0 0.34375 0.1875 0.34375 0.20312 0 0.20312-0.20312 0.20312-0.39062v-5.5z"/>
</g>
</defs>
<g transform="translate(-148.51 -127.28)">
<use x="148.71201" y="134.765" xlink:href="#a"/>
</g>
</svg>
