<?xml version="1.0" encoding="UTF-8"?>
<svg fill="#000000" version="1.1" viewBox="0 0 7.4219 7.0312" xmlns="http://www.w3.org/2000/svg" xmlns:xlink="http://www.w3.org/1999/xlink">
<defs>
<g id="a">
<path d="m0.53125-6.5156h5.7656c-1.2188 0.4375-2.4531 1.0156-3.0938 2.1875-1.0781 0.32812-2.0469 0.9375-2.8125 1.7656-0.046875 0.046875-0.0625 0.09375-0.0625 0.14062 0 0.10938 0.09375 0.20312 0.20312 0.20312 0.0625 0 0.10938-0.03125 0.14062-0.0625 0.64062-0.6875 1.4375-1.2188 2.3125-1.5469-0.125 0.34375-0.1875 0.70312-0.1875 1.0625 0 1.2188 0.70312 2.3594 1.9219 2.75 0.25 0.078125 0.5 0.125 0.75 0.125 1.1719 0 2.2812-0.82812 2.2812-2.1719 0-1.5312-1.4688-2.4688-3.1562-2.4688-0.26562 0-0.54688 0.03125-0.82812 0.078125 0.75-1.0156 2.0469-1.4844 3.4062-1.9531l0.32812-0.125c0.09375-0.03125 0.14062-0.10938 0.14062-0.1875 0-0.10938-0.078125-0.20312-0.20312-0.20312h-6.9062c-0.10938 0-0.20312 0.09375-0.20312 0.20312s0.09375 0.20312 0.20312 0.20312zm6.8125 4.5625c-0.046875 0.96875-0.89062 1.6562-1.875 1.6562-0.20312 0-0.42188-0.015625-0.625-0.09375-1.0312-0.32812-1.6406-1.3125-1.6406-2.375 0-0.40625 0.09375-0.82812 0.28125-1.2188 0.375-0.10938 0.75-0.15625 1.1094-0.15625 1.5156 0 2.75 0.84375 2.75 2.0938z"/>
</g>
</defs>
<g transform="translate(-149.04 -127.84)">
<use x="148.71201" y="134.765" xlink:href="#a"/>
</g>
</svg>
