<?xml version="1.0" encoding="UTF-8"?>
<svg fill="#000000" version="1.1" viewBox="0 0 10.969 7.9844" xmlns="http://www.w3.org/2000/svg" xmlns:xlink="http://www.w3.org/1999/xlink">
<defs>
<g id="a">
<path d="m8.0781-6.4844c-0.10938 0-0.23438 0.046875-0.26562 0.15625l-1.4688 3.5312h-1.75c-0.25-0.85938-0.79688-1.5-1.75-1.5-1 0-1.8438 0.8125-1.8438 1.8125 0 0.98438 0.89062 1.7812 1.8438 1.7812 0.98438 0 1.5-0.64062 1.75-1.4844h1.5l-1.4375 3.4844c0 0.10938 0.125 0.20312 0.23438 0.20312 0.09375 0 0.21875-0.046875 0.26562-0.15625l1.4531-3.5312h5.0312c0.15625 0 0.32812-0.125 0.32812-0.3125 0-0.15625-0.15625-0.29688-0.32812-0.29688h-4.7812l1.4219-3.4375c0-0.10938-0.09375-0.25-0.20312-0.25zm-6.4688 3.9844c0-0.64062 0.54688-1.2031 1.1875-1.2031 0.6875 0 1.2031 0.53125 1.2031 1.2031s-0.53125 1.2031-1.2031 1.2031c-0.64062 0-1.1875-0.53125-1.1875-1.2031z"/>
</g>
</defs>
<g transform="translate(-149.71 -128.28)">
<use x="148.71201" y="134.765" xlink:href="#a"/>
</g>
</svg>
