<?xml version="1.0" encoding="UTF-8"?>
<svg fill="#000000" version="1.1" viewBox="0 0 7.5938 8.3594" xmlns="http://www.w3.org/2000/svg" xmlns:xlink="http://www.w3.org/1999/xlink">
<defs>
<g id="a">
<path d="m0.34375 0.35938c0 0.73438 0.60938 1.3281 1.3438 1.3281 0.75 0 1.3438-0.59375 1.3438-1.3281 0-1.7188-1.7188-2.875-1.7188-4.4531 0-1.2969 1.3125-2.1875 2.8281-2.1875s2.8438 0.89062 2.8438 2.1875c0 1.5781-1.7344 2.7344-1.7344 4.4531 0 0.73438 0.60938 1.3281 1.3438 1.3281 0.75 0 1.3438-0.59375 1.3438-1.3281 0-0.10938-0.09375-0.20312-0.20312-0.20312s-0.20312 0.09375-0.20312 0.20312c0 0.51562-0.40625 0.9375-0.9375 0.9375-0.51562 0-0.9375-0.42188-0.9375-0.9375 0-1.5781 1.7344-2.7188 1.7344-4.4531 0-1.5938-1.6094-2.5781-3.25-2.5781s-3.2344 0.98438-3.2344 2.5781c0 1.2656 0.92188 2.2344 1.4219 3.2812-0.1875-0.10938-0.40625-0.17188-0.64062-0.17188-0.73438 0-1.3438 0.60938-1.3438 1.3438zm1.3438 0.9375c-0.51562 0-0.9375-0.42188-0.9375-0.9375s0.42188-0.9375 0.9375-0.9375c0.53125 0 0.9375 0.42188 0.9375 0.9375s-0.40625 0.9375-0.9375 0.9375z"/>
</g>
</defs>
<g transform="translate(-149.06 -128.09)">
<use x="148.71201" y="134.765" xlink:href="#a"/>
</g>
</svg>
