<?xml version="1.0" encoding="UTF-8"?>
<svg fill="#000000" version="1.1" viewBox="0 0 4.5781 7.9899" xmlns="http://www.w3.org/2000/svg" xmlns:xlink="http://www.w3.org/1999/xlink">
<defs>
<g id="a">
<path d="m1.25 0.17188h0.75l-0.45312 1.0938c-0.046875 0.09375 0 0.1875 0.09375 0.21875 0.09375 0.046875 0.1875 0 0.21875-0.09375l0.51562-1.2188h2.9531c0.14062 0 0.25-0.125 0.25-0.26562 0-0.125-0.10938-0.25-0.25-0.25h-2.75l0.90625-2.1719c0.60938-0.14062 1.2344-0.1875 1.8438-0.1875 0.15625 0 0.25-0.10938 0.25-0.25 0-0.09375-0.015625-0.14062-0.078125-0.20312-0.046875-0.03125-0.10938-0.046875-0.17188-0.046875-0.5 0-1.0156-0.03125-1.5156-0.10938l1.2188-2.9219c0.046875-0.10938 0.015625-0.20312-0.078125-0.23438-0.10938-0.046875-0.20312 0-0.23438 0.09375l-1.25 3c-0.625-0.125-1.3125-0.39062-1.7031-0.90625-0.17188-0.21875-0.1875-0.40625-0.26562-0.65625-0.046875-0.125-0.10938-0.17188-0.25-0.17188s-0.25 0.0625-0.25 0.21875c0 0.23438 0.125 0.5625 0.25 0.76562 0.39062 0.67188 1.1406 0.98438 1.875 1.1719-0.9375 0.25-2.125 0.84375-2.125 1.9688 0 0.14062 0.14062 0.20312 0.25 0.20312 0.0625 0 0.10938-0.015625 0.15625-0.046875 0.15625-0.09375 0.015625-1.0625 1.5938-1.5625 0.015625-0.015625 0.046875-0.015625 0.078125-0.015625l-0.85938 2.0625h-0.96875c-0.14062 0-0.25 0.125-0.25 0.25 0 0.14062 0.10938 0.26562 0.25 0.26562z"/>
</g>
</defs>
<g transform="translate(-149.71 -128.28)">
<use x="148.71201" y="134.765" xlink:href="#a"/>
</g>
</svg>
