<?xml version="1.0" encoding="UTF-8"?>
<svg fill="#000000" version="1.1" viewBox="0 0 6.3803 6.6419" xmlns="http://www.w3.org/2000/svg" xmlns:xlink="http://www.w3.org/1999/xlink">
<defs>
<g id="a">
<path d="m4.9531-3.4844h-4.1406c-0.10938 0-0.23438-0.03125-0.25 0.10938-0.015625 0.0625-0.03125 0.20312 0.03125 0.25 0.078125 0.046875 0.1875 0.03125 0.28125 0.03125h4.0781v1.1875h-4.1406c-0.10938 0-0.23438-0.03125-0.25 0.10938-0.015625 0.0625-0.03125 0.20312 0.03125 0.25 0.078125 0.046875 0.1875 0.03125 0.28125 0.03125h4.0781v1.9531c0 0.09375-0.015625 0.17188 0 0.26562 0.015625 0.10938 0.125 0.10938 0.21875 0.10938 0.046875 0 0.10938 0 0.15625-0.03125 0.03125-0.046875 0.03125-0.10938 0.03125-0.15625v-6.0938c0-0.09375 0.03125-0.26562-0.046875-0.32812-0.03125-0.03125-0.09375-0.03125-0.14062-0.03125s-0.10938 0-0.15625 0.03125c-0.046875 0.015625-0.0625 0.0625-0.0625 0.10938v0.26562zm1.6406-2.3281c-0.046875 0.015625-0.0625 0.078125-0.0625 0.125v0.25 6.0781c0 0.03125 0 0.078125 0.015625 0.10938 0.046875 0.078125 0.125 0.0625 0.20312 0.0625h0.09375c0.046875-0.015625 0.078125-0.0625 0.078125-0.10938 0.015625-0.078125 0-0.17188 0-0.26562v-6.0625-0.125c-0.046875-0.078125-0.14062-0.078125-0.21875-0.078125-0.03125 0-0.078125 0-0.10938 0.015625z"/>
</g>
</defs>
<g transform="translate(-149.26 -128.94)">
<use x="148.71201" y="134.765" xlink:href="#a"/>
</g>
</svg>
