<?xml version="1.0" encoding="UTF-8"?>
<svg fill="#000000" version="1.1" viewBox="0 0 5.5202 4.4967" xmlns="http://www.w3.org/2000/svg" xmlns:xlink="http://www.w3.org/1999/xlink">
<defs>
<g id="a">
<path d="m3.0469-0.75c0.10938 0.23438 0.21875 0.46875 0.4375 0.64062 0.42188 0.3125 1 0.25 1.4375-0.015625 0.15625-0.09375 0.3125-0.25 0.4375-0.40625 0.46875-0.60938 0.54688-1.4844 0.3125-2.2031-0.14062-0.42188-0.39062-0.79688-0.70312-1.1094-0.14062-0.15625-0.29688-0.29688-0.48438-0.40625-0.0625-0.046875-0.14062-0.10938-0.21875-0.14062-0.09375-0.03125-0.1875 0.078125-0.125 0.15625 0.015625 0.046875 0.0625 0.0625 0.09375 0.09375 0.0625 0.03125 0.10938 0.078125 0.15625 0.125 0.15625 0.14062 0.26562 0.3125 0.34375 0.5 0.17188 0.375 0.20312 0.79688 0.21875 1.2031 0.015625 0.45312 0.03125 0.9375-0.078125 1.3906-0.0625 0.29688-0.20312 0.67188-0.53125 0.76562-0.0625 0.03125-0.10938 0.03125-0.17188 0.03125s-0.125 0-0.1875-0.015625c-0.375-0.0625-0.60938-0.375-0.71875-0.70312-0.046875-0.10938-0.078125-0.21875-0.09375-0.32812-0.015625-0.09375 0.03125-0.21875 0.046875-0.3125 0.03125-0.1875 0.046875-0.35938 0.046875-0.54688 0.015625-0.046875 0.015625-0.10938 0.015625-0.17188 0.015625-0.09375 0.015625-0.20312 0.015625-0.29688 0-0.0625 0-0.125-0.015625-0.17188-0.03125-0.09375-0.09375-0.17188-0.20312-0.1875-0.125-0.03125-0.23438 0.0625-0.28125 0.17188-0.015625 0.078125 0 0.15625 0 0.21875v0.40625c0.03125 0.20312 0.03125 0.39062 0.0625 0.59375 0.015625 0.09375 0.0625 0.20312 0.046875 0.29688 0 0.10938-0.046875 0.21875-0.078125 0.32812-0.09375 0.25-0.25 0.5-0.5 0.64062-0.10938 0.046875-0.20312 0.078125-0.3125 0.078125h-0.1875c-0.375-0.0625-0.54688-0.4375-0.625-0.76562-0.046875-0.23438-0.0625-0.46875-0.078125-0.71875-0.015625-0.21875-0.015625-0.46875 0-0.6875 0.015625-0.40625 0.046875-0.8125 0.20312-1.1875 0.10938-0.26562 0.28125-0.5 0.51562-0.65625 0.0625-0.0625 0.17188-0.10938 0.09375-0.21875-0.046875-0.0625-0.14062-0.03125-0.1875 0.015625-0.15625 0.09375-0.29688 0.1875-0.4375 0.3125-0.64062 0.54688-1.0625 1.3438-1.0312 2.2031 0.015625 0.1875 0.03125 0.35938 0.078125 0.54688 0.0625 0.1875 0.14062 0.375 0.23438 0.54688 0.125 0.21875 0.29688 0.4375 0.51562 0.57812 0.42188 0.28125 1.0312 0.35938 1.4688 0.046875 0.23438-0.15625 0.35938-0.40625 0.46875-0.64062z"/>
</g>
</defs>
<g transform="translate(-148.99 -130.37)">
<use x="148.71201" y="134.765" xlink:href="#a"/>
</g>
</svg>
