<?xml version="1.0" encoding="UTF-8"?>
<svg fill="#000000" version="1.1" viewBox="0 0 6.9909 6.7969" xmlns="http://www.w3.org/2000/svg" xmlns:xlink="http://www.w3.org/1999/xlink">
<defs>
<g id="a">
<path d="m0.34375-6.8125v0.29688c0.21875 0 0.4375 0 0.67188 0.03125 0.10938 0.015625 0.23438 0.03125 0.29688 0.14062 0.078125 0.10938 0.046875 0.28125 0.046875 0.42188v5.0312c0 0.125 0.03125 0.28125-0.046875 0.40625-0.0625 0.10938-0.17188 0.125-0.29688 0.14062-0.23438 0.03125-0.45312 0.03125-0.67188 0.03125v0.29688h3.7969 0.53125c0.29688-0.046875 0.59375-0.125 0.85938-0.25 0.23438-0.10938 0.4375-0.25 0.625-0.40625 1.5469-1.3125 1.5469-3.9062 0.14062-5.3125-0.17188-0.17188-0.34375-0.3125-0.54688-0.4375-0.3125-0.1875-0.65625-0.3125-1.0156-0.375-0.1875-0.015625-0.39062-0.015625-0.57812-0.015625zm2.6719 0.29688v6.2031h-0.79688v-6.2031zm0.64062 0h0.32812c0.1875 0 0.375 0 0.57812 0.046875 0.1875 0.046875 0.375 0.125 0.5625 0.21875 0.125 0.0625 0.26562 0.15625 0.375 0.26562 0.82812 0.71875 0.85938 1.9375 0.82812 2.9531-0.015625 0.75-0.15625 1.5469-0.70312 2.0938-0.10938 0.09375-0.20312 0.1875-0.3125 0.26562-0.15625 0.09375-0.29688 0.17188-0.46875 0.23438-0.20312 0.0625-0.39062 0.10938-0.60938 0.125h-0.3125c-0.09375 0-0.20312 0-0.29688-0.015625s-0.1875-0.015625-0.23438-0.078125c-0.078125-0.10938-0.0625-0.25-0.0625-0.35938v-5.4219c0-0.0625 0-0.14062 0.046875-0.20312 0.046875-0.09375 0.17188-0.10938 0.28125-0.125z"/>
</g>
</defs>
<g transform="translate(-149.06 -127.95)">
<use x="148.71201" y="134.765" xlink:href="#a"/>
</g>
</svg>
