<?xml version="1.0" encoding="UTF-8"?>
<svg fill="#000000" width="6.0786" height="6.8438" version="1.1" viewBox="0 0 6.0786 6.8437" xmlns="http://www.w3.org/2000/svg" xmlns:xlink="http://www.w3.org/1999/xlink">
<defs>
<g id="a">
<path d="m2.9219 0.64062c0-0.1875-0.54688-0.82812-0.84375-1.2344 0.125 0.015625 0.25 0.015625 0.375 0.015625 2.3281 0 4.2344-1.8594 4.2344-4.1719 0-0.35938-0.046875-0.70312-0.14062-1.0469-0.03125-0.10938-0.10938-0.17188-0.21875-0.17188-0.14062 0-0.23438 0.10938-0.23438 0.23438 0 0.09375 0.14062 0.39062 0.14062 0.98438 0 2.0625-1.7344 3.7188-3.7812 3.7188-0.17188 0-0.34375-0.015625-0.5-0.03125 0.4375-0.34375 0.95312-0.57812 1.375-0.9375 0.0625-0.046875 0.09375-0.10938 0.09375-0.17188 0-0.125-0.09375-0.23438-0.23438-0.23438-0.0625 0-0.10938 0.015625-0.14062 0.046875-0.64062 0.54688-1.375 0.98438-2.2188 0.98438-0.10938 0-0.20312 0.078125-0.21875 0.1875 0 0.09375-0.015625 0.20312 0.14062 0.26562 0.82812 0.29688 1.375 1.0312 1.75 1.6719 0.03125 0.078125 0.10938 0.125 0.1875 0.125 0.14062 0 0.23438-0.125 0.23438-0.23438z"/>
</g>
</defs>
<g transform="translate(-149.32 -128.8)">
<use x="148.71201" y="134.765" xlink:href="#a"/>
</g>
</svg>
