<?xml version="1.0" encoding="UTF-8"?>
<svg fill="#000000" width="5.128" height="8.8438" version="1.1" viewBox="0 0 5.128 8.8437" xmlns="http://www.w3.org/2000/svg" xmlns:xlink="http://www.w3.org/1999/xlink">
<defs>
<g id="a">
<path d="m1.9062-6.9219v0.29688c0.17188 0 0.3125 0 0.46875 0.03125 0.09375 0 0.17188 0.015625 0.23438 0.078125 0.078125 0.078125 0.078125 0.20312 0.078125 0.29688v1.7188c-0.1875 0-0.42188 0.046875-0.60938 0.125-0.76562 0.25-1.4844 0.875-1.5938 1.7188 0 0.14062-0.015625 0.25 0 0.39062s0.046875 0.29688 0.10938 0.4375c0.078125 0.21875 0.20312 0.40625 0.35938 0.57812 0.20312 0.25 0.48438 0.4375 0.76562 0.59375 0.29688 0.14062 0.64062 0.25 0.96875 0.26562v1.375c0 0.15625 0.046875 0.40625-0.078125 0.53125-0.0625 0.0625-0.14062 0.0625-0.23438 0.078125-0.15625 0.015625-0.29688 0.015625-0.46875 0.015625v0.3125l0.90625-0.03125 0.92188 0.015625 0.4375 0.015625v-0.3125c-0.17188 0-0.3125 0-0.46875-0.015625-0.078125-0.015625-0.17188-0.015625-0.23438-0.078125-0.125-0.125-0.078125-0.375-0.078125-0.53125v-1.375c0.32812-0.015625 0.67188-0.125 0.96875-0.26562 0.28125-0.15625 0.5625-0.34375 0.78125-0.59375 0.14062-0.17188 0.26562-0.35938 0.34375-0.57812 0.0625-0.14062 0.09375-0.29688 0.10938-0.4375s0.015625-0.25 0-0.39062c-0.09375-0.84375-0.8125-1.4688-1.5938-1.7188-0.1875-0.078125-0.40625-0.125-0.60938-0.125v-1.7188c0-0.09375 0-0.21875 0.078125-0.29688 0.0625-0.0625 0.15625-0.078125 0.23438-0.078125 0.15625-0.03125 0.29688-0.03125 0.46875-0.03125v-0.29688l-0.4375 0.015625-0.9375 0.015625zm0.78125 2.6406v3.6562c-0.46875-0.078125-0.89062-0.3125-1.1719-0.70312-0.15625-0.20312-0.23438-0.4375-0.29688-0.6875-0.10938-0.64062 0.03125-1.3594 0.53125-1.8125 0.26562-0.23438 0.59375-0.375 0.9375-0.45312zm0.70312 3.6562v-3.6562c0.34375 0.078125 0.67188 0.21875 0.95312 0.45312 0.48438 0.45312 0.625 1.1719 0.51562 1.8125-0.046875 0.25-0.14062 0.48438-0.29688 0.6875-0.28125 0.39062-0.70312 0.625-1.1719 0.70312z"/>
</g>
</defs>
<g transform="translate(-149.19 -127.84)">
<use x="148.71201" y="134.765" xlink:href="#a"/>
</g>
</svg>
