<?xml version="1.0" encoding="UTF-8"?>
<svg fill="#000000" width="5.0938" height="8.8438" version="1.1" viewBox="0 0 5.0938 8.8437" xmlns="http://www.w3.org/2000/svg" xmlns:xlink="http://www.w3.org/1999/xlink">
<defs>
<g id="a">
<path d="m5.7188 1.2344v-0.53125h-3.5781l0.39062-1h3.1875v-0.51562h-2.9844l0.96875-2.4219c0.57812-0.1875 1.2344-0.35938 2.0156-0.48438v-0.25c-0.57812-0.09375-1.1094-0.20312-1.5781-0.34375l1.0625-2.6719h-0.53125l-1.0156 2.5156c-2.4062-0.8125-3.0312-2.0469-3.0312-2.0469v0.75c0 0.015625 0.79688 1.1094 2.8594 1.7344l-0.17188 0.42188c-1.9375 0.625-2.6875 1.6719-2.6875 1.6875v0.75s0.51562-1.0312 2.4531-1.8281l-0.875 2.2031h-1.5781v0.51562h1.375l-0.40625 1h-0.96875v0.51562h0.76562l-0.25 0.625h0.53125l0.25-0.64062zm-1.5156-5.0781c-0.09375 0.03125-0.20312 0.046875-0.28125 0.0625l0.046875-0.10938c0.078125 0.015625 0.14062 0.015625 0.23438 0.046875z"/>
</g>
</defs>
<g transform="translate(-149.34 -127.78)">
<use x="148.71201" y="134.765" xlink:href="#a"/>
</g>
</svg>
