<?xml version="1.0" encoding="UTF-8"?>
<svg fill="#000000" version="1.1" viewBox="0 0 4.3125 5.0469" xmlns="http://www.w3.org/2000/svg" xmlns:xlink="http://www.w3.org/1999/xlink">
<defs>
<g id="a">
<path d="m3.2812-0.90625v0.45312l0.45312 0.71875 1.2188-1.0938-0.0625-0.125c-0.14062 0.078125-0.25 0.14062-0.46875 0.21875l-0.35938-0.45312v-1.3594c0-0.6875 0.046875-1.3594 0.14062-2.0312l-0.078125-0.0625-0.67188 0.34375c-0.32812-0.0625-0.64062-0.20312-0.92188-0.39062l-1.6875 1.0469c-0.14062 0.6875-0.20312 1.3906-0.20312 2.0781 0 0.3125 0 0.60938 0.03125 0.92188 0.28125 0.34375 0.5625 0.6875 0.85938 1zm0-0.28125c-0.59375 0.40625-0.98438 0.64062-1.1406 0.64062s-0.57812-0.54688-0.67188-0.65625c-0.015625-0.26562-0.015625-0.53125-0.015625-0.79688 0-0.60938 0-1.4844 0.40625-1.9062 0.45312 0.14062 0.9375 0.26562 1.4062 0.26562z"/>
</g>
</defs>
<g transform="translate(-149.35 -130.08)">
<use x="148.71201" y="134.765" xlink:href="#a"/>
</g>
</svg>
