<?xml version="1.0" encoding="UTF-8"?>
<svg fill="#000000" width="7.1719" height="9.9688" version="1.1" viewBox="0 0 7.1719 9.9687" xmlns="http://www.w3.org/2000/svg" xmlns:xlink="http://www.w3.org/1999/xlink">
<defs>
<g id="a">
<path d="m5.8438 5.0469c0.17188 0 0.51562 0 0.51562-0.34375s-0.32812-0.34375-0.46875-0.34375h-1.3906v-1.3438c0-0.17188 0-0.51562-0.35938-0.51562-0.32812 0-0.32812 0.32812-0.32812 0.45312v1.4062h-1.4062c-0.14062 0-0.46875 0-0.46875 0.34375s0.34375 0.34375 0.51562 0.34375h1.3594v1.4062c0 0.14062 0 0.46875 0.32812 0.46875 0.35938 0 0.35938-0.35938 0.35938-0.51562v-1.3594zm1.2031 1.4375c0 1.6875-1.4219 2.7969-2.9062 2.7969s-2.8906-1.0938-2.8906-2.7969v-6c0-0.14062 0-0.48438-0.34375-0.48438s-0.34375 0.32812-0.34375 0.48438v6.0469c0 1.9375 1.6406 3.4375 3.5781 3.4375 1.9531 0 3.5938-1.5 3.5938-3.4375v-6.0469c0-0.14062 0-0.48438-0.34375-0.48438s-0.34375 0.32812-0.34375 0.48438z"/>
</g>
</defs>
<g transform="translate(-149.27 -127.29)">
<use x="148.71201" y="127.293" xlink:href="#a"/>
</g>
</svg>
