<?xml version="1.0" encoding="UTF-8"?>
<svg fill="#000000" version="1.1" viewBox="0 0 6.635 9.9707" xmlns="http://www.w3.org/2000/svg" xmlns:xlink="http://www.w3.org/1999/xlink">
<defs>
<g id="b">
<path d="m0.70312-3.6562c-0.20312 0.046875-0.1875 0.34375 0 0.375 0.0625 0.015625 0.14062 0.015625 0.1875 0.015625h5.8125c0.14062 0 0.34375 0.03125 0.4375-0.0625 0.10938-0.125 0.03125-0.32812-0.125-0.34375h-0.42188-5.7031c-0.0625 0-0.14062 0-0.1875 0.015625zm0 1.9375c-0.1875 0.03125-0.20312 0.32812 0 0.375 0.046875 0.015625 0.10938 0.015625 0.17188 0.015625h5.8281c0.14062 0 0.34375 0.03125 0.4375-0.0625 0.10938-0.14062 0.03125-0.32812-0.125-0.34375-0.14062-0.015625-0.29688 0-0.4375 0h-5.6875c-0.046875 0-0.125-0.015625-0.1875 0.015625z"/>
</g>
<g id="a">
<path d="m4.1719-7.4844c-0.078125 0.03125-0.125 0.125-0.15625 0.20312l-0.10938 0.26562c-0.17188 0.48438-0.34375 0.96875-0.51562 1.4375-0.71875 1.9844-1.4531 3.9688-2.1719 5.9531-0.1875 0.54688-0.375 1.0781-0.57812 1.625-0.046875 0.14062-0.15625 0.32812-0.015625 0.4375 0.015625 0.015625 0.046875 0.03125 0.0625 0.03125 0.03125 0.015625 0.0625 0.015625 0.09375 0.015625 0.10938-0.015625 0.14062-0.10938 0.17188-0.20312 0.046875-0.10938 0.078125-0.21875 0.125-0.32812 0.20312-0.54688 0.40625-1.0938 0.59375-1.6406 0.71875-1.9844 1.4531-3.9688 2.1719-5.9375 0.17188-0.5 0.35938-0.98438 0.53125-1.4844 0.015625-0.0625 0.046875-0.125 0.046875-0.20312 0-0.10938-0.125-0.1875-0.25-0.17188z"/>
</g>
</defs>
<g transform="translate(-149.27 -127.28)">
<use x="148.71201" y="134.765" xlink:href="#b"/>
<use x="150.0948" y="134.765" xlink:href="#a"/>
</g>
</svg>
