<?xml version="1.0" encoding="UTF-8"?>
<svg fill="#000000" version="1.1" viewBox="0 0 4.3125 8.3125" xmlns="http://www.w3.org/2000/svg" xmlns:xlink="http://www.w3.org/1999/xlink">
<defs>
<g id="a">
<path d="m1.7812 1.5 0.75-2.7812 2 1.1562c0.046875 0.03125 0.078125 0.03125 0.10938 0.03125 0.125 0 0.23438-0.078125 0.23438-0.21875v-4.4688c0-0.14062-0.10938-0.21875-0.23438-0.21875-0.03125 0-0.0625 0-0.10938 0.03125l-1.1875 0.6875 0.59375-2.2344c0.015625-0.09375-0.046875-0.1875-0.15625-0.1875-0.046875 0-0.10938 0.046875-0.125 0.10938l-0.6875 2.5156-2.2969 1.3438c-0.078125 0.03125-0.10938 0.10938-0.10938 0.1875s0.03125 0.15625 0.10938 0.1875l1.5938 0.9375-0.76562 2.8438c-0.03125 0.09375 0.03125 0.1875 0.14062 0.1875 0.0625 0 0.125-0.046875 0.14062-0.10938zm2.6406-2.2188-1.7656-1.0156 0.51562-1.9219 1.25-0.71875zm-2.0469-1.1719-1.125-0.65625 1.5469-0.90625z"/>
</g>
</defs>
<g transform="translate(-149.27 -128.06)">
<use x="148.71201" y="134.765" xlink:href="#a"/>
</g>
</svg>
