<?xml version="1.0" encoding="UTF-8"?>
<svg fill="#000000" version="1.1" viewBox="0 0 5.8594 7.2812" xmlns="http://www.w3.org/2000/svg" xmlns:xlink="http://www.w3.org/1999/xlink">
<defs>
<g id="a">
<path d="m4.0938-6.375c0-0.375-0.3125-0.64062-0.64062-0.64062-0.3125 0-0.625 0.25-0.625 0.64062s0.25 0.64062 0.625 0.64062c0.39062 0 0.64062-0.3125 0.64062-0.64062zm2.0625 1.0781c-0.17188 0.70312-0.51562 1.4688-1.2031 1.4688-0.71875 0-1.8906-1.4688-2.8438-1.4688-0.98438 0-1.5781 1.125-1.625 2.125h0.1875c0.17188-0.70312 0.5625-1.4688 1.2656-1.4688 0.71875 0 1.875 1.4688 2.8438 1.4688s1.5156-1.2812 1.5625-2.125zm0.1875 3.5781v-0.65625h-5.8594v0.65625zm0 1.9844v-0.65625h-5.8594v0.65625z"/>
</g>
</defs>
<g transform="translate(-149.2 -127.75)">
<use x="148.71201" y="134.765" xlink:href="#a"/>
</g>
</svg>
