<?xml version="1.0" encoding="UTF-8"?>
<svg fill="#000000" version="1.1" viewBox="0 0 6.0938 10.25" xmlns="http://www.w3.org/2000/svg" xmlns:xlink="http://www.w3.org/1999/xlink">
<defs>
<g id="a">
<path d="m6.7188-4.3906c0.15625-0.078125 0.20312-0.14062 0.20312-0.21875 0-0.09375-0.046875-0.15625-0.20312-0.23438l-5.5-2.5938c-0.125-0.0625-0.17188-0.0625-0.1875-0.0625-0.10938 0-0.20312 0.078125-0.20312 0.1875 0 0.14062 0.078125 0.17188 0.20312 0.21875l5.2188 2.4688-5.2344 2.4688c-0.14062 0.078125-0.1875 0.125-0.1875 0.21875 0 0.10938 0.09375 0.20312 0.20312 0.20312 0.03125 0 0.046875 0 0.17188-0.0625zm-0.15625 6.125c0.17188 0 0.35938 0 0.35938-0.20312s-0.1875-0.20312-0.35938-0.20312h-2.4844v-1.5312h2.4844c0.17188 0 0.35938 0 0.35938-0.20312 0-0.1875-0.1875-0.1875-0.35938-0.1875h-2.4844v-0.64062c0-0.1875 0-0.375-0.20312-0.375s-0.20312 0.15625-0.20312 0.32812v0.6875h-2.4844c-0.17188 0-0.35938 0-0.35938 0.1875 0 0.20312 0.17188 0.20312 0.34375 0.20312h2.5v1.5312h-2.4844c-0.17188 0-0.35938 0-0.35938 0.20312s0.17188 0.20312 0.34375 0.20312h2.5v0.6875c0 0.15625 0 0.32812 0.20312 0.32812s0.20312-0.20312 0.20312-0.375v-0.64062z"/>
</g>
</defs>
<g transform="translate(-149.54 -127.26)">
<use x="148.71201" y="134.765" xlink:href="#a"/>
</g>
</svg>
