<?xml version="1.0" encoding="UTF-8"?>
<svg fill="#000000" version="1.1" viewBox="0 0 7.3438 7.3594" xmlns="http://www.w3.org/2000/svg" xmlns:xlink="http://www.w3.org/1999/xlink">
<defs>
<g id="a">
<path d="m4.5312-1.875c0 0.26562-0.23438 0.45312-0.48438 0.45312-0.26562 0-0.48438-0.1875-0.48438-0.45312s0.21875-0.46875 0.48438-0.46875c0.25 0 0.48438 0.21875 0.48438 0.46875zm0-3.3438c0-0.25-0.23438-0.46875-0.48438-0.46875-0.26562 0-0.48438 0.21875-0.48438 0.46875s0.21875 0.46875 0.48438 0.46875c0.25 0 0.48438-0.21875 0.48438-0.46875zm1.2344-0.0625c0 1-0.71875 1.75-1.7188 1.75-1.0469 0.046875-1.7344 0.6875-1.7344 1.5938 0.015625 0.82812 0.1875 1.1562 0.6875 1.4219 0.48438 0.26562 0.82812 0.39062 1.0469 0.39062-1.8594 0-3.4219-1.5938-3.4219-3.4375 0-1.9062 1.5156-3.4531 3.4219-3.4531 0.92188 0 1.7188 0.82812 1.7188 1.7344zm1.9531 1.75c0-2.0625-1.625-3.7031-3.6719-3.7031-2.0312 0-3.6719 1.625-3.6719 3.6719 0 2.0312 1.6406 3.6875 3.6719 3.6875s3.6719-1.6406 3.6719-3.6562z"/>
</g>
</defs>
<g transform="translate(-149.09 -127.53)">
<use x="148.71201" y="134.765" xlink:href="#a"/>
</g>
</svg>
