<?xml version="1.0" encoding="UTF-8"?>
<svg fill="#000000" width="6.7656" height="7.2188" version="1.1" viewBox="0 0 6.7656 7.2187" xmlns="http://www.w3.org/2000/svg" xmlns:xlink="http://www.w3.org/1999/xlink">
<defs>
<g id="a">
<path d="m5.1719-7.125-0.45312 0.89062h-4.2969v4.4844h2.3438l-0.03125 1.8438 2.4375-0.82812-1.4688-0.15625 0.625-0.85938h2.8594v-4.4844h-1.2969l0.70312-0.89062zm-1.625 3.0938-2.5156-1.9062h3.5312zm-2.7656 1.6719v-3.375l2.2031 1.7188zm0.10938 0.26562 2.3594-1.7188 0.14062 0.10938-0.26562 0.51562 1.5-0.39062 0.078125 0.046875-0.85938 1.4375zm3.75-2.4688 1.0312-1.375h0.875zm2.1406 2.2344-1.3438-1.0469 0.82812-1.1875-1.7031 0.45312 2.2188-1.5938zm-2.2812 0.23438 0.75-1.0312 1.375 1.0312zm-1.2188 0.90625-0.375-0.5625h0.75z"/>
</g>
</defs>
<g transform="translate(-149.13 -127.64)">
<use x="148.71201" y="134.765" xlink:href="#a"/>
</g>
</svg>
