<?xml version="1.0" encoding="UTF-8"?>
<svg fill="#000000" version="1.1" viewBox="0 0 6.6094 4.7969" xmlns="http://www.w3.org/2000/svg" xmlns:xlink="http://www.w3.org/1999/xlink">
<defs>
<g id="a">
<path d="m7.0625-2.2969c0.046875-0.03125 0.078125-0.078125 0.10938-0.10938v-0.09375-0.078125c-0.03125-0.046875-0.0625-0.078125-0.10938-0.10938l-5.3125-2.1875c-0.03125-0.015625-0.0625-0.015625-0.09375-0.015625-0.046875 0-0.09375 0.015625-0.125 0.0625-0.64062 0.60938-0.96875 1.4531-0.96875 2.3281 0 0.89062 0.32812 1.7344 0.96875 2.3438 0.03125 0.046875 0.078125 0.0625 0.125 0.0625 0.03125 0 0.0625 0 0.09375-0.015625zm-6.1094-0.20312c0-0.71875 0.26562-1.4219 0.76562-1.9531l4.7344 1.9531-4.7344 1.9688c-0.5-0.53125-0.76562-1.2344-0.76562-1.9688z"/>
</g>
</defs>
<g transform="translate(-149.27 -129.87)">
<use x="148.71201" y="134.765" xlink:href="#a"/>
</g>
</svg>
