<?xml version="1.0" encoding="UTF-8"?>
<svg fill="#000000" version="1.1" viewBox="0 0 4.2969 7.5" xmlns="http://www.w3.org/2000/svg" xmlns:xlink="http://www.w3.org/1999/xlink">
<defs>
<g id="a">
<path d="m4.4531-0.98438c0 0.45312-0.20312 0.90625-0.53125 1.2344-0.3125 0.3125-0.76562 0.5-1.2188 0.5-0.46875 0-0.90625-0.1875-1.2344-0.5-0.32812-0.32812-0.51562-0.78125-0.51562-1.2344 0-0.46875 0.1875-0.90625 0.51562-1.2344s0.76562-0.51562 1.2344-0.51562c0.45312 0 0.90625 0.1875 1.2188 0.51562 0.32812 0.32812 0.53125 0.76562 0.53125 1.2344zm-1.5469-4.6719 0.875 0.875c0.03125 0.046875 0.09375 0.0625 0.14062 0.0625 0.10938 0 0.20312-0.09375 0.20312-0.20312 0-0.046875-0.015625-0.09375-0.0625-0.125l-1.2188-1.2344c-0.046875-0.03125-0.09375-0.0625-0.14062-0.0625-0.0625 0-0.10938 0.03125-0.15625 0.0625l-1.2188 1.2344c-0.046875 0.03125-0.046875 0.078125-0.046875 0.125 0 0.10938 0.078125 0.20312 0.1875 0.20312 0.046875 0 0.10938-0.015625 0.14062-0.0625l0.89062-0.875v2.5312c-0.5 0.046875-0.96875 0.26562-1.3281 0.625-0.39062 0.39062-0.625 0.9375-0.625 1.5156 0 0.5625 0.23438 1.1094 0.625 1.5156 0.40625 0.39062 0.96875 0.625 1.5312 0.625s1.1094-0.23438 1.5156-0.625c0.39062-0.40625 0.625-0.95312 0.625-1.5156 0-0.57812-0.23438-1.125-0.64062-1.5312-0.34375-0.34375-0.8125-0.5625-1.2969-0.60938zm-0.20312 4.4688c-0.0625 0-0.10938 0.015625-0.15625 0.046875-0.03125 0.046875-0.046875 0.09375-0.046875 0.15625 0 0.046875 0.015625 0.09375 0.046875 0.14062 0.046875 0.03125 0.09375 0.0625 0.15625 0.0625 0.046875 0 0.09375-0.03125 0.14062-0.0625 0.03125-0.046875 0.0625-0.09375 0.0625-0.14062 0-0.0625-0.03125-0.10938-0.0625-0.15625-0.046875-0.03125-0.09375-0.046875-0.14062-0.046875z"/>
</g>
</defs>
<g transform="translate(-149.26 -128.42)">
<use x="148.71201" y="134.765" xlink:href="#a"/>
</g>
</svg>
