<?xml version="1.0" encoding="UTF-8"?>
<svg fill="#000000" version="1.1" viewBox="0 0 4.3125 12.344" xmlns="http://www.w3.org/2000/svg" xmlns:xlink="http://www.w3.org/1999/xlink">
<defs>
<g id="a">
<path d="m4.875-2.3281c0-0.078125-0.046875-0.15625-0.10938-0.1875l-1.6406-0.95312 0.6875-2.5625 0.95312-0.54688c0.0625-0.046875 0.10938-0.125 0.10938-0.20312 0-0.125-0.10938-0.23438-0.23438-0.23438-0.03125 0-0.078125 0.015625-0.10938 0.03125l-0.5625 0.32812 0.5-1.8594c0.03125-0.09375-0.03125-0.20312-0.14062-0.20312-0.0625 0-0.125 0.046875-0.14062 0.10938l-0.57812 2.1719-2.9375 1.6875c-0.078125 0.046875-0.10938 0.10938-0.10938 0.1875 0 0.09375 0.03125 0.17188 0.10938 0.20312l2.0625 1.1875-0.29688 1.0938-1.5469-0.89062c-0.015625-0.015625-0.0625-0.03125-0.10938-0.03125-0.10938 0-0.21875 0.09375-0.21875 0.23438 0 0.078125 0.03125 0.15625 0.10938 0.1875l1.6406 0.95312-0.6875 2.5625-0.95312 0.54688c-0.078125 0.046875-0.10938 0.125-0.10938 0.20312 0 0.125 0.10938 0.21875 0.21875 0.21875 0.046875 0 0.09375 0 0.10938-0.015625l0.5625-0.32812-0.5 1.8594c-0.015625 0.09375 0.046875 0.20312 0.15625 0.20312 0.0625 0 0.10938-0.046875 0.14062-0.10938l0.57812-2.1562 2.9375-1.7031c0.0625-0.046875 0.10938-0.10938 0.10938-0.1875 0-0.09375-0.046875-0.17188-0.10938-0.20312l-2.0625-1.1875 0.28125-1.0938 1.5469 0.89062c0.03125 0.015625 0.078125 0.03125 0.10938 0.03125 0.125 0 0.23438-0.09375 0.23438-0.23438zm-2.875 3.0625 0.57812-2.2031 1.6094 0.9375zm1.4375-6.5625-0.59375 2.2031-1.5938-0.9375z"/>
</g>
</defs>
<g transform="translate(-149.27 -126.05)">
<use x="148.71201" y="134.765" xlink:href="#a"/>
</g>
</svg>
