<?xml version="1.0" encoding="UTF-8"?>
<svg fill="#000000" width="6.875" height="7.2188" version="1.1" viewBox="0 0 6.875 7.2187" xmlns="http://www.w3.org/2000/svg" xmlns:xlink="http://www.w3.org/1999/xlink">
<defs>
<g id="a">
<path d="m3.3438-7.1562c-1.2031 0.015625-2.3438 0.8125-2.9062 2.0469l0.98438-0.1875c1.7188 0.17188 2.5781 1.0781 2.5781 2.7188 0 0.21875-0.015625 0.46875-0.046875 0.70312-0.21875 0.78125-0.70312 1.3594-1.4375 1.7812 0.34375 0.10938 0.75 0.15625 1.2188 0.15625 2.2188-0.0625 3.5781-1.625 3.5781-4.2031-0.46875-2.0156-1.7969-3.0156-3.9688-3.0156zm-0.078125 6.9375c1.1094-0.73438 1.6719-1.6719 1.6719-2.8281-0.03125-0.875-0.54688-1.6406-1.5312-2.3281-0.3125-0.17188-0.6875-0.25-1.1562-0.25-0.39062 0-0.85938 0.0625-1.375 0.20312v-0.015625c0.70312-0.71875 1.4531-1.0625 2.2812-1.0625 1.875 0.125 3.1406 1.4844 3.1406 3.3438-0.03125 1.5781-1.2969 2.8438-3.0312 2.9531z"/>
</g>
</defs>
<g transform="translate(-149.15 -127.61)">
<use x="148.71201" y="134.765" xlink:href="#a"/>
</g>
</svg>
