<?xml version="1.0" encoding="UTF-8"?>
<svg fill="#000000" version="1.1" viewBox="0 0 7.3906 7.3906" xmlns="http://www.w3.org/2000/svg" xmlns:xlink="http://www.w3.org/1999/xlink">
<defs>
<g id="a">
<path d="m6.0938-1.6406c0-0.14062-0.078125-0.26562-0.23438-0.35938-0.28125-0.17188-0.79688-0.10938-1.4844-0.51562 0.78125-0.4375 1.2031-0.32812 1.4844-0.48438 0.15625-0.09375 0.23438-0.21875 0.23438-0.34375 0-0.29688-0.125-0.46875-0.39062-0.46875-0.078125 0-0.15625 0.03125-0.23438 0.078125-0.3125 0.17188-0.39062 0.64062-1.1719 1.0469 0-0.75 0.3125-1.25 0.3125-1.5938 0-0.21875-0.21875-0.40625-0.40625-0.40625-0.21875 0-0.42188 0.1875-0.42188 0.40625 0 0.34375 0.3125 0.85938 0.3125 1.6094-0.60938-0.32812-0.89062-0.89062-1.2188-1.0625-0.078125-0.046875-0.15625-0.078125-0.23438-0.078125-0.28125 0-0.39062 0.21875-0.39062 0.46875 0 0.125 0.078125 0.25 0.21875 0.32812 0.29688 0.1875 0.9375 0.17188 1.5156 0.5-0.57812 0.32812-1.2188 0.35938-1.5 0.51562-0.17188 0.09375-0.23438 0.28125-0.23438 0.4375 0 0.17188 0.14062 0.34375 0.40625 0.34375 0.09375 0 0.1875-0.03125 0.29688-0.09375 0.23438-0.125 0.57812-0.73438 1.1406-1.0625 0 0.76562-0.3125 1.2344-0.3125 1.5781 0 0.23438 0.20312 0.45312 0.42188 0.45312 0.1875 0 0.40625-0.21875 0.40625-0.45312 0-0.34375-0.3125-0.8125-0.3125-1.5781 0.84375 0.48438 0.92188 1.1562 1.375 1.1562 0.3125 0 0.42188-0.1875 0.42188-0.42188zm1.7969-0.875c0-2.0469-1.6562-3.6875-3.6875-3.6875-2.0469 0-3.7031 1.6406-3.7031 3.6875s1.6562 3.7031 3.7031 3.7031c2.0312 0 3.6875-1.6562 3.6875-3.7031zm-0.65625 0c0 1.6719-1.3594 3.0469-3.0312 3.0469-1.6875 0-3.0469-1.375-3.0469-3.0469s1.3594-3.0312 3.0469-3.0312c1.6719 0 3.0312 1.3594 3.0312 3.0312z"/>
</g>
</defs>
<g transform="translate(-149.21 -128.56)">
<use x="148.71201" y="134.765" xlink:href="#a"/>
</g>
</svg>
