<?xml version="1.0" encoding="UTF-8"?>
<svg fill="#000000" version="1.1" viewBox="0 0 5.2031 8.6562" xmlns="http://www.w3.org/2000/svg" xmlns:xlink="http://www.w3.org/1999/xlink">
<defs>
<g id="a">
<path d="m1.7969-3.0781 0.10938 0.10938c0.28125-0.14062 0.59375-0.21875 0.92188-0.21875 0.84375 0 1.5781 0.40625 1.5781 1.6094 0 1.125-0.45312 2.6719-1.8281 2.6719-0.42188 0-0.60938-0.17188-0.60938-0.67188 0-0.67188-0.0625-0.79688-0.48438-0.79688-0.48438 0-0.96875 0.3125-1.375 0.64062l0.125 0.15625c0.15625-0.125 0.40625-0.26562 0.51562-0.26562 0.42188 0 0.35938 0.40625 0.35938 1.125 0.32812 0.078125 0.64062 0.10938 0.96875 0.10938 0.89062 0 1.75-0.34375 2.4375-0.90625 0.48438-0.73438 0.79688-1.5781 0.79688-2.4531 0-0.375-0.046875-0.75-0.15625-1.1094-0.34375-0.51562-0.98438-0.6875-1.5938-0.6875-0.15625 0-0.39062 0.03125-0.54688 0.0625l-0.0625-0.03125c0.8125-0.48438 1.7188-1.2031 1.7188-2.2031 0-0.5625-0.46875-0.79688-1.1094-0.79688-0.34375 0-0.82812 0.046875-1.0625 0.046875-0.32812 0-0.82812 0-0.82812-0.34375 0-0.078125 0.046875-0.17188 0.078125-0.23438h-0.15625l-0.6875 0.95312c0 0.375 0.40625 0.42188 0.6875 0.42188 0.23438 0 1.0156-0.09375 1.4844-0.09375 0.34375 0 0.75 0.1875 0.75 0.57812 0 0.82812-0.78125 1.6406-1.5938 1.7031z"/>
</g>
</defs>
<g transform="translate(-148.82 -127.5)">
<use x="148.71201" y="134.765" xlink:href="#a"/>
</g>
</svg>
