<?xml version="1.0" encoding="UTF-8"?>
<svg fill="#000000" version="1.1" viewBox="0 0 4.25 7.0312" xmlns="http://www.w3.org/2000/svg" xmlns:xlink="http://www.w3.org/1999/xlink">
<defs>
<g id="a">
<path d="m2.2969 0.10938c1.0938 0 2-0.98438 2.3125-2.0156 0.1875-0.5625 0.23438-1.1719 0.23438-1.7656 0-1.3281-0.15625-3.25-1.6875-3.25-1.1406 0-2.0312 0.8125-2.375 1.8906-0.1875 0.57812-0.1875 1.1875-0.1875 1.7969 0 1.3438 0.1875 3.3438 1.7031 3.3438zm-0.875-3.7969-0.0625-0.078125c0-0.92188 0.10938-2.6875 1.3594-2.6875 1.1719 0 1.2188 1.6562 1.2812 2.6875l-0.046875 0.078125zm2.5469 0.375 0.078125 0.078125c0 0.84375-0.046875 1.9219-0.51562 2.4062-0.1875 0.1875-0.39062 0.35938-0.65625 0.35938-1.25 0-1.5156-1.6719-1.5156-2.7812l0.0625-0.0625z"/>
</g>
</defs>
<g transform="translate(-149.31 -127.84)">
<use x="148.71201" y="134.765" xlink:href="#a"/>
</g>
</svg>
