<?xml version="1.0" encoding="UTF-8"?>
<svg fill="#000000" version="1.1" viewBox="0 0 4.3125 9.8125" xmlns="http://www.w3.org/2000/svg" xmlns:xlink="http://www.w3.org/1999/xlink">
<defs>
<g id="a">
<path d="m0.5625-5.5156c0 0.0625 0.015625 0.125 0.078125 0.17188 0.67188 0.5625 1.4375 1.125 2.2656 1.4688l-0.078125 0.3125c-0.79688 0.34375-1.5312 0.875-2.1875 1.4375-0.0625 0.046875-0.078125 0.10938-0.078125 0.17188 0 0.125 0.078125 0.23438 0.21875 0.23438 0.0625 0 0.10938-0.03125 0.14062-0.0625 0.5625-0.46875 1.1562-0.89062 1.7656-1.2031l-0.5625 2.0625c-0.125-0.0625-0.26562-0.09375-0.42188-0.09375-0.92188 0-1.1406 1.1406-1.1406 1.3906 0 0.14062 0.046875 0.28125 0.21875 0.28125 0.10938 0 0.21875-0.09375 0.23438-0.21875 0.03125-0.375 0.23438-1 0.6875-1 0.10938 0 0.20312 0.046875 0.29688 0.09375l-0.70312 2.6406c-0.015625 0.09375 0.03125 0.1875 0.15625 0.1875 0.046875 0 0.10938-0.046875 0.125-0.10938l0.6875-2.5469c0.40625 0.375 0.8125 0.96875 1.4531 0.96875 0.92188 0 1.1562-1.1562 1.1562-1.375 0-0.17188-0.0625-0.29688-0.23438-0.29688-0.10938 0-0.21875 0.09375-0.21875 0.21875-0.03125 0.375-0.25 0.98438-0.70312 0.98438-0.46875 0-0.82812-0.60938-1.3281-0.96875l0.64062-2.3906c0.51562-0.21875 1.0625-0.35938 1.6094-0.35938 0.14062 0 0.23438-0.078125 0.23438-0.21875s-0.09375-0.23438-0.23438-0.23438c-0.45312 0-0.89062-0.09375-1.3281-0.23438l0.82812-3.0625c0.015625-0.09375-0.046875-0.1875-0.15625-0.1875-0.0625 0-0.10938 0.046875-0.14062 0.10938l-0.8125 3.0312c-0.73438-0.32812-1.4375-0.82812-2.1094-1.375-0.03125-0.046875-0.078125-0.0625-0.14062-0.0625-0.14062 0-0.21875 0.10938-0.21875 0.23438zm2.625 1.8125 0.015625-0.0625 0.078125 0.03125z"/>
</g>
</defs>
<g transform="translate(-149.27 -127.31)">
<use x="148.71201" y="134.765" xlink:href="#a"/>
</g>
</svg>
