<?xml version="1.0" encoding="UTF-8"?>
<svg fill="#000000" version="1.1" viewBox="0 0 4.3125 10.094" xmlns="http://www.w3.org/2000/svg" xmlns:xlink="http://www.w3.org/1999/xlink">
<defs>
<g id="a">
<path d="m1.5469 2.3906 0.42188-1.5469c0.53125 0.25 0.95312 1.1719 1.75 1.1719 0.92188 0 1.1562-1.1719 1.1562-1.3906 0-0.15625-0.0625-0.28125-0.23438-0.28125-0.10938 0-0.21875 0.078125-0.21875 0.21875-0.03125 0.375-0.25 1-0.70312 1-0.5625 0-0.96875-0.90625-1.6406-1.1562l0.28125-1.0469c0.375 0.35938 0.76562 0.875 1.3594 0.875 0.92188 0 1.1562-1.1719 1.1562-1.3906 0-0.15625-0.0625-0.28125-0.23438-0.28125-0.10938 0-0.21875 0.078125-0.21875 0.21875-0.03125 0.375-0.25 0.98438-0.70312 0.98438-0.4375 0-0.78125-0.54688-1.2188-0.90625l0.51562-1.9375 1.5156 0.875c0.03125 0.015625 0.078125 0.03125 0.10938 0.03125 0.125 0 0.23438-0.09375 0.23438-0.23438 0-0.078125-0.046875-0.14062-0.10938-0.20312l-1.625-0.92188 0.6875-2.5938 0.9375-0.53125c0.0625-0.046875 0.10938-0.125 0.10938-0.20312 0-0.125-0.10938-0.23438-0.23438-0.23438-0.03125 0-0.078125 0.015625-0.10938 0.03125l-0.53125 0.32812 0.17188-0.67188c0.03125-0.09375-0.03125-0.1875-0.14062-0.1875-0.0625 0-0.125 0.03125-0.14062 0.10938l-0.26562 0.95312-2.9531 1.7031c-0.078125 0.046875-0.10938 0.10938-0.10938 0.20312 0 0.078125 0.03125 0.15625 0.10938 0.20312l2.0625 1.1875-0.5 1.9219c-0.15625-0.09375-0.32812-0.14062-0.53125-0.14062-0.92188 0-1.1406 1.1406-1.1406 1.375 0 0.14062 0.046875 0.28125 0.21875 0.28125 0.10938 0 0.21875-0.078125 0.23438-0.20312 0.03125-0.375 0.23438-1 0.6875-1 0.14062 0 0.28125 0.046875 0.40625 0.14062l-0.3125 1.1875h-0.09375c-0.92188 0-1.1406 1.1406-1.1406 1.375 0 0.14062 0.046875 0.29688 0.21875 0.29688 0.10938 0 0.21875-0.09375 0.23438-0.21875 0.03125-0.35938 0.23438-0.96875 0.65625-1l-0.42188 1.5312c-0.015625 0.09375 0.046875 0.1875 0.15625 0.1875 0.0625 0 0.125-0.03125 0.14062-0.10938zm1.3281-6.0781-1.625-0.9375 2.2031-1.2812z"/>
</g>
</defs>
<g transform="translate(-149.27 -127.17)">
<use x="148.71201" y="134.765" xlink:href="#a"/>
</g>
</svg>
