<?xml version="1.0" encoding="UTF-8"?>
<svg fill="#000000" version="1.1" viewBox="0 0 8.8538 6.9224" xmlns="http://www.w3.org/2000/svg" xmlns:xlink="http://www.w3.org/1999/xlink">
<defs>
<g id="a">
<path d="m2.0312-4.2344h7.1875c0.09375 0 0.1875-0.015625 0.1875-0.125 0-0.09375 0.03125-0.21875-0.0625-0.25-0.046875-0.03125-0.10938-0.03125-0.15625-0.03125h-7.1562c0.15625-0.17188 0.29688-0.32812 0.45312-0.51562 0.078125-0.09375 0.14062-0.1875 0.23438-0.28125 0.046875-0.078125 0.125-0.17188 0.1875-0.25 0.03125-0.046875 0.0625-0.09375 0.078125-0.14062 0.03125-0.14062-0.15625-0.14062-0.25-0.14062-0.03125 0-0.0625 0-0.09375 0.03125-0.0625 0.03125-0.125 0.09375-0.17188 0.14062-0.09375 0.078125-0.20312 0.17188-0.29688 0.25-0.3125 0.25-0.64062 0.5-0.98438 0.6875-0.15625 0.10938-0.3125 0.1875-0.48438 0.28125-0.0625 0.015625-0.14062 0.0625-0.14062 0.14062s0.078125 0.125 0.14062 0.15625c0.17188 0.078125 0.32812 0.17188 0.48438 0.26562 0.34375 0.20312 0.67188 0.4375 0.98438 0.6875 0.09375 0.078125 0.20312 0.17188 0.29688 0.25 0.046875 0.046875 0.10938 0.10938 0.17188 0.14062 0.03125 0.03125 0.0625 0.03125 0.09375 0.03125 0.09375 0 0.28125 0 0.25-0.14062-0.015625-0.046875-0.046875-0.09375-0.078125-0.14062-0.0625-0.078125-0.14062-0.15625-0.1875-0.23438-0.09375-0.10938-0.15625-0.20312-0.23438-0.29688-0.15625-0.17188-0.29688-0.34375-0.45312-0.51562zm5.9062 3.4688h-7.1562c-0.046875 0-0.10938-0.015625-0.15625 0.015625-0.09375 0.046875-0.0625 0.17188-0.0625 0.25 0 0.125 0.09375 0.125 0.1875 0.125h7.1875c-0.15625 0.17188-0.29688 0.34375-0.45312 0.53125-0.078125 0.09375-0.14062 0.1875-0.23438 0.28125-0.046875 0.078125-0.125 0.17188-0.1875 0.25-0.03125 0.046875-0.0625 0.09375-0.078125 0.14062-0.03125 0.14062 0.15625 0.125 0.25 0.125 0.03125 0 0.0625 0 0.09375-0.015625 0.0625-0.046875 0.125-0.09375 0.17188-0.15625 0.09375-0.078125 0.20312-0.15625 0.29688-0.25 0.3125-0.23438 0.64062-0.48438 0.98438-0.6875 0.15625-0.09375 0.3125-0.1875 0.48438-0.26562 0.0625-0.03125 0.14062-0.0625 0.14062-0.14062s-0.09375-0.125-0.15625-0.15625c-0.15625-0.078125-0.3125-0.17188-0.46875-0.26562-0.34375-0.20312-0.67188-0.4375-0.98438-0.6875-0.09375-0.078125-0.20312-0.17188-0.29688-0.25-0.046875-0.046875-0.10938-0.10938-0.17188-0.15625-0.03125-0.015625-0.0625-0.015625-0.09375-0.015625-0.09375 0-0.28125-0.015625-0.25 0.125 0.015625 0.0625 0.046875 0.10938 0.078125 0.14062 0.0625 0.078125 0.14062 0.17188 0.1875 0.25 0.09375 0.10938 0.15625 0.1875 0.23438 0.29688 0.15625 0.17188 0.29688 0.34375 0.45312 0.51562z"/>
</g>
</defs>
<g transform="translate(-149.27 -128.8)">
<use x="148.71201" y="134.765" xlink:href="#a"/>
</g>
</svg>
