<?xml version="1.0" encoding="UTF-8"?>
<svg fill="#000000" version="1.1" viewBox="0 0 4.9356 4.5214" xmlns="http://www.w3.org/2000/svg" xmlns:xlink="http://www.w3.org/1999/xlink">
<defs>
<g id="a">
<path d="m3.7812-0.54688v0.64062l1.4844-0.10938v-0.29688c-0.15625 0-0.3125 0-0.45312-0.03125-0.10938-0.015625-0.20312-0.0625-0.25-0.14062-0.09375-0.10938-0.078125-0.26562-0.078125-0.39062v-3.5469l-0.20312 0.03125-0.14062 0.1875-0.25 0.48438c-0.09375-0.10938-0.1875-0.21875-0.29688-0.3125-0.23438-0.20312-0.53125-0.34375-0.84375-0.375-0.39062-0.046875-0.79688 0.046875-1.1406 0.20312-0.35938 0.1875-0.65625 0.42188-0.875 0.75-0.54688 0.79688-0.53125 1.8594 0 2.6406 0.5 0.71875 1.5 1.125 2.3438 0.79688 0.29688-0.10938 0.5-0.3125 0.70312-0.53125zm-2.6094-1.3594c-0.015625-0.17188 0-0.35938 0-0.53125 0.03125-0.5 0.14062-1.0156 0.51562-1.375 0.09375-0.078125 0.17188-0.14062 0.25-0.1875 0.51562-0.32812 1.1719-0.21875 1.5781 0.21875 0.078125 0.078125 0.15625 0.15625 0.20312 0.26562 0.03125 0.046875 0.0625 0.09375 0.0625 0.14062 0.03125 0.1875 0 0.39062 0 0.57812v1.5781c0 0.0625 0.015625 0.14062 0 0.21875-0.015625 0.0625-0.078125 0.14062-0.10938 0.20312-0.32812 0.48438-0.90625 0.79688-1.4844 0.625-0.10938-0.03125-0.1875-0.0625-0.28125-0.125-0.10938-0.078125-0.21875-0.15625-0.3125-0.26562-0.20312-0.23438-0.3125-0.51562-0.375-0.8125-0.015625-0.1875-0.03125-0.34375-0.046875-0.53125z"/>
</g>
</defs>
<g transform="translate(-149.04 -130.34)">
<use x="148.71201" y="134.765" xlink:href="#a"/>
</g>
</svg>
