<?xml version="1.0" encoding="UTF-8"?>
<svg fill="#000000" version="1.1" viewBox="0 0 6.0312 4.2656" xmlns="http://www.w3.org/2000/svg" xmlns:xlink="http://www.w3.org/1999/xlink">
<defs>
<g id="a">
<path d="m6.4375-0.65625c-0.8125 0-1.4062-0.78125-1.7188-1.4531 0.3125-0.6875 0.90625-1.5 1.7188-1.5v-0.65625c-0.71875 0-1.5781 0.4375-2.0781 1.4688-0.40625-0.96875-1.0312-1.4688-1.9688-1.4688-1.2812 0-1.9844 1.1719-1.9844 2.125 0 0.96875 0.6875 2.1406 1.9531 2.1406 0.9375 0 1.5625-0.46875 1.9844-1.4219 0.48438 1.0156 1.375 1.4219 2.0938 1.4219zm-2.4688-1.4531c-0.34375 1.0625-0.84375 1.4531-1.6406 1.4531-0.71875 0-1.2656-0.75-1.2656-1.4844 0-0.71875 0.5-1.4688 1.3438-1.4688 0.79688 0 1.1406 0.42188 1.5625 1.5z"/>
</g>
</defs>
<g transform="translate(-149.12 -130.5)">
<use x="148.71201" y="134.765" xlink:href="#a"/>
</g>
</svg>
