<?xml version="1.0" encoding="UTF-8"?>
<svg fill="#000000" width="7.8438" height="7.8438" version="1.1" viewBox="0 0 7.8438 7.8437" xmlns="http://www.w3.org/2000/svg" xmlns:xlink="http://www.w3.org/1999/xlink">
<defs>
<g id="a">
<path d="m7.3125-3.9844-2.5781 0.40625 0.78125-2.5625-0.8125-0.09375-0.40625 2.5625-2.1875-1.5469-0.35938 0.75 2.3125 1.1719-2.1406 1.625 0.60938 0.5625 1.8281-1.8438 0.89062 2.5312 0.71875-0.39062-1.1875-2.3125 2.6719-0.0625zm-2.8594 3.9688c-1.8906 0-3.3125-1.5469-3.3125-3.2969 0-1.9062 1.5469-3.3281 3.3125-3.3281 1.8906 0 3.3125 1.5469 3.3125 3.3281 0 1.875-1.5469 3.2969-3.3125 3.2969zm3.9219-3.2969c0-2.2344-1.8125-3.9375-3.9219-3.9375-2.2344 0-3.9219 1.8125-3.9219 3.9375 0 2.2188 1.8125 3.9062 3.9219 3.9062 2.2188 0 3.9219-1.8125 3.9219-3.9062z"/>
</g>
</defs>
<g transform="translate(-149.24 -128.29)">
<use x="148.71201" y="135.53999" xlink:href="#a"/>
</g>
</svg>
