<?xml version="1.0" encoding="UTF-8"?>
<svg fill="#000000" version="1.1" viewBox="0 0 5.8594 6.7969" xmlns="http://www.w3.org/2000/svg" xmlns:xlink="http://www.w3.org/1999/xlink">
<defs>
<g id="a">
<path d="m4.9688-5.3906-1.25-1.6562h-0.625l-1.2344 1.6562h0.34375l1.2031-1.0156 1.2188 1.0156zm1.0469 0.65625c-0.14062 0.70312-0.46875 1.375-1.1562 1.375-0.73438 0-1.7969-1.2812-2.75-1.2812-0.98438 0-1.5781 1.0469-1.625 2.0312h0.32812c0.15625-0.70312 0.51562-1.375 1.2188-1.375 0.71875 0 1.7812 1.2812 2.75 1.2812s1.5156-1.1875 1.5625-2.0312zm0 2.3594c-0.14062 0.70312-0.46875 1.375-1.1562 1.375-0.73438 0-1.7969-1.2812-2.75-1.2812-0.98438 0-1.5781 1.0312-1.625 2.0312h0.32812c0.15625-0.70312 0.51562-1.375 1.2188-1.375 0.71875 0 1.7812 1.2812 2.75 1.2812s1.5156-1.1875 1.5625-2.0312z"/>
</g>
</defs>
<g transform="translate(-149.2 -127.72)">
<use x="148.71201" y="134.765" xlink:href="#a"/>
</g>
</svg>
