<?xml version="1.0" encoding="UTF-8"?>
<svg fill="#000000" version="1.1" viewBox="0 0 4.7969 7.4375" xmlns="http://www.w3.org/2000/svg" xmlns:xlink="http://www.w3.org/1999/xlink">
<defs>
<g id="a">
<path d="m3.9844-6.4531-0.40625 1.5156c-0.09375-0.03125-0.1875-0.046875-0.28125-0.046875-0.60938 0-1.1094 0.40625-1.25 0.95312l-1.1562 0.015625v0.64062h1.7656v-0.32812c0-0.35938 0.28125-0.64062 0.64062-0.64062 0.03125 0 0.078125 0 0.125 0.015625l-0.73438 2.75c-0.03125-0.0625-0.03125-0.125-0.03125-0.20312v-0.3125h-1.7656v0.64062h1.1562c0.078125 0.25 0.21875 0.48438 0.42188 0.65625l-0.4375 1.6094 0.5625 0.17188 0.40625-1.5156c0.09375 0.015625 0.1875 0.03125 0.29688 0.03125 0.59375 0 1.0938-0.40625 1.2344-0.95312h1.1562v-0.64062h-1.7656v0.3125c0 0.35938-0.28125 0.64062-0.625 0.64062-0.046875 0-0.09375 0-0.14062-0.015625l0.73438-2.7344c0.03125 0.046875 0.03125 0.10938 0.03125 0.1875v0.3125h1.7656v-0.64062h-1.1562c-0.078125-0.25-0.21875-0.48438-0.42188-0.65625l0.4375-1.6094z"/>
</g>
</defs>
<g transform="translate(-149.6 -128.31)">
<use x="148.71201" y="134.765" xlink:href="#a"/>
</g>
</svg>
