<?xml version="1.0" encoding="UTF-8"?>
<svg fill="#000000" version="1.1" viewBox="0 0 6.6094 6.8125" xmlns="http://www.w3.org/2000/svg" xmlns:xlink="http://www.w3.org/1999/xlink">
<defs>
<g id="a">
<path d="m4.25-6.0156c0-0.34375 0-0.48438 0.95312-0.48438h0.32812v-0.3125c-0.35938 0.03125-1.2812 0.03125-1.6875 0.03125s-1.3281 0-1.6875-0.03125v0.3125h0.32812c0.9375 0 0.9375 0.125 0.9375 0.48438v4.4219c-1.2969-0.34375-1.3438-1.8906-1.3438-2.5312-0.015625-1.2031-0.45312-1.3906-0.89062-1.3906h-0.375c-0.14062 0-0.25 0-0.25 0.10938 0 0.046875 0.03125 0.09375 0.09375 0.10938 0.32812 0.03125 0.57812 0.17188 0.59375 1.3438 0 0.23438 0.03125 1.0156 0.5 1.6875 0.39062 0.54688 1 0.82812 1.6719 0.92188v0.5625c0 0.32812 0 0.46875-0.9375 0.46875h-0.32812v0.3125c0.35938-0.03125 1.2656-0.03125 1.6875-0.03125 0.40625 0 1.3281 0 1.6875 0.03125v-0.3125h-0.32812c-0.95312 0-0.95312-0.125-0.95312-0.46875v-0.5625c0.71875-0.09375 1.3281-0.39062 1.7188-0.90625 0.51562-0.70312 0.53125-1.5 0.53125-1.9375 0-0.15625 0.015625-1.0469 0.54688-1.1094 0.0625-0.015625 0.125-0.03125 0.125-0.10938 0-0.10938-0.078125-0.10938-0.23438-0.10938h-0.375c-0.39062 0-0.875 0.0625-0.89062 1.5156-0.015625 1.0938-0.34375 2.1406-1.4219 2.4062z"/>
</g>
</defs>
<g transform="translate(-149.27 -127.95)">
<use x="148.71201" y="134.765" xlink:href="#a"/>
</g>
</svg>
