<?xml version="1.0" encoding="UTF-8"?>
<svg fill="#000000" version="1.1" viewBox="0 0 6.0938 7.7031" xmlns="http://www.w3.org/2000/svg" xmlns:xlink="http://www.w3.org/1999/xlink">
<defs>
<g id="a">
<path d="m1.0312-3.6719c-0.17188 0.078125-0.20312 0.14062-0.20312 0.21875s0.046875 0.15625 0.20312 0.21875l5.5156 2.5938c0.125 0.078125 0.14062 0.078125 0.17188 0.078125 0.20312 0 0.20312-0.1875 0.20312-0.35938v-5.0625c0-0.17188 0-0.35938-0.20312-0.35938-0.046875 0-0.14062 0.046875-0.17188 0.0625zm0.46875 0.21875 5.0156-2.375v4.75zm-0.3125 4.4219c-0.17188 0-0.35938 0-0.35938 0.20312 0 0.1875 0.17188 0.1875 0.34375 0.1875h5.3906c0.17188 0 0.35938 0 0.35938-0.1875 0-0.20312-0.1875-0.20312-0.35938-0.20312z"/>
</g>
</defs>
<g transform="translate(-149.54 -128.42)">
<use x="148.71201" y="134.765" xlink:href="#a"/>
</g>
</svg>
