<?xml version="1.0" encoding="UTF-8"?>
<svg fill="#000000" version="1.1" viewBox="0 0 6.1054 6.9672" xmlns="http://www.w3.org/2000/svg" xmlns:xlink="http://www.w3.org/1999/xlink">
<defs>
<g id="a">
<path d="m5.1406-3.2969v0.015625c-0.125 0.015625-0.25 0.046875-0.35938 0.09375-0.21875 0.0625-0.42188 0.125-0.64062 0.20312-0.84375 0.32812-1.6562 0.79688-2.4062 1.3281-0.25 0.1875-0.48438 0.375-0.73438 0.5625-0.0625 0.0625-0.21875 0.14062-0.15625 0.25 0.046875 0.09375 0.20312 0.0625 0.28125 0.0625h0.125c0.078125-0.03125 0.15625-0.10938 0.21875-0.17188 0.14062-0.10938 0.28125-0.23438 0.4375-0.32812 1.0625-0.79688 2.2656-1.4219 3.5781-1.6719 0.23438-0.046875 0.45312-0.09375 0.6875-0.10938 0.14062-0.015625 0.26562-0.015625 0.40625-0.03125 0.10938 0 0.3125 0.046875 0.34375-0.09375 0.015625-0.078125 0.03125-0.23438-0.046875-0.28125-0.046875-0.03125-0.10938-0.015625-0.15625-0.015625-0.09375 0-0.1875-0.015625-0.28125-0.015625-0.29688-0.015625-0.60938-0.0625-0.90625-0.10938-1.2188-0.23438-2.3906-0.79688-3.4062-1.5312-0.1875-0.125-0.375-0.26562-0.5625-0.40625-0.09375-0.078125-0.1875-0.1875-0.29688-0.23438-0.078125-0.046875-0.1875-0.015625-0.26562-0.015625-0.046875 0-0.078125 0-0.10938 0.015625-0.046875 0.03125-0.078125 0.09375-0.046875 0.15625 0.046875 0.078125 0.15625 0.125 0.23438 0.1875 0.34375 0.28125 0.6875 0.54688 1.0469 0.78125 0.34375 0.23438 0.71875 0.4375 1.0781 0.64062 0.40625 0.21875 0.84375 0.39062 1.2656 0.53125 0.21875 0.078125 0.45312 0.15625 0.67188 0.1875zm1.4219 1.3906c-0.1875 0.015625-0.375 0.015625-0.54688 0.046875-0.29688 0.03125-0.60938 0.09375-0.89062 0.17188-1.0625 0.29688-2.0469 0.84375-2.9375 1.5156-0.39062 0.28125-0.75 0.59375-1.0938 0.92188-0.09375 0.0625-0.1875 0.14062-0.25 0.23438-0.03125 0.0625 0 0.14062 0.0625 0.15625 0.03125 0.015625 0.078125 0.015625 0.10938 0.015625 0.078125 0 0.17188 0.015625 0.23438-0.015625 0.10938-0.0625 0.1875-0.17188 0.28125-0.25 0.29688-0.28125 0.60938-0.54688 0.9375-0.79688 0.84375-0.625 1.7969-1.1562 2.8281-1.4062 0.375-0.09375 0.75-0.15625 1.1406-0.1875 0.10938-0.015625 0.20312-0.015625 0.29688-0.015625 0.046875 0 0.10938 0.015625 0.15625-0.046875 0.03125-0.015625 0.03125-0.046875 0.03125-0.078125 0-0.078125 0.03125-0.21875-0.046875-0.25-0.03125-0.015625-0.078125-0.015625-0.10938-0.015625h-0.20312z"/>
</g>
</defs>
<g transform="translate(-149.54 -128.96)">
<use x="148.71201" y="134.765" xlink:href="#a"/>
</g>
</svg>
