<?xml version="1.0" encoding="UTF-8"?>
<svg fill="#000000" version="1.1" viewBox="0 0 4.1303 8.3875" xmlns="http://www.w3.org/2000/svg" xmlns:xlink="http://www.w3.org/1999/xlink">
<defs>
<g id="a">
<path d="m1.3125-2.5781h-1.0312v0.3125h1.0312v2.0625c0 0.40625 0.03125 0.84375-0.03125 1.25-0.03125 0.23438-0.10938 0.48438-0.28125 0.64062-0.23438 0.20312-0.60938 0.14062-0.84375 0 0.078125-0.015625 0.15625-0.0625 0.21875-0.125 0.17188-0.17188 0.1875-0.46875 0.015625-0.65625-0.14062-0.14062-0.375-0.17188-0.54688-0.09375-0.32812 0.15625-0.3125 0.57812-0.10938 0.82812 0.20312 0.26562 0.53125 0.375 0.85938 0.39062 0.14062 0.015625 0.28125 0 0.40625-0.03125 0.46875-0.14062 0.79688-0.5625 0.9375-1.0156 0.03125-0.125 0.03125-0.25 0.046875-0.39062 0.015625-0.28125 0.015625-0.53125 0.015625-0.79688v-2.0625h1.0312v-0.3125h-1.0312v-1.75c0-0.34375-0.03125-0.70312 0.03125-1.0469 0.015625-0.125 0.046875-0.25 0.10938-0.35938 0.015625-0.078125 0.0625-0.14062 0.10938-0.20312 0.03125-0.03125 0.0625-0.078125 0.10938-0.10938 0.20312-0.14062 0.5-0.078125 0.71875 0.015625 0.046875 0.03125 0.10938 0.0625 0.15625 0.09375-0.15625 0.046875-0.3125 0.09375-0.39062 0.25-0.10938 0.21875-0.015625 0.5 0.20312 0.625 0.10938 0.0625 0.25 0.0625 0.375 0.015625 0.28125-0.09375 0.34375-0.40625 0.26562-0.65625-0.09375-0.29688-0.375-0.5-0.65625-0.59375-0.48438-0.14062-1.0312 0-1.3594 0.39062-0.14062 0.14062-0.21875 0.32812-0.28125 0.51562-0.10938 0.32812-0.078125 0.70312-0.078125 1.0312z"/>
</g>
</defs>
<g transform="translate(-148.3 -128.41)">
<use x="148.71201" y="134.765" xlink:href="#a"/>
</g>
</svg>
