<?xml version="1.0" encoding="UTF-8"?>
<svg fill="#000000" version="1.1" viewBox="0 0 10.766 12.016" xmlns="http://www.w3.org/2000/svg" xmlns:xlink="http://www.w3.org/1999/xlink">
<defs>
<g id="a">
<path d="m2.8594-4.1094v2.7344c-0.67188-0.23438-1.3281-0.67188-1.3281-1.3594 0-0.70312 0.65625-1.1406 1.3281-1.375zm0.85938 2.9531v-3.1719c0.70312-0.125 1.4219-0.15625 2.1406-0.17188v3.5156c-0.71875-0.015625-1.4375-0.046875-2.1406-0.17188zm2.9844 0.17188v-3.5156c0.71875 0.015625 1.4375 0.046875 2.1406 0.17188v3.1719c-0.70312 0.125-1.4219 0.15625-2.1406 0.17188zm3-0.39062v-2.7344c0.67188 0.23438 1.3281 0.67188 1.3281 1.375 0 0.6875-0.65625 1.125-1.3281 1.3594zm1.6406-7.3125c-0.15625-0.046875-0.3125-0.0625-0.46875-0.0625-1.1562 0.03125-2.0312 1.0469-2.0312 2.2344v1.5469c-0.70312-0.125-1.4219-0.15625-2.1406-0.17188v-1.375c0-0.76562 0.3125-1.5469 1-1.5469 0.15625 0 0.32812 0.015625 0.46875 0.046875l0.1875-0.67188c-0.17188-0.046875-0.3125-0.0625-0.46875-0.0625-1.1562 0.03125-2.0312 1.0469-2.0312 2.2344v1.375c-0.71875 0.015625-1.4375 0.046875-2.1406 0.17188v-1.5469c0-0.76562 0.3125-1.5469 0.98438-1.5469 0.15625 0 0.32812 0.015625 0.48438 0.046875l0.17188-0.6875c-0.14062-0.046875-0.3125-0.046875-0.46875-0.046875-1.1562 0.03125-2.0312 1.0469-2.0312 2.2344v1.75c-0.20312 0.078125-0.42188 0.14062-0.60938 0.23438-0.75 0.32812-1.3594 0.98438-1.3594 1.7969 0 0.79688 0.60938 1.4531 1.3594 1.7812 0.1875 0.09375 0.40625 0.17188 0.60938 0.23438v1.7188c0 0.78125-0.375 1.5625-1.0781 1.5625h-0.48438l0.09375 0.70312h0.0625c1.25 0 2.2656-1.0156 2.2656-2.2656v-1.5156c0.70312 0.125 1.4219 0.15625 2.1406 0.17188v1.3438c0 0.78125-0.39062 1.5625-1.0938 1.5625h-0.48438l0.10938 0.70312h0.046875c1.25 0 2.2656-1.0156 2.2656-2.2656v-1.3438c0.71875-0.015625 1.4375-0.046875 2.1406-0.17188v1.5156c0 0.78125-0.375 1.5625-1.0938 1.5625h-0.46875l0.09375 0.70312h0.046875c1.25 0 2.2812-1.0156 2.2812-2.2656v-1.7188c0.20312-0.0625 0.42188-0.14062 0.60938-0.23438 0.75-0.32812 1.3438-0.98438 1.3438-1.7812 0-0.8125-0.59375-1.4688-1.3438-1.7969-0.1875-0.09375-0.40625-0.15625-0.60938-0.23438v-1.75c0-0.76562 0.3125-1.5469 0.98438-1.5469 0.15625 0 0.32812 0.015625 0.48438 0.046875z"/>
</g>
</defs>
<g transform="translate(-149.6 -126.02)">
<use x="148.71201" y="134.765" xlink:href="#a"/>
</g>
</svg>
