<?xml version="1.0" encoding="UTF-8"?>
<svg fill="#000000" version="1.1" viewBox="0 0 7.4826 7.4796" xmlns="http://www.w3.org/2000/svg" xmlns:xlink="http://www.w3.org/1999/xlink">
<defs>
<g id="a">
<path d="m0.20312-6.2344c-0.046875 0.03125-0.0625 0.078125-0.0625 0.125-0.015625 0.09375 0 0.1875 0 0.28125v6.8906c0 0.046875 0 0.09375 0.03125 0.14062 0.03125 0.03125 0.09375 0.03125 0.14062 0.03125h0.29688 6.7812c0.046875 0 0.10938 0.015625 0.15625-0.015625 0.046875-0.015625 0.0625-0.0625 0.0625-0.10938 0.015625-0.10938 0-0.1875 0-0.29688v-6.875c0-0.046875 0-0.09375-0.015625-0.14062-0.03125-0.03125-0.09375-0.03125-0.14062-0.03125h-0.3125-6.7656c-0.0625 0-0.10938-0.015625-0.17188 0zm3.6094 1.7969c-0.1875 0.03125-0.32812 0.20312-0.32812 0.40625 0.015625 0.10938 0.078125 0.21875 0.10938 0.32812 0.0625 0.17188 0.10938 0.34375 0.15625 0.51562 0.015625 0.09375 0.015625 0.1875 0.015625 0.28125 0 0.03125 0 0.078125-0.03125 0.10938-0.0625 0.046875-0.10938 0.015625-0.14062 0-0.10938-0.0625-0.1875-0.14062-0.28125-0.20312l-0.20312-0.20312c-0.17188-0.20312-0.34375-0.51562-0.65625-0.45312-0.046875 0-0.078125 0.015625-0.125 0.03125-0.21875 0.14062-0.25 0.46875-0.0625 0.64062 0.10938 0.09375 0.26562 0.10938 0.40625 0.125 0.20312 0.03125 0.40625 0.078125 0.59375 0.14062 0.078125 0.03125 0.15625 0.078125 0.21875 0.125 0.03125 0.015625 0.0625 0.046875 0.078125 0.078125 0 0.046875-0.046875 0.078125-0.078125 0.10938-0.078125 0.046875-0.17188 0.09375-0.26562 0.125-0.17188 0.0625-0.35938 0.10938-0.53125 0.14062-0.125 0.015625-0.26562 0.015625-0.375 0.09375-0.20312 0.14062-0.23438 0.46875-0.015625 0.625 0.03125 0.03125 0.078125 0.0625 0.10938 0.0625 0.125 0.046875 0.26562 0.03125 0.35938-0.0625 0.0625-0.046875 0.10938-0.10938 0.15625-0.15625 0.0625-0.09375 0.15625-0.17188 0.21875-0.25s0.14062-0.14062 0.20312-0.20312c0.078125-0.0625 0.15625-0.125 0.25-0.17188 0.03125-0.015625 0.078125-0.046875 0.10938-0.015625 0.046875 0.015625 0.0625 0.0625 0.0625 0.10938 0.015625 0.09375 0 0.20312-0.03125 0.29688-0.03125 0.17188-0.078125 0.35938-0.14062 0.53125-0.046875 0.10938-0.10938 0.21875-0.10938 0.32812 0 0.25 0.21875 0.42188 0.4375 0.39062s0.35938-0.20312 0.34375-0.42188c-0.015625-0.10938-0.0625-0.21875-0.10938-0.3125-0.0625-0.17188-0.10938-0.34375-0.14062-0.51562-0.015625-0.09375-0.03125-0.1875-0.03125-0.29688 0-0.03125 0.015625-0.078125 0.046875-0.10938 0.046875-0.03125 0.09375 0 0.14062 0.015625 0.078125 0.046875 0.17188 0.125 0.25 0.1875 0.10938 0.10938 0.21875 0.21875 0.3125 0.32812 0.078125 0.078125 0.15625 0.1875 0.23438 0.26562 0.125 0.09375 0.29688 0.10938 0.4375 0.046875 0.21875-0.125 0.28125-0.45312 0.09375-0.625-0.10938-0.10938-0.26562-0.10938-0.40625-0.14062-0.20312-0.03125-0.40625-0.078125-0.59375-0.15625-0.078125-0.03125-0.15625-0.0625-0.21875-0.10938-0.03125-0.015625-0.078125-0.046875-0.078125-0.09375s0.03125-0.078125 0.0625-0.09375c0.078125-0.0625 0.1875-0.09375 0.26562-0.125 0.17188-0.078125 0.35938-0.10938 0.54688-0.14062 0.10938-0.015625 0.25-0.015625 0.35938-0.09375 0.21875-0.14062 0.23438-0.46875 0.03125-0.64062-0.046875-0.03125-0.078125-0.046875-0.125-0.0625-0.125-0.03125-0.26562-0.015625-0.35938 0.0625-0.0625 0.0625-0.10938 0.10938-0.15625 0.17188-0.0625 0.09375-0.14062 0.17188-0.21875 0.25-0.0625 0.078125-0.14062 0.14062-0.20312 0.20312-0.078125 0.0625-0.15625 0.125-0.23438 0.17188-0.03125 0.015625-0.078125 0.03125-0.125 0.015625s-0.0625-0.0625-0.0625-0.10938c0-0.09375 0.015625-0.20312 0.03125-0.29688 0.03125-0.1875 0.078125-0.35938 0.15625-0.53125 0.03125-0.10938 0.09375-0.21875 0.09375-0.34375 0-0.23438-0.20312-0.40625-0.45312-0.375zm-3.2812 5.2812v-6.6875h6.6875v6.6875z"/>
</g>
</defs>
<g transform="translate(-148.85 -128.52)">
<use x="148.71201" y="134.765" xlink:href="#a"/>
</g>
</svg>
