<?xml version="1.0" encoding="UTF-8"?>
<svg fill="#000000" version="1.1" viewBox="0 0 4.4062 10.234" xmlns="http://www.w3.org/2000/svg" xmlns:xlink="http://www.w3.org/1999/xlink">
<defs>
<g id="a">
<path d="m4.0312-8.1719c0.03125-0.125 0.03125-0.15625 0.03125-0.20312 0-0.17188-0.14062-0.20312-0.1875-0.20312-0.17188 0-0.20312 0.17188-0.21875 0.26562l-0.3125 1.3906h-2.4375c-0.17188 0-0.34375 0-0.34375 0.20312s0.17188 0.20312 0.34375 0.20312h2.3438l-0.64062 2.8594h-1.5625c-0.17188 0-0.34375 0-0.34375 0.20312 0 0.1875 0.17188 0.1875 0.34375 0.1875h1.4688l-0.64062 2.8594h-0.96875c-0.17188 0-0.34375 0-0.34375 0.20312s0.17188 0.20312 0.34375 0.20312h0.875c-0.10938 0.45312-0.0625 0.29688-0.17188 0.73438-0.046875 0.25-0.14062 0.6875-0.14062 0.71875 0 0.17188 0.14062 0.20312 0.20312 0.20312 0.15625 0 0.1875-0.14062 0.20312-0.23438 0.15625-0.65625 0.17188-0.71875 0.3125-1.4219h2.4375c0.3125 0 0.34375-0.03125 0.34375-0.34375v-6.2188c0-0.3125-0.03125-0.35938-0.34375-0.35938h-0.875zm-1.0156 4.5156 0.64062-2.8594h0.92188v2.8594zm-0.73438 3.25 0.65625-2.8594h1.6406v2.8594z"/>
</g>
</defs>
<g transform="translate(-149.27 -126.19)">
<use x="148.71201" y="134.765" xlink:href="#a"/>
</g>
</svg>
