<?xml version="1.0" encoding="UTF-8"?>
<svg fill="#000000" version="1.1" viewBox="0 0 7.25 6.7969" xmlns="http://www.w3.org/2000/svg" xmlns:xlink="http://www.w3.org/1999/xlink">
<defs>
<g id="a">
<path d="m0.10938-6.8125v0.29688h0.21875c0.23438 0 0.45312 0.015625 0.625 0.10938 0.21875 0.125 0.35938 0.42188 0.48438 0.64062 0.28125 0.46875 0.5625 0.95312 0.85938 1.4062h-1.2656-0.15625c-0.09375 0-0.17188 0.015625-0.17188 0.10938 0 0.10938 0.078125 0.10938 0.14062 0.10938h1.5312c0.10938 0.03125 0.23438 0.26562 0.3125 0.40625 0.21875 0.34375 0.625 0.875 0.625 1.1406 0 0.0625-0.015625 0.125-0.015625 0.17188h-2.4844c-0.0625 0.015625-0.10938 0.046875-0.125 0.10938 0 0.078125 0.0625 0.10938 0.125 0.10938h2.4844v1.2812c0 0.046875 0.015625 0.10938 0.015625 0.1875 0 0.375-0.35938 0.42188-0.75 0.42188h-0.29688v0.29688h2.9219v-0.29688h-0.39062c-0.34375 0-0.64062-0.0625-0.64062-0.45312v-1.4375h2.5c0.0625 0 0.125-0.03125 0.125-0.10938-0.015625-0.0625-0.078125-0.09375-0.125-0.10938h-2.5c0-0.046875-0.015625-0.10938-0.015625-0.17188 0-0.17188 0.14062-0.32812 0.21875-0.48438 0.14062-0.21875 0.28125-0.4375 0.42188-0.65625l0.17188-0.28125c0.03125-0.046875 0.0625-0.10938 0.125-0.125h1.5469c0.0625 0 0.14062 0 0.14062-0.10938 0-0.09375-0.078125-0.10938-0.17188-0.10938h-0.15625-1.2812c0.28125-0.46875 0.57812-0.92188 0.85938-1.375 0.34375-0.57812 0.76562-0.76562 1.3438-0.78125v-0.29688h-2.125v0.29688c0.23438 0 0.54688 0.09375 0.5625 0.375 0 0.20312-0.14062 0.375-0.23438 0.53125-0.15625 0.25-0.29688 0.5-0.45312 0.73438l-0.20312 0.32812c-0.046875 0.078125-0.078125 0.1875-0.23438 0.1875h-1.25c-0.1875 0-0.375-0.4375-0.51562-0.67188l-0.57812-0.9375c-0.046875-0.078125-0.14062-0.1875-0.14062-0.29688 0-0.25 0.45312-0.25 0.6875-0.25v-0.29688zm3.3438 2.6719h1.2031l-0.59375 0.98438z"/>
</g>
</defs>
<g transform="translate(-148.82 -127.95)">
<use x="148.71201" y="134.765" xlink:href="#a"/>
</g>
</svg>
