<?xml version="1.0" encoding="UTF-8"?>
<svg fill="#000000" version="1.1" viewBox="0 0 6.6431 8.8516" xmlns="http://www.w3.org/2000/svg" xmlns:xlink="http://www.w3.org/1999/xlink">
<defs>
<g id="a">
<path d="m4.3438-3.875c-0.15625 0.28125-0.29688 0.57812-0.4375 0.85938-0.03125 0.078125-0.0625 0.14062-0.10938 0.21875-0.015625 0.03125-0.03125 0.078125-0.0625 0.078125-0.078125 0.03125-0.17188 0.015625-0.23438 0.015625h-2.6875c-0.0625 0-0.17188-0.015625-0.21875 0.046875-0.03125 0.03125-0.03125 0.09375-0.03125 0.14062 0 0.0625-0.015625 0.14062 0.03125 0.17188 0.046875 0.046875 0.10938 0.046875 0.15625 0.046875h2.8125c-0.15625 0.26562-0.29688 0.57812-0.4375 0.85938-0.03125 0.078125-0.078125 0.14062-0.10938 0.21875-0.015625 0.03125-0.03125 0.078125-0.078125 0.078125-0.046875 0.03125-0.10938 0.015625-0.17188 0.015625h-2.0156c-0.046875 0-0.125-0.015625-0.15625 0.03125s-0.03125 0.09375-0.03125 0.14062c0 0.078125-0.015625 0.20312 0.09375 0.21875 0.078125 0.015625 0.15625 0 0.23438 0h1.875c-0.10938 0.25-0.25 0.5-0.35938 0.75-0.21875 0.40625-0.40625 0.8125-0.60938 1.2188l-0.23438 0.46875c-0.03125 0.0625-0.0625 0.14062 0 0.1875 0.046875 0.046875 0.10938 0.03125 0.15625 0.03125 0.0625 0 0.10938 0.015625 0.17188-0.015625 0.046875-0.03125 0.078125-0.09375 0.09375-0.14062 0.0625-0.10938 0.10938-0.23438 0.17188-0.34375 0.25-0.53125 0.51562-1.0469 0.78125-1.5781l0.20312-0.40625c0.015625-0.046875 0.046875-0.125 0.09375-0.15625 0.078125-0.03125 0.1875-0.015625 0.26562-0.015625h3.3906c0.078125 0 0.20312 0.03125 0.26562-0.015625 0.046875-0.0625 0.046875-0.14062 0.046875-0.21875 0-0.03125 0-0.0625-0.015625-0.09375s-0.03125-0.046875-0.0625-0.046875c-0.0625-0.03125-0.14062-0.015625-0.21875-0.015625h-3.4844c0.14062-0.28125 0.28125-0.57812 0.42188-0.875 0.046875-0.0625 0.078125-0.14062 0.10938-0.20312 0.03125-0.046875 0.03125-0.078125 0.078125-0.09375 0.0625-0.03125 0.15625 0 0.21875 0h2.6875c0.078125 0 0.17188 0.015625 0.21875-0.046875 0.046875-0.03125 0.046875-0.09375 0.046875-0.15625 0-0.046875 0-0.125-0.046875-0.15625-0.03125-0.0625-0.09375-0.046875-0.15625-0.046875h-2.7969c0.15625-0.28125 0.28125-0.57812 0.4375-0.85938 0.03125-0.078125 0.0625-0.14062 0.09375-0.21875 0.015625-0.03125 0.046875-0.078125 0.078125-0.09375 0.046875-0.015625 0.125 0 0.1875 0h2c0.0625 0 0.125 0 0.17188-0.046875 0.03125-0.03125 0.03125-0.078125 0.03125-0.125 0-0.09375 0-0.20312-0.10938-0.23438h-0.23438-1.875c0.10938-0.25 0.25-0.5 0.375-0.75 0.20312-0.40625 0.39062-0.79688 0.60938-1.2031 0.078125-0.17188 0.15625-0.3125 0.21875-0.46875 0.03125-0.0625 0.0625-0.14062 0-0.1875-0.046875-0.046875-0.10938-0.03125-0.15625-0.03125s-0.10938-0.015625-0.15625 0.015625-0.078125 0.09375-0.10938 0.14062c-0.046875 0.10938-0.10938 0.21875-0.15625 0.32812l-0.79688 1.5938-0.20312 0.39062c-0.015625 0.0625-0.046875 0.14062-0.09375 0.17188-0.0625 0.03125-0.1875 0-0.26562 0h-3.375c-0.09375 0-0.20312-0.015625-0.28125 0.03125-0.046875 0.046875-0.03125 0.14062-0.03125 0.21875v0.078125c0.015625 0.03125 0.03125 0.0625 0.0625 0.0625 0.0625 0.03125 0.15625 0.015625 0.21875 0.015625z"/>
</g>
</defs>
<g transform="translate(-149.27 -127.84)">
<use x="148.71201" y="134.765" xlink:href="#a"/>
</g>
</svg>
