<?xml version="1.0" encoding="UTF-8"?>
<svg fill="#000000" version="1.1" viewBox="0 0 6.4375 7.1406" xmlns="http://www.w3.org/2000/svg" xmlns:xlink="http://www.w3.org/1999/xlink">
<defs>
<g id="a">
<path d="m6.7031-6.0469-0.046875-0.21875c-0.14062 0.14062-0.3125 0.21875-0.45312 0.21875-0.42188 0-0.79688-0.4375-1-0.84375l-0.67188 0.625c0.078125 0.40625 0.54688 0.76562 1.0156 0.9375-0.28125 0.28125-0.73438 0.64062-1.0625 0.85938l-0.5 0.26562c-0.10938-0.40625-0.26562-1.1094-0.26562-1.375 0-0.35938 0.26562-0.65625 0.53125-0.89062l-0.10938-0.10938-1.1094 0.75-0.3125-0.15625c-0.60938 0.28125-1.125 0.625-1.625 0.98438-0.28125 0.57812-0.4375 1.1719-0.4375 1.8125 0 0.95312 0.15625 1.9062 0.84375 2.5938 0.51562 0.51562 1.4375 0.84375 2.2969 0.84375 0.3125 0 0.51562-0.0625 0.82812-0.17188l1.5312-1.0312c0.5625-0.54688 0.9375-1.2812 0.9375-2.0625 0-0.45312-0.23438-0.875-0.5625-1.1562-0.17188-0.14062-0.5625-0.35938-1.1406-0.35938-0.14062 0-0.28125 0-0.45312 0.03125zm-4.3594 3.9219c0.48438-0.078125 0.9375-0.23438 1.2969-0.57812 0.3125-0.3125 0.35938-0.8125 0.35938-1.25 0.17188-0.03125 0.34375-0.046875 0.5-0.046875 0.8125 0 1.7188 0.59375 1.7188 1.4531 0 0.59375-0.17188 1.2969-0.6875 1.7188-0.45312 0.375-0.89062 0.4375-1.3906 0.4375-0.73438 0-1.3438-0.35938-1.8594-0.89062-0.60938-0.60938-0.82812-1.5-0.82812-2.375 0-0.85938 0.34375-1.9062 1.375-1.9688-0.015625 0.10938-0.03125 0.21875-0.03125 0.3125 0 0.59375 0.29688 1.1719 0.29688 1.8438 0 0.59375-0.40625 1.0625-0.90625 1.1875z"/>
</g>
</defs>
<g transform="translate(-149.37 -127.87)">
<use x="148.71201" y="134.765" xlink:href="#a"/>
</g>
</svg>
