<?xml version="1.0" encoding="UTF-8"?>
<svg fill="#000000" version="1.1" viewBox="0 0 7.1094 4.7969" xmlns="http://www.w3.org/2000/svg" xmlns:xlink="http://www.w3.org/1999/xlink">
<defs>
<g id="a">
<path d="m7.7031-1.5938c0-0.1875-1-2.125-3.3125-2.1719l-0.60938-1.6719c-0.015625-0.0625-0.078125-0.09375-0.14062-0.09375-0.10938 0-0.17188 0.10938-0.14062 0.20312l0.57812 1.5781c-1.0938 0.0625-2.0938 0.59375-2.7656 1.4219-0.15625-1.0625-0.125-1.4375-0.42188-1.4375-0.14062 0-0.23438 0.10938-0.23438 0.23438 0 0.046875 0.20312 0.6875 0.20312 1.3281 0 0.8125-0.26562 1.0469-0.26562 1.2344 0 0.125 0.10938 0.23438 0.23438 0.23438 0.26562 0 0.5-0.76562 2.4219-0.9375 0.125 0 0.20312-0.10938 0.20312-0.21875 0-0.14062-0.10938-0.23438-0.21875-0.23438-0.35938 0-1.2188 0.26562-1.75 0.32812 0.625-0.90625 1.6406-1.4844 2.75-1.5l0.8125 2.2344c0.03125 0.078125 0.125 0.125 0.20312 0.09375s0.10938-0.10938 0.078125-0.1875l-0.76562-2.1406c1.25 0.09375 2.2188 0.82812 2.7031 1.7969 0.046875 0.078125 0.125 0.14062 0.21875 0.14062 0.125 0 0.21875-0.125 0.21875-0.23438z"/>
</g>
</defs>
<g transform="translate(-149.31 -129.23)">
<use x="148.71201" y="134.765" xlink:href="#a"/>
</g>
</svg>
