<?xml version="1.0" encoding="UTF-8"?>
<svg fill="#000000" version="1.1" viewBox="0 0 1.9555 2.2643" xmlns="http://www.w3.org/2000/svg" xmlns:xlink="http://www.w3.org/1999/xlink">
<defs>
<g id="a">
<path d="m-0.17188 1.6875c0.10938-0.015625 0.1875-0.046875 0.26562-0.125 0.1875-0.17188 0.1875-0.5 0-0.67188-0.26562-0.23438-0.70312-0.10938-0.76562 0.25-0.03125 0.078125-0.015625 0.15625 0 0.23438 0.09375 0.45312 0.59375 0.70312 1.0156 0.65625 0.078125 0 0.15625-0.03125 0.21875-0.0625 0.23438-0.078125 0.39062-0.26562 0.5-0.48438 0.15625-0.3125 0.20312-0.65625 0.20312-1v-0.53125c0-0.078125-0.015625-0.15625-0.09375-0.17188-0.0625-0.015625-0.17188-0.015625-0.20312 0.046875s-0.015625 0.14062-0.015625 0.20312v0.40625c0 0.34375-0.03125 0.71875-0.1875 1.0312-0.125 0.21875-0.3125 0.35938-0.5625 0.34375-0.14062-0.015625-0.25-0.0625-0.375-0.125z"/>
</g>
</defs>
<g transform="translate(-148.02 -134.54)">
<use x="148.71201" y="134.765" xlink:href="#a"/>
</g>
</svg>
