<?xml version="1.0" encoding="UTF-8"?>
<svg fill="#000000" version="1.1" viewBox="0 0 4.1719 4.1562" xmlns="http://www.w3.org/2000/svg" xmlns:xlink="http://www.w3.org/1999/xlink">
<defs>
<g id="a">
<path d="m2.4844-4.5781c-0.046875 0-0.10938 0.078125-0.14062 0.10938l-1.4844 1.4844-0.34375 0.35938c-0.03125 0.015625-0.10938 0.078125-0.10938 0.125 0.015625 0.046875 0.046875 0.078125 0.078125 0.10938l0.20312 0.20312 0.76562 0.75 0.76562 0.78125 0.1875 0.1875c0.03125 0.015625 0.0625 0.046875 0.09375 0.046875 0.046875 0 0.10938-0.078125 0.14062-0.10938l0.3125-0.3125 1.1719-1.1875 0.34375-0.34375c0.03125-0.03125 0.10938-0.09375 0.10938-0.14062-0.015625-0.03125-0.046875-0.0625-0.078125-0.09375l-0.20312-0.20312-0.76562-0.75-0.76562-0.78125-0.1875-0.1875c-0.03125-0.03125-0.0625-0.046875-0.09375-0.046875z"/>
</g>
</defs>
<g transform="translate(-149.12 -130.19)">
<use x="148.71201" y="134.765" xlink:href="#a"/>
</g>
</svg>
