<?xml version="1.0" encoding="UTF-8"?>
<svg fill="#000000" version="1.1" viewBox="0 0 2.6744 4.5267" xmlns="http://www.w3.org/2000/svg" xmlns:xlink="http://www.w3.org/1999/xlink">
<defs>
<g id="a">
<path d="m0.26562-4.3125v0.3125c0.15625 0 0.29688 0 0.45312 0.03125 0.09375 0.015625 0.17188 0.046875 0.23438 0.10938 0.078125 0.09375 0.078125 0.23438 0.078125 0.35938v2.0156c0 0.17188-0.015625 0.35938 0 0.53125 0.03125 0.21875 0.125 0.4375 0.26562 0.60938 0.1875 0.25 0.46875 0.39062 0.78125 0.4375 0.1875 0.03125 0.39062 0 0.53125-0.14062 0.20312-0.17188 0.26562-0.48438 0.29688-0.73438 0.03125-0.1875 0.03125-0.35938 0.03125-0.53125 0-0.0625 0.015625-0.15625-0.03125-0.20312-0.0625-0.0625-0.17188-0.046875-0.20312 0.03125-0.015625 0.046875-0.015625 0.125-0.015625 0.17188 0 0.125 0 0.25-0.015625 0.375-0.015625 0.1875-0.03125 0.39062-0.10938 0.5625-0.078125 0.1875-0.26562 0.3125-0.45312 0.23438-0.14062-0.03125-0.21875-0.15625-0.26562-0.28125-0.09375-0.23438-0.10938-0.51562-0.10938-0.78125v-3.2188l-0.375 0.03125z"/>
</g>
</defs>
<g transform="translate(-148.98 -130.34)">
<use x="148.71201" y="134.765" xlink:href="#a"/>
</g>
</svg>
