<?xml version="1.0" encoding="UTF-8"?>
<svg fill="#000000" version="1.1" viewBox="0 0 5.7344 11.156" xmlns="http://www.w3.org/2000/svg" xmlns:xlink="http://www.w3.org/1999/xlink">
<defs>
<g id="a">
<path d="m1.6875-0.20312c-0.14062 0-0.23438 0.10938-0.23438 0.21875 0 0.078125 0.03125 0.14062 0.078125 0.1875 0.84375 0.6875 1.5938 1.5625 1.7812 2.6406 0.015625 0.10938 0.10938 0.1875 0.21875 0.1875 0.125 0 0.21875-0.078125 0.23438-0.1875 0.1875-1.0781 0.9375-1.9531 1.7812-2.6406 0.046875-0.046875 0.078125-0.10938 0.078125-0.1875 0-0.10938-0.09375-0.21875-0.23438-0.21875-0.10938 0-0.29688 0.15625-0.71875 0.625v-3.2188l1.625-0.59375c0.0625-0.03125 0.10938-0.078125 0.10938-0.14062 0-0.125-0.10938-0.17188-0.20312-0.14062l-1.5312 0.5625v-2.4062c0.29688 0.32812 0.57812 0.625 0.71875 0.625s0.23438-0.10938 0.23438-0.21875c0-0.078125-0.03125-0.14062-0.078125-0.1875-0.84375-0.6875-1.5938-1.5625-1.7812-2.6406-0.015625-0.10938-0.10938-0.1875-0.23438-0.1875-0.10938 0-0.20312 0.078125-0.21875 0.1875-0.1875 1.0781-0.9375 1.9531-1.7812 2.6406-0.046875 0.046875-0.078125 0.10938-0.078125 0.1875 0 0.10938 0.09375 0.21875 0.23438 0.21875 0.10938 0 0.29688-0.15625 0.73438-0.625v3.2188l-1.6406 0.59375c-0.0625 0.03125-0.10938 0.078125-0.10938 0.14062 0 0.10938 0.10938 0.17188 0.20312 0.14062l1.5469-0.5625v2.4062c-0.29688-0.32812-0.59375-0.625-0.73438-0.625zm1.1875 1.125v-3.0625l1.3281-0.48438v3.5469c-0.20312 0.21875-0.42188 0.45312-0.67188 0.65625-0.23438-0.20312-0.4375-0.4375-0.65625-0.65625zm0-3.3906v-3.5469c0.21875-0.21875 0.42188-0.45312 0.65625-0.65625 0.25 0.20312 0.46875 0.4375 0.67188 0.65625v3.0625z"/>
</g>
</defs>
<g transform="translate(-149.38 -126.64)">
<use x="148.71201" y="134.765" xlink:href="#a"/>
</g>
</svg>
