<?xml version="1.0" encoding="UTF-8"?>
<svg fill="#000000" version="1.1" viewBox="0 0 6.1065 8.8488" xmlns="http://www.w3.org/2000/svg" xmlns:xlink="http://www.w3.org/1999/xlink">
<defs>
<g id="a">
<path d="m3.6719-4.6406h-2.6094c-0.0625 0-0.14062 0-0.1875 0.03125-0.0625 0.046875-0.0625 0.20312-0.03125 0.28125 0.015625 0.078125 0.09375 0.09375 0.15625 0.09375h2.6719v3.4688h-2.6719c-0.0625 0-0.14062 0.015625-0.15625 0.09375-0.03125 0.078125-0.03125 0.23438 0.03125 0.28125 0.046875 0.03125 0.125 0.015625 0.1875 0.015625h2.6094v1.8125 0.3125c0 0.046875 0 0.10938 0.046875 0.14062 0.046875 0.046875 0.125 0.03125 0.17188 0.03125 0.03125 0 0.078125 0 0.10938-0.015625 0.0625-0.015625 0.078125-0.078125 0.078125-0.14062v-0.40625-1.7344h2.5938c0.0625 0 0.15625 0.03125 0.21875-0.03125 0.0625-0.046875 0.03125-0.15625 0.03125-0.21875v-3.7344c0-0.09375 0.03125-0.20312-0.046875-0.25-0.0625-0.046875-0.15625-0.03125-0.21875-0.03125h-2.5781v-1.7344-0.39062c0-0.0625-0.015625-0.125-0.078125-0.15625h-0.10938c-0.046875 0-0.125-0.015625-0.17188 0.03125-0.046875 0.03125-0.046875 0.09375-0.046875 0.14062v0.3125zm0.40625 3.875v-3.4688h2.4531v3.4688z"/>
</g>
</defs>
<g transform="translate(-149.54 -127.84)">
<use x="148.71201" y="134.765" xlink:href="#a"/>
</g>
</svg>
