<?xml version="1.0" encoding="UTF-8"?>
<svg fill="#000000" version="1.1" viewBox="0 0 5.6406 9.2031" xmlns="http://www.w3.org/2000/svg" xmlns:xlink="http://www.w3.org/1999/xlink">
<defs>
<g id="a">
<path d="m6.2344-3.1406v-0.65625h-3.7188c-0.70312 0-1.2656-0.67188-1.2656-1.3438 0-0.65625 0.5625-1.3281 1.2656-1.3281h3.7188v-0.65625h-3.6875c-1.1562 0-1.9531 0.92188-1.9531 1.9844 0 1.0781 0.76562 2 1.9219 2zm0 5.2188v-0.65625h-3.7188c-0.70312 0-1.2656-0.67188-1.2656-1.3281 0-0.67188 0.5625-1.3438 1.2656-1.3438h3.7188v-0.65625h-3.6875c-1.1562 0-1.9531 0.92188-1.9531 2 0 1.0625 0.76562 1.9844 1.9219 1.9844z"/>
</g>
</defs>
<g transform="translate(-149.31 -127.64)">
<use x="148.71201" y="134.765" xlink:href="#a"/>
</g>
</svg>
