<?xml version="1.0" encoding="UTF-8"?>
<svg fill="#000000" version="1.1" viewBox="0 0 6.2969 6.7656" xmlns="http://www.w3.org/2000/svg" xmlns:xlink="http://www.w3.org/1999/xlink">
<defs>
<g id="a">
<path d="m0.32812-6.7812v0.29688c0.23438 0 0.45312 0 0.67188 0.03125 0.10938 0.015625 0.23438 0.03125 0.29688 0.14062 0.078125 0.10938 0.0625 0.28125 0.0625 0.42188v5c0 0.125 0.015625 0.28125-0.046875 0.40625-0.078125 0.10938-0.1875 0.125-0.3125 0.14062-0.21875 0.03125-0.4375 0.03125-0.67188 0.03125v0.29688h4.2969v-0.29688c-0.26562 0-0.53125 0-0.78125-0.03125-0.14062 0-0.28125-0.015625-0.39062-0.09375-0.10938-0.09375-0.10938-0.23438-0.10938-0.375v-2.4375h0.46875c0.125 0 0.25 0 0.375 0.015625 0.15625 0.03125 0.3125 0.10938 0.40625 0.23438 0.0625 0.09375 0.078125 0.20312 0.09375 0.29688 0.03125 0.20312 0.03125 0.40625 0.03125 0.625h0.25v-2.6406h-0.25c0 0.20312 0 0.40625-0.03125 0.60938-0.015625 0.10938-0.03125 0.21875-0.09375 0.29688-0.09375 0.14062-0.25 0.20312-0.40625 0.23438-0.125 0.015625-0.25 0.015625-0.375 0.015625h-0.46875v-2.5469c0-0.09375 0-0.1875 0.0625-0.26562s0.17188-0.09375 0.26562-0.10938c0.23438-0.015625 0.48438 0 0.71875 0 0.51562 0 1.1562-0.03125 1.5469 0.39062 0.14062 0.14062 0.21875 0.35938 0.26562 0.54688 0.09375 0.32812 0.125 0.65625 0.17188 1h0.25l-0.125-1.0156-0.15625-1.2188zm2.7188 0.29688v6.1719h-0.79688v-6.1719z"/>
</g>
</defs>
<g transform="translate(-149.04 -127.98)">
<use x="148.71201" y="134.765" xlink:href="#a"/>
</g>
</svg>
