<?xml version="1.0" encoding="UTF-8"?>
<svg fill="#000000" version="1.1" viewBox="0 0 6.375 6.875" xmlns="http://www.w3.org/2000/svg" xmlns:xlink="http://www.w3.org/1999/xlink">
<defs>
<g id="a">
<path d="m8.5312-3.1875c0-0.125-0.32812-0.78125-0.32812-1.6094 0-0.29688 0.046875-0.59375 0.15625-0.875v-0.078125c0-0.14062-0.09375-0.23438-0.21875-0.23438-0.29688 0-0.42188 0.8125-2.3438 1.1562-0.10938 0.015625-0.1875 0.10938-0.1875 0.21875 0 0.14062 0.10938 0.23438 0.21875 0.23438 0.21875 0 0.9375-0.26562 1.2344-0.34375-0.39062 0.67188-0.15625 1.2344-0.5 1.625-0.21875 0.26562-0.625 0.3125-1.1562 0.3125l-0.89062-1.8906c-0.046875-0.078125-0.125-0.10938-0.20312-0.078125-0.0625 0.03125-0.10938 0.125-0.0625 0.20312l0.82812 1.7812c-0.4375 0-0.96875 0.0625-1.3125 0.46875-0.53125 0.625-0.09375 1.1875-0.75 1.9844-0.17188-0.54688-0.21875-1.1406-0.42188-1.6875-0.03125-0.078125-0.125-0.14062-0.21875-0.14062-0.125 0-0.21875 0.10938-0.21875 0.23438s0.3125 0.78125 0.3125 1.6094c0 0.29688-0.03125 0.59375-0.14062 0.875v0.078125c0 0.14062 0.09375 0.23438 0.21875 0.23438 0.28125 0 0.40625-0.8125 2.3438-1.1562 0.10938-0.015625 0.1875-0.10938 0.1875-0.21875 0-0.14062-0.10938-0.23438-0.21875-0.23438-0.21875 0-0.95312 0.26562-1.2344 0.34375 0.375-0.67188 0.15625-1.2344 0.48438-1.625 0.23438-0.26562 0.64062-0.3125 1.1719-0.3125l0.89062 1.8906c0.03125 0.078125 0.125 0.10938 0.20312 0.078125 0.0625-0.03125 0.09375-0.125 0.0625-0.20312l-0.82812-1.7812c0.4375 0 0.96875-0.0625 1.3125-0.46875 0.53125-0.625 0.09375-1.1875 0.75-1.9844 0.17188 0.54688 0.21875 1.125 0.40625 1.6875 0.046875 0.078125 0.14062 0.14062 0.21875 0.14062 0.14062 0 0.23438-0.10938 0.23438-0.23438z"/>
</g>
</defs>
<g transform="translate(-150.87 -128.78)">
<use x="148.71201" y="134.765" xlink:href="#a"/>
</g>
</svg>
