<?xml version="1.0" encoding="UTF-8"?>
<svg fill="#000000" version="1.1" viewBox="0 0 6.7188 4.7812" xmlns="http://www.w3.org/2000/svg" xmlns:xlink="http://www.w3.org/1999/xlink">
<defs>
<g id="a">
<path d="m5.1562-4.9375c-0.078125 0-0.15625 0.046875-0.20312 0.125l-1 1.9844-1-1.9844c-0.03125-0.078125-0.10938-0.125-0.20312-0.125-0.125 0-0.23438 0.10938-0.23438 0.21875 0 0.046875 0.015625 0.078125 0.03125 0.10938l1.1562 2.3125-0.71875 1.4062-1.9531-3.9219c-0.03125-0.078125-0.10938-0.125-0.20312-0.125-0.125 0-0.23438 0.10938-0.23438 0.21875 0 0.046875 0.015625 0.078125 0.03125 0.10938l2.1719 4.3281c0.03125 0.078125 0.10938 0.125 0.1875 0.125 0.10938 0 0.17188-0.046875 0.21875-0.125l0.75-1.5156 0.76562 1.5156c0.03125 0.078125 0.10938 0.125 0.20312 0.125s0.15625-0.046875 0.20312-0.125l2.1562-4.3281c0.03125-0.03125 0.03125-0.0625 0.03125-0.10938 0-0.10938-0.09375-0.21875-0.21875-0.21875-0.09375 0-0.17188 0.046875-0.21875 0.125l-1.9531 3.9219-0.70312-1.4062 1.1406-2.3125c0.03125-0.03125 0.03125-0.0625 0.03125-0.10938 0-0.10938-0.09375-0.21875-0.23438-0.21875z"/>
</g>
</defs>
<g transform="translate(-149.31 -129.83)">
<use x="148.71201" y="134.765" xlink:href="#a"/>
</g>
</svg>
