<?xml version="1.0" encoding="UTF-8"?>
<svg fill="#000000" version="1.1" viewBox="0 0 6.0938 14.609" xmlns="http://www.w3.org/2000/svg" xmlns:xlink="http://www.w3.org/1999/xlink">
<defs>
<g id="a">
<path d="m6.6875-7.4688c0.17188-0.0625 0.23438-0.125 0.23438-0.23438 0-0.125-0.10938-0.17188-0.21875-0.21875l-5.4844-2.0156c-0.15625-0.0625-0.17188-0.0625-0.1875-0.0625-0.10938 0-0.20312 0.09375-0.20312 0.20312 0 0.125 0.10938 0.17188 0.20312 0.21875l5.1094 1.875-5.0781 1.875c-0.1875 0.078125-0.23438 0.14062-0.23438 0.23438 0 0.14062 0.125 0.20312 0.20312 0.20312 0.015625 0 0.03125 0 0.17188-0.0625zm0 7.9062c0.1875-0.0625 0.23438-0.125 0.23438-0.23438 0-0.14062-0.14062-0.1875-0.20312-0.1875-0.015625 0-0.046875 0-0.17188 0.046875l-5.4844 2.0156c-0.10938 0.046875-0.23438 0.09375-0.23438 0.23438s0.10938 0.1875 0.20312 0.21875l5.5 2.0312c0.14062 0.046875 0.17188 0.046875 0.1875 0.046875 0.10938 0 0.20312-0.078125 0.20312-0.1875 0-0.14062-0.10938-0.1875-0.21875-0.21875l-5.0938-1.8906zm-0.125-1.9688c0.17188 0 0.35938 0 0.35938-0.1875 0-0.20312-0.1875-0.20312-0.35938-0.20312h-5.375c-0.17188 0-0.35938 0-0.35938 0.20312 0 0.1875 0.17188 0.1875 0.34375 0.1875zm0-1.9219c0.17188 0 0.35938 0 0.35938-0.20312s-0.1875-0.20312-0.35938-0.20312h-5.3906c-0.17188 0-0.34375 0-0.34375 0.20312s0.1875 0.20312 0.35938 0.20312z"/>
</g>
</defs>
<g transform="translate(-149.54 -124.76)">
<use x="148.71201" y="134.765" xlink:href="#a"/>
</g>
</svg>
