<?xml version="1.0" encoding="UTF-8"?>
<svg fill="#000000" version="1.1" viewBox="0 0 5.2969 5.9062" xmlns="http://www.w3.org/2000/svg" xmlns:xlink="http://www.w3.org/1999/xlink">
<defs>
<g id="a">
<path d="m7.5938-2.375c0-0.125-0.09375-0.23438-0.23438-0.23438-0.09375 0-0.1875 0.046875-0.21875 0.14062-0.1875 0.54688-0.25 1.1406-0.42188 1.6875-0.15625-0.1875-0.28125-0.35938-0.375-0.57812-0.25-0.65625 0.015625-1.8906-1.6562-2.0312l0.78125-1.6562c0.03125-0.078125 0-0.17188-0.078125-0.20312s-0.17188 0-0.20312 0.078125l-0.82812 1.7656h-0.125c-1 0-1.4844-0.1875-1.4844-1.1406 0-0.23438 0.015625-0.48438 0.015625-0.73438 0-0.125-0.09375-0.21875-0.21875-0.21875s-0.23438 0.09375-0.23438 0.21875c0 0.23438-0.015625 0.46875-0.015625 0.73438 0 0.35938 0.046875 0.75 0.3125 1.0625 0.34375 0.4375 0.89062 0.53125 1.5312 0.53125l-0.875 1.9062c-0.03125 0.0625 0 0.15625 0.078125 0.20312 0.0625 0.03125 0.15625 0 0.1875-0.078125l0.9375-2.0156c1.7031 0.0625 0.98438 1.0781 1.625 2.0938-0.40625-0.14062-1.0312-0.34375-1.2031-0.34375-0.125 0-0.23438 0.09375-0.23438 0.23438 0 0.10938 0.078125 0.20312 0.1875 0.21875 1.9375 0.34375 2.0469 1.1406 2.3438 1.1406 0.046875 0 0.078125 0 0.125-0.03125 0.078125-0.046875 0.10938-0.09375 0.10938-0.17188 0-0.15625-0.17188-0.42188-0.17188-0.98438 0-0.78125 0.34375-1.5156 0.34375-1.5938z"/>
</g>
</defs>
<g transform="translate(-151.01 -129.26)">
<use x="148.71201" y="134.765" xlink:href="#a"/>
</g>
</svg>
