<?xml version="1.0" encoding="UTF-8"?>
<svg fill="#000000" version="1.1" viewBox="0 0 7.9688 8.2812" xmlns="http://www.w3.org/2000/svg" xmlns:xlink="http://www.w3.org/1999/xlink">
<defs>
<g id="a">
<path d="m7.3125-2.4375c-0.32812 0-0.59375-0.10938-0.875-0.25 0.23438-0.42188 1.9062-3.2188 1.9062-3.3906 0-0.125-0.10938-0.23438-0.23438-0.23438-0.078125 0-0.17188 0.046875-0.21875 0.10938l-1.875 3.25c-0.57812-0.375-1.1719-0.85938-1.9062-0.85938-0.35938 0-0.73438 0.10938-1.0156 0.35938v-3.2188c0-0.1875-0.14062-0.3125-0.29688-0.3125-0.1875 0-0.29688 0.14062-0.29688 0.3125v7.6719c0 0.17188 0.10938 0.29688 0.28125 0.29688s0.3125-0.125 0.3125-0.29688v-3.8438c0.25-0.26562 0.65625-0.39062 1.0156-0.39062 0.54688 0 1.25 0.375 1.6562 0.71875-0.21875 0.375-1.6562 2.7656-1.6562 2.9375 0 0.125 0.125 0.23438 0.25 0.23438 0.078125 0 0.17188-0.046875 0.20312-0.125l1.6094-2.7812c0.39062 0.21875 0.6875 0.39062 1.1406 0.39062 0.96875 0 1.6562-0.73438 1.6562-1.6719 0-0.09375-0.015625-0.28125-0.14062-0.28125-0.10938 0-0.17188 0.60938-0.25 0.73438-0.25 0.42188-0.8125 0.64062-1.2656 0.64062zm-6.3125 3.4375c0 0.17188 0.10938 0.29688 0.29688 0.29688 0.17188 0 0.29688-0.125 0.29688-0.29688v-7.6719c0-0.1875-0.125-0.3125-0.29688-0.3125-0.1875 0-0.29688 0.14062-0.29688 0.3125z"/>
</g>
</defs>
<g transform="translate(-149.71 -127.78)">
<use x="148.71201" y="134.765" xlink:href="#a"/>
</g>
</svg>
