<?xml version="1.0" encoding="UTF-8"?>
<svg fill="#000000" version="1.1" viewBox="0 0 5.4531 10.391" xmlns="http://www.w3.org/2000/svg" xmlns:xlink="http://www.w3.org/1999/xlink">
<defs>
<g id="a">
<path d="m4.2031-5.4844c0.67188 0.5625 1.4062 0.85938 1.4531 0.85938 0.10938 0 0.10938-0.09375 0.10938-0.1875 0-0.14062 0-0.17188-0.078125-0.21875-1.0625-0.45312-1.9375-1.1719-2.5-2.5-0.0625-0.125-0.078125-0.15625-0.14062-0.15625-0.078125 0-0.09375 0.046875-0.14062 0.15625-0.625 1.4688-1.6875 2.1406-2.375 2.4531-0.17188 0.078125-0.1875 0.09375-0.1875 0.10938-0.03125 0.015625-0.03125 0.03125-0.03125 0.15625 0 0.09375 0 0.1875 0.10938 0.1875 0.0625 0 0.78125-0.29688 1.4531-0.85938v5.9844c-0.67188-0.5625-1.3906-0.85938-1.4531-0.85938-0.10938 0-0.10938 0.09375-0.10938 0.1875 0 0.14062 0 0.17188 0.09375 0.21875 1.0469 0.45312 1.9219 1.1719 2.5 2.5 0.046875 0.125 0.0625 0.15625 0.14062 0.15625 0.0625 0 0.078125-0.046875 0.14062-0.15625 0.60938-1.4688 1.6719-2.1406 2.3594-2.4531 0.17188-0.078125 0.1875-0.09375 0.1875-0.10938 0.03125-0.015625 0.03125-0.03125 0.03125-0.15625 0-0.09375 0-0.1875-0.10938-0.1875-0.046875 0-0.78125 0.29688-1.4531 0.85938zm-1.9375-0.39062c0.34375-0.34375 0.59375-0.71875 0.78125-1.0469 0.17188 0.32812 0.4375 0.70312 0.76562 1.0469v6.7656c-0.32812 0.34375-0.59375 0.71875-0.76562 1.0469-0.1875-0.32812-0.4375-0.70312-0.78125-1.0469z"/>
</g>
</defs>
<g transform="translate(-149.02 -127.08)">
<use x="148.71201" y="134.765" xlink:href="#a"/>
</g>
</svg>
