<?xml version="1.0" encoding="UTF-8"?>
<svg fill="#000000" version="1.1" viewBox="0 0 5.9844 6.3125" xmlns="http://www.w3.org/2000/svg" xmlns:xlink="http://www.w3.org/1999/xlink">
<defs>
<g id="a">
<path d="m4.6719-2.1094-0.71875-0.71875 0.71875-0.73438-0.26562-0.25-0.71875 0.71875-0.34375-0.32812 0.71875-0.71875-0.25-0.26562-0.71875 0.71875-0.73438-0.71875-0.25 0.26562 0.71875 0.71875-0.32812 0.32812-0.71875-0.71875-0.26562 0.25 0.73438 0.73438-0.73438 0.71875 0.26562 0.25 0.71875-0.71875 0.32812 0.32812-0.71875 0.73438 0.25 0.26562 0.73438-0.73438 0.71875 0.73438 0.25-0.26562-0.71875-0.73438 0.34375-0.32812 0.71875 0.71875zm-1.25-0.71875-0.32812 0.32812-0.34375-0.32812 0.34375-0.34375zm2.6562-2.5156v-0.65625h-5.9844v0.65625h0.39062v2.9844c0 1.5781 1.125 2.6719 2.6094 2.6719 1.4688 0 2.6094-1.1094 2.6094-2.7031v-2.9531zm-1.0312 2.9531c0 1.1406-0.90625 2.0469-1.9531 2.0469-1.0938 0-1.9531-0.92188-1.9531-2.0625v-2.9375h3.9062z"/>
</g>
</defs>
<g transform="translate(-148.81 -128.76)">
<use x="148.71201" y="134.765" xlink:href="#a"/>
</g>
</svg>
