<?xml version="1.0" encoding="UTF-8"?>
<svg fill="#000000" version="1.1" viewBox="0 0 3.5 9.9844" xmlns="http://www.w3.org/2000/svg" xmlns:xlink="http://www.w3.org/1999/xlink">
<defs>
<g id="a">
<path d="m2.6875 1.2812c0.4375-0.48438 1.5469-1.75 1.5469-3.7812 0-2.0156-1.1094-3.2812-1.5469-3.7656 0.46875-0.5 0.90625-0.76562 1.2031-0.9375 0.078125-0.046875 0.10938-0.078125 0.10938-0.14062 0-0.078125-0.046875-0.14062-0.10938-0.14062-0.078125 0-0.8125 0.42188-1.3906 1.0156-0.64062-0.59375-1.3281-1.0156-1.4062-1.0156s-0.125 0.0625-0.125 0.14062c0 0.0625 0.03125 0.09375 0.14062 0.14062 0.26562 0.17188 0.71875 0.4375 1.1719 0.9375-0.42188 0.48438-1.5469 1.75-1.5469 3.7656 0 2.0312 1.125 3.2969 1.5469 3.7812-0.45312 0.5-0.89062 0.76562-1.1875 0.9375-0.09375 0.046875-0.125 0.078125-0.125 0.14062 0 0.078125 0.046875 0.14062 0.125 0.14062s0.79688-0.42188 1.3906-1.0156c0.625 0.59375 1.3281 1.0156 1.4062 1.0156 0.0625 0 0.10938-0.0625 0.10938-0.14062 0-0.0625-0.015625-0.09375-0.125-0.14062-0.28125-0.17188-0.71875-0.4375-1.1875-0.9375zm-0.1875-0.21875c-0.34375-0.375-1.3125-1.625-1.3125-3.5625 0-1.8125 0.85938-3.0469 1.2969-3.5469 0.34375 0.375 1.2969 1.625 1.2969 3.5469 0 1.8281-0.85938 3.0625-1.2812 3.5625z"/>
</g>
</defs>
<g transform="translate(-149.45 -127.28)">
<use x="148.71201" y="134.765" xlink:href="#a"/>
</g>
</svg>
