<?xml version="1.0" encoding="UTF-8"?>
<svg fill="#000000" version="1.1" viewBox="0 0 4.9844 8.0312" xmlns="http://www.w3.org/2000/svg" xmlns:xlink="http://www.w3.org/1999/xlink">
<defs>
<g id="a">
<path d="m2.3438-7.4844v0.40625c0 0.15625-0.23438 0.1875-0.35938 0.20312-0.79688 0.32812-1.4375 0.90625-1.4375 1.75 0 0.85938 0.76562 1.5 1.5625 1.7344 0.078125 0.015625 0.15625 0.046875 0.23438 0.0625v3.0625c-0.67188-0.10938-1.2344-0.40625-1.5-1.125 0.046875 0 0.10938 0.015625 0.15625 0.015625 0.25 0 0.46875-0.17188 0.46875-0.45312 0-0.26562-0.20312-0.45312-0.45312-0.45312-0.375 0-0.46875 0.26562-0.46875 0.53125 0 1.0156 0.90625 1.7344 1.7969 1.7969v0.5h0.3125v-0.46875c0.09375 0.015625 0.1875 0.015625 0.28125 0.015625 0.17188 0 0.34375 0 0.5-0.015625v0.46875h0.3125v-0.42188c0-0.15625 0.21875-0.17188 0.34375-0.20312 0.79688-0.29688 1.4375-1.0156 1.4375-1.8906v-0.03125c-0.015625-0.90625-0.76562-1.5469-1.5469-1.8281-0.10938-0.046875-0.25-0.015625-0.25-0.17188 0-0.046875 0.015625-0.09375 0.015625-0.10938v-2.5625c0.64062 0.09375 1.1875 0.3125 1.4688 0.98438-0.046875 0-0.09375-0.015625-0.14062-0.015625-0.26562 0-0.46875 0.1875-0.46875 0.45312 0 0.28125 0.21875 0.46875 0.51562 0.46875 0.3125-0.0625 0.40625-0.26562 0.40625-0.51562 0-1.0469-0.92188-1.625-1.7812-1.6875v-0.5h-0.3125v0.45312h-0.78125v-0.45312zm1.4062 7.1875v-2.6719c0.59375 0.17188 1.2812 0.60938 1.2812 1.3281s-0.67188 1.125-1.2812 1.3438zm-1.0938-2.9531c0.35938 0.125 0.78125 0.09375 0.78125 0.3125v2.7031c-0.14062 0.015625-0.28125 0.03125-0.4375 0.03125h-0.20312c-0.09375 0-0.15625-0.03125-0.15625-0.14062 0-0.03125 0.015625-0.078125 0.015625-0.10938zm-0.3125-3.4062v2.4219c-0.46875-0.17188-0.92188-0.29688-1.2031-0.82812-0.046875-0.125-0.078125-0.25-0.078125-0.375 0-0.6875 0.76562-1.0625 1.2812-1.2188zm0.3125 2.5v-2.5469l0.29688-0.03125 0.48438 0.015625v2.75l-0.51562-0.125z"/>
</g>
</defs>
<g transform="translate(-149.26 -127.28)">
<use x="148.71201" y="134.765" xlink:href="#a"/>
</g>
</svg>
