<?xml version="1.0" encoding="UTF-8"?>
<svg fill="#000000" version="1.1" viewBox="0 0 8.8281 3.3281" xmlns="http://www.w3.org/2000/svg" xmlns:xlink="http://www.w3.org/1999/xlink">
<defs>
<g id="a">
<path d="m7.2344-2.6875c-0.35938-0.25-0.875-0.71875-1.1562-1.4688h-0.3125c0.32812 0.85938 0.90625 1.3906 1.0156 1.4688h-5.875c-0.17188 0-0.34375 0-0.34375 0.1875 0 0.20312 0.17188 0.20312 0.34375 0.20312h5.875c-0.26562 0.23438-0.73438 0.73438-1.0156 1.4688h0.3125c0.26562-0.73438 0.78125-1.2031 1.1562-1.4688h1.3594c-0.09375 0.078125-0.65625 0.57812-1 1.4688h0.29688c0.17188-0.45312 0.5625-1.1719 1.5-1.6719-0.9375-0.5-1.3281-1.2031-1.5-1.6562h-0.29688c0.34375 0.89062 0.90625 1.3906 1 1.4688z"/>
</g>
</defs>
<g transform="translate(-149.27 -130.61)">
<use x="148.71201" y="134.765" xlink:href="#a"/>
</g>
</svg>
