<?xml version="1.0" encoding="UTF-8"?>
<svg fill="#000000" version="1.1" viewBox="0 0 6.1719 11.406" xmlns="http://www.w3.org/2000/svg" xmlns:xlink="http://www.w3.org/1999/xlink">
<defs>
<g id="a">
<path d="m6.5938-1.2188h-0.23438c-0.20312 0.76562-0.5625 1.0312-1.3438 1.0312h-1.2031v-1.8594l0.60938-0.60938-0.60938-0.64062v-1.7031h0.5c0.20312 0 0.32812 0 0.5 0.03125 0.375 0.03125 0.78125 0.1875 0.95312 0.79688 0.015625 0.09375 0.0625 0.21875 0.0625 0.29688h0.1875v-1.625h-2.2031v-0.51562c0-1.0469 0.078125-1.7656 0.57812-1.7656 0.078125 0 0.125 0.03125 0.125 0.10938 0 0.09375-0.09375 0.078125-0.09375 0.28125 0 0.25 0.1875 0.32812 0.35938 0.32812 0.21875 0 0.42188-0.14062 0.42188-0.42188 0-0.29688-0.20312-0.60938-0.6875-0.60938-1.2031 0-1.4219 1.375-1.4219 2.1719v0.42188h-2.4688l2.4688 2.6875v0.84375l-2.6719 2.6719h2.6719v0.65625c0 1-0.078125 1.6406-0.54688 1.6406-0.078125 0-0.14062-0.046875-0.14062-0.10938 0-0.09375 0.09375-0.078125 0.09375-0.28125 0-0.25-0.17188-0.34375-0.35938-0.34375-0.20312 0-0.42188 0.15625-0.42188 0.42188 0 0.3125 0.20312 0.625 0.6875 0.625 1.125 0 1.4062-1.2031 1.4062-2.0156v-0.59375h2.375zm-3.5-2.8438-0.89062-0.9375h0.89062zm0 3.875h-1.1562l1.1562-1.1406z"/>
</g>
</defs>
<g transform="translate(-149.13 -126.63)">
<use x="148.71201" y="134.72501" xlink:href="#a"/>
</g>
</svg>
