<?xml version="1.0" encoding="UTF-8"?>
<svg fill="#000000" version="1.1" viewBox="0 0 6.625 9" xmlns="http://www.w3.org/2000/svg" xmlns:xlink="http://www.w3.org/1999/xlink">
<defs>
<g id="a">
<path d="m5.0781 0.34375v-0.078125c0-0.078125-0.046875-0.10938-0.10938-0.10938h-0.03125c-0.57812 0.21875-1.0625 0.57812-1.4219 1.0625 0.09375-3.0156 0.75-6 3.0312-7.7812 0.046875-0.03125 0.078125-0.09375 0.078125-0.15625 0-0.046875-0.015625-0.09375-0.046875-0.125-0.03125-0.046875-0.09375-0.078125-0.14062-0.078125s-0.09375 0.015625-0.14062 0.046875c-1.8281 1.4219-2.6406 3.5625-2.9844 5.8125-0.32812-2.25-1.1562-4.3906-3-5.8125-0.015625-0.03125-0.078125-0.046875-0.10938-0.046875-0.0625 0-0.125 0.03125-0.15625 0.078125-0.03125 0.03125-0.046875 0.078125-0.046875 0.10938 0 0.0625 0.03125 0.125 0.078125 0.17188 2.2812 1.7812 2.9375 4.7656 3.0156 7.7812-0.35938-0.48438-0.82812-0.84375-1.4062-1.0625h-0.03125c-0.0625 0-0.10938 0.046875-0.10938 0.10938v0.078125c0 0.046875 0.03125 0.078125 0.0625 0.09375 0.73438 0.28125 1.3125 0.84375 1.5938 1.5625 0.03125 0.046875 0.0625 0.078125 0.10938 0.078125l0.046875-0.015625c0.015625-0.015625 0.046875-0.03125 0.0625-0.0625 0.28125-0.71875 0.85938-1.2812 1.5781-1.5625 0.046875-0.015625 0.078125-0.046875 0.078125-0.09375z"/>
</g>
</defs>
<g transform="translate(-148.71 -127.84)">
<use x="148.71201" y="134.765" xlink:href="#a"/>
</g>
</svg>
