<?xml version="1.0" encoding="UTF-8"?>
<svg fill="#000000" version="1.1" viewBox="0 0 9.5 7.3125" xmlns="http://www.w3.org/2000/svg" xmlns:xlink="http://www.w3.org/1999/xlink">
<defs>
<g id="a">
<path d="m3.7344-3.9531c-0.20312 0.15625-0.4375 0.25-0.625 0.25-0.375 0-0.59375-0.17188-0.64062-0.40625v-0.125c0-0.25 0.14062-0.59375 0.375-0.95312 0.34375-0.45312 0.8125-0.90625 1.375-1.2344 0.54688-0.32812 1.1094-0.5 1.5625-0.5 0.23438 0 0.375 0.078125 0.39062 0.23438 0 0.17188-0.1875 0.42188-0.375 0.70312-0.078125 0.125-0.10938 0.25-0.10938 0.32812 0 0.21875 0.17188 0.35938 0.29688 0.46875 0.21875 0.17188 0.53125 0.26562 0.85938 0.29688-0.3125 0.4375-0.60938 0.89062-0.90625 1.3281h-0.71875c-0.03125 0-0.046875 0-0.0625 0.03125l-0.046875 0.046875v0.0625c0 0.03125 0.03125 0.078125 0.078125 0.078125h0.57812c-0.65625 0.90625-1.3906 1.8438-2.1406 2.4688-0.375-0.125-0.75-0.23438-1.25-0.23438-0.48438 0-1.125 0.078125-1.4375 0.54688-0.09375 0.125-0.125 0.21875-0.125 0.29688 0 0.32812 0.60938 0.34375 1.0312 0.34375h0.09375c0.53125 0 1.1094-0.20312 1.6875-0.53125 0.4375 0.29688 0.84375 0.625 1.5625 0.625 0.78125 0 1.8125-0.67188 2.3438-1.4375 0.015625-0.015625 0.03125-0.03125 0.03125-0.046875 0-0.046875-0.046875-0.078125-0.078125-0.078125h-0.125c-0.015625 0-0.046875 0-0.0625 0.03125-0.40625 0.57812-1.2344 0.96875-1.8281 0.96875-0.5625 0-1-0.14062-1.4219-0.3125 0.98438-0.67188 1.9375-1.6562 2.6562-2.6406h1.2344c0.03125 0 0.0625-0.015625 0.078125-0.046875l0.046875-0.046875c0-0.015625 0.015625-0.03125 0.015625-0.046875 0-0.046875-0.046875-0.078125-0.09375-0.078125h-1.1406c0.28125-0.42188 0.5-0.89062 0.75-1.3438 0.40625-0.03125 0.84375-0.125 1.3125-0.26562 0.42188-0.14062 0.92188-0.34375 1.1875-0.70312 0.14062-0.21875 0.21875-0.42188 0.21875-0.60938 0-0.078125-0.01563-0.14062-0.04687-0.21875-0.093755-0.23438-0.32813-0.35938-0.64063-0.35938-0.98438 0-1.8281 0.90625-2.6094 1.9531-0.23438-0.03125-0.39062-0.10938-0.45312-0.21875-0.03125-0.0625-0.046875-0.10938-0.046875-0.17188 0-0.10938 0.046875-0.23438 0.14062-0.375 0.14062-0.20312 0.21875-0.39062 0.21875-0.5625 0-0.125-0.046875-0.23438-0.10938-0.34375-0.1875-0.26562-0.54688-0.35938-0.9375-0.35938-0.51562 0-1.1406 0.1875-1.7344 0.54688-0.60938 0.34375-1.1406 0.8125-1.4844 1.3125-0.25 0.35938-0.40625 0.73438-0.40625 1.0469 0 0.0625 0.015625 0.14062 0.015625 0.20312 0.09375 0.34375 0.40625 0.54688 0.85938 0.54688 0.28125 0 0.625-0.10938 0.95312-0.29688s0.625-0.4375 0.8125-0.70312c0.21875-0.3125 0.32812-0.60938 0.32812-0.875 0-0.23438-0.09375-0.4375-0.32812-0.5625-0.015625 0-0.03125-0.015625-0.03125-0.015625l-0.046875 0.015625-0.078125 0.046875c-0.015625 0-0.03125 0.03125-0.03125 0.0625 0 0.015625 0 0.015625 0.015625 0.03125 0.015625 0.0625 0.03125 0.15625 0.03125 0.23438 0 0.26562-0.125 0.60938-0.375 0.96875-0.17188 0.21875-0.34375 0.45312-0.59375 0.625zm5.0625-1.4062c-0.39062 0.10938-0.73438 0.1875-1.0938 0.21875 0.48438-0.90625 1-1.7031 1.8906-1.7031 0.25 0 0.39062 0.09375 0.4375 0.23438 0 0.03125 0.01563 0.0625 0.01563 0.10938 0 0.14062-0.0625 0.32812-0.20312 0.51562-0.21876 0.29688-0.625 0.48438-1.0469 0.625zm-6.4531 4.4688c0.39062 0 0.70312 0.10938 0.96875 0.25-0.45312 0.3125-0.90625 0.5-1.3438 0.5-0.51562 0-0.85938-0.015625-0.85938-0.17188 0-0.046875 0.03125-0.10938 0.0625-0.17188 0.25-0.32812 0.73438-0.40625 1.1719-0.40625z"/>
</g>
</defs>
<g transform="translate(-149.52 -127.62)">
<use x="148.71201" y="134.765" xlink:href="#a"/>
</g>
</svg>
