<?xml version="1.0" encoding="UTF-8"?>
<svg fill="#000000" version="1.1" viewBox="0 0 6.0156 5.5625" xmlns="http://www.w3.org/2000/svg" xmlns:xlink="http://www.w3.org/1999/xlink">
<defs>
<g id="a">
<path d="m0.875-1.3594 2.5781-0.9375v2.2969c0 0.125 0.10938 0.23438 0.21875 0.23438 0.14062 0 0.23438-0.10938 0.23438-0.23438v-2.4688l2.6875-0.98438c0.0625-0.015625 0.09375-0.078125 0.09375-0.14062 0 0-0.015625-0.03125-0.015625-0.046875-0.015625-0.078125-0.10938-0.125-0.1875-0.09375l-2.5781 0.9375v-2.0625h1.9219c0.125 0 0.21875-0.10938 0.21875-0.23438s-0.09375-0.23438-0.21875-0.23438h-4.2812c-0.125 0-0.23438 0.10938-0.23438 0.23438s0.10938 0.23438 0.23438 0.23438h1.9062v2.2344l-2.6719 0.98438c-0.0625 0.015625-0.10938 0.078125-0.10938 0.14062 0 0.10938 0.10938 0.17188 0.20312 0.14062z"/>
</g>
</defs>
<g transform="translate(-149.38 -129.44)">
<use x="148.71201" y="134.765" xlink:href="#a"/>
</g>
</svg>
