<?xml version="1.0" encoding="UTF-8"?>
<svg fill="#000000" version="1.1" viewBox="0 0 3.8281 8.2656" xmlns="http://www.w3.org/2000/svg" xmlns:xlink="http://www.w3.org/1999/xlink">
<defs>
<g id="a">
<path d="m4.4062-4.4531c0-0.25-0.17188-0.4375-0.375-0.4375-0.14062 0-0.29688 0.046875-0.5 0.125-0.42188 0.17188-0.57812 0.20312-0.92188 0.21875 0-0.53125 0.03125-0.76562 0.23438-1.2812 0.078125-0.1875 0.10938-0.35938 0.10938-0.46875 0-0.21875-0.21875-0.4375-0.45312-0.4375s-0.46875 0.21875-0.46875 0.4375c0 0.10938 0.046875 0.28125 0.125 0.46875 0.20312 0.51562 0.21875 0.75 0.21875 1.2812-0.34375-0.015625-0.48438-0.046875-0.90625-0.21875-0.20312-0.078125-0.375-0.125-0.48438-0.125-0.23438 0-0.39062 0.1875-0.39062 0.4375 0 0.28125 0.14062 0.42188 0.4375 0.42188 0.10938 0 0.21875-0.015625 0.45312-0.10938 0.39062-0.15625 0.54688-0.20312 0.89062-0.21875 0 0.875-0.09375 1.375-0.39062 1.7656 0.28125 0.26562 0.39062 0.76562 0.39062 1.75-0.34375-0.03125-0.48438-0.0625-0.90625-0.21875-0.20312-0.078125-0.375-0.125-0.51562-0.125-0.21875 0-0.375 0.1875-0.375 0.42188 0 0.25 0.15625 0.45312 0.39062 0.45312 0.125 0 0.28125-0.0625 0.48438-0.14062 0.42188-0.17188 0.57812-0.20312 0.92188-0.21875 0 0.54688-0.03125 0.76562-0.23438 1.2812-0.078125 0.20312-0.10938 0.35938-0.10938 0.46875 0 0.23438 0.21875 0.45312 0.45312 0.45312s0.46875-0.21875 0.46875-0.45312c0-0.10938-0.046875-0.26562-0.125-0.46875-0.20312-0.51562-0.21875-0.73438-0.21875-1.2812 0.34375 0.015625 0.48438 0.046875 0.90625 0.21875 0.20312 0.078125 0.375 0.14062 0.48438 0.14062 0.23438 0 0.39062-0.20312 0.39062-0.4375 0-0.25-0.15625-0.4375-0.375-0.4375-0.125 0-0.3125 0.046875-0.51562 0.125-0.42188 0.15625-0.5625 0.1875-0.89062 0.21875 0-0.98438 0.078125-1.4062 0.39062-1.75-0.3125-0.35938-0.39062-0.8125-0.39062-1.7656 0.34375 0.015625 0.48438 0.046875 0.90625 0.21875 0.20312 0.078125 0.375 0.10938 0.51562 0.10938 0.21875 0 0.375-0.17188 0.375-0.42188z"/>
</g>
</defs>
<g transform="translate(-149.29 -128.03)">
<use x="148.71201" y="134.765" xlink:href="#a"/>
</g>
</svg>
