<?xml version="1.0" encoding="UTF-8"?>
<svg fill="#000000" width="6.1719" height="8.0938" version="1.1" viewBox="0 0 6.1719 8.0937" xmlns="http://www.w3.org/2000/svg" xmlns:xlink="http://www.w3.org/1999/xlink">
<defs>
<g id="a">
<path d="m6.5469-4c0.125 0 0.21875-0.10938 0.21875-0.23438 0-0.0625-0.03125-0.125-0.09375-0.17188-0.625-0.53125-1.1875-1.1875-1.3438-2-0.015625-0.10938-0.10938-0.1875-0.21875-0.1875s-0.20312 0.078125-0.21875 0.1875c-0.14062 0.75-0.64062 1.3594-1.2188 1.875-0.5625-0.51562-1.0625-1.125-1.1875-1.875-0.015625-0.10938-0.10938-0.1875-0.23438-0.1875-0.10938 0-0.20312 0.078125-0.21875 0.1875-0.14062 0.8125-0.71875 1.4688-1.3594 2-0.046875 0.046875-0.078125 0.10938-0.078125 0.17188 0 0.125 0.09375 0.23438 0.23438 0.23438 0.23438 0 0.71875-0.67188 1.2031-1.1406v3.75l-1.25 0.45312c-0.078125 0.03125-0.125 0.125-0.09375 0.1875 0.03125 0.078125 0.125 0.125 0.1875 0.09375l1.1562-0.42188v2.3594c0 0.10938 0.10938 0.21875 0.21875 0.21875 0.125 0 0.23438-0.10938 0.23438-0.21875v-2.5156l2.4062-0.875v3.3906c0 0.10938 0.09375 0.21875 0.21875 0.21875s0.23438-0.10938 0.23438-0.21875v-3.5469l1.25-0.46875c0.078125-0.03125 0.10938-0.10938 0.078125-0.1875-0.015625-0.078125-0.10938-0.125-0.1875-0.09375l-1.1406 0.42188v-2.5469c0.45312 0.45312 0.95312 1.1406 1.2031 1.1406zm-4.0625 2.4375v-3.5781c0.35938 0.35938 0.67188 0.76562 1.0469 1.0781 0.046875 0.046875 0.09375 0.0625 0.14062 0.0625 0.078125 0 0.125-0.03125 0.17188-0.0625 0.375-0.3125 0.6875-0.71875 1.0469-1.0781v2.7031z"/>
</g>
</defs>
<g transform="translate(-149.31 -128.17)">
<use x="148.71201" y="134.765" xlink:href="#a"/>
</g>
</svg>
