<?xml version="1.0" encoding="UTF-8"?>
<svg fill="#000000" version="1.1" viewBox="0 0 4.6406 8.8662" xmlns="http://www.w3.org/2000/svg" xmlns:xlink="http://www.w3.org/1999/xlink">
<defs>
<g id="a">
<path d="m2.2969-5.4688v6.9062 0.3125c0 0.046875 0 0.10938 0.046875 0.15625 0.046875 0.03125 0.125 0.015625 0.17188 0.015625 0.03125 0 0.09375 0 0.125-0.015625 0.046875-0.03125 0.046875-0.09375 0.046875-0.14062v-0.28125-7.8906-0.35938c0-0.0625 0-0.125-0.0625-0.15625s-0.15625-0.015625-0.21875 0.03125c-0.046875 0.046875-0.0625 0.125-0.09375 0.1875-0.0625 0.09375-0.10938 0.1875-0.17188 0.29688-0.21875 0.35938-0.46875 0.71875-0.73438 1.0625-0.09375 0.10938-0.1875 0.21875-0.26562 0.32812-0.046875 0.0625-0.125 0.10938-0.15625 0.1875-0.03125 0.046875-0.03125 0.1875 0 0.26562 0.015625 0.0625 0.078125 0.078125 0.14062 0.046875 0.078125-0.03125 0.15625-0.09375 0.21875-0.15625 0.15625-0.10938 0.29688-0.21875 0.4375-0.32812 0.17188-0.15625 0.34375-0.29688 0.51562-0.46875zm1.9688 5.9219v-6.8906-0.32812c0-0.046875 0-0.10938-0.046875-0.14062s-0.125-0.015625-0.17188-0.015625-0.09375 0-0.125 0.015625c-0.046875 0.03125-0.046875 0.09375-0.046875 0.14062v0.28125 7.875 0.375c0 0.0625 0 0.125 0.0625 0.14062 0.0625 0.03125 0.15625 0.03125 0.20312-0.015625s0.078125-0.10938 0.10938-0.17188c0.046875-0.10938 0.10938-0.21875 0.17188-0.3125 0.21875-0.375 0.46875-0.73438 0.73438-1.0625 0.09375-0.10938 0.17188-0.21875 0.26562-0.32812 0.046875-0.0625 0.125-0.10938 0.15625-0.1875 0.03125-0.0625 0.03125-0.20312 0-0.26562s-0.078125-0.078125-0.14062-0.046875c-0.078125 0.03125-0.15625 0.09375-0.21875 0.14062-0.15625 0.10938-0.29688 0.23438-0.4375 0.34375-0.17188 0.15625-0.34375 0.29688-0.51562 0.45312z"/>
</g>
</defs>
<g transform="translate(-149.67 -127.83)">
<use x="148.71201" y="134.765" xlink:href="#a"/>
</g>
</svg>
