<?xml version="1.0" encoding="UTF-8"?>
<svg fill="#000000" width="3.3281" height="7.3438" version="1.1" viewBox="0 0 3.3281 7.3437" xmlns="http://www.w3.org/2000/svg" xmlns:xlink="http://www.w3.org/1999/xlink">
<defs>
<g id="a">
<path d="m5.0938 0.79688-0.82812-0.84375 0.8125-0.8125-0.82812-0.82812 0.82812-0.82812-0.82812-0.82812 0.8125-0.82812-0.82812-0.82812 0.8125-0.82812-0.35938-0.35938-1.1562 1.1875 0.82812 0.82812-0.82812 0.82812 0.82812 0.82812-0.8125 0.82812 0.82812 0.82812-0.8125 0.82812 1.1562 1.1875zm-1.7656 0-0.82812-0.84375 0.8125-0.8125-0.8125-0.82812 0.8125-0.82812-0.82812-0.82812 0.8125-0.82812-0.82812-0.82812 0.82812-0.82812-0.35938-0.35938-1.1719 1.1875 0.82812 0.82812-0.8125 0.82812 0.82812 0.82812-0.82812 0.82812 0.82812 0.82812-0.8125 0.82812 1.1562 1.1875z"/>
</g>
</defs>
<g transform="translate(-150.48 -128.58)">
<use x="148.71201" y="134.765" xlink:href="#a"/>
</g>
</svg>
