<?xml version="1.0" encoding="UTF-8"?>
<svg fill="#000000" version="1.1" viewBox="0 0 5.8594 8.1562" xmlns="http://www.w3.org/2000/svg" xmlns:xlink="http://www.w3.org/1999/xlink">
<defs>
<g id="a">
<path d="m6.3438-0.28125v-0.65625h-2.2344l0.5-1.25h1.7344v-0.65625h-1.4844l0.5-1.2656h0.98438v-0.65625h-0.71875l0.71875-1.8281h-0.54688l-0.71875 1.8281h-1.5469l0.71875-1.8281h-0.54688l-0.71875 1.8281h-2.5v0.65625h2.2344l-0.5 1.2656h-1.7344v0.65625h1.4844l-0.5 1.25h-0.98438v0.65625h0.71875l-0.71875 1.8438h0.54688l0.71875-1.8438h1.5469l-0.71875 1.8438h0.54688l0.71875-1.8438zm-1.5312-3.8281-0.5 1.2656h-1.5469l0.5-1.2656zm-0.75 1.9219-0.5 1.25h-1.5469l0.5-1.25z"/>
</g>
</defs>
<g transform="translate(-149.2 -128.17)">
<use x="148.71201" y="134.765" xlink:href="#a"/>
</g>
</svg>
