<?xml version="1.0" encoding="UTF-8"?>
<svg fill="#000000" version="1.1" viewBox="0 0 5.9062 8.8281" xmlns="http://www.w3.org/2000/svg" xmlns:xlink="http://www.w3.org/1999/xlink">
<defs>
<g id="a">
<path d="m4.0312 1.5625c-0.0625-0.5-0.10938-1-0.10938-1.4844l0.09375-0.09375c0.70312-0.03125 1.375-0.23438 1.8594-0.73438 0.48438-0.46875 0.6875-1.1562 0.6875-1.8281 0-1.2344-0.6875-2.1406-2.5312-2.1406l-0.078125-0.09375c0-0.6875 0.03125-1.3594 0.078125-2.0312l-0.078125-0.078125-0.8125 0.42188c0.046875 0.5625 0.0625 1.125 0.0625 1.6875l-0.09375 0.09375c-0.42188 0-1.25 0.21875-1.7188 0.6875-0.5 0.5-0.73438 1.2031-0.73438 1.9219 0 1.1406 0.5 2.0938 2.4688 2.1562l0.078125 0.078125c0 0.57812-0.046875 1.125-0.046875 1.6875l0.15625 0.09375zm-0.03125-1.8906-0.078125-0.09375v-3.9062l0.09375-0.09375c0.46875 0.015625 0.92188 0.078125 1.2656 0.42188 0.35938 0.375 0.46875 0.89062 0.46875 1.3906 0 1.0469-0.60938 2.2031-1.75 2.2812zm-0.89062-4.0625 0.09375 0.078125v3.9375l-0.078125 0.078125c-1.0938 0-1.6406-1.125-1.6406-2.1094 0-0.5625 0.125-1.1562 0.53125-1.5625 0.29688-0.29688 0.78125-0.42188 1.0938-0.42188z"/>
</g>
</defs>
<g transform="translate(-149.37 -127.84)">
<use x="148.71201" y="134.765" xlink:href="#a"/>
</g>
</svg>
