<?xml version="1.0" encoding="UTF-8"?>
<svg fill="#000000" version="1.1" viewBox="0 0 4.4844 11.406" xmlns="http://www.w3.org/2000/svg" xmlns:xlink="http://www.w3.org/1999/xlink">
<defs>
<g id="a">
<path d="m3.375-2.4062c0-0.45312-0.39062-0.78125-0.78125-0.78125-0.375 0-0.78125 0.3125-0.78125 0.78125 0 0.48438 0.32812 0.78125 0.78125 0.78125 0.46875 0 0.78125-0.375 0.78125-0.78125zm-0.42188-3.6094c0-1.0469 0.0625-1.7656 0.5625-1.7656 0.078125 0 0.14062 0.03125 0.14062 0.10938 0 0.09375-0.09375 0.078125-0.09375 0.28125 0 0.25 0.17188 0.32812 0.35938 0.32812 0.20312 0 0.42188-0.14062 0.42188-0.42188 0-0.29688-0.20312-0.60938-0.6875-0.60938-1.2031 0-1.4375 1.375-1.4375 2.1719v1.3125c-1.0625 0.17188-1.875 1.0938-1.875 2.2188 0 1.1094 0.8125 2.0312 1.875 2.2188v1.5312c0 1-0.078125 1.6406-0.54688 1.6406-0.078125 0-0.125-0.046875-0.125-0.10938 0-0.09375 0.09375-0.078125 0.09375-0.28125 0-0.25-0.1875-0.34375-0.35938-0.34375-0.21875 0-0.42188 0.15625-0.42188 0.42188 0 0.3125 0.20312 0.625 0.6875 0.625 1.1094 0 1.4062-1.2031 1.4062-2.0156v-1.4688c1.0625-0.1875 1.875-1.1094 1.875-2.2188 0-1.125-0.8125-2.0469-1.875-2.2188zm1.5 3.625c0 1.0312-0.82812 1.8594-1.8594 1.8594s-1.8594-0.82812-1.8594-1.8594 0.82812-1.8594 1.8594-1.8594 1.8594 0.82812 1.8594 1.8594z"/>
</g>
</defs>
<g transform="translate(-149.06 -126.87)">
<use x="148.71201" y="134.96201" xlink:href="#a"/>
</g>
</svg>
