<?xml version="1.0" encoding="UTF-8"?>
<svg fill="#000000" version="1.1" viewBox="0 0 6.3673 7.4201" xmlns="http://www.w3.org/2000/svg" xmlns:xlink="http://www.w3.org/1999/xlink">
<defs>
<g id="a">
<path d="m0.89062-6.2031c-0.0625 0.03125-0.0625 0.10938-0.0625 0.17188 0 0.09375-0.015625 0.20312 0.09375 0.21875 0.0625 0.015625 0.10938 0 0.17188 0h3.0312c0.3125 0 0.625-0.015625 0.92188 0 0.26562 0.015625 0.53125 0.078125 0.78125 0.20312 0.65625 0.32812 1.0781 1.0781 0.9375 1.8281-0.03125 0.15625-0.078125 0.32812-0.17188 0.48438-0.09375 0.1875-0.23438 0.35938-0.39062 0.5-0.28125 0.25-0.625 0.39062-0.98438 0.4375-0.28125 0.03125-0.57812 0.015625-0.85938 0.015625h-3.3281c-0.046875 0-0.078125 0-0.125 0.015625-0.03125 0-0.046875 0.03125-0.0625 0.0625-0.015625 0.015625-0.015625 0.0625-0.015625 0.09375 0 0.078125-0.015625 0.17188 0.0625 0.21875 0.0625 0.015625 0.10938 0.015625 0.15625 0.015625h3.2188c0.3125 0 0.65625 0.015625 0.98438-0.015625 0.45312-0.0625 0.875-0.25 1.2344-0.54688 0.17188-0.15625 0.3125-0.34375 0.4375-0.54688 0.45312-0.78125 0.32812-1.7812-0.28125-2.4531-0.29688-0.32812-0.70312-0.54688-1.1406-0.65625-0.32812-0.078125-0.67188-0.046875-1-0.046875h-3.3906c-0.0625 0-0.15625-0.015625-0.21875 0zm0 5.4531c-0.015625 0-0.046875 0.015625-0.046875 0.046875-0.015625 0.03125-0.015625 0.078125-0.015625 0.10938 0 0.078125-0.015625 0.17188 0.0625 0.21875 0.078125 0.03125 0.1875 0 0.26562 0h5.3594 0.25c0.046875 0 0.09375 0 0.125-0.03125s0.03125-0.078125 0.03125-0.125c0-0.09375 0.015625-0.20312-0.078125-0.21875-0.046875-0.015625-0.09375-0.015625-0.14062-0.015625h-5.6562c-0.046875 0-0.09375-0.015625-0.15625 0.015625zm0 1.5625c-0.015625 0.015625-0.046875 0.03125-0.046875 0.0625-0.015625 0.03125-0.015625 0.078125-0.015625 0.10938 0 0.078125-0.015625 0.17188 0.0625 0.21875 0.078125 0.015625 0.1875 0 0.26562 0h5.6094c0.046875 0 0.09375 0 0.125-0.03125s0.03125-0.078125 0.03125-0.14062c0-0.078125 0.015625-0.1875-0.078125-0.21875h-0.14062-5.6562c-0.046875 0-0.09375-0.015625-0.15625 0z"/>
</g>
</defs>
<g transform="translate(-149.54 -128.55)">
<use x="148.71201" y="134.765" xlink:href="#a"/>
</g>
</svg>
