<?xml version="1.0" encoding="UTF-8"?>
<svg fill="#000000" version="1.1" viewBox="0 0 4.7969 7.4375" xmlns="http://www.w3.org/2000/svg" xmlns:xlink="http://www.w3.org/1999/xlink">
<defs>
<g id="a">
<path d="m3.9844-6.4531-0.3125 1.1562c-0.20312 0.10938-0.40625 0.25-0.57812 0.39062-0.26562 0.21875-0.5625 0.40625-0.90625 0.40625-0.35938 0-0.64062-0.28125-0.90625-0.53125l-0.39062 0.35938c0.39062 0.39062 0.78125 0.79688 1.3125 0.79688 0.45312 0 0.875-0.1875 1.2188-0.48438l-0.34375 1.2969h-2.1875v0.64062h2.0156l-0.34375 1.2812h-1.6719v0.64062h1.5l-0.35938 1.3125 0.5625 0.17188 0.39062-1.4844h2.7031v-0.64062h-2.5312l0.34375-1.2812h2.1875v-0.64062h-2.0156l0.46875-1.7188c0.078125-0.03125 0.15625-0.046875 0.25-0.046875 0.35938 0 0.64062 0.26562 0.90625 0.54688l0.39062-0.39062c-0.39062-0.375-0.76562-0.79688-1.3125-0.79688-0.015625 0-0.03125 0.015625-0.0625 0.015625l0.23438-0.84375z"/>
</g>
</defs>
<g transform="translate(-149.6 -128.31)">
<use x="148.71201" y="134.765" xlink:href="#a"/>
</g>
</svg>
