<?xml version="1.0" encoding="UTF-8"?>
<svg fill="#000000" version="1.1" viewBox="0 0 4.3125 5.0625" xmlns="http://www.w3.org/2000/svg" xmlns:xlink="http://www.w3.org/1999/xlink">
<defs>
<g id="a">
<path d="m2.2188-0.125 0.54688-2.0469c0.28125 0.25 0.5625 0.46875 0.95312 0.46875 0.92188 0 1.1562-1.1562 1.1562-1.3906 0-0.15625-0.0625-0.28125-0.23438-0.28125-0.10938 0-0.21875 0.09375-0.21875 0.21875-0.03125 0.375-0.25 1-0.70312 1-0.29688 0-0.54688-0.25-0.8125-0.53125l0.59375-2.2031c0.015625-0.078125-0.046875-0.1875-0.15625-0.1875-0.046875 0-0.10938 0.046875-0.14062 0.10938l-0.54688 2.0469c-0.26562-0.25-0.5625-0.46875-0.95312-0.46875-0.92188 0-1.1406 1.1406-1.1406 1.3906 0 0.125 0.046875 0.28125 0.21875 0.28125 0.10938 0 0.21875-0.09375 0.23438-0.21875 0.03125-0.375 0.23438-1 0.6875-1 0.29688 0 0.54688 0.25 0.8125 0.53125l-0.57812 2.2031c-0.03125 0.078125 0.03125 0.1875 0.14062 0.1875 0.0625 0 0.125-0.046875 0.14062-0.10938z"/>
</g>
</defs>
<g transform="translate(-149.27 -129.69)">
<use x="148.71201" y="134.765" xlink:href="#a"/>
</g>
</svg>
