<?xml version="1.0" encoding="UTF-8"?>
<svg fill="#000000" version="1.1" viewBox="0 0 7.4731 7.4782" xmlns="http://www.w3.org/2000/svg" xmlns:xlink="http://www.w3.org/1999/xlink">
<defs>
<g id="a">
<path d="m3.6719-6.2344c-0.1875 0.015625-0.35938 0.03125-0.54688 0.078125-0.46875 0.078125-0.92188 0.28125-1.3281 0.54688-0.39062 0.25-0.73438 0.59375-1.0156 1-0.625 0.90625-0.79688 2.1094-0.48438 3.1719 0.125 0.45312 0.35938 0.90625 0.65625 1.2812 0.21875 0.28125 0.5 0.53125 0.79688 0.71875 0.34375 0.25 0.73438 0.4375 1.1406 0.54688 0.42188 0.10938 0.875 0.15625 1.3125 0.10938 0.5625-0.046875 1.1094-0.21875 1.5938-0.51562 0.39062-0.21875 0.75-0.53125 1.0312-0.90625 0.28125-0.35938 0.5-0.78125 0.64062-1.2344 0.3125-1.0625 0.125-2.2188-0.48438-3.1406-0.20312-0.32812-0.46875-0.60938-0.78125-0.85938-0.34375-0.28125-0.75-0.48438-1.1719-0.625-0.29688-0.09375-0.60938-0.14062-0.92188-0.17188-0.125 0-0.29688-0.015625-0.4375 0zm-3.125 3.5312c0-0.42188 0.14062-0.875 0.32812-1.25 0.26562-0.53125 0.65625-0.98438 1.1562-1.3281 0.51562-0.34375 1.125-0.53125 1.7344-0.5625 0.8125-0.03125 1.6719 0.26562 2.2812 0.8125 0.35938 0.3125 0.625 0.67188 0.82812 1.0781 0.1875 0.375 0.32812 0.82812 0.32812 1.25zm0 0.40625h3.125v3.125c-0.32812 0-0.65625-0.09375-0.95312-0.20312-0.92188-0.34375-1.625-1.0781-1.9688-1.9844-0.125-0.29688-0.20312-0.625-0.20312-0.9375zm3.5312 3.125v-3.125h3.125c0 0.3125-0.078125 0.64062-0.1875 0.9375-0.34375 0.90625-1.0625 1.6406-1.9688 1.9844-0.29688 0.10938-0.64062 0.20312-0.96875 0.20312z"/>
</g>
</defs>
<g transform="translate(-148.86 -128.52)">
<use x="148.71201" y="134.765" xlink:href="#a"/>
</g>
</svg>
