<?xml version="1.0" encoding="UTF-8"?>
<svg fill="#000000" version="1.1" viewBox="0 0 6.6094 6.6094" xmlns="http://www.w3.org/2000/svg" xmlns:xlink="http://www.w3.org/1999/xlink">
<defs>
<g id="a">
<path d="m3.875-2.7656-1.9219-1.9219c0.53125-0.46875 1.2031-0.71875 1.9219-0.71875 0.70312 0 1.375 0.25 1.9062 0.71875zm-2.3438-2.0625c-0.64062 0.60938-0.96875 1.4531-0.96875 2.3281 0 0.89062 0.32812 1.7344 0.96875 2.3438 0.60938 0.625 1.4531 0.96875 2.3438 0.96875 0.875 0 1.7188-0.34375 2.3281-0.96875 0.625-0.60938 0.96875-1.4531 0.96875-2.3438 0-0.875-0.34375-1.7188-0.96875-2.3281-0.60938-0.625-1.4531-0.96875-2.3281-0.96875-0.89062 0-1.7344 0.34375-2.3438 0.96875zm4.5312 4.25-1.9219-1.9219 1.9219-1.9062c0.46875 0.53125 0.71875 1.2031 0.71875 1.9062 0 0.71875-0.25 1.3906-0.71875 1.9219zm-4.1094 0.28125 1.9219-1.9219 1.9062 1.9219c-0.53125 0.46875-1.2031 0.71875-1.9062 0.71875-0.71875 0-1.3906-0.25-1.9219-0.71875zm-0.28125-4.1094 1.9062 1.9062-1.9062 1.9219c-0.46875-0.53125-0.71875-1.2031-0.71875-1.9219 0-0.70312 0.25-1.375 0.71875-1.9062z"/>
</g>
</defs>
<g transform="translate(-149.27 -128.97)">
<use x="148.71201" y="134.765" xlink:href="#a"/>
</g>
</svg>
