<?xml version="1.0" encoding="UTF-8"?>
<svg fill="#000000" version="1.1" viewBox="0 0 4.4844 12.641" xmlns="http://www.w3.org/2000/svg" xmlns:xlink="http://www.w3.org/1999/xlink">
<defs>
<g id="a">
<path d="m4.9375-8.6562v-0.67188h-4.4844v0.67188zm-2.2188 10.016c0 1-0.078125 1.6406-0.54688 1.6406-0.078125 0-0.125-0.046875-0.125-0.10938 0-0.09375 0.09375-0.078125 0.09375-0.28125 0-0.25-0.1875-0.34375-0.35938-0.34375-0.21875 0-0.42188 0.15625-0.42188 0.42188 0 0.3125 0.20312 0.625 0.6875 0.625 1.1094 0 1.4062-1.2031 1.4062-2.0156v-7.3125c0-1.0469 0.0625-1.7656 0.5625-1.7656 0.078125 0 0.125 0.03125 0.125 0.10938 0 0.09375-0.078125 0.078125-0.078125 0.28125 0 0.25 0.17188 0.32812 0.35938 0.32812 0.20312 0 0.40625-0.14062 0.40625-0.42188 0-0.29688-0.1875-0.60938-0.6875-0.60938-1.1875 0-1.4219 1.375-1.4219 2.1719z"/>
</g>
</defs>
<g transform="translate(-149.17 -126.01)">
<use x="148.71201" y="135.338" xlink:href="#a"/>
</g>
</svg>
