<?xml version="1.0" encoding="UTF-8"?>
<svg fill="#000000" version="1.1" viewBox="0 0 4.7969 6.4531" xmlns="http://www.w3.org/2000/svg" xmlns:xlink="http://www.w3.org/1999/xlink">
<defs>
<g id="a">
<path d="m3.125-3.2812-0.25 0.92188c-0.09375-0.10938-0.14062-0.23438-0.14062-0.375 0-0.26562 0.17188-0.48438 0.39062-0.54688zm0.32812 1.0781 0.25-0.92188c0.09375 0.10938 0.14062 0.23438 0.14062 0.39062 0 0.25-0.17188 0.46875-0.39062 0.53125zm0.40625-3.7656-0.53125 1.9531h-2.4375v0.64062h1.5781c-0.14062 0.17188-0.21875 0.39062-0.21875 0.64062 0 0.23438 0.078125 0.45312 0.21875 0.625h-1.5781v0.64062h1.7656l-0.5 1.8125 0.5625 0.14062 0.53125-1.9531h2.4375v-0.64062h-1.5781c0.14062-0.17188 0.21875-0.39062 0.21875-0.625 0-0.25-0.078125-0.46875-0.21875-0.64062h1.5781v-0.64062h-1.7656l0.5-1.8125z"/>
</g>
</defs>
<g transform="translate(-149.6 -128.8)">
<use x="148.71201" y="134.765" xlink:href="#a"/>
</g>
</svg>
