<?xml version="1.0" encoding="UTF-8"?>
<svg fill="#000000" version="1.1" viewBox="0 0 5.0156 4.9219" xmlns="http://www.w3.org/2000/svg" xmlns:xlink="http://www.w3.org/1999/xlink">
<defs>
<g id="a">
<path d="m1.4219-4.5938c-0.29688 0-0.6875 0.046875-0.89062 0.34375-0.125 0.20312-0.34375 1.2188-0.375 1.4062l0.21875 0.03125c0.125-0.34375 0.29688-0.79688 0.42188-0.9375 0.20312-0.20312 0.5625-0.21875 0.84375-0.21875h0.75l0.078125 0.078125c-0.078125 0.8125-0.15625 1.6406-0.15625 2.4688 0 0.64062 0.09375 1.5156 0.78125 1.5156 0.42188 0 0.95312-0.39062 1.3438-0.75l-0.09375-0.14062-0.09375-0.015625c-0.15625 0.09375-0.40625 0.25-0.59375 0.25-0.625 0-0.60938-1.3438-0.60938-1.6875 0-0.53125 0.078125-1.2969 0.10938-1.6406l0.078125-0.078125h0.6875c0.28125 0 0.54688-0.03125 0.82812-0.09375l0.42188-0.67188-0.125-0.09375c-0.34375 0.15625-0.71875 0.23438-1.0938 0.23438z"/>
</g>
</defs>
<g transform="translate(-148.87 -129.94)">
<use x="148.71201" y="134.765" xlink:href="#a"/>
</g>
</svg>
