<?xml version="1.0" encoding="UTF-8"?>
<svg fill="#000000" version="1.1" viewBox="0 0 5.6406 8.2969" xmlns="http://www.w3.org/2000/svg" xmlns:xlink="http://www.w3.org/1999/xlink">
<defs>
<g id="a">
<path d="m4.5781-5.0781c0.09375-0.4375 0.17188-0.65625 0.375-0.875 0.51562-0.54688 0.65625-0.76562 0.65625-1.125 0-0.60938-0.57812-0.95312-1.1875-0.95312-0.625 0-1.0938 0.42188-1.0938 0.92188 0 0.26562 0.15625 0.45312 0.39062 0.45312 0.20312 0 0.34375-0.125 0.34375-0.32812 0-0.21875-0.1875-0.21875-0.1875-0.32812s0.20312-0.32812 0.46875-0.32812c0.29688 0 0.46875 0.1875 0.46875 0.51562 0 0.3125-0.1875 0.67188-0.3125 0.95312-0.20312 0.48438-0.21875 0.76562-0.21875 1.0938zm0.3125 0.6875c0-0.21875-0.21875-0.42188-0.42188-0.42188-0.23438 0-0.4375 0.1875-0.4375 0.42188 0 0.25 0.17188 0.4375 0.4375 0.4375 0.23438 0 0.42188-0.1875 0.42188-0.4375zm1.5 1.9219v-0.10938l-5.6406-2.7188v0.64062l4.3125 2.1406-4.3125 2.125v0.65625z"/>
</g>
</defs>
<g transform="translate(-149.46 -126.73)">
<use x="148.71201" y="134.765" xlink:href="#a"/>
</g>
</svg>
