<?xml version="1.0" encoding="UTF-8"?>
<svg fill="#000000" version="1.1" viewBox="0 0 8.8281 3.3281" xmlns="http://www.w3.org/2000/svg" xmlns:xlink="http://www.w3.org/1999/xlink">
<defs>
<g id="a">
<path d="m3.0938-1.375-1.9375-1.125 1.9375-1.1094zm-2.4531-1.2812c-0.015625 0-0.046875 0.03125-0.0625 0.0625s-0.015625 0.078125-0.015625 0.09375c0 0.078125 0.03125 0.14062 0.078125 0.17188l2.5469 1.4688c0.03125 0.015625 0.0625 0.03125 0.10938 0.03125 0.10938 0 0.1875-0.09375 0.1875-0.20312v-1.2656h2.9688v1.2656c0 0.10938 0.09375 0.20312 0.20312 0.20312 0.046875 0 0.078125-0.015625 0.10938-0.03125l2.5312-1.4688c0.0625-0.03125 0.09375-0.09375 0.09375-0.17188 0-0.015625 0-0.0625-0.015625-0.09375-0.03125-0.03125-0.046875-0.0625-0.078125-0.0625l-2.5312-1.4688c-0.03125-0.015625-0.0625-0.03125-0.10938-0.03125-0.10938 0-0.20312 0.09375-0.20312 0.20312v1.2656h-2.9688v-1.2656c0-0.10938-0.078125-0.20312-0.1875-0.20312-0.046875 0-0.078125 0.015625-0.10938 0.03125zm6.2188 1.2812v-2.2344l1.9375 1.1094z"/>
</g>
</defs>
<g transform="translate(-149.27 -130.61)">
<use x="148.71201" y="134.765" xlink:href="#a"/>
</g>
</svg>
