<?xml version="1.0" encoding="UTF-8"?>
<svg fill="#000000" version="1.1" viewBox="0 0 6.9786 7.1324" xmlns="http://www.w3.org/2000/svg" xmlns:xlink="http://www.w3.org/1999/xlink">
<defs>
<g id="a">
<path d="m6.3906-0.5625c-0.15625-0.03125-0.32812 0-0.48438 0.015625-0.46875 0.046875-0.96875 0.20312-1.3438 0.48438v0.015625l0.1875 0.1875c0.03125 0.015625 0.046875 0.0625 0.078125 0.0625 0.046875 0.015625 0.078125-0.015625 0.10938-0.03125 0.0625-0.03125 0.10938-0.078125 0.17188-0.10938 0.21875-0.09375 0.4375-0.17188 0.65625-0.21875 0.5-0.09375 0.96875-0.015625 1.4375 0.14062-0.078125-0.25-0.14062-0.5-0.15625-0.75-0.015625-0.5625 0.15625-1.1406 0.48438-1.5938l-0.28125-0.28125c-0.09375 0.14062-0.1875 0.28125-0.26562 0.4375-0.20312 0.42188-0.3125 0.89062-0.3125 1.3594-0.32812-0.34375-0.65625-0.6875-0.98438-1.0469l-1.6719-1.7344-1.1875-1.2344c-0.23438-0.25-0.46875-0.46875-0.6875-0.71875l-0.42188-0.42188c-0.21875-0.23438-0.42188-0.45312-0.64062-0.67188-0.10938-0.10938-0.28125-0.35938-0.45312-0.20312-0.03125 0-0.03125 0.03125-0.046875 0.046875-0.09375 0.17188 0.09375 0.3125 0.20312 0.42188 0.14062 0.14062 0.28125 0.29688 0.42188 0.4375 0.21875 0.23438 0.42188 0.45312 0.625 0.67188 0.46875 0.46875 0.92188 0.95312 1.375 1.4219 0.78125 0.79688 1.5312 1.5938 2.2969 2.3906 0.29688 0.3125 0.59375 0.625 0.89062 0.92188z"/>
</g>
</defs>
<g transform="translate(-149.26 -127.84)">
<use x="148.71201" y="134.765" xlink:href="#a"/>
</g>
</svg>
