<?xml version="1.0" encoding="UTF-8"?>
<svg fill="#000000" version="1.1" viewBox="0 0 5.25 4.7969" xmlns="http://www.w3.org/2000/svg" xmlns:xlink="http://www.w3.org/1999/xlink">
<defs>
<g id="a">
<path d="m2.6094-4.6094c-1.2656 0.046875-1.7969 1.2344-1.7969 2.4062 0 1.0938 0.46875 2.25 1.75 2.25 1.4375 0 2.3125-1 2.3125-2.3125 0-0.82812-0.34375-1.5312-1.0156-1.9844l0.015625-0.0625c0.65625 0.078125 1.3438 0.17188 1.9844 0.29688l0.0625-0.0625 0.14062-0.5625-0.046875-0.10938zm0.1875 0.32812c1.0312 0 1.2969 1.2188 1.2969 2.125 0 0.6875-0.20312 1.7969-1.1562 1.7969-0.60938 0-1-0.65625-1.1562-1.1406-0.10938-0.32812-0.14062-0.67188-0.14062-1.0156 0-0.75 0.26562-1.7656 1.1562-1.7656z"/>
</g>
</defs>
<g transform="translate(-149.52 -130.02)">
<use x="148.71201" y="134.765" xlink:href="#a"/>
</g>
</svg>
