<?xml version="1.0" encoding="UTF-8"?>
<svg fill="#000000" version="1.1" viewBox="0 0 4.8906 7.0312" xmlns="http://www.w3.org/2000/svg" xmlns:xlink="http://www.w3.org/1999/xlink">
<defs>
<g id="b">
<path d="m4.2812-5.5781v-0.29688h-3.5938v0.29688z"/>
</g>
<g id="a">
<path d="m2.8594-6.8125s0-0.10938-0.125-0.10938c-0.23438 0-0.95312 0.078125-1.2188 0.10938-0.078125 0-0.1875 0.015625-0.1875 0.1875 0 0.125 0.09375 0.125 0.23438 0.125 0.48438 0 0.5 0.0625 0.5 0.17188l-0.03125 0.20312-1.4375 5.7344c-0.046875 0.14062-0.046875 0.15625-0.046875 0.21875 0 0.23438 0.20312 0.28125 0.29688 0.28125 0.15625 0 0.3125-0.125 0.35938-0.26562l0.1875-0.75 0.21875-0.89062c0.0625-0.23438 0.125-0.45312 0.17188-0.67188 0.015625-0.0625 0.10938-0.39062 0.10938-0.45312 0.03125-0.09375 0.34375-0.64062 0.6875-0.92188 0.21875-0.15625 0.51562-0.34375 0.95312-0.34375 0.42188 0 0.53125 0.34375 0.53125 0.70312 0 0.53125-0.375 1.625-0.60938 2.2344-0.078125 0.21875-0.14062 0.34375-0.14062 0.54688 0 0.46875 0.35938 0.8125 0.82812 0.8125 0.9375 0 1.2969-1.4531 1.2969-1.5312 0-0.10938-0.078125-0.10938-0.10938-0.10938-0.10938 0-0.10938 0.03125-0.15625 0.1875-0.14062 0.53125-0.46875 1.2344-1.0156 1.2344-0.17188 0-0.23438-0.09375-0.23438-0.32812 0-0.25 0.078125-0.48438 0.17188-0.70312 0.15625-0.4375 0.60938-1.625 0.60938-2.2031 0-0.64062-0.39062-1.0625-1.1406-1.0625-0.625 0-1.1094 0.3125-1.4844 0.76562z"/>
</g>
</defs>
<g transform="translate(-149.26 -127.84)">
<use x="148.71201" y="134.765" xlink:href="#b"/>
<use x="148.71201" y="134.765" xlink:href="#a"/>
</g>
</svg>
