<?xml version="1.0" encoding="UTF-8"?>
<svg fill="#000000" version="1.1" viewBox="0 0 3.9309 4.582" xmlns="http://www.w3.org/2000/svg" xmlns:xlink="http://www.w3.org/1999/xlink">
<defs>
<g id="a">
<path d="m3.3125-2h-2.8594c-0.0625 0-0.15625-0.015625-0.20312 0.03125-0.0625 0.078125-0.03125 0.23438-0.015625 0.32812 0.015625 0.3125 0.078125 0.60938 0.21875 0.89062 0.09375 0.1875 0.21875 0.35938 0.39062 0.51562 0.21875 0.17188 0.46875 0.28125 0.73438 0.34375 0.51562 0.10938 1.0469 0.046875 1.5-0.23438 0.20312-0.125 0.375-0.28125 0.53125-0.46875 0.78125-0.9375 0.70312-2.4375-0.21875-3.2656-0.1875-0.15625-0.40625-0.29688-0.625-0.39062-0.28125-0.10938-0.57812-0.17188-0.875-0.17188-0.57812 0-1.1406 0.3125-1.4531 0.79688-0.078125 0.125-0.14062 0.25-0.1875 0.39062-0.015625 0.0625-0.046875 0.14062 0 0.1875 0.0625 0.078125 0.17188 0.046875 0.20312-0.03125 0.03125-0.046875 0.046875-0.10938 0.0625-0.15625 0.015625-0.0625 0.0625-0.14062 0.10938-0.20312 0.15625-0.29688 0.45312-0.53125 0.76562-0.64062 0.17188-0.0625 0.32812-0.09375 0.5-0.09375 0.14062 0 0.26562 0.03125 0.40625 0.078125 0.10938 0.03125 0.21875 0.09375 0.32812 0.17188 0.09375 0.0625 0.17188 0.14062 0.23438 0.21875 0.40625 0.46875 0.45312 1.1094 0.45312 1.7031zm-2.4219 0.20312h2.4062c0 0.45312-0.10938 0.9375-0.39062 1.2812-0.21875 0.26562-0.53125 0.46875-0.85938 0.45312-0.10938 0-0.21875-0.03125-0.32812-0.0625-0.14062-0.046875-0.26562-0.125-0.35938-0.21875-0.26562-0.26562-0.39062-0.65625-0.4375-1.0312-0.015625-0.14062 0-0.28125-0.03125-0.42188z"/>
</g>
</defs>
<g transform="translate(-148.92 -130.34)">
<use x="148.71201" y="134.765" xlink:href="#a"/>
</g>
</svg>
