<?xml version="1.0" encoding="UTF-8"?>
<svg fill="#000000" version="1.1" viewBox="0 0 6.8281 8.1562" xmlns="http://www.w3.org/2000/svg" xmlns:xlink="http://www.w3.org/1999/xlink">
<defs>
<g id="a">
<path d="m4.0625-0.96875c0.03125-0.375 0.046875-0.92188 0.046875-1.1875 0-1.0469-0.046875-4.6562-2.1406-4.6562-0.6875 0-1.2969 0.60938-1.2969 0.76562 0 0.078125 0.078125 0.078125 0.10938 0.078125 0.0625 0 0.35938-0.046875 0.57812-0.34375 0.89062 0.015625 1.4531 0.65625 1.75 1.9219 0.1875 0.79688 0.26562 1.6719 0.26562 2.5938 0 0.59375-0.046875 1.2812-0.0625 1.4062 0 0.078125 0 0.09375-0.015625 0.10938-0.03125 0.015625-1.0312 0.85938-1.5156 0.85938-0.078125 0-0.89062 0-1.0781-0.82812-0.015625-0.0625-0.03125-0.125-0.078125-0.125-0.125 0-0.3125 0.32812-0.3125 0.57812 0 0.42188 0.375 1.1406 1.2188 1.1406 0.76562 0 2.4062-1.4688 3.2812-2.4688 1.9844-2.2969 2.3281-4.0156 2.3281-4.5312 0-0.84375-0.5625-1.1562-0.9375-1.1562-0.29688 0-0.375 0.5-0.375 0.60938 0 0.14062 0.03125 0.15625 0.1875 0.17188 0.57812 0.0625 0.73438 0.53125 0.73438 0.82812 0 0.3125-0.46875 2.0781-2.6875 4.2344z"/>
</g>
</defs>
<g transform="translate(-149.02 -127.95)">
<use x="148.71201" y="134.765" xlink:href="#a"/>
</g>
</svg>
