<?xml version="1.0" encoding="UTF-8"?>
<svg fill="#000000" width="4.3125" height="3.4688" version="1.1" viewBox="0 0 4.3125 3.4687" xmlns="http://www.w3.org/2000/svg" xmlns:xlink="http://www.w3.org/1999/xlink">
<defs>
<g id="a">
<path d="m4.875-2.2031c0-0.15625-0.0625-0.28125-0.23438-0.28125-0.10938 0-0.21875 0.09375-0.21875 0.21875-0.03125 0.375-0.25 0.98438-0.70312 0.98438-0.65625 0-1.0938-1.2188-2.0156-1.2188s-1.1406 1.1406-1.1406 1.3906c0 0.125 0.046875 0.26562 0.21875 0.26562 0.10938 0 0.21875-0.078125 0.23438-0.20312 0.03125-0.375 0.23438-1 0.6875-1 0.67188 0 1.0938 1.2344 2.0156 1.2344s1.1562-1.1562 1.1562-1.3906zm0-1.7812c0-0.15625-0.0625-0.26562-0.23438-0.26562-0.10938 0-0.21875 0.078125-0.21875 0.20312-0.03125 0.375-0.25 1-0.70312 1-0.65625 0-1.0938-1.2344-2.0156-1.2344s-1.1406 1.1562-1.1406 1.3906c0 0.125 0.046875 0.28125 0.21875 0.28125 0.10938 0 0.21875-0.09375 0.23438-0.21875 0.03125-0.375 0.23438-0.98438 0.6875-0.98438 0.67188 0 1.0938 1.2188 2.0156 1.2188s1.1562-1.1562 1.1562-1.3906z"/>
</g>
</defs>
<g transform="translate(-149.27 -130.48)">
<use x="148.71201" y="134.765" xlink:href="#a"/>
</g>
</svg>
