<?xml version="1.0" encoding="UTF-8"?>
<svg fill="#000000" version="1.1" viewBox="0 0 8.8438 5.6406" xmlns="http://www.w3.org/2000/svg" xmlns:xlink="http://www.w3.org/1999/xlink">
<defs>
<g id="a">
<path d="m6.5-3.2656h2.5469c0.17188 0 0.35938 0 0.35938-0.1875 0-0.20312-0.1875-0.20312-0.35938-0.20312h-2.375l0.53125-1.2812c0.046875-0.125 0.0625-0.14062 0.0625-0.17188 0-0.14062-0.125-0.20312-0.20312-0.20312-0.10938 0-0.15625 0.0625-0.21875 0.21875l-0.60938 1.4375h-3.0469c0.8125-0.875 1-1.4219 1-1.4531 0-0.125-0.10938-0.125-0.20312-0.125-0.14062 0-0.14062 0.015625-0.25 0.1875-0.5 0.96875-1.4219 1.9688-3 2.4219-0.10938 0.03125-0.17188 0.046875-0.17188 0.125 0 0.09375 0.0625 0.10938 0.17188 0.14062 1.5938 0.45312 2.4844 1.4531 2.9688 2.3594 0.10938 0.1875 0.10938 0.20312 0.14062 0.21875 0.03125 0.03125 0.078125 0.03125 0.14062 0.03125 0.09375 0 0.20312 0 0.20312-0.125 0-0.015625-0.1875-0.5625-1-1.4531h2.0625c-0.078125 0.1875-0.59375 1.3906-0.59375 1.4531 0 0.14062 0.125 0.20312 0.20312 0.20312 0.125 0 0.17188-0.09375 0.20312-0.1875l0.625-1.4688h3.3594c0.17188 0 0.35938 0 0.35938-0.20312 0-0.1875-0.1875-0.1875-0.35938-0.1875h-3.1875zm-0.42188 0-0.65625 1.5469h-2.4844c-0.17188 0-0.20312 0-0.32812-0.10938-0.5625-0.42188-1.0938-0.64062-1.1406-0.67188 0.046875-0.015625 0.625-0.26562 1.0781-0.59375 0.09375-0.09375 0.17188-0.14062 0.1875-0.14062 0.015625-0.015625 0.03125-0.03125 0.20312-0.03125z"/>
</g>
</defs>
<g transform="translate(-149.27 -129.45)">
<use x="148.71201" y="134.765" xlink:href="#a"/>
</g>
</svg>
