<?xml version="1.0" encoding="UTF-8"?>
<svg fill="#000000" version="1.1" viewBox="0 0 13.969 8.0312" xmlns="http://www.w3.org/2000/svg" xmlns:xlink="http://www.w3.org/1999/xlink">
<defs>
<g id="a">
<path d="m3.1094-6.5938c0.45312 0.26562 0.98438 0.42188 1.5312 0.42188 0.46875 0 0.90625-0.14062 1.3281-0.375-1 1.5156-2.0156 3.0156-3.0156 4.5-0.48438 0.73438-0.95312 1.4844-1.4688 2.1719-0.03125 0.078125-0.09375 0.14062-0.09375 0.21875 0 0.09375 0.078125 0.1875 0.17188 0.20312h0.015625c0.17188 0 0.25-0.20312 0.32812-0.3125 1.6719-2.4219 3.2812-4.9062 4.9375-7.3281 0.03125-0.0625 0.078125-0.14062 0.078125-0.20312 0-0.10938-0.10938-0.1875-0.20312-0.1875-0.1875 0-0.34375 0.34375-0.51562 0.48438-0.4375 0.39062-0.98438 0.59375-1.5781 0.60938h-0.046875c-0.625 0-1.2656-0.28125-1.7344-0.67188-0.23438-0.21875-0.46875-0.42188-0.8125-0.42188-1.0312 0-1.4844 1.2344-1.4844 2.0312 0 0.89062 0.54688 1.9844 1.4688 1.9844 0.90625 0 1.3125-1.1719 1.3125-2.0156 0-0.40625-0.09375-0.75-0.21875-1.1094zm6.625 3.125c-0.92188 0.125-1.375 1.1719-1.375 2.0156 0 0.82812 0.5 2 1.4844 2h0.09375c0.84375-0.09375 1.2031-1.2031 1.2031-1.9844 0-0.40625-0.0625-0.8125-0.23438-1.1875-0.20312-0.42188-0.5625-0.85938-1.0625-0.85938-0.03125 0-0.078125 0.015625-0.10938 0.015625zm-3.3906 0c-0.92188 0.125-1.375 1.1719-1.375 2.0156 0 0.82812 0.5 2 1.4844 2h0.09375c0.84375-0.09375 1.2031-1.2031 1.2031-1.9844 0-0.40625-0.0625-0.8125-0.23438-1.1875-0.20312-0.42188-0.5625-0.85938-1.0625-0.85938-0.03125 0-0.078125 0.015625-0.10938 0.015625zm6.7812 0c-0.9375 0.125-1.375 1.1719-1.375 2.0156 0 0.82812 0.48438 2 1.4688 2h0.09375c0.85938-0.09375 1.2031-1.2031 1.2031-1.9844 0-0.40625-0.0625-0.8125-0.23438-1.1875-0.20312-0.42188-0.5625-0.85938-1.0625-0.85938-0.03125 0-0.0625 0.015625-0.09375 0.015625zm1.125 2.1875c-0.04687 0.625-0.32812 1.6094-1.0312 1.6094-0.82812 0-0.84375-1.4844-0.84375-1.8125v-0.046875c0-0.625 0.14062-1.7188 0.875-1.7188 0.125 0 0.26562 0.0625 0.375 0.14062 0.5 0.375 0.64062 1.0938 0.64062 1.6562 0 0.0625 0 0.125-0.01563 0.17188zm-3.375 0c-0.04687 0.625-0.32812 1.6094-1.0312 1.6094-0.82812 0-0.85938-1.4844-0.85938-1.8125v-0.046875c0-0.625 0.15625-1.7188 0.89062-1.7188 0.10938 0 0.26562 0.0625 0.35938 0.14062 0.51562 0.375 0.65625 1.0938 0.65625 1.6562 0 0.0625 0 0.125-0.01563 0.17188zm-7.8125-4.0156c-0.046875 0.625-0.32812 1.6094-1.0312 1.6094-0.82812 0-0.85938-1.4844-0.85938-1.8125v-0.046875c0-0.625 0.15625-1.7188 0.875-1.7188 0.125 0 0.28125 0.0625 0.375 0.14062 0.51562 0.375 0.65625 1.0938 0.65625 1.6562 0 0.0625 0 0.10938-0.015625 0.17188zm4.4219 4.0156c-0.046875 0.625-0.32812 1.6094-1.0312 1.6094-0.82812 0-0.84375-1.4844-0.84375-1.8125v-0.046875c0-0.625 0.14062-1.7188 0.875-1.7188 0.10938 0 0.26562 0.0625 0.35938 0.14062 0.51562 0.375 0.65625 1.0938 0.65625 1.6562 0 0.0625 0 0.125-0.015625 0.17188z"/>
</g>
</defs>
<g transform="translate(-149.26 -127.28)">
<use x="148.71201" y="134.765" xlink:href="#a"/>
</g>
</svg>
