<?xml version="1.0" encoding="UTF-8"?>
<svg fill="#000000" version="1.1" viewBox="0 0 6.3687 7.4201" xmlns="http://www.w3.org/2000/svg" xmlns:xlink="http://www.w3.org/1999/xlink">
<defs>
<g id="a">
<path d="m2.625-6.2031c-0.53125 0.046875-1.0312 0.23438-1.4219 0.60938-0.5 0.48438-0.75 1.2344-0.60938 1.9219 0.078125 0.35938 0.25 0.6875 0.46875 0.95312 0.35938 0.4375 0.90625 0.6875 1.4531 0.76562 0.32812 0.03125 0.65625 0.015625 0.98438 0.015625h3.2344c0.046875 0 0.10938 0 0.14062-0.03125 0.046875-0.03125 0.046875-0.09375 0.046875-0.14062 0-0.09375 0.015625-0.21875-0.09375-0.23438-0.046875-0.015625-0.10938 0-0.17188 0h-3.2344c-0.4375 0-0.875 0.03125-1.2812-0.10938-0.70312-0.25-1.2188-0.9375-1.1875-1.6875 0.015625-0.21875 0.078125-0.45312 0.17188-0.67188 0.078125-0.125 0.15625-0.25 0.26562-0.375 0.28125-0.32812 0.70312-0.54688 1.1406-0.60938 0.15625-0.015625 0.29688-0.015625 0.45312-0.015625h3.7656c0.03125 0 0.09375 0 0.125-0.015625 0.0625-0.046875 0.046875-0.14062 0.046875-0.21875v-0.078125c-0.015625-0.03125-0.03125-0.0625-0.046875-0.0625-0.046875-0.015625-0.09375-0.015625-0.125-0.015625h-3.5156c-0.20312 0-0.40625-0.015625-0.60938 0zm-1.7344 5.4531c-0.015625 0-0.046875 0.015625-0.046875 0.046875-0.015625 0.03125-0.015625 0.078125-0.015625 0.10938 0 0.078125-0.015625 0.17188 0.0625 0.21875 0.078125 0.03125 0.1875 0 0.26562 0h5.6094c0.046875 0 0.09375 0 0.125-0.03125s0.03125-0.078125 0.03125-0.125c0-0.09375 0.015625-0.20312-0.078125-0.21875-0.046875-0.015625-0.09375-0.015625-0.14062-0.015625h-5.6562c-0.046875 0-0.09375-0.015625-0.15625 0.015625zm0 1.5625c-0.015625 0.015625-0.046875 0.03125-0.046875 0.0625-0.015625 0.03125-0.015625 0.078125-0.015625 0.10938 0 0.078125-0.015625 0.17188 0.0625 0.21875 0.078125 0.015625 0.1875 0 0.26562 0h5.6094c0.046875 0 0.09375 0 0.125-0.03125s0.03125-0.078125 0.03125-0.14062c0-0.078125 0.015625-0.1875-0.078125-0.21875h-0.14062-5.6562c-0.046875 0-0.09375-0.015625-0.15625 0z"/>
</g>
</defs>
<g transform="translate(-149.27 -128.55)">
<use x="148.71201" y="134.765" xlink:href="#a"/>
</g>
</svg>
