<?xml version="1.0" encoding="UTF-8"?>
<svg fill="#000000" version="1.1" viewBox="0 0 8.8488 4.1931" xmlns="http://www.w3.org/2000/svg" xmlns:xlink="http://www.w3.org/1999/xlink">
<defs>
<g id="a">
<path d="m4.4688-3.0938c-0.125 0.29688-0.25 0.57812-0.375 0.85938l-0.09375 0.20312c-0.015625 0.046875-0.03125 0.09375-0.078125 0.10938-0.046875 0.03125-0.15625 0.015625-0.21875 0.015625h-2.875c-0.078125 0-0.1875-0.03125-0.23438 0.03125-0.03125 0.03125-0.03125 0.078125-0.03125 0.125 0 0.078125-0.03125 0.1875 0.0625 0.21875 0.046875 0.03125 0.125 0.015625 0.1875 0.015625h2.9531c-0.125 0.26562-0.23438 0.53125-0.35938 0.79688-0.03125 0.078125-0.125 0.21875-0.03125 0.29688 0.03125 0.015625 0.078125 0.015625 0.10938 0.015625 0.078125 0 0.1875 0.015625 0.23438-0.046875 0.0625-0.0625 0.09375-0.1875 0.125-0.26562 0.078125-0.17188 0.15625-0.35938 0.25-0.53125 0.015625-0.0625 0.046875-0.10938 0.078125-0.17188 0-0.03125 0.03125-0.0625 0.0625-0.078125 0.0625-0.03125 0.17188-0.015625 0.23438-0.015625h2.5781v0.015625c-0.1875 0.10938-0.35938 0.26562-0.51562 0.40625-0.17188 0.14062-0.32812 0.28125-0.48438 0.45312-0.078125 0.078125-0.17188 0.14062-0.23438 0.23438h0.35938c0.0625 0 0.125 0 0.17188-0.015625 0.0625-0.015625 0.09375-0.078125 0.14062-0.10938 0.046875-0.0625 0.09375-0.09375 0.14062-0.14062 0.17188-0.17188 0.35938-0.3125 0.53125-0.45312 0.4375-0.34375 0.90625-0.625 1.375-0.875 0.21875-0.125 0.4375-0.25 0.67188-0.34375 0.0625-0.03125 0.20312-0.0625 0.20312-0.15625s-0.14062-0.125-0.20312-0.15625c-0.23438-0.10938-0.45312-0.21875-0.67188-0.34375-0.46875-0.26562-0.9375-0.53125-1.375-0.875-0.17188-0.14062-0.35938-0.29688-0.53125-0.45312l-0.14062-0.14062c-0.046875-0.03125-0.078125-0.09375-0.14062-0.10938-0.046875-0.03125-0.10938-0.015625-0.17188-0.015625h-0.35938c0.0625 0.09375 0.15625 0.15625 0.23438 0.23438 0.15625 0.15625 0.3125 0.3125 0.48438 0.45312 0.15625 0.14062 0.32812 0.29688 0.51562 0.40625v0.015625h-1.9531c0.125-0.26562 0.23438-0.53125 0.35938-0.79688 0.046875-0.078125 0.125-0.23438 0.015625-0.29688-0.03125-0.015625-0.0625-0.015625-0.09375-0.015625-0.078125 0-0.17188-0.015625-0.21875 0.03125-0.078125 0.0625-0.10938 0.17188-0.125 0.25-0.09375 0.1875-0.17188 0.375-0.25 0.54688-0.03125 0.0625-0.0625 0.10938-0.09375 0.17188-0.015625 0.046875-0.03125 0.09375-0.078125 0.10938h-0.32812-3.3906c-0.078125 0-0.21875-0.03125-0.29688 0.03125-0.046875 0.046875-0.03125 0.125-0.03125 0.1875v0.09375c0.015625 0.03125 0.03125 0.046875 0.0625 0.0625 0.078125 0.03125 0.1875 0.015625 0.26562 0.015625zm-0.078125 1.1875 0.35938-0.82812 0.17188-0.34375 0.09375-0.015625h2.4062l0.1875 0.015625 0.28125 0.15625 0.46875 0.26562 0.26562 0.14062v0.015625l-0.26562 0.14062-0.46875 0.28125-0.28125 0.15625-0.32812 0.015625z"/>
</g>
</defs>
<g transform="translate(-149.27 -130.17)">
<use x="148.71201" y="134.765" xlink:href="#a"/>
</g>
</svg>
