<?xml version="1.0" encoding="UTF-8"?>
<svg fill="#000000" version="1.1" viewBox="0 0 6.1116 5.8516" xmlns="http://www.w3.org/2000/svg" xmlns:xlink="http://www.w3.org/1999/xlink">
<defs>
<g id="a">
<path d="m1.2188-1.5625v-3.4688h5.4531c0.0625 0 0.15625 0.03125 0.21875-0.015625 0.0625-0.0625 0.046875-0.20312 0.03125-0.28125s-0.078125-0.09375-0.15625-0.09375h-0.46875-5.125c-0.078125 0-0.21875-0.015625-0.28125 0.015625-0.078125 0.046875-0.0625 0.15625-0.0625 0.25v3.6875c0 0.078125-0.015625 0.1875 0.015625 0.26562 0.03125 0.03125 0.078125 0.046875 0.14062 0.046875h0.20312 5.4062c0.078125 0 0.21875 0.03125 0.29688-0.03125 0.0625-0.046875 0.046875-0.17188 0.03125-0.25-0.015625-0.15625-0.20312-0.125-0.3125-0.125zm-0.32812 1.5938c-0.015625 0.015625-0.046875 0.03125-0.046875 0.0625-0.015625 0.03125-0.015625 0.0625-0.015625 0.09375 0 0.078125-0.015625 0.1875 0.0625 0.21875s0.1875 0.015625 0.26562 0.015625h5.6094c0.046875 0 0.09375 0 0.125-0.046875 0.03125-0.03125 0.03125-0.078125 0.03125-0.125 0-0.078125 0.015625-0.20312-0.078125-0.21875-0.046875-0.015625-0.09375-0.015625-0.14062-0.015625h-5.6562c-0.046875 0-0.09375 0-0.15625 0.015625z"/>
</g>
</defs>
<g transform="translate(-149.54 -129.34)">
<use x="148.71201" y="134.765" xlink:href="#a"/>
</g>
</svg>
