<?xml version="1.0" encoding="UTF-8"?>
<svg fill="#000000" version="1.1" viewBox="0 0 6.625 2.3281" xmlns="http://www.w3.org/2000/svg" xmlns:xlink="http://www.w3.org/1999/xlink">
<defs>
<g id="a">
<path d="m7.1875-3.25c0-0.3125-0.09375-0.40625-0.15625-0.40625-0.09375 0-0.15625 0.17188-0.15625 0.3125-0.015625 0.21875-0.03125 0.54688-0.39062 0.89062-0.14062 0.125-0.45312 0.375-0.96875 0.375-0.60938 0-1.0625-0.35938-1.7031-0.85938-0.46875-0.375-0.98438-0.71875-1.5938-0.71875-1 0-1.6562 0.92188-1.6562 1.9219 0 0.34375 0.10938 0.40625 0.15625 0.40625 0.10938 0 0.15625-0.20312 0.15625-0.3125 0.015625-0.23438 0.03125-0.54688 0.39062-0.89062 0.125-0.125 0.45312-0.375 0.95312-0.375 0.5625 0 1.0312 0.32812 1.5 0.6875 0.625 0.48438 1.1406 0.89062 1.7969 0.89062 1 0 1.6719-0.92188 1.6719-1.9219z"/>
</g>
</defs>
<g transform="translate(-149.27 -131.11)">
<use x="148.71201" y="134.765" xlink:href="#a"/>
</g>
</svg>
