<?xml version="1.0" encoding="UTF-8"?>
<svg fill="#000000" version="1.1" viewBox="0 0 3.1875 6.8281" xmlns="http://www.w3.org/2000/svg" xmlns:xlink="http://www.w3.org/1999/xlink">
<defs>
<g id="a">
<path d="m2.8906 0.98438c0.14062-0.53125 0.23438-1.0781 0.23438-1.625 0-0.45312-0.03125-0.90625-0.14062-1.3281-0.32812-0.20312-0.73438-0.35938-1.1094-0.5l0.8125-0.85938c0.078125-0.09375 0.14062-0.23438 0.14062-0.35938 0-0.42188-0.57812-0.78125-1.0156-1-0.53125 0.35938-1 0.78125-1.4531 1.2344l0.10938 0.10938c0.21875-0.17188 0.64062-0.53125 0.84375-0.53125 0.26562 0 0.71875 0.34375 0.71875 0.73438 0 0.23438-0.17188 0.40625-0.34375 0.5625-0.23438 0.21875-0.70312 0.67188-0.71875 0.67188v0.10938c0.39062 0.03125 0.75 0.17188 1.0938 0.32812-0.45312 0.45312-0.84375 0.84375-1.2656 1.3438-0.32812 0.375-0.79688 1.0156-0.85938 1.2812 0.10938 0.65625 0.95312 0.98438 1.5938 0.98438zm-0.64062-2.2812c0.10938 0.35938 0.14062 0.73438 0.14062 1.0938 0 0.73438-0.15625 1.7344-0.5625 1.7344-0.48438 0-1.1094-0.39062-1.1094-0.79688 0-0.70312 0.89062-1.4844 1.5312-2.0312z"/>
</g>
</defs>
<g transform="translate(-148.65 -130.08)">
<use x="148.71201" y="134.765" xlink:href="#a"/>
</g>
</svg>
