<?xml version="1.0" encoding="UTF-8"?>
<svg fill="#000000" width="4.375" height="7.2188" version="1.1" viewBox="0 0 4.375 7.2187" xmlns="http://www.w3.org/2000/svg" xmlns:xlink="http://www.w3.org/1999/xlink">
<defs>
<g id="a">
<path d="m2.125-4.5625-1.75-0.1875 0.03125 0.79688 1.7812-0.17188-0.25 4.1094h0.98438l-0.29688-4.0938 2.0938 0.078125 0.03125-0.76562-2.1406 0.26562c0.375-0.20312 0.73438-0.71875 0.73438-1.3438 0-0.79688-0.40625-1.3594-0.95312-1.3594-0.42188 0-0.73438 0.51562-0.79688 1.2656 0 0.42188 0.1875 0.92188 0.53125 1.4062zm0.5625-0.76562-0.23438 0.32812-0.20312-0.29688c-0.14062-0.21875-0.20312-0.4375-0.20312-0.60938 0-0.54688 0.125-0.76562 0.45312-0.79688 0.28125 0 0.42188 0.25 0.42188 0.76562 0 0.14062-0.078125 0.34375-0.23438 0.60938z"/>
</g>
</defs>
<g transform="translate(-149.09 -127.53)">
<use x="148.71201" y="134.765" xlink:href="#a"/>
</g>
</svg>
