<?xml version="1.0" encoding="UTF-8"?>
<svg fill="#000000" version="1.1" viewBox="0 0 6.8281 7.3594" xmlns="http://www.w3.org/2000/svg" xmlns:xlink="http://www.w3.org/1999/xlink">
<defs>
<g id="a">
<path d="m6.9375-1.2031c-0.03125 0.78125-0.67188 1.1094-1.1094 1.1094-0.54688 0-1.0625-0.5-1.375-0.89062 0.45312-0.51562 0.84375-1.2031 1.3125-1.9844 0.39062-0.65625 0.59375-1.0156 1.4844-1.0156v-0.3125c-0.375 0.015625-0.90625 0.03125-0.96875 0.03125-0.10938 0-0.95312-0.015625-1.2188-0.03125v0.3125c0.45312 0 0.70312 0.1875 0.70312 0.4375 0 0.09375-0.046875 0.17188-0.046875 0.20312-0.5625 0.96875-1 1.6406-1.4375 2.1719-0.125-0.15625-1.2031-1.5156-1.6562-2.6719 0.54688-0.59375 1.2188-1.3438 1.2188-2.0156 0-0.45312-0.15625-1.2812-0.85938-1.2812-0.625 0-1.3594 0.54688-1.3594 1.6094 0 0.42188 0.0625 1.1406 0.40625 2.0156l-0.90625 0.96875c-0.45312 0.46875-0.70312 0.73438-0.70312 1.2656 0 0.875 0.8125 1.5 1.7969 1.5 0.85938 0 1.4375-0.42188 1.8125-0.75 0.6875 0.59375 1.2656 0.75 1.75 0.75 0.76562 0 1.3906-0.5625 1.4062-1.4219zm-4.3906-2.875c-0.26562-0.79688-0.29688-1.375-0.29688-1.6875 0-0.82812 0.40625-1.1562 0.75-1.1562 0.59375 0 0.59375 1.0469 0.59375 1.0625 0 0.65625-0.79688 1.5156-1.0469 1.7812zm-0.42188 0.79688c0.21875 0.46875 0.375 0.76562 0.79688 1.3906 0.1875 0.28125 0.54688 0.79688 0.92188 1.1562-0.64062 0.57812-1.2656 0.64062-1.5469 0.64062-0.82812 0-1.0469-0.96875-1.0469-1.5 0-0.8125 0.32812-1.1719 0.875-1.6875z"/>
</g>
</defs>
<g transform="translate(-149.13 -127.62)">
<use x="148.71201" y="134.765" xlink:href="#a"/>
</g>
</svg>
