<?xml version="1.0" encoding="UTF-8"?>
<svg fill="#000000" width="3.8892" height="8.8438" version="1.1" viewBox="0 0 3.8892 8.8437" xmlns="http://www.w3.org/2000/svg" xmlns:xlink="http://www.w3.org/1999/xlink">
<defs>
<g id="a">
<path d="m2.3281-1.9688h0.015625v3.7188c0 0.046875 0 0.09375 0.03125 0.14062 0.03125 0.03125 0.078125 0.03125 0.125 0.03125 0.03125 0 0.0625 0 0.09375-0.015625 0.046875-0.015625 0.0625-0.078125 0.0625-0.125v-0.28125-3.6719c0-0.09375-0.03125-0.20312 0-0.28125 0.03125-0.0625 0.078125-0.125 0.10938-0.17188l0.17188-0.28125c0.20312-0.32812 0.40625-0.625 0.59375-0.95312 0.26562-0.40625 0.51562-0.82812 0.78125-1.2344 0.046875-0.0625 0.09375-0.125 0.10938-0.20312 0.015625-0.03125 0.015625-0.09375 0.015625-0.14062s0-0.10938-0.046875-0.14062c-0.0625-0.046875-0.14062 0-0.17188 0.0625-0.10938 0.14062-0.21875 0.3125-0.3125 0.46875-0.28125 0.45312-0.5625 0.90625-0.84375 1.3438-0.078125 0.14062-0.15625 0.28125-0.25 0.40625-0.046875 0.078125-0.10938 0.17188-0.15625 0.25-0.015625-0.10938 0-0.21875 0-0.32812v-3.2969c0-0.09375 0.015625-0.20312-0.078125-0.25h-0.078125c-0.03125 0-0.0625 0-0.09375 0.015625-0.046875 0.015625-0.0625 0.0625-0.0625 0.125v0.23438 3.7812c0 0.078125 0.015625 0.17188-0.015625 0.25-0.046875 0.078125-0.10938 0.15625-0.15625 0.23438-0.09375 0.15625-0.20312 0.3125-0.29688 0.48438-0.3125 0.48438-0.625 0.95312-0.92188 1.4531-0.078125 0.14062-0.17188 0.28125-0.28125 0.4375-0.078125 0.125-0.15625 0.26562-0.10938 0.42188 0.03125 0.09375 0.14062 0.09375 0.1875 0.03125 0.0625-0.046875 0.09375-0.125 0.125-0.17188l0.1875-0.3125c0.29688-0.46875 0.57812-0.90625 0.875-1.375 0.078125-0.125 0.15625-0.26562 0.25-0.39062 0.046875-0.078125 0.10938-0.17188 0.14062-0.26562z"/>
</g>
</defs>
<g transform="translate(-149.26 -127.84)">
<use x="148.71201" y="134.765" xlink:href="#a"/>
</g>
</svg>
