<?xml version="1.0" encoding="UTF-8"?>
<svg fill="#000000" version="1.1" viewBox="0 0 6.0991 8.8449" xmlns="http://www.w3.org/2000/svg" xmlns:xlink="http://www.w3.org/1999/xlink">
<defs>
<g id="a">
<path d="m3.6719-4.2188c-0.14062-0.078125-0.28125-0.14062-0.4375-0.21875-0.21875-0.125-0.4375-0.25-0.64062-0.375-0.3125-0.20312-0.59375-0.40625-0.89062-0.625-0.125-0.10938-0.25-0.20312-0.375-0.29688-0.10938-0.09375-0.26562-0.078125-0.39062-0.0625-0.0625 0-0.125 0.078125-0.09375 0.14062 0.03125 0.078125 0.10938 0.10938 0.15625 0.15625 0.10938 0.10938 0.23438 0.20312 0.35938 0.29688 0.5 0.375 1.0156 0.73438 1.5469 1.0312l0.5625 0.28125c0.0625 0.03125 0.1875 0.0625 0.20312 0.125 0.03125 0.0625 0 0.15625 0 0.23438v0.48438c0 0.078125 0.03125 0.20312-0.015625 0.25-0.03125 0.046875-0.125 0.078125-0.17188 0.09375-0.14062 0.078125-0.29688 0.15625-0.4375 0.23438-0.46875 0.25-0.92188 0.53125-1.3594 0.84375-0.23438 0.17188-0.46875 0.35938-0.70312 0.54688-0.0625 0.0625-0.23438 0.1875-0.10938 0.26562 0.046875 0.046875 0.125 0.03125 0.1875 0.03125 0.046875 0 0.125 0.015625 0.1875 0 0.0625-0.03125 0.09375-0.078125 0.14062-0.10938 0.078125-0.0625 0.15625-0.10938 0.21875-0.17188 0.40625-0.32812 0.82812-0.625 1.2812-0.875 0.26562-0.15625 0.53125-0.28125 0.78125-0.42188v1.1406c0 0.03125 0 0.078125-0.015625 0.10938-0.015625 0.015625-0.0625 0.03125-0.09375 0.046875-0.046875 0.03125-0.10938 0.0625-0.15625 0.078125-0.17188 0.10938-0.32812 0.20312-0.5 0.3125-0.51562 0.32812-1 0.6875-1.4531 1.0938-0.17188 0.14062-0.3125 0.28125-0.46875 0.42188-0.0625 0.046875-0.14062 0.125-0.14062 0.20312-0.015625 0.09375 0.09375 0.10938 0.15625 0.10938 0.078125 0 0.15625 0.015625 0.21875-0.015625 0.09375-0.03125 0.17188-0.10938 0.23438-0.17188 0.42188-0.40625 0.875-0.78125 1.3438-1.1094 0.15625-0.10938 0.32812-0.21875 0.5-0.3125 0.125-0.078125 0.26562-0.14062 0.375-0.21875v2.1875 0.28125c0.03125 0.14062 0.14062 0.125 0.23438 0.125 0.0625 0 0.125 0 0.15625-0.0625s0.015625-0.125 0.015625-0.1875v-2.3438c0-0.0625-0.015625-0.14062 0.015625-0.1875 0.015625-0.046875 0.09375-0.0625 0.14062-0.09375 0.125-0.046875 0.23438-0.09375 0.35938-0.14062 0.51562-0.1875 1.0625-0.32812 1.6094-0.39062 0.15625-0.015625 0.3125-0.03125 0.46875-0.03125 0.0625 0 0.15625 0.015625 0.21875-0.03125 0.046875-0.046875 0.03125-0.14062 0.03125-0.20312v-0.09375c-0.015625-0.03125-0.03125-0.046875-0.0625-0.0625-0.046875-0.015625-0.125 0-0.17188 0-0.14062 0-0.28125 0-0.42188 0.015625-0.75 0.078125-1.4844 0.28125-2.1875 0.57812v-0.90625-0.21875c0-0.03125 0-0.078125 0.03125-0.10938 0.046875-0.03125 0.125-0.046875 0.17188-0.0625 0.14062-0.046875 0.25-0.09375 0.39062-0.125 0.5-0.17188 1.0312-0.28125 1.5625-0.32812 0.14062-0.015625 0.3125-0.03125 0.45312-0.03125 0.0625 0 0.15625 0.015625 0.20312-0.03125 0.0625-0.0625 0.03125-0.17188 0.03125-0.23438s-0.03125-0.10938-0.078125-0.125c-0.078125-0.015625-0.14062 0-0.21875 0-0.125-0.015625-0.26562-0.03125-0.39062-0.03125-0.54688-0.046875-1.0938-0.15625-1.625-0.34375-0.125-0.03125-0.25-0.078125-0.375-0.125-0.046875-0.015625-0.125-0.03125-0.14062-0.078125-0.03125-0.046875-0.015625-0.14062-0.015625-0.1875v-2.4219c0-0.0625 0.015625-0.14062-0.015625-0.20312-0.03125-0.046875-0.09375-0.046875-0.15625-0.046875-0.09375 0-0.20312-0.015625-0.23438 0.10938v0.29688zm0.40625 1.2656v-0.67188l0.625 0.21875 0.4375 0.10938v0.015625l-0.4375 0.10938z"/>
</g>
</defs>
<g transform="translate(-149.54 -127.84)">
<use x="148.71201" y="134.765" xlink:href="#a"/>
</g>
</svg>
