<?xml version="1.0" encoding="UTF-8"?>
<svg fill="#000000" version="1.1" viewBox="0 0 4.5156 4.5156" xmlns="http://www.w3.org/2000/svg" xmlns:xlink="http://www.w3.org/1999/xlink">
<defs>
<g id="a">
<path d="m5.2656-4.4688c0-0.14062-0.125-0.28125-0.29688-0.28125h-3.9375c-0.15625 0-0.28125 0.14062-0.28125 0.28125 0 0.15625 0.14062 0.28125 0.28125 0.28125h1.6875v1.4219h-1.6875c-0.14062 0-0.28125 0.10938-0.28125 0.26562s0.125 0.28125 0.28125 0.28125h1.6875v1.6875c0 0.15625 0.125 0.29688 0.28125 0.29688s0.29688-0.14062 0.29688-0.29688v-1.6875h1.6719c0.17188 0 0.29688-0.125 0.29688-0.28125s-0.14062-0.26562-0.29688-0.26562h-1.6719v-1.4219h1.6719c0.15625 0 0.29688-0.125 0.29688-0.28125z"/>
</g>
</defs>
<g transform="translate(-149.46 -130.02)">
<use x="148.71201" y="134.765" xlink:href="#a"/>
</g>
</svg>
