<?xml version="1.0" encoding="UTF-8"?>
<svg fill="#000000" version="1.1" viewBox="0 0 5.0781 4.2969" xmlns="http://www.w3.org/2000/svg" xmlns:xlink="http://www.w3.org/1999/xlink">
<defs>
<g id="a">
<path d="m0.1875-4.3125v0.25c0.1875 0 0.39062-0.015625 0.54688 0.078125 0.20312 0.10938 0.32812 0.34375 0.46875 0.53125 0.23438 0.35938 0.46875 0.6875 0.70312 1.0469 0.125 0.15625 0.23438 0.3125 0.34375 0.46875 0.046875 0.078125 0.125 0.15625 0.14062 0.25 0.015625 0.10938 0 0.21875 0 0.32812v0.65625c0 0.10938 0.015625 0.26562-0.09375 0.35938-0.046875 0.046875-0.10938 0.0625-0.1875 0.078125-0.125 0.015625-0.26562 0.015625-0.39062 0.015625v0.23438l0.375-0.015625 0.84375-0.015625 0.8125 0.03125v-0.23438c-0.14062 0-0.28125 0-0.40625-0.015625-0.078125-0.015625-0.14062-0.03125-0.1875-0.078125-0.09375-0.09375-0.09375-0.25-0.09375-0.35938v-0.65625c0-0.10938-0.015625-0.23438 0-0.32812s0.09375-0.17188 0.14062-0.25c0.10938-0.14062 0.21875-0.3125 0.32812-0.45312l0.53125-0.76562c0.29688-0.42188 0.625-0.90625 1.2031-0.90625v-0.25l-0.8125 0.03125-0.64062-0.03125v0.25c0.046875 0 0.078125 0 0.10938 0.03125 0.21875 0.10938 0.14062 0.375 0.046875 0.54688-0.078125 0.125-0.15625 0.23438-0.23438 0.35938-0.17188 0.21875-0.32812 0.45312-0.48438 0.6875-0.09375 0.125-0.1875 0.25-0.26562 0.39062-0.10938-0.15625-0.21875-0.3125-0.32812-0.46875-0.1875-0.28125-0.375-0.5625-0.5625-0.82812-0.0625-0.10938-0.15625-0.20312-0.21875-0.3125-0.046875-0.0625-0.09375-0.125-0.09375-0.21875 0-0.1875 0.25-0.1875 0.375-0.1875v-0.25l-0.82812 0.03125h-0.79688z"/>
</g>
</defs>
<g transform="translate(-148.9 -130.45)">
<use x="148.71201" y="134.765" xlink:href="#a"/>
</g>
</svg>
