<?xml version="1.0" encoding="UTF-8"?>
<svg fill="#000000" version="1.1" viewBox="0 0 5.2969 7.1406" xmlns="http://www.w3.org/2000/svg" xmlns:xlink="http://www.w3.org/1999/xlink">
<defs>
<g id="a">
<path d="m5.0938-3.5469c0.20312-0.84375 0.20312-1.375 0.20312-1.5 0-0.35938-0.0625-1.9844-1.1094-1.9844-0.82812 0-1.4688 1.0469-1.4688 1.8281 0 0.96875 0.9375 1.4375 1.625 1.6719-0.21875 0.90625-0.375 1.4844-0.70312 2.1562-0.125 0.28125-0.60938 1.2656-1.2031 1.2656-0.67188 0-0.73438-0.51562-0.73438-0.79688 0-0.26562 0.078125-0.57812 0.125-0.8125 0.0625-0.25 0.125-0.46875 0.20312-0.76562l0.10938-0.46875c0.046875-0.17188 0.10938-0.39062 0.10938-0.53125 0-0.60938-0.45312-0.92188-0.92188-0.92188-0.45312 0-0.64062 0.39062-0.73438 0.5625-0.17188 0.34375-0.29688 0.9375-0.29688 0.96875 0 0.10938 0.09375 0.10938 0.10938 0.10938 0.10938 0 0.10938-0.015625 0.17188-0.23438 0.17188-0.70312 0.375-1.1875 0.73438-1.1875 0.15625 0 0.29688 0.078125 0.29688 0.45312 0 0.21875-0.14062 0.76562-0.21875 1.125-0.046875 0.17188-0.14062 0.51562-0.1875 0.73438-0.078125 0.29688-0.14062 0.54688-0.14062 0.84375 0 0.9375 0.70312 1.1406 1.3438 1.1406 1.0625 0 2.125-1.5781 2.6406-3.4531 0.09375 0.03125 0.39062 0.09375 0.45312 0.09375 0.03125 0 0.09375-0.03125 0.09375-0.125 0-0.078125-0.078125-0.078125-0.20312-0.10938zm-0.6875-0.20312c-0.48438-0.17188-1.4531-0.5625-1.4531-1.4688 0-0.60938 0.53125-1.5938 1.2188-1.5938 0.25 0 0.51562 0.15625 0.51562 1.1875 0 0.625-0.15625 1.3125-0.28125 1.875z"/>
</g>
</defs>
<g transform="translate(-149.01 -127.73)">
<use x="148.71201" y="134.765" xlink:href="#a"/>
</g>
</svg>
