<?xml version="1.0" encoding="UTF-8"?>
<svg fill="#000000" version="1.1" viewBox="0 0 7.1406 5.5156" xmlns="http://www.w3.org/2000/svg" xmlns:xlink="http://www.w3.org/1999/xlink">
<defs>
<g id="a">
<path d="m4.7656-3.2969-0.8125 0.28125c0.03125 0.21875 0.046875 0.4375 0.046875 0.65625 0 0.8125-0.25 1.8906-1.2812 1.8906-0.82812 0-1.125-1.0312-1.125-1.7656 0-0.53125 0.17188-1.0469 0.54688-1.4219l-0.09375-0.20312c-0.73438 0.51562-1.2344 1.0938-1.2344 1.9219 0 0.875 0.375 2.0156 1.4219 2.0156 0.71875 0 1.3594-0.39062 1.8438-0.92188l0.078125 0.015625c0.20312 0.57812 0.6875 0.95312 1.2656 0.95312 1.3438 0 2.4531-1.7656 2.4531-3.1719 0-1.6094-1.4062-2.3438-3.4688-2.3438-1.5469 0-2.1719 0.25-2.5938 0.51562-0.45312 0.28125-0.75 0.64062-1.0781 1.0312l0.15625 0.17188c0.67188-0.6875 1.1406-1.0781 3.125-1.0781 0.875 0 1.9688 0.078125 2.5469 0.6875 0.51562 0.54688 0.64062 1 0.64062 1.5781 0 0.84375-0.375 1.9219-1.3438 1.9219-0.5625 0-1.0156-0.4375-1.0156-1.0781v-1.5312z"/>
</g>
</defs>
<g transform="translate(-149.45 -129.37)">
<use x="148.71201" y="134.765" xlink:href="#a"/>
</g>
</svg>
