<?xml version="1.0" encoding="UTF-8"?>
<svg fill="#000000" version="1.1" viewBox="0 0 6.6094 6.6094" xmlns="http://www.w3.org/2000/svg" xmlns:xlink="http://www.w3.org/1999/xlink">
<defs>
<g id="a">
<path d="m6.7812-2.6875h-5.8281c0.046875-0.70312 0.35938-1.375 0.84375-1.875 0.5625-0.54688 1.2969-0.84375 2.0781-0.84375 0.76562 0 1.5156 0.29688 2.0625 0.84375 0.5 0.5 0.79688 1.1719 0.84375 1.875zm-5.25-2.1406c-0.64062 0.60938-0.96875 1.4531-0.96875 2.3281 0 0.89062 0.32812 1.7344 0.96875 2.3438 0.60938 0.625 1.4531 0.96875 2.3438 0.96875 0.875 0 1.7188-0.34375 2.3281-0.96875 0.625-0.60938 0.96875-1.4531 0.96875-2.3438 0-0.875-0.34375-1.7188-0.96875-2.3281-0.60938-0.625-1.4531-0.96875-2.3281-0.96875-0.89062 0-1.7344 0.34375-2.3438 0.96875zm2.3438 5.25c-0.78125 0-1.5156-0.29688-2.0781-0.84375-0.48438-0.5-0.79688-1.1719-0.84375-1.875h5.8281c-0.046875 0.70312-0.34375 1.375-0.84375 1.875-0.54688 0.54688-1.2969 0.84375-2.0625 0.84375z"/>
</g>
</defs>
<g transform="translate(-149.27 -128.97)">
<use x="148.71201" y="134.765" xlink:href="#a"/>
</g>
</svg>
