<?xml version="1.0" encoding="UTF-8"?>
<svg fill="#000000" version="1.1" viewBox="0 0 6.1031 8.1558" xmlns="http://www.w3.org/2000/svg" xmlns:xlink="http://www.w3.org/1999/xlink">
<defs>
<g id="a">
<path d="m2.625-3.7656v-0.015625c0.10938 0 0.23438-0.046875 0.34375-0.09375 0.21875-0.046875 0.4375-0.125 0.64062-0.20312 0.85938-0.3125 1.6719-0.78125 2.4062-1.3281 0.25-0.17188 0.5-0.35938 0.73438-0.5625 0.0625-0.046875 0.21875-0.14062 0.15625-0.25-0.03125-0.09375-0.20312-0.0625-0.28125-0.0625-0.03125 0-0.078125 0-0.10938 0.015625-0.09375 0.03125-0.17188 0.10938-0.23438 0.17188l-0.42188 0.32812c-1.0781 0.78125-2.2812 1.4062-3.5938 1.6719-0.21875 0.03125-0.45312 0.078125-0.6875 0.09375-0.125 0.015625-0.26562 0.015625-0.40625 0.03125-0.10938 0.015625-0.3125-0.046875-0.34375 0.09375-0.015625 0.09375-0.015625 0.23438 0.046875 0.28125 0.046875 0.03125 0.10938 0.03125 0.15625 0.03125h0.28125c0.29688 0.015625 0.60938 0.0625 0.90625 0.10938 1.2344 0.23438 2.3906 0.79688 3.4062 1.5312 0.20312 0.125 0.39062 0.26562 0.5625 0.42188 0.09375 0.0625 0.1875 0.17188 0.29688 0.21875 0.078125 0.046875 0.1875 0.03125 0.28125 0.03125 0.03125 0 0.078125 0 0.10938-0.03125 0.046875-0.03125 0.0625-0.09375 0.03125-0.14062-0.046875-0.078125-0.15625-0.14062-0.23438-0.20312-0.32812-0.28125-0.6875-0.53125-1.0469-0.78125-0.34375-0.21875-0.70312-0.4375-1.0781-0.64062-0.40625-0.21875-0.84375-0.375-1.2656-0.53125-0.20312-0.078125-0.4375-0.15625-0.65625-0.1875zm0.85938 4.1875c-0.078125 0.10938-0.17188 0.20312-0.26562 0.3125-0.17188 0.1875-0.35938 0.40625-0.53125 0.59375-0.10938 0.125-0.21875 0.23438-0.29688 0.34375-0.046875 0.0625-0.03125 0.14062 0.03125 0.1875h0.09375c0.078125 0 0.17188 0.03125 0.25-0.015625 0.03125-0.03125 0.078125-0.0625 0.10938-0.10938l0.14062-0.17188c0.17188-0.1875 0.34375-0.375 0.5-0.5625l0.1875-0.21875c0.03125-0.03125 0.0625-0.078125 0.10938-0.078125 0.015625 0 0.03125 0.015625 0.0625 0.03125s0.078125 0.046875 0.125 0.078125c0.15625 0.10938 0.3125 0.21875 0.48438 0.29688 0.48438 0.21875 1.125 0.23438 1.6094-0.015625 0.375-0.20312 0.59375-0.5625 0.75-0.9375 0.03125-0.09375 0.046875-0.1875 0.078125-0.28125 0-0.046875 0-0.09375-0.03125-0.14062-0.078125-0.046875-0.17188-0.03125-0.20312 0.046875-0.046875 0.09375-0.0625 0.21875-0.10938 0.32812-0.125 0.29688-0.35938 0.54688-0.67188 0.64062-0.17188 0.046875-0.35938 0.0625-0.53125 0.03125-0.25-0.046875-0.48438-0.1875-0.6875-0.32812-0.14062-0.09375-0.26562-0.21875-0.42188-0.29688 0.23438-0.29688 0.51562-0.57812 0.76562-0.875l0.21875-0.23438c0.046875-0.046875 0.09375-0.09375 0.125-0.15625s0.03125-0.14062-0.046875-0.17188h-0.09375c-0.078125 0-0.17188-0.03125-0.23438 0.015625-0.03125 0.015625-0.078125 0.0625-0.10938 0.09375l-0.14062 0.17188c-0.17188 0.20312-0.35938 0.39062-0.51562 0.59375l-0.20312 0.20312c-0.015625 0.03125-0.046875 0.078125-0.078125 0.078125-0.0625 0.015625-0.15625-0.078125-0.20312-0.10938-0.15625-0.10938-0.32812-0.20312-0.48438-0.28125-0.5-0.23438-1.1094-0.23438-1.5938 0-0.375 0.21875-0.60938 0.5625-0.75 0.95312-0.03125 0.09375-0.0625 0.1875-0.078125 0.26562-0.015625 0.046875-0.015625 0.10938 0.03125 0.14062 0.0625 0.0625 0.15625 0.046875 0.1875-0.03125 0.046875-0.10938 0.078125-0.23438 0.10938-0.34375 0.14062-0.29688 0.35938-0.54688 0.6875-0.64062 0.17188-0.03125 0.35938-0.0625 0.51562-0.015625 0.25 0.046875 0.48438 0.1875 0.70312 0.32812 0.125 0.09375 0.25 0.20312 0.40625 0.28125z"/>
</g>
</defs>
<g transform="translate(-149.53 -128.48)">
<use x="148.71201" y="134.765" xlink:href="#a"/>
</g>
</svg>
