<?xml version="1.0" encoding="UTF-8"?>
<svg fill="#000000" width="6.4219" height="7.8438" version="1.1" viewBox="0 0 6.4219 7.8437" xmlns="http://www.w3.org/2000/svg" xmlns:xlink="http://www.w3.org/1999/xlink">
<defs>
<g id="a">
<path d="m0.53125-6.9375c0 0.03125 0 0.0625 0.015625 0.10938l2.9062 7.2344c0.046875 0.125 0.15625 0.1875 0.28125 0.1875 0.14062 0 0.23438-0.0625 0.28125-0.1875l2.9062-7.2344c0.015625-0.046875 0.03125-0.078125 0.03125-0.10938 0-0.15625-0.125-0.3125-0.29688-0.3125-0.14062 0-0.25 0.078125-0.29688 0.1875l-2.625 6.5469-2.625-6.5469c-0.046875-0.10938-0.15625-0.1875-0.28125-0.1875-0.1875 0-0.29688 0.15625-0.29688 0.3125z"/>
</g>
</defs>
<g transform="translate(-149.24 -128.29)">
<use x="148.71201" y="135.53999" xlink:href="#a"/>
</g>
</svg>
