<?xml version="1.0" encoding="UTF-8"?>
<svg fill="#000000" version="1.1" viewBox="0 0 4.2784 4.741" xmlns="http://www.w3.org/2000/svg" xmlns:xlink="http://www.w3.org/1999/xlink">
<defs>
<g id="a">
<path d="m1.6719-2.3281c-0.09375 0.046875-0.20312 0.078125-0.29688 0.10938-0.20312 0.078125-0.39062 0.1875-0.5625 0.32812-0.09375 0.078125-0.1875 0.17188-0.25 0.28125-0.046875 0.078125-0.10938 0.17188-0.125 0.28125-0.125 0.54688 0.29688 1.0156 0.76562 1.2344 0.85938 0.4375 2 0.4375 2.75-0.23438 0.35938-0.3125 0.60938-0.73438 0.70312-1.2031 0.03125-0.21875 0.046875-0.4375 0.03125-0.65625-0.0625-0.78125-0.4375-1.5781-1.0938-2.0156-0.28125-0.1875-0.625-0.29688-0.96875-0.32812-0.125 0-0.25 0-0.375 0.015625-0.40625 0.015625-0.79688 0.125-1.1562 0.34375-0.10938 0.0625-0.23438 0.15625-0.32812 0.26562-0.0625 0.078125-0.125 0.15625-0.15625 0.25-0.046875 0.09375-0.0625 0.17188-0.0625 0.26562 0 0.078125 0.015625 0.15625 0.015625 0.21875 0.09375 0.40625 0.45312 0.65625 0.82812 0.76562 0.078125 0.046875 0.1875 0.078125 0.28125 0.078125zm-0.25-0.98438c0-0.09375 0.015625-0.1875 0.03125-0.28125 0.015625-0.078125 0.046875-0.14062 0.078125-0.21875 0.32812-0.53125 1.0781-0.54688 1.5938-0.34375 0.84375 0.32812 1.2656 1.2188 1.3281 2.0781 0.046875 0.96875-0.67188 1.8125-1.6094 1.9844-0.48438 0.078125-1.0781-0.015625-1.375-0.46875-0.23438-0.32812-0.21875-0.82812 0-1.1719 0.10938-0.17188 0.3125-0.3125 0.51562-0.40625 0.14062-0.046875 0.28125-0.078125 0.4375-0.078125h0.21875c0.078125 0 0.125-0.046875 0.125-0.10938 0-0.10938-0.09375-0.10938-0.17188-0.10938-0.17188-0.03125-0.34375 0-0.51562-0.0625-0.375-0.078125-0.60938-0.4375-0.65625-0.8125z"/>
</g>
</defs>
<g transform="translate(-149.13 -130.23)">
<use x="148.71201" y="134.765" xlink:href="#a"/>
</g>
</svg>
