<?xml version="1.0" encoding="UTF-8"?>
<svg fill="#000000" version="1.1" viewBox="0 0 3.4375 6.1875" xmlns="http://www.w3.org/2000/svg" xmlns:xlink="http://www.w3.org/1999/xlink">
<defs>
<g id="a">
<path d="m2-2.5469c-0.64062 0.64062-1.4062 1.4375-1.4062 2.4844v0.375c0 0.14062 0.10938 0.23438 0.23438 0.23438s0.23438-0.09375 0.23438-0.23438v-0.375c0-0.85938 0.625-1.5469 1.25-2.1562 0.625 0.60938 1.25 1.2969 1.25 2.1562v0.375c0 0.14062 0.10938 0.23438 0.23438 0.23438s0.23438-0.09375 0.23438-0.23438v-0.375c0-1.0469-0.75-1.8438-1.3906-2.4844 0.64062-0.64062 1.3906-1.4375 1.3906-2.4844v-0.375c0-0.14062-0.10938-0.23438-0.23438-0.23438s-0.23438 0.09375-0.23438 0.23438v0.375c0 0.85938-0.625 1.5469-1.25 2.1562-0.625-0.60938-1.25-1.2969-1.25-2.1562v-0.375c0-0.14062-0.10938-0.23438-0.23438-0.23438s-0.23438 0.09375-0.23438 0.23438v0.375c0 1.0469 0.76562 1.8438 1.4062 2.4844z"/>
</g>
</defs>
<g transform="translate(-149.31 -129.12)">
<use x="148.71201" y="134.765" xlink:href="#a"/>
</g>
</svg>
