<?xml version="1.0" encoding="UTF-8"?>
<svg fill="#000000" version="1.1" viewBox="0 0 4.7969 4.7812" xmlns="http://www.w3.org/2000/svg" xmlns:xlink="http://www.w3.org/1999/xlink">
<defs>
<g id="a">
<path d="m1.0625-1.8281v-2.8906c0-0.10938-0.10938-0.21875-0.23438-0.21875s-0.23438 0.10938-0.23438 0.21875v2.8906c0 1.0312 1.0781 1.6719 2.3906 1.6719 1.125 0 2.4062-0.5 2.4062-1.6719v-2.8906c0-0.10938-0.10938-0.21875-0.23438-0.21875s-0.21875 0.10938-0.21875 0.21875v2.8906c0 0.78125-0.9375 1.2188-1.9531 1.2188-1.0469 0-1.9219-0.45312-1.9219-1.2188zm1.9219-1.9688c-0.29688 0-0.53125 0.25-0.53125 0.53125 0 0.3125 0.25 0.54688 0.53125 0.54688 0.32812 0 0.54688-0.26562 0.54688-0.54688 0-0.3125-0.25-0.53125-0.54688-0.53125z"/>
</g>
</defs>
<g transform="translate(-149.31 -129.83)">
<use x="148.71201" y="134.765" xlink:href="#a"/>
</g>
</svg>
