<?xml version="1.0" encoding="UTF-8"?>
<svg fill="#000000" version="1.1" viewBox="0 0 6.1406 8.0312" xmlns="http://www.w3.org/2000/svg" xmlns:xlink="http://www.w3.org/1999/xlink">
<defs>
<g id="a">
<path d="m3.7031-7.4844v0.67188h-3.3438v0.29688h0.375c0.35938 0 0.65625 0.046875 0.65625 0.4375v5.3281c0 0.375-0.32812 0.4375-0.67188 0.4375h-0.35938v0.29688h3.3438v0.5625h0.29688v-0.5625h0.25c0.96875 0 2.25-0.57812 2.25-1.8125v-0.078125c-0.046875-0.9375-1.0938-1.6562-1.9375-1.6562v-0.015625c0.67188-0.078125 1.6562-0.65625 1.6562-1.5 0-1.1875-1.2344-1.7344-2.2188-1.7344v-0.67188zm-1.4844 4.0469h1.4844v3.125h-1.0938c-0.25 0-0.39062-0.09375-0.39062-0.34375zm0-0.21875v-2.5312c0-0.25 0.14062-0.32812 0.39062-0.32812h1.0938v2.8594zm1.7812 3.3438v-3.125c0.95312 0 1.5 0.75 1.5 1.5781 0 0.8125-0.64062 1.5469-1.5 1.5469zm0-3.375v-2.8281c0.76562 0 1.25 0.71875 1.25 1.3906s-0.5625 1.3438-1.25 1.4375z"/>
</g>
</defs>
<g transform="translate(-149.07 -127.28)">
<use x="148.71201" y="134.765" xlink:href="#a"/>
</g>
</svg>
