<?xml version="1.0" encoding="UTF-8"?>
<svg fill="#000000" version="1.1" viewBox="0 0 6.2344 5.2344" xmlns="http://www.w3.org/2000/svg" xmlns:xlink="http://www.w3.org/1999/xlink">
<defs>
<g id="a">
<path d="m3.7344-2.1875h3.1875c0.20312 0 0.3125-0.10938 0.3125-0.3125 0-0.1875-0.10938-0.29688-0.3125-0.29688h-3.1875l-2.2031-2.2188c-0.0625-0.0625-0.14062-0.09375-0.21875-0.09375-0.14062 0-0.3125 0.17188-0.3125 0.3125 0 0.078125 0.03125 0.125 0.09375 0.20312l2.0938 2.0938-2.0938 2.1094c-0.0625 0.0625-0.09375 0.125-0.09375 0.20312 0 0.14062 0.17188 0.3125 0.3125 0.3125 0.078125 0 0.15625-0.03125 0.21875-0.09375z"/>
</g>
</defs>
<g transform="translate(-149.71 -129.66)">
<use x="148.71201" y="134.765" xlink:href="#a"/>
</g>
</svg>
