<?xml version="1.0" encoding="UTF-8"?>
<svg fill="#000000" width="4.3125" height="7.2188" version="1.1" viewBox="0 0 4.3125 7.2187" xmlns="http://www.w3.org/2000/svg" xmlns:xlink="http://www.w3.org/1999/xlink">
<defs>
<g id="a">
<path d="m3.7031-1.4219h0.9375c0.14062 0 0.23438-0.10938 0.23438-0.23438s-0.09375-0.23438-0.23438-0.23438h-1.1562c-0.125 0-0.21875 0.10938-0.21875 0.23438 0 0.32812-0.25 0.54688-0.54688 0.54688-0.078125 0-0.15625-0.015625-0.21875-0.046875l0.6875-2.5625c0.046875 0.078125 0.078125 0.1875 0.078125 0.28125 0 0.125 0.09375 0.23438 0.21875 0.23438h1.1562c0.14062 0 0.23438-0.10938 0.23438-0.23438s-0.09375-0.23438-0.23438-0.23438h-0.9375c-0.078125-0.3125-0.28125-0.48438-0.39062-0.5625l0.46875-1.7344c0.03125-0.078125-0.03125-0.1875-0.14062-0.1875-0.0625 0-0.125 0.0625-0.14062 0.125l-0.45312 1.6406c-0.09375-0.03125-0.21875-0.0625-0.32812-0.0625-0.46875 0-0.875 0.34375-0.98438 0.78125h-0.95312c-0.125 0-0.21875 0.10938-0.21875 0.23438s0.09375 0.23438 0.21875 0.23438h1.1562c0.14062 0 0.23438-0.10938 0.23438-0.23438 0-0.32812 0.25-0.54688 0.54688-0.54688 0.078125 0 0.14062 0.015625 0.21875 0.046875l-0.6875 2.5625c-0.0625-0.078125-0.078125-0.1875-0.078125-0.28125 0-0.125-0.09375-0.23438-0.23438-0.23438h-1.1562c-0.125 0-0.21875 0.10938-0.21875 0.23438s0.09375 0.23438 0.21875 0.23438h0.95312c0.078125 0.3125 0.26562 0.48438 0.375 0.5625l-0.46875 1.7344c-0.015625 0.078125 0.046875 0.1875 0.15625 0.1875 0.0625 0 0.10938-0.0625 0.14062-0.125l0.4375-1.6406c0.10938 0.03125 0.23438 0.0625 0.34375 0.0625 0.46875 0 0.875-0.34375 0.98438-0.78125z"/>
</g>
</defs>
<g transform="translate(-149.27 -128.61)">
<use x="148.71201" y="134.765" xlink:href="#a"/>
</g>
</svg>
