<?xml version="1.0" encoding="UTF-8"?>
<svg fill="#000000" version="1.1" viewBox="0 0 7.1094 6.1562" xmlns="http://www.w3.org/2000/svg" xmlns:xlink="http://www.w3.org/1999/xlink">
<defs>
<g id="a">
<path d="m5.1094-5.4062c0 0.23438 0.65625 0.71875 1.1406 1.2031h-5.4219c-0.125 0-0.23438 0.10938-0.23438 0.21875 0 0.14062 0.10938 0.23438 0.23438 0.23438h5.4219c-0.26562 0.26562-1.0312 0.92188-1.1094 1.0938-0.015625 0.03125-0.03125 0.0625-0.03125 0.09375 0 0.26562 0.51562 0.59375 1.1406 1.2188h-5.4219c-0.125 0-0.23438 0.09375-0.23438 0.23438 0 0.10938 0.10938 0.21875 0.23438 0.21875h5.4219c-0.45312 0.46875-1.1406 0.95312-1.1406 1.2031 0 0.14062 0.10938 0.21875 0.21875 0.21875 0.078125 0 0.14062-0.015625 0.1875-0.078125 0.53125-0.625 1.1875-1.2031 2-1.3438 0.10938-0.03125 0.1875-0.10938 0.1875-0.21875 0-0.125-0.078125-0.21875-0.1875-0.23438-0.75-0.125-1.3594-0.625-1.875-1.2031 0.51562-0.57812 1.125-1.0625 1.875-1.2031 0.10938-0.015625 0.1875-0.10938 0.1875-0.23438 0-0.10938-0.078125-0.1875-0.1875-0.21875-0.8125-0.14062-1.4688-0.71875-2-1.3438-0.046875-0.0625-0.10938-0.078125-0.1875-0.078125-0.10938 0-0.21875 0.078125-0.21875 0.21875z"/>
</g>
</defs>
<g transform="translate(-149.31 -129.14)">
<use x="148.71201" y="134.765" xlink:href="#a"/>
</g>
</svg>
