<?xml version="1.0" encoding="UTF-8"?>
<svg fill="#000000" version="1.1" viewBox="0 0 4.3125 15.156" xmlns="http://www.w3.org/2000/svg" xmlns:xlink="http://www.w3.org/1999/xlink">
<defs>
<g id="a">
<path d="m4.875 3.0938c0-0.078125-0.046875-0.15625-0.10938-0.1875l-2.9062-1.6875 0.21875-0.82812 2.6875-1.5469c0.0625-0.046875 0.10938-0.125 0.10938-0.20312 0-0.125-0.10938-0.21875-0.23438-0.21875-0.03125 0-0.078125 0-0.10938 0.015625l-2.2812 1.3281 0.5625-2.0781h1.8281c0.14062 0 0.23438-0.10938 0.23438-0.23438s-0.09375-0.21875-0.23438-0.21875h-1.7031l0.60938-2.2969 1.2188-0.70312c0.0625-0.046875 0.10938-0.10938 0.10938-0.20312 0-0.078125-0.046875-0.15625-0.10938-0.1875l-0.79688-0.46875 0.89062-3.3125c0.015625-0.09375-0.046875-0.1875-0.15625-0.1875-0.0625 0-0.125 0.04687-0.14062 0.10938l-0.85938 3.2344-2.8125-1.6094c-0.015625-0.015625-0.0625-0.03125-0.10938-0.03125-0.10938 0-0.21875 0.09375-0.21875 0.23438 0 0.078125 0.03125 0.15625 0.10938 0.1875l2.8906 1.6875-0.21875 0.82812-2.6719 1.5469c-0.078125 0.046875-0.10938 0.125-0.10938 0.20312 0 0.125 0.10938 0.21875 0.21875 0.21875 0.046875 0 0.09375 0 0.10938-0.015625l2.2969-1.3281-0.5625 2.0938h-1.8438c-0.125 0-0.21875 0.09375-0.21875 0.21875s0.09375 0.23438 0.21875 0.23438h1.7188l-0.60938 2.2812-1.2188 0.70312c-0.078125 0.046875-0.10938 0.10938-0.10938 0.20312 0 0.078125 0.03125 0.15625 0.10938 0.1875l0.79688 0.46875-0.89062 3.3125c-0.015625 0.09375 0.046875 0.1875 0.15625 0.1875 0.046875 0 0.10938-0.046875 0.14062-0.10938l0.85938-3.2344 2.7969 1.6094c0.03125 0.015625 0.078125 0.03125 0.10938 0.03125 0.125 0 0.23438-0.09375 0.23438-0.23438zm-1.1719-8.7812 0.14062-0.46875 0.34375 0.1875zm-1.9844 6.2812-0.125 0.46875-0.34375-0.1875z"/>
</g>
</defs>
<g transform="translate(-149.27 -124.87)">
<use x="148.71201" y="134.996" xlink:href="#a"/>
</g>
</svg>
