<?xml version="1.0" encoding="UTF-8"?>
<svg fill="#000000" version="1.1" viewBox="0 0 5.3281 6.3125" xmlns="http://www.w3.org/2000/svg" xmlns:xlink="http://www.w3.org/1999/xlink">
<defs>
<g id="a">
<path d="m4.7031 0.875c0.0625 0 0.10938-0.015625 0.15625-0.0625l3.0312-3.0312c0.046875-0.046875 0.0625-0.09375 0.0625-0.15625 0-0.125-0.09375-0.23438-0.23438-0.23438-0.046875 0-0.10938 0.03125-0.15625 0.0625l-1.3594 1.3594-1.4531-1.4688 1.2031-2.5781c0.03125-0.09375-0.03125-0.20312-0.14062-0.20312-0.046875 0-0.10938 0.03125-0.125 0.078125l-1.1562 2.4844-1.5156-1.5156c-0.0625-0.046875-0.10938-0.0625-0.17188-0.0625-0.10938 0-0.21875 0.078125-0.21875 0.21875 0 0.0625 0.015625 0.125 0.0625 0.17188l1.625 1.625-1.2031 2.5781c-0.03125 0.078125 0 0.17188 0.078125 0.20312s0.15625 0 0.1875-0.078125l1.1562-2.4844 1.3594 1.3438-1.3594 1.3594c-0.03125 0.046875-0.0625 0.10938-0.0625 0.15625 0 0.125 0.09375 0.23438 0.23438 0.23438z"/>
</g>
</defs>
<g transform="translate(-151.34 -129.33)">
<use x="148.71201" y="134.765" xlink:href="#a"/>
</g>
</svg>
