<?xml version="1.0" encoding="UTF-8"?>
<svg fill="#000000" version="1.1" viewBox="0 0 5.9219 5.2969" xmlns="http://www.w3.org/2000/svg" xmlns:xlink="http://www.w3.org/1999/xlink">
<defs>
<g id="a">
<path d="m5.0312 0.17188c0.125 0 0.78125-0.32812 1.6094-0.32812 0.29688 0 0.59375 0.046875 0.875 0.14062 0.03125 0.015625 0.0625 0.015625 0.078125 0.015625 0.14062 0 0.23438-0.09375 0.23438-0.21875 0-0.29688-0.79688-0.42188-1.1562-2.3594-0.015625-0.10938-0.10938-0.1875-0.21875-0.1875-0.14062 0-0.21875 0.10938-0.21875 0.23438 0 0.17188 0.25 0.96875 0.32812 1.2188-1.0156-0.65625-2.0312 0.078125-2.0938-1.625l2.0156-0.9375c0.078125-0.046875 0.10938-0.125 0.078125-0.20312-0.03125-0.0625-0.125-0.10938-0.20312-0.0625l-1.8906 0.875c-0.015625-0.64062-0.10938-1.1875-0.53125-1.5469-0.3125-0.26562-0.71875-0.3125-1.0625-0.3125-0.26562 0-0.51562 0.015625-0.73438 0.015625-0.125 0-0.23438 0.10938-0.23438 0.23438s0.10938 0.23438 0.23438 0.23438c0.25 0 0.5-0.03125 0.73438-0.03125 0.90625 0 1.125 0.4375 1.125 1.4844v0.14062l-1.7656 0.82812c-0.078125 0.03125-0.09375 0.10938-0.078125 0.1875 0.046875 0.078125 0.14062 0.125 0.20312 0.078125l1.6719-0.78125c0.125 1.6719 1.3594 1.4062 2.0156 1.6719 0.20312 0.0625 0.39062 0.20312 0.57812 0.35938-0.54688 0.1875-1.125 0.23438-1.6719 0.42188-0.09375 0.046875-0.15625 0.125-0.15625 0.21875 0 0.14062 0.125 0.23438 0.23438 0.23438z"/>
</g>
</defs>
<g transform="translate(-150.62 -129.64)">
<use x="148.71201" y="134.765" xlink:href="#a"/>
</g>
</svg>
