<?xml version="1.0" encoding="UTF-8"?>
<svg fill="#000000" version="1.1" viewBox="0 0 10.25 7.3125" xmlns="http://www.w3.org/2000/svg" xmlns:xlink="http://www.w3.org/1999/xlink">
<defs>
<g id="a">
<path d="m4.75-4.5781c-0.17188 0.21875-0.32812 0.45312-0.57812 0.625-0.21875 0.15625-0.45312 0.25-0.64062 0.25-0.35938 0-0.54688-0.20312-0.54688-0.5v-0.046875c0-0.35938 0.20312-0.8125 0.54688-1.2812 0.25-0.375 0.625-0.73438 1.0625-1 0.42188-0.25 0.85938-0.39062 1.2031-0.39062 0.71875 0 1.0781 0.40625 1.0781 0.98438v0.0625c-0.015625 0.65625-0.42188 1.4688-0.96875 2.3125h-0.79688c-0.03125 0-0.0625 0-0.078125 0.03125l-0.03125 0.046875c-0.015625 0.015625-0.015625 0.03125-0.015625 0.0625 0 0.015625 0.015625 0.046875 0.03125 0.046875 0.015625 0.015625 0.03125 0.03125 0.046875 0.03125h0.6875c-0.03125 0.046875-0.0625 0.10938-0.10938 0.15625-0.53125 0.76562-1.0938 1.5469-1.8281 2.2344-0.5 0.46875-1.0469 0.89062-1.4688 0.89062-0.60938 0-1.0312-0.1875-1.0312-0.5625 0-0.078125 0.015625-0.15625 0.0625-0.26562 0.078125 0.0625 0.15625 0.078125 0.25 0.078125 0.26562 0 0.54688-0.1875 0.54688-0.375 0-0.25-0.14062-0.34375-0.32812-0.34375-0.20312 0-0.45312 0.125-0.5625 0.29688-0.17188 0.25-0.25 0.46875-0.25 0.64062 0 0.5 0.5625 0.76562 1.2656 0.76562 0.60938 0 1.375-0.46875 2.0312-0.96875 0.45312-0.34375 0.84375-0.71875 1.2031-1.1094-0.125 0.32812-0.20312 0.65625-0.20312 0.95312v0.09375c0.03125 0.59375 0.39062 1.0312 1.125 1.0312 0.34375 0 0.78125-0.26562 1.1406-0.5625 0.51562-0.39062 0.90625-0.85938 1.2344-1.2969 0.015625-0.03125 0.015625-0.03125 0.015625-0.0625s-0.046875-0.078125-0.078125-0.078125h-0.10938c-0.03125 0-0.0625 0.015625-0.078125 0.03125-0.29688 0.4375-0.65625 0.875-1.125 1.25-0.32812 0.26562-0.70312 0.48438-0.96875 0.48438-0.60938 0-0.89062-0.34375-0.90625-0.82812v-0.03125c0-0.625 0.35938-1.375 0.92188-2.1719l0.17188-0.25h0.875c0.03125 0 0.0625-0.015625 0.0625-0.046875 0.03125-0.03125 0.0625-0.0625 0.0625-0.09375s-0.015625-0.046875-0.03125-0.078125h-0.046875-0.75c0.5625-0.78125 1.1875-1.5312 1.9219-2.2656 0.5625-0.54688 1.125-1.0938 1.5781-1.0938h0.15625c-0.125 0.078125-0.21875 0.1875-0.21875 0.29688 0 0.25 0.14062 0.32812 0.32812 0.32812 0.20312 0 0.45312-0.10938 0.5625-0.28125 0.078125-0.10938 0.10938-0.20312 0.10938-0.26562 0-0.29688-0.57812-0.29688-0.89062-0.29688-0.57812 0-1.2656 0.65625-1.7812 1.1719-0.48438 0.45312-0.90625 0.9375-1.3125 1.4062 0.14062-0.375 0.20312-0.73438 0.20312-1.0625 0-0.09375 0-0.20312-0.015625-0.29688-0.125-0.75-0.70312-1.2188-1.6562-1.2188-0.39062 0-0.89062 0.15625-1.3594 0.4375-0.48438 0.29688-0.90625 0.67188-1.1875 1.0781-0.34375 0.48438-0.5625 0.96875-0.5625 1.3906v0.078125c0.03125 0.39062 0.29688 0.67188 0.78125 0.67188 0.28125 0 0.64062-0.10938 0.96875-0.29688 0.3125-0.1875 0.60938-0.4375 0.8125-0.70312 0.29688-0.42188 0.45312-0.84375 0.45312-1.2031 0-0.21875-0.0625-0.40625-0.1875-0.5625-0.015625-0.015625-0.046875-0.03125-0.0625-0.03125s-0.03125 0-0.046875 0.015625l-0.0625 0.03125c-0.03125 0.03125-0.046875 0.046875-0.046875 0.078125v0.0625c0 0.4375-0.1875 0.95312-0.57812 1.5156z"/>
</g>
</defs>
<g transform="translate(-149.74 -127.62)">
<use x="148.71201" y="134.765" xlink:href="#a"/>
</g>
</svg>
