<?xml version="1.0" encoding="UTF-8"?>
<svg fill="#000000" version="1.1" viewBox="0 0 8.2812 7.3125" xmlns="http://www.w3.org/2000/svg" xmlns:xlink="http://www.w3.org/1999/xlink">
<defs>
<g id="a">
<path d="m2.0781-1.3906c-0.25 0-0.53125 0.03125-0.84375 0.14062-0.20312 0.078125-0.4375 0.1875-0.5625 0.35938-0.09375 0.14062-0.14062 0.25-0.14062 0.35938 0 0.17188 0.10938 0.3125 0.23438 0.40625 0.28125 0.21875 0.70312 0.29688 1.1719 0.29688 0.59375 0 1.2969-0.15625 2-0.4375 0.54688 0.21875 1.1094 0.4375 1.8594 0.4375 0.39062 0 0.85938-0.21875 1.2812-0.48438 0.45312-0.28125 0.85938-0.64062 1.1406-1.0312v-0.046875c0-0.046875-0.03125-0.078125-0.078125-0.078125h-0.10938c-0.03125 0-0.046875 0-0.0625 0.015625-0.21875 0.32812-0.5625 0.625-0.9375 0.85938-0.375 0.21875-0.75 0.32812-1.0469 0.32812-0.54688 0-0.98438-0.125-1.3906-0.29688 0.20312-0.10938 0.40625-0.21875 0.59375-0.32812 1.1562-0.6875 2.1719-1.5938 2.8438-2.5469 0.51562-0.71875 0.78125-1.4219 0.78125-2.0312 0-0.20312-0.03125-0.39062-0.09375-0.57812-0.25-0.71875-1-1.0938-2.0156-1.0938-0.5625 0-1.2344 0.1875-1.9219 0.54688-0.60938 0.32812-1.1875 0.79688-1.5625 1.3125-0.34375 0.46875-0.53125 0.95312-0.53125 1.3594 0 0.09375 0.015625 0.1875 0.03125 0.26562 0.125 0.46875 0.53125 0.71875 1.125 0.71875 0.40625 0 0.90625-0.10938 1.4062-0.34375 0.40625-0.20312 0.82812-0.5 1.0625-0.85938 0.25-0.32812 0.34375-0.64062 0.34375-0.90625 0-0.40625-0.20312-0.75-0.46875-1-0.015625-0.015625-0.03125-0.03125-0.0625-0.03125l-0.15625 0.0625c-0.03125 0.03125-0.0625 0.046875-0.0625 0.09375v0.015625l0.03125 0.03125c0.15625 0.15625 0.25 0.375 0.25 0.625 0 0.28125-0.125 0.64062-0.39062 1.0156-0.20312 0.28125-0.5 0.57812-0.84375 0.78125-0.375 0.20312-0.75 0.29688-1.0625 0.29688-0.46875 0-0.71875-0.21875-0.75-0.54688v-0.078125c0-0.39062 0.23438-0.89062 0.60938-1.4062 0.3125-0.45312 0.78125-0.90625 1.3281-1.2344 0.5625-0.34375 1.125-0.5 1.5938-0.5 0.82812 0 1.3438 0.35938 1.4375 0.95312 0.015625 0.0625 0.03125 0.14062 0.03125 0.21875 0 0.60938-0.39062 1.4062-0.96875 2.2188-0.625 0.875-1.4375 1.7812-2.4688 2.4688-0.17188 0.10938-0.34375 0.21875-0.5 0.3125l-0.15625-0.078125c-0.5625-0.28125-1.1406-0.5625-1.9688-0.5625zm-0.8125 0.53125 0.10938-0.015625 0.4375 0.03125c0.6875 0 1.2344 0.20312 1.75 0.40625-0.57812 0.25-1.125 0.375-1.5938 0.375-0.39062 0-0.73438-0.046875-0.9375-0.21875-0.046875-0.046875-0.09375-0.125-0.09375-0.21875 0-0.078125 0.03125-0.17188 0.10938-0.28125 0.03125-0.0625 0.09375-0.0625 0.21875-0.078125z"/>
</g>
</defs>
<g transform="translate(-149.24 -127.62)">
<use x="148.71201" y="134.765" xlink:href="#a"/>
</g>
</svg>
