<?xml version="1.0" encoding="UTF-8"?>
<svg fill="#000000" version="1.1" viewBox="0 0 6.6406 7.2344" xmlns="http://www.w3.org/2000/svg" xmlns:xlink="http://www.w3.org/1999/xlink">
<defs>
<g id="a">
<path d="m4.0938-8.3906c-0.078125-0.14062-0.14062-0.17188-0.21875-0.17188-0.0625 0-0.14062 0.03125-0.21875 0.17188l-1.8281 3.1719c-0.078125 0.14062-0.078125 0.17188-0.078125 0.21875 0 0.1875 0.17188 0.1875 0.35938 0.1875h3.5469c0.21875 0 0.35938 0 0.35938-0.25zm-0.21875 0.42188 1.5938 2.7656h-3.1875zm-2.9531 6.25c-0.17188 0-0.35938 0-0.35938 0.1875 0 0.20312 0.17188 0.20312 0.34375 0.20312h5.9375c0.17188 0 0.35938 0 0.35938-0.20312 0-0.1875-0.1875-0.1875-0.35938-0.1875zm-0.015625-1.9375c-0.17188 0-0.34375 0-0.34375 0.20312 0 0.1875 0.1875 0.1875 0.35938 0.1875h5.9219c0.17188 0 0.35938 0 0.35938-0.1875 0-0.20312-0.1875-0.20312-0.35938-0.20312z"/>
</g>
</defs>
<g transform="translate(-149.27 -126.2)">
<use x="148.71201" y="134.765" xlink:href="#a"/>
</g>
</svg>
