<?xml version="1.0" encoding="UTF-8"?>
<svg fill="#000000" width="8.4375" height="5.7188" version="1.1" viewBox="0 0 8.4375 5.7187" xmlns="http://www.w3.org/2000/svg" xmlns:xlink="http://www.w3.org/1999/xlink">
<defs>
<g id="a">
<path d="m3.9688 0.20312 0.59375-1.625h4.2344c0.14062 0 0.23438-0.10938 0.23438-0.23438s-0.09375-0.23438-0.23438-0.23438h-4.0625l0.48438-1.3125h3.5781c0.14062 0 0.23438-0.10938 0.23438-0.23438s-0.09375-0.23438-0.23438-0.23438h-3.4062l0.54688-1.5312c0.046875-0.09375-0.03125-0.20312-0.14062-0.20312-0.0625 0-0.10938 0.03125-0.14062 0.10938l-0.59375 1.625h-4.2344c-0.125 0-0.23438 0.10938-0.23438 0.23438s0.10938 0.23438 0.23438 0.23438h4.0625l-0.46875 1.3125h-3.5938c-0.125 0-0.23438 0.10938-0.23438 0.23438s0.10938 0.23438 0.23438 0.23438h3.4219l-0.5625 1.5312c-0.03125 0.09375 0.03125 0.20312 0.14062 0.20312 0.0625 0 0.125-0.03125 0.14062-0.10938z"/>
</g>
</defs>
<g transform="translate(-149.31 -129.36)">
<use x="148.71201" y="134.765" xlink:href="#a"/>
</g>
</svg>
