<?xml version="1.0" encoding="UTF-8"?>
<svg fill="#000000" version="1.1" viewBox="0 0 3.9875 6.5642" xmlns="http://www.w3.org/2000/svg" xmlns:xlink="http://www.w3.org/1999/xlink">
<defs>
<g id="a">
<path d="m0.53125-4.3125-0.078125 1.25-0.03125 0.42188h0.25c0.015625-0.3125 0.09375-0.70312 0.35938-0.89062 0.21875-0.15625 0.53125-0.17188 0.76562-0.17188 0.5625-0.03125 1.125-0.015625 1.6875-0.015625-0.125 0.15625-0.28125 0.28125-0.40625 0.42188-0.29688 0.3125-0.60938 0.64062-0.90625 0.95312l-0.375 0.375c-0.10938 0.14062-0.25 0.28125-0.375 0.40625-0.046875 0.0625-0.10938 0.125-0.078125 0.20312 0.046875 0.078125 0.17188 0.0625 0.25 0.0625 0.21875 0 0.4375 0.046875 0.65625 0.09375 0.125 0.046875 0.25 0.09375 0.35938 0.17188 0.09375 0.046875 0.1875 0.10938 0.25 0.1875 0.3125 0.29688 0.39062 0.71875 0.39062 1.1406-0.10938-0.0625-0.21875-0.14062-0.32812-0.20312-0.21875-0.09375-0.4375-0.15625-0.67188-0.1875-0.45312-0.0625-0.96875 0-1.3594 0.25-0.14062 0.10938-0.26562 0.23438-0.35938 0.39062-0.125 0.26562-0.125 0.60938 0.03125 0.875 0.21875 0.32812 0.60938 0.48438 0.96875 0.54688 0.25 0.0625 0.51562 0.078125 0.78125 0.0625 0.40625-0.03125 0.8125-0.17188 1.125-0.45312 0.125-0.10938 0.26562-0.23438 0.34375-0.375 0.046875 0.078125 0.10938 0.15625 0.14062 0.25 0.10938 0.20312 0.17188 0.40625 0.21875 0.625 0.03125 0.09375 0.0625 0.1875 0.1875 0.17188 0.14062-0.03125 0.0625-0.25 0.03125-0.34375-0.046875-0.23438-0.15625-0.45312-0.26562-0.65625-0.03125-0.0625-0.0625-0.14062-0.10938-0.1875-0.015625-0.03125-0.046875-0.078125-0.046875-0.10938 0-0.046875 0.015625-0.09375 0.046875-0.14062 0.015625-0.0625 0.046875-0.14062 0.0625-0.21875 0.046875-0.20312 0.046875-0.42188 0.03125-0.64062-0.09375-0.76562-0.6875-1.375-1.3906-1.6406-0.1875-0.09375-0.42188-0.15625-0.64062-0.15625 0.0625-0.0625 0.10938-0.125 0.17188-0.1875 0.14062-0.125 0.26562-0.26562 0.39062-0.40625 0.32812-0.32812 0.625-0.65625 0.95312-0.98438 0.078125-0.09375 0.15625-0.17188 0.25-0.26562 0.046875-0.046875 0.125-0.125 0.15625-0.1875 0.015625-0.0625 0.015625-0.14062 0.015625-0.21875 0-0.046875 0-0.09375-0.015625-0.14062-0.03125-0.078125-0.125-0.078125-0.20312-0.078125zm2.7031 4.875c-0.015625 0.14062-0.03125 0.25-0.0625 0.39062-0.0625 0.25-0.20312 0.48438-0.40625 0.65625-0.15625 0.10938-0.32812 0.1875-0.51562 0.20312-0.09375 0.015625-0.1875 0-0.28125-0.015625-0.25 0-0.5-0.046875-0.73438-0.14062-0.1875-0.078125-0.375-0.20312-0.48438-0.375-0.10938-0.1875-0.10938-0.42188-0.015625-0.60938 0.0625-0.14062 0.15625-0.25 0.28125-0.32812 0.375-0.25 0.89062-0.29688 1.3281-0.20312 0.23438 0.046875 0.4375 0.14062 0.64062 0.26562 0.09375 0.046875 0.17188 0.10938 0.25 0.15625z"/>
</g>
</defs>
<g transform="translate(-149.13 -130.45)">
<use x="148.71201" y="134.765" xlink:href="#a"/>
</g>
</svg>
