<?xml version="1.0" encoding="UTF-8"?>
<svg fill="#000000" version="1.1" viewBox="0 0 7.2031 8.5469" xmlns="http://www.w3.org/2000/svg" xmlns:xlink="http://www.w3.org/1999/xlink">
<defs>
<g id="a">
<path d="m4 1.2969c0.17188 0 0.35938 0 0.35938-0.20312 0-0.03125 0-0.046875-0.046875-0.15625-0.17188-0.59375-0.23438-1.1406-0.23438-1.6406h0.5c0.03125 0.82812 0.92188 0.92188 1.1875 0.92188 0.96875 0 1.7188-0.89062 1.7188-1.9531 0-0.96875-0.53125-1.9375-1.4688-1.9375-0.35938 0-0.67188 0.14062-0.90625 0.4375l-0.21875-0.46875c0.5-0.40625 0.75-0.98438 0.75-1.5938 0-1.0469-0.75-1.9531-1.7656-1.9531-1 0-1.7656 0.90625-1.7656 1.9531 0 0.60938 0.26562 1.2031 0.76562 1.5938l-0.21875 0.46875c-0.25-0.29688-0.5625-0.4375-0.92188-0.4375-0.9375 0-1.4531 0.96875-1.4531 1.9375 0 1.0625 0.73438 1.9531 1.7031 1.9531 0.26562 0 1.1562-0.09375 1.2031-0.92188h0.48438c0 0.65625-0.09375 1.1562-0.25 1.6875-0.015625 0.078125-0.015625 0.09375-0.015625 0.10938 0 0.20312 0.17188 0.20312 0.34375 0.20312z"/>
</g>
</defs>
<g transform="translate(-148.99 -127.52)">
<use x="148.71201" y="134.765" xlink:href="#a"/>
</g>
</svg>
