<?xml version="1.0" encoding="UTF-8"?>
<svg fill="#000000" version="1.1" viewBox="0 0 6.1387 6.2422" xmlns="http://www.w3.org/2000/svg" xmlns:xlink="http://www.w3.org/1999/xlink">
<defs>
<g id="a">
<path d="m1.4844-6.1406c0 0.125-0.015625 0.23438-0.015625 0.34375-0.078125 0.60938-0.35938 1.3594-1.0156 1.5469-0.078125 0.015625-0.1875 0.03125-0.28125 0.03125v0.21875h0.85938v2.2812c0 0.4375-0.03125 0.89062 0.23438 1.2656 0.046875 0.078125 0.09375 0.14062 0.17188 0.1875 0.40625 0.35938 0.9375 0.35938 1.4531 0.35938h1.2656c0.34375 0 0.70312 0.03125 1.0312-0.03125 0.35938-0.078125 0.71875-0.26562 0.90625-0.59375 0.28125-0.45312 0.29688-1.0469 0-1.5-0.10938-0.125-0.23438-0.26562-0.375-0.35938-0.14062-0.10938-0.3125-0.1875-0.46875-0.23438-0.1875-0.0625-0.35938-0.09375-0.54688-0.10938-0.39062-0.09375-0.92188-0.17188-1.0781-0.60938-0.03125-0.0625-0.03125-0.14062-0.03125-0.20312 0-0.375 0.32812-0.625 0.67188-0.70312 0.42188-0.09375 0.95312-0.0625 1.25 0.29688 0.0625 0.0625 0.10938 0.125 0.14062 0.1875 0.078125 0.14062 0.10938 0.28125 0.14062 0.4375 0 0.046875 0.015625 0.10938 0.015625 0.15625s0 0.078125 0.015625 0.10938c0.03125 0.0625 0.125 0.078125 0.1875 0.046875 0.03125-0.03125 0.046875-0.078125 0.046875-0.125v-0.28125-0.75c0-0.078125 0.03125-0.20312-0.03125-0.26562-0.09375-0.10938-0.23438 0.046875-0.29688 0.09375-0.046875 0.0625-0.10938 0.09375-0.14062 0.14062h-0.015625c-0.21875-0.20312-0.57812-0.26562-0.89062-0.26562-0.51562 0-1.125 0.10938-1.4219 0.59375-0.0625 0.09375-0.09375 0.20312-0.125 0.29688-0.03125 0.14062-0.046875 0.28125-0.046875 0.42188 0.03125 0.125 0.0625 0.25 0.10938 0.35938 0.0625 0.10938 0.125 0.1875 0.20312 0.28125 0.21875 0.21875 0.48438 0.35938 0.79688 0.4375 0.29688 0.078125 0.64062 0.09375 0.9375 0.20312 0.34375 0.125 0.64062 0.40625 0.6875 0.76562 0 0.10938-0.015625 0.21875-0.03125 0.3125-0.078125 0.29688-0.32812 0.5-0.60938 0.59375-0.29688 0.078125-0.625 0.046875-0.92188 0.046875h-1.4219c-0.25 0-0.51562 0-0.73438-0.15625-0.046875-0.03125-0.09375-0.078125-0.14062-0.125-0.28125-0.3125-0.23438-0.76562-0.23438-1.1406v-2.4219h1.0312v-0.3125h-1.0312v-1.8281z"/>
</g>
</defs>
<g transform="translate(-148.88 -128.62)">
<use x="148.71201" y="134.765" xlink:href="#a"/>
</g>
</svg>
