<?xml version="1.0" encoding="UTF-8"?>
<svg fill="#000000" width="4.7969" height="8.0938" version="1.1" viewBox="0 0 4.7969 8.0937" xmlns="http://www.w3.org/2000/svg" xmlns:xlink="http://www.w3.org/1999/xlink">
<defs>
<g id="a">
<path d="m3.625-3.7344c0.10938 0 0.21875-0.09375 0.21875-0.21875 0.17188-1.9219 0.9375-2.1406 0.9375-2.4219 0-0.125-0.10938-0.21875-0.21875-0.21875-0.15625 0-0.45312 0.25-1.25 0.25-0.64062 0-1.2812-0.20312-1.3281-0.20312-0.125 0-0.23438 0.09375-0.23438 0.23438 0 0.34375 0.60938 0.28125 1.6094 0.45312-0.96875 0.84375-1.5625 2.0781-1.6094 3.375l-1.5938-0.28125c-0.09375-0.015625-0.17188 0.046875-0.17188 0.14062 0 0.078125 0.046875 0.14062 0.125 0.15625l1.6406 0.28125c0.0625 1.6562 0.95312 2.9375 2.0469 3.6562 0.046875 0.03125 0.078125 0.03125 0.125 0.03125 0.17188 0 0.21875-0.15625 0.21875-0.21875 0-0.078125-0.03125-0.15625-0.09375-0.1875-0.96875-0.65625-1.75-1.7812-1.8281-3.2031l2.1719 0.39062c0.078125 0.015625 0.15625-0.03125 0.17188-0.10938 0.015625-0.09375-0.046875-0.17188-0.125-0.1875l-2.2188-0.39062c0.015625-1.2188 0.5625-2.3594 1.4844-3.1406-0.078125 0.46875-0.3125 1.2656-0.3125 1.5781 0 0.125 0.09375 0.23438 0.23438 0.23438z"/>
</g>
</defs>
<g transform="translate(-148.7 -128.17)">
<use x="148.71201" y="134.765" xlink:href="#a"/>
</g>
</svg>
