<?xml version="1.0" encoding="UTF-8"?>
<svg fill="#000000" width="7.0938" height="7.0938" version="1.1" viewBox="0 0 7.0938 7.0937" xmlns="http://www.w3.org/2000/svg" xmlns:xlink="http://www.w3.org/1999/xlink">
<defs>
<g id="a">
<path d="m6.1875-2.7188-1.875-1.8594c-0.046875-0.046875-0.10938-0.078125-0.15625-0.078125-0.0625 0-0.125 0.03125-0.17188 0.078125l-1.875 1.8594c-0.03125 0.0625-0.0625 0.10938-0.0625 0.17188 0 0.046875 0.03125 0.10938 0.0625 0.17188l1.875 1.8594c0.046875 0.046875 0.10938 0.078125 0.17188 0.078125 0.046875 0 0.10938-0.03125 0.15625-0.078125l1.875-1.8594c0.046875-0.0625 0.078125-0.125 0.078125-0.17188 0-0.0625-0.03125-0.10938-0.078125-0.17188zm-2.0312-1.375 1.5469 1.5469-1.5469 1.5469-1.5469-1.5469zm3.4688 1.375-3.3125-3.2969c-0.046875-0.0625-0.10938-0.078125-0.15625-0.078125-0.0625 0-0.125 0.015625-0.17188 0.078125l-3.3125 3.2969c-0.046875 0.0625-0.0625 0.10938-0.0625 0.17188 0 0.046875 0.015625 0.10938 0.0625 0.17188l3.3125 3.2969c0.046875 0.0625 0.10938 0.078125 0.17188 0.078125 0.046875 0 0.10938-0.015625 0.15625-0.078125l3.3125-3.2969c0.046875-0.0625 0.078125-0.125 0.078125-0.17188 0-0.0625-0.03125-0.10938-0.078125-0.17188zm-3.4688-2.8125 2.9844 2.9844-2.9844 2.9844-2.9844-2.9844z"/>
</g>
</defs>
<g transform="translate(-149.32 -128.67)">
<use x="148.71201" y="134.765" xlink:href="#a"/>
</g>
</svg>
