<?xml version="1.0" encoding="UTF-8"?>
<svg fill="#000000" version="1.1" viewBox="0 0 6.6465 7.2566" xmlns="http://www.w3.org/2000/svg" xmlns:xlink="http://www.w3.org/1999/xlink">
<defs>
<g id="a">
<path d="m3.7031-7.0312c-0.14062 0.015625-0.29688 0.015625-0.4375 0.046875-0.35938 0.09375-0.71875 0.21875-1.0469 0.42188-0.28125 0.1875-0.54688 0.40625-0.76562 0.6875-1.1406 1.3281-1.2188 3.4375-0.125 4.8125 0.20312 0.25 0.45312 0.48438 0.70312 0.67188 0.29688 0.21875 0.625 0.375 0.98438 0.48438 0.375 0.09375 0.76562 0.14062 1.1562 0.10938 0.28125-0.03125 0.54688-0.10938 0.79688-0.1875 0.23438-0.09375 0.46875-0.20312 0.65625-0.34375 1.1406-0.78125 1.7031-2.1719 1.5469-3.5156-0.14062-1.2656-0.90625-2.4531-2.125-2.9531-0.20312-0.09375-0.42188-0.15625-0.65625-0.1875-0.21875-0.046875-0.46875-0.078125-0.6875-0.046875zm0.046875 0.25c0.59375-0.046875 1.1719 0.21875 1.5781 0.64062 0.21875 0.21875 0.375 0.48438 0.5 0.76562 0.21875 0.46875 0.29688 1 0.32812 1.5156 0.046875 0.84375-0.03125 1.7344-0.42188 2.5-0.34375 0.6875-0.98438 1.2656-1.7656 1.3125-0.29688 0-0.57812-0.046875-0.84375-0.17188-0.046875-0.015625-0.10938-0.046875-0.17188-0.078125-0.015625-0.015625-0.0625-0.046875-0.078125-0.078125-0.03125-0.03125-0.015625-0.09375-0.015625-0.14062v-5.8281c0-0.03125-0.015625-0.09375 0.015625-0.14062 0.03125-0.0625 0.14062-0.09375 0.20312-0.125 0.20312-0.09375 0.4375-0.15625 0.67188-0.17188zm-1.2031 0.53125v5.625c-0.09375-0.078125-0.17188-0.17188-0.25-0.26562-0.17188-0.23438-0.3125-0.48438-0.40625-0.75-0.20312-0.5-0.28125-1.0312-0.3125-1.5625-0.015625-0.57812 0-1.1875 0.17188-1.75 0.10938-0.34375 0.28125-0.6875 0.5-0.98438 0.078125-0.10938 0.1875-0.25 0.29688-0.3125z"/>
</g>
</defs>
<g transform="translate(-149.26 -127.72)">
<use x="148.71201" y="134.765" xlink:href="#a"/>
</g>
</svg>
