<?xml version="1.0" encoding="UTF-8"?>
<svg fill="#000000" version="1.1" viewBox="0 0 4.9219 7.0156" xmlns="http://www.w3.org/2000/svg" xmlns:xlink="http://www.w3.org/1999/xlink">
<defs>
<g id="a">
<path d="m0.26562-6.8125v0.29688h0.17188c0.29688 0 0.60938 0.03125 0.60938 0.48438v0.92188c0 0.21875-0.45312 0.48438-0.70312 0.71875l0.1875 0.23438 0.51562-0.42188v4.5625l0.23438-0.015625 0.14062-0.17188 0.23438-0.42188h0.015625c0.23438 0.48438 0.82812 0.71875 1.3281 0.71875 1.2344 0 2.1875-1.0781 2.1875-2.25 0-1.1562-0.875-2.25-2.1406-2.25-0.53125 0-0.98438 0.25-1.3281 0.64062v-1.3438l1.6719-1.4219-0.1875-0.23438-1.4844 1.2188v-1.375zm4.0781 4.9062c-0.03125 0.46875-0.09375 0.89062-0.39062 1.2656-0.25 0.3125-0.625 0.51562-1.0156 0.51562-0.4375 0-0.82812-0.25-1.0469-0.60938-0.09375-0.10938-0.14062-0.1875-0.14062-0.34375v-1.6562c0-0.14062-0.015625-0.26562-0.015625-0.39062 0-0.60938 0.73438-1.0625 1.2812-1.0625 1.0781 0 1.3438 1.25 1.3438 2.0469 0 0.078125 0 0.14062-0.015625 0.23438z"/>
</g>
</defs>
<g transform="translate(-148.98 -127.84)">
<use x="148.71201" y="134.765" xlink:href="#a"/>
</g>
</svg>
