<?xml version="1.0" encoding="UTF-8"?>
<svg fill="#000000" version="1.1" viewBox="0 0 8.4062 8.0156" xmlns="http://www.w3.org/2000/svg" xmlns:xlink="http://www.w3.org/1999/xlink">
<defs>
<g id="a">
<path d="m8.7812-3.6719c0.125-0.10938 0.125-0.10938 0.125-0.15625 0-0.10938-0.078125-0.10938-0.26562-0.10938h-2.8906l-0.90625-2.7969c-0.046875-0.14062-0.0625-0.17188-0.14062-0.17188s-0.10938 0.0625-0.14062 0.20312l-0.90625 2.7656h-2.875c-0.1875 0-0.28125 0-0.28125 0.10938 0 0.0625 0.03125 0.078125 0.125 0.15625l2.3906 1.7344-0.90625 2.7969c0 0.015625-0.046875 0.125-0.046875 0.14062 0 0 0 0.10938 0.10938 0.10938 0.015625 0 0.046875 0 0.15625-0.09375l2.375-1.7188 2.3906 1.7188c0.03125 0.046875 0.09375 0.09375 0.14062 0.09375 0.10938 0 0.10938-0.10938 0.10938-0.10938 0-0.046875-0.015625-0.10938-0.03125-0.14062l-0.90625-2.7969z"/>
</g>
</defs>
<g transform="translate(-149.21 -127.86)">
<use x="148.71201" y="134.765" xlink:href="#a"/>
</g>
</svg>
