<?xml version="1.0" encoding="UTF-8"?>
<svg fill="#000000" version="1.1" viewBox="0 0 4.4219 7.25" xmlns="http://www.w3.org/2000/svg" xmlns:xlink="http://www.w3.org/1999/xlink">
<defs>
<g id="a">
<path d="m0.48438-4.1719h0.54688l0.4375-1.3438h0.82812v1.7031c-0.59375 0.078125-1.0938 0.4375-1.4688 1.0469-0.14062 0.32812-0.14062 0.45312-0.14062 1.3281 0.39062 0.98438 1.0938 1.4844 2.1094 1.4844 1.2656-0.046875 1.8438-1.0625 1.8438-1.7031 0-1.125-0.53125-1.8281-1.5625-2.1094v-1.75l0.84375 0.078125c0 0.39062 0.0625 0.57812 0.42188 1.2656h0.5625c-0.29688-0.51562-0.4375-1.0312-0.4375-1.5469 0-0.46875 0.125-0.9375 0.35938-1.4062-0.0625-0.03125-0.125-0.046875-0.1875-0.046875-0.35938 0-0.59375 0.46875-0.71875 1.375h-0.84375v-1.4062h-0.78125v1.4062l-0.82812-0.0625-0.35938-1.2031-0.625-0.0625c0.23438 0.4375 0.34375 0.92188 0.34375 1.4062s-0.10938 1-0.34375 1.5469zm2.3906 3.7812c-0.9375-0.42188-1.4062-1.1719-1.4062-2.2344 0.23438-0.57812 0.53125-0.85938 0.84375-0.85938 0.46875 0 1.5625 0.90625 1.5625 2.0938-0.03125 0.59375-0.32812 1-1 1z"/>
</g>
</defs>
<g transform="translate(-149.2 -127.56)">
<use x="148.71201" y="134.765" xlink:href="#a"/>
</g>
</svg>
