<?xml version="1.0" encoding="UTF-8"?>
<svg fill="#000000" version="1.1" viewBox="0 0 6.7656 7.8125" xmlns="http://www.w3.org/2000/svg" xmlns:xlink="http://www.w3.org/1999/xlink">
<defs>
<g id="a">
<path d="m6.0781-6.0156c0-0.95312-0.375-1.1094-0.90625-1.1094h-3.6562c-0.20312 0-0.45312 0-0.5625-0.32812-0.03125-0.046875-0.0625-0.15625-0.20312-0.15625-0.1875 0-0.1875 0.125-0.1875 0.46875 0 1.2031 0.39062 1.2031 1.1875 1.2031h3.2188c0.40625 0 0.46875 0 0.60938 0.10938 0.10938 0.0625 0.10938 0.14062 0.10938 0.3125v4.4844h-4.5469c-0.23438 0-0.25 0-0.35938 0.10938l-0.67188 0.67188c-0.15625 0.15625-0.17188 0.17188-0.17188 0.25 0 0.20312 0.1875 0.20312 0.35938 0.20312h5.2188c0.21875 0 0.23438 0 0.35938-0.125l0.67188-0.67188c0.10938-0.10938 0.15625-0.14062 0.15625-0.25 0-0.125-0.10938-0.1875-0.21875-0.1875h-0.40625z"/>
</g>
</defs>
<g transform="translate(-148.65 -127.16)">
<use x="148.71201" y="134.765" xlink:href="#a"/>
</g>
</svg>
