<?xml version="1.0" encoding="UTF-8"?>
<svg fill="#000000" version="1.1" viewBox="0 0 4.0625 8.0312" xmlns="http://www.w3.org/2000/svg" xmlns:xlink="http://www.w3.org/1999/xlink">
<defs>
<g id="a">
<path d="m1.5156-7.125c-0.20312 0-0.45312 0-0.5625-0.32812-0.03125-0.046875-0.0625-0.15625-0.20312-0.15625-0.1875 0-0.1875 0.125-0.1875 0.46875 0 0.76562 0.10938 1.2031 0.90625 1.2031h1.6406v4.9062h-1.9688c-0.23438 0-0.25 0-0.35938 0.10938l-0.67188 0.67188c-0.15625 0.15625-0.17188 0.17188-0.17188 0.25 0 0.20312 0.1875 0.20312 0.35938 0.20312h2.0312c0.21875 0 0.21875-0.015625 0.28125-0.0625 0.14062-0.125-0.14062 0.14062 0.53125-0.51562 0.015625 0.14062 0.03125 0.26562 0.0625 0.48438 0.03125 0.15625 0.0625 0.3125 0.23438 0.3125 0.21875 0 0.32812-0.35938 0.34375-0.42188 0.0625-0.17188 0.0625-0.26562 0.0625-0.75 0-0.71875 0-0.73438-0.29688-4.2344-0.03125-0.34375-0.015625-0.64062-0.03125-0.98438 0.40625-0.10938 0.48438-0.4375 0.48438-0.5625 0-0.0625 0-0.59375-0.79688-0.59375z"/>
</g>
</defs>
<g transform="translate(-148.65 -127.16)">
<use x="148.71201" y="134.765" xlink:href="#a"/>
</g>
</svg>
