<?xml version="1.0" encoding="UTF-8"?>
<svg fill="#000000" version="1.1" viewBox="0 0 7.3594 7.3281" xmlns="http://www.w3.org/2000/svg" xmlns:xlink="http://www.w3.org/1999/xlink">
<defs>
<g id="a">
<path d="m4.1406-7.1719c-2.2188 0.15625-3.6562 1.5156-3.6562 3.75 0.125 2.1875 1.6094 3.5781 3.7188 3.5781 2.3438-0.15625 3.6406-1.5781 3.6406-3.7812-0.078125-2.0469-1.5469-3.5469-3.7031-3.5469zm0.70312 6.75c-1.4375-0.10938-3.1094-2.4375-3.1094-4.3281 0-0.14062 0.015625-0.25 0.03125-0.35938 0.34375-0.875 0.84375-1.5469 1.9531-1.5469 1.5938 0.57812 2.9375 2.6094 2.9375 4.5156-0.03125 0.67188-0.85938 1.7188-1.8125 1.7188zm-0.73438-3.6719c-0.42188 0-0.625 0.29688-0.625 0.64062 0.046875 0.4375 0.1875 0.65625 0.70312 0.65625 0.40625-0.03125 0.59375-0.25 0.59375-0.75-0.03125-0.48438-0.5-0.54688-0.67188-0.54688z"/>
</g>
</defs>
<g transform="translate(-149.2 -127.59)">
<use x="148.71201" y="134.765" xlink:href="#a"/>
</g>
</svg>
