<?xml version="1.0" encoding="UTF-8"?>
<svg fill="#000000" version="1.1" viewBox="0 0 6.0938 8.8125" xmlns="http://www.w3.org/2000/svg" xmlns:xlink="http://www.w3.org/1999/xlink">
<defs>
<g id="a">
<path d="m6.375 1.3594c0.17188 0 0.34375 0 0.34375-0.1875 0-0.20312-0.17188-0.20312-0.34375-0.20312h-4.2344l1.0156-1.5312h0.71875c1.6719 0 3.0469-1.2656 3.0469-2.8906s-1.375-2.8906-3.0625-2.8906h-2.6875c-0.17188 0-0.34375 0-0.34375 0.20312s0.17188 0.20312 0.34375 0.20312h2.6562c1.6094 0 2.6875 1.1719 2.6875 2.4844 0 1.3438-1.125 2.4844-2.6719 2.4844h-0.42188l0.45312-0.65625c0.125-0.17188 0.125-0.20312 0.125-0.25 0-0.0625-0.046875-0.20312-0.20312-0.20312-0.10938 0-0.14062 0.046875-0.23438 0.20312l-0.60938 0.90625h-1.7812c-0.17188 0-0.34375 0-0.34375 0.20312s0.17188 0.20312 0.34375 0.20312h1.5156l-1.0156 1.5312h-0.5c-0.17188 0-0.34375 0-0.34375 0.20312 0 0.09375 0.078125 0.1875 0.1875 0.1875h0.375l-0.4375 0.67188c-0.09375 0.125-0.125 0.1875-0.125 0.23438 0 0.10938 0.09375 0.20312 0.20312 0.20312s0.14062-0.046875 0.23438-0.20312l0.59375-0.90625z"/>
</g>
</defs>
<g transform="translate(-149.54 -128.42)">
<use x="148.71201" y="134.765" xlink:href="#a"/>
</g>
</svg>
