<?xml version="1.0" encoding="UTF-8"?>
<svg fill="#000000" version="1.1" viewBox="0 0 5.3438 7.25" xmlns="http://www.w3.org/2000/svg" xmlns:xlink="http://www.w3.org/1999/xlink">
<defs>
<g id="a">
<path d="m2.125-2.6875c0.17188 0 0.35938 0 0.35938-0.1875 0-0.20312-0.1875-0.20312-0.35938-0.20312h-1.3906c-0.3125 0-0.34375 0.03125-0.34375 0.34375v2.1406c0 0.42188 0 0.8125 1.8906 0.8125 0.54688 0 1.4531 0 2.4062-0.95312 0.5625-0.54688 1.0469-1.5156 1.0469-2.6719 0-1.9062-1.3438-3.625-3.2656-3.625-0.54688 0-1.1094 0.125-1.7031 0.40625-0.1875 0.078125-0.29688 0.14062-0.29688 0.28125 0 0.09375 0.09375 0.1875 0.20312 0.1875 0.0625 0 0.125-0.03125 0.20312-0.078125 0.53125-0.28125 1.125-0.39062 1.5938-0.39062 1.7031 0 2.8594 1.5625 2.8594 3.2188 0 0.71875-0.1875 1.5469-0.79688 2.2656-0.82812 0.96875-1.7812 0.96875-2.25 0.96875-0.14062 0-0.60938 0-0.96875-0.0625-0.53125-0.0625-0.53125-0.15625-0.53125-0.39062v-2.0625z"/>
</g>
</defs>
<g transform="translate(-149.1 -127.73)">
<use x="148.71201" y="134.765" xlink:href="#a"/>
</g>
</svg>
