<?xml version="1.0" encoding="UTF-8"?>
<svg fill="#000000" version="1.1" viewBox="0 0 5.8594 5.3125" xmlns="http://www.w3.org/2000/svg" xmlns:xlink="http://www.w3.org/1999/xlink">
<defs>
<g id="a">
<path d="m4.1406-4.5625c0-0.375-0.3125-0.625-0.625-0.625-0.32812 0-0.64062 0.25-0.64062 0.625 0 0.39062 0.25 0.64062 0.64062 0.64062 0.375 0 0.625-0.3125 0.625-0.64062zm2.0156 0.95312c-0.17188 0.70312-0.51562 1.4688-1.2031 1.4688-0.71875 0-1.8906-1.4688-2.8438-1.4688-0.98438 0-1.5781 1.1406-1.625 2.1406h0.1875c0.17188-0.71875 0.5625-1.4844 1.2656-1.4844 0.71875 0 1.875 1.4844 2.8438 1.4844s1.5156-1.2969 1.5625-2.1406zm-2.0156 3.0938c0-0.40625-0.29688-0.625-0.64062-0.625-0.32812 0-0.625 0.23438-0.625 0.625 0 0.34375 0.29688 0.64062 0.625 0.64062 0.34375 0 0.64062-0.29688 0.64062-0.64062z"/>
</g>
</defs>
<g transform="translate(-149.2 -129.58)">
<use x="148.71201" y="134.765" xlink:href="#a"/>
</g>
</svg>
