<?xml version="1.0" encoding="UTF-8"?>
<svg fill="#000000" width="4.6406" height="8.8438" version="1.1" viewBox="0 0 4.6406 8.8437" xmlns="http://www.w3.org/2000/svg" xmlns:xlink="http://www.w3.org/1999/xlink">
<defs>
<g id="a">
<path d="m2.6875-5.5312c0.25 0.375 0.51562 0.65625 0.76562 0.84375 0.60938 0.45312 1.2188 0.5625 1.2344 0.5625 0.125 0 0.125-0.10938 0.125-0.1875 0-0.15625 0-0.17188-0.23438-0.25-0.67188-0.1875-1.0625-0.54688-1.2812-0.79688-0.51562-0.54688-0.64062-1.1406-0.6875-1.4531-0.015625-0.0625-0.0625-0.09375-0.10938-0.09375-0.09375 0-0.10938 0.0625-0.125 0.17188-0.23438 1.1094-0.9375 1.8906-2.0312 2.2031-0.15625 0.046875-0.17188 0.046875-0.17188 0.21875 0 0.078125 0 0.1875 0.125 0.1875 0.015625 0 0.60938-0.10938 1.1719-0.51562 0.32812-0.25 0.60938-0.54688 0.82812-0.89062v7.1094c0 0.17188 0 0.35938 0.20312 0.35938 0.1875 0 0.1875-0.1875 0.1875-0.35938z"/>
</g>
</defs>
<g transform="translate(-148.88 -127.86)">
<use x="148.71201" y="134.765" xlink:href="#a"/>
</g>
</svg>
