<?xml version="1.0" encoding="UTF-8"?>
<svg fill="#000000" width="6.9062" height="7.2188" version="1.1" viewBox="0 0 6.9062 7.2187" xmlns="http://www.w3.org/2000/svg" xmlns:xlink="http://www.w3.org/1999/xlink">
<defs>
<g id="a">
<path d="m4.5312-1.2031 0.67188 1.4688 1.4375-1.0625v-0.20312c-0.09375 0.0625-0.35938 0.21875-0.59375 0.21875-0.67188 0-0.73438-1.6562-0.73438-1.8281v-2c0-0.75-0.015625-1.5469 0.57812-2.125l-0.15625-0.10938-1.2656 0.90625c0.078125 1.1406 0.09375 2.2812 0.09375 3.4375 0 0.29688 0 0.70312-0.046875 0.85938-0.14062 0.42188-0.85938 1.1562-1.375 1.1562s-1.3594-0.57812-2.0156-0.57812l1.0156-1.1094c0.10938-0.23438 0.14062-0.48438 0.14062-0.75 0-0.92188-0.84375-1.8438-0.84375-2.5938 0-0.53125 0.4375-0.96875 0.84375-1.2656l-0.09375-0.17188c-0.71875 0.40625-1.5938 1.3438-1.5938 1.9062 0 0.8125 1 1.8438 1 2.5469 0 0.375-0.10938 0.75-0.375 1.0156-0.1875 0.20312-0.4375 0.45312-0.6875 0.48438l-0.79688 0.89062 0.10938 0.17188c0.125-0.1875 0.34375-0.4375 0.53125-0.4375 0.79688 0 1.5625 0.64062 2.4531 0.64062 0.20312 0 0.40625-0.078125 0.57812-0.20312z"/>
</g>
</defs>
<g transform="translate(-148.45 -127.81)">
<use x="148.71201" y="134.765" xlink:href="#a"/>
</g>
</svg>
