<?xml version="1.0" encoding="UTF-8"?>
<svg fill="#000000" version="1.1" viewBox="0 0 2.5625 7.4844" xmlns="http://www.w3.org/2000/svg" xmlns:xlink="http://www.w3.org/1999/xlink">
<defs>
<g id="a">
<path d="m2.1719-4.75c0.40625 0.59375 0.64062 1.2812 0.64062 2.0156 0 0.71875-0.23438 1.4062-0.64062 2-0.39062-0.59375-0.64062-1.2812-0.64062-2 0-0.73438 0.25-1.4219 0.64062-2.0156zm1.1562 5.25c-0.26562-0.20312-0.51562-0.45312-0.75-0.70312 0.54688-0.75 0.875-1.6094 0.875-2.5312 0-0.9375-0.32812-1.8125-0.875-2.5469 0.23438-0.25 0.48438-0.48438 0.75-0.70312l-0.39062-0.5c-0.28125 0.21875-0.53125 0.45312-0.76562 0.70312-0.23438-0.25-0.48438-0.48438-0.75-0.70312l-0.40625 0.5c0.26562 0.21875 0.51562 0.45312 0.75 0.70312-0.54688 0.75-0.875 1.6094-0.875 2.5469 0 0.92188 0.32812 1.7969 0.875 2.5312-0.23438 0.25-0.48438 0.5-0.75 0.70312l0.40625 0.5c0.26562-0.21875 0.51562-0.45312 0.75-0.70312 0.23438 0.25 0.48438 0.48438 0.76562 0.70312z"/>
</g>
</defs>
<g transform="translate(-149.6 -128.28)">
<use x="148.71201" y="134.765" xlink:href="#a"/>
</g>
</svg>
