<?xml version="1.0" encoding="UTF-8"?>
<svg fill="#000000" version="1.1" viewBox="0 0 8.3125 10.922" xmlns="http://www.w3.org/2000/svg" xmlns:xlink="http://www.w3.org/1999/xlink">
<defs>
<g id="a">
<path d="m5.7969-3.0156 0.53125-3c0.25 0.17188 0.67188 0.54688 0.67188 1.3594 0 0.98438-0.60938 1.4219-1.2031 1.6406zm0.60938-3.4062 0.14062-0.85938c0.125-0.6875 0.40625-2.4062 1.0781-2.4062 0.125 0 0.26562 0.046875 0.34375 0.125 0.03125 0.1875 0.1875 0.26562 0.3125 0.26562 0.15625 0 0.29688-0.14062 0.29688-0.3125 0-0.34375-0.65625-0.5-0.95312-0.5-1.2188 0-1.5781 1.5-1.8125 2.8281l-0.09375 0.57812c-0.42188-0.125-0.85938-0.17188-1.2969-0.17188-0.17188 0-0.35938 0.015625-0.53125 0.03125l0.078125-0.4375c0.125-0.6875 0.39062-2.4062 1.0781-2.4062 0.125 0 0.25 0.046875 0.34375 0.125 0.03125 0.1875 0.1875 0.26562 0.29688 0.26562 0.17188 0 0.3125-0.14062 0.3125-0.3125 0-0.34375-0.67188-0.5-0.95312-0.5-1.2344 0-1.5781 1.5-1.8125 2.8281l-0.10938 0.57812c-0.82812 0.23438-1.6562 0.82812-1.6562 2.0469 0 0.76562 0.32812 1.3906 0.98438 1.7812l-0.15625 0.84375c-0.10938 0.70312-0.39062 2.4219-1.0625 2.4219-0.125 0-0.25-0.046875-0.35938-0.14062-0.03125-0.1875-0.17188-0.25-0.29688-0.25-0.15625 0-0.3125 0.14062-0.3125 0.3125 0 0.078125 0.046875 0.15625 0.09375 0.20312 0.26562 0.1875 0.5625 0.29688 0.85938 0.29688 1.25 0 1.5938-1.5 1.8281-2.8438l0.09375-0.5625c0.42188 0.125 0.85938 0.15625 1.2812 0.15625 0.1875 0 0.35938 0 0.54688-0.03125l-0.078125 0.4375c-0.125 0.70312-0.39062 2.4219-1.0625 2.4219-0.14062 0-0.26562-0.046875-0.35938-0.14062-0.03125-0.1875-0.1875-0.25-0.3125-0.25-0.15625 0-0.29688 0.14062-0.29688 0.3125 0 0.078125 0.03125 0.15625 0.09375 0.20312 0.25 0.1875 0.54688 0.29688 0.85938 0.29688 1.2344 0 1.5781-1.5 1.8125-2.8438l0.09375-0.5625c0.84375-0.23438 1.6562-0.82812 1.6562-2.0625 0-0.75-0.3125-1.375-0.96875-1.7656zm-1.375 3.5781c-0.20312 0.015625-0.39062 0.03125-0.60938 0.03125-0.42188 0-0.82812-0.03125-1.2188-0.15625l0.625-3.4844c0.1875-0.03125 0.40625-0.03125 0.59375-0.03125 0.42188 0 0.84375 0.03125 1.2344 0.15625zm-1.9688-3.4375-0.53125 2.9844c-0.25-0.15625-0.67188-0.53125-0.67188-1.3594 0-0.96875 0.60938-1.4062 1.2031-1.625z"/>
</g>
</defs>
<g transform="translate(-148.98 -126.76)">
<use x="148.71201" y="136.868" xlink:href="#a"/>
</g>
</svg>
