<?xml version="1.0" encoding="UTF-8"?>
<svg fill="#000000" version="1.1" viewBox="0 0 7.3438 10.672" xmlns="http://www.w3.org/2000/svg" xmlns:xlink="http://www.w3.org/1999/xlink">
<defs>
<g id="a">
<path d="m3.3125-3.625 0.64062 0.96875-0.57812 0.875c-0.23438-0.26562-0.35938-0.59375-0.35938-0.95312 0-0.32812 0.10938-0.64062 0.29688-0.89062zm-0.29688 2.4062-2.125 3.1719 0.15625 0.64062h6.8281l0.35938-1.2812-0.3125-0.078125c-0.10938 0.45312-1.0625 0.51562-1.7969 0.54688l-4.2812 0.17188 1.8281-2.7344c0.25 0.10938 0.53125 0.15625 0.8125 0.15625 0.5625 0 1.0938-0.21875 1.5-0.625 0.39062-0.39062 0.60938-0.9375 0.60938-1.4844 0-0.5625-0.21875-1.1094-0.60938-1.5-0.40625-0.40625-0.9375-0.625-1.5-0.625-0.23438 0-0.48438 0.046875-0.70312 0.125l-1.7656-2.7656 4.2656 0.046875c0.60938 0 1.25 0.15625 1.4688 0.6875h0.32812v-1.3125h-7.0156l-0.17188 0.71875 2.0625 3.1562c-0.375 0.40625-0.57812 0.92188-0.57812 1.4688 0 0.5625 0.23438 1.1094 0.64062 1.5156zm1.4688-0.046875c-0.15625 0-0.3125-0.015625-0.45312-0.0625l1-1.5-0.875-1.3438c0.10938-0.03125 0.21875-0.046875 0.32812-0.046875 0.79688 0 1.4844 0.67188 1.4844 1.4844 0 0.79688-0.67188 1.4688-1.4844 1.4688z"/>
</g>
</defs>
<g transform="translate(-149.6 -126.69)">
<use x="148.71201" y="134.765" xlink:href="#a"/>
</g>
</svg>
