<?xml version="1.0" encoding="UTF-8"?>
<svg fill="#000000" version="1.1" viewBox="0 0 5.5469 5.5469" xmlns="http://www.w3.org/2000/svg" xmlns:xlink="http://www.w3.org/1999/xlink">
<defs>
<g id="a">
<path d="m0.64062-5.2969v0.65625h2.8594c1.1406 0 2.0312 1.0469 2.0312 2.1094s-0.90625 2.125-2.0469 2.125h-2.8438v0.65625h2.8906c1.5781 0 2.6562-1.3125 2.6562-2.7812s-1.0938-2.7656-2.6875-2.7656zm0 1.4219v0.67188h2.8281c0.35938 0 0.64062 0.32812 0.64062 0.67188s-0.29688 0.70312-0.65625 0.70312h-2.8125v0.65625h2.8438c0.76562 0 1.2969-0.64062 1.2969-1.3594 0-0.75-0.57812-1.3438-1.2969-1.3438z"/>
</g>
</defs>
<g transform="translate(-149.35 -129.47)">
<use x="148.71201" y="134.765" xlink:href="#a"/>
</g>
</svg>
