<?xml version="1.0" encoding="UTF-8"?>
<svg fill="#000000" version="1.1" viewBox="0 0 5.7695 4.5129" xmlns="http://www.w3.org/2000/svg" xmlns:xlink="http://www.w3.org/1999/xlink">
<defs>
<g id="a">
<path d="m1.0781-4.2812c-0.078125 0.015625-0.078125 0.078125-0.078125 0.14062v0.375 0.71875c0 0.3125 0 0.625 0.0625 0.9375 0.125 0.53125 0.39062 1.0312 0.75 1.4219 0.70312 0.73438 1.7656 1.0625 2.75 0.8125 0.51562-0.14062 1.0156-0.42188 1.375-0.8125 0.46875-0.48438 0.75-1.1562 0.8125-1.8281 0.03125-0.40625 0.015625-0.82812 0.015625-1.2344v-0.32812c0-0.046875 0-0.10938-0.03125-0.15625-0.03125-0.078125-0.1875-0.078125-0.26562-0.0625-0.0625 0.015625-0.09375 0.046875-0.10938 0.09375-0.015625 0.10938 0 0.25 0 0.35938v0.76562c0 0.23438 0 0.45312-0.03125 0.67188-0.14062 1.0781-0.96875 2-2.0469 2.1719-0.25 0.0625-0.51562 0.0625-0.78125 0.015625-0.95312-0.15625-1.7188-0.89062-2-1.8125-0.10938-0.375-0.10938-0.78125-0.10938-1.1875v-0.89062c0-0.046875 0-0.09375-0.015625-0.125-0.046875-0.078125-0.125-0.0625-0.20312-0.0625-0.03125 0-0.0625 0-0.09375 0.015625z"/>
</g>
</defs>
<g transform="translate(-149.71 -130.46)">
<use x="148.71201" y="134.765" xlink:href="#a"/>
</g>
</svg>
