<?xml version="1.0" encoding="UTF-8"?>
<svg fill="#000000" version="1.1" viewBox="0 0 6.0279 8.5004" xmlns="http://www.w3.org/2000/svg" xmlns:xlink="http://www.w3.org/1999/xlink">
<defs>
<g id="a">
<path d="m3.7969-3.6719h-0.015625c-0.046875-0.125-0.14062-0.23438-0.23438-0.32812-0.10938-0.10938-0.23438-0.21875-0.39062-0.28125-0.53125-0.26562-1.1875-0.10938-1.6875 0.15625-0.82812 0.45312-1.2812 1.4375-1.0938 2.3594 0.14062 0.73438 0.6875 1.3281 1.375 1.5625 0.51562 0.1875 1.1094 0.1875 1.5469-0.17188 0.10938-0.078125 0.21875-0.1875 0.29688-0.29688s0.14062-0.21875 0.1875-0.34375v1.0625c0 0.34375 0 0.6875-0.14062 1.0156-0.15625 0.32812-0.40625 0.625-0.75 0.76562-0.23438 0.09375-0.45312 0.10938-0.70312 0.09375-0.45312-0.03125-0.90625-0.14062-1.2344-0.48438 0.15625 0.015625 0.29688-0.03125 0.40625-0.14062 0.1875-0.21875 0.125-0.59375-0.14062-0.71875-0.23438-0.125-0.57812-0.015625-0.65625 0.26562-0.046875 0.15625 0 0.375 0.0625 0.53125 0.15625 0.34375 0.5 0.53125 0.84375 0.65625 0.21875 0.0625 0.45312 0.10938 0.6875 0.10938 0.5 0.03125 1.0312-0.046875 1.4688-0.32812 0.14062-0.09375 0.26562-0.1875 0.375-0.3125 0.23438-0.21875 0.39062-0.5 0.45312-0.79688 0.046875-0.1875 0.03125-0.375 0.03125-0.54688v-0.70312c0-0.92188 0.015625-1.8438 0-2.7656 0-0.0625-0.015625-0.10938-0.015625-0.17188v-0.92188-0.48438c0.03125-0.29688 0.09375-0.625 0.25-0.875 0.14062-0.23438 0.375-0.39062 0.64062-0.35938 0.10938 0 0.1875 0.03125 0.28125 0.0625 0.10938 0.046875 0.20312 0.125 0.28125 0.20312-0.14062 0-0.28125 0.046875-0.375 0.15625-0.20312 0.25-0.09375 0.65625 0.21875 0.73438 0.26562 0.09375 0.5625-0.078125 0.59375-0.375 0.015625-0.26562-0.09375-0.54688-0.29688-0.73438-0.078125-0.0625-0.1875-0.125-0.28125-0.17188s-0.21875-0.078125-0.32812-0.09375c-0.64062-0.078125-1.2344 0.32812-1.5 0.90625-0.14062 0.34375-0.15625 0.6875-0.15625 1.0625zm-0.015625 1.4219c0 0.14062 0 0.29688-0.015625 0.4375-0.0625 0.4375-0.21875 0.89062-0.53125 1.2031-0.09375 0.078125-0.1875 0.15625-0.29688 0.20312-0.0625 0.03125-0.14062 0.0625-0.21875 0.09375-0.45312 0.078125-0.85938-0.14062-1.1406-0.5-0.34375-0.45312-0.45312-1.0469-0.40625-1.625 0.046875-0.48438 0.21875-0.96875 0.54688-1.3281 0.28125-0.29688 0.6875-0.48438 1.0938-0.40625 0.125 0.03125 0.23438 0.078125 0.34375 0.14062 0.125 0.078125 0.23438 0.1875 0.32812 0.3125 0.125 0.17188 0.21875 0.34375 0.28125 0.54688 0.046875 0.15625 0.03125 0.3125 0.03125 0.46875s0.015625 0.3125-0.015625 0.45312z"/>
</g>
</defs>
<g transform="translate(-149.04 -128.41)">
<use x="148.71201" y="134.765" xlink:href="#a"/>
</g>
</svg>
