<?xml version="1.0" encoding="UTF-8"?>
<svg fill="#000000" version="1.1" viewBox="0 0 9.4375 7.2344" xmlns="http://www.w3.org/2000/svg" xmlns:xlink="http://www.w3.org/1999/xlink">
<defs>
<g id="a">
<path d="m8.9062-7.1875-5.25-0.015625-0.125 0.42188h-0.51562c-0.34375 1.125-0.53125 2-0.57812 2.625l-0.25 0.28125h-0.71875l-0.51562 0.85938-0.4375 0.875-0.51562 1.4844 0.40625 0.6875h6.0312l2.9844-2.0781v-2.8438h0.015625-1.6562l0.1875-0.90625h0.5zm-0.54688 0.90625-0.15625-0.42188-0.015625-0.078125-4.4062-0.015625 0.046875-0.15625h4.75zm-0.29688 0.25 0.078125-0.25 0.0625 0.25zm-5.4062 2.1406c0-0.51562 0.26562-1.8281 0.54688-2.6406h4.7344v0.015625c-0.26562 0.78125-0.4375 1.6562-0.51562 2.625zm5.3438 0.15625-0.03125-0.03125-0.29688-0.0625-0.015625-0.03125 0.078125-0.79688h1.2344l-0.35938 0.29688-0.53125 0.59375c0 0.03125 0 0.03125-0.078125 0.03125zm-1.5625 3.4688-0.25-0.4375 0.1875-0.51562 0.34375-0.78125 0.92188-1.5938 0.5 0.125 0.5625-0.64062 0.48438-0.40625v2.3281zm-6.1406-0.54688 0.375-1.0625c0-0.015625 0.14062-0.32812 0.45312-0.95312l0.46875-0.78125h5.7656c-0.32812 0.45312-0.875 1.3906-1.375 2.7969zm0.21875 0.57812-0.17188-0.32812h5.6719v0.046875l0.17188 0.28125zm4.0156-3.2812-0.21875 0.29688-0.46875 0.76562-0.4375 0.875-0.21875 0.59375h2.3906l0.14062-0.40625 0.4375-0.89062 0.5-0.875 0.23438-0.29688 0.03125-0.0625zm-2.7812 0.14062c-0.0625 0.078125-0.21875 0.35938-0.46875 0.85938h2.2031l0.17188-0.34375 0.29688-0.48438v-0.03125zm-0.078125 0.60938 0.20312-0.35938h1.6562l-0.1875 0.35938zm2.75-0.17188 0.21875-0.32812h0.25l-0.03125 0.03125-0.17188 0.29688zm0.79688 0 0.21875-0.32812h0.23438l-0.03125 0.03125-0.17188 0.29688zm0.78125 0 0.21875-0.32812h0.23438l-0.20312 0.32812zm-2.0781 0.85938 0.20312-0.39062h0.26562l-0.15625 0.39062zm0.79688 0 0.1875-0.39062h0.28125l-0.1875 0.39062zm0.78125 0 0.1875-0.39062h0.28125l-0.17188 0.39062zm-1.9688 0.84375 0.14062-0.35938 0.29688-0.015625-0.10938 0.35938zm0.78125 0 0.15625-0.375h0.28125l-0.10938 0.35938zm0.78125 0 0.15625-0.375h0.29688l-0.14062 0.35938z"/>
</g>
</defs>
<g transform="translate(-148.71 -127.56)">
<use x="148.71201" y="134.765" xlink:href="#a"/>
</g>
</svg>
