<?xml version="1.0" encoding="UTF-8"?>
<svg fill="#000000" version="1.1" viewBox="0 0 3.4375 7.75" xmlns="http://www.w3.org/2000/svg" xmlns:xlink="http://www.w3.org/1999/xlink">
<defs>
<g id="a">
<path d="m0.59375-4.7344c0 0.95312 0.73438 1.5469 1.3906 2.1875-0.59375 0.57812-1.3906 1.2188-1.3906 2.1875 0 0.9375 0.78125 1.6875 1.7188 1.6875s1.7188-0.75 1.7188-1.6875c0-0.95312-0.73438-1.5469-1.3906-2.1875 0.59375-0.57812 1.3906-1.2188 1.3906-2.1875 0-0.9375-0.78125-1.6875-1.7188-1.6875s-1.7188 0.75-1.7188 1.6875zm1.7188 2.5156c0.625 0.59375 1.25 1.1094 1.25 1.8594 0 0.67188-0.54688 1.2344-1.25 1.2344-0.6875 0-1.25-0.5625-1.25-1.2344 0-0.75 0.625-1.2656 1.25-1.8594zm0-0.65625c-0.625-0.59375-1.25-1.1094-1.25-1.8594 0-0.67188 0.5625-1.2344 1.25-1.2344 0.70312 0 1.25 0.5625 1.25 1.2344 0 0.75-0.625 1.2656-1.25 1.8594z"/>
</g>
</defs>
<g transform="translate(-149.31 -128.34)">
<use x="148.71201" y="134.765" xlink:href="#a"/>
</g>
</svg>
