<?xml version="1.0" encoding="UTF-8"?>
<svg fill="#000000" version="1.1" viewBox="0 0 5.1719 7.2812" xmlns="http://www.w3.org/2000/svg" xmlns:xlink="http://www.w3.org/1999/xlink">
<defs>
<g id="a">
<path d="m5.8594-2.3594c0 0.5625-0.23438 1.1094-0.625 1.5s-0.92188 0.60938-1.4844 0.60938-1.0938-0.21875-1.5-0.625c-0.39062-0.375-0.60938-0.92188-0.60938-1.4844 0-0.54688 0.21875-1.0938 0.625-1.4844 0.39062-0.39062 0.92188-0.625 1.4844-0.625s1.0938 0.23438 1.4844 0.625 0.625 0.9375 0.625 1.4844zm0.375-4.625c-0.015625-0.078125-0.09375-0.14062-0.17188-0.14062-0.10938 0-0.20312 0.078125-0.20312 0.1875 0 0.17188 0.0625 0.3125 0.0625 0.45312 0 0.85938-0.95312 1.625-2.1719 1.625-1.2344 0-2.1875-0.76562-2.1875-1.625 0-0.14062 0.078125-0.29688 0.078125-0.4375 0-0.125-0.09375-0.20312-0.20312-0.20312-0.078125 0-0.15625 0.0625-0.1875 0.14062-0.0625 0.17188-0.09375 0.34375-0.09375 0.51562 0 0.82812 0.65625 1.5156 1.5625 1.8281-0.28125 0.125-0.53125 0.29688-0.75 0.51562-0.46875 0.46875-0.73438 1.1094-0.73438 1.7656 0 0.67188 0.26562 1.3125 0.73438 1.7812s1.1094 0.73438 1.7812 0.73438c0.65625 0 1.2969-0.26562 1.7656-0.73438s0.73438-1.1094 0.73438-1.7812c0-0.65625-0.26562-1.2969-0.73438-1.7656-0.21875-0.21875-0.46875-0.39062-0.73438-0.51562 0.89062-0.3125 1.5469-0.98438 1.5469-1.8125 0-0.17188-0.03125-0.35938-0.09375-0.53125z"/>
</g>
</defs>
<g transform="translate(-149.87 -127.64)">
<use x="148.71201" y="134.765" xlink:href="#a"/>
</g>
</svg>
