<?xml version="1.0" encoding="UTF-8"?>
<svg fill="#000000" version="1.1" viewBox="0 0 4.1406 6.7969" xmlns="http://www.w3.org/2000/svg" xmlns:xlink="http://www.w3.org/1999/xlink">
<defs>
<g id="a">
<path d="m0.14062-6.8125v0.29688c0.23438 0 0.48438 0 0.71875 0.03125 0.125 0.015625 0.23438 0.03125 0.29688 0.14062s0.046875 0.26562 0.046875 0.40625v5.0469c0 0.125 0.03125 0.29688-0.046875 0.40625-0.0625 0.10938-0.20312 0.125-0.3125 0.14062-0.23438 0.03125-0.46875 0.03125-0.70312 0.03125v0.29688h4.1406v-0.29688c-0.25 0-0.46875 0-0.71875-0.03125-0.10938-0.015625-0.23438-0.03125-0.29688-0.14062-0.078125-0.10938-0.0625-0.28125-0.0625-0.40625v-5.0469c0-0.14062-0.015625-0.29688 0.0625-0.40625 0.0625-0.10938 0.17188-0.125 0.29688-0.14062 0.23438-0.03125 0.46875-0.03125 0.71875-0.03125v-0.29688zm2.7656 0.29688v6.2031h-0.79688v-6.2031z"/>
</g>
</defs>
<g transform="translate(-148.85 -127.95)">
<use x="148.71201" y="134.765" xlink:href="#a"/>
</g>
</svg>
