<?xml version="1.0" encoding="UTF-8"?>
<svg fill="#000000" version="1.1" viewBox="0 0 3.3575 4.3947" xmlns="http://www.w3.org/2000/svg" xmlns:xlink="http://www.w3.org/1999/xlink">
<defs>
<g id="a">
<path d="m0.26562-0.3125v0.29688l0.4375-0.015625 0.96875-0.015625 1.0156 0.03125v-0.29688c-0.20312 0-0.42188 0-0.60938-0.03125-0.10938 0-0.21875-0.03125-0.28125-0.10938-0.078125-0.078125-0.078125-0.1875-0.078125-0.29688v-2.125c0-0.29688-0.046875-0.60938 0.10938-0.89062 0.28125-0.46875 0.9375-0.57812 1.3594-0.20312-0.14062 0-0.25 0.0625-0.32812 0.15625-0.14062 0.17188-0.125 0.45312 0.046875 0.59375 0.046875 0.03125 0.10938 0.0625 0.17188 0.09375 0.046875 0.015625 0.10938 0.015625 0.17188 0 0.046875 0 0.09375-0.015625 0.15625-0.03125 0.28125-0.14062 0.25-0.5 0.125-0.75-0.26562-0.53125-0.95312-0.5625-1.4531-0.45312-0.10938 0.03125-0.20312 0.0625-0.29688 0.10938-0.10938 0.046875-0.25 0.10938-0.34375 0.20312-0.125 0.10938-0.21875 0.23438-0.28125 0.39062-0.015625 0.0625-0.03125 0.125-0.046875 0.20312-0.015625 0.046875-0.046875 0.078125-0.0625 0.14062-0.015625 0.046875 0 0.125 0 0.1875v2.375c0 0.10938 0 0.23438-0.0625 0.32812-0.078125 0.046875-0.15625 0.078125-0.25 0.078125-0.15625 0.03125-0.3125 0.03125-0.46875 0.03125z"/>
</g>
</defs>
<g transform="translate(-148.98 -130.35)">
<use x="148.71201" y="134.765" xlink:href="#a"/>
</g>
</svg>
