<?xml version="1.0" encoding="UTF-8"?>
<svg fill="#000000" width="7.4375" height="8.0938" version="1.1" viewBox="0 0 7.4375 8.0937" xmlns="http://www.w3.org/2000/svg" xmlns:xlink="http://www.w3.org/1999/xlink">
<defs>
<g id="a">
<path d="m0.875-2 2.4062-0.875v2.1406h-1.7344c-0.125 0-0.23438 0.09375-0.23438 0.21875 0 0.14062 0.10938 0.23438 0.23438 0.23438h5.7031c0.125 0 0.23438-0.09375 0.23438-0.23438 0-0.125-0.10938-0.21875-0.23438-0.21875h-1.7344v-2.9531l2.5-0.90625c0.0625-0.015625 0.09375-0.078125 0.09375-0.14062v-0.046875c-0.03125-0.078125-0.125-0.125-0.1875-0.09375l-2.4062 0.875v-2.375c0-0.10938-0.10938-0.21875-0.23438-0.21875s-0.23438 0.10938-0.23438 0.21875v2.5312l-1.3125 0.48438v-3.0156c0-0.10938-0.10938-0.21875-0.21875-0.21875-0.14062 0-0.23438 0.10938-0.23438 0.21875v3.1875l-2.5 0.90625c-0.0625 0.015625-0.10938 0.078125-0.10938 0.14062 0 0.10938 0.10938 0.17188 0.20312 0.14062zm0.67188 3.5h5.7031c0.125 0 0.23438-0.10938 0.23438-0.21875 0-0.14062-0.10938-0.23438-0.23438-0.23438h-5.7031c-0.125 0-0.23438 0.09375-0.23438 0.23438 0 0.10938 0.10938 0.21875 0.23438 0.21875zm3.5-5.0156v2.7812h-1.3125v-2.3125z"/>
</g>
</defs>
<g transform="translate(-149.38 -128.17)">
<use x="148.71201" y="134.765" xlink:href="#a"/>
</g>
</svg>
