<?xml version="1.0" encoding="UTF-8"?>
<svg fill="#000000" version="1.1" viewBox="0 0 6.8281 7.375" xmlns="http://www.w3.org/2000/svg" xmlns:xlink="http://www.w3.org/1999/xlink">
<defs>
<g id="a">
<path d="m3.2969-5.9375c-0.14062 0.10938-0.45312 0.51562-1.1875 1.75-0.29688 0.5-0.51562 1.25-1.6094 1.25v0.3125l1.2188-0.03125 0.96875 0.03125v-0.3125c-0.25 0-0.70312-0.10938-0.70312-0.42188 0-0.21875 0.25-0.51562 0.375-0.75 0.84375-1.3906 0.85938-1.25 1.0938-1.625 0.21875 0.23438 1.2188 1.5938 1.5781 2.4375 0.10938 0.29688 0.078125 0.15625-0.09375 0.375l-0.39062 0.46875c-0.40625 0.53125-0.67188 0.92188-0.67188 1.4219 0 0.42188 0.1875 1.2656 0.90625 1.2656 0.26562 0 1.3438-0.23438 1.3438-1.6875 0-0.95312-0.39062-1.8906-0.39062-1.9375 0-0.09375 0.09375-0.09375 0.42188-0.46875 0.46875-0.53125 1.1719-1.0312 1.1719-1.7969 0-0.79688-0.75-1.4844-1.8281-1.4844-1.125 0-1.6562 0.73438-1.7812 0.73438h-0.015625c-0.0625 0-0.1875-0.14062-0.23438-0.1875-0.39062-0.28125-0.875-0.54688-1.4688-0.54688-0.875 0-1.4531 0.65625-1.4531 1.4219h0.26562c0-0.59375 0.53125-1.0938 1.1094-1.0938 0.6875 0 1.1875 0.73438 1.375 0.875zm3.1875 0.65625c0 0.29688-0.046875 0.60938-0.1875 0.85938-0.14062 0.21875-0.57812 0.70312-0.67188 0.76562-0.28125-0.65625-0.6875-1.2656-1.125-1.8281-0.4375-0.59375-0.5-0.5625-0.57812-0.71875 0.51562-0.39062 0.9375-0.60938 1.5469-0.60938 0.8125 0 1.0156 0.98438 1.0156 1.5312zm-1.7344 5.2656c-0.48438 0-0.60938-0.6875-0.60938-1.0469 0-0.78125 1.0625-1.7812 1.0625-1.7812 0.125 0.5 0.29688 1.0156 0.29688 1.6719 0 0.89062-0.45312 1.1562-0.75 1.1562z"/>
</g>
</defs>
<g transform="translate(-149.21 -127.62)">
<use x="148.71201" y="134.765" xlink:href="#a"/>
</g>
</svg>
