<?xml version="1.0" encoding="UTF-8"?>
<svg fill="#000000" version="1.1" viewBox="0 0 7.1562 7.1562" xmlns="http://www.w3.org/2000/svg" xmlns:xlink="http://www.w3.org/1999/xlink">
<defs>
<g id="a">
<path d="m8.4062 1.1094c0-0.046875-0.015625-0.10938-0.0625-0.15625l-1.75-1.7344 0.60938-1.2812 2.0625 2.0781c0.0625 0.046875 0.10938 0.0625 0.17188 0.0625 0.125 0 0.23438-0.09375 0.23438-0.23438 0-0.046875-0.03125-0.10938-0.078125-0.15625l-2.1875-2.1875 0.73438-1.5938c0.03125-0.078125 0-0.15625-0.078125-0.1875-0.0625-0.046875-0.15625 0-0.20312 0.0625l-0.6875 1.4844-1.9531-1.9531c0.125 0.015625 0.25 0.015625 0.35938 0.015625h0.14062c0.29688 0 0.53125-0.015625 0.53125-0.25 0-0.125-0.09375-0.23438-0.23438-0.23438-0.0625 0-0.28125 0.046875-0.73438 0.046875-0.85938 0-1.7031-0.17188-2.4062-0.65625-0.03125-0.03125-0.078125-0.046875-0.125-0.046875-0.14062 0-0.23438 0.125-0.23438 0.23438 0 0.25 0.6875 0.6875 0.6875 2.5312 0 0.45312-0.03125 0.67188-0.03125 0.75 0 0.125 0.09375 0.21875 0.23438 0.21875 0.21875 0 0.25-0.21875 0.25-0.5v-0.15625c0-0.125 0-0.25-0.015625-0.35938l2.5312 2.5312-0.73438 1.5781c-0.046875 0.078125 0 0.15625 0.0625 0.1875 0.078125 0.046875 0.17188 0.015625 0.20312-0.0625l0.6875-1.4844 1.625 1.625c0.046875 0.03125 0.09375 0.0625 0.15625 0.0625 0.125 0 0.23438-0.09375 0.23438-0.23438zm-2.0312-2.125-2.7656-2.7656c-0.015625-0.15625-0.015625-0.3125-0.015625-0.46875 0-0.14062 0-0.3125 0.03125-0.45312 0.14062-0.015625 0.29688-0.015625 0.45312-0.015625h0.46875l2.4219 2.4219z"/>
</g>
</defs>
<g transform="translate(-151.23 -128.95)">
<use x="148.71201" y="134.765" xlink:href="#a"/>
</g>
</svg>
