<?xml version="1.0" encoding="UTF-8"?>
<svg fill="#000000" version="1.1" viewBox="0 0 6.3943 8.9715" xmlns="http://www.w3.org/2000/svg" xmlns:xlink="http://www.w3.org/1999/xlink">
<defs>
<g id="a">
<path d="m2.1094 0.8125c-0.21875-0.046875-0.4375-0.09375-0.67188-0.125-0.1875-0.03125-0.375-0.046875-0.54688-0.0625-0.078125-0.015625-0.1875-0.046875-0.26562-0.03125-0.0625 0.015625-0.10938 0.0625-0.09375 0.125 0 0.0625 0.0625 0.17188 0.125 0.21875s0.14062 0.0625 0.21875 0.078125c0.125 0.046875 0.26562 0.078125 0.39062 0.125 0.39062 0.14062 0.76562 0.29688 1.1406 0.48438 0.15625 0.078125 0.3125 0.17188 0.46875 0.26562 0.0625 0.015625 0.14062 0.078125 0.21875 0.03125 0.0625-0.046875 0.03125-0.14062 0.03125-0.21875-0.015625-0.1875-0.03125-0.375-0.03125-0.5625-0.015625-0.39062 0.015625-0.79688 0.0625-1.1875 0.03125-0.10938 0.046875-0.25 0.0625-0.35938 0.015625-0.0625 0.03125-0.125 0.03125-0.1875 0-0.078125-0.0625-0.1875-0.125-0.25-0.046875-0.03125-0.10938-0.03125-0.14062 0-0.046875 0.046875-0.0625 0.10938-0.078125 0.15625-0.046875 0.09375-0.078125 0.1875-0.125 0.28125-0.046875 0.125-0.078125 0.25-0.125 0.35938-0.078125 0.20312-0.15625 0.42188-0.1875 0.64062-0.10938-0.14062-0.17188-0.29688-0.25-0.4375-0.14062-0.28125-0.28125-0.5625-0.39062-0.84375-0.29688-0.78125-0.51562-1.5938-0.57812-2.4375-0.015625-0.25-0.03125-0.51562 0-0.76562 0.0625-0.60938 0.28125-1.1875 0.65625-1.6562 0.14062-0.17188 0.28125-0.32812 0.45312-0.45312 0.23438-0.17188 0.48438-0.3125 0.76562-0.40625 0.20312-0.078125 0.4375-0.10938 0.65625-0.125 0.1875-0.015625 0.35938 0.015625 0.54688 0.046875 1.0781 0.21875 1.875 1.125 2.125 2.1875 0.078125 0.39062 0.078125 0.78125 0.046875 1.1719-0.046875 0.75-0.23438 1.4844-0.48438 2.2031-0.25 0.65625-0.5625 1.2812-0.9375 1.875-0.17188 0.28125-0.35938 0.57812-0.57812 0.84375l0.3125 0.25c0.0625-0.0625 0.10938-0.14062 0.15625-0.20312 0.078125-0.10938 0.15625-0.20312 0.21875-0.3125 0.25-0.375 0.48438-0.75 0.6875-1.1562 0.15625-0.3125 0.3125-0.64062 0.4375-0.96875 0.10938-0.25 0.20312-0.51562 0.28125-0.76562 0.14062-0.46875 0.21875-0.9375 0.28125-1.4062 0.046875-0.39062 0.0625-0.78125 0.03125-1.1562-0.046875-0.59375-0.25-1.1562-0.57812-1.6562-0.09375-0.15625-0.21875-0.29688-0.35938-0.4375-0.1875-0.1875-0.39062-0.35938-0.625-0.5-0.26562-0.15625-0.5625-0.26562-0.85938-0.34375-0.92188-0.20312-1.875 0.078125-2.5781 0.70312-0.34375 0.32812-0.625 0.75-0.8125 1.2031-0.15625 0.375-0.23438 0.78125-0.25 1.1875-0.015625 0.17188 0 0.32812 0 0.5 0.03125 0.4375 0.078125 0.875 0.17188 1.2969 0.17188 0.76562 0.4375 1.4844 0.78125 2.1719 0.09375 0.20312 0.20312 0.40625 0.3125 0.60938z"/>
</g>
</defs>
<g transform="translate(-149.24 -127.84)">
<use x="148.71201" y="134.765" xlink:href="#a"/>
</g>
</svg>
