<?xml version="1.0" encoding="UTF-8"?>
<svg fill="#000000" version="1.1" viewBox="0 0 4.7969 7.4219" xmlns="http://www.w3.org/2000/svg" xmlns:xlink="http://www.w3.org/1999/xlink">
<defs>
<g id="a">
<path d="m2.9688-2.6719c-0.0625-0.03125-0.10938-0.046875-0.17188-0.0625 0.078125-0.03125 0.15625-0.0625 0.21875-0.09375zm1.0156-3.7812-0.75 2.7812c-0.60938 0.375-1.2812 0.60938-2.0156 0.60938h-0.32812v0.64062h0.32812c0.5625 0 1.0938 0.14062 1.5938 0.375l-0.78125 2.8594 0.5625 0.15625 0.73438-2.7344c0.70312 0.4375 1.3125 1.0312 1.8906 1.6406l0.46875-0.4375c-0.65625-0.6875-1.375-1.375-2.1875-1.8438l0.21875-0.8125c0.71875-0.45312 1.3594-1.0625 1.9688-1.7031l-0.46875-0.4375c-0.39062 0.42188-0.8125 0.82812-1.25 1.1875l0.57812-2.125z"/>
</g>
</defs>
<g transform="translate(-149.6 -128.31)">
<use x="148.71201" y="134.765" xlink:href="#a"/>
</g>
</svg>
