<?xml version="1.0" encoding="UTF-8"?>
<svg fill="#000000" version="1.1" viewBox="0 0 7.5156 7.5312" xmlns="http://www.w3.org/2000/svg" xmlns:xlink="http://www.w3.org/1999/xlink">
<defs>
<g id="a">
<path d="m7.125 0.98438c0-0.0625-0.03125-0.10938-0.078125-0.15625l-1.5938-1.6094 1.0781-2.2969 2.2188 2.2031c0.046875 0.046875 0.10938 0.078125 0.15625 0.078125 0.10938 0 0.21875-0.09375 0.21875-0.23438 0-0.0625-0.015625-0.10938-0.046875-0.17188l-2.3438-2.3281 0.5625-1.2031c0.03125-0.078125 0-0.15625-0.0625-0.1875-0.09375-0.046875-0.17188-0.015625-0.20312 0.0625l-0.51562 1.1094-1.625-1.625h0.03125c0.375 0 0.75 0.046875 1.1406 0.046875h0.09375c0.21875 0 0.45312-0.015625 0.45312-0.25 0-0.14062-0.10938-0.21875-0.23438-0.21875-0.0625 0-0.21875 0.015625-0.57812 0.015625-1.375 0-1.75-0.53125-1.9375-0.53125-0.15625 0-0.23438 0.10938-0.23438 0.23438 0 0.20312 0.53125 0.5625 0.53125 1.9531 0 0.10938 0 0.23438-0.015625 0.34375-0.10938 0.015625-0.23438 0.015625-0.35938 0.015625-1.375 0-1.75-0.53125-1.9531-0.53125-0.14062 0-0.21875 0.10938-0.21875 0.23438 0 0.1875 0.53125 0.5625 0.53125 1.9531 0 0.32812-0.03125 0.51562-0.03125 0.5625 0 0.125 0.09375 0.23438 0.23438 0.23438 0.23438 0 0.23438-0.25 0.23438-0.48438v-0.0625c0-0.39062-0.03125-0.78125-0.03125-1.1875l2.4844 2.4844-0.57812 1.2031c-0.03125 0.078125 0 0.17188 0.078125 0.20312s0.15625 0 0.1875-0.078125l0.53125-1.0938 1.4844 1.4688c0.03125 0.0625 0.09375 0.078125 0.15625 0.078125 0.125 0 0.23438-0.09375 0.23438-0.23438zm-2.5156-4.8594c0-0.39062-0.046875-0.79688-0.046875-1.1719l1.7344 1.7344-1.0781 2.3125-2.3438-2.3594h0.015625c0.39062 0 0.76562 0.046875 1.1562 0.046875 0.51562 0 0.5625-0.03125 0.5625-0.5625z"/>
</g>
</defs>
<g transform="translate(-150.32 -128.45)">
<use x="148.71201" y="134.765" xlink:href="#a"/>
</g>
</svg>
