<?xml version="1.0" encoding="UTF-8"?>
<svg fill="#000000" version="1.1" viewBox="0 0 7.1875 4.5781" xmlns="http://www.w3.org/2000/svg" xmlns:xlink="http://www.w3.org/1999/xlink">
<defs>
<g id="a">
<path d="m2.4062-0.10938c-0.21875 0-1.3594-0.09375-1.3594-2.1094 0-1.9219 1.1094-2.0312 1.3594-2.0312 0.1875 0 1.4062 0.078125 1.4062 2.0312 0 1.9062-1.0781 2.1094-1.4062 2.1094zm2.0938-2.4062c0.10938-1.4531 0.9375-1.7344 1.2969-1.7344 0.9375 0 0.98438 1.3438 1.0156 1.7344zm0 0.21875h2.7188c0.21875 0 0.25 0 0.25-0.21875 0-1.1094-0.57812-1.9531-1.6719-1.9531-0.625 0-1.25 0.34375-1.6562 1.0156-0.35938-0.57812-0.98438-1.0156-1.7344-1.0156-1.1406 0-2.125 0.98438-2.125 2.2812s0.96875 2.2969 2.125 2.2969c0.79688 0 1.4219-0.48438 1.75-1.0312 0.4375 0.71875 1.1562 1.0312 1.7656 1.0312 1.125 0 1.5469-1.1094 1.5469-1.2969 0-0.09375-0.078125-0.125-0.125-0.125-0.09375 0-0.10938 0.046875-0.15625 0.20312-0.15625 0.5-0.60938 0.96875-1.2188 0.96875-0.10938 0-1.4688 0-1.4688-2.1562z"/>
</g>
</defs>
<g transform="translate(-148.99 -130.3)">
<use x="148.71201" y="134.765" xlink:href="#a"/>
</g>
</svg>
