<?xml version="1.0" encoding="UTF-8"?>
<svg fill="#000000" version="1.1" viewBox="0 0 7.6562 4.4844" xmlns="http://www.w3.org/2000/svg" xmlns:xlink="http://www.w3.org/1999/xlink">
<defs>
<g id="a">
<path d="m4.7812-2.7344c-0.59375 0.6875-1.0156 1.5938-1.9375 1.5938-0.78125 0-1.3125-0.76562-1.3125-1.5938 0-0.84375 0.53125-1.6094 1.3125-1.6094 0.92188 0 1.3438 0.92188 1.9375 1.6094zm3.7656-2.25h-0.79688c-1.0938 0-1.7812 0.96875-2.5312 1.7812-0.71875-0.79688-1.3281-1.7812-2.375-1.7812-1.125 0-1.9531 1.0469-1.9531 2.25 0 1.1719 0.82812 2.2344 1.9531 2.2344 1.0469 0 1.6562-0.98438 2.375-1.7656 0.75 0.79688 1.4375 1.7656 2.5312 1.7656h0.79688v-0.64062h-0.79688c-0.9375 0-1.4844-0.89062-2.1094-1.5938 0.625-0.71875 1.1719-1.6094 2.1094-1.6094h0.79688z"/>
</g>
</defs>
<g transform="translate(-149.6 -129.78)">
<use x="148.71201" y="134.765" xlink:href="#a"/>
</g>
</svg>
