<?xml version="1.0" encoding="UTF-8"?>
<svg fill="#000000" version="1.1" viewBox="0 0 7.3281 7.3281" xmlns="http://www.w3.org/2000/svg" xmlns:xlink="http://www.w3.org/1999/xlink">
<defs>
<g id="a">
<path d="m7.75-3.5781c0-2.0312-1.6406-3.6562-3.6562-3.6562-2.0312 0-3.6719 1.625-3.6719 3.6562 0 2.0781 1.625 3.6719 3.6719 3.6719s3.6562-1.625 3.6562-3.6719zm-0.57812 0c0 1.75-1.3438 3.0938-3.0781 3.0938-1.7188 0-3.0938-1.375-3.0938-3.0938 0-1.7031 1.3906-3.0781 3.0938-3.0781 2.0781 0 3.0781 1.7656 3.0781 3.0781zm-1.4062-1.25-0.0625-0.17188c-0.046875-0.14062-0.23438-0.25-0.34375-0.25l-0.1875 0.0625-0.125 0.09375c-0.0625 0.09375-0.09375 0.17188-0.09375 0.26562 0.0625 0.29688 0.25 0.40625 0.40625 0.40625l0.28125-0.15625c0.078125-0.10938 0.125-0.20312 0.125-0.25zm-2.5312 0-0.125-0.3125c-0.0625-0.046875-0.09375-0.0625-0.15625-0.078125l-0.125-0.03125c-0.17188 0.0625-0.28125 0.10938-0.3125 0.14062l-0.10938 0.28125 0.10938 0.26562c0.17188 0.09375 0.26562 0.125 0.3125 0.125 0.35938-0.14062 0.40625-0.23438 0.40625-0.39062zm-1.2031 1.7031c0.76562 1.1875 1.5 1.7812 2.1875 1.7812 0.65625 0 1.2812-0.54688 1.8594-1.625 0.125 0.078125 0.20312 0.20312 0.23438 0.34375v-0.1875c0-0.28125-0.125-0.42188-0.375-0.42188-0.10938 0-0.26562 0.03125-0.4375 0.078125 0.21875 0.015625 0.40625 0.0625 0.53125 0.15625-0.625 0.53125-1.25 0.8125-1.8906 0.8125-0.6875 0-1.375-0.32812-2.0938-0.95312 0.14062-0.09375 0.32812-0.15625 0.5625-0.17188-0.17188-0.0625-0.3125-0.09375-0.4375-0.09375-0.25 0-0.375 0.14062-0.375 0.4375v0.1875c0.03125-0.14062 0.10938-0.26562 0.23438-0.34375z"/>
</g>
</defs>
<g transform="translate(-149.13 -127.53)">
<use x="148.71201" y="134.765" xlink:href="#a"/>
</g>
</svg>
