<?xml version="1.0" encoding="UTF-8"?>
<svg fill="#000000" width="6.6562" height="7.4688" version="1.1" viewBox="0 0 6.6562 7.4687" xmlns="http://www.w3.org/2000/svg" xmlns:xlink="http://www.w3.org/1999/xlink">
<defs>
<g id="a">
<path d="m3.875-6.0312c-0.20312-0.42188-0.75-1.1094-1.6562-1.1094-1.1719 0-1.6719 1.0156-1.6719 2.2656 0 0.92188 0.375 1.875 1.8281 3.2656 0.23438 0.1875 0.5625 0.5 0.64062 0.60938 0.28125 0.32812 0.46875 0.65625 0.64062 1.1094 0.046875 0.125 0.09375 0.21875 0.21875 0.21875 0.14062 0 0.1875-0.10938 0.20312-0.17188 0.34375-0.84375 0.64062-1.1562 0.95312-1.4531 1.0938-1.0312 2.1719-2.0781 2.1719-3.5781 0-1.2812-0.51562-2.2656-1.6562-2.2656-0.90625 0-1.4531 0.67188-1.6719 1.1094zm0 5.6406c-0.125-0.28125-0.42188-0.79688-0.85938-1.1875-1.7188-1.5469-2.0625-2.4531-2.0625-3.2969 0-0.64062 0.14062-1.8594 1.2656-1.8594 0.28125 0 1.2031 0.10938 1.4531 1.4062 0.046875 0.1875 0.1875 0.20312 0.20312 0.20312 0.15625 0 0.1875-0.14062 0.21875-0.23438 0.21875-1.1094 0.98438-1.375 1.4531-1.375 0.375 0 0.76562 0.14062 1 0.5625 0.26562 0.51562 0.26562 1.1719 0.26562 1.2969 0 0.59375-0.15625 1.5-1.6875 2.9531-0.64062 0.59375-0.92188 0.85938-1.25 1.5312z"/>
</g>
</defs>
<g transform="translate(-149.26 -127.62)">
<use x="148.71201" y="134.765" xlink:href="#a"/>
</g>
</svg>
