<?xml version="1.0" encoding="UTF-8"?>
<svg fill="#000000" version="1.1" viewBox="0 0 6.3764 8.8488" xmlns="http://www.w3.org/2000/svg" xmlns:xlink="http://www.w3.org/1999/xlink">
<defs>
<g id="a">
<path d="m3.6719-4.6406h-0.67188c-0.17188 0-0.32812 0-0.5 0.03125-0.40625 0.046875-0.79688 0.1875-1.125 0.45312-0.1875 0.14062-0.34375 0.3125-0.46875 0.5-0.09375 0.15625-0.1875 0.32812-0.23438 0.5-0.25 0.71875-0.078125 1.5 0.42188 2.0625 0.1875 0.20312 0.40625 0.35938 0.625 0.46875 0.25 0.125 0.53125 0.20312 0.79688 0.25h0.48438 0.67188v1.8125 0.3125c0 0.046875 0 0.10938 0.046875 0.14062 0.046875 0.046875 0.125 0.03125 0.17188 0.03125 0.03125 0 0.078125 0 0.10938-0.015625 0.0625-0.015625 0.078125-0.078125 0.078125-0.14062v-0.40625-1.7344h2.6719c0.0625 0 0.14062 0 0.17188-0.078125 0.015625-0.078125 0.03125-0.25-0.046875-0.29688-0.046875-0.03125-0.10938-0.015625-0.17188-0.015625h-2.625v-3.4688h2.6719c0.0625 0 0.14062-0.015625 0.17188-0.09375 0.015625-0.078125 0.03125-0.23438-0.046875-0.28125-0.046875-0.03125-0.10938-0.03125-0.17188-0.03125h-2.625v-1.7344-0.39062c0-0.0625-0.015625-0.125-0.078125-0.15625h-0.10938c-0.046875 0-0.125-0.015625-0.17188 0.03125-0.046875 0.03125-0.046875 0.09375-0.046875 0.14062v0.3125zm0 0.40625v3.4688h-0.65625c-0.21875 0-0.40625 0-0.60938-0.046875-0.26562-0.046875-0.51562-0.15625-0.71875-0.29688-0.1875-0.14062-0.32812-0.29688-0.45312-0.46875-0.09375-0.14062-0.15625-0.28125-0.20312-0.4375-0.046875-0.17188-0.078125-0.35938-0.078125-0.54688 0.03125-0.625 0.4375-1.2031 0.98438-1.4844 0.35938-0.17188 0.71875-0.1875 1.1094-0.1875z"/>
</g>
</defs>
<g transform="translate(-149.27 -127.84)">
<use x="148.71201" y="134.765" xlink:href="#a"/>
</g>
</svg>
