<?xml version="1.0" encoding="UTF-8"?>
<svg fill="#000000" version="1.1" viewBox="0 0 3.9375 3.9375" xmlns="http://www.w3.org/2000/svg" xmlns:xlink="http://www.w3.org/1999/xlink">
<defs>
<g id="a">
<path d="m4.5-1.3594-1.1875-1.1875 1.1875-1.1875zm-3.4688-2.9219c0 0.046875 0.015625 0.10938 0.0625 0.15625l1.5781 1.5781-1.5781 1.5781c-0.046875 0.046875-0.0625 0.09375-0.0625 0.15625 0 0.125 0.078125 0.23438 0.21875 0.23438 0.0625 0 0.10938-0.015625 0.17188-0.0625l1.5625-1.5781 1.5938 1.5781c0.03125 0.046875 0.09375 0.0625 0.15625 0.0625 0.125 0 0.23438-0.09375 0.23438-0.23438v-3.4688c0-0.14062-0.10938-0.23438-0.23438-0.23438-0.0625 0-0.125 0.015625-0.15625 0.0625l-1.5938 1.5781-1.5625-1.5781c-0.0625-0.046875-0.10938-0.0625-0.17188-0.0625-0.10938 0-0.21875 0.09375-0.21875 0.23438z"/>
</g>
</defs>
<g transform="translate(-149.74 -130.25)">
<use x="148.71201" y="134.765" xlink:href="#a"/>
</g>
</svg>
