<?xml version="1.0" encoding="UTF-8"?>
<svg fill="#000000" version="1.1" viewBox="0 0 5.5 7.4844" xmlns="http://www.w3.org/2000/svg" xmlns:xlink="http://www.w3.org/1999/xlink">
<defs>
<g id="a">
<path d="m0.64062 0.21875c1.0469-0.96875 1.6562-2.1562 1.8594-3.5469h1.1406c0.54688 2.3125 1.25 3.4688 2.125 3.4688-0.71875-0.67188-1.0781-1.8125-1.0781-3.4219l1 0.21875c0.0625-0.125 0.09375-0.25 0.09375-0.35938s-0.35938-0.23438-1.0938-0.34375c0-1.2344 0.34375-2.3906 1-3.4219-1.2344 0.96875-1.9219 2.0625-2.0625 3.2969h-1.125c0-0.85938-0.3125-1.7188-0.9375-2.5938-0.25-0.35938-0.6875-0.60938-1.2812-0.78125 0.5625 0.39062 1.0469 1.7656 1.1406 3.2656 0 0.17188-0.046875 0.26562-0.14062 0.29688l-0.78125 0.21875-0.078125 0.5 1-0.29688c0 1.4375-0.20312 2.0312-0.78125 3.5z"/>
</g>
</defs>
<g transform="translate(-148.99 -127.5)">
<use x="148.71201" y="134.765" xlink:href="#a"/>
</g>
</svg>
