<?xml version="1.0" encoding="UTF-8"?>
<svg fill="#000000" width="5.2188" height="6.2188" version="1.1" viewBox="0 0 5.2188 6.2187" xmlns="http://www.w3.org/2000/svg" xmlns:xlink="http://www.w3.org/1999/xlink">
<defs>
<g id="a">
<path d="m6.3906-2.3281c0.125 0 0.23438-0.09375 0.23438-0.21875 0-0.0625-0.03125-0.23438-0.03125-0.57812 0-1.375 0.53125-1.75 0.53125-1.9531 0-0.14062-0.10938-0.21875-0.23438-0.21875-0.20312 0-0.5625 0.51562-1.9531 0.51562-0.34375 0-0.51562-0.015625-0.57812-0.015625-0.10938 0-0.21875 0.09375-0.21875 0.23438 0 0.21875 0.23438 0.23438 0.48438 0.23438h0.0625c0.375 0 0.76562-0.03125 1.1406-0.03125h0.03125l-3.6719 3.6719c-0.1875 0.17188-0.28125 0.42188-0.28125 0.67188 0 0.53125 0.4375 0.9375 0.9375 0.9375 0.39062 0 0.73438-0.25 0.73438-0.4375 0-0.125-0.09375-0.23438-0.23438-0.23438-0.17188 0-0.1875 0.20312-0.5 0.20312-0.28125 0-0.48438-0.21875-0.48438-0.46875 0-0.14062 0.046875-0.25 0.14062-0.34375l3.6875-3.6875c0 0.39062-0.046875 0.78125-0.046875 1.1719v0.10938c0 0.20312 0.015625 0.4375 0.25 0.4375z"/>
</g>
</defs>
<g transform="translate(-150.62 -129.47)">
<use x="148.71201" y="134.765" xlink:href="#a"/>
</g>
</svg>
