<?xml version="1.0" encoding="UTF-8"?>
<svg fill="#000000" version="1.1" viewBox="0 0 6.75 6.1094" xmlns="http://www.w3.org/2000/svg" xmlns:xlink="http://www.w3.org/1999/xlink">
<defs>
<g id="a">
<path d="m7.1875-5.4688c0-0.21875-0.0625-0.29688-0.14062-0.29688-0.09375 0-0.125 0.15625-0.14062 0.26562-0.03125 0.67188-0.73438 1.0938-1.375 1.0938-0.59375 0-1.0469-0.29688-1.7188-0.75-0.4375-0.28125-0.96875-0.625-1.5938-0.625-0.92188 0-1.6562 0.70312-1.6562 1.625 0 0.21875 0.0625 0.29688 0.14062 0.29688 0.10938 0 0.14062-0.17188 0.14062-0.23438 0.046875-0.82812 0.875-1.125 1.375-1.125 0.59375 0 1.0469 0.29688 1.7188 0.75 0.42188 0.26562 0.95312 0.625 1.5938 0.625 0.92188 0 1.6562-0.70312 1.6562-1.625zm-6.3281 5.4062c-0.17188 0-0.35938 0-0.35938 0.1875 0 0.20312 0.17188 0.20312 0.34375 0.20312h6.0469c0.17188 0 0.35938 0 0.35938-0.20312 0-0.1875-0.1875-0.1875-0.35938-0.1875zm6.3281-3.0781c0-0.20312-0.0625-0.3125-0.14062-0.3125-0.10938 0-0.125 0.17188-0.14062 0.32812-0.046875 0.5625-0.67188 1.0469-1.375 1.0469-0.59375 0-1.0469-0.29688-1.7188-0.75-0.4375-0.28125-0.96875-0.625-1.5938-0.625-0.92188 0-1.6562 0.6875-1.6562 1.625 0 0.21875 0.0625 0.29688 0.14062 0.29688 0.10938 0 0.14062-0.1875 0.14062-0.23438 0.046875-0.84375 0.875-1.1406 1.375-1.1406 0.59375 0 1.0469 0.29688 1.7188 0.75 0.42188 0.28125 0.95312 0.625 1.5938 0.625 0.9375 0 1.6562-0.71875 1.6562-1.6094z"/>
</g>
</defs>
<g transform="translate(-149.21 -128.98)">
<use x="148.71201" y="134.765" xlink:href="#a"/>
</g>
</svg>
