<?xml version="1.0" encoding="UTF-8"?>
<svg fill="#000000" version="1.1" viewBox="0 0 3.8952 7.0271" xmlns="http://www.w3.org/2000/svg" xmlns:xlink="http://www.w3.org/1999/xlink">
<defs>
<g id="a">
<path d="m1.5156-0.3125v0.29688l0.375-0.015625 0.73438-0.015625 0.75 0.015625 0.39062 0.015625v-0.29688c-0.17188 0-0.32812 0-0.48438-0.03125-0.078125 0-0.15625-0.015625-0.20312-0.078125-0.0625-0.0625-0.09375-0.14062-0.09375-0.21875-0.015625-0.20312 0-0.39062 0-0.57812v-2.0781c0-0.0625 0.015625-0.15625-0.015625-0.21875-0.03125-0.078125-0.20312-0.078125-0.28125-0.09375-0.21875-0.046875-0.42188-0.14062-0.60938-0.26562-0.078125-0.0625-0.17188-0.14062-0.25-0.21875-0.45312-0.46875-0.5-1.1562-0.40625-1.7656 0.046875-0.29688 0.1875-0.57812 0.4375-0.75 0.1875-0.125 0.40625-0.17188 0.60938-0.20312 0.375-0.03125 0.75 0.03125 1.0781 0.20312 0.20312 0.09375 0.39062 0.23438 0.5 0.4375-0.15625-0.015625-0.29688 0.015625-0.40625 0.125-0.1875 0.1875-0.17188 0.54688 0.046875 0.70312 0.25 0.17188 0.625 0.0625 0.71875-0.23438 0.0625-0.1875 0-0.45312-0.09375-0.625-0.17188-0.35938-0.54688-0.59375-0.90625-0.71875-0.32812-0.10938-0.67188-0.14062-1.0156-0.10938-0.5625 0.046875-1.1406 0.21875-1.5 0.6875-0.34375 0.46875-0.46875 1.1875-0.23438 1.7188 0.14062 0.3125 0.375 0.5625 0.65625 0.75 0.21875 0.14062 0.45312 0.25 0.70312 0.34375 0.0625 0.015625 0.125 0.03125 0.17188 0.046875s0.078125 0.03125 0.09375 0.0625c0.015625 0.078125 0 0.17188 0 0.23438v2.4688c0 0.09375 0 0.20312-0.0625 0.29688-0.0625 0.046875-0.14062 0.078125-0.21875 0.078125-0.15625 0.03125-0.32812 0.03125-0.48438 0.03125z"/>
</g>
</defs>
<g transform="translate(-149.25 -127.72)">
<use x="148.71201" y="134.765" xlink:href="#a"/>
</g>
</svg>
