<?xml version="1.0" encoding="UTF-8"?>
<svg fill="#000000" version="1.1" viewBox="0 0 3.9844 4.5312" xmlns="http://www.w3.org/2000/svg" xmlns:xlink="http://www.w3.org/1999/xlink">
<defs>
<g id="a">
<path d="m0.75-1.5312c0 0.1875 0.14062 0.3125 0.3125 0.3125 0.14062 0 0.82812-0.42188 1.2031-0.64062 0.0625-0.046875 0.125-0.078125 0.17188-0.10938v1.4219c0 0.15625 0.14062 0.3125 0.29688 0.3125 0.17188 0 0.3125-0.14062 0.3125-0.3125v-1.4219c0.046875 0.03125 0.078125 0.046875 0.17188 0.09375 0.375 0.23438 1.0469 0.65625 1.1875 0.65625 0.1875 0 0.32812-0.10938 0.32812-0.3125 0-0.10938-0.0625-0.21875-0.15625-0.26562-0.375-0.25-0.8125-0.5-1.2188-0.70312l1.2188-0.70312c0.10938-0.0625 0.15625-0.17188 0.15625-0.28125 0-0.1875-0.15625-0.29688-0.32812-0.29688-0.14062 0-1.1562 0.59375-1.3594 0.73438v-1.4062c0-0.17188-0.14062-0.3125-0.3125-0.3125-0.15625 0-0.29688 0.15625-0.29688 0.3125v1.4062c-0.0625-0.03125-0.078125-0.046875-0.17188-0.10938-0.375-0.21875-1.0469-0.625-1.2031-0.625-0.17188 0-0.3125 0.125-0.3125 0.29688 0 0.10938 0.046875 0.23438 0.14062 0.28125l1.2344 0.70312-1.2344 0.70312c-0.09375 0.046875-0.14062 0.15625-0.14062 0.26562z"/>
</g>
</defs>
<g transform="translate(-149.46 -130)">
<use x="148.71201" y="134.765" xlink:href="#a"/>
</g>
</svg>
