<?xml version="1.0" encoding="UTF-8"?>
<svg fill="#000000" version="1.1" viewBox="0 0 9.1094 9.1094" xmlns="http://www.w3.org/2000/svg" xmlns:xlink="http://www.w3.org/1999/xlink">
<defs>
<g id="a">
<path d="m8.75-5.9688c-0.03125 0.17188-0.046875 0.39062-0.046875 0.57812 0 0.20312 0.015625 0.6875 0.23438 1.2656 0.046875 0.125 0.34375 0.8125 0.5 0.8125 0.0625 0 0.21875-0.17188 0.21875-0.23438 0-0.046875 0-0.0625-0.046875-0.125-0.48438-0.76562-0.51562-1.375-0.51562-1.7344 0-0.60938 0.15625-1.0469 0.26562-1.2812 0.03125-0.0625 0.046875-0.09375 0.046875-0.125 0-0.078125-0.0625-0.09375-0.10938-0.09375-0.015625 0-0.03125 0-0.10938 0.03125-0.28125 0.125-0.71875 0.28125-1.2969 0.28125-0.28125 0-0.95312-0.015625-1.7188-0.53125-0.0625-0.03125-0.09375-0.046875-0.125-0.046875-0.078125 0-0.23438 0.15625-0.23438 0.23438 0 0.14062 0.625 0.42188 0.82812 0.5 0.57812 0.21875 1.0625 0.23438 1.25 0.23438 0.3125 0 0.32812 0 0.57812-0.0625l-7.7656 7.7812c-0.14062 0.125-0.15625 0.15625-0.15625 0.23438 0 0.09375 0.09375 0.1875 0.20312 0.1875 0.078125 0 0.09375-0.015625 0.21875-0.14062z"/>
</g>
</defs>
<g transform="translate(-149.26 -127.59)">
<use x="148.71201" y="134.765" xlink:href="#a"/>
</g>
</svg>
