<?xml version="1.0" encoding="UTF-8"?>
<svg fill="#000000" version="1.1" viewBox="0 0 2.8281 6.2344" xmlns="http://www.w3.org/2000/svg" xmlns:xlink="http://www.w3.org/1999/xlink">
<defs>
<g id="a">
<path d="m3.9219-4.2344c0-0.79688-0.625-1.4062-1.4219-1.4062-0.78125 0-1.4062 0.60938-1.4062 1.4062 0 0.78125 0.625 1.4062 1.4062 1.4062 0.79688 0 1.4219-0.625 1.4219-1.4062zm-0.60938 0c0 0.45312-0.35938 0.8125-0.8125 0.8125s-0.8125-0.35938-0.8125-0.8125c0-0.4375 0.35938-0.79688 0.8125-0.79688s0.8125 0.35938 0.8125 0.79688zm0.60938 3.4219c0-0.79688-0.625-1.4219-1.4219-1.4219-0.78125 0-1.4062 0.625-1.4062 1.4219 0 0.76562 0.625 1.4062 1.4062 1.4062 0.79688 0 1.4219-0.64062 1.4219-1.4062zm-0.60938 0c0 0.4375-0.35938 0.79688-0.8125 0.79688-0.4375 0-0.8125-0.35938-0.8125-0.79688 0-0.45312 0.375-0.82812 0.8125-0.82812 0.45312 0 0.8125 0.375 0.8125 0.82812z"/>
</g>
</defs>
<g transform="translate(-149.81 -129.12)">
<use x="148.71201" y="134.765" xlink:href="#a"/>
</g>
</svg>
