<?xml version="1.0" encoding="UTF-8"?>
<svg fill="#000000" version="1.1" viewBox="0 0 4.7969 4.7812" xmlns="http://www.w3.org/2000/svg" xmlns:xlink="http://www.w3.org/1999/xlink">
<defs>
<g id="a">
<path d="m5.1562-4.9375c-0.0625 0-0.125 0.015625-0.17188 0.078125-0.51562 0.625-1.25 0.9375-2 0.9375-0.71875 0-1.4531-0.3125-1.9844-0.9375-0.046875-0.0625-0.10938-0.078125-0.17188-0.078125-0.10938 0-0.23438 0.09375-0.23438 0.21875 0 0.046875 0.03125 0.10938 0.0625 0.15625 1.0938 1.2969 2.1094 2.625 2.1094 4.1875 0 0.125 0.09375 0.21875 0.21875 0.21875 0.14062 0 0.23438-0.09375 0.23438-0.21875 0-1.5625 1.0156-2.8906 2.1094-4.1875 0.046875-0.046875 0.0625-0.10938 0.0625-0.15625 0-0.125-0.10938-0.21875-0.23438-0.21875zm-1.125 1.2812c-0.4375 0.59375-0.8125 1.2188-1.0469 1.9062-0.21875-0.6875-0.59375-1.3125-1.0156-1.9062 0.32812 0.125 0.67188 0.1875 1.0156 0.1875 0.35938 0 0.71875-0.0625 1.0469-0.1875z"/>
</g>
</defs>
<g transform="translate(-149.31 -129.83)">
<use x="148.71201" y="134.765" xlink:href="#a"/>
</g>
</svg>
