<?xml version="1.0" encoding="UTF-8"?>
<svg fill="#000000" version="1.1" viewBox="0 0 4.3594 6.4219" xmlns="http://www.w3.org/2000/svg" xmlns:xlink="http://www.w3.org/1999/xlink">
<defs>
<g id="a">
<path d="m0.48438-4.5c-0.10938 0-0.20312 0.09375-0.20312 0.20312v2.1719c0 0.10938 0.09375 0.20312 0.20312 0.20312h1.7656v1.7188c0 0.10938 0.09375 0.20312 0.20312 0.20312 0.0625 0 0.125-0.046875 0.17188-0.09375 1.9844-3.0312 2.0156-3.0781 2.0156-3.1094 0-0.046875-0.03125-0.09375-2.0156-3.125-0.046875-0.0625-0.10938-0.09375-0.17188-0.09375-0.125 0-0.20312 0.09375-0.20312 0.20312v1.7188zm0.1875 0.40625h1.7812c0.10938 0 0.20312-0.09375 0.20312-0.20312v-1.25l1.5469 2.3438-1.5469 2.3281v-1.25c0-0.125-0.09375-0.20312-0.20312-0.20312h-1.7812z"/>
</g>
</defs>
<g transform="translate(-148.99 -128.34)">
<use x="148.71201" y="134.765" xlink:href="#a"/>
</g>
</svg>
