<?xml version="1.0" encoding="UTF-8"?>
<svg fill="#000000" version="1.1" viewBox="0 0 6.1043 8.8451" xmlns="http://www.w3.org/2000/svg" xmlns:xlink="http://www.w3.org/1999/xlink">
<defs>
<g id="a">
<path d="m3.6719-4.6875c-0.14062-0.09375-0.28125-0.15625-0.4375-0.23438-0.21875-0.10938-0.4375-0.23438-0.64062-0.375-0.3125-0.20312-0.59375-0.39062-0.89062-0.625-0.125-0.09375-0.25-0.20312-0.375-0.29688-0.10938-0.078125-0.26562-0.078125-0.39062-0.0625-0.0625 0.015625-0.125 0.078125-0.09375 0.15625 0.03125 0.0625 0.10938 0.10938 0.15625 0.15625 0.10938 0.09375 0.23438 0.20312 0.35938 0.28125 0.5 0.39062 1.0156 0.73438 1.5469 1.0312 0.1875 0.09375 0.375 0.20312 0.5625 0.29688 0.0625 0.015625 0.1875 0.046875 0.20312 0.10938 0.03125 0.078125 0 0.15625 0 0.23438v0.5c0 0.0625 0.03125 0.1875-0.015625 0.23438-0.03125 0.046875-0.125 0.078125-0.17188 0.09375-0.14062 0.09375-0.29688 0.15625-0.4375 0.23438-0.46875 0.25-0.92188 0.54688-1.3594 0.84375-0.23438 0.1875-0.46875 0.35938-0.70312 0.54688-0.0625 0.0625-0.23438 0.1875-0.10938 0.28125 0.046875 0.03125 0.125 0.03125 0.1875 0.03125 0.046875 0 0.125 0 0.1875-0.015625s0.09375-0.0625 0.14062-0.09375c0.078125-0.0625 0.15625-0.125 0.21875-0.1875 0.40625-0.3125 0.82812-0.60938 1.2812-0.875 0.26562-0.15625 0.53125-0.26562 0.78125-0.42188v2.5625c-0.21875-0.17188-0.48438-0.29688-0.76562-0.35938-0.5-0.125-1.0781-0.03125-1.4844 0.3125-0.26562 0.20312-0.42188 0.51562-0.53125 0.84375-0.015625 0.078125-0.10938 0.23438-0.03125 0.32812 0.0625 0.078125 0.17188 0.046875 0.21875-0.046875 0.015625-0.0625 0.03125-0.125 0.046875-0.17188 0.046875-0.125 0.09375-0.25 0.15625-0.35938 0.25-0.375 0.71875-0.5625 1.1562-0.4375 0.34375 0.078125 0.65625 0.32812 0.95312 0.53125 0.0625 0.046875 0.125 0.09375 0.20312 0.15625 0.03125 0.015625 0.0625 0.046875 0.078125 0.10938 0.03125 0.09375 0 0.20312 0 0.29688v0.625 0.20312c0 0.046875 0 0.10938 0.046875 0.14062 0.03125 0.03125 0.078125 0.03125 0.125 0.03125 0.078125 0 0.20312 0.015625 0.21875-0.09375 0.03125-0.09375 0.015625-0.21875 0.015625-0.3125v-0.64062c0.21875 0.15625 0.5 0.29688 0.76562 0.35938 0.48438 0.10938 1.0625 0.03125 1.4531-0.28125 0.28125-0.21875 0.45312-0.53125 0.5625-0.85938 0.03125-0.09375 0.10938-0.26562 0.03125-0.34375-0.0625-0.078125-0.17188-0.046875-0.21875 0.046875-0.015625 0.046875-0.015625 0.10938-0.046875 0.15625-0.03125 0.10938-0.078125 0.21875-0.125 0.32812-0.20312 0.35938-0.57812 0.53125-0.98438 0.51562-0.1875 0-0.375-0.09375-0.54688-0.17188-0.1875-0.10938-0.375-0.21875-0.54688-0.35938-0.078125-0.0625-0.14062-0.10938-0.21875-0.17188-0.046875-0.03125-0.09375-0.046875-0.10938-0.09375-0.03125-0.0625-0.015625-0.17188-0.015625-0.23438v-2.5c0-0.078125-0.015625-0.17188 0-0.23438s0.09375-0.078125 0.15625-0.10938c0.14062-0.046875 0.29688-0.10938 0.4375-0.15625 0.46875-0.14062 0.9375-0.25 1.4219-0.29688 0.17188-0.015625 0.34375-0.03125 0.53125-0.03125 0.0625 0 0.15625 0.015625 0.21875-0.015625 0.10938-0.03125 0.09375-0.1875 0.078125-0.28125s-0.078125-0.10938-0.15625-0.10938c-0.1875 0-0.35938-0.015625-0.5625-0.03125-0.53125-0.03125-1.0625-0.15625-1.5938-0.32812-0.10938-0.03125-0.25-0.09375-0.35938-0.125-0.046875-0.015625-0.125-0.046875-0.15625-0.078125-0.03125-0.046875-0.015625-0.10938-0.015625-0.15625v-2.0156c0-0.046875 0.015625-0.10938-0.015625-0.17188-0.03125-0.046875-0.09375-0.046875-0.15625-0.046875-0.09375 0-0.20312-0.015625-0.23438 0.10938v0.25zm0.40625 1.2656v-0.6875l0.625 0.21875 0.4375 0.10938v0.015625l-0.4375 0.10938z"/>
</g>
</defs>
<g transform="translate(-149.54 -127.84)">
<use x="148.71201" y="134.765" xlink:href="#a"/>
</g>
</svg>
