<?xml version="1.0" encoding="UTF-8"?>
<svg fill="#000000" version="1.1" viewBox="0 0 6.625 9.5469" xmlns="http://www.w3.org/2000/svg" xmlns:xlink="http://www.w3.org/1999/xlink">
<defs>
<g id="a">
<path d="m7.1875 0.26562c0-0.23438-0.0625-0.32812-0.14062-0.32812-0.125 0-0.14062 0.23438-0.14062 0.29688-0.03125 0.85938-0.65625 1.4531-1.375 1.4531-0.64062 0-1.1094-0.40625-1.5469-0.8125-0.5625-0.48438-1.0781-0.9375-1.7656-0.9375-1.0469 0-1.6562 1.0625-1.6562 1.9844 0 0.23438 0.0625 0.32812 0.14062 0.32812 0.10938 0 0.14062-0.20312 0.14062-0.23438 0.046875-1.1406 0.84375-1.5312 1.375-1.5312 0.625 0 1.0938 0.42188 1.5469 0.82812 0.54688 0.48438 1.0625 0.9375 1.7656 0.9375 1.0469 0 1.6562-1.0625 1.6562-1.9844zm-3.4688-4.6719c1.8438-0.35938 2.5781-1.0312 2.9531-1.7969 0.20312-0.39062 0.25-0.82812 0.25-0.89062 0-0.125-0.10938-0.20312-0.20312-0.20312-0.046875 0-0.17188 0.03125-0.20312 0.17188-0.09375 0.6875-0.34375 1.6875-2.3594 2.2031-1.0312 0.28125-2.3906 0.3125-3.0469 0.3125-0.09375 0-0.28125 0-0.28125 0.20312 0 0.078125 0.046875 0.125 0.078125 0.15625 0.015625 0.015625 0.046875 0.03125 0.078125 0.03125 0.015625 0.015625 0.03125 0.015625 0.34375 0.015625 1.0312 0 2.0625 0.078125 3.0625 0.35938 1.5938 0.46875 2 1.3125 2.125 2.0625 0.015625 0.10938 0.03125 0.25 0.20312 0.25 0.09375 0 0.20312-0.0625 0.20312-0.20312 0-0.0625-0.046875-0.53125-0.26562-0.95312-0.48438-0.875-1.4219-1.4219-2.9375-1.7188z"/>
</g>
</defs>
<g transform="translate(-149.27 -127.47)">
<use x="148.71201" y="134.765" xlink:href="#a"/>
</g>
</svg>
