<?xml version="1.0" encoding="UTF-8"?>
<svg fill="#000000" version="1.1" viewBox="0 0 4.3125 2.25" xmlns="http://www.w3.org/2000/svg" xmlns:xlink="http://www.w3.org/1999/xlink">
<defs>
<g id="a">
<path d="m3-1.8906h-0.5625c-0.28125-0.10938-0.4375-0.35938-0.4375-0.65625s0.15625-0.54688 0.4375-0.65625h0.5625c0.26562 0.10938 0.4375 0.35938 0.4375 0.65625s-0.17188 0.54688-0.4375 0.65625zm1.6406-1.7812h-3.8594c-0.125 0-0.21875 0.10938-0.21875 0.23438s0.09375 0.23438 0.21875 0.23438h1.1094c-0.15625 0.1875-0.23438 0.40625-0.23438 0.65625s0.078125 0.46875 0.23438 0.65625h-1.1094c-0.125 0-0.21875 0.10938-0.21875 0.23438s0.09375 0.23438 0.21875 0.23438h3.8594c0.14062 0 0.23438-0.10938 0.23438-0.23438s-0.09375-0.23438-0.23438-0.23438h-1.0938c0.15625-0.1875 0.23438-0.40625 0.23438-0.65625s-0.078125-0.46875-0.23438-0.65625h1.0938c0.14062 0 0.23438-0.10938 0.23438-0.23438s-0.09375-0.23438-0.23438-0.23438z"/>
</g>
</defs>
<g transform="translate(-149.27 -131.09)">
<use x="148.71201" y="134.765" xlink:href="#a"/>
</g>
</svg>
