<?xml version="1.0" encoding="UTF-8"?>
<svg fill="#000000" version="1.1" viewBox="0 0 8.1719 8.1562" xmlns="http://www.w3.org/2000/svg" xmlns:xlink="http://www.w3.org/1999/xlink">
<defs>
<g id="a">
<path d="m0.59375-2.0312c0 0.046875 0.03125 0.10938 0.078125 0.15625l4.0312 4.0312c0.046875 0.046875 0.10938 0.0625 0.15625 0.0625 0.125 0 0.23438-0.078125 0.23438-0.21875 0-0.0625-0.015625-0.125-0.0625-0.17188l-4.0312-4.0312c-0.046875-0.046875-0.10938-0.0625-0.17188-0.0625-0.125 0-0.23438 0.078125-0.23438 0.23438zm7.9375-2.6406c-0.0625 0-0.125 0.03125-0.17188 0.0625l-3.625 3.625-0.9375-0.92188 3.625-3.6406c0.0625-0.03125 0.078125-0.09375 0.078125-0.15625 0-0.125-0.09375-0.23438-0.23438-0.23438-0.0625 0-0.125 0.03125-0.15625 0.078125l-3.625 3.625-1.2344-1.2188c-0.03125-0.0625-0.09375-0.078125-0.15625-0.078125-0.125 0-0.23438 0.09375-0.23438 0.23438 0 0.0625 0.03125 0.10938 0.078125 0.15625l4.0312 4.0312c0.046875 0.046875 0.10938 0.078125 0.15625 0.078125 0.10938 0 0.21875-0.09375 0.21875-0.23438 0-0.0625-0.015625-0.10938-0.046875-0.17188l-1.2344-1.2031 3.625-3.6406c0.046875-0.046875 0.078125-0.10938 0.078125-0.17188 0-0.10938-0.09375-0.21875-0.23438-0.21875z"/>
</g>
</defs>
<g transform="translate(-149.31 -128.83)">
<use x="148.71201" y="134.765" xlink:href="#a"/>
</g>
</svg>
