<?xml version="1.0" encoding="UTF-8"?>
<svg fill="#000000" version="1.1" viewBox="0 0 4.3125 10.094" xmlns="http://www.w3.org/2000/svg" xmlns:xlink="http://www.w3.org/1999/xlink">
<defs>
<g id="a">
<path d="m4.6406-5.8906c-0.03125 0-0.078125 0.015625-0.10938 0.03125l-0.90625 0.53125 0.54688-2.0781c0.03125-0.09375-0.03125-0.1875-0.14062-0.1875-0.0625 0-0.125 0.03125-0.14062 0.10938l-0.64062 2.3594-2.5781 1.4844c-0.078125 0.046875-0.10938 0.125-0.10938 0.20312 0 0.125 0.10938 0.23438 0.21875 0.23438 0.046875 0 0.09375-0.015625 0.10938-0.03125l2.1875-1.2656-0.39062 1.4844-2.0156 1.1562c-0.078125 0.046875-0.10938 0.10938-0.10938 0.20312s0.03125 0.15625 0.10938 0.20312l1.375 0.79688-0.79688 2.9688c-0.015625 0.09375 0.046875 0.1875 0.15625 0.1875 0.0625 0 0.125-0.03125 0.14062-0.10938l0.78125-2.8906 2.2031 1.2656c0.03125 0.015625 0.078125 0.03125 0.10938 0.03125 0.125 0 0.23438-0.09375 0.23438-0.21875 0-0.078125-0.046875-0.15625-0.10938-0.20312l-2.3281-1.3281 0.4375-1.6562 1.8906-1.0781c0.0625-0.046875 0.10938-0.125 0.10938-0.20312 0-0.125-0.10938-0.21875-0.23438-0.21875-0.03125 0-0.078125 0-0.10938 0.015625l-1.4844 0.85938 0.40625-1.4844 1.3125-0.75c0.0625-0.046875 0.10938-0.125 0.10938-0.1875 0-0.14062-0.10938-0.23438-0.23438-0.23438zm-2.4688 4.7812-0.92188-0.54688 1.2656-0.73438z"/>
</g>
</defs>
<g transform="translate(-149.27 -127.17)">
<use x="148.71201" y="134.765" xlink:href="#a"/>
</g>
</svg>
