<?xml version="1.0" encoding="UTF-8"?>
<svg fill="#000000" version="1.1" viewBox="0 0 9.9592 5.2031" xmlns="http://www.w3.org/2000/svg" xmlns:xlink="http://www.w3.org/1999/xlink">
<defs>
<g id="b">
<path d="m9.0469-2.2969c0.1875 0 0.35938 0 0.35938-0.20312 0-0.1875-0.17188-0.1875-0.35938-0.1875h-7.4062c0.54688-0.42188 0.82812-0.82812 0.90625-0.96875 0.4375-0.6875 0.53125-1.3125 0.53125-1.3125 0-0.125-0.125-0.125-0.20312-0.125-0.17188 0-0.1875 0.015625-0.21875 0.20312-0.23438 0.96875-0.82812 1.7969-1.9531 2.2656-0.10938 0.046875-0.14062 0.0625-0.14062 0.125 0 0.078125 0.046875 0.09375 0.14062 0.14062 1.0469 0.42188 1.7031 1.2031 1.9531 2.3125 0.03125 0.125 0.046875 0.15625 0.21875 0.15625 0.078125 0 0.20312 0 0.20312-0.125 0-0.015625-0.09375-0.64062-0.51562-1.3125-0.20312-0.29688-0.48438-0.64062-0.92188-0.96875z"/>
</g>
<g id="a">
<path d="m2.2188-3.4531c0-0.79688-0.82812-1.1719-1.4219-1.1719-0.046875 0-0.25 0-0.25 0.20312 0 0.078125 0.0625 0.1875 0.20312 0.1875 0.84375 0.046875 1.0625 0.46875 1.0625 0.78125 0 0.35938-0.3125 0.73438-1.0625 0.76562-0.20312 0-0.20312 0.1875-0.20312 0.1875 0 0.20312 0.20312 0.20312 0.25 0.20312 0.59375 0 1.4219-0.375 1.4219-1.1562z"/>
</g>
</defs>
<g transform="translate(-149.27 -129.67)">
<use x="148.71201" y="134.765" xlink:href="#b"/>
<use x="157.015" y="134.765" xlink:href="#a"/>
</g>
</svg>
