<?xml version="1.0" encoding="UTF-8"?>
<svg fill="#000000" version="1.1" viewBox="0 0 6.0938 7.3125" xmlns="http://www.w3.org/2000/svg" xmlns:xlink="http://www.w3.org/1999/xlink">
<defs>
<g id="a">
<path d="m5.8125-7.0938c0-0.14062-0.125-0.21875-0.20312-0.21875-0.17188 0-0.1875 0.14062-0.20312 0.26562-0.29688 1.9062-2.625 2.4062-4.3125 2.4219-0.25 0-0.26562 0.17188-0.26562 0.20312 0 0.1875 0.15625 0.1875 0.39062 0.1875 0.67188 0 3.1875-0.125 4.2188-1.7344 0.34375-0.54688 0.375-1.1094 0.375-1.125zm-4.6094 4c-0.15625 0-0.375 0-0.375 0.20312 0 0.15625 0.125 0.1875 0.15625 0.20312h0.57812c0.40625 0 1.5469 0.0625 2.5469 0.29688 1.5156 0.35938 2.2656 1.1094 2.4062 2.125 0.015625 0.10938 0.03125 0.26562 0.20312 0.26562 0.09375 0 0.20312-0.078125 0.20312-0.20312 0-0.09375-0.078125-1.0469-0.85938-1.7031-0.48438-0.39062-1.2031-0.78125-2.375-0.96875 1.1406-0.21875 2.2969-0.64062 2.875-1.5938 0.17188-0.29688 0.35938-0.75 0.35938-1.0938 0-0.09375-0.0625-0.20312-0.20312-0.20312-0.125 0-0.1875 0.10938-0.1875 0.15625-0.10938 0.6875-0.34375 2.1406-3.8906 2.4531-0.375 0.03125-0.76562 0.0625-1.1406 0.0625z"/>
</g>
</defs>
<g transform="translate(-149.54 -127.45)">
<use x="148.71201" y="134.765" xlink:href="#a"/>
</g>
</svg>
