<?xml version="1.0" encoding="UTF-8"?>
<svg fill="#000000" version="1.1" viewBox="0 0 7.875 4.4062" xmlns="http://www.w3.org/2000/svg" xmlns:xlink="http://www.w3.org/1999/xlink">
<defs>
<g id="a">
<path d="m1.9062-4.2969c-0.21875 0-0.59375 0-1.0312 0.46875-0.34375 0.39062-0.60938 0.84375-0.60938 0.89062 0 0.015625 0 0.10938 0.125 0.10938 0.078125 0 0.09375-0.03125 0.15625-0.125 0.15625-0.23438 0.32812-0.4375 0.59375-0.57812 0.28125-0.1875 0.39062-0.1875 1.0156-0.1875-0.5625 0.70312-1.0312 1.5938-1.0312 2.6719 0 0.51562 0.14062 1.1562 0.875 1.1562 0.96875 0 1.6719-0.79688 2.1406-1.6406l0.015625 0.015625c-0.015625 0.0625-0.015625 0.17188-0.015625 0.26562 0 0.70312 0.23438 1.3594 1.0469 1.3594 1.4531 0 2.3438-2.1094 2.3438-3.0938 0-0.25-0.046875-0.5-0.10938-0.73438 0.17188 0 0.4375 0 0.5-0.015625 0.078125-0.046875 0.21875-0.15625 0.21875-0.32812 0-0.23438-0.20312-0.23438-0.39062-0.23438zm5.25 0.57812c0.078125 0.23438 0.125 0.57812 0.125 0.73438 0 1.0469-0.875 2.5156-2 2.5156-0.60938 0-0.8125-0.46875-0.8125-1.1562 0-0.125 0-0.48438 0.125-1.0156 0.046875-0.15625 0.046875-0.1875 0.046875-0.1875 0-0.10938-0.10938-0.10938-0.125-0.10938-0.078125 0-0.10938 0.03125-0.125 0.10938-0.5625 1.8594-1.6719 2.3594-2.2812 2.3594-0.46875 0-0.6875-0.3125-0.6875-0.90625 0-0.8125 0.46875-1.6406 1.0469-2.3438z"/>
</g>
</defs>
<g transform="translate(-148.98 -130.47)">
<use x="148.71201" y="134.765" xlink:href="#a"/>
</g>
</svg>
