<?xml version="1.0" encoding="UTF-8"?>
<svg fill="#000000" version="1.1" viewBox="0 0 4.2969 9.4531" xmlns="http://www.w3.org/2000/svg" xmlns:xlink="http://www.w3.org/1999/xlink">
<defs>
<g id="a">
<path d="m3.9219-4.4531c0.32812 0.34375 0.53125 0.78125 0.53125 1.25 0 0.45312-0.20312 0.90625-0.53125 1.2344-0.3125 0.3125-0.76562 0.5-1.2188 0.5-0.46875 0-0.90625-0.1875-1.2344-0.5-0.32812-0.32812-0.51562-0.78125-0.51562-1.2344 0-0.46875 0.1875-0.90625 0.51562-1.25 0.32812-0.32812 0.76562-0.5 1.2344-0.5 0.45312 0 0.90625 0.17188 1.2188 0.5zm-2.75 2.7656c0.35938 0.35938 0.82812 0.5625 1.3281 0.60938v1.3125h-1.2969c-0.10938 0-0.20312 0.09375-0.20312 0.20312s0.09375 0.20312 0.20312 0.20312h1.2969v1.2969c0 0.10938 0.09375 0.20312 0.20312 0.20312s0.20312-0.09375 0.20312-0.20312v-1.2969h1.2969c0.10938 0 0.1875-0.09375 0.1875-0.20312s-0.078125-0.20312-0.1875-0.20312h-1.2969v-1.3125c0.48438-0.046875 0.95312-0.25 1.3125-0.60938 0.39062-0.40625 0.625-0.95312 0.625-1.5156 0-0.57812-0.23438-1.125-0.625-1.5156-0.1875-0.1875-0.39062-0.32812-0.625-0.4375 0.75-0.34375 1.25-1.0781 1.25-1.9531 0-0.10938-0.09375-0.20312-0.20312-0.20312s-0.1875 0.09375-0.1875 0.20312c0 0.96875-0.79688 1.75-1.75 1.75-0.96875 0-1.75-0.78125-1.75-1.75 0-0.10938-0.078125-0.20312-0.20312-0.20312-0.10938 0-0.20312 0.09375-0.20312 0.20312 0 0.875 0.51562 1.6094 1.25 1.9531-0.23438 0.10938-0.4375 0.25-0.625 0.4375-0.39062 0.39062-0.625 0.9375-0.625 1.5156 0 0.5625 0.23438 1.1094 0.625 1.5156z"/>
</g>
</defs>
<g transform="translate(-149.26 -127.45)">
<use x="148.71201" y="134.765" xlink:href="#a"/>
</g>
</svg>
