<?xml version="1.0" encoding="UTF-8"?>
<svg fill="#000000" version="1.1" viewBox="0 0 6.1875 6.1719" xmlns="http://www.w3.org/2000/svg" xmlns:xlink="http://www.w3.org/1999/xlink">
<defs>
<g id="a">
<path d="m6.4062 0v-0.65625h-1.0156c-0.10938-0.95312-0.5-1.8125-1.0469-2.5312l1.8281-1.8438-0.51562-0.42188-1.75 1.7656c-0.17188-0.17188-0.34375-0.32812-0.54688-0.48438l-0.40625 0.53125c0.17188 0.125 0.34375 0.26562 0.48438 0.42188l-3.2188 3.2188h4.5625c0 0.20312-0.015625 0.42188-0.046875 0.625l0.65625 0.09375c0.03125-0.23438 0.046875-0.48438 0.046875-0.71875zm-4.6094-0.65625 2.0781-2.0625c0.4375 0.59375 0.73438 1.2969 0.84375 2.0625z"/>
</g>
</defs>
<g transform="translate(-148.93 -129.31)">
<use x="148.71201" y="134.765" xlink:href="#a"/>
</g>
</svg>
