<?xml version="1.0" encoding="UTF-8"?>
<svg fill="#000000" version="1.1" viewBox="0 0 8.8438 5.2656" xmlns="http://www.w3.org/2000/svg" xmlns:xlink="http://www.w3.org/1999/xlink">
<defs>
<g id="a">
<path d="m9.0469-3.2656c0.1875 0 0.35938 0 0.35938-0.1875 0-0.20312-0.1875-0.20312-0.35938-0.20312h-7.625c0.6875-0.60938 0.875-1.2188 0.95312-1.4688h-0.3125c-0.3125 0.85938-0.95312 1.3906-1.5 1.6719v0.1875zm-0.5 1.9375c-0.6875 0.60938-0.875 1.2188-0.95312 1.4688h0.29688c0.32812-0.85938 0.96875-1.3906 1.5156-1.6719v-0.1875h-8.5c-0.17188 0-0.34375 0-0.34375 0.1875 0 0.20312 0.17188 0.20312 0.34375 0.20312z"/>
</g>
</defs>
<g transform="translate(-149.27 -129.64)">
<use x="148.71201" y="134.765" xlink:href="#a"/>
</g>
</svg>
