<?xml version="1.0" encoding="UTF-8"?>
<svg fill="#000000" version="1.1" viewBox="0 0 3.5938 7.125" xmlns="http://www.w3.org/2000/svg" xmlns:xlink="http://www.w3.org/1999/xlink">
<defs>
<g id="a">
<path d="m1.8438-6.3125c-0.5625 0.046875-1.2969 0.42188-1.2969 1.125 0 0.21875 0.10938 0.46875 0.46875 0.46875 0.25 0 0.45312-0.1875 0.45312-0.4375 0-0.3125-0.23438-0.46875-0.51562-0.46875 0.21875-0.25 0.51562-0.42188 0.82812-0.46875 0.125 0 0.09375 0.17188 0.10938 0.28125 0.046875 0.65625 0.10938 1.3281 0.17188 1.9844l0.046875 0.59375c0.015625 0.078125 0.03125 0.17188 0.03125 0.26562v0.09375c-0.046875 0.17188-0.046875 0.35938-0.046875 0.53125v0.3125c0 0.14062 0.0625 0.15625 0.17188 0.15625h0.0625c0.1875 0 0.15625-0.1875 0.17188-0.34375 0.015625-0.26562 0.046875-0.51562 0.078125-0.78125 0-0.125 0-0.26562 0.078125-0.39062 0.4375-0.71875 1.4844-0.96875 1.4844-1.7812 0-0.65625-0.625-1.0469-1.2969-1.1406 0.015625-0.0625 0.03125-0.125 0.03125-0.1875v-0.10938c0-0.29688-0.21875-0.53125-0.51562-0.53125-0.3125 0-0.53125 0.21875-0.53125 0.51562 0 0.09375 0.015625 0.1875 0.015625 0.3125zm0.42188 5.25c-0.23438 0.03125-0.4375 0.25-0.4375 0.53125s0.25 0.51562 0.53125 0.51562c0.26562 0 0.51562-0.21875 0.51562-0.51562s-0.25-0.53125-0.51562-0.53125h-0.09375zm0.40625-3.0156h-0.015625l0.17188-1.9688c0.375 0.125 0.48438 0.4375 0.48438 0.82812 0 0.20312-0.03125 0.40625-0.14062 0.57812-0.125 0.21875-0.375 0.34375-0.5 0.5625z"/>
</g>
</defs>
<g transform="translate(-149.26 -127.62)">
<use x="148.71201" y="134.765" xlink:href="#a"/>
</g>
</svg>
