<?xml version="1.0" encoding="UTF-8"?>
<svg fill="#000000" version="1.1" viewBox="0 0 6.0938 10.734" xmlns="http://www.w3.org/2000/svg" xmlns:xlink="http://www.w3.org/1999/xlink">
<defs>
<g id="a">
<path d="m3.5469-1.7344c0.6875 0 1.4844 0 2.4062-0.78125 0.40625-0.32812 0.96875-1.0781 0.96875-2.0938 0-1.625-1.375-2.8906-3.0625-2.8906h-2.6875c-0.17188 0-0.34375 0-0.34375 0.1875 0 0.20312 0.17188 0.20312 0.34375 0.20312h2.6562c1.6094 0 2.6875 1.1719 2.6875 2.4844 0 0.75-0.32812 1.375-0.8125 1.7969-0.76562 0.6875-1.6094 0.6875-1.9844 0.6875l0.1875-0.45312c0.0625-0.14062 0.15625-0.40625 0.15625-0.45312 0-0.09375-0.0625-0.1875-0.1875-0.1875-0.14062 0-0.17188 0.09375-0.20312 0.1875-0.21875 0.48438-0.21875 0.5-0.375 0.90625h-2.125c-0.17188 0-0.34375 0-0.34375 0.20312s0.17188 0.20312 0.34375 0.20312h1.9531l-0.625 1.5312h-1.3281c-0.17188 0-0.34375 0-0.34375 0.20312s0.17188 0.20312 0.34375 0.20312h1.1562l-0.625 1.5312h-0.53125c-0.17188 0-0.34375 0-0.34375 0.20312s0.20312 0.20312 0.25 0.20312h0.45312l-0.17188 0.46875c-0.0625 0.125-0.17188 0.39062-0.17188 0.4375 0 0.10938 0.09375 0.1875 0.20312 0.1875 0.125 0 0.14062-0.046875 0.26562-0.3125l0.3125-0.78125h4.5938c0.17188 0 0.35938 0 0.35938-0.20312s-0.1875-0.20312-0.35938-0.20312h-4.4219l0.625-1.5312h3.7969c0.17188 0 0.35938 0 0.35938-0.20312s-0.1875-0.20312-0.35938-0.20312h-3.6406z"/>
</g>
</defs>
<g transform="translate(-149.54 -127.26)">
<use x="148.71201" y="134.765" xlink:href="#a"/>
</g>
</svg>
