<?xml version="1.0" encoding="UTF-8"?>
<svg fill="#000000" version="1.1" viewBox="0 0 5.3906 4.7031" xmlns="http://www.w3.org/2000/svg" xmlns:xlink="http://www.w3.org/1999/xlink">
<defs>
<g id="a">
<path d="m1.4062-4.3906c0.09375 0 0.17188-0.0625 0.46875-0.29688v0.03125c0 1.2812 1.0312 2.3594 2.3438 2.3594 1.2812 0 2.3438-1.0469 2.3438-2.3594 0-1.2812-1.0312-2.3438-2.3438-2.3438-0.57812 0-1.1875 0.21875-1.6562 0.6875-0.046875 0.046875-0.0625 0.10938-0.0625 0.15625 0 0.10938 0.078125 0.21875 0.21875 0.21875 0.046875 0 0.10938-0.03125 0.15625-0.0625 0.375-0.39062 0.875-0.5625 1.3438-0.5625 1.0781 0 1.9062 0.875 1.9062 1.9062 0 1.0938-0.875 1.9219-1.9062 1.9219-1.0781 0-1.9062-0.89062-1.9062-1.9219v-0.078125c0.20312 0.3125 0.29688 0.57812 0.48438 0.57812 0.125 0 0.23438-0.078125 0.23438-0.21875 0-0.1875-0.51562-0.54688-0.51562-1.1719 0-0.10938-0.078125-0.20312-0.1875-0.21875-0.03125 0-0.046875-0.015625-0.0625-0.015625-0.26562 0-0.0625 0.4375-0.98438 0.96875-0.0625 0.03125-0.10938 0.125-0.10938 0.1875 0 0.125 0.10938 0.23438 0.23438 0.23438z"/>
</g>
</defs>
<g transform="translate(-149.88 -129.87)">
<use x="148.71201" y="136.868" xlink:href="#a"/>
</g>
</svg>
