<?xml version="1.0" encoding="UTF-8"?>
<svg fill="#000000" version="1.1" viewBox="0 0 6 6" xmlns="http://www.w3.org/2000/svg" xmlns:xlink="http://www.w3.org/1999/xlink">
<defs>
<g id="a">
<path d="m6.1719-2.5625c0-1.6562-1.3438-3-3-3s-3 1.3438-3 3 1.3438 3 3 3 3-1.3438 3-3zm-0.45312 0c0 1.2812-0.96875 2.3906-2.2344 2.5312l1.8125-3.9531c0.28125 0.42188 0.42188 0.92188 0.42188 1.4219zm-0.79688-1.8438-1.7344 3.8281-1.7656-3.8438c0.46875-0.4375 1.1094-0.6875 1.75-0.6875s1.2812 0.25 1.75 0.70312zm-2.0469 4.375c-1.2656-0.14062-2.25-1.2344-2.25-2.5312 0-0.51562 0.15625-1.0156 0.4375-1.4375z"/>
</g>
</defs>
<g transform="translate(-148.88 -129.2)">
<use x="148.71201" y="134.765" xlink:href="#a"/>
</g>
</svg>
