<?xml version="1.0" encoding="UTF-8"?>
<svg fill="#000000" version="1.1" viewBox="0 0 6.1114 8.356" xmlns="http://www.w3.org/2000/svg" xmlns:xlink="http://www.w3.org/1999/xlink">
<defs>
<g id="a">
<path d="m3.7656-7.7969c-0.14062 0.015625-0.29688 0.078125-0.42188 0.15625-0.10938 0.0625-0.1875 0.15625-0.26562 0.25-0.3125 0.4375-0.20312 1.0781 0.23438 1.3906 0.09375 0.0625 0.20312 0.125 0.32812 0.14062 0.10938 0.03125 0.23438 0.046875 0.34375 0.03125 0.15625-0.015625 0.29688-0.0625 0.4375-0.15625 0.10938-0.0625 0.1875-0.14062 0.26562-0.25 0.3125-0.4375 0.20312-1.0781-0.23438-1.375-0.10938-0.078125-0.21875-0.125-0.34375-0.15625-0.10938-0.03125-0.21875-0.046875-0.34375-0.03125zm-0.5625 1.0625c0-0.078125 0-0.15625 0.015625-0.23438s0.0625-0.15625 0.10938-0.23438c0.26562-0.375 0.84375-0.375 1.1094 0.015625 0.0625 0.09375 0.09375 0.20312 0.125 0.3125 0 0.078125 0 0.14062-0.03125 0.21875-0.015625 0.09375-0.0625 0.17188-0.10938 0.23438-0.26562 0.375-0.84375 0.375-1.1094-0.015625-0.046875-0.078125-0.09375-0.1875-0.10938-0.29688zm0.46875 4.0312h-2.6719c-0.0625 0-0.14062 0.015625-0.15625 0.09375-0.03125 0.078125-0.03125 0.23438 0.03125 0.28125 0.046875 0.03125 0.125 0.03125 0.1875 0.03125h2.6094v2.1719 0.5c0 0.0625 0.015625 0.14062 0.09375 0.15625 0.078125 0.03125 0.23438 0.03125 0.28125-0.015625 0.046875-0.0625 0.03125-0.14062 0.03125-0.20312v-2.6094h2.6719c0.0625 0 0.14062-0.015625 0.17188-0.09375 0.015625-0.078125 0.03125-0.23438-0.046875-0.29688-0.046875-0.03125-0.10938-0.015625-0.17188-0.015625h-2.625v-2.625c0-0.0625 0.015625-0.14062-0.03125-0.1875-0.046875-0.0625-0.20312-0.046875-0.28125-0.03125-0.078125 0.03125-0.09375 0.10938-0.09375 0.17188v0.5z"/>
</g>
</defs>
<g transform="translate(-149.54 -126.96)">
<use x="148.71201" y="134.765" xlink:href="#a"/>
</g>
</svg>
