<?xml version="1.0" encoding="UTF-8"?>
<svg fill="#000000" version="1.1" viewBox="0 0 7.7812 7.7812" xmlns="http://www.w3.org/2000/svg" xmlns:xlink="http://www.w3.org/1999/xlink">
<defs>
<g id="a">
<path d="m9.4375-5.1719c-0.0625 0-0.10938 0.015625-0.17188 0.0625l-3.0781 3.0781-0.59375-1.2656 2.75-2.75c0.046875-0.046875 0.0625-0.10938 0.0625-0.15625 0-0.125-0.09375-0.23438-0.23438-0.23438-0.0625 0-0.10938 0.03125-0.15625 0.0625l-2.625 2.6406-0.70312-1.4844c-0.03125-0.078125-0.125-0.10938-0.1875-0.078125-0.078125 0.03125-0.10938 0.125-0.078125 0.20312l0.73438 1.5781-3.2031 3.2031c-0.046875 0.046875-0.0625 0.10938-0.0625 0.15625 0 0.14062 0.10938 0.23438 0.21875 0.23438 0.0625 0 0.125-0.015625 0.17188-0.0625l3.0781-3.0938 0.60938 1.2812-2.75 2.75c-0.046875 0.046875-0.0625 0.10938-0.0625 0.15625 0 0.125 0.078125 0.23438 0.21875 0.23438 0.0625 0 0.125-0.03125 0.15625-0.0625l2.6406-2.6406 0.6875 1.4844c0.03125 0.078125 0.125 0.10938 0.20312 0.078125s0.10938-0.125 0.0625-0.20312l-0.73438-1.5781 3.2031-3.2031c0.046875-0.046875 0.078125-0.10938 0.078125-0.15625 0-0.125-0.09375-0.23438-0.23438-0.23438z"/>
</g>
</defs>
<g transform="translate(-150.6 -128.33)">
<use x="148.71201" y="134.765" xlink:href="#a"/>
</g>
</svg>
