<?xml version="1.0" encoding="UTF-8"?>
<svg fill="#000000" version="1.1" viewBox="0 0 6.6562 5.4851" xmlns="http://www.w3.org/2000/svg" xmlns:xlink="http://www.w3.org/1999/xlink">
<defs>
<g id="b">
<path d="m7.2031-3.3281c0-0.21875-0.0625-0.32812-0.14062-0.32812-0.046875 0-0.14062 0.078125-0.14062 0.26562-0.046875 0.95312-0.70312 1.5-1.4062 1.5-0.625 0-1.0938-0.42188-1.5938-0.84375-0.5-0.46875-1.0156-0.92188-1.7031-0.92188-1.0781 0-1.6719 1.0938-1.6719 2 0 0.32812 0.125 0.32812 0.14062 0.32812 0.10938 0 0.14062-0.20312 0.14062-0.23438 0.046875-1.0938 0.78125-1.5312 1.3906-1.5312 0.625 0 1.1094 0.42188 1.5938 0.84375 0.51562 0.46875 1.0312 0.92188 1.7031 0.92188 1.0938 0 1.6875-1.0938 1.6875-2z"/>
</g>
<g id="a">
<path d="m6.8438-3.2656c0.15625 0 0.34375 0 0.34375-0.1875 0-0.20312-0.1875-0.20312-0.32812-0.20312h-5.9688c-0.14062 0-0.32812 0-0.32812 0.20312 0 0.1875 0.1875 0.1875 0.32812 0.1875zm0.015625 1.9375c0.14062 0 0.32812 0 0.32812-0.20312 0-0.1875-0.1875-0.1875-0.34375-0.1875h-5.9531c-0.14062 0-0.32812 0-0.32812 0.1875 0 0.20312 0.1875 0.20312 0.32812 0.20312z"/>
</g>
</defs>
<g transform="translate(-149.26 -128.45)">
<use x="148.71201" y="132.106" xlink:href="#b"/>
<use x="148.71201" y="135.263" xlink:href="#a"/>
</g>
</svg>
