<?xml version="1.0" encoding="UTF-8"?>
<svg fill="#000000" version="1.1" viewBox="0 0 7.9688 8.2812" xmlns="http://www.w3.org/2000/svg" xmlns:xlink="http://www.w3.org/1999/xlink">
<defs>
<g id="a">
<path d="m3.0938-1.6719c0.25-0.28125 0.67188-0.40625 1.0312-0.40625 0.4375 0 0.79688 0.1875 1.1562 0.40625-0.17188 0.29688-1.1719 1.9375-1.1719 2.0938 0 0.125 0.125 0.23438 0.25 0.23438 0.078125 0 0.17188-0.046875 0.20312-0.125l1.125-1.9375c0.40625 0.34375 1.125 0.70312 1.6562 0.70312 0.95312 0 1.625-0.73438 1.625-1.6719 0-0.078125-0.015625-0.28125-0.14062-0.28125-0.10938 0-0.17188 0.5625-0.21875 0.67188-0.21875 0.45312-0.78125 0.70312-1.2812 0.70312-0.53125 0-0.96875-0.28125-1.3906-0.54688l0.75-1.3281c0.20312 0.078125 0.42188 0.125 0.64062 0.125 0.95312 0 1.6406-0.73438 1.6406-1.6719 0-0.078125-0.015625-0.28125-0.14062-0.28125-0.10938 0-0.17188 0.5625-0.21875 0.67188-0.21875 0.45312-0.78125 0.70312-1.2656 0.70312-0.125 0-0.25-0.015625-0.35938-0.046875 0.1875-0.3125 1.3594-2.25 1.3594-2.4219 0-0.125-0.10938-0.23438-0.23438-0.23438-0.078125 0-0.17188 0.046875-0.21875 0.10938l-1.375 2.3906c-0.78125-0.40625-1.4688-1.1719-2.4062-1.1719-0.35938 0-0.73438 0.125-1.0156 0.35938v-2.0469c0-0.1875-0.14062-0.3125-0.29688-0.3125-0.1875 0-0.29688 0.14062-0.29688 0.3125v7.6719c0 0.17188 0.10938 0.29688 0.28125 0.29688s0.3125-0.125 0.3125-0.29688zm-1.8125 2.9688c0.17188 0 0.3125-0.125 0.3125-0.29688v-7.6719c0-0.1875-0.125-0.3125-0.29688-0.3125-0.1875 0-0.29688 0.14062-0.29688 0.3125v7.6719c0 0.17188 0.10938 0.29688 0.28125 0.29688zm2.8281-5.7031c0.82812 0 1.4688 0.64062 2.1562 1.0312l-0.73438 1.2656c-0.4375-0.26562-0.85938-0.54688-1.3906-0.54688-0.375 0-0.76562 0.125-1.0469 0.35938v-1.7031c0.25-0.28125 0.65625-0.40625 1.0156-0.40625z"/>
</g>
</defs>
<g transform="translate(-149.71 -127.78)">
<use x="148.71201" y="134.765" xlink:href="#a"/>
</g>
</svg>
