<?xml version="1.0" encoding="UTF-8"?>
<svg fill="#000000" version="1.1" viewBox="0 0 9.7812 5.6562" xmlns="http://www.w3.org/2000/svg" xmlns:xlink="http://www.w3.org/1999/xlink">
<defs>
<g id="a">
<path d="m10.266 0.40625v-2.9531c0-1.5938-1.1406-2.7031-2.6094-2.7031-1 0-1.8594 0.5-2.2969 1.3125-0.4375-0.8125-1.2656-1.3125-2.2656-1.3125-1.4844 0-2.6094 1.0781-2.6094 2.6719v2.9844h0.65625v-2.9531c0-1.125 0.85938-2.0469 1.9531-2.0469 1.0469 0 1.9531 0.84375 1.9531 2.0156v2.9844h0.65625v-2.9844c0-1.1719 0.89062-2.0156 1.9531-2.0156s1.9531 0.90625 1.9531 2.0469v2.9531z"/>
</g>
</defs>
<g transform="translate(-149.2 -129.52)">
<use x="148.71201" y="134.765" xlink:href="#a"/>
</g>
</svg>
