<?xml version="1.0" encoding="UTF-8"?>
<svg fill="#000000" version="1.1" viewBox="0 0 12.176 11.09" xmlns="http://www.w3.org/2000/svg" xmlns:xlink="http://www.w3.org/1999/xlink">
<defs>
<g id="a">
<path d="m1.0156 10.656c0.15625-0.0625 0.29688-0.10938 0.34375-0.28125 0.125-0.35938-0.23438-0.67188-0.57812-0.53125-0.42188 0.1875-0.1875 0.78125 0.09375 1 0.60938 0.45312 1.4844 0.21875 1.8906-0.39062 0.5625-0.79688 0.60938-1.8594 0.71875-2.7812 0.14062-1.0156 0.25-2.0469 0.34375-3.0625 0.0625-0.84375 0.10938-1.6875 0.1875-2.5312 0.0625-0.6875 0.15625-1.8438 0.9375-1.8594 0.26562 0 0.48438 0.078125 0.65625 0.20312-0.10938 0.03125-0.21875 0.078125-0.29688 0.1875-0.17188 0.26562-0.015625 0.60938 0.29688 0.65625 0.046875 0 0.10938 0 0.15625-0.015625 0.375-0.09375 0.375-0.51562 0.20312-0.79688-0.28125-0.45312-1.0156-0.5625-1.4844-0.35938-0.26562 0.10938-0.48438 0.3125-0.64062 0.54688-0.53125 0.78125-0.57812 1.8281-0.6875 2.7188-0.125 0.95312-0.23438 1.9219-0.32812 2.875-0.0625 0.84375-0.10938 1.6875-0.1875 2.5312-0.015625 0.14062-0.03125 0.26562-0.03125 0.39062-0.0625 0.59375-0.14062 1.625-0.89062 1.7031-0.29688 0.03125-0.5-0.09375-0.70312-0.20312zm3.3281 0v-0.01563c0.48438-0.07812 0.48438-0.71874 0.046875-0.82812h-0.15625c-0.375 0.046875-0.42188 0.46875-0.28125 0.75 0.28125 0.51562 1.0469 0.625 1.5469 0.40625 0.25-0.10938 0.46875-0.3125 0.625-0.54688 0.51562-0.76562 0.5625-1.7812 0.67188-2.6719 0.125-0.95312 0.23438-1.9062 0.32812-2.8594 0.078125-0.85938 0.125-1.7031 0.1875-2.5625 0.015625-0.125 0.03125-0.26562 0.046875-0.39062 0.0625-0.65625 0.17188-1.625 0.85938-1.7188 0.29688-0.03125 0.5 0.09375 0.71875 0.20312-0.14062 0.0625-0.28125 0.09375-0.32812 0.25-0.14062 0.32812 0.15625 0.67188 0.5 0.57812 0.4375-0.125 0.32812-0.6875 0.078125-0.92188-0.35938-0.375-1.0156-0.42188-1.4688-0.20312-0.21875 0.125-0.42188 0.3125-0.5625 0.53125-0.51562 0.79688-0.5625 1.8125-0.67188 2.7188-0.14062 1-0.25 2-0.34375 3-0.0625 0.78125-0.09375 1.5625-0.17188 2.3438-0.078125 0.8125-0.10938 2.0312-0.90625 2.1406-0.3125 0.03125-0.5-0.10938-0.71875-0.20312zm3.3281-0.01563c0.10938-0.03125 0.21875-0.0625 0.29688-0.17188 0.17188-0.26562 0-0.625-0.29688-0.65625h-0.17188c-0.35938 0.10938-0.35938 0.53125-0.1875 0.79688 0.10938 0.1875 0.29688 0.3125 0.48438 0.375 0.60938 0.23438 1.2656 0 1.6406-0.53125 0.53125-0.79687 0.57812-1.8281 0.6875-2.75 0.23438-1.7969 0.375-3.6094 0.51562-5.4219 0.01563-0.125 0.03125-0.25 0.04687-0.39062 0.04687-0.57812 0.14062-1.5938 0.85938-1.6719 0.3125-0.03125 0.5 0.09375 0.71875 0.20312-0.15625 0.0625-0.29688 0.10938-0.35938 0.28125-0.10937 0.35938 0.25 0.67188 0.57813 0.51562 0.4375-0.1875 0.20312-0.76562-0.078125-0.98438-0.60938-0.46875-1.4844-0.21875-1.9062 0.39062-0.53125 0.76562-0.57812 1.8125-0.6875 2.7188-0.26562 1.9062-0.375 3.7969-0.54688 5.7188-0.046875 0.54688-0.14062 1.7812-0.9375 1.7969-0.26562 0-0.48438-0.07813-0.65625-0.21875z"/>
</g>
</defs>
<g transform="translate(-149.26 -126.73)">
<use x="148.71201" y="126.739" xlink:href="#a"/>
</g>
</svg>
