<?xml version="1.0" encoding="UTF-8"?>
<svg fill="#000000" version="1.1" viewBox="0 0 4.7969 7.4375" xmlns="http://www.w3.org/2000/svg" xmlns:xlink="http://www.w3.org/1999/xlink">
<defs>
<g id="a">
<path d="m3.9844-6.4531-0.28125 1.0312c-0.14062-0.015625-0.28125-0.046875-0.40625-0.046875-0.92188 0-1.7656 0.42188-2.4062 1.0625l0.45312 0.45312c0.51562-0.51562 1.2031-0.875 1.9531-0.875 0.078125 0 0.17188 0.015625 0.25 0.015625l-0.46875 1.75h-2.1875v0.64062h2.0156l-0.34375 1.2812h-1.6719v0.64062h1.5l-0.35938 1.3125 0.5625 0.17188 0.39062-1.4844h2.7031v-0.64062h-2.5312l0.34375-1.2812h2.1875v-0.64062h-2.0156l0.4375-1.6094c0.42188 0.14062 0.79688 0.39062 1.1094 0.71875l0.46875-0.45312c-0.40625-0.40625-0.89062-0.70312-1.4219-0.89062l0.28125-1z"/>
</g>
</defs>
<g transform="translate(-149.6 -128.31)">
<use x="148.71201" y="134.765" xlink:href="#a"/>
</g>
</svg>
