<?xml version="1.0" encoding="UTF-8"?>
<svg fill="#000000" version="1.1" viewBox="0 0 3.1562 9.9844" xmlns="http://www.w3.org/2000/svg" xmlns:xlink="http://www.w3.org/1999/xlink">
<defs>
<g id="a">
<path d="m2.8281-4.7656c0.10938-0.10938 0.125-0.15625 0.125-0.21875 0-0.10938-0.078125-0.20312-0.1875-0.20312-0.09375 0-0.14062 0.046875-0.29688 0.20312l-0.89062 0.78125v-2.9219c0-0.17188 0-0.35938-0.1875-0.35938-0.20312 0-0.20312 0.1875-0.20312 0.35938v3.2969l-1.2344 1.1094c-0.10938 0.10938-0.15625 0.14062-0.15625 0.21875 0 0.125 0.10938 0.20312 0.20312 0.20312 0.078125 0 0.09375 0 0.29688-0.20312l0.89062-0.79688v5.4375c0 0.17188 0 0.35938 0.20312 0.35938 0.1875 0 0.1875-0.1875 0.1875-0.35938v-5.7969z"/>
</g>
</defs>
<g transform="translate(-148.51 -127.28)">
<use x="148.71201" y="134.765" xlink:href="#a"/>
</g>
</svg>
