<?xml version="1.0" encoding="UTF-8"?>
<svg fill="#000000" version="1.1" viewBox="0 0 6.625 4.4219" xmlns="http://www.w3.org/2000/svg" xmlns:xlink="http://www.w3.org/1999/xlink">
<defs>
<g id="a">
<path d="m0.75-2.2969h0.90625c0.046875 0.51562 0.28125 1 0.64062 1.375 0.42188 0.40625 0.98438 0.64062 1.5781 0.64062 0.57812 0 1.1406-0.23438 1.5625-0.64062 0.35938-0.375 0.59375-0.85938 0.64062-1.375h0.90625c0.10938 0 0.1875-0.078125 0.1875-0.20312 0-0.10938-0.078125-0.1875-0.1875-0.1875h-0.90625c-0.046875-0.51562-0.28125-1-0.64062-1.375-0.42188-0.40625-0.98438-0.64062-1.5625-0.64062-0.59375 0-1.1562 0.23438-1.5781 0.64062-0.35938 0.375-0.59375 0.85938-0.64062 1.375h-0.90625c-0.10938 0-0.20312 0.078125-0.20312 0.1875 0 0.125 0.09375 0.20312 0.20312 0.20312zm4.4062 1.0938c-0.34375 0.32812-0.8125 0.53125-1.2812 0.53125-0.48438 0-0.95312-0.20312-1.2969-0.53125-0.28125-0.29688-0.48438-0.6875-0.53125-1.0938h3.625c-0.046875 0.40625-0.23438 0.79688-0.51562 1.0938zm-2.5781-2.5781c0.34375-0.32812 0.8125-0.53125 1.2969-0.53125 0.46875 0 0.9375 0.20312 1.2812 0.53125 0.28125 0.29688 0.46875 0.6875 0.51562 1.0938h-3.625c0.046875-0.40625 0.25-0.79688 0.53125-1.0938z"/>
</g>
</defs>
<g transform="translate(-149.26 -130.06)">
<use x="148.71201" y="134.765" xlink:href="#a"/>
</g>
</svg>
