<?xml version="1.0" encoding="UTF-8"?>
<svg fill="#000000" width="4.9062" height="6.7188" version="1.1" viewBox="0 0 4.9062 6.7187" xmlns="http://www.w3.org/2000/svg" xmlns:xlink="http://www.w3.org/1999/xlink">
<defs>
<g id="a">
<path d="m2.0156 0.71875 0.78125-2.1406h2.4688c0.125 0 0.23438-0.10938 0.23438-0.23438s-0.10938-0.23438-0.23438-0.23438h-2.3125l0.5-1.3125h1.8125c0.125 0 0.23438-0.10938 0.23438-0.23438s-0.10938-0.23438-0.23438-0.23438h-1.6562l0.75-2.0312c0.03125-0.09375-0.03125-0.20312-0.14062-0.20312-0.0625 0-0.125 0.03125-0.14062 0.09375l-0.78125 2.1406h-2.2344v-1.375c0-0.125-0.10938-0.23438-0.23438-0.23438s-0.23438 0.10938-0.23438 0.23438v5c0 0.125 0.10938 0.21875 0.23438 0.21875s0.23438-0.09375 0.23438-0.21875v-1.375h1.4219l-0.75 2.0312c-0.03125 0.09375 0.03125 0.20312 0.14062 0.20312 0.0625 0 0.125-0.03125 0.14062-0.09375zm0.625-2.6094h-1.5781v-1.3125h2.0625z"/>
</g>
</defs>
<g transform="translate(-149.31 -128.86)">
<use x="148.71201" y="134.765" xlink:href="#a"/>
</g>
</svg>
