<?xml version="1.0" encoding="UTF-8"?>
<svg fill="#000000" version="1.1" viewBox="0 0 6.0938 8.8125" xmlns="http://www.w3.org/2000/svg" xmlns:xlink="http://www.w3.org/1999/xlink">
<defs>
<g id="a">
<path d="m4.7812-0.5625h1.7812c0.17188 0 0.35938 0 0.35938-0.20312s-0.1875-0.20312-0.35938-0.20312h-1.4531c0.14062-0.17188 0.46875-0.54688 0.57812-0.6875 0.078125-0.09375 0.125-0.14062 0.125-0.21875 0-0.0625-0.0625-0.20312-0.20312-0.20312-0.09375 0-0.09375 0.015625-0.28125 0.21875l-0.73438 0.89062h-0.67188c-1.6094 0-2.7031-1.1719-2.7031-2.4844 0-1.3594 1.1406-2.4844 2.6875-2.4844h2.6562c0.17188 0 0.35938 0 0.35938-0.20312s-0.1875-0.20312-0.35938-0.20312h-2.6875c-1.6719 0-3.0469 1.2656-3.0469 2.8906 0 0.84375 0.39062 1.625 1 2.1406 0.875 0.75 1.7344 0.75 2.4219 0.75l-1.2812 1.5312h-1.5938c-0.17188 0-0.34375 0-0.34375 0.20312 0 0.1875 0.17188 0.1875 0.34375 0.1875h1.25c-0.125 0.1875-0.45312 0.54688-0.5625 0.6875-0.09375 0.10938-0.125 0.15625-0.125 0.21875 0 0.078125 0.0625 0.20312 0.20312 0.20312 0.078125 0 0.09375 0 0.26562-0.20312l0.75-0.90625h3.4062c0.17188 0 0.35938 0 0.35938-0.1875 0-0.20312-0.1875-0.20312-0.35938-0.20312h-3.0781z"/>
</g>
</defs>
<g transform="translate(-149.54 -128.42)">
<use x="148.71201" y="134.765" xlink:href="#a"/>
</g>
</svg>
