<?xml version="1.0" encoding="UTF-8"?>
<svg fill="#000000" width="7.3594" height="7.3438" version="1.1" viewBox="0 0 7.3594 7.3437" xmlns="http://www.w3.org/2000/svg" xmlns:xlink="http://www.w3.org/1999/xlink">
<defs>
<g id="a">
<path d="m4.1406-7.25c-2.0625 0-3.625 1.5625-3.7188 3.6406 0 1.9375 1.4531 3.6094 3.6875 3.7031 2.0469-0.046875 3.5469-1.5312 3.6719-3.6875-0.09375-2.0938-1.5625-3.5781-3.6406-3.6562zm-2.6094 5.2812c-0.3125-0.53125-0.46875-1.0469-0.46875-1.5938 0-1.5156 0.98438-2.7031 2.5625-3.0312zm2.5781 1.4375c-0.84375 0-1.5781-0.3125-2.1719-0.90625l0.75-1.6094h2.8281l0.71875 1.6562c-0.57812 0.54688-1.2812 0.82812-2.125 0.85938zm-1.1406-3.125 1.1406-2.5312 1.125 2.5312zm3.7031 1.6875-2.0938-4.625c1.5625 0.29688 2.5625 1.5156 2.5625 3.0469 0 0.53125-0.15625 1.0625-0.46875 1.5781z"/>
</g>
</defs>
<g transform="translate(-149.13 -127.52)">
<use x="148.71201" y="134.765" xlink:href="#a"/>
</g>
</svg>
