<?xml version="1.0" encoding="UTF-8"?>
<svg fill="#000000" version="1.1" viewBox="0 0 3.2812 4.4062" xmlns="http://www.w3.org/2000/svg" xmlns:xlink="http://www.w3.org/1999/xlink">
<defs>
<g id="a">
<path d="m2.9688-2.25c0.15625 0 0.34375 0 0.34375-0.17188 0-0.14062-0.125-0.14062-0.29688-0.14062h-1.6094c0.23438-0.84375 0.79688-1.4219 1.7031-1.4219h0.3125c0.17188 0 0.32812 0 0.32812-0.17188 0-0.14062-0.125-0.14062-0.29688-0.14062h-0.35938c-1.2969 0-2.625 1-2.625 2.5156 0 1.1094 0.75 1.8906 1.7969 1.8906 0.65625 0 1.2969-0.40625 1.2969-0.51562 0-0.015625 0-0.125-0.09375-0.125-0.015625 0-0.046875 0-0.125 0.046875-0.3125 0.20312-0.6875 0.375-1.0469 0.375-0.57812 0-1.0781-0.42188-1.0781-1.2969 0-0.34375 0.078125-0.73438 0.10938-0.84375z"/>
</g>
</defs>
<g transform="translate(-149.18 -130.47)">
<use x="148.71201" y="134.765" xlink:href="#a"/>
</g>
</svg>
