<?xml version="1.0" encoding="UTF-8"?>
<svg fill="#000000" width="4.3125" height="6.8438" version="1.1" viewBox="0 0 4.3125 6.8437" xmlns="http://www.w3.org/2000/svg" xmlns:xlink="http://www.w3.org/1999/xlink">
<defs>
<g id="a">
<path d="m1.9844 0.75 0.59375-2.2188c0.3125 0.32812 0.65625 0.65625 1.1406 0.65625 0.92188 0 1.1562-1.1562 1.1562-1.375 0-0.17188-0.0625-0.29688-0.23438-0.29688-0.10938 0-0.21875 0.09375-0.21875 0.21875-0.03125 0.375-0.25 0.98438-0.70312 0.98438-0.35938 0-0.65625-0.35938-1-0.6875l0.23438-0.92188c0.23438 0.17188 0.46875 0.29688 0.76562 0.29688 0.92188 0 1.1562-1.1719 1.1562-1.3906 0-0.15625-0.0625-0.26562-0.23438-0.26562-0.10938 0-0.21875 0.078125-0.21875 0.20312-0.03125 0.375-0.25 1-0.70312 1-0.21875 0-0.42188-0.15625-0.625-0.32812l0.64062-2.3906c0.03125-0.10938-0.03125-0.20312-0.14062-0.20312-0.0625 0-0.125 0.046875-0.14062 0.10938l-0.60938 2.2344c-0.3125-0.32812-0.65625-0.65625-1.1406-0.65625-0.92188 0-1.1406 1.1406-1.1406 1.375 0 0.14062 0.046875 0.29688 0.21875 0.29688 0.10938 0 0.21875-0.09375 0.23438-0.21875 0.03125-0.375 0.23438-0.98438 0.6875-0.98438 0.375 0 0.67188 0.35938 1.0156 0.70312l-0.25 0.92188c-0.21875-0.1875-0.46875-0.3125-0.76562-0.3125-0.92188 0-1.1406 1.1406-1.1406 1.3906 0 0.125 0.046875 0.26562 0.21875 0.26562 0.10938 0 0.21875-0.078125 0.23438-0.20312 0.03125-0.375 0.23438-1 0.6875-1 0.23438 0 0.4375 0.15625 0.625 0.34375l-0.64062 2.3906c-0.015625 0.09375 0.046875 0.1875 0.15625 0.1875 0.0625 0 0.125-0.046875 0.14062-0.125z"/>
</g>
</defs>
<g transform="translate(-149.27 -128.8)">
<use x="148.71201" y="134.765" xlink:href="#a"/>
</g>
</svg>
