<?xml version="1.0" encoding="UTF-8"?>
<svg fill="#000000" version="1.1" viewBox="0 0 4.375 12.016" xmlns="http://www.w3.org/2000/svg" xmlns:xlink="http://www.w3.org/1999/xlink">
<defs>
<g id="a">
<path d="m2.8594-1.9062v1.3594l-1.0625 0.0625zm0-3.1719v1.25l-0.89062-1.2656zm-1.75 5.1406h1.75v0.9375c0 0.78125-0.375 1.5625-1.0781 1.5625h-0.48438l0.09375 0.70312h0.0625c1.25 0 2.2656-1.0156 2.2656-2.2656v-0.9375h1.2812l0.29688-1.0781-0.25-0.0625c-0.09375 0.375-0.60938 0.42188-1.0469 0.45312l-0.28125 0.015625v-4.4688l0.40625 0.015625c0.34375 0 0.64062 0.25 0.78125 0.57812h0.26562v-1.0938h-1.4531v-0.9375c0-0.76562 0.3125-1.5469 0.98438-1.5469 0.15625 0 0.32812 0.015625 0.48438 0.046875l0.17188-0.6875c-0.14062-0.046875-0.3125-0.046875-0.46875-0.046875-1.1562 0.03125-2.0312 1.0469-2.0312 2.2344v0.9375h-1.75l-0.125 0.59375 1.625 2.2969-1.625 2.2031z"/>
</g>
</defs>
<g transform="translate(-149.7 -126.02)">
<use x="148.71201" y="134.765" xlink:href="#a"/>
</g>
</svg>
