<?xml version="1.0" encoding="UTF-8"?>
<svg fill="#000000" version="1.1" viewBox="0 0 6.7841 7.2537" xmlns="http://www.w3.org/2000/svg" xmlns:xlink="http://www.w3.org/1999/xlink">
<defs>
<g id="a">
<path d="m5.9219-0.64062c0.10938 0.21875 0.28125 0.375 0.45312 0.53125 0.0625 0.046875 0.17188 0.15625 0.25 0.0625 0.03125-0.046875 0.015625-0.125 0.015625-0.17188v-1.625c0-0.15625-0.046875-0.375 0.078125-0.48438 0.0625-0.046875 0.125-0.0625 0.20312-0.078125 0.14062-0.015625 0.26562-0.015625 0.40625-0.015625v-0.3125h-2.8281v0.3125c0.26562 0 0.51562 0 0.78125 0.015625 0.125 0.015625 0.26562 0.03125 0.375 0.10938 0.09375 0.09375 0.09375 0.21875 0.09375 0.35938v0.26562c0 0.21875 0.03125 0.46875-0.03125 0.6875-0.09375 0.35938-0.4375 0.64062-0.78125 0.75-0.51562 0.1875-1.0938 0.17188-1.6094-0.03125-0.125-0.046875-0.23438-0.09375-0.34375-0.15625-0.03125-0.015625-0.09375-0.046875-0.10938-0.09375-0.015625-0.03125-0.015625-0.078125-0.015625-0.10938v-5.5781c0-0.0625-0.015625-0.125 0.046875-0.17188 0.046875-0.03125 0.10938-0.0625 0.17188-0.09375 0.14062-0.078125 0.29688-0.125 0.45312-0.1875 0.23438-0.046875 0.46875-0.078125 0.70312-0.078125 0.76562 0.046875 1.375 0.5625 1.7344 1.2188 0.125 0.23438 0.23438 0.51562 0.29688 0.79688 0.015625 0.10938 0.03125 0.1875 0.046875 0.29688 0 0.046875 0 0.10938 0.03125 0.17188s0.15625 0.078125 0.21875 0.046875c0.09375-0.03125 0.078125-0.125 0.078125-0.1875v-2.4844c0-0.046875 0-0.10938-0.046875-0.14062-0.10938-0.078125-0.1875 0.0625-0.25 0.125-0.078125 0.125-0.17188 0.26562-0.26562 0.40625-0.0625 0.09375-0.14062 0.1875-0.20312 0.29688-0.078125-0.046875-0.14062-0.125-0.1875-0.1875-0.10938-0.078125-0.20312-0.17188-0.3125-0.25-0.45312-0.3125-1-0.45312-1.5469-0.40625-0.67188 0.046875-1.2969 0.26562-1.8281 0.6875-0.96875 0.70312-1.5 1.8906-1.4531 3.0781 0.015625 0.53125 0.15625 1.0625 0.40625 1.5469 0.14062 0.28125 0.32812 0.5625 0.54688 0.79688 0.1875 0.20312 0.39062 0.39062 0.64062 0.54688 0.60938 0.42188 1.375 0.64062 2.125 0.57812 0.46875-0.03125 0.95312-0.17188 1.3281-0.46875 0.14062-0.10938 0.23438-0.23438 0.32812-0.375zm-3.375-5.4688v5.375c-0.10938-0.078125-0.20312-0.1875-0.28125-0.29688-0.21875-0.26562-0.375-0.57812-0.48438-0.90625-0.125-0.39062-0.17188-0.78125-0.20312-1.1719-0.03125-0.65625 0.03125-1.3438 0.25-1.9531 0.10938-0.29688 0.26562-0.5625 0.46875-0.79688 0.078125-0.078125 0.15625-0.1875 0.25-0.25z"/>
</g>
</defs>
<g transform="translate(-149.26 -127.72)">
<use x="148.71201" y="134.765" xlink:href="#a"/>
</g>
</svg>
