<?xml version="1.0" encoding="UTF-8"?>
<svg fill="#000000" version="1.1" viewBox="0 0 8.8624 4.6262" xmlns="http://www.w3.org/2000/svg" xmlns:xlink="http://www.w3.org/1999/xlink">
<defs>
<g id="a">
<path d="m2.0312-3.4844c0.15625-0.17188 0.29688-0.34375 0.45312-0.51562 0.10938-0.14062 0.23438-0.28125 0.34375-0.4375 0.046875-0.0625 0.10938-0.14062 0.14062-0.21875 0.015625-0.015625 0.015625-0.03125 0.015625-0.046875 0-0.125-0.15625-0.10938-0.23438-0.10938h-0.09375c-0.0625 0.03125-0.125 0.10938-0.17188 0.15625l-0.32812 0.28125c-0.34375 0.26562-0.70312 0.51562-1.0781 0.73438-0.09375 0.0625-0.20312 0.125-0.3125 0.17188-0.0625 0.03125-0.125 0.0625-0.17188 0.10938s-0.046875 0.14062-0.03125 0.20312c0.03125 0.0625 0.09375 0.0625 0.15625 0.0625h0.375 7.875 0.28125c0.046875 0 0.10938 0 0.14062-0.046875 0.015625-0.046875 0.015625-0.09375 0.015625-0.125 0-0.0625 0.015625-0.14062-0.03125-0.1875-0.03125-0.03125-0.078125-0.03125-0.14062-0.03125h-0.3125zm5.9062 1.9688c-0.15625 0.17188-0.29688 0.34375-0.45312 0.51562-0.10938 0.14062-0.23438 0.28125-0.34375 0.4375-0.046875 0.0625-0.10938 0.14062-0.14062 0.21875-0.015625 0.015625-0.015625 0.03125-0.015625 0.046875 0 0.125 0.15625 0.10938 0.23438 0.10938 0.03125 0 0.0625 0 0.09375-0.015625 0.0625-0.03125 0.125-0.09375 0.17188-0.14062l0.32812-0.28125c0.34375-0.26562 0.70312-0.51562 1.0781-0.73438 0.09375-0.0625 0.20312-0.125 0.3125-0.17188 0.0625-0.03125 0.125-0.0625 0.17188-0.10938s0.046875-0.14062 0.03125-0.20312c-0.03125-0.0625-0.09375-0.0625-0.15625-0.0625h-0.375-7.875-0.28125c-0.046875 0-0.10938 0-0.14062 0.046875-0.015625 0.03125-0.015625 0.078125-0.015625 0.125 0 0.0625-0.015625 0.125 0.03125 0.17188 0.03125 0.046875 0.078125 0.046875 0.14062 0.046875h0.3125z"/>
</g>
</defs>
<g transform="translate(-149.27 -129.95)">
<use x="148.71201" y="134.765" xlink:href="#a"/>
</g>
</svg>
