<?xml version="1.0" encoding="UTF-8"?>
<svg fill="#000000" version="1.1" viewBox="0 0 6.0938 9.0781" xmlns="http://www.w3.org/2000/svg" xmlns:xlink="http://www.w3.org/1999/xlink">
<defs>
<g id="a">
<path d="m3.875-2.0469c1.0469-0.21875 2.3281-0.25 2.6875-0.25 0.17188 0 0.35938 0 0.35938-0.20312 0-0.1875-0.15625-0.1875-0.4375-0.1875-0.75 0-1.4688-0.0625-2.2031-0.17188l1.9219-3.7812c0.078125-0.14062 0.078125-0.15625 0.078125-0.20312 0-0.10938-0.078125-0.1875-0.20312-0.1875-0.0625 0-0.10938 0.015625-0.14062 0.046875l-2.0625 4.0469c-1.8438-0.375-2.4844-1.2031-2.6406-2.1719-0.015625-0.14062-0.03125-0.26562-0.20312-0.26562-0.10938 0-0.20312 0.078125-0.20312 0.21875 0 0.046875 0 1.9844 2.8594 2.5781-0.015625 0.03125-0.03125 0.078125-0.078125 0.17188-1.1094 0.29688-2.0469 0.71875-2.5312 1.7031-0.125 0.23438-0.25 0.625-0.25 0.875 0 0.17188 0.125 0.23438 0.20312 0.23438s0.17188-0.0625 0.1875-0.1875c0.078125-0.5 0.25-1.5781 2.125-2.125l-0.5 1.0156c-0.015625 0.015625-0.40625 0.79688-0.54688 1.0469l-0.65625 1.3125c-0.0625 0.125-0.17188 0.32812-0.17188 0.39062 0 0.10938 0.078125 0.1875 0.20312 0.1875 0.046875 0 0.10938-0.015625 0.14062-0.046875z"/>
</g>
</defs>
<g transform="translate(-149.54 -127.73)">
<use x="148.71201" y="134.765" xlink:href="#a"/>
</g>
</svg>
