<?xml version="1.0" encoding="UTF-8"?>
<svg fill="#000000" version="1.1" viewBox="0 0 3.9844 11.406" xmlns="http://www.w3.org/2000/svg" xmlns:xlink="http://www.w3.org/1999/xlink">
<defs>
<g id="a">
<path d="m4.3281-0.15625v-4.4844h-1.8906v-1.375c0-1.0469 0.078125-1.7656 0.57812-1.7656 0.078125 0 0.125 0.03125 0.125 0.10938 0 0.09375-0.09375 0.078125-0.09375 0.28125 0 0.25 0.1875 0.32812 0.35938 0.32812 0.21875 0 0.42188-0.14062 0.42188-0.42188 0-0.29688-0.20312-0.60938-0.6875-0.60938-1.2031 0-1.4219 1.375-1.4219 2.1719v1.6719h2.2344v3.7188h-2.2344v1.8906c0 1-0.078125 1.6406-0.54688 1.6406-0.078125 0-0.14062-0.046875-0.14062-0.10938 0-0.09375 0.09375-0.078125 0.09375-0.28125 0-0.25-0.17188-0.34375-0.35938-0.34375-0.20312 0-0.42188 0.15625-0.42188 0.42188 0 0.3125 0.20312 0.625 0.6875 0.625 1.125 0 1.4062-1.2031 1.4062-2.0156v-1.4531zm-1.4688-2.25c0-0.45312-0.375-0.78125-0.78125-0.78125-0.375 0-0.76562 0.3125-0.76562 0.78125 0 0.48438 0.3125 0.78125 0.76562 0.78125 0.46875 0 0.78125-0.375 0.78125-0.78125z"/>
</g>
</defs>
<g transform="translate(-149.06 -126.63)">
<use x="148.71201" y="134.72501" xlink:href="#a"/>
</g>
</svg>
