<?xml version="1.0" encoding="UTF-8"?>
<svg fill="#000000" version="1.1" viewBox="0 0 6.6476 7.2551" xmlns="http://www.w3.org/2000/svg" xmlns:xlink="http://www.w3.org/1999/xlink">
<defs>
<g id="a">
<path d="m3.6875-7.0312c-0.35938 0.03125-0.70312 0.10938-1.0312 0.25-0.96875 0.39062-1.7031 1.2656-1.9688 2.2656-0.17188 0.67188-0.125 1.3906-0.125 2.0938v2.3594c0 0.0625-0.015625 0.125 0 0.1875 0.015625 0.046875 0.0625 0.078125 0.125 0.078125s0.17188 0.03125 0.23438-0.03125c0.03125-0.03125 0.03125-0.09375 0.03125-0.15625v-3.2031-0.48438c0.03125-0.3125 0.078125-0.60938 0.15625-0.90625 0.42188-1.2031 1.5781-2.0938 2.8594-2.0625 0.26562 0.015625 0.53125 0.0625 0.78125 0.14062 0.28125 0.09375 0.54688 0.23438 0.78125 0.40625 0.20312 0.14062 0.375 0.3125 0.53125 0.5 0.34375 0.40625 0.57812 0.89062 0.67188 1.4062 0.078125 0.34375 0.0625 0.70312 0.0625 1.0625v2.8281 0.34375c0 0.046875 0 0.10938 0.046875 0.14062 0.0625 0.03125 0.15625 0.015625 0.21875 0.015625s0.10938-0.015625 0.125-0.078125 0.015625-0.10938 0.015625-0.17188v-3.2031-0.46875c-0.03125-0.28125-0.0625-0.5625-0.14062-0.82812-0.15625-0.53125-0.4375-1.0625-0.82812-1.4688-0.48438-0.51562-1.1406-0.85938-1.8438-0.98438-0.21875-0.03125-0.46875-0.0625-0.70312-0.03125zm0.0625 1.5469c-0.20312 0.015625-0.39062 0.078125-0.5625 0.15625-0.14062 0.0625-0.28125 0.14062-0.39062 0.25-0.39062 0.29688-0.60938 0.78125-0.67188 1.2656-0.015625 0.14062-0.015625 0.28125-0.015625 0.4375v3.1719c0 0.09375 0.015625 0.1875 0.125 0.1875 0.078125 0.015625 0.20312 0.03125 0.26562-0.046875 0.015625-0.03125 0.015625-0.09375 0.015625-0.125v-2.8594c0-0.375-0.03125-0.76562 0.10938-1.1094 0.21875-0.5625 0.76562-0.98438 1.375-0.92188 0.10938 0.015625 0.20312 0.03125 0.29688 0.0625 0.125 0.046875 0.25 0.125 0.35938 0.20312 0.09375 0.0625 0.17188 0.14062 0.23438 0.23438 0.17188 0.21875 0.28125 0.46875 0.32812 0.73438 0.03125 0.15625 0.03125 0.3125 0.03125 0.46875v3.1719c0 0.046875 0 0.10938 0.015625 0.14062 0.046875 0.078125 0.17188 0.046875 0.23438 0.046875 0.1875 0 0.14062-0.25 0.14062-0.39062v-2.5781c0-0.28125 0.015625-0.57812-0.015625-0.85938-0.078125-0.53125-0.34375-1.0469-0.79688-1.3438-0.14062-0.09375-0.28125-0.17188-0.4375-0.21875-0.20312-0.0625-0.42188-0.09375-0.64062-0.078125z"/>
</g>
</defs>
<g transform="translate(-149.27 -127.72)">
<use x="148.71201" y="134.765" xlink:href="#a"/>
</g>
</svg>
