<?xml version="1.0" encoding="UTF-8"?>
<svg fill="#000000" version="1.1" viewBox="0 0 3.1429 6.2437" xmlns="http://www.w3.org/2000/svg" xmlns:xlink="http://www.w3.org/1999/xlink">
<defs>
<g id="a">
<path d="m0.54688-2.5h0.25c0-0.4375-0.0625-0.95312 0.1875-1.3438 0.046875-0.078125 0.10938-0.15625 0.1875-0.21875 0.17188-0.14062 0.42188-0.14062 0.60938 0 0.125 0.078125 0.21875 0.21875 0.26562 0.35938 0.078125 0.20312 0.09375 0.4375 0.09375 0.67188v2.7188h-1.4219v0.29688h1.4219v1.8438h0.23438c0-0.10938 0.015625-0.21875 0.03125-0.34375 0.0625-0.60938 0.34375-1.3594 1-1.5469 0.09375-0.03125 0.1875-0.03125 0.28125-0.03125v-0.21875h-0.85938v-2.2344c0-0.4375 0.046875-0.90625-0.17188-1.2969-0.1875-0.35938-0.57812-0.51562-0.96875-0.5625-0.14062-0.015625-0.29688-0.015625-0.4375 0.03125-0.17188 0.0625-0.3125 0.17188-0.42188 0.3125-0.32812 0.46875-0.28125 1.0312-0.28125 1.5625z"/>
</g>
</defs>
<g transform="translate(-149.26 -130.35)">
<use x="148.71201" y="134.765" xlink:href="#a"/>
</g>
</svg>
