<?xml version="1.0" encoding="UTF-8"?>
<svg fill="#000000" version="1.1" viewBox="0 0 7.1094 3.0312" xmlns="http://www.w3.org/2000/svg" xmlns:xlink="http://www.w3.org/1999/xlink">
<defs>
<g id="a">
<path d="m0.82812-0.73438c0.26562 0 0.5-0.76562 2.4219-0.9375 0.125 0 0.20312-0.10938 0.20312-0.21875 0-0.14062-0.10938-0.23438-0.21875-0.23438-0.35938 0-1.2188 0.26562-1.75 0.32812 0.625-0.9375 1.7031-1.5 2.8281-1.5 1.4219 0 2.4688 0.85938 2.9531 1.7969 0.046875 0.078125 0.125 0.14062 0.21875 0.14062 0.125 0 0.21875-0.125 0.21875-0.23438 0-0.21875-1.0625-2.1719-3.3906-2.1719-1.1719 0-2.2812 0.54688-3 1.4375-0.15625-1.0625-0.125-1.4375-0.42188-1.4375-0.14062 0-0.23438 0.10938-0.23438 0.23438 0 0.046875 0.20312 0.6875 0.20312 1.3281 0 0.8125-0.26562 1.0469-0.26562 1.2344 0 0.125 0.10938 0.23438 0.23438 0.23438z"/>
</g>
</defs>
<g transform="translate(-149.31 -131)">
<use x="148.71201" y="134.765" xlink:href="#a"/>
</g>
</svg>
