<?xml version="1.0" encoding="UTF-8"?>
<svg fill="#000000" version="1.1" viewBox="0 0 8.125 7.25" xmlns="http://www.w3.org/2000/svg" xmlns:xlink="http://www.w3.org/1999/xlink">
<defs>
<g id="a">
<path d="m0.6875-5.1719 0.42188-0.84375 0.28125-0.125c1.0781 2.2812 1.5469 2.9844 1.9219 2.9844 0.28125 0 0.51562-0.10938 0.71875-0.34375 0.73438-1.7656 1.1562-2.6719 1.25-2.7188l0.34375 0.28125 1.3125 2.375 0.5 0.40625h0.48438c0.51562-0.32812 0.6875-0.92188 0.6875-2.1562l-0.28125 0.84375c-0.046875 0.21875-0.1875 0.35938-0.40625 0.40625-0.28125-0.28125-0.71875-1.0156-1.3281-2.2344-0.3125-0.60938-0.5625-0.82812-0.98438-0.82812-0.20312 0-0.40625 0.0625-0.60938 0.21875l-1.3281 2.9219-0.26562-0.35938-0.98438-2.0938-0.5625-0.60938h-0.40625c-0.46875 0.32812-0.71875 0.95312-0.76562 1.875zm-0.20312 3.2031 0.34375-0.64062 0.34375-0.26562c0.28125 0.35938 0.71875 1.2031 1.3281 2.5l0.26562 0.34375c0.078125 0.09375 0.21875 0.15625 0.40625 0.15625 0.53125 0 0.79688-0.26562 1.6875-2.7344 0.046875-0.1875 0.17188-0.26562 0.34375-0.26562l0.28125 0.26562 0.96875 1.8125c0.1875 0.42188 0.46875 0.73438 0.82812 0.90625h0.5c0.40625-0.14062 0.65625-0.85938 0.6875-2.1562-0.14062 0.59375-0.35938 1.0156-0.6875 1.25-0.32812-0.28125-0.82812-1.1094-1.5312-2.5l-0.42188-0.40625c-0.14062-0.078125-0.29688-0.10938-0.42188-0.10938-0.23438 0-0.4375 0.10938-0.625 0.3125l-1.25 2.7812c-0.21875-0.23438-0.64062-1.0312-1.25-2.375-0.14062-0.3125-0.34375-0.54688-0.60938-0.6875h-0.42188c-0.375 0.14062-0.625 0.73438-0.76562 1.8125z"/>
</g>
</defs>
<g transform="translate(-149.2 -127.64)">
<use x="148.71201" y="134.765" xlink:href="#a"/>
</g>
</svg>
