<?xml version="1.0" encoding="UTF-8"?>
<svg fill="#000000" version="1.1" viewBox="0 0 2.6094 4.5156" xmlns="http://www.w3.org/2000/svg" xmlns:xlink="http://www.w3.org/1999/xlink">
<defs>
<g id="a">
<path d="m1.3125-2.4219c0.26562-0.26562 0.29688-0.29688 0.73438-0.76562l0.21875-0.21875c0.10938-0.125 0.14062-0.15625 0.14062-0.21875 0-0.10938-0.078125-0.20312-0.20312-0.20312-0.09375 0-0.10938 0.015625-0.23438 0.15625-0.0625 0.046875-0.48438 0.5-0.65625 0.67188v-0.95312c0-0.15625 0-0.34375-0.20312-0.34375s-0.20312 0.1875-0.20312 0.35938v1.3594l-0.75 0.78125-0.21875 0.21875c-0.10938 0.125-0.14062 0.15625-0.14062 0.21875 0 0.10938 0.078125 0.20312 0.20312 0.20312 0.09375 0 0.10938-0.03125 0.23438-0.14062 0.078125-0.09375 0.4375-0.46875 0.67188-0.70312v1.875c0 0.17188 0 0.34375 0.20312 0.34375s0.20312-0.17188 0.20312-0.34375z"/>
</g>
</defs>
<g transform="translate(-148.51 -130.47)">
<use x="148.71201" y="134.765" xlink:href="#a"/>
</g>
</svg>
