<?xml version="1.0" encoding="UTF-8"?>
<svg fill="#000000" width="4.0156" height="7.0938" version="1.1" viewBox="0 0 4.0156 7.0937" xmlns="http://www.w3.org/2000/svg" xmlns:xlink="http://www.w3.org/1999/xlink">
<defs>
<g id="a">
<path d="m5.9375-6.0938c-0.0625 0-0.14062 0.03125-0.17188 0.09375-0.8125 0.96875-1.25 2.1875-1.25 3.4531s0.4375 2.4844 1.25 3.4531c0.03125 0.0625 0.10938 0.09375 0.17188 0.09375 0.125 0 0.21875-0.09375 0.21875-0.23438 0-0.046875 0-0.10938-0.046875-0.14062-0.73438-0.89062-1.1406-2.0156-1.1406-3.1719s0.40625-2.2812 1.1406-3.1719c0.046875-0.03125 0.046875-0.09375 0.046875-0.14062 0-0.14062-0.09375-0.23438-0.21875-0.23438zm-3.5625 7.0938c0.0625 0 0.125-0.03125 0.17188-0.09375 0.79688-0.96875 1.2344-2.1875 1.2344-3.4531s-0.4375-2.4844-1.2344-3.4531c-0.046875-0.0625-0.10938-0.09375-0.17188-0.09375-0.125 0-0.23438 0.09375-0.23438 0.23438 0 0.046875 0.015625 0.10938 0.046875 0.14062 0.75 0.89062 1.1406 2.0156 1.1406 3.1719s-0.39062 2.2812-1.1406 3.1719c-0.03125 0.03125-0.046875 0.09375-0.046875 0.14062 0 0.14062 0.10938 0.23438 0.23438 0.23438z"/>
</g>
</defs>
<g transform="translate(-150.85 -128.67)">
<use x="148.71201" y="134.765" xlink:href="#a"/>
</g>
</svg>
