<?xml version="1.0" encoding="UTF-8"?>
<svg fill="#000000" version="1.1" viewBox="0 0 4.3281 4.2969" xmlns="http://www.w3.org/2000/svg" xmlns:xlink="http://www.w3.org/1999/xlink">
<defs>
<g id="a">
<path d="m0.34375-4.3125v0.25c0.14062 0 0.28125 0 0.40625 0.015625 0.09375 0.015625 0.17188 0.046875 0.23438 0.125 0.046875 0.078125 0.046875 0.20312 0.046875 0.29688v2.9219c0 0.10938 0 0.21875-0.046875 0.29688-0.046875 0.09375-0.125 0.10938-0.21875 0.14062-0.14062 0.015625-0.28125 0.015625-0.42188 0.015625v0.23438h3.9375l0.09375-0.015625 0.046875-0.09375 0.046875-0.25 0.20312-0.96875h-0.17188c-0.03125 0-0.046875 0-0.078125 0.015625s-0.03125 0.078125-0.03125 0.10938c-0.03125 0.078125-0.046875 0.15625-0.078125 0.23438-0.0625 0.21875-0.1875 0.4375-0.39062 0.5625-0.21875 0.125-0.46875 0.15625-0.71875 0.15625-0.29688 0.015625-0.59375 0.015625-0.89062 0.015625-0.125 0-0.26562 0.015625-0.375-0.015625-0.078125 0-0.14062-0.03125-0.15625-0.078125-0.03125-0.0625-0.046875-0.10938-0.0625-0.17188v-0.375-1.2031c0.26562 0 0.53125-0.015625 0.79688 0.015625 0.14062 0 0.28125 0.03125 0.39062 0.125 0.10938 0.125 0.125 0.3125 0.125 0.46875h0.25v-1.5h-0.25c0 0.15625-0.015625 0.34375-0.125 0.46875-0.10938 0.09375-0.25 0.10938-0.39062 0.125-0.26562 0.015625-0.53125 0.015625-0.79688 0.015625v-1.1719c0-0.14062-0.03125-0.34375 0.078125-0.45312 0.0625-0.0625 0.17188-0.0625 0.25-0.0625h0.51562 0.59375c0.20312 0.015625 0.4375 0.03125 0.625 0.14062 0.10938 0.0625 0.20312 0.15625 0.25 0.26562 0.10938 0.17188 0.14062 0.35938 0.1875 0.5625h0.25l-0.1875-1.2188z"/>
</g>
</defs>
<g transform="translate(-149.06 -130.45)">
<use x="148.71201" y="134.765" xlink:href="#a"/>
</g>
</svg>
