<?xml version="1.0" encoding="UTF-8"?>
<svg fill="#000000" version="1.1" viewBox="0 0 7.4774 7.6113" xmlns="http://www.w3.org/2000/svg" xmlns:xlink="http://www.w3.org/1999/xlink">
<defs>
<g id="a">
<path d="m1.7344-5.5781c-0.078125 0.078125-0.17188 0.14062-0.26562 0.21875-0.15625 0.14062-0.3125 0.28125-0.45312 0.4375-0.59375 0.71875-0.90625 1.625-0.875 2.5625 0.015625 0.35938 0.09375 0.75 0.20312 1.0938 0.10938 0.3125 0.26562 0.625 0.45312 0.89062 0.17188 0.25 0.375 0.46875 0.59375 0.67188 0.34375 0.29688 0.75 0.54688 1.1875 0.70312 0.90625 0.34375 1.9531 0.3125 2.8438-0.09375 0.45312-0.20312 0.875-0.5 1.2031-0.85938 0.26562-0.3125 0.5-0.65625 0.67188-1.0312 0.53125-1.1875 0.39062-2.5938-0.35938-3.6719-0.21875-0.3125-0.48438-0.59375-0.78125-0.8125-0.46875-0.35938-1-0.57812-1.5469-0.70312l-0.078125 0.40625c0.39062 0.046875 0.78125 0.21875 1.125 0.4375 0.3125 0.1875 0.57812 0.4375 0.8125 0.73438 0.23438 0.28125 0.42188 0.60938 0.54688 0.96875 0.35938 0.98438 0.21875 2.1094-0.35938 2.9844-0.21875 0.29688-0.48438 0.59375-0.78125 0.8125-0.32812 0.23438-0.6875 0.42188-1.0625 0.53125-0.34375 0.09375-0.70312 0.14062-1.0469 0.14062-1.0781-0.046875-2.0938-0.625-2.7031-1.5469-0.21875-0.35938-0.375-0.75-0.46875-1.1562-0.078125-0.39062-0.078125-0.79688 0-1.1875 0.046875-0.40625 0.20312-0.8125 0.40625-1.1562 0.25-0.39062 0.5625-0.73438 0.9375-1.0156-0.03125 0.23438-0.078125 0.45312-0.125 0.6875-0.015625 0.10938-0.03125 0.23438-0.046875 0.35938-0.015625 0.09375-0.015625 0.1875-0.03125 0.28125-0.015625 0.046875-0.015625 0.125 0 0.17188 0.046875 0.15625 0.21875 0.03125 0.29688-0.03125 0.015625-0.015625 0.046875-0.03125 0.046875-0.046875 0.03125-0.0625 0.0625-0.14062 0.078125-0.20312 0.03125-0.10938 0.078125-0.23438 0.125-0.34375 0.14062-0.34375 0.32812-0.6875 0.51562-1.0156 0.09375-0.14062 0.20312-0.29688 0.29688-0.4375 0.046875-0.0625 0.10938-0.14062 0.078125-0.20312-0.046875-0.078125-0.125-0.0625-0.20312-0.0625-0.17188-0.015625-0.35938-0.015625-0.53125-0.03125-0.4375-0.03125-0.85938-0.09375-1.2656-0.15625-0.14062-0.03125-0.28125-0.0625-0.42188-0.09375-0.078125 0-0.15625-0.03125-0.23438-0.03125-0.10938 0.015625-0.34375 0.17188-0.1875 0.29688 0.078125 0.046875 0.17188 0.0625 0.25 0.10938 0.17188 0.0625 0.34375 0.125 0.51562 0.1875 0.21875 0.0625 0.42188 0.15625 0.64062 0.20312z"/>
</g>
</defs>
<g transform="translate(-148.85 -128.39)">
<use x="148.71201" y="134.765" xlink:href="#a"/>
</g>
</svg>
