<?xml version="1.0" encoding="UTF-8"?>
<svg fill="#000000" version="1.1" viewBox="0 0 4.3594 6.2812" xmlns="http://www.w3.org/2000/svg" xmlns:xlink="http://www.w3.org/1999/xlink">
<defs>
<g id="a">
<path d="m2.6094-5.3281v0.76562c0 0.14062-0.17188 0.10938-0.29688 0.14062-1.0938 0.1875-1.9844 1.1094-1.9844 2.3125 0 1.2188 1.0312 2.0156 2.1875 2.2031 0.078125 0 0.09375 0.03125 0.09375 0.10938v0.75h0.3125v-0.75c0-0.15625 0.32812-0.14062 0.51562-0.1875 0.5625-0.14062 0.98438-0.51562 1.2188-1.0781 0.015625-0.03125 0.03125-0.078125 0.03125-0.14062 0-0.046875-0.03125-0.09375-0.10938-0.09375-0.125 0-0.14062 0.09375-0.17188 0.1875-0.26562 0.64062-0.85938 0.95312-1.4844 0.95312v-4.0625c0.42188 0.0625 0.75 0.078125 1.2031 0.34375v0.015625c-0.26562 0.015625-0.45312 0.1875-0.45312 0.46875s0.20312 0.45312 0.46875 0.45312c0.28125 0 0.4375-0.21875 0.4375-0.46875 0-0.82812-0.98438-1.0156-1.6562-1.0625v-0.85938zm0 1.125v4.0312c-1.0156-0.14062-1.4375-1.1406-1.4375-1.9844 0-0.90625 0.42188-1.9375 1.4375-2.0469z"/>
</g>
</defs>
<g transform="translate(-149.04 -129.44)">
<use x="148.71201" y="134.765" xlink:href="#a"/>
</g>
</svg>
