<?xml version="1.0" encoding="UTF-8"?>
<svg fill="#000000" width="7.8438" height="7.8438" version="1.1" viewBox="0 0 7.8438 7.8437" xmlns="http://www.w3.org/2000/svg" xmlns:xlink="http://www.w3.org/1999/xlink">
<defs>
<g id="a">
<path d="m4.75 0.29688v-3.3125h3.3125c0.17188 0 0.3125-0.14062 0.3125-0.29688 0-0.17188-0.14062-0.3125-0.3125-0.3125h-3.3125v-3.3125c0-0.17188-0.14062-0.3125-0.29688-0.3125-0.17188 0-0.3125 0.14062-0.3125 0.3125v3.3125h-3.3125c-0.17188 0-0.29688 0.14062-0.29688 0.3125 0 0.15625 0.125 0.29688 0.29688 0.29688h3.3125v3.3125c0 0.17188 0.14062 0.29688 0.3125 0.29688 0.15625 0 0.29688-0.125 0.29688-0.29688z"/>
</g>
</defs>
<g transform="translate(-149.24 -128.29)">
<use x="148.71201" y="135.53999" xlink:href="#a"/>
</g>
</svg>
