<?xml version="1.0" encoding="UTF-8"?>
<svg fill="#000000" version="1.1" viewBox="0 0 9.0625 7.3125" xmlns="http://www.w3.org/2000/svg" xmlns:xlink="http://www.w3.org/1999/xlink">
<defs>
<g id="a">
<path d="m2.2969-3.3594c-0.25 0.20312-0.51562 0.34375-0.70312 0.34375-0.45312 0-0.70312-0.1875-0.75-0.5-0.015625-0.046875-0.015625-0.09375-0.015625-0.14062 0-0.32812 0.17188-0.75 0.48438-1.1719 0.375-0.5625 0.95312-1.0938 1.6094-1.4844 0.64062-0.39062 1.3125-0.60938 1.8281-0.60938 0.54688 0 0.875 0.1875 0.96875 0.54688v0.14062c0 0.35938-0.21875 0.82812-0.57812 1.2969l-0.98438 1.4062c-0.1875 0.26562-0.26562 0.53125-0.26562 0.76562 0 0.14062 0.03125 0.25 0.0625 0.375 0.10938 0.3125 0.40625 0.5 0.82812 0.5 0.14062 0 0.29688-0.015625 0.46875-0.078125-0.82812 1.0156-1.8438 1.9062-2.7031 1.9062-0.75 0-1.2812-0.17188-1.2812-0.57812 0-0.078125 0.015625-0.15625 0.046875-0.25 0.078125 0.0625 0.15625 0.078125 0.25 0.078125 0.23438 0 0.54688-0.1875 0.54688-0.375 0-0.25-0.15625-0.34375-0.32812-0.34375-0.21875 0-0.45312 0.125-0.57812 0.29688-0.17188 0.25-0.25 0.45312-0.25 0.625 0 0.54688 0.75 0.78125 1.5469 0.78125 1.2969 0 3.0469-1.2344 3.9844-2.5625 0.76562-1.0938 0.92188-2.0781 1.6719-3.1406 0.32812-0.46875 0.85938-0.92188 1.4219-1.25 0.015625-0.03125 0.046875-0.046875 0.046875-0.078125l-0.03125-0.078125c0-0.03125-0.046875-0.046875-0.078125-0.046875-0.015625 0-0.03125 0-0.03125 0.015625-0.625 0.375-1.4375 0.76562-1.8438 1.3438-0.75 1.0469-1.2656 2.0938-2.0156 3.125-0.03125 0.0625-0.0625 0.10938-0.14062 0.17188-0.23438 0.14062-0.48438 0.21875-0.65625 0.21875-0.1875 0-0.26562-0.10938-0.26562-0.26562v-0.0625c0.015625-0.29688 0.20312-0.64062 0.45312-1l0.98438-1.3906c0.29688-0.40625 0.4375-0.79688 0.4375-1.1406 0-0.1875-0.046875-0.34375-0.125-0.48438-0.25-0.48438-0.8125-0.6875-1.5156-0.6875-0.59375 0-1.3125 0.23438-2 0.64062-0.70312 0.42188-1.3281 0.98438-1.7344 1.5625-0.3125 0.45312-0.5 0.89062-0.5 1.2656 0 0.078125 0.015625 0.15625 0.03125 0.21875 0.078125 0.42188 0.4375 0.65625 0.96875 0.65625 0.3125 0 0.6875-0.15625 1.0469-0.39062 0.39062-0.26562 0.71875-0.60938 0.96875-0.95312 0.34375-0.48438 0.53125-0.96875 0.53125-1.375 0-0.29688-0.10938-0.5625-0.29688-0.75-0.03125 0-0.046875-0.015625-0.0625-0.015625s-0.03125 0-0.046875 0.015625l-0.046875 0.03125c-0.03125 0.03125-0.046875 0.046875-0.046875 0.078125v0.03125c0.03125 0.10938 0.046875 0.21875 0.046875 0.34375 0 0.4375-0.20312 0.96875-0.60938 1.5469-0.21875 0.3125-0.4375 0.60938-0.75 0.875z"/>
</g>
</defs>
<g transform="translate(-149.27 -127.62)">
<use x="148.71201" y="134.765" xlink:href="#a"/>
</g>
</svg>
