<?xml version="1.0" encoding="UTF-8"?>
<svg fill="#000000" version="1.1" viewBox="0 0 4.3125 8.625" xmlns="http://www.w3.org/2000/svg" xmlns:xlink="http://www.w3.org/1999/xlink">
<defs>
<g id="a">
<path d="m0.5625-4.9219c0 0.0625 0.015625 0.125 0.078125 0.17188 0.64062 0.53125 1.3438 1.0625 2.125 1.4062l-0.10938 0.45312c-0.75 0.34375-1.4062 0.84375-2.0156 1.3594-0.0625 0.046875-0.078125 0.10938-0.078125 0.17188 0 0.125 0.078125 0.23438 0.21875 0.23438 0.20312 0 0.64062-0.57812 1.7188-1.1719l-0.51562 1.8906h-1.2031c-0.125 0-0.21875 0.10938-0.21875 0.23438s0.09375 0.23438 0.21875 0.23438h1.0781l-0.40625 1.5156c-0.015625 0.09375 0.046875 0.1875 0.15625 0.1875 0.0625 0 0.10938-0.046875 0.14062-0.10938l0.42188-1.5938h2.4688c0.14062 0 0.23438-0.10938 0.23438-0.23438s-0.09375-0.23438-0.23438-0.23438h-2.3438l0.54688-2.0781c0.57812-0.26562 1.1719-0.42188 1.7969-0.42188 0.14062 0 0.23438-0.10938 0.23438-0.23438s-0.09375-0.23438-0.23438-0.23438c-0.5 0-1-0.10938-1.4688-0.29688l0.8125-3c0.015625-0.09375-0.046875-0.1875-0.15625-0.1875-0.0625 0-0.125 0.046875-0.14062 0.10938l-0.79688 2.9688c-0.6875-0.32812-1.3281-0.79688-1.9688-1.3281-0.03125-0.03125-0.078125-0.046875-0.14062-0.046875-0.14062 0-0.21875 0.10938-0.21875 0.23438zm2.4375 1.875 0.046875-0.17188c0.078125 0.03125 0.15625 0.046875 0.23438 0.078125-0.09375 0.03125-0.1875 0.0625-0.28125 0.09375z"/>
</g>
</defs>
<g transform="translate(-149.27 -127.91)">
<use x="148.71201" y="134.765" xlink:href="#a"/>
</g>
</svg>
