<?xml version="1.0" encoding="UTF-8"?>
<svg fill="#000000" version="1.1" viewBox="0 0 5.375 4.7812" xmlns="http://www.w3.org/2000/svg" xmlns:xlink="http://www.w3.org/1999/xlink">
<defs>
<g id="a">
<path d="m1.7188-0.17188 4.3281-2.1719c0.09375-0.03125 0.14062-0.10938 0.14062-0.20312s-0.046875-0.17188-0.14062-0.20312l-4.3281-2.1719c-0.03125-0.015625-0.0625-0.015625-0.10938-0.015625-0.0625 0-0.14062 0.03125-0.1875 0.10938-0.40625 0.71875-0.60938 1.5-0.60938 2.2812s0.20312 1.5625 0.60938 2.2812c0.046875 0.078125 0.125 0.10938 0.1875 0.10938 0.046875 0 0.078125 0 0.10938-0.015625zm3.7188-2.375-3.7188 1.8594c-0.29688-0.57812-0.4375-1.2188-0.4375-1.8594s0.14062-1.2812 0.4375-1.8594z"/>
</g>
</defs>
<g transform="translate(-149.52 -129.83)">
<use x="148.71201" y="134.765" xlink:href="#a"/>
</g>
</svg>
