<?xml version="1.0" encoding="UTF-8"?>
<svg fill="#000000" version="1.1" viewBox="0 0 8.9844 10.672" xmlns="http://www.w3.org/2000/svg" xmlns:xlink="http://www.w3.org/1999/xlink">
<defs>
<g id="a">
<path d="m0.96875-8.0781-0.078125 0.40625c0.39062 0.09375 0.92188 0.23438 0.92188 0.45312v8.9531c0 0.21875-0.51562 0.35938-0.89062 0.45312l-0.03125 0.40625h8.9844l-0.03125-0.40625c-0.375-0.09375-0.89062-0.23438-0.89062-0.45312v-8.9531c0-0.21875 0.53125-0.35938 0.92188-0.45312l-0.078125-0.40625h-2.5625l-0.0625 0.40625c0.39062 0.09375 0.90625 0.23438 0.90625 0.45312v9.1719h-5.3906v-9.1719c0-0.21875 0.51562-0.35938 0.90625-0.45312l-0.0625-0.40625z"/>
</g>
</defs>
<g transform="translate(-149.6 -126.69)">
<use x="148.71201" y="134.765" xlink:href="#a"/>
</g>
</svg>
