<?xml version="1.0" encoding="UTF-8"?>
<svg fill="#000000" width="1.1719" height="2.9688" version="1.1" viewBox="0 0 1.1719 2.9687" xmlns="http://www.w3.org/2000/svg" xmlns:xlink="http://www.w3.org/1999/xlink">
<defs>
<g id="a">
<path d="m1.7812-0.1875c0.015625 0.046875 0.03125 0.10938 0.03125 0.17188 0 0.67188-0.3125 1.25-0.75 1.7344-0.03125 0.03125-0.046875 0.0625-0.046875 0.09375 0 0.046875 0.046875 0.09375 0.09375 0.09375 0.14062 0 0.42188-0.375 0.54688-0.59375 0.23438-0.40625 0.375-0.875 0.375-1.3438 0-0.45312-0.14062-1.0312-0.65625-1.0312-0.29688 0-0.51562 0.21875-0.51562 0.53125 0 0.32812 0.25 0.51562 0.53125 0.51562 0.14062 0 0.29688-0.046875 0.39062-0.17188z"/>
</g>
</defs>
<g transform="translate(-149.57 -133.7)">
<use x="148.71201" y="134.765" xlink:href="#a"/>
</g>
</svg>
