<?xml version="1.0" encoding="UTF-8"?>
<svg fill="#000000" version="1.1" viewBox="0 0 7.1719 7.1406" xmlns="http://www.w3.org/2000/svg" xmlns:xlink="http://www.w3.org/1999/xlink">
<defs>
<g id="a">
<path d="m3.6719-5.5781c-0.6875 0.35938-1.5469 0.9375-1.5469 1.7031 0 0.1875 0.46875 0.78125 0.53125 0.85938 0.1875 0.20312 0.32812 0.45312 0.32812 0.73438 0 0.67188-0.95312 0.95312-1.5938 0.95312-0.4375 0.375-0.8125 0.8125-1.0781 1.3281l0.17188 0.15625c0.23438-0.375 0.60938-0.79688 1.0625-0.79688 0.625 0 1.3906 0.3125 2.0156 0.5625 0.32812 0.125 0.90625 0.34375 1.1094 0.34375 0.59375 0 1.5938-1.0469 2.2188-1.7344 0.34375-0.89062 0.54688-1.6562 0.54688-2.625 0-1.1719-0.8125-2.2656-1.9375-2.5781-0.65625-0.1875-1.1719-0.20312-1.7812-0.20312-0.90625 0-1.9375 0.3125-2.6094 0.96875-0.57812 0.57812-0.84375 1.3281-0.84375 2.1406l0.21875 0.10938c0.03125-0.59375 0.21875-1.25 0.65625-1.6875 0.59375-0.59375 1.4844-0.75 2.3125-0.75 0.9375 0 1.875 0.21875 2.5469 0.89062 0.51562 0.51562 0.6875 1.25 0.6875 1.9688 0 0.64062-0.0625 1.375-0.42188 1.9062-0.32812 0.51562-0.53125 0.84375-1.1562 0.84375-0.20312 0-0.9375-0.26562-1.375-0.42188-0.42188-0.15625-0.90625-0.3125-1.3281-0.40625 0.60938-0.25 1.4688-0.73438 1.4688-1.4531 0-0.46875-0.89062-1.2344-0.89062-1.6406 0-0.375 0.57812-0.89062 0.84375-1.0625z"/>
</g>
</defs>
<g transform="translate(-148.98 -127.89)">
<use x="148.71201" y="134.765" xlink:href="#a"/>
</g>
</svg>
