<?xml version="1.0" encoding="UTF-8"?>
<svg fill="#000000" version="1.1" viewBox="0 0 4.8281 7.0258" xmlns="http://www.w3.org/2000/svg" xmlns:xlink="http://www.w3.org/1999/xlink">
<defs>
<g id="a">
<path d="m0.26562-0.3125v0.29688l0.4375-0.015625 0.875-0.015625 0.89062 0.03125v-0.29688c-0.15625 0-0.3125 0-0.46875-0.03125-0.078125 0-0.15625-0.015625-0.21875-0.0625-0.09375-0.078125-0.09375-0.21875-0.09375-0.32812v-0.9375c0-0.03125 0-0.078125 0.015625-0.10938 0.03125-0.078125 0.125-0.125 0.1875-0.1875 0.14062-0.125 0.29688-0.25 0.4375-0.375 0.078125 0.15625 0.20312 0.29688 0.29688 0.45312 0.25 0.32812 0.5 0.67188 0.71875 1.0156 0.10938 0.14062 0.25 0.39062 0.046875 0.5-0.03125 0.03125-0.0625 0.03125-0.09375 0.03125-0.046875 0.03125-0.10938 0.03125-0.15625 0.03125v0.29688l0.875-0.03125 0.75 0.015625 0.32812 0.015625v-0.29688c-0.17188 0-0.35938 0-0.51562-0.09375-0.23438-0.125-0.375-0.35938-0.51562-0.5625-0.26562-0.35938-0.51562-0.70312-0.76562-1.0625-0.10938-0.17188-0.23438-0.34375-0.35938-0.51562-0.03125-0.03125-0.0625-0.078125-0.09375-0.125-0.015625-0.015625-0.03125-0.046875-0.015625-0.0625 0-0.0625 0.0625-0.09375 0.10938-0.14062l0.32812-0.28125c0.45312-0.39062 0.96875-0.84375 1.6094-0.84375v-0.3125l-0.89062 0.03125-0.92188-0.03125v0.3125c0.03125 0 0.09375 0.015625 0.125 0.03125s0.0625 0.03125 0.078125 0.046875c0.15625 0.15625 0.03125 0.375-0.078125 0.5-0.15625 0.14062-0.3125 0.26562-0.46875 0.40625-0.34375 0.28125-0.67188 0.57812-1 0.85938v-2.2188c0-0.45312-0.046875-0.9375 0.078125-1.375 0.046875-0.17188 0.10938-0.34375 0.21875-0.48438 0.0625-0.10938 0.15625-0.21875 0.25-0.3125 0.39062-0.32812 0.92188-0.32812 1.3906-0.14062 0.10938 0.03125 0.1875 0.10938 0.29688 0.17188-0.15625 0.03125-0.29688 0.0625-0.39062 0.20312-0.10938 0.17188-0.10938 0.42188 0.046875 0.57812 0.09375 0.09375 0.20312 0.125 0.32812 0.14062 0.0625 0 0.125-0.015625 0.17188-0.03125 0.03125 0 0.078125-0.03125 0.125-0.0625 0.28125-0.20312 0.1875-0.64062 0-0.875-0.20312-0.25-0.51562-0.375-0.8125-0.4375-0.70312-0.14062-1.4531 0.078125-1.9219 0.64062-0.21875 0.26562-0.39062 0.57812-0.4375 0.90625-0.046875 0.3125-0.015625 0.625-0.015625 0.9375v3.6719c0 0.14062 0.03125 0.32812-0.09375 0.4375-0.0625 0.046875-0.14062 0.0625-0.21875 0.0625-0.15625 0.03125-0.3125 0.03125-0.46875 0.03125z"/>
</g>
</defs>
<g transform="translate(-148.98 -127.72)">
<use x="148.71201" y="134.765" xlink:href="#a"/>
</g>
</svg>
