<?xml version="1.0" encoding="UTF-8"?>
<svg fill="#000000" version="1.1" viewBox="0 0 7.1094 4.5625" xmlns="http://www.w3.org/2000/svg" xmlns:xlink="http://www.w3.org/1999/xlink">
<defs>
<g id="a">
<path d="m3.5156-0.35938 0.71875-1.9531h3.0156v1.2031c0 0.10938 0.09375 0.21875 0.23438 0.21875 0.125 0 0.21875-0.10938 0.21875-0.21875v-2.875c0-0.10938-0.09375-0.21875-0.21875-0.21875-0.14062 0-0.23438 0.10938-0.23438 0.21875v1.2188h-2.8594l0.6875-1.875c0.03125-0.078125-0.03125-0.1875-0.14062-0.1875-0.0625 0-0.125 0.03125-0.14062 0.09375l-0.71875 1.9688h-3.25c-0.125 0-0.23438 0.09375-0.23438 0.21875s0.10938 0.23438 0.23438 0.23438h3.0781l-0.67188 1.8594c-0.03125 0.078125 0.03125 0.1875 0.14062 0.1875 0.0625 0 0.10938-0.03125 0.14062-0.09375z"/>
</g>
</defs>
<g transform="translate(-149.31 -129.94)">
<use x="148.71201" y="134.765" xlink:href="#a"/>
</g>
</svg>
