<?xml version="1.0" encoding="UTF-8"?>
<svg fill="#000000" version="1.1" viewBox="0 0 8.3125 8.2812" xmlns="http://www.w3.org/2000/svg" xmlns:xlink="http://www.w3.org/1999/xlink">
<defs>
<g id="a">
<path d="m7.8906 0.015625c-0.60938 0.76562-1.5938 1.1562-2.9688 1.1562-2.2656 0-3.6562-1.1719-3.6562-3.0781 0-2.1719 1.4062-3.625 3.625-3.625 1.75 0 2.9062 0.98438 2.9062 2.4844 0 1.1094-0.90625 2.2656-1.5156 2.2656-0.10938 0-0.17188-0.078125-0.17188-0.21875l0.71875-3.4531h-1.1406l-0.10938 0.46875c-0.25-0.375-0.625-0.57812-1.125-0.57812-1.3125 0-2.3438 1.2969-2.3438 2.8594 0 1.0781 0.67188 1.7969 1.6562 1.7969 0.45312 0 0.84375-0.15625 1.1719-0.48438 0.09375 0.34375 0.3125 0.48438 0.78125 0.48438 1.5781 0 2.8594-1.4062 2.8594-3.0938 0-1.9844-1.4844-3.3281-3.6719-3.3281-2.9062 0-4.4219 2.0469-4.4219 4.3594 0 1.5156 0.73438 3.9219 4.5 3.9219 1.8594 0 3.2031-0.67188 3.8125-1.9375zm-4.6719-1.7656c0-1.125 0.59375-2.0312 1.3281-2.0312 0.5 0 0.79688 0.40625 0.79688 1 0 1.0625-0.5625 2.0938-1.3438 2.0938-0.67188 0-0.78125-0.67188-0.78125-1.0625z"/>
</g>
</defs>
<g transform="translate(-149.2 -128.44)">
<use x="148.71201" y="134.765" xlink:href="#a"/>
</g>
</svg>
