<?xml version="1.0" encoding="UTF-8"?>
<svg fill="#000000" version="1.1" viewBox="0 0 6.0972 6.6411" xmlns="http://www.w3.org/2000/svg" xmlns:xlink="http://www.w3.org/1999/xlink">
<defs>
<g id="a">
<path d="m3.9844-3.0938c-0.17188 0.28125-0.32812 0.57812-0.5 0.85938-0.03125 0.078125-0.078125 0.15625-0.125 0.21875-0.015625 0.046875-0.046875 0.078125-0.078125 0.09375-0.046875 0.015625-0.125 0.015625-0.1875 0.015625h-2.0469c-0.0625 0-0.14062-0.015625-0.17188 0.03125-0.046875 0.03125-0.046875 0.09375-0.046875 0.14062 0 0.09375-0.015625 0.20312 0.10938 0.21875 0.078125 0.015625 0.15625 0 0.23438 0h1.9062c-0.3125 0.5-0.57812 1-0.875 1.5-0.09375 0.14062-0.17188 0.3125-0.26562 0.45312-0.046875 0.078125-0.10938 0.15625-0.14062 0.23438-0.03125 0.15625 0.15625 0.14062 0.25 0.14062 0.03125 0 0.09375 0 0.125-0.015625 0.046875-0.046875 0.078125-0.10938 0.10938-0.17188l0.21875-0.34375c0.23438-0.40625 0.46875-0.82812 0.70312-1.2344 0.09375-0.14062 0.15625-0.26562 0.23438-0.39062 0.03125-0.046875 0.0625-0.125 0.10938-0.15625 0.0625-0.03125 0.15625-0.015625 0.23438-0.015625h2.8594c0.0625 0 0.17188 0.015625 0.23438-0.015625 0.0625-0.046875 0.046875-0.14062 0.046875-0.21875v-0.078125c-0.015625-0.03125-0.03125-0.0625-0.046875-0.0625-0.0625-0.03125-0.10938-0.015625-0.17188-0.015625h-2.9375c0.17188-0.28125 0.32812-0.57812 0.5-0.85938 0.046875-0.078125 0.09375-0.15625 0.125-0.21875 0.03125-0.046875 0.046875-0.09375 0.078125-0.09375 0.0625-0.015625 0.14062-0.015625 0.1875-0.015625h2.0469c0.0625 0 0.14062 0.015625 0.1875-0.03125 0.03125-0.03125 0.03125-0.09375 0.03125-0.14062 0-0.09375 0.015625-0.20312-0.10938-0.21875-0.078125-0.015625-0.15625 0-0.23438 0h-1.8906c0.29688-0.5 0.57812-1 0.85938-1.5 0.09375-0.15625 0.1875-0.3125 0.28125-0.45312 0.046875-0.078125 0.10938-0.17188 0.125-0.25 0.03125-0.14062-0.15625-0.14062-0.23438-0.14062-0.046875 0-0.09375 0-0.14062 0.03125s-0.078125 0.10938-0.10938 0.17188l-0.20312 0.34375c-0.23438 0.40625-0.48438 0.82812-0.71875 1.2344-0.078125 0.125-0.15625 0.26562-0.23438 0.39062-0.03125 0.046875-0.0625 0.125-0.10938 0.15625-0.0625 0.03125-0.15625 0.015625-0.21875 0.015625h-2.875c-0.0625 0-0.17188-0.03125-0.23438 0.015625s-0.046875 0.14062-0.046875 0.20312c0 0.03125 0 0.0625 0.015625 0.09375 0 0.03125 0.03125 0.046875 0.046875 0.0625 0.046875 0.03125 0.10938 0.015625 0.15625 0.015625z"/>
</g>
</defs>
<g transform="translate(-149.54 -128.94)">
<use x="148.71201" y="134.765" xlink:href="#a"/>
</g>
</svg>
