<?xml version="1.0" encoding="UTF-8"?>
<svg fill="#000000" version="1.1" viewBox="0 0 4.5781 4.3281" xmlns="http://www.w3.org/2000/svg" xmlns:xlink="http://www.w3.org/1999/xlink">
<defs>
<g id="a">
<path d="m1.25-4.6406c-0.14062 0-0.25 0.078125-0.25 0.21875 0 0.23438 0.125 0.5625 0.25 0.76562 0.40625 0.67188 1.1406 1 1.875 1.1875-0.73438 0.1875-1.4688 0.5-1.875 1.1562-0.14062 0.21875-0.25 0.54688-0.25 0.79688 0 0.14062 0.14062 0.20312 0.25 0.20312 0.0625 0 0.10938-0.015625 0.15625-0.046875 0.15625-0.09375 0.015625-1.0625 1.5938-1.5625 0.75-0.23438 1.5625-0.29688 2.3281-0.29688 0.17188 0 0.25-0.09375 0.25-0.25 0-0.09375-0.015625-0.15625-0.078125-0.21875-0.03125-0.03125-0.10938-0.046875-0.17188-0.046875-1.0781 0-2.8438-0.125-3.5625-1.0625-0.26562-0.32812-0.20312-0.84375-0.51562-0.84375z"/>
</g>
</defs>
<g transform="translate(-149.71 -130.12)">
<use x="148.71201" y="134.765" xlink:href="#a"/>
</g>
</svg>
