<?xml version="1.0" encoding="UTF-8"?>
<svg fill="#000000" version="1.1" viewBox="0 0 5.5312 6.1875" xmlns="http://www.w3.org/2000/svg" xmlns:xlink="http://www.w3.org/1999/xlink">
<defs>
<g id="a">
<path d="m0.95312 0.015625v-3.8438c0-1.0469 1.0938-1.7344 2.3594-1.7344 1.25 0 2.3594 0.6875 2.3594 1.7344v3.8438c0 0.10938 0.09375 0.20312 0.20312 0.20312s0.20312-0.09375 0.20312-0.20312v-3.8438c0-1.3594-1.4062-2.1406-2.7656-2.1406-1.375 0-2.7656 0.78125-2.7656 2.1406v3.8438c0 0.10938 0.09375 0.20312 0.20312 0.20312 0.125 0 0.20312-0.09375 0.20312-0.20312zm2.5625-0.95312v-1.5625h1.5625c0.10938 0 0.20312-0.078125 0.20312-0.1875 0-0.125-0.09375-0.21875-0.20312-0.21875h-1.5625v-1.5469c0-0.10938-0.09375-0.20312-0.20312-0.20312s-0.20312 0.09375-0.20312 0.20312v1.5469h-1.5469c-0.10938 0-0.20312 0.09375-0.20312 0.21875 0 0.10938 0.09375 0.1875 0.20312 0.1875h1.5469v1.5625c0 0.10938 0.09375 0.20312 0.20312 0.20312s0.20312-0.09375 0.20312-0.20312z"/>
</g>
</defs>
<g transform="translate(-149.26 -128.8)">
<use x="148.71201" y="134.765" xlink:href="#a"/>
</g>
</svg>
