<?xml version="1.0" encoding="UTF-8"?>
<svg fill="#000000" version="1.1" viewBox="0 0 6.375 5.7812" xmlns="http://www.w3.org/2000/svg" xmlns:xlink="http://www.w3.org/1999/xlink">
<defs>
<g id="a">
<path d="m7-1.0312c0-0.76562-0.51562-1.2656-1.1875-1.5312 0.67188-0.26562 1.1875-0.76562 1.1875-1.5312 0-0.73438-0.625-1.3594-1.3594-1.3594-0.70312 0-1.1875 0.45312-1.4688 1.0625l0.40625 0.25c0.20312-0.4375 0.57812-0.75 1.0625-0.75 0.4375 0 0.79688 0.35938 0.79688 0.79688 0 0.96875-1.2812 1.25-2.0312 1.25h-3.7812v0.5625h3.7812c0.75 0 2.0312 0.28125 2.0312 1.25 0 0.4375-0.35938 0.79688-0.79688 0.79688-0.48438 0-0.85938-0.29688-1.0625-0.75l-0.40625 0.25c0.28125 0.60938 0.76562 1.0625 1.4688 1.0625 0.73438 0 1.3594-0.625 1.3594-1.3594z"/>
</g>
</defs>
<g transform="translate(-149.34 -129.31)">
<use x="148.71201" y="134.765" xlink:href="#a"/>
</g>
</svg>
