<?xml version="1.0" encoding="UTF-8"?>
<svg fill="#000000" version="1.1" viewBox="0 0 6.1078 9.9276" xmlns="http://www.w3.org/2000/svg" xmlns:xlink="http://www.w3.org/1999/xlink">
<defs>
<g id="a">
<path d="m2.625-4.75v-0.015625c0.10938-0.015625 0.23438-0.046875 0.34375-0.09375 0.21875-0.0625 0.4375-0.125 0.64062-0.20312 0.85938-0.32812 1.6719-0.79688 2.4062-1.3281 0.25-0.17188 0.5-0.35938 0.71875-0.5625 0.078125-0.046875 0.23438-0.14062 0.17188-0.25-0.03125-0.09375-0.20312-0.0625-0.28125-0.0625-0.03125 0-0.078125 0-0.10938 0.015625-0.09375 0.015625-0.17188 0.10938-0.23438 0.15625-0.14062 0.10938-0.28125 0.23438-0.42188 0.32812-1.0781 0.79688-2.2812 1.4219-3.5938 1.6875-0.21875 0.03125-0.45312 0.078125-0.6875 0.09375-0.125 0.015625-0.26562 0.015625-0.40625 0.03125-0.10938 0.015625-0.3125-0.046875-0.34375 0.09375-0.015625 0.078125-0.015625 0.23438 0.046875 0.28125 0.046875 0.03125 0.10938 0.015625 0.15625 0.015625 0.09375 0 0.1875 0.015625 0.28125 0.015625 0.29688 0.015625 0.60938 0.0625 0.90625 0.10938 1.2344 0.23438 2.3906 0.79688 3.4062 1.5312 0.20312 0.125 0.39062 0.26562 0.5625 0.40625 0.09375 0.078125 0.1875 0.1875 0.29688 0.23438 0.078125 0.046875 0.1875 0.015625 0.28125 0.015625 0.03125 0 0.078125 0 0.10938-0.015625 0.046875-0.03125 0.0625-0.09375 0.03125-0.14062-0.046875-0.09375-0.15625-0.14062-0.23438-0.20312-0.32812-0.28125-0.6875-0.54688-1.0469-0.78125-0.34375-0.23438-0.70312-0.4375-1.0781-0.64062-0.40625-0.21875-0.84375-0.39062-1.2656-0.53125-0.20312-0.078125-0.4375-0.15625-0.65625-0.1875zm1.7188 3.9688c-0.26562-0.17188-0.5-0.39062-0.76562-0.54688-0.20312-0.125-0.40625-0.23438-0.64062-0.29688-0.32812-0.09375-0.73438-0.0625-1.0625 0.046875-0.45312 0.15625-0.76562 0.53125-0.9375 0.96875-0.046875 0.09375-0.0625 0.20312-0.09375 0.3125-0.015625 0.046875-0.03125 0.09375 0.015625 0.14062 0.046875 0.0625 0.15625 0.0625 0.20312 0 0.03125-0.046875 0.03125-0.09375 0.046875-0.14062 0-0.0625 0.03125-0.125 0.0625-0.1875 0.09375-0.26562 0.28125-0.5 0.54688-0.625 0.1875-0.078125 0.4375-0.10938 0.65625-0.0625 0.17188 0.03125 0.3125 0.09375 0.45312 0.17188 0.21875 0.125 0.42188 0.26562 0.625 0.42188 0.10938 0.09375 0.21875 0.17188 0.34375 0.26562 0.046875 0.03125 0.10938 0.0625 0.125 0.10938 0 0.03125 0 0.0625-0.03125 0.078125-0.015625 0.0625-0.046875 0.09375-0.078125 0.14062-0.078125 0.10938-0.14062 0.23438-0.21875 0.34375-0.046875 0.0625-0.09375 0.14062-0.125 0.20312-0.1875-0.078125-0.375-0.17188-0.5625-0.21875-0.625-0.14062-1.3281 0.03125-1.7188 0.54688-0.14062 0.20312-0.23438 0.42188-0.3125 0.67188-0.03125 0.078125-0.078125 0.1875-0.015625 0.26562s0.1875 0.03125 0.21875-0.0625c0.078125-0.21875 0.14062-0.4375 0.28125-0.625 0.23438-0.26562 0.60938-0.40625 0.96875-0.35938 0.125 0.015625 0.25 0.0625 0.35938 0.10938 0.09375 0.0625 0.1875 0.10938 0.26562 0.17188 0.03125 0.015625 0.09375 0.03125 0.10938 0.078125 0.015625 0.03125-0.015625 0.0625-0.015625 0.078125-0.046875 0.0625-0.09375 0.14062-0.14062 0.20312-0.17188 0.25-0.32812 0.51562-0.5 0.76562-0.046875 0.078125-0.09375 0.15625-0.14062 0.23438-0.015625 0.046875-0.046875 0.09375-0.046875 0.14062 0.03125 0.10938 0.15625 0.09375 0.25 0.09375 0.03125 0 0.078125 0 0.10938-0.015625l0.046875-0.046875c0.0625-0.0625 0.09375-0.125 0.14062-0.20312 0.078125-0.14062 0.17188-0.26562 0.26562-0.40625 0.078125-0.125 0.17188-0.26562 0.25-0.39062 0.03125-0.0625 0.09375-0.14062 0.125-0.21875 0.10938 0.0625 0.20312 0.15625 0.29688 0.21875 0.14062 0.10938 0.28125 0.20312 0.42188 0.29688 0.21875 0.14062 0.4375 0.25 0.6875 0.32812 0.34375 0.078125 0.73438 0.0625 1.0625-0.046875 0.45312-0.15625 0.76562-0.53125 0.9375-0.96875 0.046875-0.10938 0.078125-0.20312 0.10938-0.3125 0-0.046875 0.015625-0.10938-0.03125-0.15625-0.0625-0.0625-0.15625-0.046875-0.20312 0.015625-0.046875 0.10938-0.0625 0.23438-0.09375 0.32812-0.10938 0.25-0.28125 0.5-0.54688 0.60938-0.20312 0.09375-0.46875 0.125-0.6875 0.078125-0.17188-0.046875-0.32812-0.125-0.48438-0.20312-0.20312-0.125-0.39062-0.25-0.5625-0.39062-0.125-0.09375-0.25-0.1875-0.35938-0.28125-0.046875-0.015625-0.10938-0.0625-0.14062-0.10938 0-0.03125 0.03125-0.046875 0.03125-0.078125 0.03125-0.046875 0.0625-0.078125 0.09375-0.14062 0.078125-0.10938 0.15625-0.21875 0.23438-0.34375 0.03125-0.0625 0.078125-0.14062 0.10938-0.20312 0.64062 0.39062 1.5312 0.39062 2.0938-0.10938 0.25-0.21875 0.40625-0.53125 0.5-0.82812 0.015625-0.10938 0.10938-0.28125 0-0.34375-0.078125-0.046875-0.17188-0.015625-0.20312 0.0625-0.03125 0.10938-0.046875 0.21875-0.09375 0.3125-0.09375 0.25-0.25 0.45312-0.48438 0.57812-0.3125 0.17188-0.70312 0.15625-1.0156 0-0.15625-0.0625-0.26562-0.17188-0.42188-0.23438 0.23438-0.35938 0.45312-0.71875 0.6875-1.0781 0.0625-0.078125 0.10938-0.15625 0.15625-0.23438 0.03125-0.046875 0.046875-0.10938 0.015625-0.15625-0.015625-0.0625-0.078125-0.0625-0.14062-0.0625-0.09375 0-0.1875 0-0.26562 0.078125-0.14062 0.17188-0.25 0.39062-0.375 0.57812-0.125 0.21875-0.28125 0.42188-0.39062 0.64062z"/>
</g>
</defs>
<g transform="translate(-149.53 -127.49)">
<use x="148.71201" y="134.765" xlink:href="#a"/>
</g>
</svg>
