<?xml version="1.0" encoding="UTF-8"?>
<svg fill="#000000" version="1.1" viewBox="0 0 6.875 9.2812" xmlns="http://www.w3.org/2000/svg" xmlns:xlink="http://www.w3.org/1999/xlink">
<defs>
<g id="a">
<path d="m7.0781-6.375c0.15625-0.0625 0.23438-0.078125 0.23438-0.21875 0-0.078125-0.078125-0.1875-0.20312-0.1875-0.015625 0-0.03125 0-0.1875 0.046875l-6.2812 2.3125c-0.09375 0.03125-0.20312 0.09375-0.20312 0.21875 0 0.14062 0.10938 0.1875 0.20312 0.21875l6.2812 2.3125c0.15625 0.0625 0.17188 0.0625 0.1875 0.0625 0.125 0 0.20312-0.10938 0.20312-0.20312 0-0.125-0.078125-0.15625-0.23438-0.21875l-5.875-2.1719zm-0.53125 6.2812-5.9062 2.1719c-0.09375 0.03125-0.20312 0.09375-0.20312 0.21875 0 0.10938 0.09375 0.20312 0.1875 0.20312 0.015625 0 0.046875 0 0.15625-0.046875l6.2969-2.3281c0.15625-0.0625 0.23438-0.078125 0.23438-0.21875 0-0.125-0.078125-0.15625-0.23438-0.21875l-6.25-2.2969c-0.15625-0.0625-0.17188-0.0625-0.20312-0.0625-0.15625 0-0.1875 0.14062-0.1875 0.20312 0 0.125 0.125 0.17188 0.20312 0.20312z"/>
</g>
</defs>
<g transform="translate(-149.15 -127.98)">
<use x="148.71201" y="134.765" xlink:href="#a"/>
</g>
</svg>
