<?xml version="1.0" encoding="UTF-8"?>
<svg fill="#000000" version="1.1" viewBox="0 0 5.875 5.9844" xmlns="http://www.w3.org/2000/svg" xmlns:xlink="http://www.w3.org/1999/xlink">
<defs>
<g id="a">
<path d="m3.7344-5.9062c-1.4062 0.078125-2.4844 0.9375-2.8125 2.2344h-0.70312l-0.20312 0.51562h0.8125v0.46875h-0.625l-0.1875 0.53125h0.90625c0.32812 1.3125 1.4844 2.2344 2.8125 2.2344 0.82812-0.015625 1.4219-0.23438 1.9531-0.70312v-0.70312c-0.53125 0.59375-1.2344 0.90625-1.9219 0.90625-1.0469 0-1.9844-0.6875-2.3125-1.7344h3.2656l0.20312-0.53125h-3.5781v-0.46875h3.7812l0.20312-0.51562h-3.875c0.32812-1.0469 1.2188-1.7031 2.3906-1.7344 0.65625 0 1.2812 0.29688 1.8594 0.89062l0.1875-0.5c-0.59375-0.59375-1.3125-0.89062-2.1562-0.89062z"/>
</g>
</defs>
<g transform="translate(-148.73 -128.86)">
<use x="148.71201" y="134.765" xlink:href="#a"/>
</g>
</svg>
