<?xml version="1.0" encoding="UTF-8"?>
<svg fill="#000000" version="1.1" viewBox="0 0 6.7188 5.5625" xmlns="http://www.w3.org/2000/svg" xmlns:xlink="http://www.w3.org/1999/xlink">
<defs>
<g id="a">
<path d="m0.875-1.2344 2.0469-0.75v1.9844c0 0.125 0.09375 0.23438 0.23438 0.23438 0.125 0 0.21875-0.10938 0.21875-0.23438v-2.1406l1.3281-0.48438v2.625c0 0.125 0.10938 0.23438 0.23438 0.23438 0.10938 0 0.21875-0.10938 0.21875-0.23438v-2.7969l2.1406-0.78125c0.0625-0.015625 0.09375-0.078125 0.09375-0.14062v-0.046875c-0.03125-0.078125-0.10938-0.125-0.1875-0.09375l-2.0469 0.75v-1.75h1.3906c0.10938 0 0.21875-0.10938 0.21875-0.23438s-0.10938-0.23438-0.21875-0.23438h-5c-0.125 0-0.23438 0.10938-0.23438 0.23438s0.10938 0.23438 0.23438 0.23438h1.375v2.5625l-2.1406 0.78125c-0.0625 0.015625-0.10938 0.078125-0.10938 0.14062 0 0.10938 0.10938 0.17188 0.20312 0.14062zm2.5-1.2344v-2.3906h1.3281v1.9062z"/>
</g>
</defs>
<g transform="translate(-149.38 -129.44)">
<use x="148.71201" y="134.765" xlink:href="#a"/>
</g>
</svg>
