<?xml version="1.0" encoding="UTF-8"?>
<svg fill="#000000" version="1.1" viewBox="0 0 4.5938 9.625" xmlns="http://www.w3.org/2000/svg" xmlns:xlink="http://www.w3.org/1999/xlink">
<defs>
<g id="a">
<path d="m1.5469-0.32812c-0.14062 0-0.23438 0.10938-0.23438 0.23438 0 0.046875 0.03125 0.125 0.078125 0.15625 0.64062 0.54688 1.2188 1.1875 1.3438 2.0156 0.03125 0.10938 0.125 0.1875 0.23438 0.1875s0.21875-0.078125 0.23438-0.1875c0.14062-0.82812 0.70312-1.4688 1.3438-2.0156 0.046875-0.03125 0.078125-0.10938 0.078125-0.15625 0-0.14062-0.09375-0.23438-0.23438-0.23438-0.21875 0-0.71875 0.67188-1.1875 1.1406v-3.2812l1.9531-0.71875c0.0625-0.015625 0.10938-0.078125 0.10938-0.14062 0-0.10938-0.10938-0.17188-0.21875-0.14062l-1.8438 0.67188v-3.1094c0.45312 0.45312 0.96875 1.1406 1.1875 1.1406 0.14062 0 0.23438-0.10938 0.23438-0.23438 0-0.046875-0.03125-0.125-0.078125-0.15625-0.64062-0.54688-1.2031-1.1875-1.3438-2.0156-0.015625-0.10938-0.125-0.1875-0.23438-0.1875s-0.20312 0.078125-0.23438 0.1875c-0.125 0.82812-0.70312 1.4688-1.3438 2.0156-0.046875 0.03125-0.078125 0.10938-0.078125 0.15625 0 0.14062 0.09375 0.23438 0.23438 0.23438 0.23438 0 0.71875-0.67188 1.1875-1.1406v3.2812l-1.9531 0.71875c-0.0625 0.015625-0.10938 0.078125-0.10938 0.14062 0 0.10938 0.10938 0.17188 0.20312 0.14062l1.8594-0.67188v3.1094c-0.45312-0.45312-0.95312-1.1406-1.1875-1.1406z"/>
</g>
</defs>
<g transform="translate(-149.38 -127.41)">
<use x="148.71201" y="134.765" xlink:href="#a"/>
</g>
</svg>
