<?xml version="1.0" encoding="UTF-8"?>
<svg fill="#000000" width="4.7969" height="8.0938" version="1.1" viewBox="0 0 4.7969 8.0937" xmlns="http://www.w3.org/2000/svg" xmlns:xlink="http://www.w3.org/1999/xlink">
<defs>
<g id="a">
<path d="m1.9844 1.4531c0.046875 0 0.6875-0.20312 1.3281-0.20312 0.8125 0 1.0781 0.25 1.25 0.25 0.10938 0 0.21875-0.10938 0.21875-0.21875 0-0.28125-0.76562-0.5-0.9375-2.4219 0-0.125-0.10938-0.21875-0.21875-0.21875-0.14062 0-0.23438 0.10938-0.23438 0.23438 0 0.3125 0.23438 1.1094 0.3125 1.5781-0.92188-0.78125-1.4531-1.9219-1.4844-3.125l2.25-0.8125c0.078125-0.03125 0.10938-0.125 0.09375-0.1875-0.03125-0.09375-0.125-0.125-0.20312-0.09375l-2.1406 0.78125c0.078125-1.4062 0.85938-2.5469 1.8281-3.2031 0.0625-0.03125 0.09375-0.10938 0.09375-0.1875 0-0.125-0.10938-0.21875-0.21875-0.21875-0.046875 0-0.078125 0-0.125 0.03125-1.25 0.82812-2.0156 2.2031-2.0469 3.7344l-1.6719 0.60938c-0.0625 0.03125-0.09375 0.078125-0.09375 0.14062 0 0.10938 0.10938 0.17188 0.1875 0.14062l1.5938-0.57812c0.0625 1.2812 0.64062 2.4531 1.5938 3.2812-0.48438 0.078125-0.96875 0.10938-1.4375 0.23438-0.09375 0.015625-0.17188 0.10938-0.17188 0.21875 0 0.14062 0.10938 0.23438 0.23438 0.23438z"/>
</g>
</defs>
<g transform="translate(-148.7 -128.17)">
<use x="148.71201" y="134.765" xlink:href="#a"/>
</g>
</svg>
