<?xml version="1.0" encoding="UTF-8"?>
<svg fill="#000000" version="1.1" viewBox="0 0 4.75 16.938" xmlns="http://www.w3.org/2000/svg" xmlns:xlink="http://www.w3.org/1999/xlink">
<defs>
<g id="a">
<path d="m4.875 3.9844c0-0.078125-0.046875-0.14062-0.10938-0.20312l-3.1094-1.7812 0.14062-0.5625 2.9688-1.7031c0.0625-0.046875 0.10938-0.125 0.10938-0.20312 0-0.125-0.10938-0.23438-0.23438-0.23438-0.03125 0-0.078125 0.015625-0.10938 0.03125l-2.5625 1.4844 0.60938-2.2344h2.0625c0.14062 0 0.23438-0.10938 0.23438-0.23438s-0.09375-0.23438-0.23438-0.23438h-1.9531l0.35938-1.3125h1.5938c0.14062 0 0.23438-0.10938 0.23438-0.23438s-0.09375-0.23438-0.23438-0.23438h-1.4688l0.65625-2.4531 0.9375-0.53125c0.0625-0.046875 0.10938-0.10938 0.10938-0.20312 0-0.078125-0.046875-0.15625-0.10938-0.20312l-0.59375-0.32812 0.92188-3.4375v-0.03125c0-0.09375-0.0625-0.15625-0.15625-0.15625-0.0625 0-0.125 0.04687-0.125 0.10938l-0.92188 3.3594-3-1.7344c-0.015625-0.015625-0.0625-0.03125-0.10938-0.03125-0.10938 0-0.21875 0.09375-0.21875 0.23438 0 0.078125 0.03125 0.14062 0.10938 0.20312l3.1094 1.7812-0.15625 0.5625-2.9531 1.7031c-0.078125 0.046875-0.10938 0.125-0.10938 0.20312 0 0.125 0.10938 0.23438 0.21875 0.23438 0.046875 0 0.09375-0.015625 0.10938-0.03125l2.5625-1.4844-0.59375 2.2344h-2.0781c-0.125 0-0.21875 0.10938-0.21875 0.23438s0.09375 0.23438 0.21875 0.23438h1.9531l-0.35938 1.3125h-1.5938c-0.125 0-0.21875 0.10938-0.21875 0.23438s0.09375 0.23438 0.21875 0.23438h1.4844l-0.65625 2.4531-0.9375 0.53125c-0.078125 0.046875-0.10938 0.10938-0.10938 0.20312 0 0.078125 0.03125 0.14062 0.10938 0.20312l0.59375 0.32812-0.92188 3.4375v0.03125c0 0.09375 0.0625 0.15625 0.14062 0.15625 0.0625 0 0.125-0.046875 0.14062-0.10938l0.90625-3.3594 3 1.7344c0.03125 0.015625 0.078125 0.03125 0.10938 0.03125 0.125 0 0.23438-0.10938 0.23438-0.23438zm-0.875-10.719 0.046875-0.20312 0.14062 0.078125zm-2.5625 8.3906-0.046875 0.1875-0.14062-0.078125z"/>
</g>
</defs>
<g transform="translate(-149.06 -124.87)">
<use x="148.71201" y="135.886" xlink:href="#a"/>
</g>
</svg>
