<?xml version="1.0" encoding="UTF-8"?>
<svg fill="#000000" version="1.1" viewBox="0 0 6.9688 7.0156" xmlns="http://www.w3.org/2000/svg" xmlns:xlink="http://www.w3.org/1999/xlink">
<defs>
<g id="a">
<path d="m0.34375-6.8125v0.29688h0.375c0.35938 0 0.64062 0.046875 0.64062 0.4375v5.3281c0 0.375-0.32812 0.4375-0.65625 0.4375h-0.35938v0.29688h2.3906v-0.29688h-0.10938c-0.21875 0-0.40625-0.03125-0.40625-0.34375v-2.6562h1.0625c0.35938 0 0.67188 0.03125 0.98438 0.3125 0.25 0.20312 0.39062 0.5 0.42188 0.82812v0.98438c0 0.17188-0.17188 0.23438-0.26562 0.34375-0.1875 0.15625-0.39062 0.3125-0.57812 0.46875l0.1875 0.25 0.73438-0.60938c0.1875 0.67188 0.96875 0.9375 1.5781 0.9375 0.59375 0 0.96875-0.54688 0.96875-1.0938 0-0.09375-0.0625-0.15625-0.14062-0.15625-0.15625 0-0.125 0.29688-0.15625 0.42188-0.09375 0.29688-0.28125 0.60938-0.60938 0.60938h-0.03125c-0.57812 0-0.64062-1.0156-0.65625-1.25-0.015625-0.046875-0.03125-0.10938-0.03125-0.15625 0-0.09375 0.078125-0.125 0.14062-0.1875l0.3125-0.26562c0.39062-0.3125 0.78125-0.625 1.1562-0.95312l-0.1875-0.25-1.5 1.2344c-0.046875-0.78125-0.5625-1.3125-1.2656-1.5625 0.1875-0.0625 0.375-0.10938 0.57812-0.1875 0.54688-0.25 1.0938-0.6875 1.1562-1.3438v-0.078125c0-1.1406-1.3594-1.7188-2.2969-1.7969h-0.48438zm1.875 3.2812v-2.6094c0-0.26562 0.10938-0.34375 0.35938-0.375h0.71875c0.8125 0 1.75 0.21875 1.75 1.4844 0 1.3906-1.0938 1.5-1.9688 1.5z"/>
</g>
</defs>
<g transform="translate(-149.06 -127.95)">
<use x="148.71201" y="134.765" xlink:href="#a"/>
</g>
</svg>
