<?xml version="1.0" encoding="UTF-8"?>
<svg fill="#000000" version="1.1" viewBox="0 0 10.672 10.672" xmlns="http://www.w3.org/2000/svg" xmlns:xlink="http://www.w3.org/1999/xlink">
<defs>
<g id="a">
<path d="m6.5469-3.0625v-4.3594c1.125 0.078125 2.2031 0.54688 3 1.3594 0.8125 0.79688 1.2969 1.875 1.375 3zm-0.64062 0h-4.3594c0.078125-1.125 0.5625-2.2031 1.3594-3 0.79688-0.8125 1.875-1.2812 3-1.3594zm0.64062 0.64062h4.375c-0.07813 1.125-0.5625 2.2031-1.375 3-0.79688 0.8125-1.875 1.2812-3 1.3594zm-0.64062 0v4.3594c-1.125-0.078125-2.2031-0.54688-3-1.3594-0.79688-0.79688-1.2812-1.875-1.3594-3zm5.6562-0.3125c0-1.4219-0.5625-2.7812-1.5625-3.7812s-2.3594-1.5625-3.7656-1.5625c-1.4219 0-2.7812 0.5625-3.7656 1.5625-1.0156 1-1.5781 2.3594-1.5781 3.7812 0 1.4062 0.5625 2.7656 1.5781 3.7656 0.98438 1 2.3438 1.5625 3.7656 1.5625 1.4062 0 2.7656-0.5625 3.7656-1.5625s1.5625-2.3594 1.5625-3.7656z"/>
</g>
</defs>
<g transform="translate(-149.6 -126.69)">
<use x="148.71201" y="134.765" xlink:href="#a"/>
</g>
</svg>
