<?xml version="1.0" encoding="UTF-8"?>
<svg fill="#000000" version="1.1" viewBox="0 0 4.8906 6.9844" xmlns="http://www.w3.org/2000/svg" xmlns:xlink="http://www.w3.org/1999/xlink">
<defs>
<g id="a">
<path d="m4.2031 0.046875 0.14062 0.0625 0.73438-0.26562s0.015625-0.03125 0.015625-0.078125c0-0.015625-0.015625-0.03125-0.015625-0.03125-1-2.2031-1.3438-3.1562-1.5312-3.6875-0.23438-0.64062-0.53125-1.7031-0.75-2.1406-0.32812-0.625-0.57812-0.78125-0.90625-0.78125-0.51562 0-1.0156 0.14062-1.4531 0.3125l0.078125 0.25c0.23438-0.0625 0.54688-0.125 0.70312-0.125 0.8125 0 1.25 1.6875 1.2969 2.0312l-2.3125 4.3438 0.1875 0.125 0.59375-0.17188c0.25-0.78125 0.34375-0.96875 1.625-3.6719 0-0.03125 0.015625-0.0625 0.0625-0.0625s0.0625 0.03125 0.078125 0.0625z"/>
</g>
</defs>
<g transform="translate(-148.92 -127.89)">
<use x="148.71201" y="134.765" xlink:href="#a"/>
</g>
</svg>
