<?xml version="1.0" encoding="UTF-8"?>
<svg fill="#000000" version="1.1" viewBox="0 0 4.9688 4.4219" xmlns="http://www.w3.org/2000/svg" xmlns:xlink="http://www.w3.org/1999/xlink">
<defs>
<g id="a">
<path d="m5.3281-2.6875h-2.4844l-1.9531-1.9531c-0.03125-0.046875-0.09375-0.0625-0.14062-0.0625s-0.10938 0.015625-0.14062 0.046875c-0.046875 0.046875-0.0625 0.09375-0.0625 0.15625 0 0.046875 0.015625 0.09375 0.0625 0.14062l1.875 1.8594-1.875 1.875c-0.046875 0.046875-0.0625 0.10938-0.0625 0.15625s0.015625 0.09375 0.0625 0.14062c0.03125 0.03125 0.09375 0.046875 0.14062 0.046875s0.10938-0.015625 0.14062-0.0625l1.9531-1.9531h2.4844c0.10938 0 0.1875-0.078125 0.1875-0.20312 0-0.10938-0.078125-0.1875-0.1875-0.1875z"/>
</g>
</defs>
<g transform="translate(-149.26 -130.06)">
<use x="148.71201" y="134.765" xlink:href="#a"/>
</g>
</svg>
