<?xml version="1.0" encoding="UTF-8"?>
<svg fill="#000000" width="8.2031" height="7.8438" version="1.1" viewBox="0 0 8.2031 7.8437" xmlns="http://www.w3.org/2000/svg" xmlns:xlink="http://www.w3.org/1999/xlink">
<defs>
<g id="a">
<path d="m6.3438-7.25c-0.09375 0-0.1875 0.046875-0.25 0.10938-0.6875 0.82812-1.2812 1.7344-1.7812 2.6875-0.46875-0.95312-1.0781-1.8594-1.7812-2.6875-0.0625-0.0625-0.14062-0.10938-0.23438-0.10938-0.21875 0-0.29688 0.20312-0.29688 0.3125 0 0.0625 0.03125 0.14062 0.078125 0.1875 0.76562 0.92188 1.4219 1.9375 1.9062 3-0.21875 0.53125-0.42188 1.0781-0.5625 1.6406-0.46875-1.8438-1.4219-3.5469-2.6719-5.0312-0.046875-0.0625-0.14062-0.10938-0.23438-0.10938-0.21875 0-0.29688 0.20312-0.29688 0.3125 0 0.0625 0.015625 0.14062 0.078125 0.1875 1.6875 2.0156 2.8281 4.4531 2.8281 7.0469 0 0.17188 0.125 0.29688 0.29688 0.29688 0.1875 0 0.3125-0.125 0.3125-0.29688 0-1.1094 0.21875-2.2031 0.57812-3.2344 0.375 1.0312 0.59375 2.125 0.59375 3.2344 0 0.17188 0.125 0.29688 0.3125 0.29688 0.17188 0 0.29688-0.125 0.29688-0.29688 0-2.5938 1.1406-5.0312 2.8281-7.0469 0.046875-0.046875 0.078125-0.125 0.078125-0.1875 0-0.21875-0.20312-0.3125-0.3125-0.3125-0.078125 0-0.17188 0.046875-0.21875 0.10938-1.2344 1.4844-2.2188 3.1875-2.6719 5.0312-0.15625-0.5625-0.34375-1.1094-0.5625-1.6406 0.48438-1.0625 1.1406-2.0781 1.9062-3 0.0625-0.046875 0.078125-0.125 0.078125-0.1875 0-0.21875-0.20312-0.3125-0.29688-0.3125z"/>
</g>
</defs>
<g transform="translate(-148.93 -128.29)">
<use x="148.71201" y="135.53999" xlink:href="#a"/>
</g>
</svg>
