<?xml version="1.0" encoding="UTF-8"?>
<svg fill="#000000" version="1.1" viewBox="0 0 3.8594 7.1562" xmlns="http://www.w3.org/2000/svg" xmlns:xlink="http://www.w3.org/1999/xlink">
<defs>
<g id="a">
<path d="m0.15625-0.98438c-0.015625 0.03125-0.046875 0.0625-0.046875 0.09375 0 0.046875 0.0625 0.14062 0.125 0.14062 0.046875 0 0.078125-0.03125 0.35938-0.3125 0.078125-0.078125 0.28125-0.26562 0.35938-0.34375 0.09375 0.78125 0.375 1.5312 1.1094 1.5312 0.40625 0 0.75-0.23438 0.95312-0.39062 0.14062-0.09375 0.60938-0.48438 0.60938-0.57812 0-0.03125-0.03125-0.125-0.10938-0.125-0.03125 0-0.046875 0.015625-0.14062 0.09375-0.64062 0.625-1 0.78125-1.2969 0.78125-0.4375 0-0.60938-0.53125-0.60938-1.2969 0-0.0625 0.03125-0.51562 0.0625-0.57812 0.015625-0.03125 0.015625-0.046875 0.21875-0.25 0.79688-0.79688 2.2188-2.4844 2.2188-4.0312 0-0.17188 0-0.78125-0.59375-0.78125-0.82812 0-1.5625 1.6406-1.6562 1.875-0.48438 1.0938-0.79688 2.25-0.79688 3.4375zm1.4219-1.3906c0.015625-0.125 0.45312-2.3281 1.0156-3.5 0.26562-0.53125 0.48438-0.9375 0.79688-0.9375 0.34375 0 0.34375 0.35938 0.34375 0.51562 0 1.6719-1.6875 3.4219-2.1562 3.9219z"/>
</g>
</defs>
<g transform="translate(-148.82 -127.73)">
<use x="148.71201" y="134.765" xlink:href="#a"/>
</g>
</svg>
