<?xml version="1.0" encoding="UTF-8"?>
<svg fill="#000000" version="1.1" viewBox="0 0 10.422 10.422" xmlns="http://www.w3.org/2000/svg" xmlns:xlink="http://www.w3.org/1999/xlink">
<defs>
<g id="a">
<path d="m9-2.4844c0-0.98438-0.51562-1.8906-1.6094-1.8906-0.79688 0-1.1562 0.53125-1.5469 1.1406-0.35938-0.57812-0.75-1.1406-1.5-1.1406-1 0-1.5156 0.9375-1.5156 1.8281 0 0.98438 0.51562 1.9062 1.6094 1.9062 0.8125 0 1.1562-0.53125 1.5469-1.1406 0.35938 0.5625 0.76562 1.1406 1.5156 1.1406 1 0 1.5-0.9375 1.5-1.8438zm-0.32812-0.10938c0 0.6875-0.48438 1.1719-1.1562 1.1719-0.64062 0-1.0312-0.32812-1.2812-0.875 0.23438-0.60938 0.60938-1.5469 1.375-1.5469 0.67188 0 1.0625 0.64062 1.0625 1.25zm-3.0625-0.17188c-0.25 0.60938-0.60938 1.5312-1.3906 1.5312-0.65625 0-1.0625-0.64062-1.0625-1.25 0-0.67188 0.48438-1.1719 1.1562-1.1719 0.64062 0 1.0312 0.32812 1.2969 0.89062zm5.5156 0.25c0-2.875-2.3438-5.2031-5.2188-5.2031-2.8594 0-5.2031 2.3281-5.2031 5.2031s2.3438 5.2188 5.2031 5.2188c2.875 0 5.2188-2.3438 5.2188-5.2188zm-0.65625 0c0 2.5-2.0625 4.5625-4.5625 4.5625s-4.5469-2.0625-4.5469-4.5625 2.0469-4.5469 4.5469-4.5469 4.5625 2.0469 4.5625 4.5469z"/>
</g>
</defs>
<g transform="translate(-149.42 -127.05)">
<use x="148.71201" y="134.765" xlink:href="#a"/>
</g>
</svg>
