<?xml version="1.0" encoding="UTF-8"?>
<svg fill="#000000" version="1.1" viewBox="0 0 6.8438 6.0781" xmlns="http://www.w3.org/2000/svg" xmlns:xlink="http://www.w3.org/1999/xlink">
<defs>
<g id="a">
<path d="m5.875 1.3281c0.39062 0 0.0625-0.82812 1.9062-1.8906 0.0625-0.046875 0.10938-0.10938 0.10938-0.1875 0-0.14062-0.10938-0.23438-0.23438-0.23438-0.1875 0-0.82812 0.54688-1.2188 0.82812 0-0.10938 0.015625-0.25 0.015625-0.35938 0-2.3281-1.875-4.2344-4.1875-4.2344-0.34375 0-0.70312 0.03125-1.0469 0.125-0.10938 0.03125-0.17188 0.125-0.17188 0.23438 0 0.14062 0.10938 0.21875 0.23438 0.21875 0.09375 0 0.39062-0.125 0.98438-0.125 2.0781 0 3.7188 1.7188 3.7188 3.7812 0 0.15625 0 0.32812-0.015625 0.5-0.34375-0.45312-0.57812-0.96875-0.9375-1.3906-0.0625-0.046875-0.10938-0.078125-0.1875-0.078125-0.125 0-0.23438 0.09375-0.23438 0.23438 0 0.046875 0.03125 0.10938 0.0625 0.14062 0.53125 0.64062 0.98438 1.375 0.98438 2.2031 0 0.10938 0.078125 0.21875 0.1875 0.23438z"/>
</g>
</defs>
<g transform="translate(-149.76 -130.02)">
<use x="148.71201" y="134.765" xlink:href="#a"/>
</g>
</svg>
