<?xml version="1.0" encoding="UTF-8"?>
<svg fill="#000000" version="1.1" viewBox="0 0 5.9062 4.5156" xmlns="http://www.w3.org/2000/svg" xmlns:xlink="http://www.w3.org/1999/xlink">
<defs>
<g id="a">
<path d="m6.0312-3.7031c0-0.45312-0.17188-0.70312-0.40625-0.70312-0.25 0-0.51562 0.23438-0.51562 0.46875 0 0.09375 0.046875 0.20312 0.14062 0.29688 0.17188 0.15625 0.35938 0.42188 0.35938 0.84375 0 0.39062-0.20312 0.96875-0.5 1.4219-0.29688 0.42188-0.67188 0.76562-1.1406 0.76562-0.5625 0-0.875-0.35938-0.96875-0.89062 0.10938-0.26562 0.34375-0.90625 0.34375-1.1875 0-0.10938-0.046875-0.21875-0.1875-0.21875-0.078125 0-0.1875 0.03125-0.26562 0.17188-0.10938 0.20312-0.23438 0.84375-0.23438 1.2031-0.32812 0.46875-0.71875 0.92188-1.3438 0.92188-0.67188 0-0.875-0.59375-0.875-1.1406 0-1.25 1.0156-2.2969 1.0156-2.4219 0-0.10938-0.078125-0.1875-0.1875-0.1875-0.125 0-0.20312 0.125-0.26562 0.21875-0.5 0.73438-0.875 1.9219-0.875 2.8281 0 0.6875 0.21875 1.4219 1.0469 1.4219 0.70312 0 1.1719-0.5 1.5312-1.0469 0.09375 0.57812 0.48438 1.0469 1.0938 1.0469 0.78125 0 1.25-0.60938 1.6094-1.3594 0.25-0.48438 0.625-1.8438 0.625-2.4531z"/>
</g>
</defs>
<g transform="translate(-148.84 -130.36)">
<use x="148.71201" y="134.765" xlink:href="#a"/>
</g>
</svg>
