<?xml version="1.0" encoding="UTF-8"?>
<svg fill="#000000" version="1.1" viewBox="0 0 5.7344 6.2656" xmlns="http://www.w3.org/2000/svg" xmlns:xlink="http://www.w3.org/1999/xlink">
<defs>
<g id="a">
<path d="m3.8906-6.1094c-1.4375 0.03125-2.2812 0.85938-2.5156 2.4375h-0.70312c-0.125 0.078125-0.1875 0.15625-0.1875 0.25 0 0.078125 0.0625 0.14062 0.15625 0.21875h0.75v0.625h-0.75c-0.10938 0.078125-0.17188 0.15625-0.17188 0.25 0 0.0625 0.0625 0.14062 0.15625 0.21875h0.76562c0.54688 1.5312 1.4531 2.2656 2.8125 2.2656 0.82812 0 1.5156-0.35938 2-1.0781 0-0.1875-0.078125-0.28125-0.21875-0.28125-0.046875 0-0.125 0.015625-0.1875 0.046875-0.5 0.54688-1.0469 0.8125-1.6562 0.8125-1.0156 0-1.8125-0.60938-2.2188-1.7656h3.1094c0.078125-0.078125 0.125-0.15625 0.125-0.21875 0-0.078125-0.046875-0.17188-0.15625-0.25h-3.1562c-0.046875-0.17188-0.046875-0.23438-0.046875-0.625h3.4844c0.078125-0.078125 0.10938-0.15625 0.10938-0.23438s-0.03125-0.15625-0.10938-0.23438h-3.4219c0.29688-1.3281 0.96875-1.9531 2.0625-1.9531 0.78125 0 1.3594 0.34375 1.7344 1.0781v0.29688c0.09375 0.078125 0.1875 0.10938 0.28125 0.10938 0.0625 0 0.14062-0.015625 0.1875-0.078125v-1.6094c-0.0625-0.078125-0.14062-0.125-0.21875-0.125s-0.17188 0.046875-0.25 0.125v0.42188c-0.35938-0.46875-0.9375-0.70312-1.7656-0.70312z"/>
</g>
</defs>
<g transform="translate(-149.18 -128.66)">
<use x="148.71201" y="134.765" xlink:href="#a"/>
</g>
</svg>
