<?xml version="1.0" encoding="UTF-8"?>
<svg fill="#000000" version="1.1" viewBox="0 0 7.1094 4.7969" xmlns="http://www.w3.org/2000/svg" xmlns:xlink="http://www.w3.org/1999/xlink">
<defs>
<g id="a">
<path d="m7.4844-3.7344c-0.09375 0-0.17188 0.0625-0.21875 0.14062-0.46875 0.9375-1.4531 1.7031-2.7031 1.7969l0.375-2.1719c0.015625-0.078125-0.03125-0.14062-0.10938-0.17188-0.078125 0-0.15625 0.046875-0.1875 0.125l-0.39062 2.2188c-1.1094-0.015625-2.1406-0.57812-2.7656-1.5 0.53125 0.0625 1.3906 0.32812 1.75 0.32812 0.10938 0 0.21875-0.09375 0.21875-0.23438 0-0.10938-0.078125-0.21875-0.20312-0.21875-1.9219-0.17188-2.1562-0.9375-2.4219-0.9375-0.125 0-0.23438 0.10938-0.23438 0.23438 0 0.1875 0.26562 0.42188 0.26562 1.2344 0 0.64062-0.20312 1.2812-0.20312 1.3281 0 0.10938 0.09375 0.23438 0.23438 0.23438 0.29688 0 0.26562-0.40625 0.42188-1.4375 0.6875 0.85938 1.7344 1.3906 2.8594 1.4375l-0.28125 1.5938c-0.015625 0.078125 0.046875 0.17188 0.14062 0.17188 0.078125 0 0.14062-0.046875 0.15625-0.125l0.28125-1.6406c1.5156-0.0625 2.6562-0.96875 3.2031-2.0781 0.03125-0.015625 0.03125-0.046875 0.03125-0.09375 0-0.10938-0.09375-0.23438-0.21875-0.23438z"/>
</g>
</defs>
<g transform="translate(-149.31 -130.41)">
<use x="148.71201" y="134.765" xlink:href="#a"/>
</g>
</svg>
