<?xml version="1.0" encoding="UTF-8"?>
<svg fill="#000000" version="1.1" viewBox="0 0 6.2188 5.2031" xmlns="http://www.w3.org/2000/svg" xmlns:xlink="http://www.w3.org/1999/xlink">
<defs>
<g id="a">
<path d="m4.5781-4.5625c0-0.14062-0.09375-0.23438-0.21875-0.23438-0.046875 0-0.23438 0.015625-0.57812 0.015625-1.375 0-1.75-0.51562-1.9531-0.51562-0.14062 0-0.21875 0.10938-0.21875 0.21875 0 0.20312 0.53125 0.5625 0.53125 1.9531 0 0.34375-0.03125 0.51562-0.03125 0.57812 0 0.125 0.09375 0.21875 0.23438 0.21875 0.23438 0 0.23438-0.23438 0.23438-0.48438v-0.0625c0-0.39062-0.03125-0.78125-0.03125-1.1719l3.6719 3.6875c0.1875 0.17188 0.42188 0.26562 0.67188 0.26562 0.53125 0 0.9375-0.4375 0.9375-0.9375 0-0.39062-0.25-0.73438-0.4375-0.73438-0.10938 0-0.21875 0.09375-0.21875 0.23438 0 0.17188 0.20312 0.20312 0.20312 0.5 0 0.28125-0.23438 0.48438-0.48438 0.48438-0.125 0-0.25-0.046875-0.34375-0.14062l-3.6719-3.6719h0.015625c0.39062 0 0.76562 0.03125 1.1562 0.03125h0.09375c0.21875 0 0.4375-0.015625 0.4375-0.23438z"/>
</g>
</defs>
<g transform="translate(-150.32 -129.47)">
<use x="148.71201" y="134.765" xlink:href="#a"/>
</g>
</svg>
