<?xml version="1.0" encoding="UTF-8"?>
<svg fill="#000000" width="5.0938" height="8.3438" version="1.1" viewBox="0 0 5.0938 8.3437" xmlns="http://www.w3.org/2000/svg" xmlns:xlink="http://www.w3.org/1999/xlink">
<defs>
<g id="a">
<path d="m5.7188-0.375v-0.015625l-0.1875-0.09375c0 0.03125-0.23438 1.0938-1.1094 1.0938-0.73438 0-1.1406-0.78125-1.8438-1.0156l0.82812-2.0938c0.64062-0.23438 1.4062-0.4375 2.3125-0.57812v-0.25c-0.6875-0.10938-1.2812-0.25-1.8125-0.42188l1.2031-2.9844h-0.54688l-1.125 2.8281c-2.2344-0.8125-2.8125-1.9688-2.8125-1.9688v0.75c0 0.015625 0.73438 1.0312 2.6406 1.6719l-0.25 0.57812c-1.7188 0.64062-2.3906 1.5781-2.3906 1.5938v0.75s0.46875-0.92188 2.1406-1.7031l-0.6875 1.75c-1.2031 0.0625-1.4531 1.3125-1.4531 1.3125l0.1875 0.09375c0-0.015625 0.29688-0.8125 1.0469-0.875l-0.625 1.5625h0.54688l0.59375-1.4844c0.59375 0.25 0.9375 0.98438 1.8438 0.98438 1.3906 0 1.5-1.4844 1.5-1.4844zm-1.5156-2.8281c-0.20312 0.046875-0.39062 0.09375-0.5625 0.14062l0.09375-0.25c0.15625 0.03125 0.29688 0.078125 0.46875 0.10938z"/>
</g>
</defs>
<g transform="translate(-149.34 -128.03)">
<use x="148.71201" y="134.765" xlink:href="#a"/>
</g>
</svg>
