<?xml version="1.0" encoding="UTF-8"?>
<svg fill="#000000" version="1.1" viewBox="0 0 7.1094 6.1562" xmlns="http://www.w3.org/2000/svg" xmlns:xlink="http://www.w3.org/1999/xlink">
<defs>
<g id="a">
<path d="m5.1094 0.3125c0 0.14062 0.10938 0.21875 0.21875 0.21875 0.078125 0 0.14062-0.015625 0.1875-0.078125 0.53125-0.625 1.1875-1.2031 2-1.3438 0.10938-0.03125 0.1875-0.10938 0.1875-0.21875 0-0.125-0.078125-0.21875-0.1875-0.23438-0.8125-0.15625-1.4688-0.70312-2-1.3438-0.046875-0.0625-0.10938-0.09375-0.1875-0.09375-0.10938 0-0.21875 0.09375-0.21875 0.23438 0 0.21875 0.65625 0.71875 1.1406 1.2031h-2.375l0.875-2.4062h2.7344c0.125 0 0.21875-0.09375 0.21875-0.23438 0-0.10938-0.09375-0.21875-0.21875-0.21875h-2.5625l0.40625-1.1562c0.03125-0.0625 0-0.15625-0.078125-0.1875-0.09375-0.03125-0.17188 0.015625-0.20312 0.09375l-0.45312 1.25h-2.5469c0.46875-0.46875 1.1562-0.95312 1.1562-1.2031 0-0.14062-0.10938-0.21875-0.23438-0.21875-0.0625 0-0.125 0.015625-0.17188 0.078125-0.53125 0.625-1.1875 1.2031-2.0156 1.3438-0.10938 0.03125-0.1875 0.10938-0.1875 0.21875 0 0.125 0.078125 0.21875 0.1875 0.23438 0.82812 0.15625 1.4844 0.70312 2.0156 1.3438 0.046875 0.0625 0.10938 0.09375 0.17188 0.09375 0.125 0 0.23438-0.09375 0.23438-0.23438 0-0.21875-0.67188-0.71875-1.1562-1.2031h2.375l-0.85938 2.4062h-2.7344c-0.125 0-0.23438 0.09375-0.23438 0.23438 0 0.10938 0.10938 0.21875 0.23438 0.21875h2.5625l-0.42188 1.1562c-0.03125 0.0625 0.015625 0.15625 0.09375 0.1875s0.17188-0.015625 0.20312-0.09375l0.4375-1.25h2.5469c-0.45312 0.46875-1.1406 0.95312-1.1406 1.2031z"/>
</g>
</defs>
<g transform="translate(-149.31 -129.14)">
<use x="148.71201" y="134.765" xlink:href="#a"/>
</g>
</svg>
