<?xml version="1.0" encoding="UTF-8"?>
<svg fill="#000000" version="1.1" viewBox="0 0 7.8125 4.2812" xmlns="http://www.w3.org/2000/svg" xmlns:xlink="http://www.w3.org/1999/xlink">
<defs>
<g id="a">
<path d="m8.5156-2.2188c0-1.3281-0.92188-2.0625-1.8125-2.0625-1.0156 0-1.4688 0.625-1.9219 1.4531-0.95312-1.2656-1.4531-1.4531-2.1719-1.4531-0.57812 0-1.9062 0.45312-1.9062 2.2812 0 1.375 0.89062 2 1.75 2 0.95312 0 1.6406-0.53125 2.0781-1.4531 0.625 0.92188 1.1875 1.4531 2.0156 1.4531 1.25 0 1.9688-1.25 1.9688-2.2188zm-3.5469-0.21875c0.29688-0.42188 0.67188-1.0156 1.5625-1.0156 0.875 0 1.3906 0.76562 1.3906 1.6719 0 0.64062-0.4375 1.1875-1 1.1875-0.6875 0-1.2344-0.625-1.9531-1.8125zm-0.65625 0.64062c-0.26562 0.34375-0.75 0.95312-1.625 0.95312-0.89062 0-1.3906-0.82812-1.3906-1.6719 0-0.64062 0.4375-1.1875 1-1.1875 0.67188 0 1.2969 0.6875 2.0156 1.875z"/>
</g>
</defs>
<g transform="translate(-149.42 -130.48)">
<use x="148.71201" y="134.765" xlink:href="#a"/>
</g>
</svg>
