<?xml version="1.0" encoding="UTF-8"?>
<svg fill="#000000" width="9.4688" height="7.4688" version="1.1" viewBox="0 0 9.4688 7.4687" xmlns="http://www.w3.org/2000/svg" xmlns:xlink="http://www.w3.org/1999/xlink">
<defs>
<g id="a">
<path d="m8.1406-4.0469c-0.1875 0-0.39062 0.125-0.54688 0.26562-0.25 0.17188-0.42188 0.375-0.57812 0.59375l-0.125 0.17188c-0.25 0.0625-0.5 0.078125-0.73438 0.09375 0.20312-0.51562 0.32812-1.0312 0.71875-1.5625 0.32812-0.45312 0.71875-0.92188 1.1875-1.3438 0.015625-0.015625 0.015625-0.046875 0.015625-0.0625l-0.015625-0.09375c0-0.046875-0.03125-0.0625-0.078125-0.0625h-0.046875c-0.64062 0.40625-1.2031 0.92188-1.5938 1.4688-0.40625 0.5625-0.6875 1.125-1.0156 1.6875-0.42188 0.03125-0.875 0.09375-1.3594 0.26562-0.375 0.10938-0.85938 0.28125-1.1094 0.625-0.015625 0.015625-0.015625 0.03125-0.015625 0.046875 0 0.03125 0.015625 0.046875 0.03125 0.0625 0.03125 0.015625 0.046875 0.015625 0.0625 0.015625h0.10938c0.03125 0 0.046875-0.015625 0.0625-0.03125 0.1875-0.26562 0.57812-0.42188 0.95312-0.54688 0.39062-0.125 0.76562-0.17188 1.125-0.20312-0.10938 0.15625-0.21875 0.34375-0.34375 0.51562-0.76562 1.0781-1.8594 2.1406-2.7344 2.1406-0.84375 0-1.4844-0.17188-1.4844-0.64062 0-0.09375 0.015625-0.1875 0.078125-0.3125 0.078125 0.10938 0.1875 0.15625 0.29688 0.15625 0.26562 0 0.5625-0.20312 0.5625-0.39062 0-0.25-0.14062-0.34375-0.32812-0.34375-0.20312 0-0.45312 0.125-0.5625 0.29688-0.1875 0.25-0.26562 0.46875-0.26562 0.64062 0 0.57812 0.8125 0.8125 1.6562 0.8125 1.1719 0 2.7812-1.0625 3.625-2.2656 0.17188-0.21875 0.28125-0.4375 0.375-0.64062 0.21875-0.015625 0.45312-0.046875 0.6875-0.078125-0.10938 0.1875-0.20312 0.375-0.26562 0.5625v0.03125 0.03125c0.015625 0.015625 0.03125 0.03125 0.046875 0.03125 0.015625 0.015625 0.03125 0.015625 0.03125 0.015625 0.015625 0 0.03125 0 0.03125-0.015625l0.54688-0.21875c0.03125-0.015625 0.0625-0.046875 0.0625-0.078125v-0.015625c-0.015625-0.03125-0.015625-0.0625-0.015625-0.09375 0-0.10938 0.03125-0.23438 0.125-0.375 0.34375-0.09375 0.79688-0.23438 1.0156-0.54688 0.078125-0.10938 0.14062-0.21875 0.14062-0.32812 0-0.03125 0-0.046875-0.015625-0.078125-0.046875-0.14062-0.17188-0.20312-0.3125-0.20312zm1.6875-2.4219c-0.015625-0.015625-0.03125-0.015625-0.046875-0.015625-1.2812 0-1.9219-0.76562-3.2344-0.76562-0.57812 0-1.2656 0.1875-1.9531 0.57812-0.64062 0.35938-1.25 0.84375-1.625 1.3906-0.25 0.35938-0.39062 0.71875-0.39062 1.0312 0 0.078125 0 0.14062 0.015625 0.21875 0.09375 0.34375 0.39062 0.54688 0.84375 0.54688 0.40625 0 0.85938-0.078125 1.3438-0.29688 0.375-0.15625 0.76562-0.39062 0.98438-0.70312 0.21875-0.32812 0.35938-0.65625 0.35938-0.92188 0-0.28125-0.14062-0.5-0.39062-0.625l-0.046875-0.015625c-0.015625 0-0.03125 0.015625-0.046875 0.03125l-0.0625 0.03125c-0.03125 0.015625-0.03125 0.046875-0.03125 0.078125v0.03125c0.0625 0.09375 0.078125 0.20312 0.078125 0.32812 0 0.26562-0.125 0.60938-0.375 0.96875-0.17188 0.23438-0.4375 0.46875-0.73438 0.625-0.375 0.17188-0.73438 0.25-1.0312 0.25-0.375 0-0.59375-0.17188-0.64062-0.40625-0.015625-0.03125-0.015625-0.078125-0.015625-0.125 0-0.26562 0.14062-0.59375 0.39062-0.95312 0.3125-0.4375 0.8125-0.84375 1.3594-1.1094 0.60938-0.3125 1.1875-0.40625 1.6875-0.40625 1.2812 0 1.9219 0.76562 3.25 0.76562 0.03125 0 0.046875-0.015625 0.046875-0.03125l0.28125-0.39062c0.015625-0.015625 0.03125-0.03125 0.03125-0.046875 0-0.03125-0.03125-0.046875-0.046875-0.0625zm-1.7344 2.9375c-0.14062 0.1875-0.375 0.29688-0.64062 0.375 0.125-0.17188 0.26562-0.375 0.35938-0.46875 0.125-0.125 0.21875-0.20312 0.28125-0.20312s0.09375 0.03125 0.10938 0.0625c0 0.0625-0.03125 0.10938-0.10938 0.23438z"/>
</g>
</defs>
<g transform="translate(-149.12 -127.52)">
<use x="148.71201" y="134.765" xlink:href="#a"/>
</g>
</svg>
