<?xml version="1.0" encoding="UTF-8"?>
<svg fill="#000000" version="1.1" viewBox="0 0 6.6406 8.8594" xmlns="http://www.w3.org/2000/svg" xmlns:xlink="http://www.w3.org/1999/xlink">
<defs>
<g id="a">
<path d="m6.0156-6.5469c0-0.1875 0-0.375-0.20312-0.375s-0.20312 0.15625-0.20312 0.34375v7.7188c-0.21875-0.23438-0.6875-0.73438-1.4688-1.0156-0.76562 0.28125-1.2344 0.78125-1.4531 1.0156v-7.7188c0-0.1875 0-0.34375-0.20312-0.34375s-0.20312 0.1875-0.20312 0.375v7.6719c-0.5625-0.625-1.1719-0.89062-1.4531-1v0.29688c0.45312 0.17188 1.2031 0.59375 1.6562 1.5156 0.32812-0.65625 0.90625-1.2188 1.6562-1.5156 0.71875 0.28125 1.3281 0.8125 1.6562 1.5156h0.015625c0.4375-0.875 1.1562-1.3125 1.6562-1.5156v-0.29688c-0.5625 0.21875-1.0625 0.54688-1.4531 1z"/>
</g>
</defs>
<g transform="translate(-149.54 -127.84)">
<use x="148.71201" y="134.765" xlink:href="#a"/>
</g>
</svg>
