<?xml version="1.0" encoding="UTF-8"?>
<svg fill="#000000" version="1.1" viewBox="0 0 6.4844 6.5" xmlns="http://www.w3.org/2000/svg" xmlns:xlink="http://www.w3.org/1999/xlink">
<defs>
<g id="a">
<path d="m3.0938 0.70312c0.4375 0 0.85938-0.17188 1.1875-0.5 0.51562-0.5 0.57812-1.1875 0.57812-1.8281v-0.6875c0.21875 0 0.45312 0.015625 0.6875 0.015625 0.64062 0 1.3281-0.078125 1.8281-0.57812 0.32812-0.32812 0.48438-0.76562 0.48438-1.1875 0-1.0156-0.82812-1.7344-1.7188-1.7344-0.42188 0-0.85938 0.17188-1.1875 0.5-0.5 0.5-0.57812 1.1875-0.57812 1.8281 0 0.23438 0.015625 0.46875 0.015625 0.6875-0.21875 0-0.45312-0.015625-0.6875-0.015625-0.64062 0-1.3281 0.078125-1.8438 0.57812-0.32812 0.32812-0.48438 0.76562-0.48438 1.1875 0 1.0156 0.84375 1.7344 1.7188 1.7344zm-1.2656-1.7344c0-0.3125 0.10938-0.625 0.35938-0.85938 0.35938-0.375 0.89062-0.4375 1.5156-0.4375h0.6875c0 0.25 0.015625 0.46875 0.015625 0.70312 0 0.625-0.0625 1.1406-0.4375 1.5156-0.23438 0.23438-0.54688 0.34375-0.875 0.34375-0.75 0-1.2656-0.625-1.2656-1.2656zm5.5781-3.0312c0 0.3125-0.10938 0.625-0.34375 0.85938-0.375 0.375-0.90625 0.4375-1.5156 0.4375h-0.70312c0-0.25-0.015625-0.46875-0.015625-0.70312 0-0.625 0.09375-1.1406 0.45312-1.5156 0.23438-0.23438 0.54688-0.34375 0.85938-0.34375 0.65625 0 1.2656 0.53125 1.2656 1.2656z"/>
</g>
</defs>
<g transform="translate(-150.09 -128.97)">
<use x="148.71201" y="134.765" xlink:href="#a"/>
</g>
</svg>
