<?xml version="1.0" encoding="UTF-8"?>
<svg fill="#000000" version="1.1" viewBox="0 0 6.0938 7.7031" xmlns="http://www.w3.org/2000/svg" xmlns:xlink="http://www.w3.org/1999/xlink">
<defs>
<g id="a">
<path d="m3.7031-3.4531c1.6562-0.3125 2.5-0.92188 2.9531-1.7344 0.1875-0.375 0.26562-0.84375 0.26562-0.9375 0-0.14062-0.10938-0.21875-0.20312-0.21875-0.17188 0-0.20312 0.15625-0.21875 0.29688-0.29688 1.7969-2.2969 2.375-5.3906 2.3906-0.09375 0-0.28125 0-0.28125 0.20312s0.125 0.20312 0.5 0.20312c1.0312 0.015625 2.0781 0.078125 3.0625 0.375 1.8906 0.54688 2.0625 1.6406 2.125 2.0938 0.015625 0.10938 0.078125 0.21875 0.20312 0.21875 0.09375 0 0.20312-0.0625 0.20312-0.21875 0-0.0625-0.0625-1.0625-0.96875-1.7656-0.625-0.5-1.375-0.73438-2.25-0.90625zm-2.5312 4.4219c-0.17188 0-0.34375 0-0.34375 0.20312 0 0.1875 0.17188 0.1875 0.34375 0.1875h5.3906c0.17188 0 0.35938 0 0.35938-0.1875 0-0.20312-0.1875-0.20312-0.35938-0.20312z"/>
</g>
</defs>
<g transform="translate(-149.54 -128.42)">
<use x="148.71201" y="134.765" xlink:href="#a"/>
</g>
</svg>
