<?xml version="1.0" encoding="UTF-8"?>
<svg fill="#000000" version="1.1" viewBox="0 0 4.3125 8.3125" xmlns="http://www.w3.org/2000/svg" xmlns:xlink="http://www.w3.org/1999/xlink">
<defs>
<g id="a">
<path d="m1.7812 1.5 0.6875-2.5156 2.2969-1.3438c0.0625-0.03125 0.10938-0.10938 0.10938-0.1875s-0.046875-0.15625-0.10938-0.1875l-1.5938-0.9375 0.76562-2.8438c0.015625-0.09375-0.046875-0.1875-0.15625-0.1875-0.046875 0-0.10938 0.046875-0.125 0.10938l-0.75 2.7812-2.0156-1.1562c-0.03125-0.03125-0.078125-0.03125-0.10938-0.03125-0.10938 0-0.21875 0.078125-0.21875 0.21875v4.4688c0 0.14062 0.10938 0.21875 0.21875 0.21875 0.03125 0 0.078125 0 0.10938-0.03125l1.2031-0.6875-0.59375 2.2344c-0.03125 0.09375 0.03125 0.1875 0.14062 0.1875 0.0625 0 0.125-0.046875 0.14062-0.10938zm1.2656-4.7031 1.1406 0.65625-1.5625 0.90625zm-0.26562-0.15625-0.51562 1.9219-1.25 0.71875v-3.6562z"/>
</g>
</defs>
<g transform="translate(-149.27 -128.06)">
<use x="148.71201" y="134.765" xlink:href="#a"/>
</g>
</svg>
