<?xml version="1.0" encoding="UTF-8"?>
<svg fill="#000000" version="1.1" viewBox="0 0 5.2344 7.3594" xmlns="http://www.w3.org/2000/svg" xmlns:xlink="http://www.w3.org/1999/xlink">
<defs>
<g id="a">
<path d="m4.6094-3.375c-0.09375-0.625-0.5-1.1875-1.2812-1.1875-0.60938 0-1.25 0.17188-2.0312 0.9375-0.82812 0.82812-0.89062 1.7656-0.89062 2.0625 0 0.625 0.4375 1.7812 1.8281 1.7812 2.375 0 3.4062-3.3438 3.4062-4.7812 0-1.5781-0.92188-2.5781-2.1562-2.5781-1.4375 0-1.9062 1.2969-1.9062 1.5781 0 0.14062 0.09375 0.34375 0.39062 0.34375 0.32812 0 0.53125-0.29688 0.53125-0.51562 0-0.35938-0.3125-0.35938-0.46875-0.35938 0.4375-0.73438 1.1562-0.79688 1.4375-0.79688 0.73438 0 1.4219 0.51562 1.4219 1.8125 0 0.39062-0.0625 0.89062-0.26562 1.7031zm-2.3438 3.3125c-1.0938 0-1.0938-1.0312-1.0938-1.125 0-0.26562 0.25-1.6562 0.65625-2.2656 0.39062-0.5625 0.89062-0.89062 1.5-0.89062 1.0938 0 1.1094 1.125 1.1094 1.3281 0 0.71875-0.64062 2.9531-2.1719 2.9531z"/>
</g>
</defs>
<g transform="translate(-149.12 -127.62)">
<use x="148.71201" y="134.765" xlink:href="#a"/>
</g>
</svg>
