<?xml version="1.0" encoding="UTF-8"?>
<svg fill="#000000" version="1.1" viewBox="0 0 3.5781 7.0156" xmlns="http://www.w3.org/2000/svg" xmlns:xlink="http://www.w3.org/1999/xlink">
<defs>
<g id="a">
<path d="m4.0469 1.7812c-0.0625-1.0469-0.0625-2.125-0.0625-3.1875 0-1.1094 0.03125-2.4688 0.1875-3.3125l-0.078125-0.0625-0.70312 0.46875c-0.32812-0.0625-0.64062-0.21875-0.92188-0.40625-0.5 0.40625-1.0781 0.73438-1.6562 1.0469-0.17188 0.70312-0.21875 1.4375-0.21875 2.1719 0 0.28125 0 0.5625 0.03125 0.85938l0.82812 0.9375c0.60938-0.39062 1.1719-0.76562 1.7344-1.2188 0 0.98438-0.03125 2.0781-0.078125 3.0625l0.10938 0.09375zm-1.875-2.2812c-0.26562-0.23438-0.78125-0.73438-0.78125-0.9375-0.015625-0.03125-0.015625-0.35938-0.015625-0.5625 0-0.65625 0.046875-1.4219 0.35938-1.9688 0.48438 0.15625 0.98438 0.28125 1.5 0.3125-0.046875 0.79688-0.046875 1.6562-0.046875 2.4531-0.3125 0.21875-0.78125 0.57812-1.0156 0.70312z"/>
</g>
</defs>
<g transform="translate(-149.31 -129.98)">
<use x="148.71201" y="134.765" xlink:href="#a"/>
</g>
</svg>
