<?xml version="1.0" encoding="UTF-8"?>
<svg fill="#000000" version="1.1" viewBox="0 0 4.6875 4.4062" xmlns="http://www.w3.org/2000/svg" xmlns:xlink="http://www.w3.org/1999/xlink">
<defs>
<g id="a">
<path d="m2.2344-4.2969c0-0.015625 0-0.10938-0.125-0.10938-0.23438 0-0.96875 0.078125-1.2188 0.09375-0.078125 0.015625-0.1875 0.03125-0.1875 0.20312 0 0.125 0.078125 0.125 0.23438 0.125 0.48438 0 0.5 0.0625 0.5 0.17188 0 0.0625-0.125 0.53125-0.1875 0.79688l-0.60938 2.4531c-0.046875 0.14062-0.10938 0.42188-0.10938 0.4375 0 0.10938 0.09375 0.125 0.15625 0.125h0.14062c0.70312-0.125 1.7812-0.51562 2.8125-1.4688 1.3125-1.2188 1.5781-2.5781 1.5781-2.6719 0-0.17188-0.10938-0.26562-0.28125-0.26562-0.078125 0-0.3125 0.046875-0.39062 0.32812-0.64062 2.2656-2.1562 3.375-3.2969 3.75z"/>
</g>
</defs>
<g transform="translate(-149.24 -130.36)">
<use x="148.71201" y="134.765" xlink:href="#a"/>
</g>
</svg>
