<?xml version="1.0" encoding="UTF-8"?>
<svg fill="#000000" version="1.1" viewBox="0 0 5.625 10.359" xmlns="http://www.w3.org/2000/svg" xmlns:xlink="http://www.w3.org/1999/xlink">
<defs>
<g id="a">
<path d="m6.2656 2.1094v-0.65625h-2.8594l0.48438-1.3281h2.375v-0.65625h-2.1406l0.39062-1.0625h1.75v-0.65625h-1.5156l0.40625-1.1094h-0.53125l-0.40625 1.1094h-0.84375c-1.125 0-2.0781-1.0625-2.0781-2.125s0.9375-2.125 2.0781-2.125h2.8906v-0.65625h-2.8906c-1.5938 0-2.7344 1.2969-2.7344 2.7812 0 1.4688 1.1094 2.7812 2.7031 2.7812h0.64062l-0.39062 1.0625h-2.8594v0.65625h2.6094l-0.46875 1.3281h-2.1406v0.65625h1.8906l-0.39062 1.0938h0.53125l0.40625-1.0938z"/>
</g>
</defs>
<g transform="translate(-149.35 -127.61)">
<use x="148.71201" y="134.765" xlink:href="#a"/>
</g>
</svg>
