<?xml version="1.0" encoding="UTF-8"?>
<svg fill="#000000" version="1.1" viewBox="0 0 3.7539 9.135" xmlns="http://www.w3.org/2000/svg" xmlns:xlink="http://www.w3.org/1999/xlink">
<defs>
<g id="a">
<path d="m2.3281-7.0938c-0.53125 0.046875-1.0156 0.21875-1.3281 0.67188-0.078125 0.125-0.14062 0.25-0.1875 0.375-0.14062 0.375-0.14062 0.75-0.14062 1.1406v4.7188c0 0.3125 0 0.60938 0.078125 0.92188 0.09375 0.29688 0.23438 0.59375 0.45312 0.82812 0.46875 0.46875 1.2188 0.54688 1.8438 0.40625 0.3125-0.0625 0.625-0.20312 0.875-0.4375 0.23438-0.25 0.375-0.5625 0.45312-0.89062 0.03125-0.14062 0.046875-0.29688 0.046875-0.4375 0-0.046875 0.015625-0.125-0.015625-0.17188-0.046875-0.046875-0.09375-0.046875-0.15625-0.046875h-0.35938c-0.046875 0-0.10938 0-0.14062 0.0625-0.046875 0.0625-0.015625 0.1875-0.015625 0.26562-0.03125 0.21875-0.046875 0.45312-0.17188 0.65625-0.25 0.42188-0.82812 0.45312-1.2812 0.42188-0.25-0.03125-0.51562-0.09375-0.67188-0.29688-0.17188-0.21875-0.21875-0.48438-0.23438-0.75-0.015625-0.3125-0.015625-0.64062-0.015625-0.96875v-4.4062c0-0.40625-0.03125-0.9375 0.3125-1.2344 0.046875-0.03125 0.10938-0.0625 0.15625-0.078125 0.14062-0.078125 0.29688-0.09375 0.45312-0.10938 0.42188-0.03125 0.9375 0 1.2031 0.375 0.14062 0.20312 0.17188 0.46875 0.1875 0.71875v0.20312c0 0.046875 0 0.078125 0.03125 0.10938s0.078125 0.03125 0.125 0.03125h0.23438c0.0625 0 0.1875 0.015625 0.25-0.015625 0.078125-0.046875 0.046875-0.1875 0.046875-0.26562-0.015625-0.23438-0.046875-0.46875-0.125-0.70312-0.125-0.26562-0.28125-0.51562-0.5-0.70312-0.375-0.3125-0.9375-0.4375-1.4062-0.39062z"/>
</g>
</defs>
<g transform="translate(-149.38 -127.66)">
<use x="148.71201" y="134.765" xlink:href="#a"/>
</g>
</svg>
