<?xml version="1.0" encoding="UTF-8"?>
<svg fill="#000000" version="1.1" viewBox="0 0 2.1875 4.7969" xmlns="http://www.w3.org/2000/svg" xmlns:xlink="http://www.w3.org/1999/xlink">
<defs>
<g id="a">
<path d="m2.5781-2.4219c-0.625 0.625-1.1094 1.3594-1.4375 2.1875 0 0.03125-0.03125 0.078125-0.03125 0.125s0.03125 0.09375 0.09375 0.09375c0.14062 0 0.28125-0.39062 0.40625-0.57812 0.40625-0.64062 0.90625-1.2031 1.5312-1.6562 0.0625-0.03125 0.15625-0.09375 0.15625-0.15625v-0.015625c0-0.09375-0.20312-0.20312-0.3125-0.28125-0.625-0.48438-1.1562-1.1094-1.5312-1.7969-0.015625-0.03125-0.125-0.3125-0.23438-0.3125h-0.03125c-0.0625 0-0.078125 0.046875-0.078125 0.09375 0 0.15625 0.14062 0.40625 0.21875 0.5625 0.21875 0.4375 0.46875 0.85938 0.78125 1.2344 0.14062 0.17188 0.28125 0.35938 0.46875 0.5z"/>
</g>
</defs>
<g transform="translate(-149.82 -129.95)">
<use x="148.71201" y="134.765" xlink:href="#a"/>
</g>
</svg>
