<?xml version="1.0" encoding="UTF-8"?>
<svg fill="#000000" version="1.1" viewBox="0 0 4.3125 11.594" xmlns="http://www.w3.org/2000/svg" xmlns:xlink="http://www.w3.org/1999/xlink">
<defs>
<g id="a">
<path d="m4.6406-2.6094c0.14062 0 0.23438-0.10938 0.23438-0.23438 0-0.0625-0.03125-0.125-0.078125-0.17188-0.46875-0.39062-0.96875-0.76562-1.5-1.0938l0.32812-1.25c0.40625-0.26562 0.79688-0.57812 1.1719-0.875 0.046875-0.046875 0.078125-0.10938 0.078125-0.17188 0-0.125-0.09375-0.23438-0.23438-0.23438s-0.21875 0.15625-0.82812 0.59375l0.5625-2.1094c0.015625-0.09375-0.03125-0.1875-0.14062-0.1875-0.0625 0-0.14062 0.046875-0.14062 0.10938l-0.67188 2.4688c-0.8125 0.53125-1.6875 0.90625-2.6406 0.90625-0.14062 0-0.21875 0.10938-0.21875 0.23438s0.078125 0.23438 0.21875 0.23438c0.75 0 1.4531 0.21875 2.125 0.59375l-0.57812 2.1094c-0.1875-0.14062-0.39062-0.21875-0.625-0.21875-0.92188 0-1.1406 1.1562-1.1406 1.3906 0 0.125 0.046875 0.28125 0.21875 0.28125 0.10938 0 0.21875-0.09375 0.23438-0.21875 0.03125-0.375 0.23438-1 0.6875-1 0.1875 0 0.34375 0.09375 0.5 0.23438l-0.29688 1.125c-0.0625-0.015625-0.125-0.03125-0.20312-0.03125-0.92188 0-1.1406 1.1562-1.1406 1.375 0 0.14062 0.046875 0.29688 0.21875 0.29688 0.10938 0 0.21875-0.09375 0.23438-0.21875 0.03125-0.375 0.23438-0.98438 0.6875-0.98438h0.078125l-0.71875 2.7188c-0.03125 0.09375 0.03125 0.1875 0.14062 0.1875 0.0625 0 0.125-0.046875 0.14062-0.10938l0.71875-2.6875c0.48438 0.29688 0.92188 1.1094 1.6562 1.1094 0.92188 0 1.1562-1.1562 1.1562-1.3906 0-0.15625-0.0625-0.26562-0.23438-0.26562-0.10938 0-0.21875 0.078125-0.21875 0.20312-0.03125 0.375-0.25 1-0.70312 1-0.53125 0-0.92188-0.79688-1.5312-1.1094l0.26562-1c0.34375 0.35938 0.73438 0.78125 1.2656 0.78125 0.92188 0 1.1562-1.1562 1.1562-1.3906 0-0.14062-0.0625-0.28125-0.23438-0.28125-0.10938 0-0.21875 0.09375-0.21875 0.21875-0.03125 0.375-0.25 1-0.70312 1-0.40625 0-0.73438-0.46875-1.125-0.82812l0.57812-2.1562c1 0.625 1.2812 1.0469 1.4688 1.0469zm-1.3906-2.5156-0.23438 0.875c-0.28125-0.15625-0.5625-0.28125-0.85938-0.375 0.375-0.125 0.75-0.29688 1.0938-0.5z"/>
</g>
</defs>
<g transform="translate(-149.27 -126.42)">
<use x="148.71201" y="134.765" xlink:href="#a"/>
</g>
</svg>
