<?xml version="1.0" encoding="UTF-8"?>
<svg fill="#000000" width="6.625" height="5.8438" version="1.1" viewBox="0 0 6.625 5.8437" xmlns="http://www.w3.org/2000/svg" xmlns:xlink="http://www.w3.org/1999/xlink">
<defs>
<g id="a">
<path d="m7.0469-5.4062c0.14062-0.125 0.14062-0.1875 0.14062-0.21875 0-0.20312-0.17188-0.20312-0.20312-0.20312-0.0625 0-0.09375 0.015625-0.28125 0.17188l-0.76562 0.67188c-0.20312-0.21875-0.9375-0.84375-2.0625-0.84375-1.5938 0-2.9219 1.2656-2.9219 2.9219 0 0.9375 0.375 1.4844 0.57812 1.7656-0.15625 0.15625-0.17188 0.15625-0.75 0.67188-0.20312 0.17188-0.21875 0.20312-0.21875 0.29688 0 0.10938 0.078125 0.1875 0.1875 0.1875 0.078125 0 0.09375 0 0.28125-0.17188l0.76562-0.67188c0.09375 0.09375 0.82812 0.84375 2.0781 0.84375 1.6875 0 2.9219-1.375 2.9219-2.9219 0-0.92188-0.39062-1.5-0.59375-1.7656 0.015625-0.015625 0.078125-0.0625 0.10938-0.10938zm-5.2188 4.0156c-0.48438-0.6875-0.48438-1.2969-0.48438-1.5156 0-1.4375 1.1562-2.5312 2.5312-2.5312 1.0625 0 1.6562 0.60938 1.75 0.71875zm4.0781-3.0312c0.32812 0.4375 0.5 0.9375 0.5 1.5156 0 1.4375-1.1562 2.5312-2.5312 2.5312-1.0625 0-1.6562-0.60938-1.7656-0.71875z"/>
</g>
</defs>
<g transform="translate(-149.27 -128.94)">
<use x="148.71201" y="134.765" xlink:href="#a"/>
</g>
</svg>
