<?xml version="1.0" encoding="UTF-8"?>
<svg fill="#000000" version="1.1" viewBox="0 0 6.0938 8.6719" xmlns="http://www.w3.org/2000/svg" xmlns:xlink="http://www.w3.org/1999/xlink">
<defs>
<g id="a">
<path d="m6.5625-5.9375c0.17188 0 0.35938 0 0.35938-0.20312s-0.1875-0.20312-0.35938-0.20312h-2.6875c-1.6719 0-3.0469 1.2656-3.0469 2.8906s1.375 2.8906 3.0625 2.8906h2.6719c0.17188 0 0.35938 0 0.35938-0.20312s-0.1875-0.20312-0.35938-0.20312h-2.6406c-1.6094 0-2.7031-1.1719-2.7031-2.4844 0-1.3594 1.1406-2.4844 2.6875-2.4844zm0 7.2969c0.17188 0 0.35938 0 0.35938-0.1875 0-0.20312-0.1875-0.20312-0.35938-0.20312h-2.1719c0.20312-0.1875 0.5625-0.51562 0.60938-0.54688 0.10938-0.10938 0.14062-0.14062 0.14062-0.21875 0-0.046875-0.046875-0.20312-0.20312-0.20312-0.0625 0-0.078125 0-0.29688 0.1875l-0.84375 0.78125h-2.4219c-0.17188 0-0.34375 0-0.34375 0.20312 0 0.1875 0.17188 0.1875 0.34375 0.1875h1.9688c-0.1875 0.1875-0.54688 0.51562-0.59375 0.54688-0.09375 0.09375-0.14062 0.14062-0.14062 0.23438 0 0.078125 0.0625 0.1875 0.20312 0.1875 0.0625 0 0.078125 0 0.28125-0.1875l0.85938-0.78125z"/>
</g>
</defs>
<g transform="translate(-149.54 -128.42)">
<use x="148.71201" y="134.765" xlink:href="#a"/>
</g>
</svg>
