<?xml version="1.0" encoding="UTF-8"?>
<svg fill="#000000" version="1.1" viewBox="0 0 6.625 2.3281" xmlns="http://www.w3.org/2000/svg" xmlns:xlink="http://www.w3.org/1999/xlink">
<defs>
<g id="a">
<path d="m4.6406-1.7188c0.0625-0.078125 0.3125-0.35938 0.3125-0.78125 0-0.40625-0.25-0.6875-0.3125-0.76562h2.1875c0.1875 0 0.35938 0 0.35938-0.1875 0-0.20312-0.17188-0.20312-0.34375-0.20312h-5.9375c-0.17188 0-0.34375 0-0.34375 0.20312 0 0.1875 0.1875 0.1875 0.35938 0.1875h2.1875c-0.0625 0.078125-0.3125 0.35938-0.3125 0.76562 0 0.42188 0.25 0.70312 0.3125 0.78125h-2.1875c-0.17188 0-0.35938 0-0.35938 0.1875 0 0.20312 0.17188 0.20312 0.34375 0.20312h5.9375c0.17188 0 0.34375 0 0.34375-0.20312 0-0.1875-0.17188-0.1875-0.35938-0.1875zm-0.57812-1.5469c0.1875 0 0.28125 0 0.46875 0.23438 0.1875 0.20312 0.1875 0.42188 0.1875 0.53125 0 0.25-0.078125 0.42188-0.15625 0.53125-0.20312 0.25-0.3125 0.25-0.5 0.25h-0.39062c-0.1875 0-0.26562 0-0.46875-0.23438-0.17188-0.20312-0.1875-0.42188-0.1875-0.54688 0-0.23438 0.078125-0.40625 0.17188-0.51562 0.20312-0.25 0.29688-0.25 0.48438-0.25z"/>
</g>
</defs>
<g transform="translate(-149.27 -131.11)">
<use x="148.71201" y="134.765" xlink:href="#a"/>
</g>
</svg>
