<?xml version="1.0" encoding="UTF-8"?>
<svg fill="#000000" width="10.047" height="8.2188" version="1.1" viewBox="0 0 10.047 8.2187" xmlns="http://www.w3.org/2000/svg" xmlns:xlink="http://www.w3.org/1999/xlink">
<defs>
<g id="a">
<path d="m3.0469-5.7188c0.1875 0.51562 0.40625 1.2656 0.84375 2.4844 0.64062 1.7031 0.92188 2.3125 1.5156 3.2656 0.14062 0.20312 0.15625 0.21875 0.25 0.21875 0.14062 0 0.34375-0.125 0.45312-0.20312 0.14062-0.125 0.15625-0.14062 0.26562-0.625 0.59375-2.625 1.3438-5.3594 1.5469-5.8125 0.015625-0.015625 0.21875-0.39062 1.4375-0.42188 0.20312 0 0.39062-0.53125 0.39062-0.75 0-0.15625-0.0625-0.15625-0.20312-0.15625-1 0-1.4375 0.40625-1.5625 0.54688-0.28125 0.35938-0.51562 1.0781-0.96875 2.75-0.35938 1.2656-0.67188 2.5625-0.98438 3.8594-0.54688-0.82812-0.85938-1.625-1.3438-2.9062-0.51562-1.4219-0.84375-2.4531-1.1094-3.3438-0.0625-0.20312-0.0625-0.21875-0.15625-0.21875-0.015625 0-0.21875 0-0.51562 0.25-0.09375 0.078125-0.10938 0.17188-0.10938 0.28125-0.28125 2.6562-1.2188 5.2812-1.4844 5.75-0.09375 0.15625-0.20312 0.32812-0.40625 0.32812-0.09375 0-0.48438-0.046875-0.75-0.28125-0.046875-0.046875-0.0625-0.046875-0.078125-0.046875-0.15625 0-0.375 0.5-0.375 0.73438 0 0.3125 0.60938 0.51562 0.89062 0.51562 0.64062 0 1.1562-1.4062 1.3125-1.8594 0.64062-1.8125 0.95312-3.2969 1.1406-4.3594z"/>
</g>
</defs>
<g transform="translate(-148.42 -127.05)">
<use x="148.71201" y="134.765" xlink:href="#a"/>
</g>
</svg>
