<?xml version="1.0" encoding="UTF-8"?>
<svg fill="#000000" version="1.1" viewBox="0 0 6.5312 6.5156" xmlns="http://www.w3.org/2000/svg" xmlns:xlink="http://www.w3.org/1999/xlink">
<defs>
<g id="a">
<path d="m6.3906 1.2188c0.23438 0 0.23438-0.23438 0.23438-0.48438v-0.0625c0-0.375-0.046875-0.76562-0.046875-1.1562 0-0.10938 0.015625-0.21875 0.015625-0.32812 0.10938-0.015625 0.21875-0.015625 0.34375-0.015625 0.375 0 0.76562 0.046875 1.1406 0.046875h0.10938c0.21875 0 0.45312-0.015625 0.45312-0.25 0-0.14062-0.125-0.21875-0.23438-0.21875-0.0625 0-0.23438 0.015625-0.57812 0.015625-0.64062 0-1.2812-0.10938-1.8125-0.48438l-0.9375-0.9375 0.89062-1.8906c0.03125-0.078125 0-0.17188-0.078125-0.20312-0.0625-0.03125-0.15625 0-0.20312 0.078125l-0.82812 1.7969-1.4844-1.4844h0.03125c0.375 0 0.76562 0.03125 1.1406 0.03125h0.09375c0.21875 0 0.45312-0.015625 0.45312-0.23438 0-0.14062-0.10938-0.23438-0.23438-0.23438-0.046875 0-0.21875 0.015625-0.5625 0.015625-1.3906 0-1.75-0.51562-1.9531-0.51562-0.14062 0-0.23438 0.10938-0.23438 0.21875 0 0.20312 0.53125 0.5625 0.53125 1.9531 0 0.34375-0.015625 0.51562-0.015625 0.57812 0 0.125 0.09375 0.21875 0.21875 0.21875 0.23438 0 0.25-0.23438 0.25-0.48438v-0.0625c0-0.34375-0.046875-0.70312-0.046875-1.0625v-0.10938l1.6094 1.6094-0.89062 1.8906c-0.03125 0.078125 0 0.17188 0.078125 0.20312s0.15625 0 0.1875-0.078125l0.84375-1.7969 0.82812 0.82812c0.35938 0.51562 0.48438 1.1562 0.48438 1.8125 0 0.32812-0.03125 0.5-0.03125 0.5625 0 0.125 0.09375 0.23438 0.23438 0.23438z"/>
</g>
</defs>
<g transform="translate(-150.82 -129.47)">
<use x="148.71201" y="134.765" xlink:href="#a"/>
</g>
</svg>
