<?xml version="1.0" encoding="UTF-8"?>
<svg fill="#000000" width="9.3281" height="4.5938" version="1.1" viewBox="0 0 9.3281 4.5937" xmlns="http://www.w3.org/2000/svg" xmlns:xlink="http://www.w3.org/1999/xlink">
<defs>
<g id="a">
<path d="m8.2188-0.82812c-0.23438-2.3281-1.9844-3.7812-3.875-3.7812-2.4219 0-3.875 2.3125-3.875 4.25 0 0.17188 0 0.34375 0.20312 0.34375s0.20312-0.21875 0.20312-0.29688c0.015625-2.0625 1.4844-3.8906 3.4688-3.8906 1.875 0 3.2969 1.5312 3.4688 3.3281-0.67188-0.84375-1.4062-1.0469-1.4375-1.0469-0.10938 0-0.10938 0.125-0.10938 0.14062 0 0.125 0 0.125 0.1875 0.21875 0.96875 0.40625 1.3281 1.1719 1.4531 1.4375 0.03125 0.078125 0.0625 0.10938 0.125 0.10938 0.046875 0 0.078125-0.015625 0.10938-0.046875 0.15625-0.35938 0.5-1.0781 1.5156-1.5312 0.125-0.046875 0.14062-0.0625 0.14062-0.17188 0-0.046875 0-0.15625-0.10938-0.15625-0.078125 0-0.92188 0.3125-1.4688 1.0938z"/>
</g>
</defs>
<g transform="translate(-149.18 -130.16)">
<use x="148.71201" y="134.765" xlink:href="#a"/>
</g>
</svg>
