<?xml version="1.0" encoding="UTF-8"?>
<svg fill="#000000" version="1.1" viewBox="0 0 7.1094 7.4375" xmlns="http://www.w3.org/2000/svg" xmlns:xlink="http://www.w3.org/1999/xlink">
<defs>
<g id="a">
<path d="m3.8906 1.0625 0.90625-2.4844h2.6875c0.125 0 0.21875-0.10938 0.21875-0.23438s-0.09375-0.23438-0.21875-0.23438h-2.5156l0.46875-1.3125h2.0469c0.125 0 0.21875-0.10938 0.21875-0.23438s-0.09375-0.23438-0.21875-0.23438h-1.875l0.875-2.3906c0.03125-0.09375-0.03125-0.20312-0.14062-0.20312-0.0625 0-0.125 0.046875-0.14062 0.10938l-0.90625 2.4844h-2.4531v-1.7344c0-0.10938-0.10938-0.21875-0.23438-0.21875s-0.23438 0.10938-0.23438 0.21875v5.7188c0 0.10938 0.10938 0.21875 0.23438 0.21875s0.23438-0.10938 0.23438-0.21875v-1.7344h1.625l-0.85938 2.3906c-0.046875 0.09375 0.03125 0.20312 0.14062 0.20312 0.0625 0 0.125-0.046875 0.14062-0.10938zm-2.8281-0.75v-5.7188c0-0.10938-0.10938-0.21875-0.23438-0.21875s-0.23438 0.10938-0.23438 0.21875v5.7188c0 0.10938 0.10938 0.21875 0.23438 0.21875s0.23438-0.10938 0.23438-0.21875zm3.5781-2.2031h-1.7969v-1.3125h2.2812z"/>
</g>
</defs>
<g transform="translate(-149.31 -128.5)">
<use x="148.71201" y="134.765" xlink:href="#a"/>
</g>
</svg>
