<?xml version="1.0" encoding="UTF-8"?>
<svg fill="#000000" width="4.3125" height="9.2188" version="1.1" viewBox="0 0 4.3125 9.2187" xmlns="http://www.w3.org/2000/svg" xmlns:xlink="http://www.w3.org/1999/xlink">
<defs>
<g id="a">
<path d="m0.5625-5.2188c0 0.0625 0.015625 0.125 0.078125 0.17188 0.65625 0.54688 1.3906 1.0938 2.2031 1.4531l-0.10938 0.35938c-0.76562 0.35938-1.4688 0.875-2.0938 1.4062-0.0625 0.046875-0.078125 0.10938-0.078125 0.17188 0 0.125 0.078125 0.23438 0.21875 0.23438 0.0625 0 0.10938-0.03125 0.14062-0.046875 0.54688-0.45312 1.0938-0.85938 1.6562-1.1719l-0.39062 1.5c-0.4375 0.28125-1.0625 0.84375-1.0625 1.0469 0 0.14062 0.10938 0.23438 0.23438 0.23438 0.1875 0 0.10938-0.10938 0.64062-0.5625l-0.625 2.2969c-0.015625 0.09375 0.046875 0.1875 0.15625 0.1875 0.046875 0 0.10938-0.046875 0.14062-0.125l0.70312-2.6719c0.67188-0.4375 1.4375-0.6875 2.2656-0.6875 0.14062 0 0.23438-0.10938 0.23438-0.23438s-0.09375-0.23438-0.23438-0.23438c-0.75 0-1.4531 0.20312-2.0938 0.53125l0.39062-1.4688c0.54688-0.23438 1.1094-0.375 1.7031-0.375 0.14062 0 0.23438-0.10938 0.23438-0.23438s-0.09375-0.23438-0.23438-0.23438c-0.48438 0-0.95312-0.09375-1.4062-0.26562l0.82812-3.0312c0.015625-0.09375-0.046875-0.1875-0.15625-0.1875-0.0625 0-0.125 0.046875-0.14062 0.125l-0.8125 2.9844c-0.70312-0.3125-1.375-0.8125-2.0312-1.3438-0.03125-0.046875-0.078125-0.0625-0.14062-0.0625-0.14062 0-0.21875 0.10938-0.21875 0.23438zm2.5312 1.8438 0.03125-0.10938c0.046875 0.015625 0.10938 0.03125 0.15625 0.046875-0.078125 0.015625-0.125 0.03125-0.1875 0.0625z"/>
</g>
</defs>
<g transform="translate(-149.27 -127.61)">
<use x="148.71201" y="134.765" xlink:href="#a"/>
</g>
</svg>
