<?xml version="1.0" encoding="UTF-8"?>
<svg fill="#000000" width="3.4375" height="6.5938" version="1.1" viewBox="0 0 3.4375 6.5937" xmlns="http://www.w3.org/2000/svg" xmlns:xlink="http://www.w3.org/1999/xlink">
<defs>
<g id="a">
<path d="m2.3125-2.3438c-0.60938-0.59375-1.25-1.1094-1.25-1.8281 0-0.67188 0.5625-1.2188 1.25-1.2188 0.70312 0 1.25 0.54688 1.25 1.2188 0 0.71875-0.625 1.2344-1.25 1.8281zm0.32812 0.3125c0.59375-0.54688 1.3906-1.2031 1.3906-2.1406s-0.78125-1.6719-1.7188-1.6719c-0.92188 0-1.7188 0.73438-1.7188 1.6719s0.73438 1.5312 1.3906 2.1406c-0.6875 0.6875-1.3906 1.25-1.3906 2.1562v0.39062c0 0.125 0.10938 0.23438 0.23438 0.23438s0.23438-0.10938 0.23438-0.23438v-0.39062c0-0.71875 0.64062-1.2344 1.25-1.8281 0.625 0.59375 1.25 1.1094 1.25 1.8281v0.39062c0 0.125 0.10938 0.23438 0.23438 0.23438s0.23438-0.10938 0.23438-0.23438v-0.39062c0-0.9375-0.73438-1.5312-1.3906-2.1562z"/>
</g>
</defs>
<g transform="translate(-149.31 -128.92)">
<use x="148.71201" y="134.765" xlink:href="#a"/>
</g>
</svg>
