<?xml version="1.0" encoding="UTF-8"?>
<svg fill="#000000" version="1.1" viewBox="0 0 7.1719 8.0469" xmlns="http://www.w3.org/2000/svg" xmlns:xlink="http://www.w3.org/1999/xlink">
<defs>
<g id="a">
<path d="m6.8281-7.0938c0.0625-0.09375 0.078125-0.125 0.078125-0.1875 0-0.10938-0.09375-0.20312-0.20312-0.20312-0.09375 0-0.14062 0.078125-0.20312 0.14062-0.5 0.6875-1.1719 0.95312-1.8906 0.95312-0.70312 0-1.3125-0.25-1.875-0.76562-0.1875-0.17188-0.39062-0.32812-0.70312-0.32812-0.76562 0-1.4688 0.84375-1.4688 2.0156 0 1.2031 0.71875 2.0156 1.4688 2.0156 0.71875 0 1.2812-0.89062 1.2812-2.0156 0-0.14062 0-0.60938-0.20312-1.125 0.65625 0.375 1.1406 0.42188 1.5 0.42188 0.76562 0 1.2656-0.3125 1.3281-0.34375h0.015625l-4.4844 6.6719c-0.078125 0.14062-0.078125 0.1875-0.078125 0.20312 0 0.10938 0.09375 0.20312 0.1875 0.20312 0.10938 0 0.125-0.046875 0.20312-0.15625zm-4.7969 3.4219c-0.20312 0-0.85938-0.14062-0.85938-1.7969s0.65625-1.7812 0.85938-1.7812c0.53125 0 1.0469 0.73438 1.0469 1.7812 0 1.0781-0.53125 1.7969-1.0469 1.7969zm4.4219 4.0156c-0.20312 0-0.85938-0.14062-0.85938-1.7969s0.64062-1.7812 0.85938-1.7812c0.53125 0 1.0312 0.73438 1.0312 1.7812 0 1.0781-0.51562 1.7969-1.0312 1.7969zm1.2812-1.7969c0-1.1406-0.59375-2-1.2969-2-0.75 0-1.4688 0.82812-1.4688 2 0 1.2031 0.71875 2.0156 1.4688 2.0156 0.73438 0 1.2969-0.89062 1.2969-2.0156z"/>
</g>
</defs>
<g transform="translate(-149.27 -127.28)">
<use x="148.71201" y="134.765" xlink:href="#a"/>
</g>
</svg>
