<?xml version="1.0" encoding="UTF-8"?>
<svg fill="#000000" version="1.1" viewBox="0 0 7.0139 6.4585" xmlns="http://www.w3.org/2000/svg" xmlns:xlink="http://www.w3.org/1999/xlink">
<defs>
<g id="a">
<path d="m0.3125-4.3125v0.3125c0.15625 0 0.3125 0 0.46875 0.03125 0.09375 0.015625 0.1875 0.046875 0.25 0.125 0.0625 0.10938 0.0625 0.23438 0.0625 0.34375v2.7656c0 0.09375 0 0.20312-0.0625 0.28125-0.046875 0.078125-0.14062 0.10938-0.23438 0.10938-0.15625 0.03125-0.3125 0.03125-0.48438 0.03125v0.29688l0.4375-0.015625 0.92188-0.015625 0.90625 0.03125v-0.29688c-0.17188 0-0.32812 0-0.48438-0.03125-0.09375 0-0.1875-0.03125-0.23438-0.09375-0.078125-0.09375-0.0625-0.23438-0.0625-0.35938v-1.5625c0-0.20312-0.015625-0.40625 0.03125-0.59375 0.0625-0.35938 0.23438-0.70312 0.51562-0.9375 0.09375-0.09375 0.21875-0.15625 0.34375-0.21875 0.14062-0.0625 0.29688-0.09375 0.46875-0.09375 0.09375 0 0.1875 0.03125 0.28125 0.0625 0.23438 0.10938 0.34375 0.35938 0.39062 0.59375 0.046875 0.28125 0.03125 0.57812 0.03125 0.85938v1.9219c0 0.10938 0.015625 0.23438-0.078125 0.32812-0.046875 0.0625-0.125 0.09375-0.21875 0.09375-0.15625 0.03125-0.32812 0.03125-0.48438 0.03125v0.29688l0.4375-0.015625 0.92188-0.015625 0.89062 0.03125v-0.29688c-0.15625 0-0.3125 0-0.46875-0.03125-0.09375 0-0.1875-0.03125-0.23438-0.09375-0.078125-0.09375-0.0625-0.23438-0.0625-0.34375v-1.5156c0-0.20312-0.015625-0.39062 0.015625-0.57812 0.03125-0.3125 0.15625-0.60938 0.35938-0.84375 0.0625-0.09375 0.14062-0.15625 0.23438-0.23438 0.10938-0.078125 0.23438-0.14062 0.375-0.1875 0.1875-0.0625 0.40625-0.09375 0.60938-0.015625 0.21875 0.078125 0.34375 0.28125 0.40625 0.48438 0.0625 0.21875 0.0625 0.4375 0.0625 0.64062v2.9844c0 0.34375 0.015625 0.6875-0.0625 1.0156-0.046875 0.34375-0.23438 0.71875-0.59375 0.82812-0.28125 0.0625-0.5625-0.03125-0.82812-0.10938v-0.015625c0.32812-0.0625 0.4375-0.48438 0.23438-0.73438-0.10938-0.14062-0.29688-0.1875-0.45312-0.15625-0.0625 0.015625-0.10938 0.03125-0.15625 0.0625s-0.078125 0.046875-0.10938 0.09375c-0.20312 0.25-0.078125 0.60938 0.14062 0.8125 0.15625 0.14062 0.35938 0.20312 0.57812 0.25 0.5 0.09375 1.0312 0.015625 1.4219-0.32812 0.26562-0.23438 0.45312-0.57812 0.51562-0.92188 0.03125-0.25 0-0.51562 0-0.76562v-2.4531c0-0.46875 0.0625-0.98438-0.17188-1.4062-0.25-0.40625-0.71875-0.54688-1.1719-0.54688-0.17188 0-0.34375 0.03125-0.5 0.078125-0.14062 0.046875-0.26562 0.10938-0.375 0.1875-0.26562 0.17188-0.42188 0.42188-0.5625 0.70312-0.078125-0.26562-0.15625-0.5-0.375-0.6875-0.20312-0.17188-0.48438-0.25-0.75-0.26562-0.15625-0.015625-0.3125-0.015625-0.46875 0.015625-0.375 0.046875-0.6875 0.25-0.9375 0.54688-0.09375 0.125-0.21875 0.29688-0.25 0.45312h-0.015625v-1.0312z"/>
</g>
</defs>
<g transform="translate(-149.02 -130.34)">
<use x="148.71201" y="134.765" xlink:href="#a"/>
</g>
</svg>
