<?xml version="1.0" encoding="UTF-8"?>
<svg fill="#000000" version="1.1" viewBox="0 0 7.7031 5.2812" xmlns="http://www.w3.org/2000/svg" xmlns:xlink="http://www.w3.org/1999/xlink">
<defs>
<g id="a">
<path d="m8.0625-3.2656c-0.3125 0.0625-0.60938 0.078125-0.92188 0.078125-0.32812 0-0.64062-0.015625-0.95312-0.10938 0 0.3125 0.25 0.40625 0.96875 0.40625 0.78125-0.0625 0.90625-0.078125 0.90625-0.375zm-0.015625-0.21875-0.10938-0.60938c-0.03125-0.17188-0.09375-0.29688-0.15625-0.34375-0.76562-0.53125-2-0.84375-3.5781-0.84375-2.0781 0.078125-3.7188 0.57812-3.8281 1.1875l-0.015625 0.5625c0.28125 0.046875 0.59375 0.078125 0.90625 0.078125s0.64062-0.03125 0.98438-0.078125c0.125-0.29688 0.34375-0.39062 0.46875-0.42188l0.21875-0.0625v0.34375c0 0.25-0.35938 0.76562-0.60938 0.85938-0.14062 0.046875-0.34375 0.23438-0.59375 0.54688-0.29688 0.35938-0.375 0.625-0.48438 1.3594v0.90625h5.9375c-0.046875-1.7188-0.21875-1.9219-1.3594-2.9844l-0.28125-0.3125c-0.046875-0.046875-0.078125-0.15625-0.078125-0.32812l0.015625-0.39062c0.3125 0.078125 0.57812 0.20312 0.70312 0.5 0.34375 0.078125 0.67188 0.125 1.0156 0.125 0.28125 0 0.5625-0.03125 0.84375-0.09375zm-5.7969 0.1875c-0.3125 0.0625-0.60938 0.09375-0.89062 0.09375-0.35938 0-0.6875-0.046875-1-0.125 0 0.28125 0.28125 0.42188 0.92188 0.42188 0.6875 0 0.96875-0.10938 0.96875-0.39062zm2.8281-0.45312c0 0.125-0.078125 0.1875-0.21875 0.1875-0.48438-0.09375-0.65625-0.10938-0.71875-0.10938s-0.078125 0-0.65625 0.09375c-0.15625 0-0.23438-0.078125-0.25-0.20312l-0.03125-0.28125c0.29688-0.046875 0.57812-0.078125 0.875-0.078125 0.34375 0 0.67188 0.03125 1 0.09375zm0.29688 1.8125c0 0.57812-0.51562 1.0469-1.1719 1.0469-0.64062 0-1.1719-0.46875-1.1719-1.0469 0-0.5625 0.53125-1.0156 1.1719-1.0156s1.1719 0.45312 1.1719 1.0156z"/>
</g>
</defs>
<g transform="translate(-149.07 -129.48)">
<use x="148.71201" y="134.765" xlink:href="#a"/>
</g>
</svg>
