<?xml version="1.0" encoding="UTF-8"?>
<svg fill="#000000" version="1.1" viewBox="0 0 4.8288 7.0394" xmlns="http://www.w3.org/2000/svg" xmlns:xlink="http://www.w3.org/1999/xlink">
<defs>
<g id="a">
<path d="m2.5469-2.8438h0.015625c0.046875 0.125 0.125 0.25 0.1875 0.375 0.14062 0.29688 0.29688 0.57812 0.4375 0.85938 0.14062 0.29688 0.29688 0.57812 0.4375 0.875 0.10938 0.1875 0.1875 0.39062 0.29688 0.5625 0.078125 0.09375 0.20312 0.21875 0.32812 0.26562 0.10938 0.03125 0.23438 0 0.34375 0 0.078125 0 0.20312 0.03125 0.26562-0.03125 0.03125-0.015625 0.03125-0.078125 0-0.125l-0.10938-0.10938c-0.0625-0.0625-0.09375-0.125-0.125-0.1875-0.14062-0.21875-0.26562-0.46875-0.375-0.70312-0.10938-0.21875-0.21875-0.4375-0.34375-0.65625l-1.5938-3.125c-0.15625-0.29688-0.29688-0.59375-0.45312-0.89062-0.10938-0.20312-0.1875-0.40625-0.29688-0.60938-0.23438-0.375-0.64062-0.51562-1.0469-0.5625-0.09375-0.015625-0.1875-0.015625-0.28125-0.015625h-0.125c-0.0625 0.046875-0.078125 0.14062-0.015625 0.1875 0.03125 0.03125 0.078125 0.03125 0.125 0.03125 0.0625 0 0.125 0.03125 0.17188 0.046875 0.1875 0.09375 0.32812 0.28125 0.4375 0.46875 0.17188 0.26562 0.29688 0.5625 0.4375 0.82812 0.21875 0.42188 0.4375 0.84375 0.64062 1.2656 0.10938 0.20312 0.20312 0.39062 0.3125 0.57812 0.03125 0.078125 0.0625 0.14062 0.10938 0.21875 0.015625 0.03125 0.03125 0.078125 0.046875 0.10938 0 0.078125-0.078125 0.15625-0.10938 0.21875-0.125 0.17188-0.23438 0.34375-0.35938 0.51562-0.34375 0.51562-0.6875 1-1.0312 1.5156-0.09375 0.125-0.1875 0.26562-0.28125 0.40625-0.046875 0.078125-0.10938 0.15625-0.125 0.26562-0.03125 0.32812 0.42188 0.53125 0.625 0.25 0.10938-0.14062 0.17188-0.32812 0.25-0.46875 0.14062-0.28125 0.29688-0.57812 0.4375-0.84375 0.14062-0.29688 0.29688-0.59375 0.4375-0.89062 0.078125-0.125 0.14062-0.25 0.20312-0.375 0.046875-0.078125 0.09375-0.15625 0.125-0.25z"/>
</g>
</defs>
<g transform="translate(-148.77 -127.84)">
<use x="148.71201" y="134.765" xlink:href="#a"/>
</g>
</svg>
