<?xml version="1.0" encoding="UTF-8"?>
<svg fill="#000000" width="6.4219" height="7.8438" version="1.1" viewBox="0 0 6.4219 7.8437" xmlns="http://www.w3.org/2000/svg" xmlns:xlink="http://www.w3.org/1999/xlink">
<defs>
<g id="a">
<path d="m3.7344-1.3281c-0.39062 0-0.71875 0.34375-0.71875 0.71875 0 0.40625 0.32812 0.71875 0.71875 0.71875 0.40625 0 0.71875-0.32812 0.71875-0.71875s-0.34375-0.71875-0.71875-0.71875zm3.2188 1.625c0-0.0625-0.03125-0.14062-0.078125-0.20312-1.6875-2-2.8438-4.4531-2.8438-7.0312 0-0.1875-0.10938-0.3125-0.29688-0.3125-0.17188 0-0.3125 0.125-0.3125 0.3125 0 2.5781-1.125 5.0312-2.8281 7.0312-0.046875 0.0625-0.0625 0.14062-0.0625 0.20312 0 0.21875 0.20312 0.29688 0.29688 0.29688s0.17188-0.03125 0.23438-0.10938c1.2344-1.4688 2.2031-3.1719 2.6719-5.0156 0.46875 1.8438 1.4375 3.5469 2.6719 5.0156 0.0625 0.078125 0.15625 0.10938 0.25 0.10938 0.21875 0 0.29688-0.1875 0.29688-0.29688z"/>
</g>
</defs>
<g transform="translate(-149.24 -128.29)">
<use x="148.71201" y="135.53999" xlink:href="#a"/>
</g>
</svg>
