<?xml version="1.0" encoding="UTF-8"?>
<svg fill="#000000" version="1.1" viewBox="0 0 3.9375 4.5469" xmlns="http://www.w3.org/2000/svg" xmlns:xlink="http://www.w3.org/1999/xlink">
<defs>
<g id="a">
<path d="m0.98438-6.4219c0.10938-0.42188 0.375-1.0156 0.90625-1.0156 0.65625 0 0.79688 1.125 0.79688 1.75v0.40625c-0.85938 0-2.2656 0.17188-2.2656 0.95312 0 0.59375 0.78125 0.70312 1.2344 0.70312 0.40625 0 0.89062-0.10938 1.1094-0.46875h0.015625c0.03125 0.21875 0.14062 0.40625 0.4375 0.40625h0.09375c0.46875 0 1.0469-0.015625 1.0469-0.60938v-0.25h-0.25v0.26562c0 0.26562-0.1875 0.28125-0.34375 0.28125h-0.0625c-0.14062 0-0.3125-0.046875-0.3125-0.25v-1.7656c-0.046875-0.76562-0.59375-1.6562-1.4531-1.6562-0.82812 0-1.2344 0.92188-1.2344 1.6094 0 0.32812 0.17188 0.51562 0.45312 0.51562 0.26562 0 0.45312-0.1875 0.45312-0.45312s-0.1875-0.45312-0.45312-0.45312c-0.0625 0-0.125 0.015625-0.17188 0.03125zm1.7031 1.3594v0.45312c0 0.4375-0.3125 0.75-0.85938 0.75-0.25 0-0.64062-0.125-0.64062-0.46875 0-0.65625 1.1875-0.71875 1.5-0.73438zm-2.1719 1.7188c-0.046875 0.03125-0.078125 0.0625-0.078125 0.10938 0 0.078125 0.078125 0.10938 0.15625 0.10938h3.2188c0.0625 0 0.15625-0.03125 0.15625-0.10938 0-0.0625-0.046875-0.10938-0.09375-0.10938h-3.0938c-0.046875 0-0.10938-0.015625-0.15625-0.015625-0.03125 0-0.078125 0.015625-0.10938 0.015625z"/>
</g>
</defs>
<g transform="translate(-149.13 -127.09)">
<use x="148.71201" y="134.765" xlink:href="#a"/>
</g>
</svg>
