<?xml version="1.0" encoding="UTF-8"?>
<svg fill="#000000" version="1.1" viewBox="0 0 4.4844 4.0781" xmlns="http://www.w3.org/2000/svg" xmlns:xlink="http://www.w3.org/1999/xlink">
<defs>
<g id="a">
<path d="m3.4375-4.0938c0-0.25-0.20312-0.4375-0.45312-0.4375-0.23438 0-0.4375 0.1875-0.4375 0.4375s0.20312 0.45312 0.4375 0.45312c0.25 0 0.45312-0.20312 0.45312-0.45312zm-2.375 1.2969c-0.17188 0-0.3125 0.14062-0.3125 0.29688 0 0.17188 0.14062 0.3125 0.3125 0.3125h3.8594c0.15625 0 0.3125-0.14062 0.3125-0.3125 0-0.15625-0.15625-0.29688-0.3125-0.29688zm2.375 1.9062c0-0.25-0.20312-0.45312-0.45312-0.45312-0.23438 0-0.4375 0.20312-0.4375 0.45312s0.20312 0.4375 0.4375 0.4375c0.25 0 0.45312-0.1875 0.45312-0.4375z"/>
</g>
</defs>
<g transform="translate(-149.46 -130.23)">
<use x="148.71201" y="134.765" xlink:href="#a"/>
</g>
</svg>
