<?xml version="1.0" encoding="UTF-8"?>
<svg fill="#000000" version="1.1" viewBox="0 0 4.4062 7.0156" xmlns="http://www.w3.org/2000/svg" xmlns:xlink="http://www.w3.org/1999/xlink">
<defs>
<g id="a">
<path d="m2.1562-5.9375c-0.375 0.1875-1.1562 0.60938-1.1562 0.73438 0 0.046875 0.0625 0.10938 0.125 0.10938 0.015625 0 0.046875 0 0.0625-0.015625l0.20312-0.10938c0.29688-0.17188 0.57812-0.32812 0.85938-0.5 0.03125-0.015625 0.0625-0.03125 0.09375-0.03125 0.09375 0 0.32812 0.26562 0.4375 0.40625 0.40625 0.46875 0.75 1.0312 0.90625 1.6406h-0.015625c-0.21875-0.46875-0.73438-0.76562-1.2344-0.76562-1.25 0-2.1562 1.1719-2.1562 2.3281 0 1.2188 0.98438 2.2344 2.2188 2.2344 1.25 0 2.1875-1.0156 2.1875-2.2969v-0.20312c0-1.3438-0.48438-2.5312-1.5-3.4062-0.09375-0.09375-0.20312-0.20312-0.32812-0.26562 0.32812-0.1875 1.1406-0.59375 1.1406-0.71875 0-0.0625-0.046875-0.125-0.10938-0.125h-0.015625c-0.0625 0-0.20312 0.09375-0.28125 0.15625-0.28125 0.14062-0.54688 0.32812-0.82812 0.46875-0.03125 0.015625-0.0625 0.046875-0.10938 0.046875-0.078125 0-0.23438-0.125-0.34375-0.1875-0.48438-0.23438-0.95312-0.40625-1.4844-0.48438h-0.0625c-0.0625 0-0.14062 0.03125-0.15625 0.10938 0 0.125 0.26562 0.15625 0.375 0.20312 0.4375 0.15625 0.8125 0.39062 1.1719 0.67188zm-1.0469 3.9531v-0.15625c0-0.78125 0.078125-1.7344 1.0781-2.0625 0.078125-0.03125 0.17188-0.046875 0.26562-0.046875h0.015625c1.0312 0 1.3906 1.4062 1.3906 2.0781 0 0.71875-0.15625 1.7188-1.0938 1.9844-0.078125 0.03125-0.1875 0.03125-0.26562 0.03125-0.5 0-0.9375-0.32812-1.1562-0.76562-0.17188-0.32812-0.1875-0.6875-0.23438-1.0625z"/>
</g>
</defs>
<g transform="translate(-148.99 -127.84)">
<use x="148.71201" y="134.765" xlink:href="#a"/>
</g>
</svg>
