<?xml version="1.0" encoding="UTF-8"?>
<svg fill="#000000" width="6.4219" height="7.8438" version="1.1" viewBox="0 0 6.4219 7.8437" xmlns="http://www.w3.org/2000/svg" xmlns:xlink="http://www.w3.org/1999/xlink">
<defs>
<g id="a">
<path d="m3.7344-6.7656c-0.39062 0-0.71875 0.34375-0.71875 0.71875 0 0.42188 0.32812 0.71875 0.71875 0.71875 0.40625 0 0.71875-0.32812 0.71875-0.71875s-0.34375-0.71875-0.71875-0.71875zm-3.2031-0.17188c0 0.0625 0.015625 0.14062 0.0625 0.1875 1.7031 2.0156 2.8281 4.4531 2.8281 7.0469 0 0.17188 0.14062 0.29688 0.3125 0.29688 0.1875 0 0.29688-0.125 0.29688-0.29688 0-2.5938 1.1562-5.0312 2.8438-7.0469 0.046875-0.046875 0.078125-0.125 0.078125-0.1875 0-0.21875-0.20312-0.3125-0.29688-0.3125s-0.1875 0.046875-0.25 0.10938c-1.2344 1.4844-2.2031 3.1875-2.6719 5.0312-0.46875-1.8438-1.4375-3.5469-2.6719-5.0312-0.0625-0.0625-0.14062-0.10938-0.23438-0.10938-0.21875 0-0.29688 0.20312-0.29688 0.3125z"/>
</g>
</defs>
<g transform="translate(-149.24 -128.29)">
<use x="148.71201" y="135.53999" xlink:href="#a"/>
</g>
</svg>
