<?xml version="1.0" encoding="UTF-8"?>
<svg fill="#000000" version="1.1" viewBox="0 0 4.6406 6.5625" xmlns="http://www.w3.org/2000/svg" xmlns:xlink="http://www.w3.org/1999/xlink">
<defs>
<g id="a">
<path d="m4.8594-2.7656c0.0625-0.17188 0.078125-0.3125 0.078125-0.57812 0-0.64062-0.39062-1.0625-1.1406-1.0625-0.78125 0-1.2969 0.51562-1.5469 0.875-0.046875-0.57812-0.46875-0.875-0.92188-0.875s-0.64062 0.39062-0.73438 0.5625c-0.17188 0.34375-0.29688 0.9375-0.29688 0.96875 0 0.10938 0.09375 0.10938 0.10938 0.10938 0.10938 0 0.10938-0.015625 0.17188-0.23438 0.17188-0.70312 0.375-1.1875 0.73438-1.1875 0.15625 0 0.29688 0.078125 0.29688 0.45312 0 0.21875-0.03125 0.32812-0.15625 0.84375l-0.57812 2.2969c-0.03125 0.15625-0.09375 0.39062-0.09375 0.4375 0 0.17188 0.14062 0.26562 0.29688 0.26562 0.125 0 0.29688-0.078125 0.375-0.28125 0-0.015625 0.125-0.48438 0.1875-0.73438l0.21875-0.89062c0.046875-0.23438 0.10938-0.45312 0.17188-0.67188 0.015625-0.0625 0.09375-0.39062 0.10938-0.45312 0.015625-0.09375 0.32812-0.64062 0.67188-0.92188 0.21875-0.15625 0.53125-0.34375 0.95312-0.34375 0.4375 0 0.54688 0.34375 0.54688 0.70312 0 0.046875 0 0.21875-0.10938 0.625l-1.125 4.5781c-0.03125 0.125-0.03125 0.14062-0.03125 0.17188 0 0.14062 0.10938 0.26562 0.26562 0.26562 0.3125 0 0.39062-0.29688 0.42188-0.40625z"/>
</g>
</defs>
<g transform="translate(-149.01 -130.36)">
<use x="148.71201" y="134.765" xlink:href="#a"/>
</g>
</svg>
