<?xml version="1.0" encoding="UTF-8"?>
<svg fill="#000000" version="1.1" viewBox="0 0 6.5156 6.5156" xmlns="http://www.w3.org/2000/svg" xmlns:xlink="http://www.w3.org/1999/xlink">
<defs>
<g id="a">
<path d="m1.8281 0.20312c0.20312 0 0.57812-0.51562 1.9531-0.51562 0.34375 0 0.53125 0.015625 0.57812 0.015625 0.125 0 0.21875-0.09375 0.21875-0.23438 0-0.21875-0.23438-0.23438-0.46875-0.23438h-0.0625c-0.39062 0-0.76562 0.03125-1.1562 0.03125h-0.015625l4.0156-4.0156 0.84375 0.85938c0.046875 0.03125 0.09375 0.046875 0.15625 0.046875 0.125 0 0.23438-0.078125 0.23438-0.21875 0-0.0625-0.015625-0.10938-0.0625-0.17188l-2.0156-2c-0.046875-0.0625-0.10938-0.078125-0.17188-0.078125-0.10938 0-0.21875 0.09375-0.21875 0.23438 0 0.0625 0.015625 0.10938 0.0625 0.15625l0.84375 0.84375-4.0156 4.0312c0-0.40625 0.03125-0.78125 0.03125-1.1719v-0.10938c0-0.21875 0-0.4375-0.23438-0.4375-0.14062 0-0.23438 0.09375-0.23438 0.21875 0 0.0625 0.03125 0.23438 0.03125 0.57812 0 1.375-0.53125 1.75-0.53125 1.9531 0 0.14062 0.10938 0.21875 0.21875 0.21875z"/>
</g>
</defs>
<g transform="translate(-150.32 -128.45)">
<use x="148.71201" y="134.765" xlink:href="#a"/>
</g>
</svg>
