<?xml version="1.0" encoding="UTF-8"?>
<svg fill="#000000" version="1.1" viewBox="0 0 5.5883 4.2961" xmlns="http://www.w3.org/2000/svg" xmlns:xlink="http://www.w3.org/1999/xlink">
<defs>
<g id="a">
<path d="m6.2656-0.40625h-4.7812v-3.6562c0-0.078125 0.015625-0.20312-0.09375-0.21875-0.078125-0.03125-0.23438-0.03125-0.28125 0.03125s-0.015625 0.17188-0.015625 0.25v3.6562c0 0.078125-0.03125 0.1875 0.015625 0.28125 0.046875 0.078125 0.21875 0.046875 0.3125 0.046875h5.0625c0.03125 0 0.078125 0 0.125-0.015625 0.0625-0.03125 0.0625-0.14062 0.0625-0.20312v-3.8438c0-0.09375 0-0.20312-0.10938-0.21875-0.078125-0.015625-0.20312-0.015625-0.25 0.046875-0.0625 0.046875-0.046875 0.15625-0.046875 0.21875z"/>
</g>
</defs>
<g transform="translate(-149.8 -130.46)">
<use x="148.71201" y="134.765" xlink:href="#a"/>
</g>
</svg>
