<?xml version="1.0" encoding="UTF-8"?>
<svg fill="#000000" version="1.1" viewBox="0 0 4.3125 7.4375" xmlns="http://www.w3.org/2000/svg" xmlns:xlink="http://www.w3.org/1999/xlink">
<defs>
<g id="a">
<path d="m0.78125-4.5625c-0.14062 0-0.21875 0.10938-0.21875 0.23438 0 0.0625 0.015625 0.125 0.078125 0.17188 0.59375 0.5 1.2656 1 1.9844 1.3438l-0.15625 0.60938c-0.67188 0.34375-1.2656 0.79688-1.8281 1.2656-0.0625 0.046875-0.078125 0.10938-0.078125 0.17188 0 0.125 0.078125 0.23438 0.21875 0.23438 0.20312 0 0.51562-0.45312 1.5156-1.0625l-0.6875 2.5781c-0.015625 0.078125 0.046875 0.1875 0.15625 0.1875 0.0625 0 0.125-0.046875 0.14062-0.10938l0.76562-2.8594c0.625-0.3125 1.2812-0.51562 1.9688-0.51562 0.14062 0 0.23438-0.09375 0.23438-0.23438s-0.09375-0.21875-0.23438-0.21875c-0.54688 0-1.0938-0.14062-1.6094-0.35938l0.78125-2.9531c0.03125-0.078125-0.03125-0.1875-0.14062-0.1875-0.0625 0-0.125 0.046875-0.14062 0.10938l-0.78125 2.8906c-1.1875-0.57812-1.75-1.2969-1.9688-1.2969zm2.0469 2.1875 0.078125-0.3125c0.125 0.0625 0.25 0.09375 0.375 0.14062-0.15625 0.046875-0.3125 0.10938-0.45312 0.17188z"/>
</g>
</defs>
<g transform="translate(-149.27 -128.5)">
<use x="148.71201" y="134.765" xlink:href="#a"/>
</g>
</svg>
