<?xml version="1.0" encoding="UTF-8"?>
<svg fill="#000000" version="1.1" viewBox="0 0 4.2188 9" xmlns="http://www.w3.org/2000/svg" xmlns:xlink="http://www.w3.org/1999/xlink">
<defs>
<g id="a">
<path d="m1.5312-3.0469c-1.0781 0.71875-1.2969 1.6562-1.2969 2.0156 0 0.46875 0.26562 0.75 0.28125 0.78125 0.32812 0.32812 0.40625 0.375 1.1562 0.65625l1.2031 0.46875c0.15625 0.0625 0.35938 0.125 0.35938 0.42188 0 0.23438-0.1875 0.53125-0.5 0.53125-0.4375 0-0.76562-0.25-0.875-0.32812-0.0625-0.03125-0.0625-0.046875-0.10938-0.046875-0.078125 0-0.09375 0.078125-0.09375 0.10938 0 0.125 0.53125 0.48438 1.0781 0.48438 0.625 0 1.0469-0.57812 1.0469-1.0625s-0.375-0.67188-0.48438-0.71875c-0.14062-0.046875-0.46875-0.17188-0.60938-0.21875-0.1875-0.09375-0.39062-0.17188-0.60938-0.23438l-0.59375-0.23438c-0.45312-0.1875-0.75-0.46875-0.75-0.89062 0-0.40625 0.39062-1.2812 1.2344-1.7031 0.35938 0.14062 0.65625 0.14062 0.875 0.14062 0.29688 0 0.92188 0 0.92188-0.3125 0-0.25-0.42188-0.26562-0.8125-0.26562-0.1875 0-0.46875 0-0.84375 0.10938-0.25-0.25-0.29688-0.57812-0.29688-0.76562 0-0.5625 0.35938-1.3281 1.1094-1.7031 0.17188 0.21875 0.40625 0.21875 0.64062 0.21875 0.25 0 0.89062 0 0.89062-0.3125 0-0.25-0.45312-0.26562-0.82812-0.26562-0.14062 0-0.375 0-0.64062 0.046875-0.03125-0.078125-0.046875-0.15625-0.046875-0.32812 0-0.14062 0.046875-0.34375 0.046875-0.35938 0-0.078125-0.046875-0.14062-0.10938-0.14062-0.1875 0-0.1875 0.46875-0.1875 0.5 0 0.1875 0.0625 0.34375 0.078125 0.375-1.0781 0.3125-1.75 1.1094-1.75 1.875 0 0.35938 0.1875 0.78125 0.65625 1.0469zm1.625-2.8594c0.15625-0.046875 0.35938-0.046875 0.46875-0.046875 0.34375 0 0.375 0.015625 0.5625 0.0625-0.078125 0.03125-0.1875 0.078125-0.625 0.078125-0.1875 0-0.29688 0-0.40625-0.09375zm-0.78125 2.7188c0.23438-0.046875 0.45312-0.046875 0.5625-0.046875 0.35938 0 0.39062 0 0.57812 0.046875-0.09375 0.046875-0.1875 0.09375-0.64062 0.09375-0.23438 0-0.32812 0-0.5-0.09375z"/>
</g>
</defs>
<g transform="translate(-148.95 -127.81)">
<use x="148.71201" y="134.765" xlink:href="#a"/>
</g>
</svg>
