<?xml version="1.0" encoding="UTF-8"?>
<svg fill="#000000" width="6.4219" height="7.8438" version="1.1" viewBox="0 0 6.4219 7.8437" xmlns="http://www.w3.org/2000/svg" xmlns:xlink="http://www.w3.org/1999/xlink">
<defs>
<g id="a">
<path d="m4.0312-2.7969v-0.95312h0.96875c0.15625 0 0.29688-0.125 0.29688-0.29688s-0.14062-0.3125-0.29688-0.3125h-0.96875v-0.9375c0-0.17188-0.125-0.3125-0.29688-0.3125s-0.3125 0.14062-0.3125 0.3125v0.9375h-0.9375c-0.17188 0-0.3125 0.14062-0.3125 0.3125s0.14062 0.29688 0.3125 0.29688h0.9375v0.95312c0 0.17188 0.14062 0.3125 0.3125 0.3125s0.29688-0.14062 0.29688-0.3125zm-2.8906 2.7812v-6.9219c0-0.17188-0.14062-0.3125-0.3125-0.3125s-0.29688 0.14062-0.29688 0.3125v7.2344c0 0.17188 0.125 0.29688 0.29688 0.29688h5.8281c0.15625 0 0.29688-0.125 0.29688-0.29688v-7.2344c0-0.17188-0.14062-0.3125-0.29688-0.3125-0.17188 0-0.3125 0.14062-0.3125 0.3125v6.9219z"/>
</g>
</defs>
<g transform="translate(-149.24 -128.29)">
<use x="148.71201" y="135.53999" xlink:href="#a"/>
</g>
</svg>
