<?xml version="1.0" encoding="UTF-8"?>
<svg fill="#000000" version="1.1" viewBox="0 0 6.097 5.8734" xmlns="http://www.w3.org/2000/svg" xmlns:xlink="http://www.w3.org/1999/xlink">
<defs>
<g id="a">
<path d="m0.90625-5.8594c-0.03125 0-0.046875 0.03125-0.0625 0.0625s-0.015625 0.0625-0.015625 0.10938c0 0.078125-0.015625 0.1875 0.09375 0.20312 0.046875 0.015625 0.10938 0.015625 0.15625 0.015625h5.6719c0.046875 0 0.09375 0 0.14062-0.03125 0.03125-0.03125 0.03125-0.09375 0.03125-0.14062 0-0.078125 0.015625-0.20312-0.078125-0.21875-0.046875-0.015625-0.09375-0.015625-0.14062-0.015625h-5.6406c-0.046875 0-0.10938 0-0.15625 0.015625zm2.6562 1.9688c-0.17188 0.32812-0.375 0.64062-0.57812 0.95312-0.39062 0.64062-0.78125 1.2812-1.1562 1.9219-0.14062 0.23438-0.29688 0.45312-0.42188 0.6875-0.046875 0.0625-0.14062 0.17188-0.09375 0.26562 0.0625 0.078125 0.1875 0.046875 0.26562 0.046875 0.046875 0 0.078125 0 0.10938-0.03125 0.0625-0.046875 0.09375-0.125 0.14062-0.1875 0.078125-0.15625 0.17188-0.29688 0.26562-0.45312 0.40625-0.65625 0.8125-1.3125 1.2031-1.9844 0.10938-0.1875 0.23438-0.375 0.34375-0.5625 0.078125-0.125 0.17188-0.25 0.23438-0.39062h0.015625c0.0625 0.14062 0.15625 0.28125 0.23438 0.42188 0.15625 0.23438 0.29688 0.46875 0.4375 0.70312 0.375 0.59375 0.71875 1.2031 1.0938 1.7969 0.09375 0.15625 0.1875 0.3125 0.28125 0.46875 0.03125 0.0625 0.078125 0.14062 0.14062 0.1875 0.0625 0.0625 0.20312 0.046875 0.28125 0.03125 0.03125 0 0.046875-0.015625 0.078125-0.03125 0.0625-0.09375-0.03125-0.20312-0.078125-0.26562-0.14062-0.23438-0.28125-0.46875-0.42188-0.6875-0.39062-0.64062-0.78125-1.2812-1.1562-1.9219-0.20312-0.32812-0.42188-0.64062-0.59375-0.96875h2.5312c0.046875 0 0.09375 0 0.14062-0.015625 0.03125-0.015625 0.046875-0.03125 0.0625-0.0625v-0.09375c0-0.0625 0.015625-0.15625-0.03125-0.20312-0.046875-0.03125-0.09375-0.03125-0.125-0.03125h-0.25-5.3125-0.20312c-0.046875 0-0.09375 0-0.125 0.03125-0.046875 0.03125-0.046875 0.09375-0.046875 0.15625 0 0.078125-0.015625 0.1875 0.10938 0.21875 0.15625 0.015625 0.34375 0 0.5 0z"/>
</g>
</defs>
<g transform="translate(-149.54 -128.89)">
<use x="148.71201" y="134.765" xlink:href="#a"/>
</g>
</svg>
