<?xml version="1.0" encoding="UTF-8"?>
<svg fill="#000000" version="1.1" viewBox="0 0 4.5938 10.031" xmlns="http://www.w3.org/2000/svg" xmlns:xlink="http://www.w3.org/1999/xlink">
<defs>
<g id="a">
<path d="m4.3906-2.5625c0.14062 0 0.23438-0.10938 0.23438-0.23438 0-0.0625-0.03125-0.14062-0.078125-0.17188-0.64062-0.53125-1.2031-1.1719-1.3438-2v-1.125c0.45312 0.45312 0.96875 1.1406 1.1875 1.1406 0.14062 0 0.23438-0.10938 0.23438-0.23438 0-0.0625-0.03125-0.125-0.078125-0.17188-0.64062-0.53125-1.2031-1.1875-1.3438-2-0.015625-0.125-0.125-0.20312-0.23438-0.20312s-0.20312 0.078125-0.23438 0.20312c-0.125 0.8125-0.70312 1.4688-1.3438 2-0.046875 0.046875-0.078125 0.10938-0.078125 0.17188 0 0.125 0.09375 0.23438 0.23438 0.23438 0.23438 0 0.71875-0.67188 1.1875-1.1406v1.125c-0.14062 0.82812-0.70312 1.4688-1.3438 2-0.046875 0.03125-0.078125 0.10938-0.078125 0.17188 0 0.125 0.09375 0.23438 0.23438 0.23438 0.23438 0 0.71875-0.67188 1.1875-1.1406v2.9844l-1.9531 0.71875c-0.0625 0.015625-0.10938 0.078125-0.10938 0.14062 0 0.10938 0.10938 0.17188 0.20312 0.14062l1.8594-0.6875v2.6406c0 0.125 0.10938 0.23438 0.23438 0.23438s0.23438-0.10938 0.23438-0.23438v-2.7969l1.9531-0.71875c0.0625-0.015625 0.10938-0.078125 0.10938-0.14062 0-0.10938-0.10938-0.17188-0.21875-0.14062l-1.8438 0.67188v-2.8125c0.45312 0.4375 0.96875 1.1406 1.1875 1.1406z"/>
</g>
</defs>
<g transform="translate(-149.38 -127.2)">
<use x="148.71201" y="134.765" xlink:href="#a"/>
</g>
</svg>
