<?xml version="1.0" encoding="UTF-8"?>
<svg fill="#000000" version="1.1" viewBox="0 0 4.7188 6.8125" xmlns="http://www.w3.org/2000/svg" xmlns:xlink="http://www.w3.org/1999/xlink">
<defs>
<g id="a">
<path d="m5.0625-0.40625h-4.1094v-2.4688c1.8438 0 4.3125-0.0625 4.3125-1.9688 0-1.9375-2.4844-1.9688-4.3438-1.9688h-0.17188c-0.10938 0-0.20312 0.09375-0.20312 0.20312v6.4062c0 0.10938 0.09375 0.20312 0.20312 0.20312h4.3125c0.10938 0 0.20312-0.09375 0.20312-0.20312s-0.09375-0.20312-0.20312-0.20312zm-0.20312-4.4375c0 1.4375-1.8281 1.5469-3.9062 1.5469v-3.1094c2.0781 0 3.9062 0.10938 3.9062 1.5625z"/>
</g>
</defs>
<g transform="translate(-149.26 -127.95)">
<use x="148.71201" y="134.765" xlink:href="#a"/>
</g>
</svg>
