<?xml version="1.0" encoding="UTF-8"?>
<svg fill="#000000" version="1.1" viewBox="0 0 6.6562 8.5469" xmlns="http://www.w3.org/2000/svg" xmlns:xlink="http://www.w3.org/1999/xlink">
<defs>
<g id="a">
<path d="m4 1.2969c0.17188 0 0.35938 0 0.35938-0.20312 0-0.03125 0-0.046875-0.046875-0.15625-0.17188-0.59375-0.23438-1.1406-0.23438-1.6406h0.5c0.03125 0.875 1.1094 0.92188 1.2969 0.92188 1.2188 0 1.3281-1.5938 1.3281-2.25 0-1.1562-0.67188-1.9531-1.7969-2.9531-0.76562-0.67188-1.0938-1.5312-1.3438-2.1406-0.03125-0.078125-0.10938-0.125-0.1875-0.125-0.14062 0-0.17188 0.10938-0.20312 0.17188-0.17188 0.45312-0.54688 1.4062-1.3125 2.0781-1.1562 1.0312-1.8125 1.8438-1.8125 2.9688 0 0.75 0.15625 2.25 1.3438 2.25 0.29688 0 1.2656-0.09375 1.2969-0.92188h0.48438c0 0.65625-0.09375 1.1562-0.25 1.6875-0.015625 0.078125-0.015625 0.09375-0.015625 0.10938 0 0.20312 0.17188 0.20312 0.34375 0.20312z"/>
</g>
</defs>
<g transform="translate(-149.26 -127.52)">
<use x="148.71201" y="134.765" xlink:href="#a"/>
</g>
</svg>
