<?xml version="1.0" encoding="UTF-8"?>
<svg fill="#000000" version="1.1" viewBox="0 0 8.8594 3.3281" xmlns="http://www.w3.org/2000/svg" xmlns:xlink="http://www.w3.org/1999/xlink">
<defs>
<g id="a">
<path d="m9.1875-2.6875h-5.7031v-1.2656c0-0.03125 0-0.078125-0.03125-0.10938-0.03125-0.046875-0.09375-0.09375-0.15625-0.09375-0.046875 0-0.078125 0.015625-0.10938 0.03125l-2.5469 1.4688c-0.015625 0-0.046875 0.03125-0.0625 0.0625s-0.03125 0.0625-0.03125 0.09375 0.015625 0.078125 0.03125 0.10938 0.046875 0.0625 0.0625 0.0625l2.5469 1.4688c0.03125 0.015625 0.0625 0.03125 0.10938 0.03125 0.0625 0 0.125-0.046875 0.15625-0.09375 0.03125-0.03125 0.03125-0.078125 0.03125-0.10938v-1.2656h5.7031c0.125 0 0.21875-0.078125 0.21875-0.20312 0-0.10938-0.09375-0.1875-0.21875-0.1875zm-6.0938 1.3125-1.9375-1.125 1.9375-1.1094z"/>
</g>
</defs>
<g transform="translate(-149.26 -130.61)">
<use x="148.71201" y="134.765" xlink:href="#a"/>
</g>
</svg>
