<?xml version="1.0" encoding="UTF-8"?>
<svg fill="#000000" version="1.1" viewBox="0 0 4.3125 9.9844" xmlns="http://www.w3.org/2000/svg" xmlns:xlink="http://www.w3.org/1999/xlink">
<defs>
<g id="a">
<path d="m1.2969-7.2812v9.5781c0 0.10938 0.078125 0.20312 0.1875 0.20312 0.125 0 0.20312-0.09375 0.20312-0.20312v-9.5781c0-0.10938-0.078125-0.20312-0.20312-0.20312-0.10938 0-0.1875 0.09375-0.1875 0.20312zm1.9531 0v9.5781c0 0.10938 0.09375 0.20312 0.20312 0.20312s0.20312-0.09375 0.20312-0.20312v-9.5781c0-0.10938-0.09375-0.20312-0.20312-0.20312s-0.20312 0.09375-0.20312 0.20312zm1.9688 0v9.5781c0 0.10938 0.078125 0.20312 0.1875 0.20312s0.20312-0.09375 0.20312-0.20312v-9.5781c0-0.10938-0.09375-0.20312-0.20312-0.20312s-0.1875 0.09375-0.1875 0.20312z"/>
</g>
</defs>
<g transform="translate(-150.01 -127.28)">
<use x="148.71201" y="134.765" xlink:href="#a"/>
</g>
</svg>
