<?xml version="1.0" encoding="UTF-8"?>
<svg fill="#000000" version="1.1" viewBox="0 0 3.3125 9.9844" xmlns="http://www.w3.org/2000/svg" xmlns:xlink="http://www.w3.org/1999/xlink">
<defs>
<g id="a">
<path d="m0.54688 0c0 1.5469 1.5938 2.5 3.2188 2.5 0.046875 0 0.09375-0.046875 0.09375-0.10938v-0.03125c0-0.046875-0.046875-0.09375-0.09375-0.09375-1.2969 0-2.375-1-2.375-2.2656 0-2.1875 1.4688-4.1406 1.4688-6.375 0-0.625-0.53125-1.1094-1.1562-1.1094s-1.1562 0.48438-1.1562 1.1094c0 0.29688 0.21875 0.4375 0.4375 0.4375s0.45312-0.14062 0.45312-0.4375-0.21875-0.4375-0.4375-0.4375h-0.078125c0.15625-0.26562 0.4375-0.4375 0.78125-0.4375 0.5 0 0.90625 0.39062 0.90625 0.875 0 2.2656-2.0625 4.0469-2.0625 6.375z"/>
</g>
</defs>
<g transform="translate(-149.26 -127.28)">
<use x="148.71201" y="134.765" xlink:href="#a"/>
</g>
</svg>
