<?xml version="1.0" encoding="UTF-8"?>
<svg fill="#000000" version="1.1" viewBox="0 0 5.7344 10.922" xmlns="http://www.w3.org/2000/svg" xmlns:xlink="http://www.w3.org/1999/xlink">
<defs>
<g id="a">
<path d="m0.26562 0.3125c0 0.078125 0.046875 0.15625 0.09375 0.20312 0.26562 0.1875 0.5625 0.29688 0.85938 0.29688 1.2188 0 1.5781-1.4375 1.7969-2.75h1.7031l0.39062-1.1875-0.29688-0.0625c-0.125 0.46875-0.53125 0.79688-1 0.79688h-0.70312l0.8125-4.5938c0.42188 0.0625 0.70312 0.46875 0.89062 0.90625l0.28125-0.125-0.375-1.0938h-0.75c0.125-0.71875 0.40625-2.3906 1.0781-2.3906 0.125 0 0.25 0.046875 0.34375 0.125 0.03125 0.1875 0.1875 0.26562 0.29688 0.26562 0.17188 0 0.3125-0.14062 0.3125-0.3125 0-0.34375-0.67188-0.5-0.95312-0.5-1.2344 0-1.5781 1.4844-1.8125 2.8125h-2.1562v0.3125l1.6406 2.4375-1.6406 2.3125v0.29688h1.2188c-0.14062 0.76562-0.40625 2.3281-1.0625 2.3281-0.125 0-0.25-0.046875-0.35938-0.14062-0.03125-0.1875-0.17188-0.25-0.29688-0.25-0.15625 0-0.3125 0.14062-0.3125 0.3125zm2.1094-2.7031h-0.76562l1.0156-1.4062zm0.51562-2.9688-1.0938-1.625h1.3906z"/>
</g>
</defs>
<g transform="translate(-148.98 -126.76)">
<use x="148.71201" y="136.868" xlink:href="#a"/>
</g>
</svg>
