<?xml version="1.0" encoding="UTF-8"?>
<svg fill="#000000" version="1.1" viewBox="0 0 4.125 3.9531" xmlns="http://www.w3.org/2000/svg" xmlns:xlink="http://www.w3.org/1999/xlink">
<defs>
<g id="a">
<path d="m3.3906-3.4062-0.40625-1.1406c-0.03125-0.09375-0.10938-0.15625-0.21875-0.15625s-0.1875 0.0625-0.21875 0.15625l-0.39062 1.1406-1.2344 0.03125c-0.14062 0-0.21875 0.10938-0.21875 0.23438 0 0.0625 0.03125 0.14062 0.09375 0.1875l0.96875 0.73438-0.34375 1.1562c-0.015625 0.03125-0.015625 0.0625-0.015625 0.078125 0 0.14062 0.10938 0.23438 0.23438 0.23438 0.046875 0 0.078125-0.015625 0.125-0.046875l1-0.70312 1 0.70312c0.046875 0.03125 0.09375 0.046875 0.125 0.046875 0.125 0 0.23438-0.09375 0.23438-0.23438 0-0.015625 0-0.046875-0.015625-0.078125l-0.34375-1.1562 0.98438-0.73438c0.0625-0.046875 0.078125-0.125 0.078125-0.1875 0-0.125-0.078125-0.23438-0.21875-0.23438zm-0.625-0.375 0.23438 0.6875c0.046875 0.09375 0.125 0.15625 0.21875 0.15625h0.71875l-0.57812 0.4375c-0.078125 0.0625-0.10938 0.15625-0.078125 0.25l0.20312 0.6875-0.57812-0.40625c-0.078125-0.0625-0.1875-0.0625-0.26562 0l-0.59375 0.40625 0.20312-0.6875c0.03125-0.09375 0-0.1875-0.078125-0.25l-0.57812-0.4375h0.73438c0.09375 0 0.17188-0.0625 0.20312-0.15625z"/>
</g>
</defs>
<g transform="translate(-149.42 -130.06)">
<use x="148.71201" y="134.765" xlink:href="#a"/>
</g>
</svg>
