<?xml version="1.0" encoding="UTF-8"?>
<svg fill="#000000" width="4.5938" height="8.0938" version="1.1" viewBox="0 0 4.5938 8.0937" xmlns="http://www.w3.org/2000/svg" xmlns:xlink="http://www.w3.org/1999/xlink">
<defs>
<g id="a">
<path d="m2.625-0.25c-0.54688-1.0469-0.57812-1.1406-0.76562-1.1406-0.0625 0-0.21875 0.0625-0.21875 0.21875 0 0.0625 0 0.10938 0.03125 0.14062 0.4375 0.625 0.79688 1.3281 0.79688 2.0781 0 0.14062-0.015625 0.20312-0.015625 0.23438 0 0.10938 0.09375 0.21875 0.23438 0.21875 0.35938 0 0.14062-0.82812 2.0312-1.7188 0.078125-0.046875 0.125-0.125 0.125-0.20312 0-0.14062-0.10938-0.23438-0.23438-0.23438-0.21875 0-1.0312 0.64062-1.5781 0.92188 0.015625-0.29688 0.046875-0.57812 0.15625-0.8125 0.1875-0.48438 0.73438-0.9375 0.73438-1.6406 0-0.42188-0.1875-0.76562-0.4375-1.0938l1.6719-0.60938c0.0625-0.03125 0.10938-0.09375 0.10938-0.14062 0-0.10938-0.10938-0.1875-0.21875-0.14062l-1.7812 0.64062-0.14062-0.14062c-0.375-0.375-0.64062-0.75-0.64062-1.1562 0-0.78125 1-1.25 1-1.5469 0-0.10938-0.078125-0.21875-0.21875-0.21875-0.0625 0-0.125 0.03125-0.17188 0.0625-0.57812 0.57812-1.0625 0.98438-1.0625 1.7031 0 0.59375 0.35938 1.0625 0.76562 1.4688l-2.0156 0.73438c-0.0625 0.015625-0.10938 0.078125-0.10938 0.14062 0 0.10938 0.10938 0.1875 0.20312 0.14062l2.1406-0.78125c0.26562 0.3125 0.4375 0.625 0.4375 0.9375 0 0.65625-0.65625 0.98438-0.82812 1.9375z"/>
</g>
</defs>
<g transform="translate(-149.38 -128.17)">
<use x="148.71201" y="134.765" xlink:href="#a"/>
</g>
</svg>
