<?xml version="1.0" encoding="UTF-8"?>
<svg fill="#000000" version="1.1" viewBox="0 0 4.3125 3.0312" xmlns="http://www.w3.org/2000/svg" xmlns:xlink="http://www.w3.org/1999/xlink">
<defs>
<g id="a">
<path d="m2.7188-0.64062c0.46875 0 0.875-0.34375 0.98438-0.78125h0.9375c0.14062 0 0.23438-0.10938 0.23438-0.23438s-0.09375-0.23438-0.23438-0.23438h-1.1562c-0.125 0-0.21875 0.10938-0.21875 0.23438 0 0.32812-0.25 0.54688-0.54688 0.54688-0.32812 0-0.54688-0.25-0.54688-0.54688 0-0.125-0.09375-0.23438-0.23438-0.23438h-1.1562c-0.125 0-0.21875 0.10938-0.21875 0.23438s0.09375 0.23438 0.21875 0.23438h0.95312c0.10938 0.4375 0.51562 0.78125 0.98438 0.78125zm1.9219-3.0312h-3.8594c-0.125 0-0.21875 0.10938-0.21875 0.23438s0.09375 0.23438 0.21875 0.23438h3.8594c0.14062 0 0.23438-0.10938 0.23438-0.23438s-0.09375-0.23438-0.23438-0.23438z"/>
</g>
</defs>
<g transform="translate(-149.27 -131.09)">
<use x="148.71201" y="134.765" xlink:href="#a"/>
</g>
</svg>
