<?xml version="1.0" encoding="UTF-8"?>
<svg fill="#000000" version="1.1" viewBox="0 0 5.9219 11.072" xmlns="http://www.w3.org/2000/svg" xmlns:xlink="http://www.w3.org/1999/xlink">
<defs>
<g id="a">
<path d="m1.4688 5.3281h-0.90625v0.40625l1.1875-0.015625c0-0.015625 0.015625-0.015625 0.03125 0 0.14062-0.1875 0.10938-0.5 0.1875-0.71875 0.1875-0.5 0.60938-0.75 1.0938-0.90625-0.078125 0.92188-0.21875 1.8438-0.28125 2.75-0.0625 0.96875-0.078125 1.9531-0.26562 2.9062-0.078125 0.48438-0.28125 1.1094-0.875 1.1094-0.25 0-0.46875-0.07813-0.625-0.21875 0.09375-0.015625 0.17188-0.046875 0.23438-0.10938 0.17188-0.14062 0.17188-0.45312 0.015625-0.60938-0.15625-0.14062-0.39062-0.14062-0.5625-0.03125-0.3125 0.23438-0.10938 0.73438 0.14062 0.92188 0.375 0.29688 0.96875 0.34375 1.4062 0.125 0.60938-0.32812 0.875-1.0781 1.0156-1.7188 0.15625-0.76562 0.21875-1.5625 0.32812-2.3438 0.0625-0.57812 0.14062-1.1719 0.1875-1.7656 0.03125-0.29688 0.0625-0.625 0.078125-0.9375 0.48438 0.26562 0.82812 0.60938 0.92188 1.2656 0 0.375 0.1875 0.29688 0.4375 0.29688h0.85938v-0.40625h-0.92188c-0.0625-0.46875-0.26562-0.90625-0.65625-1.2344-0.125-0.09375-0.26562-0.1875-0.40625-0.25-0.0625-0.03125-0.17188-0.046875-0.20312-0.09375-0.015625-0.078125 0.015625-0.1875 0.015625-0.25l0.046875-0.65625c0.03125-0.4375 0.0625-0.875 0.125-1.2969 0.0625-0.48438 0.1875-1.0312 0.57812-1.25 0.28125-0.15625 0.70312-0.0625 0.95312 0.125-0.10938 0.03125-0.21875 0.078125-0.29688 0.17188-0.17188 0.26562-0.015625 0.625 0.29688 0.67188 0.046875 0 0.10938 0 0.15625-0.015625 0.35938-0.078125 0.375-0.51562 0.20312-0.78125-0.3125-0.53125-1.1406-0.57812-1.6406-0.29688-0.21875 0.125-0.39062 0.3125-0.51562 0.53125-0.39062 0.59375-0.46875 1.2969-0.57812 1.9844l-0.078125 0.6875c-0.046875 0.32812-0.03125 0.3125-0.28125 0.35938-0.76562 0.17188-1.2969 0.84375-1.4062 1.5938zm-0.95312 0c0 0.03125 0.015625 0.015625 0.015625 0.015625zm5.5781 0c0 0.03125 0.03125 0.015625 0.03125 0.015625zm-5.6094 0.03125v-0.015625zm5.6719 0v-0.015625zm-5.6875 0h-0.015625zm5.7188 0h-0.015625zm-5.7812 0.046875 0.015625-0.03125zm5.8281 0-0.03125-0.03125zm-5.8438 0.03125h-0.015625zm5.875 0h-0.015625zm-5.8906 0.03125v-0.015625zm5.8906 0v-0.015625zm-5.8906 0.03125-0.015625-0.015625zm5.9062 0-0.015625-0.015625z"/>
</g>
</defs>
<g transform="translate(-149.07 -126.74)">
<use x="148.71201" y="126.739" xlink:href="#a"/>
</g>
</svg>
