<?xml version="1.0" encoding="UTF-8"?>
<svg fill="#000000" version="1.1" viewBox="0 0 5.9987 6.5604" xmlns="http://www.w3.org/2000/svg" xmlns:xlink="http://www.w3.org/1999/xlink">
<defs>
<g id="a">
<path d="m4.125-3.9531h-0.015625c-0.10938-0.14062-0.26562-0.23438-0.42188-0.3125-0.70312-0.34375-1.5625-0.1875-2.1875 0.23438-0.15625 0.09375-0.29688 0.21875-0.42188 0.34375-0.15625 0.17188-0.29688 0.35938-0.39062 0.5625-0.40625 0.8125-0.25 1.7969 0.34375 2.4531 0.25 0.26562 0.54688 0.46875 0.85938 0.60938 0.51562 0.21875 1.0938 0.26562 1.625 0.125 0.25-0.078125 0.51562-0.21875 0.625-0.4375 0.125 0.10938 0.21875 0.21875 0.34375 0.29688 0.046875 0.03125 0.10938 0.078125 0.17188 0.0625 0.046875-0.03125 0.0625-0.078125 0.0625-0.14062v-0.32812-0.65625c0-0.10938 0-0.25 0.09375-0.3125 0.10938-0.078125 0.26562-0.078125 0.39062-0.078125v-0.23438l-0.32812 0.015625-0.79688 0.015625-0.92188-0.03125v0.23438c0.15625 0 0.32812 0 0.5 0.03125 0.078125 0 0.17188 0.015625 0.23438 0.078125 0.125 0.09375 0.125 0.25 0.125 0.39062 0 0.21875 0.015625 0.4375-0.14062 0.60938l-0.14062 0.09375c-0.23438 0.15625-0.53125 0.17188-0.79688 0.15625-0.53125-0.0625-1.0469-0.3125-1.3594-0.78125-0.1875-0.28125-0.25-0.64062-0.26562-0.98438-0.03125-0.25-0.015625-0.5 0.015625-0.75 0.046875-0.21875 0.125-0.46875 0.23438-0.65625 0.26562-0.4375 0.71875-0.71875 1.2188-0.78125 0.25-0.046875 0.51562-0.015625 0.75 0.078125 0.20312 0.09375 0.39062 0.23438 0.53125 0.40625 0.17188 0.20312 0.28125 0.42188 0.34375 0.65625 0.03125 0.10938 0.03125 0.21875 0.0625 0.32812 0.03125 0.0625 0.10938 0.078125 0.1875 0.0625 0.09375-0.03125 0.078125-0.14062 0.078125-0.21875v-1.7188c0-0.40625 0-0.79688 0.17188-1.1719 0.0625-0.15625 0.17188-0.28125 0.3125-0.39062 0.17188-0.10938 0.40625-0.125 0.60938-0.046875 0.078125 0.046875 0.15625 0.09375 0.21875 0.15625-0.0625 0-0.14062 0.015625-0.20312 0.046875-0.21875 0.125-0.26562 0.42188-0.125 0.60938 0.10938 0.14062 0.28125 0.1875 0.45312 0.14062 0.03125 0 0.078125-0.015625 0.10938-0.03125 0.1875-0.14062 0.20312-0.375 0.15625-0.57812-0.09375-0.32812-0.39062-0.54688-0.71875-0.60938-0.09375-0.015625-0.1875-0.015625-0.28125 0-0.0625 0-0.14062 0.03125-0.20312 0.0625-0.51562 0.20312-0.70312 0.8125-0.75 1.3125-0.015625 0.14062-0.015625 0.28125-0.015625 0.42188 0 0.078125 0.015625 0.15625 0 0.21875s-0.078125 0.10938-0.10938 0.15625c-0.078125 0.09375-0.15625 0.17188-0.23438 0.28125z"/>
</g>
</defs>
<g transform="translate(-149.17 -128.35)">
<use x="148.71201" y="134.765" xlink:href="#a"/>
</g>
</svg>
