<?xml version="1.0" encoding="UTF-8"?>
<svg fill="#000000" version="1.1" viewBox="0 0 4.3125 9.5312" xmlns="http://www.w3.org/2000/svg" xmlns:xlink="http://www.w3.org/1999/xlink">
<defs>
<g id="a">
<path d="m1.625 2.0938 0.42188-1.5781h2.5938c0.14062 0 0.23438-0.10938 0.23438-0.23438s-0.09375-0.23438-0.23438-0.23438h-2.4688l0.5-1.8438 1.8594 1.0781c0.046875 0.015625 0.078125 0.03125 0.10938 0.03125 0.125 0 0.23438-0.09375 0.23438-0.23438v-4.4531c0-0.14062-0.10938-0.23438-0.23438-0.23438-0.03125 0-0.0625 0.015625-0.10938 0.03125l-1 0.59375 0.5625-2.1406c0.015625-0.078125-0.03125-0.1875-0.14062-0.1875-0.0625 0-0.125 0.0625-0.14062 0.125l-0.65625 2.4062-2.4844 1.4375c-0.078125 0.046875-0.10938 0.10938-0.10938 0.20312s0.03125 0.15625 0.10938 0.20312l1.7344 1-0.54688 1.9844h-1.0781c-0.125 0-0.21875 0.10938-0.21875 0.23438s0.09375 0.23438 0.21875 0.23438h0.96875l-0.42188 1.5156c-0.015625 0.078125 0.046875 0.1875 0.15625 0.1875 0.0625 0 0.125-0.0625 0.14062-0.125zm2.7969-3.4062-1.625-0.9375 0.5625-2.1094 1.0625-0.60938zm-1.9062-1.0938-1.2656-0.73438 1.7344-1z"/>
</g>
</defs>
<g transform="translate(-149.27 -127.45)">
<use x="148.71201" y="134.765" xlink:href="#a"/>
</g>
</svg>
