<?xml version="1.0" encoding="UTF-8"?>
<svg fill="#000000" version="1.1" viewBox="0 0 6.5392 8.9612" xmlns="http://www.w3.org/2000/svg" xmlns:xlink="http://www.w3.org/1999/xlink">
<defs>
<g id="a">
<path d="m2.5312-6.8125v0.29688c0.15625 0 0.29688 0 0.45312 0.03125 0.09375 0.015625 0.17188 0.046875 0.21875 0.10938 0.0625 0.0625 0.09375 0.14062 0.09375 0.21875 0.015625 0.15625 0.015625 0.3125 0.015625 0.46875v1.7812h-0.015625c-0.0625-0.125-0.17188-0.20312-0.28125-0.29688-0.64062-0.45312-1.5312-0.14062-2.0312 0.375-0.79688 0.79688-0.85938 2.1406-0.25 3.0625 0.39062 0.625 1.25 1.0938 1.9844 0.76562 0.23438-0.10938 0.40625-0.26562 0.57812-0.45312 0.046875 0.0625 0.14062 0.078125 0.1875 0s0.046875-0.17188 0.09375-0.25c0.078125-0.15625 0.15625-0.28125 0.26562-0.40625 0.046875-0.0625 0.10938-0.15625 0.17188-0.17188 0.0625-0.03125 0.14062-0.015625 0.20312 0 0.09375 0 0.17188 0 0.26562 0.015625 0.51562 0.0625 1.0781 0.26562 1.3594 0.75 0.17188 0.29688 0.1875 0.64062 0.17188 0.96875-0.03125 0.39062-0.10938 0.76562-0.39062 1.0469-0.14062 0.15625-0.32812 0.26562-0.54688 0.29688s-0.4375 0-0.65625-0.03125c-0.32812-0.078125-0.64062-0.20312-0.84375-0.45312 0.078125 0 0.14062 0 0.20312-0.03125 0.046875-0.03125 0.09375-0.0625 0.14062-0.10938 0.15625-0.1875 0.14062-0.5-0.046875-0.65625-0.09375-0.078125-0.20312-0.10938-0.3125-0.10938-0.0625 0-0.14062 0.015625-0.1875 0.03125-0.39062 0.1875-0.28125 0.6875-0.09375 0.96875 0.03125 0.0625 0.09375 0.10938 0.14062 0.15625 0.17188 0.1875 0.42188 0.28125 0.65625 0.35938 0.51562 0.15625 1.125 0.17188 1.6406-0.046875 0.21875-0.09375 0.4375-0.23438 0.625-0.42188 0.40625-0.42188 0.60938-1.0312 0.48438-1.6094-0.0625-0.25-0.17188-0.5-0.34375-0.71875-0.4375-0.57812-1.1719-0.89062-1.8906-0.95312 0.59375-0.5625 1.1719-1.125 1.7812-1.6875 0.0625-0.046875 0.10938-0.10938 0.1875-0.17188 0.0625-0.046875 0.14062-0.10938 0.17188-0.1875 0.03125-0.0625 0.015625-0.14062 0.015625-0.20312s0.015625-0.125-0.015625-0.17188c-0.046875-0.0625-0.14062-0.0625-0.1875-0.0625h-2.5625v-2.6094zm1.4531 5.2031v-2.1094h2.2344l-0.5 0.48438-0.875 0.8125-0.53125 0.51562zm-2.8125-0.20312c-0.03125-0.23438 0-0.45312 0-0.6875 0.03125-0.51562 0.125-1.0312 0.51562-1.4219 0.28125-0.26562 0.70312-0.35938 1.0625-0.17188 0.125 0.0625 0.25 0.17188 0.34375 0.28125 0.0625 0.09375 0.17188 0.21875 0.1875 0.34375 0.015625 0.0625 0 0.15625 0 0.21875v2.0625c0 0.078125 0.015625 0.17188 0 0.25-0.015625 0.0625-0.046875 0.10938-0.078125 0.15625-0.21875 0.42188-0.6875 0.78125-1.1719 0.625-0.078125-0.015625-0.15625-0.046875-0.21875-0.09375-0.10938-0.078125-0.20312-0.17188-0.28125-0.28125-0.20312-0.26562-0.29688-0.57812-0.32812-0.89062-0.015625-0.14062-0.015625-0.26562-0.03125-0.39062z"/>
</g>
</defs>
<g transform="translate(-149.04 -127.84)">
<use x="148.71201" y="134.765" xlink:href="#a"/>
</g>
</svg>
