<?xml version="1.0" encoding="UTF-8"?>
<svg fill="#000000" version="1.1" viewBox="0 0 7.0312 8.4219" xmlns="http://www.w3.org/2000/svg" xmlns:xlink="http://www.w3.org/1999/xlink">
<defs>
<g id="a">
<path d="m2.9844-2.5781c-0.40625-0.4375-0.40625-1.3125-0.40625-1.8906 0.10938 0.015625 0.95312 0.21875 0.96875 0.26562 0.03125-0.015625 0.078125 0.015625 0.09375 0.015625 0.046875 0.046875 0.28125 0.078125 0.34375 0.078125 0.46875 0 0.98438-0.3125 1.4844-0.35938 0 0.57812-0.015625 1.4531-0.42188 1.8906 0.46875 1.3125 0.42188 2.7344 0.42188 4.1094h0.21875v-0.79688c0-1.125 0.015625-2.2656 0.42188-3.3125-0.40625-0.4375-0.42188-1.3125-0.42188-1.8906 0.3125 0.015625 0.57812 0.15625 0.875 0.23438h0.03125c0.03125 0.03125 0.17188 0.03125 0.17188 0.0625h0.046875l0.015625 0.015625h0.015625l0.046875 0.015625h0.03125c0.03125 0.015625 0.10938 0.03125 0.15625 0.03125 0.26562 0 0.45312-0.17188 0.45312-0.45312 0-0.25-0.17188-0.45312-0.4375-0.45312-0.42188 0-0.89062 0.35938-1.4062 0.35938 0-0.59375 0.0625-0.8125 0.28125-1.3594 0.046875-0.14062 0.09375-0.26562 0.09375-0.40625 0-0.25-0.23438-0.46875-0.48438-0.46875s-0.46875 0.23438-0.46875 0.48438c0 0.15625 0.0625 0.3125 0.125 0.46875 0.17188 0.46875 0.23438 0.78125 0.23438 1.2812-0.53125 0-0.96875-0.35938-1.4531-0.35938-0.45312 0-0.89062 0.35938-1.4375 0.35938 0-0.59375 0.046875-0.8125 0.26562-1.3594 0.046875-0.14062 0.09375-0.26562 0.09375-0.40625 0-0.25-0.21875-0.46875-0.46875-0.46875-0.26562 0-0.48438 0.23438-0.48438 0.48438 0 0.15625 0.0625 0.3125 0.125 0.46875 0.1875 0.46875 0.25 0.78125 0.25 1.2812-0.5625 0-1.0469-0.35938-1.4375-0.35938-0.26562 0-0.42188 0.21875-0.42188 0.48438 0 0.21875 0.14062 0.42188 0.375 0.42188 0.45312 0 0.98438-0.3125 1.4844-0.35938 0 0.57812-0.03125 1.4531-0.4375 1.8906 0.46875 1.3125 0.4375 2.7344 0.4375 4.1094h0.21875v-0.79688c0-1.125 0-2.2656 0.40625-3.3125z"/>
</g>
</defs>
<g transform="translate(-149.21 -127.87)">
<use x="148.71201" y="134.765" xlink:href="#a"/>
</g>
</svg>
