<?xml version="1.0" encoding="UTF-8"?>
<svg fill="#000000" version="1.1" viewBox="0 0 6.6562 9.2969" xmlns="http://www.w3.org/2000/svg" xmlns:xlink="http://www.w3.org/1999/xlink">
<defs>
<g id="b">
<path d="m6.2812-6.75c0.078125-0.14062 0.078125-0.15625 0.078125-0.1875 0-0.078125-0.0625-0.20312-0.20312-0.20312-0.10938 0-0.14062 0.0625-0.21875 0.20312l-4.4688 8.7031c-0.078125 0.14062-0.078125 0.15625-0.078125 0.1875 0 0.078125 0.0625 0.20312 0.1875 0.20312s0.15625-0.0625 0.21875-0.20312z"/>
</g>
<g id="a">
<path d="m7.2031-4.3125c0-0.21875-0.078125-0.29688-0.14062-0.29688-0.046875 0-0.14062 0.03125-0.14062 0.26562-0.046875 0.82812-0.73438 1.2969-1.3906 1.2969-0.59375 0-1.0781-0.35938-1.5938-0.75-0.53125-0.42188-1.0625-0.82812-1.7188-0.82812-0.98438 0-1.6719 0.875-1.6719 1.8125 0 0.29688 0.125 0.3125 0.14062 0.3125 0.10938 0 0.14062-0.20312 0.14062-0.23438 0.046875-0.96875 0.84375-1.3281 1.3906-1.3281 0.59375 0 1.0781 0.34375 1.5938 0.75 0.53125 0.40625 1.0469 0.8125 1.7188 0.8125 0.98438 0 1.6719-0.875 1.6719-1.8125zm-6.2969 3.5625c-0.15625 0-0.35938 0-0.35938 0.1875 0 0.20312 0.1875 0.20312 0.34375 0.20312h5.9531c0.17188 0 0.35938 0 0.35938-0.20312 0-0.1875-0.1875-0.1875-0.35938-0.1875z"/>
</g>
</defs>
<g transform="translate(-149.26 -127.62)">
<use x="148.71201" y="134.765" xlink:href="#b"/>
<use x="148.71201" y="134.765" xlink:href="#a"/>
</g>
</svg>
