<?xml version="1.0" encoding="UTF-8"?>
<svg fill="#000000" version="1.1" viewBox="0 0 4.7969 7.4375" xmlns="http://www.w3.org/2000/svg" xmlns:xlink="http://www.w3.org/1999/xlink">
<defs>
<g id="a">
<path d="m2.1875-5.4688c-0.51562 0-0.90625 0.42188-1.2969 0.79688l0.39062 0.39062c0.25-0.26562 0.54688-0.54688 0.92188-0.54688 0.48438 0 0.84375 0.40625 1.1719 0.625l-0.25 0.95312c-0.28125-0.17188-0.59375-0.28125-0.9375-0.28125-0.51562 0-0.90625 0.40625-1.2969 0.79688l0.39062 0.35938c0.25-0.25 0.54688-0.53125 0.92188-0.53125 0.28125 0 0.53125 0.14062 0.75 0.29688l-0.28125 1.0625c-0.15625-0.046875-0.3125-0.078125-0.48438-0.078125-0.51562 0-0.90625 0.42188-1.2969 0.8125l0.39062 0.35938c0.25-0.25 0.54688-0.53125 0.92188-0.53125 0.10938 0 0.20312 0.015625 0.3125 0.046875l-0.48438 1.75 0.5625 0.17188 0.42188-1.6094c0.39062 0.3125 0.84375 0.60938 1.375 0.60938s0.90625-0.42188 1.2969-0.79688l-0.39062-0.39062c-0.25 0.28125-0.54688 0.54688-0.92188 0.54688-0.48438 0-0.84375-0.40625-1.1719-0.625l0.25-0.95312c0.28125 0.17188 0.59375 0.29688 0.9375 0.29688 0.53125 0 0.90625-0.42188 1.2969-0.79688l-0.39062-0.39062c-0.25 0.28125-0.54688 0.54688-0.92188 0.54688-0.28125 0-0.53125-0.14062-0.75-0.29688l0.28125-1.0625c0.15625 0.046875 0.32812 0.078125 0.48438 0.078125 0.53125 0 0.90625-0.42188 1.2969-0.8125l-0.39062-0.375c-0.25 0.26562-0.54688 0.54688-0.92188 0.54688-0.10938 0-0.20312-0.03125-0.3125-0.0625l0.48438-1.7344-0.5625-0.15625-0.42188 1.5938c-0.39062-0.29688-0.84375-0.60938-1.375-0.60938z"/>
</g>
</defs>
<g transform="translate(-149.6 -128.31)">
<use x="148.71201" y="134.765" xlink:href="#a"/>
</g>
</svg>
