<?xml version="1.0" encoding="UTF-8"?>
<svg fill="#000000" version="1.1" viewBox="0 0 7.9531 8.8281" xmlns="http://www.w3.org/2000/svg" xmlns:xlink="http://www.w3.org/1999/xlink">
<defs>
<g id="a">
<path d="m4.7188-7.25c-0.84375 0.125-1.3438 0.6875-1.3438 1.4844 0 1.0156 0.75 1.7344 2.4688 2.375-0.48438 1.7656-0.84375 2.3906-1.3906 2.3906-0.23438-0.03125-0.39062-0.09375-0.5625-0.34375-0.57812-0.92188-0.71875-1.0938-1.2031-1.0938-0.5 0-1.1562 0.25-1.5625 0.75-0.625 0.79688-0.9375 1.2969-0.9375 1.5312 0 0.10938 0.10938 0.21875 0.21875 0.21875 0.125 0 0.23438-0.09375 0.34375-0.26562 0.45312-0.96875 0.76562-1.3594 1.1406-1.3594 0.34375 0.03125 0.46875 0.15625 0.92188 0.9375 0.28125 0.48438 0.79688 0.79688 1.2969 0.79688 1.0781-0.078125 1.7969-1.0781 2.2969-3.3281 0.67188 0.32812 0.84375 0.53125 0.84375 0.96875-0.015625 0.35938-0.0625 0.60938-0.29688 1.1562-0.28125 0.73438-0.39062 1.2031-0.39062 1.75 0 0.57812 0.17188 0.85938 0.5625 0.85938 0.1875 0 0.34375-0.1875 0.34375-0.42188-0.046875-0.28125-0.046875-0.3125-0.046875-0.3125 0-0.15625 0.046875-0.32812 0.14062-0.54688 0.35938-0.82812 0.57812-1.5781 0.57812-2.0781-0.03125-0.875-0.53125-1.4688-1.6406-2.0156 0.0625-0.28125 0.09375-0.57812 0.09375-0.90625-0.0625-1.75-0.60938-2.4688-1.875-2.5469zm0.14062 0.60938c0.76562 0.0625 1.25 0.67188 1.25 1.5938-0.015625 0.32812-0.046875 0.60938-0.14062 1.0938-1.1875-0.53125-1.7656-1.2031-1.7656-1.9062 0-0.51562 0.21875-0.73438 0.65625-0.78125z"/>
</g>
</defs>
<g transform="translate(-148.9 -127.52)">
<use x="148.71201" y="134.765" xlink:href="#a"/>
</g>
</svg>
