<?xml version="1.0" encoding="UTF-8"?>
<svg fill="#000000" width="3.5938" height="3.5938" version="1.1" viewBox="0 0 3.5938 3.5937" xmlns="http://www.w3.org/2000/svg" xmlns:xlink="http://www.w3.org/1999/xlink">
<defs>
<g id="a">
<path d="m4.5312-4.3125c-0.0625 0-0.125 0.03125-0.17188 0.078125l-3.0469 3.0625c-0.0625 0.03125-0.078125 0.09375-0.078125 0.15625 0 0.17188 0.15625 0.23438 0.23438 0.23438 0.0625 0 0.10938-0.03125 0.15625-0.078125l3.0625-3.0625c0.046875-0.03125 0.0625-0.09375 0.0625-0.15625 0-0.125-0.078125-0.23438-0.21875-0.23438zm-2.7969-0.03125c-0.3125 0-0.53125 0.25-0.53125 0.54688 0 0.3125 0.25 0.53125 0.53125 0.53125 0.3125 0 0.53125-0.25 0.53125-0.53125 0-0.3125-0.23438-0.54688-0.53125-0.54688zm2.5156 2.5156c-0.29688 0-0.53125 0.25-0.53125 0.54688s0.25 0.53125 0.53125 0.53125c0.32812 0 0.54688-0.25 0.54688-0.53125 0-0.32812-0.25-0.54688-0.54688-0.54688z"/>
</g>
</defs>
<g transform="translate(-149.92 -130.42)">
<use x="148.71201" y="134.765" xlink:href="#a"/>
</g>
</svg>
