<?xml version="1.0" encoding="UTF-8"?>
<svg fill="#000000" version="1.1" viewBox="0 0 4.75 4.5258" xmlns="http://www.w3.org/2000/svg" xmlns:xlink="http://www.w3.org/1999/xlink">
<defs>
<g id="a">
<path d="m0.25-4.3125v0.3125c0.20312 0 0.46875-0.015625 0.67188 0.078125 0.20312 0.10938 0.34375 0.35938 0.48438 0.54688 0.20312 0.28125 0.42188 0.5625 0.64062 0.85938 0.0625 0.09375 0.14062 0.1875 0.20312 0.28125 0.046875 0.078125 0.10938 0.15625 0.17188 0.20312v0.015625c-0.09375 0.0625-0.1875 0.15625-0.26562 0.23438-0.23438 0.25-0.4375 0.53125-0.45312 0.875-0.015625 0.125 0.015625 0.26562 0.046875 0.39062 0.03125 0.09375 0.078125 0.20312 0.14062 0.28125 0.046875 0.09375 0.14062 0.17188 0.21875 0.23438 0.39062 0.3125 0.96875 0.25 1.375 0.015625 0.42188-0.25 0.65625-0.75 0.5-1.2344-0.0625-0.1875-0.1875-0.34375-0.3125-0.5-0.14062-0.14062-0.28125-0.28125-0.42188-0.40625-0.046875-0.03125-0.15625-0.10938-0.17188-0.17188 0-0.0625 0.0625-0.125 0.09375-0.17188 0.09375-0.125 0.1875-0.25 0.28125-0.375 0.20312-0.28125 0.40625-0.59375 0.67188-0.82812 0.23438-0.20312 0.5625-0.32812 0.875-0.32812v-0.3125l-0.89062 0.03125-0.70312-0.03125v0.3125c0.03125 0 0.078125 0.015625 0.10938 0.03125 0.1875 0.078125 0.1875 0.26562 0.10938 0.4375-0.046875 0.10938-0.14062 0.21875-0.20312 0.3125-0.125 0.14062-0.23438 0.3125-0.34375 0.45312-0.0625 0.078125-0.125 0.15625-0.17188 0.25-0.125-0.09375-0.20312-0.25-0.29688-0.375-0.14062-0.20312-0.29688-0.39062-0.4375-0.59375-0.0625-0.078125-0.125-0.14062-0.17188-0.21875-0.015625-0.046875-0.03125-0.09375-0.03125-0.14062 0.015625-0.046875 0.0625-0.078125 0.10938-0.10938 0.078125-0.046875 0.20312-0.046875 0.29688-0.046875v-0.3125l-0.90625 0.03125h-0.84375zm2.375 2.375c0.20312 0.17188 0.40625 0.34375 0.5625 0.5625 0.078125 0.125 0.14062 0.26562 0.17188 0.42188 0.015625 0.125 0.015625 0.25 0 0.35938-0.03125 0.10938-0.0625 0.20312-0.125 0.29688-0.046875 0.0625-0.10938 0.125-0.1875 0.17188-0.0625 0.046875-0.125 0.078125-0.20312 0.09375-0.0625 0.015625-0.125 0.015625-0.20312 0.015625-0.42188-0.046875-0.70312-0.46875-0.6875-0.875 0.015625-0.17188 0.078125-0.32812 0.15625-0.48438 0.125-0.23438 0.32812-0.375 0.51562-0.5625z"/>
</g>
</defs>
<g transform="translate(-148.96 -130.45)">
<use x="148.71201" y="134.765" xlink:href="#a"/>
</g>
</svg>
