<?xml version="1.0" encoding="UTF-8"?>
<svg fill="#000000" width="4.3125" height="7.2188" version="1.1" viewBox="0 0 4.3125 7.2187" xmlns="http://www.w3.org/2000/svg" xmlns:xlink="http://www.w3.org/1999/xlink">
<defs>
<g id="a">
<path d="m3.3125-4.2344 0.46875-1.7344c0.03125-0.078125-0.03125-0.1875-0.14062-0.1875-0.0625 0-0.125 0.0625-0.14062 0.125l-0.45312 1.6406c-0.09375-0.03125-0.21875-0.0625-0.32812-0.0625-0.46875 0-0.875 0.34375-0.98438 0.78125h-0.95312c-0.125 0-0.21875 0.10938-0.21875 0.23438s0.09375 0.23438 0.21875 0.23438h1.1562c0.14062 0 0.23438-0.10938 0.23438-0.23438 0-0.32812 0.25-0.54688 0.54688-0.54688 0.078125 0 0.14062 0.015625 0.21875 0.046875l-0.5625 2.0469h-1.5938c-0.125 0-0.21875 0.10938-0.21875 0.23438s0.09375 0.23438 0.21875 0.23438h1.4844l-0.625 2.2969c-0.015625 0.078125 0.046875 0.1875 0.15625 0.1875 0.0625 0 0.10938-0.0625 0.14062-0.125l0.64062-2.3594h2.0625c0.14062 0 0.23438-0.10938 0.23438-0.23438s-0.09375-0.23438-0.23438-0.23438h-1.9531l0.5-1.8281c0.046875 0.078125 0.078125 0.1875 0.078125 0.28125 0 0.125 0.09375 0.23438 0.21875 0.23438h1.1562c0.14062 0 0.23438-0.10938 0.23438-0.23438s-0.09375-0.23438-0.23438-0.23438h-0.9375c-0.078125-0.3125-0.28125-0.48438-0.39062-0.5625z"/>
</g>
</defs>
<g transform="translate(-149.27 -128.61)">
<use x="148.71201" y="134.765" xlink:href="#a"/>
</g>
</svg>
