<?xml version="1.0" encoding="UTF-8"?>
<svg fill="#000000" version="1.1" viewBox="0 0 6.9294 8.8426" xmlns="http://www.w3.org/2000/svg" xmlns:xlink="http://www.w3.org/1999/xlink">
<defs>
<g id="a">
<path d="m2.2812 0.45312c-0.17188-0.15625-0.34375-0.29688-0.51562-0.45312-0.09375-0.078125-0.1875-0.15625-0.29688-0.23438-0.078125-0.0625-0.15625-0.125-0.25-0.1875-0.03125-0.03125-0.078125-0.0625-0.125-0.078125-0.0625-0.015625-0.10938 0.015625-0.125 0.078125-0.03125 0.0625-0.015625 0.20312 0.015625 0.26562 0.046875 0.0625 0.10938 0.10938 0.14062 0.17188 0.09375 0.10938 0.1875 0.20312 0.26562 0.29688 0.25 0.3125 0.46875 0.64062 0.67188 0.98438 0.09375 0.15625 0.1875 0.3125 0.26562 0.46875 0.03125 0.0625 0.078125 0.14062 0.15625 0.14062 0.078125 0.015625 0.125-0.078125 0.14062-0.125 0.09375-0.17188 0.17188-0.32812 0.28125-0.48438 0.1875-0.34375 0.42188-0.67188 0.67188-0.98438 0.078125-0.09375 0.17188-0.1875 0.26562-0.29688 0.03125-0.0625 0.09375-0.10938 0.14062-0.17188 0.03125-0.0625 0.046875-0.20312 0.015625-0.26562-0.015625-0.0625-0.078125-0.09375-0.125-0.078125s-0.09375 0.046875-0.14062 0.078125c-0.078125 0.0625-0.17188 0.125-0.25 0.1875l-0.28125 0.23438c-0.1875 0.15625-0.35938 0.29688-0.51562 0.45312v-7.1562c0-0.0625 0-0.10938-0.03125-0.17188-0.03125-0.078125-0.17188-0.0625-0.25-0.046875-0.15625 0-0.125 0.20312-0.125 0.3125zm3.875 0c-0.17188-0.15625-0.34375-0.29688-0.53125-0.45312l-0.28125-0.23438c-0.078125-0.0625-0.17188-0.125-0.25-0.1875-0.046875-0.03125-0.09375-0.0625-0.14062-0.078125s-0.09375 0.015625-0.125 0.078125c-0.015625 0.0625-0.015625 0.20312 0.03125 0.26562 0.03125 0.0625 0.09375 0.10938 0.14062 0.17188 0.078125 0.10938 0.17188 0.20312 0.25 0.29688 0.25 0.3125 0.48438 0.64062 0.6875 0.98438 0.09375 0.15625 0.1875 0.3125 0.26562 0.46875 0.03125 0.0625 0.0625 0.14062 0.14062 0.14062 0.09375 0.015625 0.125-0.078125 0.15625-0.125 0.078125-0.17188 0.17188-0.32812 0.26562-0.48438 0.20312-0.34375 0.4375-0.67188 0.6875-0.98438 0.078125-0.09375 0.15625-0.1875 0.25-0.29688 0.046875-0.0625 0.10938-0.10938 0.14062-0.17188 0.046875-0.0625 0.046875-0.20312 0.015625-0.26562-0.015625-0.0625-0.0625-0.09375-0.10938-0.078125s-0.10938 0.046875-0.14062 0.078125c-0.078125 0.0625-0.17188 0.125-0.25 0.1875-0.10938 0.078125-0.1875 0.15625-0.29688 0.23438-0.17188 0.15625-0.34375 0.29688-0.51562 0.45312v-7.1562c0-0.0625 0.015625-0.10938-0.015625-0.17188-0.046875-0.078125-0.1875-0.0625-0.26562-0.046875-0.15625 0-0.10938 0.20312-0.10938 0.3125z"/>
</g>
</defs>
<g transform="translate(-149.66 -127.83)">
<use x="148.71201" y="134.765" xlink:href="#a"/>
</g>
</svg>
