<?xml version="1.0" encoding="UTF-8"?>
<svg fill="#000000" version="1.1" viewBox="0 0 3.8604 3.3648" xmlns="http://www.w3.org/2000/svg" xmlns:xlink="http://www.w3.org/1999/xlink">
<defs>
<g id="a">
<path d="m2.4531-4.7344c-0.078125 0.03125-0.10938 0.125-0.14062 0.1875-0.09375 0.15625-0.1875 0.3125-0.28125 0.48438-0.35938 0.60938-0.71875 1.2344-1.0781 1.8594-0.10938 0.17188-0.21875 0.35938-0.3125 0.53125-0.046875 0.0625-0.10938 0.15625-0.0625 0.23438s0.17188 0.046875 0.23438 0.046875h3.2812c0.078125 0 0.1875 0.03125 0.26562 0 0.09375-0.046875 0.0625-0.14062 0.03125-0.21875-0.10938-0.17188-0.21875-0.35938-0.32812-0.53125-0.39062-0.67188-0.76562-1.3438-1.1562-2.0156-0.09375-0.15625-0.1875-0.3125-0.28125-0.48438-0.046875-0.046875-0.09375-0.125-0.17188-0.09375zm-1.4375 3.0469 0.95312-1.6562 0.34375-0.57812 0.17188-0.3125h0.015625l0.17188 0.3125 0.34375 0.57812 0.95312 1.6562z"/>
</g>
</defs>
<g transform="translate(-149.27 -130.02)">
<use x="148.71201" y="134.765" xlink:href="#a"/>
</g>
</svg>
