<?xml version="1.0" encoding="UTF-8"?>
<svg fill="#000000" version="1.1" viewBox="0 0 7.2656 6.8125" xmlns="http://www.w3.org/2000/svg" xmlns:xlink="http://www.w3.org/1999/xlink">
<defs>
<g id="a">
<path d="m4.6719-3.5c0.39062 0.015625 0.57812 0.046875 0.64062 0.09375 0.015625 0.015625 0.015625 0.0625 0.03125 0.078125 0 0.09375 0.078125 0.09375 0.125 0.09375 0.15625 0 0.46875-0.17188 0.46875-0.375 0-0.25-0.42188-0.29688-0.64062-0.3125-0.015625 0-0.15625 0-0.15625-0.015625s0.15625-0.17188 0.23438-0.26562c0.9375-0.9375 2.2656-2.4375 2.2656-2.5312 0-0.03125 0-0.078125-0.078125-0.078125-0.0625 0-0.32812 0.0625-0.60938 0.28125-0.1875 0-0.4375 0-1.0156-0.10938-0.54688-0.09375-0.90625-0.17188-1.2969-0.17188-0.64062 0-1.2344 0.23438-1.7656 0.54688-0.89062 0.57812-0.96875 1.1562-0.96875 1.1562 0 0.03125 0 0.078125 0.09375 0.078125 0.1875 0 0.78125-0.28125 0.875-0.54688 0.125-0.39062 0.25-0.60938 0.9375-0.60938 0.078125 0 0.35938 0 0.96875 0.10938 0.5 0.09375 0.90625 0.17188 1.2656 0.17188 0.10938 0 0.23438 0 0.34375-0.03125-0.53125 0.60938-0.98438 1.125-1.8594 2.0156h-1c-0.51562 0-0.60938 0.29688-0.60938 0.32812 0 0.09375 0.09375 0.09375 0.26562 0.09375h0.90625c-0.078125 0.078125-0.54688 0.54688-1.8438 1.7188-0.015625 0.015625-0.73438 0.67188-1.5625 1.3594-0.125 0.10938-0.3125 0.28125-0.3125 0.35938 0 0.015625 0 0.0625 0.078125 0.0625 0.125 0 0.32812-0.09375 0.46875-0.17188 0.17188-0.10938 0.34375-0.10938 0.5-0.10938 0.45312 0 1.0938 0.078125 1.5625 0.125 0.46875 0.078125 1.1406 0.15625 1.625 0.15625 0.73438 0 1.3281-0.40625 1.6406-0.70312 0.60938-0.53125 0.78125-1.2344 0.78125-1.2969s-0.03125-0.078125-0.078125-0.078125c-0.1875 0-0.79688 0.29688-0.875 0.57812-0.0625 0.1875-0.17188 0.53125-0.46875 0.875-0.3125 0-0.65625 0-1.5781-0.10938-0.5-0.0625-1.2344-0.15625-1.7656-0.15625-0.0625 0-0.29688 0-0.48438 0.03125z"/>
</g>
</defs>
<g transform="translate(-149.09 -127.95)">
<use x="148.71201" y="134.765" xlink:href="#a"/>
</g>
</svg>
