<?xml version="1.0" encoding="UTF-8"?>
<svg fill="#000000" version="1.1" viewBox="0 0 6.2812 6.2812" xmlns="http://www.w3.org/2000/svg" xmlns:xlink="http://www.w3.org/1999/xlink">
<defs>
<g id="a">
<path d="m7.4531-5.2969c-0.0625 0-0.125 0.015625-0.17188 0.0625l-4.875 4.8906c-0.35938-0.4375-0.5625-0.98438-0.5625-1.5625 0-0.3125 0.0625-0.46875 0.0625-0.53125 0-0.10938-0.09375-0.21875-0.23438-0.21875-0.17188 0-0.28125 0.125-0.28125 0.75 0 1.6562 1.3438 2.8906 2.8906 2.8906 0.625 0 0.75-0.10938 0.75-0.28125 0-0.14062-0.10938-0.21875-0.21875-0.21875-0.0625 0-0.21875 0.046875-0.53125 0.046875-0.5625 0-1.1094-0.20312-1.5469-0.5625l4.875-4.8906c0.046875-0.03125 0.0625-0.09375 0.0625-0.15625 0-0.10938-0.078125-0.21875-0.21875-0.21875z"/>
</g>
</defs>
<g transform="translate(-150.1 -129.47)">
<use x="148.71201" y="134.765" xlink:href="#a"/>
</g>
</svg>
