<?xml version="1.0" encoding="UTF-8"?>
<svg fill="#000000" version="1.1" viewBox="0 0 7.0156 4.6875" xmlns="http://www.w3.org/2000/svg" xmlns:xlink="http://www.w3.org/1999/xlink">
<defs>
<g id="a">
<path d="m7.8281-4.2812-0.20312-0.078125c-0.15625 0.57812-0.46875 1.0781-1.125 1.0781-0.78125 0-1.4375-1.0938-2.3281-1.0938-0.875 0-1.3281 0.53125-1.5625 1.3281l0.20312 0.078125c0.21875-0.51562 0.57812-0.89062 1.1719-0.89062 0.76562 0 1.3438 1.0938 2.3125 1.0938 0.95312 0 1.3906-0.625 1.5312-1.5156zm-0.015625 2.0312-0.20312-0.09375c-0.15625 0.57812-0.46875 1.0938-1.125 1.0938-0.76562 0-1.4375-1.1094-2.3281-1.1094-0.85938 0-1.3281 0.53125-1.5625 1.3281l0.20312 0.078125c0.21875-0.51562 0.57812-0.875 1.1719-0.875 0.78125 0 1.3594 1.0781 2.3281 1.0781 0.95312 0 1.375-0.60938 1.5156-1.5zm-5.9062-2.0938c0-0.29688-0.25-0.5625-0.54688-0.5625s-0.54688 0.25-0.54688 0.5625c0 0.39062 0.32812 0.54688 0.54688 0.54688 0.20312 0 0.54688-0.17188 0.54688-0.54688zm0 3.5938c0-0.3125-0.25-0.57812-0.54688-0.57812s-0.54688 0.25-0.54688 0.57812c0 0.375 0.32812 0.53125 0.54688 0.53125 0.20312 0 0.54688-0.17188 0.54688-0.53125z"/>
</g>
</defs>
<g transform="translate(-149.52 -129.86)">
<use x="148.71201" y="134.765" xlink:href="#a"/>
</g>
</svg>
