<?xml version="1.0" encoding="UTF-8"?>
<svg fill="#000000" version="1.1" viewBox="0 0 8.8438 3.3281" xmlns="http://www.w3.org/2000/svg" xmlns:xlink="http://www.w3.org/1999/xlink">
<defs>
<g id="a">
<path d="m0.75-2.2969h5.7031v1.2656c0 0.03125 0.015625 0.078125 0.03125 0.10938 0.046875 0.046875 0.10938 0.09375 0.17188 0.09375 0.046875 0 0.078125-0.015625 0.10938-0.03125l2.5312-1.4688c0.03125 0 0.046875-0.03125 0.078125-0.0625 0.015625-0.03125 0.015625-0.078125 0.015625-0.10938 0-0.0625-0.03125-0.125-0.09375-0.15625l-2.5312-1.4688c-0.03125-0.015625-0.0625-0.03125-0.10938-0.03125-0.10938 0-0.20312 0.09375-0.20312 0.20312v1.2656h-5.7031c-0.10938 0-0.20312 0.078125-0.20312 0.1875 0 0.125 0.09375 0.20312 0.20312 0.20312zm6.1094 0.92188v-2.2344l1.9375 1.1094z"/>
</g>
</defs>
<g transform="translate(-149.26 -130.61)">
<use x="148.71201" y="134.765" xlink:href="#a"/>
</g>
</svg>
