<?xml version="1.0" encoding="UTF-8"?>
<svg fill="#000000" version="1.1" viewBox="0 0 8.1562 8.9844" xmlns="http://www.w3.org/2000/svg" xmlns:xlink="http://www.w3.org/1999/xlink">
<defs>
<g id="a">
<path d="m9.0312-4.6719c-0.0625 0-0.125 0.03125-0.15625 0.0625l-1.9531 1.9531-0.60938-1.2656 1.625-1.625c0.03125-0.03125 0.0625-0.09375 0.0625-0.15625 0-0.125-0.078125-0.23438-0.21875-0.23438-0.0625 0-0.125 0.03125-0.17188 0.078125l-1.4844 1.5-1.0781-2.3125c-0.03125-0.0625-0.078125-0.09375-0.14062-0.09375-0.10938 0-0.1875 0.10938-0.14062 0.21875l1.125 2.4062-1.9062 1.9062-1.2188-1.2188c-0.046875-0.0625-0.10938-0.078125-0.17188-0.078125-0.125 0-0.23438 0.09375-0.23438 0.23438 0 0.0625 0.03125 0.10938 0.078125 0.15625l4.0312 4.0312c0.046875 0.046875 0.09375 0.078125 0.15625 0.078125 0.125 0 0.23438-0.09375 0.23438-0.23438 0-0.0625-0.015625-0.10938-0.078125-0.17188l-1.2188-1.2031 1.3281-1.3438 1.0781 2.3125c0.046875 0.078125 0.125 0.09375 0.20312 0.078125 0.078125-0.046875 0.10938-0.14062 0.078125-0.20312l-1.125-2.4219 2.0625-2.0625c0.046875-0.046875 0.078125-0.10938 0.078125-0.17188 0-0.10938-0.09375-0.21875-0.23438-0.21875zm-7.9219 2.6406c0 0.046875 0.015625 0.10938 0.0625 0.15625l4.0312 4.0312c0.046875 0.046875 0.10938 0.0625 0.17188 0.0625 0.10938 0 0.23438-0.078125 0.23438-0.21875 0-0.0625-0.03125-0.125-0.078125-0.17188l-4.0312-4.0312c-0.046875-0.046875-0.10938-0.0625-0.17188-0.0625-0.10938 0-0.21875 0.078125-0.21875 0.23438zm5.5781-0.39062-1.4375 1.4375-0.9375-0.92188 1.7812-1.7969z"/>
</g>
</defs>
<g transform="translate(-149.82 -128)">
<use x="148.71201" y="134.765" xlink:href="#a"/>
</g>
</svg>
