<?xml version="1.0" encoding="UTF-8"?>
<svg fill="#000000" version="1.1" viewBox="0 0 7.4375 5.0469" xmlns="http://www.w3.org/2000/svg" xmlns:xlink="http://www.w3.org/1999/xlink">
<defs>
<g id="a">
<path d="m7.7031-0.96875c0-0.09375-0.15625-0.35938-0.15625-0.9375 0-0.78125 0.32812-1.5312 0.32812-1.625 0-0.125-0.09375-0.23438-0.23438-0.23438-0.29688 0-0.29688 0.5-0.54688 1.5156-0.64062-0.85938-1.6406-1.4219-2.75-1.4688l0.32812-1.8906c0.015625-0.09375-0.03125-0.17188-0.14062-0.17188-0.078125 0-0.14062 0.046875-0.14062 0.125l-0.35938 1.9219c-1.125 0.046875-2.1562 0.60938-2.8125 1.4844-0.125-0.45312-0.1875-0.92188-0.34375-1.3594-0.03125-0.09375-0.125-0.15625-0.20312-0.15625-0.14062 0-0.23438 0.10938-0.23438 0.23438s0.3125 0.79688 0.3125 1.625c0 0.57812-0.15625 0.84375-0.15625 0.9375 0 0.125 0.10938 0.23438 0.23438 0.23438 0.28125 0 0.40625-0.79688 2.3594-1.1406 0.10938-0.015625 0.1875-0.125 0.1875-0.23438 0-0.14062-0.10938-0.21875-0.23438-0.21875-0.26562 0-1.1094 0.32812-1.6406 0.45312 0.54688-0.8125 1.4531-1.3281 2.4531-1.3906l-0.32812 1.875c0 0.078125 0.046875 0.17188 0.125 0.1875 0.078125 0 0.15625-0.046875 0.17188-0.125l0.34375-1.9375c1.0312 0.03125 1.9688 0.5625 2.5312 1.3906-0.51562-0.125-1.3594-0.45312-1.625-0.45312-0.125 0-0.23438 0.078125-0.23438 0.21875 0 0.10938 0.078125 0.21875 0.20312 0.23438 1.9219 0.34375 2.0312 1.1406 2.3438 1.1406 0.125 0 0.21875-0.10938 0.21875-0.23438z"/>
</g>
</defs>
<g transform="translate(-149.15 -128.98)">
<use x="148.71201" y="134.765" xlink:href="#a"/>
</g>
</svg>
