<?xml version="1.0" encoding="UTF-8"?>
<svg fill="#000000" version="1.1" viewBox="0 0 6.6406 8.5781" xmlns="http://www.w3.org/2000/svg" xmlns:xlink="http://www.w3.org/1999/xlink">
<defs>
<g id="a">
<path d="m4.0781-2.2969h2.7656c0.17188 0 0.35938 0 0.35938-0.20312 0-0.1875-0.1875-0.1875-0.35938-0.1875h-2.7656v-2.8906c0-0.15625 0-0.34375-0.20312-0.34375s-0.20312 0.1875-0.20312 0.34375v2.8906h-2.7656c-0.17188 0-0.34375 0-0.34375 0.1875 0 0.20312 0.17188 0.20312 0.34375 0.20312h2.7656v2.8906c0 0.15625 0 0.34375 0.20312 0.34375s0.20312-0.1875 0.20312-0.34375zm0.29688-4.8438c0-0.28125-0.23438-0.5-0.5-0.5s-0.5 0.21875-0.5 0.5c0 0.29688 0.25 0.5 0.5 0.5 0.26562 0 0.5-0.20312 0.5-0.5z"/>
</g>
</defs>
<g transform="translate(-149.27 -127.12)">
<use x="148.71201" y="134.765" xlink:href="#a"/>
</g>
</svg>
