<?xml version="1.0" encoding="UTF-8"?>
<svg fill="#000000" version="1.1" viewBox="0 0 8.2344 5.5625" xmlns="http://www.w3.org/2000/svg" xmlns:xlink="http://www.w3.org/1999/xlink">
<defs>
<g id="a">
<path d="m8.6875-2.5781c-0.96875-0.40625-1.625-1.0469-2.2812-1.7969l-0.20312 0.1875c0.23438 0.32812 0.42188 0.54688 0.71875 0.85938 0.09375 0.09375 0.14062 0.20312 0.14062 0.28125 0 0.09375-0.078125 0.20312-0.25 0.20312h-0.82812c-0.15625-1.3281-1.2031-2.4531-2.6719-2.4531h-2.8594v0.65625h2.8594c1.0312 0 1.8438 0.85938 2.0156 1.7969h-4.4844v0.65625h4.4844c-0.17188 0.9375-1 1.7812-2.0312 1.7812h-2.8438v0.67188h2.8906c1.4688 0 2.5-1.125 2.6406-2.4531h0.82812c0.21875 0 0.26562 0.10938 0.26562 0.21875 0 0.078125-0.046875 0.14062-0.14062 0.25-0.28125 0.26562-0.5 0.53125-0.71875 0.85938l0.20312 0.1875c0.64062-0.75 1.2969-1.4062 2.2656-1.7969z"/>
</g>
</defs>
<g transform="translate(-149.17 -129.47)">
<use x="148.71201" y="134.765" xlink:href="#a"/>
</g>
</svg>
