<?xml version="1.0" encoding="UTF-8"?>
<svg fill="#000000" version="1.1" viewBox="0 0 6.1163 6.7408" xmlns="http://www.w3.org/2000/svg" xmlns:xlink="http://www.w3.org/1999/xlink">
<defs>
<g id="a">
<path d="m6.5312-5.0312v3.4688h-1.6719c0.15625-0.1875 0.29688-0.40625 0.45312-0.60938 0.046875-0.078125 0.14062-0.1875 0.046875-0.25-0.03125-0.015625-0.078125-0.015625-0.10938-0.015625-0.078125 0-0.17188-0.03125-0.25 0.03125-0.0625 0.046875-0.125 0.14062-0.17188 0.21875-0.10938 0.14062-0.21875 0.28125-0.32812 0.42188-0.03125 0.078125-0.09375 0.1875-0.1875 0.20312-0.078125 0.015625-0.1875 0-0.28125 0h-2.8906c-0.078125 0-0.1875-0.015625-0.26562 0.03125-0.046875 0.03125-0.046875 0.09375-0.046875 0.14062 0 0.09375-0.015625 0.21875 0.10938 0.23438 0.0625 0.015625 0.14062 0 0.20312 0h2.9219c-0.20312 0.29688-0.4375 0.59375-0.65625 0.875-0.046875 0.078125-0.09375 0.14062-0.14062 0.21875-0.03125 0.03125-0.0625 0.0625-0.10938 0.078125-0.0625 0.015625-0.125 0-0.1875 0h-1.9375c-0.046875 0-0.125 0-0.15625 0.046875-0.046875 0.03125-0.046875 0.09375-0.046875 0.14062 0 0.09375-0.015625 0.20312 0.10938 0.21875h0.23438 1.7344c-0.17188 0.20312-0.3125 0.40625-0.46875 0.60938-0.046875 0.078125-0.14062 0.1875-0.03125 0.25 0.03125 0.03125 0.0625 0.03125 0.09375 0.03125 0.078125 0 0.1875 0.015625 0.25-0.03125 0.078125-0.0625 0.125-0.15625 0.1875-0.21875 0.09375-0.14062 0.20312-0.29688 0.3125-0.4375 0.046875-0.0625 0.09375-0.1875 0.1875-0.20312s0.1875 0 0.28125 0h2.8906c0.078125 0 0.20312 0.015625 0.26562-0.015625 0.046875-0.046875 0.046875-0.10938 0.046875-0.15625 0-0.09375 0.015625-0.20312-0.10938-0.23438h-0.20312-2.9062c0.1875-0.29688 0.42188-0.57812 0.64062-0.875 0.046875-0.0625 0.10938-0.14062 0.15625-0.20312 0.03125-0.046875 0.0625-0.078125 0.10938-0.09375 0.0625-0.015625 0.14062 0 0.20312 0h1.5312 0.42188c0.046875 0 0.125 0 0.15625-0.0625 0.03125-0.09375 0-0.20312 0-0.29688v-3.625c0-0.078125 0.03125-0.21875-0.046875-0.26562-0.0625-0.03125-0.15625-0.015625-0.21875-0.015625h-5.625c-0.078125 0-0.1875 0-0.20312 0.09375-0.015625 0.078125-0.015625 0.23438 0.046875 0.28125 0.046875 0.015625 0.09375 0.015625 0.125 0.015625z"/>
</g>
</defs>
<g transform="translate(-149.53 -129.34)">
<use x="148.71201" y="134.765" xlink:href="#a"/>
</g>
</svg>
