<?xml version="1.0" encoding="UTF-8"?>
<svg fill="#000000" version="1.1" viewBox="0 0 6.0938 13.359" xmlns="http://www.w3.org/2000/svg" xmlns:xlink="http://www.w3.org/1999/xlink">
<defs>
<g id="a">
<path d="m6.7031-4.3906c0.14062-0.078125 0.21875-0.10938 0.21875-0.23438 0-0.10938-0.09375-0.17188-0.1875-0.21875l-1.5938-0.75 1.0938-3.1719c0.015625-0.0625 0.046875-0.14062 0.046875-0.20312 0-0.10938-0.078125-0.20312-0.20312-0.20312-0.14062 0-0.17188 0.10938-0.21875 0.23438l-1.0781 3.1719-3.5469-1.6719c-0.0625-0.03125-0.14062-0.0625-0.20312-0.0625-0.10938 0-0.20312 0.078125-0.20312 0.1875 0 0.125 0.0625 0.15625 0.21875 0.21875l3.5938 1.7031-0.60938 1.8125-3 1.4219c-0.17188 0.078125-0.20312 0.14062-0.20312 0.21875 0 0.10938 0.09375 0.20312 0.20312 0.20312 0.03125 0 0.0625-0.015625 0.15625-0.0625l2.6719-1.25-0.84375 2.4531h-1.8438c-0.17188 0-0.34375 0-0.34375 0.1875 0 0.20312 0.20312 0.20312 0.375 0.20312h1.6719l-0.51562 1.5312h-1.1875c-0.17188 0-0.34375 0-0.34375 0.20312s0.20312 0.20312 0.375 0.20312h1.0156l-0.70312 2.0469c-0.015625 0.0625-0.046875 0.14062-0.046875 0.20312 0 0.10938 0.078125 0.20312 0.20312 0.20312s0.17188-0.10938 0.21875-0.23438l0.75-2.2188h3.9062c0.17188 0 0.375 0 0.375-0.20312s-0.17188-0.20312-0.35938-0.20312h-3.7812l0.51562-1.5312h3.25c0.17188 0 0.375 0 0.375-0.20312 0-0.1875-0.17188-0.1875-0.35938-0.1875h-3.125l0.92188-2.7031zm-0.45312-0.23438-1.7188 0.8125 0.48438-1.4062z"/>
</g>
</defs>
<g transform="translate(-149.54 -125.59)">
<use x="148.71201" y="134.765" xlink:href="#a"/>
</g>
</svg>
