<?xml version="1.0" encoding="UTF-8"?>
<svg fill="#000000" version="1.1" viewBox="0 0 7.1562 7.1562" xmlns="http://www.w3.org/2000/svg" xmlns:xlink="http://www.w3.org/1999/xlink">
<defs>
<g id="a">
<path d="m5.2969-0.17188c0 0.125 0.10938 0.23438 0.23438 0.23438 0.078125 0 0.29688-0.046875 0.73438-0.046875 0.85938 0 1.7031 0.15625 2.4062 0.65625 0.046875 0.03125 0.09375 0.046875 0.125 0.046875 0.15625 0 0.25-0.10938 0.25-0.23438 0-0.25-0.70312-0.6875-0.70312-2.5312 0-0.45312 0.046875-0.67188 0.046875-0.75 0-0.125-0.10938-0.21875-0.23438-0.21875-0.23438 0-0.25 0.21875-0.25 0.5v0.15625c0 0.125 0 0.25 0.015625 0.35938l-2.5312-2.5312 0.73438-1.5781c0.03125-0.078125 0-0.15625-0.078125-0.1875-0.078125-0.046875-0.15625-0.015625-0.1875 0.0625l-0.70312 1.4844-1.625-1.625c-0.03125-0.03125-0.09375-0.0625-0.15625-0.0625-0.10938 0-0.21875 0.09375-0.21875 0.23438 0 0.046875 0.015625 0.10938 0.0625 0.15625l1.7344 1.7344-0.59375 1.2812-2.0781-2.0781c-0.046875-0.046875-0.10938-0.0625-0.17188-0.0625-0.10938 0-0.21875 0.09375-0.21875 0.23438 0 0.046875 0.015625 0.10938 0.0625 0.15625l2.1875 2.1875-0.73438 1.5938c-0.03125 0.078125 0 0.15625 0.078125 0.1875 0.078125 0.046875 0.17188 0 0.20312-0.0625l0.6875-1.4844 1.9531 1.9531c-0.125-0.015625-0.23438-0.015625-0.35938-0.015625h-0.1875c-0.23438 0-0.48438 0.015625-0.48438 0.25zm-0.10938-3.9062 2.75 2.7656c0.015625 0.15625 0.015625 0.3125 0.015625 0.46875 0 0.14062 0 0.3125-0.015625 0.45312-0.15625 0.015625-0.3125 0.015625-0.45312 0.015625h-0.46875l-2.4375-2.4219z"/>
</g>
</defs>
<g transform="translate(-150.6 -128.33)">
<use x="148.71201" y="134.765" xlink:href="#a"/>
</g>
</svg>
