<?xml version="1.0" encoding="UTF-8"?>
<svg fill="#000000" version="1.1" viewBox="0 0 8.8594 5.4844" xmlns="http://www.w3.org/2000/svg" xmlns:xlink="http://www.w3.org/1999/xlink">
<defs>
<g id="a">
<path d="m7.2344-3.2656c0.42188 0.35938 0.9375 0.625 1.2656 0.76562-0.35938 0.17188-0.85938 0.42188-1.2656 0.78125h-6.3281c-0.17188 0-0.35938 0-0.35938 0.1875 0 0.20312 0.1875 0.20312 0.34375 0.20312h5.8906c-0.46875 0.45312-0.98438 1.3438-0.98438 1.4688 0 0.10938 0.125 0.10938 0.1875 0.10938 0.078125 0 0.14062 0 0.1875-0.078125 0.20312-0.375 0.48438-0.90625 1.1406-1.4844 0.6875-0.60938 1.3438-0.875 1.875-1.0312 0.15625-0.0625 0.17188-0.0625 0.1875-0.09375 0.03125 0 0.03125-0.03125 0.03125-0.0625 0-0.015625 0-0.03125-0.015625-0.046875l-0.03125-0.03125c-0.015625 0-0.03125-0.015625-0.21875-0.078125-1.3438-0.39062-2.3438-1.2969-2.9062-2.375-0.10938-0.1875-0.10938-0.20312-0.25-0.20312-0.0625 0-0.1875 0-0.1875 0.10938 0 0.125 0.5 1 0.98438 1.4688h-5.8906c-0.15625 0-0.34375 0-0.34375 0.20312 0 0.1875 0.1875 0.1875 0.35938 0.1875z"/>
</g>
</defs>
<g transform="translate(-149.26 -129.53)">
<use x="148.71201" y="134.765" xlink:href="#a"/>
</g>
</svg>
