<?xml version="1.0" encoding="UTF-8"?>
<svg fill="#000000" version="1.1" viewBox="0 0 4.3125 11.75" xmlns="http://www.w3.org/2000/svg" xmlns:xlink="http://www.w3.org/1999/xlink">
<defs>
<g id="a">
<path d="m4.6406-2.7656h-3.8594c-0.125 0-0.21875 0.09375-0.21875 0.21875 0 0.14062 0.09375 0.23438 0.21875 0.23438h3.8594c0.14062 0 0.23438-0.09375 0.23438-0.23438 0-0.125-0.09375-0.21875-0.23438-0.21875zm-3.8594-0.75c0.046875 0 0.09375 0 0.10938-0.015625l3.875-2.2344c0.0625-0.046875 0.10938-0.10938 0.10938-0.20312 0-0.078125-0.046875-0.15625-0.10938-0.1875l-3.875-2.2344c-0.015625-0.015625-0.0625-0.03125-0.10938-0.03125-0.10938 0-0.21875 0.09375-0.21875 0.23438 0 0.078125 0.03125 0.15625 0.10938 0.1875l3.5156 2.0312-3.5156 2.0312c-0.078125 0.046875-0.10938 0.125-0.10938 0.20312 0 0.125 0.10938 0.21875 0.21875 0.21875zm3.8594 1.9375c-0.03125 0-0.078125 0-0.10938 0.015625l-3.8594 2.2344c-0.078125 0.046875-0.10938 0.10938-0.10938 0.20312 0 0.078125 0.03125 0.15625 0.10938 0.1875l3.8594 2.2344c0.03125 0.015625 0.078125 0.03125 0.10938 0.03125 0.125 0 0.23438-0.09375 0.23438-0.23438 0-0.078125-0.046875-0.15625-0.10938-0.1875l-3.5156-2.0312 3.5156-2.0312c0.0625-0.046875 0.10938-0.125 0.10938-0.20312 0-0.125-0.10938-0.21875-0.23438-0.21875z"/>
</g>
</defs>
<g transform="translate(-149.27 -126.34)">
<use x="148.71201" y="134.765" xlink:href="#a"/>
</g>
</svg>
