<?xml version="1.0" encoding="UTF-8"?>
<svg fill="#000000" version="1.1" viewBox="0 0 2.5938 3.625" xmlns="http://www.w3.org/2000/svg" xmlns:xlink="http://www.w3.org/1999/xlink">
<defs>
<g id="a">
<path d="m1.5312 2.6406h0.21875c0.10938-0.60938 0.15625-1.25 0.21875-1.875 0.0625-0.42188 0.14062-0.89062 0.14062-1.2969 0-0.26562-0.21875-0.45312-0.46875-0.45312-0.3125 0-0.45312 0.23438-0.45312 0.46875 0 0.17188 0.03125 0.35938 0.0625 0.5625 0.09375 0.85938 0.21875 1.7344 0.28125 2.5938zm1.6875 0h0.21875c0.078125-0.98438 0.25-1.9688 0.32812-2.9688 0.015625-0.0625 0.015625-0.125 0.015625-0.1875 0-0.23438-0.14062-0.46875-0.45312-0.46875-0.25 0-0.46875 0.1875-0.46875 0.45312 0 0.14062 0.03125 0.29688 0.046875 0.4375 0.078125 0.67188 0.14062 1.3438 0.23438 2.0312 0.015625 0.23438 0.046875 0.46875 0.078125 0.70312z"/>
</g>
</defs>
<g transform="translate(-149.9 -133.78)">
<use x="148.71201" y="134.765" xlink:href="#a"/>
</g>
</svg>
