<?xml version="1.0" encoding="UTF-8"?>
<svg fill="#000000" version="1.1" viewBox="0 0 5.8594 9.5625" xmlns="http://www.w3.org/2000/svg" xmlns:xlink="http://www.w3.org/1999/xlink">
<defs>
<g id="a">
<path d="m6.0156-0.5c-0.14062 0.70312-0.46875 1.375-1.1562 1.375-0.59375 0-1.4062-0.82812-2.2031-1.1562l0.57812-2.0312 3.0312-1.4688v-0.09375l-2.2656-1.0938 0.67188-2.3125h-0.53125l-0.60938 2.0781-2.8906-1.4219v0.65625l2.7188 1.3594-0.53125 1.8281-2.1875 1.0938v0.625l1.9688-0.95312-0.46875 1.6094h-0.03125c-0.98438 0-1.5781 1.0469-1.625 2.0469h0.32812c0.14062-0.6875 0.5-1.3438 1.1406-1.375l-0.57812 2.0156h0.53125l0.5625-1.9062c0.67188 0.3125 1.5156 1.1562 2.3125 1.1562 0.96875 0 1.5156-1.1875 1.5625-2.0312zm-1.0781-3.3281-1.4688 0.73438 0.375-1.2812z"/>
</g>
</defs>
<g transform="translate(-149.2 -127.48)">
<use x="148.71201" y="134.765" xlink:href="#a"/>
</g>
</svg>
