<?xml version="1.0" encoding="UTF-8"?>
<svg fill="#000000" version="1.1" viewBox="0 0 5.4062 6.6719" xmlns="http://www.w3.org/2000/svg" xmlns:xlink="http://www.w3.org/1999/xlink">
<defs>
<g id="a">
<path d="m1.6875-1.2188c1.0625-2.2969 2.4844-2.6562 3.1406-2.6562 0.54688 0 0.71875 0.48438 0.71875 0.96875 0 0.51562-0.25 1.4375-0.46875 1.8594-0.40625 0.73438-0.90625 0.9375-1.2031 0.9375-0.23438 0-0.64062-0.10938-0.65625-0.64062 0.23438-0.046875 0.23438-0.23438 0.23438-0.25s-0.03125-0.17188-0.20312-0.17188c-0.23438 0-0.28125 0.28125-0.28125 0.4375 0 0.45312 0.34375 0.84375 0.90625 0.84375 1.125 0 2.2812-1.3594 2.2812-2.6875 0-0.78125-0.4375-1.5156-1.3125-1.5156-0.82812 0-2.2188 0.46875-3.3281 2.6562-0.23438-0.23438-0.23438-0.54688-0.23438-0.6875 0-0.85938 0.54688-2.0781 1.1562-2.1719 0.078125-0.015625 0.14062-0.015625 0.14062-0.125 0-0.09375-0.09375-0.09375-0.125-0.09375-0.71875 0-1.625 1.3594-1.625 2.6719 0 0.57812 0.15625 0.76562 0.40625 1.0625-0.23438 0.625-0.48438 1.6719-0.48438 2.125 0 0.4375 0.17188 0.8125 0.67188 0.8125 0.65625 0 1.3125-0.85938 1.3125-1.6406 0-0.39062-0.09375-0.5-0.4375-0.9375-0.14062-0.1875-0.48438-0.60938-0.60938-0.79688zm0.45312 1.6094c0.10938 0.14062 0.125 0.25 0.125 0.40625 0 0.5625-0.4375 1.1406-0.84375 1.1406-0.42188 0-0.42188-0.39062-0.42188-0.59375 0-0.51562 0.26562-1.4219 0.40625-1.8906z"/>
</g>
</defs>
<g transform="translate(-149.46 -130.25)">
<use x="148.71201" y="134.765" xlink:href="#a"/>
</g>
</svg>
