<?xml version="1.0" encoding="UTF-8"?>
<svg fill="#000000" version="1.1" viewBox="0 0 7.4708 7.6113" xmlns="http://www.w3.org/2000/svg" xmlns:xlink="http://www.w3.org/1999/xlink">
<defs>
<g id="a">
<path d="m5.8281-5.2188c0.35938 0.28125 0.6875 0.625 0.92188 1.0156 0.20312 0.34375 0.35938 0.75 0.42188 1.1562 0.0625 0.39062 0.0625 0.79688-0.015625 1.1875-0.09375 0.40625-0.23438 0.79688-0.46875 1.1562-0.59375 0.92188-1.6094 1.5-2.7031 1.5469-0.34375 0-0.70312-0.046875-1.0469-0.14062-0.39062-0.10938-0.75-0.29688-1.0625-0.53125s-0.57812-0.53125-0.78125-0.84375c-0.57812-0.875-0.70312-1.9844-0.35938-2.9531 0.14062-0.35938 0.32812-0.6875 0.5625-0.98438 0.23438-0.28125 0.5-0.53125 0.8125-0.71875 0.32812-0.21875 0.71875-0.39062 1.1094-0.4375l-0.0625-0.40625c-0.5625 0.125-1.0938 0.34375-1.5469 0.70312-0.29688 0.21875-0.57812 0.5-0.79688 0.8125-0.75 1.0781-0.875 2.4844-0.35938 3.6719 0.17188 0.375 0.40625 0.71875 0.67188 1.0312 0.34375 0.35938 0.76562 0.65625 1.2031 0.85938 0.89062 0.40625 1.9375 0.4375 2.8594 0.09375 0.4375-0.15625 0.82812-0.40625 1.1875-0.70312 0.21875-0.20312 0.40625-0.42188 0.57812-0.67188 0.1875-0.26562 0.34375-0.57812 0.45312-0.89062 0.125-0.34375 0.20312-0.73438 0.20312-1.0938 0.03125-0.9375-0.26562-1.8438-0.875-2.5625-0.14062-0.15625-0.28125-0.29688-0.4375-0.4375-0.09375-0.078125-0.20312-0.14062-0.28125-0.21875 0.21875-0.046875 0.4375-0.14062 0.64062-0.20312 0.17188-0.0625 0.35938-0.125 0.51562-0.1875 0.078125-0.046875 0.1875-0.0625 0.25-0.10938 0.17188-0.125-0.0625-0.28125-0.1875-0.29688-0.0625 0-0.15625 0.03125-0.21875 0.03125-0.14062 0.03125-0.28125 0.0625-0.42188 0.09375-0.42188 0.0625-0.84375 0.125-1.2656 0.15625-0.1875 0.015625-0.35938 0.015625-0.54688 0.03125-0.0625 0-0.15625-0.015625-0.20312 0.0625-0.03125 0.0625 0.03125 0.14062 0.078125 0.20312 0.09375 0.14062 0.20312 0.29688 0.29688 0.4375 0.20312 0.32812 0.375 0.67188 0.51562 1.0156 0.046875 0.10938 0.09375 0.23438 0.14062 0.34375 0.015625 0.0625 0.03125 0.14062 0.0625 0.20312l0.046875 0.046875c0.078125 0.0625 0.25 0.1875 0.29688 0.03125 0.03125-0.046875 0.015625-0.125 0-0.17188 0-0.09375-0.015625-0.1875-0.03125-0.28125-0.015625-0.125-0.015625-0.25-0.046875-0.35938-0.03125-0.23438-0.078125-0.45312-0.10938-0.6875z"/>
</g>
</defs>
<g transform="translate(-148.85 -128.39)">
<use x="148.71201" y="134.765" xlink:href="#a"/>
</g>
</svg>
