<?xml version="1.0" encoding="UTF-8"?>
<svg fill="#000000" version="1.1" viewBox="0 0 3.7656 5.4844" xmlns="http://www.w3.org/2000/svg" xmlns:xlink="http://www.w3.org/1999/xlink">
<defs>
<g id="a">
<path d="m2.2969-0.20312c0.21875 0.125 0.39062 0.21875 0.39062 0.53125 0 0.25-0.17188 0.53125-0.45312 0.53125-0.0625 0-0.23438-0.015625-0.40625-0.09375-0.03125-0.015625-0.0625-0.015625-0.09375-0.015625-0.046875 0-0.10938 0.03125-0.10938 0.09375 0 0.15625 0.45312 0.23438 0.60938 0.23438 0.5625 0 1.0156-0.54688 1.0156-1.0781 0-0.5-0.23438-0.625-0.98438-1.0312l-0.65625-0.35938c-0.35938-0.21875-0.78125-0.4375-0.78125-1.0625 0-0.90625 1.0781-1.7344 2.1562-1.7344 0.21875 0 0.42188 0.03125 0.78125 0.1875 0.078125 0.046875 0.10938 0.0625 0.14062 0.0625 0.078125 0 0.17188-0.09375 0.17188-0.17188 0-0.21875-0.64062-0.29688-1.0312-0.29688-1.5156 0-2.7344 1.1406-2.7344 2.2656 0 0.84375 0.625 1.1875 1.0469 1.4219z"/>
</g>
</defs>
<g transform="translate(-149.02 -130.36)">
<use x="148.71201" y="134.765" xlink:href="#a"/>
</g>
</svg>
