<?xml version="1.0" encoding="UTF-8"?>
<svg fill="#000000" version="1.1" viewBox="0 0 5.7344 9.625" xmlns="http://www.w3.org/2000/svg" xmlns:xlink="http://www.w3.org/1999/xlink">
<defs>
<g id="a">
<path d="m5.3906-4.1094c0.14062 0 0.23438-0.125 0.23438-0.23438 0-0.078125-0.03125-0.14062-0.078125-0.1875-0.84375-0.70312-1.5938-1.5625-1.7812-2.6406-0.015625-0.10938-0.10938-0.1875-0.23438-0.1875-0.10938 0-0.20312 0.078125-0.21875 0.1875-0.1875 1.0781-0.9375 1.9375-1.7812 2.6406-0.046875 0.046875-0.078125 0.10938-0.078125 0.1875 0 0.10938 0.09375 0.23438 0.23438 0.23438 0.10938 0 0.29688-0.17188 0.73438-0.64062v3.875l-1.6406 0.59375c-0.0625 0.03125-0.10938 0.078125-0.10938 0.15625 0 0.10938 0.10938 0.17188 0.20312 0.14062l1.5469-0.57812v2.5938c0 0.125 0.09375 0.23438 0.23438 0.23438 0.10938 0 0.21875-0.10938 0.21875-0.23438v-2.75l1.3281-0.48438v3.2344c0 0.125 0.10938 0.23438 0.23438 0.23438s0.23438-0.10938 0.23438-0.23438v-3.3906l1.625-0.60938c0.0625-0.015625 0.10938-0.078125 0.10938-0.14062 0-0.10938-0.10938-0.17188-0.20312-0.14062l-1.5312 0.5625v-3.0625c0.29688 0.32812 0.57812 0.64062 0.71875 0.64062zm-2.5156 3.0781v-4.2188c0.21875-0.23438 0.42188-0.45312 0.65625-0.65625 0.25 0.20312 0.46875 0.42188 0.67188 0.65625v3.7188z"/>
</g>
</defs>
<g transform="translate(-149.38 -127.41)">
<use x="148.71201" y="134.765" xlink:href="#a"/>
</g>
</svg>
