<?xml version="1.0" encoding="UTF-8"?>
<svg fill="#000000" version="1.1" viewBox="0 0 5.7416 8.953" xmlns="http://www.w3.org/2000/svg" xmlns:xlink="http://www.w3.org/1999/xlink">
<defs>
<g id="a">
<path d="m3.0469-6.8125v0.29688c0.14062 0 0.29688 0 0.4375 0.03125 0.09375 0.015625 0.17188 0.046875 0.23438 0.10938s0.078125 0.14062 0.09375 0.23438c0.015625 0.15625 0 0.3125 0 0.48438v1.8438c-0.1875-0.21875-0.42188-0.40625-0.71875-0.51562-0.21875-0.09375-0.46875-0.09375-0.71875-0.078125-0.625 0.046875-1.2031 0.375-1.5781 0.875-0.70312 0.92188-0.59375 2.3281 0.29688 3.1094 0.125 0.125 0.29688 0.23438 0.46875 0.3125 0.34375 0.15625 0.71875 0.23438 1.0938 0.20312 0.32812-0.046875 0.64062-0.1875 0.875-0.39062 0.09375-0.078125 0.17188-0.15625 0.25-0.25v0.78125 0.40625c0.03125 0.20312 0.0625 0.40625 0.15625 0.59375 0.125 0.29688 0.32812 0.54688 0.60938 0.67188 0.39062 0.20312 0.95312 0.15625 1.2812-0.125 0.25-0.21875 0.39062-0.71875 0.046875-0.9375-0.046875-0.03125-0.09375-0.046875-0.14062-0.0625h-0.20312c-0.375 0.0625-0.48438 0.54688-0.23438 0.79688 0.078125 0.0625 0.15625 0.09375 0.25 0.10938-0.1875 0.0625-0.35938 0.14062-0.54688 0.10938-0.25-0.015625-0.375-0.26562-0.4375-0.48438-0.10938-0.45312-0.078125-0.95312-0.078125-1.4219v-6.8125zm-1.875 4.9062c-0.015625-0.17188 0-0.35938 0-0.53125 0.03125-0.5 0.14062-1.0156 0.51562-1.375 0.09375-0.078125 0.17188-0.14062 0.25-0.1875 0.51562-0.32812 1.1719-0.21875 1.5781 0.21875 0.078125 0.078125 0.15625 0.15625 0.20312 0.26562 0.03125 0.046875 0.0625 0.09375 0.0625 0.14062 0.03125 0.1875 0 0.39062 0 0.57812v1.5781c0 0.0625 0.015625 0.14062 0 0.21875-0.015625 0.0625-0.078125 0.14062-0.10938 0.20312-0.32812 0.48438-0.90625 0.79688-1.4844 0.625-0.10938-0.03125-0.1875-0.0625-0.28125-0.125-0.10938-0.078125-0.21875-0.15625-0.3125-0.26562-0.20312-0.23438-0.3125-0.51562-0.375-0.8125-0.015625-0.1875-0.03125-0.34375-0.046875-0.53125z"/>
</g>
</defs>
<g transform="translate(-149.05 -127.84)">
<use x="148.71201" y="134.765" xlink:href="#a"/>
</g>
</svg>
