<?xml version="1.0" encoding="UTF-8"?>
<svg fill="#000000" version="1.1" viewBox="0 0 6.625 7.3594" xmlns="http://www.w3.org/2000/svg" xmlns:xlink="http://www.w3.org/1999/xlink">
<defs>
<g id="a">
<path d="m5.2656-3.9219c-0.0625-0.34375-0.20312-0.8125-0.57812-1.3125l0.0625-0.20312c1.3438 0.40625 2.1875 1.6562 2.1875 2.9375 0 1.7188-1.3906 3.0781-3.0625 3.0781-1.7031 0-3.0625-1.3906-3.0625-3.0781 0-0.70312 0.28125-1.9688 1.6562-2.7188 0.10938-0.0625 0.14062-0.078125 0.14062-0.15625 0-0.015625 0-0.125-0.10938-0.125-0.1875 0-1.9375 0.95312-1.9375 3 0 1.8594 1.5 3.3281 3.3125 3.3281 1.8438 0 3.3125-1.5 3.3125-3.3281 0-1.2188-0.70312-2.5938-2.2969-3.1562 0.046875-0.015625 0.64062-0.28125 1.0938-0.79688-0.046875 0-0.21875-0.0625-0.29688-0.078125-0.57812 0.625-1.2344 0.76562-1.2656 0.76562s-0.3125-0.046875-0.46875-0.046875c-0.078125 0-0.20312 0-0.20312 0.125 0 0.10938 0.125 0.125 0.1875 0.125 0.125 0.015625 0.14062 0.015625 0.29688 0.17188 0.42188 0.40625 0.64062 0.89062 0.73438 1.3906z"/>
</g>
</defs>
<g transform="translate(-149.27 -128.23)">
<use x="148.71201" y="134.765" xlink:href="#a"/>
</g>
</svg>
