<?xml version="1.0" encoding="UTF-8"?>
<svg fill="#000000" version="1.1" viewBox="0 0 4.8125 4.7969" xmlns="http://www.w3.org/2000/svg" xmlns:xlink="http://www.w3.org/1999/xlink">
<defs>
<g id="a">
<path d="m3.875-2.7656-1.9844-1.9844c-0.125-0.125-0.14062-0.14062-0.21875-0.14062-0.10938 0-0.20312 0.078125-0.20312 0.20312 0 0.0625 0.015625 0.078125 0.125 0.1875l2 2-2 2.0156c-0.10938 0.10938-0.125 0.125-0.125 0.1875 0 0.125 0.09375 0.20312 0.20312 0.20312 0.078125 0 0.09375-0.015625 0.21875-0.14062l1.9844-1.9844 2.0625 2.0625c0.015625 0.015625 0.078125 0.0625 0.14062 0.0625 0.125 0 0.20312-0.078125 0.20312-0.20312 0-0.015625 0-0.046875-0.03125-0.10938-0.015625-0.015625-1.5938-1.5781-2.0938-2.0938l1.8281-1.8125c0.046875-0.0625 0.20312-0.1875 0.25-0.25 0-0.015625 0.046875-0.0625 0.046875-0.125 0-0.125-0.078125-0.20312-0.20312-0.20312-0.078125 0-0.10938 0.03125-0.21875 0.14062z"/>
</g>
</defs>
<g transform="translate(-150.18 -129.87)">
<use x="148.71201" y="134.765" xlink:href="#a"/>
</g>
</svg>
