<?xml version="1.0" encoding="UTF-8"?>
<svg fill="#000000" version="1.1" viewBox="0 0 6.0469 6.6562" xmlns="http://www.w3.org/2000/svg" xmlns:xlink="http://www.w3.org/1999/xlink">
<defs>
<g id="a">
<path d="m5.2031-4.6875-0.125 0.046875c-0.375 0.95312-1.1875 2.5469-1.8438 3.75l-0.078125-0.03125c0-1.4531-0.23438-3.75-1.7188-3.75-0.76562 0-1.1875 0.32812-1.6875 1.1094l0.15625 0.10938 0.23438-0.26562c0.20312-0.23438 0.59375-0.29688 0.85938-0.29688s0.51562 0.125 0.70312 0.3125c0.73438 0.71875 1.0312 3.3125 1.0312 3.7031l-0.51562 1.6406c0.15625 0.14062 0.34375 0.26562 0.54688 0.32812l0.34375-0.25c0.046875-0.51562 0.078125-1.0781 0.078125-1.5938v-0.23438l0.17188-0.42188c0.75-1.3438 1.6406-2.5781 2.4375-3.8906z"/>
</g>
</defs>
<g transform="translate(-148.46 -130.08)">
<use x="148.71201" y="134.765" xlink:href="#a"/>
</g>
</svg>
