<?xml version="1.0" encoding="UTF-8"?>
<svg fill="#000000" version="1.1" viewBox="0 0 3.7188 6.4531" xmlns="http://www.w3.org/2000/svg" xmlns:xlink="http://www.w3.org/1999/xlink">
<defs>
<g id="a">
<path d="m3.5469-3.125c0.046875-0.1875 0.046875-0.32812 0.046875-0.35938 0-0.57812-0.40625-0.92188-0.90625-0.92188-1.0312 0-1.5938 1.4531-1.5938 1.5312 0 0.10938 0.09375 0.10938 0.10938 0.10938 0.078125 0 0.09375-0.015625 0.1875-0.20312 0.32812-0.79688 0.82812-1.2188 1.2656-1.2188 0.14062 0 0.3125 0.03125 0.3125 0.45312 0 0.23438-0.03125 0.34375-0.0625 0.51562l-0.9375 3.7188c-0.1875 0.70312-0.57812 1.3281-1.1562 1.3281-0.078125 0-0.28125-0.015625-0.45312-0.09375 0.23438-0.0625 0.42188-0.28125 0.42188-0.53125 0-0.15625-0.10938-0.34375-0.375-0.34375-0.23438 0-0.53125 0.20312-0.53125 0.5625 0 0.48438 0.54688 0.625 0.9375 0.625 0.76562 0 1.5938-0.59375 1.8125-1.5156z"/>
</g>
</defs>
<g transform="translate(-148.59 -130.36)">
<use x="148.71201" y="134.765" xlink:href="#a"/>
</g>
</svg>
