<?xml version="1.0" encoding="UTF-8"?>
<svg fill="#000000" version="1.1" viewBox="0 0 4.7969 7.4375" xmlns="http://www.w3.org/2000/svg" xmlns:xlink="http://www.w3.org/1999/xlink">
<defs>
<g id="a">
<path d="m3.9844-6.4531c-0.21875 0.85938-0.45312 1.7344-0.6875 2.5938-0.75 0-1.4219-0.34375-1.9375-0.85938h-0.015625l-0.45312 0.4375c0.60938 0.60938 1.375 1 2.2344 1.0469l-0.28125 1.0156c-0.73438 0.10938-1.4062 0.46875-1.9531 1l0.46875 0.46875c0.35938-0.375 0.8125-0.67188 1.3125-0.79688l-0.64062 2.3594 0.5625 0.17188c0.23438-0.875 0.45312-1.75 0.70312-2.6094 0.73438 0 1.4062 0.34375 1.9219 0.875l0.46875-0.45312c-0.60938-0.60938-1.375-1-2.2344-1.0469l0.28125-1.0156c0.73438-0.10938 1.4062-0.46875 1.9531-1l-0.45312-0.45312c-0.375 0.35938-0.82812 0.65625-1.3281 0.78125l0.64062-2.3594z"/>
</g>
</defs>
<g transform="translate(-149.6 -128.31)">
<use x="148.71201" y="134.765" xlink:href="#a"/>
</g>
</svg>
