<?xml version="1.0" encoding="UTF-8"?>
<svg fill="#000000" version="1.1" viewBox="0 0 4.8281 4.5" xmlns="http://www.w3.org/2000/svg" xmlns:xlink="http://www.w3.org/1999/xlink">
<defs>
<g id="a">
<path d="m0.3125-0.25v0.23438l0.85938-0.03125 0.625 0.03125v-0.23438c-0.0625-0.015625-0.125-0.015625-0.1875-0.046875-0.03125-0.015625-0.078125-0.046875-0.10938-0.09375-0.26562-0.29688 0.03125-0.67188 0.10938-0.96875h1.625c0.03125 0 0.10938 0 0.14062 0.03125 0.03125 0.015625 0.046875 0.0625 0.0625 0.10938 0.03125 0.078125 0.078125 0.15625 0.09375 0.25 0.078125 0.1875 0.26562 0.45312 0.078125 0.625-0.015625 0.015625-0.046875 0.03125-0.078125 0.046875s-0.078125 0.03125-0.125 0.03125c-0.0625 0.015625-0.14062 0.015625-0.20312 0.015625v0.23438l0.79688-0.03125 0.78125 0.015625 0.35938 0.015625v-0.23438c-0.20312 0-0.45312 0.015625-0.59375-0.125-0.09375-0.10938-0.15625-0.25-0.20312-0.375-0.0625-0.1875-0.14062-0.35938-0.20312-0.54688l-0.84375-2.1094c-0.10938-0.28125-0.21875-0.5625-0.34375-0.84375-0.03125-0.125-0.078125-0.26562-0.23438-0.26562-0.14062 0-0.1875 0.14062-0.21875 0.26562-0.125 0.26562-0.23438 0.54688-0.34375 0.82812-0.3125 0.8125-0.625 1.6094-0.95312 2.4219-0.125 0.3125-0.3125 0.625-0.67188 0.71875-0.078125 0.015625-0.14062 0.03125-0.21875 0.03125zm1.4219-1.4219 0.42188-1.0625 0.34375-0.85938 0.46875 1.1875 0.29688 0.73438z"/>
</g>
</defs>
<g transform="translate(-149.02 -130.25)">
<use x="148.71201" y="134.765" xlink:href="#a"/>
</g>
</svg>
