<?xml version="1.0" encoding="UTF-8"?>
<svg fill="#000000" version="1.1" viewBox="0 0 4.2839 4.7447" xmlns="http://www.w3.org/2000/svg" xmlns:xlink="http://www.w3.org/1999/xlink">
<defs>
<g id="a">
<path d="m3.2969-2.3125c0.29688-0.09375 0.57812-0.15625 0.8125-0.375 0.078125-0.0625 0.14062-0.15625 0.20312-0.25 0.15625-0.26562 0.15625-0.59375-0.015625-0.85938-0.09375-0.14062-0.21875-0.25-0.35938-0.34375-0.28125-0.1875-0.59375-0.29688-0.92188-0.34375-0.28125-0.046875-0.5625-0.0625-0.84375-0.015625-0.32812 0.046875-0.64062 0.1875-0.89062 0.375-0.34375 0.25-0.60938 0.60938-0.76562 1-0.35938 0.82812-0.34375 1.875 0.28125 2.5781 0.125 0.14062 0.28125 0.28125 0.4375 0.39062 0.67188 0.4375 1.5312 0.46875 2.2812 0.20312 0.21875-0.09375 0.42188-0.20312 0.59375-0.35938 0.125-0.09375 0.21875-0.20312 0.29688-0.32812 0.0625-0.09375 0.09375-0.1875 0.125-0.28125 0.015625-0.078125 0.03125-0.15625 0.03125-0.21875 0-0.54688-0.51562-0.90625-0.96875-1.0781-0.09375-0.03125-0.1875-0.078125-0.29688-0.09375zm0.23438-0.98438c-0.03125 0.35938-0.26562 0.71875-0.64062 0.79688-0.17188 0.0625-0.34375 0.03125-0.51562 0.0625-0.078125 0-0.15625 0-0.15625 0.10938 0 0.0625 0.046875 0.10938 0.10938 0.10938h0.21875c0.15625 0 0.29688 0.03125 0.4375 0.078125 0.20312 0.09375 0.40625 0.23438 0.53125 0.40625 0.21875 0.34375 0.21875 0.84375-0.015625 1.1875-0.40625 0.59375-1.2812 0.5625-1.8594 0.29688-0.51562-0.25-0.92188-0.70312-1.0469-1.2656-0.0625-0.23438-0.078125-0.45312-0.0625-0.70312 0.09375-0.82812 0.57812-1.7031 1.4062-1.9844 0.51562-0.15625 1.25-0.10938 1.5156 0.42188 0.03125 0.078125 0.0625 0.14062 0.078125 0.21875 0 0.078125 0.015625 0.17188 0 0.26562z"/>
</g>
</defs>
<g transform="translate(-148.99 -130.24)">
<use x="148.71201" y="134.765" xlink:href="#a"/>
</g>
</svg>
