<?xml version="1.0" encoding="UTF-8"?>
<svg fill="#000000" version="1.1" viewBox="0 0 7.9688 8.2812" xmlns="http://www.w3.org/2000/svg" xmlns:xlink="http://www.w3.org/1999/xlink">
<defs>
<g id="a">
<path d="m3.0938-4.625v-2.0469c0-0.1875-0.14062-0.3125-0.29688-0.3125-0.1875 0-0.29688 0.14062-0.29688 0.3125v7.6719c0 0.17188 0.10938 0.29688 0.29688 0.29688 0.15625 0 0.29688-0.125 0.29688-0.29688v-2.6719c0.25-0.26562 0.65625-0.40625 1.0156-0.40625 1.2344 0 1.9844 1.375 3.2344 1.375 0.95312 0 1.625-0.75 1.625-1.6719 0-0.078125-0.015625-0.28125-0.14062-0.28125-0.10938 0-0.17188 0.5625-0.21875 0.67188-0.21875 0.45312-0.78125 0.70312-1.25 0.70312-1.2344 0-1.9844-1.375-3.2344-1.375-0.35938 0-0.75 0.125-1.0312 0.35938v-1.7031c0.25-0.28125 0.65625-0.40625 1.0156-0.40625 1.2344 0 1.9844 1.375 3.2344 1.375 0.95312 0 1.625-0.75 1.625-1.6719 0-0.078125-0.015625-0.28125-0.14062-0.28125-0.10938 0-0.17188 0.5625-0.21875 0.67188-0.21875 0.4375-0.78125 0.70312-1.25 0.70312-1.2344 0-1.9844-1.375-3.2344-1.375-0.35938 0-0.75 0.125-1.0312 0.35938zm-1.8125 5.9219c0.17188 0 0.3125-0.125 0.3125-0.29688v-7.6719c0-0.1875-0.125-0.3125-0.29688-0.3125-0.1875 0-0.29688 0.14062-0.29688 0.3125v7.6719c0 0.17188 0.10938 0.29688 0.28125 0.29688z"/>
</g>
</defs>
<g transform="translate(-149.71 -127.78)">
<use x="148.71201" y="134.765" xlink:href="#a"/>
</g>
</svg>
