<?xml version="1.0" encoding="UTF-8"?>
<svg fill="#000000" version="1.1" viewBox="0 0 4.4104 4.5842" xmlns="http://www.w3.org/2000/svg" xmlns:xlink="http://www.w3.org/1999/xlink">
<defs>
<g id="a">
<path d="m2.3438-4.4688c-0.51562 0.046875-0.98438 0.25-1.3594 0.60938-0.8125 0.78125-0.9375 2.125-0.29688 3.0312 0.125 0.15625 0.25 0.29688 0.40625 0.42188 0.21875 0.17188 0.45312 0.3125 0.71875 0.40625 0.29688 0.09375 0.59375 0.125 0.90625 0.09375 0.29688-0.03125 0.59375-0.14062 0.84375-0.26562 0.21875-0.125 0.40625-0.28125 0.5625-0.45312 0.23438-0.26562 0.40625-0.57812 0.48438-0.90625 0.25-0.90625-0.09375-1.9688-0.85938-2.5312-0.20312-0.14062-0.42188-0.25-0.65625-0.32812-0.25-0.0625-0.5-0.10938-0.75-0.078125zm-1.2344 2.1562c0-0.51562 0.046875-1.0625 0.39062-1.4688 0.10938-0.14062 0.25-0.25 0.40625-0.32812 0.42188-0.23438 0.9375-0.17188 1.3125 0.09375 0.1875 0.125 0.32812 0.29688 0.4375 0.48438 0.1875 0.375 0.20312 0.8125 0.20312 1.2188zm0 0.3125h2.75c0 0.5-0.09375 1.0625-0.4375 1.4375-0.46875 0.51562-1.2812 0.54688-1.7812 0.078125-0.10938-0.09375-0.20312-0.20312-0.28125-0.32812-0.1875-0.35938-0.25-0.78125-0.25-1.1875z"/>
</g>
</defs>
<g transform="translate(-148.99 -130.29)">
<use x="148.71201" y="134.765" xlink:href="#a"/>
</g>
</svg>
