<?xml version="1.0" encoding="UTF-8"?>
<svg fill="#000000" width="4.7969" height="9.0938" version="1.1" viewBox="0 0 4.7969 9.0937" xmlns="http://www.w3.org/2000/svg" xmlns:xlink="http://www.w3.org/1999/xlink">
<defs>
<g id="a">
<path d="m3.4844-4.5625c-0.09375-0.046875-0.1875-0.078125-0.28125-0.10938 0.10938-0.03125 0.21875-0.078125 0.32812-0.10938zm0.71875-2.7188-0.4375 1.7031c-0.78125 0.39062-1.6562 0.59375-2.5469 0.59375h-0.32812v0.64062h0.32812c0.71875 0 1.4375 0.14062 2.0938 0.40625l-0.48438 1.8438c-0.20312-0.078125-0.42188-0.125-0.64062-0.125-0.51562 0-0.90625 0.42188-1.2969 0.79688l0.39062 0.375c0.25-0.26562 0.54688-0.53125 0.92188-0.53125 0.15625 0 0.3125 0.046875 0.45312 0.10938l-0.32812 1.1719h-0.14062c-0.51562 0-0.90625 0.42188-1.2969 0.79688l0.39062 0.375c0.25-0.25 0.51562-0.51562 0.875-0.53125l-0.34375 1.3125 0.5625 0.15625 0.34375-1.3281c0.125 0.078125 0.26562 0.15625 0.375 0.25 0.35938 0.32812 0.79688 0.5625 1.2969 0.5625 0.53125 0 0.90625-0.42188 1.2969-0.79688l-0.39062-0.375c-0.25 0.26562-0.54688 0.53125-0.92188 0.53125-0.32812 0-0.625-0.1875-0.89062-0.40625-0.1875-0.15625-0.375-0.29688-0.59375-0.39062l0.26562-0.98438c0.35938 0.28125 0.76562 0.5 1.2344 0.5 0.53125 0 0.90625-0.40625 1.2969-0.79688l-0.39062-0.375c-0.25 0.26562-0.54688 0.54688-0.92188 0.54688-0.32812 0-0.625-0.20312-0.89062-0.42188-0.046875-0.046875-0.09375-0.078125-0.15625-0.125l0.51562-1.9062c0.5 0.28125 0.98438 0.625 1.375 1.0625l0.46875-0.4375c-0.5-0.51562-1.0625-0.9375-1.6875-1.25l0.21875-0.78125c0.53125-0.29688 1.0312-0.67188 1.4688-1.125l-0.46875-0.4375c-0.23438 0.23438-0.48438 0.46875-0.75 0.65625l0.29688-1.125z"/>
</g>
</defs>
<g transform="translate(-149.6 -127.48)">
<use x="148.71201" y="134.765" xlink:href="#a"/>
</g>
</svg>
