<?xml version="1.0" encoding="UTF-8"?>
<svg fill="#000000" version="1.1" viewBox="0 0 8.8438 3.3281" xmlns="http://www.w3.org/2000/svg" xmlns:xlink="http://www.w3.org/1999/xlink">
<defs>
<g id="a">
<path d="m1.8906-3.4062c-0.125-0.10938-0.1875-0.10938-0.21875-0.10938-0.0625 0-0.09375 0-0.28125 0.1875l-0.6875 0.59375c-0.10938 0.10938-0.15625 0.15625-0.15625 0.23438 0 0.125 0.09375 0.20312 0.20312 0.20312 0.0625 0 0.078125 0 0.25-0.15625 0.20312-0.17188 0.40625-0.375 0.67188-0.59375l1.375 1.2344c0.015625 0.015625 0.1875 0.17188 0.25 0.20312 0.125 0.14062 0.15625 0.14062 0.21875 0.14062 0.078125 0 0.09375 0 0.3125-0.20312l0.78125-0.70312 0.75-0.67188 0.73438 0.65625c0.10938 0.09375 0.14062 0.09375 0.34375 0.09375h2.1562c-0.09375 0.078125-0.65625 0.57812-1 1.4688h0.29688c0.17188-0.45312 0.5625-1.1719 1.5-1.6719-0.9375-0.5-1.3281-1.2031-1.5-1.6562h-0.29688c0.34375 0.89062 0.90625 1.3906 1 1.4688h-2.2344c-0.39062-0.35938-0.5-0.46875-0.73438-0.67188-0.17188-0.15625-0.1875-0.15625-0.26562-0.15625-0.0625 0-0.078125 0.015625-0.20312 0.10938-0.015625 0.015625-1.4219 1.2812-1.6406 1.4688z"/>
</g>
</defs>
<g transform="translate(-149.26 -130.61)">
<use x="148.71201" y="134.765" xlink:href="#a"/>
</g>
</svg>
