<?xml version="1.0" encoding="UTF-8"?>
<svg fill="#000000" width="5.0938" height="8.8438" version="1.1" viewBox="0 0 5.0938 8.8437" xmlns="http://www.w3.org/2000/svg" xmlns:xlink="http://www.w3.org/1999/xlink">
<defs>
<g id="a">
<path d="m5.7188 0.625-0.25-0.09375c0 0.015625-0.26562 0.73438-1 0.73438-0.79688 0-1.2656-0.96875-2.125-1.0781l0.3125-0.78125c0.46875 0.3125 0.85938 0.85938 1.625 0.85938 1.2188 0 1.4375-1.1562 1.4375-1.1562l-0.25-0.09375c0 0.015625-0.26562 0.73438-1 0.73438-0.625 0-1.0469-0.57812-1.5938-0.89062l0.6875-1.7344c1.6875 0.79688 2.1562 1.7031 2.1562 1.7031v-0.75c0-0.015625-0.5625-0.79688-1.9688-1.4219l0.5-1.2656c1.0469-0.54688 1.4688-1.1406 1.4688-1.1562v-0.75s-0.28125 0.54688-1.1562 1.1406l0.64062-1.6094h-0.53125l-0.8125 2.0312c-0.76562 0.39062-1.8125 0.75-3.2344 0.98438v0.25c1 0.15625 1.8125 0.39062 2.4688 0.64062l-0.6875 1.7656c-0.078125-0.015625-0.15625-0.015625-0.25-0.015625-1.2656 0-1.5312 1.2969-1.5312 1.2969l0.1875 0.09375c0-0.015625 0.32812-0.89062 1.1719-0.89062 0.0625 0 0.15625 0.015625 0.21875 0.03125l-0.40625 1.0156c-0.95312 0.21875-1.1719 1.2656-1.1719 1.2656l0.1875 0.09375c0-0.015625 0.21875-0.59375 0.76562-0.8125l-0.4375 1.0938h0.53125l0.46875-1.1562c0.76562 0.10938 1.125 1.0781 2.1406 1.0781 1.2188 0 1.4375-1.1562 1.4375-1.1562zm-2.125-4.9219-0.3125 0.78125c-0.34375-0.14062-0.71875-0.25-1.1406-0.32812v-0.015625c0.5625-0.125 1.0469-0.26562 1.4531-0.4375z"/>
</g>
</defs>
<g transform="translate(-149.34 -127.78)">
<use x="148.71201" y="134.765" xlink:href="#a"/>
</g>
</svg>
