<?xml version="1.0" encoding="UTF-8"?>
<svg fill="#000000" version="1.1" viewBox="0 0 6.6406 6.6406" xmlns="http://www.w3.org/2000/svg" xmlns:xlink="http://www.w3.org/1999/xlink">
<defs>
<g id="a">
<path d="m7.2031-2.5c0-1.8281-1.5-3.3125-3.3281-3.3125s-3.3125 1.5-3.3125 3.3125c0 1.8438 1.4844 3.3281 3.3125 3.3281 1.8438 0 3.3281-1.5 3.3281-3.3281zm-3.3281 3.0781c-1.6875 0-3.0625-1.375-3.0625-3.0781 0-1.6875 1.375-3.0625 3.0625-3.0625 1.7031 0 3.0781 1.375 3.0781 3.0625 0 1.7031-1.375 3.0781-3.0781 3.0781zm-1.3594-3.2031c-0.1875 0-0.29688 0-0.29688 0.125s0.10938 0.125 0.29688 0.125h2.7344c0.17188 0 0.28125 0 0.28125-0.125s-0.09375-0.125-0.28125-0.125z"/>
</g>
</defs>
<g transform="translate(-149.27 -128.95)">
<use x="148.71201" y="134.765" xlink:href="#a"/>
</g>
</svg>
