<?xml version="1.0" encoding="UTF-8"?>
<svg fill="#000000" version="1.1" viewBox="0 0 6.0625 6.0156" xmlns="http://www.w3.org/2000/svg" xmlns:xlink="http://www.w3.org/1999/xlink">
<defs>
<g id="a">
<path d="m6.4219-5.0625c0.125-0.0625 0.20312-0.10938 0.20312-0.23438 0-0.10938-0.078125-0.20312-0.1875-0.20312-0.03125 0-0.0625 0-0.1875 0.078125l-5.5 2.7031c-0.10938 0.0625-0.1875 0.10938-0.1875 0.21875 0 0.125 0.078125 0.17188 0.1875 0.23438l5.5 2.7031c0.125 0.078125 0.15625 0.078125 0.1875 0.078125 0.10938 0 0.1875-0.09375 0.1875-0.20312 0-0.125-0.0625-0.15625-0.21875-0.23438l-1.1562-0.57812c0.26562-0.625 0.40625-1.2969 0.40625-2 0-0.6875-0.14062-1.3594-0.40625-1.9844zm-5.2188 2.5625 3.6875-1.8125c0.26562 0.65625 0.375 1.25 0.375 1.8125 0 0.625-0.125 1.2188-0.375 1.8281z"/>
</g>
</defs>
<g transform="translate(-149.27 -129.26)">
<use x="148.71201" y="134.765" xlink:href="#a"/>
</g>
</svg>
