<?xml version="1.0" encoding="UTF-8"?>
<svg fill="#000000" version="1.1" viewBox="0 0 6.0328 8.2714" xmlns="http://www.w3.org/2000/svg" xmlns:xlink="http://www.w3.org/1999/xlink">
<defs>
<g id="a">
<path d="m3.8125-3.625c-0.078125-0.17188-0.21875-0.32812-0.35938-0.45312-0.60938-0.53125-1.5469-0.375-2.1719 0.0625-0.10938 0.078125-0.21875 0.17188-0.3125 0.26562-0.1875 0.20312-0.34375 0.4375-0.45312 0.70312-0.40625 0.9375-0.125 2.0938 0.6875 2.7188 0.48438 0.375 1.1719 0.5625 1.7812 0.34375 0.17188-0.0625 0.32812-0.15625 0.46875-0.28125 0.125-0.09375 0.25-0.21875 0.32812-0.35938v1.8438c0 0.10938 0 0.21875-0.078125 0.29688-0.046875 0.0625-0.14062 0.0625-0.21875 0.078125-0.17188 0.015625-0.3125 0.015625-0.46875 0.015625v0.3125l0.4375-0.015625 0.90625-0.015625 0.90625 0.03125v-0.3125c-0.15625 0-0.32812 0-0.48438-0.015625-0.10938-0.015625-0.21875-0.0625-0.26562-0.17188-0.03125-0.078125-0.03125-0.17188-0.03125-0.25v-5.5312c0-0.25-0.015625-0.5 0.046875-0.75 0.0625-0.40625 0.26562-0.89062 0.71875-1 0.046875-0.015625 0.10938-0.015625 0.15625-0.015625 0.09375 0 0.17188 0.015625 0.23438 0.03125 0.09375 0.03125 0.17188 0.078125 0.25 0.14062-0.15625 0.015625-0.28125 0.078125-0.375 0.20312-0.15625 0.25-0.046875 0.59375 0.23438 0.70312 0.26562 0.078125 0.5625-0.09375 0.60938-0.375 0.03125-0.25-0.09375-0.51562-0.28125-0.67188-0.5-0.45312-1.2969-0.25-1.75 0.1875-0.15625 0.14062-0.28125 0.32812-0.375 0.53125-0.078125 0.1875-0.10938 0.375-0.14062 0.5625v0.40625zm-2.6406 1.625c-0.015625-0.10938 0-0.25 0-0.35938 0.046875-0.60938 0.29688-1.25 0.8125-1.6094 0.10938-0.0625 0.23438-0.125 0.35938-0.17188 0.078125-0.015625 0.17188-0.03125 0.26562-0.03125 0.53125 0 0.92188 0.4375 1.1094 0.90625 0.046875 0.10938 0.078125 0.21875 0.09375 0.32812s0 0.20312 0 0.3125v1.125c0 0.09375 0.015625 0.20312 0 0.29688-0.03125 0.15625-0.14062 0.3125-0.21875 0.45312-0.10938 0.15625-0.23438 0.28125-0.39062 0.39062-0.10938 0.09375-0.25 0.15625-0.375 0.1875-0.10938 0.046875-0.23438 0.046875-0.35938 0.046875-0.3125 0-0.57812-0.1875-0.78125-0.40625-0.23438-0.29688-0.39062-0.65625-0.46875-1.0312-0.015625-0.14062-0.03125-0.28125-0.046875-0.4375z"/>
</g>
</defs>
<g transform="translate(-149.04 -128.42)">
<use x="148.71201" y="134.765" xlink:href="#a"/>
</g>
</svg>
