<?xml version="1.0" encoding="UTF-8"?>
<svg fill="#000000" version="1.1" viewBox="0 0 4.9531 5.7969" xmlns="http://www.w3.org/2000/svg" xmlns:xlink="http://www.w3.org/1999/xlink">
<defs>
<g id="a">
<path d="m5.5938-5.3906h-1.7188c-1.6562 0-3.0312 1.2656-3.0312 2.8906 0 1.6406 1.375 2.9062 3.0312 2.9062h1.7188c0.125 0 0.20312-0.09375 0.20312-0.20312s-0.078125-0.1875-0.20312-0.1875h-1.7188c-1.375 0-2.5312-1-2.6406-2.3125h2.0156v1.3125c0 0.10938 0.09375 0.20312 0.20312 0.20312s0.20312-0.09375 0.20312-0.20312v-1.3125h1.9375c0.125 0 0.20312-0.078125 0.20312-0.20312 0-0.10938-0.078125-0.1875-0.20312-0.1875h-1.9375v-1.3125c0-0.10938-0.09375-0.20312-0.20312-0.20312s-0.20312 0.09375-0.20312 0.20312v1.3125h-2.0156c0.10938-1.3125 1.2656-2.3125 2.6406-2.3125h1.7188c0.125 0 0.20312-0.078125 0.20312-0.1875s-0.078125-0.20312-0.20312-0.20312z"/>
</g>
</defs>
<g transform="translate(-149.56 -129.37)">
<use x="148.71201" y="134.765" xlink:href="#a"/>
</g>
</svg>
