<?xml version="1.0" encoding="UTF-8"?>
<svg fill="#000000" version="1.1" viewBox="0 0 4.7969 4.7812" xmlns="http://www.w3.org/2000/svg" xmlns:xlink="http://www.w3.org/1999/xlink">
<defs>
<g id="a">
<path d="m3.2188-0.67188v-0.92188h0.92188c0.14062 0 0.23438-0.09375 0.23438-0.23438 0-0.125-0.09375-0.21875-0.23438-0.21875h-0.92188v-0.9375c0-0.10938-0.09375-0.21875-0.23438-0.21875-0.10938 0-0.21875 0.10938-0.21875 0.21875v0.9375h-0.92188c-0.125 0-0.23438 0.09375-0.23438 0.21875 0 0.14062 0.10938 0.23438 0.23438 0.23438h0.92188v0.92188c0 0.125 0.10938 0.21875 0.21875 0.21875 0.14062 0 0.23438-0.09375 0.23438-0.21875zm1.7188-3.8125v4.1094c0 0.10938 0.09375 0.21875 0.21875 0.21875s0.23438-0.10938 0.23438-0.21875v-4.3438c0-0.125-0.09375-0.21875-0.23438-0.21875h-4.3281c-0.125 0-0.23438 0.09375-0.23438 0.21875v4.3438c0 0.10938 0.10938 0.21875 0.23438 0.21875s0.23438-0.10938 0.23438-0.21875v-4.1094z"/>
</g>
</defs>
<g transform="translate(-149.31 -129.83)">
<use x="148.71201" y="134.765" xlink:href="#a"/>
</g>
</svg>
