<?xml version="1.0" encoding="UTF-8"?>
<svg fill="#000000" version="1.1" viewBox="0 0 6.625 6.6094" xmlns="http://www.w3.org/2000/svg" xmlns:xlink="http://www.w3.org/1999/xlink">
<defs>
<g id="a">
<path d="m6.7969-2.5781c-0.25 0.64062-0.64062 1.1875-1.1094 1.625l-2.0938-1.75c1.125-0.375 1.5938-1.1094 1.5938-1.7812 0-0.70312-0.5-1.3125-1.3125-1.3125-1.1719 0-1.8438 0.60938-1.8438 1.3906 0 0.45312 0.21875 0.98438 0.73438 1.5-1.1094 0.3125-2.2031 0.95312-2.2031 2.125 0 0.9375 0.82812 1.5938 1.75 1.5938 1.2656 0 2.4531-0.4375 3.3906-1.2344l1.1406 0.98438c0.046875 0.03125 0.078125 0.046875 0.14062 0.046875 0.046875 0 0.10938-0.03125 0.15625-0.078125 0.03125-0.03125 0.046875-0.078125 0.046875-0.125 0-0.0625-0.03125-0.10938-0.078125-0.15625l-1.1094-0.9375c0.48438-0.48438 0.89062-1.0625 1.1719-1.7188v-0.09375c0-0.078125-0.03125-0.14062-0.10938-0.1875h-0.078125c-0.078125 0-0.15625 0.03125-0.1875 0.10938zm-5.8438 1.7969c0-0.95312 1-1.5312 2.1719-1.7969l2.2656 1.9062c-0.85938 0.6875-1.9375 1.0938-3.0781 1.0938-0.75 0-1.3594-0.53125-1.3594-1.2031zm2.9219-4.625c0.51562 0 0.92188 0.4375 0.92188 0.95312 0 0.54688-0.4375 1.1562-1.5938 1.4375-0.54688-0.48438-0.78125-0.96875-0.78125-1.375 0-0.59375 0.53125-1.0156 1.4531-1.0156z"/>
</g>
</defs>
<g transform="translate(-149.27 -128.97)">
<use x="148.71201" y="134.765" xlink:href="#a"/>
</g>
</svg>
