<?xml version="1.0" encoding="UTF-8"?>
<svg fill="#000000" version="1.1" viewBox="0 0 5.2344 4.1562" xmlns="http://www.w3.org/2000/svg" xmlns:xlink="http://www.w3.org/1999/xlink">
<defs>
<g id="a">
<path d="m5.7969-1.875c-0.23438-0.78125-0.70312-1.3125-1.5625-1.3125-0.21875 0-0.42188 0.0625-0.60938 0.15625l0.64062-1.6094h-0.53125l-0.82812 2.0938c-0.28125 0.1875-0.65625 0.45312-1.0156 0.45312-0.65625 0-0.96875-0.51562-1.1406-1.0938l-0.1875 0.10938c0.14062 0.875 0.57812 1.5 1.5312 1.5 0.15625 0 0.3125-0.046875 0.45312-0.09375l-0.46875 1.1875h0.53125l0.625-1.5625c0.3125-0.25 0.76562-0.625 1.1875-0.625 0.57812 0 0.9375 0.375 1.1719 0.89062z"/>
</g>
</defs>
<g transform="translate(-149.27 -130.12)">
<use x="148.71201" y="134.765" xlink:href="#a"/>
</g>
</svg>
