<?xml version="1.0" encoding="UTF-8"?>
<svg fill="#000000" version="1.1" viewBox="0 0 6.625 9.5469" xmlns="http://www.w3.org/2000/svg" xmlns:xlink="http://www.w3.org/1999/xlink">
<defs>
<g id="a">
<path d="m6.7344-6.875c0.10938-0.0625 0.1875-0.10938 0.1875-0.21875s-0.09375-0.20312-0.20312-0.20312c-0.046875 0-0.14062 0.046875-0.17188 0.0625l-5.5156 2.5938c-0.17188 0.078125-0.20312 0.15625-0.20312 0.23438s0.046875 0.15625 0.20312 0.21875l5.5156 2.5938c0.125 0.0625 0.14062 0.0625 0.17188 0.0625 0.10938 0 0.20312-0.078125 0.20312-0.1875 0-0.14062-0.09375-0.17188-0.20312-0.21875l-5.2188-2.4688zm0.45312 7.1406c0-0.23438-0.0625-0.32812-0.14062-0.32812-0.125 0-0.14062 0.23438-0.14062 0.29688-0.03125 0.85938-0.65625 1.4531-1.375 1.4531-0.64062 0-1.1094-0.40625-1.5469-0.8125-0.5625-0.48438-1.0781-0.9375-1.7656-0.9375-1.0469 0-1.6562 1.0625-1.6562 1.9844 0 0.23438 0.0625 0.32812 0.14062 0.32812 0.10938 0 0.14062-0.20312 0.14062-0.23438 0.046875-1.1406 0.84375-1.5312 1.375-1.5312 0.625 0 1.0938 0.42188 1.5469 0.82812 0.54688 0.48438 1.0625 0.9375 1.7656 0.9375 1.0469 0 1.6562-1.0625 1.6562-1.9844z"/>
</g>
</defs>
<g transform="translate(-149.27 -127.47)">
<use x="148.71201" y="134.765" xlink:href="#a"/>
</g>
</svg>
