<?xml version="1.0" encoding="UTF-8"?>
<svg fill="#000000" version="1.1" viewBox="0 0 6.091 7.2557" xmlns="http://www.w3.org/2000/svg" xmlns:xlink="http://www.w3.org/1999/xlink">
<defs>
<g id="a">
<path d="m5.875-6.1875c-0.10938-0.09375-0.21875-0.20312-0.32812-0.29688-0.21875-0.1875-0.5-0.35938-0.79688-0.4375-0.40625-0.14062-0.82812-0.14062-1.2344-0.078125-0.39062 0.078125-0.75 0.1875-1.1094 0.375-0.26562 0.15625-0.53125 0.34375-0.76562 0.57812-0.20312 0.1875-0.39062 0.42188-0.53125 0.65625-0.57812 0.92188-0.70312 2.0781-0.39062 3.1094 0.39062 1.25 1.4688 2.2188 2.7656 2.4375 0.21875 0.046875 0.46875 0.078125 0.71875 0.046875 0.28125-0.03125 0.54688-0.078125 0.82812-0.1875 0.6875-0.28125 1.2344-0.85938 1.4688-1.5781 0.0625-0.1875 0.10938-0.40625 0.125-0.625 0.015625-0.078125 0.03125-0.15625 0-0.23438-0.015625-0.09375-0.1875-0.10938-0.21875-0.015625-0.03125 0.0625-0.015625 0.10938-0.015625 0.15625-0.015625 0.09375-0.015625 0.20312-0.046875 0.3125-0.046875 0.28125-0.15625 0.54688-0.29688 0.79688-0.39062 0.625-1.0625 1.0312-1.7969 1.0781-0.21875 0-0.4375-0.03125-0.65625-0.078125-0.1875-0.03125-0.35938-0.10938-0.53125-0.20312-0.0625-0.03125-0.125-0.046875-0.17188-0.10938-0.046875-0.03125-0.03125-0.09375-0.03125-0.14062v-5.5938c0-0.046875 0-0.078125 0.015625-0.125 0.03125-0.03125 0.0625-0.046875 0.09375-0.0625 0.078125-0.046875 0.15625-0.078125 0.23438-0.125 0.32812-0.14062 0.6875-0.23438 1.0469-0.20312 0.20312 0.03125 0.39062 0.0625 0.5625 0.14062 0.625 0.23438 1.0781 0.8125 1.3125 1.4219 0.0625 0.1875 0.125 0.39062 0.17188 0.59375 0 0.0625 0.015625 0.125 0.015625 0.1875 0 0.046875 0 0.10938 0.03125 0.14062 0.03125 0.0625 0.17188 0.0625 0.21875 0.046875 0.09375-0.03125 0.078125-0.125 0.078125-0.1875v-2.4844c0-0.046875 0-0.10938-0.046875-0.14062-0.10938-0.078125-0.1875 0.0625-0.25 0.125-0.078125 0.125-0.17188 0.26562-0.26562 0.40625-0.0625 0.09375-0.14062 0.1875-0.20312 0.29688zm-3.3281 0.078125v5.3906c-0.125-0.09375-0.23438-0.23438-0.32812-0.35938-0.1875-0.23438-0.32812-0.5-0.42188-0.79688-0.20312-0.59375-0.23438-1.2344-0.21875-1.8594 0.03125-0.375 0.0625-0.73438 0.17188-1.1094 0.10938-0.34375 0.28125-0.67188 0.5-0.95312 0.078125-0.10938 0.1875-0.23438 0.29688-0.3125z"/>
</g>
</defs>
<g transform="translate(-149.26 -127.72)">
<use x="148.71201" y="134.765" xlink:href="#a"/>
</g>
</svg>
