<?xml version="1.0" encoding="UTF-8"?>
<svg fill="#000000" version="1.1" viewBox="0 0 4.5513 6.5718" xmlns="http://www.w3.org/2000/svg" xmlns:xlink="http://www.w3.org/1999/xlink">
<defs>
<g id="a">
<path d="m3.2969-4.0625c-0.17188-0.10938-0.34375-0.21875-0.54688-0.28125-0.59375-0.17188-1.2812-0.046875-1.7344 0.39062-0.10938 0.10938-0.1875 0.21875-0.26562 0.35938s-0.125 0.29688-0.15625 0.46875c-0.03125 0.28125 0.03125 0.57812 0.17188 0.82812 0.046875 0.09375 0.10938 0.17188 0.17188 0.25 0.03125 0.03125 0.09375 0.078125 0.09375 0.125s-0.0625 0.09375-0.078125 0.14062c-0.0625 0.09375-0.10938 0.17188-0.14062 0.28125-0.10938 0.29688-0.078125 0.64062 0.0625 0.9375 0.078125 0.14062 0.17188 0.26562 0.3125 0.32812v0.015625c-0.09375 0.015625-0.20312 0.0625-0.29688 0.10938-0.35938 0.17188-0.67188 0.5625-0.59375 0.98438 0.015625 0.26562 0.1875 0.48438 0.40625 0.65625 0.25 0.1875 0.54688 0.3125 0.84375 0.39062 0.3125 0.09375 0.60938 0.125 0.9375 0.125 0.46875 0 0.9375-0.078125 1.3906-0.26562 0.26562-0.14062 0.53125-0.3125 0.6875-0.5625 0.28125-0.46875 0.09375-1.0938-0.28125-1.4531-0.17188-0.14062-0.35938-0.21875-0.5625-0.29688-0.48438-0.15625-1-0.14062-1.5156-0.14062h-0.39062c-0.10938 0-0.21875 0-0.3125-0.03125-0.28125-0.078125-0.46875-0.40625-0.4375-0.6875 0.015625-0.15625 0.078125-0.28125 0.14062-0.40625 0.625 0.40625 1.5 0.40625 2.0938-0.0625 0.51562-0.42188 0.70312-1.1562 0.375-1.7344-0.0625-0.125-0.14062-0.25-0.25-0.32812 0.09375-0.0625 0.17188-0.14062 0.26562-0.1875 0.20312-0.14062 0.48438-0.23438 0.73438-0.1875-0.0625 0.03125-0.10938 0.0625-0.14062 0.125-0.10938 0.21875 0.078125 0.46875 0.32812 0.42188 0.03125-0.015625 0.078125-0.015625 0.10938-0.03125 0.20312-0.14062 0.10938-0.46875-0.03125-0.60938-0.046875-0.046875-0.09375-0.078125-0.14062-0.09375-0.10938-0.046875-0.23438-0.046875-0.35938-0.03125-0.23438 0.03125-0.45312 0.10938-0.65625 0.23438-0.09375 0.0625-0.1875 0.14062-0.23438 0.21875zm-1.9531 1.3125c-0.015625-0.14062 0-0.29688 0.015625-0.4375 0.015625-0.28125 0.0625-0.54688 0.28125-0.76562 0.34375-0.3125 0.875-0.29688 1.1875 0.0625 0.15625 0.17188 0.21875 0.375 0.25 0.60938 0.015625 0.1875 0.015625 0.375 0 0.5625-0.03125 0.26562-0.078125 0.5-0.25 0.70312-0.25 0.28125-0.65625 0.35938-0.98438 0.1875-0.125-0.0625-0.21875-0.14062-0.29688-0.25-0.15625-0.20312-0.17188-0.4375-0.20312-0.67188zm-0.53125 3.5938c-0.046875-0.35938 0.20312-0.71875 0.53125-0.85938 0.23438-0.09375 0.5-0.0625 0.75-0.0625 0.48438 0 0.98438-0.046875 1.4531 0.125 0.3125 0.09375 0.5625 0.3125 0.60938 0.65625 0.0625 0.4375-0.375 0.76562-0.73438 0.92188-0.60938 0.26562-1.3906 0.25-1.9844-0.046875-0.29688-0.15625-0.57812-0.40625-0.625-0.73438z"/>
</g>
</defs>
<g transform="translate(-149 -130.24)">
<use x="148.71201" y="134.765" xlink:href="#a"/>
</g>
</svg>
