<?xml version="1.0" encoding="UTF-8"?>
<svg fill="#000000" version="1.1" viewBox="0 0 8.9688 8.9844" xmlns="http://www.w3.org/2000/svg" xmlns:xlink="http://www.w3.org/1999/xlink">
<defs>
<g id="a">
<path d="m9.9688-2.5c0-2.4062-2.0781-4.4844-4.4844-4.4844-2.5 0-4.4844 2.0781-4.4844 4.4844 0 2.5156 1.9844 4.5 4.4844 4.5 2.4062 0 4.4844-2.0156 4.4844-4.5zm-0.59375 0c0 2.1562-1.7969 3.9062-3.8906 3.9062-2.1719 0-3.8906-1.7188-3.8906-3.9062 0-2.0781 1.7188-3.875 3.8906-3.875 2.0938 0 3.8906 1.7969 3.8906 3.875zm-6.3125 1.6562h4.8594c0.15625 0 0.29688-0.14062 0.29688-0.29688v-2.1719c0-0.14062-0.14062-0.29688-0.29688-0.29688s-0.3125 0.14062-0.3125 0.29688v1.8594h-4.5469c-0.17188 0-0.3125 0.14062-0.3125 0.3125 0 0.15625 0.15625 0.29688 0.3125 0.29688z"/>
</g>
</defs>
<g transform="translate(-149.71 -127.78)">
<use x="148.71201" y="134.765" xlink:href="#a"/>
</g>
</svg>
