<?xml version="1.0" encoding="UTF-8"?>
<svg fill="#000000" version="1.1" viewBox="0 0 6.0625 6.9219" xmlns="http://www.w3.org/2000/svg" xmlns:xlink="http://www.w3.org/1999/xlink">
<defs>
<g id="a">
<path d="m0.95312-6.5625c0-0.17188 0-0.35938-0.20312-0.35938-0.1875 0-0.1875 0.1875-0.1875 0.35938v6.2031c0 0.17188 0 0.35938 0.1875 0.35938 0.20312 0 0.20312-0.17188 0.20312-0.34375zm1.9375 3.2969h3.3906c0.17188 0 0.34375 0 0.34375-0.1875 0-0.20312-0.17188-0.20312-0.34375-0.20312h-3.3906v-2.9062c0-0.17188 0-0.35938-0.20312-0.35938-0.1875 0-0.1875 0.1875-0.1875 0.35938v6.2031c0 0.17188 0 0.35938 0.1875 0.35938 0.20312 0 0.20312-0.17188 0.20312-0.34375z"/>
</g>
</defs>
<g transform="translate(-149.27 -127.84)">
<use x="148.71201" y="134.765" xlink:href="#a"/>
</g>
</svg>
