<?xml version="1.0" encoding="UTF-8"?>
<svg fill="#000000" version="1.1" viewBox="0 0 6.0938 5.7812" xmlns="http://www.w3.org/2000/svg" xmlns:xlink="http://www.w3.org/1999/xlink">
<defs>
<g id="a">
<path d="m4.0312-2.4844c-0.79688 0.15625-1.5938 0.39062-2.25 0.90625-0.89062 0.70312-0.95312 1.7031-0.95312 1.75 0 0.17188 0.10938 0.23438 0.20312 0.23438 0.14062 0 0.1875-0.10938 0.1875-0.20312 0.09375-0.5 0.25-1.5312 2.0781-2.0938 1.0156-0.32812 2.2812-0.375 3.3281-0.39062 0.10938 0 0.29688 0 0.29688-0.20312s-0.14062-0.20312-0.5-0.20312c-1.3906 0-3.5781-0.1875-4.5625-1.1562-0.5-0.51562-0.57812-0.98438-0.625-1.2969-0.015625-0.046875-0.03125-0.23438-0.20312-0.23438-0.09375 0-0.20312 0.078125-0.20312 0.21875s0.09375 0.625 0.29688 0.98438c0.39062 0.6875 1.125 1.3438 2.9062 1.6875z"/>
</g>
</defs>
<g transform="translate(-149.54 -129.39)">
<use x="148.71201" y="134.765" xlink:href="#a"/>
</g>
</svg>
