<?xml version="1.0" encoding="UTF-8"?>
<svg fill="#000000" version="1.1" viewBox="0 0 6.6719 6.6719" xmlns="http://www.w3.org/2000/svg" xmlns:xlink="http://www.w3.org/1999/xlink">
<defs>
<g id="a">
<path d="m2.3594-1.2656c-0.28125-0.34375-0.45312-0.78125-0.45312-1.2344 0-0.51562 0.21875-1 0.57812-1.375 0.35938-0.35938 0.85938-0.5625 1.375-0.5625 0.45312 0 0.89062 0.15625 1.2344 0.4375zm-0.15625-2.875c-0.4375 0.4375-0.6875 1.0312-0.6875 1.6406 0 0.5625 0.20312 1.0938 0.54688 1.5156l-1.4844 1.5c-0.046875 0.03125-0.046875 0.078125-0.046875 0.125 0 0.10938 0.078125 0.20312 0.1875 0.20312 0.046875 0 0.10938-0.015625 0.15625-0.0625l1.4844-1.4844c0.40625 0.35938 0.95312 0.54688 1.5 0.54688 0.625 0 1.2188-0.23438 1.6562-0.6875 0.45312-0.4375 0.6875-1.0312 0.6875-1.6562 0-0.54688-0.1875-1.0781-0.54688-1.5l1.4844-1.5c0.03125-0.015625 0.0625-0.078125 0.0625-0.125 0-0.10938-0.10938-0.20312-0.20312-0.20312-0.046875 0-0.10938 0.015625-0.14062 0.0625l-1.4844 1.4844c-0.42188-0.35938-0.95312-0.54688-1.5156-0.54688-0.625 0-1.2188 0.23438-1.6562 0.6875zm3.0312 3.0312c-0.35938 0.35938-0.85938 0.5625-1.375 0.5625-0.45312 0-0.875-0.15625-1.2344-0.4375l2.75-2.7344c0.28125 0.34375 0.4375 0.78125 0.4375 1.2188 0 0.53125-0.20312 1.0156-0.57812 1.3906z"/>
</g>
</defs>
<g transform="translate(-149.24 -128.94)">
<use x="148.71201" y="134.765" xlink:href="#a"/>
</g>
</svg>
