<?xml version="1.0" encoding="UTF-8"?>
<svg fill="#000000" version="1.1" viewBox="0 0 4.7969 12.016" xmlns="http://www.w3.org/2000/svg" xmlns:xlink="http://www.w3.org/1999/xlink">
<defs>
<g id="a">
<path d="m2.8594-4.4531v3.4219c-0.71875-0.1875-1.3281-0.875-1.3281-1.7031 0-0.84375 0.60938-1.5312 1.3281-1.7188zm0.85938 3.4219v-3.4219c0.73438 0.1875 1.3281 0.89062 1.3281 1.7188s-0.59375 1.5156-1.3281 1.7031zm1.6406-7.6719c-0.14062-0.046875-0.3125-0.046875-0.46875-0.046875-1.1562 0.03125-2.0312 1.0469-2.0312 2.2344v1.4219c-0.48438 0.09375-0.92188 0.3125-1.2656 0.65625-0.45312 0.45312-0.70312 1.0625-0.70312 1.7031 0 0.625 0.25 1.2344 0.70312 1.6875 0.34375 0.34375 0.78125 0.5625 1.2656 0.65625v1.3906c0 0.78125-0.375 1.5625-1.0781 1.5625h-0.48438l0.09375 0.70312h0.0625c1.25 0 2.2656-1.0156 2.2656-2.2656v-1.3906c0.48438-0.09375 0.92188-0.3125 1.2656-0.65625 0.45312-0.45312 0.70312-1.0625 0.70312-1.6875 0-0.64062-0.25-1.25-0.70312-1.7031-0.34375-0.34375-0.78125-0.5625-1.2656-0.65625v-1.4219c0-0.76562 0.3125-1.5469 0.98438-1.5469 0.15625 0 0.32812 0.015625 0.48438 0.046875z"/>
</g>
</defs>
<g transform="translate(-149.6 -126.02)">
<use x="148.71201" y="134.765" xlink:href="#a"/>
</g>
</svg>
