<?xml version="1.0" encoding="UTF-8"?>
<svg fill="#000000" version="1.1" viewBox="0 0 5.5625 8.8594" xmlns="http://www.w3.org/2000/svg" xmlns:xlink="http://www.w3.org/1999/xlink">
<defs>
<g id="a">
<path d="m0.625-6.25v0.65625h2.8594c1.1406 0 2.0312 0.59375 2.0312 1.6562s-0.90625 1.6719-2.0312 1.6719h-2.8594v0.65625h2.8906c1.5938 0 2.6719-0.85938 2.6719-2.3281s-1.1094-2.3125-2.7031-2.3125zm5.5625 7.2344v-0.65625h-3.6875c-0.09375 0-0.25-0.125-0.25-0.21875s0.03125-0.15625 0.125-0.25c0.29688-0.28125 0.60938-0.64062 0.82812-0.96875l-0.20312-0.1875c-0.64062 0.75-1.4062 1.5-2.3594 1.9062v0.09375c0.95312 0.40625 1.7188 1.1562 2.375 1.9062l0.1875-0.1875c-0.21875-0.32812-0.51562-0.64062-0.8125-0.95312-0.09375-0.09375-0.14062-0.20312-0.14062-0.28125 0-0.09375 0.078125-0.20312 0.26562-0.20312z"/>
</g>
</defs>
<g transform="translate(-149.34 -128.52)">
<use x="148.71201" y="134.765" xlink:href="#a"/>
</g>
</svg>
