<?xml version="1.0" encoding="UTF-8"?>
<svg fill="#000000" version="1.1" viewBox="0 0 4.7656 4.3049" xmlns="http://www.w3.org/2000/svg" xmlns:xlink="http://www.w3.org/1999/xlink">
<defs>
<g id="a">
<path d="m0.34375-4.3125v0.25c0.17188 0 0.32812 0 0.5 0.03125 0.046875 0 0.14062 0 0.15625 0.046875 0.03125 0.03125 0.03125 0.0625 0.03125 0.09375v0.1875 2.6406c0 0.125 0 0.25-0.03125 0.39062-0.09375 0.29688-0.35938 0.42188-0.65625 0.42188v0.23438l0.98438-0.03125 0.65625 0.03125v-0.23438c-0.23438 0-0.48438-0.078125-0.59375-0.3125-0.03125-0.0625-0.0625-0.14062-0.0625-0.20312-0.03125-0.14062-0.015625-0.28125-0.015625-0.42188v-2.5938c0.09375 0.10938 0.1875 0.23438 0.26562 0.35938 0.17188 0.21875 0.34375 0.4375 0.51562 0.65625 0.48438 0.65625 0.98438 1.2969 1.4688 1.9375 0.1875 0.23438 0.35938 0.46875 0.54688 0.70312 0.0625 0.078125 0.17188 0.17188 0.28125 0.078125 0.0625-0.046875 0.03125-0.15625 0.03125-0.23438v-2.9219c0-0.125 0-0.26562 0.03125-0.39062 0.015625-0.0625 0.03125-0.125 0.0625-0.1875 0.125-0.20312 0.35938-0.28125 0.59375-0.28125v-0.25l-0.65625 0.03125-0.98438-0.03125v0.25c0.23438 0 0.45312 0.0625 0.57812 0.28125 0.03125 0.046875 0.0625 0.10938 0.0625 0.15625 0.03125 0.14062 0.03125 0.28125 0.03125 0.40625v2.125l-0.71875-0.95312-1.0156-1.3281-0.5-0.64062-0.125-0.17188-0.09375-0.09375-0.15625-0.03125z"/>
</g>
</defs>
<g transform="translate(-149.06 -130.45)">
<use x="148.71201" y="134.765" xlink:href="#a"/>
</g>
</svg>
