<?xml version="1.0" encoding="UTF-8"?>
<svg fill="#000000" version="1.1" viewBox="0 0 4.7656 4.2969" xmlns="http://www.w3.org/2000/svg" xmlns:xlink="http://www.w3.org/1999/xlink">
<defs>
<g id="a">
<path d="m0.34375-4.3125v0.25c0.14062 0 0.28125 0 0.40625 0.015625 0.09375 0.015625 0.17188 0.046875 0.23438 0.125 0.046875 0.078125 0.046875 0.20312 0.046875 0.29688v2.9219c0 0.10938 0 0.21875-0.046875 0.29688-0.046875 0.09375-0.125 0.10938-0.21875 0.14062-0.14062 0.015625-0.28125 0.015625-0.42188 0.015625v0.23438l0.8125-0.03125 0.85938 0.015625 0.39062 0.015625v-0.23438c-0.14062 0-0.26562 0-0.40625-0.015625-0.0625-0.015625-0.14062-0.03125-0.20312-0.078125-0.10938-0.125-0.078125-0.35938-0.078125-0.5v-1.2656h2.0156v1.2656c0 0.14062 0.03125 0.375-0.078125 0.5-0.0625 0.046875-0.14062 0.0625-0.20312 0.078125-0.14062 0.015625-0.26562 0.015625-0.40625 0.015625v0.23438l0.39062-0.015625 0.85938-0.015625 0.8125 0.03125v-0.23438c-0.14062 0-0.28125 0-0.42188-0.015625-0.09375-0.03125-0.17188-0.046875-0.21875-0.14062-0.046875-0.078125-0.046875-0.1875-0.046875-0.29688v-2.9219c0-0.09375 0-0.21875 0.046875-0.29688 0.0625-0.078125 0.14062-0.10938 0.21875-0.125 0.14062-0.015625 0.28125-0.015625 0.42188-0.015625v-0.25l-0.39062 0.03125h-0.85938l-0.8125-0.03125v0.25c0.14062 0 0.26562 0 0.40625 0.015625 0.0625 0.015625 0.14062 0.03125 0.20312 0.078125 0.10938 0.125 0.078125 0.3125 0.078125 0.45312v1.125h-2.0156v-1.125c0-0.14062-0.03125-0.32812 0.078125-0.45312 0.0625-0.046875 0.14062-0.0625 0.20312-0.078125 0.14062-0.015625 0.26562-0.015625 0.40625-0.015625v-0.25l-0.8125 0.03125h-0.85938z"/>
</g>
</defs>
<g transform="translate(-149.06 -130.45)">
<use x="148.71201" y="134.765" xlink:href="#a"/>
</g>
</svg>
