<?xml version="1.0" encoding="UTF-8"?>
<svg fill="#000000" version="1.1" viewBox="0 0 6.4375 6.4531" xmlns="http://www.w3.org/2000/svg" xmlns:xlink="http://www.w3.org/1999/xlink">
<defs>
<g id="a">
<path d="m8.5781-2.4375c-0.0625 0-0.125 0.03125-0.17188 0.0625l-3.5312 3.5312c-0.046875 0.046875-0.0625 0.10938-0.0625 0.17188 0 0.125 0.078125 0.23438 0.23438 0.23438 0.046875 0 0.10938-0.03125 0.15625-0.078125l3.5312-3.5312c0.03125-0.046875 0.0625-0.10938 0.0625-0.15625 0-0.125-0.078125-0.23438-0.21875-0.23438zm-1.2656-1.2656c-0.0625 0-0.125 0.03125-0.17188 0.078125l-1.5938 1.5938-2.7812-2.7812c-0.046875-0.046875-0.10938-0.078125-0.17188-0.078125-0.125 0-0.23438 0.09375-0.23438 0.23438 0 0.0625 0.03125 0.125 0.078125 0.17188l2.7812 2.7812-1.5938 1.6094c-0.0625 0.03125-0.078125 0.09375-0.078125 0.15625 0 0.10938 0.09375 0.23438 0.23438 0.23438 0.0625 0 0.10938-0.03125 0.15625-0.078125l3.5312-3.5312c0.046875-0.03125 0.0625-0.09375 0.0625-0.15625 0-0.125-0.078125-0.23438-0.21875-0.23438z"/>
</g>
</defs>
<g transform="translate(-151.07 -129.87)">
<use x="148.71201" y="134.765" xlink:href="#a"/>
</g>
</svg>
