<?xml version="1.0" encoding="UTF-8"?>
<svg fill="#000000" version="1.1" viewBox="0 0 4.3125 4.3125" xmlns="http://www.w3.org/2000/svg" xmlns:xlink="http://www.w3.org/1999/xlink">
<defs>
<g id="a">
<path d="m4.8594-2.7188-1.9219-1.9219c-0.0625-0.046875-0.10938-0.0625-0.17188-0.0625-0.046875 0-0.10938 0.015625-0.15625 0.0625l-1.9375 1.9219c-0.046875 0.0625-0.0625 0.10938-0.0625 0.17188 0 0.046875 0.015625 0.10938 0.0625 0.17188l1.9375 1.9219c0.046875 0.046875 0.10938 0.0625 0.15625 0.0625 0.0625 0 0.10938-0.015625 0.17188-0.0625l1.9219-1.9219c0.046875-0.0625 0.0625-0.125 0.0625-0.17188 0-0.0625-0.015625-0.10938-0.0625-0.17188zm-2.0938-1.4219 1.6094 1.5938-1.6094 1.5938-1.5938-1.5938z"/>
</g>
</defs>
<g transform="translate(-149.32 -130.06)">
<use x="148.71201" y="134.765" xlink:href="#a"/>
</g>
</svg>
