<?xml version="1.0" encoding="UTF-8"?>
<svg fill="#000000" version="1.1" viewBox="0 0 4.7969 6.8906" xmlns="http://www.w3.org/2000/svg" xmlns:xlink="http://www.w3.org/1999/xlink">
<defs>
<g id="a">
<path d="m5.6875-4.0156h-4.7969v0.64062h4.7969zm0 1.9062h-4.7969v0.64062h4.7969zm0-3.5156c0-0.10938-0.125-0.23438-0.21875-0.34375-0.10938-0.09375-0.23438-0.21875-0.34375-0.21875-0.125 0-0.23438 0.125-0.34375 0.21875-0.09375 0.10938-0.21875 0.23438-0.21875 0.34375 0 0.125 0.125 0.23438 0.21875 0.34375 0.10938 0.09375 0.23438 0.21875 0.34375 0.21875 0.125 0 0.23438-0.125 0.34375-0.21875 0.09375-0.10938 0.21875-0.23438 0.21875-0.34375zm-3.6719 5.7656c0-0.10938-0.125-0.23438-0.21875-0.34375-0.10938-0.09375-0.23438-0.21875-0.34375-0.21875-0.125 0-0.23438 0.125-0.34375 0.21875-0.09375 0.10938-0.21875 0.23438-0.21875 0.34375 0 0.125 0.125 0.23438 0.21875 0.34375 0.10938 0.09375 0.23438 0.21875 0.34375 0.21875 0.125 0 0.23438-0.125 0.34375-0.21875 0.09375-0.10938 0.21875-0.23438 0.21875-0.34375z"/>
</g>
</defs>
<g transform="translate(-149.6 -128.58)">
<use x="148.71201" y="134.765" xlink:href="#a"/>
</g>
</svg>
