<?xml version="1.0" encoding="UTF-8"?>
<svg fill="#000000" version="1.1" viewBox="0 0 7.5625 6.7969" xmlns="http://www.w3.org/2000/svg" xmlns:xlink="http://www.w3.org/1999/xlink">
<defs>
<g id="a">
<path d="m0.32812-6.8125v0.29688c0.23438 0 0.45312 0 0.67188 0.03125 0.10938 0.015625 0.23438 0.03125 0.29688 0.14062 0.078125 0.10938 0.0625 0.28125 0.0625 0.42188v5.0312c0 0.125 0.015625 0.28125-0.046875 0.40625-0.078125 0.10938-0.1875 0.125-0.3125 0.14062-0.21875 0.03125-0.4375 0.03125-0.67188 0.03125v0.29688h4.0469v-0.29688c-0.20312 0-0.42188 0-0.625-0.03125-0.09375 0-0.21875-0.015625-0.29688-0.078125-0.09375-0.078125-0.10938-0.20312-0.10938-0.32812v-1.3906c0-0.03125 0-0.078125 0.015625-0.10938 0.015625-0.0625 0.0625-0.10938 0.10938-0.15625l0.20312-0.25 0.5-0.57812c0.10938-0.10938 0.1875-0.23438 0.29688-0.32812 0.046875 0.10938 0.10938 0.20312 0.15625 0.29688l0.25 0.4375c0.23438 0.45312 0.48438 0.89062 0.73438 1.3281l0.26562 0.5c0.0625 0.10938 0.14062 0.23438 0.125 0.375-0.015625 0.25-0.32812 0.3125-0.53125 0.3125h-0.10938v0.29688h2.5312v-0.29688c-0.21875 0-0.4375 0-0.64062-0.10938s-0.32812-0.34375-0.4375-0.54688c-0.1875-0.35938-0.375-0.70312-0.57812-1.0625-0.29688-0.51562-0.57812-1.0469-0.85938-1.5625l-0.23438-0.42188c-0.03125-0.046875-0.09375-0.125-0.09375-0.1875 0-0.078125 0.10938-0.15625 0.14062-0.21875l0.4375-0.5 0.57812-0.67188c0.15625-0.17188 0.29688-0.35938 0.46875-0.5 0.29688-0.26562 0.67188-0.42188 1.0781-0.42188v-0.29688h-2.1094v0.29688c0.25 0 0.59375 0.14062 0.5625 0.4375 0 0.046875-0.015625 0.09375-0.03125 0.10938-0.03125 0.0625-0.078125 0.125-0.125 0.17188-0.0625 0.078125-0.14062 0.15625-0.20312 0.23438-0.21875 0.23438-0.40625 0.48438-0.625 0.73438-0.39062 0.46875-0.79688 0.92188-1.2031 1.3906-0.21875 0.25-0.42188 0.53125-0.67188 0.78125v-3.3906c0-0.10938 0-0.25 0.09375-0.34375 0.078125-0.078125 0.1875-0.09375 0.29688-0.09375 0.21875-0.03125 0.42188-0.03125 0.64062-0.03125v-0.29688zm2.7188 0.29688v6.2031h-0.79688v-6.2031z"/>
</g>
</defs>
<g transform="translate(-149.04 -127.95)">
<use x="148.71201" y="134.765" xlink:href="#a"/>
</g>
</svg>
