<?xml version="1.0" encoding="UTF-8"?>
<svg fill="#000000" version="1.1" viewBox="0 0 8.1406 3.9062" xmlns="http://www.w3.org/2000/svg" xmlns:xlink="http://www.w3.org/1999/xlink">
<defs>
<g id="a">
<path d="m8.6875-0.75c-0.23438-0.34375-0.54688-0.625-0.82812-0.96875-0.125-0.17188-0.28125-0.48438-0.28125-0.79688 0-0.4375 0.17188-0.6875 0.28125-0.79688 0.26562-0.3125 0.59375-0.64062 0.8125-0.96875l-0.20312-0.1875c-0.51562 0.59375-1.1094 1.2031-1.7969 1.625h-0.1875c-0.10938-0.015625-0.23438-0.14062-0.23438-0.23438 0-0.078125 0.046875-0.14062 0.14062-0.23438 0.28125-0.28125 0.59375-0.64062 0.8125-0.96875l-0.1875-0.1875c-0.53125 0.59375-1.1094 1.2031-1.8281 1.625h-4.6406v0.65625h4.6406c0.70312 0.42188 1.2969 1.0156 1.8281 1.625l0.20312-0.1875c-0.23438-0.34375-0.51562-0.65625-0.8125-0.96875-0.09375-0.078125-0.14062-0.1875-0.14062-0.28125 0-0.078125 0.046875-0.17188 0.20312-0.1875h0.1875c0.70312 0.42188 1.2969 1.0156 1.8281 1.625z"/>
</g>
</defs>
<g transform="translate(-149.26 -130.3)">
<use x="148.71201" y="134.765" xlink:href="#a"/>
</g>
</svg>
