<?xml version="1.0" encoding="UTF-8"?>
<svg fill="#000000" version="1.1" viewBox="0 0 3.3906 7.1094" xmlns="http://www.w3.org/2000/svg" xmlns:xlink="http://www.w3.org/1999/xlink">
<defs>
<g id="a">
<path d="m3.4844-1.0938c-0.28125 0.20312-0.625 0.34375-0.9375 0.5-0.28125-0.20312-0.57812-0.4375-0.82812-0.6875v-1.7969h1.5938l0.14062-0.34375h-0.95312l0.85938-0.90625c0.125-0.125 0.23438-0.3125 0.23438-0.48438 0-0.35938-0.32812-0.75-0.60938-1.0156-0.4375 0.29688-0.84375 0.54688-1.2656 0.85938 0.0625-0.67188 0.1875-1.0469 0.96875-1.7656l-0.17188-0.10938c-0.4375 0.25-0.875 0.60938-1.2969 0.9375 0-0.015625-0.09375-0.5625-0.17188-0.79688l-0.17188 0.03125c0.0625 0.64062 0.078125 0.98438 0.078125 3.25h-0.625l-0.09375 0.34375h0.70312v1.8125c0 0.17188-0.015625 0.39062-0.0625 0.57812l1.0625 0.95312c0.57812-0.39062 1.25-0.84375 1.6875-1.2188zm-1.7656-2.3281c0-0.75-0.0625-1.375 0.6875-1.7344 0.20312 0.17188 0.46875 0.4375 0.46875 0.70312 0 0.57812-0.60938 1.0312-1.1562 1.0312z"/>
</g>
</defs>
<g transform="translate(-148.95 -127.92)">
<use x="148.71201" y="134.765" xlink:href="#a"/>
</g>
</svg>
