<?xml version="1.0" encoding="UTF-8"?>
<svg fill="#000000" version="1.1" viewBox="0 0 4.7969 8.1406" xmlns="http://www.w3.org/2000/svg" xmlns:xlink="http://www.w3.org/1999/xlink">
<defs>
<g id="a">
<path d="m4.0938-6.8125-0.57812 2.125c-0.59375 0.40625-1.25 0.67188-1.9844 0.67188h-0.64062v0.64062h0.64062c0.625 0 1.2031-0.17188 1.75-0.45312l-0.40625 1.4688c-0.53125 0.17188-1.0938 0.25-1.6562 0.25h-0.32812v0.64062h0.32812c0.46875 0 0.9375 0.0625 1.3906 0.17188l-0.67188 2.4688 0.5625 0.15625 0.65625-2.4531c0.76562 0.28125 1.4844 0.75 2.0625 1.3594l0.46875-0.4375c-0.65625-0.70312-1.4844-1.2188-2.375-1.5469l0.03125-0.078125c0.89062-0.32812 1.6875-0.84375 2.3438-1.5469l-0.46875-0.42188c-0.48438 0.5-1.0469 0.92188-1.6719 1.1875l0.45312-1.6562c0.40625-0.29688 0.79688-0.625 1.1562-1l-0.46875-0.4375c-0.125 0.14062-0.26562 0.28125-0.40625 0.40625l0.35938-1.3594z"/>
</g>
</defs>
<g transform="translate(-149.6 -127.95)">
<use x="148.71201" y="134.765" xlink:href="#a"/>
</g>
</svg>
