<?xml version="1.0" encoding="UTF-8"?>
<svg fill="#000000" version="1.1" viewBox="0 0 6.1037 8.8506" xmlns="http://www.w3.org/2000/svg" xmlns:xlink="http://www.w3.org/1999/xlink">
<defs>
<g id="a">
<path d="m4.4531-4.0938c-0.29688-0.1875-0.5625-0.40625-0.84375-0.59375-0.20312-0.14062-0.42188-0.25-0.67188-0.3125-0.3125-0.078125-0.65625-0.078125-0.96875 0-0.5 0.14062-0.82812 0.53125-1.0156 1-0.046875 0.10938-0.078125 0.21875-0.10938 0.32812-0.015625 0.046875-0.03125 0.10938 0.03125 0.14062 0.046875 0.0625 0.14062 0.0625 0.1875 0 0.03125-0.046875 0.03125-0.09375 0.046875-0.14062 0-0.0625 0.03125-0.125 0.0625-0.20312 0.078125-0.21875 0.21875-0.40625 0.42188-0.54688 0.078125-0.046875 0.15625-0.078125 0.25-0.10938 0.17188-0.046875 0.375-0.0625 0.53125-0.03125 0.20312 0.046875 0.35938 0.14062 0.53125 0.21875 0.21875 0.14062 0.45312 0.3125 0.65625 0.46875 0.14062 0.10938 0.28125 0.21875 0.42188 0.3125 0.03125 0.03125 0.125 0.0625 0.125 0.125 0 0.03125-0.03125 0.09375-0.046875 0.125l-0.10938 0.21875c-0.14062 0.28125-0.28125 0.54688-0.42188 0.82812l-0.10938 0.23438c-0.015625 0.046875-0.046875 0.09375-0.078125 0.10938-0.046875 0.015625-0.10938 0.015625-0.14062 0.015625h-2.2031c-0.046875 0-0.078125 0-0.125 0.015625-0.0625 0.046875-0.0625 0.20312-0.03125 0.28125 0.015625 0.078125 0.078125 0.09375 0.14062 0.09375h0.40625 1.7656c-0.125 0.29688-0.28125 0.59375-0.42188 0.875-0.046875 0.078125-0.078125 0.125-0.10938 0.20312-0.015625 0.03125-0.03125 0.078125-0.078125 0.09375-0.03125 0.015625-0.09375 0-0.14062 0h-1.4062c-0.046875 0-0.10938 0-0.125 0.046875-0.046875 0.03125-0.046875 0.078125-0.046875 0.125 0 0.09375-0.015625 0.21875 0.09375 0.23438h0.17188 1.2812c-0.078125 0.14062-0.125 0.28125-0.21875 0.4375l-0.46875 0.9375c-0.046875 0.09375-0.10938 0.20312-0.14062 0.3125-0.015625 0.046875-0.015625 0.10938 0.03125 0.15625 0.03125 0.03125 0.09375 0.015625 0.14062 0.015625s0.10938 0.015625 0.17188-0.015625c0.03125-0.015625 0.0625-0.078125 0.078125-0.10938 0.03125-0.078125 0.078125-0.14062 0.10938-0.21875 0.17188-0.375 0.375-0.76562 0.5625-1.1406 0.046875-0.09375 0.09375-0.17188 0.125-0.26562 0.03125-0.046875 0.046875-0.09375 0.09375-0.10938 0.09375-0.015625 0.21875 0 0.3125 0h3.4531c0.078125 0 0.21875 0.03125 0.26562-0.046875 0.03125-0.03125 0.03125-0.078125 0.03125-0.10938 0-0.078125 0.03125-0.20312-0.078125-0.23438-0.0625-0.03125-0.17188-0.015625-0.23438-0.015625h-3.5781c0.125-0.28125 0.28125-0.54688 0.42188-0.84375 0.03125-0.0625 0.0625-0.14062 0.10938-0.21875 0.015625-0.046875 0.03125-0.078125 0.0625-0.09375 0.0625-0.03125 0.15625-0.015625 0.21875-0.015625h2.8281c0.0625 0 0.17188 0.015625 0.21875-0.046875 0.03125-0.015625 0.03125-0.0625 0.03125-0.10938 0-0.078125 0.03125-0.1875-0.0625-0.23438-0.046875-0.015625-0.125 0-0.1875 0h-2.8594l0.39062-0.79688 0.26562-0.5625c0.25 0.125 0.53125 0.17188 0.79688 0.17188 0.5 0 0.96875-0.17188 1.2812-0.57812 0.15625-0.20312 0.26562-0.4375 0.32812-0.67188 0.03125-0.078125 0.078125-0.20312 0.015625-0.26562-0.078125-0.09375-0.1875-0.046875-0.21875 0.046875-0.0625 0.20312-0.10938 0.375-0.21875 0.54688-0.25 0.35938-0.71875 0.53125-1.1406 0.42188-0.14062-0.046875-0.26562-0.10938-0.39062-0.17188-0.03125-0.015625-0.10938-0.046875-0.125-0.10938 0-0.015625 0.015625-0.046875 0.015625-0.0625 0.015625-0.046875 0.046875-0.09375 0.0625-0.125 0.09375-0.17188 0.17188-0.35938 0.26562-0.51562 0.26562-0.53125 0.51562-1.0625 0.78125-1.5938l0.21875-0.4375c0.03125-0.0625 0.09375-0.14062 0.078125-0.20312 0-0.14062-0.14062-0.10938-0.23438-0.10938-0.03125 0-0.078125 0-0.125 0.015625-0.078125 0.046875-0.125 0.1875-0.15625 0.26562-0.26562 0.5625-0.5625 1.1406-0.84375 1.7031l-0.26562 0.54688c-0.046875 0.09375-0.10938 0.1875-0.14062 0.29688z"/>
</g>
</defs>
<g transform="translate(-149.54 -127.84)">
<use x="148.71201" y="134.765" xlink:href="#a"/>
</g>
</svg>
