<?xml version="1.0" encoding="UTF-8"?>
<svg fill="#000000" version="1.1" viewBox="0 0 13.291 3.7344" xmlns="http://www.w3.org/2000/svg" xmlns:xlink="http://www.w3.org/1999/xlink">
<defs>
<g id="a">
<path d="m3.8125-2.2969c0.17188 0 0.34375 0 0.34375-0.20312 0-0.1875-0.17188-0.1875-0.34375-0.1875h-2.6406c-0.17188 0-0.34375 0-0.34375 0.1875 0 0.20312 0.17188 0.20312 0.34375 0.20312z"/>
</g>
<g id="b">
<path d="m2.8125-2.25c-0.51562 0.5-0.875 1.2656-0.875 1.4219 0 0.20312 0.21875 0.20312 0.35938 0.20312 0.17188 0 0.28125 0 0.34375-0.14062 0.125-0.29688 0.4375-1.0156 1.3281-1.5 0.125-0.078125 0.1875-0.10938 0.1875-0.23438 0-0.078125-0.046875-0.14062-0.125-0.1875-0.29688-0.15625-0.95312-0.51562-1.375-1.4844-0.078125-0.17188-0.125-0.1875-0.35938-0.1875-0.14062 0-0.35938 0-0.35938 0.20312 0 0.14062 0.35938 0.92188 0.875 1.4219h-1.8281c-0.17188 0-0.40625 0-0.40625 0.23438 0 0.25 0.23438 0.25 0.40625 0.25z"/>
</g>
</defs>
<g transform="translate(-149.54 -130.41)">
<use x="148.71201" y="134.765" xlink:href="#a"/>
<use x="153.6933" y="134.765" xlink:href="#a"/>
<use x="158.67461" y="134.765" xlink:href="#b"/>
</g>
</svg>
