<?xml version="1.0" encoding="UTF-8"?>
<svg fill="#000000" version="1.1" viewBox="0 0 4.7969 4.7812" xmlns="http://www.w3.org/2000/svg" xmlns:xlink="http://www.w3.org/1999/xlink">
<defs>
<g id="a">
<path d="m3.2188-2.1094v-0.9375h0.92188c0.14062 0 0.23438-0.09375 0.23438-0.21875 0-0.14062-0.09375-0.23438-0.23438-0.23438h-0.92188v-0.92188c0-0.125-0.09375-0.21875-0.23438-0.21875-0.10938 0-0.21875 0.09375-0.21875 0.21875v0.92188h-0.92188c-0.125 0-0.23438 0.09375-0.23438 0.23438 0 0.125 0.10938 0.21875 0.23438 0.21875h0.92188v0.9375c0 0.10938 0.10938 0.21875 0.21875 0.21875 0.14062 0 0.23438-0.10938 0.23438-0.21875zm-2.1562 0.28125v-2.8906c0-0.10938-0.10938-0.21875-0.23438-0.21875s-0.23438 0.10938-0.23438 0.21875v2.8906c0 1.0312 1.0781 1.6719 2.3906 1.6719 1.125 0 2.4062-0.5 2.4062-1.6719v-2.8906c0-0.10938-0.10938-0.21875-0.23438-0.21875s-0.21875 0.10938-0.21875 0.21875v2.8906c0 0.78125-0.9375 1.2188-1.9531 1.2188-1.0469 0-1.9219-0.45312-1.9219-1.2188z"/>
</g>
</defs>
<g transform="translate(-149.31 -129.83)">
<use x="148.71201" y="134.765" xlink:href="#a"/>
</g>
</svg>
