<?xml version="1.0" encoding="UTF-8"?>
<svg fill="#000000" width="3.2188" height="8.0938" version="1.1" viewBox="0 0 3.2188 8.0937" xmlns="http://www.w3.org/2000/svg" xmlns:xlink="http://www.w3.org/1999/xlink">
<defs>
<g id="a">
<path d="m2.5469-6.5938c-0.09375 0-0.17188 0.046875-0.21875 0.14062-0.34375 0.73438-1.0625 1.2188-1.8125 1.5781-0.09375 0.046875-0.14062 0.125-0.14062 0.20312 0 0.14062 0.125 0.23438 0.23438 0.23438 0.23438 0 1.0312-0.64062 1.5781-0.92188-0.015625 0.29688-0.046875 0.57812-0.14062 0.8125-0.20312 0.48438-0.67188 0.875-0.73438 1.5v0.14062c0 1.2031 1.4219 1.6562 1.4219 2.6406 0 0.78125-0.98438 1.25-0.98438 1.5469 0 0.10938 0.078125 0.21875 0.21875 0.21875 0.0625 0 0.125-0.03125 0.17188-0.0625 0.48438-0.5 1-0.90625 1.0625-1.5781v-0.125c0-1.2031-1.4375-1.6719-1.4375-2.6406 0-0.65625 0.67188-0.98438 0.84375-1.9219 0.54688 1.0312 0.57812 1.125 0.76562 1.125 0.0625 0 0.21875-0.0625 0.21875-0.21875 0-0.0625-0.015625-0.10938-0.03125-0.14062-0.4375-0.625-0.79688-1.3281-0.79688-2.0781v-0.20312c0-0.20312-0.14062-0.25-0.21875-0.25z"/>
</g>
</defs>
<g transform="translate(-149.09 -128.17)">
<use x="148.71201" y="134.765" xlink:href="#a"/>
</g>
</svg>
