<?xml version="1.0" encoding="UTF-8"?>
<svg fill="#000000" version="1.1" viewBox="0 0 2.7569 5.0188" xmlns="http://www.w3.org/2000/svg" xmlns:xlink="http://www.w3.org/1999/xlink">
<defs>
<g id="a">
<path d="m2.0156-3.7031h-0.015625c-0.0625-0.10938-0.14062-0.17188-0.21875-0.25-0.25-0.25-0.59375-0.4375-0.9375-0.53125v0.25c0 0.046875-0.015625 0.09375 0 0.125 0.03125 0.03125 0.046875 0.046875 0.078125 0.046875 0.0625 0.03125 0.10938 0.046875 0.15625 0.0625 0.17188 0.078125 0.3125 0.15625 0.45312 0.28125 0.28125 0.23438 0.5 0.53125 0.60938 0.89062 0.03125 0.10938 0.0625 0.23438 0.0625 0.35938h0.015625c0-0.125 0.03125-0.25 0.078125-0.35938 0.10938-0.35938 0.3125-0.65625 0.59375-0.89062 0.14062-0.125 0.29688-0.20312 0.45312-0.28125 0.0625-0.015625 0.10938-0.03125 0.15625-0.0625 0.03125 0 0.0625-0.015625 0.078125-0.046875s0.015625-0.078125 0.015625-0.125v-0.25c-0.35938 0.09375-0.6875 0.28125-0.95312 0.53125-0.078125 0.078125-0.15625 0.14062-0.21875 0.25-0.015625-0.10938-0.015625-0.21875-0.015625-0.32812v-3.1406c0-0.10938 0.015625-0.21875-0.078125-0.28125-0.10938-0.078125-0.26562-0.015625-0.29688 0.10938-0.03125 0.0625-0.015625 0.15625-0.015625 0.23438z"/>
</g>
</defs>
<g transform="translate(-149.55 -127.28)">
<use x="148.71201" y="134.765" xlink:href="#a"/>
</g>
</svg>
