<?xml version="1.0" encoding="UTF-8"?>
<svg fill="#000000" version="1.1" viewBox="0 0 6.3633 6.7438" xmlns="http://www.w3.org/2000/svg" xmlns:xlink="http://www.w3.org/1999/xlink">
<defs>
<g id="a">
<path d="m4.8594-1.5625c0.15625-0.1875 0.29688-0.40625 0.45312-0.60938 0.046875-0.078125 0.14062-0.1875 0.046875-0.25-0.03125-0.015625-0.078125-0.015625-0.10938-0.015625-0.078125 0-0.17188-0.03125-0.25 0.03125-0.0625 0.046875-0.125 0.14062-0.17188 0.21875-0.10938 0.14062-0.21875 0.28125-0.32812 0.42188-0.03125 0.078125-0.09375 0.1875-0.1875 0.20312-0.078125 0.015625-0.1875 0-0.28125 0h-2.8906c-0.078125 0-0.1875-0.015625-0.26562 0.03125-0.046875 0.03125-0.046875 0.09375-0.046875 0.14062 0 0.09375-0.015625 0.21875 0.10938 0.23438 0.0625 0.015625 0.14062 0 0.20312 0h2.9219c-0.20312 0.29688-0.4375 0.59375-0.65625 0.875-0.046875 0.078125-0.09375 0.14062-0.14062 0.21875-0.03125 0.03125-0.0625 0.0625-0.10938 0.078125-0.0625 0.015625-0.125 0-0.1875 0h-1.9375c-0.046875 0-0.125 0-0.15625 0.046875-0.046875 0.03125-0.046875 0.09375-0.046875 0.14062 0 0.09375-0.015625 0.20312 0.10938 0.21875h0.23438 1.7344c-0.17188 0.20312-0.3125 0.40625-0.46875 0.60938-0.046875 0.078125-0.14062 0.1875-0.03125 0.25 0.03125 0.03125 0.0625 0.03125 0.09375 0.03125 0.078125 0 0.1875 0.015625 0.25-0.03125 0.078125-0.0625 0.125-0.15625 0.1875-0.21875 0.09375-0.14062 0.20312-0.29688 0.3125-0.4375 0.046875-0.0625 0.09375-0.1875 0.1875-0.20312s0.1875 0 0.28125 0h2.8906c0.078125 0 0.20312 0.015625 0.26562-0.015625 0.046875-0.046875 0.046875-0.10938 0.046875-0.15625 0-0.09375 0.015625-0.20312-0.10938-0.23438h-0.20312-2.9062c0.1875-0.28125 0.40625-0.54688 0.60938-0.82812l0.15625-0.21875c0.03125-0.046875 0.0625-0.09375 0.10938-0.10938 0.0625-0.03125 0.14062-0.015625 0.20312-0.015625 0.15625 0 0.29688 0 0.45312-0.015625 0.42188-0.046875 0.84375-0.21875 1.1875-0.5 0.17188-0.14062 0.32812-0.3125 0.45312-0.51562 0.5-0.78125 0.39062-1.8281-0.21875-2.5156-0.20312-0.21875-0.45312-0.39062-0.70312-0.51562-0.26562-0.10938-0.5625-0.1875-0.84375-0.20312-0.21875-0.015625-0.45312 0-0.6875 0h-3.3125c-0.0625 0-0.125-0.015625-0.1875 0.015625-0.10938 0.015625-0.09375 0.125-0.09375 0.20312 0 0.046875 0 0.078125 0.015625 0.125 0.03125 0.046875 0.078125 0.046875 0.14062 0.046875h0.26562 2.9844c0.34375 0 0.71875-0.015625 1.0625 0.03125 0.39062 0.0625 0.73438 0.25 1 0.53125 0.10938 0.10938 0.21875 0.23438 0.29688 0.375 0.26562 0.46875 0.28125 1.0781 0.015625 1.5625-0.125 0.26562-0.34375 0.5-0.59375 0.67188-0.35938 0.21875-0.73438 0.29688-1.1562 0.29688z"/>
</g>
</defs>
<g transform="translate(-149.54 -129.34)">
<use x="148.71201" y="134.765" xlink:href="#a"/>
</g>
</svg>
