<?xml version="1.0" encoding="UTF-8"?>
<svg fill="#000000" version="1.1" viewBox="0 0 6 5.4531" xmlns="http://www.w3.org/2000/svg" xmlns:xlink="http://www.w3.org/1999/xlink">
<defs>
<g id="a">
<path d="m1.0625-0.046875v-5c0-0.125-0.10938-0.23438-0.23438-0.23438s-0.23438 0.10938-0.23438 0.23438v5c0 0.125 0.10938 0.21875 0.23438 0.21875s0.23438-0.09375 0.23438-0.21875zm1.7812 0v-2.2656h3.5312c0.10938 0 0.21875-0.10938 0.21875-0.23438s-0.10938-0.21875-0.21875-0.21875h-3.5312v-2.2812c0-0.125-0.10938-0.23438-0.23438-0.23438s-0.23438 0.10938-0.23438 0.23438v5c0 0.125 0.10938 0.21875 0.23438 0.21875s0.23438-0.09375 0.23438-0.21875z"/>
</g>
</defs>
<g transform="translate(-149.31 -129.48)">
<use x="148.71201" y="134.765" xlink:href="#a"/>
</g>
</svg>
