<?xml version="1.0" encoding="UTF-8"?>
<svg fill="#000000" version="1.1" viewBox="0 0 6.9062 3.9375" xmlns="http://www.w3.org/2000/svg" xmlns:xlink="http://www.w3.org/1999/xlink">
<defs>
<g id="a">
<path d="m5.6875-5.1719c0-0.046875-0.046875-0.078125-0.09375-0.078125h-0.078125c-0.0625 0-0.10938 0.0625-0.10938 0.10938v0.046875c0.21875 0.5625 0.59375 1.0625 1.0781 1.4219h-5.2344c0.48438-0.35938 0.85938-0.85938 1.0781-1.4219v-0.046875c0-0.046875-0.046875-0.10938-0.10938-0.10938h-0.078125c-0.046875 0-0.09375 0.03125-0.10938 0.078125-0.26562 0.71875-0.82812 1.2969-1.5469 1.5938-0.046875 0.015625-0.078125 0.0625-0.078125 0.10938l0.015625 0.046875c0.015625 0.015625 0.03125 0.046875 0.0625 0.046875 0.71875 0.29688 1.2812 0.875 1.5469 1.5938 0.015625 0.03125 0.03125 0.0625 0.0625 0.0625h-1.3438c-0.10938 0-0.20312 0.09375-0.20312 0.20312s0.09375 0.20312 0.20312 0.20312h6.2344c0.10938 0 0.1875-0.09375 0.1875-0.20312s-0.078125-0.20312-0.1875-0.20312h-1.3438c0.015625 0 0.046875-0.03125 0.046875-0.0625 0.28125-0.71875 0.85938-1.2969 1.5625-1.5938 0.03125 0 0.046875-0.03125 0.0625-0.046875v-0.046875-0.046875c-0.015625-0.015625-0.03125-0.046875-0.0625-0.0625-0.70312-0.29688-1.2812-0.875-1.5625-1.5938zm-0.21875 3.4531h-3.2031c0.046875-0.015625 0.0625-0.0625 0.0625-0.09375v-0.046875c-0.21875-0.5625-0.59375-1.0469-1.0781-1.4062h5.2344c-0.48438 0.35938-0.85938 0.84375-1.0781 1.4062v0.046875c0 0.046875 0.015625 0.09375 0.0625 0.09375z"/>
</g>
</defs>
<g transform="translate(-149.12 -129.52)">
<use x="148.71201" y="134.765" xlink:href="#a"/>
</g>
</svg>
