<?xml version="1.0" encoding="UTF-8"?>
<svg fill="#000000" version="1.1" viewBox="0 0 14.663 5.2031" xmlns="http://www.w3.org/2000/svg" xmlns:xlink="http://www.w3.org/1999/xlink">
<defs>
<g id="b">
<path d="m6.5625-2.2969c0.17188 0 0.35938 0 0.35938-0.20312 0-0.1875-0.1875-0.1875-0.35938-0.1875h-5.3906c-0.17188 0-0.34375 0-0.34375 0.1875 0 0.20312 0.17188 0.20312 0.34375 0.20312z"/>
</g>
<g id="a">
<path d="m8.3125-2.2969c-0.54688 0.42188-0.8125 0.82812-0.89062 0.96875-0.45312 0.6875-0.53125 1.3125-0.53125 1.3125 0 0.125 0.125 0.125 0.20312 0.125 0.15625 0 0.17188-0.015625 0.21875-0.20312 0.21875-0.96875 0.8125-1.8125 1.9375-2.2656 0.125-0.046875 0.15625-0.0625 0.15625-0.14062 0-0.0625-0.0625-0.09375-0.078125-0.10938-0.45312-0.15625-1.6562-0.65625-2.0312-2.3281-0.03125-0.125-0.046875-0.15625-0.20312-0.15625-0.078125 0-0.20312 0-0.20312 0.125 0 0.015625 0.09375 0.64062 0.5 1.3125 0.20312 0.29688 0.5 0.64062 0.92188 0.96875h-7.4062c-0.17188 0-0.35938 0-0.35938 0.1875 0 0.20312 0.1875 0.20312 0.35938 0.20312z"/>
</g>
</defs>
<g transform="translate(-149.54 -129.67)">
<use x="148.71201" y="134.765" xlink:href="#b"/>
<use x="154.79715" y="134.765" xlink:href="#a"/>
</g>
</svg>
