<?xml version="1.0" encoding="UTF-8"?>
<svg fill="#000000" version="1.1" viewBox="0 0 5.625 11.25" xmlns="http://www.w3.org/2000/svg" xmlns:xlink="http://www.w3.org/1999/xlink">
<defs>
<g id="a">
<path d="m6.1562 2.1094v-0.65625h-3.3281l0.29688-1.3281h3.0312v-0.65625h-2.8906l0.25-1.0625h2.6406v-0.65625h-2.4844l0.96875-4.25h1.5156v-0.65625h-1.3438l0.21875-1h-0.53125l-0.21875 1h-1.0156c-1.5938 0-2.7344 1.2969-2.7344 2.7812 0 1.4062 1 2.6562 2.4531 2.7656l-0.25 1.0781h-2.1094v0.65625h1.9688l-0.29688 1.3281h-1.6719v0.65625h1.5156l-0.23438 0.98438h0.53125l0.23438-0.98438zm-2.0469-8.6094-0.96875 4.25c-1.0781-0.078125-1.9531-1.0938-1.9531-2.125 0-1.0625 0.9375-2.125 2.0781-2.125z"/>
</g>
</defs>
<g transform="translate(-149.24 -126.61)">
<use x="148.71201" y="134.765" xlink:href="#a"/>
</g>
</svg>
