<?xml version="1.0" encoding="UTF-8"?>
<svg fill="#000000" version="1.1" viewBox="0 0 4.3438 6.3281" xmlns="http://www.w3.org/2000/svg" xmlns:xlink="http://www.w3.org/1999/xlink">
<defs>
<g id="a">
<path d="m4.125-5.3281c-0.125 0.21875-0.25 0.45312-0.375 0.6875l-0.09375 0.17188c-0.03125 0.046875-0.0625 0.078125-0.125 0.078125-0.046875 0-0.09375-0.015625-0.14062-0.03125-0.15625-0.03125-0.3125-0.03125-0.45312-0.046875h-0.14062c-1.2812 0-2.4531 0.9375-2.4531 2.3125 0 0.71875 0.375 1.4844 0.98438 1.8281l-0.6875 1.2344 0.20312 0.09375 0.6875-1.2031c0.40625 0.15625 0.76562 0.3125 1.2344 0.3125 0.76562 0 1.5469-0.34375 1.8438-1.0781 0.03125-0.046875 0.078125-0.14062 0.078125-0.21875 0-0.0625-0.046875-0.10938-0.125-0.10938s-0.10938 0.0625-0.125 0.125c-0.26562 0.65625-0.875 1.0156-1.5625 1.0156h-0.10938c-0.29688-0.015625-0.85938-0.15625-1-0.45312 0-0.0625 0.09375-0.1875 0.14062-0.26562 0.125-0.23438 0.25-0.45312 0.375-0.6875 0.40625-0.71875 0.8125-1.4688 1.2344-2.2031 0.046875-0.10938 0.14062-0.21875 0.17188-0.32812l0.25 0.10938 0.1875 0.125c-0.25 0.046875-0.45312 0.17188-0.45312 0.46875 0 0.26562 0.20312 0.45312 0.45312 0.45312 0.29688 0 0.45312-0.21875 0.45312-0.48438 0-0.45312-0.35938-0.78125-0.76562-0.89062l0.51562-0.90625zm-2.5312 4.5469c-0.34375-0.375-0.42188-0.9375-0.42188-1.4219 0-0.9375 0.46875-2.0156 1.6719-2.0156 0.21875 0 0.42188 0.046875 0.625 0.0625l-1.6875 3.0312z"/>
</g>
</defs>
<g transform="translate(-149.06 -129.44)">
<use x="148.71201" y="134.765" xlink:href="#a"/>
</g>
</svg>
