<?xml version="1.0" encoding="UTF-8"?>
<svg fill="#000000" version="1.1" viewBox="0 0 7.8594 8.2031" xmlns="http://www.w3.org/2000/svg" xmlns:xlink="http://www.w3.org/1999/xlink">
<defs>
<g id="a">
<path d="m5.4062 1.0938c0-0.0625-0.046875-0.14062-0.10938-0.1875-0.67188-0.48438-1.0156-1.2656-1.2344-2.0625-0.03125-0.09375-0.125-0.17188-0.21875-0.17188-0.14062 0-0.23438 0.10938-0.23438 0.23438 0 0.23438 0.4375 1.1094 0.60938 1.625-1.125-0.57812-1.875-1.7656-1.875-3.0781 0-1.9844 1.6094-3.4688 3.4688-3.4688 1.9688 0 3.4844 1.6094 3.4844 3.4688-0.015625 1.6875-1.2188 3.125-2.875 3.4219-0.10938 0.015625-0.1875 0.10938-0.1875 0.21875 0 0.14062 0.10938 0.23438 0.21875 0.23438h0.046875c1.875-0.32812 3.2344-1.9688 3.25-3.875 0-2.2344-1.8281-3.9375-3.9375-3.9375-2.2188 0-3.9219 1.8281-3.9219 3.9375 0 1.4062 0.73438 2.6875 1.9219 3.3906-0.96875 0.32812-1.4062 0.35938-1.4062 0.64062 0 0.14062 0.10938 0.23438 0.21875 0.23438 0.14062 0 0.89062-0.48438 1.8438-0.48438 0.39062 0 0.625 0.09375 0.70312 0.09375 0.10938 0 0.23438-0.09375 0.23438-0.23438z"/>
</g>
</defs>
<g transform="translate(-150.6 -128.28)">
<use x="148.71201" y="134.765" xlink:href="#a"/>
</g>
</svg>
