<?xml version="1.0" encoding="UTF-8"?>
<svg fill="#000000" width="9.9688" height="9.9688" version="1.1" viewBox="0 0 9.9688 9.9687" xmlns="http://www.w3.org/2000/svg" xmlns:xlink="http://www.w3.org/1999/xlink">
<defs>
<g id="a">
<path d="m7.4375-1.0312-1.4844-1.4844 1.4844-1.4844-0.46875-0.46875-1.4844 1.4844-1.4844-1.4844-0.46875 0.46875 1.4844 1.4844-1.4844 1.4844 0.46875 0.46875 1.4844-1.4844 1.4844 1.4844zm1.5312-1.4844c0-1.9375-1.5469-3.4844-3.4844-3.4844s-3.4844 1.5469-3.4844 3.4844 1.5469 3.5 3.4844 3.5 3.4844-1.5625 3.4844-3.5zm-0.51562 0c0 1.6406-1.3281 2.9688-2.9688 2.9688s-2.9688-1.3281-2.9688-2.9688 1.3281-2.9688 2.9688-2.9688 2.9688 1.3281 2.9688 2.9688zm2.0156 0c0-2.75-2.2344-4.9844-4.9844-4.9844s-4.9844 2.2344-4.9844 4.9844 2.2344 4.9844 4.9844 4.9844 4.9844-2.2344 4.9844-4.9844zm-0.65625 0c0 2.3906-1.9375 4.3281-4.3281 4.3281s-4.3281-1.9375-4.3281-4.3281 1.9375-4.3281 4.3281-4.3281 4.3281 1.9375 4.3281 4.3281z"/>
</g>
</defs>
<g transform="translate(-149.21 -127.26)">
<use x="148.71201" y="134.765" xlink:href="#a"/>
</g>
</svg>
