<?xml version="1.0" encoding="UTF-8"?>
<svg fill="#000000" version="1.1" viewBox="0 0 5.5469 8.875" xmlns="http://www.w3.org/2000/svg" xmlns:xlink="http://www.w3.org/1999/xlink">
<defs>
<g id="a">
<path d="m6.1875-0.5v-0.67188l-4.1875-2.1094 4.1875-2.1094v-0.65625l-5.5469 2.7188v0.09375zm0 1.7031v-0.67188h-3.6719c-0.10938 0-0.26562-0.10938-0.26562-0.21875 0-0.078125 0.046875-0.14062 0.14062-0.25 0.29688-0.26562 0.59375-0.625 0.8125-0.95312l-0.1875-0.20312c-0.65625 0.75-1.4062 1.5156-2.375 1.9062v0.10938c0.96875 0.40625 1.7188 1.1406 2.375 1.9062l0.20312-0.20312c-0.23438-0.32812-0.51562-0.64062-0.8125-0.95312-0.09375-0.09375-0.14062-0.20312-0.14062-0.28125 0-0.09375 0.078125-0.1875 0.25-0.1875z"/>
</g>
</defs>
<g transform="translate(-149.35 -128.72)">
<use x="148.71201" y="134.765" xlink:href="#a"/>
</g>
</svg>
