<?xml version="1.0" encoding="UTF-8"?>
<svg fill="#000000" version="1.1" viewBox="0 0 7.4375 7.4375" xmlns="http://www.w3.org/2000/svg" xmlns:xlink="http://www.w3.org/1999/xlink">
<defs>
<g id="a">
<path d="m5.2188-1.3281c0 0.03125 0.015625 0.078125 0.046875 0.125 0.4375 0.625 0.78125 1.3281 0.78125 2.0781v0.21875c0 0.125 0.078125 0.23438 0.21875 0.23438 0.375 0 0.15625-0.84375 2.0312-1.7188 0.09375-0.03125 0.14062-0.125 0.14062-0.20312 0-0.14062-0.10938-0.23438-0.23438-0.23438-0.1875 0-0.89062 0.51562-1.3594 0.78125 0.03125-0.15625 0.03125-0.32812 0.03125-0.5 0-1-0.375-2-1.0938-2.75l1.125-1.625c0.046875-0.0625 0.03125-0.15625-0.03125-0.20312-0.0625-0.03125-0.17188-0.03125-0.20312 0.046875l-1.1094 1.5625c-0.75-0.6875-1.7188-1.0469-2.7031-1.0469-0.15625 0-0.32812 0.015625-0.5 0.03125 0.25-0.39062 0.79688-1.1562 0.79688-1.3438 0-0.125-0.09375-0.23438-0.23438-0.23438-0.09375 0-0.17188 0.046875-0.20312 0.125-0.89062 1.9062-1.7188 1.6406-1.7188 2.0312 0 0.14062 0.10938 0.23438 0.21875 0.23438 0.03125 0 0.09375-0.015625 0.23438-0.015625 1.1719 0 2 0.82812 2.2031 0.82812 0.14062 0 0.23438-0.09375 0.23438-0.21875 0-0.078125-0.03125-0.14062-0.10938-0.1875-0.42188-0.3125-0.90625-0.5-1.3594-0.75 0.15625-0.03125 0.29688-0.03125 0.4375-0.03125 0.89062 0 1.7656 0.32812 2.4375 0.96875l-1.125 1.5938c-0.046875 0.078125-0.03125 0.17188 0.03125 0.21875 0.078125 0.046875 0.15625 0.03125 0.21875-0.046875l1.0938-1.5625c0.59375 0.67188 0.90625 1.5156 0.90625 2.375 0 0.14062-0.015625 0.29688-0.03125 0.45312-0.26562-0.45312-0.45312-0.95312-0.75-1.375-0.046875-0.0625-0.125-0.09375-0.1875-0.09375s-0.23438 0.0625-0.23438 0.23438z"/>
</g>
</defs>
<g transform="translate(-149.71 -128.66)">
<use x="148.71201" y="134.765" xlink:href="#a"/>
</g>
</svg>
