<?xml version="1.0" encoding="UTF-8"?>
<svg fill="#000000" version="1.1" viewBox="0 0 6.6406 6.6406" xmlns="http://www.w3.org/2000/svg" xmlns:xlink="http://www.w3.org/1999/xlink">
<defs>
<g id="a">
<path d="m7.2031-2.5c0-1.8281-1.5-3.3125-3.3281-3.3125s-3.3125 1.5-3.3125 3.3125c0 1.8438 1.4844 3.3281 3.3125 3.3281 1.8438 0 3.3281-1.5 3.3281-3.3281zm-3.3281 3.0781c-1.6875 0-3.0625-1.375-3.0625-3.0781 0-1.6875 1.375-3.0625 3.0625-3.0625 1.7031 0 3.0781 1.375 3.0781 3.0625 0 1.7031-1.375 3.0781-3.0781 3.0781zm1.3906-3.0781c0-0.76562-0.625-1.375-1.3906-1.375-0.75 0-1.375 0.625-1.375 1.375 0 0.78125 0.625 1.3906 1.375 1.3906 0.76562 0 1.3906-0.625 1.3906-1.3906zm-1.3906 1c-0.53125 0-0.98438-0.45312-0.98438-1 0-0.53125 0.4375-0.98438 0.98438-0.98438s0.98438 0.45312 0.98438 0.98438c0 0.54688-0.4375 1-0.98438 1z"/>
</g>
</defs>
<g transform="translate(-149.27 -128.95)">
<use x="148.71201" y="134.765" xlink:href="#a"/>
</g>
</svg>
