<?xml version="1.0" encoding="UTF-8"?>
<svg fill="#000000" version="1.1" viewBox="0 0 6.2969 6.2812" xmlns="http://www.w3.org/2000/svg" xmlns:xlink="http://www.w3.org/1999/xlink">
<defs>
<g id="a">
<path d="m2.1562-5.0781c0 0.0625 0.03125 0.125 0.078125 0.15625l4.8906 4.8906c-0.45312 0.35938-1 0.5625-1.5469 0.5625-0.32812 0-0.48438-0.046875-0.53125-0.046875-0.125 0-0.23438 0.078125-0.23438 0.21875 0 0.17188 0.125 0.28125 0.76562 0.28125 1.6406 0 2.875-1.3594 2.875-2.8906 0-0.625-0.10938-0.75-0.28125-0.75-0.14062 0-0.23438 0.10938-0.23438 0.21875 0 0.0625 0.0625 0.21875 0.0625 0.53125 0 0.57812-0.1875 1.125-0.5625 1.5625l-4.875-4.8906c-0.046875-0.046875-0.10938-0.0625-0.17188-0.0625-0.125 0-0.23438 0.078125-0.23438 0.21875z"/>
</g>
</defs>
<g transform="translate(-150.87 -129.47)">
<use x="148.71201" y="134.765" xlink:href="#a"/>
</g>
</svg>
