<?xml version="1.0" encoding="UTF-8"?>
<svg fill="#000000" version="1.1" viewBox="0 0 8.7812 3.3125" xmlns="http://www.w3.org/2000/svg" xmlns:xlink="http://www.w3.org/1999/xlink">
<defs>
<g id="a">
<path d="m6.7656-3.9844c0 0.23438 0.67188 0.71875 1.1562 1.2188h-0.82812c-0.82812-0.15625-1.4688-0.71875-2-1.3438-0.046875-0.0625-0.10938-0.09375-0.17188-0.09375-0.125 0-0.23438 0.09375-0.23438 0.21875 0 0.23438 0.67188 0.71875 1.1406 1.2188h-5c-0.125 0-0.23438 0.09375-0.23438 0.21875s0.10938 0.23438 0.23438 0.23438h5c-0.4375 0.45312-1.1406 0.95312-1.1406 1.2031 0 0.125 0.10938 0.21875 0.23438 0.21875 0.0625 0 0.125-0.03125 0.17188-0.09375 0.53125-0.625 1.1719-1.1875 2-1.3281h0.82812c-0.46875 0.45312-1.1562 0.95312-1.1562 1.2031 0 0.125 0.10938 0.21875 0.23438 0.21875 0.0625 0 0.125-0.03125 0.17188-0.09375 0.53125-0.625 1.1875-1.1875 2-1.3438 0.10938-0.015625 0.20312-0.10938 0.20312-0.21875s-0.09375-0.20312-0.20312-0.21875c-0.8125-0.15625-1.4688-0.71875-2-1.3438-0.046875-0.0625-0.10938-0.09375-0.17188-0.09375-0.125 0-0.23438 0.09375-0.23438 0.21875z"/>
</g>
</defs>
<g transform="translate(-149.31 -130.56)">
<use x="148.71201" y="134.765" xlink:href="#a"/>
</g>
</svg>
