<?xml version="1.0" encoding="UTF-8"?>
<svg fill="#000000" version="1.1" viewBox="0 0 3.575 6.4593" xmlns="http://www.w3.org/2000/svg" xmlns:xlink="http://www.w3.org/1999/xlink">
<defs>
<g id="a">
<path d="m0.26562-4.3125v0.3125c0.14062 0 0.29688 0 0.4375 0.015625 0.078125 0.015625 0.15625 0.03125 0.21875 0.09375 0.125 0.10938 0.125 0.28125 0.125 0.42188v3.4062c0 0.28125-0.03125 0.57812 0.015625 0.84375 0.046875 0.25 0.15625 0.48438 0.3125 0.6875 0.26562 0.32812 0.65625 0.53125 1.0625 0.5625 0.1875 0.015625 0.39062 0 0.57812-0.03125 0.26562-0.0625 0.5625-0.17188 0.71875-0.40625s0.15625-0.59375-0.10938-0.75c-0.046875-0.03125-0.09375-0.046875-0.14062-0.0625h-0.1875c-0.39062 0.0625-0.51562 0.60938-0.1875 0.82812 0.046875 0.03125 0.09375 0.0625 0.15625 0.0625v0.015625c-0.078125 0.015625-0.17188 0.0625-0.25 0.078125-0.3125 0.078125-0.6875 0.09375-0.9375-0.15625-0.34375-0.34375-0.35938-0.875-0.35938-1.3281v-1.9844c0-0.48438-0.03125-0.96875 0.10938-1.4375 0.125-0.46875 0.42188-0.96875 0.9375-1.0469 0.078125-0.015625 0.15625-0.015625 0.23438 0v0.015625c-0.23438 0.09375-0.28125 0.40625-0.15625 0.60938 0.0625 0.10938 0.17188 0.17188 0.3125 0.1875h0.15625c0.046875-0.03125 0.09375-0.046875 0.14062-0.0625 0.25-0.17188 0.20312-0.54688 0.03125-0.73438-0.17188-0.20312-0.46875-0.26562-0.71875-0.23438-0.42188 0.046875-0.73438 0.32812-0.9375 0.6875-0.0625 0.125-0.125 0.25-0.15625 0.375v-1.0781z"/>
</g>
</defs>
<g transform="translate(-148.98 -130.34)">
<use x="148.71201" y="134.765" xlink:href="#a"/>
</g>
</svg>
