<?xml version="1.0" encoding="UTF-8"?>
<svg fill="#000000" version="1.1" viewBox="0 0 5.8594 10.188" xmlns="http://www.w3.org/2000/svg" xmlns:xlink="http://www.w3.org/1999/xlink">
<defs>
<g id="a">
<path d="m6.1875-5.2969c-2.0156-0.15625-4.3594-0.54688-5.5469-2.1562v0.78125c0.5 0.84375 2.0938 1.5625 3.3281 1.7031-1.2344 0.15625-2.8281 0.85938-3.3281 1.7188v0.76562c1.1875-1.6094 3.5312-1.9844 5.5469-2.1562zm-0.17188 3.5469c-0.14062 0.71875-0.46875 1.375-1.1562 1.375-0.73438 0-1.7969-1.2656-2.75-1.2656-0.98438 0-1.5781 1.0312-1.625 2.0312h0.32812c0.15625-0.70312 0.51562-1.375 1.2188-1.375 0.71875 0 1.7812 1.2812 2.75 1.2812s1.5156-1.1875 1.5625-2.0469zm0 2.3594c-0.14062 0.70312-0.46875 1.375-1.1562 1.375-0.73438 0-1.7969-1.2812-2.75-1.2812-0.98438 0-1.5781 1.0469-1.625 2.0312h0.32812c0.15625-0.70312 0.51562-1.375 1.2188-1.375 0.71875 0 1.7812 1.2812 2.75 1.2812s1.5156-1.1875 1.5625-2.0312z"/>
</g>
</defs>
<g transform="translate(-149.2 -127.31)">
<use x="148.71201" y="134.765" xlink:href="#a"/>
</g>
</svg>
