<?xml version="1.0" encoding="UTF-8"?>
<svg fill="#000000" version="1.1" viewBox="0 0 7.8281 7.3125" xmlns="http://www.w3.org/2000/svg" xmlns:xlink="http://www.w3.org/1999/xlink">
<defs>
<g id="a">
<path d="m3.4375-0.875c-0.078125-0.078125-0.125-0.17188-0.125-0.29688 0-0.15625 0.0625-0.375 0.23438-0.60938 0.15625-0.23438 0.35938-0.46875 0.625-0.65625 0.21875-0.14062 0.4375-0.25 0.60938-0.25 0.34375 0 0.53125 0.17188 0.54688 0.42188v0.046875c0 0.3125-0.20312 0.70312-0.5 1.125-0.20312 0.28125-0.4375 0.5625-0.76562 0.76562-0.29688 0.20312-0.625 0.29688-0.85938 0.29688-0.59375 0-0.85938-0.34375-0.85938-0.82812v-0.10938c0.0625-0.75 0.625-1.6875 1.2812-2.5938 0.60938-0.09375 1.2656-0.25 1.9531-0.53125 0.79688-0.29688 1.6719-0.78125 2.1406-1.4531 0.23438-0.32812 0.375-0.65625 0.375-0.9375 0-0.046875 0-0.09375-0.015625-0.14062-0.046875-0.3125-0.3125-0.5-0.70312-0.5-0.67188 0-1.5469 0.5-2.2812 1.0625-0.92188 0.70312-1.6875 1.5312-2.2812 2.3438-0.10938 0.015625-0.21875 0.015625-0.32812 0.015625-0.71875 0-1.3125-0.17188-1.5938-0.54688-0.078125-0.10938-0.125-0.25-0.125-0.42188 0-0.25 0.10938-0.54688 0.32812-0.85938 0.1875-0.26562 0.46875-0.53125 0.78125-0.70312 0.375-0.20312 0.75-0.28125 1.0625-0.28125 0.015625 0 0.046875-0.015625 0.0625-0.03125 0.015625-0.046875 0.046875-0.078125 0.046875-0.10938 0-0.046875-0.03125-0.078125-0.078125-0.078125-0.40625 0-0.875 0.078125-1.375 0.3125-0.39062 0.1875-0.79688 0.45312-1.0312 0.79688-0.21875 0.29688-0.29688 0.59375-0.29688 0.84375s0.09375 0.5 0.25 0.67188c0.40625 0.45312 1.125 0.625 1.9219 0.625h0.21875c-0.57812 0.8125-0.9375 1.6406-0.9375 2.3281 0 0.078125 0 0.15625 0.015625 0.21875 0.0625 0.6875 0.5625 1.125 1.4219 1.125 0.35938 0 0.78125-0.125 1.2031-0.34375 0.39062-0.21875 0.75-0.51562 0.98438-0.84375 0.26562-0.39062 0.42188-0.78125 0.42188-1.1094 0-0.078125 0-0.14062-0.03125-0.21875-0.09375-0.375-0.4375-0.57812-0.92188-0.57812-0.23438 0-0.53125 0.14062-0.78125 0.29688-0.29688 0.21875-0.54688 0.46875-0.73438 0.73438-0.17188 0.25-0.26562 0.5-0.26562 0.70312 0 0.1875 0.078125 0.35938 0.25 0.46875h0.03125 0.03125l0.078125-0.03125 0.03125-0.015625c0-0.03125 0.015625-0.03125 0.015625-0.0625s-0.015625-0.046875-0.03125-0.0625zm0.015625 0.125c0-0.015625 0.015625-0.03125 0.015625-0.0625 0 0 0-0.015625-0.015625-0.03125v0.09375zm3.8906-6.1406c0.29688 0 0.45312 0.125 0.48438 0.32812v0.09375c0 0.23438-0.125 0.51562-0.34375 0.84375-0.4375 0.59375-1.25 1.0625-2.0156 1.3594-0.57812 0.21875-1.1406 0.375-1.6719 0.45312 0.51562-0.71875 1.0625-1.4375 1.8125-2.0938 0.57812-0.51562 1.2344-0.98438 1.7344-0.98438z"/>
</g>
</defs>
<g transform="translate(-148.98 -127.64)">
<use x="148.71201" y="134.765" xlink:href="#a"/>
</g>
</svg>
