<?xml version="1.0" encoding="UTF-8"?>
<svg fill="#000000" version="1.1" viewBox="0 0 2.7656 7.7031" xmlns="http://www.w3.org/2000/svg" xmlns:xlink="http://www.w3.org/1999/xlink">
<defs>
<g id="a">
<path d="m0.79688-7.2031c0-0.1875 0-0.28125-0.125-0.28125s-0.125 0.09375-0.125 0.28125v7.1406c0 0.20312 0 0.28125 0.125 0.28125 0.10938 0 1.1406-0.71875 1.6875-1.3125 0.54688-0.57812 0.95312-1.2812 0.95312-2.1094 0-0.73438-0.54688-1.375-1.3594-1.375-0.5625 0-0.95312 0.21875-1.1562 0.40625zm0 3.7812c0-0.23438 0-0.4375 0.32812-0.625 0.3125-0.1875 0.73438-0.1875 0.75-0.1875 0.45312 0 0.64062 0.54688 0.64062 1.0312 0 1.5781-1.4844 2.8438-1.7188 3.0469z"/>
</g>
</defs>
<g transform="translate(-149.26 -127.28)">
<use x="148.71201" y="134.765" xlink:href="#a"/>
</g>
</svg>
