<?xml version="1.0" encoding="UTF-8"?>
<svg fill="#000000" version="1.1" viewBox="0 0 8.9127 2.8438" xmlns="http://www.w3.org/2000/svg" xmlns:xlink="http://www.w3.org/1999/xlink">
<defs>
<g id="a">
<path d="m1.7812-2.3906c0.10938-0.10938 0.26562-0.1875 0.39062-0.25 0.29688-0.15625 0.59375-0.28125 0.92188-0.375 0.71875-0.23438 1.4531-0.29688 2.2031-0.28125 0.67188 0.03125 1.3281 0.15625 1.9531 0.40625 0.60938 0.23438 1.1406 0.59375 1.5938 1.0469 0.09375 0.09375 0.15625 0.17188 0.23438 0.26562 0.046875 0.046875 0.078125 0.10938 0.14062 0.10938 0.078125 0 0.15625-0.0625 0.20312-0.10938 0.09375-0.078125 0.046875-0.17188-0.015625-0.25-0.10938-0.125-0.21875-0.25-0.32812-0.35938-0.51562-0.51562-1.1406-0.89062-1.8125-1.125-0.625-0.23438-1.2812-0.34375-1.9531-0.375-0.67188-0.046875-1.3594 0.03125-2.0156 0.1875-0.64062 0.15625-1.25 0.40625-1.7656 0.78125 0-0.21875 0.03125-0.46875 0.03125-0.6875 0-0.1875 0.015625-0.35938 0.015625-0.54688 0-0.078125 0-0.1875-0.015625-0.28125-0.015625-0.046875-0.078125-0.078125-0.14062-0.078125-0.0625 0.03125-0.17188 0.10938-0.20312 0.17188s-0.03125 0.15625-0.046875 0.21875c-0.03125 0.14062-0.046875 0.26562-0.078125 0.40625-0.078125 0.42188-0.20312 0.82812-0.3125 1.25-0.0625 0.15625-0.125 0.32812-0.1875 0.5-0.015625 0.078125-0.0625 0.15625 0 0.20312 0.046875 0.0625 0.14062 0.03125 0.21875 0.015625 0.17188-0.046875 0.35938-0.09375 0.53125-0.125 0.34375-0.046875 0.6875-0.09375 1.0156-0.09375 0.14062 0 0.28125-0.015625 0.42188 0 0.09375 0.015625 0.1875 0.03125 0.28125 0.015625 0.10938-0.015625 0.32812-0.1875 0.1875-0.29688-0.046875-0.03125-0.10938-0.046875-0.15625-0.0625-0.10938-0.03125-0.20312-0.046875-0.29688-0.078125-0.125-0.03125-0.25-0.0625-0.35938-0.078125-0.21875-0.0625-0.4375-0.10938-0.65625-0.125z"/>
</g>
</defs>
<g transform="translate(-149.27 -130.45)">
<use x="148.71201" y="134.765" xlink:href="#a"/>
</g>
</svg>
