<?xml version="1.0" encoding="UTF-8"?>
<svg fill="#000000" version="1.1" viewBox="0 0 6.093 6.6441" xmlns="http://www.w3.org/2000/svg" xmlns:xlink="http://www.w3.org/1999/xlink">
<defs>
<g id="a">
<path d="m4.2969-3.6094c-0.25-0.17188-0.46875-0.35938-0.71875-0.51562-0.20312-0.125-0.40625-0.23438-0.64062-0.29688-0.32812-0.078125-0.70312-0.0625-1.0312 0.03125-0.46875 0.15625-0.79688 0.53125-0.96875 0.98438-0.046875 0.10938-0.0625 0.21875-0.09375 0.32812-0.015625 0.0625-0.015625 0.125 0.03125 0.15625 0.09375 0.0625 0.1875 0.015625 0.20312-0.078125 0.0625-0.15625 0.09375-0.3125 0.17188-0.46875 0.1875-0.3125 0.48438-0.48438 0.82812-0.51562 0.29688-0.03125 0.57812 0.09375 0.82812 0.23438 0.21875 0.14062 0.4375 0.29688 0.625 0.45312 0.14062 0.09375 0.25 0.21875 0.40625 0.28125l-0.45312 0.79688c-0.1875-0.078125-0.35938-0.1875-0.5625-0.21875-0.5-0.14062-1.0938-0.03125-1.5 0.29688-0.26562 0.21875-0.4375 0.53125-0.53125 0.85938-0.03125 0.09375-0.10938 0.28125 0 0.34375 0.0625 0.046875 0.15625 0.015625 0.1875-0.0625 0.03125-0.10938 0.046875-0.21875 0.09375-0.3125 0.09375-0.25 0.26562-0.46875 0.5-0.57812 0.32812-0.17188 0.70312-0.15625 1.0156 0 0.15625 0.078125 0.29688 0.1875 0.4375 0.25-0.03125 0.09375-0.078125 0.17188-0.14062 0.25l-0.20312 0.375c-0.21875 0.375-0.42188 0.73438-0.64062 1.1094l-0.21875 0.35938c-0.03125 0.078125-0.09375 0.14062-0.125 0.21875v0.046875c0.015625 0.125 0.17188 0.09375 0.25 0.09375 0.03125 0 0.09375 0 0.125-0.015625 0.046875-0.046875 0.078125-0.10938 0.10938-0.15625l0.1875-0.3125c0.21875-0.39062 0.4375-0.76562 0.67188-1.1562l0.21875-0.39062c0.03125-0.03125 0.0625-0.125 0.09375-0.14062 0.03125 0 0.0625 0.015625 0.078125 0.03125 0.046875 0.015625 0.09375 0.0625 0.14062 0.10938 0.17188 0.125 0.35938 0.26562 0.5625 0.375 0.1875 0.10938 0.375 0.21875 0.59375 0.26562 0.34375 0.09375 0.73438 0.0625 1.0781-0.046875 0.4375-0.17188 0.75-0.54688 0.90625-0.98438 0.046875-0.09375 0.078125-0.1875 0.10938-0.29688 0-0.046875 0.015625-0.09375-0.03125-0.14062-0.046875-0.078125-0.15625-0.0625-0.20312 0.015625-0.03125 0.0625-0.03125 0.125-0.046875 0.17188-0.03125 0.09375-0.078125 0.1875-0.10938 0.28125-0.1875 0.34375-0.5 0.54688-0.89062 0.57812-0.28125 0.015625-0.54688-0.10938-0.78125-0.25-0.21875-0.14062-0.4375-0.28125-0.64062-0.4375-0.125-0.10938-0.25-0.21875-0.40625-0.29688l0.125-0.21875 0.32812-0.57812c0.078125 0.03125 0.15625 0.0625 0.21875 0.10938 0.10938 0.046875 0.21875 0.09375 0.34375 0.125 0.5 0.125 1.0781 0.03125 1.4844-0.29688 0.26562-0.20312 0.45312-0.53125 0.5625-0.85938 0.015625-0.09375 0.10938-0.28125 0-0.35938-0.078125-0.03125-0.17188 0-0.20312 0.078125-0.03125 0.09375-0.046875 0.20312-0.09375 0.3125-0.09375 0.23438-0.25 0.4375-0.48438 0.57812-0.3125 0.15625-0.70312 0.14062-1.0156 0-0.15625-0.09375-0.29688-0.20312-0.46875-0.28125 0.35938-0.59375 0.70312-1.2031 1.0625-1.7969l0.23438-0.42188c0.03125-0.0625 0.078125-0.125 0.03125-0.1875-0.046875-0.046875-0.10938-0.046875-0.17188-0.046875-0.046875 0-0.125 0-0.17188 0.03125-0.046875 0.015625-0.078125 0.0625-0.09375 0.10938l-0.10938 0.20312c-0.25 0.40625-0.48438 0.82812-0.71875 1.2344-0.09375 0.14062-0.15625 0.25-0.23438 0.375-0.046875 0.09375-0.09375 0.17188-0.14062 0.26562z"/>
</g>
</defs>
<g transform="translate(-149.55 -128.94)">
<use x="148.71201" y="134.765" xlink:href="#a"/>
</g>
</svg>
