<?xml version="1.0" encoding="UTF-8"?>
<svg fill="#000000" version="1.1" viewBox="0 0 6.625 6.6406" xmlns="http://www.w3.org/2000/svg" xmlns:xlink="http://www.w3.org/1999/xlink">
<defs>
<g id="a">
<path d="m6.9219-2.6875-5.0938-2.1094c0.5625-0.5 1.2969-0.76562 2.0469-0.76562 0.79688 0 1.5938 0.3125 2.1719 0.89062 0.51562 0.53125 0.82812 1.25 0.875 1.9844zm-5.3906-2.1562c-0.64062 0.625-0.98438 1.4688-0.98438 2.3438 0 0.89062 0.34375 1.7344 0.98438 2.3594 0.60938 0.625 1.4531 0.96875 2.3438 0.96875 0.875 0 1.7188-0.34375 2.3281-0.96875 0.625-0.625 0.96875-1.4688 0.96875-2.3594 0-0.875-0.34375-1.7188-0.96875-2.3438-0.60938-0.625-1.4531-0.96875-2.3281-0.96875-0.89062 0-1.7344 0.34375-2.3438 0.96875zm2.3438 5.4219c-0.75 0-1.4844-0.26562-2.0469-0.76562l5.0938-2.1094c-0.046875 0.73438-0.35938 1.4531-0.89062 1.9844-0.5625 0.57812-1.3594 0.89062-2.1562 0.89062zm-2.2344-5.1875 5.0938 2.1094-5.0938 2.125c-0.53125-0.57812-0.84375-1.3281-0.84375-2.125 0-0.78125 0.3125-1.5312 0.84375-2.1094z"/>
</g>
</defs>
<g transform="translate(-149.26 -128.95)">
<use x="148.71201" y="134.765" xlink:href="#a"/>
</g>
</svg>
