<?xml version="1.0" encoding="UTF-8"?>
<svg fill="#000000" version="1.1" viewBox="0 0 4.1571 7.1373" xmlns="http://www.w3.org/2000/svg" xmlns:xlink="http://www.w3.org/1999/xlink">
<defs>
<g id="a">
<path d="m0.76562-0.015625 0.23438-0.015625 0.14062-0.17188 0.23438-0.42188c0.10938 0.125 0.20312 0.25 0.34375 0.35938 0.26562 0.25 0.60938 0.35938 0.96875 0.35938 0.42188 0 0.84375-0.125 1.2031-0.35938 0.25-0.15625 0.46875-0.35938 0.64062-0.60938 0.65625-0.95312 0.46875-2.3125-0.42188-3.0469-0.59375-0.53125-1.5-0.65625-2.2031-0.25-0.15625 0.09375-0.34375 0.23438-0.45312 0.40625h-0.015625v-0.76562c0-0.14062-0.015625-0.28125 0-0.40625 0.015625-0.29688 0.078125-0.60938 0.20312-0.875 0.14062-0.32812 0.39062-0.64062 0.70312-0.82812 0.3125-0.17188 0.65625-0.20312 1-0.15625 0.32812 0.03125 0.67188 0.14062 0.92188 0.35938-0.09375 0-0.17188 0.015625-0.26562 0.0625-0.23438 0.14062-0.28125 0.5-0.10938 0.71875 0.14062 0.14062 0.35938 0.17188 0.54688 0.10938 0.0625-0.03125 0.125-0.078125 0.17188-0.14062 0.046875-0.046875 0.078125-0.125 0.078125-0.20312 0.03125-0.078125 0.015625-0.15625 0-0.23438-0.078125-0.48438-0.54688-0.75-0.98438-0.84375-0.3125-0.0625-0.625-0.09375-0.95312-0.0625-0.60938 0.078125-1.2031 0.40625-1.5781 0.92188-0.17188 0.25-0.3125 0.5625-0.375 0.85938-0.03125 0.21875-0.03125 0.42188-0.03125 0.625zm3.3125-1.9062c-0.015625 0.14062-0.015625 0.28125-0.046875 0.42188-0.03125 0.29688-0.14062 0.59375-0.32812 0.84375-0.14062 0.17188-0.3125 0.3125-0.51562 0.42188-0.34375 0.15625-0.78125 0.15625-1.1094-0.046875-0.1875-0.09375-0.34375-0.25-0.46875-0.42188-0.046875-0.078125-0.10938-0.17188-0.14062-0.28125-0.015625-0.0625 0-0.15625 0-0.21875v-1.5625c0-0.1875-0.015625-0.39062 0-0.57812 0-0.0625 0.03125-0.09375 0.0625-0.14062 0.0625-0.10938 0.14062-0.20312 0.23438-0.29688 0.40625-0.39062 1.0625-0.5625 1.5781-0.25 0.078125 0.0625 0.17188 0.125 0.25 0.20312 0.35938 0.375 0.45312 0.875 0.48438 1.3594 0.015625 0.1875 0.015625 0.35938 0 0.54688z"/>
</g>
</defs>
<g transform="translate(-149.48 -127.72)">
<use x="148.71201" y="134.765" xlink:href="#a"/>
</g>
</svg>
