<?xml version="1.0" encoding="UTF-8"?>
<svg fill="#000000" version="1.1" viewBox="0 0 3.2118 3.7242" xmlns="http://www.w3.org/2000/svg" xmlns:xlink="http://www.w3.org/1999/xlink">
<defs>
<g id="a">
<path d="m3.4219-4.3594c-0.09375 0.03125-0.1875 0.10938-0.26562 0.15625-0.17188 0.09375-0.32812 0.1875-0.5 0.28125-0.51562 0.3125-1.0625 0.625-1.5938 0.9375-0.17188 0.10938-0.35938 0.20312-0.53125 0.3125-0.0625 0.046875-0.17188 0.078125-0.17188 0.15625-0.015625 0.09375 0.078125 0.14062 0.14062 0.15625 0.17188 0.10938 0.34375 0.21875 0.51562 0.3125 0.60938 0.35938 1.2188 0.71875 1.8281 1.0625 0.14062 0.09375 0.29688 0.17188 0.45312 0.26562 0.046875 0.03125 0.125 0.09375 0.1875 0.078125 0.09375-0.03125 0.078125-0.14062 0.078125-0.20312v-3.2188c0-0.0625 0.015625-0.125 0-0.1875 0-0.078125-0.078125-0.125-0.14062-0.10938z"/>
</g>
</defs>
<g transform="translate(-149.07 -130.4)">
<use x="148.71201" y="134.765" xlink:href="#a"/>
</g>
</svg>
