<?xml version="1.0" encoding="UTF-8"?>
<svg fill="#000000" version="1.1" viewBox="0 0 6.625 7.3594" xmlns="http://www.w3.org/2000/svg" xmlns:xlink="http://www.w3.org/1999/xlink">
<defs>
<g id="a">
<path d="m3.0469-5.2344c-0.35938 0.48438-0.5 0.95312-0.5625 1.3125l0.29688-0.078125c0.0625-0.42188 0.25-0.89062 0.64062-1.3281 0.23438-0.21875 0.28125-0.23438 0.35938-0.23438 0.10938 0 0.21875-0.015625 0.21875-0.125 0-0.125-0.125-0.125-0.21875-0.125-0.15625 0-0.4375 0.046875-0.46875 0.046875-0.015625 0-0.6875-0.14062-1.2656-0.76562-0.0625 0.015625-0.23438 0.078125-0.28125 0.078125 0.45312 0.51562 1.0469 0.78125 1.0781 0.79688-1.5938 0.5625-2.2812 1.9531-2.2812 3.1562 0 1.8594 1.5 3.3281 3.3125 3.3281 1.8438 0 3.3125-1.5 3.3125-3.3281 0-2.0312-1.75-3-1.9375-3-0.10938 0-0.10938 0.10938-0.10938 0.125 0 0.078125 0.046875 0.09375 0.125 0.14062 1.4062 0.78125 1.6719 2.0469 1.6719 2.7344 0 1.7188-1.3906 3.0781-3.0625 3.0781-1.7031 0-3.0625-1.3906-3.0625-3.0781 0-1.2969 0.82812-2.5312 2.1875-2.9375z"/>
</g>
</defs>
<g transform="translate(-149.27 -128.23)">
<use x="148.71201" y="134.765" xlink:href="#a"/>
</g>
</svg>
