<?xml version="1.0" encoding="UTF-8"?>
<svg fill="#000000" version="1.1" viewBox="0 0 7.2344 7.3594" xmlns="http://www.w3.org/2000/svg" xmlns:xlink="http://www.w3.org/1999/xlink">
<defs>
<g id="a">
<path d="m2.9688-6.5469c0.015625-0.046875 0.046875-0.078125 0.046875-0.10938 0-0.046875-0.03125-0.078125-0.078125-0.078125-0.35938 0-0.82812 0.15625-1.25 0.42188-0.46875 0.28125-0.84375 0.65625-1.125 1.0312-0.29688 0.4375-0.45312 0.84375-0.45312 1.2031 0 0.20312 0.046875 0.39062 0.14062 0.54688 0.28125 0.51562 0.90625 0.73438 1.6719 0.73438 0.17188 0 0.35938-0.015625 0.54688-0.046875 0 0.0625 0.015625 0.125 0.03125 0.17188 0.10938 0.45312 0.48438 0.6875 1.0625 0.6875 0.42188 0 0.78125-0.20312 1.1406-0.51562-0.3125 0.54688-0.45312 1.0781-0.82812 1.6094-0.34375 0.48438-0.98438 0.89062-1.4219 0.89062-0.875 0-1.5625-0.17188-1.5625-0.625 0-0.09375 0.03125-0.20312 0.09375-0.32812 0.0625 0.10938 0.17188 0.15625 0.29688 0.15625 0.25 0 0.54688-0.20312 0.54688-0.39062 0-0.25-0.14062-0.34375-0.32812-0.34375-0.20312 0-0.4375 0.125-0.5625 0.29688-0.1875 0.25-0.26562 0.46875-0.26562 0.64062 0 0.60938 0.875 0.8125 1.75 0.8125 0.78125 0 1.8125-0.29688 2.2969-1 0.5-0.71875 0.3125-1.2812 0.78125-1.9531 0.32812-0.45312 0.4375-1.0156 1-1.3438 0.015625-0.015625 0.03125-0.046875 0.03125-0.0625l-0.015625-0.09375v-0.015625c-0.015625-0.03125-0.046875-0.0625-0.078125-0.0625-0.015625 0-0.03125 0-0.046875 0.015625-0.45312 0.26562-0.8125 0.60938-1.1094 0.98438-0.54688 0.54688-1.0781 1.1094-1.6875 1.1094-0.32812 0-0.5-0.1875-0.5-0.45312v-0.0625c0.015625-0.078125 0.046875-0.1875 0.078125-0.28125 0.5-0.15625 1.0156-0.40625 1.5156-0.70312 0.96875-0.57812 1.8438-1.3594 2.4219-2.1719 0.15625-0.21875 0.23438-0.4375 0.23438-0.64062 0-0.09375-0.015625-0.17188-0.046875-0.25-0.10938-0.26562-0.40625-0.375-0.75-0.375-0.51562 0-1.1562 0.42188-1.6875 0.85938-0.76562 0.625-1.375 1.3438-1.875 2.0469-0.29688 0.40625-0.46875 0.8125-0.51562 1.1719-0.17188 0.03125-0.34375 0.046875-0.5 0.046875-0.67188 0-1.1562-0.20312-1.3281-0.60938-0.03125-0.09375-0.046875-0.20312-0.046875-0.3125 0-0.34375 0.17188-0.78125 0.5-1.25 0.23438-0.32812 0.51562-0.67188 0.89062-0.95312 0.3125-0.23438 0.65625-0.375 0.92188-0.375 0.03125 0 0.046875-0.015625 0.0625-0.03125zm0.85938 2.4062c0.48438-0.67188 1.0625-1.4844 1.5469-1.9844 0.39062-0.42188 0.8125-0.79688 1.125-0.79688 0.23438 0 0.375 0.09375 0.39062 0.23438v0.046875c0 0.17188-0.125 0.40625-0.29688 0.65625-0.54688 0.76562-1.2969 1.5312-2.2031 2.1094-0.35938 0.23438-0.73438 0.42188-1.0938 0.5625 0.14062-0.25 0.32812-0.53125 0.53125-0.82812z"/>
</g>
</defs>
<g transform="translate(-148.82 -127.62)">
<use x="148.71201" y="134.765" xlink:href="#a"/>
</g>
</svg>
