<?xml version="1.0" encoding="UTF-8"?>
<svg fill="#000000" version="1.1" viewBox="0 0 3.5312 6.6562" xmlns="http://www.w3.org/2000/svg" xmlns:xlink="http://www.w3.org/1999/xlink">
<defs>
<g id="a">
<path d="m2.5156-5.8125-0.015625-0.015625c-0.046875 0-0.09375 0.03125-0.125 0.09375-0.29688 0.70312-0.85938 1.2656-1.5938 1.5469-0.03125 0.015625-0.0625 0.0625-0.0625 0.09375v0.09375c0 0.0625 0.046875 0.10938 0.10938 0.10938h0.046875c0.5625-0.21875 1.0469-0.60938 1.4062-1.0781v5.5938c0 0.14062 0.09375 0.20312 0.20312 0.20312 0.09375 0 0.20312-0.0625 0.20312-0.20312v-5.5938c0.35938 0.46875 0.84375 0.85938 1.4062 1.0781h0.046875c0.0625 0 0.10938-0.046875 0.10938-0.10938v-0.09375c0-0.03125-0.03125-0.078125-0.078125-0.09375-0.71875-0.28125-1.2969-0.84375-1.5938-1.5469 0-0.03125-0.03125-0.0625-0.0625-0.078125z"/>
</g>
</defs>
<g transform="translate(-149.43 -128.94)">
<use x="148.71201" y="134.765" xlink:href="#a"/>
</g>
</svg>
