<?xml version="1.0" encoding="UTF-8"?>
<svg fill="#000000" version="1.1" viewBox="0 0 6.0938 7.7031" xmlns="http://www.w3.org/2000/svg" xmlns:xlink="http://www.w3.org/1999/xlink">
<defs>
<g id="a">
<path d="m6.5469-3.3125c0.10938 0.046875 0.125 0.046875 0.17188 0.046875 0.078125 0 0.20312-0.046875 0.20312-0.1875 0-0.125-0.078125-0.15625-0.20312-0.21875l-5.5-2.5938c-0.125-0.078125-0.17188-0.078125-0.1875-0.078125-0.10938 0-0.20312 0.09375-0.20312 0.20312 0 0.125 0.078125 0.15625 0.20312 0.21875zm0.17188 2.0156c0.15625-0.0625 0.20312-0.14062 0.20312-0.21875s-0.03125-0.15625-0.20312-0.23438l-5.5-2.5938c-0.125-0.0625-0.17188-0.0625-0.1875-0.0625-0.078125 0-0.20312 0.0625-0.20312 0.20312 0 0.125 0.078125 0.15625 0.20312 0.21875l5.2188 2.4531-5.2344 2.4844c-0.09375 0.046875-0.1875 0.10938-0.1875 0.21875s0.09375 0.1875 0.20312 0.1875c0.03125 0 0.046875 0 0.17188-0.0625z"/>
</g>
</defs>
<g transform="translate(-149.54 -128.42)">
<use x="148.71201" y="134.765" xlink:href="#a"/>
</g>
</svg>
