<?xml version="1.0" encoding="UTF-8"?>
<svg fill="#000000" version="1.1" viewBox="0 0 6.0938 11.516" xmlns="http://www.w3.org/2000/svg" xmlns:xlink="http://www.w3.org/1999/xlink">
<defs>
<g id="a">
<path d="m3.5-2.1406h-2.3281c-0.17188 0-0.34375 0-0.34375 0.20312s0.17188 0.20312 0.34375 0.20312h2.1406l-0.6875 1.5312h-1.4531c-0.17188 0-0.34375 0-0.34375 0.20312s0.17188 0.20312 0.34375 0.20312h1.2812l-0.6875 1.5312h-0.59375c-0.17188 0-0.34375 0-0.34375 0.20312s0.17188 0.20312 0.34375 0.20312h0.40625c-0.015625 0.03125-0.15625 0.35938-0.1875 0.4375-0.078125 0.15625-0.20312 0.45312-0.20312 0.5 0 0.125 0.125 0.1875 0.20312 0.1875 0.125 0 0.17188-0.09375 0.1875-0.17188 0.15625-0.3125 0.3125-0.625 0.45312-0.95312h4.5312c0.17188 0 0.35938 0 0.35938-0.20312s-0.1875-0.20312-0.35938-0.20312h-4.3594l0.6875-1.5312h3.6719c0.17188 0 0.35938 0 0.35938-0.20312s-0.1875-0.20312-0.35938-0.20312h-3.4844l0.67188-1.5312c2.1094 0 3.1719-1.5312 3.1719-2.875 0-0.98438-0.51562-1.7344-0.9375-2.0938l0.51562-1.1719c0.015625-0.046875 0.0625-0.14062 0.0625-0.1875 0-0.125-0.125-0.1875-0.20312-0.1875-0.10938 0-0.17188 0.078125-0.23438 0.20312l-0.46875 1.0781c-0.53125-0.34375-1.1562-0.53125-1.7969-0.53125h-2.6875c-0.17188 0-0.34375 0-0.34375 0.1875 0 0.20312 0.17188 0.20312 0.34375 0.20312h2.6562c0.54688 0 1.0938 0.125 1.6562 0.51562zm2.2969-4.1719c0.45312 0.4375 0.71875 1.0469 0.71875 1.6875 0 1.2031-0.90625 2.4062-2.5938 2.4844z"/>
</g>
</defs>
<g transform="translate(-149.54 -126.52)">
<use x="148.71201" y="134.765" xlink:href="#a"/>
</g>
</svg>
