<?xml version="1.0" encoding="UTF-8"?>
<svg fill="#000000" version="1.1" viewBox="0 0 6.125 7.1094" xmlns="http://www.w3.org/2000/svg" xmlns:xlink="http://www.w3.org/1999/xlink">
<defs>
<g id="a">
<path d="m6.2656-1.9688c-0.09375 0.35938-0.21875 0.70312-0.46875 0.96875-0.3125 0.29688-0.75 0.35938-1.1719 0.35938-0.84375 0-1.75-0.34375-2.5469-0.67188 0.09375-0.0625 1.1562-1.0156 1.1562-1.3438 0-0.60938-0.54688-1.4062-0.73438-2-0.0625-0.17188-0.10938-0.34375-0.10938-0.54688 0-0.78125 0.67188-1.2188 1.3594-1.2188 0.5625 0 1.0625 0.29688 1.0625 1.0156 0 0.40625-0.078125 0.78125-0.078125 0.92188 0 0.25 0.26562 0.45312 0.40625 0.45312l1.1875-0.29688v-0.17188c-0.3125 0-0.67188-0.03125-0.67188-0.3125 0-0.17188 0.046875-0.625 0.046875-0.875 0-0.95312-0.625-1.1562-1.2344-1.1562-1.0938 0-2.1094 0.54688-2.6875 1.5469-0.09375 0.1875-0.1875 0.40625-0.1875 0.625 0 0.89062 0.92188 1.7656 0.92188 2.4062 0 0.375-0.40625 0.71875-0.78125 0.84375h-0.3125c-0.60938 0.09375-0.89062 0.89062-1.1094 1.4219l0.125 0.15625c0.23438-0.42188 0.54688-0.84375 0.84375-0.84375 0.21875 0 0.4375 0.0625 0.625 0.15625 0.90625 0.39062 1.9062 0.79688 2.8125 0.79688 0.89062 0 1.3594-0.25 1.7188-2.125z"/>
</g>
</defs>
<g transform="translate(-149.02 -127.92)">
<use x="148.71201" y="134.765" xlink:href="#a"/>
</g>
</svg>
