<?xml version="1.0" encoding="UTF-8"?>
<svg fill="#000000" version="1.1" viewBox="0 0 3.625 7.3281" xmlns="http://www.w3.org/2000/svg" xmlns:xlink="http://www.w3.org/1999/xlink">
<defs>
<g id="a">
<path d="m0.375-7.2812 0.28125 0.98438c0.20312 0.39062 0.48438 0.64062 0.85938 0.78125-0.625 0.375-0.92188 0.90625-0.92188 1.5625v0.29688l0.28125 0.70312c0.23438 0.34375 0.57812 0.54688 1 0.65625v1.2031h-0.85938v0.28125h0.85938v0.85938h0.85938v-0.85938h0.84375v-0.28125h-0.84375v-1.1562c0.78125-0.40625 1.2344-1.0469 1.2344-1.7031 0-0.625-0.34375-1.1562-1.0312-1.5625 0.57812-0.32812 0.9375-0.875 1.0625-1.625l-0.34375 0.70312c-0.28125 0.28125-0.64062 0.46875-1.0781 0.5625-1 0-1.7188-0.46875-2.2031-1.4062zm2 4.7656c-0.76562-0.53125-1.1562-1.1562-1.1562-1.8906 0-0.48438 0.35938-1 0.73438-1 0.45312 0 1.125 0.73438 1.3438 1.5312v0.64062c-0.14062 0.54688-0.39062 0.71875-0.92188 0.71875z"/>
</g>
</defs>
<g transform="translate(-149.09 -127.48)">
<use x="148.71201" y="134.765" xlink:href="#a"/>
</g>
</svg>
