<?xml version="1.0" encoding="UTF-8"?>
<svg fill="#000000" version="1.1" viewBox="0 0 6.5 7.2812" xmlns="http://www.w3.org/2000/svg" xmlns:xlink="http://www.w3.org/1999/xlink">
<defs>
<g id="a">
<path d="m6.0469-1.3281c-0.35938 0.35938-0.85938 0.75-1.3281 0.75-0.375 0-0.9375-0.25-1.3594-0.45312 0.46875-0.39062 1.1562-0.96875 1.1562-1.5156 0-0.76562-1.1719-1.4844-1.1719-2.0625 0-0.54688 0.4375-1.0312 0.75-1.2656 0.35938 0.09375 0.89062 0.14062 1.2656 0.14062 0.25 0 0.48438-0.03125 0.6875-0.15625l0.6875-0.89062v-0.23438c-0.26562 0.3125-0.64062 0.54688-1.0469 0.54688-0.90625 0-1.8906-0.375-2.8594-0.375-0.67188 0-1.2812 0.1875-1.7656 0.65625-0.42188 0.375-0.82812 1-0.82812 1.5469 0 0.40625 0.1875 0.73438 0.51562 0.98438l0.64062-0.64062c-0.35938-0.14062-0.65625-0.45312-0.65625-0.84375 0-0.84375 0.84375-1.0625 1.5-1.0625 0.53125 0 1.0781 0.078125 1.5938 0.26562-0.53125 0.51562-1.0625 1.1719-1.2188 1.9062 0.10938 0.65625 1.2188 1.4062 1.2188 1.9688 0 0.375-0.40625 0.75-0.75 0.95312-0.17188-0.0625-0.35938-0.0625-0.54688-0.0625h-0.29688c-0.4375 0.35938-0.84375 0.71875-1.2188 1.125l0.09375 0.15625c0.35938-0.26562 0.8125-0.59375 1.2344-0.59375 0.73438 0 1.3438 0.65625 2.125 0.75 0.64062-0.3125 1.1875-0.85938 1.6875-1.4375z"/>
</g>
</defs>
<g transform="translate(-148.95 -127.75)">
<use x="148.71201" y="134.765" xlink:href="#a"/>
</g>
</svg>
