<?xml version="1.0" encoding="UTF-8"?>
<svg fill="#000000" version="1.1" viewBox="0 0 7 7.3125" xmlns="http://www.w3.org/2000/svg" xmlns:xlink="http://www.w3.org/1999/xlink">
<defs>
<g id="a">
<path d="m2.25-6.125v-0.6875h-1.9219v0.29688h0.375c0.35938 0 0.65625 0.046875 0.65625 0.4375v5.3281c0 0.375-0.32812 0.4375-0.67188 0.4375h-0.35938v0.29688h2.9375v-0.29688h-0.375c-0.35938 0-0.64062-0.046875-0.64062-0.4375v-4.5625c0-0.0625-0.015625-0.125-0.015625-0.1875 0-0.21875 0.1875-0.40625 0.3125-0.5625 0.4375-0.46875 1.0469-0.71875 1.6562-0.71875 1.125 0 2.1562 0.875 2.2344 2.1406v3.0625c0 0.59375-0.20312 1.5625-1.0312 1.5625-0.40625 0-0.84375-0.21875-1.0625-0.57812h0.078125c0.3125 0 0.54688-0.23438 0.54688-0.54688 0-0.29688-0.20312-0.54688-0.54688-0.54688-0.26562 0-0.53125 0.1875-0.54688 0.48438v0.078125c0 0.8125 0.8125 1.3438 1.5625 1.3438 0.98438 0 1.8906-0.67188 1.8906-1.75v-2.9062c0-0.6875-0.1875-1.2188-0.65625-1.75-0.54688-0.59375-1.3594-0.90625-2.1719-0.90625-0.875 0-1.625 0.34375-2.25 0.96875z"/>
</g>
</defs>
<g transform="translate(-149.04 -127.67)">
<use x="148.71201" y="134.765" xlink:href="#a"/>
</g>
</svg>
