<?xml version="1.0" encoding="UTF-8"?>
<svg fill="#000000" version="1.1" viewBox="0 0 5.6406 8.2656" xmlns="http://www.w3.org/2000/svg" xmlns:xlink="http://www.w3.org/1999/xlink">
<defs>
<g id="a">
<path d="m0.59375-6.625v0.65625h2.8906c1.1406 0 2.0938 1.0469 2.0938 2.125 0 1.0625-0.9375 2.125-2.0781 2.125h-2.9062v0.65625h2.9062c1.5938 0 2.7344-1.3125 2.7344-2.7812 0-1.4844-1.125-2.7812-2.7031-2.7812zm5.3125 6.125c-0.14062 0.70312-0.45312 1.375-1.1094 1.375-0.70312 0-1.7188-1.2812-2.6406-1.2812-0.9375 0-1.5156 1.0469-1.5625 2.0469h0.32812c0.14062-0.71875 0.5-1.375 1.1719-1.375 0.6875 0 1.7031 1.2656 2.625 1.2656 0.9375 0 1.4531-1.1875 1.5156-2.0312z"/>
</g>
</defs>
<g transform="translate(-149.31 -128.14)">
<use x="148.71201" y="134.765" xlink:href="#a"/>
</g>
</svg>
