<?xml version="1.0" encoding="UTF-8"?>
<svg fill="#000000" width="5" height="7.2188" version="1.1" viewBox="0 0 5 7.2187" xmlns="http://www.w3.org/2000/svg" xmlns:xlink="http://www.w3.org/1999/xlink">
<defs>
<g id="a">
<path d="m3.4531-2.0781c-0.32812-0.29688-0.76562-0.4375-1.2188-0.4375-0.75 0-1.6875 0.40625-1.6875 1.3125 0 0.89062 0.82812 1.5 1.6719 1.5 0.76562 0 1.5938-0.53125 1.6406-1.4844 0-0.046875-0.015625-0.10938-0.015625-0.15625 0.015625-0.23438 0.015625-0.46875 0.015625-0.70312v-2.9062c0.25 0.5 0.48438 1 0.71875 1.5312 0.25 0.54688 0.5625 1.1875 0.5625 1.8125 0 0.14062-0.03125 0.375 0.1875 0.39062h0.015625c0.125 0 0.20312-0.10938 0.20312-0.23438-0.03125-0.28125-0.046875-0.5625-0.10938-0.84375-0.34375-1.4062-1.3594-2.5625-1.5469-4-0.015625-0.09375-0.03125-0.17188-0.03125-0.26562v-0.09375c0-0.125-0.0625-0.26562-0.20312-0.26562-0.17188 0-0.20312 0.15625-0.20312 0.29688z"/>
</g>
</defs>
<g transform="translate(-149.26 -127.84)">
<use x="148.71201" y="134.765" xlink:href="#a"/>
</g>
</svg>
