<?xml version="1.0" encoding="UTF-8"?>
<svg fill="#000000" version="1.1" viewBox="0 0 8.8438 5.2656" xmlns="http://www.w3.org/2000/svg" xmlns:xlink="http://www.w3.org/1999/xlink">
<defs>
<g id="a">
<path d="m9.4062-3.2656v-0.1875c-0.5625-0.28125-1.1875-0.82812-1.5156-1.6719h-0.29688c0.078125 0.25 0.26562 0.85938 0.95312 1.4688h-7.6406c-0.17188 0-0.34375 0-0.34375 0.20312 0 0.1875 0.17188 0.1875 0.34375 0.1875zm-0.35938 1.9375c0.1875 0 0.35938 0 0.35938-0.20312 0-0.1875-0.1875-0.1875-0.35938-0.1875h-8.4844v0.1875c0.54688 0.28125 1.1875 0.82812 1.5 1.6719h0.3125c-0.078125-0.25-0.26562-0.85938-0.95312-1.4688z"/>
</g>
</defs>
<g transform="translate(-149.27 -129.64)">
<use x="148.71201" y="134.765" xlink:href="#a"/>
</g>
</svg>
