<?xml version="1.0" encoding="UTF-8"?>
<svg fill="#000000" version="1.1" viewBox="0 0 7.6406 6.8083" xmlns="http://www.w3.org/2000/svg" xmlns:xlink="http://www.w3.org/1999/xlink">
<defs>
<g id="a">
<path d="m0.32812-6.8125v0.29688c0.23438 0 0.45312 0 0.67188 0.03125 0.10938 0.015625 0.23438 0.03125 0.29688 0.14062 0.078125 0.10938 0.0625 0.28125 0.0625 0.42188v4.9219c0 0.15625 0 0.32812-0.078125 0.46875-0.0625 0.10938-0.1875 0.15625-0.29688 0.17188-0.21875 0.046875-0.4375 0.046875-0.65625 0.046875v0.29688h4.0156v-0.29688c-0.20312 0-0.42188 0-0.64062-0.03125-0.10938-0.03125-0.23438-0.078125-0.29688-0.17188-0.10938-0.15625-0.09375-0.35938-0.09375-0.53125v-5.1094h0.015625c0.09375 0.1875 0.20312 0.35938 0.29688 0.54688 0.21875 0.40625 0.4375 0.79688 0.65625 1.1875 0.54688 1.0156 1.1094 2.0312 1.6562 3.0312 0.21875 0.39062 0.42188 0.76562 0.625 1.1406 0.0625 0.10938 0.10938 0.25 0.25 0.23438 0.03125 0 0.0625 0 0.078125-0.03125 0.046875-0.03125 0.046875-0.078125 0.046875-0.125v-0.25-5.2031c0-0.17188-0.015625-0.35938 0.078125-0.51562 0.17188-0.34375 0.60938-0.375 0.95312-0.375v-0.29688h-2.3438v0.29688c0.34375 0 0.78125 0.03125 0.95312 0.35938 0.09375 0.15625 0.078125 0.32812 0.078125 0.5v3.875c-0.09375-0.125-0.14062-0.26562-0.21875-0.40625-0.14062-0.23438-0.28125-0.48438-0.40625-0.71875-0.46875-0.85938-0.92188-1.6875-1.3906-2.5312-0.1875-0.32812-0.35938-0.65625-0.54688-1-0.03125-0.078125-0.09375-0.15625-0.14062-0.23438-0.015625-0.046875-0.03125-0.10938-0.078125-0.125-0.09375-0.046875-0.21875-0.015625-0.3125-0.015625zm2.7188 0.29688v6.2031h-0.79688v-6.2031z"/>
</g>
</defs>
<g transform="translate(-149.04 -127.94)">
<use x="148.71201" y="134.765" xlink:href="#a"/>
</g>
</svg>
