<?xml version="1.0" encoding="UTF-8"?>
<svg fill="#000000" version="1.1" viewBox="0 0 5.5625 10.328" xmlns="http://www.w3.org/2000/svg" xmlns:xlink="http://www.w3.org/1999/xlink">
<defs>
<g id="a">
<path d="m0.65625-7.1406v0.65625h2.8594c1.1406 0 2.0469 1.0469 2.0469 2.125 0 1.0625-0.89062 2.0938-2.0312 2.0938h-2.875v0.65625h2.875c1.5938 0 2.6875-1.2812 2.6875-2.75 0-1.4844-1.0781-2.7812-2.6562-2.7812zm5.4688 9.25v-0.65625h-2.75l0.73438-1.3281h2.0156v-0.65625h-1.6562l0.48438-0.85938h-0.60938l-0.48438 0.85938h-3.2031v0.65625h2.8438l-0.73438 1.3281h-2.1094v0.65625h1.7344l-0.59375 1.0781h0.60938l0.60938-1.0781z"/>
</g>
</defs>
<g transform="translate(-149.37 -127.62)">
<use x="148.71201" y="134.765" xlink:href="#a"/>
</g>
</svg>
