<?xml version="1.0" encoding="UTF-8"?>
<svg fill="#000000" version="1.1" viewBox="0 0 6.75 6.75" xmlns="http://www.w3.org/2000/svg" xmlns:xlink="http://www.w3.org/1999/xlink">
<defs>
<g id="a">
<path d="m0.54688-6.7656-0.1875 2.25h0.25c0.015625-0.10938 0.015625-0.20312 0.03125-0.3125 0.046875-0.5 0.14062-1.1094 0.60938-1.375 0.20312-0.125 0.40625-0.17188 0.625-0.20312 0.1875-0.03125 0.39062-0.046875 0.59375-0.03125 0.078125 0 0.17188 0.03125 0.21875 0.09375 0.078125 0.10938 0.046875 0.28125 0.046875 0.40625v5.0469c0 0.14062 0.015625 0.29688-0.046875 0.40625-0.078125 0.10938-0.1875 0.125-0.3125 0.14062-0.23438 0.03125-0.46875 0.03125-0.70312 0.03125v0.29688h4.125v-0.29688c-0.23438 0-0.46875 0-0.71875-0.03125-0.10938-0.015625-0.21875-0.03125-0.29688-0.14062-0.0625-0.10938-0.046875-0.26562-0.046875-0.40625v-5.0469c0-0.125-0.03125-0.29688 0.046875-0.40625 0.046875-0.078125 0.14062-0.09375 0.23438-0.09375 0.1875-0.015625 0.39062-0.015625 0.57812 0.015625 0.17188 0.015625 0.34375 0.046875 0.5 0.125 0.09375 0.046875 0.17188 0.09375 0.25 0.15625 0.20312 0.17188 0.3125 0.42188 0.39062 0.6875 0.078125 0.3125 0.10938 0.625 0.125 0.9375h0.25l-0.1875-2.25zm3.875 0.3125v6.1406h-0.79688v-6.1406z"/>
</g>
</defs>
<g transform="translate(-149.07 -128)">
<use x="148.71201" y="134.765" xlink:href="#a"/>
</g>
</svg>
