<?xml version="1.0" encoding="UTF-8"?>
<svg fill="#000000" version="1.1" viewBox="0 0 5.9062 5.2969" xmlns="http://www.w3.org/2000/svg" xmlns:xlink="http://www.w3.org/1999/xlink">
<defs>
<g id="a">
<path d="m3.0156-2.5625c0-0.17188-0.28125-0.96875-0.35938-1.2188 0.6875 0.4375 1.3438 0.26562 1.75 0.59375 0.3125 0.25 0.35938 0.6875 0.35938 1.2812 0 0.6875 0.078125 1.25 0.53125 1.6094 0.3125 0.28125 0.71875 0.32812 1.0781 0.32812 0.25 0 0.5-0.015625 0.71875-0.015625 0.125 0 0.21875-0.10938 0.21875-0.23438s-0.09375-0.23438-0.21875-0.23438c-0.25 0-0.5 0.03125-0.71875 0.03125-0.9375 0-1.1562-0.4375-1.1562-1.4844 0-0.70312-0.078125-1.2656-0.53125-1.625-0.4375-0.39062-1.0625-0.32812-1.5-0.5-0.20312-0.0625-0.39062-0.20312-0.57812-0.35938 0.54688-0.1875 1.125-0.23438 1.6719-0.42188 0.09375-0.046875 0.15625-0.125 0.15625-0.21875 0-0.14062-0.125-0.23438-0.23438-0.23438-0.125 0-0.78125 0.32812-1.6094 0.32812-0.29688 0-0.59375-0.046875-0.875-0.14062-0.03125-0.015625-0.046875-0.015625-0.078125-0.015625-0.14062 0-0.23438 0.078125-0.23438 0.21875 0 0.29688 0.8125 0.42188 1.1406 2.3594 0.03125 0.10938 0.125 0.1875 0.23438 0.1875 0.14062 0 0.23438-0.10938 0.23438-0.23438z"/>
</g>
</defs>
<g transform="translate(-150.12 -129.5)">
<use x="148.71201" y="134.765" xlink:href="#a"/>
</g>
</svg>
