<?xml version="1.0" encoding="UTF-8"?>
<svg fill="#000000" version="1.1" viewBox="0 0 1.9431 2.7252" xmlns="http://www.w3.org/2000/svg" xmlns:xlink="http://www.w3.org/1999/xlink">
<defs>
<g id="a">
<path d="m2.3906-6.1094c-0.10938 0.03125-0.20312 0.0625-0.28125 0.14062-0.17188 0.17188-0.17188 0.5 0.03125 0.67188 0.23438 0.21875 0.65625 0.10938 0.73438-0.21875 0.078125-0.28125-0.078125-0.57812-0.28125-0.73438-0.10938-0.09375-0.25-0.15625-0.39062-0.1875-0.10938-0.015625-0.23438-0.03125-0.34375-0.015625-0.0625 0-0.14062 0.015625-0.1875 0.046875-0.46875 0.15625-0.65625 0.70312-0.70312 1.1562-0.015625 0.078125-0.015625 0.15625-0.015625 0.23438v0.39062 0.67188c0 0.078125-0.015625 0.1875 0.09375 0.21875 0.0625 0 0.17188 0 0.20312-0.0625s0.015625-0.15625 0.015625-0.20312v-0.45312c0-0.4375-0.015625-0.90625 0.14062-1.3281 0.078125-0.21875 0.23438-0.42188 0.48438-0.45312h0.20312c0.10938 0.03125 0.20312 0.078125 0.29688 0.125z"/>
</g>
</defs>
<g transform="translate(-149.66 -128.31)">
<use x="148.71201" y="134.765" xlink:href="#a"/>
</g>
</svg>
