<?xml version="1.0" encoding="UTF-8"?>
<svg fill="#000000" version="1.1" viewBox="0 0 4.3125 6.125" xmlns="http://www.w3.org/2000/svg" xmlns:xlink="http://www.w3.org/1999/xlink">
<defs>
<g id="a">
<path d="m4.6406 0.046875h-3.8594c-0.125 0-0.21875 0.10938-0.21875 0.23438s0.09375 0.23438 0.21875 0.23438h3.8594c0.14062 0 0.23438-0.10938 0.23438-0.23438s-0.09375-0.23438-0.23438-0.23438zm-0.21875-1.3594-3.1719-1.8281 3.1719-1.8281zm0.45312 0.39062v-4.4531c0-0.15625-0.14062-0.23438-0.23438-0.23438-0.03125 0-0.078125 0.015625-0.10938 0.03125l-3.8594 2.2344c-0.078125 0.046875-0.10938 0.10938-0.10938 0.20312 0 0.078125 0.03125 0.15625 0.10938 0.1875l3.8594 2.2344c0.03125 0.015625 0.078125 0.03125 0.10938 0.03125 0.09375 0 0.23438-0.0625 0.23438-0.23438z"/>
</g>
</defs>
<g transform="translate(-149.27 -129.16)">
<use x="148.71201" y="134.765" xlink:href="#a"/>
</g>
</svg>
