<?xml version="1.0" encoding="UTF-8"?>
<svg fill="#000000" version="1.1" viewBox="0 0 7.4826 7.4796" xmlns="http://www.w3.org/2000/svg" xmlns:xlink="http://www.w3.org/1999/xlink">
<defs>
<g id="a">
<path d="m0.20312-6.2344c-0.046875 0.03125-0.0625 0.078125-0.0625 0.125-0.015625 0.09375 0 0.1875 0 0.28125v6.8906c0 0.046875 0 0.09375 0.03125 0.14062 0.03125 0.03125 0.09375 0.03125 0.14062 0.03125h0.29688 6.7812c0.046875 0 0.10938 0.015625 0.15625-0.015625 0.046875-0.015625 0.0625-0.0625 0.0625-0.10938 0.015625-0.10938 0-0.1875 0-0.29688v-6.875c0-0.046875 0-0.09375-0.015625-0.14062-0.03125-0.03125-0.09375-0.03125-0.14062-0.03125h-0.3125-6.7656c-0.0625 0-0.10938-0.015625-0.17188 0zm0.32812 3.5312v-3.1406h3.1406v3.1406zm3.5469 0v-3.1406h3.1406v3.1406zm-3.5469 3.5469v-3.1406h6.6875v3.1406z"/>
</g>
</defs>
<g transform="translate(-148.85 -128.52)">
<use x="148.71201" y="134.765" xlink:href="#a"/>
</g>
</svg>
