<?xml version="1.0" encoding="UTF-8"?>
<svg fill="#000000" version="1.1" viewBox="0 0 9.2188 6.8047" xmlns="http://www.w3.org/2000/svg" xmlns:xlink="http://www.w3.org/1999/xlink">
<defs>
<g id="a">
<path d="m0.375-6.8125v0.29688c0.21875 0 0.4375 0 0.67188 0.03125 0.10938 0.015625 0.23438 0.03125 0.28125 0.14062 0.09375 0.10938 0.0625 0.28125 0.0625 0.42188v4.9219c0 0.15625 0.015625 0.32812-0.0625 0.46875-0.078125 0.10938-0.20312 0.15625-0.32812 0.1875-0.21875 0.03125-0.42188 0.03125-0.625 0.03125v0.29688h4.0156v-0.29688c-0.21875 0-0.42188 0-0.625-0.03125-0.14062-0.03125-0.25-0.078125-0.32812-0.1875-0.09375-0.15625-0.078125-0.35938-0.078125-0.54688v-5.2969h0.015625c0.03125 0.1875 0.10938 0.375 0.15625 0.54688 0.125 0.32812 0.23438 0.64062 0.32812 0.96875 0.34375 1.125 0.71875 2.25 1.0938 3.375 0.125 0.375 0.25 0.75 0.375 1.1406 0.03125 0.10938 0.0625 0.32812 0.21875 0.32812s0.1875-0.23438 0.21875-0.34375c0.125-0.375 0.25-0.76562 0.375-1.1406 0.375-1.125 0.73438-2.25 1.0938-3.375 0.10938-0.34375 0.21875-0.67188 0.32812-1 0.03125-0.10938 0.0625-0.21875 0.10938-0.32812 0.03125-0.09375 0.046875-0.17188 0.078125-0.26562v5.5c0 0.15625 0.03125 0.35938-0.046875 0.5-0.078125 0.09375-0.20312 0.10938-0.3125 0.125-0.21875 0.03125-0.4375 0.03125-0.65625 0.03125v0.29688h2.8594v-0.29688c-0.23438 0-0.45312 0-0.6875-0.03125-0.10938-0.015625-0.21875-0.03125-0.29688-0.14062-0.0625-0.125-0.046875-0.28125-0.046875-0.40625v-5.0312c0-0.14062-0.015625-0.3125 0.0625-0.42188 0.0625-0.10938 0.17188-0.125 0.28125-0.14062 0.23438-0.03125 0.45312-0.03125 0.6875-0.03125v-0.29688h-1.7344c-0.0625 0-0.14062-0.015625-0.1875 0.03125-0.046875 0.03125-0.0625 0.09375-0.078125 0.14062-0.03125 0.09375-0.0625 0.1875-0.09375 0.26562-0.10938 0.35938-0.23438 0.71875-0.34375 1.0625-0.3125 0.95312-0.60938 1.8906-0.92188 2.8281-0.078125 0.26562-0.17188 0.54688-0.26562 0.8125-0.046875 0.14062-0.09375 0.29688-0.14062 0.45312-0.0625-0.15625-0.10938-0.3125-0.15625-0.45312-0.09375-0.26562-0.17188-0.54688-0.26562-0.8125-0.3125-0.95312-0.60938-1.9062-0.9375-2.875l-0.32812-1.0312c-0.03125-0.078125-0.046875-0.17188-0.078125-0.25-0.03125-0.0625-0.046875-0.125-0.09375-0.14062-0.078125-0.0625-0.20312-0.03125-0.29688-0.03125zm2.7031 0.29688v6.2031h-0.79688v-6.2031z"/>
</g>
</defs>
<g transform="translate(-149.09 -127.94)">
<use x="148.71201" y="134.765" xlink:href="#a"/>
</g>
</svg>
