<?xml version="1.0" encoding="UTF-8"?>
<svg fill="#000000" version="1.1" viewBox="0 0 2.7656 9.2969" xmlns="http://www.w3.org/2000/svg" xmlns:xlink="http://www.w3.org/1999/xlink">
<defs>
<g id="a">
<path d="m2.6406 0.1875v1.1719c0 0.1875 0 0.26562 0.10938 0.26562 0.14062 0 0.14062-0.09375 0.14062-0.28125v-1.25c0.046875 0 0.28125-0.078125 0.29688-0.078125 0.125-0.046875 0.125-0.0625 0.125-0.29688v-0.25c0-0.17188 0-0.26562-0.10938-0.26562-0.046875 0-0.26562 0.0625-0.3125 0.09375v-3.5c0.046875 0 0.28125-0.078125 0.29688-0.078125 0.125-0.046875 0.125-0.0625 0.125-0.29688v-0.25c0-0.17188 0-0.26562-0.10938-0.26562-0.046875 0-0.26562 0.0625-0.3125 0.09375v-1.875c0-0.17188 0-0.26562-0.10938-0.26562-0.14062 0-0.14062 0.09375-0.14062 0.28125v1.9375l-1.4219 0.4375v-1.8594c0-0.1875 0-0.26562-0.10938-0.26562-0.125 0-0.125 0.09375-0.125 0.28125v1.9375c-0.046875 0-0.28125 0.078125-0.3125 0.078125-0.10938 0.046875-0.125 0.0625-0.125 0.29688v0.25c0 0.17188 0 0.26562 0.10938 0.26562 0.046875 0 0.26562-0.0625 0.32812-0.09375v3.5c-0.046875 0-0.28125 0.078125-0.3125 0.078125-0.10938 0.046875-0.125 0.0625-0.125 0.29688v0.25c0 0.17188 0 0.26562 0.10938 0.26562 0.046875 0 0.26562-0.0625 0.32812-0.09375v1.1875c0 0.17188 0 0.26562 0.10938 0.26562 0.125 0 0.125-0.09375 0.125-0.28125v-1.25zm0-4.2969v3.4844l-1.4219 0.4375v-3.4844z"/>
</g>
</defs>
<g transform="translate(-149.26 -127.62)">
<use x="148.71201" y="134.765" xlink:href="#a"/>
</g>
</svg>
