<?xml version="1.0" encoding="UTF-8"?>
<svg fill="#000000" version="1.1" viewBox="0 0 6.6406 6.6406" xmlns="http://www.w3.org/2000/svg" xmlns:xlink="http://www.w3.org/1999/xlink">
<defs>
<g id="a">
<path d="m7.2031-2.5c0-1.8281-1.5-3.3125-3.3281-3.3125s-3.3125 1.5-3.3125 3.3125c0 1.8438 1.4844 3.3281 3.3125 3.3281 1.8438 0 3.3281-1.5 3.3281-3.3281zm-3.3281 3.0781c-1.6875 0-3.0625-1.375-3.0625-3.0781 0-1.6875 1.375-3.0625 3.0625-3.0625 1.7031 0 3.0781 1.375 3.0781 3.0625 0 1.7031-1.375 3.0781-3.0781 3.0781zm1.2031-2.0781c0.125 0.078125 0.28125 0.21875 0.35938 0.21875 0.15625 0 0.28125-0.14062 0.28125-0.28125 0-0.15625-0.078125-0.1875-0.23438-0.26562-0.125-0.0625-0.75-0.34375-1.375-0.67188l1.3906-0.65625c0.14062-0.078125 0.21875-0.10938 0.21875-0.26562 0-0.14062-0.125-0.28125-0.28125-0.28125-0.078125 0-0.14062 0.046875-0.17188 0.078125l-1.2656 0.9375 0.14062-1.5625c0-0.14062 0-0.39062-0.26562-0.39062-0.14062 0-0.28125 0.125-0.25 0.25v0.14062l0.14062 1.5469-1.0938-0.78125c-0.125-0.078125-0.28125-0.21875-0.35938-0.21875-0.15625 0-0.26562 0.14062-0.26562 0.28125 0 0.15625 0.09375 0.20312 0.20312 0.25l1.4062 0.67188-1.4062 0.67188c-0.14062 0.078125-0.20312 0.10938-0.20312 0.26562 0 0.14062 0.10938 0.28125 0.26562 0.28125 0.0625 0 0.23438-0.125 0.34375-0.20312l1.1094-0.79688-0.15625 1.6719c0 0.1875 0.15625 0.26562 0.26562 0.26562s0.26562-0.078125 0.26562-0.26562c0-0.03125-0.046875-0.5-0.046875-0.53125 0-0.015625-0.03125-0.40625-0.046875-0.60938l-0.046875-0.53125z"/>
</g>
</defs>
<g transform="translate(-149.27 -128.95)">
<use x="148.71201" y="134.765" xlink:href="#a"/>
</g>
</svg>
