<?xml version="1.0" encoding="UTF-8"?>
<svg fill="#000000" version="1.1" viewBox="0 0 9.8906 7.0156" xmlns="http://www.w3.org/2000/svg" xmlns:xlink="http://www.w3.org/1999/xlink">
<defs>
<g id="a">
<path d="m0.17188-6.8125v0.29688h0.26562c0.28125 0 0.51562 0.046875 0.65625 0.40625 0.17188 0.59375 0.375 1.1719 0.5625 1.75h-0.78125c-0.0625 0.015625-0.125 0.0625-0.125 0.125s0.0625 0.09375 0.15625 0.09375h0.57812 0.125c0.1875 0 0.23438 0.375 0.29688 0.54688 0.125 0.39062 0.26562 0.78125 0.375 1.1719h-1.1719c-0.046875 0-0.10938-0.015625-0.15625-0.015625-0.078125 0-0.20312 0.03125-0.20312 0.10938v0.03125c0 0.046875 0.03125 0.078125 0.09375 0.09375h1.5156c0.046875 0.1875 0.125 0.375 0.1875 0.5625 0.17188 0.54688 0.35938 1.1094 0.53125 1.6562 0.03125 0.10938 0.078125 0.1875 0.1875 0.1875 0.15625 0 0.1875-0.15625 0.23438-0.26562l0.09375-0.28125c0.15625-0.51562 0.32812-1.0469 0.5-1.5625 0.03125-0.09375 0.078125-0.20312 0.09375-0.29688h1.8594c0.046875 0.23438 0.15625 0.48438 0.23438 0.71875 0.125 0.375 0.25 0.76562 0.375 1.1406l0.078125 0.28125c0.046875 0.10938 0.078125 0.26562 0.23438 0.26562 0.20312 0 0.25-0.35938 0.3125-0.54688 0.14062-0.4375 0.28125-0.875 0.42188-1.2969 0.046875-0.1875 0.125-0.375 0.17188-0.5625h1.5312c0.046875-0.015625 0.078125-0.046875 0.078125-0.09375v-0.03125c0-0.078125-0.125-0.10938-0.1875-0.10938s-0.10938 0.015625-0.17188 0.015625h-1.1719c0.14062-0.5 0.32812-1.0156 0.48438-1.5156 0.03125-0.078125 0.03125-0.20312 0.1875-0.20312h0.125 0.57812c0.09375 0 0.15625-0.015625 0.15625-0.09375 0-0.0625-0.046875-0.10938-0.10938-0.125h-0.79688c0.14062-0.40625 0.26562-0.79688 0.40625-1.2188 0.078125-0.23438 0.14062-0.48438 0.3125-0.67188 0.20312-0.20312 0.5-0.26562 0.76562-0.26562v-0.29688h-2.0938v0.29688c0.28125 0 0.82812 0.10938 0.85938 0.53125 0 0.14062-0.078125 0.3125-0.14062 0.46875-0.10938 0.375-0.28125 0.76562-0.35938 1.1562h-1.9844c-0.15625 0-0.1875-0.28125-0.23438-0.4375-0.125-0.42188-0.28125-0.82812-0.40625-1.25-0.015625-0.0625-0.046875-0.10938-0.046875-0.15625 0-0.29688 0.48438-0.3125 0.78125-0.3125h0.0625v-0.29688h-2.625v0.29688h0.26562c0.4375 0 0.53125 0.10938 0.76562 0.79688 0.015625 0.0625 0.0625 0.17188 0.0625 0.25v0.03125c-0.046875 0.35938-0.28125 0.71875-0.32812 1.0781h-1.9844c-0.15625 0-0.1875-0.26562-0.23438-0.42188-0.14062-0.42188-0.29688-0.84375-0.42188-1.2969-0.015625-0.03125-0.03125-0.078125-0.03125-0.125 0-0.29688 0.54688-0.3125 0.84375-0.3125v-0.29688zm6.1406 2.6719h1.9375l-0.54688 1.7188h-0.8125l-0.0625-0.15625-0.39062-1.1875zm-3.6875 0h1.9375l-0.57812 1.7031-0.125 0.015625h-0.54688l-0.10938-0.015625-0.0625-0.14062-0.09375-0.32812zm1.6406 1.7188 0.54688-1.7188h0.60938l0.54688 1.7188zm-1 0.21875h0.65625l-0.32812 1.0156zm4.0156 1.0156-0.32812-1.0156h0.65625zm-2.3906-3.1719 0.23438-0.6875 0.21875 0.6875z"/>
</g>
</defs>
<g transform="translate(-148.88 -127.95)">
<use x="148.71201" y="134.765" xlink:href="#a"/>
</g>
</svg>
