<?xml version="1.0" encoding="UTF-8"?>
<svg fill="#000000" version="1.1" viewBox="0 0 6.4375 6.4375" xmlns="http://www.w3.org/2000/svg" xmlns:xlink="http://www.w3.org/1999/xlink">
<defs>
<g id="a">
<path d="m6.1094-2.7656c0 0.65625-0.25 1.2969-0.71875 1.75-0.46875 0.46875-1.0938 0.71875-1.75 0.71875s-1.2812-0.25-1.75-0.71875c-0.45312-0.45312-0.71875-1.0938-0.71875-1.75 0-0.64062 0.26562-1.2812 0.71875-1.7344 0.46875-0.46875 1.0938-0.73438 1.75-0.73438s1.2812 0.26562 1.75 0.73438c0.46875 0.45312 0.71875 1.0938 0.71875 1.7344zm-4.3594-2.1562-0.98438-1c-0.03125-0.046875-0.09375-0.0625-0.14062-0.0625-0.10938 0-0.20312 0.10938-0.20312 0.20312 0 0.046875 0.015625 0.10938 0.0625 0.14062l0.98438 1c-0.4375 0.53125-0.70312 1.1875-0.70312 1.875 0 0.70312 0.26562 1.375 0.70312 1.8906l-0.98438 1c-0.046875 0.03125-0.0625 0.078125-0.0625 0.14062 0 0.10938 0.09375 0.1875 0.20312 0.1875 0.046875 0 0.10938-0.015625 0.14062-0.046875l0.98438-1c0.53125 0.45312 1.2031 0.70312 1.8906 0.70312 0.70312 0 1.3594-0.25 1.875-0.70312l1 1c0.046875 0.03125 0.09375 0.046875 0.14062 0.046875 0.10938 0 0.20312-0.078125 0.20312-0.1875 0-0.0625-0.015625-0.10938-0.046875-0.14062l-1-1c0.45312-0.51562 0.70312-1.1875 0.70312-1.8906 0-0.6875-0.25-1.3438-0.70312-1.875l1-1c0.03125-0.03125 0.046875-0.09375 0.046875-0.14062 0-0.10938-0.09375-0.20312-0.20312-0.20312-0.046875 0-0.09375 0.015625-0.14062 0.0625l-1 1c-0.51562-0.45312-1.1719-0.70312-1.875-0.70312-0.6875 0-1.3594 0.25-1.8906 0.70312z"/>
</g>
</defs>
<g transform="translate(-149.13 -128.78)">
<use x="148.71201" y="134.765" xlink:href="#a"/>
</g>
</svg>
