<?xml version="1.0" encoding="UTF-8"?>
<svg fill="#000000" version="1.1" viewBox="0 0 4.0312 8.4844" xmlns="http://www.w3.org/2000/svg" xmlns:xlink="http://www.w3.org/1999/xlink">
<defs>
<g id="a">
<path d="m3.875-7.5c0-0.10938-0.09375-0.20312-0.20312-0.20312-0.15625 0-0.1875 0.10938-0.25 0.32812-0.10938 0.39062-0.015625 0.046875-0.125 0.45312-0.10938-0.0625-0.4375-0.21875-0.79688-0.21875-0.57812 0-1.2188 0.29688-1.5938 1.0625-0.39062 0.8125-0.4375 1.7188-0.4375 2.6406 0 0.625 0 2.4219 0.85938 3.2031-0.21875 0.76562-0.21875 0.78125-0.21875 0.8125 0 0.10938 0.078125 0.20312 0.20312 0.20312 0.14062 0 0.17188-0.10938 0.23438-0.32812 0.125-0.39062 0.015625-0.046875 0.125-0.4375 0.23438 0.125 0.54688 0.20312 0.8125 0.20312 1.1094 0 1.5469-0.9375 1.7344-1.4219 0.25-0.6875 0.28125-1.5156 0.28125-2.2344 0-0.73438 0-2.3906-0.85938-3.2188zm-2.4062 6.7969c-0.32812-0.6875-0.32812-1.9062-0.32812-2.8594 0-0.79688 0-1.4844 0.14062-2.125 0.1875-0.9375 0.76562-1.2344 1.2188-1.2344 0.1875 0 0.45312 0.0625 0.70312 0.28125zm2.0469-5.5312c0.32812 0.57812 0.32812 1.7344 0.32812 2.6719 0 0.73438 0 1.4688-0.125 2.1406-0.1875 1.0469-0.70312 1.4219-1.2344 1.4219-0.23438 0-0.46875-0.078125-0.70312-0.29688z"/>
</g>
</defs>
<g transform="translate(-149.18 -127.06)">
<use x="148.71201" y="134.765" xlink:href="#a"/>
</g>
</svg>
