<?xml version="1.0" encoding="UTF-8"?>
<svg fill="#000000" version="1.1" viewBox="0 0 9.9415 7.25" xmlns="http://www.w3.org/2000/svg" xmlns:xlink="http://www.w3.org/1999/xlink">
<defs>
<g id="a">
<path d="m3.4844-3.875-1.2812-0.29688c-0.625-0.15625-1-0.6875-1-1.2656 0-0.70312 0.53125-1.3125 1.3125-1.3125 1.6562 0 1.875 1.6406 1.9375 2.0781 0.015625 0.0625 0.015625 0.125 0.125 0.125 0.125 0 0.125-0.046875 0.125-0.23438v-2c0-0.17188 0-0.25-0.10938-0.25-0.0625 0-0.078125 0.015625-0.14062 0.14062l-0.35938 0.5625c-0.29688-0.29688-0.70312-0.70312-1.5938-0.70312-1.1094 0-1.9375 0.875-1.9375 1.9375 0 0.82812 0.53125 1.5625 1.2969 1.8281 0.10938 0.03125 0.625 0.15625 1.3281 0.32812 0.26562 0.0625 0.5625 0.14062 0.84375 0.5 0.20312 0.26562 0.3125 0.59375 0.3125 0.92188 0 0.70312-0.5 1.4219-1.3438 1.4219-0.28125 0-1.0469-0.046875-1.5781-0.53125-0.57812-0.54688-0.60938-1.1719-0.60938-1.5312-0.015625-0.10938-0.09375-0.10938-0.125-0.10938-0.125 0-0.125 0.078125-0.125 0.25v2c0 0.17188 0 0.23438 0.10938 0.23438 0.0625 0 0.078125-0.015625 0.14062-0.125 0-0.015625 0.03125-0.046875 0.35938-0.57812 0.3125 0.34375 0.95312 0.70312 1.8438 0.70312 1.1562 0 1.9531-0.96875 1.9531-2.0781 0-0.98438-0.65625-1.8125-1.4844-2.0156z"/>
</g>
</defs>
<g transform="translate(-149.27 -127.73)">
<use x="148.71201" y="134.765" xlink:href="#a"/>
<use x="154.24722" y="134.765" xlink:href="#a"/>
</g>
</svg>
