<?xml version="1.0" encoding="UTF-8"?>
<svg fill="#000000" version="1.1" viewBox="0 0 7.7344 6.9219" xmlns="http://www.w3.org/2000/svg" xmlns:xlink="http://www.w3.org/1999/xlink">
<defs>
<g id="a">
<path d="m0.95312-6.5625c0-0.17188 0-0.35938-0.20312-0.35938-0.1875 0-0.1875 0.1875-0.1875 0.35938v6.2031c0 0.17188 0 0.35938 0.1875 0.35938 0.20312 0 0.20312-0.17188 0.20312-0.34375zm3.6094 3.2969h3.375c0.17188 0 0.35938 0 0.35938-0.1875 0-0.20312-0.1875-0.20312-0.35938-0.20312h-3.375v-2.9062c0-0.17188 0-0.35938-0.20312-0.35938-0.1875 0-0.1875 0.1875-0.1875 0.35938v6.2031c0 0.17188 0 0.35938 0.1875 0.35938 0.20312 0 0.20312-0.17188 0.20312-0.34375zm-1.7969-3.2969c0-0.17188 0-0.35938-0.20312-0.35938s-0.20312 0.1875-0.20312 0.35938v6.2031c0 0.17188 0 0.35938 0.20312 0.35938s0.20312-0.17188 0.20312-0.34375z"/>
</g>
</defs>
<g transform="translate(-149.27 -127.84)">
<use x="148.71201" y="134.765" xlink:href="#a"/>
</g>
</svg>
