<?xml version="1.0" encoding="UTF-8"?>
<svg fill="#000000" version="1.1" viewBox="0 0 6.5938 3.4375" xmlns="http://www.w3.org/2000/svg" xmlns:xlink="http://www.w3.org/1999/xlink">
<defs>
<g id="a">
<path d="m4.3281-2.5469c-0.59375 0.60938-1.0938 1.2656-1.8281 1.2656-0.67188 0-1.2188-0.57812-1.2188-1.2656s0.54688-1.2656 1.2188-1.2656c0.73438 0 1.2344 0.65625 1.8281 1.2656zm0.3125-0.32812c-0.54688-0.59375-1.1875-1.3906-2.1406-1.3906-0.9375 0-1.6719 0.78125-1.6719 1.7188s0.73438 1.7188 1.6719 1.7188 1.5312-0.73438 2.1406-1.3906c0.6875 0.6875 1.2344 1.3906 2.1562 1.3906h0.39062c0.125 0 0.23438-0.10938 0.23438-0.23438s-0.10938-0.21875-0.23438-0.21875h-0.39062c-0.71875 0-1.2344-0.65625-1.8281-1.2656 0.59375-0.60938 1.1094-1.2656 1.8281-1.2656h0.39062c0.125 0 0.23438-0.09375 0.23438-0.21875s-0.10938-0.23438-0.23438-0.23438h-0.39062c-0.9375 0-1.5156 0.73438-2.1562 1.3906z"/>
</g>
</defs>
<g transform="translate(-149.54 -130.5)">
<use x="148.71201" y="134.765" xlink:href="#a"/>
</g>
</svg>
