<?xml version="1.0" encoding="UTF-8"?>
<svg fill="#000000" version="1.1" viewBox="0 0 9.8281 7.2812" xmlns="http://www.w3.org/2000/svg" xmlns:xlink="http://www.w3.org/1999/xlink">
<defs>
<g id="a">
<path d="m6.7344-6.625c-0.60938 0-1.2969 0.10938-2.0156 0.39062-0.53125 0.20312-1.125 0.51562-1.4375 0.95312-0.20312 0.28125-0.26562 0.51562-0.26562 0.73438 0 0.32812 0.17188 0.59375 0.40625 0.78125 0.5 0.45312 1.2656 0.60938 2.1406 0.625-0.26562 0.32812-0.51562 0.67188-0.75 1-0.78125 1.1094-2.1406 2.1406-3.125 2.1406-0.6875 0-1.1562-0.20312-1.1562-0.60938 0-0.09375 0.03125-0.20312 0.09375-0.34375 0.0625 0.10938 0.17188 0.15625 0.29688 0.15625 0.25 0 0.5625-0.20312 0.5625-0.39062 0-0.25-0.15625-0.34375-0.32812-0.34375-0.20312 0-0.45312 0.125-0.57812 0.29688-0.17188 0.25-0.26562 0.48438-0.26562 0.67188 0 0.51562 0.60938 0.78125 1.3281 0.78125 1.3125 0 3.125-0.98438 4.0312-2.2656 0.29688-0.40625 0.59375-0.8125 0.92188-1.2188 0.39062-0.09375 0.8125-0.26562 1.2344-0.48438 0.6875-0.35938 1.3438-0.85938 1.7344-1.4375 0.3125-0.4375 0.53125-0.875 0.57812-1.2656v-0.14062c0-0.23438-0.09375-0.46875-0.42188-0.46875-1.0156 0-2.1562 1.2344-2.9375 2.3438-0.32812 0.45312-0.6875 0.90625-1.0625 1.3594-0.85938 0-1.5781-0.15625-2.0156-0.54688-0.17188-0.15625-0.29688-0.35938-0.29688-0.60938 0-0.1875 0.078125-0.42188 0.25-0.67188 0.26562-0.35938 0.76562-0.67188 1.25-0.85938 0.64062-0.26562 1.25-0.35938 1.7812-0.35938 0.03125 0 0.0625-0.015625 0.078125-0.03125l0.03125-0.0625c0.015625-0.015625 0.015625-0.03125 0.015625-0.046875 0-0.046875-0.03125-0.078125-0.078125-0.078125zm2.9375-0.21875c0.17188 0 0.23438 0.10938 0.23438 0.26562 0 0.03125 0 0.09375-0.015625 0.14062-0.0625 0.34375-0.26562 0.75-0.5625 1.1562-0.375 0.53125-0.96875 1.0156-1.625 1.3594-0.29688 0.15625-0.59375 0.28125-0.89062 0.375 0.28125-0.35938 0.5625-0.71875 0.82812-1.0781 1-1.4219 1.1719-2.2188 2.0312-2.2188z"/>
</g>
</defs>
<g transform="translate(-149.02 -127.7)">
<use x="148.71201" y="134.765" xlink:href="#a"/>
</g>
</svg>
