<?xml version="1.0" encoding="UTF-8"?>
<svg fill="#000000" version="1.1" viewBox="0 0 7.6562 6.8945" xmlns="http://www.w3.org/2000/svg" xmlns:xlink="http://www.w3.org/1999/xlink">
<defs>
<g id="a">
<path d="m3.2812-6.9062c0.015625 0.03125 0.0625 0.0625 0.0625 0.10938 0.015625 0.03125-0.015625 0.09375-0.03125 0.125l-0.078125 0.28125-0.40625 1.2031c-0.32812 0.98438-0.67188 1.9688-1 2.9531-0.09375 0.3125-0.1875 0.60938-0.29688 0.92188-0.0625 0.1875-0.10938 0.39062-0.21875 0.5625-0.21875 0.32812-0.60938 0.4375-1 0.4375v0.29688l0.375-0.015625 0.875-0.015625 0.90625 0.03125v-0.29688c-0.29688 0-0.73438-0.14062-0.75-0.5 0-0.10938 0.03125-0.20312 0.0625-0.29688l0.15625-0.45312c0.046875-0.14062 0.09375-0.26562 0.14062-0.40625 0.015625-0.0625 0.03125-0.14062 0.078125-0.17188 0.03125-0.03125 0.10938-0.015625 0.15625-0.015625h0.40625c0.51562 0 1.0625-0.015625 1.5938 0 0.03125 0 0.046875 0 0.078125 0.015625 0.0625 0.03125 0.0625 0.125 0.078125 0.17188l0.21875 0.64062 0.17188 0.51562c0.015625 0.0625 0.0625 0.15625 0.046875 0.23438-0.03125 0.09375-0.125 0.15625-0.21875 0.20312-0.1875 0.0625-0.40625 0.0625-0.60938 0.0625v0.29688l0.5625-0.015625h0.32812l0.17188 0.015625 0.59375-0.015625h0.5625l0.90625-0.015625 0.76562 0.03125v-0.29688c-0.17188 0-0.35938 0-0.53125-0.03125-0.125 0-0.23438-0.03125-0.32812-0.10938-0.125-0.14062-0.17188-0.32812-0.21875-0.5-0.10938-0.3125-0.21875-0.64062-0.32812-0.95312-0.40625-1.2031-0.79688-2.3906-1.2031-3.5938l-0.32812-1.0156-0.09375-0.26562c-0.015625-0.03125-0.015625-0.09375-0.046875-0.10938-0.03125-0.03125-0.09375-0.015625-0.14062-0.015625zm1.3906 0.3125 0.21875 0.625 0.39062 1.1875 0.98438 2.9219 0.32812 1 0.17188 0.54688h-0.60938c-0.0625 0-0.17188 0.015625-0.21875-0.03125-0.03125-0.03125-0.046875-0.09375-0.0625-0.14062l-0.10938-0.34375c-0.14062-0.42188-0.28125-0.82812-0.42188-1.25-0.51562-1.5-1.0156-3-1.5156-4.5156zm-1.3906 1.0469 0.92188 2.7656 0.09375 0.3125h-2.0469l0.90625-2.7188z"/>
</g>
</defs>
<g transform="translate(-149.02 -127.85)">
<use x="148.71201" y="134.765" xlink:href="#a"/>
</g>
</svg>
