<?xml version="1.0" encoding="UTF-8"?>
<svg fill="#000000" version="1.1" viewBox="0 0 6.0938 11.016" xmlns="http://www.w3.org/2000/svg" xmlns:xlink="http://www.w3.org/1999/xlink">
<defs>
<g id="a">
<path d="m6.7031-1.2969c0.14062-0.0625 0.21875-0.09375 0.21875-0.23438 0-0.10938-0.09375-0.1875-0.20312-0.1875-0.046875 0-0.26562 0.09375-0.39062 0.15625l-1.4062 0.67188-1 0.46875-0.85938 0.40625 0.76562-1.8594 2.875-1.3594c0.14062-0.0625 0.21875-0.09375 0.21875-0.21875 0-0.10938-0.09375-0.17188-0.1875-0.21875l-1.7969-0.84375 1.2812-3.0938c0.046875-0.125 0.0625-0.14062 0.0625-0.20312 0-0.10938-0.078125-0.1875-0.20312-0.1875-0.0625 0-0.10938 0.015625-0.14062 0.0625l-1.3594 3.25-3.3438-1.5781c-0.0625-0.03125-0.14062-0.078125-0.20312-0.078125-0.10938 0-0.20312 0.078125-0.20312 0.20312s0.0625 0.15625 0.21875 0.21875l3.375 1.5938-0.90625 2.1562-2.4844 1.1719c-0.17188 0.078125-0.20312 0.15625-0.20312 0.23438 0 0.09375 0.09375 0.20312 0.20312 0.20312 0.03125 0 0.0625-0.015625 0.15625-0.0625l2.1094-0.98438c-0.10938 0.21875-0.75 1.7969-0.78125 1.8594l-1.4062 0.64062c-0.23438 0.14062-0.28125 0.14062-0.28125 0.28125 0 0.09375 0.09375 0.1875 0.20312 0.1875 0.03125 0 0.046875 0 1.2656-0.57812l-0.76562 1.8438c-0.0625 0.125-0.0625 0.14062-0.0625 0.20312 0 0.10938 0.078125 0.1875 0.20312 0.1875 0.046875 0 0.10938-0.015625 0.14062-0.0625l1.0156-2.4219zm-1.9219-2.8594 1.4688 0.70312-2.1875 1.0312z"/>
</g>
</defs>
<g transform="translate(-149.54 -126.76)">
<use x="148.71201" y="134.765" xlink:href="#a"/>
</g>
</svg>
