<?xml version="1.0" encoding="UTF-8"?>
<svg fill="#000000" version="1.1" viewBox="0 0 5.4844 4.5781" xmlns="http://www.w3.org/2000/svg" xmlns:xlink="http://www.w3.org/1999/xlink">
<defs>
<g id="a">
<path d="m3.9375-4.9688c0-0.25-0.20312-0.45312-0.45312-0.45312-0.23438 0-0.4375 0.20312-0.4375 0.45312s0.21875 0.4375 0.45312 0.4375c0.25 0 0.4375-0.1875 0.4375-0.4375zm1.9844 4.125c0.15625 0 0.3125-0.14062 0.3125-0.29688v-2.1875c0-0.15625-0.15625-0.29688-0.3125-0.29688h-4.8594c-0.17188 0-0.3125 0.125-0.3125 0.29688s0.14062 0.3125 0.3125 0.3125h4.5469v1.875c0 0.15625 0.15625 0.29688 0.3125 0.29688z"/>
</g>
</defs>
<g transform="translate(-149.46 -129.34)">
<use x="148.71201" y="134.765" xlink:href="#a"/>
</g>
</svg>
