<?xml version="1.0" encoding="UTF-8"?>
<svg fill="#000000" version="1.1" viewBox="0 0 6.0938 11.016" xmlns="http://www.w3.org/2000/svg" xmlns:xlink="http://www.w3.org/1999/xlink">
<defs>
<g id="a">
<path d="m5.5156-5.9375h1.0469c0.17188 0 0.35938 0 0.35938-0.20312s-0.1875-0.20312-0.35938-0.20312h-0.875l0.53125-1.2656c0.046875-0.125 0.0625-0.14062 0.0625-0.20312 0-0.10938-0.078125-0.1875-0.20312-0.1875-0.0625 0-0.10938 0.015625-0.14062 0.0625l-0.6875 1.5938h-1.375c-1.6719 0-3.0469 1.2656-3.0469 2.8906 0 1.4219 1.0312 2.4375 2.0938 2.7344l-0.70312 1.6875h-0.84375c-0.17188 0-0.34375 0-0.34375 0.20312 0 0.1875 0.17188 0.1875 0.34375 0.1875h0.67188c-0.078125 0.21875-0.57812 1.3594-0.57812 1.4688s0.078125 0.1875 0.20312 0.1875 0.15625-0.09375 0.21875-0.23438l0.59375-1.4219h4.0781c0.17188 0 0.35938 0 0.35938-0.1875 0-0.20312-0.1875-0.20312-0.35938-0.20312h-3.9062l0.65625-1.5938c0.25 0.0625 0.51562 0.0625 0.57812 0.0625h2.6719c0.17188 0 0.35938 0 0.35938-0.20312s-0.1875-0.20312-0.35938-0.20312h-2.6406c-0.078125 0-0.25 0-0.45312-0.03125zm-0.42188 0-2.0156 4.8438c-1.0156-0.28125-1.8594-1.1875-1.8594-2.3594 0-1.3594 1.1406-2.4844 2.6875-2.4844z"/>
</g>
</defs>
<g transform="translate(-149.54 -126.76)">
<use x="148.71201" y="134.765" xlink:href="#a"/>
</g>
</svg>
