<?xml version="1.0" encoding="UTF-8"?>
<svg fill="#000000" width="4.5938" height="8.0938" version="1.1" viewBox="0 0 4.5938 8.0937" xmlns="http://www.w3.org/2000/svg" xmlns:xlink="http://www.w3.org/1999/xlink">
<defs>
<g id="a">
<path d="m2.4531 1.2812c0 0.10938 0.09375 0.21875 0.23438 0.21875 0.046875 0 0.10938-0.03125 0.15625-0.0625 0.57812-0.57812 1.0781-0.98438 1.0781-1.7031 0-0.59375-0.39062-1.0625-0.76562-1.4688l2-0.73438c0.0625-0.03125 0.10938-0.078125 0.10938-0.14062 0-0.10938-0.10938-0.1875-0.21875-0.14062l-2.125 0.78125c-0.26562-0.3125-0.4375-0.625-0.4375-0.9375 0-0.65625 0.67188-0.98438 0.82812-1.9219 0.54688 1.0312 0.57812 1.125 0.76562 1.125 0.0625 0 0.23438-0.0625 0.23438-0.21875 0-0.0625-0.015625-0.10938-0.046875-0.14062-0.4375-0.625-0.78125-1.3281-0.78125-2.0781v-0.15625c0-0.125-0.03125-0.29688-0.21875-0.29688-0.39062 0-0.15625 0.82812-2.0469 1.7188-0.078125 0.046875-0.125 0.125-0.125 0.20312 0 0.14062 0.10938 0.23438 0.23438 0.23438 0.21875 0 1.0312-0.64062 1.5781-0.92188-0.015625 0.29688-0.046875 0.57812-0.14062 0.8125-0.21875 0.48438-0.73438 0.9375-0.73438 1.6406 0 0.40625 0.1875 0.76562 0.4375 1.0938l-1.6875 0.60938c-0.0625 0.03125-0.10938 0.09375-0.10938 0.14062 0 0.10938 0.10938 0.1875 0.20312 0.14062l1.7969-0.64062 0.14062 0.14062c0.375 0.375 0.64062 0.75 0.64062 1.1562 0 0.78125-1 1.25-1 1.5469z"/>
</g>
</defs>
<g transform="translate(-149.38 -128.17)">
<use x="148.71201" y="134.765" xlink:href="#a"/>
</g>
</svg>
