<?xml version="1.0" encoding="UTF-8"?>
<svg fill="#000000" version="1.1" viewBox="0 0 2.3125 9.9844" xmlns="http://www.w3.org/2000/svg" xmlns:xlink="http://www.w3.org/1999/xlink">
<defs>
<g id="a">
<path d="m0.95312 1.9375v-8.8594c1.0156 1.1875 1.3438 2.8125 1.3438 4.4219 0 1.625-0.32812 3.25-1.3438 4.4375zm-0.21875 0.53125c1.5-1.1562 2.125-3.0625 2.125-4.9688 0-1.8906-0.625-3.7969-2.125-4.9531-0.03125-0.03125-0.0625-0.03125-0.09375-0.03125-0.015625 0-0.046875 0.015625-0.0625 0.03125-0.015625 0.03125-0.03125 0.046875-0.03125 0.078125v9.7656c0 0.03125 0.015625 0.046875 0.03125 0.078125 0.015625 0.015625 0.046875 0.03125 0.0625 0.03125 0.03125 0 0.0625 0 0.09375-0.03125z"/>
</g>
</defs>
<g transform="translate(-149.26 -127.28)">
<use x="148.71201" y="134.765" xlink:href="#a"/>
</g>
</svg>
