<?xml version="1.0" encoding="UTF-8"?>
<svg fill="#000000" version="1.1" viewBox="0 0 6.376 6.669" xmlns="http://www.w3.org/2000/svg" xmlns:xlink="http://www.w3.org/1999/xlink">
<defs>
<g id="a">
<path d="m6.5312-5.4375v5.8594h-5.7969c-0.03125 0-0.09375 0-0.125 0.03125-0.078125 0.046875-0.046875 0.17188-0.046875 0.23438 0 0.1875 0.1875 0.14062 0.3125 0.14062h5.7188c0.09375 0 0.26562 0.03125 0.3125-0.0625 0.03125-0.046875 0.015625-0.09375 0.015625-0.14062v-6.0625-0.26562c0-0.046875-0.015625-0.09375-0.0625-0.125-0.046875-0.015625-0.09375 0-0.14062 0h-5.8125c-0.10938 0-0.3125-0.046875-0.34375 0.09375-0.015625 0.078125-0.03125 0.23438 0.046875 0.28125 0.03125 0.015625 0.09375 0.015625 0.125 0.015625zm-1.5625 1.5625v2.7344h-3.9062c-0.10938 0-0.21875 0-0.23438 0.14062 0 0.0625-0.015625 0.17188 0.046875 0.21875 0.046875 0.0625 0.125 0.046875 0.20312 0.046875h4c0.078125 0 0.21875 0.03125 0.26562-0.046875 0.015625-0.046875 0.015625-0.09375 0.015625-0.14062v-3.1562c0-0.0625 0-0.125-0.03125-0.15625-0.046875-0.03125-0.078125-0.03125-0.125-0.03125h-0.1875-3.875c-0.078125 0-0.1875-0.015625-0.26562 0.015625-0.046875 0.046875-0.046875 0.10938-0.046875 0.15625 0 0.09375-0.015625 0.20312 0.09375 0.21875 0.0625 0.015625 0.10938 0 0.17188 0z"/>
</g>
</defs>
<g transform="translate(-149.26 -128.93)">
<use x="148.71201" y="134.765" xlink:href="#a"/>
</g>
</svg>
