<?xml version="1.0" encoding="UTF-8"?>
<svg fill="#000000" width="3.8594" height="7.4688" version="1.1" viewBox="0 0 3.8594 7.4687" xmlns="http://www.w3.org/2000/svg" xmlns:xlink="http://www.w3.org/1999/xlink">
<defs>
<g id="a">
<path d="m4.1719-7.4844c-0.078125 0.03125-0.125 0.10938-0.15625 0.17188l-0.09375 0.1875c-1.0469 2.0938-2.0625 4.2188-3.1094 6.3125-0.078125 0.17188-0.25 0.4375-0.25 0.59375 0 0.10938 0.0625 0.20312 0.1875 0.20312h0.015625c0.10938 0 0.15625-0.09375 0.20312-0.1875l0.70312-1.4219c0.4375-0.89062 0.875-1.7969 1.3281-2.7188l0.5625-1.1562c0.21875-0.45312 0.4375-0.89062 0.67188-1.3438 0.0625-0.125 0.1875-0.32812 0.1875-0.4375s-0.078125-0.20312-0.1875-0.20312h-0.0625zm-2.7812 0.125c-0.29688 0.03125-0.53125 0.28125-0.53125 0.59375 0 0.29688 0.23438 0.625 0.60938 0.625 0.32812 0 0.625-0.26562 0.625-0.60938 0-0.29688-0.23438-0.625-0.60938-0.625-0.03125 0-0.0625 0.015625-0.09375 0.015625zm2.0312 6.0156c-0.29688 0.03125-0.54688 0.28125-0.54688 0.59375 0 0.29688 0.25 0.625 0.60938 0.625 0.34375 0 0.625-0.26562 0.625-0.60938 0-0.29688-0.23438-0.625-0.59375-0.625-0.03125 0-0.0625 0.015625-0.09375 0.015625z"/>
</g>
</defs>
<g transform="translate(-149.27 -127.28)">
<use x="148.71201" y="134.765" xlink:href="#a"/>
</g>
</svg>
