<?xml version="1.0" encoding="UTF-8"?>
<svg fill="#000000" width="6.0945" height="6.8438" version="1.1" viewBox="0 0 6.0945 6.8437" xmlns="http://www.w3.org/2000/svg" xmlns:xlink="http://www.w3.org/1999/xlink">
<defs>
<g id="a">
<path d="m6.4375 0.64062c0 0.10938 0.078125 0.23438 0.21875 0.23438 0.078125 0 0.15625-0.046875 0.20312-0.125 0.375-0.67188 0.875-1.2969 1.5781-1.6094 0.09375-0.03125 0.32812-0.10938 0.3125-0.3125 0-0.046875-0.0625-0.20312-0.23438-0.20312-0.82812 0-1.5625-0.4375-2.2031-0.98438-0.046875-0.03125-0.10938-0.046875-0.15625-0.046875-0.14062 0-0.21875 0.10938-0.21875 0.23438 0 0.0625 0.03125 0.125 0.078125 0.17188 0.42188 0.35938 0.9375 0.59375 1.375 0.9375-0.15625 0.015625-0.32812 0.03125-0.5 0.03125-0.96875 0-1.9219-0.375-2.6406-1.0469l1.0312-2.1719c0.015625-0.078125 0-0.17188-0.078125-0.20312s-0.17188 0-0.20312 0.0625l-0.96875 2.0625c-0.625-0.70312-0.92188-1.5625-0.92188-2.4219 0-0.59375 0.14062-0.89062 0.14062-0.98438 0-0.125-0.09375-0.23438-0.23438-0.23438-0.10938 0-0.1875 0.0625-0.21875 0.17188-0.09375 0.34375-0.14062 0.6875-0.14062 1.0469 0 1.1562 0.46875 2.1562 1.1719 2.875l-0.75 1.6094c-0.03125 0.09375 0 0.17188 0.078125 0.20312 0.0625 0.046875 0.15625 0.015625 0.1875-0.0625l0.71875-1.5312c0.78125 0.70312 1.7969 1.0781 2.8281 1.0781 0.125 0 0.25 0 0.375-0.015625-0.29688 0.42188-0.82812 1.0312-0.82812 1.2344z"/>
</g>
</defs>
<g transform="translate(-151.37 -128.8)">
<use x="148.71201" y="134.765" xlink:href="#a"/>
</g>
</svg>
