<?xml version="1.0" encoding="UTF-8"?>
<svg fill="#000000" version="1.1" viewBox="0 0 4.3125 7.5469" xmlns="http://www.w3.org/2000/svg" xmlns:xlink="http://www.w3.org/1999/xlink">
<defs>
<g id="a">
<path d="m1.6094-5.2188c0 0.625 0.51562 1.1094 1.1094 1.1094 0.09375 0 0.1875 0 0.26562-0.03125l-0.125 0.46875h-2.0781c-0.125 0-0.21875 0.10938-0.21875 0.23438s0.09375 0.23438 0.21875 0.23438h1.9531l-0.35938 1.3125h-1.5938c-0.125 0-0.21875 0.10938-0.21875 0.23438s0.09375 0.23438 0.21875 0.23438h1.4844l-0.65625 2.4531c-0.03125 0.078125 0.03125 0.1875 0.14062 0.1875 0.0625 0 0.125-0.046875 0.14062-0.10938l0.6875-2.5312h2.0625c0.14062 0 0.23438-0.10938 0.23438-0.23438s-0.09375-0.23438-0.23438-0.23438h-1.9531l0.35938-1.3125h1.5938c0.14062 0 0.23438-0.10938 0.23438-0.23438s-0.09375-0.23438-0.23438-0.23438h-1.4688l0.17188-0.64062c0.3125-0.1875 0.48438-0.54688 0.48438-0.90625 0-0.17188-0.046875-0.32812-0.10938-0.48438l0.10938-0.42188c0.015625-0.078125-0.015625-0.17188-0.09375-0.1875s-0.17188 0.03125-0.20312 0.10938l-0.046875 0.1875c-0.20312-0.20312-0.48438-0.3125-0.76562-0.3125-0.625 0-1.1094 0.51562-1.1094 1.1094zm0.32812 0c0-0.4375 0.35938-0.76562 0.78125-0.76562 0.26562 0 0.51562 0.125 0.65625 0.375l-0.28125 1.0625c-0.10938 0.0625-0.25 0.09375-0.375 0.09375-0.4375 0-0.78125-0.35938-0.78125-0.76562z"/>
</g>
</defs>
<g transform="translate(-149.27 -128.44)">
<use x="148.71201" y="134.765" xlink:href="#a"/>
</g>
</svg>
