<?xml version="1.0" encoding="UTF-8"?>
<svg fill="#000000" version="1.1" viewBox="0 0 4.4363 7.2536" xmlns="http://www.w3.org/2000/svg" xmlns:xlink="http://www.w3.org/1999/xlink">
<defs>
<g id="a">
<path d="m3.0625-2.9844v2.8906c-0.65625 0-1.3281-0.1875-1.7812-0.6875-0.078125-0.09375-0.17188-0.21875-0.23438-0.32812-0.14062-0.25-0.21875-0.5625-0.23438-0.84375 0-0.046875-0.015625-0.078125-0.015625-0.125 0-0.0625 0.015625-0.15625-0.0625-0.1875-0.078125-0.015625-0.15625 0-0.17188 0.078125-0.03125 0.03125-0.015625 0.078125-0.015625 0.14062v2.0625c0 0.046875-0.015625 0.10938 0.03125 0.15625 0.0625 0.078125 0.15625 0.015625 0.20312-0.046875 0.078125-0.10938 0.14062-0.21875 0.21875-0.34375 0.0625-0.09375 0.10938-0.17188 0.15625-0.26562 0.15625 0.125 0.29688 0.25 0.48438 0.35938 0.6875 0.39062 1.6094 0.46875 2.3125 0.09375 0.17188-0.09375 0.32812-0.20312 0.45312-0.34375 0.73438-0.78125 0.76562-2.0625 0.078125-2.875-0.10938-0.125-0.23438-0.25-0.39062-0.34375-0.3125-0.21875-0.64062-0.29688-1-0.375-0.20312-0.046875-0.40625-0.125-0.625-0.14062v-2.6562c0.29688 0 0.60938 0.0625 0.875 0.1875 0.40625 0.20312 0.70312 0.5625 0.875 0.95312 0.10938 0.25 0.17188 0.51562 0.21875 0.78125 0.015625 0.078125-0.015625 0.25 0.09375 0.28125 0.046875 0.015625 0.14062 0 0.15625-0.0625 0.03125-0.046875 0.015625-0.09375 0.015625-0.14062v-2.0781c0-0.046875 0.015625-0.10938-0.03125-0.15625-0.0625-0.078125-0.15625-0.015625-0.20312 0.046875-0.078125 0.10938-0.14062 0.21875-0.21875 0.34375-0.046875 0.09375-0.10938 0.17188-0.15625 0.26562-0.15625-0.15625-0.3125-0.3125-0.5-0.42188-0.64062-0.35938-1.4688-0.375-2.1094 0-0.1875 0.10938-0.35938 0.26562-0.5 0.4375-0.54688 0.67188-0.57812 1.6406-0.078125 2.3438 0.10938 0.14062 0.23438 0.28125 0.39062 0.40625 0.32812 0.25 0.70312 0.34375 1.0781 0.4375 0.23438 0.046875 0.45312 0.125 0.6875 0.15625zm-0.90625-3.7344v2.5156c-0.21875-0.0625-0.4375-0.17188-0.60938-0.35938-0.48438-0.51562-0.48438-1.375 0.0625-1.875 0.17188-0.125 0.34375-0.21875 0.54688-0.28125zm1.2188 6.5625v-2.75c0.125 0.03125 0.25 0.09375 0.35938 0.17188 0.73438 0.51562 0.8125 1.6406 0.1875 2.25-0.14062 0.15625-0.34375 0.29688-0.54688 0.32812z"/>
</g>
</defs>
<g transform="translate(-149.25 -127.72)">
<use x="148.71201" y="134.765" xlink:href="#a"/>
</g>
</svg>
