<?xml version="1.0" encoding="UTF-8"?>
<svg fill="#000000" version="1.1" viewBox="0 0 6.7188 6.8281" xmlns="http://www.w3.org/2000/svg" xmlns:xlink="http://www.w3.org/1999/xlink">
<defs>
<g id="a">
<path d="m2.7812-6.8125v0.26562l0.625 0.09375c0.125 0.015625 0.23438 0.14062 0.23438 0.26562v0.125l-0.078125 0.078125c-0.82812 0.015625-1.625 0.29688-2.2031 0.875-0.46875 0.48438-0.625 1.1562-0.625 1.7969 0 1.7344 1.4062 2.4375 2.8281 2.4531l0.078125 0.0625c-0.015625 0.15625-0.078125 0.375-0.23438 0.42188l-0.625 0.14062v0.21875h2.6719v-0.25l-0.59375-0.10938c-0.20312-0.046875-0.32812-0.21875-0.35938-0.42188l0.078125-0.0625c0.71875-0.03125 1.625-0.29688 2.1562-0.8125 0.51562-0.53125 0.71875-1.2969 0.71875-2.0469 0-1.2969-0.76562-2.2656-2.8906-2.2656l-0.0625-0.078125v-0.125c0-0.14062 0.078125-0.28125 0.23438-0.29688l0.625-0.10938v-0.25zm1.7188 1.1875 0.0625-0.09375c1.0938 0.03125 1.9844 0.5 1.9844 2.2031 0 1.1875-0.60938 2.3438-1.9844 2.375l-0.0625-0.078125zm-0.85938 4.4219-0.078125 0.0625c-1.25-0.03125-1.9219-1.2344-1.9219-2.3125 0-1.1562 0.71875-2.2031 1.9219-2.2656l0.078125 0.09375z"/>
</g>
</defs>
<g transform="translate(-149.45 -127.92)">
<use x="148.71201" y="134.765" xlink:href="#a"/>
</g>
</svg>
