<?xml version="1.0" encoding="UTF-8"?>
<svg fill="#000000" version="1.1" viewBox="0 0 8.1875 7.875" xmlns="http://www.w3.org/2000/svg" xmlns:xlink="http://www.w3.org/1999/xlink">
<defs>
<g id="a">
<path d="m9.6875-3.1875c0-0.015625 0-0.046875-0.015625-0.0625-0.03125-0.25-0.078125-0.3125-0.078125-0.64062 0-0.95312 0.48438-1.7031 0.48438-1.8438 0-0.125-0.09375-0.23438-0.23438-0.23438-0.28125 0-0.32812 0.46875-0.64062 1.4219-0.70312-1.1875-1.9844-1.9375-3.3906-1.9375-2.2188 0-3.9219 1.8281-3.9219 3.9375 0 2.2344 1.8125 3.9375 3.9219 3.9375 1.0469 0 2.0469-0.42188 2.7812-1.1562 0.67188-0.67188 1.0938-1.75 1.0938-2.1406 0-0.125-0.09375-0.23438-0.23438-0.23438-0.10938 0-0.20312 0.09375-0.21875 0.20312-0.29688 1.6406-1.7344 2.8594-3.4219 2.8594-1.9688 0-3.4688-1.6094-3.4688-3.4688 0-1.9844 1.6094-3.4688 3.4688-3.4688 1.3125 0 2.5 0.73438 3.0781 1.875-0.53125-0.17188-1.3906-0.60938-1.6406-0.60938-0.10938 0-0.21875 0.078125-0.21875 0.21875 0 0.10938 0.0625 0.20312 0.17188 0.21875 1.9375 0.53125 1.9219 1.3594 2.25 1.3594 0.14062 0 0.23438-0.125 0.23438-0.23438z"/>
</g>
</defs>
<g transform="translate(-150.6 -128.28)">
<use x="148.71201" y="134.765" xlink:href="#a"/>
</g>
</svg>
