<?xml version="1.0" encoding="UTF-8"?>
<svg fill="#000000" version="1.1" viewBox="0 0 6.0938 9.0781" xmlns="http://www.w3.org/2000/svg" xmlns:xlink="http://www.w3.org/1999/xlink">
<defs>
<g id="a">
<path d="m4.4688-4.3438-3.4375 1.625c-0.125 0.0625-0.20312 0.10938-0.20312 0.21875 0 0.14062 0.09375 0.1875 0.20312 0.23438l2.0938 0.98438-1.1094 2.4844c-0.10938 0.21875-0.28125 0.60938-0.28125 0.65625 0 0.10938 0.09375 0.1875 0.20312 0.1875 0.09375 0 0.14062-0.046875 0.15625-0.0625 0.046875-0.0625 0.9375-2.125 1.3906-3.0938l2.5 1.1719c0.25 0.125 0.6875 0.34375 0.73438 0.34375 0.20312 0 0.20312-0.20312 0.20312-0.35938v-5.0781c0-0.17188 0-0.34375-0.20312-0.34375-0.0625 0-0.14062 0.03125-0.1875 0.0625l-1.5 0.71875 0.90625-2.0625c0.0625-0.125 0.078125-0.14062 0.078125-0.1875 0-0.10938-0.10938-0.1875-0.20312-0.1875-0.125 0-0.17188 0.078125-0.23438 0.20312zm-0.23438 0.5625-0.95312 2.1406-1.7812-0.85938zm0.54688-0.26562 1.7344-0.8125v4.7344l-2.875-1.3438z"/>
</g>
</defs>
<g transform="translate(-149.54 -127.73)">
<use x="148.71201" y="134.765" xlink:href="#a"/>
</g>
</svg>
