<?xml version="1.0" encoding="UTF-8"?>
<svg fill="#000000" version="1.1" viewBox="0 0 3.0625 9.0625" xmlns="http://www.w3.org/2000/svg" xmlns:xlink="http://www.w3.org/1999/xlink">
<defs>
<g id="a">
<path d="m1.4844-3.9062c-0.5 0.29688-0.8125 0.78125-0.8125 1.3594 0 0.71875 0.48438 1.4375 1.0938 1.7969 0.53125 0.32812 1.4062 0.46875 1.5156 1.1875v0.078125c0 0.59375-0.40625 1.2969-1.0938 1.2969-0.4375 0-0.85938-0.25-1.0469-0.64062 0.21875 0 0.39062-0.14062 0.39062-0.35938 0-0.20312-0.17188-0.34375-0.35938-0.34375s-0.34375 0.15625-0.34375 0.34375v0.03125c0 0.71875 0.73438 1.1875 1.3906 1.1875 0.85938 0 1.5156-0.71875 1.5156-1.5469 0-0.57812-0.32812-1.2656-0.79688-1.5781 0.48438-0.29688 0.79688-0.79688 0.79688-1.375 0-0.70312-0.46875-1.4219-1.0781-1.7812-0.54688-0.32812-1.4062-0.46875-1.5156-1.1875v-0.078125c0-0.60938 0.39062-1.2969 1.0938-1.2969 0.42188 0 0.84375 0.25 1.0312 0.64062-0.20312 0-0.375 0.125-0.375 0.34375s0.15625 0.35938 0.35938 0.35938c0.1875 0 0.34375-0.15625 0.34375-0.34375v-0.03125c0-0.71875-0.73438-1.1875-1.4062-1.1875-0.85938 0-1.5 0.71875-1.5 1.5312 0 0.59375 0.32812 1.2812 0.79688 1.5938zm-0.34375 1.4062v-0.078125c0-0.375 0.15625-0.84375 0.46875-1.0781 0.03125-0.015625 0.0625-0.046875 0.09375-0.046875h0.015625c0.078125 0 0.28125 0.125 0.42188 0.1875 0.45312 0.1875 1.0625 0.4375 1.1406 1v0.078125c0 0.39062-0.15625 0.85938-0.48438 1.0781-0.03125 0.03125-0.0625 0.046875-0.078125 0.0625h-0.03125c-0.0625 0-0.28125-0.125-0.40625-0.20312-0.45312-0.17188-1.0625-0.4375-1.1406-1z"/>
</g>
</defs>
<g transform="translate(-149.38 -127.73)">
<use x="148.71201" y="134.765" xlink:href="#a"/>
</g>
</svg>
