<?xml version="1.0" encoding="UTF-8"?>
<svg fill="#000000" width="5.5469" height="8.2188" version="1.1" viewBox="0 0 5.5469 8.2187" xmlns="http://www.w3.org/2000/svg" xmlns:xlink="http://www.w3.org/1999/xlink">
<defs>
<g id="a">
<path d="m4.3438-1.5781c-0.26562 0.90625-0.53125 1.3594-0.625 1.5156-0.39062 0.6875-0.59375 0.70312-0.9375 0.70312-0.17188 0-0.875-0.03125-1.4688-0.4375-0.4375 0.03125-0.79688 0.375-0.79688 0.48438 0 0.09375 0.6875 0.5 1.6094 0.5 0.71875 0 1.8906-0.375 2.6406-2 0.26562-0.5625 0.42188-1.125 0.45312-1.25 0.20312-0.6875 0.40625-1.4844 0.40625-1.5312 0-0.0625-0.015625-0.078125-0.10938-0.078125-0.078125 0-0.25 0.046875-0.46875 0.1875s-0.23438 0.1875-0.29688 0.4375c-0.10938 0.34375-0.6875 1.8281-1.9219 1.8281-0.96875 0-1.5469-0.79688-1.5469-1.9219 0-0.76562 0.3125-1.7969 0.89062-2.4844 0.26562-0.32812 0.76562-0.85938 1.8906-0.85938 0.1875 0 0.46875 0.03125 0.71875 0.10938 0.10938 0.03125 0.35938 0.10938 0.35938 0.4375s-0.51562 0.96875-0.5625 1.0312c-0.03125 0.046875-0.0625 0.078125-0.0625 0.125 0 0.0625 0.046875 0.0625 0.10938 0.0625 0.29688 0 0.625-0.26562 0.89062-0.64062 0.078125-0.10938 0.46875-0.65625 0.46875-1 0-0.40625-0.29688-0.51562-0.42188-0.54688-0.375-0.125-0.70312-0.125-0.84375-0.125-2.25 0-4.2812 1.9844-4.2812 4.3125 0 1.0156 0.45312 2.0469 1.7344 2.0469 0.75 0 1.5156-0.39062 2.1719-0.90625z"/>
</g>
</defs>
<g transform="translate(-149.15 -127.73)">
<use x="148.71201" y="134.765" xlink:href="#a"/>
</g>
</svg>
