<?xml version="1.0" encoding="UTF-8"?>
<svg fill="#000000" version="1.1" viewBox="0 0 2.5938 3.625" xmlns="http://www.w3.org/2000/svg" xmlns:xlink="http://www.w3.org/1999/xlink">
<defs>
<g id="a">
<path d="m1.5312-3.4688h0.21875c0.10938-0.60938 0.15625-1.25 0.21875-1.875 0.0625-0.42188 0.14062-0.89062 0.14062-1.3125 0-0.25-0.21875-0.4375-0.46875-0.4375-0.3125 0-0.45312 0.21875-0.45312 0.46875 0 0.17188 0.03125 0.35938 0.0625 0.54688 0.09375 0.875 0.21875 1.7344 0.28125 2.6094zm1.6875 0h0.21875c0.078125-0.98438 0.25-1.9688 0.32812-2.9688 0.015625-0.0625 0.015625-0.125 0.015625-0.1875 0-0.25-0.14062-0.46875-0.45312-0.46875-0.25 0-0.46875 0.1875-0.46875 0.4375 0 0.15625 0.03125 0.3125 0.046875 0.45312 0.078125 0.67188 0.14062 1.3438 0.23438 2.0312 0.015625 0.23438 0.046875 0.46875 0.078125 0.70312z"/>
</g>
</defs>
<g transform="translate(-149.9 -127.67)">
<use x="148.71201" y="134.765" xlink:href="#a"/>
</g>
</svg>
