<?xml version="1.0" encoding="UTF-8"?>
<svg fill="#000000" version="1.1" viewBox="0 0 6.7656 6.4531" xmlns="http://www.w3.org/2000/svg" xmlns:xlink="http://www.w3.org/1999/xlink">
<defs>
<g id="a">
<path d="m7.3125-3.7969h-2.25l-0.70312-2.1406c-0.015625-0.09375-0.10938-0.15625-0.20312-0.15625-0.10938 0-0.1875 0.0625-0.21875 0.15625l-0.70312 2.1406h-2.2344c-0.1875 0-0.23438 0.15625-0.23438 0.23438 0 0.0625 0.046875 0.14062 0.10938 0.17188l1.8125 1.3125-0.70312 2.1406c-0.015625 0.03125-0.015625 0.046875-0.015625 0.0625 0 0.14062 0.10938 0.23438 0.23438 0.23438 0.046875 0 0.09375-0.015625 0.14062-0.046875l1.8125-1.3125 1.8125 1.3125c0.046875 0.03125 0.078125 0.046875 0.125 0.046875 0.14062 0 0.23438-0.09375 0.23438-0.23438 0-0.015625 0-0.03125-0.015625-0.0625l-0.6875-2.1406 1.8125-1.3125c0.0625-0.03125 0.09375-0.10938 0.09375-0.17188 0-0.078125-0.046875-0.23438-0.21875-0.23438zm-2.7344 0h-0.84375l0.42188-1.3125zm0.65625 2.0156 0.42188 1.3125-1.1094-0.8125zm-2.4062-0.75-1.125-0.8125h1.3906zm2.3906-0.8125h1.375l-1.125 0.8125zm-0.5 0 0.35938 1.0938-0.92188 0.6875-0.9375-0.6875 0.35938-1.0938zm-0.95312 2.0625-1.125 0.8125 0.4375-1.3125z"/>
</g>
</defs>
<g transform="translate(-149.48 -128.67)">
<use x="148.71201" y="134.765" xlink:href="#a"/>
</g>
</svg>
