<?xml version="1.0" encoding="UTF-8"?>
<svg fill="#000000" version="1.1" viewBox="0 0 2.9567 4.4473" xmlns="http://www.w3.org/2000/svg" xmlns:xlink="http://www.w3.org/1999/xlink">
<defs>
<g id="a">
<path d="m1.2188-4.3125v0.25c0.17188 0 0.35938 0 0.54688 0.015625 0.09375 0.015625 0.20312 0.046875 0.26562 0.125 0.078125 0.10938 0.078125 0.26562 0.078125 0.40625v2.1094c0 0.25 0.03125 0.51562-0.03125 0.75-0.078125 0.26562-0.28125 0.51562-0.54688 0.5625-0.125 0.03125-0.26562 0-0.39062-0.03125-0.14062-0.03125-0.25-0.10938-0.39062-0.1875 0.078125-0.015625 0.14062-0.03125 0.20312-0.0625 0.21875-0.14062 0.25-0.46875 0.078125-0.64062-0.0625-0.0625-0.14062-0.09375-0.21875-0.10938-0.0625-0.015625-0.10938-0.015625-0.17188 0-0.046875 0.015625-0.078125 0.015625-0.125 0.03125-0.25 0.15625-0.21875 0.5-0.10938 0.71875 0.14062 0.25 0.40625 0.40625 0.67188 0.46875 0.48438 0.10938 1.0156 0 1.3906-0.32812 0.15625-0.14062 0.26562-0.35938 0.29688-0.5625 0.03125-0.17188 0-0.34375 0-0.51562v-1.7344-0.64062c0-0.09375 0.015625-0.23438 0.09375-0.29688 0.10938-0.09375 0.29688-0.078125 0.42188-0.078125v-0.25l-0.32812 0.03125h-0.79688z"/>
</g>
</defs>
<g transform="translate(-149.04 -130.45)">
<use x="148.71201" y="134.765" xlink:href="#a"/>
</g>
</svg>
