<?xml version="1.0" encoding="UTF-8"?>
<svg fill="#000000" version="1.1" viewBox="0 0 8.8594 2.7969" xmlns="http://www.w3.org/2000/svg" xmlns:xlink="http://www.w3.org/1999/xlink">
<defs>
<g id="a">
<path d="m9.0469-2.2969c0.1875 0 0.35938 0 0.35938-0.20312 0-0.1875-0.17188-0.1875-0.35938-0.1875h-8.2188c-0.21875 0-0.28125 0-0.28125 0.14062 0 0.10938 0.015625 0.125 0.09375 0.17188 1.3281 0.79688 1.7656 1.7656 2.0156 2.3594 0.046875 0.10938 0.0625 0.125 0.21875 0.125 0.0625 0 0.1875 0 0.1875-0.10938 0-0.0625-0.21875-0.71875-0.6875-1.3438-0.21875-0.3125-0.45312-0.5625-0.90625-0.95312z"/>
</g>
</defs>
<g transform="translate(-149.26 -132.08)">
<use x="148.71201" y="134.765" xlink:href="#a"/>
</g>
</svg>
