<?xml version="1.0" encoding="UTF-8"?>
<svg fill="#000000" version="1.1" viewBox="0 0 6.3281 7.25" xmlns="http://www.w3.org/2000/svg" xmlns:xlink="http://www.w3.org/1999/xlink">
<defs>
<g id="a">
<path d="m2.7969-6.7656c0.015625-0.10938 0.015625-0.125 0.015625-0.15625 0-0.078125-0.015625-0.10938-0.10938-0.10938-0.10938 0-0.40625 0.15625-0.60938 0.25-0.45312 0.23438-0.84375 0.42188-0.84375 0.59375 0 0.0625 0.078125 0.0625 0.10938 0.0625 0.125 0 0.39062-0.14062 0.57812-0.21875-0.125 0.96875-0.35938 2.25-0.54688 3.1094-0.35938 1.6875-0.54688 2.2969-1.0469 3.2656-0.046875 0.09375-0.046875 0.10938-0.046875 0.125 0 0.0625 0.078125 0.0625 0.10938 0.0625 0.15625 0 0.57812-0.17188 0.73438-0.45312 0.125-0.23438 0.5-0.96875 0.79688-2.125 0.21875-0.84375 0.60938-2.1562 1.3125-3.1875 0.45312-0.64062 0.875-0.9375 1.5-0.9375 0.54688 0 1.0312 0.34375 1.0312 0.875 0 0.875-0.95312 1.1875-1.9844 1.5469-0.125 0.03125-0.8125 0.28125-0.8125 0.53125 0 0.046875 0.078125 0.0625 0.10938 0.0625s0.26562-0.046875 0.46875-0.046875c1.0156 0 1.8281 0.60938 1.8281 1.5469 0 1.2344-1.0469 1.6406-1.9688 1.6406-0.76562 0-1.125-0.42188-1.2656-0.5625-0.03125-0.046875-0.046875-0.0625-0.125-0.0625-0.21875 0-0.71875 0.3125-0.71875 0.48438 0 0.03125 0.375 0.6875 1.4531 0.6875 1.4062 0 3.4688-1 3.4688-2.5938 0-0.84375-0.54688-1.4688-1.5625-1.6562 0.79688-0.34375 1.9531-1.0625 1.9531-2 0-0.57812-0.46875-1-1.2188-1-0.32812 0-1.6094 0.078125-2.8125 1.5781z"/>
</g>
</defs>
<g transform="translate(-149.01 -127.73)">
<use x="148.71201" y="134.765" xlink:href="#a"/>
</g>
</svg>
