<?xml version="1.0" encoding="UTF-8"?>
<svg fill="#000000" version="1.1" viewBox="0 0 4.7812 8.8594" xmlns="http://www.w3.org/2000/svg" xmlns:xlink="http://www.w3.org/1999/xlink">
<defs>
<g id="a">
<path d="m4.3906 1.9062c0.015625-0.015625 0.03125-0.046875 0.03125-0.078125 0-0.76562 0.3125-1.5156 0.875-2.0469 0.015625-0.03125 0.03125-0.0625 0.03125-0.09375v-0.03125l-0.046875-0.078125c0-0.015625 0-0.03125-0.015625-0.03125-0.015625-0.03125-0.046875-0.03125-0.078125-0.03125s-0.0625 0-0.078125 0.03125c-0.4375 0.40625-0.75 0.95312-0.90625 1.5312l-3.2656-7.875c-0.046875-0.09375-0.10938-0.125-0.1875-0.125-0.09375 0-0.20312 0.078125-0.20312 0.1875 0 0.03125 0.015625 0.0625 0.015625 0.078125l3.2812 7.8906c-0.48438-0.28125-1.0469-0.45312-1.625-0.45312h-0.10938c-0.046875 0-0.09375 0.0625-0.09375 0.10938 0 0.015625 0 0.03125 0.015625 0.046875l0.015625 0.078125c0.03125 0.03125 0.0625 0.0625 0.09375 0.0625h0.078125c0.75 0 1.4844 0.29688 2.0156 0.82812 0.015625 0.015625 0.046875 0.03125 0.078125 0.03125s0.046875-0.015625 0.078125-0.03125z"/>
</g>
</defs>
<g transform="translate(-149.26 -127.84)">
<use x="148.71201" y="134.765" xlink:href="#a"/>
</g>
</svg>
