<?xml version="1.0" encoding="UTF-8"?>
<svg fill="#000000" version="1.1" viewBox="0 0 6 4.2812" xmlns="http://www.w3.org/2000/svg" xmlns:xlink="http://www.w3.org/1999/xlink">
<defs>
<g id="a">
<path d="m6.4062-0.84375c-0.59375 0-1.0781-0.51562-1.7188-1.5625v-0.03125c0.26562-0.46875 0.82812-1.0156 1.7188-1.0156v-0.82812c-1 0-1.4688 0.625-1.9219 1.4531-0.95312-1.2656-1.4375-1.4531-2.1719-1.4531-0.57812 0-1.9062 0.45312-1.9062 2.2812 0 1.375 0.90625 2 1.75 2 0.96875 0 1.6406-0.53125 2.0938-1.4531 0.60938 0.92188 1.1875 1.4531 2.1562 1.4531zm-2.375-0.95312c-0.26562 0.34375-0.75 0.95312-1.6406 0.95312-0.875 0-1.3906-0.82812-1.3906-1.6719 0-0.64062 0.45312-1.1875 1-1.1875 0.6875 0 1.3125 0.6875 2.0312 1.875z"/>
</g>
</defs>
<g transform="translate(-149.12 -130.48)">
<use x="148.71201" y="134.765" xlink:href="#a"/>
</g>
</svg>
