<?xml version="1.0" encoding="UTF-8"?>
<svg fill="#000000" version="1.1" viewBox="0 0 6.0781 8.3906" xmlns="http://www.w3.org/2000/svg" xmlns:xlink="http://www.w3.org/1999/xlink">
<defs>
<g id="a">
<path d="m3.6719-2.9219c-0.26562-0.34375-0.59375-0.8125-0.59375-1.2188 0-0.54688 0.45312-0.90625 1.0312-1.0938 0.23438 0.14062 0.5 0.25 0.71875 0.25 0.4375 0 1-0.78125 1.3594-1.2812l-0.09375-0.14062c-0.23438 0.25-0.59375 0.625-0.82812 0.625-0.79688 0-1.75-1.0625-2.7188-1.0625-1.2344 0-1.8438 1.0156-1.9531 2.125l0.15625 0.10938c0.14062-0.67188 0.45312-1.5469 1.2188-1.5469 0.57812 0 1.2969 0.40625 1.8594 0.75-0.64062 0.375-1.4844 1.0469-1.4844 1.75 0 0.45312 0.46875 1.0625 0.79688 1.5312 0.375 0.53125 0.89062 1.25 0.89062 1.75 0 0.78125-0.46875 1.5781-1.3125 1.5781-0.25 0-0.46875-0.17188-0.64062-0.35938-0.125-0.10938-0.29688-0.35938-0.29688-0.89062 0-0.45312 0.14062-0.875 0.14062-1.2812 0-0.39062-0.14062-0.85938-0.5-0.85938-0.26562 0-0.73438 0.15625-1.3125 0.54688l0.046875 0.20312c0.10938-0.0625 0.35938-0.17188 0.59375-0.17188 0.125 0 0.34375-0.03125 0.34375 0.6875 0 0.35938-0.0625 0.67188-0.0625 1 0 0.6875 0.29688 1.4688 1.1562 1.4688 1.25 0 2.6406-1 2.6406-2.2812 0-0.29688-0.046875-0.65625-0.20312-0.875l-0.85938-1.125c0.21875-0.17188 0.53125-0.39062 0.70312-0.39062 0.25 0 0.40625 0.21875 0.53125 0.42188l0.42188-0.59375c-0.10938-0.29688-0.3125-0.54688-0.53125-0.79688z"/>
</g>
</defs>
<g transform="translate(-148.82 -127.92)">
<use x="148.71201" y="134.765" xlink:href="#a"/>
</g>
</svg>
