<?xml version="1.0" encoding="UTF-8"?>
<svg fill="#000000" version="1.1" viewBox="0 0 7.4826 7.4796" xmlns="http://www.w3.org/2000/svg" xmlns:xlink="http://www.w3.org/1999/xlink">
<defs>
<g id="a">
<path d="m0.20312-6.2344c-0.046875 0.03125-0.0625 0.078125-0.0625 0.125-0.015625 0.09375 0 0.1875 0 0.28125v6.8906c0 0.046875 0 0.09375 0.03125 0.14062 0.03125 0.03125 0.09375 0.03125 0.14062 0.03125h0.29688 6.7812c0.046875 0 0.10938 0.015625 0.15625-0.015625 0.046875-0.015625 0.0625-0.0625 0.0625-0.10938 0.015625-0.10938 0-0.1875 0-0.29688v-6.875c0-0.046875 0-0.09375-0.015625-0.14062-0.03125-0.03125-0.09375-0.03125-0.14062-0.03125h-0.3125-6.7656c-0.0625 0-0.10938-0.015625-0.17188 0zm3.6094 1.4375c-0.078125 0.015625-0.15625 0.03125-0.21875 0.078125-0.3125 0.21875-0.3125 0.65625-0.015625 0.875 0.046875 0.03125 0.10938 0.0625 0.1875 0.078125 0.046875 0.015625 0.125 0.015625 0.1875 0 0.078125 0 0.14062-0.015625 0.21875-0.078125 0.29688-0.20312 0.29688-0.65625 0-0.85938-0.046875-0.046875-0.10938-0.078125-0.17188-0.09375s-0.125-0.015625-0.1875 0zm-2.75 2.1094c-0.0625 0.03125-0.0625 0.10938-0.0625 0.17188 0 0.078125-0.015625 0.1875 0.09375 0.21875h0.15625 5.0938 0.25c0.03125 0 0.078125 0 0.125-0.03125s0.046875-0.09375 0.046875-0.14062c0-0.078125 0-0.20312-0.09375-0.21875-0.10938-0.03125-0.23438-0.015625-0.32812-0.015625h-5.1406c-0.03125 0-0.09375-0.015625-0.14062 0.015625zm2.75 1.4375c-0.078125 0-0.15625 0.03125-0.21875 0.078125-0.3125 0.20312-0.3125 0.65625-0.015625 0.85938 0.046875 0.046875 0.10938 0.078125 0.1875 0.09375 0.046875 0.015625 0.125 0.015625 0.1875 0 0.078125-0.015625 0.14062-0.03125 0.21875-0.078125 0.29688-0.21875 0.29688-0.65625 0-0.875-0.046875-0.03125-0.10938-0.0625-0.17188-0.078125s-0.125-0.015625-0.1875 0zm-3.2812 2.0938v-6.6875h6.6875v6.6875z"/>
</g>
</defs>
<g transform="translate(-148.85 -128.52)">
<use x="148.71201" y="134.765" xlink:href="#a"/>
</g>
</svg>
