<?xml version="1.0" encoding="UTF-8"?>
<svg fill="#000000" version="1.1" viewBox="0 0 3.8858 7.0291" xmlns="http://www.w3.org/2000/svg" xmlns:xlink="http://www.w3.org/1999/xlink">
<defs>
<g id="a">
<path d="m0.89062-0.92188c0.17188 0.03125 0.34375 0 0.45312-0.125 0.21875-0.21875 0.14062-0.60938-0.14062-0.73438-0.25-0.10938-0.5625 0.015625-0.64062 0.28125-0.046875 0.20312 0 0.4375 0.078125 0.625 0.15625 0.35938 0.46875 0.60938 0.82812 0.76562 0.5625 0.26562 1.25 0.28125 1.8281 0.0625 0.125-0.03125 0.23438-0.09375 0.34375-0.15625 0.5-0.32812 0.73438-0.90625 0.78125-1.5 0.03125-0.39062-0.03125-0.76562-0.20312-1.1094-0.34375-0.65625-1.0469-1.0781-1.7812-1.1719v-2.7031c0-0.078125 0.015625-0.15625-0.03125-0.20312s-0.10938-0.03125-0.15625-0.03125h-0.35938c-0.0625 0-0.125 0.03125-0.14062 0.078125-0.03125 0.10938 0 0.21875 0 0.32812v2.4219c0 0.078125-0.015625 0.15625 0 0.21875 0.03125 0.14062 0.20312 0.10938 0.29688 0.10938 0.3125 0 0.60938 0.10938 0.84375 0.3125 0.09375 0.078125 0.1875 0.15625 0.26562 0.26562 0.45312 0.5625 0.5 1.2969 0.40625 1.9844-0.03125 0.23438-0.09375 0.48438-0.25 0.6875-0.40625 0.53125-1.1719 0.45312-1.7344 0.20312-0.125-0.046875-0.25-0.125-0.35938-0.21875-0.125-0.10938-0.23438-0.23438-0.32812-0.39062z"/>
</g>
</defs>
<g transform="translate(-149.26 -127.84)">
<use x="148.71201" y="134.765" xlink:href="#a"/>
</g>
</svg>
