<?xml version="1.0" encoding="UTF-8"?>
<svg fill="#000000" version="1.1" viewBox="0 0 5.8594 10.172" xmlns="http://www.w3.org/2000/svg" xmlns:xlink="http://www.w3.org/1999/xlink">
<defs>
<g id="a">
<path d="m6.2656-4.9219v-0.09375l-5.625-2.4219v0.65625l4.2969 1.8125-4.2969 1.8594v0.625zm-0.25 3.1719c-0.14062 0.71875-0.46875 1.375-1.1562 1.375-0.73438 0-1.7969-1.2656-2.75-1.2656-0.98438 0-1.5781 1.0312-1.625 2.0312h0.32812c0.15625-0.70312 0.51562-1.375 1.2188-1.375 0.71875 0 1.7812 1.2812 2.75 1.2812s1.5156-1.1875 1.5625-2.0469zm0 2.3594c-0.14062 0.70312-0.46875 1.375-1.1562 1.375-0.73438 0-1.7969-1.2812-2.75-1.2812-0.98438 0-1.5781 1.0469-1.625 2.0312h0.32812c0.15625-0.70312 0.51562-1.375 1.2188-1.375 0.71875 0 1.7812 1.2812 2.75 1.2812s1.5156-1.1875 1.5625-2.0312z"/>
</g>
</defs>
<g transform="translate(-149.2 -127.33)">
<use x="148.71201" y="134.765" xlink:href="#a"/>
</g>
</svg>
