<?xml version="1.0" encoding="UTF-8"?>
<svg fill="#000000" version="1.1" viewBox="0 0 5.5209 11.082" xmlns="http://www.w3.org/2000/svg" xmlns:xlink="http://www.w3.org/1999/xlink">
<defs>
<g id="a">
<path d="m2.9688 4.875c-0.59375 0.09375-1.1562 0.32812-1.7344 0.46875l0.10938 0.39062 1.5781-0.4375c-0.015625 0.25-0.046875 0.46875-0.078125 0.71875-0.03125 0.45312-0.078125 0.92188-0.10938 1.375-0.046875 0.85938-0.046875 1.75-0.26562 2.5938-0.0625 0.26562-0.17188 0.53125-0.375 0.71875-0.29688 0.25-0.78125 0.17188-1.0781-0.0625 0.125-0.03125 0.23438-0.0625 0.29688-0.17188 0.1875-0.26562 0-0.64062-0.3125-0.65625-0.46875-0.03125-0.53125 0.5-0.32812 0.8125 0.3125 0.48438 1.0781 0.5625 1.5469 0.32812 0.21875-0.10938 0.39062-0.26562 0.51562-0.45312 0.42188-0.53125 0.53125-1.2344 0.625-1.8594 0.15625-1.0469 0.26562-2.0938 0.39062-3.1562 0.015625-0.20312-0.078125-0.40625 0.17188-0.45312l0.3125-0.09375c0.375-0.10938 0.76562-0.21875 1.1562-0.3125l-0.10938-0.39062-1.4688 0.40625c0.0625-0.28125 0.0625-0.60938 0.078125-0.89062 0.03125-0.54688 0.078125-1.0781 0.125-1.6094 0.046875-0.65625 0.10938-1.4219 0.53125-1.7656 0.29688-0.25 0.78125-0.17188 1.0625 0.046875-0.09375 0.03125-0.17188 0.0625-0.23438 0.10938-0.17188 0.15625-0.17188 0.46875-0.015625 0.625 0.15625 0.14062 0.40625 0.14062 0.57812 0.015625 0.25-0.1875 0.14062-0.60938-0.046875-0.8125-0.26562-0.3125-0.79688-0.42188-1.2031-0.32812-0.59375 0.14062-0.92188 0.65625-1.1406 1.1875-0.20312 0.54688-0.25 1.1094-0.32812 1.6875-0.09375 0.65625-0.17188 1.3125-0.25 1.9688z"/>
</g>
</defs>
<g transform="translate(-149.27 -126.74)">
<use x="148.71201" y="126.739" xlink:href="#a"/>
</g>
</svg>
