<?xml version="1.0" encoding="UTF-8"?>
<svg fill="#000000" version="1.1" viewBox="0 0 9.0312 6.1562" xmlns="http://www.w3.org/2000/svg" xmlns:xlink="http://www.w3.org/1999/xlink">
<defs>
<g id="a">
<path d="m6.5938-2.2969h0.625c1.5781 0 2.375-0.39062 2.375-1.7344 0-1.2031-0.60938-1.7031-1.6875-1.7031-1.4219 0-1.7031 0.92188-1.7031 2.4375v0.60938h-4.8438c0.09375-0.078125 0.67188-0.57812 1.0156-1.4688h-0.3125c-0.17188 0.45312-0.5625 1.1719-1.5 1.6562 0.9375 0.51562 1.3438 1.2188 1.5 1.6719h0.3125c-0.34375-0.89062-0.92188-1.3906-1.0156-1.4688h4.8438v2.3594c0 0.17188 0 0.35938 0.20312 0.35938 0.1875 0 0.1875-0.1875 0.1875-0.35938zm0-0.39062v-0.57812c0-1.625 0.32812-2.0781 1.3125-2.0781 0.89062 0 1.2969 0.35938 1.2969 1.3125 0 0.96875-0.42188 1.3438-2.0156 1.3438z"/>
</g>
</defs>
<g transform="translate(-149.27 -129.03)">
<use x="148.71201" y="134.765" xlink:href="#a"/>
</g>
</svg>
