<?xml version="1.0" encoding="UTF-8"?>
<svg fill="#000000" version="1.1" viewBox="0 0 4.7095 4.3038" xmlns="http://www.w3.org/2000/svg" xmlns:xlink="http://www.w3.org/1999/xlink">
<defs>
<g id="a">
<path d="m0.53125-4.3125-0.10938 1.3906h0.25c0-0.1875 0.03125-0.375 0.0625-0.5625 0.015625-0.09375 0.046875-0.1875 0.10938-0.28125 0.15625-0.20312 0.4375-0.23438 0.6875-0.21875 0.10938 0.015625 0.21875 0.03125 0.28125 0.125 0.046875 0.078125 0.046875 0.1875 0.046875 0.28125v2.8438c0 0.09375 0 0.20312-0.0625 0.28125-0.046875 0.078125-0.14062 0.10938-0.23438 0.10938-0.15625 0.03125-0.3125 0.03125-0.46875 0.03125v0.29688c0.60938 0 1.2188 0.015625 1.8438 0 0.5-0.015625 1.0469-0.046875 1.5156-0.26562 0.20312-0.09375 0.375-0.23438 0.5-0.40625 0.26562-0.40625 0.23438-1-0.09375-1.3594-0.39062-0.40625-1-0.53125-1.5312-0.59375-0.17188-0.015625-0.375-0.046875-0.54688-0.046875-0.046875 0-0.15625 0.015625-0.20312-0.03125-0.03125-0.015625-0.015625-0.078125-0.015625-0.125v-0.75c0-0.10938 0-0.20312 0.0625-0.28125s0.14062-0.09375 0.23438-0.10938c0.15625-0.015625 0.32812-0.015625 0.48438-0.015625v-0.3125zm2.0312 4.0781v-2.2344c0.125 0.03125 0.26562 0.03125 0.39062 0.0625 0.39062 0.0625 0.8125 0.20312 1.0938 0.5 0.25 0.25 0.3125 0.65625 0.15625 0.98438-0.078125 0.125-0.17188 0.23438-0.29688 0.32812-0.375 0.25-0.89062 0.34375-1.3438 0.35938z"/>
</g>
</defs>
<g transform="translate(-149.13 -130.45)">
<use x="148.71201" y="134.765" xlink:href="#a"/>
</g>
</svg>
