<?xml version="1.0" encoding="UTF-8"?>
<svg fill="#000000" version="1.1" viewBox="0 0 12.688 6" xmlns="http://www.w3.org/2000/svg" xmlns:xlink="http://www.w3.org/1999/xlink">
<defs>
<g id="a">
<path d="m13.312-2.5625-1.9531-2.0312-0.29688 0.32812 1.1719 1.4375h-5.625c-0.14062-1.5312-1.4219-2.7344-2.9844-2.7344-1.6562 0-3 1.3438-3 3s1.3438 3 3 3c1.5469 0 2.8281-1.1875 2.9844-2.7031h5.625l-1.1719 1.4219 0.29688 0.32812zm-7.1406 0c0 1.4062-1.1562 2.5469-2.5469 2.5469-1.4062 0-2.5625-1.1406-2.5625-2.5469s1.1562-2.5469 2.5625-2.5469c1.3906 0 2.5469 1.1406 2.5469 2.5469zm-2 0c0-0.3125-0.26562-0.5625-0.5625-0.5625s-0.54688 0.25-0.54688 0.5625c0 0.375 0.34375 0.53125 0.5625 0.53125 0.20312 0 0.54688-0.15625 0.54688-0.53125z"/>
</g>
</defs>
<g transform="translate(-149.34 -129.2)">
<use x="148.71201" y="134.765" xlink:href="#a"/>
</g>
</svg>
