<?xml version="1.0" encoding="UTF-8"?>
<svg fill="#000000" width="6.625" height="5.5938" version="1.1" viewBox="0 0 6.625 5.5937" xmlns="http://www.w3.org/2000/svg" xmlns:xlink="http://www.w3.org/1999/xlink">
<defs>
<g id="b">
<path d="m2.5-6.9219-1.3438 1.3594 0.17188 0.17188 1.1719-1.0156 1.1406 1.0156 0.17188-0.17188z"/>
</g>
<g id="a">
<path d="m6.8438-3.2656c0.15625 0 0.34375 0 0.34375-0.1875 0-0.20312-0.1875-0.20312-0.32812-0.20312h-5.9688c-0.14062 0-0.32812 0-0.32812 0.20312 0 0.1875 0.1875 0.1875 0.32812 0.1875zm0.015625 1.9375c0.14062 0 0.32812 0 0.32812-0.20312 0-0.1875-0.1875-0.1875-0.34375-0.1875h-5.9531c-0.14062 0-0.32812 0-0.32812 0.1875 0 0.20312 0.1875 0.20312 0.32812 0.20312z"/>
</g>
</defs>
<g transform="translate(-149.27 -127.84)">
<use x="150.09599" y="134.765" xlink:href="#b"/>
<use x="148.7112" y="134.765" xlink:href="#a"/>
</g>
</svg>
