<?xml version="1.0" encoding="UTF-8"?>
<svg fill="#000000" version="1.1" viewBox="0 0 6.6562 6.6406" xmlns="http://www.w3.org/2000/svg" xmlns:xlink="http://www.w3.org/1999/xlink">
<defs>
<g id="a">
<path d="m4.0781-1.4688h2.7656c0.17188 0 0.35938 0 0.35938-0.20312 0-0.1875-0.1875-0.1875-0.35938-0.1875h-2.7656v-2.7188h2.7656c0.17188 0 0.35938 0 0.35938-0.20312s-0.1875-0.20312-0.35938-0.20312h-5.9531c-0.15625 0-0.34375 0-0.34375 0.20312s0.1875 0.20312 0.34375 0.20312h2.7812v2.7188h-2.7812c-0.15625 0-0.34375 0-0.34375 0.1875 0 0.20312 0.1875 0.20312 0.34375 0.20312h2.7812v2.7812c0 0.15625 0 0.34375 0.20312 0.34375s0.20312-0.21875 0.20312-0.375z"/>
</g>
</defs>
<g transform="translate(-149.26 -129.78)">
<use x="148.71201" y="134.765" xlink:href="#a"/>
</g>
</svg>
