<?xml version="1.0" encoding="UTF-8"?>
<svg fill="#000000" width="5.6406" height="8.0938" version="1.1" viewBox="0 0 5.6406 8.0937" xmlns="http://www.w3.org/2000/svg" xmlns:xlink="http://www.w3.org/1999/xlink">
<defs>
<g id="a">
<path d="m4.0469-6.4375c0-0.375-0.3125-0.625-0.625-0.625-0.32812 0-0.64062 0.25-0.64062 0.625 0 0.39062 0.26562 0.64062 0.64062 0.64062s0.625-0.29688 0.625-0.64062zm2.1875 5.4844v-0.65625h-3.7188c-0.70312 0-1.2656-0.6875-1.2656-1.3438 0-0.67188 0.5625-1.3281 1.2656-1.3281h3.7188v-0.65625h-3.6875c-1.1562 0-1.9531 0.92188-1.9531 1.9844s0.76562 2 1.9219 2zm0 1.9844v-0.65625h-5.5312v0.65625z"/>
</g>
</defs>
<g transform="translate(-149.31 -127.7)">
<use x="148.71201" y="134.765" xlink:href="#a"/>
</g>
</svg>
