<?xml version="1.0" encoding="UTF-8"?>
<svg fill="#000000" version="1.1" viewBox="0 0 6.6457 7.2584" xmlns="http://www.w3.org/2000/svg" xmlns:xlink="http://www.w3.org/1999/xlink">
<defs>
<g id="a">
<path d="m3.7031-7.0312c-0.14062 0.015625-0.29688 0.015625-0.4375 0.046875-0.35938 0.078125-0.70312 0.21875-1.0156 0.40625-0.28125 0.17188-0.5625 0.39062-0.78125 0.65625-1.1562 1.3438-1.2344 3.4375-0.15625 4.8438 0.21875 0.26562 0.46875 0.51562 0.73438 0.70312 0.29688 0.20312 0.625 0.35938 0.96875 0.46875 0.375 0.10938 0.76562 0.14062 1.1562 0.10938 0.28125-0.03125 0.54688-0.10938 0.79688-0.1875 0.25-0.09375 0.46875-0.21875 0.67188-0.35938 0.1875-0.10938 0.34375-0.25 0.5-0.40625 0.79688-0.8125 1.1562-1.9688 1.0312-3.0781-0.14062-1.2812-0.92188-2.4688-2.125-2.9844-0.21875-0.078125-0.4375-0.14062-0.65625-0.17188-0.21875-0.046875-0.46875-0.078125-0.6875-0.046875zm0.10938 3.0781c-0.078125 0.015625-0.14062 0.046875-0.21875 0.078125-0.0625 0.046875-0.10938 0.09375-0.14062 0.14062-0.21875 0.29688-0.078125 0.71875 0.25 0.82812 0.078125 0.015625 0.17188 0.03125 0.25 0.015625 0.0625-0.015625 0.14062-0.046875 0.1875-0.0625 0.0625-0.03125 0.10938-0.078125 0.14062-0.125 0.25-0.29688 0.078125-0.76562-0.28125-0.84375-0.0625-0.03125-0.125-0.03125-0.1875-0.03125zm-2.2344 0.6875c-0.015625-0.1875 0-0.40625 0-0.59375 0.03125-0.8125 0.26562-1.6406 0.82812-2.25 0.15625-0.17188 0.34375-0.32812 0.54688-0.4375 0.17188-0.09375 0.35938-0.15625 0.54688-0.20312 0.64062-0.14062 1.2812 0.09375 1.75 0.54688 0.25 0.23438 0.42188 0.51562 0.57812 0.8125 0.1875 0.39062 0.26562 0.85938 0.32812 1.2969 0.015625 0.29688 0.015625 0.57812 0 0.89062-0.03125 0.82812-0.21875 1.6875-0.75 2.3438-0.15625 0.20312-0.34375 0.375-0.5625 0.51562-0.15625 0.10938-0.34375 0.17188-0.51562 0.23438-0.14062 0.046875-0.29688 0.0625-0.4375 0.0625-0.125 0-0.26562-0.015625-0.39062-0.046875-0.75-0.17188-1.2812-0.78125-1.5781-1.4688-0.15625-0.375-0.25-0.76562-0.3125-1.1719-0.015625-0.1875-0.015625-0.35938-0.03125-0.53125z"/>
</g>
</defs>
<g transform="translate(-149.26 -127.72)">
<use x="148.71201" y="134.765" xlink:href="#a"/>
</g>
</svg>
