<?xml version="1.0" encoding="UTF-8"?>
<svg fill="#000000" version="1.1" viewBox="0 0 6.2969 6.2812" xmlns="http://www.w3.org/2000/svg" xmlns:xlink="http://www.w3.org/1999/xlink">
<defs>
<g id="a">
<path d="m8.1719-2.4375c0.17188 0 0.28125-0.125 0.28125-0.75 0-1.6562-1.3594-2.8906-2.875-2.8906-0.64062 0-0.76562 0.10938-0.76562 0.28125 0 0.14062 0.10938 0.21875 0.23438 0.21875 0.046875 0 0.20312-0.046875 0.53125-0.046875 0.54688 0 1.0938 0.20312 1.5469 0.5625l-4.8906 4.8906c-0.046875 0.03125-0.078125 0.09375-0.078125 0.15625 0 0.10938 0.09375 0.21875 0.23438 0.21875 0.0625 0 0.125-0.015625 0.17188-0.0625l4.875-4.8906c0.375 0.4375 0.5625 0.98438 0.5625 1.5625 0 0.3125-0.0625 0.46875-0.0625 0.53125 0 0.10938 0.09375 0.21875 0.23438 0.21875z"/>
</g>
</defs>
<g transform="translate(-150.87 -128.69)">
<use x="148.71201" y="134.765" xlink:href="#a"/>
</g>
</svg>
