<?xml version="1.0" encoding="UTF-8"?>
<svg fill="#000000" width="7.2188" height="7.3438" version="1.1" viewBox="0 0 7.2188 7.3437" xmlns="http://www.w3.org/2000/svg" xmlns:xlink="http://www.w3.org/1999/xlink">
<defs>
<g id="a">
<path d="m4.9375-7.25c-1.7344 0.09375-3.0469 1.1406-3.4375 2.7344h-0.875l-0.25 0.625h1v0.59375h-0.75l-0.25 0.64062h1.125c0.39062 1.6094 1.7969 2.75 3.4375 2.75 1-0.03125 1.7344-0.28125 2.4062-0.84375v-0.875c-0.64062 0.70312-1.4844 1.1094-2.3594 1.1094-1.2812 0-2.4219-0.84375-2.8594-2.1406h4.0312l0.25-0.64062h-4.4062c0-0.09375-0.015625-0.1875-0.015625-0.29688 0-0.09375 0.015625-0.1875 0.015625-0.29688h4.6562l0.23438-0.625h-4.7656c0.42188-1.2812 1.5-2.0781 2.9531-2.1094 0.79688 0 1.5625 0.35938 2.2656 1.0938l0.25-0.625c-0.76562-0.75-1.6094-1.0938-2.6562-1.0938z"/>
</g>
</defs>
<g transform="translate(-149.09 -127.52)">
<use x="148.71201" y="134.765" xlink:href="#a"/>
</g>
</svg>
