<?xml version="1.0" encoding="UTF-8"?>
<svg fill="#000000" version="1.1" viewBox="0 0 3.8476 4.7421" xmlns="http://www.w3.org/2000/svg" xmlns:xlink="http://www.w3.org/1999/xlink">
<defs>
<g id="a">
<path d="m1.6406-2.3281c-0.09375 0.03125-0.1875 0.0625-0.28125 0.078125-0.45312 0.1875-0.9375 0.5625-0.9375 1.1094 0 0.078125 0 0.15625 0.03125 0.23438 0.03125 0.10938 0.0625 0.20312 0.125 0.3125 0.078125 0.125 0.1875 0.23438 0.3125 0.32812 0.26562 0.21875 0.60938 0.35938 0.9375 0.42188 0.64062 0.125 1.2969 0.015625 1.8438-0.3125 0.1875-0.125 0.35938-0.26562 0.5-0.42188 0.03125-0.046875 0.078125-0.078125 0.09375-0.125 0.015625-0.078125-0.015625-0.20312-0.10938-0.1875-0.09375 0-0.17188 0.125-0.23438 0.1875-0.14062 0.14062-0.3125 0.26562-0.5 0.35938l-0.28125 0.14062c-0.5 0.17188-1.1562 0.23438-1.5625-0.17188-0.0625-0.0625-0.10938-0.14062-0.15625-0.20312-0.046875-0.09375-0.078125-0.20312-0.09375-0.3125-0.03125-0.14062-0.03125-0.29688-0.015625-0.4375 0.046875-0.4375 0.35938-0.75 0.76562-0.85938 0.17188-0.046875 0.35938-0.03125 0.53125-0.03125 0.0625 0 0.125-0.015625 0.15625-0.09375 0-0.0625-0.03125-0.10938-0.078125-0.125-0.10938-0.03125-0.20312-0.015625-0.3125-0.03125-0.09375 0-0.20312 0-0.29688-0.03125-0.28125-0.0625-0.5-0.28125-0.59375-0.54688-0.17188-0.4375 0.015625-0.98438 0.48438-1.1562 0.21875-0.078125 0.40625-0.078125 0.64062-0.0625 0.40625 0.015625 0.84375 0.09375 1.1406 0.39062-0.078125 0-0.15625 0.03125-0.21875 0.0625-0.1875 0.14062-0.21875 0.40625-0.078125 0.57812 0.09375 0.10938 0.25 0.15625 0.39062 0.125 0.21875-0.046875 0.32812-0.23438 0.29688-0.45312-0.03125-0.26562-0.15625-0.5-0.375-0.64062-0.20312-0.14062-0.45312-0.21875-0.6875-0.26562-0.46875-0.09375-1-0.09375-1.4531 0.03125-0.375 0.10938-0.76562 0.3125-0.96875 0.65625-0.03125 0.078125-0.078125 0.17188-0.09375 0.26562-0.015625 0.0625-0.015625 0.14062-0.015625 0.21875 0.03125 0.4375 0.39062 0.71875 0.78125 0.875 0.09375 0.046875 0.20312 0.078125 0.3125 0.09375z"/>
</g>
</defs>
<g transform="translate(-149.13 -130.23)">
<use x="148.71201" y="134.765" xlink:href="#a"/>
</g>
</svg>
