<?xml version="1.0" encoding="UTF-8"?>
<svg fill="#000000" version="1.1" viewBox="0 0 5.0938 6.1562" xmlns="http://www.w3.org/2000/svg" xmlns:xlink="http://www.w3.org/1999/xlink">
<defs>
<g id="a">
<path d="m5.7188-0.59375v-0.54688h-2.8438l0.39062-0.98438c0.28125 0.20312 0.60938 0.35938 0.96875 0.35938 0.95312 0 1.3438-0.60938 1.4844-1.5l-0.20312-0.078125c-0.15625 0.5625-0.4375 1.0781-1.0938 1.0781-0.32812 0-0.67188-0.25-0.9375-0.4375l0.32812-0.82812c0.14062 0.046875 0.28125 0.078125 0.42188 0.078125 0.95312 0 1.3438-0.625 1.4844-1.5l-0.20312-0.09375c-0.15625 0.57812-0.4375 1.0781-1.0938 1.0781-0.14062 0-0.26562-0.03125-0.39062-0.09375l0.64062-1.5781h-0.54688l-0.53125 1.3281c-0.42188-0.29688-0.875-0.73438-1.4375-0.73438-0.875 0-1.3125 0.51562-1.5312 1.3125l0.1875 0.078125c0.21875-0.51562 0.5625-0.875 1.1562-0.875 0.5 0 1 0.53125 1.4062 0.78125l-0.29688 0.75c-0.28125-0.1875-0.57812-0.35938-0.92188-0.35938-0.875 0-1.3125 0.53125-1.5312 1.3125l0.1875 0.078125c0.21875-0.5 0.5625-0.875 1.1562-0.875 0.3125 0 0.64062 0.21875 0.875 0.40625l-0.51562 1.2969h-1.7031v0.54688h1.4844l-0.4375 1.1094h0.54688l0.4375-1.1094z"/>
</g>
</defs>
<g transform="translate(-149.34 -129.12)">
<use x="148.71201" y="134.765" xlink:href="#a"/>
</g>
</svg>
