<?xml version="1.0" encoding="UTF-8"?>
<svg fill="#000000" version="1.1" viewBox="0 0 6.6416 4.4046" xmlns="http://www.w3.org/2000/svg" xmlns:xlink="http://www.w3.org/1999/xlink">
<defs>
<g id="a">
<path d="m2.4062-3.4844h-1.375-0.3125c-0.0625 0-0.10938 0-0.14062 0.0625-0.015625 0.03125-0.015625 0.078125-0.015625 0.10938 0 0.078125-0.015625 0.1875 0.078125 0.21875 0.078125 0.015625 0.17188 0 0.25 0h1.625c0.0625 0 0.10938 0.015625 0.15625 0 0.0625 0 0.09375-0.0625 0.09375-0.10938 0.03125-0.17188 0.046875-0.32812 0.125-0.5 0.1875-0.35938 0.57812-0.60938 0.98438-0.60938s0.79688 0.25 0.98438 0.60938c0.078125 0.17188 0.10938 0.32812 0.125 0.5 0.015625 0.046875 0.046875 0.10938 0.09375 0.10938 0.0625 0.015625 0.10938 0 0.15625 0h1.6406c0.078125 0 0.15625 0.015625 0.23438 0 0.09375-0.03125 0.09375-0.14062 0.09375-0.21875 0-0.03125 0-0.078125-0.03125-0.10938-0.03125-0.0625-0.078125-0.0625-0.14062-0.0625h-0.29688-1.375c-0.03125-0.17188-0.10938-0.34375-0.20312-0.5-0.078125-0.125-0.17188-0.25-0.29688-0.35938-0.54688-0.46875-1.3906-0.48438-1.9531-0.015625-0.125 0.10938-0.25 0.25-0.32812 0.40625-0.078125 0.14062-0.15625 0.29688-0.17188 0.46875zm0 1.9688c0.015625 0.17188 0.09375 0.34375 0.1875 0.48438 0.078125 0.14062 0.17188 0.26562 0.29688 0.35938 0.5625 0.48438 1.3906 0.5 1.9531 0.03125 0.125-0.10938 0.25-0.25 0.34375-0.40625 0.078125-0.14062 0.14062-0.3125 0.17188-0.46875h1.375 0.29688c0.0625 0 0.10938-0.015625 0.14062-0.0625 0.03125-0.03125 0.03125-0.078125 0.03125-0.10938 0-0.09375 0-0.20312-0.09375-0.21875-0.078125-0.015625-0.15625 0-0.23438 0h-1.6406c-0.046875 0-0.09375-0.015625-0.15625 0-0.046875 0-0.078125 0.046875-0.09375 0.10938-0.015625 0.17188-0.046875 0.32812-0.125 0.48438-0.1875 0.35938-0.57812 0.60938-0.98438 0.60938s-0.79688-0.25-0.98438-0.60938c-0.078125-0.15625-0.09375-0.3125-0.125-0.48438 0-0.0625-0.03125-0.10938-0.09375-0.10938-0.046875-0.015625-0.09375 0-0.15625 0h-1.625c-0.078125 0-0.17188-0.015625-0.25 0-0.09375 0.015625-0.078125 0.125-0.078125 0.21875 0 0.03125 0 0.078125 0.015625 0.10938 0.03125 0.046875 0.078125 0.0625 0.14062 0.0625h0.3125z"/>
</g>
</defs>
<g transform="translate(-149.27 -130.06)">
<use x="148.71201" y="134.765" xlink:href="#a"/>
</g>
</svg>
