<?xml version="1.0" encoding="UTF-8"?>
<svg fill="#000000" version="1.1" viewBox="0 0 6.6562 4.2656" xmlns="http://www.w3.org/2000/svg" xmlns:xlink="http://www.w3.org/1999/xlink">
<defs>
<g id="a">
<path d="m6.8438-4.2344c0.17188 0 0.35938 0 0.35938-0.1875 0-0.20312-0.1875-0.20312-0.35938-0.20312h-5.9531c-0.15625 0-0.34375 0-0.34375 0.20312 0 0.1875 0.20312 0.1875 0.35938 0.1875zm0 3.875c0.17188 0 0.35938 0 0.35938-0.20312 0-0.1875-0.1875-0.1875-0.35938-0.1875h-5.9375c-0.15625 0-0.35938 0-0.35938 0.1875 0 0.20312 0.1875 0.20312 0.34375 0.20312zm0-1.9375c0.17188 0 0.35938 0 0.35938-0.20312 0-0.1875-0.1875-0.1875-0.35938-0.1875h-5.9531c-0.15625 0-0.34375 0-0.34375 0.1875 0 0.20312 0.1875 0.20312 0.34375 0.20312z"/>
</g>
</defs>
<g transform="translate(-149.26 -130.14)">
<use x="148.71201" y="134.765" xlink:href="#a"/>
</g>
</svg>
