<?xml version="1.0" encoding="UTF-8"?>
<svg fill="#000000" version="1.1" viewBox="0 0 7.6406 6.8931" xmlns="http://www.w3.org/2000/svg" xmlns:xlink="http://www.w3.org/1999/xlink">
<defs>
<g id="a">
<path d="m0.1875-6.8125v0.29688c0.1875 0 0.34375 0 0.53125 0.03125 0.10938 0.015625 0.21875 0.03125 0.3125 0.10938 0.10938 0.125 0.17188 0.3125 0.21875 0.46875 0.125 0.32812 0.25 0.64062 0.375 0.96875 0.4375 1.1562 0.875 2.3125 1.3281 3.4531 0.14062 0.375 0.28125 0.73438 0.42188 1.1094l0.10938 0.25c0.015625 0.0625 0.03125 0.14062 0.09375 0.17188 0.078125 0.046875 0.15625 0.03125 0.23438 0.03125h0.5c0.21875-0.015625 0.25-0.23438 0.3125-0.39062 0.15625-0.42188 0.3125-0.84375 0.48438-1.2656 0.46875-1.2188 0.9375-2.4219 1.4062-3.6406 0.046875-0.15625 0.10938-0.3125 0.17188-0.46875 0.046875-0.14062 0.09375-0.29688 0.1875-0.40625 0.23438-0.3125 0.59375-0.42188 0.95312-0.42188v-0.29688h-2.0938v0.29688c0.09375 0 0.20312 0.015625 0.28125 0.046875 0.078125 0.015625 0.14062 0.03125 0.20312 0.078125 0.125 0.078125 0.21875 0.20312 0.23438 0.35938 0 0.10938-0.046875 0.20312-0.078125 0.29688-0.0625 0.15625-0.125 0.32812-0.1875 0.48438-0.28125 0.75-0.57812 1.4844-0.85938 2.2344-0.09375 0.25-0.1875 0.48438-0.28125 0.71875-0.046875 0.14062-0.10938 0.26562-0.14062 0.40625h-0.015625c-0.015625-0.125-0.078125-0.25-0.125-0.35938-0.078125-0.21875-0.17188-0.4375-0.25-0.65625l-0.84375-2.2031c-0.10938-0.26562-0.21875-0.54688-0.3125-0.8125-0.046875-0.09375-0.125-0.23438-0.09375-0.34375s0.14062-0.15625 0.21875-0.1875c0.1875-0.0625 0.39062-0.0625 0.57812-0.0625v-0.29688zm4.1094 6.4375-0.20312-0.51562-0.48438-1.2812-1.1406-2.9688-0.53125-1.375h0.64062c0.046875 0 0.17188-0.015625 0.21875 0.03125 0.03125 0.03125 0.046875 0.078125 0.0625 0.125 0.03125 0.09375 0.078125 0.1875 0.10938 0.28125 0.125 0.32812 0.25 0.67188 0.375 1 0.32812 0.8125 0.64062 1.6406 0.95312 2.4531 0.09375 0.26562 0.20312 0.53125 0.29688 0.79688 0.03125 0.0625 0.0625 0.14062 0.078125 0.21875 0.015625 0.03125 0.046875 0.078125 0.046875 0.14062 0.015625 0.078125-0.046875 0.1875-0.078125 0.26562-0.078125 0.20312-0.15625 0.39062-0.21875 0.57812-0.03125 0.078125-0.0625 0.20312-0.125 0.25z"/>
</g>
</defs>
<g transform="translate(-148.9 -127.95)">
<use x="148.71201" y="134.765" xlink:href="#a"/>
</g>
</svg>
