<?xml version="1.0" encoding="UTF-8"?>
<svg fill="#000000" version="1.1" viewBox="0 0 6.5156 6.5156" xmlns="http://www.w3.org/2000/svg" xmlns:xlink="http://www.w3.org/1999/xlink">
<defs>
<g id="a">
<path d="m7.625-0.015625c0-0.0625-0.03125-0.125-0.0625-0.15625l-2.4844-2.4844 0.89062-1.8906c0.03125-0.078125 0-0.17188-0.078125-0.20312-0.0625-0.03125-0.15625 0-0.20312 0.078125l-0.82812 1.7969-2.1875-2.2031 0.84375-0.84375c0.046875-0.046875 0.0625-0.09375 0.0625-0.15625 0-0.125-0.09375-0.23438-0.23438-0.23438-0.046875 0-0.10938 0.015625-0.15625 0.078125l-2.0156 2c-0.046875 0.0625-0.0625 0.10938-0.0625 0.17188 0 0.10938 0.09375 0.21875 0.21875 0.21875 0.0625 0 0.125-0.015625 0.17188-0.046875l0.84375-0.85938 2.3125 2.3125-0.89062 1.8906c-0.03125 0.078125 0 0.17188 0.078125 0.20312s0.15625 0 0.1875-0.078125l0.84375-1.7969 2.3594 2.3594c0.046875 0.046875 0.10938 0.0625 0.15625 0.0625 0.125 0 0.23438-0.078125 0.23438-0.21875z"/>
</g>
</defs>
<g transform="translate(-149.82 -128.45)">
<use x="148.71201" y="134.765" xlink:href="#a"/>
</g>
</svg>
