<?xml version="1.0" encoding="UTF-8"?>
<svg fill="#000000" width="4.7969" height="8.0938" version="1.1" viewBox="0 0 4.7969 8.0937" xmlns="http://www.w3.org/2000/svg" xmlns:xlink="http://www.w3.org/1999/xlink">
<defs>
<g id="a">
<path d="m2.0312 1.5c0.03125 0 0.078125 0 0.10938-0.03125 1.2656-0.82812 2.0312-2.2031 2.0469-3.7344l1.6719-0.60938c0.0625-0.03125 0.09375-0.078125 0.09375-0.14062 0-0.10938-0.09375-0.17188-0.20312-0.14062l-1.5781 0.57812c-0.0625-1.2812-0.64062-2.4531-1.5938-3.2812 0.48438-0.078125 0.96875-0.10938 1.4375-0.23438 0.09375-0.015625 0.17188-0.10938 0.17188-0.21875 0-0.14062-0.10938-0.23438-0.23438-0.23438-0.03125 0-0.6875 0.20312-1.3281 0.20312-0.71875 0-1.1719-0.25-1.2344-0.25-0.125 0-0.23438 0.10938-0.23438 0.21875 0 0.28125 0.76562 0.5 0.9375 2.4219 0.015625 0.125 0.10938 0.21875 0.23438 0.21875s0.21875-0.10938 0.21875-0.23438c0-0.3125-0.21875-1.1094-0.29688-1.5781 0.90625 0.78125 1.4531 1.9219 1.4844 3.125l-2.2656 0.8125c-0.078125 0.03125-0.10938 0.125-0.078125 0.1875 0.03125 0.09375 0.10938 0.125 0.1875 0.09375l2.1406-0.78125c-0.078125 1.4062-0.84375 2.5469-1.8281 3.2031-0.0625 0.03125-0.09375 0.10938-0.09375 0.1875 0 0.125 0.10938 0.21875 0.23438 0.21875z"/>
</g>
</defs>
<g transform="translate(-149.87 -128.17)">
<use x="148.71201" y="134.765" xlink:href="#a"/>
</g>
</svg>
