<?xml version="1.0" encoding="UTF-8"?>
<svg fill="#000000" version="1.1" viewBox="0 0 3.3281 9.1719" xmlns="http://www.w3.org/2000/svg" xmlns:xlink="http://www.w3.org/1999/xlink">
<defs>
<g id="a">
<path d="m2.1094-4.4062c-0.39062-0.015625-0.78125-0.23438-1.1719-0.23438-0.21875 0-0.39062 0.125-0.39062 0.32812s0.14062 0.35938 0.375 0.35938c0.40625 0 0.78125-0.21875 1.1875-0.23438-0.03125 0.20312-0.046875 0.40625-0.078125 0.60938-0.078125 0.39062-0.17188 0.79688-0.17188 1.2188v0.25c0 0.92188 0.046875 1.8594 0.10938 2.7812l0.09375 1.125c0.015625 0.125-0.015625 0.34375 0.15625 0.34375 0.15625 0 0.14062-0.21875 0.14062-0.34375l0.09375-1.125c0.0625-0.92188 0.125-1.8594 0.125-2.7812v-0.25c0-0.42188-0.10938-0.82812-0.17188-1.2188-0.046875-0.20312-0.0625-0.40625-0.09375-0.60938 0.40625 0.015625 0.78125 0.23438 1.1719 0.23438 0.25 0 0.39062-0.14062 0.39062-0.32812 0-0.20312-0.14062-0.35938-0.375-0.35938-0.40625 0-0.78125 0.21875-1.1875 0.23438 0.03125-0.75 0.25-1.4844 0.25-2.2344 0-0.15625-0.046875-0.39062-0.34375-0.39062-0.28125 0-0.35938 0.20312-0.35938 0.39062 0 0.75 0.21875 1.5 0.25 2.2344z"/>
</g>
</defs>
<g transform="translate(-149.26 -127.73)">
<use x="148.71201" y="134.765" xlink:href="#a"/>
</g>
</svg>
