<?xml version="1.0" encoding="UTF-8"?>
<svg fill="#000000" version="1.1" viewBox="0 0 5.3438 7.25" xmlns="http://www.w3.org/2000/svg" xmlns:xlink="http://www.w3.org/1999/xlink">
<defs>
<g id="a">
<path d="m2.375-3.625c-1.9844 1.0781-2.0938 2.375-2.0938 2.6094 0 0.75 0.73438 1.2344 1.6875 1.2344 1.6562 0 3-1.5781 3-1.7812 0-0.0625-0.046875-0.078125-0.10938-0.078125-0.10938 0-0.5 0.14062-0.71875 0.4375s-0.625 0.875-1.5156 0.875c-0.71875 0-1.5-0.375-1.5-1.125 0-0.48438 0.5625-1.9531 2.1406-2.0156 0.46875-0.015625 0.8125-0.375 0.8125-0.48438 0-0.046875-0.046875-0.0625-0.09375-0.0625-1.4062-0.0625-1.6875-0.75-1.6875-1.1406 0-0.23438 0.14062-1.3281 1.5469-1.3281 0.1875 0 0.9375 0.03125 0.9375 0.54688 0 0.17188-0.078125 0.3125-0.10938 0.35938-0.03125 0.03125-0.0625 0.078125-0.0625 0.10938 0 0.078125 0.078125 0.078125 0.10938 0.078125 0.29688 0 0.90625-0.39062 0.90625-0.95312 0-0.59375-0.6875-0.6875-1.125-0.6875-1.3594 0-3.0469 1.0781-3.0469 2.2969 0 0.59375 0.4375 0.95312 0.92188 1.1094z"/>
</g>
</defs>
<g transform="translate(-148.99 -127.73)">
<use x="148.71201" y="134.765" xlink:href="#a"/>
</g>
</svg>
