<?xml version="1.0" encoding="UTF-8"?>
<svg fill="#000000" version="1.1" viewBox="0 0 7.5312 7.5312" xmlns="http://www.w3.org/2000/svg" xmlns:xlink="http://www.w3.org/1999/xlink">
<defs>
<g id="a">
<path d="m8.4062-1.3125c0.125 0 0.23438-0.10938 0.23438-0.23438 0-0.046875-0.03125-0.23438-0.03125-0.5625 0-1.3906 0.53125-1.7656 0.53125-1.9531 0-0.14062-0.125-0.23438-0.23438-0.23438-0.1875 0-0.5625 0.53125-1.9531 0.53125-0.34375 0-0.51562-0.015625-0.5625-0.015625-0.125 0-0.23438 0.078125-0.23438 0.21875 0 0.23438 0.25 0.25 0.48438 0.25h0.0625c0.39062 0 0.76562-0.046875 1.1562-0.046875h0.015625l-1.8594 1.8594-1.0781-2.3125 2.1094-2.1094c0.046875-0.046875 0.078125-0.09375 0.078125-0.15625 0-0.125-0.09375-0.23438-0.23438-0.23438-0.0625 0-0.125 0.015625-0.15625 0.078125l-1.9844 1.9844-0.51562-1.1094c-0.046875-0.078125-0.14062-0.10938-0.20312-0.078125-0.078125 0.03125-0.10938 0.125-0.078125 0.20312l0.5625 1.2031-1.9688 1.9844c0-0.40625 0.03125-0.79688 0.03125-1.1875v-0.09375c0-0.21875 0-0.45312-0.23438-0.45312-0.14062 0-0.23438 0.10938-0.23438 0.23438 0 0.046875 0.03125 0.23438 0.03125 0.5625 0 1.3906-0.53125 1.7656-0.53125 1.9531 0 0.14062 0.10938 0.23438 0.21875 0.23438 0.20312 0 0.57812-0.53125 1.9531-0.53125 0.34375 0 0.53125 0.015625 0.57812 0.015625 0.125 0 0.21875-0.078125 0.21875-0.21875 0-0.23438-0.23438-0.25-0.46875-0.25h-0.0625c-0.39062 0-0.76562 0.046875-1.1562 0.046875h-0.015625l1.8438-1.8594 1.0781 2.3125-2.0938 2.1094c-0.046875 0.046875-0.078125 0.09375-0.078125 0.15625 0 0.125 0.09375 0.23438 0.23438 0.23438 0.0625 0 0.125-0.015625 0.15625-0.078125l1.9844-1.9844 0.51562 1.1094c0.046875 0.078125 0.14062 0.10938 0.20312 0.078125 0.078125-0.03125 0.10938-0.125 0.0625-0.20312l-0.54688-1.2031 1.9688-1.9844c0 0.40625-0.03125 0.79688-0.03125 1.1875v0.09375c0 0.21875 0 0.45312 0.23438 0.45312z"/>
</g>
</defs>
<g transform="translate(-150.32 -128.45)">
<use x="148.71201" y="134.765" xlink:href="#a"/>
</g>
</svg>
