<?xml version="1.0" encoding="UTF-8"?>
<svg fill="#000000" version="1.1" viewBox="0 0 3.3125 8.8594" xmlns="http://www.w3.org/2000/svg" xmlns:xlink="http://www.w3.org/1999/xlink">
<defs>
<g id="a">
<path d="m1.6875 1.9062c0.03125 0.015625 0.046875 0.03125 0.078125 0.03125s0.0625-0.015625 0.078125-0.03125c0.53125-0.53125 1.25-0.82812 2-0.82812h0.09375c0.046875 0 0.0625-0.03125 0.078125-0.0625l0.046875-0.125c0-0.046875-0.03125-0.10938-0.10938-0.10938h-0.09375c-0.57812 0-1.1406 0.17188-1.625 0.45312l1.7344-4.1719c0.015625-0.03125 0.015625-0.046875 0.015625-0.078125 0-0.078125-0.046875-0.15625-0.125-0.1875-0.03125-0.015625-0.0625-0.015625-0.078125-0.015625-0.03125 0-0.046875 0-0.078125 0.015625l-1.5469 0.625 1.6875-4.0781c0.015625-0.015625 0.015625-0.046875 0.015625-0.0625 0-0.078125-0.046875-0.15625-0.125-0.1875-0.015625-0.015625-0.046875-0.015625-0.0625-0.015625-0.078125 0-0.15625 0.046875-0.1875 0.125l-1.8906 4.5312c-0.015625 0.015625-0.015625 0.046875-0.015625 0.0625 0 0.078125 0.046875 0.15625 0.125 0.1875 0.015625 0.015625 0.046875 0.015625 0.078125 0.015625s0.046875 0 0.078125-0.015625l1.5469-0.64062-1.5469 3.7344c-0.14062-0.57812-0.45312-1.125-0.89062-1.5312-0.015625-0.03125-0.046875-0.03125-0.078125-0.03125-0.046875 0-0.078125 0.015625-0.10938 0.0625l-0.03125 0.078125v0.046875c0 0.03125 0 0.0625 0.03125 0.078125 0.5625 0.53125 0.875 1.2812 0.875 2.0469 0 0.03125 0.015625 0.0625 0.03125 0.078125z"/>
</g>
</defs>
<g transform="translate(-149.46 -127.84)">
<use x="148.71201" y="134.765" xlink:href="#a"/>
</g>
</svg>
