<?xml version="1.0" encoding="UTF-8"?>
<svg fill="#000000" version="1.1" viewBox="0 0 4.9062 4.4526" xmlns="http://www.w3.org/2000/svg" xmlns:xlink="http://www.w3.org/1999/xlink">
<defs>
<g id="a">
<path d="m0.34375-4.3125v0.25c0.14062 0 0.28125 0 0.42188 0.015625 0.09375 0.015625 0.17188 0.046875 0.21875 0.125 0.046875 0.09375 0.046875 0.20312 0.046875 0.29688v2.9219c0 0.10938 0.015625 0.21875-0.046875 0.3125-0.046875 0.078125-0.14062 0.09375-0.21875 0.125-0.14062 0.015625-0.28125 0.015625-0.42188 0.015625v0.23438l0.39062-0.015625 0.84375-0.015625 0.8125 0.03125v-0.23438c-0.14062 0-0.26562 0-0.40625-0.015625-0.078125-0.015625-0.14062-0.03125-0.20312-0.078125-0.10938-0.125-0.078125-0.34375-0.078125-0.5v-1.2031h0.57812c0.10938 0 0.23438-0.015625 0.34375 0 0.21875 0.015625 0.42188 0.14062 0.5625 0.3125 0.10938 0.15625 0.125 0.32812 0.125 0.51562 0 0.17188-0.015625 0.34375 0 0.51562 0.015625 0.21875 0.10938 0.40625 0.28125 0.54688 0.078125 0.078125 0.17188 0.14062 0.28125 0.17188 0.125 0.046875 0.26562 0.09375 0.42188 0.10938 0.26562 0.03125 0.53125 0.03125 0.73438-0.17188 0.046875-0.046875 0.078125-0.10938 0.10938-0.15625 0.078125-0.10938 0.10938-0.25 0.10938-0.35938 0-0.0625 0-0.125-0.0625-0.15625-0.046875-0.03125-0.14062-0.015625-0.17188 0.046875-0.015625 0.046875-0.015625 0.078125-0.015625 0.125-0.015625 0.0625-0.03125 0.125-0.046875 0.17188-0.0625 0.17188-0.28125 0.375-0.48438 0.26562-0.015625-0.015625-0.046875-0.046875-0.078125-0.0625-0.125-0.15625-0.15625-0.35938-0.21875-0.5625-0.046875-0.15625-0.078125-0.32812-0.125-0.48438-0.046875-0.14062-0.0625-0.28125-0.14062-0.40625-0.09375-0.15625-0.20312-0.26562-0.34375-0.375-0.078125-0.046875-0.1875-0.10938-0.28125-0.14062 0.09375-0.015625 0.1875-0.046875 0.28125-0.078125 0.375-0.14062 0.79688-0.4375 0.84375-0.85938 0-0.078125 0-0.15625-0.015625-0.21875-0.03125-0.09375-0.0625-0.1875-0.10938-0.26562-0.0625-0.09375-0.14062-0.1875-0.23438-0.26562-0.125-0.10938-0.26562-0.20312-0.42188-0.26562-0.29688-0.125-0.60938-0.1875-0.9375-0.21875h-0.64062zm1.3594 2.0469v-1.25c0-0.10938-0.015625-0.21875 0.015625-0.32812 0-0.03125 0-0.09375 0.03125-0.125 0.046875-0.03125 0.125-0.03125 0.17188-0.03125h0.45312c0.34375 0 0.78125 0 1.0312 0.28125 0.078125 0.078125 0.10938 0.1875 0.125 0.28125 0.0625 0.26562 0.0625 0.65625-0.125 0.875-0.15625 0.17188-0.39062 0.23438-0.60938 0.26562-0.35938 0.046875-0.73438 0.03125-1.0938 0.03125z"/>
</g>
</defs>
<g transform="translate(-149.06 -130.45)">
<use x="148.71201" y="134.765" xlink:href="#a"/>
</g>
</svg>
