<?xml version="1.0" encoding="UTF-8"?>
<svg fill="#000000" version="1.1" viewBox="0 0 4.9688 5.7969" xmlns="http://www.w3.org/2000/svg" xmlns:xlink="http://www.w3.org/1999/xlink">
<defs>
<g id="a">
<path d="m1.0312-5h1.7344c1.375 0 2.5156 1 2.625 2.3125h-2.0156v-1.3125c0-0.10938-0.078125-0.20312-0.1875-0.20312-0.125 0-0.20312 0.09375-0.20312 0.20312v1.3125h-1.9531c-0.10938 0-0.20312 0.078125-0.20312 0.1875 0 0.125 0.09375 0.20312 0.20312 0.20312h1.9531v1.3125c0 0.10938 0.078125 0.20312 0.20312 0.20312 0.10938 0 0.1875-0.09375 0.1875-0.20312v-1.3125h2.0156c-0.10938 1.3125-1.25 2.3125-2.625 2.3125h-1.7344c-0.10938 0-0.20312 0.078125-0.20312 0.1875s0.09375 0.20312 0.20312 0.20312h1.7344c1.6406 0 3.0312-1.2656 3.0312-2.9062 0-1.625-1.3906-2.8906-3.0312-2.8906h-1.7344c-0.10938 0-0.20312 0.09375-0.20312 0.20312s0.09375 0.1875 0.20312 0.1875z"/>
</g>
</defs>
<g transform="translate(-149.54 -129.37)">
<use x="148.71201" y="134.765" xlink:href="#a"/>
</g>
</svg>
