<?xml version="1.0" encoding="UTF-8"?>
<svg fill="#000000" version="1.1" viewBox="0 0 5.5469 5.5469" xmlns="http://www.w3.org/2000/svg" xmlns:xlink="http://www.w3.org/1999/xlink">
<defs>
<g id="a">
<path d="m6.1875-1.1719v-0.65625h-2.8125c-0.35938 0-0.65625-0.35938-0.65625-0.70312s0.28125-0.67188 0.64062-0.67188h2.8281v-0.67188h-2.8438c-0.71875 0-1.2969 0.59375-1.2969 1.3438 0 0.71875 0.53125 1.3594 1.2969 1.3594zm0 1.4219v-0.65625h-2.8438c-1.1406 0-2.0469-1.0625-2.0469-2.125s0.89062-2.1094 2.0312-2.1094h2.8594v-0.65625h-2.8594c-1.5938 0-2.6875 1.2969-2.6875 2.7656s1.0781 2.7812 2.6562 2.7812z"/>
</g>
</defs>
<g transform="translate(-149.35 -129.47)">
<use x="148.71201" y="134.765" xlink:href="#a"/>
</g>
</svg>
