<?xml version="1.0" encoding="UTF-8"?>
<svg fill="#000000" version="1.1" viewBox="0 0 4.9688 7.8594" xmlns="http://www.w3.org/2000/svg" xmlns:xlink="http://www.w3.org/1999/xlink">
<defs>
<g id="a">
<path d="m0.53125-4.5312v2.4219c0 1.5625 1.2656 2.7188 2.6562 2.7188 1.2188 0 2.3125-0.89062 2.3125-2.125 0-0.17188-0.14062-0.29688-0.3125-0.29688-0.15625 0-0.29688 0.125-0.29688 0.29688 0 0.85938-0.76562 1.5156-1.7031 1.5156-1.1562 0-2.0469-0.98438-2.0469-2.1094v-2.4219c0-1.2344 1-2.125 2.0469-2.125 0.9375 0 1.7031 0.67188 1.7031 1.5156 0 0.17188 0.14062 0.3125 0.29688 0.3125 0.17188 0 0.3125-0.14062 0.3125-0.3125 0-1.2344-1.0938-2.1094-2.3125-2.1094-1.5156 0-2.6562 1.2656-2.6562 2.7188z"/>
</g>
</defs>
<g transform="translate(-149.24 -128.29)">
<use x="148.71201" y="135.53999" xlink:href="#a"/>
</g>
</svg>
