<?xml version="1.0" encoding="UTF-8"?>
<svg fill="#000000" version="1.1" viewBox="0 0 2.2188 9.9844" xmlns="http://www.w3.org/2000/svg" xmlns:xlink="http://www.w3.org/1999/xlink">
<defs>
<g id="a">
<path d="m3.2656-7.0938c0.046875-0.10938 0.046875-0.14062 0.046875-0.1875 0-0.10938-0.078125-0.20312-0.1875-0.20312-0.09375 0-0.17188 0.0625-0.23438 0.23438l-1.75 4.5781c-0.015625 0.0625-0.046875 0.125-0.046875 0.17188 0 0.03125 0 0.0625 0.046875 0.17188l1.75 4.5781c0.046875 0.10938 0.09375 0.25 0.23438 0.25 0.10938 0 0.1875-0.09375 0.1875-0.20312 0-0.03125 0-0.046875-0.046875-0.15625l-1.7656-4.6406z"/>
</g>
</defs>
<g transform="translate(-149.81 -127.28)">
<use x="148.71201" y="134.765" xlink:href="#a"/>
</g>
</svg>
