<?xml version="1.0" encoding="UTF-8"?>
<svg fill="#000000" version="1.1" viewBox="0 0 5.3906 5.3906" xmlns="http://www.w3.org/2000/svg" xmlns:xlink="http://www.w3.org/1999/xlink">
<defs>
<g id="a">
<path d="m0.96875-5.4375-0.078125 0.39062c0.29688 0.078125 0.6875 0.1875 0.6875 0.34375v3.9219c0 0.15625-0.375 0.25-0.65625 0.32812l-0.03125 0.40625h5.3906l-0.015625-0.40625c-0.28125-0.078125-0.65625-0.17188-0.65625-0.32812v-3.9062c0-0.17188 0.39062-0.28125 0.67188-0.35938l-0.078125-0.39062h-2.0781l-0.0625 0.39062c0.28125 0.078125 0.65625 0.1875 0.65625 0.34375v4.0156h-2.2656v-4c0-0.17188 0.39062-0.28125 0.67188-0.35938l-0.078125-0.39062z"/>
</g>
</defs>
<g transform="translate(-149.6 -129.33)">
<use x="148.71201" y="134.765" xlink:href="#a"/>
</g>
</svg>
