<?xml version="1.0" encoding="UTF-8"?>
<svg fill="#000000" version="1.1" viewBox="0 0 5.625 5.6406" xmlns="http://www.w3.org/2000/svg" xmlns:xlink="http://www.w3.org/1999/xlink">
<defs>
<g id="a">
<path d="m1.75-2.5c0 0.90625-0.29688 1.7812-0.84375 2.5-0.03125 0.046875-0.03125 0.078125-0.03125 0.125 0 0.10938 0.078125 0.20312 0.1875 0.20312 0.046875 0 0.078125-0.015625 0.125-0.03125 0.71875-0.5625 1.5938-0.84375 2.5-0.84375 0.89062 0 1.7812 0.28125 2.5 0.84375 0.015625 0.015625 0.078125 0.03125 0.10938 0.03125 0.10938 0 0.20312-0.09375 0.20312-0.20312 0-0.046875-0.015625-0.078125-0.046875-0.125-0.53125-0.71875-0.82812-1.5938-0.82812-2.5 0-0.89062 0.29688-1.7656 0.82812-2.4844 0.03125-0.046875 0.046875-0.078125 0.046875-0.125 0-0.10938-0.09375-0.20312-0.20312-0.20312-0.03125 0-0.09375 0.015625-0.10938 0.03125-0.71875 0.5625-1.6094 0.84375-2.5 0.84375-0.90625 0-1.7812-0.28125-2.5-0.84375-0.046875-0.015625-0.078125-0.015625-0.125-0.015625-0.10938 0-0.1875 0.078125-0.1875 0.1875 0 0.046875 0 0.09375 0.03125 0.125 0.54688 0.71875 0.84375 1.5938 0.84375 2.4844zm3.9375 2.0156c-0.60938-0.29688-1.2969-0.46875-2-0.46875s-1.3906 0.17188-2.0156 0.46875c0.29688-0.625 0.46875-1.3125 0.46875-2.0156 0-0.6875-0.17188-1.375-0.46875-2 0.625 0.29688 1.3125 0.46875 2.0156 0.46875s1.3906-0.17188 2-0.46875c-0.29688 0.625-0.45312 1.3125-0.45312 2 0 0.70312 0.15625 1.3906 0.45312 2.0156z"/>
</g>
</defs>
<g transform="translate(-149.59 -129.45)">
<use x="148.71201" y="134.765" xlink:href="#a"/>
</g>
</svg>
