<?xml version="1.0" encoding="UTF-8"?>
<svg fill="#000000" version="1.1" viewBox="0 0 3.2664 6.5043" xmlns="http://www.w3.org/2000/svg" xmlns:xlink="http://www.w3.org/1999/xlink">
<defs>
<g id="a">
<path d="m1.7188 1.6875c-0.078125 0.046875-0.15625 0.09375-0.25 0.10938-0.078125 0-0.14062 0.015625-0.21875 0.015625-0.40625-0.03125-0.57812-0.5-0.625-0.84375-0.015625-0.0625-0.03125-0.125-0.03125-0.1875 0-0.078125-0.015625-0.17188-0.015625-0.25v-0.35938c0-0.0625-0.015625-0.125 0.03125-0.1875 0.046875-0.078125 0.125-0.14062 0.1875-0.21875 0.015625-0.03125 0.046875-0.0625 0.09375-0.0625 0.03125 0 0.0625 0.03125 0.09375 0.046875 0.046875 0.046875 0.10938 0.09375 0.17188 0.14062 0.17188 0.09375 0.375 0.17188 0.5625 0.20312 0.51562 0.0625 1.125-0.046875 1.5156-0.42188 0.09375-0.09375 0.17188-0.23438 0.23438-0.35938 0.046875-0.10938 0.078125-0.23438 0.09375-0.34375 0.03125-0.14062 0.03125-0.29688 0.015625-0.4375s-0.0625-0.26562-0.125-0.39062c-0.0625-0.10938-0.14062-0.21875-0.21875-0.3125-0.1875-0.20312-0.46875-0.375-0.73438-0.45312-0.21875-0.0625-0.4375-0.09375-0.65625-0.125-0.14062-0.03125-0.28125-0.046875-0.40625-0.09375-0.32812-0.125-0.6875-0.39062-0.60938-0.78125l0.046875-0.1875c0.125-0.23438 0.35938-0.375 0.60938-0.42188 0.42188-0.10938 0.95312-0.078125 1.2812 0.25 0.17188 0.17188 0.26562 0.39062 0.3125 0.60938 0 0.10938 0 0.21875 0.015625 0.29688 0.03125 0.09375 0.17188 0.125 0.21875 0.046875 0.03125-0.03125 0.03125-0.0625 0.03125-0.10938v-0.20312-0.79688-0.20312c0-0.046875-0.015625-0.09375-0.046875-0.10938-0.125-0.078125-0.25 0.09375-0.34375 0.17188-0.015625 0.03125-0.0625 0.0625-0.10938 0.046875-0.0625 0-0.125-0.0625-0.1875-0.09375-0.10938-0.046875-0.21875-0.09375-0.34375-0.125-0.14062-0.015625-0.28125-0.015625-0.42188-0.015625-0.5 0-1.1094 0.14062-1.3906 0.60938-0.09375 0.15625-0.14062 0.32812-0.15625 0.48438-0.03125 0.14062-0.015625 0.26562 0.015625 0.39062 0.03125 0.10938 0.078125 0.20312 0.14062 0.29688 0.046875 0.078125 0.125 0.17188 0.1875 0.23438 0.20312 0.1875 0.46875 0.3125 0.73438 0.375 0.29688 0.078125 0.625 0.10938 0.92188 0.1875 0.4375 0.14062 0.8125 0.53125 0.75 1-0.03125 0.1875-0.10938 0.35938-0.25 0.48438-0.1875 0.17188-0.4375 0.25-0.6875 0.28125-0.25 0.015625-0.51562 0-0.75-0.10938-0.3125-0.15625-0.53125-0.46875-0.65625-0.76562-0.046875-0.14062-0.09375-0.28125-0.125-0.42188-0.015625-0.0625-0.03125-0.15625-0.0625-0.21875s-0.14062-0.078125-0.1875-0.046875c-0.078125 0.0625-0.046875 0.20312-0.046875 0.28125v1.7188c0 0.35938 0 0.70312 0.125 1.0312 0.10938 0.29688 0.29688 0.5625 0.60938 0.65625 0.078125 0.03125 0.1875 0.03125 0.28125 0.03125 0.39062-0.015625 0.79688-0.25 0.875-0.65625 0.015625-0.078125 0.03125-0.17188 0-0.26562-0.078125-0.32812-0.53125-0.45312-0.76562-0.21875-0.28125 0.28125-0.10938 0.78125 0.26562 0.79688z"/>
</g>
</defs>
<g transform="translate(-149.03 -130.29)">
<use x="148.71201" y="134.765" xlink:href="#a"/>
</g>
</svg>
