<?xml version="1.0" encoding="UTF-8"?>
<svg fill="#000000" version="1.1" viewBox="0 0 5.5156 6.1875" xmlns="http://www.w3.org/2000/svg" xmlns:xlink="http://www.w3.org/1999/xlink">
<defs>
<g id="a">
<path d="m4.5469-5.6094c0-0.17188 0-0.35938-0.20312-0.35938s-0.20312 0.1875-0.20312 0.35938v3.0312c0 0.20312 0 0.39062-0.21875 0.60938-0.1875 0.20312-0.4375 0.25-0.60938 0.25-0.14062 0-0.40625-0.046875-0.59375-0.23438-0.21875-0.21875-0.21875-0.40625-0.21875-0.625v-3.0312c0-0.17188 0-0.35938-0.20312-0.35938s-0.20312 0.1875-0.20312 0.35938v3.0625c0 0.98438 0.84375 1.2344 1.2188 1.2344 0.39062 0 1.2344-0.25 1.2344-1.2344zm1.5312 0c0-0.17188 0-0.35938-0.20312-0.35938-0.1875 0-0.1875 0.1875-0.1875 0.35938v3.6094c0 1.4219-1.5156 1.8281-2.375 1.8281-0.54688 0-1.1562-0.15625-1.625-0.46875-0.73438-0.5-0.73438-1.1094-0.73438-1.3594v-3.6094c0-0.17188 0-0.35938-0.20312-0.35938-0.1875 0-0.1875 0.1875-0.1875 0.35938v3.6406c0 1.5469 1.5312 2.1875 2.75 2.1875 1.2344 0 2.7656-0.65625 2.7656-2.1875z"/>
</g>
</defs>
<g transform="translate(-149.27 -128.8)">
<use x="148.71201" y="134.765" xlink:href="#a"/>
</g>
</svg>
