<?xml version="1.0" encoding="UTF-8"?>
<svg fill="#000000" version="1.1" viewBox="0 0 6.8281 8.9026" xmlns="http://www.w3.org/2000/svg" xmlns:xlink="http://www.w3.org/1999/xlink">
<defs>
<g id="b">
<path d="m4.6875-6.2656c0-0.46875-0.40625-0.875-0.95312-0.875-0.5625 0-0.95312 0.4375-0.95312 0.875 0 0.5 0.4375 0.875 0.95312 0.875 0.54688 0 0.95312-0.40625 0.95312-0.875zm-0.95312 0.65625c-0.42188 0-0.70312-0.1875-0.70312-0.65625 0-0.45312 0.26562-0.65625 0.70312-0.65625 0.42188 0 0.70312 0.1875 0.70312 0.65625 0 0.45312-0.26562 0.65625-0.70312 0.65625z"/>
</g>
<g id="a">
<path d="m3.9688-6.9375c-0.046875-0.125-0.078125-0.20312-0.23438-0.20312s-0.1875 0.0625-0.23438 0.20312l-2.0625 5.9531c-0.1875 0.51562-0.57812 0.67188-1.125 0.67188v0.3125c0.23438-0.015625 0.67188-0.03125 1.0156-0.03125 0.3125 0 0.82812 0.015625 1.1562 0.03125v-0.3125c-0.5 0-0.75-0.25-0.75-0.5 0-0.03125 0.015625-0.14062 0.015625-0.15625l0.46875-1.2969h2.4531l0.53125 1.5156c0.015625 0.046875 0.03125 0.10938 0.03125 0.14062 0 0.29688-0.5625 0.29688-0.82812 0.29688v0.3125c0.35938-0.03125 1.0625-0.03125 1.4375-0.03125 0.42188 0 0.89062 0.015625 1.2969 0.03125v-0.3125h-0.17188c-0.59375 0-0.73438-0.0625-0.84375-0.39062zm-0.53125 1.1094 1.125 3.25h-2.2344z"/>
</g>
</defs>
<g transform="translate(-149.02 -125.86)">
<use x="148.71201" y="133.00301" xlink:href="#b"/>
<use x="148.71201" y="134.765" xlink:href="#a"/>
</g>
</svg>
