<?xml version="1.0" encoding="UTF-8"?>
<svg fill="#000000" version="1.1" viewBox="0 0 6.4844 7.9844" xmlns="http://www.w3.org/2000/svg" xmlns:xlink="http://www.w3.org/1999/xlink">
<defs>
<g id="a">
<path d="m7.0781-6.1719c0.046875-0.125-0.0625-0.3125-0.20312-0.3125-0.09375 0-0.21875 0.046875-0.26562 0.15625l-0.85938 2.0469h-2.6562v-1.4062c0-0.15625-0.14062-0.29688-0.29688-0.29688-0.17188 0-0.29688 0.14062-0.29688 0.29688v6.3906c0 0.15625 0.125 0.29688 0.29688 0.29688 0.15625 0 0.29688-0.14062 0.29688-0.29688v-1.4062h1.1719l-0.78125 1.8906c-0.0625 0.125 0.0625 0.3125 0.20312 0.3125 0.09375 0 0.21875-0.046875 0.26562-0.15625l0.85938-2.0469h2.3594c0.15625 0 0.3125-0.14062 0.3125-0.29688s-0.15625-0.29688-0.3125-0.29688h-2.125l0.375-0.89062h1.7344c0.17188 0 0.32812-0.125 0.32812-0.3125 0-0.17188-0.15625-0.29688-0.32812-0.29688h-1.4844l0.375-0.89062h1.125c0.15625 0 0.3125-0.125 0.3125-0.29688s-0.15625-0.29688-0.3125-0.29688h-0.875zm-5.7812 7.1719c0.15625 0 0.29688-0.14062 0.29688-0.29688v-6.3906c0-0.15625-0.14062-0.29688-0.29688-0.29688s-0.29688 0.14062-0.29688 0.29688v6.3906c0 0.15625 0.14062 0.29688 0.29688 0.29688zm1.7969-3.7969v-0.89062h2.4219l-0.375 0.89062zm0 1.5v-0.89062h1.7969l-0.375 0.89062z"/>
</g>
</defs>
<g transform="translate(-149.71 -128.28)">
<use x="148.71201" y="134.765" xlink:href="#a"/>
</g>
</svg>
