<?xml version="1.0" encoding="UTF-8"?>
<svg fill="#000000" version="1.1" viewBox="0 0 4.4844 12.625" xmlns="http://www.w3.org/2000/svg" xmlns:xlink="http://www.w3.org/1999/xlink">
<defs>
<g id="a">
<path d="m2.0781 1.2344c0 1.0469-0.078125 1.7656-0.57812 1.7656-0.078125 0-0.125-0.046875-0.125-0.10938 0-0.09375 0.09375-0.078125 0.09375-0.28125 0-0.25-0.1875-0.34375-0.35938-0.34375-0.21875 0-0.42188 0.15625-0.42188 0.42188 0 0.3125 0.20312 0.625 0.6875 0.625 1.2031 0 1.4219-1.375 1.4219-2.1719v-7.2812c0-1 0.078125-1.6406 0.54688-1.6406 0.078125 0 0.14062 0.03125 0.14062 0.10938 0 0.09375-0.09375 0.078125-0.09375 0.28125 0 0.25 0.17188 0.32812 0.35938 0.32812 0.20312 0 0.42188-0.14062 0.42188-0.42188 0-0.29688-0.20312-0.60938-0.6875-0.60938-1.125 0-1.4062 1.2031-1.4062 2.0156zm3 3.2969v-0.65625h-4.4844v0.65625z"/>
</g>
</defs>
<g transform="translate(-149.31 -126.02)">
<use x="148.71201" y="134.112" xlink:href="#a"/>
</g>
</svg>
