<?xml version="1.0" encoding="UTF-8"?>
<svg fill="#000000" version="1.1" viewBox="0 0 4.3125 4.5156" xmlns="http://www.w3.org/2000/svg" xmlns:xlink="http://www.w3.org/1999/xlink">
<defs>
<g id="a">
<path d="m4.0312-4.625c0-0.0625-0.03125-0.125-0.078125-0.15625l-1.0781-1.0938c-0.046875-0.046875-0.10938-0.0625-0.15625-0.0625-0.0625 0-0.10938 0.015625-0.17188 0.0625l-1.0781 1.0938c-0.046875 0.03125-0.0625 0.09375-0.0625 0.15625 0 0.125 0.078125 0.23438 0.23438 0.23438 0.046875 0 0.10938-0.03125 0.15625-0.078125l0.92188-0.92188 0.92188 0.92188c0.03125 0.046875 0.09375 0.078125 0.15625 0.078125 0.125 0 0.23438-0.09375 0.23438-0.23438zm0.60938 0.95312h-3.8594c-0.125 0-0.21875 0.10938-0.21875 0.23438s0.09375 0.23438 0.21875 0.23438h3.8594c0.14062 0 0.23438-0.10938 0.23438-0.23438s-0.09375-0.23438-0.23438-0.23438zm0 1.7812h-3.8594c-0.125 0-0.21875 0.10938-0.21875 0.23438s0.09375 0.23438 0.21875 0.23438h3.8594c0.14062 0 0.23438-0.10938 0.23438-0.23438s-0.09375-0.23438-0.23438-0.23438z"/>
</g>
</defs>
<g transform="translate(-149.27 -128.83)">
<use x="148.71201" y="134.765" xlink:href="#a"/>
</g>
</svg>
