<?xml version="1.0" encoding="UTF-8"?>
<svg fill="#000000" version="1.1" viewBox="0 0 8.1406 7.0312" xmlns="http://www.w3.org/2000/svg" xmlns:xlink="http://www.w3.org/1999/xlink">
<defs>
<g id="a">
<path d="m4.0312-6.2656c1.9219 0 2.4219 0.46875 2.4219 1.125 0 0.60938-0.48438 1.8125-2.125 1.875-0.48438 0.015625-0.82812 0.35938-0.82812 0.46875 0 0.0625 0.03125 0.0625 0.046875 0.0625 0.42188 0.078125 0.625 0.26562 1.1406 1.4531 0.45312 1.0469 0.71875 1.5 1.2969 1.5 1.2188 0 2.3594-1.2188 2.3594-1.4375 0-0.078125-0.078125-0.078125-0.10938-0.078125-0.125 0-0.51562 0.14062-0.71875 0.42188-0.15625 0.23438-0.375 0.54688-0.85938 0.54688-0.51562 0-0.82812-0.70312-1.1562-1.4844-0.21875-0.5-0.39062-0.875-0.625-1.1406 1.4375-0.53125 2.4219-1.5781 2.4219-2.6094 0-1.25-1.6719-1.25-3.1875-1.25-0.98438 0-1.5469 0-2.3906 0.35938-1.3281 0.59375-1.5156 1.4219-1.5156 1.5 0 0.0625 0.046875 0.078125 0.10938 0.078125 0.15625 0 0.39062-0.14062 0.46875-0.1875 0.20312-0.14062 0.23438-0.20312 0.29688-0.39062 0.14062-0.40625 0.42188-0.75 1.6719-0.8125-0.046875 0.60938-0.14062 1.5469-0.48438 3-0.26562 1.1094-0.625 2.2031-1.0625 3.2812-0.0625 0.10938-0.0625 0.125-0.0625 0.14062 0 0.0625 0.078125 0.0625 0.10938 0.0625 0.20312 0 0.60938-0.23438 0.71875-0.42188 0.03125-0.0625 1.2969-2.875 1.5938-6.0625z"/>
</g>
</defs>
<g transform="translate(-148.92 -127.95)">
<use x="148.71201" y="134.765" xlink:href="#a"/>
</g>
</svg>
