<?xml version="1.0" encoding="UTF-8"?>
<svg fill="#000000" version="1.1" viewBox="0 0 7.0625 6.8594" xmlns="http://www.w3.org/2000/svg" xmlns:xlink="http://www.w3.org/1999/xlink">
<defs>
<g id="a">
<path d="m7.3438-5.1719c0-1.3125-1.0469-1.5625-1.6562-1.5625-1.1875 0-1.8125 0.54688-2.2031 0.90625-0.29688-0.29688-0.89062-0.90625-1.7031-0.90625-1.0469 0-1.4844 1.0781-1.5 1.125l0.14062 0.10938c0.25-0.29688 0.45312-0.53125 0.96875-0.53125 0.73438 0 1.375 0.78125 1.4688 0.92188-0.625 0.84375-0.625 0.84375-1 1.4844l-0.25 0.46875c-0.28125 0.5-0.57812 0.53125-0.9375 0.57812v0.21875h2.1562v-0.21875c-0.375-0.03125-0.64062-0.078125-0.64062-0.45312 0-0.60938 0.60938-1.4219 0.90625-1.7969 0.5 0.60938 0.95312 1.3281 1.3125 2.0469-0.64062 0.29688-1.5469 0.73438-1.5469 1.7188 0 0.75 0.625 1.1875 1.3594 1.1875 1 0 1.5156-0.84375 1.5156-1.5625 0-0.46875-0.125-0.8125-0.34375-1.4062l0.375-0.23438c0.67188-0.375 1.5781-1.0625 1.5781-2.0938zm-0.92188 0.35938c0 0.875-0.73438 1.3281-1.1719 1.625-0.42188-0.79688-0.9375-1.6875-1.5156-2.3906 0.6875-0.57812 1.1719-0.64062 1.4062-0.64062 0.70312 0 1.2812 0.64062 1.2812 1.4062zm-1.4688 3.75c0 0.625-0.375 0.875-0.78125 0.875-0.42188 0-0.78125-0.34375-0.78125-0.84375 0-0.82812 0.89062-1.2969 1.1719-1.4375 0.1875 0.42188 0.39062 0.9375 0.39062 1.4062z"/>
</g>
</defs>
<g transform="translate(-148.99 -128.03)">
<use x="148.71201" y="134.765" xlink:href="#a"/>
</g>
</svg>
