<?xml version="1.0" encoding="UTF-8"?>
<svg fill="#000000" version="1.1" viewBox="0 0 8.8438 6.6406" xmlns="http://www.w3.org/2000/svg" xmlns:xlink="http://www.w3.org/1999/xlink">
<defs>
<g id="a">
<path d="m9.0781-3.9531c0.17188 0 0.32812 0 0.32812-0.20312s-0.1875-0.20312-0.39062-0.20312h-7.6562c0.23438-0.21875 0.71875-0.67188 1.0156-1.4531h-0.3125c-0.28125 0.73438-0.76562 1.2812-1.5 1.6562 0.57812 0.29688 1.1719 0.82812 1.5 1.6562-0.34375 0.90625-0.98438 1.4219-1.5 1.6562 0.75 0.42188 1.2188 0.9375 1.5 1.6719h0.3125c-0.29688-0.78125-0.78125-1.2344-1.0156-1.4531h7.6562c0.20312 0 0.39062 0 0.39062-0.20312s-0.15625-0.20312-0.32812-0.20312h-7.7188c0.21875-0.20312 0.73438-0.6875 1.0156-1.4688-0.28125-0.76562-0.79688-1.25-1.0156-1.4531z"/>
</g>
</defs>
<g transform="translate(-149.27 -128.95)">
<use x="148.71201" y="134.765" xlink:href="#a"/>
</g>
</svg>
