<?xml version="1.0" encoding="UTF-8"?>
<svg fill="#000000" version="1.1" viewBox="0 0 10.674 7.25" xmlns="http://www.w3.org/2000/svg" xmlns:xlink="http://www.w3.org/1999/xlink">
<defs>
<g id="b">
<path d="m3.5312-1.7344c0-0.84375-0.67188-1.5-1.5-1.5s-1.5 0.67188-1.5 1.4844c0 0.84375 0.6875 1.5 1.5 1.5 0.84375 0 1.5-0.67188 1.5-1.4844zm-1.5 1.1406c-0.65625 0-1.1562-0.53125-1.1562-1.1406 0-0.65625 0.51562-1.1719 1.1562-1.1719 0.65625 0 1.1562 0.53125 1.1562 1.1562 0 0.65625-0.51562 1.1562-1.1562 1.1562z"/>
</g>
<g id="a">
<path d="m0.5625-3.4062c0 2.0625 1.6094 3.625 3.4688 3.625 1.625 0 2.5938-1.3906 2.5938-2.5469 0-0.09375 0-0.17188-0.125-0.17188-0.10938 0-0.10938 0.0625-0.125 0.17188-0.078125 1.4219-1.1406 2.2344-2.2344 2.2344-0.60938 0-2.5625-0.32812-2.5625-3.3125 0-2.9688 1.9531-3.3125 2.5625-3.3125 1.0781 0 1.9688 0.90625 2.1719 2.3594 0.015625 0.14062 0.015625 0.17188 0.15625 0.17188 0.15625 0 0.15625-0.03125 0.15625-0.23438v-2.3594c0-0.17188 0-0.25-0.10938-0.25-0.03125 0-0.078125 0-0.15625 0.125l-0.5 0.73438c-0.35938-0.35938-0.875-0.85938-1.8281-0.85938-1.875 0-3.4688 1.5938-3.4688 3.625z"/>
</g>
</defs>
<g transform="translate(-149.24 -127.73)">
<use x="148.71201" y="131.149" xlink:href="#b"/>
<use x="153.29201" y="134.765" xlink:href="#a"/>
</g>
</svg>
