<?xml version="1.0" encoding="UTF-8"?>
<svg fill="#000000" version="1.1" viewBox="0 0 6.2344 7.25" xmlns="http://www.w3.org/2000/svg" xmlns:xlink="http://www.w3.org/1999/xlink">
<defs>
<g id="a">
<path d="m1.1406-2.1875c0.125-0.046875 0.46875-0.26562 0.46875-0.40625 0-0.0625-0.046875-0.0625-0.10938-0.0625-0.34375 0-1.3281 0.42188-1.3281 1.4219 0 0.71875 0.8125 1.4531 2.0312 1.4531 1.625 0 3.5156-1.125 3.5156-2.4844 0-0.9375-1-1.4062-1.8125-1.7656-0.70312-0.3125-1.1562-0.71875-1.1562-1.2969 0-0.20312 0.09375-0.59375 0.40625-0.85938 0.29688-0.26562 0.84375-0.29688 0.98438-0.29688 0.10938 0 0.53125 0.015625 0.96875 0.20312 0.1875 0.09375 0.4375 0.20312 0.4375 0.64062 0 0.14062 0 0.1875-0.03125 0.29688-0.015625 0.03125-0.015625 0.0625-0.015625 0.09375 0 0.078125 0.046875 0.078125 0.09375 0.078125 0.125 0 0.375-0.10938 0.5625-0.26562 0.14062-0.10938 0.25-0.23438 0.25-0.625 0-0.48438-0.26562-0.625-0.53125-0.75-0.46875-0.21875-0.9375-0.21875-1.0625-0.21875-1.3125 0-2.9062 1-2.9062 2.1406 0 0.82812 0.85938 1.2344 1.3438 1.4375 0.70312 0.32812 1.6094 0.78125 1.6094 1.625 0 0.65625-0.48438 1.5-2 1.5-1.0156 0-1.8281-0.65625-1.8281-1.3438 0-0.17188 0.046875-0.35938 0.10938-0.51562z"/>
</g>
</defs>
<g transform="translate(-148.88 -127.73)">
<use x="148.71201" y="134.765" xlink:href="#a"/>
</g>
</svg>
