<?xml version="1.0" encoding="UTF-8"?>
<svg fill="#000000" version="1.1" viewBox="0 0 6.625 4.7969" xmlns="http://www.w3.org/2000/svg" xmlns:xlink="http://www.w3.org/1999/xlink">
<defs>
<g id="a">
<path d="m0.5625-2.5781c0 0.03125-0.015625 0.0625-0.015625 0.078125 0 0.03125 0.015625 0.0625 0.015625 0.09375 0.03125 0.046875 0.0625 0.078125 0.10938 0.10938l5.3125 2.1875c0.03125 0.015625 0.0625 0.015625 0.09375 0.015625 0.046875 0 0.09375-0.015625 0.125-0.0625 0.625-0.60938 0.96875-1.4531 0.96875-2.3438 0-0.875-0.34375-1.7188-0.96875-2.3281-0.03125-0.046875-0.078125-0.0625-0.125-0.0625-0.03125 0-0.0625 0-0.09375 0.015625l-5.3125 2.1875c-0.046875 0.03125-0.078125 0.0625-0.10938 0.10938zm6.2188 0.078125c0 0.73438-0.26562 1.4375-0.76562 1.9688l-4.7344-1.9688 4.7344-1.9531c0.5 0.53125 0.76562 1.2344 0.76562 1.9531z"/>
</g>
</defs>
<g transform="translate(-149.26 -129.87)">
<use x="148.71201" y="134.765" xlink:href="#a"/>
</g>
</svg>
