<?xml version="1.0" encoding="UTF-8"?>
<svg fill="#000000" version="1.1" viewBox="0 0 8.8438 6.6562" xmlns="http://www.w3.org/2000/svg" xmlns:xlink="http://www.w3.org/1999/xlink">
<defs>
<g id="a">
<path d="m9.0469-4.7812c0.1875 0 0.35938 0 0.35938-0.20312s-0.1875-0.20312-0.35938-0.20312h-7.6875c0.09375-0.078125 0.67188-0.5625 1.0156-1.4688h-0.3125c-0.17188 0.46875-0.5625 1.1719-1.5 1.6719 0.9375 0.51562 1.3438 1.2188 1.5 1.6719h0.3125c-0.34375-0.90625-0.92188-1.3906-1.0156-1.4688zm-0.45312 3.3125c-0.67188 0.59375-0.92188 1.2344-1 1.4688h0.29688c0.28125-0.75 0.82812-1.2969 1.5-1.6719-0.59375-0.29688-1.2031-0.85938-1.5-1.6406h-0.29688c0.29688 0.76562 0.82812 1.2969 1 1.4531h-7.6719c-0.1875 0-0.35938 0-0.35938 0.1875 0 0.20312 0.17188 0.20312 0.34375 0.20312z"/>
</g>
</defs>
<g transform="translate(-149.27 -128.11)">
<use x="148.71201" y="134.765" xlink:href="#a"/>
</g>
</svg>
