<?xml version="1.0" encoding="UTF-8"?>
<svg fill="#000000" version="1.1" viewBox="0 0 5.5625 10.328" xmlns="http://www.w3.org/2000/svg" xmlns:xlink="http://www.w3.org/1999/xlink">
<defs>
<g id="a">
<path d="m6.1719-1.6094v-0.65625h-2.8594c-1.1406 0-2.0469-1.0469-2.0469-2.125 0-1.0625 0.89062-2.0938 2.0312-2.0938h2.875v-0.65625h-2.875c-1.5938 0-2.6875 1.2812-2.6875 2.75 0 1.4844 1.0781 2.7812 2.6562 2.7812zm0 3.7188v-0.65625h-2.75l0.73438-1.3281h2.0156v-0.65625h-1.6562l0.48438-0.85938h-0.625l-0.48438 0.85938h-3.1875v0.65625h2.8281l-0.73438 1.3281h-2.0938v0.65625h1.7344l-0.60938 1.0781h0.625l0.59375-1.0781z"/>
</g>
</defs>
<g transform="translate(-149.32 -127.62)">
<use x="148.71201" y="134.765" xlink:href="#a"/>
</g>
</svg>
