<?xml version="1.0" encoding="UTF-8"?>
<svg fill="#000000" version="1.1" viewBox="0 0 5.0938 11.406" xmlns="http://www.w3.org/2000/svg" xmlns:xlink="http://www.w3.org/1999/xlink">
<defs>
<g id="a">
<path d="m5.6875-4.4688-0.48438-0.46875-1.6875 1.6875v-3.0625c0-0.5625 0.046875-1.4688 0.5625-1.4688 0.0625 0 0.125 0.03125 0.125 0.10938s-0.09375 0.078125-0.09375 0.28125c0 0.21875 0.15625 0.32812 0.35938 0.32812 0.25 0 0.42188-0.17188 0.42188-0.42188 0-0.40625-0.29688-0.60938-0.6875-0.60938-1.125 0-1.4219 1.25-1.4219 2.1719v3.4062l-2.1875 2.1875 0.48438 0.48438 1.7031-1.7188v3.1719c0 0.51562-0.046875 1.3906-0.54688 1.3906-0.078125 0-0.125-0.03125-0.125-0.10938 0-0.09375 0.078125-0.09375 0.078125-0.28125 0-0.21875-0.14062-0.34375-0.35938-0.34375-0.23438 0-0.40625 0.1875-0.40625 0.42188 0 0.40625 0.29688 0.625 0.6875 0.625 1.0781 0 1.4062-1.125 1.4062-2.0156v-3.5781z"/>
</g>
</defs>
<g transform="translate(-149.31 -126.63)">
<use x="148.71201" y="134.72501" xlink:href="#a"/>
</g>
</svg>
