<?xml version="1.0" encoding="UTF-8"?>
<svg fill="#000000" version="1.1" viewBox="0 0 8.9219 4.6875" xmlns="http://www.w3.org/2000/svg" xmlns:xlink="http://www.w3.org/1999/xlink">
<defs>
<g id="a">
<path d="m9.7344-3.2656-0.1875-0.078125c-0.17188 0.57812-0.48438 1.0781-1.1406 1.0781-0.78125 0-1.4375-1.0938-2.3281-1.0938-0.875 0-1.3438 0.51562-1.5781 1.3125l0.20312 0.078125c0.23438-0.5 0.59375-0.875 1.1719-0.875 0.78125 0 1.3594 1.0781 2.3281 1.0781 0.95312 0 1.3906-0.60938 1.5312-1.5zm-5.9062-1.0781c0-0.29688-0.26562-0.5625-0.5625-0.5625s-0.54688 0.25-0.54688 0.5625c0 0.39062 0.34375 0.54688 0.54688 0.54688 0.21875 0 0.5625-0.17188 0.5625-0.54688zm-1.9219 0c0-0.29688-0.25-0.5625-0.54688-0.5625s-0.54688 0.25-0.54688 0.5625c0 0.39062 0.32812 0.54688 0.54688 0.54688 0.20312 0 0.54688-0.17188 0.54688-0.54688zm1.9219 3.5938c0-0.3125-0.26562-0.57812-0.5625-0.57812s-0.54688 0.25-0.54688 0.57812c0 0.375 0.34375 0.53125 0.54688 0.53125 0.21875 0 0.5625-0.17188 0.5625-0.53125zm-1.9219 0c0-0.3125-0.25-0.57812-0.54688-0.57812s-0.54688 0.25-0.54688 0.57812c0 0.375 0.32812 0.53125 0.54688 0.53125 0.20312 0 0.54688-0.17188 0.54688-0.53125z"/>
</g>
</defs>
<g transform="translate(-149.52 -129.86)">
<use x="148.71201" y="134.765" xlink:href="#a"/>
</g>
</svg>
