<?xml version="1.0" encoding="UTF-8"?>
<svg fill="#000000" version="1.1" viewBox="0 0 4.3438 7.0156" xmlns="http://www.w3.org/2000/svg" xmlns:xlink="http://www.w3.org/1999/xlink">
<defs>
<g id="a">
<path d="m4.9375-6.9531c-0.59375 0.03125-1.2031 0.046875-1.8125 0.046875h-2.3594l-0.03125 0.20312 0.26562 0.21875c0.20312 0.17188 0.15625 0.67188 0.15625 0.96875 0 0.92188-0.046875 3.6562-0.0625 5.4688l0.09375 0.10938 0.76562-0.21875c-0.03125-1.7812-0.03125-3.5469-0.03125-5.3125 0-0.375-0.015625-0.98438 0.35938-1.0156 0.20312 0 0.40625-0.015625 0.60938-0.015625 0.59375 0 1.5312-0.015625 1.6875 0.48438l0.25 0.8125h0.25z"/>
</g>
</defs>
<g transform="translate(-149.45 -127.81)">
<use x="148.71201" y="134.765" xlink:href="#a"/>
</g>
</svg>
