<?xml version="1.0" encoding="UTF-8"?>
<svg fill="#000000" version="1.1" viewBox="0 0 5.5312 7.5625" xmlns="http://www.w3.org/2000/svg" xmlns:xlink="http://www.w3.org/1999/xlink">
<defs>
<g id="a">
<path d="m6.0938-3.3125c0-1.7656-2.2188-1.9375-2.5625-1.9531v-1.7188c0-0.17188 0-0.35938-0.20312-0.35938s-0.20312 0.1875-0.20312 0.35938v1.7188c-0.48438 0.015625-2.5625 0.23438-2.5625 1.9531v3.1875c0 0.17188 0 0.34375 0.1875 0.34375 0.20312 0 0.20312-0.17188 0.20312-0.34375v-3.1562c0-0.26562 0-0.75 0.65625-1.1719 0.17188-0.10938 0.67188-0.375 1.5156-0.40625v4.7344c0 0.17188 0 0.34375 0.20312 0.34375s0.20312-0.17188 0.20312-0.34375v-4.7344c0.70312 0.03125 1.2188 0.21875 1.5781 0.45312 0.57812 0.40625 0.57812 0.875 0.57812 1.125v3.1562c0 0.17188 0 0.34375 0.20312 0.34375s0.20312-0.17188 0.20312-0.34375z"/>
</g>
</defs>
<g transform="translate(-149.27 -127.42)">
<use x="148.71201" y="134.765" xlink:href="#a"/>
</g>
</svg>
