<?xml version="1.0" encoding="UTF-8"?>
<svg fill="#000000" version="1.1" viewBox="0 0 4.7969 5.3594" xmlns="http://www.w3.org/2000/svg" xmlns:xlink="http://www.w3.org/1999/xlink">
<defs>
<g id="a">
<path d="m1.0625-4.25 2.1562 4.3281c0.046875 0.078125 0.125 0.125 0.20312 0.125 0.09375 0 0.17188-0.046875 0.20312-0.125l2.1719-4.3281c0.015625-0.03125 0.03125-0.0625 0.03125-0.10938 0-0.078125-0.046875-0.14062-0.125-0.1875-0.70312-0.40625-1.4844-0.60938-2.2812-0.60938-0.78125 0-1.5625 0.20312-2.2812 0.60938-0.0625 0.046875-0.10938 0.10938-0.10938 0.1875 0 0.046875 0 0.078125 0.03125 0.10938zm2.3594 3.7188-1.8594-3.7188c0.59375-0.3125 1.2344-0.45312 1.8594-0.45312 0.64062 0 1.2812 0.14062 1.8594 0.45312z"/>
</g>
</defs>
<g transform="translate(-149.74 -129.61)">
<use x="148.71201" y="134.765" xlink:href="#a"/>
</g>
</svg>
