<?xml version="1.0" encoding="UTF-8"?>
<svg fill="#000000" version="1.1" viewBox="0 0 5.8594 10.375" xmlns="http://www.w3.org/2000/svg" xmlns:xlink="http://www.w3.org/1999/xlink">
<defs>
<g id="a">
<path d="m6.0156-7.7188c-0.14062 0.70312-0.46875 1.375-1.1562 1.375-0.73438 0-1.7969-1.2656-2.75-1.2656-0.98438 0-1.5781 1.0312-1.625 2.0312h0.32812c0.15625-0.71875 0.51562-1.375 1.2188-1.375 0.71875 0 1.7812 1.2656 2.75 1.2656s1.5156-1.1875 1.5625-2.0312zm0.21875 4.9531v-0.10938l-5.6406-2.1406v0.65625l3.9844 1.5312-3.9844 1.5156v0.65625zm0 3.4219v-0.65625h-5.6406v0.65625zm0 2v-0.65625h-5.6406v0.65625z"/>
</g>
</defs>
<g transform="translate(-149.2 -127.05)">
<use x="148.71201" y="134.765" xlink:href="#a"/>
</g>
</svg>
