<?xml version="1.0" encoding="UTF-8"?>
<svg fill="#000000" version="1.1" viewBox="0 0 8.2344 5.5625" xmlns="http://www.w3.org/2000/svg" xmlns:xlink="http://www.w3.org/1999/xlink">
<defs>
<g id="a">
<path d="m8.6875 0.26562v-0.65625l-3.5469-1.7969h3.1406v-0.65625h-3.1406l3.5469-1.8125v-0.64062l-4.9844 2.4531h-1.375c-0.1875 0-0.26562-0.10938-0.26562-0.20312 0-0.078125 0.046875-0.1875 0.14062-0.28125 0.29688-0.3125 0.59375-0.625 0.8125-0.95312l-0.1875-0.1875c-0.67188 0.75-1.4219 1.4844-2.375 1.8906v0.10938c0.95312 0.39062 1.7031 1.1562 2.3594 1.9062l0.20312-0.1875c-0.21875-0.34375-0.53125-0.70312-0.82812-0.96875-0.09375-0.10938-0.14062-0.17188-0.14062-0.25 0-0.10938 0.0625-0.21875 0.26562-0.21875h1.3906z"/>
</g>
</defs>
<g transform="translate(-149.17 -129.47)">
<use x="148.71201" y="134.765" xlink:href="#a"/>
</g>
</svg>
