<?xml version="1.0" encoding="UTF-8"?>
<svg fill="#000000" version="1.1" viewBox="0 0 5.2812 5.9531" xmlns="http://www.w3.org/2000/svg" xmlns:xlink="http://www.w3.org/1999/xlink">
<defs>
<g id="a">
<path d="m6.0469-4.625c-0.21875-0.125-0.4375-0.23438-0.65625-0.3125l0.375-0.89062-0.625-0.25-0.375 0.92188c-0.4375-0.125-0.89062-0.17188-1.3438-0.17188-0.46875 0-0.92188 0.046875-1.3906 0.1875l-0.39062-0.9375-0.60938 0.25 0.375 0.90625c-0.21875 0.09375-0.4375 0.20312-0.64062 0.3125l0.34375 0.5625c0.17188-0.09375 0.35938-0.1875 0.54688-0.26562l1.7656 4.1875 1.7188-4.2188c0.1875 0.09375 0.39062 0.17188 0.57812 0.28125zm-2.6406 2.7969-1.125-2.7031c0.375-0.09375 0.75-0.14062 1.125-0.14062s0.75 0.046875 1.1094 0.14062z"/>
</g>
</defs>
<g transform="translate(-149.48 -128.69)">
<use x="148.71201" y="134.765" xlink:href="#a"/>
</g>
</svg>
