<?xml version="1.0" encoding="UTF-8"?>
<svg fill="#000000" version="1.1" viewBox="0 0 3.6719 4.2812" xmlns="http://www.w3.org/2000/svg" xmlns:xlink="http://www.w3.org/1999/xlink">
<defs>
<g id="a">
<path d="m2.3594-2.7188c-0.35938-0.26562-0.70312-0.51562-1.0625-0.79688-0.10938-0.078125-0.23438-0.1875-0.375-0.1875-0.15625 0-0.26562 0.14062-0.26562 0.28125 0 0.20312 0.20312 0.26562 0.34375 0.32812l0.39062 0.1875c0.28125 0.125 0.5625 0.29688 0.85938 0.39062v0.015625c-0.29688 0.09375-0.57812 0.28125-0.85938 0.40625l-0.39062 0.1875c-0.14062 0.0625-0.34375 0.125-0.34375 0.32812 0 0.14062 0.10938 0.28125 0.26562 0.28125 0.14062 0 0.26562-0.125 0.375-0.20312 0.35938-0.26562 0.70312-0.53125 1.0625-0.78125 0 0.53125-0.14062 1.1094-0.14062 1.6406 0 0.15625 0.125 0.28125 0.28125 0.28125h0.015625c0.14062 0 0.25-0.15625 0.25-0.28125 0-0.0625-0.015625-0.125-0.03125-0.1875-0.015625-0.29688-0.046875-0.60938-0.078125-0.90625-0.015625-0.17188-0.046875-0.375-0.046875-0.54688 0.35938 0.25 0.70312 0.51562 1.0625 0.78125 0.10938 0.078125 0.23438 0.20312 0.375 0.20312 0.15625 0 0.28125-0.125 0.28125-0.28125 0-0.20312-0.21875-0.26562-0.35938-0.32812l-0.39062-0.1875c-0.26562-0.125-0.5625-0.3125-0.84375-0.40625v-0.015625c0.28125-0.09375 0.57812-0.26562 0.84375-0.39062l0.39062-0.1875c0.14062-0.0625 0.35938-0.14062 0.35938-0.32812 0-0.15625-0.125-0.28125-0.28125-0.28125-0.14062 0-0.26562 0.10938-0.375 0.1875-0.35938 0.28125-0.70312 0.53125-1.0625 0.79688 0-0.1875 0.03125-0.375 0.046875-0.54688 0.03125-0.29688 0.0625-0.60938 0.078125-0.90625 0.015625-0.0625 0.03125-0.125 0.03125-0.1875 0-0.10938-0.078125-0.28125-0.25-0.28125h-0.015625c-0.15625 0-0.28125 0.10938-0.28125 0.28125 0 0.54688 0.14062 1.0938 0.14062 1.6406z"/>
</g>
</defs>
<g transform="translate(-149.37 -130.12)">
<use x="148.71201" y="134.765" xlink:href="#a"/>
</g>
</svg>
