<?xml version="1.0" encoding="UTF-8"?>
<svg fill="#000000" width="4.5469" height="8.9688" version="1.1" viewBox="0 0 4.5469 8.9687" xmlns="http://www.w3.org/2000/svg" xmlns:xlink="http://www.w3.org/1999/xlink">
<defs>
<g id="a">
<path d="m3.7969-3.7812 0.015625-0.125c0.64062-0.25 1.2188-0.95312 1.2188-1.7031s-0.60938-1.3438-1.3594-1.3438c-1.0469 0-1.7656 0.5625-2.1406 1.375-0.21875 0.46875-0.29688 1.2344-0.3125 1.75-0.078125 1.8906-0.046875 3.7969-0.09375 5.6875l0.125 0.15625 0.75-0.32812c-0.0625-1.25-0.09375-2.5-0.09375-3.7656 0-1.8438-0.046875-2.4844 0.17188-3.3594 0.14062-0.60938 0.5-1.0469 1.1719-1.0469 0.59375 0 1 0.54688 1 1.0938 0 1.0625-0.79688 1.5469-1.6719 1.5469l-0.03125 0.35938c0.21875-0.03125 0.42188-0.03125 0.64062-0.03125 0.96875 0 1.6406 0.57812 1.6406 1.5781 0 0.73438-0.35938 1.7344-1.2031 1.7344-0.375 0-0.71875-0.3125-0.71875-0.6875v-0.078125l-0.125-0.0625-0.48438 0.6875c0.20312 0.35938 0.54688 0.5 0.9375 0.5 1.2812 0 2.4375-0.79688 2.4375-2.1719 0-0.48438-0.20312-0.96875-0.53125-1.3281-0.3125-0.3125-0.85938-0.42188-1.3438-0.4375z"/>
</g>
</defs>
<g transform="translate(-149.84 -127.81)">
<use x="148.71201" y="134.765" xlink:href="#a"/>
</g>
</svg>
