<?xml version="1.0" encoding="UTF-8"?>
<svg fill="#000000" version="1.1" viewBox="0 0 6.0884 6.6442" xmlns="http://www.w3.org/2000/svg" xmlns:xlink="http://www.w3.org/1999/xlink">
<defs>
<g id="a">
<path d="m3.8906-2.9219c-0.26562-0.20312-0.59375-0.40625-0.9375-0.5-0.4375-0.125-0.96875-0.0625-1.375 0.1875-0.32812 0.1875-0.53125 0.53125-0.65625 0.89062-0.03125 0.078125-0.0625 0.17188-0.078125 0.25-0.015625 0.046875-0.015625 0.09375 0.015625 0.14062 0.046875 0.0625 0.15625 0.0625 0.20312-0.015625 0.03125-0.03125 0.03125-0.078125 0.046875-0.125 0-0.0625 0.03125-0.125 0.046875-0.17188 0.0625-0.17188 0.17188-0.34375 0.29688-0.46875 0.25-0.21875 0.64062-0.32812 0.96875-0.23438 0.23438 0.0625 0.45312 0.20312 0.67188 0.32812 0.10938 0.0625 0.20312 0.14062 0.3125 0.21875 0.03125 0.03125 0.09375 0.0625 0.10938 0.09375 0.015625 0.0625-0.0625 0.17188-0.09375 0.21875-0.10938 0.17188-0.21875 0.35938-0.32812 0.53125l-0.9375 1.6406c-0.09375 0.14062-0.17188 0.28125-0.26562 0.4375-0.03125 0.0625-0.09375 0.14062-0.09375 0.20312 0 0.14062 0.15625 0.10938 0.25 0.10938h0.10938c0.046875-0.03125 0.078125-0.078125 0.10938-0.14062 0.046875-0.078125 0.09375-0.17188 0.14062-0.26562 0.32812-0.54688 0.64062-1.0938 0.96875-1.6406 0.15625-0.28125 0.34375-0.54688 0.48438-0.84375 0.28125 0.21875 0.59375 0.40625 0.9375 0.5 0.45312 0.125 0.96875 0.078125 1.375-0.17188 0.34375-0.20312 0.53125-0.54688 0.67188-0.90625 0.03125-0.078125 0.046875-0.17188 0.078125-0.25 0-0.046875 0-0.09375-0.03125-0.14062-0.046875-0.046875-0.15625-0.046875-0.1875 0.015625-0.046875 0.078125-0.0625 0.1875-0.09375 0.28125-0.046875 0.14062-0.125 0.28125-0.21875 0.39062-0.23438 0.29688-0.65625 0.4375-1.0312 0.34375-0.25-0.0625-0.46875-0.1875-0.67188-0.32812-0.10938-0.0625-0.21875-0.15625-0.32812-0.23438-0.046875-0.03125-0.10938-0.046875-0.125-0.10938 0-0.046875 0.078125-0.14062 0.10938-0.1875l0.29688-0.53125c0.32812-0.54688 0.64062-1.1094 0.96875-1.6562 0.078125-0.15625 0.15625-0.29688 0.25-0.4375 0.03125-0.0625 0.09375-0.14062 0.09375-0.21875 0-0.125-0.15625-0.10938-0.23438-0.10938-0.046875 0-0.09375 0-0.125 0.03125-0.046875 0.015625-0.078125 0.078125-0.09375 0.10938l-0.14062 0.25c-0.32812 0.5625-0.65625 1.1094-0.96875 1.6719l-0.32812 0.53125c-0.0625 0.10938-0.125 0.20312-0.17188 0.3125z"/>
</g>
</defs>
<g transform="translate(-149.55 -128.94)">
<use x="148.71201" y="134.765" xlink:href="#a"/>
</g>
</svg>
