<?xml version="1.0" encoding="UTF-8"?>
<svg fill="#000000" version="1.1" viewBox="0 0 4.6562 7.9877" xmlns="http://www.w3.org/2000/svg" xmlns:xlink="http://www.w3.org/1999/xlink">
<defs>
<g id="a">
<path d="m1.2188-2.25h1.8281l-0.42188 1h-1.4062c-0.125 0-0.21875 0.125-0.21875 0.25s0.09375 0.25 0.21875 0.25h1.2031l-0.84375 2.0156c-0.03125 0.09375 0 0.1875 0.10938 0.21875 0.09375 0.046875 0.17188 0 0.21875-0.09375l0.89062-2.1406h2.6406c0.14062 0 0.21875-0.125 0.21875-0.25s-0.078125-0.25-0.21875-0.25h-2.4375l0.42188-1h2.0156c0.14062 0 0.21875-0.10938 0.21875-0.25 0-0.125-0.078125-0.23438-0.21875-0.23438h-1.8125l0.40625-1h1.4062c0.14062 0 0.21875-0.125 0.21875-0.25s-0.078125-0.25-0.21875-0.25h-1.1875l0.82812-2c0.03125-0.10938 0-0.20312-0.078125-0.23438-0.10938-0.046875-0.20312 0.015625-0.25 0.09375l-0.875 2.1406h-2.6562c-0.125 0-0.21875 0.125-0.21875 0.25s0.09375 0.25 0.21875 0.25h2.4375l-0.40625 1h-2.0312c-0.125 0-0.21875 0.10938-0.21875 0.23438 0 0.14062 0.09375 0.25 0.21875 0.25z"/>
</g>
</defs>
<g transform="translate(-149.71 -128.28)">
<use x="148.71201" y="134.765" xlink:href="#a"/>
</g>
</svg>
