<?xml version="1.0" encoding="UTF-8"?>
<svg fill="#000000" version="1.1" viewBox="0 0 6.0938 8.6719" xmlns="http://www.w3.org/2000/svg" xmlns:xlink="http://www.w3.org/1999/xlink">
<defs>
<g id="a">
<path d="m3.8281-5.9375c1.6094 0 2.6875 1.1719 2.6875 2.4844 0 1.3438-1.125 2.4844-2.6719 2.4844h-2.6719c-0.17188 0-0.34375 0-0.34375 0.20312s0.17188 0.20312 0.34375 0.20312h2.7031c1.6719 0 3.0469-1.2656 3.0469-2.8906s-1.375-2.8906-3.0625-2.8906h-2.6875c-0.17188 0-0.34375 0-0.34375 0.20312s0.17188 0.20312 0.34375 0.20312zm2.5469 7.2969c0.17188 0 0.34375 0 0.34375-0.1875 0-0.20312-0.17188-0.20312-0.34375-0.20312h-2.0469l0.48438-0.5625c0.09375-0.09375 0.125-0.125 0.125-0.20312 0-0.046875-0.046875-0.20312-0.20312-0.20312-0.0625 0-0.078125 0.015625-0.25 0.1875-0.3125 0.32812-0.3125 0.34375-0.70312 0.78125h-2.6094c-0.17188 0-0.34375 0-0.34375 0.20312 0 0.1875 0.17188 0.1875 0.34375 0.1875h2.25c-0.1875 0.21875-0.40625 0.4375-0.48438 0.5625-0.09375 0.10938-0.125 0.14062-0.125 0.21875s0.0625 0.1875 0.20312 0.1875c0.078125 0 0.09375-0.015625 0.25-0.17188 0.3125-0.34375 0.3125-0.35938 0.6875-0.79688z"/>
</g>
</defs>
<g transform="translate(-149.54 -128.42)">
<use x="148.71201" y="134.765" xlink:href="#a"/>
</g>
</svg>
