<?xml version="1.0" encoding="UTF-8"?>
<svg fill="#000000" version="1.1" viewBox="0 0 7.4375 7.4375" xmlns="http://www.w3.org/2000/svg" xmlns:xlink="http://www.w3.org/1999/xlink">
<defs>
<g id="a">
<path d="m6.1875-5.875c0 0.1875 0.53125 0.89062 0.79688 1.3438-0.17188-0.015625-0.32812-0.03125-0.5-0.03125-2.2812 0-4.0156 1.8594-4.0156 4.0156 0 0.17188 0 0.34375 0.03125 0.5-0.40625-0.23438-1.1719-0.78125-1.3594-0.78125-0.10938 0-0.23438 0.09375-0.23438 0.23438 0 0.078125 0.046875 0.17188 0.14062 0.20312 1.8906 0.89062 1.6406 1.7188 2.0312 1.7188 0.125 0 0.21875-0.10938 0.21875-0.23438v-0.21875c0-1.1719 0.82812-2.0156 0.82812-2.2031 0-0.14062-0.10938-0.23438-0.23438-0.23438-0.0625 0-0.14062 0.03125-0.1875 0.09375-0.29688 0.42188-0.48438 0.92188-0.75 1.375-0.015625-0.15625-0.03125-0.3125-0.03125-0.45312 0-2.0156 1.6562-3.5469 3.5625-3.5469 0.14062 0 0.29688 0 0.4375 0.03125-0.4375 0.25-0.9375 0.4375-1.375 0.75-0.046875 0.046875-0.09375 0.10938-0.09375 0.1875 0 0.0625 0.0625 0.21875 0.23438 0.21875 0.046875 0 0.09375 0 0.14062-0.03125 0.60938-0.4375 1.3125-0.79688 2.0625-0.79688 0.14062 0 0.21875 0.015625 0.23438 0.015625 0.14062 0 0.21875-0.125 0.21875-0.23438 0-0.078125-0.03125-0.15625-0.125-0.20312-0.75-0.35938-1.2344-1.0625-1.5938-1.8281-0.03125-0.078125-0.10938-0.125-0.20312-0.125-0.125 0-0.23438 0.10938-0.23438 0.23438z"/>
</g>
</defs>
<g transform="translate(-149.62 -128.66)">
<use x="148.71201" y="134.765" xlink:href="#a"/>
</g>
</svg>
