<?xml version="1.0" encoding="UTF-8"?>
<svg fill="#000000" version="1.1" viewBox="0 0 4.7969 6.4531" xmlns="http://www.w3.org/2000/svg" xmlns:xlink="http://www.w3.org/1999/xlink">
<defs>
<g id="a">
<path d="m3.8594-5.9688-0.48438 1.7969c-0.35938 0.23438-0.70312 0.64062-1.1875 0.64062-0.35938 0-0.64062-0.28125-0.90625-0.54688l-0.39062 0.375c0.39062 0.39062 0.78125 0.79688 1.3125 0.79688 0.3125 0 0.625-0.10938 0.90625-0.28125l-0.28125 1.0938h-1.9375v0.64062h1.75l-0.48438 1.7969 0.5625 0.14062 0.53125-1.9375h2.4375v-0.64062h-2.2656l0.42188-1.6094c0.15625-0.09375 0.35938-0.17188 0.54688-0.17188 0.35938 0 0.64062 0.28125 0.90625 0.54688l0.39062-0.375c-0.39062-0.39062-0.76562-0.79688-1.3125-0.79688-0.10938 0-0.21875 0.015625-0.32812 0.03125l0.375-1.3594z"/>
</g>
</defs>
<g transform="translate(-149.6 -128.8)">
<use x="148.71201" y="134.765" xlink:href="#a"/>
</g>
</svg>
