<?xml version="1.0" encoding="UTF-8"?>
<svg fill="#000000" version="1.1" viewBox="0 0 4.7969 4.7812" xmlns="http://www.w3.org/2000/svg" xmlns:xlink="http://www.w3.org/1999/xlink">
<defs>
<g id="a">
<path d="m5.3906-0.375c0-0.046875 0-0.078125-0.03125-0.10938l-2.1562-4.3281c-0.046875-0.078125-0.10938-0.125-0.21875-0.125-0.078125 0-0.15625 0.046875-0.1875 0.125l-2.1719 4.3281c-0.015625 0.03125-0.03125 0.0625-0.03125 0.10938 0 0.10938 0.10938 0.21875 0.23438 0.21875 0.09375 0 0.17188-0.046875 0.20312-0.125l1.9531-3.9219 1.9688 3.9219c0.046875 0.078125 0.125 0.125 0.20312 0.125 0.14062 0 0.23438-0.10938 0.23438-0.21875z"/>
</g>
</defs>
<g transform="translate(-149.31 -129.83)">
<use x="148.71201" y="134.765" xlink:href="#a"/>
</g>
</svg>
