<?xml version="1.0" encoding="UTF-8"?>
<svg fill="#000000" version="1.1" viewBox="0 0 4.3125 5.0625" xmlns="http://www.w3.org/2000/svg" xmlns:xlink="http://www.w3.org/1999/xlink">
<defs>
<g id="a">
<path d="m2.2188-0.125 0.59375-2.2031c0.3125-0.29688 0.57812-0.60938 0.90625-0.60938 0.42188 0 0.67188 0.54688 0.70312 1 0 0.125 0.10938 0.21875 0.21875 0.21875 0.14062 0 0.23438-0.10938 0.23438-0.23438 0-0.28125-0.25-1.4375-1.1562-1.4375-0.26562 0-0.48438 0.09375-0.6875 0.25l0.46875-1.75c0.015625-0.078125-0.046875-0.1875-0.15625-0.1875-0.046875 0-0.10938 0.046875-0.14062 0.10938l-0.57812 2.1875c-0.3125 0.3125-0.57812 0.625-0.92188 0.625-0.40625 0-0.65625-0.54688-0.6875-1-0.015625-0.125-0.125-0.21875-0.23438-0.21875-0.14062 0-0.21875 0.10938-0.21875 0.23438 0 0.26562 0.23438 1.4375 1.1406 1.4375 0.26562 0 0.5-0.09375 0.70312-0.25l-0.46875 1.75c-0.03125 0.078125 0.03125 0.1875 0.14062 0.1875 0.0625 0 0.125-0.046875 0.14062-0.10938z"/>
</g>
</defs>
<g transform="translate(-149.27 -129.69)">
<use x="148.71201" y="134.765" xlink:href="#a"/>
</g>
</svg>
