<?xml version="1.0" encoding="UTF-8"?>
<svg fill="#000000" version="1.1" viewBox="0 0 9.2656 5.6406" xmlns="http://www.w3.org/2000/svg" xmlns:xlink="http://www.w3.org/1999/xlink">
<defs>
<g id="a">
<path d="m5.9688-4.9531c0-0.015625 0.046875-0.15625 0.046875-0.15625 0-0.17188-0.15625-0.20312-0.20312-0.20312-0.15625 0-0.1875 0.10938-0.21875 0.20312-0.15625 0.48438-0.3125 0.96875-0.45312 1.4531h-2.5938c0.57812-0.6875 0.85938-1.4062 0.85938-1.4531 0-0.125-0.125-0.125-0.1875-0.125-0.15625 0-0.15625 0.015625-0.23438 0.1875-0.75 1.6875-2.0938 2.25-2.5781 2.4531-0.015625 0.015625-0.0625 0.046875-0.0625 0.09375 0 0.09375 0.0625 0.10938 0.078125 0.10938 0.9375 0.39062 1.9531 1.0781 2.5625 2.4531 0.078125 0.17188 0.09375 0.1875 0.23438 0.1875 0.0625 0 0.1875 0 0.1875-0.125 0-0.046875-0.26562-0.75-0.85938-1.4531h1.8438c-0.046875 0.15625-0.15625 0.54688-0.21875 0.75-0.046875 0.10938-0.21875 0.64062-0.21875 0.70312 0 0.17188 0.14062 0.20312 0.1875 0.20312 0.15625 0 0.1875-0.10938 0.21875-0.20312 0.15625-0.48438 0.3125-0.96875 0.45312-1.4531h2.5938c-0.57812 0.6875-0.85938 1.4062-0.85938 1.4531 0 0.125 0.125 0.125 0.1875 0.125 0.15625 0 0.15625-0.015625 0.25-0.1875 0.73438-1.6875 2.0781-2.25 2.5625-2.4531 0.015625-0.015625 0.0625-0.046875 0.0625-0.10938 0-0.078125-0.0625-0.09375-0.0625-0.09375-0.9375-0.39062-1.9531-1.0781-2.5625-2.4531-0.09375-0.17188-0.09375-0.1875-0.25-0.1875-0.0625 0-0.1875 0-0.1875 0.125 0 0.046875 0.26562 0.75 0.85938 1.4531h-1.8594zm-3.8125 3.2344c-0.32812-0.32812-0.75-0.60938-1.0469-0.78125 0.29688-0.15625 0.71875-0.4375 1.0469-0.76562h2.8594l-0.48438 1.5469zm3.2812-1.5469h2.375c0.32812 0.32812 0.73438 0.60938 1.0469 0.76562-0.3125 0.17188-0.71875 0.45312-1.0469 0.78125h-2.875z"/>
</g>
</defs>
<g transform="translate(-149.06 -129.45)">
<use x="148.71201" y="134.765" xlink:href="#a"/>
</g>
</svg>
