<?xml version="1.0" encoding="UTF-8"?>
<svg fill="#000000" version="1.1" viewBox="0 0 4.3125 7.2969" xmlns="http://www.w3.org/2000/svg" xmlns:xlink="http://www.w3.org/1999/xlink">
<defs>
<g id="a">
<path d="m4.875-0.26562c0-0.15625-0.0625-0.28125-0.23438-0.28125-0.10938 0-0.21875 0.09375-0.21875 0.20312-0.03125 0.39062-0.25 1-0.70312 1-0.65625 0-1.0938-1.2188-2.0156-1.2188s-1.1406 1.1406-1.1406 1.375c0 0.14062 0.046875 0.28125 0.21875 0.28125 0.10938 0 0.21875-0.09375 0.23438-0.20312 0.03125-0.375 0.23438-1 0.6875-1 0.67188 0 1.0938 1.2188 2.0156 1.2188s1.1562-1.1562 1.1562-1.375zm-0.23438-5.9219c-0.03125 0-0.078125 0-0.10938 0.03125l-3.8594 2.2344c-0.078125 0.03125-0.10938 0.10938-0.10938 0.1875s0.03125 0.15625 0.10938 0.20312l3.8594 2.2188c0.03125 0.03125 0.078125 0.03125 0.10938 0.03125 0.125 0 0.23438-0.09375 0.23438-0.21875 0-0.078125-0.046875-0.17188-0.10938-0.20312l-3.5156-2.0312 3.5156-2.0312c0.0625-0.03125 0.10938-0.10938 0.10938-0.20312 0-0.125-0.10938-0.21875-0.23438-0.21875z"/>
</g>
</defs>
<g transform="translate(-149.27 -128.58)">
<use x="148.71201" y="134.765" xlink:href="#a"/>
</g>
</svg>
