<?xml version="1.0" encoding="UTF-8"?>
<svg fill="#000000" version="1.1" viewBox="0 0 7.5156 7.5312" xmlns="http://www.w3.org/2000/svg" xmlns:xlink="http://www.w3.org/1999/xlink">
<defs>
<g id="a">
<path d="m8.9062-4.2969c-0.046875 0-0.10938 0.03125-0.15625 0.0625l-2.2188 2.2188-1.0781-2.2969 1.5938-1.6094c0.046875-0.046875 0.078125-0.09375 0.078125-0.15625 0-0.125-0.09375-0.23438-0.23438-0.23438-0.0625 0-0.125 0.015625-0.15625 0.078125l-1.4844 1.4688-0.53125-1.0938c-0.03125-0.078125-0.10938-0.10938-0.1875-0.078125s-0.10938 0.125-0.078125 0.20312l0.57812 1.2031-2.4844 2.4844c0-0.40625 0.03125-0.79688 0.03125-1.1875v-0.09375c0-0.21875 0-0.45312-0.23438-0.45312-0.14062 0-0.23438 0.10938-0.23438 0.23438 0 0.046875 0.03125 0.23438 0.03125 0.5625 0 1.3906-0.53125 1.7656-0.53125 1.9531 0 0.14062 0.10938 0.23438 0.21875 0.23438 0.20312 0 0.57812-0.53125 1.9531-0.53125 0.125 0 0.25 0 0.35938 0.015625 0.015625 0.10938 0.015625 0.23438 0.015625 0.34375 0 1.3906-0.53125 1.75-0.53125 1.9531 0 0.14062 0.10938 0.23438 0.23438 0.23438 0.20312 0 0.5625-0.53125 1.9375-0.53125 0.35938 0 0.51562 0.03125 0.57812 0.03125 0.125 0 0.23438-0.09375 0.23438-0.23438 0-0.23438-0.23438-0.25-0.48438-0.25h-0.0625c-0.39062 0-0.76562 0.046875-1.1406 0.046875h-0.03125l1.625-1.625 0.51562 1.1094c0.03125 0.078125 0.10938 0.10938 0.20312 0.078125 0.0625-0.046875 0.09375-0.14062 0.0625-0.20312l-0.5625-1.2031 2.3438-2.3281c0.03125-0.0625 0.046875-0.10938 0.046875-0.17188 0-0.125-0.078125-0.23438-0.21875-0.23438zm-4.8594 2.5156c-0.39062 0-0.76562 0.046875-1.1562 0.046875h-0.015625l2.3438-2.3594 1.0781 2.3125-1.7344 1.7344c0-0.375 0.046875-0.78125 0.046875-1.1719 0-0.53125-0.03125-0.5625-0.5625-0.5625z"/>
</g>
</defs>
<g transform="translate(-150.32 -128.45)">
<use x="148.71201" y="134.765" xlink:href="#a"/>
</g>
</svg>
