<?xml version="1.0" encoding="UTF-8"?>
<svg fill="#000000" width="6.4688" height="5.5938" version="1.1" viewBox="0 0 6.4688 5.5937" xmlns="http://www.w3.org/2000/svg" xmlns:xlink="http://www.w3.org/1999/xlink">
<defs>
<g id="a">
<path d="m4.1719-3.6719v-0.35938c-0.4375-0.20312-0.85938-0.42188-1.2656-0.6875-0.375 0.35938-0.79688 0.67188-1.2344 0.96875v-0.3125c-0.23438-0.28125-0.45312-0.51562-0.45312-0.75 0-0.17188 0.0625-0.32812 0.15625-0.46875l-0.14062-0.03125c-0.29688 0.29688-0.79688 0.84375-0.79688 1.1406 0 0.32812 0.375 0.45312 0.40625 0.73438 0.046875 0.45312 0.03125 0.92188 0.03125 1.375 0 0.51562-0.015625 1.0312-0.09375 1.5469 0.23438 0.21875 0.42188 0.5 0.57812 0.78125l0.75-0.75c-0.25-0.29688-0.46875-0.6875-0.46875-1.0938 0-0.64062 0.015625-1.5469 0.015625-1.8906 0.20312-0.14062 0.53125-0.4375 0.73438-0.4375 0.1875 0 0.51562 0.21875 0.9375 0.5 0.046875 0.39062 0.046875 0.79688 0.046875 1.1875 0 0.57812-0.03125 1.1719-0.078125 1.7656 0.45312 0.21875 0.90625 0.46875 1.3438 0.73438l1.8594-1c0.21875-0.625 0.40625-1.0312 0.40625-1.9531 0-0.45312-0.015625-1.0938-0.0625-1.3594-0.4375-0.20312-0.85938-0.42188-1.2656-0.65625zm0.79688-0.17188c0.3125 0.046875 0.70312 0.1875 1 0.375 0.078125 0.3125 0.10938 0.5625 0.10938 0.84375 0 0.73438-0.015625 2.1875-0.60938 2.1875-0.625 0-1.2656-0.625-1.2969-1.0938-0.015625-0.28125-0.03125-0.54688-0.03125-0.8125 0-0.34375 0.015625-0.6875 0.03125-1.0625 0.17188-0.10938 0.57812-0.4375 0.79688-0.4375z"/>
</g>
</defs>
<g transform="translate(-149.15 -129.45)">
<use x="148.71201" y="134.765" xlink:href="#a"/>
</g>
</svg>
