<?xml version="1.0" encoding="UTF-8"?>
<svg fill="#000000" version="1.1" viewBox="0 0 6.4219 6.4219" xmlns="http://www.w3.org/2000/svg" xmlns:xlink="http://www.w3.org/1999/xlink">
<defs>
<g id="a">
<path d="m6.6562-6.5312c-0.09375 0-0.17188 0.03125-0.21875 0.09375l-2.7031 2.6875-2.6875-2.6875c-0.0625-0.0625-0.14062-0.09375-0.21875-0.09375-0.15625 0-0.29688 0.10938-0.29688 0.29688 0 0.078125 0.03125 0.15625 0.09375 0.21875l2.6875 2.7031-2.6875 2.6875c-0.0625 0.0625-0.09375 0.14062-0.09375 0.21875 0 0.14062 0.125 0.29688 0.29688 0.29688 0.078125 0 0.15625-0.03125 0.21875-0.09375l2.6875-2.6875 2.7031 2.6875c0.046875 0.0625 0.125 0.09375 0.21875 0.09375 0.125 0 0.29688-0.125 0.29688-0.3125 0-0.0625-0.03125-0.14062-0.09375-0.20312l-2.6875-2.6875 2.6875-2.7031c0.0625-0.0625 0.09375-0.14062 0.09375-0.21875 0-0.15625-0.125-0.29688-0.29688-0.29688z"/>
</g>
</defs>
<g transform="translate(-149.24 -129.01)">
<use x="148.71201" y="135.53999" xlink:href="#a"/>
</g>
</svg>
