<?xml version="1.0" encoding="UTF-8"?>
<svg fill="#000000" version="1.1" viewBox="0 0 4.7969 6.4531" xmlns="http://www.w3.org/2000/svg" xmlns:xlink="http://www.w3.org/1999/xlink">
<defs>
<g id="a">
<path d="m3.8594-5.9688-0.28125 1.0312c-0.09375-0.03125-0.1875-0.046875-0.28125-0.046875-0.60938 0-1.1094 0.40625-1.25 0.95312l-1.1562 0.015625v0.64062h1.7656v-0.32812c0-0.35938 0.28125-0.64062 0.64062-0.64062 0.03125 0 0.078125 0 0.125 0.015625l-0.59375 2.2344h-1.9375v0.64062h1.75l-0.48438 1.7969 0.5625 0.14062 0.53125-1.9375h2.4375v-0.64062h-2.2656l0.46875-1.7969c0.03125 0.046875 0.03125 0.10938 0.03125 0.1875v0.3125h1.7656v-0.64062h-1.1562c-0.078125-0.25-0.21875-0.48438-0.42188-0.65625l0.3125-1.1406z"/>
</g>
</defs>
<g transform="translate(-149.6 -128.8)">
<use x="148.71201" y="134.765" xlink:href="#a"/>
</g>
</svg>
