<?xml version="1.0" encoding="UTF-8"?>
<svg fill="#000000" version="1.1" viewBox="0 0 6.0954 6.6482" xmlns="http://www.w3.org/2000/svg" xmlns:xlink="http://www.w3.org/1999/xlink">
<defs>
<g id="a">
<path d="m4.2188-3.4688c-0.40625-0.29688-0.8125-0.64062-1.3125-0.76562-0.21875-0.046875-0.4375-0.046875-0.65625-0.015625-0.14062 0.015625-0.28125 0.046875-0.42188 0.09375-0.4375 0.17188-0.73438 0.53125-0.90625 0.96875-0.03125 0.10938-0.0625 0.20312-0.078125 0.3125-0.015625 0.046875-0.015625 0.10938 0.03125 0.15625 0.078125 0.0625 0.17188 0 0.20312-0.078125 0.03125-0.10938 0.0625-0.21875 0.10938-0.32812 0.14062-0.32812 0.42188-0.57812 0.78125-0.64062 0.14062-0.015625 0.28125-0.03125 0.40625 0 0.1875 0.03125 0.35938 0.125 0.53125 0.23438 0.20312 0.10938 0.39062 0.25 0.57812 0.39062l0.375 0.28125v0.015625c-0.10938 0.10938-0.1875 0.28125-0.26562 0.42188-0.15625 0.26562-0.3125 0.54688-0.46875 0.8125l-0.1875 0.32812c-0.03125 0.046875-0.0625 0.10938-0.10938 0.14062-0.03125 0.03125-0.09375 0.015625-0.14062 0.015625h-1.6406c-0.046875 0-0.09375-0.015625-0.15625 0.015625-0.046875 0.015625-0.0625 0.09375-0.0625 0.15625 0 0.078125-0.015625 0.20312 0.10938 0.21875 0.0625 0.015625 0.125 0 0.20312 0h1.4688c-0.23438 0.375-0.4375 0.75-0.65625 1.1406-0.046875 0.078125-0.10938 0.15625-0.14062 0.25-0.015625 0.046875-0.015625 0.10938 0.03125 0.14062s0.09375 0.015625 0.14062 0.015625 0.125 0.015625 0.17188 0c0.09375-0.046875 0.14062-0.1875 0.17188-0.26562 0.1875-0.3125 0.375-0.64062 0.5625-0.95312l0.125-0.21875c0.03125-0.046875 0.0625-0.09375 0.10938-0.10938h0.29688 3.2344c0.078125 0 0.20312 0.03125 0.25-0.046875 0.015625-0.03125 0.015625-0.078125 0.015625-0.10938 0-0.09375 0.015625-0.20312-0.078125-0.21875-0.0625-0.03125-0.14062-0.015625-0.21875-0.015625h-3.3125l0.53125-0.90625 0.34375-0.60938c0.65625 0.45312 1.6562 0.5 2.25-0.09375 0.20312-0.21875 0.34375-0.5 0.4375-0.78125 0.015625-0.078125 0.078125-0.23438 0.015625-0.3125-0.046875-0.0625-0.15625-0.0625-0.1875 0.015625-0.046875 0.046875-0.046875 0.125-0.0625 0.1875-0.046875 0.09375-0.078125 0.20312-0.125 0.29688-0.21875 0.39062-0.65625 0.60938-1.1094 0.53125-0.15625-0.03125-0.3125-0.09375-0.46875-0.17188-0.09375-0.0625-0.1875-0.10938-0.26562-0.17188-0.03125-0.03125-0.09375-0.046875-0.10938-0.09375s0.046875-0.125 0.078125-0.17188c0.078125-0.14062 0.17188-0.29688 0.25-0.4375 0.26562-0.4375 0.51562-0.89062 0.78125-1.3281l0.20312-0.35938c0.03125-0.046875 0.078125-0.125 0.078125-0.1875 0-0.125-0.15625-0.10938-0.23438-0.10938-0.046875 0-0.09375 0-0.125 0.03125-0.078125 0.03125-0.09375 0.14062-0.14062 0.1875-0.26562 0.46875-0.53125 0.92188-0.8125 1.375l-0.26562 0.46875c-0.0625 0.09375-0.125 0.20312-0.15625 0.29688z"/>
</g>
</defs>
<g transform="translate(-149.54 -128.94)">
<use x="148.71201" y="134.765" xlink:href="#a"/>
</g>
</svg>
