<?xml version="1.0" encoding="UTF-8"?>
<svg fill="#000000" version="1.1" viewBox="0 0 5.5469 8.875" xmlns="http://www.w3.org/2000/svg" xmlns:xlink="http://www.w3.org/1999/xlink">
<defs>
<g id="a">
<path d="m6.1875-3.2344v-0.09375l-5.5469-2.7344v0.67188l4.1875 2.1094-4.1875 2.1094v0.65625zm0 4.0469c-0.96875-0.40625-1.7188-1.1562-2.375-1.9062l-0.1875 0.1875c0.21875 0.32812 0.51562 0.6875 0.8125 0.96875 0.09375 0.09375 0.14062 0.15625 0.14062 0.25s-0.15625 0.21875-0.26562 0.21875h-3.6719v0.65625h3.6719c0.17188 0 0.25 0.09375 0.25 0.20312 0 0.078125-0.046875 0.1875-0.14062 0.28125-0.29688 0.29688-0.57812 0.625-0.8125 0.95312l0.20312 0.1875c0.65625-0.76562 1.4062-1.5 2.375-1.9062z"/>
</g>
</defs>
<g transform="translate(-149.35 -128.7)">
<use x="148.71201" y="134.765" xlink:href="#a"/>
</g>
</svg>
