<?xml version="1.0" encoding="UTF-8"?>
<svg fill="#000000" version="1.1" viewBox="0 0 10.672 10.672" xmlns="http://www.w3.org/2000/svg" xmlns:xlink="http://www.w3.org/1999/xlink">
<defs>
<g id="a">
<path d="m11.562-2.7344c0-1.4219-0.5625-2.7812-1.5625-3.7812s-2.3594-1.5625-3.7656-1.5625c-1.4219 0-2.7812 0.5625-3.7656 1.5625-1.0156 1-1.5781 2.3594-1.5781 3.7812 0 1.4062 0.5625 2.7656 1.5781 3.7656 0.98438 1 2.3438 1.5625 3.7656 1.5625 1.4062 0 2.7656-0.5625 3.7656-1.5625s1.5625-2.3594 1.5625-3.7656zm-0.64062 0c0 1.2344-0.5 2.4375-1.375 3.3125s-2.0625 1.375-3.3125 1.375-2.4531-0.5-3.3281-1.375-1.375-2.0781-1.375-3.3125c0-1.25 0.5-2.4531 1.375-3.3281s2.0781-1.375 3.3281-1.375 2.4375 0.5 3.3125 1.375 1.375 2.0781 1.375 3.3281zm-3.9375 0c0-0.15625-0.17188-0.32812-0.3125-0.45312-0.125-0.125-0.29688-0.29688-0.4375-0.29688-0.15625 0-0.32812 0.17188-0.45312 0.29688s-0.29688 0.29688-0.29688 0.45312c0 0.14062 0.17188 0.3125 0.29688 0.4375 0.125 0.14062 0.29688 0.29688 0.45312 0.29688 0.14062 0 0.3125-0.15625 0.4375-0.29688 0.14062-0.125 0.3125-0.29688 0.3125-0.4375z"/>
</g>
</defs>
<g transform="translate(-149.6 -126.69)">
<use x="148.71201" y="134.765" xlink:href="#a"/>
</g>
</svg>
