<?xml version="1.0" encoding="UTF-8"?>
<svg fill="#000000" version="1.1" viewBox="0 0 5.8594 7.4062" xmlns="http://www.w3.org/2000/svg" xmlns:xlink="http://www.w3.org/1999/xlink">
<defs>
<g id="a">
<path d="m3.5156-5.6562c0.09375-0.4375 0.17188-0.65625 0.375-0.85938 0.51562-0.54688 0.65625-0.76562 0.65625-1.125 0-0.60938-0.57812-0.96875-1.2031-0.96875-0.60938 0-1.0781 0.42188-1.0781 0.9375 0 0.26562 0.14062 0.45312 0.39062 0.45312 0.20312 0 0.32812-0.14062 0.32812-0.32812 0-0.21875-0.1875-0.21875-0.1875-0.34375 0-0.09375 0.21875-0.32812 0.46875-0.32812 0.29688 0 0.46875 0.1875 0.46875 0.51562 0 0.3125-0.17188 0.6875-0.29688 0.96875-0.20312 0.48438-0.23438 0.76562-0.23438 1.0781zm0.29688 0.70312c0-0.23438-0.20312-0.42188-0.40625-0.42188-0.25 0-0.4375 0.1875-0.4375 0.42188s0.15625 0.42188 0.4375 0.42188c0.23438 0 0.40625-0.1875 0.40625-0.42188zm2.5312 1.7656v-0.65625h-5.8594v0.65625zm0 1.9844v-0.65625h-5.8594v0.65625z"/>
</g>
</defs>
<g transform="translate(-149.2 -126.16)">
<use x="148.71201" y="134.765" xlink:href="#a"/>
</g>
</svg>
