<?xml version="1.0" encoding="UTF-8"?>
<svg fill="#000000" version="1.1" viewBox="0 0 5.9219 5.875" xmlns="http://www.w3.org/2000/svg" xmlns:xlink="http://www.w3.org/1999/xlink">
<defs>
<g id="a">
<path d="m0.96875-0.51562 2.625-2.6094 2.6094 2.6094c0.046875 0.03125 0.09375 0.046875 0.14062 0.046875 0.10938 0 0.20312-0.09375 0.20312-0.20312v-5.4844c0-0.09375-0.09375-0.1875-0.20312-0.1875-0.046875 0-0.09375 0.015625-0.14062 0.046875l-2.6094 2.6094-2.625-2.6094c-0.03125-0.03125-0.078125-0.046875-0.14062-0.046875-0.09375 0-0.20312 0.09375-0.20312 0.1875v5.4844c0 0.10938 0.09375 0.20312 0.20312 0.20312 0.0625 0 0.10938-0.015625 0.14062-0.046875zm5.1875-0.625-2.2812-2.2656 2.2812-2.25zm-5.125-4.5156 2.2812 2.25-2.2812 2.2656z"/>
</g>
</defs>
<g transform="translate(-149.34 -128.42)">
<use x="148.71201" y="134.765" xlink:href="#a"/>
</g>
</svg>
