<?xml version="1.0" encoding="UTF-8"?>
<svg fill="#000000" version="1.1" viewBox="0 0 6.6315 6.6447" xmlns="http://www.w3.org/2000/svg" xmlns:xlink="http://www.w3.org/1999/xlink">
<defs>
<g id="a">
<path d="m3.9844-3.0938c-0.17188 0.28125-0.32812 0.57812-0.5 0.84375l-0.125 0.23438c-0.015625 0.046875-0.046875 0.09375-0.078125 0.10938-0.0625 0.046875-0.15625 0.03125-0.23438 0.046875-0.15625 0.015625-0.3125 0.046875-0.46875 0.078125-0.48438 0.09375-0.96875 0.23438-1.4219 0.42188-0.15625 0.0625-0.3125 0.14062-0.45312 0.20312-0.0625 0.03125-0.14062 0.0625-0.14062 0.15625 0 0.03125 0.03125 0.078125 0.03125 0.10938 0.046875 0.0625 0.078125 0.15625 0.1875 0.14062 0.09375-0.015625 0.17188-0.078125 0.25-0.125 0.17188-0.0625 0.32812-0.125 0.48438-0.1875 0.48438-0.1875 1-0.32812 1.5156-0.39062-0.078125 0.17188-0.1875 0.32812-0.29688 0.5-0.1875 0.32812-0.39062 0.6875-0.59375 1.0156l-0.21875 0.39062c-0.03125 0.078125-0.09375 0.14062-0.125 0.21875v0.046875c0.015625 0.125 0.17188 0.09375 0.25 0.09375 0.03125 0 0.09375 0 0.125-0.015625 0.046875-0.046875 0.078125-0.10938 0.10938-0.17188l0.20312-0.32812c0.23438-0.42188 0.46875-0.82812 0.71875-1.25 0.078125-0.125 0.15625-0.25 0.21875-0.375 0.03125-0.0625 0.0625-0.14062 0.125-0.17188s0.15625-0.015625 0.21875-0.015625c0.125 0 0.26562 0.015625 0.40625 0.015625 0.6875 0.015625 1.3594 0.17188 1.9844 0.40625 0.21875 0.078125 0.42188 0.15625 0.625 0.25 0.0625 0.03125 0.17188 0.10938 0.25 0.09375 0.0625-0.015625 0.078125-0.0625 0.10938-0.10938 0.03125-0.0625 0.09375-0.17188 0.015625-0.23438-0.0625-0.0625-0.17188-0.09375-0.23438-0.125-0.17188-0.078125-0.34375-0.14062-0.51562-0.21875-0.84375-0.32812-1.7344-0.46875-2.6406-0.46875 0.17188-0.28125 0.32812-0.57812 0.5-0.85938l0.125-0.21875c0.03125-0.046875 0.046875-0.09375 0.078125-0.10938 0.0625-0.046875 0.17188-0.03125 0.23438-0.046875 0.15625-0.015625 0.32812-0.046875 0.48438-0.078125 0.46875-0.09375 0.95312-0.23438 1.4062-0.4375 0.17188-0.046875 0.3125-0.125 0.46875-0.1875 0.0625-0.03125 0.14062-0.078125 0.125-0.15625 0-0.03125-0.015625-0.078125-0.03125-0.10938-0.03125-0.0625-0.078125-0.15625-0.17188-0.14062s-0.1875 0.078125-0.26562 0.10938c-0.15625 0.078125-0.3125 0.14062-0.48438 0.20312-0.48438 0.17188-0.98438 0.3125-1.5156 0.39062 0.09375-0.17188 0.20312-0.32812 0.29688-0.5 0.20312-0.34375 0.39062-0.6875 0.59375-1.0312l0.21875-0.39062c0.046875-0.0625 0.10938-0.14062 0.125-0.20312 0-0.015625 0.015625-0.03125 0-0.046875-0.015625-0.125-0.15625-0.10938-0.23438-0.10938-0.046875 0-0.09375 0-0.14062 0.03125s-0.078125 0.10938-0.10938 0.17188l-0.1875 0.32812c-0.25 0.40625-0.48438 0.82812-0.73438 1.2344-0.078125 0.14062-0.15625 0.26562-0.21875 0.39062-0.03125 0.046875-0.0625 0.14062-0.125 0.15625-0.0625 0.03125-0.14062 0.03125-0.20312 0.03125-0.14062 0-0.28125-0.015625-0.42188-0.015625-0.67188-0.015625-1.3594-0.17188-1.9844-0.40625-0.20312-0.078125-0.42188-0.15625-0.60938-0.26562-0.078125-0.03125-0.1875-0.10938-0.26562-0.078125-0.046875 0.015625-0.078125 0.0625-0.09375 0.10938-0.046875 0.0625-0.09375 0.15625-0.03125 0.23438 0.0625 0.0625 0.17188 0.09375 0.25 0.125 0.15625 0.078125 0.32812 0.14062 0.5 0.21875 0.84375 0.32812 1.7344 0.46875 2.6406 0.46875z"/>
</g>
</defs>
<g transform="translate(-149.27 -128.94)">
<use x="148.71201" y="134.765" xlink:href="#a"/>
</g>
</svg>
