<?xml version="1.0" encoding="UTF-8"?>
<svg fill="#000000" version="1.1" viewBox="0 0 4.2375 9.0696" xmlns="http://www.w3.org/2000/svg" xmlns:xlink="http://www.w3.org/1999/xlink">
<defs>
<g id="a">
<path d="m0.3125-0.3125v0.29688l0.4375-0.015625 0.92188-0.015625 0.90625 0.03125v-0.29688c-0.17188 0-0.32812 0-0.48438-0.03125-0.09375 0-0.1875-0.03125-0.23438-0.09375-0.078125-0.09375-0.0625-0.23438-0.0625-0.34375v-1.5156c0-0.20312-0.015625-0.39062 0-0.57812 0.046875-0.3125 0.17188-0.59375 0.35938-0.82812 0.078125-0.078125 0.15625-0.17188 0.23438-0.23438 0.10938-0.078125 0.23438-0.15625 0.35938-0.1875 0.20312-0.078125 0.42188-0.10938 0.625-0.03125 0.21875 0.078125 0.35938 0.28125 0.40625 0.5 0.0625 0.20312 0.0625 0.42188 0.0625 0.64062v3.2812 0.5c-0.0625 0.39062-0.21875 0.92188-0.65625 1.0312-0.28125 0.0625-0.5625-0.03125-0.8125-0.10938v-0.015625c0.046875 0 0.09375-0.03125 0.14062-0.0625 0.3125-0.1875 0.25-0.6875-0.10938-0.8125-0.046875-0.015625-0.10938-0.015625-0.15625-0.015625-0.0625 0-0.10938 0-0.17188 0.03125-0.29688 0.10938-0.34375 0.48438-0.20312 0.75 0.1875 0.32812 0.625 0.4375 0.96875 0.46875 0.10938 0 0.21875 0.015625 0.32812 0 0.625-0.0625 1.1562-0.5 1.3281-1.1094 0.046875-0.1875 0.046875-0.375 0.046875-0.5625v-3.2656c0-0.35938-0.015625-0.71875-0.20312-1.0156-0.20312-0.3125-0.5625-0.45312-0.92188-0.48438-0.21875-0.015625-0.40625-0.015625-0.60938 0.03125-0.34375 0.09375-0.625 0.29688-0.84375 0.5625-0.078125 0.10938-0.15625 0.21875-0.1875 0.35938h-0.015625c0-0.4375-0.015625-0.85938 0-1.2812 0-0.046875 0.015625-0.10938 0.015625-0.15625v-0.42188c0.015625-0.23438 0.078125-0.48438 0.1875-0.70312 0.125-0.28125 0.34375-0.53125 0.60938-0.67188 0.29688-0.15625 0.65625-0.15625 0.98438-0.078125 0.1875 0.046875 0.35938 0.125 0.51562 0.25-0.125 0-0.23438 0.046875-0.32812 0.14062-0.21875 0.21875-0.14062 0.60938 0.14062 0.75 0.23438 0.10938 0.54688-0.015625 0.64062-0.28125 0.046875-0.17188 0-0.375-0.078125-0.53125-0.17188-0.32812-0.53125-0.48438-0.85938-0.54688-0.76562-0.15625-1.5938 0.078125-2.0938 0.6875-0.1875 0.25-0.3125 0.54688-0.35938 0.84375-0.03125 0.15625-0.03125 0.3125-0.03125 0.46875 0 0.046875-0.015625 0.09375-0.015625 0.15625v0.32812 3.6562c0 0.14062 0.03125 0.32812-0.09375 0.4375-0.046875 0.046875-0.14062 0.0625-0.21875 0.0625-0.15625 0.03125-0.3125 0.03125-0.46875 0.03125z"/>
</g>
</defs>
<g transform="translate(-149.02 -127.73)">
<use x="148.71201" y="134.765" xlink:href="#a"/>
</g>
</svg>
