<?xml version="1.0" encoding="UTF-8"?>
<svg fill="#000000" version="1.1" viewBox="0 0 5.3906 8.5781" xmlns="http://www.w3.org/2000/svg" xmlns:xlink="http://www.w3.org/1999/xlink">
<defs>
<g id="a">
<path d="m3.9062-1.5781c0.32812 0.32812 0.51562 0.76562 0.51562 1.2344s-0.1875 0.90625-0.51562 1.2344c-0.3125 0.32812-0.76562 0.5-1.2188 0.5-0.46875 0-0.90625-0.17188-1.2344-0.5-0.34375-0.32812-0.51562-0.76562-0.51562-1.2344s0.17188-0.90625 0.51562-1.2344c0.32812-0.32812 0.76562-0.51562 1.2344-0.51562 0.45312 0 0.90625 0.1875 1.2188 0.51562zm-2.75 2.75c0.40625 0.40625 0.95312 0.625 1.5312 0.625 0.5625 0 1.1094-0.21875 1.5156-0.625 0.39062-0.40625 0.625-0.95312 0.625-1.5156 0-0.57812-0.23438-1.125-0.625-1.5156-0.35938-0.35938-0.82812-0.57812-1.3281-0.625v-1.4062c1.0938-0.10938 1.9531-1.0312 1.9531-2.1406v-0.0625l0.20312 0.20312c0.046875 0.03125 0.09375 0.0625 0.14062 0.0625 0.10938 0 0.20312-0.10938 0.20312-0.20312 0-0.046875-0.015625-0.09375-0.0625-0.14062l-0.54688-0.5625c-0.046875-0.03125-0.09375-0.046875-0.14062-0.046875-0.0625 0-0.10938 0.015625-0.14062 0.046875l-0.5625 0.5625c-0.03125 0.046875-0.046875 0.09375-0.046875 0.14062 0 0.09375 0.09375 0.20312 0.1875 0.20312 0.046875 0 0.10938-0.03125 0.15625-0.0625l0.20312-0.20312v0.0625c0 0.89062-0.67188 1.6406-1.5469 1.7344v-1.7969l0.21875 0.20312c0.03125 0.03125 0.09375 0.0625 0.14062 0.0625 0.09375 0 0.1875-0.10938 0.1875-0.20312 0-0.046875-0.015625-0.09375-0.046875-0.14062l-0.54688-0.5625c-0.046875-0.03125-0.09375-0.046875-0.14062-0.046875-0.0625 0-0.10938 0.015625-0.15625 0.046875l-0.54688 0.5625c-0.046875 0.046875-0.0625 0.09375-0.0625 0.14062 0 0.09375 0.10938 0.20312 0.20312 0.20312 0.046875 0 0.09375-0.03125 0.14062-0.0625l0.21875-0.20312v1.7969c-0.875-0.09375-1.5469-0.84375-1.5469-1.7344v-0.0625l0.20312 0.20312c0.03125 0.03125 0.09375 0.0625 0.14062 0.0625 0.10938 0 0.20312-0.10938 0.20312-0.20312 0-0.046875-0.015625-0.09375-0.0625-0.14062l-0.54688-0.5625c-0.03125-0.03125-0.09375-0.046875-0.14062-0.046875-0.0625 0-0.10938 0.015625-0.14062 0.046875l-0.54688 0.5625c-0.046875 0.046875-0.0625 0.09375-0.0625 0.14062 0 0.09375 0.09375 0.20312 0.1875 0.20312 0.0625 0 0.10938-0.03125 0.14062-0.0625l0.21875-0.20312v0.0625c0 1.1094 0.85938 2.0312 1.9531 2.1406v1.4062c-0.5 0.046875-0.96875 0.26562-1.3281 0.625-0.40625 0.39062-0.625 0.9375-0.625 1.5156 0 0.5625 0.21875 1.1094 0.625 1.5156z"/>
</g>
</defs>
<g transform="translate(-148.7 -127.98)">
<use x="148.71201" y="134.765" xlink:href="#a"/>
</g>
</svg>
