<?xml version="1.0" encoding="UTF-8"?>
<svg fill="#000000" version="1.1" viewBox="0 0 8.625 7.2031" xmlns="http://www.w3.org/2000/svg" xmlns:xlink="http://www.w3.org/1999/xlink">
<defs>
<g id="a">
<path d="m6.4531-4.2344c0.1875 0 0.20312 0.015625 0.28125 0.10938 0.21875 0.28125 0.6875 0.85938 1.5312 1.4375h-7.3594c-0.20312 0-0.34375 0-0.34375 0.1875 0 0.20312 0.14062 0.20312 0.34375 0.20312h7.3594c-0.84375 0.57812-1.3281 1.1875-1.5312 1.4219-0.078125 0.10938-0.09375 0.125-0.28125 0.125h-5.5469c-0.17188 0-0.34375 0-0.34375 0.1875 0 0.20312 0.17188 0.20312 0.34375 0.20312h5.4531c-0.35938 0.59375-0.59375 1.1094-0.71875 1.4688h0.46875c0.54688-1.5156 1.5781-2.7812 3.0781-3.6094-1.4219-0.78125-2.5156-2-3.0781-3.5938h-0.46875c0.14062 0.40625 0.375 0.92188 0.71875 1.4688h-5.4531c-0.17188 0-0.34375 0-0.34375 0.20312 0 0.1875 0.17188 0.1875 0.34375 0.1875z"/>
</g>
</defs>
<g transform="translate(-149.27 -128.67)">
<use x="148.71201" y="134.765" xlink:href="#a"/>
</g>
</svg>
