<?xml version="1.0" encoding="UTF-8"?>
<svg fill="#000000" version="1.1" viewBox="0 0 6.3655 6.721" xmlns="http://www.w3.org/2000/svg" xmlns:xlink="http://www.w3.org/1999/xlink">
<defs>
<g id="a">
<path d="m5.7344-4.3594h-4.7344c-0.046875 0-0.09375 0-0.125 0.015625-0.078125 0.0625-0.046875 0.20312-0.046875 0.28125v4.7969c0 0.09375-0.03125 0.25 0.078125 0.29688h0.09375c0.078125 0 0.17188 0.015625 0.20312-0.046875 0.015625-0.046875 0.015625-0.09375 0.015625-0.125v-4.8281h4.5156c-0.15625 0.17188-0.3125 0.34375-0.45312 0.51562-0.09375 0.10938-0.15625 0.1875-0.23438 0.29688-0.0625 0.078125-0.125 0.17188-0.1875 0.25-0.03125 0.03125-0.078125 0.078125-0.078125 0.14062-0.03125 0.14062 0.14062 0.125 0.23438 0.125 0.03125 0 0.0625 0 0.09375-0.015625 0.0625-0.046875 0.125-0.10938 0.17188-0.15625 0.10938-0.078125 0.20312-0.17188 0.29688-0.25 0.3125-0.25 0.64062-0.48438 0.98438-0.6875 0.15625-0.09375 0.3125-0.1875 0.46875-0.26562 0.0625-0.03125 0.15625-0.078125 0.15625-0.15625s-0.09375-0.10938-0.15625-0.14062c-0.15625-0.078125-0.3125-0.17188-0.46875-0.26562-0.34375-0.20312-0.67188-0.45312-0.98438-0.70312-0.09375-0.078125-0.1875-0.15625-0.29688-0.23438-0.046875-0.0625-0.10938-0.10938-0.17188-0.15625-0.03125-0.015625-0.0625-0.015625-0.09375-0.015625-0.09375 0-0.26562-0.015625-0.23438 0.125 0 0.046875 0.046875 0.09375 0.078125 0.14062 0.0625 0.078125 0.125 0.17188 0.1875 0.25 0.078125 0.09375 0.14062 0.1875 0.23438 0.28125 0.14062 0.1875 0.29688 0.35938 0.45312 0.53125z"/>
</g>
</defs>
<g transform="translate(-149.53 -129.08)">
<use x="148.71201" y="134.765" xlink:href="#a"/>
</g>
</svg>
