<?xml version="1.0" encoding="UTF-8"?>
<svg fill="#000000" version="1.1" viewBox="0 0 3.3125 9.9844" xmlns="http://www.w3.org/2000/svg" xmlns:xlink="http://www.w3.org/1999/xlink">
<defs>
<g id="a">
<path d="m3.8594-6.3906c-0.046875-0.60938-0.54688-1.0938-1.1719-1.0938-0.60938 0-1.1562 0.46875-1.1562 1.1094 0 2.0625 1.0469 4.9531 1.0781 6.8906-0.03125 1.1406-0.64062 1.5781-1.8594 1.5781-0.10938 0-0.20312 0.09375-0.20312 0.20312s0.09375 0.20312 0.20312 0.20312c1.75 0 2.2656-0.79688 2.2656-2.0156 0-1.9844-1.0938-4.4062-1.0938-6.8594 0-0.39062 0.34375-0.70312 0.76562-0.70312 0.40625 0 0.73438 0.3125 0.76562 0.71875 0.015625 0.10938 0.10938 0.1875 0.21875 0.1875 0.10938-0.015625 0.1875-0.09375 0.1875-0.20312z"/>
</g>
</defs>
<g transform="translate(-149.26 -127.28)">
<use x="148.71201" y="134.765" xlink:href="#a"/>
</g>
</svg>
