<?xml version="1.0" encoding="UTF-8"?>
<svg fill="#000000" width="7.1094" height="3.2188" version="1.1" viewBox="0 0 7.1094 3.2187" xmlns="http://www.w3.org/2000/svg" xmlns:xlink="http://www.w3.org/1999/xlink">
<defs>
<g id="a">
<path d="m0.59375-2.8281c0 0.09375 0.046875 0.17188 0.14062 0.20312 0.75 0.35938 1.2344 1.0625 1.5938 1.8125 0.03125 0.09375 0.10938 0.14062 0.20312 0.14062 0.125 0 0.23438-0.10938 0.23438-0.21875 0-0.23438-0.64062-1.0469-0.90625-1.5938 0.1875 0.015625 0.375 0.0625 0.53125 0.14062 0.4375 0.20312 0.73438 0.6875 1.3281 0.73438h0.09375c1.0469 0 1.5469-1.4219 2.3438-1.4219 0.625 0 1 1 1.3281 1 0.10938 0 0.21875-0.09375 0.21875-0.23438 0-0.0625-0.015625-0.10938-0.0625-0.15625-0.375-0.375-0.71875-1-1.3906-1.0625h-0.09375c-1.0312 0-1.5781 1.4219-2.3438 1.4219-0.51562 0-0.79688-0.59375-1.5156-0.79688 0.375-0.20312 0.75-0.375 1.1094-0.60938 0.046875-0.046875 0.09375-0.125 0.09375-0.1875 0-0.078125-0.0625-0.23438-0.23438-0.23438-0.046875 0-0.09375 0.015625-0.14062 0.046875-0.60938 0.4375-1.3281 0.79688-2.0625 0.79688-0.078125 0-0.14062-0.015625-0.21875-0.015625-0.1875 0-0.25 0.14062-0.25 0.23438z"/>
</g>
</defs>
<g transform="translate(-149.31 -130.87)">
<use x="148.71201" y="134.765" xlink:href="#a"/>
</g>
</svg>
