<?xml version="1.0" encoding="UTF-8"?>
<svg fill="#000000" version="1.1" viewBox="0 0 7.7656 4.4103" xmlns="http://www.w3.org/2000/svg" xmlns:xlink="http://www.w3.org/1999/xlink">
<defs>
<g id="a">
<path d="m0.20312-4.3125v0.3125c0.15625 0 0.32812 0 0.48438 0.015625 0.125 0.03125 0.23438 0.0625 0.26562 0.20312 0.03125 0.078125 0.03125 0.1875 0.03125 0.28125v1.8906c0 0.32812-0.03125 0.67188 0.09375 0.98438 0.046875 0.14062 0.125 0.28125 0.23438 0.39062 0.1875 0.17188 0.4375 0.28125 0.67188 0.29688 0.40625 0.078125 0.8125 0.03125 1.1719-0.1875 0.15625-0.10938 0.3125-0.25 0.4375-0.42188 0.0625-0.09375 0.10938-0.20312 0.17188-0.3125 0.078125 0.26562 0.15625 0.5 0.375 0.6875 0.20312 0.15625 0.46875 0.23438 0.75 0.26562 0.15625 0 0.3125 0.015625 0.46875-0.015625 0.375-0.0625 0.6875-0.25 0.9375-0.54688 0.09375-0.125 0.21875-0.29688 0.25-0.45312h0.015625v1.0156l1.4062-0.10938v-0.29688c-0.14062 0-0.29688 0-0.45312-0.03125-0.09375-0.015625-0.1875-0.0625-0.25-0.14062-0.0625-0.09375-0.0625-0.21875-0.0625-0.32812v-2.7656c0-0.09375 0-0.20312 0.046875-0.29688 0.0625-0.078125 0.15625-0.09375 0.25-0.10938 0.15625-0.015625 0.3125-0.015625 0.46875-0.015625v-0.3125l-0.89062 0.03125h-0.92188l-0.4375-0.03125v0.3125c0.15625 0 0.32812 0 0.48438 0.015625 0.09375 0.015625 0.17188 0.03125 0.23438 0.10938 0.078125 0.09375 0.0625 0.23438 0.0625 0.35938v1.5625c0 0.20312 0.015625 0.39062-0.03125 0.59375-0.0625 0.35938-0.23438 0.70312-0.51562 0.9375-0.09375 0.078125-0.21875 0.15625-0.34375 0.21875-0.14062 0.046875-0.3125 0.078125-0.46875 0.078125-0.09375 0-0.20312-0.015625-0.28125-0.046875-0.23438-0.125-0.34375-0.35938-0.39062-0.59375-0.046875-0.29688-0.03125-0.57812-0.03125-0.875v-1.9062c0-0.10938-0.015625-0.23438 0.0625-0.32812 0.0625-0.078125 0.14062-0.09375 0.23438-0.10938 0.15625-0.015625 0.3125-0.015625 0.48438-0.015625v-0.3125l-0.4375 0.03125h-0.92188l-0.90625-0.03125v0.3125c0.17188 0 0.32812 0 0.48438 0.015625 0.09375 0.015625 0.1875 0.03125 0.23438 0.10938 0.078125 0.09375 0.0625 0.23438 0.0625 0.35938v1.5625c0 0.20312 0.015625 0.39062-0.03125 0.59375-0.046875 0.35938-0.23438 0.70312-0.51562 0.9375-0.09375 0.078125-0.21875 0.15625-0.34375 0.21875-0.14062 0.046875-0.29688 0.078125-0.46875 0.078125-0.09375 0-0.1875-0.015625-0.28125-0.046875-0.23438-0.125-0.34375-0.35938-0.39062-0.59375-0.03125-0.29688-0.03125-0.57812-0.03125-0.875v-1.9062c0-0.10938 0-0.23438 0.078125-0.32812 0.046875-0.078125 0.14062-0.09375 0.21875-0.10938 0.17188-0.015625 0.32812-0.015625 0.48438-0.015625v-0.3125l-0.4375 0.03125h-0.92188z"/>
</g>
</defs>
<g transform="translate(-148.92 -130.45)">
<use x="148.71201" y="134.765" xlink:href="#a"/>
</g>
</svg>
