<?xml version="1.0" encoding="UTF-8"?>
<svg fill="#000000" version="1.1" viewBox="0 0 6.0938 6.0781" xmlns="http://www.w3.org/2000/svg" xmlns:xlink="http://www.w3.org/1999/xlink">
<defs>
<g id="a">
<path d="m6.1094-2.7656c0 0.65625-0.25 1.2969-0.71875 1.75-0.46875 0.46875-1.0938 0.71875-1.75 0.71875-0.59375 0-1.1406-0.20312-1.5938-0.57812l0.98438-0.98438c0.046875-0.046875 0.0625-0.09375 0.0625-0.14062 0-0.10938-0.10938-0.20312-0.21875-0.20312-0.046875 0-0.09375 0.015625-0.14062 0.0625l-0.96875 0.98438c-0.375-0.45312-0.59375-1.0156-0.59375-1.6094 0-0.64062 0.26562-1.2812 0.71875-1.7344 0.46875-0.46875 1.0938-0.73438 1.75-0.73438s1.2812 0.26562 1.75 0.73438c0.46875 0.45312 0.71875 1.0938 0.71875 1.7344zm-4.5-2.0156c-0.53125 0.53125-0.84375 1.2656-0.84375 2.0156 0 0.70312 0.26562 1.375 0.70312 1.8906l-0.98438 1c-0.046875 0.03125-0.0625 0.078125-0.0625 0.14062 0 0.10938 0.09375 0.1875 0.20312 0.1875 0.046875 0 0.10938-0.015625 0.14062-0.046875l0.98438-1c0.53125 0.45312 1.2031 0.70312 1.8906 0.70312 0.76562 0 1.5-0.29688 2.0312-0.84375 0.53125-0.53125 0.84375-1.2656 0.84375-2.0312 0-0.75-0.3125-1.4844-0.84375-2.0156-0.53125-0.54688-1.2656-0.84375-2.0312-0.84375s-1.4844 0.29688-2.0312 0.84375z"/>
</g>
</defs>
<g transform="translate(-149.13 -129.14)">
<use x="148.71201" y="134.765" xlink:href="#a"/>
</g>
</svg>
