<?xml version="1.0" encoding="UTF-8"?>
<svg fill="#000000" version="1.1" viewBox="0 0 7.1094 4.8281" xmlns="http://www.w3.org/2000/svg" xmlns:xlink="http://www.w3.org/1999/xlink">
<defs>
<g id="a">
<path d="m6.4688-4.2031-0.03125 0.125c0.48438 0.40625 0.6875 1.0312 0.6875 1.6406 0 0.875-0.45312 1.8281-1.3906 1.8281s-1.0781-1.1719-1.0781-2.0156c0-0.65625 0-1.3594 0.09375-1.9531l-0.0625-0.0625-0.75 0.28125v1.875c0 0.53125-0.046875 1.2344-0.375 1.5625-0.23438 0.25-0.54688 0.42188-0.875 0.42188-0.90625 0-1.2031-1.0156-1.2031-1.8125 0-0.90625 0.29688-1.5938 1.0781-2.1875l-0.15625-0.14062c-1.3438 0.46875-1.7344 1.7188-1.7344 2.8906 0 0.90625 0.53125 1.875 1.5781 1.875 0.6875 0 1.2656-0.53125 1.7031-1h0.125c0.35938 0.78125 0.64062 0.92188 1.2031 0.92188 1.4531 0 2.5-1.6875 2.5-3.0938 0-0.64062-0.25-1.2656-0.75-1.6562l-0.14062 0.03125z"/>
</g>
</defs>
<g transform="translate(-149.38 -130.06)">
<use x="148.71201" y="134.765" xlink:href="#a"/>
</g>
</svg>
