<?xml version="1.0" encoding="UTF-8"?>
<svg fill="#000000" version="1.1" viewBox="0 0 4.1764 6.3467" xmlns="http://www.w3.org/2000/svg" xmlns:xlink="http://www.w3.org/1999/xlink">
<defs>
<g id="a">
<path d="m1.2188-4.3125v0.3125c0.20312 0 0.40625 0 0.60938 0.015625 0.09375 0.015625 0.20312 0.03125 0.28125 0.10938 0.078125 0.09375 0.078125 0.23438 0.078125 0.35938v0.6875c0 0.70312 0.0625 1.4688-0.28125 2.0938-0.21875 0.375-0.57812 0.67188-1.0156 0.60938v-0.015625c0.23438-0.09375 0.29688-0.42188 0.17188-0.60938-0.0625-0.125-0.1875-0.17188-0.3125-0.20312-0.046875 0-0.10938 0-0.15625 0.015625-0.0625 0.015625-0.10938 0.046875-0.14062 0.0625-0.25 0.15625-0.21875 0.5-0.046875 0.71875 0.15625 0.20312 0.46875 0.28125 0.71875 0.25 0.40625-0.046875 0.71875-0.29688 0.92188-0.64062 0.046875-0.09375 0.09375-0.1875 0.125-0.29688h0.015625v1.0156c0 0.20312-0.015625 0.40625 0 0.60938 0.03125 0.17188 0.078125 0.34375 0.15625 0.5 0.125 0.25 0.29688 0.46875 0.53125 0.60938 0.39062 0.21875 0.9375 0.1875 1.2812-0.09375 0.23438-0.1875 0.39062-0.54688 0.21875-0.8125-0.03125-0.0625-0.0625-0.09375-0.10938-0.125s-0.09375-0.046875-0.15625-0.078125h-0.1875c-0.375 0.046875-0.51562 0.53125-0.26562 0.78125 0.078125 0.078125 0.15625 0.10938 0.25 0.125-0.21875 0.09375-0.5 0.20312-0.71875 0.046875-0.046875-0.03125-0.078125-0.0625-0.10938-0.09375l-0.09375-0.1875c-0.078125-0.21875-0.10938-0.45312-0.125-0.67188-0.015625-0.26562-0.015625-0.53125-0.015625-0.79688v-3.3906c0-0.125-0.015625-0.3125 0.046875-0.4375 0.046875-0.078125 0.15625-0.125 0.25-0.14062 0.15625-0.015625 0.32812-0.015625 0.48438-0.015625v-0.3125l-0.76562 0.03125-0.125-0.03125h-0.40625l-0.17188 0.03125z"/>
</g>
</defs>
<g transform="translate(-148.98 -130.45)">
<use x="148.71201" y="134.765" xlink:href="#a"/>
</g>
</svg>
