<?xml version="1.0" encoding="UTF-8"?>
<svg fill="#000000" version="1.1" viewBox="0 0 6.625 6.6406" xmlns="http://www.w3.org/2000/svg" xmlns:xlink="http://www.w3.org/1999/xlink">
<defs>
<g id="a">
<path d="m6.9219-2.5c0 0.78125-0.28125 1.5156-0.79688 2.0938l-4.3438-4.3438c0.57812-0.53125 1.3125-0.8125 2.0938-0.8125 0.79688 0 1.5938 0.3125 2.1562 0.89062 0.57812 0.57812 0.89062 1.3594 0.89062 2.1719zm-5.3906-2.3438c-0.64062 0.625-0.98438 1.4688-0.98438 2.3438 0 0.89062 0.34375 1.7344 0.98438 2.3594 0.60938 0.625 1.4531 0.96875 2.3438 0.96875 0.875 0 1.7188-0.34375 2.3281-0.96875 0.625-0.625 0.96875-1.4688 0.96875-2.3594 0-0.875-0.34375-1.7188-0.96875-2.3438-0.60938-0.625-1.4531-0.96875-2.3281-0.96875-0.89062 0-1.7344 0.34375-2.3438 0.96875zm0.15625 4.5312c-0.5625-0.57812-0.89062-1.3594-0.89062-2.1875 0-0.76562 0.29688-1.5 0.8125-2.0781l4.3281 4.3438c-0.54688 0.53125-1.2969 0.8125-2.0625 0.8125-0.82812 0-1.6094-0.3125-2.1875-0.89062z"/>
</g>
</defs>
<g transform="translate(-149.26 -128.95)">
<use x="148.71201" y="134.765" xlink:href="#a"/>
</g>
</svg>
