<?xml version="1.0" encoding="UTF-8"?>
<svg fill="#000000" width="5.3906" height="4.7188" version="1.1" viewBox="0 0 5.3906 4.7187" xmlns="http://www.w3.org/2000/svg" xmlns:xlink="http://www.w3.org/1999/xlink">
<defs>
<g id="a">
<path d="m7.0312-4.9062c-0.078125 0-0.15625 0.0625-0.46875 0.29688v-0.046875c0-1.2656-1.0312-2.3594-2.3281-2.3594-1.2812 0-2.3594 1.0469-2.3594 2.3594 0 1.2812 1.0312 2.3594 2.3594 2.3594 0.57812 0 1.1719-0.21875 1.6406-0.6875 0.0625-0.046875 0.078125-0.10938 0.078125-0.15625 0-0.125-0.09375-0.21875-0.21875-0.21875-0.0625 0-0.10938 0.015625-0.15625 0.0625-0.39062 0.39062-0.89062 0.5625-1.3438 0.5625-1.0938 0-1.9219-0.89062-1.9219-1.9219 0-1.0781 0.875-1.9062 1.9219-1.9062 1.0625 0 1.8906 0.875 1.8906 1.9062v0.09375c-0.1875-0.32812-0.29688-0.59375-0.48438-0.59375-0.125 0-0.23438 0.09375-0.23438 0.23438 0 0.17188 0.53125 0.53125 0.53125 1.1719 0 0.10938 0.078125 0.20312 0.1875 0.21875 0.015625 0 0.03125 0.015625 0.0625 0.015625 0.26562 0 0.046875-0.4375 0.96875-0.96875 0.078125-0.046875 0.10938-0.125 0.10938-0.1875 0-0.14062-0.10938-0.23438-0.23438-0.23438z"/>
</g>
</defs>
<g transform="translate(-150.59 -129.85)">
<use x="148.71201" y="136.868" xlink:href="#a"/>
</g>
</svg>
