<?xml version="1.0" encoding="UTF-8"?>
<svg fill="#000000" version="1.1" viewBox="0 0 3.8604 3.3704" xmlns="http://www.w3.org/2000/svg" xmlns:xlink="http://www.w3.org/1999/xlink">
<defs>
<g id="a">
<path d="m0.625-3.6094c-0.09375 0.046875-0.0625 0.14062-0.03125 0.20312 0.10938 0.1875 0.21875 0.35938 0.32812 0.54688 0.39062 0.67188 0.76562 1.3438 1.1562 2.0156 0.09375 0.15625 0.1875 0.3125 0.28125 0.46875 0.046875 0.0625 0.09375 0.14062 0.17188 0.10938s0.10938-0.14062 0.14062-0.1875c0.09375-0.17188 0.1875-0.32812 0.28125-0.48438 0.35938-0.625 0.71875-1.25 1.0781-1.8594 0.10938-0.1875 0.21875-0.35938 0.3125-0.54688 0.046875-0.0625 0.10938-0.14062 0.0625-0.21875s-0.17188-0.0625-0.23438-0.0625h-3.2812c-0.078125 0-0.1875-0.015625-0.26562 0.015625zm0.39062 0.29688h2.9531l-0.95312 1.6562-0.34375 0.57812-0.17188 0.29688h-0.015625l-0.17188-0.29688-0.34375-0.57812z"/>
</g>
</defs>
<g transform="translate(-149.27 -131.14)">
<use x="148.71201" y="134.765" xlink:href="#a"/>
</g>
</svg>
