<?xml version="1.0" encoding="UTF-8"?>
<svg fill="#000000" version="1.1" viewBox="0 0 4.0781 6.6406" xmlns="http://www.w3.org/2000/svg" xmlns:xlink="http://www.w3.org/1999/xlink">
<defs>
<g id="a">
<path d="m1.2031 1.8906 0.5625-0.20312c0.015625-0.046875 0.0625-0.125 0.0625-0.125-0.20312-0.78125-0.25-1.5-0.26562-2.2969l0.0625-0.015625c0.32812 0.5 0.78125 0.78125 1.3125 0.78125 1.2031 0 2.0312-1.3594 2.0312-2.5312 0-0.57812-0.078125-1.3125-0.48438-1.7188-0.375-0.35938-0.82812-0.53125-1.3438-0.53125-0.53125 0-1.1094 0.15625-1.5156 0.51562-0.75 0.67188-0.73438 1.7188-0.73438 2.9062 0 1.0469 0.0625 2.0938 0.10938 3.125zm0.40625-4.1875c0-0.90625 0.28125-2.0938 1.375-2.0938 0.90625 0 1.1094 1.1562 1.1094 2.0625 0 0.85938-0.40625 1.8594-1.4375 1.8594-0.84375 0-1.0469-1.0625-1.0469-1.8281z"/>
</g>
</defs>
<g transform="translate(-149.6 -130.02)">
<use x="148.71201" y="134.765" xlink:href="#a"/>
</g>
</svg>
