<?xml version="1.0" encoding="UTF-8"?>
<svg fill="#000000" version="1.1" viewBox="0 0 5.5 6.9062" xmlns="http://www.w3.org/2000/svg" xmlns:xlink="http://www.w3.org/1999/xlink">
<defs>
<g id="a">
<path d="m3.3906-3.6094c0.03125-0.0625 0.10938-0.15625 0.10938-0.21875s-0.015625-0.10938-0.046875-0.15625l-1.375-2.2188 0.10938-0.125h3.3125l0.21875-0.48438-0.046875-0.10938c-1.0156 0.046875-2.0312 0.078125-3.0469 0.078125-0.35938 0-0.71875 0-1.0781-0.015625l-0.67188 0.46875 1.5 2.25c0.14062 0.1875 0.28125 0.4375 0.35938 0.65625-0.09375 0.25-0.34375 0.57812-0.53125 0.84375l-1.625 2.1562c-0.046875 0.1875-0.09375 0.45312-0.09375 0.46875 0.90625 0 1.7969-0.078125 2.7031-0.078125 0.875 0 1.75 0.015625 2.6406 0.046875l0.15625-0.89062-0.03125-0.09375c-0.53125 0.078125-1.0625 0.09375-1.6094 0.09375-0.89062 0-1.7656 0-2.6562-0.015625l-0.046875-0.10938z"/>
</g>
</defs>
<g transform="translate(-149.2 -127.84)">
<use x="148.71201" y="134.765" xlink:href="#a"/>
</g>
</svg>
