<?xml version="1.0" encoding="UTF-8"?>
<svg fill="#000000" width="4.3125" height="9.2188" version="1.1" viewBox="0 0 4.3125 9.2187" xmlns="http://www.w3.org/2000/svg" xmlns:xlink="http://www.w3.org/1999/xlink">
<defs>
<g id="a">
<path d="m4.3125-0.09375c0-0.046875-0.03125-0.09375-0.0625-0.14062-0.4375-0.54688-1.0156-0.98438-1.6562-1.2656l0.29688-1.125c1.1094 0.60938 1.5625 1.2031 1.75 1.2031 0.14062 0 0.23438-0.10938 0.23438-0.23438 0-0.0625-0.03125-0.125-0.078125-0.17188-0.54688-0.45312-1.1406-0.90625-1.7812-1.25l0.21875-0.84375c0.5625-0.32812 1.0781-0.71875 1.5625-1.125 0.046875-0.046875 0.078125-0.10938 0.078125-0.17188 0-0.125-0.09375-0.23438-0.23438-0.23438-0.17188 0-0.40625 0.32812-1.2344 0.875l0.65625-2.3906c0.015625-0.09375-0.046875-0.1875-0.15625-0.1875-0.0625 0-0.125 0.046875-0.14062 0.125l-0.71875 2.6875c-0.71875 0.40625-1.4688 0.67188-2.2656 0.67188-0.14062 0-0.21875 0.10938-0.21875 0.23438s0.078125 0.23438 0.21875 0.23438c0.64062 0 1.25 0.15625 1.8438 0.4375l-0.3125 1.1562c-0.48438-0.1875-1-0.28125-1.5312-0.28125-0.125 0-0.21875 0.10938-0.21875 0.23438s0.09375 0.23438 0.21875 0.23438c0.5 0 0.96875 0.09375 1.4062 0.25l-0.8125 3.0469c-0.015625 0.09375 0.046875 0.1875 0.15625 0.1875 0.046875 0 0.10938-0.046875 0.14062-0.125l0.79688-3c0.54688 0.26562 1.0469 0.64062 1.4219 1.125 0.0625 0.046875 0.10938 0.078125 0.1875 0.078125 0.125 0 0.23438-0.09375 0.23438-0.23438zm-1.4375-3.6406-0.14062 0.53125c-0.1875-0.09375-0.375-0.17188-0.57812-0.23438 0.25-0.078125 0.48438-0.1875 0.71875-0.29688z"/>
</g>
</defs>
<g transform="translate(-149.27 -127.61)">
<use x="148.71201" y="134.765" xlink:href="#a"/>
</g>
</svg>
