<?xml version="1.0" encoding="UTF-8"?>
<svg fill="#000000" version="1.1" viewBox="0 0 4.9219 8.9531" xmlns="http://www.w3.org/2000/svg" xmlns:xlink="http://www.w3.org/1999/xlink">
<defs>
<g id="a">
<path d="m0.26562-6.9219v0.29688h0.17188c0.29688 0 0.60938 0.03125 0.60938 0.48438v7.3281c0 0.39062-0.26562 0.42188-0.57812 0.42188h-0.20312v0.3125h2.25v-0.3125h-0.23438c-0.29688 0-0.53125-0.03125-0.53125-0.39062v-1.7344c0.23438 0.42188 0.79688 0.60938 1.2188 0.60938 1.2344 0 2.2188-1.0469 2.2188-2.25s-0.92188-2.25-2.0938-2.25c-0.54688 0-1.0156 0.23438-1.375 0.64062v-3.2656zm4.0781 4.9375c-0.046875 0.73438-0.4375 1.7812-1.3438 1.8594h-0.0625c-0.42188 0-0.8125-0.23438-1.0469-0.59375-0.09375-0.10938-0.14062-0.20312-0.14062-0.34375v-1.6719c0-0.14062-0.015625-0.26562-0.015625-0.39062 0-0.53125 0.67188-1.0312 1.2656-1.0312 1 0 1.3594 1.3125 1.3594 2.0156 0 0.046875 0 0.10938-0.015625 0.15625z"/>
</g>
</defs>
<g transform="translate(-148.98 -127.73)">
<use x="148.71201" y="134.765" xlink:href="#a"/>
</g>
</svg>
