<?xml version="1.0" encoding="UTF-8"?>
<svg fill="#000000" version="1.1" viewBox="0 0 6.1054 6.964" xmlns="http://www.w3.org/2000/svg" xmlns:xlink="http://www.w3.org/1999/xlink">
<defs>
<g id="a">
<path d="m0.89062-6.1562c-0.046875 0.03125-0.078125 0.09375-0.046875 0.15625 0.046875 0.078125 0.14062 0.14062 0.20312 0.20312 0.3125 0.29688 0.64062 0.57812 0.98438 0.84375 1.0469 0.82812 2.25 1.4844 3.5781 1.75 0.29688 0.046875 0.59375 0.078125 0.90625 0.10938h0.23438c0.03125 0 0.09375 0 0.125-0.015625 0.046875-0.046875 0.046875-0.09375 0.046875-0.15625 0-0.078125 0.015625-0.20312-0.09375-0.21875-0.046875-0.015625-0.09375 0-0.15625 0-0.078125 0-0.15625-0.015625-0.23438-0.015625-0.3125-0.03125-0.60938-0.0625-0.92188-0.14062-1.1562-0.25-2.2031-0.82812-3.1406-1.5469-0.3125-0.21875-0.625-0.48438-0.90625-0.75-0.03125-0.046875-0.078125-0.078125-0.125-0.125-0.03125-0.03125-0.0625-0.0625-0.125-0.09375-0.046875-0.015625-0.125 0-0.1875 0-0.03125 0-0.09375-0.015625-0.14062 0zm4.25 4.4375v0.015625c-0.21875 0.03125-0.45312 0.10938-0.67188 0.17188-0.42188 0.15625-0.85938 0.32812-1.2656 0.54688-0.35938 0.20312-0.73438 0.40625-1.0781 0.64062-0.35938 0.23438-0.70312 0.5-1.0469 0.76562-0.078125 0.0625-0.1875 0.125-0.23438 0.20312-0.03125 0.046875 0 0.125 0.046875 0.15625 0.03125 0.015625 0.0625 0.015625 0.10938 0.015625 0.078125 0 0.1875 0.015625 0.26562-0.015625 0.10938-0.046875 0.20312-0.15625 0.29688-0.23438l0.5625-0.42188c1.0156-0.71875 2.1875-1.2969 3.4062-1.5156 0.29688-0.0625 0.60938-0.10938 0.90625-0.10938 0.09375 0 0.1875-0.015625 0.28125-0.015625 0.046875 0 0.10938 0.015625 0.15625-0.015625 0.078125-0.046875 0.0625-0.20312 0.046875-0.28125-0.03125-0.15625-0.23438-0.09375-0.34375-0.09375-0.14062-0.03125-0.26562-0.03125-0.40625-0.03125-0.23438-0.03125-0.45312-0.0625-0.6875-0.10938-1.3125-0.25-2.5156-0.89062-3.5781-1.6719-0.15625-0.09375-0.29688-0.21875-0.4375-0.32812-0.0625-0.0625-0.14062-0.14062-0.21875-0.17188-0.046875-0.015625-0.078125-0.015625-0.125-0.015625-0.078125 0-0.23438-0.015625-0.28125 0.0625-0.0625 0.10938 0.09375 0.20312 0.15625 0.26562 0.25 0.1875 0.48438 0.375 0.73438 0.5625 0.75 0.53125 1.5625 1 2.4062 1.3125 0.21875 0.09375 0.42188 0.15625 0.64062 0.21875 0.10938 0.03125 0.23438 0.078125 0.35938 0.09375z"/>
</g>
</defs>
<g transform="translate(-149.54 -128.6)">
<use x="148.71201" y="134.765" xlink:href="#a"/>
</g>
</svg>
