<?xml version="1.0" encoding="UTF-8"?>
<svg fill="#000000" version="1.1" viewBox="0 0 2.4102 9.9788" xmlns="http://www.w3.org/2000/svg" xmlns:xlink="http://www.w3.org/1999/xlink">
<defs>
<g id="a">
<path d="m1.3594-7.4844c-0.0625 0.03125-0.078125 0.09375-0.078125 0.15625v0.39062 9.2031c0 0.046875 0 0.10938 0.03125 0.15625 0.03125 0.09375 0.17188 0.0625 0.25 0.0625 0.03125 0 0.078125 0 0.10938-0.015625 0.046875-0.015625 0.078125-0.078125 0.078125-0.14062v-0.39062-9.1875c0-0.046875 0-0.10938-0.015625-0.17188-0.046875-0.09375-0.17188-0.0625-0.26562-0.0625h-0.10938zm1.9375 0c-0.0625 0.03125-0.0625 0.09375-0.0625 0.15625v0.39062 9.2031c0 0.046875-0.015625 0.10938 0.015625 0.15625 0.046875 0.09375 0.17188 0.0625 0.26562 0.0625 0.015625 0 0.0625 0 0.09375-0.015625 0.0625-0.015625 0.078125-0.078125 0.078125-0.14062v-0.39062-9.1875c0-0.046875 0.015625-0.10938-0.015625-0.17188-0.046875-0.09375-0.17188-0.0625-0.26562-0.0625h-0.10938z"/>
</g>
</defs>
<g transform="translate(-149.99 -127.28)">
<use x="148.71201" y="134.765" xlink:href="#a"/>
</g>
</svg>
