<?xml version="1.0" encoding="UTF-8"?>
<svg fill="#000000" version="1.1" viewBox="0 0 5.5431 4.509" xmlns="http://www.w3.org/2000/svg" xmlns:xlink="http://www.w3.org/1999/xlink">
<defs>
<g id="a">
<path d="m3.875-3.0938c0.10938 0.26562 0.20312 0.54688 0.34375 0.79688 0.35938 0.6875 0.89062 1.2656 1.4844 1.75 0.20312 0.15625 0.42188 0.3125 0.64062 0.45312 0.0625 0.03125 0.1875 0.125 0.25 0.046875 0.03125-0.015625 0.03125-0.046875 0.046875-0.078125 0.015625-0.078125 0.015625-0.20312-0.03125-0.28125-0.046875-0.046875-0.15625-0.09375-0.21875-0.14062-0.15625-0.09375-0.29688-0.1875-0.42188-0.29688-0.89062-0.70312-1.5938-1.6719-1.8125-2.7812-0.046875-0.20312-0.0625-0.40625-0.078125-0.60938 0-0.078125 0.015625-0.1875-0.03125-0.23438-0.046875-0.0625-0.20312-0.0625-0.28125-0.03125-0.0625 0-0.078125 0.046875-0.09375 0.10938 0 0.14062 0 0.28125-0.015625 0.40625-0.0625 0.54688-0.23438 1.0625-0.48438 1.5469-0.34375 0.64062-0.85938 1.1875-1.4375 1.6406-0.125 0.09375-0.26562 0.1875-0.40625 0.28125-0.0625 0.03125-0.15625 0.0625-0.1875 0.14062-0.046875 0.0625-0.03125 0.20312-0.03125 0.26562 0.015625 0.015625 0.015625 0.03125 0.03125 0.046875 0.0625 0.10938 0.1875 0.015625 0.26562-0.03125 0.25-0.15625 0.48438-0.32812 0.70312-0.5 0.57812-0.46875 1.0781-1.0469 1.4219-1.7031 0.14062-0.25 0.23438-0.53125 0.34375-0.79688z"/>
</g>
</defs>
<g transform="translate(-149.82 -130.24)">
<use x="148.71201" y="134.765" xlink:href="#a"/>
</g>
</svg>
