<?xml version="1.0" encoding="UTF-8"?>
<svg fill="#000000" version="1.1" viewBox="0 0 8.3906 6.2812" xmlns="http://www.w3.org/2000/svg" xmlns:xlink="http://www.w3.org/1999/xlink">
<defs>
<g id="a">
<path d="m5.5781-0.54688c0 0.14062 0.10938 0.23438 0.23438 0.23438 0.0625 0 0.125-0.03125 0.17188-0.09375 0.76562-0.90625 1.6875-1.7031 2.8594-1.9219 0.10938-0.015625 0.1875-0.10938 0.1875-0.21875s-0.078125-0.20312-0.1875-0.21875c-1.1719-0.21875-2.0938-1.0156-2.8594-1.9219-0.046875-0.0625-0.10938-0.09375-0.17188-0.09375-0.125 0-0.23438 0.09375-0.23438 0.23438 0 0.078125 0.03125 0.17188 0.51562 0.625h-2.0469l0.57812-1.5781c0.03125-0.078125-0.03125-0.1875-0.14062-0.1875-0.0625 0-0.125 0.03125-0.14062 0.09375l-0.60938 1.6719h-2.9062c-0.09375 0-0.1875 0.078125-0.1875 0.1875 0 0.09375 0.09375 0.17188 0.1875 0.17188h2.7656l-0.29688 0.84375h-2.4688c-0.09375 0-0.1875 0.078125-0.1875 0.17188s0.09375 0.1875 0.1875 0.1875h2.3438l-0.3125 0.82812h-2.0312c-0.09375 0-0.1875 0.078125-0.1875 0.17188 0 0.10938 0.09375 0.1875 0.1875 0.1875h1.9062l-0.57812 1.5781c-0.03125 0.078125 0.03125 0.1875 0.14062 0.1875 0.0625 0 0.125-0.03125 0.14062-0.09375l0.60938-1.6719h3.0469c-0.35938 0.32812-0.51562 0.5-0.51562 0.625zm-1.6562-3.0156h2.5469c0.29688 0.26562 0.60938 0.54688 0.875 0.84375h-3.7188zm-0.4375 1.2031h3.8594c-0.26562 0.28125-0.57812 0.5625-0.875 0.82812h-3.2812z"/>
</g>
</defs>
<g transform="translate(-149.35 -129.08)">
<use x="148.71201" y="134.765" xlink:href="#a"/>
</g>
</svg>
