<?xml version="1.0" encoding="UTF-8"?>
<svg fill="#000000" width="5.2188" height="6.2188" version="1.1" viewBox="0 0 5.2188 6.2187" xmlns="http://www.w3.org/2000/svg" xmlns:xlink="http://www.w3.org/1999/xlink">
<defs>
<g id="a">
<path d="m4.6406-0.53125c0 0.14062 0.10938 0.23438 0.23438 0.23438 0.046875 0 0.23438-0.015625 0.5625-0.015625 1.3906 0 1.7656 0.51562 1.9531 0.51562 0.14062 0 0.23438-0.10938 0.23438-0.21875 0-0.20312-0.53125-0.5625-0.53125-1.9531 0-0.34375 0.03125-0.51562 0.03125-0.57812 0-0.125-0.09375-0.21875-0.23438-0.21875-0.23438 0-0.23438 0.23438-0.23438 0.48438v0.0625c0 0.39062 0.03125 0.76562 0.03125 1.1719l-2.1094-2.1094 0.89062-1.8906c0.03125-0.078125 0-0.17188-0.078125-0.20312s-0.17188 0-0.20312 0.078125l-0.82812 1.7812-1.3438-1.3281c-0.09375-0.10938-0.14062-0.21875-0.14062-0.35938 0-0.28125 0.21875-0.46875 0.46875-0.46875 0.3125 0 0.32812 0.20312 0.51562 0.20312 0.125 0 0.23438-0.09375 0.23438-0.23438 0-0.20312-0.375-0.4375-0.75-0.4375-0.51562 0-0.9375 0.4375-0.9375 0.9375 0 0.25 0.10938 0.5 0.28125 0.67188l1.4531 1.4688-0.875 1.8906c-0.03125 0.0625 0 0.15625 0.078125 0.20312 0.0625 0.03125 0.15625 0 0.1875-0.078125l0.84375-1.7969 2 1.9844h-0.03125c-0.375 0-0.76562-0.03125-1.1562-0.03125h-0.09375c-0.21875 0-0.45312 0.015625-0.45312 0.23438z"/>
</g>
</defs>
<g transform="translate(-151.12 -128.75)">
<use x="148.71201" y="134.765" xlink:href="#a"/>
</g>
</svg>
