<?xml version="1.0" encoding="UTF-8"?>
<svg fill="#000000" version="1.1" viewBox="0 0 4.7031 6.5625" xmlns="http://www.w3.org/2000/svg" xmlns:xlink="http://www.w3.org/1999/xlink">
<defs>
<g id="a">
<path d="m0.32812 1.7188c-0.03125 0.125-0.03125 0.14062-0.03125 0.17188 0 0.14062 0.10938 0.26562 0.28125 0.26562 0.20312 0 0.32812-0.1875 0.34375-0.21875 0.0625-0.078125 0.375-1.4219 0.64062-2.5 0.20312 0.40625 0.51562 0.67188 0.98438 0.67188 1.1719 0 2.4531-1.4062 2.4531-2.8906 0-1.0625-0.65625-1.625-1.375-1.625-0.96875 0-2.0156 1-2.3125 2.2188zm2.2188-1.8281c-0.70312 0-0.85938-0.79688-0.85938-0.89062 0-0.03125 0.046875-0.23438 0.078125-0.35938 0.28125-1.125 0.375-1.4844 0.59375-1.875 0.4375-0.73438 0.9375-0.95312 1.2344-0.95312 0.375 0 0.6875 0.29688 0.6875 0.98438 0 0.54688-0.28125 1.6562-0.54688 2.1406-0.32812 0.64062-0.8125 0.95312-1.1875 0.95312z"/>
</g>
</defs>
<g transform="translate(-149.01 -130.36)">
<use x="148.71201" y="134.765" xlink:href="#a"/>
</g>
</svg>
