<?xml version="1.0" encoding="UTF-8"?>
<svg fill="#000000" width="4.3125" height="8.0938" version="1.1" viewBox="0 0 4.3125 8.0937" xmlns="http://www.w3.org/2000/svg" xmlns:xlink="http://www.w3.org/1999/xlink">
<defs>
<g id="a">
<path d="m2.2188 2.25 0.54688-2.0469c0.28125 0.25 0.5625 0.46875 0.95312 0.46875 0.92188 0 1.1562-1.1562 1.1562-1.3906 0-0.15625-0.0625-0.28125-0.23438-0.28125-0.10938 0-0.21875 0.09375-0.21875 0.21875-0.03125 0.375-0.25 0.98438-0.70312 0.98438-0.29688 0-0.54688-0.25-0.8125-0.51562l0.59375-2.2031c0.015625-0.09375-0.046875-0.1875-0.15625-0.1875-0.046875 0-0.10938 0.046875-0.14062 0.10938l-0.54688 2.0469c-0.26562-0.25-0.5625-0.46875-0.95312-0.46875-0.92188 0-1.1406 1.1406-1.1406 1.3906 0 0.125 0.046875 0.26562 0.21875 0.26562 0.10938 0 0.21875-0.078125 0.23438-0.20312 0.03125-0.375 0.23438-1 0.6875-1 0.29688 0 0.54688 0.25 0.8125 0.51562l-0.57812 2.2031c-0.03125 0.09375 0.03125 0.20312 0.14062 0.20312 0.0625 0 0.125-0.046875 0.14062-0.10938zm-1.4375-3.9688c0.0625 0 0.10938-0.015625 0.14062-0.0625 1.1406-0.9375 2.3594-1.7188 3.7188-1.7188 0.14062 0 0.23438-0.09375 0.23438-0.23438s-0.09375-0.21875-0.23438-0.21875c-1.3594 0-2.5781-0.79688-3.7188-1.7344-0.03125-0.046875-0.078125-0.046875-0.14062-0.046875-0.14062 0-0.21875 0.09375-0.21875 0.21875 0 0.0625 0.015625 0.125 0.078125 0.17188 0.76562 0.65625 1.6562 1.2812 2.6406 1.6094-0.98438 0.32812-1.875 0.96875-2.6406 1.6094-0.0625 0.046875-0.078125 0.10938-0.078125 0.17188 0 0.125 0.078125 0.23438 0.21875 0.23438z"/>
</g>
</defs>
<g transform="translate(-149.27 -129.03)">
<use x="148.71201" y="134.765" xlink:href="#a"/>
</g>
</svg>
