<?xml version="1.0" encoding="UTF-8"?>
<svg fill="#000000" width="4.2656" height="6.3438" version="1.1" viewBox="0 0 4.2656 6.3437" xmlns="http://www.w3.org/2000/svg" xmlns:xlink="http://www.w3.org/1999/xlink">
<defs>
<g id="a">
<path d="m1.2656-0.95312c0.17188 0.64062 0.64062 1.0625 1.2812 1.0625 1.1875 0 2.4531-1.4219 2.4531-2.8906 0-1.0625-0.65625-1.625-1.375-1.625-0.79688 0-1.7969 0.70312-2.25 1.9688-0.046875 0.10938-0.64062 2.3125-0.64062 3.2031 0 0.51562 0.1875 0.98438 1.4062 0.98438 0.35938 0 0.5625-0.046875 0.95312-0.046875 0.1875 0 0.20312 0 0.26562 0.015625 0.15625 0 0.1875 0.015625 0.20312 0.09375 0 0.0625 0 0.125 0.10938 0.125 0.09375 0 0.15625-0.046875 0.15625-0.28125 0-0.48438-0.4375-0.48438-1.4375-0.48438-0.89062 0-1.3594 0-1.3594-0.67188 0-0.078125 0-0.45312 0.23438-1.4531zm1.2812 0.84375c-0.32812 0-0.73438-0.23438-0.73438-1.0469 0-0.625 0.29688-1.625 0.54688-2.0781 0.40625-0.70312 0.90625-0.95312 1.2344-0.95312 0.375 0 0.6875 0.29688 0.6875 0.98438 0 0.54688-0.28125 1.6562-0.54688 2.1406-0.32812 0.64062-0.8125 0.95312-1.1875 0.95312z"/>
</g>
</defs>
<g transform="translate(-149.45 -130.36)">
<use x="148.71201" y="134.765" xlink:href="#a"/>
</g>
</svg>
