<?xml version="1.0" encoding="UTF-8"?>
<svg fill="#000000" width="7.8438" height="7.8438" version="1.1" viewBox="0 0 7.8438 7.8437" xmlns="http://www.w3.org/2000/svg" xmlns:xlink="http://www.w3.org/1999/xlink">
<defs>
<g id="a">
<path d="m2.0625-5.4062c0 0.078125 0.03125 0.15625 0.09375 0.21875l4.1562 4.1562c0.0625 0.0625 0.14062 0.09375 0.21875 0.09375 0.15625 0 0.3125-0.125 0.3125-0.29688 0-0.078125-0.03125-0.15625-0.09375-0.21875l-4.1719-4.1719c-0.0625-0.0625-0.14062-0.09375-0.20312-0.09375-0.15625 0-0.3125 0.125-0.3125 0.3125zm2.3906 5.3906c-1.8906 0-3.3125-1.5469-3.3125-3.2969 0-1.9062 1.5469-3.3281 3.3125-3.3281 1.8906 0 3.3125 1.5469 3.3125 3.3281 0 1.875-1.5469 3.2969-3.3125 3.2969zm3.9219-3.2969c0-2.2344-1.8125-3.9375-3.9219-3.9375-2.2344 0-3.9219 1.8125-3.9219 3.9375 0 2.2188 1.8125 3.9062 3.9219 3.9062 2.2188 0 3.9219-1.8125 3.9219-3.9062z"/>
</g>
</defs>
<g transform="translate(-149.24 -128.29)">
<use x="148.71201" y="135.53999" xlink:href="#a"/>
</g>
</svg>
