<?xml version="1.0" encoding="UTF-8"?>
<svg fill="#000000" version="1.1" viewBox="0 0 6.0938 11.016" xmlns="http://www.w3.org/2000/svg" xmlns:xlink="http://www.w3.org/1999/xlink">
<defs>
<g id="a">
<path d="m6.2188-7.6094c0.046875-0.125 0.0625-0.14062 0.0625-0.20312 0-0.10938-0.078125-0.1875-0.20312-0.1875-0.0625 0-0.10938 0.015625-0.14062 0.0625l-0.78125 1.8594c-0.40625-0.1875-0.85938-0.26562-1.2969-0.26562h-2.6875c-0.17188 0-0.34375 0-0.34375 0.20312s0.17188 0.20312 0.34375 0.20312h2.6562c0.23438 0 0.67188 0.015625 1.1719 0.21875l-1.9844 4.75h-1.8438c-0.17188 0-0.34375 0-0.34375 0.20312s0.17188 0.20312 0.34375 0.20312h1.6875l-0.64062 1.5312h-1.0469c-0.17188 0-0.34375 0-0.34375 0.20312 0 0.1875 0.17188 0.1875 0.34375 0.1875h0.875c-0.078125 0.21875-0.57812 1.3594-0.57812 1.4688s0.078125 0.1875 0.20312 0.1875 0.15625-0.09375 0.21875-0.23438l0.59375-1.4219h3.8906c0.17188 0 0.34375 0 0.34375-0.1875 0-0.20312-0.17188-0.20312-0.34375-0.20312h-3.7188l0.64062-1.5312h0.57812c1.6719 0 3.0469-1.2656 3.0469-2.8906 0-1.1562-0.71875-2.0312-1.4219-2.4375zm-0.875 2.0938c0.875 0.54688 1.1719 1.375 1.1719 2.0625 0 0.73438-0.3125 1.375-0.85938 1.8438-0.75 0.64062-1.5 0.64062-2.2031 0.64062z"/>
</g>
</defs>
<g transform="translate(-149.54 -126.76)">
<use x="148.71201" y="134.765" xlink:href="#a"/>
</g>
</svg>
