<?xml version="1.0" encoding="UTF-8"?>
<svg fill="#000000" width="4.7969" height="7.9688" version="1.1" viewBox="0 0 4.7969 7.9687" xmlns="http://www.w3.org/2000/svg" xmlns:xlink="http://www.w3.org/1999/xlink">
<defs>
<g id="a">
<path d="m3.375-4.6562c-0.9375 0.3125-1.7969 0.84375-2.4844 1.5781l0.46875 0.42188c1.0312-1.0938 2.4844-1.6875 4-1.6875h0.32812v-0.64062h-0.32812c-1.5156 0-2.9688-0.59375-4-1.6875l-0.46875 0.4375c0.6875 0.73438 1.5469 1.2656 2.4844 1.5781zm-2.0938 3.6094c0.25-0.26562 0.54688-0.53125 0.92188-0.53125 0.32812 0 0.625 0.1875 0.89062 0.40625 0.35938 0.3125 0.79688 0.54688 1.2969 0.54688 0.53125 0 0.90625-0.40625 1.2969-0.79688l-0.39062-0.375c-0.25 0.26562-0.54688 0.54688-0.92188 0.54688-0.32812 0-0.625-0.20312-0.89062-0.42188-0.35938-0.3125-0.79688-0.54688-1.2969-0.54688-0.51562 0-0.90625 0.42188-1.2969 0.79688zm0 1.9219c0.25-0.25 0.54688-0.53125 0.92188-0.53125 0.32812 0 0.625 0.1875 0.89062 0.39062 0.35938 0.32812 0.79688 0.5625 1.2969 0.5625 0.53125 0 0.90625-0.42188 1.2969-0.79688l-0.39062-0.375c-0.25 0.26562-0.54688 0.53125-0.92188 0.53125-0.32812 0-0.625-0.1875-0.89062-0.40625-0.35938-0.3125-0.79688-0.54688-1.2969-0.54688-0.51562 0-0.90625 0.42188-1.2969 0.79688z"/>
</g>
</defs>
<g transform="translate(-149.6 -128.09)">
<use x="148.71201" y="134.765" xlink:href="#a"/>
</g>
</svg>
