<?xml version="1.0" encoding="UTF-8"?>
<svg fill="#000000" version="1.1" viewBox="0 0 7.8281 6.7969" xmlns="http://www.w3.org/2000/svg" xmlns:xlink="http://www.w3.org/1999/xlink">
<defs>
<g id="a">
<path d="m0.09375-6.8125v0.29688c0.17188 0 0.35938 0 0.53125 0.03125 0.125 0 0.25 0.03125 0.34375 0.10938 0.10938 0.10938 0.15625 0.23438 0.23438 0.35938l0.28125 0.57812 1.0312 2.0938 0.35938 0.70312c0.0625 0.10938 0.14062 0.23438 0.15625 0.34375 0.015625 0.15625 0 0.3125 0 0.46875v0.89062c0 0.17188 0.046875 0.39062-0.10938 0.51562-0.078125 0.0625-0.20312 0.078125-0.29688 0.078125-0.21875 0.03125-0.40625 0.03125-0.625 0.03125v0.29688h4.0156v-0.29688c-0.20312 0-0.40625 0-0.60938-0.03125-0.10938 0-0.21875-0.015625-0.29688-0.078125-0.14062-0.125-0.10938-0.32812-0.10938-0.5v-1.6094c0-0.0625-0.015625-0.125 0-0.1875 0.03125-0.078125 0.078125-0.15625 0.125-0.23438 0.09375-0.17188 0.17188-0.34375 0.26562-0.5 0.28125-0.53125 0.57812-1.0469 0.85938-1.5781 0.125-0.21875 0.23438-0.42188 0.35938-0.64062 0.09375-0.17188 0.17188-0.34375 0.3125-0.48438 0.28125-0.26562 0.64062-0.35938 1-0.35938v-0.29688h-2.1094v0.29688c0.25 0 0.59375 0.10938 0.60938 0.40625 0.015625 0.03125 0 0.078125-0.015625 0.125-0.03125 0.10938-0.09375 0.21875-0.15625 0.32812-0.09375 0.15625-0.1875 0.32812-0.28125 0.5-0.25 0.45312-0.5 0.90625-0.73438 1.3594-0.125 0.23438-0.28125 0.45312-0.375 0.70312h-0.015625c-0.03125-0.10938-0.09375-0.20312-0.14062-0.3125l-0.25-0.48438-0.76562-1.5469-0.29688-0.57812c-0.046875-0.078125-0.09375-0.1875-0.078125-0.28125 0.03125-0.078125 0.10938-0.14062 0.20312-0.15625 0.17188-0.0625 0.35938-0.0625 0.54688-0.0625v-0.29688zm4.5938 6.5h-0.79688v-1.9844l-0.015625-0.25-0.46875-0.98438-1-1.9688-0.3125-0.64062-0.1875-0.375h0.78125l0.10938 0.015625 0.078125 0.125 0.14062 0.29688 0.60938 1.1875 0.71875 1.4531 0.21875 0.45312 0.10938 0.25 0.015625 0.26562z"/>
</g>
</defs>
<g transform="translate(-148.81 -127.95)">
<use x="148.71201" y="134.765" xlink:href="#a"/>
</g>
</svg>
