<?xml version="1.0" encoding="UTF-8"?>
<svg fill="#000000" version="1.1" viewBox="0 0 4.8398 4.7462" xmlns="http://www.w3.org/2000/svg" xmlns:xlink="http://www.w3.org/1999/xlink">
<defs>
<g id="a">
<path d="m2.7344-2.9219c-0.0625-0.125-0.10938-0.25-0.1875-0.375-0.25-0.46875-0.57812-1.0312-1.125-1.2031-0.40625-0.10938-0.90625 0-1.1094 0.39062-0.046875 0.078125-0.078125 0.15625-0.09375 0.26562-0.015625 0.03125-0.015625 0.078125 0 0.125 0.046875 0.078125 0.1875 0.078125 0.21875 0.015625 0.015625-0.046875 0.015625-0.09375 0.03125-0.14062 0.015625-0.0625 0.03125-0.125 0.0625-0.1875 0.09375-0.15625 0.29688-0.3125 0.48438-0.26562 0.09375 0.015625 0.17188 0.0625 0.23438 0.125 0.15625 0.15625 0.28125 0.34375 0.39062 0.53125 0.1875 0.3125 0.34375 0.625 0.5 0.95312 0.046875 0.125 0.10938 0.23438 0.15625 0.35938 0.03125 0.046875 0.078125 0.10938 0.0625 0.17188 0 0.046875-0.03125 0.10938-0.0625 0.15625-0.046875 0.10938-0.09375 0.20312-0.14062 0.3125-0.1875 0.34375-0.35938 0.6875-0.32812 1.0938 0.046875 0.39062 0.32812 0.78125 0.75 0.79688 0.1875 0.015625 0.35938-0.03125 0.51562-0.10938 0.14062-0.078125 0.25-0.15625 0.32812-0.28125 0.046875-0.078125 0.09375-0.15625 0.125-0.23438 0.10938-0.21875 0.10938-0.5 0.03125-0.73438-0.046875-0.15625-0.125-0.28125-0.1875-0.42188-0.10938-0.20312-0.20312-0.42188-0.3125-0.64062-0.03125-0.09375-0.09375-0.1875-0.14062-0.28125-0.015625-0.046875-0.046875-0.078125-0.046875-0.125-0.015625-0.03125 0.015625-0.078125 0.03125-0.10938 0.03125-0.0625 0.0625-0.14062 0.10938-0.21875 0.14062-0.29688 0.28125-0.59375 0.48438-0.85938 0.1875-0.28125 0.46875-0.57812 0.82812-0.48438 0.046875 0.015625 0.10938 0.03125 0.14062 0.046875 0.0625 0.03125 0.10938 0.078125 0.15625 0.125 0.0625 0.0625 0.10938 0.14062 0.14062 0.23438 0 0.0625 0 0.125 0.03125 0.1875 0.046875 0.0625 0.1875 0.0625 0.21875-0.015625 0.015625-0.046875 0.015625-0.078125 0.015625-0.125-0.015625-0.078125-0.046875-0.17188-0.078125-0.25-0.1875-0.35938-0.64062-0.51562-1.0156-0.39062-0.28125 0.09375-0.48438 0.29688-0.64062 0.53125-0.23438 0.3125-0.40625 0.67188-0.57812 1.0312zm-0.21875 1.0312c0.0625 0.14062 0.125 0.26562 0.20312 0.40625 0.10938 0.25 0.23438 0.48438 0.26562 0.76562 0.03125 0.1875 0.03125 0.40625-0.078125 0.5625l-0.09375 0.09375c-0.1875 0.125-0.4375 0.015625-0.5625-0.14062-0.15625-0.17188-0.20312-0.4375-0.17188-0.67188 0.0625-0.35938 0.3125-0.67188 0.4375-1.0156z"/>
</g>
</defs>
<g transform="translate(-148.92 -130.22)">
<use x="148.71201" y="134.765" xlink:href="#a"/>
</g>
</svg>
