<?xml version="1.0" encoding="UTF-8"?>
<svg fill="#000000" version="1.1" viewBox="0 0 6.0938 5.7969" xmlns="http://www.w3.org/2000/svg" xmlns:xlink="http://www.w3.org/1999/xlink">
<defs>
<g id="a">
<path d="m4.0156-1.5469c-0.09375 0-0.20312 0.015625-0.28125 0.015625-0.5625 0-0.96875-0.45312-0.96875-0.96875 0-0.5 0.40625-0.95312 0.96875-0.95312 0.078125 0 0.1875 0.015625 0.28125 0.015625h2.5469c0.17188 0 0.35938 0 0.35938-0.20312s-0.1875-0.20312-0.35938-0.20312h-2.5156-0.3125c-0.78125 0-1.375 0.625-1.375 1.3438 0 0.75 0.59375 1.3594 1.375 1.3594h1.7656 1.0625c0.17188 0 0.35938 0 0.35938-0.20312s-0.1875-0.20312-0.35938-0.20312zm-0.10938 1.5469c-1.5469 0-2.6875-1.1406-2.6875-2.5 0-1.3438 1.125-2.4844 2.6875-2.4844h2.6562c0.17188 0 0.35938 0 0.35938-0.20312s-0.1875-0.20312-0.35938-0.20312h-2.6875c-1.6562 0-3.0469 1.2656-3.0469 2.8906 0 1.6406 1.3906 2.9062 3.0469 2.9062h2.6875c0.17188 0 0.35938 0 0.35938-0.20312s-0.1875-0.20312-0.35938-0.20312z"/>
</g>
</defs>
<g transform="translate(-149.54 -129.37)">
<use x="148.71201" y="134.765" xlink:href="#a"/>
</g>
</svg>
