<?xml version="1.0" encoding="UTF-8"?>
<svg fill="#000000" version="1.1" viewBox="0 0 5.3807 9.0775" xmlns="http://www.w3.org/2000/svg" xmlns:xlink="http://www.w3.org/1999/xlink">
<defs>
<g id="a">
<path d="m3.3125-4.3125h-1.5781v-1.8438h-0.25c0 0.125-0.015625 0.23438-0.015625 0.35938-0.078125 0.60938-0.35938 1.3594-1.0156 1.5469-0.078125 0.015625-0.1875 0.03125-0.28125 0.03125v0.21875h0.85938v2.1562c0 0.39062-0.046875 0.84375 0.10938 1.2188 0.1875 0.45312 0.64062 0.67188 1.1094 0.71875 0.40625 0.03125 0.76562-0.046875 1.0625-0.32812 0 0.5 0.046875 1.0156-0.0625 1.5156-0.046875 0.21875-0.15625 0.48438-0.40625 0.51562-0.1875 0.046875-0.375-0.046875-0.54688-0.10938 0.078125-0.015625 0.14062-0.03125 0.20312-0.078125 0.29688-0.1875 0.23438-0.67188-0.09375-0.79688-0.046875-0.03125-0.10938-0.03125-0.15625-0.03125-0.0625 0-0.125 0-0.1875 0.03125-0.26562 0.09375-0.34375 0.40625-0.25 0.65625 0.1875 0.5 0.875 0.6875 1.3438 0.5 0.25-0.10938 0.45312-0.29688 0.59375-0.53125s0.21875-0.51562 0.23438-0.79688c0.015625-0.125 0-0.26562 0-0.40625v-5.1562c0-0.45312-0.03125-0.9375 0.078125-1.3906 0.046875-0.20312 0.15625-0.42188 0.375-0.48438 0.1875-0.0625 0.375 0.015625 0.54688 0.0625-0.10938 0.046875-0.20312 0.09375-0.26562 0.1875-0.14062 0.20312-0.10938 0.48438 0.078125 0.625 0.10938 0.09375 0.25 0.10938 0.375 0.09375 0.29688-0.03125 0.4375-0.35938 0.35938-0.625-0.046875-0.1875-0.1875-0.32812-0.34375-0.42188s-0.32812-0.14062-0.51562-0.15625c-0.14062-0.015625-0.28125 0-0.42188 0.03125-0.10938 0.03125-0.23438 0.09375-0.32812 0.15625s-0.17188 0.14062-0.23438 0.21875c-0.20312 0.25-0.3125 0.54688-0.35938 0.84375-0.015625 0.14062-0.015625 0.28125-0.015625 0.42188zm-1.5781 0.3125h1.5781v3c0 0.14062 0 0.26562-0.046875 0.40625-0.0625 0.10938-0.14062 0.21875-0.25 0.28125-0.28125 0.21875-0.70312 0.21875-0.96875 0-0.14062-0.125-0.21875-0.29688-0.26562-0.46875-0.046875-0.1875-0.046875-0.39062-0.046875-0.57812z"/>
</g>
</defs>
<g transform="translate(-148.88 -127.73)">
<use x="148.71201" y="134.765" xlink:href="#a"/>
</g>
</svg>
