<?xml version="1.0" encoding="UTF-8"?>
<svg fill="#000000" version="1.1" viewBox="0 0 18.188 3.0508" xmlns="http://www.w3.org/2000/svg" xmlns:xlink="http://www.w3.org/1999/xlink">
<defs>
<g id="a">
<path d="m2.0312-2.2969h0.65625c0.29688 0 0.59375-0.015625 0.85938-0.14062 0.14062-0.0625 0.26562-0.14062 0.375-0.23438 0.078125-0.078125 0.14062-0.15625 0.21875-0.23438 0.21875-0.14062 0.54688-0.21875 0.79688-0.17188 0.28125 0.0625 0.46875 0.29688 0.60938 0.53125 0.046875 0.09375 0.078125 0.21875 0.14062 0.3125 0.23438 0.42188 0.65625 0.76562 1.1562 0.71875 0.45312-0.046875 0.78125-0.375 0.98438-0.75 0.0625-0.10938 0.10938-0.23438 0.17188-0.34375 0.15625-0.26562 0.40625-0.5 0.73438-0.48438 0.3125 0.015625 0.53125 0.26562 0.67188 0.53125 0.0625 0.10938 0.10938 0.23438 0.15625 0.34375 0.078125 0.125 0.15625 0.25 0.25 0.34375 0.23438 0.23438 0.53125 0.375 0.85938 0.35938 0.4375-0.015625 0.82812-0.34375 1.0156-0.70312 0.0625-0.14062 0.10938-0.26562 0.1875-0.39062 0.14062-0.25 0.40625-0.5 0.71875-0.48438s0.5625 0.26562 0.6875 0.53125c0.0625 0.10938 0.10938 0.21875 0.15625 0.32812 0.20312 0.375 0.57812 0.70312 1.0312 0.71875 0.32812 0.015625 0.6875-0.0625 0.95312-0.26562 0.17188-0.14062 0.29688-0.32812 0.51562-0.4375 0.21875-0.078125 0.45312-0.078125 0.6875-0.078125h0.67188c-0.15625 0.15625-0.3125 0.32812-0.45312 0.51562-0.09375 0.09375-0.15625 0.1875-0.23438 0.28125-0.0625 0.078125-0.125 0.17188-0.1875 0.25-0.03125 0.046875-0.07813 0.09375-0.07813 0.14062-0.01563 0.046875 0 0.10938 0.0625 0.125h0.09375c0.0625 0 0.125 0.015625 0.1875-0.015625 0.0625-0.046875 0.10938-0.10938 0.17188-0.14062 0.09375-0.09375 0.20312-0.1875 0.29688-0.26562 0.3125-0.25 0.64062-0.48438 0.98438-0.67188 0.15625-0.10938 0.3125-0.1875 0.46875-0.28125 0.062505-0.015625 0.14063-0.0625 0.14063-0.14062s-0.09375-0.125-0.14062-0.15625c-0.17188-0.078125-0.32812-0.17188-0.46875-0.26562-0.34375-0.20312-0.67188-0.42188-0.98438-0.67188-0.09375-0.078125-0.20312-0.17188-0.29688-0.26562-0.0625-0.03125-0.10938-0.09375-0.17188-0.14062-0.0625-0.03125-0.125-0.03125-0.1875-0.03125-0.03125 0-0.07813 0-0.09375 0.015625-0.0625 0.015625-0.07813 0.0625-0.0625 0.125 0 0.046875 0.04687 0.09375 0.07813 0.125 0.0625 0.09375 0.125 0.17188 0.1875 0.25 0.07813 0.10938 0.14062 0.20312 0.23438 0.29688 0.14062 0.17188 0.29688 0.34375 0.45312 0.51562h-0.67188c-0.28125 0-0.57812 0.015625-0.85938 0.125-0.14062 0.0625-0.25 0.14062-0.35938 0.25-0.07813 0.078125-0.14062 0.15625-0.23438 0.21875-0.20312 0.15625-0.53125 0.23438-0.79688 0.17188-0.26562-0.046875-0.46875-0.28125-0.59375-0.51562-0.04687-0.09375-0.09375-0.21875-0.14062-0.3125-0.25-0.42188-0.65625-0.76562-1.1719-0.71875-0.45312 0.046875-0.78125 0.35938-0.98438 0.75-0.0625 0.10938-0.09375 0.23438-0.17188 0.34375-0.14062 0.25-0.40625 0.5-0.71875 0.48438-0.3125-0.03125-0.54688-0.28125-0.6875-0.53125-0.0625-0.10938-0.09375-0.23438-0.15625-0.34375-0.078125-0.125-0.15625-0.25-0.25-0.34375-0.23438-0.23438-0.53125-0.375-0.85938-0.35938-0.4375 0-0.8125 0.32812-1 0.70312-0.078125 0.125-0.125 0.26562-0.1875 0.375-0.15625 0.26562-0.42188 0.51562-0.73438 0.5-0.3125-0.03125-0.54688-0.28125-0.6875-0.53125-0.0625-0.10938-0.09375-0.21875-0.15625-0.32812-0.20312-0.39062-0.57812-0.71875-1.0156-0.71875-0.34375-0.015625-0.6875 0.0625-0.96875 0.26562-0.17188 0.14062-0.29688 0.32812-0.51562 0.42188s-0.4375 0.09375-0.67188 0.09375h-0.67188c0.15625-0.17188 0.29688-0.34375 0.45312-0.51562 0.078125-0.09375 0.14062-0.1875 0.23438-0.29688 0.046875-0.078125 0.125-0.15625 0.1875-0.25 0.03125-0.03125 0.0625-0.078125 0.078125-0.125 0-0.0625-0.015625-0.10938-0.0625-0.125-0.03125-0.015625-0.078125-0.015625-0.09375-0.015625-0.0625 0-0.14062 0-0.20312 0.03125-0.046875 0.046875-0.10938 0.10938-0.15625 0.14062-0.10938 0.09375-0.20312 0.1875-0.3125 0.26562-0.29688 0.25-0.625 0.46875-0.96875 0.67188-0.15625 0.09375-0.3125 0.1875-0.48438 0.26562-0.0625 0.03125-0.14062 0.078125-0.14062 0.15625s0.078125 0.125 0.14062 0.14062c0.17188 0.09375 0.32812 0.17188 0.48438 0.28125 0.34375 0.1875 0.67188 0.42188 0.96875 0.67188 0.10938 0.078125 0.20312 0.17188 0.3125 0.26562 0.046875 0.03125 0.10938 0.09375 0.15625 0.14062 0.0625 0.03125 0.14062 0.015625 0.20312 0.015625h0.09375c0.046875-0.015625 0.0625-0.078125 0.0625-0.125-0.015625-0.046875-0.046875-0.09375-0.078125-0.14062-0.0625-0.078125-0.14062-0.17188-0.1875-0.25-0.09375-0.09375-0.15625-0.1875-0.23438-0.28125-0.15625-0.1875-0.29688-0.35938-0.45312-0.51562z"/>
</g>
</defs>
<g transform="translate(-149.27 -130.73)">
<use x="148.71201" y="134.765" xlink:href="#a"/>
</g>
</svg>
