<?xml version="1.0" encoding="UTF-8"?>
<svg fill="#000000" version="1.1" viewBox="0 0 4.5781 7.9899" xmlns="http://www.w3.org/2000/svg" xmlns:xlink="http://www.w3.org/1999/xlink">
<defs>
<g id="a">
<path d="m1.25 0.17188h0.75l-0.45312 1.0938c-0.046875 0.09375 0 0.1875 0.09375 0.21875 0.09375 0.046875 0.1875 0 0.21875-0.09375l0.51562-1.2188h2.9531c0.14062 0 0.25-0.125 0.25-0.26562s-0.125-0.25-0.25-0.25h-2.75l0.875-2.0938c0.03125 0 0.0625 0.015625 0.078125 0.03125 1.6094 0.5 1.4688 1.4844 1.625 1.5781 0.0625 0.03125 0.10938 0.046875 0.17188 0.046875 0.14062 0 0.25-0.078125 0.25-0.23438 0-0.23438-0.125-0.5625-0.25-0.76562-0.375-0.59375-1.0156-0.92188-1.6719-1.1094l0.046875-0.14062c0.875-0.28125 1.875-0.875 1.875-1.8906 0-0.125-0.14062-0.1875-0.25-0.1875-0.0625 0-0.10938 0-0.17188 0.03125-0.14062 0.078125-0.046875 0.875-1.1875 1.4062l1.0625-2.5625c0.046875-0.10938 0.015625-0.20312-0.078125-0.23438-0.10938-0.046875-0.20312 0-0.23438 0.09375l-1.1875 2.875c-0.73438 0.23438-1.5156 0.29688-2.2812 0.29688-0.0625 0-0.14062 0.015625-0.17188 0.046875-0.0625 0.0625-0.078125 0.10938-0.078125 0.20312 0 0.14062 0.09375 0.25 0.25 0.25 0.60938 0 1.25 0.046875 1.875 0.1875l-0.90625 2.1719h-0.96875c-0.14062 0-0.25 0.125-0.25 0.25 0 0.14062 0.10938 0.26562 0.25 0.26562z"/>
</g>
</defs>
<g transform="translate(-149.71 -128.28)">
<use x="148.71201" y="134.765" xlink:href="#a"/>
</g>
</svg>
