<?xml version="1.0" encoding="UTF-8"?>
<svg fill="#000000" version="1.1" viewBox="0 0 10.875 11.406" xmlns="http://www.w3.org/2000/svg" xmlns:xlink="http://www.w3.org/1999/xlink">
<defs>
<g id="a">
<path d="m8.2812-4.4844c-0.48438-0.125-1.0312-0.20312-1.625-0.23438l0.35938-1.4219c0.26562-1.0469 0.5-1.7656 1-1.7656 0.0625 0 0.10938 0.03125 0.10938 0.078125 0 0.09375-0.1875 0.15625-0.1875 0.40625 0 0.17188 0.17188 0.25 0.3125 0.25 0.28125 0 0.51562-0.26562 0.51562-0.59375 0-0.23438-0.14062-0.45312-0.54688-0.45312-1.1875 0-1.7656 1.375-1.9688 2.1719l-0.3125 1.2969h-0.17188c-0.54688 0-1.0781 0.03125-1.5312 0.078125l0.375-1.4688c0.25-1.0469 0.5-1.7656 1-1.7656 0.078125 0 0.10938 0.03125 0.10938 0.078125 0 0.09375-0.17188 0.15625-0.17188 0.40625 0 0.17188 0.15625 0.25 0.3125 0.25 0.26562 0 0.51562-0.26562 0.51562-0.59375 0-0.23438-0.15625-0.45312-0.54688-0.45312-1.2031 0-1.7812 1.375-1.9844 2.1719l-0.375 1.5156c-1.5312 0.35938-2.4062 1.0938-2.4062 2.0156 0 0.82812 0.51562 1.4219 1.4531 1.7812l-0.48438 1.9688c-0.25 1.0156-0.48438 1.6406-0.95312 1.6406-0.078125 0-0.10938-0.03125-0.10938-0.078125 0-0.10938 0.17188-0.09375 0.17188-0.39062 0-0.15625-0.15625-0.25-0.29688-0.25-0.28125 0-0.53125 0.25-0.53125 0.57812 0 0.25 0.15625 0.45312 0.5625 0.45312 1.1094 0 1.7031-1.2031 1.9062-2.0156l0.42188-1.7031c0.46875 0.125 1.0156 0.1875 1.6094 0.23438l-0.375 1.5312c-0.25 1.0156-0.48438 1.6406-0.95312 1.6406-0.078125 0-0.10938-0.03125-0.10938-0.078125 0-0.10938 0.17188-0.09375 0.17188-0.39062 0-0.15625-0.15625-0.25-0.3125-0.25-0.28125 0-0.51562 0.25-0.51562 0.57812 0 0.25 0.15625 0.45312 0.54688 0.45312 1.125 0 1.7188-1.2031 1.9219-2.0156l0.35938-1.4375h0.21875c0.53125 0 1.0156-0.03125 1.4688-0.09375l-0.39062 1.5938c-0.25 1.0156-0.48438 1.6406-0.95312 1.6406-0.0625 0-0.10938-0.03125-0.10938-0.078125 0-0.10938 0.1875-0.09375 0.1875-0.39062 0-0.15625-0.17188-0.25-0.3125-0.25-0.28125 0-0.51562 0.25-0.51562 0.57812 0 0.25 0.14062 0.45312 0.54688 0.45312 1.1094 0 1.7031-1.2031 1.9062-2.0156l0.40625-1.6562c1.5469-0.32812 2.4531-1.0156 2.4531-2.0312 0-0.78125-0.54688-1.375-1.5-1.75l0.46875-1.875c0.25-1.0469 0.5-1.7656 1-1.7656 0.07813 0 0.10938 0.03125 0.10938 0.078125 0 0.09375-0.17188 0.15625-0.17188 0.40625 0 0.17188 0.15625 0.25 0.3125 0.25 0.28125 0 0.51562-0.26562 0.51562-0.59375 0-0.23438-0.15625-0.45312-0.54688-0.45312-1.2031 0-1.7812 1.375-1.9844 2.1719zm0.57812 0.60938c0.75 0.3125 1.2031 0.76562 1.2031 1.3594 0 0.84375-0.76562 1.3594-1.9531 1.6406zm-1.5156 3.125c-0.5 0.078125-1.0625 0.10938-1.6406 0.10938h-0.078125l0.9375-3.7031c0.57812 0.03125 1.1406 0.10938 1.6094 0.23438zm-1.5156-3.625-0.90625 3.7031c-0.60938-0.03125-1.1562-0.10938-1.625-0.23438l0.84375-3.3594c0.46875-0.078125 1-0.10938 1.5625-0.10938zm-3.2031 3.2344c-0.73438-0.3125-1.1719-0.76562-1.1719-1.375 0-0.70312 0.73438-1.2656 1.9062-1.5938z"/>
</g>
</defs>
<g transform="translate(-149.02 -126.51)">
<use x="148.71201" y="134.72501" xlink:href="#a"/>
</g>
</svg>
