<?xml version="1.0" encoding="UTF-8"?>
<svg fill="#000000" version="1.1" viewBox="0 0 7.8594 10.25" xmlns="http://www.w3.org/2000/svg" xmlns:xlink="http://www.w3.org/1999/xlink">
<defs>
<g id="a">
<path d="m9.75-2.5469c-0.015625-1.4062-0.75-2.6875-1.9375-3.3906 0.96875-0.32812 1.4219-0.35938 1.4219-0.64062 0-0.14062-0.125-0.23438-0.23438-0.23438-0.14062 0-0.89062 0.48438-1.8438 0.48438-0.3125 0-0.46875-0.046875-0.51562-0.0625l0.20312-1.1094c0.015625-0.09375-0.046875-0.17188-0.15625-0.17188-0.0625 0-0.125 0.046875-0.14062 0.10938l-0.20312 1.1719c-0.078125 0.046875-0.10938 0.125-0.10938 0.20312 0 0.046875 0 0.09375 0.046875 0.14062l-1.2188 6.8906c-1.5938-0.35938-2.7188-1.75-2.7188-3.3906 0-1.6875 1.2031-3.125 2.875-3.4219 0.10938-0.015625 0.1875-0.10938 0.1875-0.21875 0-0.14062-0.10938-0.23438-0.23438-0.23438h-0.03125c-1.875 0.32812-3.25 1.9688-3.25 3.875 0 1.875 1.3125 3.4531 3.0938 3.8438l-0.20312 1.1094c0 0.09375 0.046875 0.17188 0.15625 0.17188 0.0625 0 0.14062-0.046875 0.14062-0.10938l0.20312-1.125c0.17188 0.03125 0.34375 0.046875 0.53125 0.046875 2.2188 0 3.9375-1.8281 3.9375-3.9375zm-1.7188-1.4531c0-0.23438-0.45312-1.1094-0.60938-1.625 1.125 0.57812 1.8594 1.7656 1.875 3.0781 0 1.9844-1.625 3.4688-3.4844 3.4688-0.15625 0-0.29688 0-0.45312-0.03125l1.1875-6.7188c0.53125 0.48438 0.82812 1.1875 1.0156 1.8906 0.03125 0.09375 0.125 0.17188 0.23438 0.17188 0.14062 0 0.23438-0.10938 0.23438-0.23438z"/>
</g>
</defs>
<g transform="translate(-150.6 -127.09)">
<use x="148.71201" y="134.765" xlink:href="#a"/>
</g>
</svg>
