<?xml version="1.0" encoding="UTF-8"?>
<svg fill="#000000" version="1.1" viewBox="0 0 4.7812 8.75" xmlns="http://www.w3.org/2000/svg" xmlns:xlink="http://www.w3.org/1999/xlink">
<defs>
<g id="a">
<path d="m2.5-5.9062h-0.71875v-0.70312c0-0.10938-0.09375-0.20312-0.20312-0.20312-0.09375 0-0.1875 0.078125-0.1875 0.1875v0.71875h-0.73438c-0.09375 0-0.17188 0.10938-0.17188 0.1875 0 0.125 0.078125 0.21875 0.17188 0.21875h0.73438v5.3281c0 0.09375 0.09375 0.17188 0.1875 0.17188 0.10938 0 0.20312-0.078125 0.20312-0.20312v-1.9844c0-0.75 0.32812-1.3438 0.92188-1.75 0.20312-0.10938 0.375-0.125 0.60938-0.15625 1 0.015625 1.5469 1 1.5469 1.9062 0 0.57812-0.28125 1.1875-0.46875 1.7344-0.1875 0.51562-0.46875 1.1094-0.46875 1.6406 0 0.71875 0.71875 0.75 1.0625 0.75h0.0625c0.09375 0 0.21875-0.09375 0.21875-0.21875-0.015625-0.10938-0.14062-0.1875-0.21875-0.1875h-0.046875c-0.32812 0-0.65625-0.03125-0.65625-0.34375 0-0.40625 0.20312-0.90625 0.35938-1.3594 0.26562-0.75 0.5625-1.3906 0.5625-2.0156 0-1.1094-0.76562-2.3125-1.9531-2.3125-0.26562 0-0.57812 0.078125-0.8125 0.21875-0.29688 0.14062-0.53125 0.39062-0.71875 0.6875v-1.9062h0.75c0.046875 0 0.15625-0.078125 0.15625-0.21875 0-0.125-0.10938-0.1875-0.1875-0.1875z"/>
</g>
</defs>
<g transform="translate(-149.2 -127.95)">
<use x="148.71201" y="134.765" xlink:href="#a"/>
</g>
</svg>
