<?xml version="1.0" encoding="UTF-8"?>
<svg fill="#000000" version="1.1" viewBox="0 0 6.1114 7.7054" xmlns="http://www.w3.org/2000/svg" xmlns:xlink="http://www.w3.org/1999/xlink">
<defs>
<g id="a">
<path d="m3.8125-7.1406c-0.078125 0-0.15625 0.015625-0.21875 0.078125-0.3125 0.20312-0.3125 0.65625-0.015625 0.85938 0.046875 0.046875 0.10938 0.078125 0.1875 0.09375 0.046875 0.015625 0.125 0.015625 0.1875 0 0.078125-0.015625 0.14062-0.03125 0.21875-0.078125 0.29688-0.21875 0.29688-0.65625 0-0.875-0.046875-0.03125-0.10938-0.0625-0.17188-0.078125s-0.125-0.015625-0.1875 0zm-0.14062 4.4375h-2.6719c-0.0625 0-0.14062 0.015625-0.15625 0.09375-0.03125 0.078125-0.03125 0.23438 0.03125 0.28125 0.046875 0.03125 0.125 0.03125 0.1875 0.03125h2.6094v2.1719 0.5c0 0.0625 0.015625 0.14062 0.09375 0.15625 0.078125 0.03125 0.23438 0.03125 0.28125-0.015625 0.046875-0.0625 0.03125-0.14062 0.03125-0.20312v-2.6094h2.6719c0.0625 0 0.14062-0.015625 0.17188-0.09375 0.015625-0.078125 0.03125-0.23438-0.046875-0.29688-0.046875-0.03125-0.10938-0.015625-0.17188-0.015625h-2.625v-2.625c0-0.0625 0.015625-0.14062-0.03125-0.1875-0.046875-0.0625-0.20312-0.046875-0.28125-0.03125-0.078125 0.03125-0.09375 0.10938-0.09375 0.17188v0.5z"/>
</g>
</defs>
<g transform="translate(-149.54 -127.61)">
<use x="148.71201" y="134.765" xlink:href="#a"/>
</g>
</svg>
