<?xml version="1.0" encoding="UTF-8"?>
<svg fill="#000000" version="1.1" viewBox="0 0 9.9375 3.1719" xmlns="http://www.w3.org/2000/svg" xmlns:xlink="http://www.w3.org/1999/xlink">
<defs>
<g id="a">
<path d="m7.3594-2.2969c0.125 0.85938 0.82812 1.3906 1.5625 1.3906 0.89062 0 1.5781-0.71875 1.5781-1.5938 0-0.89062-0.70312-1.5781-1.5625-1.5781-0.78125 0-1.4688 0.5625-1.5781 1.3906h-6.4531c-0.17188 0-0.34375 0-0.34375 0.1875 0 0.20312 0.17188 0.20312 0.34375 0.20312zm1.5781 0.98438c-0.6875 0-1.1875-0.54688-1.1875-1.1875 0-0.65625 0.53125-1.1719 1.1719-1.1719 0.67188 0 1.1875 0.54688 1.1875 1.1719 0 0.67188-0.54688 1.1875-1.1719 1.1875z"/>
</g>
</defs>
<g transform="translate(-149.27 -130.69)">
<use x="148.71201" y="134.765" xlink:href="#a"/>
</g>
</svg>
