<?xml version="1.0" encoding="UTF-8"?>
<svg fill="#000000" version="1.1" viewBox="0 0 7.5156 7.0226" xmlns="http://www.w3.org/2000/svg" xmlns:xlink="http://www.w3.org/1999/xlink">
<defs>
<g id="a">
<path d="m0.34375-6.8125v0.29688c0.21875 0 0.4375 0 0.67188 0.03125 0.10938 0.015625 0.23438 0.03125 0.29688 0.14062 0.078125 0.10938 0.046875 0.28125 0.046875 0.42188v5.0312c0 0.125 0.03125 0.28125-0.046875 0.40625-0.0625 0.10938-0.17188 0.125-0.29688 0.14062-0.23438 0.03125-0.45312 0.03125-0.67188 0.03125v0.29688h4.0156v-0.29688c-0.21875 0-0.4375 0-0.65625-0.03125-0.09375 0-0.20312-0.015625-0.28125-0.09375-0.09375-0.078125-0.09375-0.20312-0.09375-0.3125v-2.5625c0.21875 0 0.4375 0 0.65625 0.015625 0.45312 0.0625 0.92188 0.29688 1.1406 0.71875 0.125 0.25 0.125 0.53125 0.125 0.8125 0 0.26562-0.03125 0.54688 0.015625 0.8125 0.03125 0.21875 0.125 0.4375 0.26562 0.60938 0.078125 0.078125 0.14062 0.15625 0.21875 0.21875 0.14062 0.09375 0.29688 0.17188 0.45312 0.21875 0.20312 0.078125 0.42188 0.10938 0.625 0.10938 0.125 0 0.25 0 0.375-0.03125 0.29688-0.09375 0.48438-0.375 0.57812-0.65625 0.046875-0.125 0.078125-0.26562 0.078125-0.40625 0-0.0625-0.015625-0.125-0.078125-0.15625-0.0625-0.015625-0.14062 0-0.17188 0.0625v0.10938c-0.015625 0.0625-0.015625 0.10938-0.015625 0.17188-0.046875 0.1875-0.125 0.39062-0.28125 0.54688-0.20312 0.20312-0.54688 0.20312-0.73438-0.03125-0.20312-0.25-0.23438-0.625-0.28125-0.92188-0.046875-0.25-0.09375-0.48438-0.125-0.73438-0.03125-0.23438-0.0625-0.46875-0.17188-0.67188-0.14062-0.3125-0.40625-0.53125-0.70312-0.6875-0.15625-0.078125-0.35938-0.17188-0.54688-0.20312v-0.015625c0.20312-0.015625 0.40625-0.09375 0.57812-0.17188 0.09375-0.03125 0.1875-0.0625 0.28125-0.10938 0.53125-0.28125 1.0938-0.76562 1.0156-1.4375 0-0.10938-0.03125-0.20312-0.0625-0.29688-0.0625-0.14062-0.14062-0.28125-0.23438-0.39062-0.1875-0.25-0.4375-0.42188-0.70312-0.5625-0.51562-0.28125-1.1094-0.39062-1.7031-0.42188-0.26562-0.015625-0.54688 0-0.82812 0zm2.6719 0.29688v6.2031h-0.79688v-6.2031zm0.3125 2.9844v-2.625c0-0.078125 0-0.1875 0.0625-0.26562 0.03125-0.046875 0.10938-0.0625 0.17188-0.078125 0.10938-0.015625 0.21875-0.015625 0.32812 0 0.35938 0.015625 0.70312 0.078125 1.0312 0.23438 0.14062 0.078125 0.28125 0.17188 0.39062 0.29688 0.1875 0.23438 0.26562 0.48438 0.29688 0.76562 0.03125 0.40625-0.046875 0.84375-0.32812 1.1562-0.0625 0.0625-0.15625 0.125-0.23438 0.1875-0.51562 0.32812-1.125 0.32812-1.7188 0.32812z"/>
</g>
</defs>
<g transform="translate(-149.06 -127.95)">
<use x="148.71201" y="134.765" xlink:href="#a"/>
</g>
</svg>
