<?xml version="1.0" encoding="UTF-8"?>
<svg fill="#000000" version="1.1" viewBox="0 0 6.6423 6.6671" xmlns="http://www.w3.org/2000/svg" xmlns:xlink="http://www.w3.org/1999/xlink">
<defs>
<g id="a">
<path d="m3.6406-5.8281c-0.23438 0.03125-0.46875 0.0625-0.70312 0.10938-0.40625 0.125-0.79688 0.32812-1.125 0.57812-0.23438 0.20312-0.4375 0.42188-0.60938 0.65625-0.57812 0.79688-0.78125 1.8594-0.54688 2.8125 0.125 0.5 0.375 0.96875 0.70312 1.3594 0.5 0.60938 1.25 1 2.0312 1.1094 0.26562 0.046875 0.5 0.03125 0.76562 0.03125h2.8281c0.046875 0 0.10938 0.015625 0.15625-0.015625 0.0625-0.046875 0.0625-0.10938 0.0625-0.15625 0-0.09375 0-0.20312-0.10938-0.23438h-0.15625-2.625c-0.20312 0-0.40625 0.015625-0.60938 0-0.25-0.015625-0.5-0.046875-0.75-0.125-0.25-0.09375-0.5-0.21875-0.73438-0.35938-0.76562-0.53125-1.2188-1.4219-1.2656-2.3438 0-0.375 0.0625-0.75 0.1875-1.1094 0.078125-0.26562 0.21875-0.51562 0.39062-0.73438 0.14062-0.20312 0.3125-0.39062 0.5-0.53125 0.375-0.3125 0.8125-0.51562 1.2812-0.60938 0.3125-0.046875 0.64062-0.046875 0.9375-0.046875h2.7656c0.046875 0 0.10938 0.015625 0.14062-0.03125 0.046875-0.046875 0.046875-0.14062 0.046875-0.20312 0-0.03125 0-0.0625-0.015625-0.09375s-0.03125-0.046875-0.0625-0.0625c-0.0625-0.015625-0.14062 0-0.20312 0h-2.9219c-0.125 0-0.23438-0.015625-0.35938 0zm0.046875 1.5625c-0.25 0.03125-0.46875 0.09375-0.6875 0.21875-0.14062 0.078125-0.26562 0.17188-0.375 0.28125-0.59375 0.64062-0.67188 1.6406-0.15625 2.3438 0.26562 0.35938 0.67188 0.60938 1.125 0.67188 0.26562 0.03125 0.54688 0.015625 0.8125 0.015625h2.3594c0.03125 0 0.078125 0 0.10938-0.015625 0.046875-0.046875 0.046875-0.10938 0.046875-0.15625 0-0.078125 0.015625-0.20312-0.078125-0.21875-0.10938-0.03125-0.21875-0.015625-0.32812-0.015625h-2.1719c-0.28125 0-0.59375 0.03125-0.875-0.046875-0.125-0.03125-0.25-0.09375-0.35938-0.17188-0.54688-0.39062-0.73438-1.1406-0.45312-1.7344 0.046875-0.10938 0.10938-0.21875 0.1875-0.3125 0.09375-0.09375 0.17188-0.17188 0.26562-0.23438 0.15625-0.10938 0.32812-0.17188 0.51562-0.20312 0.125-0.03125 0.25-0.03125 0.375-0.03125h2.5938c0.078125 0 0.20312 0.03125 0.28125-0.015625 0.046875-0.03125 0.046875-0.09375 0.046875-0.14062 0-0.09375 0.015625-0.21875-0.10938-0.23438-0.0625-0.015625-0.14062 0-0.20312 0h-2.4531c-0.15625 0-0.3125-0.015625-0.46875 0z"/>
</g>
</defs>
<g transform="translate(-149.27 -128.93)">
<use x="148.71201" y="134.765" xlink:href="#a"/>
</g>
</svg>
