<?xml version="1.0" encoding="UTF-8"?>
<svg fill="#000000" version="1.1" viewBox="0 0 3.7403 7.1389" xmlns="http://www.w3.org/2000/svg" xmlns:xlink="http://www.w3.org/1999/xlink">
<defs>
<g id="a">
<path d="m2.1562-7.0312c-0.6875 0.078125-1.0938 0.73438-1.3438 1.3125-0.34375 0.8125-0.4375 1.7188-0.39062 2.5938 0.03125 0.57812 0.10938 1.1719 0.32812 1.7344 0.03125 0.10938 0.09375 0.21875 0.14062 0.3125 0.25 0.51562 0.60938 1.0781 1.2344 1.1719 0.09375 0 0.17188 0.015625 0.25 0 0.70312-0.0625 1.1094-0.73438 1.3594-1.3125 0.34375-0.8125 0.45312-1.7188 0.40625-2.5938-0.03125-0.59375-0.125-1.1875-0.32812-1.7344l-0.14062-0.32812c-0.26562-0.51562-0.625-1.0625-1.25-1.1562-0.078125 0-0.17188-0.015625-0.26562 0zm-0.90625 3.4062c0-0.82812 0.015625-1.6875 0.32812-2.4688 0.10938-0.3125 0.32812-0.71875 0.70312-0.71875s0.57812 0.40625 0.70312 0.71875c0.3125 0.78125 0.32812 1.6406 0.32812 2.4688zm0 0.3125h2.0625c0 0.82812-0.015625 1.6875-0.32812 2.4688-0.125 0.3125-0.32812 0.71875-0.70312 0.71875s-0.59375-0.40625-0.70312-0.71875c-0.3125-0.78125-0.32812-1.6406-0.32812-2.4688z"/>
</g>
</defs>
<g transform="translate(-149.12 -127.73)">
<use x="148.71201" y="134.765" xlink:href="#a"/>
</g>
</svg>
