<?xml version="1.0" encoding="UTF-8"?>
<svg fill="#000000" version="1.1" viewBox="0 0 8.8526 6.6482" xmlns="http://www.w3.org/2000/svg" xmlns:xlink="http://www.w3.org/1999/xlink">
<defs>
<g id="a">
<path d="m5.9062-2.7031h-3.875c0.15625-0.17188 0.29688-0.34375 0.45312-0.51562 0.078125-0.09375 0.14062-0.1875 0.23438-0.29688 0.046875-0.078125 0.125-0.15625 0.1875-0.25 0.03125-0.03125 0.0625-0.078125 0.078125-0.125 0.03125-0.14062-0.15625-0.14062-0.25-0.14062-0.03125 0-0.0625 0-0.09375 0.03125-0.0625 0.03125-0.125 0.09375-0.17188 0.14062-0.09375 0.078125-0.20312 0.17188-0.29688 0.25-0.3125 0.25-0.64062 0.48438-0.98438 0.6875-0.15625 0.09375-0.3125 0.1875-0.48438 0.26562-0.0625 0.03125-0.14062 0.078125-0.14062 0.15625s0.078125 0.125 0.14062 0.14062c0.17188 0.09375 0.32812 0.17188 0.48438 0.28125 0.34375 0.1875 0.67188 0.4375 0.98438 0.6875 0.09375 0.078125 0.20312 0.17188 0.29688 0.25 0.046875 0.046875 0.10938 0.10938 0.17188 0.14062 0.03125 0.015625 0.0625 0.015625 0.09375 0.015625 0.09375 0 0.28125 0.015625 0.25-0.125-0.015625-0.046875-0.046875-0.09375-0.078125-0.14062-0.0625-0.078125-0.14062-0.17188-0.1875-0.25-0.09375-0.09375-0.15625-0.1875-0.23438-0.28125-0.15625-0.1875-0.29688-0.35938-0.45312-0.51562h3.875v1.0156c0 0.25 0 0.5 0.046875 0.75 0.0625 0.26562 0.1875 0.51562 0.35938 0.71875 0.15625 0.1875 0.35938 0.34375 0.57812 0.45312 0.20312 0.09375 0.42188 0.15625 0.64062 0.17188 0.1875 0.015625 0.39062 0 0.5625-0.046875 0.1875-0.046875 0.35938-0.125 0.51562-0.23438 0.14062-0.078125 0.25-0.17188 0.35938-0.28125 0.46875-0.53125 0.57812-1.2969 0.28125-1.9375-0.09375-0.20312-0.23438-0.39062-0.39062-0.5625-0.23438-0.1875-0.51562-0.34375-0.8125-0.40625-0.23438-0.0625-0.48438-0.046875-0.71875-0.046875h-1.0156v-2.9219c0-0.09375 0-0.17188-0.10938-0.20312-0.0625 0-0.20312-0.015625-0.25 0.046875-0.046875 0.046875-0.046875 0.125-0.046875 0.1875zm0.40625 0.40625h0.95312c0.20312 0 0.40625-0.015625 0.59375 0 0.20312 0.03125 0.42188 0.125 0.57812 0.25 0.17188 0.10938 0.29688 0.26562 0.39062 0.4375 0.39062 0.65625 0.125 1.5625-0.57812 1.9062-0.1875 0.078125-0.40625 0.125-0.60938 0.125-0.17188 0-0.35938-0.046875-0.51562-0.10938-0.17188-0.078125-0.3125-0.1875-0.4375-0.3125-0.17188-0.17188-0.28125-0.40625-0.34375-0.64062-0.046875-0.21875-0.03125-0.45312-0.03125-0.67188z"/>
</g>
</defs>
<g transform="translate(-149.27 -128.94)">
<use x="148.71201" y="134.765" xlink:href="#a"/>
</g>
</svg>
