<?xml version="1.0" encoding="UTF-8"?>
<svg fill="#000000" version="1.1" viewBox="0 0 5.1406 5.125" xmlns="http://www.w3.org/2000/svg" xmlns:xlink="http://www.w3.org/1999/xlink">
<defs>
<g id="a">
<path d="m1.2969-4.2031c0 0.0625 0.015625 0.10938 0.0625 0.17188l3.3125 3.2969c0.046875 0.046875 0.10938 0.0625 0.15625 0.0625 0.125 0 0.23438-0.078125 0.23438-0.21875 0-0.0625-0.015625-0.10938-0.0625-0.17188l-3.3125-3.2969c-0.046875-0.046875-0.10938-0.0625-0.15625-0.0625-0.125 0-0.23438 0.078125-0.23438 0.21875zm4.4531 4v-4.6875c0-0.125-0.09375-0.21875-0.23438-0.21875h-4.6719c-0.14062 0-0.23438 0.09375-0.23438 0.21875v4.6875c0 0.125 0.09375 0.21875 0.23438 0.21875h4.6719c0.14062 0 0.23438-0.09375 0.23438-0.21875zm-0.45312-4.4531v4.2188h-4.2344v-4.2188z"/>
</g>
</defs>
<g transform="translate(-149.32 -129.66)">
<use x="148.71201" y="134.765" xlink:href="#a"/>
</g>
</svg>
