<?xml version="1.0" encoding="UTF-8"?>
<svg fill="#000000" width="6.0156" height="6.9088" version="1.1" viewBox="0 0 6.0156 6.9087" xmlns="http://www.w3.org/2000/svg" xmlns:xlink="http://www.w3.org/1999/xlink">
<defs>
<g id="a">
<path d="m0.3125-6.9219v0.29688c0.17188 0 0.32812 0 0.5 0.03125 0.09375 0 0.1875 0.046875 0.25 0.14062 0.0625 0.14062 0.03125 0.32812 0.03125 0.46875v5.0469c0 0.14062 0.03125 0.3125-0.03125 0.4375-0.046875 0.10938-0.14062 0.14062-0.25 0.15625-0.17188 0.03125-0.32812 0.03125-0.5 0.03125v0.29688h3.3594v-0.29688c-0.15625 0-0.3125 0-0.46875-0.03125-0.09375 0-0.1875-0.03125-0.23438-0.09375-0.078125-0.09375-0.0625-0.23438-0.0625-0.34375v-1.5156c0-0.20312-0.015625-0.39062 0.015625-0.57812 0.046875-0.39062 0.20312-0.75 0.5-1.0156 0.09375-0.09375 0.21875-0.17188 0.34375-0.21875 0.125-0.0625 0.28125-0.09375 0.4375-0.09375 0.046875 0 0.10938 0.015625 0.17188 0.03125 0.40625 0.125 0.45312 0.57812 0.48438 0.9375v0.6875 1.8281c0 0.09375 0 0.20312-0.078125 0.29688-0.0625 0.046875-0.14062 0.078125-0.23438 0.078125-0.15625 0.03125-0.3125 0.03125-0.46875 0.03125v0.29688h2.25v-0.29688c-0.15625 0-0.32812 0-0.48438-0.03125-0.125-0.015625-0.23438-0.0625-0.28125-0.20312-0.015625-0.09375-0.015625-0.1875-0.015625-0.29688v-1.9688c0-0.35938 0.015625-0.71875-0.15625-1.0625-0.1875-0.34375-0.5625-0.5-0.9375-0.53125-0.14062-0.015625-0.28125-0.015625-0.42188 0-0.35938 0.0625-0.67188 0.25-0.90625 0.51562-0.078125 0.10938-0.17188 0.21875-0.21875 0.35938-0.015625-0.10938 0-0.20312 0-0.3125v-2.8125c0-0.0625 0.015625-0.1875-0.046875-0.23438-0.03125-0.046875-0.125-0.03125-0.1875-0.03125zm2.2812 0.29688v6.3125h-0.79688v-6.3125z"/>
</g>
</defs>
<g transform="translate(-149.02 -127.84)">
<use x="148.71201" y="134.765" xlink:href="#a"/>
</g>
</svg>
