<?xml version="1.0" encoding="UTF-8"?>
<svg fill="#000000" version="1.1" viewBox="0 0 4.5781 4.5625" xmlns="http://www.w3.org/2000/svg" xmlns:xlink="http://www.w3.org/1999/xlink">
<defs>
<g id="a">
<path d="m4.7344-4.8281c-0.3125 0-0.53125 0.25-0.53125 0.54688s0.25 0.53125 0.53125 0.53125c0.3125 0 0.54688-0.25 0.54688-0.53125 0-0.32812-0.25-0.54688-0.54688-0.54688zm-3.4844 0c-0.3125 0-0.54688 0.25-0.54688 0.54688s0.25 0.53125 0.54688 0.53125c0.3125 0 0.53125-0.25 0.53125-0.53125 0-0.32812-0.25-0.54688-0.53125-0.54688zm0 3.5c-0.3125 0-0.54688 0.23438-0.54688 0.53125 0 0.3125 0.25 0.53125 0.54688 0.53125 0.3125 0 0.53125-0.25 0.53125-0.53125 0-0.3125-0.25-0.53125-0.53125-0.53125zm3.4844 0c-0.3125 0-0.53125 0.23438-0.53125 0.53125 0 0.3125 0.25 0.53125 0.53125 0.53125 0.3125 0 0.54688-0.25 0.54688-0.53125 0-0.3125-0.25-0.53125-0.54688-0.53125z"/>
</g>
</defs>
<g transform="translate(-149.42 -129.94)">
<use x="148.71201" y="134.765" xlink:href="#a"/>
</g>
</svg>
