<?xml version="1.0" encoding="UTF-8"?>
<svg fill="#000000" version="1.1" viewBox="0 0 4.3125 8.625" xmlns="http://www.w3.org/2000/svg" xmlns:xlink="http://www.w3.org/1999/xlink">
<defs>
<g id="a">
<path d="m1.75 1.6562 0.42188-1.5938h2.4688c0.14062 0 0.23438-0.10938 0.23438-0.23438s-0.09375-0.23438-0.23438-0.23438h-2.3438l0.46875-1.7656c0.28125 0.25 0.5625 0.46875 0.95312 0.46875 0.92188 0 1.1562-1.1562 1.1562-1.3906 0-0.15625-0.0625-0.28125-0.23438-0.28125-0.10938 0-0.21875 0.09375-0.21875 0.21875-0.03125 0.375-0.25 1-0.70312 1-0.29688 0-0.54688-0.25-0.8125-0.53125l0.25-0.96875c0.17188 0.10938 0.35938 0.17188 0.5625 0.17188 0.92188 0 1.1562-1.1562 1.1562-1.3906 0-0.15625-0.0625-0.28125-0.23438-0.28125-0.10938 0-0.21875 0.09375-0.21875 0.21875-0.03125 0.375-0.25 0.98438-0.70312 0.98438-0.15625 0-0.29688-0.046875-0.42188-0.15625l0.6875-2.5625c0.015625-0.09375-0.046875-0.1875-0.15625-0.1875-0.0625 0-0.125 0.046875-0.14062 0.10938l-0.64062 2.4219c-0.375-0.35938-0.76562-0.84375-1.3438-0.84375-0.92188 0-1.1406 1.1406-1.1406 1.3906 0 0.125 0.046875 0.26562 0.21875 0.26562 0.10938 0 0.21875-0.078125 0.23438-0.20312 0.03125-0.375 0.23438-1 0.6875-1 0.4375 0 0.76562 0.51562 1.2031 0.89062l-0.25 0.90625c-0.26562-0.25-0.5625-0.46875-0.95312-0.46875-0.92188 0-1.1406 1.1406-1.1406 1.3906 0 0.125 0.046875 0.28125 0.21875 0.28125 0.10938 0 0.21875-0.09375 0.23438-0.21875 0.03125-0.375 0.23438-1 0.6875-1 0.29688 0 0.54688 0.25 0.8125 0.53125l-0.53125 2h-1.2031c-0.125 0-0.21875 0.10938-0.21875 0.23438s0.09375 0.23438 0.21875 0.23438h1.0781l-0.40625 1.5156c-0.015625 0.09375 0.046875 0.1875 0.15625 0.1875 0.0625 0 0.10938-0.046875 0.14062-0.10938z"/>
</g>
</defs>
<g transform="translate(-149.27 -127.91)">
<use x="148.71201" y="134.765" xlink:href="#a"/>
</g>
</svg>
