<?xml version="1.0" encoding="UTF-8"?>
<svg fill="#000000" version="1.1" viewBox="0 0 6.7243 6.4103" xmlns="http://www.w3.org/2000/svg" xmlns:xlink="http://www.w3.org/1999/xlink">
<defs>
<g id="a">
<path d="m3.0938-3.5625c-0.078125-0.015625-0.15625-0.015625-0.23438-0.015625l-0.5-0.015625c-0.42188-0.03125-0.82812-0.0625-1.2344-0.0625-0.14062 0-0.29688-0.015625-0.45312-0.015625-0.046875 0-0.14062 0.015625-0.15625 0.078125-0.015625 0.078125 0.046875 0.125 0.09375 0.17188l0.375 0.23438 1.0625 0.71875c0.20312 0.125 0.375 0.28125 0.57812 0.375-0.09375 0.20312-0.15625 0.40625-0.23438 0.625-0.15625 0.40625-0.3125 0.84375-0.46875 1.2656-0.03125 0.09375-0.0625 0.1875-0.10938 0.28125-0.015625 0.046875-0.03125 0.10938-0.046875 0.17188s0.03125 0.14062 0.10938 0.125c0.0625 0 0.10938-0.046875 0.15625-0.078125l0.28125-0.23438c0.375-0.29688 0.73438-0.57812 1.1094-0.875l0.3125-0.25c0.046875-0.03125 0.09375-0.09375 0.14062-0.09375s0.10938 0.0625 0.14062 0.09375l0.32812 0.25c0.35938 0.29688 0.73438 0.57812 1.0938 0.875l0.28125 0.23438c0.046875 0.03125 0.10938 0.078125 0.15625 0.078125 0.09375 0.015625 0.125-0.0625 0.10938-0.125 0-0.0625-0.03125-0.125-0.046875-0.1875-0.03125-0.078125-0.078125-0.1875-0.10938-0.26562-0.15625-0.42188-0.3125-0.85938-0.46875-1.2656-0.0625-0.21875-0.14062-0.42188-0.21875-0.625 0.1875-0.10938 0.375-0.25 0.57812-0.375l1.0625-0.71875c0.125-0.078125 0.25-0.15625 0.375-0.25 0.046875-0.03125 0.09375-0.09375 0.078125-0.15625-0.03125-0.078125-0.10938-0.078125-0.17188-0.078125-0.14062 0-0.29688 0.015625-0.4375 0.015625-0.42188 0-0.8125 0.03125-1.2188 0.0625l-0.51562 0.015625c-0.078125 0-0.15625 0-0.23438 0.015625-0.046875-0.25-0.125-0.48438-0.1875-0.71875-0.125-0.39062-0.23438-0.79688-0.34375-1.1875-0.03125-0.15625-0.078125-0.29688-0.125-0.4375-0.015625-0.0625-0.046875-0.14062-0.125-0.125-0.0625 0-0.09375 0.0625-0.10938 0.125-0.0625 0.14062-0.09375 0.28125-0.14062 0.4375-0.10938 0.39062-0.21875 0.79688-0.32812 1.1875-0.0625 0.23438-0.15625 0.46875-0.20312 0.71875z"/>
</g>
</defs>
<g transform="translate(-149.23 -128.73)">
<use x="148.71201" y="134.765" xlink:href="#a"/>
</g>
</svg>
