<?xml version="1.0" encoding="UTF-8"?>
<svg fill="#000000" version="1.1" viewBox="0 0 5.375 6.625" xmlns="http://www.w3.org/2000/svg" xmlns:xlink="http://www.w3.org/1999/xlink">
<defs>
<g id="a">
<path d="m4.8281-4.6406-0.76562 0.3125c0.03125 0.5625 0.046875 1.1406 0.046875 1.7188 0 0.20312-0.015625 0.9375-0.03125 1.4062-0.35938 0.39062-0.92188 0.64062-1.2812 0.64062-0.84375 0-0.92188-0.73438-0.92188-1.2969v-2.6719l-0.09375-0.078125-0.82812 0.26562c0.046875 0.23438 0.17188 1.0781 0.17188 1.625v1.8906c0 0.92188-0.015625 1.8281-0.03125 2.75l0.10938 0.0625 0.53125-0.20312c-0.125-0.625-0.1875-1.375-0.1875-2.0312l0.0625-0.015625c0.17188 0.20312 0.29688 0.29688 0.60938 0.29688 0.5 0 1.25-0.4375 1.8281-0.76562l0.078125 0.0625c0.0625 0.40625 0.17188 0.6875 0.6875 0.6875 0.54688 0 1.1094-0.46875 1.5156-0.84375l-0.078125-0.14062-0.10938-0.015625c-0.23438 0.14062-0.53125 0.32812-0.76562 0.32812-0.46875 0-0.51562-0.65625-0.51562-0.98438v-1.6719c0-0.3125 0.03125-0.8125 0.0625-1.2188z"/>
</g>
</defs>
<g transform="translate(-149.67 -130.12)">
<use x="148.71201" y="134.765" xlink:href="#a"/>
</g>
</svg>
