<?xml version="1.0" encoding="UTF-8"?>
<svg fill="#000000" version="1.1" viewBox="0 0 4.7969 9.4219" xmlns="http://www.w3.org/2000/svg" xmlns:xlink="http://www.w3.org/1999/xlink">
<defs>
<g id="a">
<path d="m4.25-7.4531-0.65625 2.5156c-0.84375-0.28125-1.625-0.76562-2.2344-1.4219l-0.46875 0.4375c0.6875 0.73438 1.5469 1.2812 2.4844 1.5781-0.9375 0.3125-1.7969 0.85938-2.4844 1.5938l0.46875 0.42188c0.53125-0.5625 1.1562-0.98438 1.8594-1.2812l-0.53125 2.0312h-1.7969v0.64062h1.625l-0.35938 1.2812h-1.2656v0.64062h1.1094l-0.21875 0.82812 0.54688 0.15625 0.26562-0.98438h3.0938v-0.64062h-2.9219l0.34375-1.2812h2.5781v-0.64062h-2.4062l0.59375-2.25c0.48438-0.125 0.98438-0.20312 1.4844-0.20312h0.32812v-0.64062h-0.32812c-0.42188 0-0.82812-0.03125-1.2188-0.125l0.67188-2.5z"/>
</g>
</defs>
<g transform="translate(-149.6 -127.31)">
<use x="148.71201" y="134.765" xlink:href="#a"/>
</g>
</svg>
