<?xml version="1.0" encoding="UTF-8"?>
<svg fill="#000000" version="1.1" viewBox="0 0 5.8906 12.672" xmlns="http://www.w3.org/2000/svg" xmlns:xlink="http://www.w3.org/1999/xlink">
<defs>
<g id="a">
<path d="m6.4844-6.2969c0.14062-0.046875 0.23438-0.10938 0.23438-0.23438 0-0.14062-0.10938-0.17188-0.20312-0.21875l-5.3125-2.0156c-0.14062-0.0625-0.15625-0.0625-0.17188-0.0625-0.10938 0-0.20312 0.078125-0.20312 0.1875 0 0.14062 0.10938 0.1875 0.20312 0.23438l4.9375 1.875-4.9062 1.875c-0.15625 0.0625-0.23438 0.10938-0.23438 0.23438 0 0.10938 0.09375 0.1875 0.20312 0.1875 0.03125 0 0.046875 0 0.1875-0.046875zm0 5.9688c0.14062-0.046875 0.23438-0.09375 0.23438-0.23438 0-0.10938-0.09375-0.1875-0.20312-0.1875-0.015625 0-0.03125 0-0.17188 0.046875l-5.2812 2.0156c-0.125 0.046875-0.23438 0.09375-0.23438 0.23438s0.10938 0.17188 0.20312 0.21875l5.2969 2.0156c0.14062 0.0625 0.15625 0.0625 0.1875 0.0625 0.10938 0 0.20312-0.078125 0.20312-0.1875 0-0.14062-0.125-0.1875-0.20312-0.23438l-4.9375-1.875zm-0.10938-1.9688c0.17188 0 0.34375 0 0.34375-0.20312 0-0.1875-0.1875-0.1875-0.35938-0.1875h-5.1719c-0.17188 0-0.35938 0-0.35938 0.1875 0 0.20312 0.17188 0.20312 0.34375 0.20312z"/>
</g>
</defs>
<g transform="translate(-149.54 -125.94)">
<use x="148.71201" y="134.765" xlink:href="#a"/>
</g>
</svg>
