<?xml version="1.0" encoding="UTF-8"?>
<svg fill="#000000" version="1.1" viewBox="0 0 6.9375 7.1094" xmlns="http://www.w3.org/2000/svg" xmlns:xlink="http://www.w3.org/1999/xlink">
<defs>
<g id="a">
<path d="m2.0781-3.4844v1.0781h0.26562v-0.64062c0-0.14062 0.15625-0.15625 0.25-0.15625 0.45312-0.03125 0.96875-0.046875 1.3594-0.046875 0.35938 0 0.6875 0.046875 1.0469 0.046875 0.21875 0 0.1875 0.40625 0.1875 0.625 0 0.0625-0.015625 0.09375-0.015625 0.14062l0.29688 0.015625v-2.1406h-0.28125l0.03125 0.51562c0 0.3125-0.82812 0.21875-1.2188 0.21875-0.53125 0-1.6719 0.046875-1.6719-0.15625 0-0.1875-0.03125-0.375-0.03125-0.57812h-0.25zm1.2656 3.6094c1.9531 0 3.8906-0.82812 3.8906-3.9219 0-0.875-0.20312-1.7969-0.82812-2.4219-0.5625-0.5625-1.4062-0.76562-2.1875-0.76562-1.5156 0-2.9062 0.57812-3.4844 1.5781-0.42188 0.73438-0.4375 1.1562-0.4375 2.1094 0 0.98438 0.25 2 0.95312 2.7031 0.54688 0.54688 1.3438 0.71875 2.0938 0.71875zm0.4375-0.4375c-1.8281 0-2.5625-1.6562-2.5625-3.125 0-1.5938 0.53125-3.1719 2.4531-3.1719 0.6875 0 1.375 0.17188 1.8594 0.67188 0.5625 0.5625 0.76562 1.375 0.76562 2.1719 0 0.92188-0.0625 2.0938-0.64062 2.6875-0.5 0.5-1.0312 0.76562-1.875 0.76562z"/>
</g>
</defs>
<g transform="translate(-149.01 -127.78)">
<use x="148.71201" y="134.765" xlink:href="#a"/>
</g>
</svg>
