<?xml version="1.0" encoding="UTF-8"?>
<svg fill="#000000" width="7.8438" height="7.8438" version="1.1" viewBox="0 0 7.8438 7.8437" xmlns="http://www.w3.org/2000/svg" xmlns:xlink="http://www.w3.org/1999/xlink">
<defs>
<g id="a">
<path d="m1.4219-4.2344c0 0.09375 0.046875 0.17188 0.14062 0.21875l2.2656 0.89062-1.3125 2.0625c-0.015625 0.03125-0.015625 0.078125-0.015625 0.125 0 0.14062 0.10938 0.23438 0.21875 0.23438 0.0625 0 0.125-0.03125 0.17188-0.09375l1.5625-1.875 1.5469 1.875c0.046875 0.0625 0.10938 0.09375 0.1875 0.09375 0.10938 0 0.21875-0.09375 0.21875-0.23438 0-0.046875 0-0.09375-0.03125-0.125l-1.2969-2.0625 2.2656-0.89062c0.078125-0.046875 0.14062-0.125 0.14062-0.21875 0-0.10938-0.09375-0.23438-0.23438-0.23438-0.015625 0-0.03125 0.015625-0.046875 0.015625l-2.375 0.60938-0.15625-2.4375c0-0.125-0.09375-0.21875-0.21875-0.21875s-0.21875 0.09375-0.23438 0.21875l-0.15625 2.4375-2.3594-0.60938c-0.015625 0-0.03125-0.015625-0.0625-0.015625-0.14062 0-0.21875 0.125-0.21875 0.23438zm3.0312 4.2188c-1.8906 0-3.3125-1.5469-3.3125-3.2969 0-1.9062 1.5469-3.3281 3.3125-3.3281 1.8906 0 3.3125 1.5469 3.3125 3.3281 0 1.875-1.5469 3.2969-3.3125 3.2969zm3.9219-3.2969c0-2.2344-1.8125-3.9375-3.9219-3.9375-2.2344 0-3.9219 1.8125-3.9219 3.9375 0 2.2188 1.8125 3.9062 3.9219 3.9062 2.2188 0 3.9219-1.8125 3.9219-3.9062z"/>
</g>
</defs>
<g transform="translate(-149.24 -128.29)">
<use x="148.71201" y="135.53999" xlink:href="#a"/>
</g>
</svg>
