<?xml version="1.0" encoding="UTF-8"?>
<svg fill="#000000" version="1.1" viewBox="0 0 4.1562 6.4375" xmlns="http://www.w3.org/2000/svg" xmlns:xlink="http://www.w3.org/1999/xlink">
<defs>
<g id="a">
<path d="m4-1.0938c0.26562-0.65625 0.28125-1.2812 0.28125-2.1719 0-0.51562-0.015625-1.0938-0.03125-1.2656-0.82812-0.6875-1.8438-1.4531-2.75-1.5625-0.4375 0.20312-0.9375 0.4375-1.375 0.6875l0.14062 0.15625 0.45312-0.1875h0.23438c0.875 0 1.7812 0.79688 2.4062 1.4531 0.078125 0.45312 0.125 0.89062 0.125 1.3281 0 0.71875-0.10938 1.4531-0.5 2.0625-0.046875 0.078125-0.10938 0.10938-0.15625 0.10938-0.17188 0-0.60938-0.3125-0.79688-0.45312-0.15625-0.125-0.3125-0.25-0.45312-0.40625-0.015625-0.35938-0.0625-0.79688-0.0625-1.1875 0-0.35938 0.046875-0.6875 0.125-0.92188 0.078125-0.20312 0.1875-0.46875 0.65625-0.96875l-0.1875-0.03125c-0.4375 0.28125-0.90625 0.71875-1.3281 1.1094-0.03125 0.76562-0.046875 1.25-0.046875 1.6875 0 0.28125 0 0.54688 0.015625 0.84375 0.39062 0.46875 0.89062 0.8125 1.3906 1.1562z"/>
</g>
</defs>
<g transform="translate(-148.84 -128.67)">
<use x="148.71201" y="134.765" xlink:href="#a"/>
</g>
</svg>
