<?xml version="1.0" encoding="UTF-8"?>
<svg fill="#000000" version="1.1" viewBox="0 0 7.875 8.3125" xmlns="http://www.w3.org/2000/svg" xmlns:xlink="http://www.w3.org/1999/xlink">
<defs>
<g id="a">
<path d="m4.7188-2.7656 0.34375-1.3281 2.6875 1.5469-3.5156 2.0312c-0.078125 0.03125-0.125 0.10938-0.125 0.20312 0 0.125 0.125 0.21875 0.23438 0.21875 0.046875 0 0.078125 0 0.125-0.03125l3.8594-2.2344c0.078125-0.03125 0.10938-0.10938 0.10938-0.1875s-0.03125-0.15625-0.10938-0.1875l-3.1406-1.8281 0.53125-1.9531c0.015625-0.09375-0.03125-0.1875-0.14062-0.1875-0.078125 0-0.14062 0.046875-0.14062 0.10938l-0.51562 1.8906-0.45312-0.26562c-0.046875-0.03125-0.078125-0.03125-0.125-0.03125-0.10938 0-0.23438 0.09375-0.23438 0.21875 0 0.09375 0.046875 0.17188 0.125 0.20312l0.57812 0.32812-0.35938 1.3125-3.5625-2.0312c-0.015625-0.03125-0.0625-0.03125-0.10938-0.03125-0.10938 0-0.21875 0.09375-0.21875 0.21875 0 0.09375 0.03125 0.17188 0.10938 0.20312l3.5156 2.0312-3.5156 2.0312c-0.078125 0.03125-0.10938 0.10938-0.10938 0.20312 0 0.125 0.10938 0.21875 0.21875 0.21875 0.046875 0 0.09375 0 0.10938-0.03125l3.3125-1.9062-0.92188 3.4531c-0.015625 0.09375 0.03125 0.1875 0.14062 0.1875 0.0625 0 0.125-0.046875 0.14062-0.10938l1-3.7344 0.20312-0.125c0.0625-0.03125 0.10938-0.10938 0.10938-0.1875 0-0.14062-0.09375-0.1875-0.15625-0.21875z"/>
</g>
</defs>
<g transform="translate(-149.27 -128.06)">
<use x="148.71201" y="134.765" xlink:href="#a"/>
</g>
</svg>
