<?xml version="1.0" encoding="UTF-8"?>
<svg fill="#000000" version="1.1" viewBox="0 0 6.0938 9.6406" xmlns="http://www.w3.org/2000/svg" xmlns:xlink="http://www.w3.org/1999/xlink">
<defs>
<g id="a">
<path d="m3.9219-2.1406c-1.6094 0-2.7031-1.1719-2.7031-2.4688 0-1.3594 1.1406-2.5 2.6875-2.5h2.6562c0.17188 0 0.35938 0 0.35938-0.20312 0-0.1875-0.1875-0.1875-0.35938-0.1875h-2.6875c-1.6719 0-3.0469 1.2656-3.0469 2.875 0 1.625 1.375 2.8906 3.0625 2.8906h2.6719c0.17188 0 0.35938 0 0.35938-0.20312s-0.1875-0.20312-0.35938-0.20312zm-2.75 3.875c-0.17188 0-0.34375 0-0.34375 0.20312s0.17188 0.20312 0.34375 0.20312h5.3906c0.17188 0 0.35938 0 0.35938-0.20312s-0.1875-0.20312-0.35938-0.20312zm0-1.9375c-0.17188 0-0.34375 0-0.34375 0.20312s0.17188 0.20312 0.34375 0.20312h5.3906c0.17188 0 0.35938 0 0.35938-0.20312s-0.1875-0.20312-0.35938-0.20312z"/>
</g>
</defs>
<g transform="translate(-149.54 -127.26)">
<use x="148.71201" y="134.765" xlink:href="#a"/>
</g>
</svg>
