<?xml version="1.0" encoding="UTF-8"?>
<svg fill="#000000" version="1.1" viewBox="0 0 5.0312 5.2344" xmlns="http://www.w3.org/2000/svg" xmlns:xlink="http://www.w3.org/1999/xlink">
<defs>
<g id="a">
<path d="m3.375-4.5781c0-0.29688-0.26562-0.5625-0.54688-0.5625-0.3125 0-0.5625 0.25-0.5625 0.5625 0 0.29688 0.23438 0.54688 0.54688 0.54688 0.29688 0 0.5625-0.25 0.5625-0.54688zm1.9531 2.3906v-0.65625h-5.0312v0.65625zm-1.9531 1.75c0-0.29688-0.26562-0.5625-0.54688-0.5625-0.3125 0-0.5625 0.25-0.5625 0.54688 0 0.3125 0.23438 0.54688 0.54688 0.54688 0.29688 0 0.5625-0.25 0.5625-0.53125z"/>
</g>
</defs>
<g transform="translate(-149.01 -129.62)">
<use x="148.71201" y="134.765" xlink:href="#a"/>
</g>
</svg>
