<?xml version="1.0" encoding="UTF-8"?>
<svg fill="#000000" version="1.1" viewBox="0 0 6.0938 14.609" xmlns="http://www.w3.org/2000/svg" xmlns:xlink="http://www.w3.org/1999/xlink">
<defs>
<g id="a">
<path d="m6.6719-9.5625c0.125-0.046875 0.25-0.09375 0.25-0.23438 0-0.10938-0.09375-0.20312-0.20312-0.20312-0.015625 0-0.046875 0-0.1875 0.0625l-5.4688 2.0156c-0.1875 0.0625-0.23438 0.125-0.23438 0.21875 0 0.14062 0.10938 0.1875 0.20312 0.21875l5.5156 2.0312c0.125 0.0625 0.15625 0.0625 0.17188 0.0625 0.0625 0 0.20312-0.0625 0.20312-0.20312s-0.10938-0.17188-0.21875-0.21875l-5.0938-1.8906zm-5.6094 13.75c-0.10938 0.046875-0.23438 0.09375-0.23438 0.23438 0 0.10938 0.09375 0.1875 0.20312 0.1875 0.015625 0 0.03125 0 0.1875-0.046875l5.4688-2.0156c0.1875-0.078125 0.23438-0.14062 0.23438-0.23438 0-0.125-0.09375-0.17188-0.21875-0.21875l-5.5-2.0312c-0.14062-0.046875-0.15625-0.046875-0.17188-0.046875-0.078125 0-0.20312 0.046875-0.20312 0.1875s0.10938 0.1875 0.20312 0.21875l5.1094 1.8906zm0.10938-6.1094c-0.17188 0-0.34375 0-0.34375 0.20312 0 0.1875 0.17188 0.1875 0.34375 0.1875h5.3906c0.17188 0 0.35938 0 0.35938-0.1875 0-0.20312-0.1875-0.20312-0.35938-0.20312zm0-1.9375c-0.17188 0-0.34375 0-0.34375 0.20312s0.17188 0.20312 0.34375 0.20312h5.3906c0.17188 0 0.35938 0 0.35938-0.20312s-0.1875-0.20312-0.35938-0.20312z"/>
</g>
</defs>
<g transform="translate(-149.54 -124.76)">
<use x="148.71201" y="134.765" xlink:href="#a"/>
</g>
</svg>
