<?xml version="1.0" encoding="UTF-8"?>
<svg fill="#000000" version="1.1" viewBox="0 0 2.625 4.5156" xmlns="http://www.w3.org/2000/svg" xmlns:xlink="http://www.w3.org/1999/xlink">
<defs>
<g id="a">
<path d="m2.0781-2.4844c0.10938-0.28125 0.10938-0.3125 0.21875-0.57812 0.078125-0.20312 0.125-0.34375 0.125-0.53125 0-0.4375-0.3125-0.8125-0.8125-0.8125-0.9375 0-1.3125 1.4531-1.3125 1.5312 0 0.10938 0.09375 0.10938 0.10938 0.10938 0.10938 0 0.10938-0.03125 0.15625-0.1875 0.28125-0.9375 0.67188-1.2344 1.0156-1.2344 0.078125 0 0.25 0 0.25 0.3125 0 0.21875-0.078125 0.42188-0.10938 0.53125-0.078125 0.25-0.53125 1.4062-0.6875 1.8438-0.10938 0.25-0.23438 0.57812-0.23438 0.79688 0 0.46875 0.34375 0.8125 0.8125 0.8125 0.9375 0 1.3125-1.4375 1.3125-1.5312 0-0.10938-0.09375-0.10938-0.125-0.10938-0.09375 0-0.09375 0.03125-0.14062 0.1875-0.1875 0.625-0.51562 1.2344-1.0156 1.2344-0.17188 0-0.25-0.09375-0.25-0.32812 0-0.25 0.0625-0.39062 0.29688-1z"/>
</g>
</defs>
<g transform="translate(-149.01 -130.36)">
<use x="148.71201" y="134.765" xlink:href="#a"/>
</g>
</svg>
