<?xml version="1.0" encoding="UTF-8"?>
<svg fill="#000000" version="1.1" viewBox="0 0 7.9375 7.1131" xmlns="http://www.w3.org/2000/svg" xmlns:xlink="http://www.w3.org/1999/xlink">
<defs>
<g id="a">
<path d="m3.7656-2.2344c0.40625-0.79688 0.54688-1.6094 0.54688-2.6094 0.15625-0.35938 0.375-0.67188 0.65625-0.95312 0 0 0.375-0.35938 0.65625-0.35938 0.67188 0 1.0781 0.6875 1.7031 0.6875l-0.73438 0.85938c-0.078125 0.21875-0.10938 0.45312-0.10938 0.6875 0 0.64062 0.10938 1.3125 0.10938 1.8594 0 0.8125-0.046875 1.75-1.0156 1.75-0.29688 0-0.76562-0.17188-1.4375-0.57812-0.60938-0.39062-0.90625-0.57812-1.2969-0.60938zm1.0156-3.75c-0.26562 0.29688-0.42188 0.51562-0.54688 0.73438-0.25-0.79688-0.82812-1.5938-1.6094-1.5938-0.9375 0-1.5938 0.625-1.8281 0.85938-0.28125 0.28125-0.5 0.57812-0.5 0.98438 0 0.53125 0.40625 0.89062 0.70312 1.3281 0.0625 0.078125 0.14062 0.15625 0.14062 0.26562 0 0.3125-0.32812 0.64062-0.64062 0.79688l0.14062 0.10938c0.59375-0.29688 1.2344-0.6875 1.2344-1.3281 0-0.60938-0.92188-1.0312-0.92188-1.6719 0-0.54688 0.4375-0.70312 1-0.70312 0.98438 0 1.5625 1.0938 1.5781 2.1875 0 1.2188-0.28125 2.4844-1.4531 2.4844-0.48438 0.29688-0.90625 0.6875-1.2812 1.1094l0.10938 0.15625c0.3125-0.35938 0.73438-0.625 1.2344-0.625 0.4375 0 1.3281 0.51562 1.5312 0.625 0.71875 0.4375 1.1875 0.53125 1.4844 0.53125 0.17188 0.015625 0.375-0.015625 0.53125-0.125l1.1562-0.84375c0.40625-0.29688 0.64062-0.95312 0.64062-1.4688s-0.25-1.4531-0.25-2.1719c0-0.70312 0.4375-1.3125 1-1.7031v-0.15625c-0.078125 0.03125-0.17188 0.046875-0.26562 0.046875-0.15625 0-0.4375-0.046875-0.79688-0.3125-0.29688-0.20312-0.60938-0.375-0.96875-0.375-0.46875 0-1.0625 0.45312-1.4219 0.85938z"/>
</g>
</defs>
<g transform="translate(-149.01 -127.92)">
<use x="148.71201" y="134.765" xlink:href="#a"/>
</g>
</svg>
