<?xml version="1.0" encoding="UTF-8"?>
<svg fill="#000000" version="1.1" viewBox="0 0 6.9375 3.0469" xmlns="http://www.w3.org/2000/svg" xmlns:xlink="http://www.w3.org/1999/xlink">
<defs>
<g id="a">
<path d="m2.0156-3.7031c0-0.10938-0.125-0.23438-0.21875-0.32812-0.10938-0.10938-0.23438-0.23438-0.34375-0.23438-0.125 0-0.23438 0.125-0.34375 0.23438-0.09375 0.09375-0.21875 0.21875-0.21875 0.32812s0.125 0.23438 0.21875 0.32812c0.10938 0.10938 0.23438 0.23438 0.34375 0.23438 0.125 0 0.23438-0.125 0.34375-0.23438 0.09375-0.09375 0.21875-0.21875 0.21875-0.32812zm0 1.9219c0-0.10938-0.125-0.23438-0.21875-0.32812-0.10938-0.10938-0.23438-0.23438-0.34375-0.23438-0.125 0-0.23438 0.125-0.34375 0.23438-0.09375 0.09375-0.21875 0.21875-0.21875 0.32812s0.125 0.23438 0.21875 0.32812c0.10938 0.10938 0.23438 0.23438 0.34375 0.23438 0.125 0 0.23438-0.125 0.34375-0.23438 0.09375-0.09375 0.21875-0.21875 0.21875-0.32812zm1.0312-1.6094h4.7812v-0.64062h-4.7812zm0 1.9375h4.7812v-0.64062h-4.7812z"/>
</g>
</defs>
<g transform="translate(-149.6 -130.5)">
<use x="148.71201" y="134.765" xlink:href="#a"/>
</g>
</svg>
