<?xml version="1.0" encoding="UTF-8"?>
<svg fill="#000000" version="1.1" viewBox="0 0 6.0938 9.0781" xmlns="http://www.w3.org/2000/svg" xmlns:xlink="http://www.w3.org/1999/xlink">
<defs>
<g id="a">
<path d="m3.875-2.0469c1.75 0.375 2.4688 1.1562 2.6406 2.1719 0.015625 0.125 0.03125 0.28125 0.20312 0.28125 0.0625 0 0.20312-0.0625 0.20312-0.23438 0-0.046875 0-1.9844-2.8594-2.5781 0-0.03125 0.03125-0.078125 0.078125-0.17188 1.2188-0.32812 2.0625-0.78125 2.5312-1.7031 0.21875-0.4375 0.25-0.875 0.25-0.875 0-0.14062-0.10938-0.21875-0.20312-0.21875-0.125 0-0.17188 0.078125-0.20312 0.1875-0.0625 0.46875-0.21875 1.5625-2.125 2.1094l1.8125-3.5625c0.078125-0.14062 0.078125-0.15625 0.078125-0.20312 0-0.10938-0.078125-0.1875-0.20312-0.1875-0.0625 0-0.10938 0.015625-0.14062 0.046875l-2 3.9219c-0.0625 0.10938-0.0625 0.125-0.078125 0.125-0.10938 0.03125-1.0938 0.25-2.6719 0.25-0.1875 0-0.35938 0-0.35938 0.1875 0 0.20312 0.15625 0.20312 0.4375 0.20312 0.10938 0 1.1719 0 2.1875 0.17188l-1.9062 3.7812c-0.078125 0.14062-0.078125 0.15625-0.078125 0.20312 0 0.10938 0.078125 0.1875 0.20312 0.1875 0.046875 0 0.10938-0.015625 0.14062-0.046875z"/>
</g>
</defs>
<g transform="translate(-149.54 -127.73)">
<use x="148.71201" y="134.765" xlink:href="#a"/>
</g>
</svg>
