<?xml version="1.0" encoding="UTF-8"?>
<svg fill="#000000" version="1.1" viewBox="0 0 6.0938 11.016" xmlns="http://www.w3.org/2000/svg" xmlns:xlink="http://www.w3.org/1999/xlink">
<defs>
<g id="a">
<path d="m5.2188-5.2188 1.4844-0.70312c0.15625-0.078125 0.21875-0.09375 0.21875-0.21875s-0.09375-0.20312-0.20312-0.20312c-0.0625 0-0.14062 0.03125-0.1875 0.0625l-1.0781 0.51562 0.76562-1.8438c0.046875-0.125 0.0625-0.14062 0.0625-0.20312 0-0.10938-0.078125-0.1875-0.20312-0.1875-0.0625 0-0.10938 0.015625-0.14062 0.0625l-1.0156 2.4219-3.8906 1.8281c-0.125 0.0625-0.20312 0.125-0.20312 0.23438 0 0.125 0.09375 0.17188 0.20312 0.21875l2.4531 1.1562-0.51562 1.25-0.96875-0.45312c-0.10938-0.046875-0.40625-0.1875-0.53125-0.25-0.14062-0.0625-0.40625-0.1875-0.4375-0.1875-0.10938 0-0.20312 0.078125-0.20312 0.1875 0 0.14062 0.0625 0.15625 0.26562 0.25l1.7188 0.8125-1.2812 3.0938c-0.0625 0.125-0.0625 0.14062-0.0625 0.20312 0 0.10938 0.078125 0.1875 0.20312 0.1875 0.046875 0 0.10938-0.015625 0.14062-0.0625l1.2969-3.1094c0.015625-0.046875 0.046875-0.125 0.078125-0.125 0.015625 0 0.65625 0.29688 0.73438 0.34375l2.5 1.1719c0.25 0.125 0.26562 0.125 0.29688 0.125 0.10938 0 0.20312-0.09375 0.20312-0.1875 0-0.078125-0.03125-0.15625-0.20312-0.23438l-3.3906-1.5938 0.51562-1.25 1.5156 0.70312c0.875 0.42188 1.2969 0.64062 1.3594 0.64062 0.10938 0 0.20312-0.10938 0.20312-0.20312 0-0.125-0.078125-0.15625-0.21875-0.23438l-2.7031-1.2656zm-3.7188 1.7656 3.1875-1.5156-1.0469 2.5312z"/>
</g>
</defs>
<g transform="translate(-149.54 -126.76)">
<use x="148.71201" y="134.765" xlink:href="#a"/>
</g>
</svg>
