<?xml version="1.0" encoding="UTF-8"?>
<svg fill="#000000" version="1.1" viewBox="0 0 7.7338 6.5876" xmlns="http://www.w3.org/2000/svg" xmlns:xlink="http://www.w3.org/1999/xlink">
<defs>
<g id="a">
<path d="m3.6875-2.5156v0.015625l-0.28125 0.1875c-0.17188 0.125-0.35938 0.25-0.53125 0.39062-0.65625 0.5-1.2344 1.0781-1.7344 1.7188-0.17188 0.21875-0.32812 0.45312-0.48438 0.6875-0.046875 0.078125-0.14062 0.20312-0.046875 0.28125 0.046875 0.03125 0.125 0.015625 0.17188 0.015625 0.0625 0 0.14062 0.015625 0.1875-0.015625 0.0625-0.03125 0.09375-0.10938 0.125-0.15625 0.078125-0.125 0.17188-0.25 0.25-0.375 0.59375-0.8125 1.3125-1.5156 2.125-2.0938 0.23438-0.17188 0.48438-0.32812 0.73438-0.46875 0.0625-0.046875 0.21875-0.10938 0.15625-0.21875-0.015625-0.046875-0.078125-0.078125-0.10938-0.09375-0.078125-0.046875-0.15625-0.09375-0.21875-0.125-0.26562-0.17188-0.51562-0.32812-0.75-0.51562-0.70312-0.53125-1.3438-1.1719-1.875-1.875-0.09375-0.14062-0.20312-0.28125-0.29688-0.42188-0.03125-0.0625-0.078125-0.15625-0.14062-0.1875-0.046875-0.03125-0.125-0.03125-0.1875-0.03125-0.046875 0-0.125 0-0.17188 0.03125-0.09375 0.078125 0 0.20312 0.046875 0.26562 0.15625 0.25 0.3125 0.46875 0.48438 0.6875 0.5 0.65625 1.0781 1.2344 1.7344 1.7344 0.17188 0.14062 0.35938 0.26562 0.53125 0.39062 0.09375 0.0625 0.1875 0.125 0.28125 0.17188zm2.7188 0v0.015625l-0.375 0.09375c-0.23438 0.078125-0.48438 0.15625-0.70312 0.25-0.96875 0.375-1.875 0.96875-2.5938 1.75-0.21875 0.25-0.45312 0.53125-0.64062 0.82812-0.0625 0.078125-0.20312 0.21875-0.125 0.32812 0.03125 0.015625 0.0625 0.03125 0.078125 0.03125 0.0625 0.015625 0.125 0 0.1875 0 0.046875 0 0.09375 0 0.14062-0.03125 0.03125-0.015625 0.0625-0.0625 0.078125-0.10938 0.046875-0.046875 0.078125-0.10938 0.125-0.15625 0.10938-0.17188 0.25-0.34375 0.375-0.5 0.96875-1.125 2.3438-1.875 3.7812-2.1406 0.29688-0.0625 0.57812-0.09375 0.875-0.125 0.10938-0.015625 0.21875-0.015625 0.32812-0.015625 0.125-0.015625 0.35938 0.046875 0.35938-0.14062 0-0.078125 0.03125-0.1875-0.046875-0.25-0.03125-0.03125-0.09375-0.015625-0.14062-0.015625-0.09375 0-0.1875-0.015625-0.28125-0.015625-0.28125 0-0.57812-0.03125-0.84375-0.078125-1.0312-0.17188-2.0312-0.5625-2.875-1.1562-0.32812-0.23438-0.625-0.5-0.92188-0.78125-0.20312-0.20312-0.39062-0.4375-0.5625-0.67188-0.046875-0.078125-0.10938-0.15625-0.15625-0.21875-0.03125-0.046875-0.0625-0.10938-0.09375-0.14062-0.078125-0.046875-0.1875-0.03125-0.25-0.03125-0.03125 0-0.078125 0-0.09375 0.015625-0.17188 0.0625-0.03125 0.23438 0.015625 0.3125l0.046875 0.0625c0.21875 0.32812 0.46875 0.625 0.75 0.90625 0.71875 0.71875 1.5469 1.2812 2.5 1.6562 0.23438 0.09375 0.45312 0.17188 0.6875 0.23438 0.125 0.03125 0.25 0.078125 0.375 0.09375z"/>
</g>
</defs>
<g transform="translate(-149.28 -128.97)">
<use x="148.71201" y="134.765" xlink:href="#a"/>
</g>
</svg>
