<?xml version="1.0" encoding="UTF-8"?>
<svg fill="#000000" version="1.1" viewBox="0 0 5.3125 6.7969" xmlns="http://www.w3.org/2000/svg" xmlns:xlink="http://www.w3.org/1999/xlink">
<defs>
<g id="a">
<path d="m0.35938-6.8125v0.29688h0.375c0.35938 0 0.65625 0.046875 0.65625 0.4375v5.3281c0 0.375-0.32812 0.4375-0.67188 0.4375h-0.35938v0.29688h2.875v-0.29688h-0.39062c-0.34375 0-0.625-0.046875-0.625-0.42188v-1.0469h1.5625c0.90625-0.10938 1.8906-0.71875 1.8906-1.875 0-1.1406-1.0469-1.8594-2.1562-1.8594h-1.2969v-0.53125c0-0.42188 0.32812-0.46875 0.73438-0.46875h0.28125v-0.29688zm1.8594 4.7188v-3.125h1.0312c0.23438 0 0.45312 0.015625 0.67188 0.14062 0.5 0.26562 0.75 0.85938 0.75 1.4062 0 0.70312-0.40625 1.4531-1.2188 1.5781z"/>
</g>
</defs>
<g transform="translate(-149.07 -127.95)">
<use x="148.71201" y="134.765" xlink:href="#a"/>
</g>
</svg>
