<?xml version="1.0" encoding="UTF-8"?>
<svg fill="#000000" version="1.1" viewBox="0 0 6.7031 7" xmlns="http://www.w3.org/2000/svg" xmlns:xlink="http://www.w3.org/1999/xlink">
<defs>
<g id="a">
<path d="m4.8281-6.9531v0.23438h0.45312v1.5625c0 0.40625-0.0625 0.46875-0.45312 0.48438v0.14062h1.4062v-0.14062c-0.45312-0.015625-0.5-0.078125-0.5-0.48438v-1.5625h0.65625v-0.23438h-0.65625v-0.53125c0-0.32812 0.09375-0.48438 0.29688-0.48438 0.125 0 0.15625 0.046875 0.26562 0.21875 0.09375 0.14062 0.15625 0.1875 0.25 0.1875 0.125 0 0.21875-0.10938 0.21875-0.23438 0-0.1875-0.23438-0.40625-0.5625-0.40625-0.34375 0-0.59375 0.23438-0.73438 0.48438-0.14062 0.23438-0.1875 0.34375-0.1875 0.76562zm-0.10938 1.5625c-0.26562 0.40625-0.40625 0.54688-0.78125 0.54688-0.23438 0-0.45312-0.09375-0.59375-0.29688-0.1875-0.26562-0.21875-0.40625-0.25-0.8125h1.6719c-0.03125-0.28125-0.09375-0.53125-0.20312-0.67188-0.17188-0.25-0.42188-0.39062-0.75-0.39062-0.65625 0-1.0938 0.5625-1.0938 1.3281 0 0.73438 0.375 1.2188 1.0156 1.2188 0.53125 0 0.92188-0.3125 1.125-0.90625zm-1.6094-0.79688c0.046875-0.40625 0.26562-0.59375 0.57812-0.59375 0.34375 0 0.45312 0.15625 0.51562 0.59375zm-0.53125 1.4219v-0.078125h-0.125c-0.1875 0-0.23438-0.046875-0.23438-0.29688v-3.0469l-0.046875-0.015625c-0.23438 0.09375-0.42188 0.17188-0.76562 0.26562v0.125h0.10938c0.20312 0 0.25 0.0625 0.25 0.28125v0.76562c-0.15625-0.17188-0.375-0.25-0.57812-0.25-0.60938 0-1.125 0.625-1.125 1.3906 0 0.6875 0.40625 1.1562 1.0156 1.1562 0.29688 0 0.5-0.10938 0.6875-0.35938v0.34375l0.03125 0.015625zm-0.8125-0.39062c0 0.046875-0.03125 0.09375-0.078125 0.15625-0.10938 0.10938-0.23438 0.15625-0.40625 0.15625-0.4375 0-0.71875-0.34375-0.71875-1.0156 0-0.59375 0.25-0.92188 0.65625-0.92188 0.29688 0 0.54688 0.1875 0.54688 0.46875zm4.5781 1.9688v-0.65625h-5.8594v0.65625zm0 1.9844v-0.65625h-5.8594v0.65625z"/>
</g>
</defs>
<g transform="translate(-148.77 -126.56)">
<use x="148.71201" y="134.765" xlink:href="#a"/>
</g>
</svg>
