<?xml version="1.0" encoding="UTF-8"?>
<svg fill="#000000" version="1.1" viewBox="0 0 6.0625 7.3281" xmlns="http://www.w3.org/2000/svg" xmlns:xlink="http://www.w3.org/1999/xlink">
<defs>
<g id="a">
<path d="m6.5156-6.7031c0.10938-0.14062 0.10938-0.17188 0.10938-0.21875 0-0.10938-0.078125-0.20312-0.1875-0.20312-0.0625 0-0.125 0.03125-0.23438 0.14062l-5.5312 6.5781c-0.09375 0.10938-0.10938 0.14062-0.10938 0.20312 0 0.20312 0.1875 0.20312 0.35938 0.20312h3.0312c0.03125 0.15625 0.14062 0.20312 0.20312 0.20312 0.046875 0 0.1875-0.03125 0.20312-0.20312h1.9219c0.17188 0 0.34375 0 0.34375-0.20312s-0.17188-0.20312-0.34375-0.20312h-1.9375c-0.10938-0.9375-0.45312-1.7188-1.0625-2.4688zm-5.3281 6.2969 1.8281-2.1406c0.6875 0.78125 0.875 1.7344 0.92188 2.1406z"/>
</g>
</defs>
<g transform="translate(-149.27 -127.64)">
<use x="148.71201" y="134.765" xlink:href="#a"/>
</g>
</svg>
