<?xml version="1.0" encoding="UTF-8"?>
<svg fill="#000000" width="6.8438" height="7.2188" version="1.1" viewBox="0 0 6.8438 7.2187" xmlns="http://www.w3.org/2000/svg" xmlns:xlink="http://www.w3.org/1999/xlink">
<defs>
<g id="a">
<path d="m3.9844-3.1875c0.29688-0.59375 0.48438-1.2812 0.48438-1.9531 0-0.96875-0.79688-1.7031-1.75-1.7031-0.8125 0-1.6875 0.57812-1.9375 0.82812-0.26562 0.28125-0.5625 0.57812-0.5625 0.96875 0 0.59375 0.48438 0.875 0.78125 1.3281 0.0625 0.078125 0.10938 0.17188 0.10938 0.26562 0 0.32812-0.32812 0.625-0.625 0.79688l0.15625 0.10938c0.53125-0.25 1.1562-0.73438 1.1562-1.3281 0-0.57812-0.9375-1.0469-0.9375-1.4844 0-0.57812 0.59375-0.95312 1.1094-0.95312 0.98438 0 1.7031 0.84375 1.7031 1.8125 0 0.53125-0.09375 1.1562-0.4375 1.5938-0.39062 0.53125-1.1562 1.0781-1.7969 1.5781l-1.125 0.84375 0.17188 0.10938c0.35938-0.21875 0.67188-0.39062 1.0469-0.39062 0.6875 0 1.125 0.48438 1.4531 1.0312l2.0156-1.4844c0.15625 0.51562 0.32812 1 0.625 1.4844l1.4375-1.1094-0.046875-0.15625c-0.17188 0.078125-0.45312 0.25-0.60938 0.25-0.17188 0-0.42188-0.64062-0.51562-0.89062-0.03125-0.09375-0.03125-0.21875-0.046875-0.32812-0.03125-0.59375-0.046875-1.1875-0.046875-1.7969 0-1-0.046875-2.3906 0.15625-2.6562 0.0625-0.09375 0.26562-0.28125 0.42188-0.42188l-0.17188-0.10938-1.2656 0.96875c0.03125 0.375 0.0625 0.84375 0.0625 1.2656v3.2344c-0.5 0.3125-1.3281 0.84375-1.4375 0.84375l-0.48438-0.46875c-0.21875-0.21875-0.46875-0.4375-0.85938-0.4375z"/>
</g>
</defs>
<g transform="translate(-148.93 -127.81)">
<use x="148.71201" y="134.765" xlink:href="#a"/>
</g>
</svg>
