<?xml version="1.0" encoding="UTF-8"?>
<svg fill="#000000" version="1.1" viewBox="0 0 4.9219 11.406" xmlns="http://www.w3.org/2000/svg" xmlns:xlink="http://www.w3.org/1999/xlink">
<defs>
<g id="a">
<path d="m5.4531-1.9219c-0.21875-0.48438-0.42188-1.0156-0.42188-1.5625l-0.046875-0.03125c-0.40625 0.375-0.9375 0.57812-1.4531 0.75l0.03125 0.125c0.21875-0.046875 0.4375-0.10938 0.65625-0.1875 0.03125-0.015625 0.0625-0.015625 0.09375-0.015625 0.0625 0 0.14062 0.03125 0.14062 0.10938 0 0 0 0.03125-0.015625 0.046875l-0.046875 0.10938c-0.25 0.46875-0.71875 0.78125-1.25 0.89062v-4.3281c0-1.0469 0.0625-1.7656 0.5625-1.7656 0.078125 0 0.14062 0.03125 0.14062 0.10938 0 0.09375-0.09375 0.078125-0.09375 0.28125 0 0.25 0.17188 0.32812 0.35938 0.32812 0.20312 0 0.42188-0.14062 0.42188-0.42188 0-0.29688-0.20312-0.60938-0.6875-0.60938-1.2031 0-1.4375 1.375-1.4375 2.1719v4.2344c-0.84375-0.17188-1.4844-0.9375-1.4844-1.8281h-0.39062c0 1.1094 0.8125 2.0312 1.875 2.2031v2.6719c0 1-0.078125 1.6406-0.54688 1.6406-0.078125 0-0.125-0.046875-0.125-0.10938 0-0.09375 0.09375-0.078125 0.09375-0.28125 0-0.25-0.1875-0.34375-0.35938-0.34375-0.21875 0-0.42188 0.15625-0.42188 0.42188 0 0.3125 0.20312 0.625 0.6875 0.625 1.1094 0 1.4062-1.2031 1.4062-2.0156v-2.6094c0.71875-0.10938 1.3281-0.57812 1.6406-1.2031 0.03125-0.0625 0.078125-0.09375 0.10938-0.09375 0.0625 0 0.10938 0.0625 0.14062 0.14062 0.078125 0.20312 0.1875 0.42188 0.29688 0.60938z"/>
</g>
</defs>
<g transform="translate(-149.24 -126.63)">
<use x="148.71201" y="134.72501" xlink:href="#a"/>
</g>
</svg>
