<?xml version="1.0" encoding="UTF-8"?>
<svg fill="#000000" width="5.4531" height="8.8438" version="1.1" viewBox="0 0 5.4531 8.8437" xmlns="http://www.w3.org/2000/svg" xmlns:xlink="http://www.w3.org/1999/xlink">
<defs>
<g id="a">
<path d="m4.2031-4.2812c0.39062 0.35938 0.53125 0.4375 0.6875 0.54688 0.32812 0.23438 0.71875 0.4375 0.76562 0.4375 0.10938 0 0.10938-0.10938 0.10938-0.1875 0-0.14062 0-0.17188-0.10938-0.21875-1.5938-0.82812-2.2031-2.0625-2.5156-3.125-0.015625-0.0625-0.0625-0.078125-0.09375-0.078125-0.09375 0-0.10938 0.0625-0.10938 0.10938-0.35938 1.1875-1.0312 2.3281-2.5469 3.1094-0.078125 0.03125-0.078125 0.09375-0.078125 0.20312 0 0.078125 0 0.1875 0.10938 0.1875 0.0625 0 0.45312-0.21875 0.76562-0.42188 0.20312-0.15625 0.34375-0.26562 0.6875-0.5625v5.8594c0 0.17188 0 0.35938 0.20312 0.35938 0.1875 0 0.1875-0.1875 0.1875-0.35938v-6.3281c0.39062-0.45312 0.67188-1 0.78125-1.25 0.10938 0.26562 0.375 0.8125 0.76562 1.25v6.3281c0 0.17188 0 0.35938 0.1875 0.35938 0.20312 0 0.20312-0.1875 0.20312-0.35938z"/>
</g>
</defs>
<g transform="translate(-149.02 -127.86)">
<use x="148.71201" y="134.765" xlink:href="#a"/>
</g>
</svg>
