<?xml version="1.0" encoding="UTF-8"?>
<svg fill="#000000" version="1.1" viewBox="0 0 4.0156 4.7969" xmlns="http://www.w3.org/2000/svg" xmlns:xlink="http://www.w3.org/1999/xlink">
<defs>
<g id="a">
<path d="m2.7812-2.5781c-0.015625 0.03125-0.64062 0.015625-1.0156 0.015625l-0.0625-0.0625c0.015625-0.78125 0.375-1.6406 1.3281-1.6406 0.53125 0 0.78125 0.125 1.2031 0.70312l0.125-0.015625 0.375-0.53125c-0.375-0.35938-0.85938-0.57812-1.375-0.57812-1.4375 0-2.4844 1.2656-2.4844 2.6562 0 0.60938 0.15625 1.2188 0.59375 1.6562 0.35938 0.35938 0.92188 0.48438 1.4375 0.48438 0.71875 0 1.4219-0.42188 1.9844-0.85938l-0.125-0.20312h-0.078125c-0.39062 0.32812-0.90625 0.48438-1.4062 0.48438-0.35938 0-0.8125-0.046875-1.0469-0.28125-0.34375-0.35938-0.53125-0.82812-0.54688-1.3281l0.046875-0.0625c0.26562 0 0.67188-0.015625 0.6875-0.015625h1.4062l0.14062-0.42188z"/>
</g>
</defs>
<g transform="translate(-149.59 -130.08)">
<use x="148.71201" y="134.765" xlink:href="#a"/>
</g>
</svg>
