<?xml version="1.0" encoding="UTF-8"?>
<svg fill="#000000" version="1.1" viewBox="0 0 4.9219 7.0156" xmlns="http://www.w3.org/2000/svg" xmlns:xlink="http://www.w3.org/1999/xlink">
<defs>
<g id="a">
<path d="m3.0312-6.8125v0.29688h0.20312c0.32812 0 0.57812 0.0625 0.57812 0.64062v0.26562h-2.1406v0.3125h2.1406l-0.015625 1.5c-0.23438-0.40625-0.8125-0.60938-1.2656-0.60938-1.2188 0-2.2031 1.0625-2.2031 2.2656 0 1.0625 0.8125 2.2344 2.1406 2.2344 0.51562 0 0.98438-0.25 1.3125-0.64062v0.64062l1.4688-0.10938v-0.29688h-0.14062c-0.32812 0-0.64062-0.03125-0.64062-0.5v-4.4844h0.67188v-0.3125h-0.67188v-1.3125zm-1.8594 4.9062v-0.14062c0-0.75 0.078125-1.4844 0.76562-1.9531 0.20312-0.10938 0.4375-0.1875 0.67188-0.1875 0.48438 0 1.1719 0.40625 1.1719 1.0312v0.39062 1.6562c0 0.125-0.046875 0.21875-0.125 0.3125-0.25 0.39062-0.6875 0.67188-1.1562 0.67188-0.71875 0-1.1875-0.65625-1.2969-1.3438-0.015625-0.14062-0.015625-0.29688-0.03125-0.4375z"/>
</g>
</defs>
<g transform="translate(-149.04 -127.84)">
<use x="148.71201" y="134.765" xlink:href="#a"/>
</g>
</svg>
