<?xml version="1.0" encoding="UTF-8"?>
<svg fill="#000000" version="1.1" viewBox="0 0 7.5312 7.5312" xmlns="http://www.w3.org/2000/svg" xmlns:xlink="http://www.w3.org/1999/xlink">
<defs>
<g id="a">
<path d="m9.1562-2.5781c0.14062 0 0.23438-0.10938 0.23438-0.21875 0-0.078125-0.03125-0.29688-0.03125-0.75 0-0.85938 0.15625-1.7031 0.65625-2.4062 0.01563-0.03125 0.03125-0.09375 0.03125-0.125 0-0.14062-0.10938-0.23438-0.23438-0.23438-0.25 0-0.6875 0.6875-2.5312 0.6875-0.4375 0-0.67188-0.03125-0.73438-0.03125-0.125 0-0.23438 0.09375-0.23438 0.23438 0 0.21875 0.23438 0.23438 0.48438 0.23438h0.1875 0.35938l-1.4531 1.4531-0.6875-1.4844c-0.046875-0.078125-0.125-0.10938-0.20312-0.078125s-0.10938 0.125-0.078125 0.20312l0.73438 1.5781-2.0156 2.0156c0.015625-0.10938 0.015625-0.21875 0.015625-0.34375v-0.14062c0-0.29688-0.015625-0.53125-0.25-0.53125-0.14062 0-0.23438 0.10938-0.23438 0.21875 0 0.078125 0.03125 0.29688 0.03125 0.75 0 0.85938-0.15625 1.7031-0.64062 2.4062-0.03125 0.03125-0.046875 0.09375-0.046875 0.125 0 0.15625 0.10938 0.23438 0.23438 0.23438 0.25 0 0.6875-0.6875 2.5312-0.6875 0.45312 0 0.67188 0.03125 0.73438 0.03125 0.14062 0 0.23438-0.09375 0.23438-0.23438 0-0.21875-0.23438-0.23438-0.48438-0.23438h-0.1875-0.35938l1.4531-1.4531 0.6875 1.4844c0.03125 0.078125 0.125 0.10938 0.20312 0.078125s0.10938-0.125 0.078125-0.20312l-0.75-1.5781 2.0312-2.0156c-0.015625 0.10938-0.015625 0.21875-0.015625 0.34375v0.14062c0 0.29688 0.015625 0.53125 0.25 0.53125zm-5.5469 1.7656 2.2656-2.2656 0.59375 1.2812-1.9219 1.9219c-0.15625 0-0.3125 0.015625-0.46875 0.015625s-0.3125-0.015625-0.45312-0.015625c-0.03125-0.15625-0.03125-0.3125-0.03125-0.46875s0-0.3125 0.015625-0.46875zm2.4844-2.4844 1.9219-1.9219c0.15625 0 0.3125-0.015625 0.46875-0.015625s0.3125 0.015625 0.46875 0.015625c0.015625 0.15625 0.015625 0.3125 0.015625 0.46875s0 0.3125-0.015625 0.46875l-2.2656 2.25z"/>
</g>
</defs>
<g transform="translate(-151.23 -128.45)">
<use x="148.71201" y="134.765" xlink:href="#a"/>
</g>
</svg>
