<?xml version="1.0" encoding="UTF-8"?>
<svg fill="#000000" version="1.1" viewBox="0 0 6.1114 8.8463" xmlns="http://www.w3.org/2000/svg" xmlns:xlink="http://www.w3.org/1999/xlink">
<defs>
<g id="a">
<path d="m3.6719-3.9062c-0.14062-0.078125-0.28125-0.15625-0.4375-0.21875-0.21875-0.125-0.4375-0.25-0.64062-0.375-0.3125-0.20312-0.59375-0.40625-0.89062-0.64062-0.125-0.09375-0.25-0.1875-0.375-0.29688-0.10938-0.078125-0.26562-0.0625-0.39062-0.0625-0.0625 0.015625-0.125 0.09375-0.09375 0.15625s0.10938 0.10938 0.15625 0.15625c0.10938 0.10938 0.23438 0.20312 0.35938 0.29688 0.5 0.375 1.0156 0.71875 1.5469 1.0156 0.1875 0.10938 0.375 0.20312 0.5625 0.29688 0.0625 0.03125 0.1875 0.0625 0.20312 0.125 0.03125 0.0625 0 0.15625 0 0.21875v0.5c0 0.078125 0.03125 0.1875-0.015625 0.23438-0.03125 0.0625-0.125 0.09375-0.17188 0.10938-0.14062 0.078125-0.29688 0.14062-0.4375 0.23438-0.46875 0.25-0.92188 0.53125-1.3594 0.84375-0.23438 0.17188-0.46875 0.35938-0.70312 0.54688-0.0625 0.0625-0.23438 0.17188-0.10938 0.26562 0.046875 0.046875 0.125 0.03125 0.1875 0.03125 0.046875 0 0.125 0.015625 0.1875-0.015625 0.0625-0.015625 0.09375-0.0625 0.14062-0.09375 0.078125-0.0625 0.15625-0.125 0.21875-0.17188 0.40625-0.32812 0.82812-0.625 1.2812-0.89062 0.26562-0.14062 0.53125-0.26562 0.78125-0.40625v2.1406h-2.6719c-0.0625 0-0.14062 0-0.15625 0.078125-0.03125 0.09375-0.03125 0.25 0.03125 0.29688 0.046875 0.03125 0.125 0.015625 0.1875 0.015625h2.6094v1.2031c0 0.046875 0 0.09375 0.015625 0.14062 0.015625 0.10938 0.125 0.09375 0.20312 0.09375 0.046875 0 0.09375 0 0.125-0.015625 0.046875-0.015625 0.0625-0.078125 0.0625-0.125v-0.23438-1.0625h2.625c0.0625 0 0.125 0.015625 0.17188-0.015625 0.078125-0.046875 0.0625-0.20312 0.046875-0.29688-0.03125-0.078125-0.10938-0.078125-0.17188-0.078125h-2.6719v-2.1562c0-0.046875-0.015625-0.125 0.03125-0.17188 0.046875-0.03125 0.125-0.046875 0.17188-0.0625 0.14062-0.0625 0.25-0.09375 0.39062-0.14062 0.5-0.17188 1.0312-0.26562 1.5625-0.3125 0.14062-0.015625 0.3125-0.03125 0.45312-0.03125 0.0625 0 0.15625 0.015625 0.20312-0.046875 0.046875-0.046875 0.03125-0.125 0.03125-0.20312 0-0.0625 0-0.10938-0.0625-0.14062s-0.15625-0.015625-0.21875-0.015625c-0.125 0-0.26562 0-0.40625-0.015625-0.54688-0.0625-1.0938-0.17188-1.6406-0.34375-0.125-0.046875-0.25-0.078125-0.35938-0.125-0.0625-0.03125-0.125-0.03125-0.14062-0.09375-0.03125-0.046875-0.015625-0.14062-0.015625-0.20312v-2.6875c0-0.078125 0.015625-0.15625-0.015625-0.21875-0.0625-0.0625-0.14062-0.046875-0.20312-0.046875h-0.09375c-0.03125 0.015625-0.0625 0.03125-0.0625 0.046875-0.03125 0.0625-0.03125 0.10938-0.03125 0.17188zm0.40625 1.2656v-0.67188l0.625 0.21875 0.4375 0.10938v0.015625l-0.4375 0.10938z"/>
</g>
</defs>
<g transform="translate(-149.54 -127.84)">
<use x="148.71201" y="134.765" xlink:href="#a"/>
</g>
</svg>
