<?xml version="1.0" encoding="UTF-8"?>
<svg fill="#000000" width="5.0938" height="8.8438" version="1.1" viewBox="0 0 5.0938 8.8437" xmlns="http://www.w3.org/2000/svg" xmlns:xlink="http://www.w3.org/1999/xlink">
<defs>
<g id="a">
<path d="m5.7188 1.2344v-0.53125h-3.5781l0.39062-1h3.1875v-0.51562h-2.9844l0.82812-2.0625c1.6875 0.79688 2.1562 1.7031 2.1562 1.7031v-0.75c0-0.015625-0.5625-0.79688-1.9688-1.4219l0.5-1.2656c1.0469-0.54688 1.4688-1.1406 1.4688-1.1562v-0.75s-0.28125 0.54688-1.1562 1.1406l0.64062-1.6094h-0.53125l-0.8125 2.0312c-0.76562 0.39062-1.8125 0.75-3.2344 0.98438v0.25c1 0.15625 1.8125 0.39062 2.4688 0.64062l-0.89062 2.2812h-1.5781v0.51562h1.375l-0.40625 1h-0.96875v0.51562h0.76562l-0.25 0.625h0.53125l0.25-0.64062zm-2.125-5.5312-0.3125 0.78125c-0.34375-0.14062-0.71875-0.25-1.1406-0.32812v-0.015625c0.5625-0.125 1.0469-0.26562 1.4531-0.4375z"/>
</g>
</defs>
<g transform="translate(-149.34 -127.78)">
<use x="148.71201" y="134.765" xlink:href="#a"/>
</g>
</svg>
