<?xml version="1.0" encoding="UTF-8"?>
<svg fill="#000000" version="1.1" viewBox="0 0 5.0469 4.9844" xmlns="http://www.w3.org/2000/svg" xmlns:xlink="http://www.w3.org/1999/xlink">
<defs>
<g id="a">
<path d="m4.2031-4.6719-0.85938 0.4375c0.03125 0.5625 0.03125 1.0781 0.03125 1.6094 0 0.48438 0 0.98438-0.03125 1.4844l-0.875 0.57812-1.0156-0.46875c0.23438-0.82812 0.26562-1.6562 0.26562-2.5156 0-0.21875-0.015625-0.4375-0.015625-0.65625-0.20312-0.14062-0.35938-0.32812-0.51562-0.51562l-1.1094 0.875 0.15625 0.09375 0.375-0.20312c0.35938 0.3125 0.35938 0.875 0.35938 1.3281 0 0.71875-0.125 1.625-0.42188 2.1406 0.375 0.125 0.98438 0.57812 1.25 0.75 0 0 0.84375-0.6875 1.5156-1.1406 0.125 0.35938 0.32812 0.71875 0.51562 1.0312l0.078125 0.015625c0.39062-0.35938 0.79688-0.70312 1.2188-1.0469l-0.0625-0.15625c-0.09375 0.046875-0.42188 0.20312-0.53125 0.20312-0.40625 0-0.39062-0.92188-0.39062-1.4219 0-0.78125 0.03125-1.5625 0.125-2.3594z"/>
</g>
</defs>
<g transform="translate(-148.79 -130.05)">
<use x="148.71201" y="134.765" xlink:href="#a"/>
</g>
</svg>
