<?xml version="1.0" encoding="UTF-8"?>
<svg fill="#000000" version="1.1" viewBox="0 0 9.1094 9.1094" xmlns="http://www.w3.org/2000/svg" xmlns:xlink="http://www.w3.org/1999/xlink">
<defs>
<g id="a">
<path d="m9.2656-6.5c0.125-0.125 0.14062-0.15625 0.14062-0.23438 0-0.09375-0.078125-0.1875-0.1875-0.1875-0.09375 0-0.10938 0.015625-0.23438 0.14062l-7.7812 7.7656c0.03125-0.17188 0.046875-0.39062 0.046875-0.57812 0-0.20312-0.015625-0.6875-0.21875-1.2656-0.046875-0.125-0.35938-0.8125-0.5-0.8125-0.078125 0-0.23438 0.17188-0.23438 0.23438 0 0.046875 0.015625 0.0625 0.046875 0.125 0.5 0.76562 0.53125 1.375 0.53125 1.7344 0 0.60938-0.17188 1.0469-0.28125 1.2812-0.03125 0.0625-0.03125 0.09375-0.03125 0.125 0 0.0625 0.03125 0.09375 0.09375 0.09375 0.015625 0 0.046875 0 0.125-0.03125 0.26562-0.125 0.70312-0.28125 1.2812-0.28125 0.29688 0 0.95312 0.015625 1.7188 0.53125 0.0625 0.03125 0.09375 0.046875 0.14062 0.046875 0.0625 0 0.21875-0.15625 0.21875-0.23438 0-0.14062-0.60938-0.42188-0.82812-0.5-0.57812-0.21875-1.0625-0.23438-1.2344-0.23438-0.32812 0-0.32812 0-0.57812 0.0625z"/>
</g>
</defs>
<g transform="translate(-149.01 -127.84)">
<use x="148.71201" y="134.765" xlink:href="#a"/>
</g>
</svg>
