<?xml version="1.0" encoding="UTF-8"?>
<svg fill="#000000" version="1.1" viewBox="0 0 4.908 4.4492" xmlns="http://www.w3.org/2000/svg" xmlns:xlink="http://www.w3.org/1999/xlink">
<defs>
<g id="a">
<path d="m1.7031-2.2656v-1.2188c0-0.14062-0.03125-0.35938 0.078125-0.48438 0.0625-0.046875 0.125-0.0625 0.20312-0.078125 0.14062-0.015625 0.26562-0.015625 0.40625-0.015625v-0.25l-0.39062 0.03125h-0.82812l-0.82812-0.03125v0.25c0.14062 0 0.28125 0 0.42188 0.015625 0.09375 0.015625 0.17188 0.046875 0.21875 0.125 0.046875 0.09375 0.046875 0.20312 0.046875 0.29688v2.9219c0 0.10938 0.015625 0.21875-0.046875 0.3125-0.046875 0.078125-0.14062 0.09375-0.21875 0.125-0.14062 0.015625-0.28125 0.015625-0.42188 0.015625v0.23438h1.75c0.20312 0 0.40625 0.015625 0.59375 0 0.35938-0.015625 0.71875-0.09375 1.0312-0.25 0.15625-0.078125 0.29688-0.1875 0.42188-0.29688 0.078125-0.078125 0.14062-0.1875 0.1875-0.28125 0.03125-0.0625 0.046875-0.14062 0.0625-0.20312s0.015625-0.125 0.015625-0.17188c-0.03125-0.45312-0.45312-0.71875-0.8125-0.875-0.10938-0.03125-0.20312-0.0625-0.29688-0.09375 0.078125-0.046875 0.1875-0.078125 0.26562-0.14062 0.15625-0.10938 0.28125-0.25 0.35938-0.40625 0.078125-0.14062 0.10938-0.28125 0.14062-0.4375 0.046875-0.17188 0.078125-0.32812 0.14062-0.5 0.03125-0.15625 0.078125-0.32812 0.1875-0.45312l0.078125-0.078125c0.20312-0.10938 0.40625 0.078125 0.46875 0.25 0.03125 0.0625 0.046875 0.125 0.0625 0.1875 0 0.03125 0 0.078125 0.015625 0.10938 0.03125 0.078125 0.125 0.09375 0.1875 0.0625 0.0625-0.0625 0.046875-0.14062 0.046875-0.21875-0.03125-0.17188-0.10938-0.35938-0.25-0.48438-0.17188-0.15625-0.39062-0.17188-0.625-0.15625-0.14062 0.015625-0.28125 0.03125-0.42188 0.09375-0.10938 0.015625-0.21875 0.078125-0.29688 0.14062-0.078125 0.046875-0.14062 0.10938-0.1875 0.1875-0.1875 0.25-0.15625 0.5625-0.15625 0.875 0 0.1875 0 0.35938-0.10938 0.53125-0.10938 0.1875-0.3125 0.29688-0.51562 0.34375-0.14062 0.015625-0.28125 0.015625-0.42188 0.015625zm0 0.21875c0.35938 0 0.73438-0.03125 1.0938 0.015625 0.21875 0.03125 0.46875 0.10938 0.625 0.29688 0.078125 0.09375 0.10938 0.20312 0.125 0.3125 0.046875 0.26562 0.046875 0.60938-0.14062 0.82812-0.25 0.28125-0.6875 0.28125-1.0312 0.28125h-0.45312c-0.046875 0-0.125 0-0.17188-0.03125-0.03125-0.03125-0.03125-0.09375-0.03125-0.14062-0.03125-0.10938-0.015625-0.21875-0.015625-0.32812z"/>
</g>
</defs>
<g transform="translate(-149.06 -130.31)">
<use x="148.71201" y="134.765" xlink:href="#a"/>
</g>
</svg>
