<?xml version="1.0" encoding="UTF-8"?>
<svg fill="#000000" version="1.1" viewBox="0 0 5.8594 8.1562" xmlns="http://www.w3.org/2000/svg" xmlns:xlink="http://www.w3.org/1999/xlink">
<defs>
<g id="a">
<path d="m6.3438-0.28125v-0.65625h-0.98438v-1.25h0.98438v-0.65625h-0.98438v-1.2656h0.98438v-0.65625h-0.98438v-1.8281h-0.67188v1.8281h-0.9375v-1.8281h-0.65625v1.8281h-0.95312v-1.8281h-0.67188v1.8281h-0.98438v0.65625h0.98438v1.2656h-0.98438v0.65625h0.98438v1.25h-0.98438v0.65625h0.98438v1.8438h0.67188v-1.8438h0.95312v1.8438h0.65625v-1.8438h0.9375v1.8438h0.67188v-1.8438zm-1.6562-2.5625h-0.9375v-1.2656h0.9375zm-1.5938 0h-0.95312v-1.2656h0.95312zm1.5938 1.9062h-0.9375v-1.25h0.9375zm-1.5938 0h-0.95312v-1.25h0.95312z"/>
</g>
</defs>
<g transform="translate(-149.2 -128.17)">
<use x="148.71201" y="134.765" xlink:href="#a"/>
</g>
</svg>
