<?xml version="1.0" encoding="UTF-8"?>
<svg fill="#000000" version="1.1" viewBox="0 0 4.3125 5.5781" xmlns="http://www.w3.org/2000/svg" xmlns:xlink="http://www.w3.org/1999/xlink">
<defs>
<g id="a">
<path d="m4.0781-5.2344c-0.078125 0-0.125 0.03125-0.1875 0.078125-0.73438 0.92188-1.875 1.4844-3.1094 1.4844-0.125 0-0.21875 0.10938-0.21875 0.23438s0.09375 0.23438 0.21875 0.23438c1.375 0 2.6406-0.625 3.4688-1.6562 0.03125-0.046875 0.0625-0.09375 0.0625-0.14062 0-0.14062-0.10938-0.23438-0.23438-0.23438zm0.5625 1.5625c-0.046875 0-0.09375 0.015625-0.14062 0.046875-1.125 0.95312-2.3438 1.7344-3.7188 1.7344-0.14062 0-0.21875 0.09375-0.21875 0.23438 0 0.125 0.078125 0.23438 0.21875 0.23438 1.375 0 2.5938 0.78125 3.7188 1.7188 0.046875 0.046875 0.09375 0.046875 0.14062 0.046875 0.14062 0 0.23438-0.09375 0.23438-0.21875 0-0.0625-0.03125-0.14062-0.078125-0.17188-0.78125-0.65625-1.6562-1.2812-2.6406-1.6094 0.98438-0.32812 1.8594-0.96875 2.6406-1.6094 0.046875-0.046875 0.078125-0.10938 0.078125-0.17188 0-0.125-0.09375-0.23438-0.23438-0.23438z"/>
</g>
</defs>
<g transform="translate(-149.27 -129.53)">
<use x="148.71201" y="134.765" xlink:href="#a"/>
</g>
</svg>
