<?xml version="1.0" encoding="UTF-8"?>
<svg fill="#000000" version="1.1" viewBox="0 0 7.2344 6.3125" xmlns="http://www.w3.org/2000/svg" xmlns:xlink="http://www.w3.org/1999/xlink">
<defs>
<g id="a">
<path d="m2.7344-4.1094c0.10938 0 0.21875-0.0625 0.28125-0.1875 0.25-0.6875 0.82812-1.1562 1.4531-1.5156 0.10938-0.0625 0.15625-0.15625 0.15625-0.26562 0-0.17188-0.15625-0.29688-0.29688-0.29688-0.21875 0-0.6875 0.45312-1.1406 0.76562 0.3125-0.75 1.125-1.6094 2.3906-1.6094 1.375 0 2.5625 1.1094 2.5625 2.5625 0 1.3906-1.1094 2.5781-2.5625 2.5781-1.1094 0-1.9531-0.6875-2.3281-1.4844-0.046875-0.10938-0.15625-0.17188-0.26562-0.17188-0.17188 0-0.29688 0.14062-0.29688 0.29688 0 0.26562 0.9375 1.9375 2.8906 1.9375 1.7812 0 3.1562-1.4531 3.1562-3.1562 0-1.7812-1.4688-3.1562-3.1562-3.1562-1.5156 0-2.5625 1.0312-2.9531 2.0156-0.46875-0.75-0.57812-1.0156-0.82812-1.0156-0.21875 0-0.29688 0.1875-0.29688 0.29688 0 0.0625 0.03125 0.14062 0.0625 0.1875 0.40625 0.46875 0.875 1.1562 0.875 1.9219 0 0.15625 0.125 0.29688 0.29688 0.29688z"/>
</g>
</defs>
<g transform="translate(-150.21 -130.84)">
<use x="148.71201" y="138.64999" xlink:href="#a"/>
</g>
</svg>
