<?xml version="1.0" encoding="UTF-8"?>
<svg fill="#000000" version="1.1" viewBox="0 0 7.0625 6.8594" xmlns="http://www.w3.org/2000/svg" xmlns:xlink="http://www.w3.org/1999/xlink">
<defs>
<g id="a">
<path d="m0.42188-5.5c0.32812-0.40625 0.53125-0.53125 0.92188-0.53125 0.60938 0 1.0469 0.3125 1.5156 0.92188-0.54688 0.73438-0.79688 1.2188-1.25 1.9531-0.25 0.39062-0.4375 0.57812-0.9375 0.57812v0.21875h2.1562v-0.21875c-0.5-0.046875-0.65625-0.15625-0.65625-0.46875 0-0.45312 0.26562-0.9375 0.92188-1.7812 0.5625 0.625 0.90625 1.1719 1.3125 2.0469-1.1719 0.5-1.5469 0.95312-1.5469 1.6719 0 0.79688 0.57812 1.2344 1.375 1.2344 0.84375 0 1.5-0.59375 1.5-1.4844 0-0.45312-0.0625-0.8125-0.34375-1.4844l0.375-0.23438c1.0156-0.57812 1.5781-1.3594 1.5781-2.1719 0-0.98438-0.64062-1.4844-1.7188-1.4844-0.79688 0-1.3906 0.25-2.1406 0.90625-0.64062-0.65625-1.125-0.90625-1.7031-0.90625-0.67188 0-1.2188 0.39062-1.5 1.125zm6 0.625c0 0.6875-0.3125 1.125-1.1719 1.6875-0.54688-1.125-0.9375-1.7031-1.5156-2.3906 0.59375-0.46875 1.0156-0.625 1.4531-0.625 0.70312 0 1.2344 0.48438 1.2344 1.3281zm-1.4688 3.8594c0 0.5-0.3125 0.82812-0.78125 0.82812s-0.78125-0.39062-0.78125-0.875c0-0.59375 0.3125-1.0156 1.1719-1.4062 0.32812 0.60938 0.39062 0.9375 0.39062 1.4531z"/>
</g>
</defs>
<g transform="translate(-148.99 -128.03)">
<use x="148.71201" y="134.765" xlink:href="#a"/>
</g>
</svg>
