<?xml version="1.0" encoding="UTF-8"?>
<svg fill="#000000" version="1.1" viewBox="0 0 3.4214 8.177" xmlns="http://www.w3.org/2000/svg" xmlns:xlink="http://www.w3.org/1999/xlink">
<defs>
<g id="a">
<path d="m1.4844-6.1406c0 0.125-0.015625 0.23438-0.015625 0.34375-0.078125 0.60938-0.35938 1.3594-1.0156 1.5469-0.078125 0.015625-0.1875 0.03125-0.28125 0.03125v0.21875h0.85938v4.3438c0 0.14062 0 0.29688 0.03125 0.4375 0.03125 0.21875 0.10938 0.42188 0.21875 0.60938 0.078125 0.10938 0.17188 0.21875 0.26562 0.29688 0.40625 0.39062 1.0625 0.4375 1.5625 0.21875 0.10938-0.0625 0.21875-0.125 0.3125-0.21875 0.15625-0.1875 0.23438-0.46875 0.10938-0.6875-0.046875-0.078125-0.10938-0.125-0.17188-0.17188-0.0625-0.03125-0.14062-0.046875-0.21875-0.046875-0.15625 0-0.29688 0.0625-0.39062 0.1875-0.17188 0.25-0.0625 0.65625 0.26562 0.70312v0.015625c-0.10938 0.046875-0.21875 0.09375-0.34375 0.10938-0.10938 0.015625-0.23438 0.03125-0.34375 0-0.40625-0.078125-0.53125-0.57812-0.57812-0.92188 0-0.0625 0-0.14062-0.015625-0.20312-0.015625-0.1875 0-0.375 0-0.54688v-4.125h1.1406v-0.3125h-1.1406v-1.8281z"/>
</g>
</defs>
<g transform="translate(-148.88 -128.62)">
<use x="148.71201" y="134.765" xlink:href="#a"/>
</g>
</svg>
