<?xml version="1.0" encoding="UTF-8"?>
<svg fill="#000000" version="1.1" viewBox="0 0 8.4375 8.4375" xmlns="http://www.w3.org/2000/svg" xmlns:xlink="http://www.w3.org/1999/xlink">
<defs>
<g id="a">
<path d="m3.2031-1.1094c0-0.23438-0.67188-0.71875-1.1562-1.2031h2.5312v3.75c0 0.125 0.10938 0.23438 0.23438 0.23438s0.23438-0.10938 0.23438-0.23438v-3.75h1.7656c1.2188 0 2.2188-1 2.2188-2.2188 0-1.2344-1-2.2344-2.2188-2.2344-1.2344 0-2.2344 1-2.2344 2.2344v1.7656h-2.5312c0.46875-0.46875 1.1562-0.96875 1.1562-1.2188 0-0.125-0.10938-0.21875-0.23438-0.21875-0.0625 0-0.125 0.03125-0.17188 0.09375-0.53125 0.625-1.1875 1.1875-2.0156 1.3438-0.10938 0.015625-0.1875 0.10938-0.1875 0.21875s0.078125 0.20312 0.1875 0.21875c0.82812 0.15625 1.4844 0.71875 2.0156 1.3438 0.046875 0.0625 0.10938 0.09375 0.17188 0.09375 0.125 0 0.23438-0.09375 0.23438-0.21875zm3.6094-1.6562h-1.7656v-1.7656c0-0.98438 0.78125-1.7656 1.7656-1.7656 0.96875 0 1.7656 0.78125 1.7656 1.7656 0 0.96875-0.79688 1.7656-1.7656 1.7656z"/>
</g>
</defs>
<g transform="translate(-149.31 -128)">
<use x="148.71201" y="134.765" xlink:href="#a"/>
</g>
</svg>
