<?xml version="1.0" encoding="UTF-8"?>
<svg fill="#000000" version="1.1" viewBox="0 0 6.2279 11.083" xmlns="http://www.w3.org/2000/svg" xmlns:xlink="http://www.w3.org/1999/xlink">
<defs>
<g id="a">
<path d="m3.2031 3.0156c-1.0312 0.078125-1.9375 0.71875-2.2812 1.7031-0.0625 0.21875-0.10938 0.4375-0.10938 0.65625-0.21875-0.20312-0.4375-0.375-0.65625-0.5625-0.0625-0.0625-0.1875-0.20312-0.26562-0.125-0.09375 0.078125 0.046875 0.20312 0.09375 0.26562l0.59375 0.70312c0.078125 0.09375 0.1875 0.20312 0.25 0.3125 0.046875 0.078125 0.046875 0.1875 0.0625 0.28125 0.25 0.84375 0.96875 1.5781 1.8125 1.7188 0 0.35938-0.046875 0.73438-0.09375 1.0938-0.0625 0.60938-0.14062 1.4375-0.60938 1.7188-0.3125 0.15625-0.73438 0.0625-0.98438-0.14062 0.125-0.03125 0.23438-0.0625 0.29688-0.17188 0.1875-0.29688-0.03125-0.67188-0.35938-0.65625-0.3125 0-0.4375 0.28125-0.39062 0.54688 0.078125 0.5 0.70312 0.78125 1.3281 0.70312 1.0625-0.20312 1.3438-1.5156 1.4688-2.4219 0.03125-0.20312 0.046875-0.39062 0.078125-0.57812 0.95312-0.078125 1.8125-0.60938 2.1875-1.5 0.5-1.1562 0.078125-2.5625-1.0312-3.2031-0.20312-0.10938-0.42188-0.21875-0.65625-0.26562 0-0.35938 0.046875-0.71875 0.09375-1.0781 0.0625-0.625 0.14062-1.4531 0.625-1.7188 0.28125-0.15625 0.70312-0.0625 0.95312 0.125-0.10938 0.03125-0.21875 0.078125-0.29688 0.1875-0.1875 0.28125 0.03125 0.67188 0.375 0.65625 0.29688-0.015625 0.4375-0.28125 0.39062-0.54688-0.078125-0.40625-0.51562-0.67188-0.9375-0.70312-0.125-0.03125-0.26562-0.03125-0.39062 0-1.0781 0.20312-1.3438 1.5156-1.4688 2.4219-0.03125 0.1875-0.046875 0.39062-0.078125 0.57812zm-0.046875 0.40625c-0.1875 1.3594-0.29688 2.7656-0.42188 4.1562-0.70312-0.21875-1.2344-0.73438-1.4688-1.4844-0.015625-0.046875-0.03125-0.10938-0.015625-0.15625 0.0625-0.10938 0.17188-0.20312 0.23438-0.29688l0.53125-0.60938c0.046875-0.078125 0.25-0.25 0.15625-0.34375-0.078125-0.078125-0.20312 0.078125-0.26562 0.14062-0.23438 0.20312-0.45312 0.42188-0.70312 0.59375 0.046875-0.28125 0.078125-0.53125 0.1875-0.78125 0.3125-0.65625 1.0156-1.1875 1.7656-1.2188zm0.76562 0.078125c0.17188 0.0625 0.35938 0.125 0.53125 0.23438 0.40625 0.26562 0.73438 0.67188 0.875 1.125 0.35938 1.0781-0.1875 2.2656-1.25 2.6562-0.1875 0.078125-0.39062 0.125-0.59375 0.125 0.21875-1.2031 0.29688-2.4219 0.39062-3.6875 0.015625-0.14062 0-0.3125 0.046875-0.45312z"/>
</g>
</defs>
<g transform="translate(-148.57 -126.73)">
<use x="148.71201" y="126.739" xlink:href="#a"/>
</g>
</svg>
