<?xml version="1.0" encoding="UTF-8"?>
<svg fill="#000000" version="1.1" viewBox="0 0 6.625 5.3824" xmlns="http://www.w3.org/2000/svg" xmlns:xlink="http://www.w3.org/1999/xlink">
<defs>
<g id="b">
<path d="m1.9062-0.53125c0-0.28125-0.23438-0.53125-0.51562-0.53125-0.29688 0-0.53125 0.25-0.53125 0.53125 0 0.29688 0.23438 0.53125 0.53125 0.53125 0.28125 0 0.51562-0.23438 0.51562-0.53125z"/>
</g>
<g id="a">
<path d="m6.8438-3.2656c0.15625 0 0.34375 0 0.34375-0.1875 0-0.20312-0.1875-0.20312-0.32812-0.20312h-5.9688c-0.14062 0-0.32812 0-0.32812 0.20312 0 0.1875 0.1875 0.1875 0.32812 0.1875zm0.015625 1.9375c0.14062 0 0.32812 0 0.32812-0.20312 0-0.1875-0.1875-0.1875-0.34375-0.1875h-5.9531c-0.14062 0-0.32812 0-0.32812 0.1875 0 0.20312 0.1875 0.20312 0.32812 0.20312z"/>
</g>
</defs>
<g transform="translate(-149.27 -128.05)">
<use x="151.203" y="129.117" xlink:href="#b"/>
<use x="148.71201" y="134.765" xlink:href="#a"/>
</g>
</svg>
