<?xml version="1.0" encoding="UTF-8"?>
<svg fill="#000000" version="1.1" viewBox="0 0 3.8281 4.2969" xmlns="http://www.w3.org/2000/svg" xmlns:xlink="http://www.w3.org/1999/xlink">
<defs>
<g id="a">
<path d="m0.34375-4.3125v0.25c0.14062 0 0.26562 0 0.40625 0.015625 0.078125 0.015625 0.17188 0.046875 0.21875 0.125 0.0625 0.078125 0.046875 0.20312 0.046875 0.29688v2.9219c0 0.10938 0 0.21875-0.046875 0.29688-0.046875 0.09375-0.125 0.10938-0.21875 0.14062-0.125 0.015625-0.26562 0.015625-0.40625 0.015625v0.23438h3.6562l0.10938-0.9375 0.0625-0.51562h-0.25c-0.03125 0.1875-0.046875 0.375-0.125 0.57812-0.03125 0.078125-0.078125 0.15625-0.14062 0.25-0.28125 0.375-0.76562 0.39062-1.2031 0.39062h-0.45312c-0.078125 0-0.17188-0.015625-0.21875-0.0625-0.0625-0.078125-0.0625-0.20312-0.0625-0.28125v-0.54688-2.4688c0-0.10938 0-0.23438 0.0625-0.3125s0.15625-0.10938 0.25-0.125c0.1875-0.015625 0.35938-0.015625 0.54688-0.015625v-0.25l-0.9375 0.03125h-0.90625z"/>
</g>
</defs>
<g transform="translate(-149.06 -130.45)">
<use x="148.71201" y="134.765" xlink:href="#a"/>
</g>
</svg>
