<?xml version="1.0" encoding="UTF-8"?>
<svg fill="#000000" version="1.1" viewBox="0 0 12.688 6" xmlns="http://www.w3.org/2000/svg" xmlns:xlink="http://www.w3.org/1999/xlink">
<defs>
<g id="a">
<path d="m13.312-2.5625c0-1.6562-1.3438-3-3-3-1.5625 0-2.8438 1.2031-2.9844 2.7344h-5.6406l1.1875-1.4375-0.29688-0.32812-1.9531 2.0312 1.9531 2.0469 0.29688-0.32812-1.1875-1.4219h5.6406c0.15625 1.5156 1.4375 2.7031 2.9844 2.7031 1.6562 0 3-1.3438 3-3zm-0.4375 0c0 1.4062-1.1562 2.5469-2.5625 2.5469-1.3906 0-2.5469-1.1406-2.5469-2.5469s1.1562-2.5469 2.5469-2.5469c1.4062 0 2.5625 1.1406 2.5625 2.5469zm-2 0c0-0.3125-0.25-0.5625-0.54688-0.5625s-0.5625 0.25-0.5625 0.5625c0 0.375 0.34375 0.53125 0.54688 0.53125 0.21875 0 0.5625-0.15625 0.5625-0.53125z"/>
</g>
</defs>
<g transform="translate(-149.34 -129.2)">
<use x="148.71201" y="134.765" xlink:href="#a"/>
</g>
</svg>
