<?xml version="1.0" encoding="UTF-8"?>
<svg fill="#000000" version="1.1" viewBox="0 0 4.9688 8.3594" xmlns="http://www.w3.org/2000/svg" xmlns:xlink="http://www.w3.org/1999/xlink">
<defs>
<g id="a">
<path d="m1.9219-0.35938-0.5625-2.7812-1.0625 1.6719-0.0625 0.10938 0.14062 0.15625 0.60938-0.9375c0.015625 0.26562 0.10938 0.53125 0.15625 0.8125 0.10938 0.53125 0.21875 1.0781 0.32812 1.625l0.10938 0.5625c0 0.0625 0 0.17188 0.09375 0.17188h0.078125c0.21875 0 0.25-0.125 0.29688-0.29688l0.39062-1.5c0.5-1.9531 0.98438-3.9062 1.5312-5.8438 0.03125-0.10938 0.0625-0.20312 0.078125-0.3125h0.98438c0.09375-0.015625 0.17188-0.10938 0.17188-0.20312 0-0.17188-0.15625-0.20312-0.28125-0.20312h-0.89062c-0.35938 0-0.35938 0.23438-0.42188 0.53125-0.51562 2.0156-1.0312 4.0312-1.5781 6.0469-0.03125 0.125-0.09375 0.26562-0.10938 0.39062z"/>
</g>
</defs>
<g transform="translate(-148.95 -127.44)">
<use x="148.71201" y="134.765" xlink:href="#a"/>
</g>
</svg>
