<?xml version="1.0" encoding="UTF-8"?>
<svg fill="#000000" version="1.1" viewBox="0 0 9.5156 7.5156" xmlns="http://www.w3.org/2000/svg" xmlns:xlink="http://www.w3.org/1999/xlink">
<defs>
<g id="a">
<path d="m0.45312-6.3594c0.09375-0.1875 0.25-0.28125 0.5-0.28125 0.17188 0 0.34375 0.17188 0.48438 0.5v4.6875h1.0469v-4.7656l0.42188-0.42188c0.46875 0 0.75 0.09375 0.82812 0.28125l0.078125 4.9062h1.0469v-4.7656l0.42188-0.42188c0.45312 0 0.73438 0.17188 0.84375 0.5v5.0312l0.34375 0.82812c0.40625 0.4375 1.0156 0.65625 1.8281 0.65625h0.46875c0.60938-0.17188 0.90625-0.48438 0.90625-0.92188 0-0.17188-0.03125-0.34375-0.125-0.5625l0.42188-0.34375-1.125-1.0625v1.6875l0.48438-0.28125c0.125 0.125 0.15625 0.20312 0.15625 0.5625-0.39062 0.35938-0.73438 0.54688-1.0469 0.54688-0.5 0-0.89062-0.45312-1.2031-1.3281v-5.1094c-0.26562-0.48438-0.53125-0.70312-1.4375-0.70312-0.39062 0-0.67188 0.15625-0.85938 0.5l-0.29688-0.26562-0.48438-0.21875h-0.90625c-0.28125 0-0.51562 0.1875-0.70312 0.5625l-0.34375-0.42188c-0.046875-0.14062-0.0625-0.14062-1.0469-0.14062-0.42188 0.14062-0.65625 0.39062-0.70312 0.76562z"/>
</g>
</defs>
<g transform="translate(-149.17 -127.62)">
<use x="148.71201" y="134.765" xlink:href="#a"/>
</g>
</svg>
