<?xml version="1.0" encoding="UTF-8"?>
<svg fill="#000000" version="1.1" viewBox="0 0 5.5119 4.609" xmlns="http://www.w3.org/2000/svg" xmlns:xlink="http://www.w3.org/1999/xlink">
<defs>
<g id="a">
<path d="m3-0.6875c0.09375 0.21875 0.20312 0.4375 0.39062 0.59375 0.23438 0.15625 0.5 0.21875 0.78125 0.1875 0.4375-0.046875 0.84375-0.26562 1.125-0.60938 0.64062-0.75 0.64062-1.875 0.14062-2.7031-0.14062-0.23438-0.29688-0.4375-0.5-0.59375-1.125-1-2.9688-0.90625-3.9844 0.1875-0.17188 0.17188-0.3125 0.39062-0.42188 0.60938-0.125 0.25-0.21875 0.53125-0.23438 0.82812-0.03125 0.29688 0 0.60938 0.0625 0.90625 0.14062 0.48438 0.42188 0.96875 0.89062 1.2188 0.42188 0.21875 0.96875 0.23438 1.3594-0.0625 0.09375-0.078125 0.17188-0.17188 0.23438-0.28125 0.0625-0.078125 0.125-0.1875 0.15625-0.28125zm-0.015625-2.1719c-0.09375 0.015625-0.15625 0.10938-0.1875 0.20312-0.015625 0.0625 0 0.14062 0 0.1875v0.4375c0 0.20312 0.03125 0.42188 0.046875 0.64062 0.015625 0.09375 0.046875 0.20312 0.046875 0.3125-0.015625 0.078125-0.046875 0.1875-0.078125 0.26562-0.10938 0.28125-0.3125 0.57812-0.64062 0.65625-0.078125 0.03125-0.17188 0.03125-0.26562 0.03125-0.046875 0-0.10938 0-0.15625-0.03125-0.42188-0.10938-0.53125-0.625-0.57812-0.98438-0.015625-0.078125-0.03125-0.15625-0.03125-0.23438-0.03125-0.3125-0.046875-0.625 0-0.95312 0.078125-0.57812 0.34375-1.1719 0.8125-1.5625 0.125-0.10938 0.28125-0.20312 0.4375-0.26562 0.1875-0.078125 0.375-0.125 0.5625-0.125 0.20312 0 0.375 0 0.5625 0.0625 0.15625 0.046875 0.32812 0.125 0.46875 0.21875 0.82812 0.5625 1.0625 1.625 0.95312 2.5781-0.015625 0.078125-0.015625 0.15625-0.03125 0.23438-0.078125 0.42188-0.28125 0.96875-0.76562 1.0625h-0.20312c-0.078125 0-0.15625-0.03125-0.23438-0.046875-0.25-0.125-0.40625-0.35938-0.48438-0.60938-0.03125-0.09375-0.0625-0.1875-0.078125-0.28125 0-0.10938 0.046875-0.23438 0.0625-0.34375 0.03125-0.21875 0.0625-0.45312 0.078125-0.67188 0-0.14062 0.015625-0.26562 0.015625-0.39062 0-0.078125 0-0.14062-0.015625-0.21875-0.046875-0.10938-0.15625-0.20312-0.29688-0.17188z"/>
</g>
</defs>
<g transform="translate(-149 -130.26)">
<use x="148.71201" y="134.765" xlink:href="#a"/>
</g>
</svg>
