<?xml version="1.0" encoding="UTF-8"?>
<svg fill="#000000" version="1.1" viewBox="0 0 9.9844 7.2656" xmlns="http://www.w3.org/2000/svg" xmlns:xlink="http://www.w3.org/1999/xlink">
<defs>
<g id="a">
<path d="m2.4062-1.2812c0.125-0.82812 0.21875-1.6562 0.21875-2.5 0-0.29688 0-1.4062-0.34375-2.125-0.39062-0.79688-0.92188-0.90625-1.25-0.90625-0.34375 0-0.6875 0.28125-0.6875 0.42188 0 0.078125 0.046875 0.078125 0.17188 0.078125 0.4375 0.046875 0.85938 0.25 1.125 1.0625 0.21875 0.625 0.25 1.375 0.25 1.8125 0 1.5-0.35938 3.2344-0.42188 3.4688-0.015625 0.125-0.03125 0.17188-0.03125 0.26562 0 0.03125 0 0.15625 0.0625 0.15625s0.0625-0.015625 0.21875-0.20312c1.1094-1.3125 2.2188-2.8281 3.3125-4.7188 0.375-0.6875 0.64062-1.2188 0.6875-1.2812 0.29688 0.92188 0.625 2.2969 0.82812 3.9219 0.046875 0.53125 0.10938 1.1406 0.10938 1.6719 0 0.03125 0.015625 0.5 0.015625 0.53125s0.03125 0.078125 0.0625 0.078125c0.046875 0 0.0625-0.015625 0.21875-0.1875 1.2344-1.3906 3.375-4.2969 3.375-6.0156 0-0.79688-0.42188-1.0625-0.73438-1.0625-0.26562 0-0.42188 0.60938-0.42188 0.76562 0 0.14062 0.046875 0.14062 0.125 0.15625 0.14062 0.015625 0.59375 0.09375 0.59375 0.75 0 1.1406-2.4375 4.2031-2.5 4.2031-0.015625 0-0.015625-0.015625-0.03125-0.23438-0.10938-2.1406-0.6875-4.4375-1.0938-5.5312-0.03125-0.0625-0.03125-0.10938-0.14062-0.10938-0.1875 0-0.60938 0.25-0.60938 0.4375 0 0.03125 0.03125 0.125 0.0625 0.17188-0.60938 1.1562-1.5156 2.8281-3.1719 4.9219z"/>
</g>
</defs>
<g transform="translate(-149.06 -127.95)">
<use x="148.71201" y="134.765" xlink:href="#a"/>
</g>
</svg>
