<?xml version="1.0" encoding="UTF-8"?>
<svg fill="#000000" version="1.1" viewBox="0 0 7.4375 6.8125" xmlns="http://www.w3.org/2000/svg" xmlns:xlink="http://www.w3.org/1999/xlink">
<defs>
<g id="a">
<path d="m2.0312 0c2.3281 0 5.6094-1.7812 5.6094-4.5 0-0.89062-0.42188-1.4375-0.90625-1.75-0.85938-0.5625-1.7812-0.5625-2.7344-0.5625-0.84375 0-1.4375 0-2.2812 0.35938-1.3125 0.59375-1.5156 1.4219-1.5156 1.5 0 0.0625 0.046875 0.078125 0.10938 0.078125 0.15625 0 0.39062-0.14062 0.46875-0.1875 0.20312-0.14062 0.23438-0.20312 0.29688-0.39062 0.14062-0.40625 0.42188-0.75 1.6719-0.8125-0.15625 2.0938-0.67188 4-1.3594 5.7344-0.375 0.125-0.60938 0.35938-0.60938 0.46875 0 0.046875 0 0.0625 0.21875 0.0625zm0.046875-0.54688c1.1406-2.7812 1.3438-4.5156 1.4844-5.7188 0.67188 0 3.2188 0 3.2188 2.2031 0 1.9531-1.75 3.5156-4.1562 3.5156z"/>
</g>
</defs>
<g transform="translate(-148.92 -127.95)">
<use x="148.71201" y="134.765" xlink:href="#a"/>
</g>
</svg>
