<?xml version="1.0" encoding="UTF-8"?>
<svg fill="#000000" version="1.1" viewBox="0 0 6.6425 8.8455" xmlns="http://www.w3.org/2000/svg" xmlns:xlink="http://www.w3.org/1999/xlink">
<defs>
<g id="a">
<path d="m4.2656-5.8281c-0.28125 0-0.5625-0.015625-0.84375 0.015625-0.40625 0.046875-0.79688 0.1875-1.1562 0.375-0.29688 0.17188-0.59375 0.39062-0.8125 0.64062-0.375 0.42188-0.65625 0.90625-0.79688 1.4531-0.28125 1.1406 0.046875 2.4062 0.89062 3.2344 0.5 0.48438 1.1406 0.8125 1.8281 0.90625 0.29688 0.046875 0.59375 0.03125 0.89062 0.03125v0.67188c0 0.10938-0.015625 0.23438 0.015625 0.32812 0.03125 0.10938 0.14062 0.09375 0.21875 0.09375 0.03125 0 0.078125 0 0.125-0.03125 0.0625-0.0625 0.046875-0.20312 0.046875-0.28125v-0.78125h2.3125c0.046875 0 0.10938 0.015625 0.15625-0.015625 0.078125-0.0625 0.0625-0.21875 0.046875-0.29688s-0.09375-0.09375-0.15625-0.09375h-0.4375-1.9219v-1.1562h1.7656 0.32812c0.046875 0 0.10938 0 0.125-0.046875 0.046875-0.046875 0.03125-0.10938 0.03125-0.17188v-0.10938c-0.03125-0.0625-0.09375-0.078125-0.15625-0.078125h-0.39062-1.7031v-2.7344h1.7656 0.32812c0.046875 0 0.10938 0 0.125-0.03125 0.046875-0.046875 0.03125-0.125 0.03125-0.17188v-0.10938c-0.03125-0.0625-0.09375-0.078125-0.15625-0.078125h-0.39062-1.7031v-1.1719h1.9219 0.4375c0.0625 0 0.14062 0 0.15625-0.078125 0.015625-0.09375 0.03125-0.25-0.046875-0.29688-0.046875-0.03125-0.10938-0.015625-0.15625-0.015625h-2.3125v-0.79688c0-0.078125 0.015625-0.21875-0.046875-0.26562-0.046875-0.03125-0.09375-0.03125-0.125-0.03125-0.078125 0-0.1875-0.015625-0.21875 0.078125-0.03125 0.10938-0.015625 0.23438-0.015625 0.32812zm0 5.0938v1.1562c-0.26562 0-0.53125 0.015625-0.8125-0.015625-0.32812-0.046875-0.67188-0.15625-0.96875-0.3125-0.26562-0.14062-0.48438-0.32812-0.6875-0.53125-0.8125-0.8125-1.0469-2.0781-0.64062-3.1406 0.17188-0.42188 0.42188-0.79688 0.75-1.1094 0.42188-0.35938 0.9375-0.625 1.4844-0.71875 0.28125-0.03125 0.59375-0.03125 0.875-0.03125v1.1719c-0.1875 0-0.375-0.015625-0.5625 0-0.25 0.015625-0.5 0.09375-0.71875 0.23438-0.14062 0.078125-0.25 0.15625-0.35938 0.26562-0.5625 0.59375-0.65625 1.5156-0.25 2.2031 0.09375 0.14062 0.20312 0.28125 0.3125 0.39062 0.25 0.21875 0.57812 0.375 0.90625 0.42188 0.21875 0.03125 0.45312 0.015625 0.67188 0.015625zm0-3.1406v2.7344c-0.375 0-0.73438 0.03125-1.0625-0.15625-0.10938-0.078125-0.21875-0.17188-0.32812-0.26562-0.53125-0.57812-0.4375-1.5312 0.17188-2.0312 0.15625-0.14062 0.375-0.21875 0.59375-0.25 0.20312-0.046875 0.42188-0.03125 0.625-0.03125z"/>
</g>
</defs>
<g transform="translate(-149.27 -127.84)">
<use x="148.71201" y="134.765" xlink:href="#a"/>
</g>
</svg>
