<?xml version="1.0" encoding="UTF-8"?>
<svg fill="#000000" version="1.1" viewBox="0 0 8.7969 5.5625" xmlns="http://www.w3.org/2000/svg" xmlns:xlink="http://www.w3.org/1999/xlink">
<defs>
<g id="a">
<path d="m9.0469-0.51562c-0.5-0.84375-1.9844-1.6562-3.1094-2 1.125-0.35938 2.6094-1.1562 3.1094-2.0156v-0.76562c-1.1875 1.5938-3.4062 2.2812-5.2344 2.4531v0.65625c1.8281 0.15625 4.0469 0.84375 5.2344 2.4531zm-3.5625 0c-0.5-0.84375-1.9844-1.6562-3.1094-2 1.125-0.35938 2.6094-1.1562 3.1094-2.0156v-0.76562c-1.2031 1.5938-3.4062 2.2812-5.2344 2.4531v0.65625c1.8281 0.15625 4.0312 0.84375 5.2344 2.4531z"/>
</g>
</defs>
<g transform="translate(-148.96 -129.47)">
<use x="148.71201" y="134.765" xlink:href="#a"/>
</g>
</svg>
