<?xml version="1.0" encoding="UTF-8"?>
<svg fill="#000000" version="1.1" viewBox="0 0 3.4219 4.25" xmlns="http://www.w3.org/2000/svg" xmlns:xlink="http://www.w3.org/1999/xlink">
<defs>
<g id="a">
<path d="m1.0938-7.1719c0.26562-0.125 0.5-0.21875 0.8125-0.21875 0.64062 0 1.0938 0.45312 1.0938 1.0469 0 0.42188-0.28125 0.73438-0.59375 0.98438-0.53125 0.42188-1.1406 0.75-1.7031 1.1094-0.10938 0.078125-0.20312 0.10938-0.20312 0.26562v0.51562h3.1406l0.28125-1.75h-0.25c-0.09375 0.54688-0.03125 0.96875-0.625 0.96875h-0.20312c-0.23438 0-0.46875 0.015625-0.70312 0.015625-0.32812 0-0.65625-0.015625-0.98438-0.015625 0.15625-0.09375 0.3125-0.17188 0.46875-0.25 0.3125-0.1875 0.625-0.35938 0.95312-0.5 0.60938-0.26562 1.3438-0.57812 1.3438-1.3594 0-0.89062-0.9375-1.3594-1.8125-1.3594-0.5625 0-1.6094 0.21875-1.6094 1.0625 0 0.26562 0.17188 0.53125 0.53125 0.53125 0.32812 0 0.51562-0.25 0.51562-0.51562 0-0.34375-0.23438-0.45312-0.45312-0.53125z"/>
</g>
</defs>
<g transform="translate(-149.21 -127.05)">
<use x="148.71201" y="134.765" xlink:href="#a"/>
</g>
</svg>
