<?xml version="1.0" encoding="UTF-8"?>
<svg fill="#000000" version="1.1" viewBox="0 0 7.7707 5.0781" xmlns="http://www.w3.org/2000/svg" xmlns:xlink="http://www.w3.org/1999/xlink">
<defs>
<g id="b">
<path d="m4.5469-2.2656c0.15625-0.09375 0.17188-0.17188 0.17188-0.23438 0-0.046875-0.015625-0.125-0.17188-0.21875l-3.8906-2.2344c-0.125-0.078125-0.17188-0.078125-0.20312-0.078125-0.1875 0-0.1875 0.20312-0.1875 0.35938v4.3594c0 0.15625 0 0.35938 0.1875 0.35938 0.03125 0 0.0625 0 0.1875-0.0625zm-0.4375-0.23438-3.4531 2v-3.9844z"/>
</g>
<g id="a">
<path d="m0.46875-2.7188c-0.14062 0.078125-0.20312 0.10938-0.20312 0.21875 0 0.078125 0.03125 0.15625 0.1875 0.23438l3.875 2.2344c0.09375 0.046875 0.14062 0.078125 0.1875 0.078125 0.20312 0 0.20312-0.17188 0.20312-0.35938v-4.3594c0-0.1875 0-0.35938-0.20312-0.35938-0.046875 0-0.09375 0.03125-0.17188 0.0625zm0.39062 0.21875 3.4531-1.9844v3.9844z"/>
</g>
</defs>
<g transform="translate(-148.98 -129.73)">
<use x="148.71201" y="134.765" xlink:href="#b"/>
<use x="152.02954" y="134.765" xlink:href="#a"/>
</g>
</svg>
