<?xml version="1.0" encoding="UTF-8"?>
<svg fill="#000000" version="1.1" viewBox="0 0 9.9688 10.422" xmlns="http://www.w3.org/2000/svg" xmlns:xlink="http://www.w3.org/1999/xlink">
<defs>
<g id="a">
<path d="m5.2969-7.7031c-0.26562 0.03125-0.54688 0.046875-0.8125 0.10938-2.2656 0.53125-3.9375 2.625-3.9375 5.0781 0 2.1562 1.3438 4.375 3.6562 5.0312 0.4375 0.125 0.89062 0.20312 1.3438 0.20312 2.75 0 4.875-2.3594 4.9688-5.0156v-0.20312c0-2.6719-2.0156-5.2031-5.0781-5.2031zm-4.3438 5.4062v-0.14062c0-2.4844 1.7812-4.875 4.5781-4.875h0.14062c2.3594 0.10938 4.4531 2.1094 4.4531 4.8125 0 2.4375-1.875 4.7969-4.625 4.7969-2.1719 0-4.0625-1.6875-4.4688-3.8594-0.046875-0.23438-0.046875-0.48438-0.078125-0.73438zm4.5156-2.7031c-1.125 0.14062-2.25 0.65625-2.625 1.9531-0.046875 0.21875-0.078125 0.4375-0.078125 0.67188v0.078125c0.078125 1.5156 1.4688 2.5 2.8438 2.5 1.0625 0 2.0625-0.67188 2.1406-1.8125v-0.046875c0-0.078125-0.046875-0.14062-0.14062-0.14062-0.078125 0-0.10938 0.0625-0.10938 0.14062v0.0625c-0.10938 0.89062-0.875 1.4844-1.75 1.4844-0.54688 0-1.0938-0.21875-1.4688-0.625-0.39062-0.45312-0.5-1.0938-0.5-1.6719 0-0.46875 0.0625-1 0.32812-1.3906 0.32812-0.54688 0.96875-0.89062 1.6094-0.89062 0.9375 0 1.5 0.70312 1.7031 1.5469 0.015625 0.10938-0.015625 0.23438 0.17188 0.23438 0.10938 0 0.15625-0.03125 0.15625-0.10938v-1.8125c0-0.078125-0.03125-0.17188-0.10938-0.17188-0.1875 0-0.48438 0.53125-0.60938 0.53125-0.046875 0-0.10938-0.078125-0.14062-0.10938-0.375-0.26562-0.79688-0.42188-1.2656-0.42188h-0.15625z"/>
</g>
</defs>
<g transform="translate(-149.26 -127.06)">
<use x="148.71201" y="134.765" xlink:href="#a"/>
</g>
</svg>
