<?xml version="1.0" encoding="UTF-8"?>
<svg fill="#000000" version="1.1" viewBox="0 0 4.3125 10.094" xmlns="http://www.w3.org/2000/svg" xmlns:xlink="http://www.w3.org/1999/xlink">
<defs>
<g id="a">
<path d="m4.875-3.4375c0-0.078125-0.046875-0.15625-0.10938-0.20312l-1.3906-0.79688 0.79688-2.9688c0.03125-0.09375-0.03125-0.1875-0.14062-0.1875-0.0625 0-0.125 0.03125-0.14062 0.10938l-0.78125 2.8906-2.2188-1.2656c-0.015625-0.015625-0.0625-0.03125-0.10938-0.03125-0.10938 0-0.21875 0.09375-0.21875 0.23438 0 0.0625 0.03125 0.14062 0.10938 0.1875l2.3125 1.3281-0.29688 1.0938-1.7969-1.0469c-0.015625-0.015625-0.0625-0.015625-0.10938-0.015625-0.10938 0-0.21875 0.09375-0.21875 0.21875 0 0.078125 0.03125 0.15625 0.10938 0.20312l1.9062 1.0938-0.59375 2.2188-1.3125 0.75c-0.078125 0.046875-0.10938 0.125-0.10938 0.20312 0 0.125 0.10938 0.21875 0.21875 0.21875 0.046875 0 0.09375-0.015625 0.10938-0.03125l0.92188-0.53125-0.5625 2.0781c-0.015625 0.09375 0.046875 0.1875 0.15625 0.1875 0.0625 0 0.125-0.03125 0.14062-0.10938l0.64062-2.3594 2.5781-1.4844c0.0625-0.046875 0.10938-0.10938 0.10938-0.20312s-0.046875-0.15625-0.10938-0.20312l-1.8125-1.0312 0.29688-1.0938 1.2812 0.75c0.03125 0.015625 0.078125 0.03125 0.10938 0.03125 0.125 0 0.23438-0.10938 0.23438-0.23438zm-2.0312 1 1.3438 0.78125-1.8438 1.0625z"/>
</g>
</defs>
<g transform="translate(-149.27 -127.17)">
<use x="148.71201" y="134.765" xlink:href="#a"/>
</g>
</svg>
