<?xml version="1.0" encoding="UTF-8"?>
<svg fill="#000000" version="1.1" viewBox="0 0 5.1406 5.1562" xmlns="http://www.w3.org/2000/svg" xmlns:xlink="http://www.w3.org/1999/xlink">
<defs>
<g id="a">
<path d="m0.71875-5.1562c-0.09375 0.015625-0.15625 0.09375-0.15625 0.1875 0 0.14062 0.125 0.21875 0.21875 0.3125l0.35938 0.35938c0.4375 0.42188 0.84375 0.84375 1.2656 1.2812l0.3125 0.29688c0.03125 0.03125 0.09375 0.078125 0.09375 0.125v0.015625c-0.015625 0.0625-0.09375 0.10938-0.125 0.14062l-1.6875 1.6875-0.25 0.26562c-0.078125 0.078125-0.1875 0.15625-0.1875 0.28125 0 0.10938 0.078125 0.1875 0.1875 0.1875 0.14062 0 0.26562-0.15625 0.35938-0.25l0.09375-0.10938 1.7812-1.7812c0.046875-0.046875 0.09375-0.10938 0.14062-0.10938h0.03125c0.046875 0.015625 0.10938 0.10938 0.15625 0.14062l0.34375 0.34375c0.54688 0.5625 1.0781 1.1406 1.6406 1.6562 0.0625 0.0625 0.14062 0.10938 0.21875 0.10938 0.10938 0 0.1875-0.10938 0.1875-0.20312s-0.09375-0.17188-0.15625-0.23438l-0.25-0.25c-0.46875-0.46875-0.9375-0.95312-1.4062-1.4219l-0.34375-0.34375c-0.03125-0.03125-0.09375-0.078125-0.09375-0.125v-0.015625c0-0.03125 0.046875-0.0625 0.0625-0.078125l0.1875-0.1875c0.4375-0.4375 0.875-0.89062 1.3125-1.3281l0.45312-0.4375c0.078125-0.09375 0.23438-0.20312 0.23438-0.32812 0-0.10938-0.09375-0.20312-0.20312-0.20312s-0.20312 0.125-0.28125 0.1875l-0.32812 0.32812c-0.39062 0.39062-0.75 0.76562-1.1406 1.1562l-0.45312 0.45312c-0.03125 0.03125-0.10938 0.14062-0.17188 0.14062-0.0625-0.015625-0.10938-0.09375-0.15625-0.14062l-0.32812-0.32812c-0.42188-0.42188-0.85938-0.85938-1.2812-1.2969l-0.39062-0.375c-0.0625-0.0625-0.125-0.125-0.20312-0.125-0.015625 0-0.03125 0.015625-0.046875 0.015625zm2.4062 3.8594c-0.35938 0-0.64062 0.29688-0.64062 0.64062 0 0.32812 0.25 0.64062 0.67188 0.64062 0.375 0 0.625-0.32812 0.625-0.65625 0-0.28125-0.25-0.625-0.625-0.625zm-1.9844-1.9375c-0.35938 0.0625-0.57812 0.32812-0.57812 0.65625 0 0.35938 0.28125 0.64062 0.70312 0.64062 0.32812-0.0625 0.57812-0.3125 0.57812-0.65625 0-0.375-0.28125-0.64062-0.70312-0.64062zm1.9062-1.9375c-0.32812 0.046875-0.5625 0.34375-0.5625 0.64062 0 0.375 0.3125 0.64062 0.67188 0.64062h0.078125c0.3125-0.03125 0.53125-0.32812 0.53125-0.625 0-0.375-0.26562-0.65625-0.71875-0.65625zm1.9531 1.9375c-0.32812 0.046875-0.57812 0.29688-0.57812 0.625 0 0.39062 0.26562 0.67188 0.70312 0.67188 0.35938-0.078125 0.57812-0.32812 0.57812-0.67188s-0.29688-0.625-0.70312-0.625z"/>
</g>
</defs>
<g transform="translate(-149.27 -129.59)">
<use x="148.71201" y="134.765" xlink:href="#a"/>
</g>
</svg>
