<?xml version="1.0" encoding="UTF-8"?>
<svg fill="#000000" version="1.1" viewBox="0 0 8.1562 6.8906" xmlns="http://www.w3.org/2000/svg" xmlns:xlink="http://www.w3.org/1999/xlink">
<defs>
<g id="a">
<path d="m8.3281-0.59375c-0.70312 0-1.6562 0.046875-2.5 0.078125v-0.10938c1.3438-0.54688 1.8438-1.9219 1.8438-3.2188 0-1.5156-0.6875-3.0312-3.0625-3.0312-0.98438 0-1.9688 0.23438-2.6719 0.9375-0.6875 0.6875-0.95312 1.6094-0.95312 2.5625 0 1.125 0.29688 2.0938 1.3906 2.6875l-0.0625 0.15625c-0.53125-0.0625-1.2812-0.09375-1.8906-0.10938l-0.17188 0.59375c0.39062-0.015625 0.79688-0.03125 1.2031-0.03125 0.6875 0 1.375 0.03125 2.0781 0.09375l0.20312-0.54688c-1.4375-0.28125-1.875-1.5781-1.875-2.75 0-1.5938 0.67188-3.2344 2.5625-3.2344 1.6719 0 2.3438 1.4844 2.3438 2.8438 0 1.375-0.42188 2.75-1.9531 3.1094l-0.09375 0.57812c0.5625-0.046875 1.1094-0.0625 1.6719-0.0625 0.59375 0 1.1875 0.015625 1.7812 0.0625l0.23438-0.53125z"/>
</g>
</defs>
<g transform="translate(-148.96 -127.89)">
<use x="148.71201" y="134.765" xlink:href="#a"/>
</g>
</svg>
