<?xml version="1.0" encoding="UTF-8"?>
<svg fill="#000000" version="1.1" viewBox="0 0 5.5312 7.0781" xmlns="http://www.w3.org/2000/svg" xmlns:xlink="http://www.w3.org/1999/xlink">
<defs>
<g id="a">
<path d="m2.9219-5.9844c-0.59375 0.25-1.125 0.60938-1.6406 1-0.28125 0.5625-0.42188 1.1719-0.42188 1.7969 0 0.92188 0.17188 1.9375 0.82812 2.5938 0.57812 0.5625 1.4531 0.82812 2.3281 0.82812 0.28125 0 0.54688-0.03125 0.8125-0.078125 0.5-0.3125 1-0.64062 1.4375-1.0156v-0.20312c-0.40625 0.26562-1.0156 0.60938-1.5781 0.60938-0.8125 0-1.6406-0.28125-2.25-0.875-0.59375-0.59375-0.79688-1.4375-0.79688-2.2812 0-0.85938 0.34375-1.9844 1.3906-2.0156-0.03125 0.10938-0.046875 0.21875-0.046875 0.32812 0 0.60938 0.32812 1.2344 0.32812 1.875 0 0.23438-0.015625 0.54688-0.17188 0.71875-0.25 0.17188-0.51562 0.32812-0.79688 0.375l0.15625 0.15625c0.73438-0.10938 1.5625-0.42188 1.75-1.2344 0.10938-0.078125 0.23438-0.14062 0.375-0.14062 0.046875 0 0.09375 0.015625 0.15625 0.046875l0.57812 0.42188 0.67188-0.375v-0.09375c-0.29688-0.20312-0.5625-0.45312-0.76562-0.75l-1.0156 0.625c0-0.6875-0.078125-0.92188-0.23438-1.375-0.0625-0.17188-0.09375-0.39062-0.09375-0.59375 0.015625-0.25 0.28125-0.53125 0.5-0.60938 0.21875 0.375 0.51562 0.84375 0.78125 1 0.39062-0.046875 0.82812-0.25 1.1875-0.40625v-0.21875c-0.125 0.03125-0.3125 0.078125-0.48438 0.078125-0.20312 0-0.25-0.078125-0.3125-0.23438l-0.28125-0.8125c-0.71875 0.28125-1.4375 0.5625-2.0781 1.0156z"/>
</g>
</defs>
<g transform="translate(-149.57 -127.92)">
<use x="148.71201" y="134.765" xlink:href="#a"/>
</g>
</svg>
