<?xml version="1.0" encoding="UTF-8"?>
<svg fill="#000000" version="1.1" viewBox="0 0 5.625 5.5469" xmlns="http://www.w3.org/2000/svg" xmlns:xlink="http://www.w3.org/1999/xlink">
<defs>
<g id="a">
<path d="m0.60938-5.2812v0.67188h2.9219c1.1406 0 2.0469 1.0469 2.0469 2.1094 0 1.0781-0.89062 2.1094-2.0312 2.1094h-2.9375v0.65625h2.9375c1.5938 0 2.6875-1.2812 2.6875-2.7656 0-1.4688-1.0781-2.7812-2.6562-2.7812zm3.0781 2.7812c0-0.875-0.67188-1.5469-1.5469-1.5469-0.85938 0-1.5312 0.67188-1.5312 1.5469 0 0.85938 0.67188 1.5469 1.5312 1.5469 0.875 0 1.5469-0.6875 1.5469-1.5469zm-0.54688 0c0 0.53125-0.45312 1-1 1-0.53125 0-0.98438-0.46875-0.98438-1 0-0.54688 0.45312-1 0.98438-1 0.54688 0 1 0.45312 1 1z"/>
</g>
</defs>
<g transform="translate(-149.32 -129.48)">
<use x="148.71201" y="134.765" xlink:href="#a"/>
</g>
</svg>
