<?xml version="1.0" encoding="UTF-8"?>
<svg fill="#000000" version="1.1" viewBox="0 0 4.6562 7.1719" xmlns="http://www.w3.org/2000/svg" xmlns:xlink="http://www.w3.org/1999/xlink">
<defs>
<g id="a">
<path d="m0.29688-5.125c0.21875 1.2031 0.875 1.8906 1.9844 2.0938v1.7812h-0.96875v0.26562h0.96875v0.96875h0.75v-0.96875h0.95312v-0.26562h-0.95312v-1.7188c1.1094-0.23438 1.75-0.92188 1.9219-2.0625l-0.26562-0.0625c-0.40625 1.1094-1.0625 1.6875-1.9688 1.6875-1.1719-0.046875-1.8438-0.60938-2.1562-1.7656zm2.3281-2.0625c-1.0781 0.09375-1.6094 0.625-1.6094 1.6406 0 1.0781 0.71875 1.6875 1.9219 1.6875 0.76562-0.015625 1.4219-0.76562 1.4219-1.6875 0-0.125 0-0.25-0.015625-0.375-0.39062-0.84375-0.96875-1.2656-1.7188-1.2656zm0.32812 2.8906c-0.70312-0.09375-1.1562-0.70312-1.1562-1.5156 0-0.625 0.15625-0.90625 0.48438-0.90625 0.59375 0 1.2656 0.64062 1.2656 1.4688-0.015625 0.53125-0.125 0.95312-0.59375 0.95312z"/>
</g>
</defs>
<g transform="translate(-149.01 -127.58)">
<use x="148.71201" y="134.765" xlink:href="#a"/>
</g>
</svg>
