<?xml version="1.0" encoding="UTF-8"?>
<svg fill="#000000" version="1.1" viewBox="0 0 5.1406 7.3594" xmlns="http://www.w3.org/2000/svg" xmlns:xlink="http://www.w3.org/1999/xlink">
<defs>
<g id="a">
<path d="m1.3125-3.2344c0.015625-0.6875 0.54688-1.2969 1.2188-1.2969h0.20312c1.25 0.54688 1.8594 1.5156 1.8594 2.9219-0.015625 0.67188-0.73438 1.2969-1.25 1.2969-0.59375 0-2.0312-1.125-2.0312-2.9219zm-0.78125-4.0625c0 1.25 0.45312 2.0469 1.4219 2.4844-0.1875 0-0.54688 0.28125-1.0625 0.85938-0.32812 0.5-0.48438 1-0.48438 1.4844 0 0.17188 0.015625 0.34375 0.046875 0.5 0.46875 1.3594 1.3281 2.0312 2.5781 2.0312 1.3906 0 2.5156-1.1562 2.5156-2.5625 0-1.0469-0.54688-1.8125-1.6719-2.3125 0.65625-0.28125 1.125-0.73438 1.3438-1.3438l0.15625-1.1406c-0.39062 1.3594-1.0938 2.0469-2.0781 2.0469-0.46875 0-0.96875-0.14062-1.5469-0.40625-0.67188-0.48438-1.0781-1.0312-1.2188-1.6406z"/>
</g>
</defs>
<g transform="translate(-149.12 -127.47)">
<use x="148.71201" y="134.765" xlink:href="#a"/>
</g>
</svg>
