<?xml version="1.0" encoding="UTF-8"?>
<svg fill="#000000" version="1.1" viewBox="0 0 7.3906 7.3906" xmlns="http://www.w3.org/2000/svg" xmlns:xlink="http://www.w3.org/1999/xlink">
<defs>
<g id="a">
<path d="m5.5156-2.5156c0-0.73438-0.59375-1.3438-1.3125-1.3438-0.78125 0-1.375 0.57812-1.375 1.3281 0 0.76562 0.59375 1.3594 1.3438 1.3594s1.3438-0.59375 1.3438-1.3438zm-0.65625 0c0 0.39062-0.29688 0.6875-0.6875 0.6875s-0.6875-0.28125-0.6875-0.70312c0-0.375 0.29688-0.67188 0.71875-0.67188 0.35938 0 0.65625 0.29688 0.65625 0.6875zm3.0312 0c0-2.0469-1.6562-3.6875-3.6875-3.6875-2.0469 0-3.7031 1.6406-3.7031 3.6875s1.6562 3.7031 3.7031 3.7031c2.0312 0 3.6875-1.6562 3.6875-3.7031zm-0.65625 0c0 1.6719-1.3594 3.0469-3.0312 3.0469-1.6875 0-3.0469-1.375-3.0469-3.0469s1.3594-3.0312 3.0469-3.0312c1.6719 0 3.0312 1.3594 3.0312 3.0312z"/>
</g>
</defs>
<g transform="translate(-149.21 -128.56)">
<use x="148.71201" y="134.765" xlink:href="#a"/>
</g>
</svg>
