<?xml version="1.0" encoding="UTF-8"?>
<svg fill="#000000" width="3.2188" height="8.0938" version="1.1" viewBox="0 0 3.2188 8.0937" xmlns="http://www.w3.org/2000/svg" xmlns:xlink="http://www.w3.org/1999/xlink">
<defs>
<g id="a">
<path d="m1.9688 1.5c0.375 0 0.14062-0.82812 2.0312-1.7188 0.09375-0.046875 0.14062-0.125 0.14062-0.20312 0-0.14062-0.125-0.23438-0.23438-0.23438-0.23438 0-1.0312 0.64062-1.5938 0.92188 0.015625-0.29688 0.0625-0.57812 0.15625-0.8125 0.20312-0.48438 0.73438-0.9375 0.73438-1.6406 0-1.2031-1.4375-1.6562-1.4375-2.6406 0-0.78125 1-1.25 1-1.5469 0-0.10938-0.078125-0.21875-0.21875-0.21875-0.0625 0-0.125 0.03125-0.17188 0.0625-0.57812 0.57812-1.0625 0.98438-1.0625 1.7031 0 1.2031 1.4219 1.6719 1.4219 2.6406 0 0.65625-0.65625 0.98438-0.82812 1.9375-0.54688-1.0469-0.57812-1.1406-0.76562-1.1406-0.0625 0-0.21875 0.0625-0.21875 0.21875 0 0.0625 0 0.10938 0.03125 0.14062 0.4375 0.625 0.79688 1.3281 0.79688 2.0781v0.23438c0 0.10938 0.078125 0.21875 0.21875 0.21875z"/>
</g>
</defs>
<g transform="translate(-149.63 -128.17)">
<use x="148.71201" y="134.765" xlink:href="#a"/>
</g>
</svg>
