<?xml version="1.0" encoding="UTF-8"?>
<svg fill="#000000" version="1.1" viewBox="0 0 13.484 10.922" xmlns="http://www.w3.org/2000/svg" xmlns:xlink="http://www.w3.org/1999/xlink">
<defs>
<g id="a">
<path d="m-1.6719 0.3125c0 0.078125 0.046875 0.15625 0.09375 0.20312 0.26562 0.1875 0.5625 0.29688 0.875 0.29688 1.2344 0 1.5781-1.5 1.8125-2.8438l0.92188-5.25c0.125-0.6875 0.40625-2.4062 1.0781-2.4062 0.125 0 0.25 0.046875 0.34375 0.125 0.03125 0.1875 0.1875 0.26562 0.3125 0.26562 0.15625 0 0.29688-0.14062 0.29688-0.3125 0-0.34375-0.65625-0.5-0.95312-0.5-1.2188 0-1.5781 1.5-1.8125 2.8281l-0.92188 5.25c-0.125 0.70312-0.39062 2.4219-1.0781 2.4219-0.125 0-0.25-0.046875-0.35938-0.14062-0.03125-0.1875-0.17188-0.25-0.29688-0.25-0.15625 0-0.3125 0.14062-0.3125 0.3125zm7.75 0c0 0.078125 0.046875 0.15625 0.09375 0.20312 0.26562 0.1875 0.5625 0.29688 0.85938 0.29688 1.25 0 1.5938-1.5 1.8281-2.8438l0.92188-5.25c0.125-0.6875 0.39062-2.4062 1.0781-2.4062 0.125 0 0.25 0.046875 0.34375 0.125 0.03125 0.1875 0.1875 0.26562 0.29688 0.26562 0.17188 0 0.3125-0.14062 0.3125-0.3125 0-0.34375-0.67188-0.5-0.95312-0.5-1.2344 0-1.5781 1.5-1.8125 2.8281l-0.9375 5.25c-0.10938 0.70312-0.39062 2.4219-1.0625 2.4219-0.125 0-0.26562-0.046875-0.35938-0.14062-0.03125-0.1875-0.17188-0.25-0.29688-0.25-0.15625 0-0.3125 0.14062-0.3125 0.3125zm-2.9531-5.5c-0.29688 0-0.53125 0.25-0.53125 0.54688s0.25 0.53125 0.53125 0.53125c0.32812 0 0.54688-0.25 0.54688-0.53125 0-0.32812-0.25-0.54688-0.54688-0.54688zm1.9531 0c-0.3125 0-0.54688 0.25-0.54688 0.54688s0.25 0.53125 0.54688 0.53125c0.3125 0 0.53125-0.25 0.53125-0.53125 0-0.32812-0.25-0.54688-0.53125-0.54688zm1.9375 0c-0.3125 0-0.54688 0.25-0.54688 0.54688s0.25 0.53125 0.54688 0.53125c0.3125 0 0.53125-0.25 0.53125-0.53125 0-0.32812-0.25-0.54688-0.53125-0.54688z"/>
</g>
</defs>
<g transform="translate(-147.04 -126.76)">
<use x="148.71201" y="136.868" xlink:href="#a"/>
</g>
</svg>
