<?xml version="1.0" encoding="UTF-8"?>
<svg fill="#000000" width="7.0938" height="7.0938" version="1.1" viewBox="0 0 7.0938 7.0937" xmlns="http://www.w3.org/2000/svg" xmlns:xlink="http://www.w3.org/1999/xlink">
<defs>
<g id="a">
<path d="m7.625-2.7188-3.3125-3.2969c-0.046875-0.0625-0.10938-0.078125-0.15625-0.078125-0.0625 0-0.125 0.015625-0.17188 0.078125l-3.3125 3.2969c-0.046875 0.0625-0.0625 0.10938-0.0625 0.17188 0 0.046875 0.015625 0.10938 0.0625 0.17188l3.3125 3.2969c0.046875 0.0625 0.10938 0.078125 0.17188 0.078125 0.046875 0 0.10938-0.015625 0.15625-0.078125l3.3125-3.2969c0.046875-0.0625 0.078125-0.125 0.078125-0.17188 0-0.0625-0.03125-0.10938-0.078125-0.17188zm-1.8125 1.5-2.9844-2.9844 1.3281-1.3281 2.9844 2.9844zm-0.32812 0.32812-1.3281 1.3281-2.9844-2.9844 1.3281-1.3281z"/>
</g>
</defs>
<g transform="translate(-149.32 -128.67)">
<use x="148.71201" y="134.765" xlink:href="#a"/>
</g>
</svg>
