<?xml version="1.0" encoding="UTF-8"?>
<svg fill="#000000" version="1.1" viewBox="0 0 5.8594 5.8125" xmlns="http://www.w3.org/2000/svg" xmlns:xlink="http://www.w3.org/1999/xlink">
<defs>
<g id="a">
<path d="m5.4844-4.5312v-0.125c-0.23438-0.015625-0.39062-0.015625-0.39062-0.3125v-1.0781c0-0.42188-0.0625-0.96875-0.625-0.96875-0.35938 0-0.625 0.20312-0.84375 0.46875-0.09375-0.29688-0.29688-0.46875-0.60938-0.46875-0.35938 0-0.57812 0.1875-0.82812 0.4375v-0.40625l-0.046875-0.03125c-0.23438 0.09375-0.48438 0.17188-0.73438 0.25v0.15625c0.0625-0.015625 0.125-0.03125 0.17188-0.03125 0.20312 0 0.1875 0.21875 0.1875 0.35938v1.2344c0 0.29688-0.078125 0.375-0.375 0.39062v0.125h1.1719v-0.125c-0.23438-0.015625-0.34375-0.03125-0.34375-0.28125v-1.4062c0.10938-0.21875 0.40625-0.39062 0.64062-0.39062 0.29688 0 0.34375 0.39062 0.34375 0.60938v1.0938c0 0.3125-0.0625 0.35938-0.375 0.375v0.125h1.2188v-0.125c-0.3125-0.015625-0.39062-0.09375-0.39062-0.40625v-1.2812c0.15625-0.20312 0.3125-0.39062 0.57812-0.39062 0.375 0 0.40625 0.29688 0.40625 0.60938v1.0781c0 0.29688-0.03125 0.375-0.32812 0.39062v0.125zm0.85938 1.3438v-0.65625h-5.8594v0.65625zm0 1.9844v-0.65625h-5.8594v0.65625z"/>
</g>
</defs>
<g transform="translate(-149.2 -127.75)">
<use x="148.71201" y="134.765" xlink:href="#a"/>
</g>
</svg>
