<?xml version="1.0" encoding="UTF-8"?>
<svg fill="#000000" version="1.1" viewBox="0 0 4.3125 8.3125" xmlns="http://www.w3.org/2000/svg" xmlns:xlink="http://www.w3.org/1999/xlink">
<defs>
<g id="a">
<path d="m4.875-0.3125c0-0.09375-0.046875-0.17188-0.10938-0.20312l-2.1094-1.2188 0.51562-1.9219 1.5938-0.92188c0.0625-0.03125 0.10938-0.10938 0.10938-0.20312 0-0.125-0.10938-0.21875-0.23438-0.21875-0.03125 0-0.078125 0-0.10938 0.03125l-1.1875 0.6875 0.59375-2.2344c0.015625-0.09375-0.046875-0.1875-0.15625-0.1875-0.046875 0-0.10938 0.046875-0.125 0.10938l-0.6875 2.5156-2.2969 1.3438c-0.078125 0.03125-0.10938 0.10938-0.10938 0.1875s0.03125 0.15625 0.10938 0.1875l1.5938 0.9375-0.76562 2.8438c-0.03125 0.09375 0.03125 0.1875 0.14062 0.1875 0.0625 0 0.125-0.046875 0.14062-0.10938l0.75-2.7812 2 1.1562c0.03125 0.03125 0.078125 0.03125 0.10938 0.03125 0.125 0 0.23438-0.09375 0.23438-0.21875zm-2.0781-3.1406-0.42188 1.5625-1.125-0.65625zm1.3125 0.375c-0.3125 0-0.54688 0.25-0.54688 0.53125 0 0.3125 0.25 0.54688 0.54688 0.54688 0.3125 0 0.53125-0.26562 0.53125-0.54688 0-0.3125-0.25-0.53125-0.53125-0.53125z"/>
</g>
</defs>
<g transform="translate(-149.27 -128.06)">
<use x="148.71201" y="134.765" xlink:href="#a"/>
</g>
</svg>
