<?xml version="1.0" encoding="UTF-8"?>
<svg fill="#000000" version="1.1" viewBox="0 0 6.9688 7.1406" xmlns="http://www.w3.org/2000/svg" xmlns:xlink="http://www.w3.org/1999/xlink">
<defs>
<g id="a">
<path d="m3.375-5.0625c-0.53125 0.14062-1.0938 0.59375-1.0938 1.1875 0 0.51562 0.45312 0.79688 0.95312 0.79688 0.76562 0 1.5938-0.32812 2.2812-0.32812 0.79688 0 1.2344 0.64062 1.2344 1.3438 0 0.45312-0.15625 0.96875-0.46875 1.2969-0.45312 0.45312-1.1094 0.5-1.75 0.5-1.9688 0-3.1406-1.6875-3.1406-3.5 0-1.1562 0.78125-2.5 1.9531-2.5 0.90625 0 1.9375 1.1094 2.7031 1.1719 0.71875-0.26562 1.2969-0.64062 1.4844-1.4375l-0.1875-0.10938c-0.10938 0.375-0.3125 0.75-0.8125 0.75-0.54688 0-1.3281-0.45312-2.2969-0.98438-0.92188 0.20312-1.9375 0.57812-2.5938 1.25-0.6875 0.6875-1.0781 1.5781-1.0781 2.5469s0.39062 1.9219 1.0625 2.5938c0.54688 0.54688 1.3281 0.75 2.0938 0.75 1.7812 0 3.7656-0.9375 3.7656-3.0312 0-0.8125-0.64062-1.3281-1.375-1.3281-0.70312 0-1.8594 0.4375-2.4375 0.4375-0.375 0-0.64062-0.20312-0.64062-0.59375 0-0.29688 0.15625-0.57812 0.48438-0.6875z"/>
</g>
</defs>
<g transform="translate(-149.27 -127.89)">
<use x="148.71201" y="134.765" xlink:href="#a"/>
</g>
</svg>
