<?xml version="1.0" encoding="UTF-8"?>
<svg fill="#000000" version="1.1" viewBox="0 0 6.7188 7.0469" xmlns="http://www.w3.org/2000/svg" xmlns:xlink="http://www.w3.org/1999/xlink">
<defs>
<g id="a">
<path d="m6.3125-3.4688-0.046875-0.15625c-0.0625 0.03125-0.17188 0.046875-0.21875 0.046875-0.35938 0-0.5-0.34375-0.54688-0.5-0.1875-0.48438-0.34375-0.90625-0.82812-0.90625-0.73438 0-1.5156 0.73438-2.0625 1.3281-0.14062-0.40625-0.20312-0.89062-0.20312-1.2344 0-0.875 0.78125-1.4219 1.6875-1.4219 0.875 0 1.75 0.42188 1.75 1.375l0.15625-0.046875c0.09375-0.3125 0.17188-0.65625 0.17188-0.98438 0-0.60938-0.95312-0.8125-1.5-0.8125-1.3594 0-2.5156 0.96875-3.0156 2.2188-0.015625 0.03125-0.0625 0.17188-0.0625 0.3125 0 0.71875 0.59375 1.8281 0.59375 2.8125 0 0.5-0.0625 1.0781-0.67188 1.0781-0.32812 0-0.5625-0.34375-0.6875-0.625h-0.09375l-0.57812 0.67188c0.21875 0.29688 0.51562 0.53125 0.90625 0.5625 0.71875-0.23438 1.3125-0.85938 1.7656-1.5312 0.03125-0.25 0.046875-0.51562 0.046875-0.78125 0.28125-0.125 0.57812-0.21875 0.89062-0.21875 0.76562 0 0.90625 0.57812 1.0156 1.4375 0.046875 0.46875 0.1875 1.1094 0.73438 1.1094 0.45312 0 0.98438-0.48438 1.3594-0.85938l-0.03125-0.17188c-0.1875 0.14062-0.5 0.23438-0.73438 0.23438-0.73438 0-0.64062-1.6562-1-2.0156-0.14062-0.10938-0.3125-0.15625-0.46875-0.15625v-0.015625zm-3.4375 1.1719c-0.046875-0.3125-0.10938-0.6875-0.21875-0.96875 0.29688-0.5 0.75-1.0781 1.3594-1.0781 0.25 0 0.5625 0.20312 0.65625 0.53125 0.078125 0.21875 0.17188 0.54688 0.39062 0.6875-0.3125 0.15625-0.67188 0.29688-1 0.4375-0.4375 0.078125-0.79688 0.21875-1.1875 0.39062z"/>
</g>
</defs>
<g transform="translate(-148.87 -127.98)">
<use x="148.71201" y="134.765" xlink:href="#a"/>
</g>
</svg>
