<?xml version="1.0" encoding="UTF-8"?>
<svg fill="#000000" version="1.1" viewBox="0 0 5.7656 11.406" xmlns="http://www.w3.org/2000/svg" xmlns:xlink="http://www.w3.org/1999/xlink">
<defs>
<g id="a">
<path d="m4.25 1.2344v0.26562c0 0.51562-0.046875 1.375-0.54688 1.375-0.078125 0-0.14062-0.03125-0.14062-0.10938s0.09375-0.10938 0.09375-0.26562c0-0.23438-0.14062-0.34375-0.35938-0.34375-0.23438 0-0.42188 0.17188-0.42188 0.42188 0 0.40625 0.3125 0.60938 0.6875 0.60938 1.0781 0 1.4062-1.125 1.4062-2.0156v-7.6094c0-0.5625 0.0625-1.4688 0.57812-1.4688 0.0625 0 0.125 0.03125 0.125 0.10938 0 0.09375-0.09375 0.10938-0.09375 0.28125 0 0.21875 0.15625 0.34375 0.35938 0.34375 0.25 0 0.42188-0.1875 0.42188-0.42188 0-0.40625-0.3125-0.625-0.6875-0.625-1.1406 0-1.4219 1.2656-1.4219 2.1719zm-2.2969 0v0.26562c0 0.51562-0.046875 1.375-0.54688 1.375-0.078125 0-0.125-0.03125-0.125-0.10938s0.078125-0.10938 0.078125-0.26562c0-0.23438-0.14062-0.34375-0.35938-0.34375-0.23438 0-0.40625 0.17188-0.40625 0.42188 0 0.40625 0.29688 0.60938 0.6875 0.60938 1.0781 0 1.4062-1.125 1.4062-2.0156v-7.6094c0-0.5625 0.046875-1.4688 0.5625-1.4688 0.0625 0 0.125 0.03125 0.125 0.10938 0 0.09375-0.078125 0.10938-0.078125 0.28125 0 0.21875 0.14062 0.34375 0.35938 0.34375 0.23438 0 0.40625-0.1875 0.40625-0.42188 0-0.40625-0.29688-0.625-0.6875-0.625-1.125 0-1.4219 1.2656-1.4219 2.1719z"/>
</g>
</defs>
<g transform="translate(-149.31 -126.51)">
<use x="148.71201" y="134.72501" xlink:href="#a"/>
</g>
</svg>
