<?xml version="1.0" encoding="UTF-8"?>
<svg fill="#000000" version="1.1" viewBox="0 0 6.0938 5.7656" xmlns="http://www.w3.org/2000/svg" xmlns:xlink="http://www.w3.org/1999/xlink">
<defs>
<g id="a">
<path d="m3.0781-2.5c0-0.35938-0.29688-0.625-0.625-0.625-0.35938 0-0.64062 0.29688-0.64062 0.625 0 0.34375 0.28125 0.64062 0.64062 0.64062 0.32812 0 0.625-0.26562 0.625-0.64062zm-1.875-2.8125c-0.10938-0.046875-0.14062-0.0625-0.17188-0.0625-0.10938 0-0.20312 0.09375-0.20312 0.1875 0 0.078125 0.03125 0.15625 0.20312 0.23438l5.2188 2.4531-5.2188 2.4688c-0.17188 0.078125-0.20312 0.15625-0.20312 0.23438 0 0.09375 0.09375 0.1875 0.20312 0.1875 0.046875 0 0.078125-0.015625 0.15625-0.046875l5.5469-2.6094c0.10938-0.0625 0.1875-0.10938 0.1875-0.23438s-0.078125-0.15625-0.20312-0.21875z"/>
</g>
</defs>
<g transform="translate(-149.54 -129.39)">
<use x="148.71201" y="134.765" xlink:href="#a"/>
</g>
</svg>
