<?xml version="1.0" encoding="UTF-8"?>
<svg fill="#000000" version="1.1" viewBox="0 0 6.1406 4.7969" xmlns="http://www.w3.org/2000/svg" xmlns:xlink="http://www.w3.org/1999/xlink">
<defs>
<g id="a">
<path d="m6.2656-5.0625c-0.1875 0.8125-0.53125 1.3594-1.125 1.3594-0.64062 0-1.625-1.1875-2.6719-1.1875-1.0781 0-1.7344 1.0469-1.7969 2.2344h0.54688c0.20312-0.79688 0.53125-1.3438 1.1406-1.3438 0.6875 0 1.6719 1.1719 2.7188 1.1719 1.0781 0 1.6562-1.2031 1.7344-2.2344zm0 2.3906c-0.1875 0.8125-0.53125 1.3594-1.125 1.3594-0.64062 0-1.625-1.1875-2.6719-1.1875-1.0781 0-1.7344 1.0469-1.7969 2.2344h0.54688c0.20312-0.79688 0.53125-1.3438 1.1406-1.3438 0.6875 0 1.6719 1.1719 2.7188 1.1719 1.0781 0 1.6562-1.2031 1.7344-2.2344z"/>
</g>
</defs>
<g transform="translate(-149.38 -129.7)">
<use x="148.71201" y="134.765" xlink:href="#a"/>
</g>
</svg>
