<?xml version="1.0" encoding="UTF-8"?>
<svg fill="#000000" version="1.1" viewBox="0 0 8.8691 3.0538" xmlns="http://www.w3.org/2000/svg" xmlns:xlink="http://www.w3.org/1999/xlink">
<defs>
<g id="a">
<path d="m7.9375-2.2969c-0.26562 0.29688-0.53125 0.60938-0.78125 0.9375l-0.046875 0.046875c-0.046875 0.078125-0.20312 0.21875-0.078125 0.3125 0.03125 0.015625 0.09375 0.015625 0.14062 0.015625s0.09375 0.015625 0.14062 0c0.03125-0.015625 0.078125-0.046875 0.10938-0.078125 0.0625-0.046875 0.10938-0.10938 0.17188-0.15625 0.42188-0.375 0.90625-0.71875 1.3906-1 0.09375-0.03125 0.15625-0.078125 0.23438-0.10938 0.046875-0.03125 0.10938-0.046875 0.15625-0.10938 0.046875-0.046875 0.0625-0.15625 0.015625-0.21875-0.046875-0.046875-0.09375-0.046875-0.15625-0.046875h-0.29688-6.9062c0.26562-0.29688 0.53125-0.60938 0.78125-0.9375l0.046875-0.0625c0.046875-0.0625 0.20312-0.21875 0.078125-0.29688-0.03125-0.03125-0.09375-0.03125-0.14062-0.03125s-0.09375 0-0.14062 0.015625c-0.03125 0.015625-0.078125 0.046875-0.10938 0.078125-0.046875 0.046875-0.10938 0.09375-0.17188 0.15625-0.42188 0.375-0.90625 0.70312-1.3906 0.98438-0.09375 0.046875-0.15625 0.078125-0.23438 0.125-0.046875 0.03125-0.10938 0.046875-0.15625 0.09375-0.046875 0.0625-0.0625 0.17188-0.015625 0.21875 0.046875 0.0625 0.09375 0.0625 0.15625 0.0625h0.29688z"/>
</g>
</defs>
<g transform="translate(-149.26 -130.73)">
<use x="148.71201" y="134.765" xlink:href="#a"/>
</g>
</svg>
