<?xml version="1.0" encoding="UTF-8"?>
<svg fill="#000000" version="1.1" viewBox="0 0 4.3125 4.9062" xmlns="http://www.w3.org/2000/svg" xmlns:xlink="http://www.w3.org/1999/xlink">
<defs>
<g id="a">
<path d="m2.7188-4.4531c-0.4375 0-0.78125-0.35938-0.78125-0.76562 0-0.4375 0.35938-0.76562 0.78125-0.76562 0.4375 0 0.76562 0.35938 0.76562 0.76562 0 0.4375-0.35938 0.76562-0.76562 0.76562zm1.1094-0.76562c0-0.625-0.51562-1.1094-1.1094-1.1094-0.625 0-1.1094 0.51562-1.1094 1.1094 0 0.625 0.51562 1.1094 1.1094 1.1094 0.625 0 1.1094-0.51562 1.1094-1.1094zm0.8125 1.5469h-3.8594c-0.125 0-0.21875 0.10938-0.21875 0.23438s0.09375 0.23438 0.21875 0.23438h3.8594c0.14062 0 0.23438-0.10938 0.23438-0.23438s-0.09375-0.23438-0.23438-0.23438zm0 1.7812h-3.8594c-0.125 0-0.21875 0.10938-0.21875 0.23438s0.09375 0.23438 0.21875 0.23438h3.8594c0.14062 0 0.23438-0.10938 0.23438-0.23438s-0.09375-0.23438-0.23438-0.23438z"/>
</g>
</defs>
<g transform="translate(-149.27 -128.44)">
<use x="148.71201" y="134.765" xlink:href="#a"/>
</g>
</svg>
