<?xml version="1.0" encoding="UTF-8"?>
<svg fill="#000000" width="2.2188" height="9.9688" version="1.1" viewBox="0 0 2.2188 9.9687" xmlns="http://www.w3.org/2000/svg" xmlns:xlink="http://www.w3.org/1999/xlink">
<defs>
<g id="a">
<path d="m3.0781-7.4844c-0.15625 0.03125-0.21875 0.3125-0.26562 0.45312-0.46875 1.2031-0.92188 2.3906-1.375 3.5938l-0.23438 0.625c-0.03125 0.09375-0.10938 0.20312-0.10938 0.3125 0 0.09375 0.0625 0.1875 0.09375 0.26562 0.5 1.4219 1.0625 2.7969 1.6094 4.2031 0.046875 0.1875 0.125 0.51562 0.32812 0.51562 0.10938 0 0.1875-0.10938 0.1875-0.20312s-0.0625-0.21875-0.09375-0.3125l-0.03125-0.10938c-0.46875-1.1875-0.92188-2.3906-1.3906-3.5938l-0.1875-0.51562c-0.03125-0.078125-0.078125-0.17188-0.078125-0.25 0-0.046875 0.015625-0.078125 0.03125-0.125l0.078125-0.20312c0.35938-1.0156 0.76562-2.0156 1.1562-3.0312 0.15625-0.4375 0.35938-0.89062 0.5-1.3438 0.015625-0.015625 0.015625-0.046875 0.015625-0.078125 0-0.10938-0.078125-0.20312-0.1875-0.20312h-0.046875z"/>
</g>
</defs>
<g transform="translate(-149.81 -127.28)">
<use x="148.71201" y="134.765" xlink:href="#a"/>
</g>
</svg>
