<?xml version="1.0" encoding="UTF-8"?>
<svg fill="#000000" version="1.1" viewBox="0 0 4.3125 13.531" xmlns="http://www.w3.org/2000/svg" xmlns:xlink="http://www.w3.org/1999/xlink">
<defs>
<g id="a">
<path d="m2.1406 0.17188 0.4375-1.5938h2.0625c0.14062 0 0.23438-0.10938 0.23438-0.23438s-0.09375-0.23438-0.23438-0.23438h-1.9531l0.35938-1.3125h1.5938c0.14062 0 0.23438-0.10938 0.23438-0.23438s-0.09375-0.23438-0.23438-0.23438h-1.4688l0.40625-1.5156c0.015625-0.09375-0.046875-0.1875-0.15625-0.1875-0.046875 0-0.10938 0.046875-0.125 0.10938l-0.4375 1.5938h-2.0781c-0.125 0-0.21875 0.10938-0.21875 0.23438s0.09375 0.23438 0.21875 0.23438h1.9531l-0.35938 1.3125h-1.5938c-0.125 0-0.21875 0.10938-0.21875 0.23438s0.09375 0.23438 0.21875 0.23438h1.4844l-0.40625 1.5156c-0.03125 0.078125 0.03125 0.1875 0.14062 0.1875 0.0625 0 0.125-0.046875 0.14062-0.10938zm-1.3594-4.5625c0.046875 0 0.09375-0.015625 0.10938-0.03125l3.875-2.2344c0.0625-0.046875 0.10938-0.10938 0.10938-0.1875 0-0.09375-0.046875-0.17188-0.10938-0.20312l-3.875-2.2344c-0.015625-0.015625-0.0625-0.03125-0.10938-0.03125-0.10938 0-0.21875 0.09375-0.21875 0.23438 0 0.078125 0.03125 0.15625 0.10938 0.20312l3.5156 2.0312-3.5156 2.0156c-0.078125 0.046875-0.10938 0.125-0.10938 0.20312 0 0.125 0.10938 0.23438 0.21875 0.23438zm3.8594 3.6875c-0.03125 0-0.078125 0.015625-0.10938 0.03125l-3.8594 2.2344c-0.078125 0.046875-0.10938 0.10938-0.10938 0.20312 0 0.078125 0.03125 0.14062 0.10938 0.1875l3.8594 2.2344c0.03125 0.015625 0.078125 0.03125 0.10938 0.03125 0.125 0 0.23438-0.10938 0.23438-0.23438 0-0.078125-0.046875-0.15625-0.10938-0.20312l-3.5156-2.0156 3.5156-2.0312c0.0625-0.046875 0.10938-0.125 0.10938-0.20312 0-0.125-0.10938-0.23438-0.23438-0.23438z"/>
</g>
</defs>
<g transform="translate(-149.27 -126.57)">
<use x="148.71201" y="135.886" xlink:href="#a"/>
</g>
</svg>
