<?xml version="1.0" encoding="UTF-8"?>
<svg fill="#000000" width="7.625" height="7.3438" version="1.1" viewBox="0 0 7.625 7.3437" xmlns="http://www.w3.org/2000/svg" xmlns:xlink="http://www.w3.org/1999/xlink">
<defs>
<g id="a">
<path d="m1-0.14062 2.1562-6.375 1.0469 3.1094-1.0469 3.1406c-0.015625 0.015625-0.015625 0.046875-0.015625 0.0625 0 0.078125 0.046875 0.15625 0.125 0.1875 0.03125 0.015625 0.046875 0.015625 0.0625 0.015625 0.09375 0 0.17188-0.046875 0.20312-0.14062l0.89062-2.6406 0.89062 2.6406c0.03125 0.09375 0.10938 0.14062 0.20312 0.14062 0.015625 0 0.03125 0 0.0625-0.015625 0.078125-0.03125 0.125-0.10938 0.125-0.1875 0-0.015625 0-0.046875-0.015625-0.0625l-1.0469-3.1406 1.0469-3.1094 2.1562 6.375c0.015625 0.09375 0.10938 0.14062 0.1875 0.14062 0.03125 0 0.046875 0 0.0625-0.015625 0.09375-0.03125 0.14062-0.10938 0.14062-0.1875 0-0.03125 0-0.046875-0.015625-0.0625l-2.3438-6.9375c-0.015625-0.09375-0.10938-0.14062-0.1875-0.14062h-0.0625c-0.0625 0.03125-0.10938 0.078125-0.125 0.14062l-1.0781 3.1719-1.0781-3.1719c-0.015625-0.0625-0.0625-0.10938-0.125-0.14062h-0.0625c-0.078125 0-0.17188 0.046875-0.1875 0.14062l-2.3438 6.9375c-0.015625 0.015625-0.015625 0.046875-0.015625 0.0625 0 0.078125 0.046875 0.15625 0.14062 0.1875 0.015625 0.015625 0.03125 0.015625 0.0625 0.015625 0.078125 0 0.17188-0.046875 0.1875-0.14062z"/>
</g>
</defs>
<g transform="translate(-149.32 -127.42)">
<use x="148.71201" y="134.765" xlink:href="#a"/>
</g>
</svg>
