<?xml version="1.0" encoding="UTF-8"?>
<svg fill="#000000" version="1.1" viewBox="0 0 15.465 11.083" xmlns="http://www.w3.org/2000/svg" xmlns:xlink="http://www.w3.org/1999/xlink">
<defs>
<g id="a">
<path d="m1.0312 10.641c0.10938-0.03125 0.21875-0.0625 0.29688-0.17188 0.17188-0.26562 0-0.625-0.3125-0.65625-0.46875-0.046875-0.54688 0.48438-0.34375 0.79688 0.09375 0.15625 0.23438 0.25 0.39062 0.34375 0.60938 0.28125 1.2812 0.078125 1.6719-0.45312 0.5625-0.75 0.59375-1.7656 0.71875-2.6719 0.15625-1.0625 0.28125-2.1406 0.35938-3.2188 0.078125-0.84375 0.10938-1.6875 0.1875-2.5312 0.0625-0.71875 0.17188-1.8438 0.95312-1.8594 0.28125 0 0.48438 0.078125 0.65625 0.20312-0.125 0.03125-0.23438 0.078125-0.3125 0.1875-0.15625 0.26562 0 0.625 0.3125 0.65625 0.46875 0.046875 0.54688-0.48438 0.35938-0.8125-0.10938-0.14062-0.25-0.25-0.40625-0.32812-0.59375-0.28125-1.2812-0.0625-1.6719 0.45312-0.57812 0.78125-0.625 1.8438-0.73438 2.7656-0.125 0.96875-0.25 1.9219-0.32812 2.8906-0.09375 0.92188-0.14062 1.8438-0.21875 2.7656-0.0625 0.70312-0.17188 1.8438-0.9375 1.8594-0.28125 0-0.46875-0.07813-0.64062-0.21875zm3.3125 0.01563c0.15625-0.062505 0.29688-0.10938 0.34375-0.28126 0.125-0.34375-0.20312-0.65625-0.54688-0.53125-0.4375 0.15625-0.25 0.73438 0.015625 0.96875 0.375 0.32812 1.0156 0.34375 1.4531 0.10938 0.21875-0.125 0.375-0.3125 0.51562-0.53125 0.51562-0.76562 0.54688-1.7656 0.65625-2.6562 0.14062-1.0312 0.26562-2.0469 0.35938-3.0781 0.0625-0.78125 0.09375-1.5469 0.17188-2.3281 0-0.125 0.03125-0.26562 0.03125-0.39062 0.046875-0.59375 0.14062-1.625 0.85938-1.7031 0.29688-0.0625 0.51562 0.078125 0.73438 0.1875-0.15625 0.0625-0.28125 0.09375-0.34375 0.25-0.14062 0.34375 0.17188 0.6875 0.51562 0.57812 0.4375-0.14062 0.29688-0.70312 0.046875-0.9375-0.39062-0.375-1.0625-0.39062-1.5156-0.14062-0.20312 0.125-0.35938 0.28125-0.48438 0.46875-0.53125 0.79688-0.57812 1.8281-0.6875 2.7344-0.125 0.92188-0.23438 1.8438-0.3125 2.7812-0.078125 0.875-0.125 1.7656-0.20312 2.6406-0.015625 0.14062-0.03125 0.26562-0.046875 0.39062-0.046875 0.57812-0.14062 1.5938-0.85938 1.6719-0.28125 0.03125-0.5-0.09375-0.70312-0.20312zm3.3281 0c0.03125 0 0.23438-0.07813 0.29688-0.1875 0.1875-0.26563-0.03125-0.73438-0.40625-0.65626-0.39062 0.0625-0.42188 0.48438-0.28125 0.76562 0.125 0.20312 0.32812 0.34375 0.54688 0.42188 0.59375 0.1875 1.2188-0.015625 1.5781-0.51562 0.54688-0.8125 0.59375-1.8438 0.71875-2.7812 0.10938-0.92188 0.23438-1.8438 0.3125-2.7812 0.0625-0.89062 0.125-1.7656 0.20312-2.6562 0-0.125 0.03125-0.25 0.03125-0.375 0.04687-0.57812 0.17188-1.5938 0.875-1.6719 0.28125-0.03125 0.5 0.09375 0.70312 0.20312-0.15625 0.0625-0.28125 0.10938-0.34375 0.28125-0.10938 0.34375 0.20312 0.65625 0.54688 0.53125 0.45312-0.15625 0.25-0.73438-0.015625-0.96875-0.39062-0.32812-1.0156-0.34375-1.4531-0.10938-0.21875 0.125-0.39062 0.3125-0.53125 0.51562-0.5 0.78125-0.54688 1.7656-0.65625 2.6719-0.14062 1.0156-0.25 2.0469-0.34375 3.0781-0.0625 0.78125-0.10938 1.5469-0.17188 2.3281-0.015625 0.125-0.03125 0.26562-0.046875 0.40625-0.078125 0.65625-0.17188 1.625-0.84375 1.6875-0.29688 0.0625-0.51562-0.09375-0.71875-0.1875zm3.3281-0.01563c0.10938-0.03125 0.21875-0.0625 0.29688-0.17188 0.17188-0.26562 0-0.625-0.3125-0.65625-0.46875-0.046875-0.54688 0.48438-0.34375 0.79688 0.09375 0.15625 0.23438 0.25 0.39062 0.34375 0.60938 0.28125 1.2812 0.07813 1.6719-0.45312 0.5625-0.75 0.59375-1.7656 0.71875-2.6719 0.14062-1.0156 0.26562-2.0625 0.35938-3.0938 0.07813-0.89062 0.10938-1.7812 0.1875-2.6562 0.0625-0.71875 0.17188-1.8438 0.95312-1.8594 0.28125 0 0.48438 0.078125 0.65625 0.20312-0.125 0.03125-0.23438 0.078125-0.3125 0.1875-0.15625 0.26562 0 0.625 0.3125 0.65625 0.46875 0.046875 0.54688-0.48438 0.35938-0.8125-0.10938-0.14062-0.25-0.25-0.40625-0.32812-0.59375-0.28125-1.2812-0.0625-1.6719 0.45312-0.57812 0.76562-0.60938 1.7969-0.73438 2.7188-0.14062 1.0469-0.26562 2.1094-0.35938 3.1562-0.0625 0.85938-0.10938 1.7031-0.1875 2.5469-0.0625 0.70312-0.17188 1.8438-0.9375 1.8594-0.28125 0-0.46875-0.07813-0.64062-0.21875z"/>
</g>
</defs>
<g transform="translate(-149.28 -126.74)">
<use x="148.71201" y="126.739" xlink:href="#a"/>
</g>
</svg>
