<?xml version="1.0" encoding="UTF-8"?>
<svg fill="#000000" version="1.1" viewBox="0 0 4.2344 6.4375" xmlns="http://www.w3.org/2000/svg" xmlns:xlink="http://www.w3.org/1999/xlink">
<defs>
<g id="a">
<path d="m0.3125-4.2969v0.3125h0.15625c0.32812 0 0.625 0.03125 0.625 0.5v2.75c0 0.40625-0.28125 0.42188-0.71875 0.42188h-0.0625v0.29688h2.2656v-0.29688h-0.23438c-0.29688 0-0.54688-0.046875-0.54688-0.40625v-2.0312c0.046875-0.625 0.46875-1.4375 1.3281-1.4375 0.60938 0 0.71875 0.5625 0.71875 1v3.5c0 0.625-0.03125 1.5-0.59375 1.5-0.17188 0-0.34375-0.0625-0.48438-0.125 0.20312-0.078125 0.35938-0.21875 0.35938-0.45312 0-0.25-0.17188-0.45312-0.46875-0.45312s-0.4375 0.25-0.4375 0.46875c0 0.54688 0.57812 0.78125 1.0156 0.78125 1.1719 0 1.3125-1.4375 1.3125-2.2812v-2.6875c0-0.32812-0.015625-0.65625-0.1875-0.95312-0.25-0.39062-0.73438-0.51562-1.1719-0.51562-0.60938 0-1.25 0.42188-1.4375 1.0156l-0.015625-1.0156z"/>
</g>
</defs>
<g transform="translate(-149.02 -130.36)">
<use x="148.71201" y="134.765" xlink:href="#a"/>
</g>
</svg>
