<?xml version="1.0" encoding="UTF-8"?>
<svg fill="#000000" version="1.1" viewBox="0 0 7.0156 4.6875" xmlns="http://www.w3.org/2000/svg" xmlns:xlink="http://www.w3.org/1999/xlink">
<defs>
<g id="a">
<path d="m7.8281-3.2969v-0.54688h-5.1094v0.54688zm0 2.0312v-0.5625h-5.1094v0.5625zm-5.9219-3.0781c0-0.29688-0.25-0.5625-0.54688-0.5625s-0.54688 0.25-0.54688 0.5625c0 0.39062 0.32812 0.54688 0.54688 0.54688 0.20312 0 0.54688-0.17188 0.54688-0.54688zm0 3.5938c0-0.3125-0.25-0.57812-0.54688-0.57812s-0.54688 0.25-0.54688 0.57812c0 0.375 0.32812 0.53125 0.54688 0.53125 0.20312 0 0.54688-0.17188 0.54688-0.53125z"/>
</g>
</defs>
<g transform="translate(-149.52 -129.86)">
<use x="148.71201" y="134.765" xlink:href="#a"/>
</g>
</svg>
