<?xml version="1.0" encoding="UTF-8"?>
<svg fill="#000000" version="1.1" viewBox="0 0 6.1513 7.0649" xmlns="http://www.w3.org/2000/svg" xmlns:xlink="http://www.w3.org/1999/xlink">
<defs>
<g id="a">
<path d="m3.1094-3.8281c-0.59375-0.125-1.1875-0.26562-1.7812-0.40625-0.078125-0.015625-0.17188-0.046875-0.26562-0.0625-0.046875-0.015625-0.09375-0.03125-0.14062-0.03125-0.078125 0.015625-0.14062 0.0625-0.10938 0.125 0 0.0625 0.046875 0.09375 0.078125 0.14062 0.078125 0.078125 0.14062 0.15625 0.21875 0.23438 0.28125 0.3125 0.5625 0.60938 0.85938 0.92188 0.078125 0.09375 0.17188 0.1875 0.25 0.28125 0.03125 0.03125 0.09375 0.078125 0.09375 0.125s-0.0625 0.09375-0.09375 0.125c-0.078125 0.09375-0.17188 0.1875-0.25 0.28125-0.29688 0.3125-0.57812 0.60938-0.85938 0.92188-0.078125 0.078125-0.14062 0.15625-0.21875 0.23438-0.03125 0.046875-0.078125 0.078125-0.078125 0.125-0.03125 0.078125 0.03125 0.125 0.10938 0.14062 0.046875 0 0.09375-0.03125 0.14062-0.03125 0.09375-0.03125 0.1875-0.046875 0.26562-0.0625 0.59375-0.14062 1.1875-0.28125 1.7812-0.40625 0.015625 0.09375 0.046875 0.1875 0.09375 0.29688 0.03125 0.125 0.0625 0.23438 0.10938 0.34375 0.10938 0.35938 0.20312 0.70312 0.32812 1.0625 0.03125 0.125 0.0625 0.25 0.125 0.39062 0.015625 0.0625 0.046875 0.10938 0.10938 0.10938 0.078125 0 0.10938-0.046875 0.125-0.10938 0.046875-0.14062 0.078125-0.26562 0.10938-0.39062 0.125-0.35938 0.23438-0.70312 0.34375-1.0625 0.03125-0.10938 0.078125-0.21875 0.10938-0.34375 0.03125-0.10938 0.0625-0.20312 0.078125-0.29688 0.59375 0.125 1.1875 0.26562 1.7812 0.40625 0.09375 0.015625 0.17188 0.03125 0.25 0.0625 0.0625 0 0.10938 0.015625 0.17188 0.03125 0.0625 0 0.125-0.0625 0.10938-0.14062-0.015625-0.046875-0.0625-0.078125-0.078125-0.125-0.09375-0.078125-0.15625-0.15625-0.23438-0.23438-0.28125-0.3125-0.5625-0.60938-0.84375-0.92188-0.09375-0.09375-0.1875-0.1875-0.26562-0.28125-0.03125-0.03125-0.09375-0.078125-0.09375-0.125s0.0625-0.09375 0.09375-0.125c0.078125-0.09375 0.17188-0.1875 0.26562-0.28125 0.28125-0.3125 0.5625-0.60938 0.84375-0.92188 0.078125-0.078125 0.14062-0.15625 0.23438-0.23438 0.015625-0.046875 0.0625-0.078125 0.078125-0.14062s-0.046875-0.125-0.10938-0.125c-0.0625 0.015625-0.10938 0.015625-0.17188 0.03125-0.078125 0.015625-0.15625 0.046875-0.25 0.0625-0.59375 0.14062-1.1875 0.28125-1.7812 0.40625-0.015625-0.09375-0.046875-0.20312-0.078125-0.29688-0.03125-0.125-0.078125-0.23438-0.10938-0.34375-0.10938-0.35938-0.21875-0.71875-0.34375-1.0625-0.03125-0.125-0.0625-0.26562-0.10938-0.39062-0.015625-0.0625-0.046875-0.125-0.125-0.10938-0.0625 0-0.09375 0.046875-0.10938 0.10938-0.0625 0.125-0.09375 0.26562-0.125 0.39062-0.125 0.34375-0.21875 0.70312-0.32812 1.0625-0.046875 0.10938-0.078125 0.21875-0.10938 0.34375-0.046875 0.09375-0.078125 0.20312-0.09375 0.29688z"/>
</g>
</defs>
<g transform="translate(-149.52 -128.73)">
<use x="148.71201" y="134.765" xlink:href="#a"/>
</g>
</svg>
