<?xml version="1.0" encoding="UTF-8"?>
<svg fill="#000000" version="1.1" viewBox="0 0 6.096 4.5226" xmlns="http://www.w3.org/2000/svg" xmlns:xlink="http://www.w3.org/1999/xlink">
<defs>
<g id="a">
<path d="m3.8438-6.0312c-0.078125 0.03125-0.17188 0.10938-0.23438 0.15625-0.15625 0.10938-0.3125 0.23438-0.46875 0.34375-0.48438 0.35938-0.98438 0.71875-1.4688 1.0781l-0.32812 0.23438c-0.0625 0.046875-0.125 0.078125-0.1875 0.14062-0.078125 0.078125-0.046875 0.1875 0.0625 0.20312h0.20312c0.046875 0 0.09375 0 0.14062-0.015625s0.10938-0.0625 0.15625-0.10938l0.32812-0.23438 1.2344-0.90625c0.14062-0.09375 0.28125-0.1875 0.42188-0.29688 0.046875-0.03125 0.10938-0.10938 0.17188-0.10938s0.125 0.0625 0.15625 0.09375c0.125 0.09375 0.25 0.17188 0.35938 0.26562 0.5 0.35938 0.98438 0.70312 1.4688 1.0625 0.0625 0.046875 0.125 0.09375 0.20312 0.14062 0.03125 0.03125 0.09375 0.078125 0.14062 0.09375 0.0625 0.015625 0.14062 0.015625 0.20312 0.015625 0.046875 0 0.125 0 0.17188-0.015625 0.078125-0.03125 0.078125-0.14062 0.015625-0.1875-0.046875-0.046875-0.10938-0.09375-0.15625-0.125l-0.29688-0.21875c-0.5625-0.40625-1.1406-0.82812-1.7031-1.2344-0.14062-0.10938-0.26562-0.20312-0.40625-0.3125-0.0625-0.03125-0.125-0.078125-0.1875-0.0625zm-2.9531 2.5469c-0.015625 0.015625-0.046875 0.03125-0.046875 0.0625-0.015625 0.03125-0.015625 0.078125-0.015625 0.10938 0 0.078125-0.015625 0.17188 0.0625 0.21875 0.078125 0.015625 0.1875 0 0.26562 0h5.3594 0.25c0.046875 0 0.09375 0 0.125-0.03125s0.03125-0.078125 0.03125-0.14062c0-0.078125 0.015625-0.1875-0.078125-0.21875h-0.14062-5.6562c-0.046875 0-0.09375-0.015625-0.15625 0zm0 1.5781c-0.015625 0.015625-0.046875 0.03125-0.046875 0.0625-0.015625 0.03125-0.015625 0.0625-0.015625 0.09375 0 0.078125-0.015625 0.1875 0.0625 0.21875s0.1875 0.015625 0.26562 0.015625h5.6094c0.046875 0 0.09375 0 0.125-0.046875 0.03125-0.015625 0.03125-0.078125 0.03125-0.125 0-0.078125 0.015625-0.20312-0.078125-0.21875h-0.14062-5.6562c-0.046875 0-0.09375-0.015625-0.15625 0z"/>
</g>
</defs>
<g transform="translate(-149.54 -128.73)">
<use x="148.71201" y="134.765" xlink:href="#a"/>
</g>
</svg>
