<?xml version="1.0" encoding="UTF-8"?>
<svg fill="#000000" version="1.1" viewBox="0 0 5.323 6.5527" xmlns="http://www.w3.org/2000/svg" xmlns:xlink="http://www.w3.org/1999/xlink">
<defs>
<g id="a">
<path d="m3.7812-4.0156c-0.25-0.23438-0.5625-0.375-0.90625-0.4375-0.76562-0.125-1.5469 0.17188-2.0312 0.78125-0.73438 0.9375-0.6875 2.3594 0.1875 3.1875 0.60938 0.57812 1.5938 0.78125 2.3438 0.35938 0.29688-0.17188 0.53125-0.46875 0.67188-0.78125 0.03125-0.078125 0.0625-0.15625 0.078125-0.23438 0.015625-0.03125 0.015625-0.078125-0.015625-0.10938-0.046875-0.0625-0.15625-0.0625-0.20312 0-0.03125 0.046875-0.03125 0.078125-0.046875 0.125-0.015625 0.0625-0.046875 0.125-0.078125 0.17188-0.10938 0.25-0.28125 0.46875-0.51562 0.60938-0.10938 0.078125-0.23438 0.125-0.35938 0.15625-0.14062 0.03125-0.28125 0.046875-0.40625 0.03125-0.59375-0.046875-1-0.51562-1.1875-1.0312-0.14062-0.39062-0.15625-0.82812-0.14062-1.25 0.03125-0.35938 0.078125-0.75 0.28125-1.0781 0.14062-0.26562 0.34375-0.5 0.625-0.625 0.1875-0.09375 0.39062-0.09375 0.59375-0.078125 0.32812 0.03125 0.65625 0.125 0.90625 0.35938-0.078125 0-0.17188 0.015625-0.23438 0.0625-0.25 0.125-0.29688 0.5-0.125 0.70312 0.15625 0.1875 0.48438 0.20312 0.67188 0.046875 0.14062-0.14062 0.14062-0.29688 0.14062-0.46875v-0.76562c0-0.48438-0.03125-1 0.15625-1.4531 0.09375-0.23438 0.26562-0.45312 0.51562-0.48438 0.125-0.03125 0.23438 0.015625 0.375 0.03125-0.14062 0.0625-0.25 0.125-0.29688 0.26562-0.078125 0.1875-0.03125 0.40625 0.10938 0.53125 0.10938 0.09375 0.25 0.10938 0.39062 0.10938 0.29688-0.046875 0.4375-0.35938 0.34375-0.64062-0.046875-0.17188-0.17188-0.3125-0.32812-0.40625-0.29688-0.17188-0.6875-0.17188-0.96875 0.03125-0.14062 0.09375-0.25 0.23438-0.32812 0.39062-0.29688 0.57812-0.21875 1.2656-0.21875 1.8906z"/>
</g>
</defs>
<g transform="translate(-149.04 -128.31)">
<use x="148.71201" y="134.765" xlink:href="#a"/>
</g>
</svg>
