<?xml version="1.0" encoding="UTF-8"?>
<svg fill="#000000" version="1.1" viewBox="0 0 4.0156 4.7344" xmlns="http://www.w3.org/2000/svg" xmlns:xlink="http://www.w3.org/1999/xlink">
<defs>
<g id="a">
<path d="m1.4062-2.2656c0.32812 0.14062 0.625 0.14062 0.85938 0.14062 0.25 0 0.8125 0 0.8125-0.3125 0-0.23438-0.35938-0.26562-0.73438-0.26562-0.20312 0-0.5625 0.015625-0.92188 0.1875-0.23438-0.10938-0.40625-0.3125-0.40625-0.57812 0-0.60938 0.98438-0.96875 1.875-0.96875 0.15625 0 0.51562 0 0.92188 0.28125 0.10938 0.078125 0.125 0.10938 0.1875 0.10938 0.14062 0 0.28125-0.14062 0.28125-0.28125 0-0.1875-0.60938-0.5625-1.2969-0.5625-1.1406 0-2.2188 0.67188-2.2188 1.4219 0 0.4375 0.35938 0.6875 0.40625 0.71875-0.59375 0.32812-0.90625 0.875-0.90625 1.3438 0 0.64062 0.5625 1.25 1.625 1.25 1.3125 0 1.875-0.875 1.875-1.0312 0-0.0625-0.0625-0.09375-0.10938-0.09375-0.0625 0-0.09375 0.03125-0.10938 0.0625-0.14062 0.23438-0.375 0.60938-1.5781 0.60938-0.60938 0-1.4531-0.15625-1.4531-0.85938 0-0.34375 0.28125-0.875 0.89062-1.1719zm0.32812-0.125c0.23438-0.078125 0.4375-0.09375 0.60938-0.09375 0.25 0 0.28125 0.015625 0.46875 0.0625-0.15625 0.0625-0.17188 0.078125-0.54688 0.078125-0.21875 0-0.34375 0-0.53125-0.046875z"/>
</g>
</defs>
<g transform="translate(-148.98 -130.25)">
<use x="148.71201" y="134.765" xlink:href="#a"/>
</g>
</svg>
