<?xml version="1.0" encoding="UTF-8"?>
<svg fill="#000000" width="3.4375" height="8.9688" version="1.1" viewBox="0 0 3.4375 8.9687" xmlns="http://www.w3.org/2000/svg" xmlns:xlink="http://www.w3.org/1999/xlink">
<defs>
<g id="a">
<path d="m3.9844-4.3594v-1.3438c0-0.76562-0.64062-1.2969-1.3594-1.2969-0.73438 0-1.3594 0.625-1.3594 1.5938 0 2.0312 1.1094 3.7344 1.1094 5.4688 0 0.73438-0.28125 1.25-0.78125 1.25-0.26562 0-0.48438-0.10938-0.67188-0.32812l-0.375 0.51562c0.25 0.29688 0.64062 0.46875 1.0469 0.46875 1 0 1.4375-0.98438 1.4375-1.9062 0-1.8906-1.1094-3.5156-1.1094-5.4688 0-0.67188 0.39062-0.9375 0.73438-0.9375 0.39062 0 0.67188 0.29688 0.67188 0.65625v1.3281z"/>
</g>
</defs>
<g transform="translate(-149.26 -127.76)">
<use x="148.71201" y="134.765" xlink:href="#a"/>
</g>
</svg>
