<?xml version="1.0" encoding="UTF-8"?>
<svg fill="#000000" width="4.7969" height="9.0938" version="1.1" viewBox="0 0 4.7969 9.0937" xmlns="http://www.w3.org/2000/svg" xmlns:xlink="http://www.w3.org/1999/xlink">
<defs>
<g id="a">
<path d="m4.2031-7.2812-0.54688 2.0312c-0.85938-0.26562-1.6562-0.75-2.2969-1.4219l-0.46875 0.4375c0.6875 0.73438 1.5469 1.2656 2.4844 1.5781-0.9375 0.3125-1.7969 0.84375-2.4844 1.5781l0.46875 0.42188c0.54688-0.57812 1.2188-1.0156 1.9531-1.3125l-0.48438 1.875c-0.20312-0.078125-0.42188-0.125-0.64062-0.125-0.51562 0-0.90625 0.42188-1.2969 0.79688l0.39062 0.375c0.25-0.26562 0.54688-0.53125 0.92188-0.53125 0.15625 0 0.3125 0.046875 0.45312 0.10938l-0.32812 1.1719h-0.14062c-0.51562 0-0.90625 0.42188-1.2969 0.79688l0.39062 0.375c0.25-0.25 0.51562-0.51562 0.875-0.53125l-0.34375 1.3125 0.5625 0.15625 0.34375-1.3281c0.125 0.078125 0.26562 0.15625 0.375 0.25 0.35938 0.32812 0.79688 0.5625 1.2969 0.5625 0.53125 0 0.90625-0.42188 1.2969-0.79688l-0.39062-0.375c-0.25 0.26562-0.54688 0.53125-0.92188 0.53125-0.32812 0-0.625-0.1875-0.89062-0.40625-0.1875-0.15625-0.375-0.29688-0.59375-0.39062l0.26562-0.98438c0.35938 0.28125 0.76562 0.5 1.2344 0.5 0.53125 0 0.90625-0.40625 1.2969-0.79688l-0.39062-0.375c-0.25 0.26562-0.54688 0.54688-0.92188 0.54688-0.32812 0-0.625-0.20312-0.89062-0.42188-0.046875-0.046875-0.09375-0.078125-0.15625-0.125l0.64062-2.375c0.45312-0.10938 0.92188-0.17188 1.3906-0.17188h0.32812v-0.64062h-0.32812c-0.39062 0-0.76562-0.03125-1.1406-0.10938l0.54688-2.0469z"/>
</g>
</defs>
<g transform="translate(-149.6 -127.48)">
<use x="148.71201" y="134.765" xlink:href="#a"/>
</g>
</svg>
