<?xml version="1.0" encoding="UTF-8"?>
<svg fill="#000000" version="1.1" viewBox="0 0 7.75 3.4375" xmlns="http://www.w3.org/2000/svg" xmlns:xlink="http://www.w3.org/1999/xlink">
<defs>
<g id="a">
<path d="m6.8906-4.2656c-0.9375 0-1.5469 0.73438-2.1875 1.3906-0.5625-0.60938-1.2188-1.3906-2.1875-1.3906-0.9375 0-1.6875 0.78125-1.6875 1.7188s0.75 1.7188 1.6875 1.7188c0.95312 0 1.5469-0.73438 2.1875-1.3906 0.57812 0.60938 1.2344 1.3906 2.1875 1.3906 0.9375 0 1.6875-0.78125 1.6875-1.7188s-0.75-1.7188-1.6875-1.7188zm-2.5 1.7188c-0.60938 0.625-1.125 1.2656-1.875 1.2656-0.6875 0-1.2344-0.57812-1.2344-1.2656s0.54688-1.2656 1.2344-1.2656c0.75 0 1.2656 0.64062 1.875 1.2656zm0.64062 0c0.59375-0.625 1.125-1.2656 1.8594-1.2656 0.6875 0 1.2344 0.57812 1.2344 1.2656s-0.54688 1.2656-1.2344 1.2656c-0.73438 0-1.2656-0.64062-1.8594-1.2656z"/>
</g>
</defs>
<g transform="translate(-149.54 -130.5)">
<use x="148.71201" y="134.765" xlink:href="#a"/>
</g>
</svg>
