<?xml version="1.0" encoding="UTF-8"?>
<svg fill="#000000" version="1.1" viewBox="0 0 5.6875 5.6719" xmlns="http://www.w3.org/2000/svg" xmlns:xlink="http://www.w3.org/1999/xlink">
<defs>
<g id="a">
<path d="m6.25-1.2188-1.3125-1.2969 1.3125-1.3125-0.46875-0.45312-1.3125 1.2969-0.59375-0.60938 1.2969-1.2969-0.45312-0.46875-1.3125 1.2969-1.2969-1.2969-0.46875 0.46875 1.2969 1.2969-0.59375 0.60938-1.3125-1.2969-0.46875 0.45312 1.3125 1.3125-1.3125 1.2969 0.46875 0.46875 1.3125-1.2969 0.59375 0.59375-1.2969 1.2969 0.46875 0.46875 1.2969-1.2969 1.3125 1.2969 0.45312-0.46875-1.2969-1.2969 0.59375-0.59375 1.3125 1.2969zm-2.2344-1.2969-0.60938 0.60938-0.60938-0.60938 0.60938-0.60938z"/>
</g>
</defs>
<g transform="translate(-149.27 -129.41)">
<use x="148.71201" y="134.765" xlink:href="#a"/>
</g>
</svg>
