<?xml version="1.0" encoding="UTF-8"?>
<svg fill="#000000" version="1.1" viewBox="0 0 6.6406 7.0284" xmlns="http://www.w3.org/2000/svg" xmlns:xlink="http://www.w3.org/1999/xlink">
<defs>
<g id="a">
<path d="m6.7969-0.40625h-5.8438v-6.2656c0-0.14062 0.046875-0.35938-0.14062-0.35938-0.0625 0-0.17188-0.03125-0.21875 0.03125-0.03125 0.046875-0.03125 0.09375-0.03125 0.125v0.21875 6.25 0.25c0 0.046875 0 0.09375 0.0625 0.125 0.03125 0.015625 0.078125 0.015625 0.125 0.015625h6.0625 0.21875c0.0625 0 0.14062 0 0.15625-0.078125 0.015625-0.046875 0.015625-0.10938 0.015625-0.17188v-6.3906-0.28125c-0.015625-0.046875-0.0625-0.09375-0.10938-0.09375-0.078125-0.015625-0.21875-0.03125-0.28125 0.046875-0.015625 0.03125-0.015625 0.09375-0.015625 0.14062zm-1.5469-1.5625h-2.7344v-4.5781c0-0.10938 0.015625-0.25-0.10938-0.26562-0.078125-0.015625-0.21875-0.03125-0.26562 0.03125-0.046875 0.078125-0.03125 0.1875-0.03125 0.26562v4.625c0 0.09375-0.03125 0.25 0.046875 0.3125 0.046875 0.015625 0.09375 0.015625 0.14062 0.015625h3.1562c0.0625 0 0.125 0 0.15625-0.046875 0.03125-0.03125 0.03125-0.078125 0.03125-0.125v-0.21875-4.5312c0-0.078125 0.03125-0.21875-0.03125-0.29688-0.03125-0.03125-0.09375-0.03125-0.14062-0.03125-0.078125 0-0.20312-0.015625-0.21875 0.10938-0.015625 0.046875 0 0.125 0 0.1875z"/>
</g>
</defs>
<g transform="translate(-149.27 -127.72)">
<use x="148.71201" y="134.765" xlink:href="#a"/>
</g>
</svg>
