<?xml version="1.0" encoding="UTF-8"?>
<svg fill="#000000" version="1.1" viewBox="0 0 4.9844 7.9844" xmlns="http://www.w3.org/2000/svg" xmlns:xlink="http://www.w3.org/1999/xlink">
<defs>
<g id="a">
<path d="m1.2969 1c0.15625 0 0.29688-0.14062 0.29688-0.29688v-1.9219h1.3906l-0.98438 2.4062c-0.0625 0.125 0.046875 0.3125 0.1875 0.3125 0.10938 0 0.21875-0.046875 0.28125-0.15625l1.0625-2.5625h2.1406c0.15625 0 0.3125-0.14062 0.3125-0.3125 0-0.15625-0.15625-0.29688-0.3125-0.29688h-1.8906l0.5625-1.3281h1.3281c0.15625 0 0.3125-0.14062 0.3125-0.29688 0-0.17188-0.15625-0.3125-0.3125-0.3125h-1.0938l1-2.4062c0.046875-0.125-0.0625-0.3125-0.1875-0.3125-0.10938 0-0.23438 0.046875-0.28125 0.15625l-1.0625 2.5625h-2.4531v-1.9219c0-0.15625-0.14062-0.29688-0.29688-0.29688s-0.29688 0.14062-0.29688 0.29688v6.3906c0 0.15625 0.14062 0.29688 0.29688 0.29688zm0.29688-2.8281v-1.3281h2.2031l-0.5625 1.3281z"/>
</g>
</defs>
<g transform="translate(-149.71 -128.28)">
<use x="148.71201" y="134.765" xlink:href="#a"/>
</g>
</svg>
