<?xml version="1.0" encoding="UTF-8"?>
<svg fill="#000000" version="1.1" viewBox="0 0 6.2969 9.2969" xmlns="http://www.w3.org/2000/svg" xmlns:xlink="http://www.w3.org/1999/xlink">
<defs>
<g id="b">
<path d="m6.2812-6.75c0.078125-0.14062 0.078125-0.15625 0.078125-0.1875 0-0.078125-0.0625-0.20312-0.20312-0.20312-0.10938 0-0.14062 0.0625-0.21875 0.20312l-4.4688 8.7031c-0.078125 0.14062-0.078125 0.15625-0.078125 0.1875 0 0.078125 0.0625 0.20312 0.1875 0.20312s0.15625-0.0625 0.21875-0.20312z"/>
</g>
<g id="a">
<path d="m6.7656-5.9375c0.17188 0 0.35938 0 0.35938-0.20312s-0.1875-0.20312-0.35938-0.20312h-5.4688c-0.3125 0-0.35938 0.046875-0.35938 0.35938v5.0625c0 0.32812 0.03125 0.35938 0.34375 0.35938h5.4844c0.17188 0 0.35938 0 0.35938-0.20312s-0.20312-0.20312-0.35938-0.20312h-5.4375v-4.9688zm0 7.2969c0.17188 0 0.35938 0 0.35938-0.1875 0-0.20312-0.21875-0.20312-0.35938-0.20312h-5.5781c-0.15625 0-0.35938 0-0.35938 0.20312 0 0.1875 0.17188 0.1875 0.34375 0.1875z"/>
</g>
</defs>
<g transform="translate(-149.54 -127.62)">
<use x="148.71201" y="134.765" xlink:href="#b"/>
<use x="148.71201" y="134.765" xlink:href="#a"/>
</g>
</svg>
