<?xml version="1.0" encoding="UTF-8"?>
<svg fill="#000000" version="1.1" viewBox="0 0 4.4219 4.4493" xmlns="http://www.w3.org/2000/svg" xmlns:xlink="http://www.w3.org/1999/xlink">
<defs>
<g id="a">
<path d="m1.6094-0.64062c-0.20312 0-0.40625 0.015625-0.60938 0-0.078125 0-0.17188 0-0.21875-0.0625-0.046875-0.046875-0.0625-0.125-0.078125-0.1875-0.03125-0.10938-0.0625-0.23438-0.078125-0.35938h-0.25l0.21875 1.2344h0.96875 0.21875c0.046875 0 0.09375 0 0.125-0.03125 0.0625-0.078125 0.03125-0.21875 0.015625-0.29688-0.015625-0.28125-0.09375-0.54688-0.17188-0.79688-0.046875-0.14062-0.09375-0.26562-0.14062-0.39062-0.23438-0.65625-0.51562-1.4844-0.09375-2.1406 0.046875-0.078125 0.125-0.15625 0.1875-0.21875 0.09375-0.10938 0.23438-0.1875 0.35938-0.23438 0.17188-0.078125 0.34375-0.10938 0.53125-0.10938 0.17188 0 0.35938 0.03125 0.51562 0.10938 0.125 0.046875 0.26562 0.125 0.35938 0.23438 0.0625 0.0625 0.14062 0.14062 0.1875 0.21875 0.42188 0.65625 0.14062 1.4844-0.09375 2.1406-0.046875 0.125-0.09375 0.25-0.14062 0.39062-0.078125 0.25-0.15625 0.51562-0.17188 0.79688-0.015625 0.078125-0.046875 0.21875 0.015625 0.29688 0.03125 0.03125 0.078125 0.03125 0.14062 0.03125h0.20312 0.96875l0.21875-1.2344h-0.25c-0.015625 0.125-0.046875 0.25-0.078125 0.35938-0.015625 0.0625-0.015625 0.14062-0.078125 0.1875-0.046875 0.0625-0.14062 0.0625-0.21875 0.0625-0.1875 0.015625-0.40625 0-0.60938 0 0.078125-0.15625 0.17188-0.3125 0.25-0.45312 0.40625-0.57812 1.0156-1.1875 0.89062-1.9531-0.015625-0.10938-0.046875-0.21875-0.09375-0.32812-0.15625-0.35938-0.48438-0.64062-0.82812-0.8125-0.70312-0.35938-1.6406-0.375-2.3594-0.015625-0.45312 0.21875-0.85938 0.60938-0.95312 1.1406-0.125 0.78125 0.48438 1.3906 0.89062 1.9688 0.09375 0.14062 0.17188 0.29688 0.25 0.45312z"/>
</g>
</defs>
<g transform="translate(-149.09 -130.3)">
<use x="148.71201" y="134.765" xlink:href="#a"/>
</g>
</svg>
