<?xml version="1.0" encoding="UTF-8"?>
<svg fill="#000000" version="1.1" viewBox="0 0 9.7969 3.3281" xmlns="http://www.w3.org/2000/svg" xmlns:xlink="http://www.w3.org/1999/xlink">
<defs>
<g id="a">
<path d="m2.1562-2.6875c-0.34375-0.23438-0.84375-0.67188-1.1562-1.4688h-0.29688c0.28125 0.76562 0.78125 1.2656 1.0156 1.4688v0.39062c-0.25 0.20312-0.73438 0.70312-1.0156 1.4688h0.29688c0.3125-0.78125 0.79688-1.2188 1.1562-1.4688h7.5469c-0.34375 0.29688-0.73438 0.76562-1.0156 1.4688h0.3125c0.29688-0.8125 0.90625-1.3594 1.5-1.6719-0.60938-0.29688-1.2031-0.85938-1.5-1.6562h-0.3125c0.29688 0.73438 0.71875 1.2031 1.0156 1.4688z"/>
</g>
</defs>
<g transform="translate(-149.42 -130.61)">
<use x="148.71201" y="134.765" xlink:href="#a"/>
</g>
</svg>
