<?xml version="1.0" encoding="UTF-8"?>
<svg fill="#000000" version="1.1" viewBox="0 0 8.9127 2.8438" xmlns="http://www.w3.org/2000/svg" xmlns:xlink="http://www.w3.org/1999/xlink">
<defs>
<g id="a">
<path d="m8.4375-2.7188c-0.51562-0.375-1.125-0.625-1.7656-0.78125-0.65625-0.15625-1.3438-0.23438-2.0156-0.1875-0.67188 0.03125-1.3281 0.14062-1.9531 0.375-0.67188 0.23438-1.2969 0.60938-1.8125 1.125-0.10938 0.10938-0.21875 0.23438-0.32812 0.35938-0.0625 0.078125-0.10938 0.17188-0.015625 0.25 0.046875 0.046875 0.125 0.10938 0.20312 0.10938 0.0625 0 0.09375-0.0625 0.14062-0.10938 0.078125-0.09375 0.14062-0.17188 0.23438-0.26562 0.45312-0.45312 0.98438-0.8125 1.5938-1.0469 0.625-0.25 1.2812-0.375 1.9531-0.40625 0.75-0.015625 1.4844 0.046875 2.2031 0.28125 0.32812 0.09375 0.625 0.21875 0.92188 0.375 0.125 0.0625 0.28125 0.14062 0.39062 0.25-0.21875 0.015625-0.4375 0.0625-0.65625 0.125-0.10938 0.015625-0.23438 0.046875-0.35938 0.078125-0.09375 0.03125-0.1875 0.046875-0.29688 0.078125-0.046875 0.015625-0.10938 0.03125-0.15625 0.0625-0.14062 0.10938 0.078125 0.28125 0.1875 0.29688 0.09375 0.015625 0.1875 0 0.28125-0.015625 0.14062-0.015625 0.28125 0 0.42188 0 0.32812 0 0.67188 0.046875 1.0156 0.09375 0.17188 0.03125 0.35938 0.078125 0.53125 0.125 0.078125 0.015625 0.17188 0.046875 0.21875-0.015625 0.0625-0.046875 0.015625-0.125 0-0.20312-0.0625-0.17188-0.125-0.34375-0.1875-0.5-0.10938-0.42188-0.23438-0.82812-0.3125-1.25-0.03125-0.14062-0.046875-0.26562-0.078125-0.40625-0.015625-0.0625-0.015625-0.15625-0.046875-0.21875s-0.14062-0.14062-0.20312-0.17188c-0.0625 0-0.125 0.03125-0.14062 0.078125-0.015625 0.09375-0.015625 0.20312-0.015625 0.28125 0 0.1875 0.015625 0.35938 0.015625 0.54688 0 0.21875 0.03125 0.46875 0.03125 0.6875z"/>
</g>
</defs>
<g transform="translate(-149.21 -130.45)">
<use x="148.71201" y="134.765" xlink:href="#a"/>
</g>
</svg>
