<?xml version="1.0" encoding="UTF-8"?>
<svg fill="#000000" version="1.1" viewBox="0 0 5.0938 6.625" xmlns="http://www.w3.org/2000/svg" xmlns:xlink="http://www.w3.org/1999/xlink">
<defs>
<g id="a">
<path d="m3.9531 1.9844 0.82812-0.34375c-0.15625-1.2188-0.17188-2.4531-0.17188-3.6719 0-1.7656 0.10938-2.6094-0.9375-2.6094-0.625 0-1.3438 0.375-1.8906 0.75l-0.10938-0.03125c-0.03125-0.48438-0.28125-0.6875-0.6875-0.6875-0.45312 0-0.9375 0.40625-1.2969 0.6875l0.15625 0.1875c0.21875-0.14062 0.5-0.32812 0.6875-0.32812 0.35938 0 0.39062 0.40625 0.39062 0.73438v3.3438l0.078125 0.09375 0.71875-0.25c-0.03125-0.5625-0.0625-1.2344-0.0625-1.6875 0-0.53125 0-1.3594 0.015625-1.5938 0.40625-0.29688 0.89062-0.57812 1.3594-0.57812 1.0469 0 0.84375 1.0625 0.84375 2.75v3.125z"/>
</g>
</defs>
<g transform="translate(-148.4 -130.12)">
<use x="148.71201" y="134.765" xlink:href="#a"/>
</g>
</svg>
