<?xml version="1.0" encoding="UTF-8"?>
<svg fill="#000000" version="1.1" viewBox="0 0 9.2812 5.4844" xmlns="http://www.w3.org/2000/svg" xmlns:xlink="http://www.w3.org/1999/xlink">
<defs>
<g id="a">
<path d="m2.5312-3.6562c0.5625-0.65625 0.875-1.375 0.875-1.4531 0-0.125-0.10938-0.125-0.20312-0.125-0.15625 0-0.15625 0.015625-0.25 0.20312-0.40625 0.92188-1.1406 1.8438-2.4375 2.4062-0.14062 0.046875-0.17188 0.0625-0.17188 0.125v0.0625c0.03125 0.03125 0.03125 0.03125 0.23438 0.125 1.0938 0.45312 1.9219 1.3125 2.4219 2.4688 0.046875 0.078125 0.078125 0.09375 0.20312 0.09375 0.09375 0 0.20312 0 0.20312-0.125 0-0.078125-0.3125-0.79688-0.875-1.4531h4.8906c-0.5625 0.65625-0.85938 1.375-0.85938 1.4531 0 0.125 0.10938 0.125 0.20312 0.125 0.14062 0 0.14062-0.015625 0.23438-0.20312 0.40625-0.92188 1.1406-1.8438 2.4531-2.4062 0.14062-0.046875 0.17188-0.0625 0.17188-0.14062 0-0.015625 0-0.03125-0.015625-0.046875-0.015625-0.03125-0.03125-0.03125-0.23438-0.125-1.0938-0.45312-1.9062-1.3125-2.4219-2.4688-0.03125-0.078125-0.078125-0.09375-0.1875-0.09375-0.09375 0-0.20312 0-0.20312 0.125 0 0.078125 0.29688 0.79688 0.85938 1.4531zm-0.39062 1.9375c-0.29688-0.29688-0.64062-0.53125-1.0469-0.78125 0.54688-0.3125 0.84375-0.5625 1.0469-0.76562h5.6719c0.29688 0.29688 0.64062 0.53125 1.0469 0.76562-0.54688 0.32812-0.84375 0.57812-1.0469 0.78125z"/>
</g>
</defs>
<g transform="translate(-149.06 -129.53)">
<use x="148.71201" y="134.765" xlink:href="#a"/>
</g>
</svg>
