<?xml version="1.0" encoding="UTF-8"?>
<svg fill="#000000" version="1.1" viewBox="0 0 4.5 6.2969" xmlns="http://www.w3.org/2000/svg" xmlns:xlink="http://www.w3.org/1999/xlink">
<defs>
<g id="a">
<path d="m2.9844-6.5312c-0.23438 0-0.4375 0.21875-0.4375 0.45312 0 0.25 0.21875 0.45312 0.46875 0.45312 0.23438 0 0.42188-0.20312 0.42188-0.45312 0-0.23438-0.1875-0.45312-0.45312-0.45312zm2.2656 4.0312c0-0.125-0.14062-0.23438-0.26562-0.23438h-1.7344v-1.7344c0-0.14062-0.125-0.26562-0.26562-0.26562s-0.25 0.125-0.25 0.26562v1.7344h-1.7344c-0.125 0-0.25 0.10938-0.25 0.23438 0 0.14062 0.125 0.26562 0.25 0.26562h1.7344v1.7344c0 0.125 0.10938 0.26562 0.25 0.26562s0.26562-0.125 0.26562-0.26562v-1.7344h1.7344c0.14062 0 0.26562-0.125 0.26562-0.26562z"/>
</g>
</defs>
<g transform="translate(-149.46 -128.23)">
<use x="148.71201" y="134.765" xlink:href="#a"/>
</g>
</svg>
