<?xml version="1.0" encoding="UTF-8"?>
<svg fill="#000000" version="1.1" viewBox="0 0 6.0938 8.6719" xmlns="http://www.w3.org/2000/svg" xmlns:xlink="http://www.w3.org/1999/xlink">
<defs>
<g id="a">
<path d="m6.7188-3.2344c0.15625-0.0625 0.20312-0.14062 0.20312-0.21875 0-0.125-0.078125-0.15625-0.20312-0.21875l-5.5-2.5938c-0.125-0.078125-0.17188-0.078125-0.1875-0.078125-0.10938 0-0.20312 0.09375-0.20312 0.20312 0 0.125 0.078125 0.15625 0.20312 0.21875l5.2188 2.4688-5.2344 2.4688c-0.14062 0.0625-0.1875 0.125-0.1875 0.21875 0 0.10938 0.09375 0.20312 0.20312 0.20312 0.03125 0 0.046875 0 0.17188-0.078125zm-0.15625 4.5938c0.17188 0 0.35938 0 0.35938-0.1875 0-0.20312-0.1875-0.20312-0.35938-0.20312h-2.2031l0.53125-0.53125c0.09375-0.09375 0.14062-0.14062 0.14062-0.23438 0-0.046875-0.03125-0.20312-0.20312-0.20312-0.078125 0-0.10938 0.03125-0.23438 0.15625l-0.79688 0.8125h-2.6094c-0.17188 0-0.35938 0-0.35938 0.20312 0 0.1875 0.17188 0.1875 0.34375 0.1875h2.2188c-0.1875 0.20312-0.35938 0.375-0.54688 0.54688-0.078125 0.09375-0.125 0.14062-0.125 0.23438 0 0.078125 0.046875 0.1875 0.1875 0.1875 0.09375 0 0.15625-0.0625 0.25-0.15625l0.79688-0.8125z"/>
</g>
</defs>
<g transform="translate(-149.54 -128.42)">
<use x="148.71201" y="134.765" xlink:href="#a"/>
</g>
</svg>
