<?xml version="1.0" encoding="UTF-8"?>
<svg fill="#000000" version="1.1" viewBox="0 0 3.3384 4.153" xmlns="http://www.w3.org/2000/svg" xmlns:xlink="http://www.w3.org/1999/xlink">
<defs>
<g id="a">
<path d="m0.95312-6.9062c0.078125-0.10938 0.1875-0.1875 0.29688-0.26562 0.09375-0.046875 0.1875-0.078125 0.28125-0.125 0.4375-0.14062 1.0781-0.14062 1.3438 0.3125 0.046875 0.0625 0.078125 0.15625 0.09375 0.23438 0.03125 0.125 0.046875 0.26562 0.046875 0.40625 0.046875 0.4375-0.015625 0.90625-0.32812 1.2344-0.15625 0.17188-0.32812 0.3125-0.54688 0.39062-0.078125 0.03125-0.15625 0.046875-0.23438 0.046875-0.046875 0.015625-0.10938 0.015625-0.14062 0.0625-0.0625 0.046875-0.046875 0.17188-0.046875 0.25v0.60938c0 0.078125-0.015625 0.1875 0.03125 0.25 0.03125 0.046875 0.078125 0.046875 0.14062 0.046875h0.35938c0.046875 0 0.10938 0 0.14062-0.03125 0.046875-0.0625 0.03125-0.17188 0.03125-0.23438v-0.5625c0-0.0625-0.015625-0.1875 0.015625-0.23438s0.10938-0.046875 0.17188-0.0625c0.125-0.046875 0.25-0.10938 0.375-0.17188 0.45312-0.21875 0.82812-0.625 0.89062-1.1562 0.03125-0.46875-0.14062-0.96875-0.5-1.2969-0.1875-0.15625-0.42188-0.26562-0.65625-0.32812-0.64062-0.15625-1.4688-0.09375-1.9375 0.4375-0.15625 0.20312-0.29688 0.53125-0.21875 0.78125 0.10938 0.3125 0.53125 0.42188 0.76562 0.20312 0.17188-0.17188 0.1875-0.48438 0.03125-0.65625-0.10938-0.10938-0.26562-0.15625-0.40625-0.14062z"/>
</g>
</defs>
<g transform="translate(-149.25 -127.16)">
<use x="148.71201" y="134.765" xlink:href="#a"/>
</g>
</svg>
