<?xml version="1.0" encoding="UTF-8"?>
<svg fill="#000000" version="1.1" viewBox="0 0 4.8906 4.6719" xmlns="http://www.w3.org/2000/svg" xmlns:xlink="http://www.w3.org/1999/xlink">
<defs>
<g id="a">
<path d="m2.375-1.5625c0.015625-0.015625 0.09375-0.09375 0.125-0.09375s0.40625 0.4375 0.48438 0.51562c0.28125 0.3125 0.57812 0.625 0.875 0.9375 0.03125 0.046875 0.0625 0.046875 0.078125 0.046875 0.078125 0 0.10938-0.078125 0.10938-0.10938 0-0.046875-0.3125-0.59375-0.59375-1.0938l-0.39062-0.71875 1.7344-0.79688c0.14062-0.078125 0.14062-0.10938 0.14062-0.15625s-0.03125-0.09375-0.10938-0.09375c0 0-0.48438 0.078125-1.9844 0.39062l-0.23438-1.875c-0.015625-0.1875-0.03125-0.21875-0.10938-0.21875-0.09375 0-0.125 0.046875-0.14062 0.21875l-0.21875 1.875-1.8438-0.375c-0.046875-0.015625-0.125-0.015625-0.14062-0.015625-0.078125 0-0.10938 0.046875-0.10938 0.09375 0 0.078125 0.046875 0.09375 0.15625 0.15625l1.7344 0.79688-0.9375 1.6562c-0.046875 0.10938-0.0625 0.125-0.0625 0.15625s0.03125 0.10938 0.10938 0.10938c0.015625 0 0.046875 0 0.15625-0.10938z"/>
</g>
</defs>
<g transform="translate(-148.76 -129.94)">
<use x="148.71201" y="134.765" xlink:href="#a"/>
</g>
</svg>
