<?xml version="1.0" encoding="UTF-8"?>
<svg fill="#000000" version="1.1" viewBox="0 0 6.6562 6.6562" xmlns="http://www.w3.org/2000/svg" xmlns:xlink="http://www.w3.org/1999/xlink">
<defs>
<g id="a">
<path d="m3.6719-3.5312h-2.875c-0.14062 0-0.25 0.0625-0.25 0.20312s0.10938 0.20312 0.25 0.20312h2.875v2.7188h-2.9219c-0.10938 0-0.20312 0.10938-0.20312 0.20312 0 0.14062 0.14062 0.1875 0.26562 0.1875h5.9062c0.0625 0 0.125 0.015625 0.20312 0.015625 0.14062 0 0.28125-0.0625 0.28125-0.20312s-0.125-0.20312-0.23438-0.20312h-2.8906v-2.7188h2.875c0.125 0 0.25-0.0625 0.25-0.20312 0-0.15625-0.14062-0.20312-0.26562-0.20312h-2.8594v-2.8438c0-0.14062-0.046875-0.28125-0.20312-0.28125-0.14062 0-0.20312 0.14062-0.20312 0.25z"/>
</g>
</defs>
<g transform="translate(-149.26 -128.11)">
<use x="148.71201" y="134.765" xlink:href="#a"/>
</g>
</svg>
