<?xml version="1.0" encoding="UTF-8"?>
<svg fill="#000000" version="1.1" viewBox="0 0 7.6562 4.4844" xmlns="http://www.w3.org/2000/svg" xmlns:xlink="http://www.w3.org/1999/xlink">
<defs>
<g id="a">
<path d="m4.6719-2.7344c0.59375-0.6875 1.0156-1.6094 1.9219-1.6094 0.79688 0 1.3281 0.76562 1.3281 1.6094 0 0.82812-0.53125 1.5938-1.3281 1.5938-0.90625 0-1.3281-0.90625-1.9219-1.5938zm-3.7812 2.2344h0.79688c1.1094 0 1.7969-0.96875 2.5625-1.7812 0.70312 0.78125 1.2969 1.7812 2.3438 1.7812 1.1406 0 1.9531-1.0469 1.9531-2.2344s-0.8125-2.25-1.9531-2.25c-1.0469 0-1.6406 1-2.3438 1.7812-0.76562-0.79688-1.4531-1.7812-2.5625-1.7812h-0.79688v0.64062h0.79688c0.95312 0 1.5 0.89062 2.125 1.6094-0.64062 0.70312-1.1719 1.5938-2.125 1.5938h-0.79688z"/>
</g>
</defs>
<g transform="translate(-149.6 -129.78)">
<use x="148.71201" y="134.765" xlink:href="#a"/>
</g>
</svg>
