<?xml version="1.0" encoding="UTF-8"?>
<svg fill="#000000" version="1.1" viewBox="0 0 6.3687 6.7413" xmlns="http://www.w3.org/2000/svg" xmlns:xlink="http://www.w3.org/1999/xlink">
<defs>
<g id="a">
<path d="m2.625-5.4219c-0.53125 0.0625-1.0312 0.25-1.4219 0.60938-0.5 0.5-0.75 1.25-0.60938 1.9375 0.078125 0.34375 0.25 0.67188 0.46875 0.95312 0.35938 0.42188 0.90625 0.6875 1.4531 0.75 0.32812 0.03125 0.65625 0.015625 0.98438 0.015625h3.2344c0.046875 0 0.10938 0.015625 0.14062-0.015625 0.046875-0.046875 0.046875-0.10938 0.046875-0.15625 0-0.09375 0.015625-0.20312-0.09375-0.23438h-0.17188-3.2344c-0.4375 0-0.875 0.03125-1.2812-0.10938-0.70312-0.23438-1.2188-0.9375-1.1875-1.6719 0.015625-0.23438 0.078125-0.46875 0.17188-0.67188 0.078125-0.14062 0.15625-0.26562 0.26562-0.375 0.28125-0.34375 0.70312-0.54688 1.1406-0.60938 0.15625-0.03125 0.3125-0.03125 0.45312-0.03125h3.7656c0.03125 0 0.09375 0 0.125-0.015625 0.0625-0.046875 0.046875-0.14062 0.046875-0.20312v-0.09375c-0.015625-0.03125-0.03125-0.046875-0.046875-0.0625-0.046875-0.015625-0.09375-0.015625-0.125-0.015625h-3.5156c-0.20312 0-0.40625-0.015625-0.60938 0zm0.79688 5.8438c-0.15625 0.20312-0.35938 0.39062-0.54688 0.59375-0.046875 0.0625-0.15625 0.17188-0.078125 0.25 0.03125 0.046875 0.09375 0.046875 0.14062 0.046875 0.10938 0 0.20312 0 0.28125-0.0625 0.0625-0.0625 0.125-0.14062 0.1875-0.20312 0.10938-0.125 0.21875-0.25 0.34375-0.375 0.03125-0.046875 0.09375-0.10938 0.14062-0.15625l0.09375-0.09375c0.046875-0.015625 0.14062 0 0.21875 0h2.4219c0.078125 0 0.15625 0 0.21875-0.015625 0.078125-0.015625 0.078125-0.09375 0.078125-0.17188s0.015625-0.1875-0.09375-0.21875h-0.15625-2.3281c0.15625-0.20312 0.34375-0.39062 0.53125-0.59375 0.0625-0.0625 0.17188-0.17188 0.078125-0.25-0.03125-0.046875-0.09375-0.046875-0.14062-0.046875-0.09375 0-0.20312 0-0.28125 0.0625-0.0625 0.0625-0.10938 0.14062-0.17188 0.20312-0.125 0.125-0.23438 0.25-0.35938 0.375-0.03125 0.0625-0.078125 0.10938-0.125 0.17188-0.03125 0.015625-0.0625 0.046875-0.09375 0.078125-0.0625 0.03125-0.15625 0-0.21875 0h-2.4375c-0.0625 0-0.14062 0-0.21875 0.015625s-0.078125 0.09375-0.078125 0.17188c0 0.09375-0.015625 0.20312 0.09375 0.21875h0.17188z"/>
</g>
</defs>
<g transform="translate(-149.27 -129.34)">
<use x="148.71201" y="134.765" xlink:href="#a"/>
</g>
</svg>
