<?xml version="1.0" encoding="UTF-8"?>
<svg fill="#000000" version="1.1" viewBox="0 0 6.6562 5.5625" xmlns="http://www.w3.org/2000/svg" xmlns:xlink="http://www.w3.org/1999/xlink">
<defs>
<g id="a">
<path d="m0.70312-2.6875c-0.10938 0.015625-0.15625 0.10938-0.15625 0.1875 0 0.125 0.10938 0.20312 0.25 0.20312h5.9062 0.20312c0.15625 0 0.29688-0.0625 0.29688-0.20312 0-0.10938-0.078125-0.1875-0.1875-0.20312h-6.2344c-0.03125 0-0.046875 0-0.078125 0.015625zm3.0781 1.7031c-0.29688 0.046875-0.54688 0.3125-0.54688 0.625 0 0.32812 0.25 0.64062 0.64062 0.64062 0.34375 0 0.625-0.28125 0.625-0.64062 0-0.32812-0.26562-0.625-0.625-0.625h-0.09375zm0-4.2969c-0.3125 0.046875-0.54688 0.3125-0.54688 0.64062s0.28125 0.625 0.64062 0.625c0.34375 0 0.625-0.28125 0.625-0.64062 0-0.32812-0.26562-0.625-0.625-0.625h-0.09375z"/>
</g>
</defs>
<g transform="translate(-149.26 -129.48)">
<use x="148.71201" y="134.765" xlink:href="#a"/>
</g>
</svg>
