<?xml version="1.0" encoding="UTF-8"?>
<svg fill="#000000" version="1.1" viewBox="0 0 6.8594 6.375" xmlns="http://www.w3.org/2000/svg" xmlns:xlink="http://www.w3.org/1999/xlink">
<defs>
<g id="a">
<path d="m3.0156-3.0469c0-0.20312-0.26562-0.9375-0.35938-1.2188 0.6875 0.39062 1.2344 0.15625 1.6406 0.48438 0.28125 0.25 0.3125 0.65625 0.3125 1.2344v0.10938c0 0.4375 0.015625 1.0781 0.46875 1.4688 0.625 0.51562 1.1875 0.09375 1.9844 0.73438-0.54688 0.1875-1.125 0.23438-1.6719 0.4375-0.09375 0.03125-0.14062 0.10938-0.14062 0.21875 0 0.14062 0.10938 0.21875 0.21875 0.21875 0.14062 0 0.79688-0.32812 1.625-0.32812 0.28125 0 0.57812 0.046875 0.85938 0.15625 0.03125 0.015625 0.0625 0.015625 0.078125 0.015625 0.14062 0 0.23438-0.10938 0.23438-0.23438 0-0.29688-0.79688-0.40625-1.1406-2.3438-0.015625-0.10938-0.10938-0.1875-0.23438-0.1875s-0.21875 0.10938-0.21875 0.23438c0 0.20312 0.25 0.9375 0.34375 1.2188-0.67188-0.39062-1.2344-0.15625-1.625-0.48438-0.29688-0.25-0.32812-0.65625-0.32812-1.2344v-0.10938c0-0.4375-0.015625-1.0781-0.48438-1.4688-0.60938-0.51562-1.1719-0.09375-1.9688-0.73438 0.54688-0.1875 1.125-0.23438 1.6719-0.4375 0.09375-0.03125 0.15625-0.10938 0.15625-0.21875 0-0.14062-0.125-0.21875-0.23438-0.21875-0.125 0-0.78125 0.32812-1.6094 0.32812-0.29688 0-0.59375-0.046875-0.875-0.15625-0.03125-0.015625-0.0625-0.015625-0.078125-0.015625-0.14062 0-0.23438 0.10938-0.23438 0.23438 0 0.29688 0.8125 0.40625 1.1406 2.3438 0.03125 0.10938 0.125 0.1875 0.23438 0.1875 0.14062 0 0.23438-0.10938 0.23438-0.23438z"/>
</g>
</defs>
<g transform="translate(-150.12 -129.03)">
<use x="148.71201" y="134.765" xlink:href="#a"/>
</g>
</svg>
