<?xml version="1.0" encoding="UTF-8"?>
<svg fill="#000000" version="1.1" viewBox="0 0 6.5312 6.5312" xmlns="http://www.w3.org/2000/svg" xmlns:xlink="http://www.w3.org/1999/xlink">
<defs>
<g id="a">
<path d="m7.8906-2.8281c0.14062 0 0.25-0.10938 0.25-0.23438 0-0.046875-0.03125-0.23438-0.03125-0.5625 0-1.3906 0.53125-1.7656 0.53125-1.9531 0-0.14062-0.125-0.23438-0.23438-0.23438-0.20312 0-0.5625 0.53125-1.9531 0.53125-0.34375 0-0.51562-0.015625-0.57812-0.015625-0.10938 0-0.21875 0.078125-0.21875 0.21875 0 0.23438 0.23438 0.25 0.48438 0.25h0.0625c0.375 0 0.76562-0.046875 1.1406-0.046875h0.03125l-1.9844 2-0.84375-1.7969c-0.03125-0.078125-0.125-0.10938-0.20312-0.078125-0.0625 0.03125-0.10938 0.125-0.0625 0.20312l0.875 1.8906-2.1094 2.1094v-0.10938c0-0.34375 0.046875-0.70312 0.046875-1.0625v-0.10938c0-0.21875-0.015625-0.4375-0.25-0.4375-0.125 0-0.21875 0.10938-0.21875 0.23438 0 0.046875 0.015625 0.23438 0.015625 0.5625 0 1.3906-0.53125 1.7656-0.53125 1.9531 0 0.14062 0.10938 0.23438 0.23438 0.23438 0.20312 0 0.5625-0.54688 1.9531-0.54688 0.34375 0 0.51562 0.03125 0.5625 0.03125 0.125 0 0.23438-0.078125 0.23438-0.21875 0-0.23438-0.23438-0.25-0.48438-0.25h-0.0625c-0.375 0-0.76562 0.046875-1.1406 0.046875h-0.03125l1.9844-2 0.84375 1.7969c0.03125 0.078125 0.10938 0.10938 0.20312 0.078125 0.0625-0.03125 0.10938-0.125 0.0625-0.20312l-0.875-1.8906 2.1094-2.1094v0.10938c0 0.34375-0.046875 0.70312-0.046875 1.0625v0.10938c0 0.21875 0.015625 0.4375 0.23438 0.4375z"/>
</g>
</defs>
<g transform="translate(-150.82 -128.95)">
<use x="148.71201" y="134.765" xlink:href="#a"/>
</g>
</svg>
