<?xml version="1.0" encoding="UTF-8"?>
<svg fill="#000000" version="1.1" viewBox="0 0 10.188 7.1562" xmlns="http://www.w3.org/2000/svg" xmlns:xlink="http://www.w3.org/1999/xlink">
<defs>
<g id="a">
<path d="m4.2031-5.6719c-0.03125 0.03125-0.046875 0.0625-0.078125 0.078125-0.25-0.60938-0.82812-1.2969-1.5156-1.2969-0.85938 0-1.5781 0.625-1.8281 0.85938-0.26562 0.28125-0.5 0.57812-0.5 0.98438 0 0.51562 0.40625 0.875 0.71875 1.3125 0.0625 0.078125 0.125 0.17188 0.125 0.28125 0 0.3125-0.32812 0.625-0.64062 0.79688l0.15625 0.10938c0.57812-0.29688 1.2188-0.6875 1.2188-1.3281 0-0.625-0.90625-0.9375-0.90625-1.75 0-0.3125 0.3125-0.65625 0.98438-0.65625 0.95312 0 1.5781 1.1094 1.5781 2.2188v0.40625c0 0.5625-0.046875 1.125-0.17188 1.6875-0.078125 0.34375-0.15625 0.76562-0.42188 1.0312-0.1875 0.1875-0.34375 0.32812-0.51562 0.45312-0.3125-0.26562-0.65625-0.57812-0.96875-0.57812-0.45312 0-0.90625 0.625-1.1719 1.0625l0.10938 0.15625c0.17188-0.21875 0.40625-0.42188 0.6875-0.42188s0.625 0.3125 0.84375 0.53125l1.7031-1.4844c0.59375-0.96875 0.71875-2.1094 0.71875-3.2344 0-0.078125-0.03125-0.54688-0.09375-0.82812 0.1875-0.35938 0.45312-0.70312 0.92188-0.70312 1 0 1 1.3594 1 2.3281 0 1.0781 0.03125 2.4375-0.53125 3-0.35938-0.23438-0.59375-0.375-0.79688-0.375-0.25 0-0.6875 0.53125-1.0312 1.0312l0.125 0.14062c0.1875-0.20312 0.3125-0.34375 0.59375-0.34375 0.1875 0 0.51562 0.25 0.6875 0.42188l1.2344-1.5c0.40625-0.96875 0.625-2.0156 0.625-3.0625 0-0.3125-0.078125-0.79688-0.14062-1.0938 0.28125-0.45312 0.6875-0.82812 1.25-0.82812 0.34375 0 0.4375 0.21875 0.59375 0.6875 0.15625 0.5 0.25 0.67188 0.42188 0.6875-0.3125 0.28125-0.57812 0.57812-0.79688 0.90625-0.09375 0.42188-0.15625 0.85938-0.15625 1.2812l0.015625 1.7188 0.5625 1.25 1.4375-1.0781v-0.1875c-0.21875 0.10938-0.51562 0.20312-0.57812 0.20312-0.25 0-0.46875-0.35938-0.54688-0.57812-0.09375-0.3125-0.09375-0.92188-0.09375-1.3906 0-0.64062 0.015625-1.375 0.3125-1.9531 0.32812-0.32812 0.70312-0.59375 1.1094-0.79688v-0.15625c-0.14062 0.046875-0.28125 0.09375-0.4375 0.09375-0.73438 0-0.39062-1.3125-1.25-1.3125-0.71875 0-1.5 0.625-1.9219 1.1406-0.17188-0.46875-0.4375-0.82812-1-0.82812-0.65625 0-1.2656 0.40625-1.6406 0.90625z"/>
</g>
</defs>
<g transform="translate(-148.98 -127.87)">
<use x="148.71201" y="134.765" xlink:href="#a"/>
</g>
</svg>
