<?xml version="1.0" encoding="UTF-8"?>
<svg fill="#000000" version="1.1" viewBox="0 0 6.8438 6.0781" xmlns="http://www.w3.org/2000/svg" xmlns:xlink="http://www.w3.org/1999/xlink">
<defs>
<g id="a">
<path d="m8.0625-4.1719c0.125 0 0.23438-0.078125 0.23438-0.21875 0-0.10938-0.078125-0.20312-0.17188-0.23438-0.34375-0.09375-0.70312-0.125-1.0625-0.125-1.1406 0-2.1406 0.46875-2.8594 1.1562l-1.625-0.75c-0.078125-0.03125-0.17188 0-0.20312 0.078125-0.03125 0.0625 0 0.15625 0.078125 0.20312l1.5312 0.70312c-0.71875 0.78125-1.0938 1.7969-1.0938 2.8438 0 0.10938 0.015625 0.25 0.015625 0.35938-0.40625-0.29688-1.0156-0.82812-1.2188-0.82812-0.10938 0-0.23438 0.09375-0.23438 0.23438 0 0.078125 0.046875 0.14062 0.125 0.1875 0.67188 0.39062 1.2969 0.875 1.6094 1.5781 0.0625 0.17188 0.10938 0.3125 0.26562 0.3125h0.046875c0.03125 0 0.20312-0.0625 0.20312-0.23438 0-0.82812 0.4375-1.5625 0.96875-2.2031 0.03125-0.03125 0.046875-0.09375 0.046875-0.14062 0-0.14062-0.10938-0.23438-0.21875-0.23438-0.0625 0-0.14062 0.03125-0.1875 0.078125-0.34375 0.42188-0.57812 0.9375-0.92188 1.3906-0.03125-0.17188-0.046875-0.34375-0.046875-0.5 0-0.96875 0.39062-1.9219 1.0625-2.6406l2.1719 1.0156c0.078125 0.03125 0.15625 0 0.20312-0.078125 0.03125-0.078125 0-0.15625-0.078125-0.1875l-2.0625-0.96875c0.71875-0.625 1.5781-0.92188 2.4219-0.92188 0.60938 0 0.90625 0.125 1 0.125z"/>
</g>
</defs>
<g transform="translate(-150.17 -130.02)">
<use x="148.71201" y="134.765" xlink:href="#a"/>
</g>
</svg>
