<?xml version="1.0" encoding="UTF-8"?>
<svg fill="#000000" version="1.1" viewBox="0 0 6.0625 12.641" xmlns="http://www.w3.org/2000/svg" xmlns:xlink="http://www.w3.org/1999/xlink">
<defs>
<g id="a">
<path d="m2.0781 1.1094c-0.25 1.0469-0.5 1.7656-1 1.7656-0.078125 0-0.10938-0.03125-0.10938-0.078125 0-0.078125 0.17188-0.14062 0.17188-0.40625 0-0.17188-0.15625-0.23438-0.29688-0.23438-0.28125 0-0.53125 0.25-0.53125 0.57812 0 0.25 0.15625 0.45312 0.5625 0.45312 1.1875 0 1.7656-1.375 1.9688-2.1719l1.8125-7.2812c0.25-1 0.48438-1.6406 0.95312-1.6406 0.078125 0 0.10938 0.03125 0.10938 0.078125 0 0.10938-0.17188 0.10938-0.17188 0.39062 0 0.17188 0.15625 0.26562 0.3125 0.26562 0.26562 0 0.51562-0.26562 0.51562-0.59375 0-0.23438-0.15625-0.45312-0.54688-0.45312-1.125 0-1.7188 1.2031-1.9219 2.0156zm2.7344 3.3125v-0.65625h-4.5v0.65625z"/>
</g>
</defs>
<g transform="translate(-149.02 -125.89)">
<use x="148.71201" y="134.112" xlink:href="#a"/>
</g>
</svg>
