<?xml version="1.0" encoding="UTF-8"?>
<svg fill="#000000" version="1.1" viewBox="0 0 6.625 7.0312" xmlns="http://www.w3.org/2000/svg" xmlns:xlink="http://www.w3.org/1999/xlink">
<defs>
<g id="a">
<path d="m4.3125-3.5c0-0.95312 0.26562-2.7656 1.5781-2.7656 0.3125 0 0.92188 0.15625 0.98438 0.76562 0.015625 0.09375 0.015625 0.17188 0.15625 0.17188 0.15625 0 0.15625-0.09375 0.15625-0.17188 0-0.59375-0.40625-1.5312-1.3125-1.5312-1.0312 0-1.7656 0.90625-2 2.4219-0.078125-0.42188-0.42188-2.4219-2.0156-2.4219-0.90625 0-1.2969 0.9375-1.2969 1.5312 0 0.078125 0 0.17188 0.15625 0.17188 0.14062 0 0.14062-0.078125 0.15625-0.14062 0.078125-0.79688 0.92188-0.79688 0.98438-0.79688 1.375 0 1.5625 1.9688 1.5625 2.7656v2.7188c0 0.32812 0 0.46875-0.9375 0.46875h-0.32812v0.3125c0.35938-0.03125 1.2969-0.03125 1.7188-0.03125 0.40625 0 1.3594 0 1.7188 0.03125v-0.3125h-0.32812c-0.95312 0-0.95312-0.125-0.95312-0.46875z"/>
</g>
</defs>
<g transform="translate(-149.27 -127.73)">
<use x="148.71201" y="134.765" xlink:href="#a"/>
</g>
</svg>
