<?xml version="1.0" encoding="UTF-8"?>
<svg fill="#000000" version="1.1" viewBox="0 0 4.0469 8.2812" xmlns="http://www.w3.org/2000/svg" xmlns:xlink="http://www.w3.org/1999/xlink">
<defs>
<g id="a">
<path d="m4.1719 1.3594c0.32812-0.40625 0.71875-0.9375 0.71875-1.4219 0-0.35938-0.39062-0.46875-0.79688-0.46875-0.23438 0-0.60938 0.0625-1 0.0625-1.0469 0-1.4844-0.79688-1.4844-1.625 0-1.7969 1.4688-3.7656 3.0156-4.25v-0.1875c-0.34375 0.046875-0.625 0.078125-0.89062 0.078125-0.54688 0-0.96875-0.10938-1.4375-0.4375-0.078125-0.03125-0.0625-0.03125-0.078125-0.03125h-0.0625l-0.26562 0.35938c-0.03125 0.015625-0.03125 0.015625-0.03125 0.03125 0.1875 0.17188 0.4375 0.23438 0.6875 0.26562l0.90625 0.078125 0.015625 0.078125c-1.2969 1.0781-2.625 2.7969-2.625 4.375 0 0.92188 0.375 1.8281 1.6094 1.8281 0.26562 0 0.9375-0.078125 1.3438-0.078125 0.21875 0 0.51562 0.14062 0.51562 0.375 0 0.25-0.20312 0.57812-0.34375 0.84375z"/>
</g>
</defs>
<g transform="translate(-149.56 -127.84)">
<use x="148.71201" y="134.765" xlink:href="#a"/>
</g>
</svg>
