<?xml version="1.0" encoding="UTF-8"?>
<svg fill="#000000" version="1.1" viewBox="0 0 3.3281 9.0625" xmlns="http://www.w3.org/2000/svg" xmlns:xlink="http://www.w3.org/1999/xlink">
<defs>
<g id="a">
<path d="m2.1094-4.875c-0.39062-0.046875-0.76562-0.25-1.1719-0.25-0.25 0-0.39062 0.15625-0.39062 0.35938s0.15625 0.34375 0.40625 0.34375c0.39062 0 0.78125-0.20312 1.1562-0.25-0.0625 0.60938-0.25 1.1875-0.25 1.7969 0 0.21875 0.14062 0.375 0.35938 0.375 0.25 0 0.34375-0.21875 0.34375-0.42188 0-0.5625-0.1875-1.1719-0.25-1.75 0.375 0.046875 0.76562 0.25 1.1562 0.25 0.26562 0 0.40625-0.14062 0.40625-0.34375s-0.14062-0.35938-0.39062-0.35938c-0.40625 0-0.76562 0.20312-1.1719 0.25 0.0625-0.59375 0.25-1.1875 0.25-1.7969 0-0.20312-0.14062-0.35938-0.34375-0.35938-0.26562 0-0.35938 0.21875-0.35938 0.40625 0 0.57812 0.1875 1.1719 0.25 1.75zm0 4.5312c-0.39062 0-0.78125-0.23438-1.1719-0.23438-0.21875 0-0.39062 0.125-0.39062 0.34375 0 0.1875 0.14062 0.35938 0.375 0.35938 0.40625 0 0.78125-0.23438 1.1875-0.25-0.078125 0.57812-0.25 1.1875-0.25 1.7656 0 0.1875 0.078125 0.39062 0.35938 0.39062 0.23438 0 0.34375-0.17188 0.34375-0.39062 0-0.35938-0.078125-0.71875-0.15625-1.0625-0.046875-0.23438-0.0625-0.46875-0.09375-0.70312 0.40625 0.015625 0.78125 0.25 1.1719 0.25 0.25 0 0.39062-0.14062 0.39062-0.34375s-0.14062-0.35938-0.375-0.35938c-0.40625 0-0.78125 0.23438-1.1875 0.23438 0.078125-0.5625 0.25-1.1719 0.25-1.75 0-0.1875-0.078125-0.40625-0.35938-0.40625-0.23438 0-0.34375 0.1875-0.34375 0.39062 0 0.35938 0.078125 0.71875 0.15625 1.0781 0.046875 0.21875 0.0625 0.46875 0.09375 0.6875z"/>
</g>
</defs>
<g transform="translate(-149.26 -127.73)">
<use x="148.71201" y="134.765" xlink:href="#a"/>
</g>
</svg>
