<?xml version="1.0" encoding="UTF-8"?>
<svg fill="#000000" width="4.3125" height="5.2188" version="1.1" viewBox="0 0 4.3125 5.2187" xmlns="http://www.w3.org/2000/svg" xmlns:xlink="http://www.w3.org/1999/xlink">
<defs>
<g id="a">
<path d="m4.6406-0.40625h-3.8594c-0.125 0-0.21875 0.10938-0.21875 0.23438s0.09375 0.23438 0.21875 0.23438h3.8594c0.14062 0 0.23438-0.10938 0.23438-0.23438s-0.09375-0.23438-0.23438-0.23438zm0-4.75c-0.046875 0-0.09375 0.015625-0.14062 0.046875-1.125 0.95312-2.3438 1.7344-3.7188 1.7344-0.14062 0-0.21875 0.09375-0.21875 0.23438 0 0.125 0.078125 0.23438 0.21875 0.23438 1.375 0 2.5938 0.76562 3.7188 1.7188 0.046875 0.046875 0.09375 0.046875 0.14062 0.046875 0.14062 0 0.23438-0.09375 0.23438-0.21875 0-0.0625-0.03125-0.14062-0.078125-0.17188-0.78125-0.65625-1.6562-1.2969-2.6406-1.6094 0.98438-0.32812 1.8594-0.96875 2.6406-1.6094 0.046875-0.046875 0.078125-0.10938 0.078125-0.17188 0-0.125-0.09375-0.23438-0.23438-0.23438z"/>
</g>
</defs>
<g transform="translate(-149.27 -129.61)">
<use x="148.71201" y="134.765" xlink:href="#a"/>
</g>
</svg>
