<?xml version="1.0" encoding="UTF-8"?>
<svg fill="#000000" width="4.7812" height="5.3438" version="1.1" viewBox="0 0 4.7812 5.3437" xmlns="http://www.w3.org/2000/svg" xmlns:xlink="http://www.w3.org/1999/xlink">
<defs>
<g id="a">
<path d="m0.53125-3.0781c-0.3125 0-0.54688 0.25-0.54688 0.53125 0 0.3125 0.25 0.54688 0.54688 0.54688 0.3125 0 0.53125-0.26562 0.53125-0.54688 0-0.3125-0.25-0.53125-0.53125-0.53125zm3.7031 2.125c-0.3125 0-0.54688 0.25-0.54688 0.54688 0 0.3125 0.25 0.53125 0.54688 0.53125 0.3125 0 0.53125-0.25 0.53125-0.53125 0-0.32812-0.25-0.54688-0.53125-0.54688zm0-4.2656c-0.3125 0-0.54688 0.25-0.54688 0.54688 0 0.3125 0.25 0.53125 0.54688 0.53125 0.3125 0 0.53125-0.25 0.53125-0.53125 0-0.32812-0.25-0.54688-0.53125-0.54688z"/>
</g>
</defs>
<g transform="translate(-148.7 -129.55)">
<use x="148.71201" y="134.765" xlink:href="#a"/>
</g>
</svg>
