<?xml version="1.0" encoding="UTF-8"?>
<svg fill="#000000" version="1.1" viewBox="0 0 5.4062 6.5625" xmlns="http://www.w3.org/2000/svg" xmlns:xlink="http://www.w3.org/1999/xlink">
<defs>
<g id="a">
<path d="m2.2969-3.5c0.0625-0.20312 0.15625-0.59375 0.15625-0.64062 0-0.17188-0.125-0.26562-0.29688-0.26562-0.015625 0-0.29688 0.015625-0.39062 0.35938l-1.4375 5.7656c-0.03125 0.125-0.03125 0.14062-0.03125 0.17188 0 0.14062 0.10938 0.26562 0.28125 0.26562 0.20312 0 0.32812-0.1875 0.34375-0.21875 0.046875-0.078125 0.17188-0.60938 0.54688-2.1406 0.32812 0.26562 0.78125 0.3125 0.96875 0.3125 0.70312 0 1.0938-0.45312 1.3281-0.73438 0.09375 0.45312 0.46875 0.73438 0.90625 0.73438 0.34375 0 0.57812-0.23438 0.73438-0.54688 0.17188-0.35938 0.29688-0.96875 0.29688-0.98438 0-0.10938-0.09375-0.10938-0.125-0.10938-0.09375 0-0.10938 0.046875-0.14062 0.1875-0.15625 0.64062-0.34375 1.2344-0.75 1.2344-0.26562 0-0.29688-0.26562-0.29688-0.45312 0-0.21875 0.10938-0.6875 0.1875-1.0469l0.28125-1.0781c0.03125-0.14062 0.14062-0.51562 0.17188-0.67188 0.046875-0.23438 0.15625-0.60938 0.15625-0.67188 0-0.17188-0.14062-0.26562-0.29688-0.26562-0.046875 0-0.3125 0.015625-0.39062 0.34375l-0.46875 1.875c-0.10938 0.5-0.21875 0.90625-0.25 1.0156-0.015625 0.046875-0.48438 0.95312-1.2969 0.95312-0.5 0-0.73438-0.32812-0.73438-0.875 0-0.28125 0.0625-0.5625 0.14062-0.84375z"/>
</g>
</defs>
<g transform="translate(-149.01 -130.36)">
<use x="148.71201" y="134.765" xlink:href="#a"/>
</g>
</svg>
