<?xml version="1.0" encoding="UTF-8"?>
<svg fill="#000000" version="1.1" viewBox="0 0 4.3125 6.6875" xmlns="http://www.w3.org/2000/svg" xmlns:xlink="http://www.w3.org/1999/xlink">
<defs>
<g id="a">
<path d="m4.6406-1.8906c-0.03125 0-0.078125 0.015625-0.10938 0.03125l-3.8594 2.2344c-0.078125 0.046875-0.10938 0.125-0.10938 0.20312 0 0.125 0.10938 0.21875 0.21875 0.21875 0.046875 0 0.09375-0.015625 0.10938-0.03125l3.875-2.2188c0.0625-0.046875 0.10938-0.125 0.10938-0.20312 0-0.125-0.10938-0.23438-0.23438-0.23438zm-3.3281-2.0781c-0.3125 0-0.53125 0.25-0.53125 0.54688s0.25 0.53125 0.53125 0.53125c0.32812 0 0.54688-0.26562 0.54688-0.53125 0-0.32812-0.25-0.54688-0.54688-0.54688zm-0.53125 2.9844c0.046875 0 0.09375 0 0.10938-0.015625l3.875-2.2344c0.0625-0.046875 0.10938-0.10938 0.10938-0.1875 0-0.09375-0.046875-0.17188-0.10938-0.20312l-3.875-2.2344c-0.015625-0.015625-0.0625-0.03125-0.10938-0.03125-0.10938 0-0.21875 0.09375-0.21875 0.23438 0 0.078125 0.03125 0.15625 0.10938 0.1875l3.5156 2.0469-3.5156 2.0156c-0.078125 0.046875-0.10938 0.125-0.10938 0.20312 0 0.125 0.10938 0.21875 0.21875 0.21875z"/>
</g>
</defs>
<g transform="translate(-149.27 -128.87)">
<use x="148.71201" y="134.765" xlink:href="#a"/>
</g>
</svg>
