<?xml version="1.0" encoding="UTF-8"?>
<svg fill="#000000" version="1.1" viewBox="0 0 8.8545 11.082" xmlns="http://www.w3.org/2000/svg" xmlns:xlink="http://www.w3.org/1999/xlink">
<defs>
<g id="a">
<path d="m3.2031 3.0156h-2.2812c-0.3125 0-0.29688 0.10938-0.29688 0.375v4.3125c0 0.10938-0.015625 0.21875 0.0625 0.29688 0.125 0.10938 0.40625 0.0625 0.54688 0.0625h1.4688c-0.046875 0.1875-0.046875 0.39062-0.046875 0.59375-0.078125 0.95312-0.15625 2.375-1.2031 2.1875-0.17188-0.03125-0.28125-0.125-0.4375-0.1875v-0.01563c0.53125-0.07812 0.45312-0.8125-0.015625-0.82812-0.3125-0.015625-0.48438 0.25-0.4375 0.53125 0.078125 0.51562 0.6875 0.79688 1.3281 0.71875 1.0625-0.20312 1.3438-1.5312 1.4688-2.4219 0.03125-0.20312 0.046875-0.39062 0.078125-0.57812h2.5781c-0.03125 0.42188-0.0625 0.85938-0.10938 1.2812-0.0625 0.5625-0.1875 1.2031-0.60938 1.4375-0.29688 0.15625-0.70312 0.0625-0.95312-0.14062 0.125-0.03125 0.23438-0.0625 0.29688-0.17188 0.1875-0.26562 0-0.64062-0.3125-0.65625-0.29688-0.015625-0.48438 0.23438-0.4375 0.51562 0.03125 0.23438 0.17188 0.42188 0.375 0.5625 0.65625 0.39062 1.4219 0.14062 1.8438-0.45312 0.35938-0.51562 0.48438-1.1406 0.5625-1.75 0.03125-0.21875 0.0625-0.42188 0.09375-0.625h2.2812c0.29688 0 0.28125-0.125 0.28125-0.375v-4.3125c0-0.10938 0.015625-0.21875-0.0625-0.29688-0.10938-0.10938-0.39062-0.0625-0.54688-0.0625h-1.4531c0-0.1875 0.03125-0.40625 0.046875-0.60938 0.0625-0.8125 0.125-2.1094 0.92188-2.1875 0.29688-0.03125 0.5 0.09375 0.70312 0.20312-0.51562 0.09375-0.46875 0.75-0.03125 0.82812 0.32812 0.0625 0.53125-0.20312 0.5-0.5-0.03125-0.23438-0.1875-0.4375-0.39062-0.5625-0.60938-0.375-1.3906-0.17188-1.7969 0.39062-0.39062 0.53125-0.53125 1.2031-0.60938 1.8281-0.03125 0.20312-0.078125 0.42188-0.078125 0.60938h-2.5938c0.03125-0.15625 0.03125-0.32812 0.046875-0.48438 0.078125-0.76562 0.078125-1.9062 0.6875-2.2344 0.28125-0.15625 0.6875-0.0625 0.9375 0.125-0.10938 0.03125-0.21875 0.078125-0.29688 0.1875-0.1875 0.28125 0.03125 0.67188 0.375 0.65625 0.29688-0.015625 0.4375-0.28125 0.39062-0.54688-0.09375-0.51562-0.71875-0.78125-1.3281-0.70312-0.90625 0.15625-1.2656 1.2031-1.4062 1.9844-0.0625 0.32812-0.09375 0.6875-0.14062 1.0156zm-0.046875 0.40625c-0.15625 1.0469-0.25 2.0938-0.35938 3.1562-0.015625 0.26562-0.03125 0.53125-0.0625 0.79688 0 0.0625 0.03125 0.21875-0.015625 0.26562-0.03125 0.03125-0.09375 0.015625-0.14062 0.015625h-1.5469v-4.2344zm3.3125 0-0.125 1.0156c-0.10938 1.0625-0.21875 2.125-0.29688 3.2188h-2.5625c0.15625-1.0469 0.25-2.1094 0.35938-3.1562l0.046875-0.79688c0-0.0625-0.015625-0.21875 0.03125-0.26562 0.046875-0.03125 0.14062-0.015625 0.1875-0.015625zm2.4688 0v4.2344h-2.125c0.17188-1.375 0.3125-2.7969 0.42188-4.2344z"/>
</g>
</defs>
<g transform="translate(-149.27 -126.74)">
<use x="148.71201" y="126.739" xlink:href="#a"/>
</g>
</svg>
