<?xml version="1.0" encoding="UTF-8"?>
<svg fill="#000000" version="1.1" viewBox="0 0 4.3125 9.8125" xmlns="http://www.w3.org/2000/svg" xmlns:xlink="http://www.w3.org/1999/xlink">
<defs>
<g id="a">
<path d="m4.6406-1.7188c0.14062 0 0.23438-0.10938 0.23438-0.23438 0-0.0625-0.03125-0.125-0.078125-0.17188-0.51562-0.4375-1.0938-0.875-1.7188-1.2031l0.26562-0.95312c0.51562-0.3125 1-0.6875 1.4531-1.0625 0.046875-0.046875 0.078125-0.10938 0.078125-0.17188 0-0.125-0.09375-0.23438-0.23438-0.23438-0.17188 0-0.1875 0.17188-1.125 0.8125l0.625-2.3281c0.015625-0.09375-0.046875-0.1875-0.15625-0.1875-0.0625 0-0.10938 0.046875-0.14062 0.10938l-0.70312 2.6562c-0.73438 0.4375-1.5156 0.71875-2.3594 0.71875-0.14062 0-0.21875 0.09375-0.21875 0.23438s0.078125 0.21875 0.21875 0.21875c0.67188 0 1.2969 0.20312 1.9062 0.5l-0.5625 2.0938c-0.125-0.0625-0.26562-0.09375-0.42188-0.09375-0.92188 0-1.1406 1.1406-1.1406 1.3906 0 0.14062 0.046875 0.28125 0.21875 0.28125 0.10938 0 0.21875-0.09375 0.23438-0.21875 0.03125-0.375 0.23438-1 0.6875-1 0.10938 0 0.20312 0.046875 0.29688 0.09375l-0.70312 2.6406c-0.015625 0.09375 0.03125 0.1875 0.15625 0.1875 0.046875 0 0.10938-0.046875 0.125-0.10938l0.6875-2.5469c0.40625 0.375 0.8125 0.96875 1.4531 0.96875 0.92188 0 1.1562-1.1562 1.1562-1.375 0-0.17188-0.0625-0.29688-0.23438-0.29688-0.10938 0-0.21875 0.09375-0.21875 0.21875-0.03125 0.375-0.25 0.98438-0.70312 0.98438-0.46875 0-0.82812-0.60938-1.3281-0.96875l0.5625-2.1094c1.0938 0.60938 1.5 1.1562 1.6875 1.1562zm-1.6719-2.375-0.15625 0.625c-0.21875-0.09375-0.4375-0.1875-0.65625-0.26562 0.28125-0.09375 0.5625-0.21875 0.8125-0.35938z"/>
</g>
</defs>
<g transform="translate(-149.27 -127.31)">
<use x="148.71201" y="134.765" xlink:href="#a"/>
</g>
</svg>
