<?xml version="1.0" encoding="UTF-8"?>
<svg fill="#000000" width="4.7969" height="4.9688" version="1.1" viewBox="0 0 4.7969 4.9687" xmlns="http://www.w3.org/2000/svg" xmlns:xlink="http://www.w3.org/1999/xlink">
<defs>
<g id="a">
<path d="m5.2969-4.2812 0.39062-0.39062c-0.39062-0.375-0.76562-0.79688-1.3125-0.79688-0.48438 0-0.92188 0.25-1.2812 0.5625-0.26562 0.21875-0.5625 0.40625-0.90625 0.40625-0.35938 0-0.64062-0.28125-0.90625-0.53125l-0.39062 0.35938c0.39062 0.39062 0.78125 0.79688 1.3125 0.79688 0.48438 0 0.92188-0.21875 1.2812-0.54688 0.26562-0.21875 0.5625-0.40625 0.90625-0.40625 0.35938 0 0.64062 0.26562 0.90625 0.54688zm0.39062 1.2188h-4.7969v0.64062h4.7969zm0 1.9219h-4.7969v0.64062h4.7969z"/>
</g>
</defs>
<g transform="translate(-149.6 -129.3)">
<use x="148.71201" y="134.765" xlink:href="#a"/>
</g>
</svg>
