<?xml version="1.0" encoding="UTF-8"?>
<svg fill="#000000" version="1.1" viewBox="0 0 6.5469 11.406" xmlns="http://www.w3.org/2000/svg" xmlns:xlink="http://www.w3.org/1999/xlink">
<defs>
<g id="a">
<path d="m5.4062-2.5156c0-0.46875-0.375-0.78125-0.78125-0.78125-0.375 0-0.78125 0.3125-0.78125 0.78125s0.32812 0.76562 0.78125 0.76562c0.46875 0 0.78125-0.375 0.78125-0.76562zm-0.79688-3.625c0.25-1.0469 0.5-1.7656 1-1.7656 0.078125 0 0.10938 0.03125 0.10938 0.078125 0 0.09375-0.17188 0.15625-0.17188 0.40625 0 0.17188 0.15625 0.25 0.3125 0.25 0.26562 0 0.51562-0.26562 0.51562-0.59375 0-0.23438-0.15625-0.45312-0.54688-0.45312-1.2031 0-1.7812 1.375-1.9844 2.1719l-0.54688 2.2344c0.34375-0.35938 0.8125-0.5625 1.3281-0.5625 1.0312 0 1.8594 0.84375 1.8594 1.8594 0 1.0312-0.82812 1.875-1.8594 1.875-0.84375 0-1.5469-0.57812-1.7812-1.3594l-0.8125 3.2344c-0.25 1.0156-0.48438 1.6406-0.95312 1.6406-0.078125 0-0.10938-0.03125-0.10938-0.078125 0-0.10938 0.17188-0.09375 0.17188-0.39062 0-0.15625-0.15625-0.25-0.29688-0.25-0.28125 0-0.53125 0.25-0.53125 0.57812 0 0.25 0.15625 0.45312 0.5625 0.45312 1.1094 0 1.7031-1.2031 1.9062-2.0156l0.48438-1.9062c0.375 0.29688 0.84375 0.46875 1.3438 0.46875 1.25 0 2.25-1.0156 2.25-2.25s-1-2.2344-2.25-2.2344c-0.10938 0-0.25 0-0.35938 0.03125z"/>
</g>
</defs>
<g transform="translate(-149.02 -126.51)">
<use x="148.71201" y="134.72501" xlink:href="#a"/>
</g>
</svg>
