<?xml version="1.0" encoding="UTF-8"?>
<svg fill="#000000" version="1.1" viewBox="0 0 5.5469 7.8906" xmlns="http://www.w3.org/2000/svg" xmlns:xlink="http://www.w3.org/1999/xlink">
<defs>
<g id="a">
<path d="m5.9688 0.25v-0.67188l-0.90625-0.45312c0.1875-0.46875 0.29688-1.0156 0.29688-1.6406 0-0.64062-0.10938-1.1875-0.28125-1.6719l0.89062-0.45312v-0.65625l-1.1562 0.5625c-0.45312-0.84375-1.1406-1.4062-1.6875-1.7344l-0.26562 0.42188c0.65625 0.35938 1.1406 0.92188 1.4844 1.5469l-0.92188 0.4375c-0.42188-1.2344-1.3125-2-2-2.4062l-0.25 0.42188c0.89062 0.48438 1.4688 1.375 1.7656 2.2344l-2.5156 1.2344v0.09375l2.5156 1.25c-0.28125 0.85938-0.85938 1.7188-1.7656 2.2188l0.25 0.4375c0.6875-0.40625 1.5781-1.1875 2-2.4219l0.92188 0.45312c-0.34375 0.60938-0.82812 1.1719-1.4844 1.5312l0.26562 0.4375c0.54688-0.32812 1.2188-0.89062 1.6875-1.7344zm-2.3906-1.875c0.0625-0.28125 0.09375-0.57812 0.09375-0.89062 0-0.32812-0.03125-0.64062-0.09375-0.92188l1-0.5c0.20312 0.5 0.28125 1 0.28125 1.4219 0 0.40625-0.078125 0.90625-0.28125 1.4062zm-1.7969-0.90625 1.3125-0.67188c0.0625 0.25 0.078125 0.46875 0.078125 0.6875 0 0.20312-0.015625 0.42188-0.078125 0.65625z"/>
</g>
</defs>
<g transform="translate(-149.13 -128.3)">
<use x="148.71201" y="134.765" xlink:href="#a"/>
</g>
</svg>
