<?xml version="1.0" encoding="UTF-8"?>
<svg fill="#000000" version="1.1" viewBox="0 0 3.3281 5.125" xmlns="http://www.w3.org/2000/svg" xmlns:xlink="http://www.w3.org/1999/xlink">
<defs>
<g id="a">
<path d="m1.9688-5.5c0 0.23438 0.20312 0.45312 0.4375 0.45312 0.25 0 0.45312-0.20312 0.45312-0.45312s-0.20312-0.45312-0.45312-0.45312-0.4375 0.20312-0.4375 0.45312zm2.1094 1.6094c0-0.14062-0.125-0.26562-0.26562-0.26562-0.0625 0-0.125 0.03125-0.17188 0.078125l-1.2344 1.2344-1.2344-1.2344c-0.046875-0.046875-0.078125-0.078125-0.17188-0.078125-0.125 0-0.25 0.125-0.25 0.26562 0 0.078125 0.015625 0.10938 0.078125 0.17188l1.2188 1.2188-1.2188 1.25c-0.046875 0.046875-0.078125 0.078125-0.078125 0.15625 0 0.14062 0.125 0.26562 0.25 0.26562 0.09375 0 0.14062-0.03125 0.1875-0.078125l1.2188-1.2344 1.2344 1.2344c0.0625 0.0625 0.09375 0.078125 0.17188 0.078125 0.14062 0 0.26562-0.125 0.26562-0.26562 0-0.0625-0.03125-0.125-0.078125-0.17188l-1.2344-1.2344 1.2344-1.2188c0.046875-0.046875 0.078125-0.10938 0.078125-0.17188z"/>
</g>
</defs>
<g transform="translate(-149.46 -128.81)">
<use x="148.71201" y="134.765" xlink:href="#a"/>
</g>
</svg>
