<?xml version="1.0" encoding="UTF-8"?>
<svg fill="#000000" version="1.1" viewBox="0 0 5.534 11.083" xmlns="http://www.w3.org/2000/svg" xmlns:xlink="http://www.w3.org/1999/xlink">
<defs>
<g id="a">
<path d="m3.2031 3.0156h-2.1094c-0.3125 0-0.29688 0.125-0.29688 0.375v4.3125c0 0.10938-0.015625 0.21875 0.0625 0.29688 0.125 0.10938 0.35938 0.0625 0.5 0.0625h1.3438c-0.03125 0.15625-0.03125 0.32812-0.046875 0.48438-0.046875 0.75-0.078125 1.9062-0.65625 2.2344-0.3125 0.15625-0.73438 0.0625-0.98438-0.14062 0.125-0.03125 0.23438-0.0625 0.29688-0.17188 0.1875-0.29688-0.03125-0.67188-0.35938-0.65625-0.3125 0-0.4375 0.28125-0.39062 0.54688 0.078125 0.5 0.70312 0.78125 1.3281 0.70312 1.0625-0.20312 1.3438-1.5156 1.4688-2.4219 0.03125-0.20312 0.046875-0.39062 0.078125-0.57812h2.1094c0.3125 0 0.29688-0.125 0.29688-0.375v-4.3125c0-0.10938 0.015625-0.21875-0.0625-0.29688-0.10938-0.10938-0.375-0.0625-0.5-0.0625h-1.3438c0.03125-0.15625 0.03125-0.32812 0.046875-0.48438 0.046875-0.75 0.078125-1.9062 0.67188-2.2344 0.28125-0.15625 0.70312-0.0625 0.95312 0.125-0.10938 0.03125-0.21875 0.078125-0.29688 0.1875-0.1875 0.28125 0.03125 0.67188 0.375 0.65625 0.29688-0.015625 0.4375-0.28125 0.39062-0.54688-0.078125-0.40625-0.51562-0.67188-0.9375-0.70312-0.125-0.03125-0.26562-0.03125-0.39062 0-1.0781 0.20312-1.3438 1.5156-1.4688 2.4219-0.03125 0.1875-0.046875 0.39062-0.078125 0.57812zm-0.046875 0.40625c-0.14062 0.95312-0.25 1.9219-0.32812 2.8906-0.03125 0.45312-0.09375 0.89062-0.09375 1.3438h-1.5312v-4.2344zm2.2812 0v4.2344h-1.9531c0.14062-0.95312 0.25-1.9219 0.32812-2.8906 0.03125-0.45312 0.09375-0.89062 0.09375-1.3438z"/>
</g>
</defs>
<g transform="translate(-149.26 -126.73)">
<use x="148.71201" y="126.739" xlink:href="#a"/>
</g>
</svg>
