<?xml version="1.0" encoding="UTF-8"?>
<svg fill="#000000" version="1.1" viewBox="0 0 1.7266 8.8538" xmlns="http://www.w3.org/2000/svg" xmlns:xlink="http://www.w3.org/1999/xlink">
<defs>
<g id="a">
<path d="m2.6875 0.45312v-6.8906-0.32812c0-0.046875 0-0.10938-0.046875-0.14062s-0.125-0.015625-0.17188-0.015625c-0.03125 0-0.09375 0-0.125 0.015625-0.046875 0.03125-0.046875 0.09375-0.046875 0.14062v0.28125 7.875 0.375c0 0.0625 0 0.125 0.0625 0.14062 0.0625 0.03125 0.15625 0.03125 0.21875-0.015625 0.03125-0.046875 0.0625-0.10938 0.09375-0.17188 0.046875-0.10938 0.10938-0.21875 0.17188-0.3125 0.21875-0.375 0.46875-0.73438 0.73438-1.0625 0.09375-0.10938 0.1875-0.21875 0.26562-0.32812 0.046875-0.0625 0.125-0.10938 0.15625-0.1875 0.03125-0.0625 0.03125-0.20312 0-0.26562-0.015625-0.0625-0.078125-0.078125-0.14062-0.046875-0.078125 0.03125-0.15625 0.09375-0.21875 0.14062-0.15625 0.10938-0.29688 0.23438-0.4375 0.34375-0.17188 0.15625-0.34375 0.29688-0.51562 0.45312z"/>
</g>
</defs>
<g transform="translate(-151.01 -127.84)">
<use x="148.71201" y="134.765" xlink:href="#a"/>
</g>
</svg>
