<?xml version="1.0" encoding="UTF-8"?>
<svg fill="#000000" version="1.1" viewBox="0 0 4.3594 8.2344" xmlns="http://www.w3.org/2000/svg" xmlns:xlink="http://www.w3.org/1999/xlink">
<defs>
<g id="a">
<path d="m2.6094 0.10938v1.8281h0.29688v-1.8281c0.875-0.046875 1.5469-0.5 1.7812-1.2656v-0.03125c0-0.03125-0.03125-0.078125-0.078125-0.09375h-0.078125c-0.03125 0-0.078125 0.03125-0.078125 0.0625-0.21875 0.67188-0.79688 1.0781-1.6094 1.0781-0.46875 0-0.92188-0.21875-1.2344-0.57812-0.3125-0.39062-0.4375-0.90625-0.4375-1.4219 0-0.54688 0.09375-1.0625 0.40625-1.4844 0.29688-0.35938 0.71875-0.57812 1.1875-0.57812 0.54688 0 1.0781 0.09375 1.3594 0.34375-0.23438 0-0.45312 0.15625-0.45312 0.45312 0 0.3125 0.21875 0.46875 0.4375 0.46875 0.23438 0 0.46875-0.15625 0.46875-0.46875 0-0.76562-0.875-1.0156-1.6719-1.0469v-1.8438h-0.29688v1.8438c-0.57812 0.03125-1.1406 0.26562-1.5625 0.67188-0.45312 0.42188-0.71875 1.0156-0.71875 1.6406 0 0.60938 0.26562 1.1875 0.71875 1.5938 0.42188 0.39062 0.98438 0.60938 1.5625 0.65625z"/>
</g>
</defs>
<g transform="translate(-149.04 -128.47)">
<use x="148.71201" y="134.765" xlink:href="#a"/>
</g>
</svg>
