<?xml version="1.0" encoding="UTF-8"?>
<svg fill="#000000" version="1.1" viewBox="0 0 5.9688 7.1719" xmlns="http://www.w3.org/2000/svg" xmlns:xlink="http://www.w3.org/1999/xlink">
<defs>
<g id="a">
<path d="m3.0938-7.1562c-0.75 0.03125-2.6719 0.45312-2.6719 2.7969 0 0.79688 0.28125 1.5 0.82812 2.1094h-0.82812v0.82812h2.4844c-0.9375-0.59375-1.4219-1.5156-1.4219-2.75 0-0.1875 0.015625-0.40625 0.046875-0.64062 0.57812-1.6406 0.96875-2.0781 1.8281-2.0781 0.09375 0 0.20312 0 0.3125 0.015625 0.96875 0.4375 1.5938 1.4062 1.5938 2.4531 0 1.375-0.45312 2.375-1.3906 3h2.4688v-0.82812h-0.95312l0.34375-0.26562 0.34375-0.5c0.21875-0.34375 0.3125-0.78125 0.3125-1.3281 0-1.7812-1.2031-2.8125-3.2969-2.8125zm-2.6719 6.3438v0.82812h5.9219v-0.82812z"/>
</g>
</defs>
<g transform="translate(-149.13 -127.61)">
<use x="148.71201" y="134.765" xlink:href="#a"/>
</g>
</svg>
