<?xml version="1.0" encoding="UTF-8"?>
<svg fill="#000000" version="1.1" viewBox="0 0 2.5957 3.1612" xmlns="http://www.w3.org/2000/svg" xmlns:xlink="http://www.w3.org/1999/xlink">
<defs>
<g id="a">
<path d="m0.45312-3.9531 0.1875 0.15625c0.09375-0.078125 0.17188-0.1875 0.26562-0.29688 0.15625-0.15625 0.29688-0.32812 0.4375-0.48438 0.4375-0.48438 0.875-0.96875 1.3125-1.4531 0.078125-0.078125 0.14062-0.15625 0.21875-0.23438 0.0625-0.0625 0.10938-0.10938 0.14062-0.1875 0.0625-0.10938 0.03125-0.26562-0.046875-0.35938-0.03125-0.046875-0.078125-0.078125-0.125-0.09375-0.015625-0.015625-0.0625-0.03125-0.09375-0.046875-0.28125-0.046875-0.42188 0.25-0.54688 0.4375l-0.10938 0.17188c-0.35938 0.51562-0.73438 1.0469-1.0938 1.5781-0.10938 0.15625-0.21875 0.3125-0.3125 0.46875-0.078125 0.10938-0.17188 0.23438-0.23438 0.34375z"/>
</g>
</defs>
<g transform="translate(-149.17 -127.81)">
<use x="148.71201" y="134.765" xlink:href="#a"/>
</g>
</svg>
