<?xml version="1.0" encoding="UTF-8"?>
<svg fill="#000000" version="1.1" viewBox="0 0 6.7656 6.4531" xmlns="http://www.w3.org/2000/svg" xmlns:xlink="http://www.w3.org/1999/xlink">
<defs>
<g id="a">
<path d="m5.0938-3.8438-0.73438-2.0938c-0.015625-0.09375-0.10938-0.15625-0.20312-0.15625-0.10938 0-0.1875 0.0625-0.21875 0.15625l-0.73438 2.0938-2.2031 0.046875c-0.14062 0-0.23438 0.125-0.23438 0.23438 0 0.0625 0.046875 0.14062 0.10938 0.17188l1.75 1.3438-0.64062 2.1094c-0.015625 0.03125-0.015625 0.046875-0.015625 0.078125 0 0.125 0.125 0.21875 0.23438 0.21875 0.046875 0 0.09375-0.015625 0.125-0.046875l1.8281-1.2656 1.8125 1.2656c0.046875 0.03125 0.078125 0.046875 0.125 0.046875 0.10938 0 0.23438-0.09375 0.23438-0.21875 0-0.015625 0-0.046875-0.015625-0.078125l-0.625-2.1094 1.75-1.3438c0.0625-0.03125 0.09375-0.10938 0.09375-0.17188 0-0.10938-0.078125-0.23438-0.21875-0.23438zm-0.9375-1.3125 0.5625 1.625c0.03125 0.078125 0.10938 0.14062 0.20312 0.14062l1.7188 0.03125-1.3594 1.0312c-0.09375 0.0625-0.125 0.17188-0.09375 0.25l0.5 1.6562-1.4062-0.98438c-0.078125-0.0625-0.17188-0.0625-0.26562 0l-1.4062 0.98438 0.5-1.6562c0.03125-0.078125 0-0.1875-0.078125-0.25l-1.3594-1.0312 1.7031-0.03125c0.10938 0 0.1875-0.0625 0.21875-0.14062z"/>
</g>
</defs>
<g transform="translate(-149.48 -128.67)">
<use x="148.71201" y="134.765" xlink:href="#a"/>
</g>
</svg>
