<?xml version="1.0" encoding="UTF-8"?>
<svg fill="#000000" version="1.1" viewBox="0 0 9.1094 7.25" xmlns="http://www.w3.org/2000/svg" xmlns:xlink="http://www.w3.org/1999/xlink">
<defs>
<g id="a">
<path d="m5.5469 0h3.8594l0.40625-2.5781h-0.25c-0.23438 1.4844-0.39062 2.2656-2.0938 2.2656h-1.0938c-0.46875 0-0.5-0.0625-0.5-0.39062v-2.6719h1.0781c1 0 1.1406 0.29688 1.1406 1.1562h0.25v-2.6406h-0.25c0 0.85938-0.14062 1.1719-1.1406 1.1719h-1.0781v-2.4062c0-0.34375 0.03125-0.40625 0.5-0.40625h1.1094c1.4219 0 1.6406 0.59375 1.8125 1.9375h0.25l-0.28125-2.25h-3.7188c-0.17188 0-0.3125 0-0.85938-0.10938-0.42188-0.10938-0.59375-0.10938-0.70312-0.10938-1.7188 0-3.2812 1.5469-3.2812 3.6562 0 2.0781 1.5625 3.5938 3.2812 3.5938 0.25 0 0.42188-0.03125 0.79688-0.10938 0.46875-0.10938 0.60938-0.10938 0.76562-0.10938zm-1.5156 0c-1.2969 0-2.3438-1.5625-2.3438-3.5312 0-1.8906 1.0781-3.2812 2.3438-3.2812 0.875 0 0.98438 0.48438 1.0469 1.0469 0.046875 0.4375 0.046875 1.2969 0.046875 2.3594 0 1.2656 0 1.8594-0.046875 2.3125-0.0625 0.67188-0.21875 1.0938-1.0469 1.0938z"/>
</g>
</defs>
<g transform="translate(-149.42 -127.73)">
<use x="148.71201" y="134.765" xlink:href="#a"/>
</g>
</svg>
