<?xml version="1.0" encoding="UTF-8"?>
<svg fill="#000000" version="1.1" viewBox="0 0 7.4826 7.4796" xmlns="http://www.w3.org/2000/svg" xmlns:xlink="http://www.w3.org/1999/xlink">
<defs>
<g id="a">
<path d="m0.20312-6.2344c-0.046875 0.03125-0.0625 0.078125-0.0625 0.125-0.015625 0.09375 0 0.1875 0 0.28125v6.8906c0 0.046875 0 0.09375 0.03125 0.14062 0.03125 0.03125 0.09375 0.03125 0.14062 0.03125h0.29688 6.7812c0.046875 0 0.10938 0.015625 0.15625-0.015625 0.046875-0.015625 0.0625-0.0625 0.0625-0.10938 0.015625-0.10938 0-0.1875 0-0.29688v-6.875c0-0.046875 0-0.09375-0.015625-0.14062-0.03125-0.03125-0.09375-0.03125-0.14062-0.03125h-0.3125-6.7656c-0.0625 0-0.10938-0.015625-0.17188 0zm3.6406 1.7812c-0.078125 0.03125-0.10938 0.125-0.14062 0.1875-0.10938 0.15625-0.1875 0.3125-0.28125 0.48438-0.35938 0.60938-0.73438 1.2344-1.0938 1.8594-0.09375 0.17188-0.20312 0.35938-0.29688 0.53125-0.046875 0.0625-0.125 0.15625-0.0625 0.23438 0.046875 0.0625 0.17188 0.046875 0.23438 0.046875h3.2812c0.078125 0 0.1875 0.015625 0.25 0 0.09375-0.046875 0.0625-0.14062 0.03125-0.21875-0.10938-0.17188-0.20312-0.35938-0.3125-0.53125l-1.1719-2.0156c-0.078125-0.15625-0.1875-0.32812-0.28125-0.48438-0.03125-0.0625-0.078125-0.125-0.15625-0.09375zm-1.4375 3.0312 0.95312-1.6562 0.34375-0.57812 0.17188-0.29688h0.015625l0.17188 0.29688 0.32812 0.57812 0.96875 1.6562zm-1.875 2.2656v-6.6875h6.6875v6.6875z"/>
</g>
</defs>
<g transform="translate(-148.85 -128.52)">
<use x="148.71201" y="134.765" xlink:href="#a"/>
</g>
</svg>
