<?xml version="1.0" encoding="UTF-8"?>
<svg fill="#000000" version="1.1" viewBox="0 0 5.7969 6.75" xmlns="http://www.w3.org/2000/svg" xmlns:xlink="http://www.w3.org/1999/xlink">
<defs>
<g id="a">
<path d="m6.0938-6.75h-5.5469l-0.078125 1.5625h0.25c0.015625-0.42188 0.046875-0.67188 0.125-0.78125 0.046875-0.078125 0.65625-0.078125 0.75-0.078125h3.4531c0.10938 0 0.6875 0 0.75 0.078125 0.078125 0.10938 0.10938 0.35938 0.125 0.78125h0.25zm-5.5938 6.75h5.6406l0.078125-1.6719h-0.25c-0.03125 0.46875-0.03125 0.71875-0.10938 0.85938-0.0625 0.10938-0.57812 0.10938-0.8125 0.10938h-3.4688c-0.17188 0-0.71875 0-0.79688-0.09375-0.078125-0.125-0.09375-0.42188-0.10938-0.875h-0.25zm4.75-4.3594h-0.25v0.5h-3.3594v-0.5h-0.25v1.7031h0.25v-0.5h3.3594v0.5h0.25z"/>
</g>
</defs>
<g transform="translate(-149.13 -128.02)">
<use x="148.71201" y="134.765" xlink:href="#a"/>
</g>
</svg>
