<?xml version="1.0" encoding="UTF-8"?>
<svg fill="#000000" width="5.4375" height="8.9688" version="1.1" viewBox="0 0 5.4375 8.9687" xmlns="http://www.w3.org/2000/svg" xmlns:xlink="http://www.w3.org/1999/xlink">
<defs>
<g id="a">
<path d="m5.7344-5.6719c0-0.75-0.54688-1.3594-1.3594-1.3594-0.57812 0-0.85938 0.15625-1.2031 0.40625-0.54688 0.40625-1.0938 1.375-1.2812 2.125l-1.5938 6.3281c0 0.046875 0.046875 0.10938 0.125 0.10938s0.10938-0.03125 0.10938-0.046875l0.70312-2.7656c0.1875 0.60938 0.625 0.96875 1.3594 0.96875 0.71875 0 1.4688-0.34375 1.9219-0.78125 0.48438-0.45312 0.79688-1.0938 0.79688-1.8281 0-0.71875-0.375-1.25-0.73438-1.4844 0.57812-0.34375 1.1562-0.95312 1.1562-1.6719zm-1.7969 1.6562c-0.125 0.046875-0.23438 0.0625-0.48438 0.0625-0.14062 0-0.32812 0.015625-0.4375-0.03125 0.03125-0.10938 0.39062-0.078125 0.5-0.078125 0.20312 0 0.29688 0 0.42188 0.046875zm1.2344-1.8906c0 0.70312-0.375 1.4219-0.89062 1.7344-0.28125-0.10938-0.46875-0.125-0.76562-0.125-0.21875 0-0.78125-0.015625-0.78125 0.3125 0 0.28125 0.51562 0.25 0.6875 0.25 0.375 0 0.53125 0 0.82812-0.125 0.375 0.35938 0.42188 0.67188 0.4375 1.125 0.015625 0.57812-0.21875 1.3281-0.5 1.7188-0.39062 0.53125-1.0625 0.89062-1.625 0.89062-0.76562 0-1.1406-0.57812-1.1406-1.2812 0-0.09375 0-0.25 0.046875-0.4375l0.64062-2.5156c0.21875-0.85938 0.9375-2.4531 2.1406-2.4531 0.57812 0 0.92188 0.3125 0.92188 0.90625z"/>
</g>
</defs>
<g transform="translate(-149.01 -127.73)">
<use x="148.71201" y="134.765" xlink:href="#a"/>
</g>
</svg>
