<?xml version="1.0" encoding="UTF-8"?>
<svg fill="#000000" version="1.1" viewBox="0 0 6.1127 6.6445" xmlns="http://www.w3.org/2000/svg" xmlns:xlink="http://www.w3.org/1999/xlink">
<defs>
<g id="a">
<path d="m1.2188-1.5156h5.5312c0.03125 0 0.09375 0 0.125-0.015625 0.078125-0.046875 0.0625-0.1875 0.046875-0.26562-0.015625-0.15625-0.20312-0.10938-0.3125-0.10938h-5.3906v-1.1875h5.5312c0.03125 0 0.09375 0 0.125-0.015625 0.078125-0.046875 0.0625-0.1875 0.046875-0.26562-0.015625-0.15625-0.20312-0.10938-0.3125-0.10938h-5.3906v-1.9531c0-0.09375 0.015625-0.17188 0-0.26562 0-0.125-0.10938-0.125-0.21875-0.125-0.046875 0-0.10938 0-0.14062 0.046875s-0.03125 0.09375-0.03125 0.15625v6.0938c0 0.09375-0.03125 0.26562 0.046875 0.3125 0.03125 0.03125 0.078125 0.03125 0.125 0.03125 0.0625 0 0.10938 0.015625 0.17188-0.015625 0.03125-0.015625 0.046875-0.0625 0.046875-0.125v-0.25z"/>
</g>
</defs>
<g transform="translate(-149.53 -128.94)">
<use x="148.71201" y="134.765" xlink:href="#a"/>
</g>
</svg>
