<?xml version="1.0" encoding="UTF-8"?>
<svg fill="#000000" version="1.1" viewBox="0 0 6.625 4.25" xmlns="http://www.w3.org/2000/svg" xmlns:xlink="http://www.w3.org/1999/xlink">
<defs>
<g id="a">
<path d="m7.1875-4.4219c0-0.26562-0.078125-0.39062-0.15625-0.39062-0.046875 0-0.14062 0.0625-0.15625 0.3125-0.015625 0.125-0.046875 0.39062-0.4375 0.625-0.3125 0.20312-0.65625 0.25-0.90625 0.25-0.5625 0-1.0312-0.25-1.625-0.59375-0.53125-0.29688-1.0781-0.59375-1.6875-0.59375-0.8125 0-1.6562 0.48438-1.6562 1.5312 0 0.28125 0.078125 0.39062 0.15625 0.39062 0.10938 0 0.15625-0.20312 0.15625-0.29688 0.015625-0.125 0.03125-0.375 0.4375-0.625 0.3125-0.20312 0.65625-0.25 0.90625-0.25 0.5625 0 1.0312 0.25 1.625 0.57812 0.53125 0.29688 1.0781 0.60938 1.6875 0.60938 0.8125 0 1.6562-0.5 1.6562-1.5469zm0 2.3281c0-0.29688-0.10938-0.39062-0.15625-0.39062s-0.14062 0.0625-0.15625 0.29688c-0.015625 0.14062-0.046875 0.39062-0.4375 0.625-0.3125 0.20312-0.65625 0.25-0.90625 0.25-0.5625 0-1.0312-0.25-1.625-0.57812-0.53125-0.29688-1.0781-0.60938-1.6875-0.60938-0.8125 0-1.6562 0.5-1.6562 1.5469 0 0.28125 0.078125 0.39062 0.15625 0.39062 0.10938 0 0.15625-0.21875 0.15625-0.3125 0.015625-0.125 0.03125-0.375 0.4375-0.625 0.3125-0.1875 0.65625-0.25 0.90625-0.25 0.5625 0 1.0312 0.25 1.625 0.59375 0.53125 0.29688 1.0781 0.59375 1.6875 0.59375 0.8125 0 1.6562-0.48438 1.6562-1.5312z"/>
</g>
</defs>
<g transform="translate(-149.27 -129.95)">
<use x="148.71201" y="134.765" xlink:href="#a"/>
</g>
</svg>
