<?xml version="1.0" encoding="UTF-8"?>
<svg fill="#000000" version="1.1" viewBox="0 0 5.8594 7.2344" xmlns="http://www.w3.org/2000/svg" xmlns:xlink="http://www.w3.org/1999/xlink">
<defs>
<g id="a">
<path d="m3.5938-6.4062c0.5-0.26562 0.6875-0.32812 1.125-0.40625 0.39062-0.0625 0.51562-0.17188 0.51562-0.42188 0-0.23438-0.15625-0.375-0.375-0.375s-0.51562 0.40625-0.76562 0.64062c-0.1875 0.1875-0.29688 0.26562-0.57812 0.42188v-0.23438c0-0.25 0.046875-0.51562 0.17188-0.82812 0.078125-0.20312 0.10938-0.35938 0.10938-0.46875 0-0.20312-0.17188-0.35938-0.375-0.35938-0.1875 0-0.34375 0.14062-0.34375 0.32812 0 0.14062 0.03125 0.3125 0.10938 0.51562 0.09375 0.34375 0.14062 0.64062 0.14062 0.92188v0.125c-0.375-0.21875-0.5625-0.375-0.89062-0.73438-0.21875-0.23438-0.32812-0.3125-0.48438-0.3125-0.20312 0-0.32812 0.15625-0.32812 0.35938 0 0.25 0.17188 0.35938 0.67188 0.46875 0.32812 0.0625 0.57812 0.14062 0.96875 0.35938-0.42188 0.25-0.57812 0.3125-1.0312 0.40625-0.45312 0.078125-0.625 0.1875-0.625 0.45312 0 0.20312 0.14062 0.35938 0.35938 0.35938 0.17188 0 0.26562-0.0625 0.4375-0.25 0.28125-0.32812 0.3125-0.35938 0.40625-0.45312s0.17188-0.14062 0.51562-0.35938v0.09375c0 0.42188-0.03125 0.65625-0.15625 0.98438-0.078125 0.1875-0.125 0.34375-0.125 0.46875 0 0.1875 0.17188 0.35938 0.35938 0.35938 0.20312 0 0.40625-0.1875 0.40625-0.39062 0-0.078125-0.046875-0.1875-0.09375-0.32812-0.125-0.34375-0.20312-0.70312-0.20312-1.0938v-0.09375l0.078125 0.046875c0.20312 0.125 0.42188 0.25 0.6875 0.57812 0.25 0.3125 0.40625 0.4375 0.60938 0.4375s0.35938-0.17188 0.35938-0.39062c0-0.25-0.17188-0.35938-0.60938-0.42188-0.35938-0.0625-0.6875-0.15625-0.95312-0.34375zm2.75 3.2188v-0.65625h-5.8594v0.65625zm0 1.9844v-0.65625h-5.8594v0.65625z"/>
</g>
</defs>
<g transform="translate(-149.2 -126.33)">
<use x="148.71201" y="134.765" xlink:href="#a"/>
</g>
</svg>
