<?xml version="1.0" encoding="UTF-8"?>
<svg fill="#000000" version="1.1" viewBox="0 0 4.3125 9.5312" xmlns="http://www.w3.org/2000/svg" xmlns:xlink="http://www.w3.org/1999/xlink">
<defs>
<g id="a">
<path d="m1.625 2.0938 0.53125-2.0156c0.45312 0.34375 0.875 1.0312 1.5625 1.0312 0.92188 0 1.1562-1.1562 1.1562-1.375 0-0.15625-0.0625-0.28125-0.23438-0.28125-0.10938 0-0.21875 0.09375-0.21875 0.20312-0.03125 0.39062-0.25 1-0.70312 1-0.5 0-0.875-0.70312-1.4219-1.0469l0.54688-2.0312 1.9219-1.1094c0.0625-0.046875 0.10938-0.125 0.10938-0.20312s-0.046875-0.15625-0.10938-0.20312l-1.3125-0.75 0.64062-2.4375c0.015625-0.078125-0.03125-0.1875-0.14062-0.1875-0.0625 0-0.125 0.0625-0.14062 0.125l-0.625 2.3438-2.2969-1.3125c-0.015625-0.03125-0.0625-0.03125-0.10938-0.03125-0.10938 0-0.21875 0.09375-0.21875 0.21875 0 0.09375 0.03125 0.15625 0.10938 0.20312l2.375 1.375-0.40625 1.5469-1.9688 1.1406c-0.078125 0.03125-0.10938 0.125-0.10938 0.20312 0 0.125 0.10938 0.21875 0.21875 0.21875 0.046875 0 0.09375 0 0.10938-0.03125l1.5781-0.90625-0.45312 1.7031c-0.09375-0.03125-0.20312-0.046875-0.3125-0.046875-0.92188 0-1.1406 1.1406-1.1406 1.375 0 0.14062 0.046875 0.28125 0.21875 0.28125 0.10938 0 0.21875-0.078125 0.23438-0.20312 0.03125-0.375 0.23438-1 0.6875-1 0.078125 0 0.125 0.015625 0.1875 0.046875l-0.5625 2.0938c-0.015625 0.078125 0.046875 0.1875 0.15625 0.1875 0.0625 0 0.125-0.0625 0.14062-0.125zm1.6875-6.3281 0.875 0.5-1.1719 0.6875z"/>
</g>
</defs>
<g transform="translate(-149.27 -127.45)">
<use x="148.71201" y="134.765" xlink:href="#a"/>
</g>
</svg>
