<?xml version="1.0" encoding="UTF-8"?>
<svg fill="#000000" version="1.1" viewBox="0 0 6.3125 7.0312" xmlns="http://www.w3.org/2000/svg" xmlns:xlink="http://www.w3.org/1999/xlink">
<defs>
<g id="a">
<path d="m6.75-1.6094h-0.25c-0.046875 0.25-0.09375 0.48438-0.1875 0.71875-0.046875 0.15625-0.078125 0.25-0.65625 0.25h-0.79688c0.14062-0.5625 0.4375-1.0469 0.89062-1.7031 0.46875-0.70312 0.875-1.3906 0.875-2.1875 0-1.375-1.3438-2.5-3.0312-2.5-1.7031 0-3.0312 1.1406-3.0312 2.5 0 0.79688 0.40625 1.4844 0.875 2.1875 0.4375 0.65625 0.75 1.1406 0.89062 1.7031h-0.79688c-0.57812 0-0.60938-0.09375-0.65625-0.23438-0.09375-0.23438-0.14062-0.48438-0.1875-0.73438h-0.25l0.32812 1.6094h1.5938c0.21875 0 0.25 0 0.25-0.20312 0-0.70312-0.3125-1.5781-0.53125-2.2188-0.21875-0.57812-0.5-1.3594-0.5-2.1094 0-1.5938 1.1094-2.2812 2.0156-2.2812 0.95312 0 2.0156 0.71875 2.0156 2.2812 0 0.75-0.28125 1.5-0.5625 2.3125-0.15625 0.42188-0.46875 1.3281-0.46875 2.0156 0 0.20312 0.03125 0.20312 0.25 0.20312h1.5938z"/>
</g>
</defs>
<g transform="translate(-149.15 -127.73)">
<use x="148.71201" y="134.765" xlink:href="#a"/>
</g>
</svg>
