<?xml version="1.0" encoding="UTF-8"?>
<svg fill="#000000" version="1.1" viewBox="0 0 8.1406 3.9062" xmlns="http://www.w3.org/2000/svg" xmlns:xlink="http://www.w3.org/1999/xlink">
<defs>
<g id="a">
<path d="m8.6875-2.1875v-0.65625h-4.6406c-0.70312-0.4375-1.3125-1.0312-1.8281-1.625l-0.20312 0.1875c0.23438 0.32812 0.51562 0.64062 0.8125 0.95312 0.09375 0.09375 0.14062 0.20312 0.14062 0.28125 0 0.09375-0.0625 0.17188-0.20312 0.20312h-0.1875c-0.71875-0.4375-1.2969-1.0312-1.8281-1.625l-0.20312 0.1875c0.23438 0.32812 0.54688 0.60938 0.8125 0.95312 0.14062 0.17188 0.29688 0.48438 0.29688 0.8125 0 0.4375-0.1875 0.67188-0.28125 0.79688-0.26562 0.29688-0.59375 0.625-0.8125 0.96875l0.1875 0.1875c0.53125-0.60938 1.1094-1.2188 1.8125-1.625h0.1875c0.09375 0 0.23438 0.125 0.23438 0.21875 0 0.078125-0.046875 0.14062-0.14062 0.25-0.29688 0.26562-0.59375 0.625-0.8125 0.96875l0.1875 0.1875c0.51562-0.60938 1.1094-1.2188 1.8125-1.625z"/>
</g>
</defs>
<g transform="translate(-149.26 -130.3)">
<use x="148.71201" y="134.765" xlink:href="#a"/>
</g>
</svg>
