<?xml version="1.0" encoding="UTF-8"?>
<svg fill="#000000" version="1.1" viewBox="0 0 6.096 4.5352" xmlns="http://www.w3.org/2000/svg" xmlns:xlink="http://www.w3.org/1999/xlink">
<defs>
<g id="a">
<path d="m3.7656-6.0469c-0.14062 0.03125-0.29688 0.078125-0.42188 0.17188-0.10938 0.046875-0.1875 0.14062-0.26562 0.25-0.3125 0.4375-0.20312 1.0625 0.23438 1.375 0.09375 0.078125 0.20312 0.125 0.32812 0.15625 0.10938 0.03125 0.23438 0.03125 0.34375 0.03125 0.15625-0.03125 0.29688-0.078125 0.4375-0.17188 0.10938-0.046875 0.1875-0.14062 0.26562-0.23438 0.3125-0.45312 0.20312-1.0781-0.23438-1.3906-0.10938-0.078125-0.21875-0.125-0.34375-0.15625-0.10938-0.03125-0.21875-0.03125-0.34375-0.03125zm-0.5625 1.0625c0-0.078125 0-0.15625 0.015625-0.23438s0.0625-0.15625 0.10938-0.21875c0.26562-0.39062 0.84375-0.39062 1.1094 0 0.0625 0.09375 0.09375 0.20312 0.125 0.3125 0 0.078125 0 0.15625-0.03125 0.23438-0.015625 0.078125-0.0625 0.15625-0.10938 0.21875-0.26562 0.39062-0.84375 0.39062-1.1094 0-0.046875-0.09375-0.09375-0.20312-0.10938-0.3125zm-2.3125 1.5c-0.015625 0.015625-0.046875 0.03125-0.046875 0.0625-0.015625 0.03125-0.015625 0.078125-0.015625 0.10938 0 0.078125-0.015625 0.17188 0.0625 0.21875 0.078125 0.015625 0.1875 0 0.26562 0h5.3594 0.25c0.046875 0 0.09375 0 0.125-0.03125s0.03125-0.078125 0.03125-0.14062c0-0.078125 0.015625-0.1875-0.078125-0.21875h-0.14062-5.6562c-0.046875 0-0.09375-0.015625-0.15625 0zm0 1.5781c-0.015625 0.015625-0.046875 0.03125-0.046875 0.0625-0.015625 0.03125-0.015625 0.0625-0.015625 0.09375 0 0.078125-0.015625 0.1875 0.0625 0.21875s0.1875 0.015625 0.26562 0.015625h5.6094c0.046875 0 0.09375 0 0.125-0.046875 0.03125-0.015625 0.03125-0.078125 0.03125-0.125 0-0.078125 0.015625-0.20312-0.078125-0.21875h-0.14062-5.6562c-0.046875 0-0.09375-0.015625-0.15625 0z"/>
</g>
</defs>
<g transform="translate(-149.54 -128.72)">
<use x="148.71201" y="134.765" xlink:href="#a"/>
</g>
</svg>
