<?xml version="1.0" encoding="UTF-8"?>
<svg fill="#000000" version="1.1" viewBox="0 0 5.625 11.25" xmlns="http://www.w3.org/2000/svg" xmlns:xlink="http://www.w3.org/1999/xlink">
<defs>
<g id="a">
<path d="m5.0781-8.1562h-0.53125l-0.26562 1.0938c-0.21875-0.0625-0.46875-0.09375-0.71875-0.09375h-2.8906v0.65625h2.8906c0.20312 0 0.39062 0.03125 0.57812 0.09375l-0.95312 4.1562h-2.5156v0.65625h2.3594l-0.25 1.0625h-2.1094v0.65625h1.9531l-0.29688 1.3281h-1.6562v0.65625h1.5156l-0.23438 0.98438h0.53125l0.23438-0.98438h3.4844v-0.65625h-3.3438l0.29688-1.3281h3.0469v-0.65625h-2.8906l0.25-1.0625h0.03125c1.5938 0 2.7031-1.3125 2.7031-2.7812 0-1.0625-0.59375-2.0312-1.5156-2.5zm-0.46875 1.9688c0.60938 0.40625 1.0312 1.1094 1.0312 1.8125 0 1.0156-0.85938 2.0312-1.9375 2.125z"/>
</g>
</defs>
<g transform="translate(-149.38 -126.61)">
<use x="148.71201" y="134.765" xlink:href="#a"/>
</g>
</svg>
