<?xml version="1.0" encoding="UTF-8"?>
<svg fill="#000000" version="1.1" viewBox="0 0 10.312 7.125" xmlns="http://www.w3.org/2000/svg" xmlns:xlink="http://www.w3.org/1999/xlink">
<defs>
<g id="a">
<path d="m8.9219-4.8281c-0.125 0.15625-0.20312 0.35938-0.20312 0.9375 0 0.67188 0.10938 1.3438 0.10938 2.0312 0 0.67188-0.0625 0.9375-0.17188 1.125-0.15625 0.26562-0.42188 0.42188-0.73438 0.42188-0.64062 0-1.625-0.6875-2.2344-0.6875 0.23438-0.25 0.65625-0.79688 0.79688-1 0.20312-0.70312 0.28125-1.4688 0.28125-2.25 0-0.35938-0.015625-0.70312-0.03125-1.0312 0.25-0.35938 0.6875-0.875 1.1875-0.875 0.625 0 1.1562 0.6875 1.5938 0.6875zm-5.4062 2.9219c0.625-0.9375 0.71875-2.4688 0.71875-2.8438 0-0.10938-0.0625-0.39062-0.0625-0.48438 0.20312-0.28125 0.5-0.54688 0.76562-0.79688 0.84375 0.375 1.1094 1.5312 1.1094 2.4219 0 0.85938-0.0625 1.9844-0.57812 2.5-0.42188 0.40625-0.9375 0.6875-1.5469 0.6875-0.5625 0-1.1406-0.32812-1.5938-0.67188 0.375-0.21875 0.76562-0.46875 1.1875-0.8125zm0.5625-3.5938c-0.23438-0.625-0.84375-1.3438-1.5312-1.3438-0.9375 0-1.5938 0.625-1.8281 0.85938-0.28125 0.28125-0.51562 0.57812-0.51562 0.98438 0 0.53125 0.42188 0.89062 0.71875 1.3281 0.0625 0.078125 0.14062 0.15625 0.14062 0.26562 0 0.3125-0.32812 0.64062-0.64062 0.79688l0.14062 0.10938c0.59375-0.29688 1.2344-0.6875 1.2344-1.3281 0-0.625-0.92188-0.98438-0.92188-1.6875 0-0.53125 0.45312-0.6875 1-0.6875 0.98438 0 1.5469 1.0938 1.5781 2.2031 0 1.3438-0.40625 2.7812-1.875 2.7812h-0.03125c-0.45312 0.34375-0.85938 0.73438-1.2344 1.1719l0.14062 0.15625c0.28125-0.25 0.71875-0.59375 1.0312-0.59375 0.23438 0 0.59375 0.20312 0.85938 0.375 0.375 0.23438 0.8125 0.39062 1.2656 0.39062 0.046875 0 0.10938-0.015625 0.15625-0.015625 0.375-0.25 0.76562-0.4375 1.1719-0.64062 0.79688 0 1.5625 0.625 2.375 0.625s2.0625-1.0625 2.25-1.6406c0.078125-0.21875 0.09375-0.48438 0.09375-0.73438 0-0.73438-0.14062-1.4688-0.14062-2.2031 0-0.89062 0.35938-1.2969 0.9375-1.7188l0.0625-0.21875c-0.125 0.0625-0.25 0.078125-0.375 0.078125-0.59375 0-1.0469-0.65625-1.7031-0.65625-0.59375 0-1.2969 0.75-1.7969 1.2656-0.15625-0.29688-0.54688-0.96875-1.0625-1.2656-0.5 0.375-0.96875 0.76562-1.375 1.2188z"/>
</g>
</defs>
<g transform="translate(-148.92 -127.92)">
<use x="148.71201" y="134.765" xlink:href="#a"/>
</g>
</svg>
