<?xml version="1.0" encoding="UTF-8"?>
<svg fill="#000000" version="1.1" viewBox="0 0 6.1049 8.8468" xmlns="http://www.w3.org/2000/svg" xmlns:xlink="http://www.w3.org/1999/xlink">
<defs>
<g id="a">
<path d="m1.2188-3.4844v-1.9531c0-0.09375 0.015625-0.17188 0-0.26562 0-0.125-0.10938-0.125-0.21875-0.125-0.046875 0-0.10938 0-0.14062 0.046875s-0.03125 0.09375-0.03125 0.15625v6.0938c0 0.09375-0.03125 0.26562 0.046875 0.3125 0.03125 0.03125 0.078125 0.03125 0.125 0.03125 0.0625 0 0.10938 0.015625 0.17188-0.015625 0.03125-0.015625 0.046875-0.0625 0.046875-0.125v-0.25-1.9375h1.9375c-0.15625 0.35938-0.34375 0.70312-0.51562 1.0625l-1.0156 2.0312c-0.03125 0.0625-0.078125 0.14062-0.09375 0.21875-0.015625 0.14062 0.14062 0.125 0.23438 0.125 0.03125 0 0.078125 0 0.125-0.015625 0.0625-0.046875 0.10938-0.15625 0.14062-0.21875 0.09375-0.1875 0.1875-0.39062 0.28125-0.57812 0.3125-0.625 0.625-1.25 0.92188-1.8594 0.078125-0.17188 0.17188-0.35938 0.25-0.53125 0.03125-0.0625 0.078125-0.17188 0.14062-0.21875 0.046875-0.03125 0.14062-0.015625 0.20312-0.015625h2.8281c0.0625 0 0.15625 0.015625 0.21875-0.015625 0.0625-0.046875 0.046875-0.14062 0.046875-0.20312v-0.09375c-0.015625-0.03125-0.03125-0.0625-0.046875-0.0625-0.046875-0.03125-0.10938-0.015625-0.15625-0.015625h-2.9062c0.15625-0.28125 0.28125-0.59375 0.42188-0.875 0.046875-0.0625 0.078125-0.14062 0.10938-0.20312 0.015625-0.046875 0.03125-0.09375 0.078125-0.09375 0.046875-0.015625 0.125-0.015625 0.17188-0.015625h2.1094c0.0625 0 0.14062 0.015625 0.1875-0.03125 0.03125-0.03125 0.03125-0.078125 0.03125-0.10938 0-0.078125 0.03125-0.20312-0.0625-0.25h-0.125-2.1406c0.15625-0.35938 0.34375-0.70312 0.51562-1.0469 0.25-0.51562 0.51562-1.0312 0.76562-1.5469 0.10938-0.21875 0.21875-0.40625 0.3125-0.625 0.03125-0.0625 0.078125-0.1875-0.03125-0.21875h-0.09375c-0.0625 0-0.15625-0.015625-0.20312 0.03125-0.0625 0.046875-0.09375 0.14062-0.14062 0.21875-0.078125 0.15625-0.15625 0.32812-0.23438 0.48438-0.32812 0.64062-0.64062 1.2812-0.95312 1.9219-0.09375 0.17188-0.17188 0.34375-0.26562 0.53125-0.03125 0.0625-0.0625 0.17188-0.125 0.21875-0.046875 0.046875-0.15625 0.03125-0.21875 0.03125zm0 1.5781v-1.1875h2.7344l-0.42188 0.82812-0.10938 0.21875-0.0625 0.10938-0.15625 0.03125z"/>
</g>
</defs>
<g transform="translate(-149.53 -127.84)">
<use x="148.71201" y="134.765" xlink:href="#a"/>
</g>
</svg>
