<?xml version="1.0" encoding="UTF-8"?>
<svg fill="#000000" version="1.1" viewBox="0 0 5.5469 6.1875" xmlns="http://www.w3.org/2000/svg" xmlns:xlink="http://www.w3.org/1999/xlink">
<defs>
<g id="a">
<path d="m6.0156-5.5625c0.0625-0.125 0.078125-0.15625 0.078125-0.20312 0-0.10938-0.09375-0.20312-0.20312-0.20312-0.09375 0-0.15625 0.078125-0.23438 0.23438l-2.3438 5.2656-2.3281-5.2812c-0.09375-0.1875-0.17188-0.21875-0.23438-0.21875-0.10938 0-0.20312 0.09375-0.20312 0.20312 0 0.03125 0 0.046875 0.0625 0.15625l2.4844 5.625c0.078125 0.15625 0.14062 0.20312 0.21875 0.20312 0.14062 0 0.17188-0.0625 0.21875-0.20312z"/>
</g>
</defs>
<g transform="translate(-149.26 -128.8)">
<use x="148.71201" y="134.765" xlink:href="#a"/>
</g>
</svg>
