<?xml version="1.0" encoding="UTF-8"?>
<svg fill="#000000" version="1.1" viewBox="0 0 4.7456 4.5981" xmlns="http://www.w3.org/2000/svg" xmlns:xlink="http://www.w3.org/1999/xlink">
<defs>
<g id="a">
<path d="m4.1406-0.375c0.125 0.10938 0.21875 0.21875 0.34375 0.29688 0.046875 0.03125 0.10938 0.078125 0.17188 0.0625 0.046875-0.03125 0.0625-0.078125 0.0625-0.14062v-0.32812-0.65625c0-0.10938 0-0.25 0.09375-0.3125 0.10938-0.078125 0.26562-0.078125 0.39062-0.078125v-0.23438l-0.32812 0.015625-0.79688 0.015625-0.92188-0.03125v0.23438c0.15625 0 0.32812 0 0.5 0.03125 0.078125 0 0.17188 0.015625 0.23438 0.078125 0.125 0.09375 0.125 0.25 0.125 0.39062 0 0.21875 0.015625 0.4375-0.14062 0.60938-0.0625 0.03125-0.10938 0.078125-0.15625 0.10938-0.23438 0.14062-0.51562 0.15625-0.78125 0.14062-0.54688-0.0625-1.0625-0.3125-1.3594-0.78125-0.1875-0.29688-0.25-0.64062-0.26562-0.98438-0.03125-0.23438-0.015625-0.48438 0.015625-0.71875 0.03125-0.21875 0.09375-0.4375 0.20312-0.64062 0.26562-0.48438 0.76562-0.79688 1.3281-0.84375 0.26562-0.03125 0.54688 0.015625 0.79688 0.15625 0.14062 0.078125 0.28125 0.20312 0.39062 0.32812 0.17188 0.20312 0.29688 0.42188 0.35938 0.67188 0.03125 0.10938 0.03125 0.21875 0.0625 0.32812 0.03125 0.0625 0.10938 0.078125 0.17188 0.046875 0.0625-0.015625 0.078125-0.078125 0.078125-0.125v-0.375-1-0.23438c0-0.046875-0.03125-0.078125-0.0625-0.10938-0.046875-0.015625-0.09375 0-0.14062 0.03125-0.0625 0.078125-0.14062 0.17188-0.20312 0.25-0.0625 0.0625-0.14062 0.14062-0.1875 0.21875-0.09375-0.09375-0.20312-0.1875-0.3125-0.25-0.375-0.21875-0.78125-0.28125-1.2031-0.23438-0.45312 0.046875-0.89062 0.21875-1.25 0.5-0.21875 0.17188-0.40625 0.375-0.54688 0.59375s-0.23438 0.4375-0.29688 0.67188c-0.17188 0.71875 0.046875 1.4688 0.53125 2.0156 0.20312 0.21875 0.45312 0.39062 0.71875 0.53125 0.51562 0.25 1.1562 0.34375 1.7188 0.1875 0.25-0.0625 0.53125-0.20312 0.65625-0.4375z"/>
</g>
</defs>
<g transform="translate(-149.17 -130.31)">
<use x="148.71201" y="134.765" xlink:href="#a"/>
</g>
</svg>
