<?xml version="1.0" encoding="UTF-8"?>
<svg fill="#000000" version="1.1" viewBox="0 0 5.1406 5.125" xmlns="http://www.w3.org/2000/svg" xmlns:xlink="http://www.w3.org/1999/xlink">
<defs>
<g id="a">
<path d="m4.3438-1.6094v-1.875c0-0.14062-0.09375-0.21875-0.23438-0.21875h-1.8594c-0.14062 0-0.23438 0.078125-0.23438 0.21875v1.875c0 0.14062 0.09375 0.21875 0.23438 0.21875h1.8594c0.14062 0 0.23438-0.078125 0.23438-0.21875zm-0.45312-1.6406v1.4062h-1.4219v-1.4062zm1.8594 3.0469v-4.6875c0-0.125-0.09375-0.21875-0.23438-0.21875h-4.6719c-0.14062 0-0.23438 0.09375-0.23438 0.21875v4.6875c0 0.125 0.09375 0.21875 0.23438 0.21875h4.6719c0.14062 0 0.23438-0.09375 0.23438-0.21875zm-0.45312-4.4531v4.2188h-4.2344v-4.2188z"/>
</g>
</defs>
<g transform="translate(-149.32 -129.66)">
<use x="148.71201" y="134.765" xlink:href="#a"/>
</g>
</svg>
