<?xml version="1.0" encoding="UTF-8"?>
<svg fill="#000000" version="1.1" viewBox="0 0 3.5625 7.1562" xmlns="http://www.w3.org/2000/svg" xmlns:xlink="http://www.w3.org/1999/xlink">
<defs>
<g id="a">
<path d="m1.3438-5.9688-0.078125 0.03125-0.17188-0.76562-0.17188 0.046875c0.0625 1.1875 0.078125 2.3906 0.078125 3.5938 0 0.79688 0 1.625-0.14062 2.3594 0.23438 0.25 0.71875 0.6875 1.0938 1.0156 0.79688-0.35938 1.5469-0.8125 2.2812-1.2812 0.14062-0.70312 0.1875-1.4375 0.1875-2.1562 0-0.3125 0-0.64062-0.03125-0.95312-0.39062-0.17188-0.78125-0.39062-1.1562-0.60938-0.48438 0.29688-0.95312 0.6875-1.4062 1.0625l-0.0625-0.015625c0-0.98438-0.125-2.1406 0.64062-2.8125 0.10938-0.09375 0.29688-0.25 0.3125-0.25l-0.17188-0.14062zm0.4375 2.6562c0.26562-0.20312 0.64062-0.5 0.95312-0.53125 0.53125 0.21875 0.75 0.32812 0.84375 0.45312 0.046875 0.40625 0.046875 0.71875 0.046875 1.125 0 0.67188-0.10938 1.8438-0.78125 1.8438-0.26562 0-0.75-0.46875-1.0625-0.79688z"/>
</g>
</defs>
<g transform="translate(-149.57 -127.92)">
<use x="148.71201" y="134.765" xlink:href="#a"/>
</g>
</svg>
