<?xml version="1.0" encoding="UTF-8"?>
<svg fill="#000000" version="1.1" viewBox="0 0 1.1875 2.9844" xmlns="http://www.w3.org/2000/svg" xmlns:xlink="http://www.w3.org/1999/xlink">
<defs>
<g id="a">
<path d="m1.9062-4.4531c0-0.26562-0.15625-0.53125-0.51562-0.53125-0.20312 0-0.34375 0.09375-0.40625 0.15625 0 0.015625-0.015625 0.03125-0.03125 0.03125s-0.015625-0.14062-0.015625-0.17188c0-0.32812 0.0625-1.0469 0.70312-1.6562 0.10938-0.125 0.10938-0.14062 0.10938-0.17188 0-0.078125-0.046875-0.10938-0.09375-0.10938-0.10938 0-0.9375 0.75-0.9375 1.9375 0 0.59375 0.23438 1.0469 0.67188 1.0469 0.34375 0 0.51562-0.28125 0.51562-0.53125z"/>
</g>
</defs>
<g transform="translate(-149.43 -127.86)">
<use x="148.71201" y="134.765" xlink:href="#a"/>
</g>
</svg>
