<?xml version="1.0" encoding="UTF-8"?>
<svg fill="#000000" version="1.1" viewBox="0 0 6.0938 11.016" xmlns="http://www.w3.org/2000/svg" xmlns:xlink="http://www.w3.org/1999/xlink">
<defs>
<g id="a">
<path d="m4.3438-3.0938c0.70312-0.14062 1.4375-0.17188 2.1719-0.17188 0.25 0 0.40625 0 0.40625-0.1875 0-0.20312-0.17188-0.20312-0.29688-0.20312l-1.0938-0.03125c-0.29688-0.015625-0.60938-0.046875-0.90625-0.09375l1.5938-3.8281c0.046875-0.125 0.0625-0.14062 0.0625-0.20312 0-0.10938-0.078125-0.1875-0.20312-0.1875-0.0625 0-0.10938 0.015625-0.14062 0.0625l-1.7188 4.0938c-1.8281-0.3125-2.7969-1-2.9844-2.2344-0.015625-0.125-0.03125-0.26562-0.20312-0.26562-0.10938 0-0.20312 0.078125-0.20312 0.21875 0 0 0.03125 0.51562 0.3125 1.0312 0.60938 1.0312 1.8438 1.4375 2.8594 1.6406-1.8438 0.35938-2.5469 1.0469-2.9375 1.7969-0.1875 0.40625-0.23438 0.84375-0.23438 0.875 0 0.15625 0.125 0.21875 0.20312 0.21875s0.17188-0.0625 0.1875-0.1875c0.0625-0.34375 0.14062-0.95312 0.79688-1.4688 0.59375-0.48438 1.3594-0.70312 1.8594-0.79688l-1.6562 3.9844h-1.0469c-0.17188 0-0.34375 0-0.34375 0.20312 0 0.1875 0.17188 0.1875 0.34375 0.1875h0.875c-0.078125 0.21875-0.57812 1.3594-0.57812 1.4688s0.078125 0.1875 0.20312 0.1875 0.15625-0.09375 0.21875-0.23438l0.59375-1.4219h4.0781c0.17188 0 0.35938 0 0.35938-0.1875 0-0.20312-0.1875-0.20312-0.35938-0.20312h-3.9062z"/>
</g>
</defs>
<g transform="translate(-149.54 -126.76)">
<use x="148.71201" y="134.765" xlink:href="#a"/>
</g>
</svg>
