<?xml version="1.0" encoding="UTF-8"?>
<svg fill="#000000" width="5.8594" height="3.2188" version="1.1" viewBox="0 0 5.8594 3.2187" xmlns="http://www.w3.org/2000/svg" xmlns:xlink="http://www.w3.org/1999/xlink">
<defs>
<g id="a">
<path d="m5-3.4531c0.60938 0 1.0469 0.26562 1.0469 0.875 0 0.6875-0.45312 1.0156-1.0938 1.0156-0.40625 0-0.65625-0.15625-0.85938-0.375-0.46875-0.5-0.92188-1.3125-1.2656-1.7031-0.29688-0.32812-0.57812-0.46875-0.98438-0.46875-0.67188 0-1.3594 0.60938-1.3594 1.6094 0 0.73438 0.46875 1.6094 1.4062 1.6094v-0.67188c-0.60938 0-1.1094-0.25-1.1094-0.875 0-0.6875 0.45312-1.0156 1.0938-1.0156 0.35938 0 0.59375 0.10938 0.8125 0.3125 0.4375 0.40625 1 1.5 1.5469 1.9375 0.21875 0.1875 0.48438 0.3125 0.79688 0.3125 0.64062 0 1.3125-0.54688 1.3125-1.5781 0-1.375-0.90625-1.6406-1.3438-1.6406z"/>
</g>
</defs>
<g transform="translate(-149.2 -130.66)">
<use x="148.71201" y="134.765" xlink:href="#a"/>
</g>
</svg>
