<?xml version="1.0" encoding="UTF-8"?>
<svg fill="#000000" width="2.0469" height="8.7188" version="1.1" viewBox="0 0 2.0469 8.7187" xmlns="http://www.w3.org/2000/svg" xmlns:xlink="http://www.w3.org/1999/xlink">
<defs>
<g id="a">
<path d="m1.6719 0.4375c0.17188-0.1875 0.21875-0.45312 0.21875-0.70312 0.046875-1.2656 0.0625-3.4219 0.0625-3.9375-0.21875-0.1875-0.42188-0.375-0.64062-0.53125l-1.0625 0.95312 0.14062 0.125 0.28125-0.1875c0.015625-0.015625 0.0625-0.03125 0.078125-0.03125 0.078125 0 0.26562 0.20312 0.32812 0.35938 0.09375 0.3125 0.09375 1 0.09375 1.4844 0 1.3281-0.015625 2.7344-0.4375 3.1562-0.25 0.26562-0.53125 0.48438-0.82812 0.70312l0.15625 0.1875c0.64062-0.51562 1.1562-1.0312 1.6094-1.5781zm0.15625-6.5625c-0.1875-0.1875-0.35938-0.375-0.51562-0.57812l-0.60938 0.5625c0.17188 0.20312 0.35938 0.45312 0.54688 0.60938z"/>
</g>
</defs>
<g transform="translate(-148.62 -128.06)">
<use x="148.71201" y="134.765" xlink:href="#a"/>
</g>
</svg>
