<?xml version="1.0" encoding="UTF-8"?>
<svg fill="#000000" version="1.1" viewBox="0 0 6.6372 6.6734" xmlns="http://www.w3.org/2000/svg" xmlns:xlink="http://www.w3.org/1999/xlink">
<defs>
<g id="a">
<path d="m0.625-5.8281c-0.078125 0.046875-0.0625 0.14062-0.0625 0.21875v0.10938c0.03125 0.03125 0.046875 0.046875 0.078125 0.0625 0.078125 0.03125 0.20312 0 0.28125 0h2.2344c0.39062 0 0.8125-0.03125 1.2031 0.03125 0.65625 0.10938 1.25 0.4375 1.6875 0.92188 0.82812 0.90625 0.98438 2.3125 0.40625 3.3906-0.21875 0.35938-0.48438 0.70312-0.82812 0.95312-0.25 0.1875-0.54688 0.34375-0.84375 0.4375-0.23438 0.078125-0.48438 0.125-0.73438 0.125-0.20312 0.015625-0.40625 0-0.60938 0h-2.625-0.15625c-0.09375 0.03125-0.09375 0.14062-0.09375 0.21875 0 0.0625 0 0.15625 0.078125 0.17188 0.09375 0.03125 0.1875 0.015625 0.26562 0.015625h2.2031c0.40625 0 0.82812 0.03125 1.2344-0.015625 0.51562-0.078125 1.0312-0.28125 1.4688-0.57812 0.28125-0.20312 0.51562-0.45312 0.73438-0.71875 0.82812-1.125 0.875-2.7031 0.09375-3.875-0.17188-0.26562-0.375-0.5-0.625-0.70312-0.45312-0.40625-1.0312-0.65625-1.625-0.73438-0.28125-0.046875-0.54688-0.03125-0.8125-0.03125h-2.7656c-0.0625 0-0.14062-0.015625-0.1875 0zm0.26562 1.5781c-0.015625 0-0.046875 0.015625-0.046875 0.046875-0.015625 0.03125-0.015625 0.078125-0.015625 0.10938 0 0.078125-0.015625 0.17188 0.0625 0.21875 0.078125 0.03125 0.1875 0 0.26562 0h2.2188c0.3125 0 0.65625-0.03125 0.96875 0.078125 0.125 0.046875 0.23438 0.10938 0.34375 0.1875 0.5625 0.42188 0.70312 1.25 0.32812 1.8594-0.0625 0.09375-0.125 0.17188-0.20312 0.25-0.20312 0.1875-0.42188 0.29688-0.6875 0.34375-0.25 0.046875-0.53125 0.015625-0.78125 0.015625h-2.2031c-0.078125 0-0.20312-0.03125-0.26562 0.03125-0.0625 0.046875-0.046875 0.14062-0.046875 0.21875 0 0.015625 0 0.046875 0.015625 0.078125 0 0.03125 0.03125 0.0625 0.046875 0.0625 0.0625 0.015625 0.15625 0.015625 0.21875 0.015625h2.3125c0.40625 0 0.82812 0.03125 1.1875-0.15625 0.26562-0.10938 0.48438-0.28125 0.65625-0.51562 0.59375-0.76562 0.45312-1.9375-0.32812-2.5156-0.21875-0.17188-0.48438-0.29688-0.78125-0.32812-0.23438-0.03125-0.5-0.015625-0.73438-0.015625h-2.4062c-0.03125 0-0.078125 0-0.125 0.015625z"/>
</g>
</defs>
<g transform="translate(-149.27 -128.93)">
<use x="148.71201" y="134.765" xlink:href="#a"/>
</g>
</svg>
