<?xml version="1.0" encoding="UTF-8"?>
<svg fill="#000000" version="1.1" viewBox="0 0 4.5938 6.6424" xmlns="http://www.w3.org/2000/svg" xmlns:xlink="http://www.w3.org/1999/xlink">
<defs>
<g id="a">
<path d="m0.54688-5.6875v0.3125c0.51562-0.015625 1.0469-0.125 1.5-0.375v4.8594c0 0.14062 0.015625 0.3125-0.078125 0.4375-0.078125 0.078125-0.21875 0.10938-0.32812 0.10938-0.23438 0.03125-0.46875 0.03125-0.70312 0.03125v0.29688h4.2031v-0.29688c-0.23438 0-0.46875 0-0.70312-0.03125-0.10938 0-0.23438-0.03125-0.32812-0.10938-0.09375-0.125-0.078125-0.28125-0.078125-0.42188v-5.3594-0.25c0-0.046875 0-0.09375-0.03125-0.125-0.046875-0.0625-0.1875-0.046875-0.25-0.046875h-0.90625c-0.046875 0-0.09375 0-0.125 0.015625-0.046875 0.015625-0.0625 0.0625-0.09375 0.09375-0.046875 0.046875-0.078125 0.09375-0.125 0.14062-0.14062 0.14062-0.29688 0.25-0.46875 0.34375-0.45312 0.26562-0.96875 0.375-1.4844 0.375zm3.1875-0.65625v6.0312h-0.79688v-6.0312z"/>
</g>
</defs>
<g transform="translate(-149.26 -128.11)">
<use x="148.71201" y="134.765" xlink:href="#a"/>
</g>
</svg>
