<?xml version="1.0" encoding="UTF-8"?>
<svg fill="#000000" version="1.1" viewBox="0 0 4.9219 4.5156" xmlns="http://www.w3.org/2000/svg" xmlns:xlink="http://www.w3.org/1999/xlink">
<defs>
<g id="a">
<path d="m5.2188-3.7031c0-0.5625-0.26562-0.70312-0.4375-0.70312-0.25 0-0.5 0.26562-0.5 0.48438 0 0.125 0.0625 0.1875 0.15625 0.26562 0.10938 0.10938 0.35938 0.35938 0.35938 0.84375 0 0.65625-0.8125 2.7031-2.0781 2.7031-0.1875 0-0.51562-0.046875-0.71875-0.25-0.21875-0.21875-0.25-0.51562-0.25-0.73438 0-0.40625 0.15625-0.9375 0.5625-2.0312 0.046875-0.10938 0.10938-0.28125 0.10938-0.46875 0-0.4375-0.3125-0.8125-0.8125-0.8125-0.95312 0-1.3125 1.4531-1.3125 1.5312 0 0.10938 0.09375 0.10938 0.10938 0.10938 0.10938 0 0.10938-0.03125 0.15625-0.1875 0.28125-0.9375 0.67188-1.2344 1.0156-1.2344 0.078125 0 0.25 0 0.25 0.3125 0 0.26562-0.10938 0.51562-0.23438 0.85938-0.42188 1.1094-0.5 1.5156-0.5 1.8125 0 1.0312 0.875 1.3125 1.5938 1.3125 0.90625 0 1.5-0.8125 1.7344-1.1719 0.6875-1.125 0.79688-2.4844 0.79688-2.6406z"/>
</g>
</defs>
<g transform="translate(-149.01 -130.36)">
<use x="148.71201" y="134.765" xlink:href="#a"/>
</g>
</svg>
