<?xml version="1.0" encoding="UTF-8"?>
<svg fill="#000000" version="1.1" viewBox="0 0 4.3125 8.625" xmlns="http://www.w3.org/2000/svg" xmlns:xlink="http://www.w3.org/1999/xlink">
<defs>
<g id="a">
<path d="m1.75 1.6562 0.45312-1.7031c0.59375-0.3125 0.98438-1.0938 1.5156-1.0938 0.42188 0 0.67188 0.53125 0.70312 0.98438 0 0.125 0.10938 0.21875 0.21875 0.21875 0.14062 0 0.23438-0.10938 0.23438-0.23438 0-0.28125-0.25-1.4375-1.1562-1.4375-0.5625 0-0.95312 0.48438-1.3281 0.84375l0.42188-1.5625c0.3125-0.29688 0.57812-0.60938 0.90625-0.60938 0.42188 0 0.67188 0.54688 0.70312 1 0 0.125 0.10938 0.21875 0.21875 0.21875 0.14062 0 0.23438-0.10938 0.23438-0.23438 0-0.28125-0.25-1.4375-1.1562-1.4375-0.26562 0-0.48438 0.09375-0.6875 0.25l0.39062-1.5c0.09375-0.046875 0.20312-0.078125 0.29688-0.078125 0.42188 0 0.67188 0.54688 0.70312 1 0 0.125 0.10938 0.20312 0.21875 0.20312 0.14062 0 0.23438-0.09375 0.23438-0.21875 0-0.28125-0.25-1.4375-1.1562-1.4375-0.046875 0-0.09375 0.015625-0.15625 0.015625l0.42188-1.5156c0.015625-0.09375-0.046875-0.1875-0.15625-0.1875-0.0625 0-0.125 0.046875-0.14062 0.10938l-0.45312 1.7031c-0.60938 0.3125-0.98438 1.0938-1.5312 1.0938-0.40625 0-0.65625-0.53125-0.6875-0.98438-0.015625-0.125-0.125-0.21875-0.23438-0.21875-0.14062 0-0.21875 0.10938-0.21875 0.23438 0 0.26562 0.23438 1.4375 1.1406 1.4375 0.57812 0 0.96875-0.48438 1.3438-0.84375l-0.42188 1.5469c-0.3125 0.3125-0.57812 0.625-0.92188 0.625-0.40625 0-0.65625-0.54688-0.6875-1-0.015625-0.125-0.125-0.21875-0.23438-0.21875-0.14062 0-0.21875 0.10938-0.21875 0.23438 0 0.26562 0.23438 1.4375 1.1406 1.4375 0.26562 0 0.5-0.09375 0.70312-0.25l-0.40625 1.5c-0.09375 0.046875-0.20312 0.078125-0.29688 0.078125-0.40625 0-0.65625-0.54688-0.6875-1-0.015625-0.125-0.125-0.20312-0.23438-0.20312-0.14062 0-0.21875 0.09375-0.21875 0.21875 0 0.26562 0.23438 1.4375 1.1406 1.4375 0.046875 0 0.10938-0.015625 0.15625-0.015625l-0.40625 1.5156c-0.015625 0.09375 0.046875 0.1875 0.15625 0.1875 0.0625 0 0.10938-0.046875 0.14062-0.10938z"/>
</g>
</defs>
<g transform="translate(-149.27 -127.91)">
<use x="148.71201" y="134.765" xlink:href="#a"/>
</g>
</svg>
