<?xml version="1.0" encoding="UTF-8"?>
<svg fill="#000000" version="1.1" viewBox="0 0 4.1562 4.7344" xmlns="http://www.w3.org/2000/svg" xmlns:xlink="http://www.w3.org/1999/xlink">
<defs>
<g id="a">
<path d="m1.5312-4.6719c0 0.03125 0.015625 0.0625 0.03125 0.10938l1.1719 2.0156-1.1719 2.0156c-0.015625 0.046875-0.03125 0.078125-0.03125 0.10938 0 0.125 0.10938 0.25 0.23438 0.25 0.078125 0 0.15625-0.0625 0.20312-0.125l1.1562-2.0156h2.3438c0.10938 0 0.21875-0.10938 0.21875-0.23438s-0.10938-0.21875-0.21875-0.21875h-2.3438l-1.1562-2.0312c-0.046875-0.0625-0.125-0.10938-0.20312-0.10938-0.125 0-0.23438 0.10938-0.23438 0.23438z"/>
</g>
</defs>
<g transform="translate(-150.24 -129.86)">
<use x="148.71201" y="134.765" xlink:href="#a"/>
</g>
</svg>
