<?xml version="1.0" encoding="UTF-8"?>
<svg fill="#000000" version="1.1" viewBox="0 0 6.0938 9.0781" xmlns="http://www.w3.org/2000/svg" xmlns:xlink="http://www.w3.org/1999/xlink">
<defs>
<g id="a">
<path d="m6.7344-2.2656c0.10938-0.0625 0.1875-0.10938 0.1875-0.23438s-0.078125-0.15625-0.20312-0.21875l-2.0312-0.95312 1.5156-2.9688c0.078125-0.14062 0.078125-0.15625 0.078125-0.20312 0-0.10938-0.09375-0.1875-0.20312-0.1875s-0.14062 0.046875-0.20312 0.1875l-1.5312 3-3.1406-1.4688c-0.09375-0.046875-0.14062-0.0625-0.17188-0.0625-0.10938 0-0.20312 0.09375-0.20312 0.1875 0 0.078125 0.03125 0.15625 0.20312 0.23438l3.125 1.4688-1.3281 2.6094-1.7969 0.84375c-0.17188 0.078125-0.20312 0.15625-0.20312 0.23438 0 0.09375 0.09375 0.1875 0.20312 0.1875 0.0625 0 0.625-0.26562 0.6875-0.3125l0.8125-0.375c-0.15625 0.28125-1.0625 2.0312-1.0625 2.1562 0 0.10938 0.09375 0.1875 0.20312 0.1875 0.03125 0 0.0625 0 0.10938-0.03125 0.015625-0.03125 0.03125-0.046875 0.10938-0.1875l1.2344-2.3906zm-2.2188-1.0469 1.7344 0.8125-2.8438 1.3438z"/>
</g>
</defs>
<g transform="translate(-149.54 -127.73)">
<use x="148.71201" y="134.765" xlink:href="#a"/>
</g>
</svg>
