<?xml version="1.0" encoding="UTF-8"?>
<svg fill="#000000" version="1.1" viewBox="0 0 4.8281 4.4219" xmlns="http://www.w3.org/2000/svg" xmlns:xlink="http://www.w3.org/1999/xlink">
<defs>
<g id="a">
<path d="m2.9375-3.7188h1.6719c0.125 0 0.48438 0 0.48438-0.34375 0-0.23438-0.20312-0.23438-0.40625-0.23438h-2.7812c-0.20312 0-0.59375 0-1.0312 0.46875-0.32812 0.35938-0.60938 0.84375-0.60938 0.89062 0 0.015625 0 0.10938 0.125 0.10938 0.078125 0 0.09375-0.046875 0.15625-0.125 0.48438-0.76562 1.0625-0.76562 1.2656-0.76562h0.82812l-0.96875 3.2031c-0.046875 0.10938-0.10938 0.32812-0.10938 0.35938 0 0.10938 0.078125 0.28125 0.29688 0.28125 0.32812 0 0.375-0.28125 0.40625-0.4375z"/>
</g>
</defs>
<g transform="translate(-148.98 -130.47)">
<use x="148.71201" y="134.765" xlink:href="#a"/>
</g>
</svg>
