<?xml version="1.0" encoding="UTF-8"?>
<svg fill="#000000" width="4.5938" height="8.0938" version="1.1" viewBox="0 0 4.5938 8.0937" xmlns="http://www.w3.org/2000/svg" xmlns:xlink="http://www.w3.org/1999/xlink">
<defs>
<g id="a">
<path d="m0.875-1.625 1.8594-0.67188v3.5781c0 0.10938 0.10938 0.21875 0.23438 0.21875s0.23438-0.10938 0.23438-0.21875v-3.75l1.9531-0.71875c0.0625-0.015625 0.10938-0.078125 0.10938-0.14062 0-0.015625-0.015625-0.03125-0.015625-0.046875-0.03125-0.078125-0.10938-0.125-0.20312-0.09375l-1.8438 0.67188v-3.5781c0-0.10938-0.10938-0.21875-0.23438-0.21875s-0.23438 0.10938-0.23438 0.21875v3.75l-1.9531 0.71875c-0.0625 0.015625-0.10938 0.078125-0.10938 0.14062 0 0.10938 0.10938 0.17188 0.20312 0.14062z"/>
</g>
</defs>
<g transform="translate(-149.38 -128.17)">
<use x="148.71201" y="134.765" xlink:href="#a"/>
</g>
</svg>
