<?xml version="1.0" encoding="UTF-8"?>
<svg fill="#000000" version="1.1" viewBox="0 0 5.7664 4.5123" xmlns="http://www.w3.org/2000/svg" xmlns:xlink="http://www.w3.org/1999/xlink">
<defs>
<g id="a">
<path d="m3.7031-4.5156c-0.29688 0.03125-0.60938 0.09375-0.90625 0.21875-0.9375 0.40625-1.5938 1.2812-1.7656 2.2969-0.03125 0.25-0.03125 0.48438-0.03125 0.73438v1.0312c0 0.078125-0.015625 0.1875 0.09375 0.21875h0.046875c0.0625 0 0.15625 0.015625 0.20312-0.015625s0.046875-0.09375 0.046875-0.14062v-0.32812-0.75c0-0.23438 0-0.46875 0.046875-0.71875 0.1875-1.1562 1.1719-2.0938 2.3594-2.1406 0.25-0.015625 0.5 0.015625 0.73438 0.09375 0.8125 0.23438 1.4531 0.89062 1.7031 1.6875 0.09375 0.29688 0.125 0.60938 0.125 0.92188v1.2031c0 0.046875 0 0.10938 0.015625 0.14062 0.0625 0.078125 0.17188 0.046875 0.25 0.046875 0.046875 0 0.10938-0.03125 0.125-0.078125s0.015625-0.09375 0.015625-0.14062v-1.0156c0-0.28125 0-0.54688-0.0625-0.82812-0.20312-1.2188-1.1875-2.2344-2.4219-2.4062-0.1875-0.03125-0.39062-0.046875-0.57812-0.03125z"/>
</g>
</defs>
<g transform="translate(-149.71 -130.24)">
<use x="148.71201" y="134.765" xlink:href="#a"/>
</g>
</svg>
