<?xml version="1.0" encoding="UTF-8"?>
<svg fill="#000000" version="1.1" viewBox="0 0 7.5156 7.5312" xmlns="http://www.w3.org/2000/svg" xmlns:xlink="http://www.w3.org/1999/xlink">
<defs>
<g id="a">
<path d="m3.8438 1.2188c0.20312 0 0.57812-0.53125 1.9531-0.53125 0.34375 0 0.51562 0.015625 0.57812 0.015625 0.125 0 0.21875-0.078125 0.21875-0.21875 0-0.23438-0.23438-0.25-0.46875-0.25h-0.0625c-0.39062 0-0.76562 0.046875-1.1562 0.046875h-0.015625l4.1719-4.1875c0.046875-0.046875 0.0625-0.09375 0.0625-0.15625 0-0.125-0.078125-0.23438-0.21875-0.23438-0.0625 0-0.125 0.015625-0.15625 0.0625l-4.1875 4.1875c0-0.39062 0.03125-0.78125 0.03125-1.1719v-0.09375c0-0.21875-0.015625-0.45312-0.23438-0.45312-0.14062 0-0.23438 0.09375-0.23438 0.23438 0 0.0625 0.03125 0.21875 0.03125 0.5625 0 1.3906-0.53125 1.75-0.53125 1.9531 0 0.14062 0.10938 0.23438 0.21875 0.23438zm2.5469-4.5469c0.125 0 0.23438-0.09375 0.23438-0.23438 0-0.0625-0.03125-0.21875-0.03125-0.5625 0-1.3906 0.53125-1.75 0.53125-1.9531 0-0.14062-0.10938-0.23438-0.23438-0.23438-0.20312 0-0.5625 0.53125-1.9531 0.53125-0.34375 0-0.51562-0.015625-0.57812-0.015625-0.10938 0-0.21875 0.078125-0.21875 0.21875 0 0.23438 0.23438 0.25 0.48438 0.25h0.0625c0.375 0 0.76562-0.046875 1.1406-0.046875h0.03125l-4.1875 4.1875c-0.03125 0.046875-0.0625 0.09375-0.0625 0.15625 0 0.125 0.078125 0.23438 0.21875 0.23438 0.0625 0 0.125-0.015625 0.17188-0.078125l4.1875-4.1719c0 0.39062-0.046875 0.78125-0.046875 1.1719v0.09375c0 0.21875 0.015625 0.45312 0.25 0.45312z"/>
</g>
</defs>
<g transform="translate(-150.32 -128.45)">
<use x="148.71201" y="134.765" xlink:href="#a"/>
</g>
</svg>
