<?xml version="1.0" encoding="UTF-8"?>
<svg fill="#000000" version="1.1" viewBox="0 0 4.3813 6.8281" xmlns="http://www.w3.org/2000/svg" xmlns:xlink="http://www.w3.org/1999/xlink">
<defs>
<g id="a">
<path d="m0.28125-4.2188v0.21875c0.15625-0.015625 0.3125-0.078125 0.46875-0.078125 0.078125 0 0.15625 0.015625 0.21875 0.078125 0.09375 0.125 0.078125 0.34375 0.078125 0.48438v4.625c0 0.14062 0.015625 0.3125-0.015625 0.46875 0 0.09375-0.046875 0.17188-0.10938 0.21875-0.10938 0.09375-0.28125 0.125-0.40625 0.17188l-0.14062 0.03125c-0.03125 0.015625-0.0625 0.03125-0.078125 0.046875-0.03125 0.046875-0.015625 0.14062-0.015625 0.20312l1.0625-0.29688 0.26562-0.078125 0.10938-0.046875 0.03125-0.14062v-1.6719c0.078125 0 0.15625-0.03125 0.23438-0.0625 0.17188-0.03125 0.32812-0.078125 0.5-0.125 0.25-0.0625 0.51562-0.125 0.76562-0.23438 0.42188-0.15625 0.78125-0.46875 1.0312-0.84375 0.5-0.79688 0.54688-1.9062-0.125-2.625-0.10938-0.125-0.23438-0.21875-0.375-0.29688s-0.3125-0.15625-0.48438-0.17188c-0.5625-0.09375-1.0625 0.20312-1.5781 0.34375v-0.57812l-1.0469 0.26562zm1.4688 3.9844v-3.4062c0-0.03125 0-0.0625 0.015625-0.09375s0.078125-0.046875 0.125-0.0625c0.09375-0.03125 0.20312-0.0625 0.29688-0.09375 0.14062-0.046875 0.29688-0.09375 0.4375-0.14062 0.10938-0.046875 0.21875-0.078125 0.34375-0.0625 0.10938 0 0.20312 0.0625 0.28125 0.10938 0.0625 0.046875 0.125 0.10938 0.17188 0.17188 0.3125 0.375 0.35938 0.875 0.35938 1.3438 0 0.3125-0.015625 0.60938-0.078125 0.89062-0.046875 0.29688-0.15625 0.59375-0.375 0.8125-0.20312 0.17188-0.45312 0.23438-0.71875 0.29688-0.17188 0.046875-0.34375 0.09375-0.5 0.14062-0.125 0.03125-0.25 0.0625-0.35938 0.09375z"/>
</g>
</defs>
<g transform="translate(-148.99 -130.19)">
<use x="148.71201" y="134.765" xlink:href="#a"/>
</g>
</svg>
