<?xml version="1.0" encoding="UTF-8"?>
<svg fill="#000000" version="1.1" viewBox="0 0 4.7969 7.4375" xmlns="http://www.w3.org/2000/svg" xmlns:xlink="http://www.w3.org/1999/xlink">
<defs>
<g id="a">
<path d="m3.9844-6.4531-0.51562 1.9531h-0.17188c-0.75 0-1.4219-0.34375-1.9375-0.85938h-0.015625l-0.45312 0.4375c0.64062 0.64062 1.4844 1.0625 2.4062 1.0625l-0.21875 0.79688h-2.1875v0.64062h2.0156l-0.34375 1.2812h-1.6719v0.64062h1.5l-0.35938 1.3125 0.5625 0.17188 0.39062-1.4844h2.7031v-0.64062h-2.5312l0.34375-1.2812h2.1875v-0.64062h-2.0156l0.21875-0.85938c0.67188-0.14062 1.2969-0.5 1.7969-1l-0.45312-0.4375c-0.32812 0.3125-0.70312 0.57812-1.1406 0.71875l0.45312-1.6562z"/>
</g>
</defs>
<g transform="translate(-149.6 -128.31)">
<use x="148.71201" y="134.765" xlink:href="#a"/>
</g>
</svg>
