<?xml version="1.0" encoding="UTF-8"?>
<svg fill="#000000" version="1.1" viewBox="0 0 4.0625 6.6719" xmlns="http://www.w3.org/2000/svg" xmlns:xlink="http://www.w3.org/1999/xlink">
<defs>
<g id="a">
<path d="m3.875 0.4375c-0.75-0.046875-1.4844-0.375-2.0781-0.875-0.57812-0.48438-0.84375-1.25-0.84375-2.0625 0-0.79688 0.26562-1.5625 0.84375-2.0469 0.59375-0.5 1.3281-0.82812 2.0781-0.875-0.78125 0.75-1.25 1.8125-1.25 2.9219 0 1.125 0.46875 2.1875 1.25 2.9375zm0.65625 0.03125c-0.9375-0.6875-1.5-1.7812-1.5-2.9688 0-1.1719 0.5625-2.2656 1.5-2.9531 0.046875-0.046875 0.078125-0.09375 0.078125-0.17188 0-0.20312-0.25-0.20312-0.40625-0.20312-1 0-1.9062 0.32812-2.6719 0.96875-0.6875 0.59375-0.98438 1.4844-0.98438 2.3594 0 0.89062 0.29688 1.7812 0.98438 2.375 0.76562 0.64062 1.6875 0.96875 2.6719 0.96875 0.14062 0 0.29688 0 0.40625-0.20312 0-0.0625-0.015625-0.125-0.078125-0.17188z"/>
</g>
</defs>
<g transform="translate(-149.26 -128.94)">
<use x="148.71201" y="134.765" xlink:href="#a"/>
</g>
</svg>
