<?xml version="1.0" encoding="UTF-8"?>
<svg fill="#000000" version="1.1" viewBox="0 0 6.3721 8.849" xmlns="http://www.w3.org/2000/svg" xmlns:xlink="http://www.w3.org/1999/xlink">
<defs>
<g id="a">
<path d="m4.3906-3.9688h-0.015625v-1.1406c0-0.1875 0.015625-0.40625 0-0.59375-0.015625-0.125-0.125-0.125-0.21875-0.125-0.0625 0-0.125 0-0.15625 0.0625-0.03125 0.046875-0.015625 0.14062-0.015625 0.20312v2.1875c0 0.0625 0 0.14062-0.015625 0.21875s-0.078125 0.15625-0.09375 0.21875l-0.21875 0.42188c-0.17188 0.35938-0.35938 0.71875-0.53125 1.0781-0.078125 0.15625-0.15625 0.29688-0.21875 0.45312-0.03125 0.0625-0.078125 0.125-0.09375 0.20312h-0.015625v-4.8438c0-0.0625 0-0.125-0.03125-0.17188-0.046875-0.03125-0.125-0.03125-0.17188-0.03125s-0.09375 0-0.15625 0.03125c-0.03125 0.03125-0.03125 0.078125-0.03125 0.14062v0.25 4.8906 0.5c-0.015625 0.0625-0.046875 0.10938-0.0625 0.15625-0.046875 0.078125-0.078125 0.15625-0.125 0.23438-0.14062 0.34375-0.32812 0.6875-0.5 1.0156-0.046875 0.10938-0.10938 0.21875-0.15625 0.32812-0.03125 0.0625-0.046875 0.125 0 0.17188 0.03125 0.03125 0.078125 0.03125 0.125 0.03125 0.078125 0 0.17188 0.015625 0.23438-0.046875 0.03125-0.046875 0.046875-0.09375 0.078125-0.125 0.046875-0.09375 0.078125-0.17188 0.125-0.26562l0.20312-0.42188c0.046875-0.078125 0.09375-0.17188 0.125-0.25 0.09375 0.015625 0.29688 0.046875 0.34375-0.078125 0.015625-0.046875 0-0.10938 0-0.15625v-0.29688c0-0.0625 0-0.125 0.03125-0.1875 0.015625-0.078125 0.0625-0.15625 0.09375-0.21875l0.20312-0.40625c0.1875-0.39062 0.375-0.76562 0.57812-1.1562 0.078125-0.17188 0.1875-0.35938 0.26562-0.5625h0.015625v2.8125c0 0.0625-0.015625 0.14062 0.015625 0.20312 0.046875 0.078125 0.20312 0.0625 0.28125 0.046875 0.09375-0.03125 0.09375-0.10938 0.09375-0.1875v-2.9219h2.5938c0.0625 0 0.125 0 0.17188-0.03125 0.078125-0.046875 0.0625-0.20312 0.046875-0.28125s-0.09375-0.09375-0.17188-0.09375h-2.6406c0-0.10938-0.015625-0.23438 0.015625-0.34375 0.015625-0.10938 0.078125-0.20312 0.125-0.29688 0.09375-0.1875 0.1875-0.375 0.29688-0.5625 0.29688-0.625 0.59375-1.25 0.92188-1.875l0.35938-0.73438 0.09375-0.1875c0.015625-0.03125 0.046875-0.078125 0.03125-0.125-0.015625-0.125-0.14062-0.09375-0.23438-0.09375-0.03125 0-0.078125 0-0.125 0.015625-0.03125 0.03125-0.0625 0.078125-0.09375 0.125-0.03125 0.09375-0.078125 0.1875-0.125 0.28125-0.28125 0.5625-0.54688 1.1094-0.82812 1.6719l-0.28125 0.54688c-0.046875 0.09375-0.10938 0.20312-0.14062 0.3125zm-3.4844-1.8438c-0.0625 0.015625-0.078125 0.078125-0.078125 0.14062v0.23438 6.0625c0 0.046875 0 0.09375 0.015625 0.125 0.046875 0.078125 0.14062 0.0625 0.20312 0.0625h0.09375c0.0625-0.015625 0.078125-0.0625 0.078125-0.10938 0.015625-0.078125 0-0.17188 0-0.25v-6.0938c0-0.046875 0-0.078125-0.015625-0.125-0.03125-0.0625-0.125-0.0625-0.20312-0.0625-0.015625 0-0.0625 0-0.09375 0.015625z"/>
</g>
</defs>
<g transform="translate(-149.54 -127.84)">
<use x="148.71201" y="134.765" xlink:href="#a"/>
</g>
</svg>
