<?xml version="1.0" encoding="UTF-8"?>
<svg fill="#000000" version="1.1" viewBox="0 0 7.1719 8.8594" xmlns="http://www.w3.org/2000/svg" xmlns:xlink="http://www.w3.org/1999/xlink">
<defs>
<g id="a">
<path d="m5.1719-1.3281h2.2344c0.14062 0 0.32812 0 0.32812-0.20312 0-0.1875-0.1875-0.1875-0.34375-0.1875h-2.0938l0.39062-1.5469h1.7031c0.15625 0 0.34375 0 0.34375-0.1875 0-0.20312-0.1875-0.20312-0.32812-0.20312h-1.5938l0.78125-2.8906c0-0.015625 0.03125-0.125 0.03125-0.17188 0-0.10938-0.078125-0.20312-0.1875-0.20312-0.17188 0-0.20312 0.14062-0.23438 0.25l-0.79688 3.0156h-1.875l0.78125-2.8906c0-0.015625 0.03125-0.125 0.03125-0.17188 0-0.10938-0.09375-0.20312-0.20312-0.20312-0.15625 0-0.1875 0.14062-0.21875 0.25l-0.79688 3.0156h-2.2344c-0.14062 0-0.32812 0-0.32812 0.20312 0 0.1875 0.1875 0.1875 0.32812 0.1875h2.1094l-0.39062 1.5469h-1.7188c-0.14062 0-0.32812 0-0.32812 0.1875 0 0.20312 0.1875 0.20312 0.32812 0.20312h1.5938l-0.78125 2.8906c-0.015625 0.015625-0.03125 0.125-0.03125 0.17188 0 0.10938 0.078125 0.20312 0.1875 0.20312 0.17188 0 0.1875-0.14062 0.21875-0.25l0.8125-3.0156h1.875l-0.78125 2.8906c0 0.015625-0.03125 0.125-0.03125 0.17188 0 0.10938 0.078125 0.20312 0.1875 0.20312 0.17188 0 0.20312-0.14062 0.21875-0.25zm-2.1562-0.39062 0.39062-1.5469h1.875l-0.39062 1.5469z"/>
</g>
</defs>
<g transform="translate(-149.27 -127.84)">
<use x="148.71201" y="134.765" xlink:href="#a"/>
</g>
</svg>
