<?xml version="1.0" encoding="UTF-8"?>
<svg fill="#000000" version="1.1" viewBox="0 0 4.1521 6.5793" xmlns="http://www.w3.org/2000/svg" xmlns:xlink="http://www.w3.org/1999/xlink">
<defs>
<g id="a">
<path d="m3.7812-1.0156v1.0625c0 0.34375 0 0.6875-0.14062 1.0156-0.15625 0.32812-0.40625 0.625-0.75 0.76562-0.23438 0.09375-0.45312 0.10938-0.70312 0.09375-0.45312-0.03125-0.90625-0.14062-1.2344-0.48438 0.09375 0.015625 0.1875 0 0.26562-0.046875 0.26562-0.125 0.32812-0.5 0.14062-0.71875-0.14062-0.14062-0.34375-0.17188-0.51562-0.125-0.0625 0.015625-0.125 0.0625-0.17188 0.10938-0.046875 0.0625-0.09375 0.125-0.10938 0.20312-0.03125 0.09375-0.015625 0.17188 0 0.26562 0.0625 0.46875 0.46875 0.75 0.89062 0.89062 0.89062 0.29688 1.9844 0.14062 2.6406-0.59375 0.17188-0.21875 0.3125-0.48438 0.35938-0.76562 0.046875-0.17188 0.03125-0.34375 0.03125-0.5v-4.5781l-0.20312 0.03125-0.0625 0.078125-0.0625 0.15625-0.28125 0.64062c-0.0625-0.15625-0.15625-0.29688-0.26562-0.42188-0.17188-0.1875-0.375-0.34375-0.625-0.42188-0.1875-0.0625-0.39062-0.0625-0.60938-0.046875-0.35938 0.03125-0.73438 0.15625-1.0469 0.35938-0.73438 0.48438-1.125 1.4219-0.95312 2.2812 0.14062 0.73438 0.6875 1.3281 1.375 1.5625 0.51562 0.1875 1.1094 0.1875 1.5469-0.17188 0.10938-0.078125 0.21875-0.1875 0.29688-0.29688s0.14062-0.21875 0.1875-0.34375zm0.03125-1.25c-0.03125 0.046875-0.03125 0.10938-0.03125 0.1875 0 0.10938-0.015625 0.21875-0.03125 0.32812-0.078125 0.46875-0.26562 0.96875-0.65625 1.25-0.078125 0.0625-0.15625 0.09375-0.25 0.14062-0.078125 0.015625-0.14062 0.046875-0.21875 0.046875-0.45312 0.0625-0.82812-0.20312-1.0781-0.5625-0.40625-0.5625-0.46875-1.3438-0.29688-2 0.14062-0.54688 0.51562-1.1406 1.1094-1.2969 0.078125-0.015625 0.1875-0.03125 0.28125-0.03125 0.625 0.03125 1.0625 0.64062 1.1719 1.2188 0.015625 0.10938 0 0.23438 0 0.34375 0 0.125 0.03125 0.25 0 0.375z"/>
</g>
</defs>
<g transform="translate(-149.05 -130.34)">
<use x="148.71201" y="134.765" xlink:href="#a"/>
</g>
</svg>
