<?xml version="1.0" encoding="UTF-8"?>
<svg fill="#000000" version="1.1" viewBox="0 0 11.266 5.5625" xmlns="http://www.w3.org/2000/svg" xmlns:xlink="http://www.w3.org/1999/xlink">
<defs>
<g id="a">
<path d="m11.859 0.26562v-0.67188h-2.6875c-1.0469 0-1.9375-0.89062-2.0781-1.8594h1.7031v-0.5h-1.7031c0.14062-0.98438 1.0156-1.875 2.0625-1.875h2.7031v-0.65625h-2.7031c-1.5 0-2.5938 1.1562-2.7188 2.5312h-0.42188c-0.125-1.375-1.2031-2.5312-2.7188-2.5312h-2.7031v0.65625h2.7031c1.0469 0 1.9219 0.89062 2.0625 1.875h-1.6875v0.5h1.6875c-0.14062 0.96875-1.0156 1.8594-2.0625 1.8594h-2.7031v0.67188h2.7344c1.5 0 2.5625-1.1562 2.6875-2.5312h0.42188c0.125 1.375 1.2031 2.5312 2.6875 2.5312z"/>
</g>
</defs>
<g transform="translate(-149.31 -129.47)">
<use x="148.71201" y="134.765" xlink:href="#a"/>
</g>
</svg>
