<?xml version="1.0" encoding="UTF-8"?>
<svg fill="#000000" version="1.1" viewBox="0 0 5.6406 8.2969" xmlns="http://www.w3.org/2000/svg" xmlns:xlink="http://www.w3.org/1999/xlink">
<defs>
<g id="a">
<path d="m2.4062-5.0781c0.09375-0.4375 0.17188-0.65625 0.35938-0.875 0.53125-0.54688 0.65625-0.76562 0.65625-1.125 0-0.60938-0.57812-0.95312-1.1875-0.95312-0.625 0-1.0938 0.42188-1.0938 0.92188 0 0.26562 0.15625 0.45312 0.39062 0.45312 0.21875 0 0.34375-0.125 0.34375-0.32812 0-0.21875-0.1875-0.21875-0.1875-0.32812s0.20312-0.32812 0.46875-0.32812c0.29688 0 0.46875 0.1875 0.46875 0.51562 0 0.3125-0.1875 0.67188-0.29688 0.95312-0.21875 0.48438-0.23438 0.76562-0.23438 1.0938zm0.29688 0.6875c0-0.21875-0.20312-0.42188-0.42188-0.42188-0.23438 0-0.42188 0.1875-0.42188 0.42188 0 0.25 0.15625 0.4375 0.42188 0.4375 0.23438 0 0.42188-0.1875 0.42188-0.4375zm3.375 4.6562v-0.65625l-4.3125-2.125 4.3125-2.1406v-0.64062l-5.6406 2.7188v0.10938z"/>
</g>
</defs>
<g transform="translate(-149.15 -126.73)">
<use x="148.71201" y="134.765" xlink:href="#a"/>
</g>
</svg>
