<?xml version="1.0" encoding="UTF-8"?>
<svg fill="#000000" version="1.1" viewBox="0 0 8.8594 2.5" xmlns="http://www.w3.org/2000/svg" xmlns:xlink="http://www.w3.org/1999/xlink">
<defs>
<g id="a">
<path d="m9.4062-1.4219c0-0.10938-1.4531-2.375-4.4219-2.375-2.9844 0-4.4375 2.2656-4.4375 2.375 0 0.0625 0.0625 0.125 0.125 0.125 0.03125 0 0.046875-0.015625 0.0625-0.03125 0.015625 0 0.015625-0.015625 0.14062-0.17188 0.92188-1.2656 2.5312-1.8438 4.0938-1.8438 0.73438 0 1.6406 0.10938 2.5312 0.54688 1 0.46875 1.4531 1.125 1.6562 1.4219 0.03125 0.03125 0.0625 0.078125 0.125 0.078125s0.125-0.0625 0.125-0.125z"/>
</g>
</defs>
<g transform="translate(-149.26 -130.97)">
<use x="148.71201" y="134.765" xlink:href="#a"/>
</g>
</svg>
