<?xml version="1.0" encoding="UTF-8"?>
<svg fill="#000000" width="6.625" height="6.0938" version="1.1" viewBox="0 0 6.625 6.0937" xmlns="http://www.w3.org/2000/svg" xmlns:xlink="http://www.w3.org/1999/xlink">
<defs>
<g id="b">
<path d="m2.7656-6.8281 2.7031 1.2188 0.125-0.21875-2.8281-1.5938-2.8125 1.5938 0.10938 0.21875z"/>
</g>
<g id="a">
<path d="m6.8438-3.2656c0.15625 0 0.34375 0 0.34375-0.1875 0-0.20312-0.1875-0.20312-0.32812-0.20312h-5.9688c-0.14062 0-0.32812 0-0.32812 0.20312 0 0.1875 0.1875 0.1875 0.32812 0.1875zm0.015625 1.9375c0.14062 0 0.32812 0 0.32812-0.20312 0-0.1875-0.1875-0.1875-0.34375-0.1875h-5.9531c-0.14062 0-0.32812 0-0.32812 0.1875 0 0.20312 0.1875 0.20312 0.32812 0.20312z"/>
</g>
</defs>
<g transform="translate(-149.27 -127.34)">
<use x="149.819" y="134.765" xlink:href="#b"/>
<use x="148.71201" y="134.765" xlink:href="#a"/>
</g>
</svg>
