<?xml version="1.0" encoding="UTF-8"?>
<svg fill="#000000" version="1.1" viewBox="0 0 4.9531 6.4219" xmlns="http://www.w3.org/2000/svg" xmlns:xlink="http://www.w3.org/1999/xlink">
<defs>
<g id="a">
<path d="m4.6406-0.40625c-0.29688 0-0.53125 0.25-0.53125 0.53125 0 0.3125 0.25 0.54688 0.53125 0.54688 0.32812 0 0.54688-0.26562 0.54688-0.54688 0-0.3125-0.25-0.53125-0.54688-0.53125zm-3.8594-5.3438c-0.3125 0-0.54688 0.25-0.54688 0.53125 0 0.3125 0.25 0.54688 0.54688 0.54688 0.3125 0 0.53125-0.26562 0.53125-0.54688 0-0.3125-0.25-0.53125-0.53125-0.53125zm3.8594 2.0781h-3.8594c-0.125 0-0.21875 0.10938-0.21875 0.23438s0.09375 0.23438 0.21875 0.23438h3.8594c0.14062 0 0.23438-0.10938 0.23438-0.23438s-0.09375-0.23438-0.23438-0.23438zm0 1.7812h-3.8594c-0.125 0-0.21875 0.10938-0.21875 0.23438s0.09375 0.23438 0.21875 0.23438h3.8594c0.14062 0 0.23438-0.10938 0.23438-0.23438s-0.09375-0.23438-0.23438-0.23438z"/>
</g>
</defs>
<g transform="translate(-148.95 -129.02)">
<use x="148.71201" y="134.765" xlink:href="#a"/>
</g>
</svg>
