<?xml version="1.0" encoding="UTF-8"?>
<svg fill="#000000" version="1.1" viewBox="0 0 8.1875 10.25" xmlns="http://www.w3.org/2000/svg" xmlns:xlink="http://www.w3.org/1999/xlink">
<defs>
<g id="a">
<path d="m9.2031-0.54688c0.32812 0.96875 0.35938 1.4219 0.64062 1.4219 0.14062 0 0.23438-0.125 0.23438-0.23438 0-0.14062-0.48438-0.89062-0.48438-1.8438 0-0.32812 0.046875-0.39062 0.078125-0.64062 0.015625-0.015625 0.015625-0.046875 0.015625-0.0625 0-0.125-0.09375-0.23438-0.23438-0.23438-0.0625 0-0.14062 0.03125-0.1875 0.10938-0.46875 0.67188-1.2656 1.0312-2.0625 1.25-0.10938 0.015625-0.17188 0.10938-0.17188 0.21875 0 0.14062 0.10938 0.21875 0.21875 0.21875 0.25 0 1.1094-0.4375 1.6406-0.60938-0.5625 1.125-1.75 1.875-3.0625 1.875-0.15625 0-0.3125 0-0.46875-0.03125l1.2031-6.8281c1.4062 0.3125 2.4219 1.4219 2.6719 2.7812 0.015625 0.10938 0.10938 0.20312 0.21875 0.20312 0.14062 0 0.23438-0.125 0.23438-0.23438 0-0.29688-0.5625-2.6719-3.0469-3.2031l0.20312-1.1094c0.015625-0.09375-0.046875-0.17188-0.15625-0.17188-0.0625 0-0.125 0.046875-0.14062 0.10938l-0.20312 1.125c-0.17188-0.03125-0.35938-0.046875-0.53125-0.046875-2.2188 0-3.9219 1.8281-3.9219 3.9375 0 1.875 1.3125 3.4531 3.0938 3.8438l-0.20312 1.1094c0 0.09375 0.046875 0.17188 0.15625 0.17188 0.0625 0 0.14062-0.046875 0.14062-0.10938l0.20312-1.125c0.17188 0.03125 0.34375 0.046875 0.53125 0.046875 1.4062 0 2.6875-0.75 3.3906-1.9375zm-3.3906-5.4688c0.15625 0 0.3125 0 0.45312 0.03125l-1.2031 6.8281c-1.5938-0.35938-2.7188-1.75-2.7188-3.3906 0-1.9844 1.6094-3.4688 3.4688-3.4688z"/>
</g>
</defs>
<g transform="translate(-150.6 -127.09)">
<use x="148.71201" y="134.765" xlink:href="#a"/>
</g>
</svg>
