<?xml version="1.0" encoding="UTF-8"?>
<svg fill="#000000" version="1.1" viewBox="0 0 7.3906 7.3906" xmlns="http://www.w3.org/2000/svg" xmlns:xlink="http://www.w3.org/1999/xlink">
<defs>
<g id="a">
<path d="m4.7656-4.0938c0-0.34375-0.23438-0.5625-0.5625-0.5625-0.35938 0-0.57812 0.26562-0.57812 0.5625 0 0.34375 0.28125 0.57812 0.57812 0.57812 0.28125 0 0.5625-0.21875 0.5625-0.57812zm1.5469 1.9062v-0.65625h-4.2344v0.65625zm-1.5469 1.25c0-0.34375-0.23438-0.5625-0.5625-0.5625-0.35938 0-0.57812 0.25-0.57812 0.5625 0 0.34375 0.28125 0.5625 0.57812 0.5625 0.28125 0 0.5625-0.21875 0.5625-0.5625zm3.125-1.5781c0-2.0469-1.6562-3.6875-3.6875-3.6875-2.0469 0-3.7031 1.6406-3.7031 3.6875s1.6562 3.7031 3.7031 3.7031c2.0312 0 3.6875-1.6562 3.6875-3.7031zm-0.65625 0c0 1.6719-1.3594 3.0469-3.0312 3.0469-1.6875 0-3.0469-1.375-3.0469-3.0469s1.3594-3.0312 3.0469-3.0312c1.6719 0 3.0312 1.3594 3.0312 3.0312z"/>
</g>
</defs>
<g transform="translate(-149.21 -128.56)">
<use x="148.71201" y="134.765" xlink:href="#a"/>
</g>
</svg>
