<?xml version="1.0" encoding="UTF-8"?>
<svg fill="#000000" version="1.1" viewBox="0 0 4.1094 7.1406" xmlns="http://www.w3.org/2000/svg" xmlns:xlink="http://www.w3.org/1999/xlink">
<defs>
<g id="a">
<path d="m4.5312-4.9844c0-0.65625-0.17188-2.0469-1.1875-2.0469-1.3906 0-2.9219 2.8125-2.9219 5.0938 0 0.9375 0.28125 2.0469 1.1875 2.0469 1.4062 0 2.9219-2.8594 2.9219-5.0938zm-3.0625 1.3594c0.17188-0.625 0.375-1.4219 0.78125-2.1406 0.26562-0.48438 0.625-1.0469 1.0781-1.0469 0.48438 0 0.54688 0.64062 0.54688 1.2031 0 0.5-0.078125 1-0.3125 1.9844zm2 0.32812c-0.10938 0.45312-0.3125 1.2969-0.70312 2.0156-0.34375 0.6875-0.71875 1.1719-1.1562 1.1719-0.32812 0-0.53125-0.29688-0.53125-1.2188 0-0.42188 0.0625-1 0.3125-1.9688z"/>
</g>
</defs>
<g transform="translate(-149.13 -127.73)">
<use x="148.71201" y="134.765" xlink:href="#a"/>
</g>
</svg>
