<?xml version="1.0" encoding="UTF-8"?>
<svg fill="#000000" version="1.1" viewBox="0 0 6.0625 11.406" xmlns="http://www.w3.org/2000/svg" xmlns:xlink="http://www.w3.org/1999/xlink">
<defs>
<g id="a">
<path d="m2.7969-1.8594c-0.78125-0.21875-1.3594-0.95312-1.3594-1.8125h-0.375c0 1.0469 0.6875 1.9219 1.6562 2.1719l-0.6875 2.7344c-0.25 1.0156-0.48438 1.6406-0.95312 1.6406-0.078125 0-0.10938-0.03125-0.10938-0.078125 0-0.10938 0.17188-0.09375 0.17188-0.39062 0-0.15625-0.15625-0.25-0.29688-0.25-0.28125 0-0.53125 0.25-0.53125 0.57812 0 0.25 0.15625 0.45312 0.5625 0.45312 1.1094 0 1.7031-1.2031 1.9062-2.0156l0.64062-2.6094c0.96875-0.0625 1.625-0.71875 1.875-1.2344 0.03125-0.0625 0.078125-0.078125 0.10938-0.078125 0.0625 0 0.10938 0.0625 0.14062 0.125 0.078125 0.21875 0.1875 0.4375 0.3125 0.60938l0.10938-0.0625c-0.21875-0.46875-0.42188-1.0156-0.42188-1.5625l-0.046875-0.03125c-0.39062 0.375-0.9375 0.59375-1.4375 0.76562l0.03125 0.10938c0.20312-0.03125 0.42188-0.10938 0.64062-0.1875 0.03125 0 0.0625-0.015625 0.09375-0.015625 0.0625 0 0.14062 0.046875 0.14062 0.125 0 0 0 0.03125-0.015625 0.046875l-0.046875 0.09375c-0.21875 0.40625-0.70312 0.82812-1.375 0.90625l1.0781-4.3125c0.25-1.0469 0.5-1.7656 1-1.7656 0.078125 0 0.10938 0.03125 0.10938 0.078125 0 0.09375-0.17188 0.15625-0.17188 0.40625 0 0.17188 0.15625 0.25 0.3125 0.25 0.26562 0 0.51562-0.26562 0.51562-0.59375 0-0.23438-0.15625-0.45312-0.54688-0.45312-1.2031 0-1.7812 1.375-1.9844 2.1719z"/>
</g>
</defs>
<g transform="translate(-149.02 -126.51)">
<use x="148.71201" y="134.72501" xlink:href="#a"/>
</g>
</svg>
