<?xml version="1.0" encoding="UTF-8"?>
<svg fill="#000000" version="1.1" viewBox="0 0 6.375 5.7812" xmlns="http://www.w3.org/2000/svg" xmlns:xlink="http://www.w3.org/1999/xlink">
<defs>
<g id="a">
<path d="m7-2.2812v-0.5625h-3.7969c-0.75 0-2.0312-0.28125-2.0312-1.25 0-0.4375 0.35938-0.79688 0.79688-0.79688 0.5 0 0.875 0.3125 1.0625 0.75l0.42188-0.25c-0.28125-0.60938-0.76562-1.0625-1.4844-1.0625-0.73438 0-1.3438 0.625-1.3438 1.3594 0 0.76562 0.51562 1.2656 1.1719 1.5312-0.65625 0.26562-1.1719 0.76562-1.1719 1.5312 0 0.73438 0.60938 1.3594 1.3438 1.3594 0.71875 0 1.2031-0.45312 1.4844-1.0625l-0.42188-0.25c-0.1875 0.45312-0.5625 0.75-1.0625 0.75-0.4375 0-0.79688-0.35938-0.79688-0.79688 0-0.96875 1.2812-1.25 2.0312-1.25z"/>
</g>
</defs>
<g transform="translate(-149.34 -129.31)">
<use x="148.71201" y="134.765" xlink:href="#a"/>
</g>
</svg>
