<?xml version="1.0" encoding="UTF-8"?>
<svg fill="#000000" version="1.1" viewBox="0 0 8.9688 8.9844" xmlns="http://www.w3.org/2000/svg" xmlns:xlink="http://www.w3.org/1999/xlink">
<defs>
<g id="a">
<path d="m9.9688-2.5c0-2.4062-2.0781-4.4844-4.4844-4.4844-2.5 0-4.4844 2.0781-4.4844 4.4844 0 2.5156 1.9844 4.5 4.4844 4.5 2.4062 0 4.4844-2.0156 4.4844-4.5zm-0.59375 0c0 2.1562-1.7969 3.9062-3.8906 3.9062-2.1719 0-3.8906-1.7188-3.8906-3.9062 0-2.0781 1.7188-3.875 3.8906-3.875 2.0938 0 3.8906 1.7969 3.8906 3.875zm-3.4375-1.5938c0-0.25-0.20312-0.4375-0.45312-0.4375-0.23438 0-0.45312 0.1875-0.45312 0.4375s0.21875 0.45312 0.45312 0.45312c0.25 0 0.45312-0.20312 0.45312-0.45312zm1.4688 1.2969h-3.8438c-0.17188 0-0.32812 0.14062-0.32812 0.29688 0 0.17188 0.15625 0.3125 0.32812 0.3125h3.8438c0.17188 0 0.3125-0.14062 0.3125-0.3125 0-0.15625-0.14062-0.29688-0.3125-0.29688zm-1.4688 1.9062c0-0.25-0.20312-0.45312-0.45312-0.45312-0.23438 0-0.45312 0.20312-0.45312 0.45312s0.21875 0.4375 0.45312 0.4375c0.25 0 0.45312-0.1875 0.45312-0.4375z"/>
</g>
</defs>
<g transform="translate(-149.71 -127.78)">
<use x="148.71201" y="134.765" xlink:href="#a"/>
</g>
</svg>
