<?xml version="1.0" encoding="UTF-8"?>
<svg fill="#000000" version="1.1" viewBox="0 0 8 7.1875" xmlns="http://www.w3.org/2000/svg" xmlns:xlink="http://www.w3.org/1999/xlink">
<defs>
<g id="a">
<path d="m3.0938-5.625c-1.5312 0-2.6719 1.2812-2.6719 3.0781 0.046875 1.5156 1.3281 2.625 2.9688 2.625 1.6094-0.078125 2.7344-1.2656 2.7344-2.8125 0-0.54688-0.17188-1.0469-0.5-1.5v-0.21875l1.5-1.2344 0.078125 1.5781 1.2188-3h-0.20312l-2.8125 0.95312 1.4375 0.14062-1.4844 1.2969c-0.53125-0.60938-1.2969-0.90625-2.2656-0.90625zm0.42188 5.2188c-1.5625-0.85938-2-1.9531-2-3.5625 0.3125-0.8125 0.71875-1.2031 1.2188-1.2031 1.3594 0.20312 2.4219 1.6719 2.4219 3.375-0.015625 0.79688-0.57812 1.3906-1.4219 1.3906l-0.21875-0.015625z"/>
</g>
</defs>
<g transform="translate(-149.13 -127.66)">
<use x="148.71201" y="134.765" xlink:href="#a"/>
</g>
</svg>
