<?xml version="1.0" encoding="UTF-8"?>
<svg fill="#000000" version="1.1" viewBox="0 0 6.2344 12.578" xmlns="http://www.w3.org/2000/svg" xmlns:xlink="http://www.w3.org/1999/xlink">
<defs>
<g id="a">
<path d="m6.5625 0.78125c0-0.54688-0.6875-0.78125-1.1406-0.78125-1.8438 0-2.1562 2.6562-2.25 4.1094-1.0625 0.17188-1.8906 1.0156-2.0156 2.0781l-0.59375-0.53125-0.23438 0.21875 0.82812 0.90625c0.125 0.98438 0.8125 1.7812 1.75 2.0312 0 0.1875-0.015625 0.39062-0.03125 0.59375-0.015625 0.78125 0.078125 2.8594-1.125 2.8594-0.10938 0-0.25-0.03125-0.32812-0.125 0.03125-0.04687 0.046875-0.125 0.046875-0.17188 0-0.3125-0.39062-0.60938-0.6875-0.60938-0.21875 0-0.26562 0.25-0.26562 0.42188 0 0.5625 0.67188 0.79688 1.125 0.79688 1.6562 0 1.9844-2.4062 2.125-3.6406v-0.0625c1.2188-0.10938 2.1719-1.125 2.1719-2.3906 0-1.125-0.78125-2.0625-1.8125-2.3281 0.046875-0.96875-0.0625-3.8594 1.2031-3.8594 0.10938 0 0.23438 0.03125 0.3125 0.125-0.03125 0.0625-0.03125 0.10938-0.03125 0.1875 0 0.29688 0.375 0.59375 0.67188 0.59375 0.23438 0 0.28125-0.21875 0.28125-0.42188zm-1.125 5.7031c0 0.96875-0.70312 1.7656-1.625 1.8906 0.125-1.2344 0.1875-2.4688 0.28125-3.7031 0.78125 0.23438 1.3438 0.95312 1.3438 1.8125zm-2.2969-1.8594c-0.078125 1.2344-0.15625 2.4375-0.20312 3.6719-0.64062-0.21875-1.125-0.76562-1.2656-1.4219l0.92188-1-0.23438-0.21875-0.71875 0.64062c0.09375-0.82812 0.70312-1.4844 1.5-1.6719z"/>
</g>
</defs>
<g transform="translate(-149.04 -125.92)">
<use x="148.71201" y="125.923" xlink:href="#a"/>
</g>
</svg>
