<?xml version="1.0" encoding="UTF-8"?>
<svg fill="#000000" version="1.1" viewBox="0 0 4.3594 4.5625" xmlns="http://www.w3.org/2000/svg" xmlns:xlink="http://www.w3.org/1999/xlink">
<defs>
<g id="a">
<path d="m0.8125-0.26562h4.3594v-0.23438c-0.015625 0-0.03125 0.015625-0.0625 0.015625-0.23438 0-0.4375-0.1875-0.4375-0.4375v-3.25c0-0.25 0.25-0.42188 0.5-0.42188v-0.23438h-1.4688v0.23438c0.26562 0 0.5 0.17188 0.5 0.42188v3.3438c0 0.125-0.09375 0.21875-0.21875 0.21875h-1.9844c-0.10938 0-0.20312-0.09375-0.20312-0.21875v-3.3438c0-0.25 0.23438-0.42188 0.48438-0.42188v-0.23438h-1.4688v0.23438c0.26562 0 0.5 0.17188 0.5 0.42188v3.25c0 0.25-0.23438 0.42188-0.5 0.42188z"/>
</g>
</defs>
<g transform="translate(-149.52 -129.94)">
<use x="148.71201" y="134.765" xlink:href="#a"/>
</g>
</svg>
