<?xml version="1.0" encoding="UTF-8"?>
<svg fill="#000000" version="1.1" viewBox="0 0 6.5312 6.5156" xmlns="http://www.w3.org/2000/svg" xmlns:xlink="http://www.w3.org/1999/xlink">
<defs>
<g id="a">
<path d="m6.8906-5.2969c-0.0625 0-0.125 0.015625-0.15625 0.0625l-4.9062 4.8906-0.82812-0.85938c-0.046875-0.03125-0.10938-0.046875-0.17188-0.046875-0.125 0-0.23438 0.078125-0.23438 0.21875 0 0.0625 0.03125 0.10938 0.078125 0.15625l2.0156 2.0156c0.046875 0.0625 0.10938 0.078125 0.15625 0.078125 0.125 0 0.23438-0.09375 0.23438-0.23438 0-0.0625-0.03125-0.10938-0.0625-0.15625l-0.85938-0.84375 4.8906-4.9062c0.046875-0.03125 0.078125-0.09375 0.078125-0.15625 0-0.10938-0.09375-0.21875-0.23438-0.21875z"/>
</g>
</defs>
<g transform="translate(-149.31 -129.47)">
<use x="148.71201" y="134.765" xlink:href="#a"/>
</g>
</svg>
