<?xml version="1.0" encoding="UTF-8"?>
<svg fill="#000000" version="1.1" viewBox="0 0 3.3125 9.9844" xmlns="http://www.w3.org/2000/svg" xmlns:xlink="http://www.w3.org/1999/xlink">
<defs>
<g id="a">
<path d="m3.4844-6.8125h-0.078125c-0.21875 0-0.4375 0.14062-0.4375 0.4375s0.21875 0.4375 0.4375 0.4375 0.45312-0.14062 0.45312-0.4375c0-0.625-0.53125-1.1094-1.1562-1.1094s-1.1406 0.48438-1.1406 1.1094c0 2.2344 1.4688 4.1875 1.4688 6.375 0 1.2656-1.0938 2.2656-2.3906 2.2656-0.046875 0-0.09375 0.046875-0.09375 0.125 0 0.0625 0.046875 0.10938 0.09375 0.10938 1.6406 0 3.2188-0.95312 3.2188-2.5 0-2.3281-2.0625-4.1094-2.0625-6.375 0-0.48438 0.42188-0.875 0.90625-0.875 0.34375 0 0.64062 0.17188 0.78125 0.4375z"/>
</g>
</defs>
<g transform="translate(-149.26 -127.28)">
<use x="148.71201" y="134.765" xlink:href="#a"/>
</g>
</svg>
