<?xml version="1.0" encoding="UTF-8"?>
<svg fill="#000000" version="1.1" viewBox="0 0 8.1094 6.7969" xmlns="http://www.w3.org/2000/svg" xmlns:xlink="http://www.w3.org/1999/xlink">
<defs>
<g id="a">
<path d="m0.23438-6.8125v0.29688c0.14062 0 0.26562 0 0.40625 0.015625s0.3125 0.015625 0.45312 0.09375c0.125 0.09375 0.21875 0.21875 0.29688 0.35938 0.09375 0.125 0.17188 0.26562 0.26562 0.39062 0.375 0.57812 0.73438 1.1562 1.1094 1.7344 0.1875 0.26562 0.35938 0.54688 0.53125 0.8125 0.046875 0.0625 0.09375 0.15625 0.14062 0.21875 0.015625 0.03125 0.046875 0.0625 0.046875 0.10938 0 0.03125-0.03125 0.0625-0.046875 0.09375-0.03125 0.046875-0.0625 0.078125-0.10938 0.14062-0.15625 0.1875-0.3125 0.39062-0.46875 0.57812-0.1875 0.25-0.375 0.48438-0.5625 0.71875-0.17188 0.21875-0.32812 0.4375-0.54688 0.59375-0.35938 0.25-0.79688 0.34375-1.2188 0.34375v0.29688h2.3906v-0.29688c-0.25-0.015625-0.5625-0.15625-0.54688-0.4375 0-0.046875 0.015625-0.09375 0.03125-0.125 0.046875-0.078125 0.10938-0.15625 0.17188-0.23438l0.28125-0.34375c0.28125-0.34375 0.54688-0.71875 0.84375-1.0469 0.03125 0.0625 0.078125 0.14062 0.125 0.20312 0.0625 0.10938 0.125 0.20312 0.1875 0.29688 0.1875 0.29688 0.375 0.57812 0.5625 0.875 0.078125 0.125 0.14062 0.23438 0.23438 0.34375 0.015625 0.046875 0.078125 0.10938 0.0625 0.17188 0 0.078125-0.078125 0.125-0.14062 0.17188-0.15625 0.078125-0.32812 0.125-0.5 0.125v0.29688h4.1094v-0.29688c-0.14062 0-0.26562 0-0.40625-0.015625-0.15625-0.015625-0.32812-0.015625-0.45312-0.09375-0.14062-0.09375-0.23438-0.21875-0.3125-0.35938-0.09375-0.14062-0.17188-0.28125-0.26562-0.42188-0.39062-0.59375-0.78125-1.2031-1.1719-1.8125-0.17188-0.28125-0.34375-0.53125-0.51562-0.79688-0.0625-0.078125-0.09375-0.14062-0.14062-0.21875-0.03125-0.03125-0.046875-0.0625-0.046875-0.10938 0-0.03125 0.015625-0.0625 0.03125-0.09375 0.046875-0.046875 0.078125-0.078125 0.10938-0.125l0.45312-0.5625c0.1875-0.23438 0.375-0.48438 0.57812-0.73438 0.15625-0.20312 0.3125-0.39062 0.53125-0.54688 0.32812-0.23438 0.76562-0.3125 1.1719-0.3125v-0.29688h-2.3906v0.29688c0.23438 0 0.5625 0.15625 0.53125 0.4375 0 0.046875 0 0.09375-0.03125 0.10938-0.03125 0.09375-0.09375 0.17188-0.15625 0.23438l-0.26562 0.34375-0.5 0.625c-0.09375 0.10938-0.17188 0.23438-0.28125 0.34375-0.078125-0.15625-0.1875-0.29688-0.28125-0.4375-0.17188-0.29688-0.35938-0.57812-0.54688-0.85938-0.0625-0.10938-0.14062-0.21875-0.21875-0.32812-0.03125-0.046875-0.078125-0.10938-0.0625-0.17188 0-0.078125 0.078125-0.125 0.14062-0.17188 0.14062-0.078125 0.32812-0.125 0.5-0.125v-0.29688zm6.8594 6.5h-0.89062l-0.09375-0.03125-0.125-0.1875-0.25-0.39062-0.82812-1.2656-1.8281-2.8281-0.59375-0.9375-0.35938-0.5625h0.875l0.09375 0.03125 0.14062 0.17188 0.25 0.40625 0.82812 1.2969 1.8438 2.8281 0.59375 0.9375z"/>
</g>
</defs>
<g transform="translate(-148.95 -127.95)">
<use x="148.71201" y="134.765" xlink:href="#a"/>
</g>
</svg>
