<?xml version="1.0" encoding="UTF-8"?>
<svg fill="#000000" version="1.1" viewBox="0 0 6.1065 8.845" xmlns="http://www.w3.org/2000/svg" xmlns:xlink="http://www.w3.org/1999/xlink">
<defs>
<g id="a">
<path d="m1.2188-2.7031v-2.875c0-0.046875 0.015625-0.125 0-0.17188-0.046875-0.09375-0.15625-0.078125-0.23438-0.078125-0.03125 0-0.09375 0-0.10938 0.046875-0.046875 0.046875-0.046875 0.09375-0.046875 0.14062v0.26562 5.8125 0.20312c0 0.0625 0 0.10938 0.046875 0.14062 0.03125 0.03125 0.078125 0.03125 0.125 0.03125 0.09375 0 0.20312 0.015625 0.21875-0.10938 0.015625-0.0625 0-0.125 0-0.1875v-2.8125h2.3438c-0.10938 0.17188-0.1875 0.35938-0.28125 0.54688-0.1875 0.39062-0.39062 0.78125-0.57812 1.1719-0.17188 0.34375-0.34375 0.67188-0.5 1-0.15625 0.3125-0.3125 0.60938-0.45312 0.90625l-0.14062 0.28125c-0.03125 0.046875-0.046875 0.09375-0.078125 0.15625v0.046875c0 0.125 0.14062 0.10938 0.21875 0.10938 0.046875 0 0.09375 0 0.14062-0.015625 0.0625-0.046875 0.10938-0.15625 0.14062-0.21875 0.09375-0.20312 0.1875-0.39062 0.28125-0.59375l0.70312-1.4062c0.14062-0.28125 0.29688-0.57812 0.4375-0.875 0.10938-0.26562 0.25-0.53125 0.39062-0.79688l0.10938-0.20312c0.015625-0.03125 0.03125-0.078125 0.0625-0.09375 0.046875-0.03125 0.125-0.015625 0.1875-0.015625h2.4844c0.0625 0 0.14062 0 0.1875-0.03125 0.078125-0.046875 0.0625-0.20312 0.046875-0.28125-0.03125-0.078125-0.10938-0.09375-0.17188-0.09375h-2.5469c0.078125-0.14062 0.15625-0.3125 0.23438-0.46875 0.14062-0.28125 0.28125-0.59375 0.42188-0.875l1.2344-2.4688c0.046875-0.09375 0.125-0.1875 0.125-0.29688 0.015625-0.125-0.125-0.10938-0.21875-0.10938h-0.09375c-0.10938 0.03125-0.15625 0.1875-0.1875 0.26562-0.125 0.25-0.25 0.51562-0.39062 0.78125-0.20312 0.40625-0.40625 0.82812-0.60938 1.2344-0.14062 0.28125-0.28125 0.54688-0.40625 0.8125s-0.25 0.51562-0.375 0.75l-0.10938 0.23438c-0.015625 0.03125-0.046875 0.078125-0.0625 0.10938-0.046875 0.046875-0.14062 0.03125-0.1875 0.03125z"/>
</g>
</defs>
<g transform="translate(-149.54 -127.84)">
<use x="148.71201" y="134.765" xlink:href="#a"/>
</g>
</svg>
