<?xml version="1.0" encoding="UTF-8"?>
<svg fill="#000000" version="1.1" viewBox="0 0 7.1094 6.1562" xmlns="http://www.w3.org/2000/svg" xmlns:xlink="http://www.w3.org/1999/xlink">
<defs>
<g id="a">
<path d="m7.7031 0.3125v-5.7188c0-0.10938-0.09375-0.21875-0.21875-0.21875-0.14062 0-0.23438 0.10938-0.23438 0.21875v5.7188c0 0.10938 0.09375 0.21875 0.23438 0.21875 0.125 0 0.21875-0.10938 0.21875-0.21875zm-1.7812 0v-5.7188c0-0.10938-0.09375-0.21875-0.23438-0.21875-0.125 0-0.21875 0.10938-0.21875 0.21875v1.7344h-4.6406c-0.125 0-0.23438 0.10938-0.23438 0.23438s0.10938 0.23438 0.23438 0.23438h4.6406v1.3125h-4.6406c-0.125 0-0.23438 0.10938-0.23438 0.23438s0.10938 0.23438 0.23438 0.23438h4.6406v1.7344c0 0.10938 0.09375 0.21875 0.21875 0.21875 0.14062 0 0.23438-0.10938 0.23438-0.21875z"/>
</g>
</defs>
<g transform="translate(-149.31 -129.14)">
<use x="148.71201" y="134.765" xlink:href="#a"/>
</g>
</svg>
