<?xml version="1.0" encoding="UTF-8"?>
<svg fill="#000000" version="1.1" viewBox="0 0 6.2247 11.083" xmlns="http://www.w3.org/2000/svg" xmlns:xlink="http://www.w3.org/1999/xlink">
<defs>
<g id="a">
<path d="m3.2031 3.0156c-0.95312 0.078125-1.8125 0.60938-2.2031 1.5-0.48438 1.1562-0.0625 2.5625 1.0469 3.2031 0.20312 0.10938 0.42188 0.21875 0.65625 0.25 0 0.35938-0.046875 0.73438-0.09375 1.0938-0.0625 0.60938-0.14062 1.4375-0.60938 1.7188-0.3125 0.15625-0.73438 0.0625-0.98438-0.14062 0.125-0.03125 0.23438-0.0625 0.29688-0.17188 0.1875-0.29688-0.03125-0.67188-0.35938-0.65625-0.3125 0-0.4375 0.28125-0.39062 0.54688 0.078125 0.5 0.70312 0.78125 1.3281 0.70312 1.0625-0.20312 1.3438-1.5156 1.4688-2.4219 0.03125-0.20312 0.046875-0.39062 0.078125-0.57812 1-0.078125 1.8594-0.67188 2.2344-1.6094 0.09375-0.23438 0.15625-0.48438 0.15625-0.73438 0.21875 0.1875 0.40625 0.375 0.625 0.5625 0.078125 0.078125 0.17188 0.1875 0.28125 0.09375 0.10938-0.10938-0.015625-0.21875-0.078125-0.29688l-0.60938-0.6875c-0.078125-0.09375-0.17188-0.1875-0.23438-0.28125-0.046875-0.09375-0.046875-0.20312-0.078125-0.29688-0.23438-0.82812-0.95312-1.5625-1.7969-1.7188 0-0.35938 0.046875-0.71875 0.09375-1.0781 0.0625-0.625 0.14062-1.4531 0.625-1.7188 0.28125-0.15625 0.70312-0.0625 0.95312 0.125-0.10938 0.03125-0.21875 0.078125-0.29688 0.1875-0.1875 0.28125 0.03125 0.67188 0.375 0.65625 0.29688-0.015625 0.4375-0.28125 0.39062-0.54688-0.078125-0.40625-0.51562-0.67188-0.9375-0.70312-0.125-0.03125-0.26562-0.03125-0.39062 0-1.0781 0.20312-1.3438 1.5156-1.4688 2.4219-0.03125 0.1875-0.046875 0.39062-0.078125 0.57812zm-0.046875 0.40625c-0.1875 1.3594-0.29688 2.7656-0.42188 4.1562-0.71875-0.23438-1.2812-0.78125-1.4844-1.5156-0.29688-1.2031 0.59375-2.6094 1.9062-2.6406zm0.76562 0.078125c0.5625 0.21875 1.0312 0.53125 1.2969 1.0938 0.0625 0.125 0.10938 0.25 0.15625 0.375 0.015625 0.0625 0.03125 0.10938 0.015625 0.17188-0.046875 0.09375-0.17188 0.1875-0.23438 0.26562l-0.51562 0.59375c-0.078125 0.078125-0.26562 0.23438-0.17188 0.34375 0.10938 0.14062 0.20312 0 0.3125-0.078125 0.21875-0.1875 0.42188-0.42188 0.65625-0.60938-0.046875 0.28125-0.078125 0.53125-0.1875 0.78125-0.3125 0.65625-1.0156 1.1875-1.7656 1.2031 0.21875-1.2031 0.29688-2.4219 0.39062-3.6875 0.015625-0.14062 0-0.3125 0.046875-0.45312z"/>
</g>
</defs>
<g transform="translate(-149.26 -126.73)">
<use x="148.71201" y="126.739" xlink:href="#a"/>
</g>
</svg>
