<?xml version="1.0" encoding="UTF-8"?>
<svg fill="#000000" version="1.1" viewBox="0 0 7.5312 7.5312" xmlns="http://www.w3.org/2000/svg" xmlns:xlink="http://www.w3.org/1999/xlink">
<defs>
<g id="a">
<path d="m6.3125 0.32812c0 0.14062 0.10938 0.23438 0.23438 0.23438 0.0625 0 0.29688-0.03125 0.73438-0.03125 0.85938 0 1.7031 0.15625 2.4062 0.64062 0.046875 0.03125 0.078125 0.046875 0.125 0.046875 0.14062 0 0.23438-0.10938 0.23438-0.23438 0-0.25-0.6875-0.6875-0.6875-2.5312 0-0.45312 0.03125-0.67188 0.03125-0.75 0-0.10938-0.09375-0.21875-0.23438-0.21875-0.23438 0-0.25 0.26562-0.25 0.54688v0.125c0 0.125 0 0.23438 0.015625 0.34375l-2.0312-2.0156 0.75-1.5781c0.03125-0.078125 0-0.17188-0.078125-0.20312s-0.17188 0-0.20312 0.078125l-0.6875 1.4844-1.4531-1.4531h0.35938 0.14062c0.29688 0 0.53125 0 0.53125-0.23438 0-0.14062-0.09375-0.23438-0.23438-0.23438-0.0625 0-0.28125 0.03125-0.73438 0.03125-0.85938 0-1.7031-0.15625-2.4062-0.64062-0.03125-0.03125-0.078125-0.046875-0.125-0.046875-0.14062 0-0.23438 0.10938-0.23438 0.23438 0 0.25 0.6875 0.6875 0.6875 2.5312 0 0.45312-0.03125 0.67188-0.03125 0.75 0 0.10938 0.09375 0.21875 0.23438 0.21875 0.21875 0 0.25-0.23438 0.25-0.5v-0.17188c0-0.125 0-0.23438-0.015625-0.34375l2.0156 2.0156-0.73438 1.5781c-0.03125 0.078125 0 0.17188 0.078125 0.20312s0.15625 0 0.20312-0.078125l0.6875-1.4844 1.4531 1.4531h-0.35938-0.20312c-0.23438 0-0.46875 0.015625-0.46875 0.23438zm1.7031-0.20312-1.9219-1.9219 0.59375-1.2812 2.2656 2.2656c0.015625 0.15625 0.015625 0.3125 0.015625 0.46875s0 0.3125-0.015625 0.46875c-0.15625 0-0.3125 0.015625-0.46875 0.015625s-0.3125-0.015625-0.46875-0.015625zm-2.1406-2.1562-2.2656-2.25c-0.015625-0.15625-0.015625-0.3125-0.015625-0.46875s0-0.3125 0.03125-0.46875c0.14062 0 0.29688-0.015625 0.45312-0.015625s0.3125 0.015625 0.46875 0.015625l1.9219 1.9219z"/>
</g>
</defs>
<g transform="translate(-151.23 -128.45)">
<use x="148.71201" y="134.765" xlink:href="#a"/>
</g>
</svg>
