<?xml version="1.0" encoding="UTF-8"?>
<svg fill="#000000" version="1.1" viewBox="0 0 10.375 10.125" xmlns="http://www.w3.org/2000/svg" xmlns:xlink="http://www.w3.org/1999/xlink">
<defs>
<g id="a">
<path d="m8.3281-4.7188c-0.5 0.70312-0.92188 1.4062-1.375 2.1094-0.3125-0.10938-0.51562-0.29688-0.57812-0.5625-0.03125-0.0625-0.03125-0.14062-0.03125-0.23438 0-0.39062 0.21875-0.90625 0.59375-1.4219 0.65625-0.9375 1.8281-1.2969 2.9844-1.6562 0.14062-0.03125 0.26562-0.078125 0.39062-0.10938-0.79688 0.51562-1.4844 1.1875-1.9844 1.875zm0.53125 0.09375c0.59375-0.84375 1.4688-1.6562 2.4688-2.2812 0.01563-0.015625 0.03125-0.046875 0.03125-0.078125l-0.015625-0.078125c-0.01563 0-0.01563-0.015625-0.01563-0.03125 0-0.03125-0.04687-0.046875-0.07813-0.046875h-0.03125c-1.7812 0.75-3.7187 0.67188-4.8125 2.2031-0.34375 0.5-0.53125 0.98438-0.53125 1.4062 0 0.15625 0.03125 0.3125 0.09375 0.4375 0.125 0.35938 0.4375 0.59375 0.84375 0.70312-0.14062 0.20312-0.26562 0.39062-0.40625 0.59375-0.39062 0.54688-0.76562 1.0625-1.1719 1.6094-0.125 0.015625-0.25 0.046875-0.375 0.078125-1.25 0.28125-2.9531 0.65625-3.5156 1.4375-0.23438 0.34375-0.35938 0.67188-0.35938 0.96875 0 0.0625 0 0.125 0.015625 0.1875 0.09375 0.32812 0.39062 0.5 0.79688 0.5 0.76562 0 1.7188-0.70312 2.5156-1.375 0.65625-0.57812 1.2344-1.1875 1.7656-1.7812 0.98438-0.26562 1.9531-0.60938 2.3281-1.1719 0.015625-0.015625 0.03125-0.03125 0.03125-0.046875 0-0.0625-0.046875-0.078125-0.09375-0.078125h-0.015625c-0.03125 0-0.0625 0-0.078125 0.015625-0.3125 0.4375-1.0781 0.75-1.9375 0.98438 0.34375-0.40625 0.65625-0.8125 0.9375-1.2188 0.15625-0.21875 0.28125-0.42188 0.39062-0.625 0.29688-0.03125 0.64062-0.14062 0.96875-0.32812 0.35938-0.20312 0.71875-0.48438 0.9375-0.79688 0.28125-0.40625 0.35938-0.78125 0.35938-1.1094 0-0.125-0.015625-0.23438-0.03125-0.34375 0-0.046875-0.03125-0.078125-0.078125-0.078125h-0.015625c-0.03125 0-0.0625 0.03125-0.09375 0.03125-0.03125 0.015625-0.046875 0.046875-0.046875 0.09375 0.015625 0.078125 0.015625 0.15625 0.015625 0.23438 0 0.32812-0.09375 0.6875-0.35938 1.0781-0.20312 0.26562-0.48438 0.53125-0.8125 0.71875-0.25 0.14062-0.5 0.23438-0.71875 0.26562 0.34375-0.6875 0.59375-1.375 1.0938-2.0781zm0.82812-0.3125c-0.015625 0.015625-0.03125 0.015625-0.03125 0.015625s0.015625 0 0.03125-0.015625zm-7.8594 7.7031c-0.35938 0-0.57812-0.14062-0.625-0.35938-0.015625-0.046875-0.03125-0.10938-0.03125-0.15625 0-0.21875 0.10938-0.5 0.32812-0.8125 0.48438-0.67188 2.0781-1.0312 3.3906-1.3438l0.14062-0.03125c-0.39062 0.46875-0.78125 0.9375-1.25 1.3906-0.65625 0.65625-1.375 1.3125-1.9531 1.3125z"/>
</g>
</defs>
<g transform="translate(-149.7 -127.62)">
<use x="148.71201" y="134.765" xlink:href="#a"/>
</g>
</svg>
