<?xml version="1.0" encoding="UTF-8"?>
<svg fill="#000000" version="1.1" viewBox="0 0 6.2969 7.5469" xmlns="http://www.w3.org/2000/svg" xmlns:xlink="http://www.w3.org/1999/xlink">
<defs>
<g id="a">
<path d="m6.2656-2.1875v-0.65625h-2.5938v-2.6094h-0.65625v2.6094h-2.6094v0.65625h2.6094v2.5938h0.65625v-2.5938zm0.4375 3.4688-0.15625-0.10938c-0.20312 0.35938-0.35938 0.48438-0.60938 0.48438h-1.3281l1.0156-0.89062c0.5-0.4375 0.76562-0.84375 0.76562-1.2969 0-0.60938-0.42188-1.0469-1.1094-1.0469-0.71875 0-1.1406 0.48438-1.2812 1.1875l0.1875 0.046875c0.25-0.57812 0.5-0.79688 0.9375-0.79688 0.45312 0 0.75 0.32812 0.75 0.76562 0 0.51562-0.15625 0.75-0.76562 1.3281l-1.1094 1.0781v0.0625h2.375z"/>
</g>
</defs>
<g transform="translate(-149.12 -129.31)">
<use x="148.71201" y="134.765" xlink:href="#a"/>
</g>
</svg>
