<?xml version="1.0" encoding="UTF-8"?>
<svg fill="#000000" version="1.1" viewBox="0 0 4.8438 6.4531" xmlns="http://www.w3.org/2000/svg" xmlns:xlink="http://www.w3.org/1999/xlink">
<defs>
<g id="a">
<path d="m0.20312-4.3125v0.3125c0.20312 0 0.45312-0.015625 0.625 0.10938 0.09375 0.078125 0.15625 0.1875 0.20312 0.29688 0.0625 0.14062 0.125 0.29688 0.1875 0.4375 0.25 0.57812 0.5 1.1719 0.76562 1.7656 0.09375 0.23438 0.20312 0.46875 0.3125 0.71875 0.03125 0.0625 0.0625 0.125 0.078125 0.1875 0.015625 0.03125 0.03125 0.078125 0.03125 0.10938 0 0.078125-0.078125 0.15625-0.10938 0.21875-0.10938 0.14062-0.1875 0.28125-0.26562 0.45312-0.0625 0.09375-0.09375 0.1875-0.125 0.29688-0.15625 0.51562-0.078125 1.2656 0.5 1.5 0.09375 0.03125 0.1875 0.046875 0.28125 0.046875 0.14062 0 0.26562-0.015625 0.40625-0.0625 0.10938-0.046875 0.20312-0.10938 0.29688-0.1875 0.078125-0.0625 0.14062-0.14062 0.20312-0.21875 0.32812-0.5 0.23438-1.0781-0.03125-1.5781-0.10938-0.20312-0.25-0.39062-0.375-0.59375-0.046875-0.0625-0.078125-0.125-0.10938-0.17188-0.03125-0.03125-0.0625-0.078125-0.0625-0.10938s0.015625-0.0625 0.03125-0.09375c0.03125-0.046875 0.046875-0.10938 0.078125-0.15625 0.078125-0.21875 0.17188-0.4375 0.28125-0.65625 0.1875-0.45312 0.375-0.89062 0.57812-1.3281 0.078125-0.1875 0.14062-0.39062 0.26562-0.5625 0.1875-0.26562 0.46875-0.42188 0.79688-0.42188v-0.3125l-0.90625 0.03125-0.6875-0.03125v0.3125c0.21875 0.015625 0.4375 0.15625 0.45312 0.40625 0 0.0625-0.015625 0.14062-0.046875 0.20312-0.078125 0.1875-0.15625 0.375-0.23438 0.54688-0.15625 0.375-0.3125 0.73438-0.46875 1.0938l-0.20312 0.4375c-0.015625 0.078125-0.078125 0.15625-0.09375 0.25h-0.015625c-0.015625-0.078125-0.046875-0.15625-0.09375-0.25-0.0625-0.14062-0.125-0.28125-0.17188-0.42188-0.20312-0.42188-0.39062-0.875-0.57812-1.2969-0.0625-0.17188-0.14062-0.32812-0.21875-0.5-0.03125-0.078125-0.078125-0.17188-0.0625-0.25 0.015625-0.09375 0.078125-0.14062 0.15625-0.17188 0.125-0.046875 0.26562-0.046875 0.39062-0.046875v-0.3125l-0.89062 0.03125h-0.8125zm2.3906 4.1406c0.078125 0.10938 0.14062 0.25 0.21875 0.375 0.17188 0.32812 0.35938 0.70312 0.35938 1.0781 0 0.25-0.09375 0.5625-0.375 0.625-0.32812 0.09375-0.60938-0.21875-0.6875-0.5-0.10938-0.39062 0.015625-0.79688 0.20312-1.1406 0.09375-0.14062 0.20312-0.28125 0.28125-0.4375z"/>
</g>
</defs>
<g transform="translate(-148.92 -130.45)">
<use x="148.71201" y="134.765" xlink:href="#a"/>
</g>
</svg>
