<?xml version="1.0" encoding="UTF-8"?>
<svg fill="#000000" version="1.1" viewBox="0 0 1.2656 7.0781" xmlns="http://www.w3.org/2000/svg" xmlns:xlink="http://www.w3.org/1999/xlink">
<defs>
<g id="a">
<path d="m4.0469-5.4375c0-0.35938-0.3125-0.625-0.625-0.625-0.32812 0-0.64062 0.25-0.64062 0.625 0 0.39062 0.26562 0.64062 0.64062 0.64062s0.625-0.29688 0.625-0.64062zm0 2.9062c0-0.375-0.3125-0.625-0.625-0.625-0.32812 0-0.64062 0.25-0.64062 0.625 0 0.39062 0.26562 0.64062 0.64062 0.64062s0.625-0.29688 0.625-0.64062zm0 2.9062c0-0.35938-0.3125-0.625-0.625-0.625-0.32812 0-0.64062 0.25-0.64062 0.625 0 0.39062 0.26562 0.64062 0.64062 0.64062s0.625-0.29688 0.625-0.64062z"/>
</g>
</defs>
<g transform="translate(-151.49 -128.7)">
<use x="148.71201" y="134.765" xlink:href="#a"/>
</g>
</svg>
