<?xml version="1.0" encoding="UTF-8"?>
<svg fill="#000000" version="1.1" viewBox="0 0 5.9219 5.2969" xmlns="http://www.w3.org/2000/svg" xmlns:xlink="http://www.w3.org/1999/xlink">
<defs>
<g id="a">
<path d="m6.875-4.6719c0.21875 0 0.46875 0.03125 0.71875 0.03125 0.125 0 0.23438-0.10938 0.23438-0.23438s-0.10938-0.23438-0.23438-0.23438c-0.23438 0-0.46875-0.015625-0.71875-0.015625-0.35938 0-0.75 0.046875-1.0781 0.3125-0.42188 0.35938-0.51562 0.90625-0.51562 1.5469l-1.9062-0.875c-0.078125-0.046875-0.17188 0-0.20312 0.0625-0.03125 0.078125 0 0.15625 0.078125 0.20312l2.0156 0.9375c-0.0625 1.6875-1.0938 0.98438-2.0938 1.625 0.125-0.40625 0.34375-1.0469 0.34375-1.2188 0-0.125-0.09375-0.23438-0.23438-0.23438-0.10938 0-0.20312 0.078125-0.23438 0.1875-0.32812 1.9531-1.1406 2.0625-1.1406 2.3594 0 0.046875 0.015625 0.078125 0.03125 0.10938 0.0625 0.078125 0.10938 0.10938 0.17188 0.10938 0.15625 0 0.4375-0.15625 0.98438-0.15625 0.78125 0 1.5156 0.32812 1.6094 0.32812 0.125 0 0.23438-0.09375 0.23438-0.23438 0-0.09375-0.046875-0.17188-0.15625-0.21875-0.53125-0.1875-1.125-0.23438-1.6719-0.42188 0.1875-0.15625 0.35938-0.28125 0.57812-0.35938 0.65625-0.25 1.8906 0 2.0312-1.6719l1.6562 0.78125c0.078125 0.046875 0.15625 0 0.20312-0.078125 0.03125-0.078125 0-0.15625-0.078125-0.1875l-1.7656-0.82812v-0.14062c0-0.98438 0.17188-1.4844 1.1406-1.4844z"/>
</g>
</defs>
<g transform="translate(-150.62 -129.64)">
<use x="148.71201" y="134.765" xlink:href="#a"/>
</g>
</svg>
