<?xml version="1.0" encoding="UTF-8"?>
<svg fill="#000000" version="1.1" viewBox="0 0 19.859 12.578" xmlns="http://www.w3.org/2000/svg" xmlns:xlink="http://www.w3.org/1999/xlink">
<defs>
<g id="a">
<path d="m20.375 0.78125c0-0.54688-0.6875-0.78125-1.1406-0.78125-1.9375 0-2.1719 2.9062-2.2656 4.3125-0.10938 1.6875-0.23438 3.3906-0.28125 5.0938-0.03125 0.78125 0.0625 2.8594-1.1406 2.8594-0.10938 0-0.23438-0.03125-0.3125-0.125 0.01563-0.04687 0.03125-0.125 0.03125-0.17188 0-0.3125-0.375-0.60938-0.67188-0.60938-0.23438 0-0.28125 0.25-0.28125 0.42188 0 0.5625 0.6875 0.79688 1.125 0.79688 1.6719 0 1.9688-2.4062 2.1094-3.6406 0.17188-1.5469 0.25-3.1094 0.35938-4.6562 0.0625-0.82812-0.10938-3.9844 1.2188-3.9844 0.10938 0 0.25 0.03125 0.32812 0.125-0.03125 0.0625-0.04687 0.10938-0.04687 0.1875 0 0.29688 0.39062 0.59375 0.6875 0.59375 0.21875 0 0.28125-0.21875 0.28125-0.42188zm-6.0625 5.5c0-0.3125-0.25-0.5625-0.5625-0.5625-0.29688 0-0.54688 0.25-0.54688 0.5625 0 0.375 0.34375 0.53125 0.54688 0.53125 0.21875 0 0.5625-0.15625 0.5625-0.53125zm-3.3125 0c0-0.3125-0.26562-0.5625-0.5625-0.5625s-0.54688 0.25-0.54688 0.5625c0 0.375 0.34375 0.53125 0.54688 0.53125s0.5625-0.15625 0.5625-0.53125zm-3.3281 0c0-0.3125-0.25-0.5625-0.54688-0.5625-0.3125 0-0.5625 0.25-0.5625 0.5625 0 0.375 0.34375 0.53125 0.5625 0.53125 0.20312 0 0.54688-0.15625 0.54688-0.53125zm-1.1094-5.5c0-0.54688-0.6875-0.78125-1.1406-0.78125-1.9375 0-2.1719 2.9062-2.2656 4.3125-0.10938 1.6875-0.21875 3.3906-0.28125 5.0938-0.03125 0.78125 0.078125 2.8594-1.125 2.8594-0.10938 0-0.25-0.03125-0.32812-0.125 0.03125-0.04687 0.046875-0.125 0.046875-0.17188 0-0.3125-0.39062-0.60938-0.6875-0.60938-0.21875 0-0.26562 0.25-0.26562 0.42188 0 0.5625 0.67188 0.79688 1.125 0.79688 1.6562 0 1.9531-2.4062 2.0938-3.6406 0.17188-1.5469 0.25-3.1094 0.35938-4.6562 0.0625-0.82812-0.09375-3.9844 1.2344-3.9844 0.10938 0 0.23438 0.03125 0.3125 0.125-0.03125 0.0625-0.03125 0.10938-0.03125 0.1875 0 0.29688 0.375 0.59375 0.67188 0.59375 0.23438 0 0.28125-0.21875 0.28125-0.42188z"/>
</g>
</defs>
<g transform="translate(-149.23 -125.92)">
<use x="148.71201" y="125.923" xlink:href="#a"/>
</g>
</svg>
