<?xml version="1.0" encoding="UTF-8"?>
<svg fill="#000000" version="1.1" viewBox="0 0 4.3438 5.0781" xmlns="http://www.w3.org/2000/svg" xmlns:xlink="http://www.w3.org/1999/xlink">
<defs>
<g id="a">
<path d="m1.9062-2.4375c-0.046875 0.03125-0.10938 0.03125-0.15625 0.03125-0.25 0-0.32812-0.60938-0.32812-0.9375 0-0.23438 0-0.60938 0.20312-0.79688 0.26562 0.25 0.79688 0.48438 1.5156 0.51562l0.92188-0.76562-0.0625-0.17188c-0.26562 0.17188-0.48438 0.3125-0.71875 0.3125-0.09375 0-0.1875-0.03125-0.26562-0.0625l-0.79688-0.46875-1.5156 1.0156c-0.0625 0.45312-0.0625 0.9375-0.0625 1.4219 0.10938 0.21875 0.28125 0.48438 0.42188 0.67188l1.0156-0.57812c0.125-0.078125 0.21875-0.10938 0.35938-0.10938 0.25 0 0.51562 0.20312 0.51562 0.96875 0 0.3125-0.03125 1.0469-0.26562 1.0469h-0.03125l-0.8125-0.54688c-0.21875-0.14062-0.46875-0.21875-0.71875-0.21875-0.60938 0-1.0625 0.625-1.4062 0.98438l0.09375 0.09375c0.3125-0.28125 0.59375-0.4375 0.89062-0.4375 0.40625 0 0.9375 0.4375 1.2656 0.76562 0.51562-0.3125 1.0625-0.5625 1.5938-0.79688 0.125-0.4375 0.17188-0.89062 0.17188-1.3438 0-0.25-0.015625-0.51562-0.03125-0.76562-0.17188-0.15625-0.34375-0.3125-0.5625-0.375z"/>
</g>
</defs>
<g transform="translate(-148.43 -129.98)">
<use x="148.71201" y="134.765" xlink:href="#a"/>
</g>
</svg>
