<?xml version="1.0" encoding="UTF-8"?>
<svg fill="#000000" width="3.5938" height="8.8438" version="1.1" viewBox="0 0 3.5938 8.8437" xmlns="http://www.w3.org/2000/svg" xmlns:xlink="http://www.w3.org/1999/xlink">
<defs>
<g id="a">
<path d="m2.2656 1.8281 0.17188 0.14062c0.60938-0.46875 1.1875-1 1.625-1.6562 0.25-0.84375 0.28125-1.8438 0.28125-2.7656 0-0.5625-0.03125-1.1406-0.078125-1.7031-0.42188-0.125-0.82812-0.3125-1.1562-0.60938-0.5 0.34375-1.1406 0.8125-1.4688 1.0625v-1.0938c0-0.54688 0.0625-1.1875 0.90625-1.9688l-0.17188-0.10938c-0.015625 0-0.8125 0.57812-1.2031 0.89062l-0.25-0.76562-0.10938 0.015625c0.046875 0.8125 0.0625 1.625 0.0625 2.4375 0 1.2188-0.046875 2.4375-0.125 3.6562l0.5625 0.90625 0.8125-0.75-0.54688-0.76562 0.0625-2.1562c0.25-0.1875 0.625-0.48438 0.9375-0.48438 0.32812 0 0.60938 0.17188 0.875 0.35938 0.03125 0.54688 0.09375 1.3281 0.09375 1.6094 0 1.0312 0.046875 2.7188-0.64062 3.2031z"/>
</g>
</defs>
<g transform="translate(-149.46 -127.89)">
<use x="148.71201" y="134.765" xlink:href="#a"/>
</g>
</svg>
