<?xml version="1.0" encoding="UTF-8"?>
<svg fill="#000000" version="1.1" viewBox="0 0 3.8565 9.0788" xmlns="http://www.w3.org/2000/svg" xmlns:xlink="http://www.w3.org/1999/xlink">
<defs>
<g id="a">
<path d="m0.26562 1.6875c0.15625-0.046875 0.29688-0.10938 0.35938-0.28125 0.015625-0.046875 0.015625-0.10938 0.015625-0.17188 0-0.3125-0.29688-0.53125-0.59375-0.4375-0.046875 0.015625-0.09375 0.03125-0.125 0.0625-0.29688 0.1875-0.21875 0.60938-0.015625 0.82812 0.29688 0.34375 0.85938 0.4375 1.2656 0.26562 0.25-0.10938 0.45312-0.3125 0.59375-0.53125 0.125-0.23438 0.20312-0.5 0.23438-0.78125v-0.42188-5.0938c0-0.46875-0.046875-0.96875 0.078125-1.4219 0.046875-0.20312 0.14062-0.4375 0.35938-0.5 0.20312-0.0625 0.39062 0.03125 0.57812 0.0625-0.14062 0.0625-0.25 0.125-0.3125 0.26562-0.078125 0.17188-0.046875 0.39062 0.09375 0.53125 0.14062 0.125 0.35938 0.15625 0.51562 0.078125 0.046875-0.015625 0.09375-0.046875 0.125-0.078125 0.26562-0.23438 0.125-0.64062-0.09375-0.84375-0.29688-0.26562-0.79688-0.32812-1.1719-0.1875-0.23438 0.09375-0.4375 0.26562-0.57812 0.48438s-0.23438 0.46875-0.26562 0.71875c-0.015625 0.1875 0 0.375 0 0.5625v5.2031c0 0.45312 0.03125 0.90625-0.09375 1.3281-0.0625 0.23438-0.1875 0.45312-0.42188 0.46875-0.078125 0.03125-0.15625 0.015625-0.21875 0-0.10938-0.015625-0.21875-0.046875-0.32812-0.10938z"/>
</g>
</defs>
<g transform="translate(-148.88 -127.72)">
<use x="149.155" y="134.765" xlink:href="#a"/>
</g>
<path d="m0.10744 5.7533h3.6523" fill="none" stroke="#000" stroke-miterlimit="10" stroke-width=".305"/>
<path d="m0.10744 3.8236h3.6523" fill="none" stroke="#000" stroke-miterlimit="10" stroke-width=".305"/>
</svg>
