<?xml version="1.0" encoding="UTF-8"?>
<svg fill="#000000" version="1.1" viewBox="0 0 4.2734 5.7552" xmlns="http://www.w3.org/2000/svg" xmlns:xlink="http://www.w3.org/1999/xlink">
<defs>
<g id="a">
<path d="m0.53125-4.3125-0.10938 1.6094h0.25c0.015625-0.34375 0.03125-0.75 0.25-1.0312 0.17188-0.23438 0.45312-0.29688 0.71875-0.32812 0.21875-0.03125 0.4375-0.03125 0.65625-0.03125h0.85938c-0.25 0.29688-0.45312 0.60938-0.6875 0.90625-0.51562 0.70312-1.0312 1.4062-1.5625 2.1094-0.17188 0.23438-0.34375 0.46875-0.51562 0.70312-0.0625 0.078125-0.15625 0.20312-0.09375 0.3125 0.03125 0.046875 0.078125 0.046875 0.125 0.046875h0.25 1.0781l-0.46875 0.85938-0.1875 0.35938-0.10938 0.23438c0.078125 0 0.17188 0.015625 0.23438-0.015625 0.03125-0.015625 0.0625-0.078125 0.078125-0.10938l0.14062-0.28125c0.125-0.25 0.25-0.48438 0.39062-0.71875 0.03125-0.0625 0.078125-0.14062 0.10938-0.1875s0.046875-0.078125 0.09375-0.10938c0.046875-0.046875 0.14062-0.03125 0.21875-0.03125h0.54688c0.48438 0 1.0312 0.0625 1.4531-0.25 0.078125-0.0625 0.14062-0.14062 0.20312-0.21875 0.25-0.40625-0.015625-0.9375-0.45312-1.0938s-0.95312 0.10938-1.2812 0.39062c-0.078125 0.0625-0.14062 0.125-0.20312 0.1875-0.078125 0.078125-0.15625 0.15625-0.21875 0.23438-0.078125 0.09375-0.15625 0.20312-0.25 0.3125-0.03125 0.046875-0.078125 0.125-0.125 0.15625-0.0625 0.046875-0.17188 0.03125-0.23438 0.03125h-0.5625c0.32812-0.40625 0.625-0.84375 0.9375-1.2656 0.4375-0.57812 0.85938-1.1562 1.2812-1.7344 0.17188-0.21875 0.35938-0.46875 0.53125-0.6875 0.046875-0.078125 0.15625-0.1875 0.09375-0.29688-0.046875-0.078125-0.15625-0.0625-0.23438-0.0625zm1.6562 4.0469c0.09375-0.14062 0.1875-0.26562 0.29688-0.375 0.28125-0.34375 0.64062-0.64062 1.0781-0.73438 0.14062-0.046875 0.3125-0.015625 0.4375 0.046875 0.21875 0.125 0.375 0.4375 0.25 0.67188-0.09375 0.20312-0.32812 0.29688-0.54688 0.34375s-0.45312 0.046875-0.6875 0.046875z"/>
</g>
</defs>
<g transform="translate(-148.99 -130.45)">
<use x="148.71201" y="134.765" xlink:href="#a"/>
</g>
</svg>
