<?xml version="1.0" encoding="UTF-8"?>
<svg fill="#000000" version="1.1" viewBox="0 0 3.3293 6.3465" xmlns="http://www.w3.org/2000/svg" xmlns:xlink="http://www.w3.org/1999/xlink">
<defs>
<g id="a">
<path d="m0.46875-4.3125v0.3125c0.20312 0 0.40625 0 0.60938 0.015625 0.09375 0.015625 0.20312 0.03125 0.28125 0.10938 0.078125 0.09375 0.078125 0.21875 0.078125 0.32812v3.1094h-0.70312c-0.078125 0-0.20312-0.015625-0.25 0.046875-0.046875 0.078125-0.03125 0.23438 0.078125 0.26562h0.29688 0.57812v0.35938c0 0.375 0 0.76562-0.14062 1.125-0.078125 0.20312-0.23438 0.39062-0.45312 0.4375-0.10938 0.03125-0.20312 0.015625-0.29688 0-0.125-0.015625-0.28125-0.046875-0.375-0.125 0.046875 0 0.09375-0.015625 0.14062-0.046875 0.32812-0.20312 0.25-0.75-0.14062-0.84375h-0.1875c-0.046875 0-0.10938 0.03125-0.15625 0.046875-0.34375 0.1875-0.25 0.67188-0.015625 0.89062 0.14062 0.15625 0.35938 0.23438 0.5625 0.28125 0.46875 0.09375 0.95312 0 1.2969-0.35938 0.10938-0.10938 0.1875-0.25 0.26562-0.375 0.21875-0.4375 0.17188-0.92188 0.17188-1.3906h0.48438c0.078125 0 0.17188 0 0.25-0.015625 0.09375-0.015625 0.10938-0.17188 0.0625-0.26562-0.0625-0.046875-0.15625-0.03125-0.21875-0.03125h-0.57812v-3.125c0-0.10938-0.015625-0.21875 0.0625-0.3125 0.046875-0.078125 0.14062-0.09375 0.23438-0.10938 0.15625-0.015625 0.3125-0.015625 0.46875-0.015625v-0.3125l-0.42188 0.03125h-0.98438z"/>
</g>
</defs>
<g transform="translate(-148.31 -130.45)">
<use x="148.71201" y="134.765" xlink:href="#a"/>
</g>
</svg>
