<?xml version="1.0" encoding="UTF-8"?>
<svg fill="#000000" width="2.9219" height="4.9688" version="1.1" viewBox="0 0 2.9219 4.9687" xmlns="http://www.w3.org/2000/svg" xmlns:xlink="http://www.w3.org/1999/xlink">
<defs>
<g id="a">
<path d="m0.84375-3.6562c-0.09375 0.59375-0.14062 1.1875-0.14062 1.7812 0 0.34375 0 0.6875 0.046875 1.0312 0.34375 0.42188 0.73438 0.78125 1.1406 1.1562 0.57812-0.35938 1.1406-0.76562 1.6719-1.1875l-0.046875-0.15625-0.73438 0.39062c-0.046875 0.015625-0.1875 0.015625-0.23438 0.03125-0.39062-0.17188-0.96875-0.64062-0.98438-0.78125-0.03125-0.078125-0.0625-0.17188-0.0625-0.26562 0.57812-0.45312 1.4375-1.25 2.125-1.9062-0.4375-0.3125-0.84375-0.67188-1.1719-1.0938zm0.625 1.7344c0-0.875 0.03125-2.0312 0.26562-2.0312h0.015625c0.32812 0.3125 0.70312 0.60938 1.0781 0.84375-0.375 0.40625-0.89062 0.84375-1.3594 1.1875z"/>
</g>
</defs>
<g transform="translate(-149.42 -130.11)">
<use x="148.71201" y="134.765" xlink:href="#a"/>
</g>
</svg>
