<?xml version="1.0" encoding="UTF-8"?>
<svg fill="#000000" version="1.1" viewBox="0 0 6.6406 7.1406" xmlns="http://www.w3.org/2000/svg" xmlns:xlink="http://www.w3.org/1999/xlink">
<defs>
<g id="a">
<path d="m6.2344-6.0938 0.046875-0.0625c0.015625 0 0.015625-0.03125 0.015625-0.046875 0-0.03125-0.03125-0.078125-0.09375-0.078125-0.15625 0-0.35938 0.078125-0.54688 0.1875-0.20312 0.125-0.375 0.29688-0.5 0.46875-0.15625 0.21875-0.25 0.45312-0.25 0.65625 0 0.046875 0.015625 0.10938 0.03125 0.17188 0.078125 0.25 0.32812 0.375 0.64062 0.375 0.1875 0 0.40625-0.09375 0.625-0.23438 0.23438-0.14062 0.42188-0.34375 0.5625-0.53125 0.21875-0.3125 0.32812-0.60938 0.32812-0.89062 0-0.15625-0.046875-0.29688-0.125-0.4375-0.23438-0.375-0.71875-0.54688-1.3125-0.54688-0.40625 0-0.875 0.15625-1.3594 0.42188-0.45312 0.26562-0.875 0.625-1.1562 1.0156-0.29688 0.40625-0.42188 0.79688-0.42188 1.1406 0 0.14062 0.015625 0.26562 0.0625 0.39062 0.015625 0.046875 0.046875 0.10938 0.09375 0.15625-0.21875 0.0625-0.4375 0.15625-0.65625 0.25-0.5 0.23438-0.96875 0.59375-1.2656 0.98438-0.34375 0.48438-0.5 0.96875-0.5 1.375 0 0.21875 0.03125 0.40625 0.125 0.59375 0.29688 0.5625 0.96875 0.8125 1.7969 0.8125 0.42188 0 0.92188-0.125 1.4219-0.375 0.4375-0.21875 0.85938-0.54688 1.125-0.90625 0.15625-0.25 0.23438-0.46875 0.23438-0.65625 0-0.17188-0.046875-0.32812-0.15625-0.45312-0.25-0.32812-0.73438-0.45312-1.2656-0.45312-0.67188 0-1.4219 0.92188-1.5156 1.7031v0.046875c0.015625 0.03125 0.03125 0.046875 0.0625 0.046875h0.046875l0.0625-0.03125c0.03125 0 0.046875-0.03125 0.046875-0.0625 0.10938-0.71875 0.73438-1.4844 1.25-1.4844 0.45312 0 0.78125 0.10938 0.92188 0.35938 0.03125 0.046875 0.046875 0.14062 0.046875 0.21875 0 0.17188-0.078125 0.40625-0.26562 0.65625-0.21875 0.3125-0.51562 0.625-0.875 0.84375-0.39062 0.23438-0.78125 0.32812-1.0938 0.32812-0.70312 0-1.2031-0.23438-1.3438-0.70312-0.03125-0.078125-0.046875-0.17188-0.046875-0.26562 0-0.42188 0.23438-0.9375 0.625-1.5 0.23438-0.32812 0.54688-0.65625 0.9375-0.90625 0.15625-0.078125 0.3125-0.15625 0.46875-0.21875 0.25 0.20312 0.59375 0.28125 1 0.28125 0.078125 0 0.20312-0.015625 0.29688-0.046875 0.0625-0.015625 0.15625-0.0625 0.20312-0.15625 0.046875-0.046875 0.046875-0.09375 0.046875-0.125 0-0.10938-0.10938-0.17188-0.17188-0.20312-0.17188-0.078125-0.39062-0.10938-0.59375-0.10938-0.17188 0-0.32812 0.015625-0.51562 0.046875-0.015625-0.046875-0.03125-0.078125-0.03125-0.125-0.015625-0.046875-0.015625-0.078125-0.015625-0.10938 0-0.34375 0.23438-0.78125 0.5625-1.25 0.21875-0.32812 0.45312-0.625 0.79688-0.875 0.32812-0.21875 0.65625-0.32812 0.90625-0.32812 0.54688 0 0.96875 0.10938 1.1562 0.40625 0.0625 0.09375 0.078125 0.20312 0.078125 0.32812 0 0.20312-0.078125 0.45312-0.26562 0.71875-0.10938 0.17188-0.26562 0.32812-0.45312 0.45312-0.15625 0.125-0.32812 0.1875-0.45312 0.1875-0.29688 0-0.45312-0.125-0.45312-0.32812 0-0.14062 0.09375-0.34375 0.25-0.5625 0.09375-0.14062 0.21875-0.28125 0.375-0.375 0.14062-0.10938 0.29688-0.15625 0.39062-0.15625 0.03125 0 0.0625-0.015625 0.0625-0.03125zm-2.4375 2.2188c0.1875 0 0.35938 0.015625 0.48438 0.0625 0.046875 0.03125 0.0625 0.03125 0.0625 0.046875l-0.015625 0.015625s-0.046875 0.046875-0.078125 0.0625c-0.046875 0.015625-0.10938 0.015625-0.15625 0.015625-0.26562 0-0.46875-0.0625-0.60938-0.17188 0.10938-0.015625 0.21875-0.03125 0.3125-0.03125z"/>
</g>
</defs>
<g transform="translate(-149.17 -127.7)">
<use x="148.71201" y="134.765" xlink:href="#a"/>
</g>
</svg>
