<?xml version="1.0" encoding="UTF-8"?>
<svg fill="#000000" version="1.1" viewBox="0 0 4.7969 8.1406" xmlns="http://www.w3.org/2000/svg" xmlns:xlink="http://www.w3.org/1999/xlink">
<defs>
<g id="a">
<path d="m4.0938-6.8125-0.73438 2.7031c-0.67188 0.26562-1.4062 0.40625-2.1406 0.40625h-0.32812v0.64062h0.5c0.54688 0.015625 1.0938 0.10938 1.6094 0.28125l-0.57812 2.1562h-1.5312v0.64062h1.3594l-0.3125 1.1562 0.5625 0.15625 0.34375-1.3125h2.8438v-0.64062h-2.6719l0.51562-1.9375c0.64062 0.29688 1.2188 0.6875 1.6875 1.2031l0.46875-0.4375c-0.5625-0.59375-1.2344-1.0781-1.9844-1.3906l0.125-0.4375c0.6875-0.32812 1.3281-0.76562 1.8594-1.3438l-0.46875-0.4375c-0.34375 0.375-0.75 0.6875-1.1719 0.9375l0.59375-2.1875z"/>
</g>
</defs>
<g transform="translate(-149.6 -127.95)">
<use x="148.71201" y="134.765" xlink:href="#a"/>
</g>
</svg>
