<?xml version="1.0" encoding="UTF-8"?>
<svg fill="#000000" version="1.1" viewBox="0 0 6.1094 8.0312" xmlns="http://www.w3.org/2000/svg" xmlns:xlink="http://www.w3.org/1999/xlink">
<defs>
<g id="a">
<path d="m3.8906-7.4844v0.45312c-0.21875 0.015625-0.42188 0.03125-0.625 0.078125-1.625 0.39062-2.7188 1.9062-2.7188 3.5469 0 1.5625 1 3.1094 2.75 3.5312 0.1875 0.046875 0.39062 0.046875 0.59375 0.078125v0.34375h0.3125v-0.23438c0-0.14062 0.21875-0.14062 0.35938-0.15625 1.1562-0.21875 1.9844-1.2344 2.0781-2.4219 0-0.03125 0.015625-0.046875 0.015625-0.078125 0-0.078125-0.03125-0.17188-0.14062-0.17188-0.17188 0-0.125 0.1875-0.14062 0.29688-0.078125 1.1406-1.0469 2.1094-2.1719 2.125v-6.6406c1.1875 0.03125 1.9531 1.2031 2.0938 2.2656 0.03125 0.125-0.015625 0.28125 0.20312 0.28125 0.09375 0 0.14062-0.046875 0.14062-0.125v-2.5625c0-0.078125-0.015625-0.15625-0.10938-0.15625-0.125 0-0.34375 0.375-0.46875 0.57812-0.078125 0.078125-0.14062 0.17188-0.1875 0.26562-0.5-0.40625-0.76562-0.6875-1.5781-0.84375-0.0625 0-0.09375-0.03125-0.09375-0.09375v-0.35938zm0 0.78125v6.5781c-0.82812-0.046875-1.5938-0.65625-1.9375-1.375-0.3125-0.60938-0.375-1.3125-0.375-1.9844 0-1.2969 0.46875-2.625 1.7344-3.0781 0.17188-0.078125 0.375-0.14062 0.57812-0.14062z"/>
</g>
</defs>
<g transform="translate(-149.26 -127.28)">
<use x="148.71201" y="134.765" xlink:href="#a"/>
</g>
</svg>
