<?xml version="1.0" encoding="UTF-8"?>
<svg fill="#000000" version="1.1" viewBox="0 0 6.0938 13.359" xmlns="http://www.w3.org/2000/svg" xmlns:xlink="http://www.w3.org/1999/xlink">
<defs>
<g id="a">
<path d="m5.4375-6.4844 1.2656-0.60938c0.15625-0.078125 0.21875-0.09375 0.21875-0.21875 0-0.10938-0.09375-0.1875-0.20312-0.1875-0.046875 0-0.0625 0-1.0938 0.48438l0.60938-1.75c0.015625-0.0625 0.046875-0.14062 0.046875-0.20312 0-0.10938-0.078125-0.20312-0.20312-0.20312-0.14062 0-0.17188 0.10938-0.21875 0.23438l-0.73438 2.1562-4.0938 1.9219c-0.125 0.0625-0.20312 0.125-0.20312 0.23438 0 0.125 0.09375 0.17188 0.20312 0.23438l2.8281 1.3125-0.84375 2.4844h-1.8438c-0.17188 0-0.34375 0-0.34375 0.1875 0 0.20312 0.20312 0.20312 0.375 0.20312h1.6719l-0.51562 1.5312h-1.1875c-0.17188 0-0.34375 0-0.34375 0.20312s0.20312 0.20312 0.375 0.20312h1.0156l-0.70312 2.0469c-0.015625 0.0625-0.046875 0.14062-0.046875 0.20312 0 0.10938 0.078125 0.20312 0.20312 0.20312s0.17188-0.10938 0.21875-0.23438l0.75-2.2188h3.9062c0.17188 0 0.375 0 0.375-0.20312s-0.17188-0.20312-0.35938-0.20312h-3.7812l0.51562-1.5312h3.25c0.17188 0 0.375 0 0.375-0.20312 0-0.1875-0.17188-0.1875-0.35938-0.1875h-3.125l0.78125-2.3125c0.09375 0.0625 0.10938 0.0625 1.3125 0.625l0.625 0.29688c0.1875 0.09375 0.51562 0.25 0.5625 0.25 0.10938 0 0.20312-0.09375 0.20312-0.20312 0-0.09375-0.0625-0.14062-0.078125-0.15625s-0.03125-0.015625-1.2344-0.59375l-1.2656-0.57812zm-3.9375 1.8594 3.4375-1.625-0.95312 2.7969z"/>
</g>
</defs>
<g transform="translate(-149.54 -125.59)">
<use x="148.71201" y="134.765" xlink:href="#a"/>
</g>
</svg>
