<?xml version="1.0" encoding="UTF-8"?>
<svg fill="#000000" version="1.1" viewBox="0 0 4.5 7.25" xmlns="http://www.w3.org/2000/svg" xmlns:xlink="http://www.w3.org/1999/xlink">
<defs>
<g id="b">
<path d="m4.6875-6.2656c0-0.46875-0.40625-0.875-0.95312-0.875-0.5625 0-0.95312 0.4375-0.95312 0.875 0 0.5 0.4375 0.875 0.95312 0.875 0.54688 0 0.95312-0.40625 0.95312-0.875zm-0.95312 0.65625c-0.42188 0-0.70312-0.1875-0.70312-0.65625 0-0.45312 0.26562-0.65625 0.70312-0.65625 0.42188 0 0.70312 0.1875 0.70312 0.65625 0 0.45312-0.26562 0.65625-0.70312 0.65625z"/>
</g>
<g id="a">
<path d="m3.3125-0.75c0.046875 0.39062 0.3125 0.8125 0.78125 0.8125 0.21875 0 0.82812-0.14062 0.82812-0.95312v-0.5625h-0.25v0.5625c0 0.57812-0.25 0.64062-0.35938 0.64062-0.32812 0-0.375-0.45312-0.375-0.5v-1.9844c0-0.42188 0-0.8125-0.35938-1.1875-0.39062-0.39062-0.89062-0.54688-1.3594-0.54688-0.82812 0-1.5156 0.46875-1.5156 1.125 0 0.29688 0.20312 0.46875 0.46875 0.46875 0.28125 0 0.45312-0.20312 0.45312-0.45312 0-0.125-0.046875-0.45312-0.51562-0.45312 0.28125-0.35938 0.76562-0.46875 1.0781-0.46875 0.5 0 1.0625 0.39062 1.0625 1.2812v0.35938c-0.51562 0.03125-1.2031 0.0625-1.8281 0.35938-0.75 0.34375-1 0.85938-1 1.2969 0 0.8125 0.96875 1.0625 1.5938 1.0625 0.65625 0 1.1094-0.40625 1.2969-0.85938zm-0.0625-1.6406v1c0 0.9375-0.71875 1.2812-1.1719 1.2812-0.48438 0-0.89062-0.34375-0.89062-0.84375 0-0.54688 0.42188-1.375 2.0625-1.4375z"/>
</g>
</defs>
<g transform="translate(-149.13 -127.62)">
<use x="147.467" y="134.765" xlink:href="#b"/>
<use x="148.71233" y="134.765" xlink:href="#a"/>
</g>
</svg>
