<?xml version="1.0" encoding="UTF-8"?>
<svg fill="#000000" width="6.2344" height="6.2188" version="1.1" viewBox="0 0 6.2344 6.2187" xmlns="http://www.w3.org/2000/svg" xmlns:xlink="http://www.w3.org/1999/xlink">
<defs>
<g id="a">
<path d="m2.7344-1.5781v-3.8594c0-0.125-0.09375-0.21875-0.21875-0.21875-0.14062 0-0.23438 0.09375-0.23438 0.21875v4.0938c0 0.125 0.09375 0.23438 0.23438 0.23438h2.4062c0.125 0 0.21875-0.10938 0.21875-0.23438v-4.0938c0-0.125-0.09375-0.21875-0.21875-0.21875s-0.23438 0.09375-0.23438 0.21875v3.8594zm-1.6719 1.6875v-5.5469c0-0.125-0.10938-0.21875-0.23438-0.21875s-0.23438 0.09375-0.23438 0.21875v5.7812c0 0.125 0.10938 0.21875 0.23438 0.21875h5.7656c0.14062 0 0.23438-0.09375 0.23438-0.21875v-5.7812c0-0.125-0.09375-0.21875-0.23438-0.21875-0.10938 0-0.21875 0.09375-0.21875 0.21875v5.5469z"/>
</g>
</defs>
<g transform="translate(-149.31 -129.11)">
<use x="148.71201" y="134.765" xlink:href="#a"/>
</g>
</svg>
