<?xml version="1.0" encoding="UTF-8"?>
<svg fill="#000000" version="1.1" viewBox="0 0 4.4219 4.9844" xmlns="http://www.w3.org/2000/svg" xmlns:xlink="http://www.w3.org/1999/xlink">
<defs>
<g id="a">
<path d="m2.5625-5.0625v2.4844l-1.9531 1.9531c-0.046875 0.046875-0.0625 0.10938-0.0625 0.15625s0.015625 0.09375 0.0625 0.14062c0.03125 0.03125 0.09375 0.046875 0.14062 0.046875s0.10938-0.015625 0.14062-0.046875l1.875-1.8906 1.8594 1.8906c0.046875 0.03125 0.09375 0.046875 0.14062 0.046875s0.09375-0.015625 0.14062-0.046875c0.03125-0.046875 0.0625-0.09375 0.0625-0.14062s-0.03125-0.10938-0.0625-0.15625l-1.9531-1.9531v-2.4844c0-0.10938-0.078125-0.20312-0.1875-0.20312s-0.20312 0.09375-0.20312 0.20312z"/>
</g>
</defs>
<g transform="translate(-149.26 -129.5)">
<use x="148.71201" y="134.765" xlink:href="#a"/>
</g>
</svg>
