<?xml version="1.0" encoding="UTF-8"?>
<svg fill="#000000" version="1.1" viewBox="0 0 5.8906 5.9844" xmlns="http://www.w3.org/2000/svg" xmlns:xlink="http://www.w3.org/1999/xlink">
<defs>
<g id="a">
<path d="m3.7812-3.0469c0.3125 1.5 0.82812 2.4375 1.7031 2.9531 0.5 0.26562 1.0156 0.3125 1.0312 0.3125 0.17188 0 0.21875-0.125 0.21875-0.20312 0-0.09375-0.078125-0.17188-0.17188-0.1875-0.48438-0.078125-1.5312-0.23438-2.1406-2.0156-0.35938-1.0625-0.42188-2.3438-0.4375-3.3281 0-0.046875 0-0.25-0.20312-0.25-0.078125 0-0.125 0.046875-0.14062 0.078125s-0.046875 0.0625-0.046875 0.078125v0.35938c-0.015625 0.90625-0.14062 2.125-0.40625 2.9688-0.46875 1.4688-1.2188 1.9688-2.125 2.0938-0.0625 0.015625-0.21875 0.03125-0.21875 0.20312 0 0.078125 0.03125 0.20312 0.20312 0.20312 0.015625 0 1.0469-0.015625 1.7969-0.96875 0.5-0.60938 0.78125-1.4688 0.9375-2.2969z"/>
</g>
</defs>
<g transform="translate(-149.56 -129)">
<use x="148.71201" y="134.765" xlink:href="#a"/>
</g>
</svg>
