<?xml version="1.0" encoding="UTF-8"?>
<svg fill="#000000" version="1.1" viewBox="0 0 7.9062 8" xmlns="http://www.w3.org/2000/svg" xmlns:xlink="http://www.w3.org/1999/xlink">
<defs>
<g id="a">
<path d="m6.125-6.8125c-0.95312 0-1.7812 0.46875-2.2344 0.79688-1.0938 0.76562-1.2031 1.6094-1.2031 1.625 0 0.078125 0.046875 0.078125 0.09375 0.078125 0.23438 0 0.67188-0.28125 0.73438-0.46875 0.32812-1.0469 1.0469-1.4844 2.0312-1.4844h1.3281c-1.1094 0.875-1.5625 2.3906-2.2188 4.9844-0.23438 0.92188-0.84375 1.9219-1.8594 1.9219-0.76562 0-1.4844-0.51562-1.4844-1.3906 0-0.20312 0.046875-0.35938 0.046875-0.40625 0-0.03125 0-0.09375-0.09375-0.09375-0.0625 0-0.28125 0.046875-0.5625 0.26562-0.125 0.09375-0.23438 0.1875-0.23438 0.65625 0 0.92188 0.70312 1.5156 1.6719 1.5156 0.84375 0 1.6562-0.48438 2.1406-0.89062 0.92188-0.79688 1.1094-1.5156 1.2812-2.2344 0.375-1.4375 0.84375-3.25 1.5938-4.0938 0.15625-0.17188 0.20312-0.20312 0.4375-0.23438 0.4375-0.03125 0.78125-0.35938 0.78125-0.46875 0-0.0625-0.015625-0.078125-0.23438-0.078125z"/>
</g>
</defs>
<g transform="translate(-149.18 -127.95)">
<use x="148.71201" y="134.765" xlink:href="#a"/>
</g>
</svg>
