<?xml version="1.0" encoding="UTF-8"?>
<svg fill="#000000" version="1.1" viewBox="0 0 6.3685 8.3063" xmlns="http://www.w3.org/2000/svg" xmlns:xlink="http://www.w3.org/1999/xlink">
<defs>
<g id="a">
<path d="m5.2344-2.3594 0.375-0.60938c0.046875-0.078125 0.10938-0.1875 0.015625-0.23438-0.03125-0.03125-0.078125-0.03125-0.10938-0.03125-0.0625 0-0.15625-0.015625-0.21875 0.03125s-0.10938 0.125-0.14062 0.20312l-0.26562 0.42188c-0.046875 0.078125-0.10938 0.21875-0.20312 0.23438s-0.21875 0-0.3125 0h-3.2344c-0.078125 0-0.20312-0.03125-0.26562 0.03125-0.046875 0.03125-0.046875 0.09375-0.046875 0.14062 0 0.09375-0.015625 0.20312 0.10938 0.23438h0.23438 3.3281c-0.1875 0.28125-0.35938 0.57812-0.54688 0.85938-0.03125 0.078125-0.078125 0.14062-0.125 0.20312-0.015625 0.046875-0.046875 0.09375-0.09375 0.09375-0.0625 0.03125-0.14062 0.015625-0.21875 0.015625h-2.4375c-0.078125 0-0.15625-0.015625-0.20312 0.03125-0.046875 0.03125-0.046875 0.09375-0.046875 0.14062 0 0.0625-0.015625 0.14062 0.03125 0.1875 0.03125 0.03125 0.09375 0.03125 0.14062 0.03125h0.3125 2.2031c-0.1875 0.28125-0.34375 0.54688-0.51562 0.82812l-0.14062 0.23438c-0.03125 0.046875-0.046875 0.078125-0.09375 0.09375-0.03125 0.03125-0.078125 0.03125-0.14062 0.03125h-1.5781c-0.046875 0-0.09375-0.015625-0.15625 0-0.046875 0.03125-0.0625 0.10938-0.0625 0.17188 0 0.078125-0.015625 0.20312 0.10938 0.21875 0.0625 0.015625 0.125 0 0.1875 0h1.4062c-0.125 0.21875-0.26562 0.42188-0.39062 0.625-0.03125 0.078125-0.10938 0.1875 0 0.25 0.015625 0.015625 0.046875 0.015625 0.078125 0.015625 0.078125 0 0.1875 0.015625 0.25-0.03125 0.046875-0.046875 0.09375-0.125 0.14062-0.20312l0.26562-0.42188c0.03125-0.078125 0.09375-0.21875 0.1875-0.23438h0.3125 3.2344c0.078125 0 0.20312 0.03125 0.28125-0.03125 0.03125-0.03125 0.03125-0.078125 0.03125-0.14062 0-0.078125 0.015625-0.20312-0.10938-0.21875-0.078125-0.015625-0.15625 0-0.23438 0h-3.3125c0.17188-0.29688 0.35938-0.57812 0.53125-0.875 0.046875-0.0625 0.09375-0.14062 0.125-0.20312 0.03125-0.046875 0.0625-0.078125 0.09375-0.09375 0.078125-0.015625 0.15625-0.015625 0.21875-0.015625h2.4375c0.078125 0 0.17188 0.03125 0.21875-0.03125 0.03125-0.03125 0.03125-0.09375 0.03125-0.14062 0-0.0625 0.015625-0.125-0.03125-0.1875-0.015625-0.03125-0.078125-0.03125-0.125-0.03125h-0.3125-2.2188c0.1875-0.26562 0.34375-0.54688 0.51562-0.82812l0.14062-0.23438c0.03125-0.03125 0.046875-0.078125 0.09375-0.09375 0.046875-0.03125 0.125-0.015625 0.17188-0.03125 0.14062-0.015625 0.26562-0.03125 0.39062-0.0625 0.35938-0.09375 0.70312-0.28125 0.98438-0.53125 0.14062-0.14062 0.28125-0.29688 0.39062-0.48438 0.45312-0.78125 0.32812-1.7969-0.28125-2.4688-0.20312-0.21875-0.45312-0.39062-0.71875-0.51562-0.26562-0.10938-0.53125-0.17188-0.8125-0.1875-0.23438-0.015625-0.46875 0-0.70312 0h-3.2969c-0.0625 0-0.125-0.015625-0.1875 0-0.10938 0.015625-0.09375 0.14062-0.09375 0.21875 0 0.046875 0 0.078125 0.015625 0.125 0.03125 0.046875 0.09375 0.046875 0.14062 0.046875h0.26562 3c0.35938 0 0.71875-0.03125 1.0781 0.03125 0.29688 0.0625 0.57812 0.1875 0.8125 0.375 0.125 0.09375 0.21875 0.20312 0.3125 0.32812 0.10938 0.14062 0.20312 0.29688 0.25 0.46875 0.0625 0.1875 0.10938 0.40625 0.09375 0.60938-0.046875 0.82812-0.71875 1.5469-1.5625 1.6406z"/>
</g>
</defs>
<g transform="translate(-149.54 -128.55)">
<use x="148.71201" y="134.765" xlink:href="#a"/>
</g>
</svg>
