<?xml version="1.0" encoding="UTF-8"?>
<svg fill="#000000" version="1.1" viewBox="0 0 5.875 7.0781" xmlns="http://www.w3.org/2000/svg" xmlns:xlink="http://www.w3.org/1999/xlink">
<defs>
<g id="a">
<path d="m6.1406-6.0156c-0.17188 0.70312-0.51562 1.4688-1.2031 1.4688-0.71875 0-1.8906-1.4688-2.8438-1.4688-0.98438 0-1.5781 1.125-1.625 2.125h0.20312c0.15625-0.70312 0.54688-1.4688 1.25-1.4688 0.71875 0 1.8906 1.4688 2.8438 1.4688 0.96875 0 1.5156-1.2812 1.5781-2.125zm0.20312 6.2188v-0.65625h-3.0938l0.84375-1.3281h2.25v-0.65625h-1.8438l0.53125-0.85938h-0.59375l-0.54688 0.85938h-3.4062v0.65625h3l-0.82812 1.3281h-2.1719v0.65625h1.7656l-0.53125 0.85938h0.59375l0.53125-0.85938z"/>
</g>
</defs>
<g transform="translate(-149.18 -128.75)">
<use x="148.71201" y="134.765" xlink:href="#a"/>
</g>
</svg>
