<?xml version="1.0" encoding="UTF-8"?>
<svg fill="#000000" version="1.1" viewBox="0 0 6.5312 4.3906" xmlns="http://www.w3.org/2000/svg" xmlns:xlink="http://www.w3.org/1999/xlink">
<defs>
<g id="a">
<path d="m5.2656-2.6875c-0.64062 1.1406-0.73438 1.9844-0.73438 2.25 0 0.40625 0.125 0.45312 0.28125 0.45312 0.875 0 1.5469-0.75 1.5469-1.0781 0-0.10938-0.078125-0.125-0.125-0.125-0.078125 0-0.09375 0.046875-0.125 0.125-0.10938 0.1875-0.5625 0.39062-1.2344 0.40625-0.015625-0.046875-0.046875-0.10938-0.046875-0.1875 0-0.15625 0.23438-1.0938 0.71875-1.875 0.20312-0.29688 0.21875-0.29688 0.53125-0.51562 0.375-0.25 0.9375-0.625 0.98438-0.67188 0-0.015625 0.0625-0.078125 0.0625-0.1875 0-0.20312-0.21875-0.25-0.3125-0.25-0.25 0-0.4375 0.125-0.54688 0.20312l-3.8281 2.5469c0.29688-0.48438 0.75-1.5312 0.75-2.2656 0-0.23438 0-0.45312-0.28125-0.45312-0.90625 0-1.5469 0.76562-1.5469 1.0781 0 0.0625 0.03125 0.125 0.10938 0.125 0.09375 0 0.10938-0.046875 0.14062-0.125 0.078125-0.17188 0.54688-0.40625 1.2344-0.40625 0.03125 0.0625 0.03125 0.15625 0.03125 0.1875 0 0.53125-0.70312 2.0312-0.98438 2.2344-0.046875 0.015625-0.046875 0.03125-0.39062 0.25l-0.65625 0.4375c-0.17188 0.125-0.25 0.17188-0.25 0.32812 0 0.25 0.28125 0.25 0.3125 0.25 0.23438 0 0.4375-0.14062 0.54688-0.20312z"/>
</g>
</defs>
<g transform="translate(-149.31 -130.42)">
<use x="148.71201" y="134.765" xlink:href="#a"/>
</g>
</svg>
