<?xml version="1.0" encoding="UTF-8"?>
<svg fill="#000000" version="1.1" viewBox="0 0 7.1562 7.1562" xmlns="http://www.w3.org/2000/svg" xmlns:xlink="http://www.w3.org/1999/xlink">
<defs>
<g id="a">
<path d="m8.1562-2.0781c0.125 0 0.23438-0.09375 0.23438-0.21875 0-0.078125-0.046875-0.29688-0.046875-0.75 0-0.84375 0.15625-1.7031 0.64062-2.3906 0.03125-0.046875 0.0625-0.09375 0.0625-0.14062 0-0.14062-0.10938-0.23438-0.25-0.23438-0.25 0-0.6875 0.70312-2.5312 0.70312-0.4375 0-0.65625-0.046875-0.73438-0.046875-0.125 0-0.23438 0.10938-0.23438 0.23438 0 0.23438 0.23438 0.25 0.5 0.25h0.17188c0.125 0 0.23438 0 0.35938-0.015625l-1.9531 1.9531-0.6875-1.4844c-0.03125-0.0625-0.125-0.10938-0.20312-0.0625-0.078125 0.03125-0.10938 0.10938-0.078125 0.1875l0.73438 1.5938-2.1875 2.1875c-0.046875 0.046875-0.0625 0.10938-0.0625 0.15625 0 0.125 0.078125 0.23438 0.21875 0.23438 0.0625 0 0.125-0.015625 0.17188-0.0625l2.0781-2.0781 0.59375 1.2812-1.7344 1.7344c-0.046875 0.046875-0.0625 0.10938-0.0625 0.15625 0 0.125 0.078125 0.23438 0.21875 0.23438 0.0625 0 0.125-0.03125 0.15625-0.0625l1.625-1.625 0.70312 1.4844c0.03125 0.078125 0.10938 0.10938 0.1875 0.0625 0.078125-0.03125 0.10938-0.10938 0.078125-0.1875l-0.73438-1.5781 2.5312-2.5312c-0.015625 0.10938-0.015625 0.23438-0.015625 0.35938v0.125c0 0.29688 0.015625 0.53125 0.25 0.53125zm-3.5781-0.21875 2.4375-2.4219h0.46875c0.14062 0 0.29688 0 0.45312 0.015625 0.015625 0.14062 0.015625 0.3125 0.015625 0.45312 0 0.15625 0 0.3125-0.015625 0.46875l-2.75 2.7656z"/>
</g>
</defs>
<g transform="translate(-150.6 -128.95)">
<use x="148.71201" y="134.765" xlink:href="#a"/>
</g>
</svg>
