<?xml version="1.0" encoding="UTF-8"?>
<svg fill="#000000" version="1.1" viewBox="0 0 12.953 3.5938" xmlns="http://www.w3.org/2000/svg" xmlns:xlink="http://www.w3.org/1999/xlink">
<defs>
<g id="a">
<path d="m2.8438-4.2969c-1 0-1.8438 0.8125-1.8438 1.8125 0 0.98438 0.89062 1.7812 1.8438 1.7812 0.98438 0 1.5-0.64062 1.75-1.4844h5.75c0.26562 0.84375 0.78125 1.4844 1.75 1.4844s1.8594-0.79688 1.8594-1.7812c0-1-0.85938-1.8125-1.8438-1.8125-0.96875 0-1.5 0.64062-1.7656 1.5h-5.75c-0.25-0.85938-0.79688-1.5-1.75-1.5zm-1.2344 1.7969c0-0.64062 0.54688-1.2031 1.1875-1.2031 0.6875 0 1.2031 0.53125 1.2031 1.2031s-0.53125 1.2031-1.2031 1.2031c-0.64062 0-1.1875-0.53125-1.1875-1.2031zm11.734 0c0 0.67188-0.54688 1.2031-1.2031 1.2031s-1.1875-0.53125-1.1875-1.2031 0.51562-1.2031 1.1875-1.2031c0.65625 0 1.2031 0.5625 1.2031 1.2031z"/>
</g>
</defs>
<g transform="translate(-149.71 -130.47)">
<use x="148.71201" y="134.765" xlink:href="#a"/>
</g>
</svg>
