<?xml version="1.0" encoding="UTF-8"?>
<svg fill="#000000" version="1.1" viewBox="0 0 6.4844 8.2812" xmlns="http://www.w3.org/2000/svg" xmlns:xlink="http://www.w3.org/1999/xlink">
<defs>
<g id="a">
<path d="m1.5938-2.8438c0.26562-0.28125 0.67188-0.39062 1.0312-0.39062 0.51562 0 0.85938 0.23438 1.2812 0.48438-0.23438 0.39062-1.7812 2.9844-1.7812 3.1719 0 0.125 0.10938 0.23438 0.23438 0.23438 0.078125 0 0.17188-0.046875 0.21875-0.125l1.7344-3.0156c0.46875 0.3125 0.96875 0.625 1.5312 0.625 0.95312 0 1.6406-0.75 1.6406-1.6719 0-0.09375-0.03125-0.28125-0.14062-0.28125-0.125 0-0.1875 0.54688-0.23438 0.65625-0.21875 0.46875-0.79688 0.71875-1.2812 0.71875-0.5 0-0.85938-0.23438-1.2656-0.48438 0.23438-0.39062 1.7812-2.9844 1.7812-3.1562 0-0.125-0.10938-0.23438-0.23438-0.23438-0.078125 0-0.17188 0.046875-0.20312 0.10938l-1.7344 3.0156c-0.46875-0.29688-0.96875-0.625-1.5312-0.625-0.375 0-0.75 0.10938-1.0469 0.35938v-3.2188c0-0.1875-0.125-0.3125-0.3125-0.3125-0.17188 0-0.28125 0.14062-0.28125 0.3125v7.6719c0 0.17188 0.125 0.29688 0.3125 0.29688 0.15625 0 0.28125-0.125 0.28125-0.29688z"/>
</g>
</defs>
<g transform="translate(-149.71 -127.78)">
<use x="148.71201" y="134.765" xlink:href="#a"/>
</g>
</svg>
