<?xml version="1.0" encoding="UTF-8"?>
<svg fill="#000000" version="1.1" viewBox="0 0 14.928 5.4844" xmlns="http://www.w3.org/2000/svg" xmlns:xlink="http://www.w3.org/1999/xlink">
<defs>
<g id="b">
<path d="m9.0625-1.3281c0.17188 0 0.34375 0 0.34375-0.20312 0-0.1875-0.17188-0.1875-0.35938-0.1875h-6.3281c-0.42188-0.35938-0.92188-0.625-1.25-0.78125 0.35938-0.15625 0.84375-0.40625 1.25-0.76562h6.3281c0.1875 0 0.35938 0 0.35938-0.1875 0-0.20312-0.17188-0.20312-0.34375-0.20312h-5.8906c0.48438-0.45312 1-1.3438 1-1.4688 0-0.10938-0.14062-0.10938-0.1875-0.10938-0.09375 0-0.15625 0-0.20312 0.078125-0.20312 0.375-0.48438 0.90625-1.125 1.4844-0.6875 0.60938-1.3594 0.875-1.875 1.0312-0.17188 0.0625-0.1875 0.0625-0.20312 0.09375-0.015625 0-0.015625 0.03125-0.015625 0.046875v0.0625l0.03125 0.03125c0.03125 0 0.03125 0.015625 0.21875 0.078125 1.3438 0.39062 2.3438 1.2969 2.9062 2.375 0.10938 0.1875 0.125 0.20312 0.26562 0.20312 0.046875 0 0.1875 0 0.1875-0.10938 0-0.125-0.51562-1-1-1.4688z"/>
</g>
<g id="a">
<path d="m6.8438-3.2656c0.15625 0 0.34375 0 0.34375-0.1875 0-0.20312-0.1875-0.20312-0.32812-0.20312h-5.9688c-0.14062 0-0.32812 0-0.32812 0.20312 0 0.1875 0.1875 0.1875 0.32812 0.1875zm0.015625 1.9375c0.14062 0 0.32812 0 0.32812-0.20312 0-0.1875-0.1875-0.1875-0.34375-0.1875h-5.9531c-0.14062 0-0.32812 0-0.32812 0.1875 0 0.20312 0.1875 0.20312 0.32812 0.20312z"/>
</g>
</defs>
<g transform="translate(-149.27 -129.53)">
<use x="148.71201" y="134.765" xlink:href="#b"/>
<use x="157.015" y="134.765" xlink:href="#a"/>
</g>
</svg>
