<?xml version="1.0" encoding="UTF-8"?>
<svg fill="#000000" version="1.1" viewBox="0 0 5.4219 12.016" xmlns="http://www.w3.org/2000/svg" xmlns:xlink="http://www.w3.org/1999/xlink">
<defs>
<g id="a">
<path d="m2.8594-4.4688v3.4062c-0.71875-0.1875-1.3281-0.79688-1.3281-1.7031 0-0.1875 0.03125-0.40625 0.10938-0.60938 0.1875-0.51562 0.625-0.9375 1.2188-1.0938zm2.6719 2.5312 0.32812 0.5625 0.45312-0.26562-0.625-1.0938v-0.03125h-0.03125l-0.1875-0.35938-1.4844 0.85938 0.26562 0.45312 0.70312-0.40625c-0.17188 0.5625-0.625 1.0156-1.2344 1.1562v-3.4062c0.53125 0.14062 0.95312 0.48438 1.1719 0.95312l0.57812-0.25c-0.32812-0.6875-0.9375-1.2031-1.75-1.3438v-1.4062c0-0.76562 0.3125-1.5469 0.98438-1.5469 0.15625 0 0.32812 0.015625 0.48438 0.046875l0.17188-0.6875c-0.14062-0.046875-0.3125-0.046875-0.46875-0.046875-1.1562 0.03125-2.0312 1.0469-2.0312 2.2344v1.4062c-0.89062 0.15625-1.5469 0.76562-1.8281 1.5312-0.09375 0.26562-0.14062 0.53125-0.14062 0.8125 0 0.35938 0.078125 0.6875 0.21875 1.0156 0.32812 0.65625 0.9375 1.1875 1.75 1.3438v1.4062c0 0.78125-0.375 1.5625-1.0781 1.5625h-0.48438l0.09375 0.70312h0.0625c1.25 0 2.2656-1.0156 2.2656-2.2656v-1.4062c0.89062-0.15625 1.5312-0.76562 1.8125-1.5312z"/>
</g>
</defs>
<g transform="translate(-149.6 -126.02)">
<use x="148.71201" y="134.765" xlink:href="#a"/>
</g>
</svg>
