<?xml version="1.0" encoding="UTF-8"?>
<svg fill="#000000" version="1.1" viewBox="0 0 4.7344 4.1562" xmlns="http://www.w3.org/2000/svg" xmlns:xlink="http://www.w3.org/1999/xlink">
<defs>
<g id="a">
<path d="m0.85938-1.0938c0.03125 0 0.078125 0 0.125-0.015625l2-1.1719 2.0312 1.1719c0.03125 0.015625 0.078125 0.015625 0.10938 0.015625 0.125 0 0.23438-0.09375 0.23438-0.21875 0-0.078125-0.046875-0.15625-0.10938-0.20312l-2.0312-1.1719v-2.3281c0-0.125-0.09375-0.23438-0.23438-0.23438-0.10938 0-0.21875 0.10938-0.21875 0.23438v2.3281l-2.0156 1.1719c-0.078125 0.046875-0.125 0.125-0.125 0.20312 0 0.125 0.125 0.21875 0.23438 0.21875z"/>
</g>
</defs>
<g transform="translate(-149.34 -129.52)">
<use x="148.71201" y="134.765" xlink:href="#a"/>
</g>
</svg>
