<?xml version="1.0" encoding="UTF-8"?>
<svg fill="#000000" version="1.1" viewBox="0 0 6.3802 6.669" xmlns="http://www.w3.org/2000/svg" xmlns:xlink="http://www.w3.org/1999/xlink">
<defs>
<g id="a">
<path d="m1.2188 0.42188v-5.8594h5.7969c0.046875 0 0.09375 0 0.125-0.015625 0.078125-0.046875 0.0625-0.17188 0.0625-0.23438-0.015625-0.1875-0.1875-0.14062-0.32812-0.14062h-5.7188c-0.09375 0-0.26562-0.03125-0.3125 0.0625-0.03125 0.046875-0.015625 0.09375-0.015625 0.14062v6.0625 0.26562c0 0.046875 0.015625 0.09375 0.0625 0.10938 0.0625 0.03125 0.10938 0.015625 0.15625 0.015625h5.7969c0.10938 0 0.32812 0.046875 0.35938-0.09375 0-0.09375 0.015625-0.23438-0.0625-0.28125-0.03125-0.03125-0.078125-0.03125-0.125-0.03125zm1.5781-1.5625v-2.7344h3.8906c0.10938 0 0.23438 0.015625 0.23438-0.125 0-0.0625 0.03125-0.17188-0.03125-0.23438-0.046875-0.046875-0.14062-0.03125-0.21875-0.03125h-3.9844c-0.078125 0-0.21875-0.03125-0.28125 0.046875-0.015625 0.046875-0.015625 0.09375-0.015625 0.14062v3.1562c0 0.046875 0 0.10938 0.046875 0.15625 0.03125 0.03125 0.078125 0.03125 0.10938 0.03125h0.1875 3.8906c0.0625 0 0.1875 0.015625 0.25-0.015625 0.046875-0.046875 0.046875-0.10938 0.046875-0.15625 0-0.09375 0.015625-0.20312-0.09375-0.23438h-0.15625z"/>
</g>
</defs>
<g transform="translate(-149.54 -128.93)">
<use x="148.71201" y="134.765" xlink:href="#a"/>
</g>
</svg>
