<?xml version="1.0" encoding="UTF-8"?>
<svg fill="#000000" version="1.1" viewBox="0 0 6.2188 5.2031" xmlns="http://www.w3.org/2000/svg" xmlns:xlink="http://www.w3.org/1999/xlink">
<defs>
<g id="a">
<path d="m7.1719-3.5625c0 0.125 0.078125 0.23438 0.21875 0.23438 0.20312 0 0.4375-0.375 0.4375-0.73438 0-0.53125-0.4375-0.9375-0.9375-0.9375-0.25 0-0.48438 0.09375-0.67188 0.28125l-3.6719 3.6719c0-0.40625 0.03125-0.78125 0.03125-1.1719v-0.10938c0-0.21875 0-0.4375-0.23438-0.4375-0.14062 0-0.23438 0.09375-0.23438 0.21875 0 0.0625 0.03125 0.23438 0.03125 0.57812 0 1.375-0.53125 1.75-0.53125 1.9531 0 0.14062 0.10938 0.21875 0.21875 0.21875 0.20312 0 0.57812-0.51562 1.9531-0.51562 0.34375 0 0.53125 0.015625 0.57812 0.015625 0.125 0 0.21875-0.09375 0.21875-0.23438 0-0.21875-0.23438-0.23438-0.46875-0.23438h-0.0625c-0.39062 0-0.76562 0.03125-1.1562 0.03125h-0.015625l3.6719-3.6719c0.09375-0.09375 0.21875-0.14062 0.34375-0.14062 0.28125 0 0.48438 0.21875 0.48438 0.48438 0 0.29688-0.20312 0.32812-0.20312 0.5z"/>
</g>
</defs>
<g transform="translate(-150.32 -129.76)">
<use x="148.71201" y="134.765" xlink:href="#a"/>
</g>
</svg>
