<?xml version="1.0" encoding="UTF-8"?>
<svg fill="#000000" version="1.1" viewBox="0 0 6.6406 2.3281" xmlns="http://www.w3.org/2000/svg" xmlns:xlink="http://www.w3.org/1999/xlink">
<defs>
<g id="a">
<path d="m7.2031-1.6562c0-0.95312-0.625-2-1.6562-2-0.6875 0-1.1875 0.4375-1.7344 0.90625-0.5 0.45312-0.96875 0.85938-1.5938 0.85938-0.73438 0-1.3281-0.60938-1.375-1.4219-0.015625-0.14062-0.03125-0.34375-0.14062-0.34375-0.078125 0-0.14062 0.09375-0.14062 0.32812 0 0.95312 0.60938 2 1.6562 2 0.67188 0 1.1875-0.4375 1.7188-0.90625 0.51562-0.45312 0.96875-0.85938 1.6094-0.85938 0.70312 0 1.3281 0.59375 1.375 1.4219 0 0.14062 0.015625 0.34375 0.14062 0.34375 0.078125 0 0.14062-0.125 0.14062-0.32812z"/>
</g>
</defs>
<g transform="translate(-149.27 -131.11)">
<use x="148.71201" y="134.765" xlink:href="#a"/>
</g>
</svg>
