<?xml version="1.0" encoding="UTF-8"?>
<svg fill="#000000" version="1.1" viewBox="0 0 4.5312 4.5312" xmlns="http://www.w3.org/2000/svg" xmlns:xlink="http://www.w3.org/1999/xlink">
<defs>
<g id="a">
<path d="m3.0156-0.23438c0.17188 0 0.29688-0.14062 0.29688-0.3125v-1.6406h1.6562c0.17188 0 0.3125-0.15625 0.3125-0.3125 0-0.17188-0.14062-0.3125-0.3125-0.3125h-1.6562v-1.6406c0-0.17188-0.125-0.3125-0.29688-0.3125s-0.3125 0.15625-0.3125 0.3125v1.6406h-1.6406c-0.17188 0-0.3125 0.14062-0.3125 0.3125 0 0.15625 0.14062 0.3125 0.3125 0.3125h1.6406v1.6406c0 0.15625 0.14062 0.3125 0.3125 0.3125z"/>
</g>
</defs>
<g transform="translate(-149.46 -130)">
<use x="148.71201" y="134.765" xlink:href="#a"/>
</g>
</svg>
