<?xml version="1.0" encoding="UTF-8"?>
<svg fill="#000000" version="1.1" viewBox="0 0 9.2812 4.1914" xmlns="http://www.w3.org/2000/svg" xmlns:xlink="http://www.w3.org/1999/xlink">
<defs>
<g id="a">
<path d="m3.9375-0.40625c-0.0625-0.09375-0.15625-0.15625-0.23438-0.23438-0.15625-0.17188-0.3125-0.3125-0.48438-0.45312-0.15625-0.14062-0.32812-0.29688-0.51562-0.40625v-0.015625h1.7656c-0.078125 0.20312-0.14062 0.42188-0.21875 0.64062-0.015625 0.10938-0.078125 0.23438-0.09375 0.34375 0 0.125 0.14062 0.125 0.23438 0.125 0.046875 0 0.10938 0 0.14062-0.046875 0.046875-0.0625 0.078125-0.17188 0.09375-0.23438 0.0625-0.1875 0.10938-0.375 0.17188-0.54688 0.015625-0.0625 0.03125-0.125 0.0625-0.1875 0-0.03125 0.03125-0.078125 0.0625-0.078125 0.0625-0.03125 0.15625-0.015625 0.21875-0.015625h2.125v0.015625c-0.1875 0.10938-0.35938 0.26562-0.51562 0.40625-0.17188 0.14062-0.32812 0.28125-0.48438 0.45312-0.078125 0.078125-0.17188 0.14062-0.23438 0.23438h0.35938c0.0625 0 0.125 0 0.17188-0.015625 0.0625-0.015625 0.09375-0.078125 0.14062-0.10938 0.046875-0.0625 0.09375-0.09375 0.14062-0.14062 0.17188-0.17188 0.35938-0.3125 0.53125-0.45312 0.4375-0.34375 0.90625-0.625 1.375-0.875 0.21875-0.125 0.4375-0.25 0.67188-0.34375 0.0625-0.03125 0.20312-0.0625 0.20312-0.15625s-0.14062-0.125-0.20312-0.15625c-0.23438-0.10938-0.45312-0.21875-0.67188-0.34375-0.46875-0.26562-0.9375-0.53125-1.375-0.875-0.17188-0.14062-0.35938-0.29688-0.53125-0.45312l-0.14062-0.14062c-0.046875-0.03125-0.078125-0.09375-0.14062-0.10938-0.046875-0.03125-0.10938-0.015625-0.17188-0.015625h-0.35938c0.0625 0.09375 0.15625 0.15625 0.23438 0.23438 0.15625 0.15625 0.3125 0.3125 0.48438 0.45312 0.15625 0.14062 0.32812 0.29688 0.51562 0.40625v0.015625h-1.7656c0.09375-0.21875 0.14062-0.4375 0.21875-0.65625 0.015625-0.078125 0.03125-0.14062 0.046875-0.20312 0.03125-0.046875 0.046875-0.09375 0.046875-0.125 0-0.14062-0.14062-0.125-0.23438-0.125-0.046875 0-0.10938 0-0.14062 0.03125-0.046875 0.0625-0.078125 0.17188-0.09375 0.25-0.0625 0.17188-0.10938 0.35938-0.17188 0.54688-0.015625 0.0625-0.03125 0.125-0.0625 0.1875 0 0.03125-0.03125 0.0625-0.0625 0.078125-0.0625 0.03125-0.15625 0.015625-0.21875 0.015625h-2.125v-0.015625c0.1875-0.10938 0.35938-0.26562 0.51562-0.40625 0.17188-0.14062 0.32812-0.29688 0.48438-0.45312 0.078125-0.078125 0.17188-0.14062 0.23438-0.23438h-0.35938c-0.0625 0-0.125-0.015625-0.17188 0.015625-0.0625 0.015625-0.09375 0.078125-0.14062 0.10938l-0.14062 0.14062c-0.17188 0.15625-0.35938 0.3125-0.53125 0.45312-0.4375 0.34375-0.90625 0.60938-1.375 0.875-0.21875 0.125-0.4375 0.23438-0.67188 0.34375-0.0625 0.03125-0.20312 0.0625-0.20312 0.15625s0.14062 0.125 0.20312 0.15625c0.23438 0.09375 0.45312 0.21875 0.67188 0.34375 0.46875 0.25 0.9375 0.53125 1.375 0.875 0.17188 0.14062 0.35938 0.28125 0.53125 0.45312 0.046875 0.046875 0.09375 0.078125 0.14062 0.14062 0.046875 0.03125 0.078125 0.09375 0.14062 0.10938 0.046875 0.015625 0.10938 0.015625 0.17188 0.015625zm0.65625-1.5h-2.2031l-0.25-0.015625-0.28125-0.15625-0.46875-0.28125-0.26562-0.14062v-0.015625l0.26562-0.14062 0.46875-0.26562 0.28125-0.15625 0.29688-0.015625h2.5156l-0.26562 0.82812zm0.42188 0 0.26562-0.82812 0.09375-0.35938h2.2031l0.25 0.015625 0.28125 0.15625 0.46875 0.26562 0.26562 0.14062v0.015625l-0.26562 0.14062-0.46875 0.28125-0.28125 0.15625-0.29688 0.015625z"/>
</g>
</defs>
<g transform="translate(-149.06 -130.17)">
<use x="148.71201" y="134.765" xlink:href="#a"/>
</g>
</svg>
