<?xml version="1.0" encoding="UTF-8"?>
<svg fill="#000000" version="1.1" viewBox="0 0 4.7969 3.7344" xmlns="http://www.w3.org/2000/svg" xmlns:xlink="http://www.w3.org/1999/xlink">
<defs>
<g id="a">
<path d="m1.4062-3.2031c0.23438-0.23438 0.48438-0.54688 0.82812-0.54688 0.29688 0 0.54688 0.1875 0.78125 0.375 0.375 0.32812 0.82812 0.57812 1.3281 0.57812 0.57812 0 0.9375-0.5 1.3438-0.90625l-0.51562-0.5c-0.23438 0.25-0.48438 0.54688-0.82812 0.54688-0.29688 0-0.54688-0.1875-0.78125-0.375-0.375-0.3125-0.82812-0.57812-1.3281-0.57812-0.5625 0-0.9375 0.5-1.3438 0.90625zm0 1.9219c0.23438-0.23438 0.48438-0.54688 0.82812-0.54688 0.29688 0 0.54688 0.1875 0.78125 0.375 0.375 0.3125 0.82812 0.57812 1.3281 0.57812 0.57812 0 0.9375-0.5 1.3438-0.90625l-0.51562-0.51562c-0.23438 0.25-0.48438 0.5625-0.82812 0.5625-0.29688 0-0.54688-0.1875-0.78125-0.375-0.375-0.32812-0.82812-0.57812-1.3281-0.57812-0.5625 0-0.9375 0.5-1.3438 0.90625z"/>
</g>
</defs>
<g transform="translate(-149.6 -130.16)">
<use x="148.71201" y="134.765" xlink:href="#a"/>
</g>
</svg>
