<?xml version="1.0" encoding="UTF-8"?>
<svg fill="#000000" version="1.1" viewBox="0 0 8.8594 4.9844" xmlns="http://www.w3.org/2000/svg" xmlns:xlink="http://www.w3.org/1999/xlink">
<defs>
<g id="a">
<path d="m7-5c0.125 0.79688 0.57812 1.6562 1.1719 2.1406 0.046875 0.0625 0.10938 0.10938 0.17188 0.14062l-7.5312 0.015625c-0.10938 0-0.26562 0.015625-0.26562 0.20312 0 0.17188 0.15625 0.20312 0.26562 0.20312h7.5312c-0.17188 0.10938-0.35938 0.3125-0.51562 0.5-0.42188 0.5-0.73438 1.1406-0.82812 1.7812h0.39062c0.20312-1 0.78125-1.7969 1.7031-2.3438 0.09375-0.046875 0.20312-0.078125 0.3125-0.14062-0.10938-0.0625-0.21875-0.10938-0.3125-0.15625-0.92188-0.53125-1.5-1.3281-1.7031-2.3438z"/>
</g>
</defs>
<g transform="translate(-149.26 -129.76)">
<use x="148.71201" y="134.765" xlink:href="#a"/>
</g>
</svg>
