<?xml version="1.0" encoding="UTF-8"?>
<svg fill="#000000" width="7.7656" height="9.9688" version="1.1" viewBox="0 0 7.7656 9.9687" xmlns="http://www.w3.org/2000/svg" xmlns:xlink="http://www.w3.org/1999/xlink">
<defs>
<g id="a">
<path d="m3.875 8.5156-1.75-3.875c-0.078125-0.15625-0.125-0.15625-0.15625-0.15625 0 0-0.0625 0-0.17188 0.078125l-0.9375 0.71875c-0.125 0.10938-0.125 0.125-0.125 0.15625 0 0.0625 0.015625 0.10938 0.09375 0.10938 0.0625 0 0.23438-0.14062 0.34375-0.21875 0.046875-0.046875 0.20312-0.15625 0.3125-0.23438l1.9688 4.3125c0.0625 0.15625 0.10938 0.15625 0.20312 0.15625 0.15625 0 0.1875-0.046875 0.25-0.1875l4.5312-9.375c0.0625-0.14062 0.0625-0.17188 0.0625-0.20312 0-0.09375-0.078125-0.20312-0.20312-0.20312-0.078125 0-0.14062 0.0625-0.21875 0.21875z"/>
</g>
</defs>
<g transform="translate(-149.45 -129.33)">
<use x="148.71201" y="129.73399" xlink:href="#a"/>
</g>
</svg>
