<?xml version="1.0" encoding="UTF-8"?>
<svg fill="#000000" version="1.1" viewBox="0 0 4.4219 8.8125" xmlns="http://www.w3.org/2000/svg" xmlns:xlink="http://www.w3.org/1999/xlink">
<defs>
<g id="a">
<path d="m2.4844-6.8906c-0.15625 1.0312-1.0781 1.9688-2.0781 2.2188-0.0625 0.03125-0.125 0.03125-0.125 0.10938v0.32812c0.76562-0.17188 1.6875-0.73438 2-1.375l0.015625 7.25c0 0.125 0.015625 0.28125 0.20312 0.28125 0.17188 0 0.1875-0.15625 0.1875-0.28125l0.015625-7.25c0.3125 0.64062 1.2344 1.2031 2 1.375v-0.32812c0-0.10938-0.23438-0.125-0.35938-0.1875-0.92188-0.32812-1.6875-1.1875-1.8438-2.1406z"/>
</g>
</defs>
<g transform="translate(-148.99 -127.87)">
<use x="148.71201" y="134.765" xlink:href="#a"/>
</g>
</svg>
