<?xml version="1.0" encoding="UTF-8"?>
<svg fill="#000000" version="1.1" viewBox="0 0 7.25 3.2656" xmlns="http://www.w3.org/2000/svg" xmlns:xlink="http://www.w3.org/1999/xlink">
<defs>
<g id="a">
<path d="m7.7344-3.5312c0-0.35938-0.3125-0.625-0.625-0.625-0.32812 0-0.64062 0.25-0.64062 0.625 0 0.39062 0.26562 0.64062 0.64062 0.64062s0.625-0.29688 0.625-0.64062zm0 2c0-0.40625-0.28125-0.625-0.64062-0.625-0.32812 0-0.625 0.23438-0.625 0.625 0 0.34375 0.29688 0.64062 0.625 0.64062 0.35938 0 0.64062-0.29688 0.64062-0.64062zm-2.1875-1.6562v-0.65625h-5.0625v0.65625zm0 1.9844v-0.65625h-5.0625v0.65625z"/>
</g>
</defs>
<g transform="translate(-149.2 -130.61)">
<use x="148.71201" y="134.765" xlink:href="#a"/>
</g>
</svg>
