<?xml version="1.0" encoding="UTF-8"?>
<svg fill="#000000" version="1.1" viewBox="0 0 7.8125 4.2812" xmlns="http://www.w3.org/2000/svg" xmlns:xlink="http://www.w3.org/1999/xlink">
<defs>
<g id="a">
<path d="m8.2188-2.25c0 0.92188-0.71875 1.4062-1.5625 1.4062-0.96875 0-1.6094-0.89062-1.9375-1.4531-0.82812-1.4219-1.2812-1.9844-2.2031-1.9844-0.90625 0-1.8125 0.82812-1.8125 2.1719 0 0.96875 0.60938 2.1094 1.875 2.1094 0.875 0 1.4844-0.40625 2.2188-1.5781 0.45312 0.90625 1 1.5781 1.9688 1.5781 0.84375 0 1.75-0.71875 1.75-2.25zm-3.9844-0.15625c-0.875 1.375-1.1875 1.5625-2 1.5625-0.78125 0-1.2344-0.5-1.2344-1.2031 0-0.90625 0.71875-1.4062 1.5625-1.4062 0.98438 0 1.375 0.71875 1.6719 1.0469z"/>
</g>
</defs>
<g transform="translate(-149.42 -130.48)">
<use x="148.71201" y="134.765" xlink:href="#a"/>
</g>
</svg>
