<?xml version="1.0" encoding="UTF-8"?>
<svg fill="#000000" version="1.1" viewBox="0 0 7.1094 6.1562" xmlns="http://www.w3.org/2000/svg" xmlns:xlink="http://www.w3.org/1999/xlink">
<defs>
<g id="a">
<path d="m1.0625 0.3125v-5.7188c0-0.10938-0.10938-0.21875-0.23438-0.21875s-0.23438 0.10938-0.23438 0.21875v5.7188c0 0.10938 0.10938 0.21875 0.23438 0.21875s0.23438-0.10938 0.23438-0.21875zm1.7812 0v-1.7344h4.6406c0.125 0 0.21875-0.10938 0.21875-0.23438s-0.09375-0.23438-0.21875-0.23438h-4.6406v-1.3125h4.6406c0.125 0 0.21875-0.10938 0.21875-0.23438s-0.09375-0.23438-0.21875-0.23438h-4.6406v-1.7344c0-0.10938-0.10938-0.21875-0.23438-0.21875s-0.23438 0.10938-0.23438 0.21875v5.7188c0 0.10938 0.10938 0.21875 0.23438 0.21875s0.23438-0.10938 0.23438-0.21875z"/>
</g>
</defs>
<g transform="translate(-149.31 -129.14)">
<use x="148.71201" y="134.765" xlink:href="#a"/>
</g>
</svg>
