<?xml version="1.0" encoding="UTF-8"?>
<svg fill="#000000" version="1.1" viewBox="0 0 5.6406 5.5469" xmlns="http://www.w3.org/2000/svg" xmlns:xlink="http://www.w3.org/1999/xlink">
<defs>
<g id="a">
<path d="m6.2344-2.5c0-0.85938-0.6875-1.5469-1.5469-1.5469s-1.5312 0.6875-1.5312 1.5469 0.67188 1.5469 1.5312 1.5469 1.5469-0.6875 1.5469-1.5469zm-0.54688 0c0 0.53125-0.45312 1-1 1-0.53125 0-0.98438-0.46875-0.98438-1 0-0.54688 0.45312-1 0.98438-1 0.54688 0 1 0.45312 1 1zm0.54688 2.7656v-0.65625h-2.9375c-1.1406 0-2.0469-1.0625-2.0469-2.125s0.90625-2.0938 2.0469-2.0938h2.9375v-0.67188h-2.9375c-1.6094 0-2.7031 1.2969-2.7031 2.7656 0 1.4844 1.0781 2.7812 2.6719 2.7812z"/>
</g>
</defs>
<g transform="translate(-149.31 -129.48)">
<use x="148.71201" y="134.765" xlink:href="#a"/>
</g>
</svg>
