<?xml version="1.0" encoding="UTF-8"?>
<svg fill="#000000" version="1.1" viewBox="0 0 8.1875 7.1562" xmlns="http://www.w3.org/2000/svg" xmlns:xlink="http://www.w3.org/1999/xlink">
<defs>
<g id="a">
<path d="m0.75-5.6875c0.28125-0.60938 0.75-0.90625 1.3906-0.90625 0.79688 0 1.6094 0.89062 1.7656 1.9219v4.6719h1.1719c-0.078125-0.84375-0.125-1.6094-0.125-2.2969 0-2.6406 0.5625-4.0625 1.7031-4.2812h0.54688c0.6875 0.3125 1.0156 0.64062 1.0156 1.0156 0 0.26562-0.17188 0.53125-0.54688 0.82812l-0.8125 0.34375 0.67188 0.76562c0.8125-0.3125 1.0312-1.0469 1.0312-2.2656-0.35938-0.84375-0.89062-1.2656-1.6094-1.2656-0.4375 0-0.95312 0.17188-1.5469 0.5-0.1875 0-0.45312 0.53125-0.875 1.5156-0.1875-0.95312-0.79688-1.625-1.8594-1.9844h-0.89062c-0.9375 0.26562-1.4062 0.82812-1.4062 1.6719 0 0.92188 0.54688 1.7031 1.2656 1.8281l0.48438-0.76562c-0.45312-0.078125-0.89062-0.32812-1.3125-0.75z"/>
</g>
</defs>
<g transform="translate(-149.09 -127.61)">
<use x="148.71201" y="134.765" xlink:href="#a"/>
</g>
</svg>
