<?xml version="1.0" encoding="UTF-8"?>
<svg fill="#000000" version="1.1" viewBox="0 0 4.3125 14.125" xmlns="http://www.w3.org/2000/svg" xmlns:xlink="http://www.w3.org/1999/xlink">
<defs>
<g id="a">
<path d="m4.875 2.5781c0-0.078125-0.046875-0.15625-0.10938-0.20312l-2.7812-1.5938 0.26562-1.0156 2.5156-1.4531c0.0625-0.03125 0.10938-0.10938 0.10938-0.1875 0-0.14062-0.10938-0.23438-0.23438-0.23438-0.03125 0-0.078125 0.015625-0.10938 0.03125l-2.1094 1.2188 0.39062-1.4844 1.9531-1.1094c0.0625-0.0625 0.10938-0.125 0.10938-0.20312 0-0.125-0.10938-0.23438-0.23438-0.23438-0.03125 0-0.078125 0.015625-0.10938 0.03125l-1.5469 0.90625 0.39062-1.5 1.3906-0.79688c0.0625-0.046875 0.10938-0.10938 0.10938-0.1875 0-0.09375-0.046875-0.17188-0.10938-0.20312l-0.92188-0.53125 0.875-3.25c0.015625-0.09375-0.046875-0.1875-0.15625-0.1875-0.0625 0-0.125 0.046875-0.14062 0.125l-0.84375 3.1562-2.6875-1.5469c-0.015625-0.015625-0.0625-0.03125-0.10938-0.03125-0.10938 0-0.21875 0.09375-0.21875 0.23438 0 0.078125 0.03125 0.15625 0.10938 0.1875l2.7812 1.6094-0.26562 1.0156-2.5156 1.4531c-0.078125 0.03125-0.10938 0.10938-0.10938 0.1875 0 0.14062 0.10938 0.23438 0.21875 0.23438 0.046875 0 0.09375-0.015625 0.10938-0.03125l2.125-1.2188-0.40625 1.4844-1.9375 1.1094c-0.078125 0.0625-0.10938 0.125-0.10938 0.20312 0 0.125 0.10938 0.23438 0.21875 0.23438 0.046875 0 0.09375-0.015625 0.10938-0.03125l1.5625-0.89062-0.40625 1.4844-1.375 0.79688c-0.078125 0.046875-0.10938 0.10938-0.10938 0.1875 0 0.09375 0.03125 0.17188 0.10938 0.20312l0.90625 0.53125-0.85938 3.25c-0.015625 0.09375 0.03125 0.1875 0.15625 0.1875 0.046875 0 0.10938-0.046875 0.125-0.125l0.85938-3.1562 2.6719 1.5469c0.03125 0.015625 0.078125 0.03125 0.10938 0.03125 0.125 0 0.23438-0.09375 0.23438-0.23438zm-1.3281-7.6562 0.17188-0.64062 0.46875 0.28125zm-1.6562 5.0625-0.17188 0.64062-0.46875-0.28125z"/>
</g>
</defs>
<g transform="translate(-149.27 -125.16)">
<use x="148.71201" y="134.765" xlink:href="#a"/>
</g>
</svg>
