<?xml version="1.0" encoding="UTF-8"?>
<svg fill="#000000" version="1.1" viewBox="0 0 6.3791 6.6456" xmlns="http://www.w3.org/2000/svg" xmlns:xlink="http://www.w3.org/1999/xlink">
<defs>
<g id="a">
<path d="m3.375-2.7031h-2.5938c-0.046875 0-0.125-0.015625-0.17188 0.015625-0.078125 0.0625-0.0625 0.21875-0.046875 0.29688 0.03125 0.078125 0.10938 0.09375 0.17188 0.09375h2.6406v2.8594c0 0.0625 0 0.14062 0.015625 0.1875 0.03125 0.09375 0.14062 0.0625 0.23438 0.0625 0.03125 0 0.078125 0 0.10938-0.03125 0.046875-0.03125 0.046875-0.09375 0.046875-0.14062v-6.0781-0.21875c0-0.046875 0-0.09375-0.046875-0.125-0.03125-0.046875-0.078125-0.046875-0.14062-0.046875-0.078125 0-0.1875 0-0.21875 0.10938v0.20312zm1.6562-3.1094c-0.0625 0.015625-0.078125 0.078125-0.078125 0.125v0.25 6.0781c0 0.03125 0 0.078125 0.015625 0.10938 0.046875 0.078125 0.14062 0.0625 0.20312 0.0625h0.10938c0.046875-0.015625 0.0625-0.0625 0.078125-0.10938v-0.26562-6.0625c0-0.046875 0-0.09375-0.015625-0.125-0.046875-0.078125-0.14062-0.078125-0.20312-0.078125-0.046875 0-0.09375 0-0.10938 0.015625zm1.5625 0c-0.046875 0.015625-0.0625 0.078125-0.0625 0.125v0.25 6.0781c0 0.03125 0 0.078125 0.015625 0.10938 0.046875 0.078125 0.125 0.0625 0.20312 0.0625h0.09375c0.046875-0.015625 0.078125-0.0625 0.078125-0.10938 0.015625-0.078125 0-0.17188 0-0.26562v-6.0625-0.125c-0.046875-0.078125-0.14062-0.078125-0.21875-0.078125-0.03125 0-0.078125 0-0.10938 0.015625z"/>
</g>
</defs>
<g transform="translate(-149.26 -128.94)">
<use x="148.71201" y="134.765" xlink:href="#a"/>
</g>
</svg>
