<?xml version="1.0" encoding="UTF-8"?>
<svg fill="#000000" version="1.1" viewBox="0 0 3.0469 9.0781" xmlns="http://www.w3.org/2000/svg" xmlns:xlink="http://www.w3.org/1999/xlink">
<defs>
<g id="a">
<path d="m2.6094-0.95312c0.6875-0.20312 1.125-0.82812 1.125-1.4688 0-1-1.0781-1.4688-1.4844-1.6562-0.6875-0.29688-1-0.875-1-1.4375 0-0.54688 0.28125-1.2969 0.96875-1.2969 0.25 0 0.82812 0.10938 1.0625 0.67188-0.32812 0-0.35938 0.26562-0.35938 0.32812 0 0.1875 0.125 0.32812 0.32812 0.32812 0.15625 0 0.34375-0.09375 0.34375-0.35938 0-0.60938-0.60938-1.1875-1.375-1.1875-0.89062 0-1.5312 0.73438-1.5312 1.5156 0 0.625 0.42188 1.1094 1.125 1.4844-0.70312 0.20312-1.125 0.82812-1.125 1.4688 0 1 1.0625 1.4688 1.4844 1.6562 0.6875 0.29688 0.98438 0.875 0.98438 1.4375 0 0.54688-0.28125 1.2969-0.96875 1.2969-0.23438 0-0.8125-0.10938-1.0469-0.67188 0.32812 0 0.35938-0.26562 0.35938-0.32812 0-0.1875-0.14062-0.32812-0.32812-0.32812-0.17188 0-0.34375 0.09375-0.34375 0.35938 0 0.60938 0.59375 1.1875 1.375 1.1875 0.875 0 1.5312-0.73438 1.5312-1.5156 0-0.625-0.42188-1.1094-1.125-1.4844zm-0.34375-0.17188c-0.14062 0-1.0156-0.45312-1.0156-1.4375 0-0.75 0.45312-1.2969 0.90625-1.2969 0.14062 0 1 0.45312 1 1.4375 0 0.75-0.4375 1.2969-0.89062 1.2969z"/>
</g>
</defs>
<g transform="translate(-149.4 -127.73)">
<use x="148.71201" y="134.765" xlink:href="#a"/>
</g>
</svg>
