<?xml version="1.0" encoding="UTF-8"?>
<svg fill="#000000" version="1.1" viewBox="0 0 4.3125 10.094" xmlns="http://www.w3.org/2000/svg" xmlns:xlink="http://www.w3.org/1999/xlink">
<defs>
<g id="a">
<path d="m4.875 0.57812c0-0.078125-0.046875-0.15625-0.10938-0.20312l-2.3281-1.3281 0.29688-1.0938 1.7969 1.0469c0.03125 0.015625 0.078125 0.015625 0.10938 0.015625 0.125 0 0.23438-0.09375 0.23438-0.21875 0-0.078125-0.046875-0.15625-0.10938-0.20312l-1.9062-1.0938 0.59375-2.2188 1.3125-0.75c0.0625-0.046875 0.10938-0.125 0.10938-0.1875 0-0.14062-0.10938-0.23438-0.23438-0.23438-0.03125 0-0.078125 0.015625-0.10938 0.03125l-0.90625 0.53125 0.54688-2.0781c0.03125-0.09375-0.03125-0.1875-0.14062-0.1875-0.0625 0-0.125 0.03125-0.14062 0.10938l-0.64062 2.3594-2.5781 1.4844c-0.078125 0.046875-0.10938 0.10938-0.10938 0.20312s0.03125 0.15625 0.10938 0.20312l1.7969 1.0312-0.29688 1.0938-1.2812-0.75c-0.015625-0.015625-0.0625-0.03125-0.10938-0.03125-0.10938 0-0.21875 0.10938-0.21875 0.23438 0 0.078125 0.03125 0.15625 0.10938 0.20312l1.375 0.79688-0.79688 2.9688c-0.015625 0.09375 0.046875 0.1875 0.15625 0.1875 0.0625 0 0.125-0.03125 0.14062-0.10938l0.78125-2.8906 2.2031 1.2656c0.03125 0.015625 0.078125 0.03125 0.10938 0.03125 0.125 0 0.23438-0.09375 0.23438-0.21875zm-1.7969-5.0781-0.48438 1.8438-1.3438-0.78125zm1.0312 0.53125c-0.3125 0-0.54688 0.25-0.54688 0.54688s0.25 0.53125 0.54688 0.53125c0.3125 0 0.53125-0.26562 0.53125-0.53125 0-0.32812-0.25-0.54688-0.53125-0.54688z"/>
</g>
</defs>
<g transform="translate(-149.27 -127.17)">
<use x="148.71201" y="134.765" xlink:href="#a"/>
</g>
</svg>
