<?xml version="1.0" encoding="UTF-8"?>
<svg fill="#000000" version="1.1" viewBox="0 0 6.6406 4.2656" xmlns="http://www.w3.org/2000/svg" xmlns:xlink="http://www.w3.org/1999/xlink">
<defs>
<g id="a">
<path d="m7.2031-2.8125c0-0.92188-0.65625-1.8125-1.6719-1.8125-0.65625 0-1.1562 0.375-1.8281 0.89062-0.40625 0.32812-0.89062 0.6875-1.4844 0.6875-0.78125 0-1.3438-0.625-1.375-1.2344-0.015625-0.15625-0.03125-0.32812-0.14062-0.32812-0.078125 0-0.14062 0.078125-0.14062 0.3125 0 0.875 0.64062 1.7969 1.6562 1.7969 0.65625 0 1.1562-0.375 1.8281-0.89062 0.40625-0.3125 0.89062-0.67188 1.4844-0.67188 0.78125 0 1.3438 0.59375 1.3906 1.2344 0 0.14062 0.015625 0.32812 0.14062 0.32812 0.0625 0 0.14062-0.078125 0.14062-0.3125zm-6.2812 2.0625c-0.17188 0-0.35938 0-0.35938 0.1875 0 0.20312 0.17188 0.20312 0.34375 0.20312h5.9375c0.17188 0 0.35938 0 0.35938-0.20312 0-0.1875-0.1875-0.1875-0.35938-0.1875z"/>
</g>
</defs>
<g transform="translate(-149.27 -130.14)">
<use x="148.71201" y="134.765" xlink:href="#a"/>
</g>
</svg>
