<?xml version="1.0" encoding="UTF-8"?>
<svg fill="#000000" version="1.1" viewBox="0 0 4.7969 4.1719" xmlns="http://www.w3.org/2000/svg" xmlns:xlink="http://www.w3.org/1999/xlink">
<defs>
<g id="a">
<path d="m1.3438-3.3125c0.51562-0.51562 1.2031-0.875 1.9531-0.875 0.73438 0 1.4062 0.35938 1.9219 0.875l0.46875-0.45312c-0.64062-0.65625-1.4844-1.0625-2.3906-1.0625-0.92188 0-1.7656 0.40625-2.4062 1.0625zm0 1.1406-0.45312 0.45312c0.64062 0.65625 1.4844 1.0625 2.4062 1.0625 0.90625 0 1.75-0.40625 2.3906-1.0625l-0.45312-0.45312c-0.51562 0.51562-1.2031 0.875-1.9375 0.875-0.75 0-1.4219-0.35938-1.9375-0.875z"/>
</g>
</defs>
<g transform="translate(-149.6 -129.94)">
<use x="148.71201" y="134.765" xlink:href="#a"/>
</g>
</svg>
