<?xml version="1.0" encoding="UTF-8"?>
<svg fill="#000000" width="7.3281" height="7.3438" version="1.1" viewBox="0 0 7.3281 7.3437" xmlns="http://www.w3.org/2000/svg" xmlns:xlink="http://www.w3.org/1999/xlink">
<defs>
<g id="a">
<path d="m5.7656-4.8438-0.046875-0.17188c-0.0625-0.125-0.21875-0.23438-0.35938-0.23438l-0.17188 0.0625-0.14062 0.078125c-0.0625 0.09375-0.09375 0.1875-0.09375 0.26562 0.046875 0.25 0.20312 0.40625 0.40625 0.40625l0.29688-0.14062c0.078125-0.10938 0.10938-0.20312 0.10938-0.26562zm-2.5312 0-0.10938-0.29688c-0.0625-0.046875-0.10938-0.0625-0.15625-0.078125l-0.14062-0.03125c-0.17188 0.0625-0.28125 0.10938-0.3125 0.14062l-0.10938 0.26562 0.125 0.28125c0.15625 0.078125 0.26562 0.10938 0.29688 0.10938 0.3125-0.10938 0.40625-0.1875 0.40625-0.39062zm3.1562 3.3438v-0.03125c-0.015625 0.0625-0.03125 0.078125-0.26562 0.28125-0.625-0.76562-1.25-1.1562-1.8906-1.1562-0.6875 0-1.3594 0.42188-2.0625 1.25-0.75-0.59375-1.1719-1.4531-1.1719-2.4219 0-1.7031 1.3906-3.0938 3.0938-3.0938 2.0938 0 3.0938 1.7656 3.0938 3.0938 0 0.8125-0.26562 1.5-0.79688 2.0781zm-0.3125 0.29688c-0.28125 0.28125-0.90625 0.71875-1.8125 0.71875-0.75-0.015625-1.125-0.078125-1.625-0.34375 0.015625-0.015625 0.03125-0.015625 0.046875-0.015625-0.09375-0.015625-0.15625-0.03125-0.46875-0.26562 0.6875-0.57812 1.3438-0.85938 2.0156-0.85938 0.625 0 1.2344 0.25 1.8438 0.76562zm1.6719-2.375c0-2.0312-1.625-3.6719-3.6562-3.6719-2.0156 0-3.6719 1.6406-3.6719 3.6719 0 2.0781 1.6094 3.6719 3.6719 3.6719s3.6562-1.625 3.6562-3.6719z"/>
</g>
</defs>
<g transform="translate(-149.13 -127.52)">
<use x="148.71201" y="134.765" xlink:href="#a"/>
</g>
</svg>
