<?xml version="1.0" encoding="UTF-8"?>
<svg fill="#000000" version="1.1" viewBox="0 0 3.5312 9.9844" xmlns="http://www.w3.org/2000/svg" xmlns:xlink="http://www.w3.org/1999/xlink">
<defs>
<g id="a">
<path d="m2.8281-6.1562c0-0.39062 0.25-1.0312 1.3438-1.0938 0.046875-0.015625 0.078125-0.0625 0.078125-0.10938 0-0.125-0.078125-0.125-0.1875-0.125-0.98438 0-1.9062 0.51562-1.9062 1.25v2.2812c0 0.39062 0 0.70312-0.40625 1.0312-0.34375 0.29688-0.71875 0.3125-0.9375 0.3125-0.0625 0.015625-0.09375 0.0625-0.09375 0.10938 0 0.10938 0.0625 0.10938 0.15625 0.125 0.65625 0.03125 1.1406 0.39062 1.25 0.875 0.03125 0.10938 0.03125 0.14062 0.03125 0.5v1.9688c0 0.42188 0 0.73438 0.46875 1.1094 0.39062 0.29688 1.0469 0.42188 1.4375 0.42188 0.10938 0 0.1875 0 0.1875-0.125 0-0.09375-0.046875-0.09375-0.15625-0.10938-0.625-0.03125-1.1094-0.35938-1.25-0.85938-0.015625-0.09375-0.015625-0.10938-0.015625-0.46875v-2.0938c0-0.45312-0.09375-0.625-0.40625-0.95312-0.20312-0.20312-0.5-0.29688-0.78125-0.39062 0.82812-0.21875 1.1875-0.6875 1.1875-1.2656z"/>
</g>
</defs>
<g transform="translate(-149.43 -127.28)">
<use x="148.71201" y="134.765" xlink:href="#a"/>
</g>
</svg>
