<?xml version="1.0" encoding="UTF-8"?>
<svg fill="#000000" version="1.1" viewBox="0 0 8.9375 10.188" xmlns="http://www.w3.org/2000/svg" xmlns:xlink="http://www.w3.org/1999/xlink">
<defs>
<g id="a">
<path d="m9.4531 9.5312v-0.28125h-0.1875c-0.65625 0-0.98438-0.42188-0.98438-1.2656v-7.1719c0-0.84375 0.28125-1.1875 1.1719-1.1875v-0.28125h-8.9375v0.28125h0.17188c0.625 0 1 0.25 1 1.2344v7.3125c0 0.71875-0.3125 1.0781-0.98438 1.0781h-0.1875v0.28125h3.6719v-0.28125h-0.3125c-0.65625 0-0.875-0.40625-0.875-1.3281v-7.9219h3.9844v7.9219c0 0.76562-0.1875 1.3281-0.89062 1.3281h-0.3125v0.28125z"/>
</g>
</defs>
<g transform="translate(-149.23 -127.17)">
<use x="148.71201" y="127.823" xlink:href="#a"/>
</g>
</svg>
