<?xml version="1.0" encoding="UTF-8"?>
<svg fill="#000000" width="5.8594" height="4.3438" version="1.1" viewBox="0 0 5.8594 4.3437" xmlns="http://www.w3.org/2000/svg" xmlns:xlink="http://www.w3.org/1999/xlink">
<defs>
<g id="a">
<path d="m6.3438-3.1875v-0.65625h-1.5469c-0.15625-0.40625-0.70312-0.84375-1.3906-0.84375s-1.1719 0.4375-1.375 0.84375h-1.5469v0.65625h2.0938c0-0.40625 0.3125-0.84375 0.84375-0.84375 0.5 0 0.82812 0.4375 0.82812 0.84375zm0 1.9844v-0.65625h-2.0938c0 0.40625-0.29688 0.85938-0.82812 0.85938-0.48438 0-0.84375-0.45312-0.84375-0.85938h-2.0938v0.65625h1.5469c0.15625 0.42188 0.70312 0.85938 1.3906 0.85938s1.1719-0.4375 1.375-0.85938z"/>
</g>
</defs>
<g transform="translate(-149.2 -130.08)">
<use x="148.71201" y="134.765" xlink:href="#a"/>
</g>
</svg>
