<?xml version="1.0" encoding="UTF-8"?>
<svg fill="#000000" version="1.1" viewBox="0 0 5.882 6.6358" xmlns="http://www.w3.org/2000/svg" xmlns:xlink="http://www.w3.org/1999/xlink">
<defs>
<g id="a">
<path d="m3.8125-5.8125c-0.28125 0.046875-0.5 0.29688-0.5 0.57812 0.015625 0.10938 0.0625 0.20312 0.09375 0.3125s0.0625 0.20312 0.10938 0.3125c0.10938 0.35938 0.1875 0.71875 0.21875 1.0938 0.015625 0.14062 0.03125 0.3125 0.03125 0.45312-0.015625 0.078125-0.03125 0.15625-0.078125 0.1875-0.0625 0.046875-0.15625 0.015625-0.21875-0.015625-0.17188-0.09375-0.3125-0.1875-0.46875-0.3125-0.3125-0.23438-0.60938-0.53125-0.875-0.82812-0.09375-0.09375-0.17188-0.20312-0.26562-0.28125-0.1875-0.14062-0.42188-0.17188-0.625-0.0625-0.34375 0.1875-0.39062 0.70312-0.078125 0.95312 0.125 0.078125 0.25 0.10938 0.39062 0.125 0.09375 0.015625 0.1875 0.03125 0.28125 0.0625 0.39062 0.078125 0.78125 0.1875 1.125 0.35938 0.14062 0.0625 0.28125 0.14062 0.39062 0.21875 0.0625 0.03125 0.125 0.078125 0.125 0.14062 0.015625 0.078125-0.0625 0.14062-0.10938 0.17188-0.125 0.09375-0.28125 0.15625-0.4375 0.23438-0.34375 0.15625-0.71875 0.25-1.0938 0.34375-0.09375 0.015625-0.1875 0.046875-0.29688 0.0625s-0.23438 0.03125-0.34375 0.10938c-0.3125 0.20312-0.32812 0.6875-0.03125 0.92188 0.20312 0.14062 0.46875 0.15625 0.67188 0 0.15625-0.10938 0.26562-0.28125 0.39062-0.40625 0.25-0.26562 0.51562-0.53125 0.82812-0.75 0.14062-0.10938 0.26562-0.20312 0.42188-0.28125 0.0625-0.03125 0.125-0.078125 0.20312-0.03125 0.0625 0.03125 0.078125 0.10938 0.09375 0.17188 0 0.17188-0.015625 0.32812-0.03125 0.5-0.03125 0.35938-0.125 0.73438-0.23438 1.0781-0.03125 0.09375-0.0625 0.21875-0.09375 0.3125-0.046875 0.10938-0.09375 0.21875-0.09375 0.34375 0 0.32812 0.3125 0.59375 0.64062 0.54688 0.28125-0.03125 0.5-0.29688 0.5-0.57812-0.015625-0.10938-0.0625-0.21875-0.09375-0.3125-0.03125-0.10938-0.0625-0.21875-0.10938-0.32812-0.10938-0.34375-0.1875-0.70312-0.21875-1.0625-0.015625-0.17188-0.03125-0.32812-0.03125-0.48438 0.015625-0.078125 0.03125-0.15625 0.09375-0.1875 0.0625-0.046875 0.14062 0 0.20312 0.03125 0.15625 0.078125 0.3125 0.1875 0.45312 0.28125 0.32812 0.25 0.625 0.54688 0.89062 0.84375 0.09375 0.10938 0.17188 0.21875 0.26562 0.29688 0.1875 0.14062 0.42188 0.17188 0.625 0.0625 0.34375-0.1875 0.40625-0.70312 0.078125-0.95312-0.125-0.09375-0.25-0.10938-0.39062-0.125-0.09375-0.015625-0.1875-0.046875-0.28125-0.0625-0.39062-0.09375-0.78125-0.20312-1.125-0.375-0.14062-0.046875-0.28125-0.125-0.39062-0.20312-0.0625-0.03125-0.125-0.078125-0.125-0.15625-0.015625-0.0625 0.046875-0.10938 0.09375-0.15625 0.125-0.078125 0.25-0.14062 0.39062-0.20312 0.34375-0.17188 0.71875-0.28125 1.0938-0.375 0.10938-0.015625 0.23438-0.046875 0.34375-0.0625s0.21875-0.03125 0.32812-0.09375c0.34375-0.1875 0.375-0.70312 0.046875-0.95312-0.1875-0.125-0.46875-0.125-0.65625 0-0.078125 0.0625-0.14062 0.14062-0.20312 0.20312-0.09375 0.10938-0.1875 0.21875-0.28125 0.32812-0.23438 0.25-0.48438 0.46875-0.75 0.65625-0.125 0.09375-0.26562 0.20312-0.40625 0.26562-0.0625 0.015625-0.125 0.0625-0.1875 0.046875-0.078125-0.03125-0.09375-0.125-0.10938-0.20312 0-0.15625 0.015625-0.32812 0.03125-0.5 0.03125-0.35938 0.125-0.71875 0.23438-1.0625 0.03125-0.10938 0.0625-0.21875 0.09375-0.3125 0.046875-0.10938 0.09375-0.21875 0.09375-0.34375 0-0.32812-0.3125-0.59375-0.64062-0.54688z"/>
</g>
</defs>
<g transform="translate(-149.66 -128.95)">
<use x="148.71201" y="134.765" xlink:href="#a"/>
</g>
</svg>
