<?xml version="1.0" encoding="UTF-8"?>
<svg fill="#000000" version="1.1" viewBox="0 0 8.8594 8.8594" xmlns="http://www.w3.org/2000/svg" xmlns:xlink="http://www.w3.org/1999/xlink">
<defs>
<g id="a">
<path d="m8.9844-2.5c0 1.0781-0.40625 2.0938-1.1719 2.8594-0.75 0.75-1.7656 1.1719-2.8438 1.1719-1.0625 0-2.0938-0.42188-2.8438-1.1875-0.75-0.75-1.1719-1.7656-1.1719-2.8438 0-1.0625 0.42188-2.0781 1.1875-2.8438 0.73438-0.75 1.7656-1.1719 2.8281-1.1719 1.0781 0 2.0938 0.42188 2.8594 1.1875 0.75 0.75 1.1562 1.7656 1.1562 2.8281zm-7.1406-3.125c-0.82812 0.84375-1.2969 1.9531-1.2969 3.125 0 1.1875 0.46875 2.2969 1.3125 3.1406 0.82812 0.82812 1.9375 1.2969 3.1094 1.2969 1.1875 0 2.2969-0.46875 3.1406-1.3125 0.82812-0.82812 1.2969-1.9375 1.2969-3.125 0-1.1719-0.46875-2.2812-1.3125-3.125-0.82812-0.82812-1.9375-1.2969-3.125-1.2969-1.1719 0-2.2812 0.46875-3.125 1.2969z"/>
</g>
</defs>
<g transform="translate(-149.26 -127.84)">
<use x="148.71201" y="134.765" xlink:href="#a"/>
</g>
</svg>
