<?xml version="1.0" encoding="UTF-8"?>
<svg fill="#000000" version="1.1" viewBox="0 0 8.9375 10.188" xmlns="http://www.w3.org/2000/svg" xmlns:xlink="http://www.w3.org/1999/xlink">
<defs>
<g id="a">
<path d="m9.4531 9.5312v-0.28125c-0.89062 0-1.1719-0.34375-1.1719-1.1875v-7.1719c0-0.84375 0.32812-1.2656 0.98438-1.2656h0.1875v-0.28125h-3.6719v0.28125h0.3125c0.70312 0 0.89062 0.5625 0.89062 1.3281v7.9219h-3.9844v-7.9219c0-0.92188 0.21875-1.3281 0.875-1.3281h0.3125v-0.28125h-3.6719v0.28125h0.1875c0.67188 0 0.98438 0.35938 0.98438 1.0781v7.3125c0 0.98438-0.375 1.2344-1 1.2344h-0.17188v0.28125z"/>
</g>
</defs>
<g transform="translate(-149.23 -127.17)">
<use x="148.71201" y="127.823" xlink:href="#a"/>
</g>
</svg>
