<?xml version="1.0" encoding="UTF-8"?>
<svg fill="#000000" version="1.1" viewBox="0 0 6.625 6.8594" xmlns="http://www.w3.org/2000/svg" xmlns:xlink="http://www.w3.org/1999/xlink">
<defs>
<g id="a">
<path d="m2.3594-2.5h1.875c0.10938 0 0.26562 0 0.4375-0.046875 0.125-0.03125 0.03125-0.03125 0.09375-0.0625-0.0625-0.015625 0.03125-0.015625-0.09375-0.046875-0.17188-0.046875-0.32812-0.046875-0.4375-0.046875h-1.8281l0.78125-3.125h3.4688c0.10938 0 0.26562 0 0.4375-0.046875 0.125-0.03125 0.03125-0.03125 0.09375-0.0625-0.0625-0.03125 0.03125-0.03125-0.09375-0.046875-0.17188-0.046875-0.32812-0.046875-0.4375-0.046875h-3.8906c-0.26562 0-0.39062 0.015625-0.54688 0.078125l-1.625 6.5156c-0.015625 0.046875-0.03125 0.10938-0.03125 0.14062 0 0.125 0.42188 0.125 0.5 0.125 0.03125 0 0.21875 0 0.35938-0.03125 0.10938-0.03125 0.10938-0.046875 0.15625-0.21875z"/>
</g>
</defs>
<g transform="translate(-149.27 -128.73)">
<use x="148.71201" y="134.765" xlink:href="#a"/>
</g>
</svg>
