<?xml version="1.0" encoding="UTF-8"?>
<svg fill="#000000" version="1.1" viewBox="0 0 4.7969 8.1406" xmlns="http://www.w3.org/2000/svg" xmlns:xlink="http://www.w3.org/1999/xlink">
<defs>
<g id="a">
<path d="m3.125-0.98438 0.5625-2.1406c0.54688-0.17188 1.1094-0.25 1.6719-0.25h0.32812v-0.64062h-0.32812c-0.46875 0-0.9375-0.0625-1.375-0.17188l0.65625-2.4688-0.54688-0.15625-0.67188 2.4531c-0.76562-0.28125-1.4844-0.75-2.0625-1.3594l-0.46875 0.4375c0.67188 0.70312 1.4844 1.2188 2.375 1.5469l-0.03125 0.078125c-0.875 0.32812-1.6875 0.84375-2.3438 1.5469l0.46875 0.42188c0.48438-0.5 1.0469-0.92188 1.6719-1.1875l-0.45312 1.6562c-0.10938-0.03125-0.25-0.03125-0.39062-0.03125-0.51562 0-0.90625 0.40625-1.2969 0.79688l0.39062 0.35938c0.25-0.25 0.54688-0.53125 0.92188-0.53125 0.0625 0 0.14062 0 0.20312 0.03125l-0.46875 1.7656 0.5625 0.15625 0.4375-1.6562c0.046875 0.03125 0.10938 0.0625 0.15625 0.10938 0.35938 0.3125 0.79688 0.5625 1.2969 0.5625 0.53125 0 0.90625-0.42188 1.2969-0.79688l-0.39062-0.39062c-0.25 0.26562-0.54688 0.54688-0.92188 0.54688-0.5 0-0.89062-0.45312-1.25-0.6875z"/>
</g>
</defs>
<g transform="translate(-149.6 -127.95)">
<use x="148.71201" y="134.765" xlink:href="#a"/>
</g>
</svg>
