<?xml version="1.0" encoding="UTF-8"?>
<svg fill="#000000" version="1.1" viewBox="0 0 6.625 6.8906" xmlns="http://www.w3.org/2000/svg" xmlns:xlink="http://www.w3.org/1999/xlink">
<defs>
<g id="a">
<path d="m4.4219-5.3906c0-0.34375-0.29688-0.54688-0.54688-0.54688-0.28125 0-0.54688 0.21875-0.54688 0.54688 0 0.34375 0.29688 0.54688 0.54688 0.54688 0.26562 0 0.54688-0.21875 0.54688-0.54688zm0 5.7969c0-0.34375-0.29688-0.54688-0.54688-0.54688-0.28125 0-0.54688 0.21875-0.54688 0.54688s0.26562 0.54688 0.54688 0.54688c0.25 0 0.54688-0.20312 0.54688-0.54688zm-3.5-2.125c-0.17188 0-0.35938 0-0.35938 0.1875 0 0.20312 0.17188 0.20312 0.34375 0.20312h5.9375c0.17188 0 0.34375 0 0.34375-0.20312 0-0.1875-0.17188-0.1875-0.35938-0.1875zm-0.015625-1.9375c-0.17188 0-0.34375 0-0.34375 0.20312 0 0.1875 0.1875 0.1875 0.35938 0.1875h5.9062c0.1875 0 0.35938 0 0.35938-0.1875 0-0.20312-0.17188-0.20312-0.34375-0.20312z"/>
</g>
</defs>
<g transform="translate(-149.27 -128.83)">
<use x="148.71201" y="134.765" xlink:href="#a"/>
</g>
</svg>
