<?xml version="1.0" encoding="UTF-8"?>
<svg fill="#000000" width="4.3125" height="9.2188" version="1.1" viewBox="0 0 4.3125 9.2187" xmlns="http://www.w3.org/2000/svg" xmlns:xlink="http://www.w3.org/1999/xlink">
<defs>
<g id="a">
<path d="m1.125-5c0 0.046875 0.015625 0.09375 0.046875 0.14062 0.45312 0.54688 1.0156 0.98438 1.6719 1.2656l-0.29688 1.125c-1.1094-0.60938-1.5625-1.2031-1.7656-1.2031-0.14062 0-0.21875 0.10938-0.21875 0.23438 0 0.0625 0.015625 0.125 0.078125 0.17188 0.53125 0.45312 1.1406 0.90625 1.7812 1.2344l-0.23438 0.85938c-0.54688 0.32812-1.0781 0.71875-1.5469 1.125-0.0625 0.046875-0.078125 0.10938-0.078125 0.17188 0 0.125 0.078125 0.23438 0.21875 0.23438 0.17188 0 0.40625-0.32812 1.2344-0.875l-0.64062 2.3906c-0.015625 0.09375 0.046875 0.1875 0.15625 0.1875 0.046875 0 0.10938-0.046875 0.14062-0.125l0.71875-2.6875c0.70312-0.40625 1.4531-0.67188 2.25-0.67188 0.14062 0 0.23438-0.10938 0.23438-0.23438s-0.09375-0.23438-0.23438-0.23438c-0.64062 0-1.2344-0.15625-1.8281-0.4375l0.3125-1.1562c0.46875 0.1875 0.98438 0.28125 1.5156 0.28125 0.14062 0 0.23438-0.10938 0.23438-0.23438s-0.09375-0.23438-0.23438-0.23438c-0.48438 0-0.96875-0.09375-1.4062-0.25l0.82812-3.0469c0.015625-0.09375-0.046875-0.1875-0.15625-0.1875-0.0625 0-0.125 0.046875-0.14062 0.125l-0.8125 3c-0.54688-0.26562-1.0312-0.64062-1.4219-1.125-0.046875-0.046875-0.10938-0.078125-0.17188-0.078125-0.125 0-0.23438 0.09375-0.23438 0.23438zm1.5625 3.1094c0.1875 0.09375 0.39062 0.17188 0.59375 0.23438-0.25 0.078125-0.48438 0.1875-0.73438 0.29688z"/>
</g>
</defs>
<g transform="translate(-149.27 -127.61)">
<use x="148.71201" y="134.765" xlink:href="#a"/>
</g>
</svg>
