<?xml version="1.0" encoding="UTF-8"?>
<svg fill="#000000" version="1.1" viewBox="0 0 5.3281 6.3125" xmlns="http://www.w3.org/2000/svg" xmlns:xlink="http://www.w3.org/1999/xlink">
<defs>
<g id="a">
<path d="m6.2031-4.4531c-0.046875 0-0.10938 0.015625-0.15625 0.0625l-1.5156 1.5156-1.1562-2.4844c-0.015625-0.046875-0.078125-0.078125-0.125-0.078125-0.10938 0-0.17188 0.10938-0.14062 0.20312l1.2031 2.5781-1.4688 1.4688-1.3438-1.3594c-0.046875-0.03125-0.10938-0.0625-0.17188-0.0625-0.10938 0-0.21875 0.09375-0.21875 0.23438 0 0.0625 0.015625 0.10938 0.0625 0.15625l3.0312 3.0312c0.046875 0.046875 0.10938 0.0625 0.15625 0.0625 0.10938 0 0.21875-0.09375 0.21875-0.23438 0-0.046875-0.015625-0.10938-0.046875-0.15625l-1.3594-1.3594 1.3594-1.3438 1.1562 2.4844c0.03125 0.078125 0.10938 0.10938 0.1875 0.078125s0.10938-0.125 0.078125-0.20312l-1.2031-2.5781 1.625-1.625c0.046875-0.046875 0.0625-0.10938 0.0625-0.17188 0-0.10938-0.078125-0.21875-0.23438-0.21875z"/>
</g>
</defs>
<g transform="translate(-149.82 -129.33)">
<use x="148.71201" y="134.765" xlink:href="#a"/>
</g>
</svg>
