<?xml version="1.0" encoding="UTF-8"?>
<svg fill="#000000" version="1.1" viewBox="0 0 8.8556 1.7194" xmlns="http://www.w3.org/2000/svg" xmlns:xlink="http://www.w3.org/1999/xlink">
<defs>
<g id="a">
<path d="m7.9375-2.2969c-0.15625 0.15625-0.29688 0.32812-0.45312 0.51562-0.10938 0.14062-0.23438 0.28125-0.34375 0.42188-0.046875 0.078125-0.10938 0.14062-0.14062 0.21875-0.015625 0.03125-0.015625 0.03125-0.015625 0.046875 0 0.125 0.15625 0.10938 0.23438 0.10938h0.09375c0.0625-0.03125 0.125-0.10938 0.17188-0.15625 0.10938-0.078125 0.21875-0.1875 0.32812-0.28125 0.34375-0.26562 0.70312-0.51562 1.0781-0.73438 0.09375-0.0625 0.20312-0.10938 0.3125-0.17188 0.0625-0.03125 0.125-0.046875 0.17188-0.10938 0.046875-0.03125 0.046875-0.14062 0.03125-0.1875-0.03125-0.0625-0.09375-0.078125-0.15625-0.078125h-0.375-7.875-0.28125c-0.046875 0-0.10938 0-0.14062 0.046875-0.015625 0.046875-0.015625 0.09375-0.015625 0.14062s-0.015625 0.125 0.03125 0.17188c0.03125 0.046875 0.078125 0.046875 0.14062 0.046875h0.3125z"/>
</g>
</defs>
<g transform="translate(-149.27 -132.06)">
<use x="148.71201" y="134.765" xlink:href="#a"/>
</g>
</svg>
