<?xml version="1.0" encoding="UTF-8"?>
<svg fill="#000000" version="1.1" viewBox="0 0 7.4375 7.4375" xmlns="http://www.w3.org/2000/svg" xmlns:xlink="http://www.w3.org/1999/xlink">
<defs>
<g id="a">
<path d="m6.0781-2.9062c0.046875 0 0.09375 0 0.125-0.03125 0.64062-0.4375 1.3281-0.79688 2.0938-0.79688 0.125 0 0.20312 0.015625 0.21875 0.015625 0.125 0 0.23438-0.09375 0.23438-0.23438 0-0.375-0.84375-0.14062-1.7188-2.0312-0.046875-0.078125-0.125-0.125-0.21875-0.125-0.14062 0-0.21875 0.10938-0.21875 0.23438 0 0.1875 0.51562 0.89062 0.76562 1.3438-0.15625-0.015625-0.32812-0.03125-0.48438-0.03125-0.98438 0-1.9531 0.35938-2.7031 1.0469l-1.0938-1.5625c-0.0625-0.078125-0.14062-0.078125-0.21875-0.046875-0.0625 0.046875-0.078125 0.14062-0.03125 0.20312l1.125 1.625c-0.71875 0.75-1.0938 1.75-1.0938 2.75 0 0.17188 0.015625 0.34375 0.03125 0.5-0.39062-0.23438-1.1719-0.78125-1.3594-0.78125-0.10938 0-0.21875 0.09375-0.21875 0.23438 0 0.078125 0.046875 0.17188 0.125 0.20312 1.8906 0.89062 1.6562 1.7188 2.0156 1.7188 0.15625 0 0.25-0.10938 0.25-0.23438 0-0.015625-0.015625-0.09375-0.015625-0.21875 0-1.1719 0.82812-2.0156 0.82812-2.2031 0-0.14062-0.09375-0.23438-0.23438-0.23438-0.0625 0-0.14062 0.03125-0.1875 0.09375-0.29688 0.42188-0.48438 0.92188-0.75 1.375-0.015625-0.15625-0.03125-0.3125-0.03125-0.45312 0-0.85938 0.3125-1.7031 0.92188-2.375l1.0938 1.5625c0.03125 0.078125 0.14062 0.09375 0.20312 0.046875s0.078125-0.14062 0.03125-0.21875l-1.125-1.5938c0.67188-0.64062 1.5469-0.96875 2.4375-0.96875 0.14062 0 0.29688 0 0.4375 0.03125-0.4375 0.25-0.9375 0.4375-1.3594 0.75-0.078125 0.046875-0.09375 0.10938-0.09375 0.1875 0 0.0625 0.046875 0.21875 0.21875 0.21875z"/>
</g>
</defs>
<g transform="translate(-150.02 -128.66)">
<use x="148.71201" y="134.765" xlink:href="#a"/>
</g>
</svg>
