<?xml version="1.0" encoding="UTF-8"?>
<svg fill="#000000" width="3.2188" height="8.0938" version="1.1" viewBox="0 0 3.2188 8.0937" xmlns="http://www.w3.org/2000/svg" xmlns:xlink="http://www.w3.org/1999/xlink">
<defs>
<g id="a">
<path d="m1.75-6.375v0.23438c0 1.1719-0.82812 2.0156-0.82812 2.2188 0 0.125 0.09375 0.21875 0.21875 0.21875 0.21875 0 0.32812-0.29688 0.76562-1.1406 0.17188 0.96875 0.82812 1.2656 0.82812 1.9375 0 0.96875-1.4219 1.4375-1.4219 2.6406 0 0.78125 0.65625 1.2812 1.0625 1.7031 0.046875 0.03125 0.10938 0.0625 0.17188 0.0625 0.10938 0 0.21875-0.078125 0.21875-0.21875 0-0.29688-1-0.76562-1-1.5469 0-0.98438 1.4375-1.4375 1.4375-2.6406 0-0.6875-0.53125-1.1562-0.73438-1.6406-0.09375-0.23438-0.14062-0.51562-0.15625-0.79688 0.53125 0.26562 1.3594 0.90625 1.5938 0.90625 0.10938 0 0.23438-0.09375 0.23438-0.23438 0-0.078125-0.046875-0.15625-0.14062-0.20312-1.9062-0.89062-1.6406-1.7188-2.0312-1.7188-0.14062 0-0.21875 0.10938-0.21875 0.21875z"/>
</g>
</defs>
<g transform="translate(-149.63 -128.17)">
<use x="148.71201" y="134.765" xlink:href="#a"/>
</g>
</svg>
