<?xml version="1.0" encoding="UTF-8"?>
<svg fill="#000000" version="1.1" viewBox="0 0 5.3438 4.7812" xmlns="http://www.w3.org/2000/svg" xmlns:xlink="http://www.w3.org/1999/xlink">
<defs>
<g id="a">
<path d="m2.9844-5.5469c-0.29688 0-0.53125 0.25-0.53125 0.54688 0 0.3125 0.25 0.53125 0.53125 0.53125 0.32812 0 0.54688-0.25 0.54688-0.53125 0-0.32812-0.25-0.54688-0.54688-0.54688zm-2.125 3.7031c-0.3125 0-0.54688 0.25-0.54688 0.53125 0 0.3125 0.25 0.54688 0.54688 0.54688 0.3125 0 0.53125-0.26562 0.53125-0.54688 0-0.3125-0.25-0.53125-0.53125-0.53125zm4.2656 0c-0.3125 0-0.54688 0.25-0.54688 0.53125 0 0.3125 0.25 0.54688 0.54688 0.54688 0.3125 0 0.53125-0.26562 0.53125-0.54688 0-0.3125-0.25-0.53125-0.53125-0.53125z"/>
</g>
</defs>
<g transform="translate(-149.02 -129.22)">
<use x="148.71201" y="134.765" xlink:href="#a"/>
</g>
</svg>
