<?xml version="1.0" encoding="UTF-8"?>
<svg fill="#000000" version="1.1" viewBox="0 0 8.8556 1.7194" xmlns="http://www.w3.org/2000/svg" xmlns:xlink="http://www.w3.org/1999/xlink">
<defs>
<g id="a">
<path d="m2.0312-2.2969h6.8906 0.3125c0.0625 0 0.10938 0 0.14062-0.046875 0.046875-0.046875 0.03125-0.125 0.03125-0.17188s0-0.09375-0.015625-0.14062c-0.03125-0.046875-0.09375-0.046875-0.14062-0.046875h-0.28125-7.875-0.375c-0.0625 0-0.125 0.015625-0.15625 0.078125-0.015625 0.046875-0.015625 0.15625 0.03125 0.1875 0.046875 0.0625 0.10938 0.078125 0.17188 0.10938 0.10938 0.0625 0.21875 0.10938 0.3125 0.17188 0.375 0.21875 0.73438 0.46875 1.0781 0.73438 0.10938 0.09375 0.21875 0.20312 0.32812 0.28125 0.046875 0.046875 0.10938 0.125 0.17188 0.15625h0.09375c0.078125 0 0.23438 0.015625 0.23438-0.10938 0-0.015625 0-0.015625-0.015625-0.046875-0.03125-0.078125-0.09375-0.14062-0.14062-0.21875-0.10938-0.14062-0.23438-0.28125-0.34375-0.42188-0.15625-0.1875-0.29688-0.35938-0.45312-0.51562z"/>
</g>
</defs>
<g transform="translate(-149.27 -132.06)">
<use x="148.71201" y="134.765" xlink:href="#a"/>
</g>
</svg>
