<?xml version="1.0" encoding="UTF-8"?>
<svg fill="#000000" version="1.1" viewBox="0 0 6.625 10.453" xmlns="http://www.w3.org/2000/svg" xmlns:xlink="http://www.w3.org/1999/xlink">
<defs>
<g id="a">
<path d="m6.7031-4.7812c0.10938-0.046875 0.21875-0.09375 0.21875-0.21875 0-0.14062-0.10938-0.1875-0.21875-0.23438l-5.5-2.2969c-0.10938-0.046875-0.14062-0.0625-0.17188-0.0625-0.10938 0-0.20312 0.09375-0.20312 0.20312 0 0.125 0.09375 0.15625 0.20312 0.21875l5.1719 2.1562-5.1406 2.1719c-0.14062 0.046875-0.23438 0.09375-0.23438 0.21875 0 0.10938 0.09375 0.20312 0.20312 0.20312 0.03125 0 0.046875 0 0.1875-0.0625zm0.48438 6.0312c0-0.21875-0.0625-0.3125-0.14062-0.3125-0.10938 0-0.125 0.17188-0.14062 0.3125-0.046875 0.54688-0.64062 1.0469-1.375 1.0469-0.59375 0-1.0469-0.29688-1.7188-0.73438-0.4375-0.28125-0.96875-0.64062-1.5938-0.64062-0.92188 0-1.6562 0.71875-1.6562 1.625 0 0.21875 0.0625 0.29688 0.14062 0.29688 0.09375 0 0.14062-0.17188 0.14062-0.21875 0.046875-0.82812 0.84375-1.1406 1.375-1.1406 0.59375 0 1.0469 0.29688 1.7188 0.75 0.42188 0.28125 0.95312 0.625 1.5938 0.625 0.9375 0 1.6562-0.73438 1.6562-1.6094zm0-2.3281c0-0.20312-0.0625-0.3125-0.14062-0.3125-0.10938 0-0.125 0.17188-0.14062 0.32812-0.046875 0.54688-0.64062 1.0469-1.375 1.0469-0.59375 0-1.0469-0.29688-1.7188-0.75-0.4375-0.28125-0.96875-0.625-1.5938-0.625-0.92188 0-1.6562 0.71875-1.6562 1.625 0 0.21875 0.0625 0.29688 0.14062 0.29688 0.09375 0 0.14062-0.1875 0.14062-0.23438 0.046875-0.8125 0.84375-1.1406 1.375-1.1406 0.59375 0 1.0469 0.3125 1.7188 0.75 0.42188 0.28125 0.95312 0.625 1.5938 0.625 0.9375 0 1.6562-0.73438 1.6562-1.6094z"/>
</g>
</defs>
<g transform="translate(-149.27 -127.17)">
<use x="148.71201" y="134.765" xlink:href="#a"/>
</g>
</svg>
