<?xml version="1.0" encoding="UTF-8"?>
<svg fill="#000000" version="1.1" viewBox="0 0 2.1875 4.8125" xmlns="http://www.w3.org/2000/svg" xmlns:xlink="http://www.w3.org/1999/xlink">
<defs>
<g id="a">
<path d="m1.8438-2.4062c0.625-0.625 1.1094-1.375 1.4219-2.1875 0.015625-0.046875 0.03125-0.09375 0.03125-0.125 0-0.0625-0.015625-0.09375-0.09375-0.10938-0.125 0-0.26562 0.40625-0.39062 0.59375-0.40625 0.64062-0.92188 1.1875-1.5312 1.6406-0.0625 0.046875-0.17188 0.09375-0.17188 0.17188v0.015625c0 0.078125 0.21875 0.1875 0.3125 0.26562 0.625 0.5 1.1562 1.1094 1.5312 1.8125 0.03125 0.03125 0.125 0.3125 0.25 0.3125h0.03125c0.0625-0.015625 0.0625-0.046875 0.0625-0.09375 0-0.17188-0.14062-0.40625-0.21875-0.5625-0.20312-0.4375-0.46875-0.85938-0.78125-1.2344-0.14062-0.17188-0.26562-0.35938-0.45312-0.5z"/>
</g>
</defs>
<g transform="translate(-149.82 -129.94)">
<use x="148.71201" y="134.765" xlink:href="#a"/>
</g>
</svg>
