<?xml version="1.0" encoding="UTF-8"?>
<svg fill="#000000" version="1.1" viewBox="0 0 6.0938 7.3125" xmlns="http://www.w3.org/2000/svg" xmlns:xlink="http://www.w3.org/1999/xlink">
<defs>
<g id="a">
<path d="m6.9219-4.4219c0-0.20312-0.21875-0.20312-0.29688-0.20312-1.5781-0.015625-4-0.46875-4.2812-2.4375-0.015625-0.09375-0.046875-0.25-0.20312-0.25-0.09375 0-0.20312 0.078125-0.20312 0.21875 0 0.015625 0.03125 0.53125 0.34375 1.0781 0.9375 1.5625 3.375 1.7812 4.2344 1.7812 0.25 0 0.40625 0 0.40625-0.1875zm-2.8906 1.5469c-1.125 0.20312-2.2656 0.60938-2.8438 1.5625-0.1875 0.3125-0.35938 0.75-0.35938 1.1094 0 0.125 0.09375 0.20312 0.20312 0.20312 0.03125 0 0.17188-0.015625 0.1875-0.17188 0.09375-0.64062 0.3125-1.6562 2.3438-2.2031 1.125-0.29688 2.6406-0.3125 2.875-0.3125 0.3125 0 0.48438 0 0.48438-0.20312s-0.21875-0.20312-0.375-0.20312h-0.29688c-0.79688 0-1.8281-0.09375-2.625-0.28125-1.5625-0.39062-2.2344-1.1562-2.3906-2.1406-0.015625-0.10938-0.03125-0.25-0.20312-0.25-0.10938 0-0.20312 0.0625-0.20312 0.20312 0 0.09375 0.078125 1.0312 0.85938 1.6875 0.48438 0.40625 1.2031 0.79688 2.3438 0.98438z"/>
</g>
</defs>
<g transform="translate(-149.54 -127.45)">
<use x="148.71201" y="134.765" xlink:href="#a"/>
</g>
</svg>
