<?xml version="1.0" encoding="UTF-8"?>
<svg fill="#000000" width="4.7969" height="4.7188" version="1.1" viewBox="0 0 4.7969 4.7187" xmlns="http://www.w3.org/2000/svg" xmlns:xlink="http://www.w3.org/1999/xlink">
<defs>
<g id="a">
<path d="m0.89062-3.375h4.7969v-0.64062h-4.7969zm0 1.9062h4.7969v-0.64062h-4.7969zm2.9531 1.6094c0-0.125-0.10938-0.23438-0.21875-0.34375-0.09375-0.09375-0.21875-0.21875-0.32812-0.21875s-0.25 0.125-0.34375 0.21875c-0.10938 0.10938-0.21875 0.23438-0.21875 0.34375 0 0.125 0.10938 0.23438 0.21875 0.34375 0.09375 0.09375 0.23438 0.21875 0.34375 0.21875s0.23438-0.125 0.32812-0.21875c0.10938-0.10938 0.21875-0.23438 0.21875-0.34375z"/>
</g>
</defs>
<g transform="translate(-149.6 -130.75)">
<use x="148.71201" y="134.765" xlink:href="#a"/>
</g>
</svg>
