<?xml version="1.0" encoding="UTF-8"?>
<svg fill="#000000" version="1.1" viewBox="0 0 7.2344 6.3125" xmlns="http://www.w3.org/2000/svg" xmlns:xlink="http://www.w3.org/1999/xlink">
<defs>
<g id="a">
<path d="m8.4375-5.1875c-0.14062 0-0.25 0.0625-0.29688 0.1875-0.23438 0.6875-0.82812 1.1562-1.4688 1.5156-0.078125 0.0625-0.14062 0.15625-0.14062 0.25 0 0.17188 0.14062 0.29688 0.29688 0.29688 0.21875 0 0.70312-0.4375 1.1406-0.76562-0.3125 0.76562-1.125 1.625-2.3906 1.625-1.375 0-2.5625-1.1094-2.5625-2.5781 0-1.375 1.0938-2.5625 2.5625-2.5625 1.0938 0 1.9531 0.67188 2.3281 1.4844 0.046875 0.10938 0.15625 0.17188 0.26562 0.17188 0.17188 0 0.29688-0.15625 0.29688-0.29688 0-0.26562-0.9375-1.9531-2.8906-1.9531-1.7969 0-3.1562 1.4688-3.1562 3.1562 0 1.7969 1.4688 3.1562 3.1562 3.1562 1.5156 0 2.5625-1.0156 2.9375-2.0156 0.48438 0.75 0.59375 1.0312 0.84375 1.0312 0.21875 0 0.29688-0.20312 0.29688-0.29688 0-0.0625-0.03125-0.14062-0.0625-0.1875-0.40625-0.48438-0.875-1.1562-0.875-1.9375 0-0.15625-0.125-0.28125-0.28125-0.28125z"/>
</g>
</defs>
<g transform="translate(-151.13 -130.84)">
<use x="148.71201" y="138.64999" xlink:href="#a"/>
</g>
</svg>
