<?xml version="1.0" encoding="UTF-8"?>
<svg fill="#000000" version="1.1" viewBox="0 0 6.0938 10.25" xmlns="http://www.w3.org/2000/svg" xmlns:xlink="http://www.w3.org/1999/xlink">
<defs>
<g id="a">
<path d="m6.7344-7.0938c0.10938-0.046875 0.1875-0.10938 0.1875-0.21875s-0.09375-0.1875-0.20312-0.1875c-0.046875 0-0.14062 0.03125-0.17188 0.046875l-5.5156 2.6094c-0.17188 0.078125-0.20312 0.15625-0.20312 0.23438s0.046875 0.14062 0.20312 0.21875l5.5156 2.5938c0.125 0.0625 0.14062 0.0625 0.17188 0.0625 0.10938 0 0.20312-0.09375 0.20312-0.20312 0-0.125-0.09375-0.17188-0.20312-0.21875l-5.2188-2.4531zm-1.8438 6.8906h1.6719c0.17188 0 0.35938 0 0.35938-0.20312 0-0.1875-0.1875-0.1875-0.35938-0.1875h-1.2969c0.15625-0.15625 0.3125-0.32812 0.46875-0.5 0.03125-0.03125 0.10938-0.10938 0.14062-0.15625 0.0625-0.078125 0.09375-0.09375 0.09375-0.17188 0-0.10938-0.09375-0.1875-0.20312-0.1875-0.0625 0-0.078125 0-0.25 0.17188-0.42188 0.40625-0.42188 0.4375-0.79688 0.84375h-3.5312c-0.17188 0-0.35938 0-0.35938 0.1875 0 0.20312 0.17188 0.20312 0.34375 0.20312h3.1562l-1.4688 1.5312h-1.6719c-0.17188 0-0.35938 0-0.35938 0.20312s0.17188 0.20312 0.34375 0.20312h1.3125c-0.15625 0.15625-0.32812 0.3125-0.46875 0.48438-0.03125 0.046875-0.10938 0.125-0.14062 0.15625-0.078125 0.09375-0.09375 0.10938-0.09375 0.1875 0 0.10938 0.09375 0.1875 0.1875 0.1875 0.078125 0 0.078125-0.015625 0.26562-0.17188 0.42188-0.42188 0.42188-0.4375 0.79688-0.84375h3.5312c0.17188 0 0.35938 0 0.35938-0.20312s-0.1875-0.20312-0.35938-0.20312h-3.1406z"/>
</g>
</defs>
<g transform="translate(-149.54 -127.26)">
<use x="148.71201" y="134.765" xlink:href="#a"/>
</g>
</svg>
