<?xml version="1.0" encoding="UTF-8"?>
<svg fill="#000000" version="1.1" viewBox="0 0 7.1875 10.672" xmlns="http://www.w3.org/2000/svg" xmlns:xlink="http://www.w3.org/1999/xlink">
<defs>
<g id="a">
<path d="m0.89062-8.0781v10.672h7.1875v-10.672h-0.64062v10.031h-5.9062v-10.031zm4.3438 4c0-0.15625-0.15625-0.3125-0.29688-0.45312-0.125-0.14062-0.29688-0.29688-0.45312-0.29688-0.14062 0-0.3125 0.17188-0.45312 0.29688-0.125 0.14062-0.29688 0.3125-0.29688 0.46875 0 0.14062 0.17188 0.29688 0.29688 0.4375 0.14062 0.14062 0.3125 0.29688 0.45312 0.29688 0.15625 0 0.32812-0.17188 0.45312-0.29688 0.14062-0.14062 0.29688-0.29688 0.29688-0.45312z"/>
</g>
</defs>
<g transform="translate(-149.6 -126.69)">
<use x="148.71201" y="134.765" xlink:href="#a"/>
</g>
</svg>
