<?xml version="1.0" encoding="UTF-8"?>
<svg fill="#000000" version="1.1" viewBox="0 0 4.25 7.1562" xmlns="http://www.w3.org/2000/svg" xmlns:xlink="http://www.w3.org/1999/xlink">
<defs>
<g id="a">
<path d="m1.25-5.6094c0.03125-0.64062 0.45312-1.1406 0.95312-1.1406h0.17188c0.95312 0.45312 1.4375 1.2656 1.4375 2.4062-0.10938 0.67188-0.42188 1-0.9375 1-0.078125 0-0.15625 0-0.23438-0.03125-0.90625-0.40625-1.3906-1.1719-1.3906-2.2344zm0.84375-1.5469c-0.95312 0.26562-1.6719 1.1875-1.6719 2.0312 0 1.0156 0.54688 1.7188 1.6094 2.0938v1.5781h-0.96875v0.28125h0.96875v1.1719h0.89062v-1.1719h1.0312v-0.28125h-1.0312v-1.4375c1.1719-0.078125 1.75-0.75 1.75-2.0156 0-1.5-0.84375-2.25-2.5781-2.25z"/>
</g>
</defs>
<g transform="translate(-149.13 -127.61)">
<use x="148.71201" y="134.765" xlink:href="#a"/>
</g>
</svg>
