<?xml version="1.0" encoding="UTF-8"?>
<svg fill="#000000" version="1.1" viewBox="0 0 7.1719 6.9219" xmlns="http://www.w3.org/2000/svg" xmlns:xlink="http://www.w3.org/1999/xlink">
<defs>
<g id="a">
<path d="m4.125-4.2344h2.1406c0.17188 0 0.35938 0 0.35938-0.1875 0-0.20312-0.17188-0.20312-0.34375-0.20312h-1.7344l1.9531-1.8906c0.10938-0.09375 0.125-0.10938 0.125-0.20312 0-0.125-0.078125-0.20312-0.1875-0.20312-0.09375 0-0.125 0.03125-0.26562 0.1875l-0.76562 0.71875c-0.15625 0.15625-0.57812 0.54688-0.73438 0.71875-0.23438 0.23438-0.54688 0.53125-0.70312 0.67188h-1.0781v-1.9375c0-0.17188 0-0.35938-0.20312-0.35938-0.1875 0-0.1875 0.1875-0.1875 0.35938v3.3594l-1.5469 1.4688v-4.8281c0-0.17188 0-0.35938-0.20312-0.35938-0.1875 0-0.1875 0.1875-0.1875 0.35938v5.0156c0 0.1875 0 0.20312-0.078125 0.26562l-0.71875 0.6875c-0.1875 0.17188-0.3125 0.28125-0.3125 0.39062 0 0.09375 0.0625 0.20312 0.20312 0.20312 0.078125 0 0.14062-0.0625 0.45312-0.35938l0.45312-0.4375v0.4375c0 0.17188 0 0.35938 0.1875 0.35938 0.20312 0 0.20312-0.17188 0.20312-0.34375v-0.82812l1.5469-1.4844v2.2969c0 0.17188 0 0.35938 0.1875 0.35938 0.20312 0 0.20312-0.17188 0.20312-0.34375v-1.9531h3.3906c0.17188 0 0.34375 0 0.34375-0.20312 0-0.1875-0.1875-0.1875-0.35938-0.1875h-3.375v-0.35938zm-0.57812 0-0.65625 0.64062v-0.64062z"/>
</g>
</defs>
<g transform="translate(-148.17 -127.84)">
<use x="148.71201" y="134.765" xlink:href="#a"/>
</g>
</svg>
