<?xml version="1.0" encoding="UTF-8"?>
<svg fill="#000000" version="1.1" viewBox="0 0 6.4486 6.8108" xmlns="http://www.w3.org/2000/svg" xmlns:xlink="http://www.w3.org/1999/xlink">
<defs>
<g id="a">
<path d="m0.32812-6.8125v0.29688c0.23438 0 0.45312 0 0.67188 0.03125 0.10938 0.015625 0.23438 0.03125 0.29688 0.14062 0.078125 0.10938 0.0625 0.28125 0.0625 0.42188v5.0312c0 0.125 0.015625 0.28125-0.046875 0.40625-0.078125 0.10938-0.1875 0.125-0.3125 0.14062-0.21875 0.03125-0.4375 0.03125-0.67188 0.03125v0.29688h4.0469v-0.29688c-0.21875 0-0.42188 0-0.64062-0.03125-0.10938 0-0.21875-0.015625-0.29688-0.09375-0.09375-0.078125-0.09375-0.20312-0.09375-0.3125v-2.4062h0.6875 0.375c0.53125-0.046875 1.0781-0.1875 1.5312-0.48438 0.1875-0.125 0.375-0.26562 0.51562-0.45312 0.09375-0.10938 0.17188-0.25 0.23438-0.40625 0.046875-0.10938 0.078125-0.21875 0.078125-0.32812 0.09375-0.6875-0.42188-1.2656-0.98438-1.5938-0.39062-0.23438-0.84375-0.34375-1.3125-0.39062-0.35938-0.03125-0.71875 0-1.0781 0zm2.7188 0.29688v6.2031h-0.79688v-6.2031zm0.29688 3.0938v-2.7344c0-0.078125 0-0.1875 0.0625-0.26562 0.046875-0.046875 0.10938-0.0625 0.1875-0.078125 0.10938-0.015625 0.23438-0.015625 0.35938-0.015625 0.375 0 0.76562 0.0625 1.0938 0.23438 0.15625 0.078125 0.3125 0.1875 0.42188 0.3125 0.1875 0.21875 0.25 0.51562 0.26562 0.79688 0.03125 0.39062 0 0.84375-0.23438 1.1719-0.10938 0.125-0.23438 0.23438-0.375 0.3125-0.54688 0.3125-1.1719 0.26562-1.7812 0.26562z"/>
</g>
</defs>
<g transform="translate(-149.04 -127.94)">
<use x="148.71201" y="134.765" xlink:href="#a"/>
</g>
</svg>
