<?xml version="1.0" encoding="UTF-8"?>
<svg fill="#000000" version="1.1" viewBox="0 0 6.1126 4.2759" xmlns="http://www.w3.org/2000/svg" xmlns:xlink="http://www.w3.org/1999/xlink">
<defs>
<g id="a">
<path d="m6.5312-4.2344v3.4688h-5.3906c-0.10938 0-0.29688-0.046875-0.3125 0.125-0.015625 0.0625-0.015625 0.1875 0.046875 0.23438 0.0625 0.0625 0.21875 0.03125 0.29688 0.03125h5.3906 0.20312c0.046875 0 0.10938 0 0.14062-0.046875 0.046875-0.0625 0.015625-0.17188 0.015625-0.25v-3.7031c0-0.078125 0.03125-0.20312-0.046875-0.23438-0.078125-0.046875-0.20312-0.03125-0.28125-0.03125h-5.125-0.46875c-0.078125 0-0.15625 0.015625-0.17188 0.10938-0.015625 0.0625-0.015625 0.21875 0.046875 0.26562 0.046875 0.046875 0.14062 0.03125 0.21875 0.03125z"/>
</g>
</defs>
<g transform="translate(-149.53 -130.12)">
<use x="148.71201" y="134.765" xlink:href="#a"/>
</g>
</svg>
