<?xml version="1.0" encoding="UTF-8"?>
<svg fill="#000000" version="1.1" viewBox="0 0 5.8594 7.1406" xmlns="http://www.w3.org/2000/svg" xmlns:xlink="http://www.w3.org/1999/xlink">
<defs>
<g id="a">
<path d="m6.3438-3.1875v-0.65625h-5.8594v0.65625zm-4.5938-2.2812c0-0.35938-0.3125-0.625-0.64062-0.625-0.3125 0-0.625 0.25-0.625 0.625 0 0.39062 0.25 0.64062 0.625 0.64062 0.39062 0 0.64062-0.29688 0.64062-0.64062zm4.5938 5.875c0-0.35938-0.29688-0.625-0.625-0.625-0.3125 0-0.64062 0.25-0.64062 0.625 0 0.39062 0.26562 0.64062 0.64062 0.64062s0.625-0.29688 0.625-0.64062zm0-1.6094v-0.65625h-5.8594v0.65625z"/>
</g>
</defs>
<g transform="translate(-149.2 -128.67)">
<use x="148.71201" y="134.765" xlink:href="#a"/>
</g>
</svg>
