<?xml version="1.0" encoding="UTF-8"?>
<svg fill="#000000" version="1.1" viewBox="0 0 7.722 3.4531" xmlns="http://www.w3.org/2000/svg" xmlns:xlink="http://www.w3.org/1999/xlink">
<defs>
<g id="a">
<path d="m7.9531-4.2344c-0.078125 0.015625-0.14062 0.03125-0.21875 0.09375-0.3125 0.20312-0.3125 0.65625-0.015625 0.85938 0.0625 0.046875 0.10938 0.078125 0.1875 0.09375h0.1875c0.078125-0.015625 0.15625-0.03125 0.21875-0.078125 0.3125-0.21875 0.3125-0.65625 0.015625-0.875-0.046875-0.03125-0.10938-0.0625-0.1875-0.09375h-0.1875zm-7.0625 0.75c-0.015625 0.015625-0.046875 0.03125-0.046875 0.0625-0.015625 0.03125-0.015625 0.078125-0.015625 0.10938 0 0.078125-0.015625 0.17188 0.0625 0.21875 0.078125 0.015625 0.1875 0 0.26562 0h5.5938c0.046875 0 0.09375 0 0.125-0.03125 0.046875-0.03125 0.046875-0.078125 0.046875-0.14062 0-0.078125 0-0.1875-0.09375-0.21875h-0.125-5.6562c-0.046875 0-0.09375-0.015625-0.15625 0zm0 1.5781c-0.078125 0.046875-0.0625 0.14062-0.0625 0.21875 0 0.03125 0 0.078125 0.015625 0.10938 0 0.015625 0.03125 0.046875 0.046875 0.046875 0.078125 0.03125 0.1875 0.015625 0.26562 0.015625h5.5938c0.046875 0 0.09375 0 0.125-0.046875 0.046875-0.015625 0.046875-0.078125 0.046875-0.125 0-0.078125 0-0.20312-0.09375-0.21875h-0.125-5.6562c-0.046875 0-0.09375-0.015625-0.15625 0zm7.0625 0.078125c-0.078125 0.015625-0.14062 0.03125-0.21875 0.078125-0.3125 0.21875-0.3125 0.65625-0.015625 0.875 0.0625 0.03125 0.10938 0.0625 0.1875 0.09375h0.1875c0.078125-0.015625 0.15625-0.03125 0.21875-0.09375 0.3125-0.20312 0.3125-0.65625 0.015625-0.85938-0.046875-0.046875-0.10938-0.0625-0.1875-0.09375h-0.1875z"/>
</g>
</defs>
<g transform="translate(-149.54 -130.53)">
<use x="148.71201" y="134.765" xlink:href="#a"/>
</g>
</svg>
