<?xml version="1.0" encoding="UTF-8"?>
<svg fill="#000000" version="1.1" viewBox="0 0 6.7188 8.2656" xmlns="http://www.w3.org/2000/svg" xmlns:xlink="http://www.w3.org/1999/xlink">
<defs>
<g id="a">
<path d="m2.2188-0.28125c-0.1875 0-0.29688 0-0.54688 0.15625-0.078125 0.046875-0.3125 0.20312-0.3125 0.32812 0 0.0625 0.046875 0.0625 0.09375 0.0625 0.67188 0.03125 1.0781 0.125 2.0781 0.46875 0.6875 0.25 1.3906 0.5 2.1875 0.5 1.1562 0 2.125-1.0312 2.125-1.4375 0-0.046875-0.03125-0.078125-0.09375-0.078125-0.09375 0-0.29688 0.078125-0.46875 0.1875-0.21875 0.15625-0.25 0.21875-0.29688 0.35938-0.14062 0.39062-0.34375 0.42188-0.60938 0.42188-0.65625 0-1.1094-0.15625-2.5469-0.64062 1.7188-0.5 3.8906-2.2188 3.8906-4.625 0-1.3594-0.73438-2.4531-2.2031-2.4531-2.0312 0-4.3906 2.0938-4.3906 4.1562 0 1.0625 0.625 1.8594 1.7344 1.8594 1.0156 0 2.1406-0.65625 2.1406-0.89062 0-0.0625-0.0625-0.0625-0.10938-0.0625-0.14062 0-0.3125 0.09375-0.4375 0.17188-0.42188 0.21875-0.82812 0.23438-0.9375 0.23438-0.89062 0-1.5469-0.70312-1.5469-1.7344 0-1.2344 1.125-3.1875 2.8906-3.1875 1.2656 0 2.0156 1 2.0156 2.3281 0 0.98438-0.40625 2.1094-1.3594 2.9531-0.64062 0.57812-1.375 0.92188-3 0.92188z"/>
</g>
</defs>
<g transform="translate(-149.84 -127.73)">
<use x="148.71201" y="134.765" xlink:href="#a"/>
</g>
</svg>
