<?xml version="1.0" encoding="UTF-8"?>
<svg fill="#000000" version="1.1" viewBox="0 0 3.8624 4.7337" xmlns="http://www.w3.org/2000/svg" xmlns:xlink="http://www.w3.org/1999/xlink">
<defs>
<g id="a">
<path d="m0.95312-3.875c0.29688-0.29688 0.73438-0.375 1.1406-0.39062 0.21875-0.015625 0.42188-0.015625 0.64062 0.0625 0.46875 0.17188 0.64062 0.71875 0.46875 1.1719-0.10938 0.26562-0.3125 0.46875-0.57812 0.53125-0.10938 0.03125-0.21875 0.03125-0.32812 0.03125-0.078125 0.015625-0.1875 0-0.28125 0.03125-0.0625 0.015625-0.078125 0.0625-0.078125 0.125 0.015625 0.078125 0.09375 0.09375 0.15625 0.09375 0.17188 0 0.34375-0.015625 0.51562 0.03125 0.42188 0.10938 0.71875 0.42188 0.76562 0.85938 0.03125 0.14062 0.03125 0.29688 0 0.4375-0.03125 0.10938-0.0625 0.21875-0.10938 0.3125-0.03125 0.0625-0.078125 0.14062-0.14062 0.20312-0.40625 0.40625-1.0781 0.34375-1.5625 0.17188-0.10938-0.046875-0.20312-0.09375-0.28125-0.14062-0.1875-0.09375-0.35938-0.21875-0.51562-0.35938-0.0625-0.0625-0.14062-0.1875-0.23438-0.1875-0.078125-0.015625-0.125 0.10938-0.10938 0.1875 0.015625 0.046875 0.0625 0.078125 0.09375 0.125 0.15625 0.15625 0.32812 0.29688 0.51562 0.42188 0.54688 0.32812 1.2031 0.4375 1.8281 0.3125 0.34375-0.0625 0.67188-0.20312 0.95312-0.42188 0.10938-0.09375 0.21875-0.20312 0.29688-0.32812 0.0625-0.10938 0.10938-0.20312 0.14062-0.3125 0.015625-0.078125 0.03125-0.15625 0.03125-0.23438 0-0.54688-0.5-0.92188-0.95312-1.1094-0.09375-0.015625-0.17188-0.046875-0.26562-0.078125 0.09375-0.03125 0.20312-0.046875 0.29688-0.078125 0.20312-0.09375 0.40625-0.20312 0.5625-0.35938 0.0625-0.078125 0.10938-0.14062 0.14062-0.21875s0.046875-0.14062 0.078125-0.21875c0.0625-0.42188-0.1875-0.76562-0.51562-0.98438-0.45312-0.28125-1.0156-0.375-1.5469-0.32812-0.20312 0.015625-0.40625 0.03125-0.59375 0.078125-0.40625 0.10938-0.84375 0.32812-0.92188 0.78125-0.03125 0.125-0.03125 0.25 0.03125 0.35938 0.125 0.20312 0.40625 0.25 0.59375 0.10938 0.17188-0.125 0.17188-0.40625 0.03125-0.57812-0.0625-0.078125-0.17188-0.10938-0.26562-0.10938z"/>
</g>
</defs>
<g transform="translate(-149.13 -130.24)">
<use x="148.71201" y="134.765" xlink:href="#a"/>
</g>
</svg>
