<?xml version="1.0" encoding="UTF-8"?>
<svg fill="#000000" version="1.1" viewBox="0 0 4.6562 7.9899" xmlns="http://www.w3.org/2000/svg" xmlns:xlink="http://www.w3.org/1999/xlink">
<defs>
<g id="a">
<path d="m1-0.67188c0 0.14062 0.10938 0.25 0.25 0.25h1.0312l-0.70312 1.6875c-0.03125 0.09375 0 0.1875 0.10938 0.21875 0.09375 0.046875 0.17188 0 0.21875-0.09375l0.75-1.8125h1.4062c1.0781 0 1.5938-1.125 1.5938-2.0625 0-0.84375-0.4375-1.8281-1.2969-2.0156l0.71875-1.7344c0.03125-0.10938 0-0.20312-0.078125-0.23438-0.10938-0.046875-0.20312 0-0.25 0.09375l-0.75 1.8438h-2.75c-0.14062 0-0.25 0.10938-0.25 0.25s0.10938 0.25 0.25 0.25h2.5312l-1.2812 3.1094h-1.25c-0.14062 0-0.25 0.10938-0.25 0.25zm1.875-0.25 1.2812-3.1094c0.70312 0.078125 1 0.9375 1 1.5469 0 0.65625-0.32812 1.5625-1.0938 1.5625z"/>
</g>
</defs>
<g transform="translate(-149.71 -128.28)">
<use x="148.71201" y="134.765" xlink:href="#a"/>
</g>
</svg>
