<?xml version="1.0" encoding="UTF-8"?>
<svg fill="#000000" version="1.1" viewBox="0 0 8.9718 6.3883" xmlns="http://www.w3.org/2000/svg" xmlns:xlink="http://www.w3.org/1999/xlink">
<defs>
<g id="a">
<path d="m8.2969-0.73438c-0.046875 0.21875-0.09375 0.4375-0.125 0.67188-0.03125 0.1875-0.046875 0.35938-0.0625 0.54688-0.015625 0.078125-0.046875 0.1875-0.03125 0.26562 0.015625 0.0625 0.0625 0.10938 0.125 0.09375 0.078125 0 0.1875-0.0625 0.21875-0.125 0.046875-0.0625 0.0625-0.15625 0.078125-0.21875 0.046875-0.125 0.09375-0.26562 0.14062-0.40625 0.125-0.39062 0.28125-0.76562 0.46875-1.125 0.078125-0.15625 0.17188-0.3125 0.26562-0.46875 0.03125-0.0625 0.078125-0.14062 0.03125-0.21875-0.046875-0.0625-0.14062-0.03125-0.21875-0.03125-0.17188 0.015625-0.35938 0.03125-0.54688 0.03125-0.39062 0.015625-0.79688-0.015625-1.1875-0.0625-0.125-0.015625-0.25-0.046875-0.375-0.0625-0.0625-0.015625-0.125-0.03125-0.1875-0.03125-0.078125 0-0.1875 0.078125-0.23438 0.125s-0.046875 0.10938 0 0.14062c0.03125 0.046875 0.09375 0.0625 0.14062 0.078125 0.09375 0.046875 0.20312 0.078125 0.29688 0.125 0.125 0.046875 0.25 0.09375 0.35938 0.125 0.10938 0.046875 0.21875 0.078125 0.32812 0.10938 0.09375 0.03125 0.1875 0.078125 0.29688 0.078125v0.015625c-0.10938 0.046875-0.20312 0.10938-0.3125 0.17188l-0.46875 0.23438c-0.65625 0.29688-1.3438 0.54688-2.0625 0.6875-0.90625 0.15625-1.8594 0.23438-2.7188-0.1875-0.92188-0.4375-1.625-1.3906-1.5625-2.4375 0.03125-0.26562 0.078125-0.54688 0.1875-0.79688 0.09375-0.25 0.23438-0.46875 0.40625-0.6875 0.14062-0.15625 0.29688-0.3125 0.48438-0.4375 0.40625-0.3125 0.875-0.5 1.375-0.57812 0.54688-0.078125 1.125-0.03125 1.6562 0.0625 0.4375 0.078125 0.875 0.1875 1.2812 0.32812 0.25 0.09375 0.5 0.1875 0.75 0.29688 0.32812 0.14062 0.65625 0.3125 0.96875 0.5 0.25 0.14062 0.5 0.29688 0.73438 0.45312 0.17188 0.10938 0.32812 0.21875 0.48438 0.34375h0.015625l0.23438-0.3125c-0.0625-0.0625-0.125-0.10938-0.20312-0.15625-0.10938-0.078125-0.20312-0.15625-0.3125-0.21875-0.375-0.25-0.75-0.48438-1.1562-0.6875-0.3125-0.15625-0.625-0.3125-0.96875-0.4375-0.23438-0.10938-0.5-0.1875-0.76562-0.26562-0.5625-0.17188-1.1406-0.28125-1.7344-0.3125-0.28125-0.03125-0.54688-0.03125-0.82812-0.015625-0.59375 0.046875-1.1875 0.25-1.6719 0.59375-0.14062 0.10938-0.29688 0.21875-0.42188 0.34375-0.1875 0.1875-0.35938 0.39062-0.5 0.625-0.15625 0.26562-0.26562 0.5625-0.34375 0.85938-0.20312 0.89062 0.078125 1.8438 0.67188 2.5312 0.34375 0.375 0.76562 0.67188 1.2344 0.85938 0.375 0.15625 0.78125 0.23438 1.1875 0.25 0.17188 0.015625 0.32812 0 0.5 0 0.4375-0.015625 0.875-0.078125 1.2969-0.17188 0.76562-0.17188 1.4844-0.4375 2.1875-0.78125 0.1875-0.09375 0.39062-0.20312 0.59375-0.3125z"/>
</g>
</defs>
<g transform="translate(-149.27 -129.22)">
<use x="148.71201" y="134.765" xlink:href="#a"/>
</g>
</svg>
