<?xml version="1.0" encoding="UTF-8"?>
<svg fill="#000000" version="1.1" viewBox="0 0 5.5156 5.5" xmlns="http://www.w3.org/2000/svg" xmlns:xlink="http://www.w3.org/1999/xlink">
<defs>
<g id="a">
<path d="m7.3906-5.2969c-0.046875 0-0.10938 0.015625-0.15625 0.0625l-1.0156 1c-0.03125 0.0625-0.0625 0.125-0.0625 0.17188 0 0.10938 0.078125 0.23438 0.21875 0.23438 0.0625 0 0.125-0.03125 0.17188-0.0625l1.0156-1.0312c0.03125-0.03125 0.0625-0.09375 0.0625-0.15625 0-0.10938-0.09375-0.21875-0.23438-0.21875zm-1.0469 4.375-1.9219-4.125c-0.03125-0.0625-0.078125-0.09375-0.14062-0.09375-0.10938 0-0.17188 0.10938-0.14062 0.21875l1.9375 4.125c0.015625 0.0625 0.078125 0.078125 0.125 0.078125 0.078125 0 0.15625-0.046875 0.15625-0.15625 0-0.015625-0.015625-0.03125-0.015625-0.046875zm-4 1.125c0.20312 0 0.5625-0.51562 1.9531-0.51562 0.34375 0 0.51562 0.015625 0.5625 0.015625 0.125 0 0.23438-0.09375 0.23438-0.23438 0-0.21875-0.23438-0.23438-0.48438-0.23438h-0.0625c-0.375 0-0.76562 0.03125-1.1406 0.03125h-0.03125l0.90625-0.89062c0.03125-0.046875 0.0625-0.10938 0.0625-0.17188 0-0.10938-0.09375-0.21875-0.23438-0.21875-0.046875 0-0.10938 0.015625-0.15625 0.0625l-0.90625 0.90625v-0.10938c0-0.35938 0.046875-0.71875 0.046875-1.0625v-0.10938c0-0.21875-0.015625-0.4375-0.25-0.4375-0.125 0-0.21875 0.09375-0.21875 0.21875 0 0.0625 0.015625 0.23438 0.015625 0.57812 0 1.375-0.53125 1.75-0.53125 1.9531 0 0.14062 0.10938 0.21875 0.23438 0.21875z"/>
</g>
</defs>
<g transform="translate(-150.82 -129.47)">
<use x="148.71201" y="134.765" xlink:href="#a"/>
</g>
</svg>
