<?xml version="1.0" encoding="UTF-8"?>
<svg fill="#000000" version="1.1" viewBox="0 0 6.6562 5.5781" xmlns="http://www.w3.org/2000/svg" xmlns:xlink="http://www.w3.org/1999/xlink">
<defs>
<g id="a">
<path d="m4.5156-4.6406c0-0.32812-0.26562-0.64062-0.64062-0.64062s-0.64062 0.3125-0.64062 0.64062c0 0.3125 0.28125 0.625 0.64062 0.625 0.375 0 0.64062-0.3125 0.64062-0.625zm0 4.2969c0-0.3125-0.26562-0.625-0.64062-0.625s-0.64062 0.3125-0.64062 0.625c0 0.32812 0.28125 0.64062 0.64062 0.64062 0.375 0 0.64062-0.3125 0.64062-0.64062zm-3.625-2.3438c-0.15625 0-0.34375 0-0.34375 0.1875 0 0.20312 0.1875 0.20312 0.34375 0.20312h5.9688c0.17188 0 0.34375 0 0.34375-0.20312 0-0.1875-0.17188-0.1875-0.34375-0.1875z"/>
</g>
</defs>
<g transform="translate(-149.26 -129.48)">
<use x="148.71201" y="134.765" xlink:href="#a"/>
</g>
</svg>
