<?xml version="1.0" encoding="UTF-8"?>
<svg fill="#000000" width="2.2188" height="9.9688" version="1.1" viewBox="0 0 2.2188 9.9687" xmlns="http://www.w3.org/2000/svg" xmlns:xlink="http://www.w3.org/1999/xlink">
<defs>
<g id="a">
<path d="m0.70312-7.4844c-0.078125 0.03125-0.15625 0.10938-0.15625 0.20312v0.015625c0.015625 0.125 0.078125 0.23438 0.125 0.34375 0.53125 1.375 1.0469 2.7812 1.5781 4.1562 0.03125 0.078125 0.09375 0.17188 0.09375 0.26562 0 0.03125-0.015625 0.078125-0.03125 0.125l-0.078125 0.1875c-0.51562 1.4375-1.0938 2.875-1.6406 4.2969-0.015625 0.046875-0.046875 0.10938-0.046875 0.17188 0 0.10938 0.09375 0.20312 0.20312 0.20312h0.015625c0.125-0.015625 0.17188-0.125 0.21875-0.23438l0.078125-0.20312c0.4375-1.2031 0.90625-2.4219 1.375-3.6094l0.23438-0.625c0.03125-0.10938 0.09375-0.21875 0.09375-0.3125 0-0.10938-0.046875-0.20312-0.09375-0.29688-0.51562-1.4062-1.0781-2.7969-1.5938-4.2031-0.046875-0.078125-0.125-0.48438-0.32812-0.48438h-0.046875z"/>
</g>
</defs>
<g transform="translate(-149.26 -127.28)">
<use x="148.71201" y="134.765" xlink:href="#a"/>
</g>
</svg>
