<?xml version="1.0" encoding="UTF-8"?>
<svg fill="#000000" version="1.1" viewBox="0 0 5.8906 5.9844" xmlns="http://www.w3.org/2000/svg" xmlns:xlink="http://www.w3.org/1999/xlink">
<defs>
<g id="a">
<path d="m3.7812-2.5c-0.15625-0.84375-0.4375-1.6875-0.98438-2.3594-0.64062-0.79688-1.625-0.90625-1.75-0.90625-0.17188 0-0.20312 0.14062-0.20312 0.20312 0 0.09375 0.0625 0.17188 0.15625 0.20312 0.45312 0.0625 1.5469 0.21875 2.125 1.9062 0.375 1.0938 0.45312 2.2656 0.46875 3.4375 0 0.03125 0 0.23438 0.1875 0.23438 0.09375 0 0.14062-0.046875 0.15625-0.078125 0.015625-0.015625 0.046875-0.046875 0.046875-0.078125v-0.35938c0.015625-0.96875 0.14062-2.1406 0.39062-2.9375 0.4375-1.375 1.1406-1.9688 2.0781-2.125 0.14062-0.015625 0.28125-0.03125 0.28125-0.20312 0-0.0625-0.046875-0.20312-0.21875-0.20312-0.03125 0-1 0.046875-1.7188 0.90625-0.46875 0.54688-0.79688 1.3125-1.0156 2.3594z"/>
</g>
</defs>
<g transform="translate(-149.56 -129)">
<use x="148.71201" y="134.765" xlink:href="#a"/>
</g>
</svg>
