<?xml version="1.0" encoding="UTF-8"?>
<svg fill="#000000" version="1.1" viewBox="0 0 4.7969 7.1406" xmlns="http://www.w3.org/2000/svg" xmlns:xlink="http://www.w3.org/1999/xlink">
<defs>
<g id="a">
<path d="m0.67188-5.6406c0.4375-0.60938 0.95312-0.90625 1.5469-0.90625 0.54688 0 1.0781 0.5 1.0781 1.0469 0 0.375-0.20312 0.8125-0.5625 1.2969l-2.2656 2.7344h2.875v1.4531h0.76562v-1.4531h1.1562v-0.26562h-1.1562v-1.7812l-0.6875 0.67188-0.078125 1.1094h-2.125l1.8594-1.7812 0.6875-0.82812c0.29688-0.51562 0.46875-0.98438 0.46875-1.3906 0-0.95312-0.64062-1.4219-1.9062-1.4219-0.76562 0.015625-1.4531 0.64062-1.6562 1.5156z"/>
</g>
</defs>
<g transform="translate(-149.18 -127.61)">
<use x="148.71201" y="134.765" xlink:href="#a"/>
</g>
</svg>
