<?xml version="1.0" encoding="UTF-8"?>
<svg fill="#000000" version="1.1" viewBox="0 0 8.0625 7.0156" xmlns="http://www.w3.org/2000/svg" xmlns:xlink="http://www.w3.org/1999/xlink">
<defs>
<g id="a">
<path d="m4.7188-2.1562-1.9375-4.5312-0.078125-0.10938-0.17188-0.015625h-1.6562v0.29688h0.45312c0.29688 0 0.57812 0.03125 0.57812 0.20312v4.4219c0 0.59375-0.015625 1.7188-0.625 1.7188v-0.015625c0.21875-0.078125 0.32812-0.29688 0.32812-0.51562 0-0.3125-0.23438-0.54688-0.54688-0.54688-0.046875 0-0.09375 0-0.14062 0.015625l-0.15625 0.0625c-0.17188 0.10938-0.25 0.29688-0.25 0.48438 0 0.42188 0.375 0.78125 0.79688 0.78125 0.57812 0 0.84375-0.84375 0.85938-1.4062 0.015625-0.64062 0.015625-1.2969 0.015625-1.9375v-2.7656c0.03125 0.09375 0.078125 0.1875 0.125 0.28125l2.375 5.5469c0.03125 0.09375 0.078125 0.17188 0.1875 0.17188h0.03125c0.09375-0.015625 0.09375-0.09375 0.09375-0.17188v-4.8125c0-0.625 0.0625-1.6562 0.625-1.6562-0.1875 0.10938-0.34375 0.26562-0.34375 0.51562 0 0.32812 0.25 0.5625 0.57812 0.5625 0.34375 0 0.53125-0.26562 0.53125-0.5625 0-0.42188-0.375-0.78125-0.79688-0.78125h-0.015625c-0.53125 0-0.70312 0.70312-0.79688 1.0469-0.0625 0.25-0.0625 0.48438-0.0625 0.73438zm2.5625-3.1719c-0.65625 0.046875-0.98438 0.82812-0.98438 1.4531 0 0.67188 0.35938 1.3438 1.1094 1.3438 0.60938 0 0.9375-0.78125 0.9375-1.3594 0-0.59375-0.3125-1.4375-1-1.4375zm-0.3125 1.9531v-0.98438c0-0.3125 0.03125-0.75 0.34375-0.75s0.35938 0.42188 0.35938 0.64062v0.90625c0 0.35938 0 0.78125-0.34375 0.78125-0.3125 0-0.32812-0.34375-0.35938-0.59375zm-0.8125 1.4531c-0.0625 0.015625-0.078125 0.078125-0.078125 0.14062 0 0.10938 0.078125 0.15625 0.1875 0.15625h2.1406c0.09375 0 0.17188-0.046875 0.17188-0.15625 0-0.0625-0.046875-0.14062-0.10938-0.15625h-2.2188c-0.046875 0-0.0625 0-0.09375 0.015625z"/>
</g>
</defs>
<g transform="translate(-149.23 -127.84)">
<use x="148.71201" y="134.765" xlink:href="#a"/>
</g>
</svg>
