<?xml version="1.0" encoding="UTF-8"?>
<svg fill="#000000" version="1.1" viewBox="0 0 6.0625 4.9062" xmlns="http://www.w3.org/2000/svg" xmlns:xlink="http://www.w3.org/1999/xlink">
<defs>
<g id="a">
<path d="m1.8594-4.5781c-0.57812 0-1.1875 0-1.375 0.57812l-0.28125 1.125 0.21875 0.09375 0.17188-0.45312c0.23438-0.59375 0.5-0.6875 0.98438-0.6875h0.73438c-0.25 1.1094-0.78125 2.5312-1.4531 3.6875l0.015625 0.14062 0.54688 0.14062 0.10938-0.09375c0.4375-1.2812 0.875-2.5781 1.1562-3.875h1.4219l0.0625 0.046875c-0.10938 0.79688-0.17188 1.6094-0.17188 2.4062 0 0.45312 0.03125 1.0781 0.3125 1.3438 0.125 0.125 0.34375 0.125 0.53125 0.125 0.40625 0 0.8125-0.3125 1.125-0.59375l-0.09375-0.17188-0.0625-0.015625c-0.15625 0.09375-0.3125 0.15625-0.48438 0.15625-0.65625 0-0.64062-1.2812-0.64062-2.1875 0-0.34375 0.046875-0.70312 0.0625-1.0469l0.078125-0.0625c0.375-0.015625 0.75-0.125 1.0781-0.28125l0.35938-0.59375-0.078125-0.0625c-0.34375 0.17188-0.71875 0.28125-1.1094 0.28125z"/>
</g>
</defs>
<g transform="translate(-148.92 -129.91)">
<use x="148.71201" y="134.765" xlink:href="#a"/>
</g>
</svg>
