<?xml version="1.0" encoding="UTF-8"?>
<svg fill="#000000" version="1.1" viewBox="0 0 1.5 4.9219" xmlns="http://www.w3.org/2000/svg" xmlns:xlink="http://www.w3.org/1999/xlink">
<defs>
<g id="a">
<path d="m2.3906-1.0312c0-0.15625-0.15625-0.3125-0.29688-0.4375-0.125-0.14062-0.29688-0.3125-0.45312-0.3125-0.14062 0-0.3125 0.17188-0.4375 0.3125-0.14062 0.125-0.3125 0.28125-0.3125 0.4375 0 0.14062 0.17188 0.3125 0.3125 0.4375 0.125 0.14062 0.29688 0.3125 0.4375 0.3125 0.15625 0 0.32812-0.17188 0.45312-0.29688 0.14062-0.14062 0.29688-0.3125 0.29688-0.45312zm-0.29688-3.8594c-0.125-0.14062-0.29688-0.3125-0.45312-0.3125-0.14062 0-0.3125 0.17188-0.4375 0.29688-0.14062 0.14062-0.3125 0.3125-0.3125 0.45312 0 0.15625 0.17188 0.3125 0.3125 0.45312 0.125 0.125 0.29688 0.29688 0.4375 0.29688 0.15625 0 0.32812-0.17188 0.45312-0.29688 0.14062-0.14062 0.29688-0.29688 0.29688-0.45312 0-0.14062-0.17188-0.3125-0.29688-0.4375z"/>
</g>
</defs>
<g transform="translate(-149.6 -129.56)">
<use x="148.71201" y="134.765" xlink:href="#a"/>
</g>
</svg>
