<?xml version="1.0" encoding="UTF-8"?>
<svg fill="#000000" version="1.1" viewBox="0 0 4.8906 7.0312" xmlns="http://www.w3.org/2000/svg" xmlns:xlink="http://www.w3.org/1999/xlink">
<defs>
<g id="a">
<path d="m2.5469-5.4844h1.9219c0.17188 0 0.28125 0 0.28125-0.125s-0.10938-0.125-0.29688-0.125h-1.8438c0.0625-0.25 0.0625-0.26562 0.125-0.51562 0.046875-0.1875 0.14062-0.53125 0.14062-0.54688 0-0.09375-0.0625-0.125-0.14062-0.125-0.1875 0-0.98438 0.078125-1.2188 0.10938-0.078125 0-0.1875 0.015625-0.1875 0.20312 0 0.10938 0.09375 0.10938 0.23438 0.10938 0.48438 0 0.5 0.0625 0.5 0.17188 0 0.0625-0.09375 0.39062-0.14062 0.59375h-0.5625c-0.1875 0-0.29688 0-0.29688 0.125s0.078125 0.125 0.26562 0.125h0.53125l-1.2656 5.0781c-0.046875 0.15625-0.046875 0.17188-0.046875 0.23438 0 0.21875 0.17188 0.28125 0.29688 0.28125 0.1875 0 0.32812-0.14062 0.35938-0.26562 0.015625-0.046875 0.125-0.5 0.1875-0.75l0.23438-0.89062c0.03125-0.14062 0.125-0.53125 0.15625-0.67188 0.046875-0.15625 0.125-0.46875 0.125-0.5 0.09375-0.17188 0.625-1.2188 1.625-1.2188 0.4375 0 0.53125 0.35938 0.53125 0.6875 0 0.625-0.45312 1.8281-0.64062 2.2969-0.046875 0.15625-0.10938 0.29688-0.10938 0.48438 0 0.51562 0.375 0.82812 0.82812 0.82812 0.95312 0 1.2969-1.4688 1.2969-1.5312 0-0.10938-0.078125-0.10938-0.10938-0.10938-0.10938 0-0.10938 0.03125-0.15625 0.1875-0.28125 1.0156-0.73438 1.2344-1 1.2344-0.1875 0-0.25-0.125-0.25-0.32812 0-0.25 0.10938-0.53125 0.17188-0.70312 0.15625-0.4375 0.60938-1.625 0.60938-2.1875 0-0.73438-0.45312-1.0781-1.1406-1.0781-0.3125 0-0.90625 0.0625-1.4844 0.75z"/>
</g>
</defs>
<g transform="translate(-149.26 -127.84)">
<use x="148.71201" y="134.765" xlink:href="#a"/>
</g>
</svg>
