<?xml version="1.0" encoding="UTF-8"?>
<svg fill="#000000" version="1.1" viewBox="0 0 2.875 7.9844" xmlns="http://www.w3.org/2000/svg" xmlns:xlink="http://www.w3.org/1999/xlink">
<defs>
<g id="a">
<path d="m2.4375-6.9844c-0.0625 0-0.10938 0.03125-0.14062 0.09375-0.14062 0.15625-1.2969 2.3594-1.2969 2.4531 0 0.125 0.10938 0.20312 0.21875 0.20312 0.09375 0 0.15625-0.046875 0.20312-0.125l0.73438-1.375v6.4531c0 0.15625 0.125 0.28125 0.28125 0.28125 0.17188 0 0.29688-0.125 0.29688-0.28125v-6.4375l0.71875 1.3594c0.046875 0.078125 0.10938 0.125 0.20312 0.125 0.10938 0 0.21875-0.078125 0.21875-0.20312 0-0.09375-1.1406-2.2344-1.2812-2.4531-0.046875-0.0625-0.078125-0.09375-0.15625-0.09375z"/>
</g>
</defs>
<g transform="translate(-149.71 -127.78)">
<use x="148.71201" y="134.765" xlink:href="#a"/>
</g>
</svg>
