<?xml version="1.0" encoding="UTF-8"?>
<svg fill="#000000" version="1.1" viewBox="0 0 4.7969 9.4219" xmlns="http://www.w3.org/2000/svg" xmlns:xlink="http://www.w3.org/1999/xlink">
<defs>
<g id="a">
<path d="m3.4062-4.2656c-0.078125-0.015625-0.14062-0.0625-0.20312-0.078125 0.078125-0.03125 0.17188-0.046875 0.25-0.078125zm0.84375-3.1875-0.59375 2.2344c-0.75 0.35938-1.5938 0.54688-2.4375 0.54688h-0.32812v0.64062h0.32812c0.6875 0 1.3906 0.14062 2.0156 0.375l-0.54688 2.0781h-1.7969v0.64062h1.625l-0.35938 1.2812h-1.2656v0.64062h1.1094l-0.21875 0.82812 0.54688 0.15625 0.26562-0.98438h3.0938v-0.64062h-2.9219l0.34375-1.2812h2.5781v-0.64062h-2.4062l0.48438-1.8281c0.54688 0.28125 1.0469 0.64062 1.4531 1.0781l0.46875-0.4375c-0.5-0.53125-1.1094-0.96875-1.75-1.2812l0.1875-0.6875c0.57812-0.29688 1.0938-0.70312 1.5625-1.1875l-0.46875-0.4375c-0.26562 0.28125-0.54688 0.53125-0.85938 0.73438l0.45312-1.6719z"/>
</g>
</defs>
<g transform="translate(-149.6 -127.31)">
<use x="148.71201" y="134.765" xlink:href="#a"/>
</g>
</svg>
