<?xml version="1.0" encoding="UTF-8"?>
<svg fill="#000000" version="1.1" viewBox="0 0 6.625 6.6094" xmlns="http://www.w3.org/2000/svg" xmlns:xlink="http://www.w3.org/1999/xlink">
<defs>
<g id="a">
<path d="m5 0.53125c0-0.046875-0.015625-0.10938-0.0625-0.15625l-0.26562-0.28125c-0.57812-0.57812-0.64062-1.4219-0.64062-2.4062 0.98438 0 1.8438 0.0625 2.4062 0.64062l0.28125 0.26562c0.046875 0.046875 0.09375 0.078125 0.15625 0.078125 0.125 0 0.23438-0.09375 0.23438-0.23438 0-0.0625-0.015625-0.125-0.078125-0.17188l-0.26562-0.26562c-0.73438-0.73438-1.8438-0.76562-2.7344-0.76562 0-0.90625-0.03125-2.0156-0.76562-2.75l-0.28125-0.28125c-0.046875-0.03125-0.10938-0.0625-0.15625-0.0625-0.125 0-0.23438 0.09375-0.23438 0.23438 0 0.046875 0.015625 0.10938 0.0625 0.15625l0.28125 0.28125c0.57812 0.57812 0.625 1.4219 0.625 2.4062-0.96875 0-1.8281-0.0625-2.4062-0.625l-0.28125-0.28125c-0.03125-0.046875-0.09375-0.078125-0.15625-0.078125-0.125 0-0.23438 0.09375-0.23438 0.23438 0 0.0625 0.03125 0.125 0.078125 0.17188l0.26562 0.26562c0.75 0.73438 1.8438 0.76562 2.7344 0.78125 0 0.89062 0.03125 2 0.78125 2.7344l0.26562 0.28125c0.0625 0.03125 0.10938 0.046875 0.17188 0.046875 0.10938 0 0.21875-0.078125 0.21875-0.21875z"/>
</g>
</defs>
<g transform="translate(-149.2 -128.91)">
<use x="148.71201" y="134.765" xlink:href="#a"/>
</g>
</svg>
