<?xml version="1.0" encoding="UTF-8"?>
<svg fill="#000000" version="1.1" viewBox="0 0 5.8594 9.4531" xmlns="http://www.w3.org/2000/svg" xmlns:xlink="http://www.w3.org/1999/xlink">
<defs>
<g id="a">
<path d="m6.1875-3.8281v-0.09375l-5.625-2.75v0.65625l4.2969 2.1406-4.2969 2.1406v0.625zm-0.17188 3.625c-0.14062 0.71875-0.46875 1.375-1.1562 1.375-0.32812 0-0.71875-0.25-1.125-0.51562l0.8125-1.7031h-0.54688l-0.6875 1.4219c-0.39062-0.25-0.8125-0.46875-1.2031-0.46875-0.98438 0-1.5781 1.0312-1.625 2.0312h0.32812c0.15625-0.71875 0.51562-1.375 1.2188-1.375 0.28125 0 0.625 0.1875 1 0.4375l-0.84375 1.7812h0.54688l0.70312-1.5c0.4375 0.29688 0.90625 0.54688 1.3438 0.54688 0.96875 0 1.5156-1.1875 1.5625-2.0312z"/>
</g>
</defs>
<g transform="translate(-149.2 -128.09)">
<use x="148.71201" y="134.765" xlink:href="#a"/>
</g>
</svg>
