<?xml version="1.0" encoding="UTF-8"?>
<svg fill="#000000" version="1.1" viewBox="0 0 7.7188 7.2969" xmlns="http://www.w3.org/2000/svg" xmlns:xlink="http://www.w3.org/1999/xlink">
<defs>
<g id="a">
<path d="m0.42188-6.4062c0.17188-0.15625 0.32812-0.23438 0.46875-0.23438 0.20312 0 0.375 0.15625 0.51562 0.4375v4.7031h1.0469v-4.7656c0.046875-0.14062 0.1875-0.25 0.42188-0.35938 0.375 0 0.625 0.078125 0.76562 0.21875l0.078125 4.9688h1.0469v-4.7656c0.125-0.28125 0.39062-0.42188 0.78125-0.42188 0.35938 0 0.79688 0.34375 0.79688 0.67188 0 0.09375-0.046875 0.21875-0.10938 0.32812-0.35938 0-0.78125 0.48438-0.78125 1.1562v0.3125c-0.03125 0.015625-0.046875 0.0625-0.046875 0.15625 0 0.28125 0.15625 0.84375 0.46875 1.7344l0.5 0.6875c-0.23438 0.46875-0.64062 1.0625-1.1875 1.75h0.6875l0.85938-1.0469 0.82812 0.98438 0.5625 0.0625-1.1094-1.3906 0.90625-1.5469c0.14062-0.54688 0.21875-1.0781 0.21875-1.5469 0-0.70312-0.39062-1.3281-0.85938-1.3906l-0.0625-0.84375-0.35938-0.34375c-0.34375-0.14062-0.67188-0.23438-0.96875-0.23438-0.45312 0-0.82812 0.17188-1.125 0.5l-0.42188-0.40625c-0.21875-0.0625-0.42188-0.078125-0.625-0.078125-0.54688 0-1 0.1875-1.3438 0.5625 0-0.375-0.17188-0.57812-0.84375-0.57812-0.65625 0.03125-1.0312 0.0625-1.1094 0.71875zm6.1719 4.5469c-0.51562-1.0625-0.78125-1.875-0.78125-2.4375 0.015625-0.48438 0.40625-1 0.73438-1 0.4375 0.046875 0.76562 0.54688 0.76562 1.3125 0 0.125-0.015625 0.25-0.03125 0.39062l-0.54688 1.7344z"/>
</g>
</defs>
<g transform="translate(-149.13 -127.64)">
<use x="148.71201" y="134.765" xlink:href="#a"/>
</g>
</svg>
