<?xml version="1.0" encoding="UTF-8"?>
<svg fill="#000000" version="1.1" viewBox="0 0 2.75 6.3454" xmlns="http://www.w3.org/2000/svg" xmlns:xlink="http://www.w3.org/1999/xlink">
<defs>
<g id="a">
<path d="m0.8125 1.6094v0.3125l0.875-0.03125 0.9375 0.015625 0.42188 0.015625v-0.3125c-0.14062 0-0.29688 0-0.4375-0.015625-0.09375-0.015625-0.17188-0.015625-0.23438-0.0625-0.10938-0.10938-0.09375-0.28125-0.09375-0.42188v-4.125c0-0.17188 0.015625-0.32812-0.03125-0.5-0.125-0.53125-0.64062-0.9375-1.1875-0.90625-0.0625 0-0.125 0.03125-0.17188 0.03125-0.1875 0.078125-0.32812 0.21875-0.40625 0.39062-0.10938 0.23438-0.15625 0.51562-0.17188 0.78125-0.015625 0.10938-0.015625 0.20312-0.015625 0.3125s0.10938 0.1875 0.20312 0.10938c0.03125-0.03125 0.03125-0.078125 0.03125-0.14062l0.03125-0.29688c0-0.14062 0.03125-0.29688 0.0625-0.45312 0.046875-0.14062 0.09375-0.28125 0.1875-0.39062 0.125-0.125 0.3125-0.15625 0.46875-0.0625 0.0625 0.03125 0.125 0.10938 0.17188 0.17188 0.078125 0.15625 0.10938 0.35938 0.125 0.54688 0.015625 0.26562 0 0.53125 0 0.79688v3.6406c0 0.14062 0.03125 0.29688-0.03125 0.4375-0.046875 0.09375-0.15625 0.125-0.25 0.14062-0.15625 0.015625-0.3125 0.015625-0.48438 0.015625z"/>
</g>
</defs>
<g transform="translate(-149.01 -130.34)">
<use x="148.71201" y="134.765" xlink:href="#a"/>
</g>
</svg>
