<?xml version="1.0" encoding="UTF-8"?>
<svg fill="#000000" version="1.1" viewBox="0 0 10.25 7.1094" xmlns="http://www.w3.org/2000/svg" xmlns:xlink="http://www.w3.org/1999/xlink">
<defs>
<g id="a">
<path d="m10.688-0.015625v-7.1094h-10.25v7.1094zm-0.32812-0.29688h-9.5781v-6.5h9.5781zm-1.0469-1.0312-0.95312-2.3125 0.90625-2.2188h-0.42188l-0.70312 1.7656-0.67188-1.7656h-0.4375l0.89062 2.2188-0.9375 2.3125h0.40625l0.75-1.8594 0.73438 1.8594zm-2.9375 0-0.9375-4.5312h-0.45312l-0.98438 4.5312h0.39062l0.28125-1.4062h1.0469l0.26562 1.4062zm-2.6719-4.1094v-0.42188h-1.8438v4.5312h0.35938v-2.125h1.2969v-0.40625h-1.2969v-1.5781zm1.9062 2.3281h-0.84375l0.4375-2.0625z"/>
</g>
</defs>
<g transform="translate(-149.15 -127.64)">
<use x="148.71201" y="134.765" xlink:href="#a"/>
</g>
</svg>
