<?xml version="1.0" encoding="UTF-8"?>
<svg fill="#000000" version="1.1" viewBox="0 0 3.7957 4.5808" xmlns="http://www.w3.org/2000/svg" xmlns:xlink="http://www.w3.org/1999/xlink">
<defs>
<g id="a">
<path d="m0.84375-0.45312c0.125-0.015625 0.25-0.0625 0.34375-0.14062 0.17188-0.1875 0.15625-0.51562-0.046875-0.6875-0.1875-0.14062-0.5-0.125-0.65625 0.0625-0.09375 0.125-0.10938 0.28125-0.078125 0.42188 0 0.078125 0.015625 0.15625 0.046875 0.23438 0.20312 0.45312 0.73438 0.64062 1.1875 0.70312 0.25 0.03125 0.5 0.03125 0.73438-0.03125 0.25-0.0625 0.48438-0.15625 0.70312-0.29688 0.125-0.078125 0.23438-0.1875 0.34375-0.29688 0.89062-0.89062 0.89062-2.4688-0.046875-3.3594-0.65625-0.625-1.7969-0.8125-2.5312-0.20312-0.21875 0.17188-0.39062 0.42188-0.48438 0.67188-0.03125 0.078125-0.09375 0.20312-0.0625 0.28125 0.015625 0.09375 0.17188 0.09375 0.21875 0.015625 0.03125-0.046875 0.03125-0.10938 0.046875-0.15625 0.046875-0.10938 0.078125-0.1875 0.14062-0.28125 0.23438-0.39062 0.625-0.625 1.0781-0.65625 0.10938 0 0.21875 0.015625 0.32812 0.03125 0.10938 0.03125 0.1875 0.078125 0.28125 0.10938 0.625 0.34375 0.84375 1.0938 0.85938 1.7656 0.015625 0.51562-0.03125 1.0938-0.3125 1.5312-0.15625 0.25-0.35938 0.45312-0.60938 0.5625-0.1875 0.078125-0.39062 0.09375-0.57812 0.078125-0.32812-0.03125-0.65625-0.14062-0.90625-0.35938z"/>
</g>
</defs>
<g transform="translate(-149 -130.35)">
<use x="148.71201" y="134.765" xlink:href="#a"/>
</g>
</svg>
