<?xml version="1.0" encoding="UTF-8"?>
<svg fill="#000000" width="9.3125" height="4.5938" version="1.1" viewBox="0 0 9.3125 4.5937" xmlns="http://www.w3.org/2000/svg" xmlns:xlink="http://www.w3.org/1999/xlink">
<defs>
<g id="a">
<path d="m2.1562-0.875c0.17188-1.8125 1.6094-3.3281 3.4531-3.3281 2.25 0 3.4531 2.2031 3.4844 3.75 0 0.26562 0 0.4375 0.20312 0.4375 0.1875 0 0.1875-0.17188 0.1875-0.34375 0-1.9062-1.4219-4.25-3.875-4.25-1.75 0-3.5781 1.2969-3.8594 3.7812-0.54688-0.76562-1.3906-1.0938-1.4688-1.0938-0.10938 0-0.10938 0.10938-0.10938 0.15625 0 0.078125 0 0.125 0.09375 0.15625 0.70312 0.29688 1.2031 0.73438 1.5469 1.5 0.03125 0.046875 0.046875 0.09375 0.125 0.09375 0.0625 0 0.078125-0.015625 0.14062-0.15625 0.3125-0.64062 0.76562-1.1094 1.4531-1.4062 0.17188-0.078125 0.17188-0.078125 0.17188-0.20312 0-0.015625 0-0.14062-0.10938-0.14062 0 0-0.75 0.20312-1.4375 1.0469z"/>
</g>
</defs>
<g transform="translate(-148.88 -130.16)">
<use x="148.71201" y="134.765" xlink:href="#a"/>
</g>
</svg>
