<?xml version="1.0" encoding="UTF-8"?>
<svg fill="#000000" version="1.1" viewBox="0 0 3.3281 9.0781" xmlns="http://www.w3.org/2000/svg" xmlns:xlink="http://www.w3.org/1999/xlink">
<defs>
<g id="a">
<path d="m2.3125-4.6562c0.14062 0.015625 0.23438 0.015625 0.45312 0.09375 0.21875 0.0625 0.53125 0.14062 0.73438 0.14062 0.3125 0 0.375-0.25 0.375-0.32812 0-0.14062-0.09375-0.34375-0.375-0.34375-0.078125 0-0.26562 0.015625-0.59375 0.10938-0.34375 0.09375-0.4375 0.09375-0.59375 0.125 0.015625-0.21875 0.015625-0.32812 0.09375-0.76562 0.0625-0.26562 0.14062-0.73438 0.14062-1 0-0.29688-0.15625-0.40625-0.32812-0.40625-0.3125 0-0.34375 0.28125-0.34375 0.40625 0 0.14062 0.015625 0.40625 0.10938 0.84375 0.09375 0.57812 0.10938 0.6875 0.125 0.92188-0.14062-0.03125-0.23438-0.03125-0.46875-0.09375-0.20312-0.0625-0.51562-0.14062-0.71875-0.14062-0.32812 0-0.375 0.23438-0.375 0.32812 0 0.14062 0.078125 0.34375 0.375 0.34375 0.078125 0 0.26562-0.03125 0.57812-0.10938 0.35938-0.09375 0.45312-0.10938 0.60938-0.125-0.015625 0.20312-0.03125 0.32812-0.10938 0.76562-0.046875 0.26562-0.125 0.73438-0.125 1 0 0.28125 0.15625 0.39062 0.32812 0.39062 0.3125 0 0.34375-0.26562 0.34375-0.39062 0-0.14062-0.03125-0.40625-0.10938-0.84375-0.10938-0.57812-0.10938-0.6875-0.125-0.92188zm0 4.5312c0.21875 0.03125 0.51562 0.10938 0.57812 0.125 0.28125 0.078125 0.45312 0.10938 0.64062 0.10938 0.25 0 0.34375-0.1875 0.34375-0.32812s-0.10938-0.32812-0.34375-0.32812c-0.15625 0-0.32812 0.015625-0.76562 0.125-0.25 0.078125-0.26562 0.078125-0.45312 0.10938 0.015625-0.20312 0.015625-0.35938 0.10938-0.89062 0.09375-0.5 0.125-0.75 0.125-0.875 0-0.078125 0-0.40625-0.34375-0.40625-0.17188 0-0.32812 0.10938-0.32812 0.40625 0 0.09375 0.015625 0.35938 0.09375 0.76562 0.10938 0.64062 0.125 0.76562 0.14062 1-0.21875-0.03125-0.53125-0.10938-0.57812-0.125-0.28125-0.078125-0.46875-0.10938-0.64062-0.10938-0.25 0-0.34375 0.1875-0.34375 0.32812s0.09375 0.32812 0.34375 0.32812c0.15625 0 0.32812-0.015625 0.75-0.125 0.25-0.078125 0.26562-0.078125 0.46875-0.10938-0.015625 0.20312-0.03125 0.35938-0.10938 0.875-0.10938 0.51562-0.125 0.76562-0.125 0.89062 0 0.29688 0.15625 0.40625 0.32812 0.40625 0.3125 0 0.34375-0.28125 0.34375-0.40625 0-0.09375-0.03125-0.35938-0.10938-0.76562-0.10938-0.64062-0.10938-0.76562-0.125-1z"/>
</g>
</defs>
<g transform="translate(-149.26 -127.73)">
<use x="148.71201" y="134.765" xlink:href="#a"/>
</g>
</svg>
