<?xml version="1.0" encoding="UTF-8"?>
<svg fill="#000000" version="1.1" viewBox="0 0 6.9812 7.1269" xmlns="http://www.w3.org/2000/svg" xmlns:xlink="http://www.w3.org/1999/xlink">
<defs>
<g id="a">
<path d="m4.5625-6.8906v0.015625c0.375 0.28125 0.875 0.4375 1.3438 0.48438 0.14062 0.015625 0.32812 0.046875 0.46875 0.015625-0.15625 0.20312-0.35938 0.39062-0.54688 0.57812-0.39062 0.40625-0.78125 0.82812-1.1875 1.2344l-1.9062 1.9844c-0.28125 0.3125-0.57812 0.60938-0.875 0.90625-0.21875 0.21875-0.4375 0.45312-0.64062 0.6875l-0.42188 0.42188c-0.10938 0.125-0.34375 0.29688-0.20312 0.46875 0.015625 0.03125 0.03125 0.046875 0.046875 0.046875 0.17188 0.10938 0.3125-0.078125 0.42188-0.1875 0.35938-0.35938 0.71875-0.75 1.0625-1.1094 0.78125-0.84375 1.5781-1.6406 2.375-2.4688l1.4219-1.4844 0.75-0.79688c0 0.46875 0.10938 0.9375 0.3125 1.3594 0.078125 0.15625 0.17188 0.28125 0.26562 0.4375l0.28125-0.28125c-0.32812-0.45312-0.5-1.0312-0.48438-1.5938 0.015625-0.26562 0.078125-0.5 0.15625-0.75-0.46875 0.15625-0.95312 0.23438-1.4375 0.14062-0.23438-0.0625-0.45312-0.125-0.65625-0.23438-0.0625-0.03125-0.125-0.0625-0.1875-0.10938-0.03125 0-0.0625-0.015625-0.09375-0.015625s-0.046875 0.046875-0.078125 0.0625l-0.1875 0.1875z"/>
</g>
</defs>
<g transform="translate(-149.26 -127.62)">
<use x="148.71201" y="134.765" xlink:href="#a"/>
</g>
</svg>
