<?xml version="1.0" encoding="UTF-8"?>
<svg fill="#000000" version="1.1" viewBox="0 0 6.5156 7.9844" xmlns="http://www.w3.org/2000/svg" xmlns:xlink="http://www.w3.org/1999/xlink">
<defs>
<g id="a">
<path d="m3.6719 1.0625c0.17188 0.1875 0.42188 0.26562 0.6875 0.26562 0.375 0 1.1406-0.70312 1.6406-1.1719 0.35938-0.79688 0.4375-1.6719 0.4375-2.5312 0-0.60938-0.125-1.1875-0.28125-1.7656-0.51562-0.39062-1.1562-0.53125-1.7969-0.53125-0.65625 0.39062-1.2812 0.82812-1.8125 1.375-0.21875-0.45312-0.51562-1.0938-0.51562-1.4844 0-0.5 0.21875-0.82812 0.48438-1.0938 0.46875 0.23438 1.0312 0.51562 1.5156 0.51562 0.32812 0 1-0.65625 1.4219-1.0781l-0.125-0.15625c-0.53125 0.40625-0.64062 0.54688-0.85938 0.54688-0.5 0-0.9375-0.26562-1.2812-0.60938-0.82812 0.57812-1.9688 1.4844-1.9688 2.3594 0 1.0156 1.0156 2.1406 1.0156 2.9844-0.015625 0.25-0.046875 0.4375-0.23438 0.6875-0.20312-0.23438-0.57812-0.53125-0.89062-0.53125-0.40625 0-0.90625 0.53125-1.1875 1.0625l0.125 0.14062c0.125-0.15625 0.35938-0.40625 0.65625-0.40625 0.28125 0 0.625 0.28125 0.875 0.51562 0.1875-0.14062 0.9375-1.0781 1.25-1.4844 0.09375-0.125 0.10938-0.34375 0.10938-0.51562 0-0.23438-0.078125-0.70312-0.28125-1.2188 0.42188-0.5 0.9375-0.96875 1.5469-0.96875 0.89062 0 1.375 0.64062 1.375 2.125 0 0.98438 0.03125 2.7031-0.85938 2.7031-0.25 0-0.46875-0.15625-0.57812-0.375z"/>
</g>
</defs>
<g transform="translate(-148.63 -128.11)">
<use x="148.71201" y="134.765" xlink:href="#a"/>
</g>
</svg>
