<?xml version="1.0" encoding="UTF-8"?>
<svg fill="#000000" version="1.1" viewBox="0 0 6.4375 6.1875" xmlns="http://www.w3.org/2000/svg" xmlns:xlink="http://www.w3.org/1999/xlink">
<defs>
<g id="a">
<path d="m6.5938-1.0938c-0.1875 0.03125-0.40625 0.046875-0.60938 0.046875v-4.5625l-3.2188 3.2344c-0.15625-0.15625-0.29688-0.3125-0.42188-0.48438l-0.53125 0.39062c0.15625 0.20312 0.3125 0.39062 0.48438 0.5625l-0.90625 0.89062c-0.078125 0.0625-0.14062 0.09375-0.1875 0.09375-0.17188 0-0.25-0.1875-0.25-0.35938 0-0.42188-0.03125-0.57812-0.09375-0.96875h-0.26562c0.015625 0.29688 0.03125 0.5625 0.03125 0.8125 0 0.65625-0.09375 1.2656-0.35938 1.9531l0.0625 0.0625c0.67188-0.28125 1.25-0.375 1.8906-0.375 0.28125 0 0.53125 0.03125 0.84375 0.046875l0.015625-0.28125c-0.39062-0.09375-0.60938-0.09375-0.98438-0.09375-0.1875 0-0.3125-0.03125-0.3125-0.21875 0-0.0625 0-0.125 0.078125-0.21875l0.9375-0.92188c0.71875 0.5625 1.5781 0.9375 2.5312 1.0625v1h0.65625v-0.96875c0.23438 0 0.48438-0.015625 0.71875-0.046875zm-1.2656 0c-0.76562-0.10938-1.4688-0.40625-2.0625-0.85938l2.0625-2.0625z"/>
</g>
</defs>
<g transform="translate(-148.98 -129.16)">
<use x="148.71201" y="134.765" xlink:href="#a"/>
</g>
</svg>
