<?xml version="1.0" encoding="UTF-8"?>
<svg fill="#000000" width="5.8594" height="3.7188" version="1.1" viewBox="0 0 5.8594 3.7187" xmlns="http://www.w3.org/2000/svg" xmlns:xlink="http://www.w3.org/1999/xlink">
<defs>
<g id="a">
<path d="m4.1406-4.5625c0-0.375-0.3125-0.625-0.625-0.625-0.32812 0-0.64062 0.25-0.64062 0.625 0 0.39062 0.25 0.64062 0.64062 0.64062 0.375 0 0.625-0.3125 0.625-0.64062zm1.875 0.95312c-0.14062 0.70312-0.46875 1.375-1.1562 1.375-0.73438 0-1.7969-1.2812-2.75-1.2812-0.98438 0-1.5781 1.0469-1.625 2.0469h0.32812c0.15625-0.71875 0.51562-1.375 1.2188-1.375 0.71875 0 1.7812 1.2656 2.75 1.2656s1.5156-1.1875 1.5625-2.0312z"/>
</g>
</defs>
<g transform="translate(-149.2 -129.58)">
<use x="148.71201" y="134.765" xlink:href="#a"/>
</g>
</svg>
