<?xml version="1.0" encoding="UTF-8"?>
<svg fill="#000000" version="1.1" viewBox="0 0 7.8125 6.5156" xmlns="http://www.w3.org/2000/svg" xmlns:xlink="http://www.w3.org/1999/xlink">
<defs>
<g id="a">
<path d="m8.5156-2.0938c0-1.8281-1.2344-2.1875-1.8125-2.1875h-0.23438c-0.015625-1.6094-0.92188-2.2344-1.8594-2.2344-0.95312 0-1.8594 0.625-1.875 2.2344h-0.21875c-0.90625 0-1.8125 0.82812-1.8125 2.1719 0 0.96875 0.60938 2.1094 1.875 2.1094 0.875 0 1.4844-0.40625 2.2188-1.5781 0.45312 0.90625 1 1.5781 1.9688 1.5781 0.84375 0 1.75-0.71875 1.75-2.0938zm-2.3438-2.1562c-0.5 0.10938-0.98438 0.4375-1.7812 1.5156-0.35938-0.67188-0.71875-1.2656-1.3438-1.4688v-0.0625c0-0.92188 0.70312-1.4062 1.5625-1.4062s1.5625 0.48438 1.5625 1.4062zm-1.1719 2.3438c0.90625-1.2812 1.1719-1.5469 1.9844-1.5469 0.76562 0 1.2344 0.51562 1.2344 1.2031 0 0.92188-0.71875 1.4062-1.5625 1.4062-0.89062 0-1.3906-0.6875-1.6562-1.0469zm-0.76562-0.5c-0.875 1.375-1.1875 1.5625-2 1.5625-0.78125 0-1.2344-0.5-1.2344-1.2031 0-0.90625 0.71875-1.4062 1.5625-1.4062 0.98438 0 1.375 0.71875 1.6719 1.0469z"/>
</g>
</defs>
<g transform="translate(-149.42 -128.25)">
<use x="148.71201" y="134.765" xlink:href="#a"/>
</g>
</svg>
