<?xml version="1.0" encoding="UTF-8"?>
<svg fill="#000000" width="2.25" height="7.0938" version="1.1" viewBox="0 0 2.25 7.0937" xmlns="http://www.w3.org/2000/svg" xmlns:xlink="http://www.w3.org/1999/xlink">
<defs>
<g id="a">
<path d="m3.2656 1c0.17188 0 0.70312-0.5 0.89062-0.6875 0.21875 0.23438 0.71875 0.6875 0.89062 0.6875s0.23438-0.15625 0.23438-0.23438c0-0.23438-0.3125-0.23438-0.82812-0.8125 0.51562-0.70312 0.82812-1.5938 0.82812-2.5s-0.3125-1.7969-0.82812-2.5c0.20312-0.23438 0.45312-0.45312 0.71875-0.625 0.0625-0.046875 0.10938-0.10938 0.10938-0.1875 0-0.125-0.125-0.23438-0.23438-0.23438-0.1875 0-0.70312 0.5-0.89062 0.6875-0.23438-0.23438-0.73438-0.6875-0.89062-0.6875-0.17188 0-0.23438 0.15625-0.23438 0.23438 0 0.23438 0.29688 0.23438 0.82812 0.8125-0.53125 0.70312-0.82812 1.5938-0.82812 2.5s0.29688 1.7969 0.82812 2.5c-0.20312 0.23438-0.45312 0.45312-0.73438 0.625-0.046875 0.046875-0.09375 0.10938-0.09375 0.1875 0 0.125 0.125 0.23438 0.23438 0.23438zm0.89062-1.4219c-0.42188-0.60938-0.67188-1.3594-0.67188-2.125s0.25-1.5156 0.67188-2.125c0.42188 0.60938 0.65625 1.3594 0.65625 2.125s-0.23438 1.5156-0.65625 2.125z"/>
</g>
</defs>
<g transform="translate(-151.74 -128.67)">
<use x="148.71201" y="134.765" xlink:href="#a"/>
</g>
</svg>
