<?xml version="1.0" encoding="UTF-8"?>
<svg fill="#000000" version="1.1" viewBox="0 0 6.3791 8.8507" xmlns="http://www.w3.org/2000/svg" xmlns:xlink="http://www.w3.org/1999/xlink">
<defs>
<g id="a">
<path d="m5.2969-5.8125c-0.09375-0.015625-0.29688-0.046875-0.32812 0.078125-0.03125 0.046875-0.015625 0.10938-0.015625 0.15625v0.29688c0 0.0625 0.015625 0.125-0.015625 0.1875-0.015625 0.078125-0.078125 0.15625-0.10938 0.21875l-0.1875 0.40625c-0.20312 0.375-0.39062 0.76562-0.57812 1.1562-0.09375 0.17188-0.20312 0.35938-0.28125 0.54688v-2.8125c0-0.0625 0-0.14062-0.03125-0.20312-0.046875-0.0625-0.21875-0.046875-0.28125-0.03125-0.09375 0.015625-0.09375 0.10938-0.09375 0.1875v2.9219h-2.5938c-0.046875 0-0.125-0.015625-0.17188 0.015625-0.078125 0.0625-0.0625 0.21875-0.046875 0.29688 0.03125 0.078125 0.10938 0.09375 0.17188 0.09375h2.6406c0 0.10938 0.03125 0.23438 0 0.34375-0.03125 0.09375-0.09375 0.20312-0.14062 0.28125-0.09375 0.20312-0.1875 0.39062-0.28125 0.57812-0.29688 0.625-0.60938 1.25-0.92188 1.875l-0.375 0.73438c-0.03125 0.0625-0.0625 0.125-0.09375 0.17188-0.015625 0.046875-0.03125 0.09375-0.03125 0.14062 0.015625 0.10938 0.15625 0.09375 0.23438 0.09375 0.03125 0 0.09375 0 0.125-0.015625 0.046875-0.03125 0.0625-0.078125 0.09375-0.125 0.046875-0.09375 0.09375-0.20312 0.125-0.28125 0.28125-0.5625 0.54688-1.1094 0.82812-1.6719l0.28125-0.54688c0.046875-0.09375 0.10938-0.20312 0.15625-0.3125v1.1406c0 0.1875-0.015625 0.40625 0 0.59375 0.015625 0.10938 0.125 0.10938 0.21875 0.10938 0.0625 0 0.125 0 0.17188-0.046875 0.015625-0.0625 0.015625-0.14062 0.015625-0.20312v-2.1875c0-0.0625-0.015625-0.15625 0-0.21875 0.015625-0.078125 0.078125-0.15625 0.10938-0.23438l0.20312-0.40625c0.1875-0.35938 0.35938-0.71875 0.54688-1.0781 0.0625-0.15625 0.14062-0.3125 0.21875-0.45312 0.03125-0.078125 0.0625-0.125 0.078125-0.20312 0.03125 0.14062 0.015625 0.29688 0.015625 0.4375v4.2812c0 0.09375-0.03125 0.25 0.078125 0.3125h0.10938c0.078125 0 0.17188 0.015625 0.20312-0.078125 0.015625-0.046875 0.015625-0.10938 0.015625-0.17188v-5.2344c0-0.125-0.03125-0.28125 0.03125-0.40625 0.20312-0.45312 0.4375-0.89062 0.65625-1.3438 0.046875-0.09375 0.10938-0.20312 0.15625-0.3125 0.015625-0.046875 0.03125-0.10938 0-0.15625-0.03125-0.03125-0.078125-0.03125-0.125-0.03125-0.09375 0-0.1875-0.03125-0.25 0.046875-0.03125 0.03125-0.046875 0.09375-0.0625 0.125-0.046875 0.09375-0.078125 0.17188-0.14062 0.26562l-0.20312 0.40625c-0.03125 0.09375-0.09375 0.17188-0.125 0.26562zm1.2969 0c-0.046875 0.015625-0.0625 0.078125-0.0625 0.125v0.25 6.0781c0 0.03125 0 0.078125 0.015625 0.10938 0.046875 0.078125 0.125 0.0625 0.20312 0.0625h0.09375c0.046875-0.015625 0.078125-0.0625 0.078125-0.10938 0.015625-0.078125 0-0.17188 0-0.26562v-6.0625-0.125c-0.046875-0.078125-0.14062-0.078125-0.21875-0.078125-0.03125 0-0.078125 0-0.10938 0.015625z"/>
</g>
</defs>
<g transform="translate(-149.26 -127.84)">
<use x="148.71201" y="134.765" xlink:href="#a"/>
</g>
</svg>
