<?xml version="1.0" encoding="UTF-8"?>
<svg fill="#000000" version="1.1" viewBox="0 0 4.5781 7.9899" xmlns="http://www.w3.org/2000/svg" xmlns:xlink="http://www.w3.org/1999/xlink">
<defs>
<g id="a">
<path d="m1-0.51562c0 0.14062 0.14062 0.20312 0.25 0.20312 0.0625 0 0.10938-0.015625 0.15625-0.046875 0.15625-0.09375 0.015625-1 1.4375-1.5156l-1.2969 3.1406c-0.046875 0.09375 0 0.1875 0.09375 0.21875 0.09375 0.046875 0.1875 0 0.21875-0.09375l1.4062-3.3906c0.6875-0.17188 1.375-0.21875 2.0625-0.21875 0.17188 0 0.25-0.09375 0.25-0.25 0-0.09375-0.015625-0.15625-0.078125-0.21875-0.03125-0.03125-0.10938-0.046875-0.17188-0.046875-0.54688 0-1.125-0.03125-1.6875-0.14062l1.3906-3.3594c0.046875-0.10938 0.015625-0.20312-0.078125-0.23438-0.10938-0.046875-0.20312 0-0.23438 0.09375l-1.4219 3.4219c-0.57812-0.125-1.1719-0.35938-1.5312-0.84375-0.26562-0.32812-0.20312-0.84375-0.51562-0.84375-0.14062 0-0.25 0.078125-0.25 0.21875 0 0.23438 0.125 0.5625 0.25 0.76562 0.40625 0.67188 1.125 0.98438 1.8438 1.1719v0.015625c-0.71875 0.20312-1.4375 0.5-1.8438 1.1562-0.14062 0.21875-0.25 0.54688-0.25 0.79688z"/>
</g>
</defs>
<g transform="translate(-149.71 -128.28)">
<use x="148.71201" y="134.765" xlink:href="#a"/>
</g>
</svg>
