<?xml version="1.0" encoding="UTF-8"?>
<svg fill="#000000" version="1.1" viewBox="0 0 8.8444 2.7874" xmlns="http://www.w3.org/2000/svg" xmlns:xlink="http://www.w3.org/1999/xlink">
<defs>
<g id="a">
<path d="m1.7812-2.3906c0.15625-0.125 0.34375-0.21875 0.51562-0.3125 0.3125-0.14062 0.625-0.28125 0.96875-0.375 1.1875-0.32812 2.5156-0.3125 3.7031 0.09375 0.26562 0.078125 0.5 0.1875 0.73438 0.29688 0.15625 0.078125 0.34375 0.17188 0.48438 0.29688-0.21875 0.015625-0.4375 0.0625-0.65625 0.125-0.10938 0.015625-0.23438 0.046875-0.35938 0.078125-0.09375 0.03125-0.1875 0.046875-0.29688 0.078125-0.046875 0.015625-0.10938 0.03125-0.15625 0.0625-0.14062 0.10938 0.078125 0.28125 0.1875 0.29688 0.09375 0.015625 0.1875 0 0.28125-0.015625 0.14062-0.015625 0.28125 0 0.42188 0 0.32812 0 0.67188 0.046875 1.0156 0.09375 0.17188 0.03125 0.35938 0.078125 0.53125 0.125 0.078125 0.015625 0.17188 0.046875 0.21875-0.015625 0.0625-0.046875 0.015625-0.125 0-0.20312-0.0625-0.17188-0.125-0.34375-0.1875-0.5-0.10938-0.42188-0.23438-0.82812-0.3125-1.25-0.03125-0.14062-0.046875-0.26562-0.078125-0.40625-0.015625-0.0625-0.015625-0.15625-0.046875-0.21875s-0.14062-0.14062-0.20312-0.17188c-0.0625 0-0.125 0.03125-0.14062 0.078125-0.015625 0.09375-0.015625 0.20312-0.015625 0.28125 0 0.1875 0.015625 0.35938 0.015625 0.54688 0 0.21875 0.03125 0.46875 0.03125 0.6875-0.40625-0.28125-0.875-0.5-1.3438-0.65625-0.57812-0.1875-1.1719-0.29688-1.7656-0.3125-0.73438-0.03125-1.4531 0.03125-2.1562 0.23438-0.57812 0.14062-1.1562 0.39062-1.6406 0.73438 0-0.21875 0.03125-0.46875 0.03125-0.6875 0-0.1875 0.015625-0.35938 0.015625-0.54688 0-0.078125 0-0.1875-0.015625-0.28125-0.015625-0.046875-0.078125-0.078125-0.14062-0.078125-0.0625 0.03125-0.17188 0.10938-0.20312 0.17188s-0.03125 0.15625-0.046875 0.21875c-0.03125 0.14062-0.046875 0.26562-0.078125 0.40625-0.078125 0.42188-0.20312 0.82812-0.3125 1.25-0.0625 0.15625-0.125 0.32812-0.1875 0.5-0.015625 0.078125-0.0625 0.15625 0 0.20312 0.046875 0.0625 0.14062 0.03125 0.21875 0.015625 0.17188-0.046875 0.35938-0.09375 0.53125-0.125 0.34375-0.046875 0.6875-0.09375 1.0156-0.09375 0.14062 0 0.28125-0.015625 0.42188 0 0.09375 0.015625 0.1875 0.03125 0.28125 0.015625 0.10938-0.015625 0.32812-0.1875 0.1875-0.29688-0.046875-0.03125-0.10938-0.046875-0.15625-0.0625-0.10938-0.03125-0.20312-0.046875-0.29688-0.078125-0.125-0.03125-0.25-0.0625-0.35938-0.078125-0.21875-0.0625-0.4375-0.10938-0.65625-0.125z"/>
</g>
</defs>
<g transform="translate(-149.27 -130.45)">
<use x="148.71201" y="134.765" xlink:href="#a"/>
</g>
</svg>
