<?xml version="1.0" encoding="UTF-8"?>
<svg fill="#000000" version="1.1" viewBox="0 0 8.7969 5.5625" xmlns="http://www.w3.org/2000/svg" xmlns:xlink="http://www.w3.org/1999/xlink">
<defs>
<g id="a">
<path d="m9.0469-2.8438c-1.8125-0.17188-4.0312-0.85938-5.2344-2.4531v0.76562c0.5 0.85938 1.9844 1.6562 3.1094 2.0156-1.125 0.34375-2.6094 1.1562-3.1094 2v0.78125c1.2031-1.6094 3.4219-2.2969 5.2344-2.4531zm-3.5625 0c-1.8281-0.17188-4.0312-0.85938-5.2344-2.4531v0.76562c0.5 0.85938 1.9844 1.6562 3.1094 2.0156-1.125 0.34375-2.6094 1.1562-3.1094 2v0.78125c1.2031-1.6094 3.4062-2.2969 5.2344-2.4531z"/>
</g>
</defs>
<g transform="translate(-148.96 -129.47)">
<use x="148.71201" y="134.765" xlink:href="#a"/>
</g>
</svg>
