<?xml version="1.0" encoding="UTF-8"?>
<svg fill="#000000" version="1.1" viewBox="0 0 4.6875 11.406" xmlns="http://www.w3.org/2000/svg" xmlns:xlink="http://www.w3.org/1999/xlink">
<defs>
<g id="a">
<path d="m5.1406-0.51562-1.8906-1.875 1.8906-1.8906-0.46875-0.45312-1.5156 1.5312v-2.8125c0-1.0469 0.0625-1.7656 0.5625-1.7656 0.078125 0 0.125 0.03125 0.125 0.10938 0 0.09375-0.078125 0.078125-0.078125 0.28125 0 0.25 0.17188 0.32812 0.34375 0.32812 0.21875 0 0.42188-0.14062 0.42188-0.42188 0-0.29688-0.1875-0.60938-0.6875-0.60938-1.1875 0-1.4219 1.375-1.4219 2.1719v2.7031l-1.5156-1.5156-0.45312 0.45312 1.875 1.8906-1.875 1.875 0.45312 0.46875 1.5156-1.5156v2.9219c0 1-0.078125 1.6406-0.54688 1.6406-0.078125 0-0.125-0.046875-0.125-0.10938 0-0.09375 0.078125-0.078125 0.078125-0.28125 0-0.25-0.17188-0.34375-0.35938-0.34375-0.20312 0-0.40625 0.15625-0.40625 0.42188 0 0.3125 0.1875 0.625 0.6875 0.625 1.1094 0 1.4062-1.2031 1.4062-2.0156v-2.875l1.5156 1.5312z"/>
</g>
</defs>
<g transform="translate(-149.17 -126.63)">
<use x="148.71201" y="134.72501" xlink:href="#a"/>
</g>
</svg>
