<?xml version="1.0" encoding="UTF-8"?>
<svg fill="#000000" width="3.3281" height="8.0938" version="1.1" viewBox="0 0 3.3281 8.0937" xmlns="http://www.w3.org/2000/svg" xmlns:xlink="http://www.w3.org/1999/xlink">
<defs>
<g id="a">
<path d="m3.6719-1.0938c-0.21875 0-0.70312 0.67188-1.1875 1.1406v-4.25c0.14062-0.8125 0.71875-1.4531 1.3438-1.9844 0.0625-0.046875 0.09375-0.10938 0.09375-0.1875 0-0.10938-0.10938-0.21875-0.25-0.21875-0.26562 0-0.82812 0.85938-1.4219 1.3438-0.5625-0.46875-1.1562-1.3438-1.4219-1.3438-0.14062 0-0.23438 0.10938-0.23438 0.21875 0 0.078125 0.03125 0.14062 0.078125 0.1875 0.64062 0.53125 1.2188 1.1719 1.3594 1.9844v4.25c-0.46875-0.45312-0.96875-1.1406-1.2031-1.1406-0.14062 0-0.23438 0.10938-0.23438 0.21875 0 0.078125 0.03125 0.14062 0.078125 0.1875 0.64062 0.53125 1.2188 1.1875 1.3594 2 0.015625 0.10938 0.10938 0.1875 0.21875 0.1875 0.125 0 0.21875-0.078125 0.23438-0.1875 0.14062-0.8125 0.70312-1.4688 1.3438-2 0.0625-0.046875 0.09375-0.10938 0.09375-0.1875 0-0.10938-0.10938-0.21875-0.25-0.21875z"/>
</g>
</defs>
<g transform="translate(-149.31 -128.17)">
<use x="148.71201" y="134.765" xlink:href="#a"/>
</g>
</svg>
