<?xml version="1.0" encoding="UTF-8"?>
<svg fill="#000000" version="1.1" viewBox="0 0 6.4375 6.1875" xmlns="http://www.w3.org/2000/svg" xmlns:xlink="http://www.w3.org/1999/xlink">
<defs>
<g id="a">
<path d="m6.7031-5.6094c-0.65625 0.28125-1.25 0.375-1.8906 0.375-0.26562 0-0.53125-0.015625-0.82812-0.046875l-0.015625 0.28125c0.375 0.09375 0.60938 0.10938 0.96875 0.10938 0.1875 0 0.32812 0.03125 0.32812 0.20312 0 0.0625 0 0.125-0.09375 0.21875l-0.92188 0.9375c-0.71875-0.5625-1.5938-0.9375-2.5312-1.0625v-1.0156h-0.65625v0.96875c-0.25 0-0.5 0.015625-0.71875 0.0625l0.09375 0.64062c0.20312-0.03125 0.40625-0.046875 0.625-0.046875v4.5625l3.2188-3.2188c0.14062 0.14062 0.28125 0.3125 0.40625 0.48438l0.53125-0.40625c-0.14062-0.20312-0.29688-0.375-0.46875-0.54688l0.90625-0.89062c0.0625-0.0625 0.125-0.10938 0.1875-0.10938 0.17188 0 0.23438 0.1875 0.23438 0.35938 0.015625 0.4375 0.03125 0.59375 0.10938 0.98438l0.26562-0.015625c-0.015625-0.29688-0.03125-0.54688-0.03125-0.8125 0-0.64062 0.078125-1.25 0.35938-1.9375zm-4.9844 4.6094v-2.9219c0.76562 0.10938 1.4688 0.40625 2.0625 0.84375z"/>
</g>
</defs>
<g transform="translate(-149.06 -129.16)">
<use x="148.71201" y="134.765" xlink:href="#a"/>
</g>
</svg>
