<?xml version="1.0" encoding="UTF-8"?>
<svg fill="#000000" version="1.1" viewBox="0 0 6 11.406" xmlns="http://www.w3.org/2000/svg" xmlns:xlink="http://www.w3.org/1999/xlink">
<defs>
<g id="a">
<path d="m4.875-6.4531c0-0.39062 0.015625-1.4531 0.5625-1.4531 0.078125 0 0.14062 0.03125 0.14062 0.10938s-0.09375 0.14062-0.09375 0.28125c0 0.21875 0.14062 0.34375 0.35938 0.34375 0.23438 0 0.42188-0.1875 0.42188-0.42188 0-0.40625-0.3125-0.625-0.6875-0.625-1.1406 0-1.4375 1.2656-1.4375 2.1719v1.4844c-0.25-0.046875-0.51562-0.078125-0.79688-0.078125-0.25 0-0.51562 0.03125-0.76562 0.078125v-1.8906c0-0.39062 0.015625-1.4531 0.57812-1.4531 0.0625 0 0.125 0.03125 0.125 0.10938s-0.09375 0.14062-0.09375 0.28125c0 0.21875 0.15625 0.34375 0.35938 0.34375 0.23438 0 0.42188-0.1875 0.42188-0.42188 0-0.40625-0.3125-0.625-0.6875-0.625-1.1406 0-1.4219 1.2656-1.4219 2.1719v1.7031c-0.79688 0.34375-1.5156 1.0312-1.5156 1.9531s0.71875 1.6094 1.5156 1.9375v1.9531c0 0.35938 0 1.375-0.54688 1.375-0.078125 0-0.14062-0.03125-0.14062-0.10938 0-0.0625 0.09375-0.14062 0.09375-0.26562 0-0.23438-0.15625-0.34375-0.35938-0.34375-0.23438 0-0.42188 0.17188-0.42188 0.42188 0 0.40625 0.3125 0.60938 0.6875 0.60938 1.0781 0 1.4062-1.125 1.4062-2.0156v-1.3906c0.25 0.046875 0.51562 0.0625 0.76562 0.0625 0.28125 0 0.54688-0.015625 0.79688-0.078125v1.75c0 0.375 0 1.3594-0.54688 1.3594-0.0625 0-0.125-0.03125-0.125-0.10938 0-0.0625 0.09375-0.14062 0.09375-0.26562 0-0.23438-0.15625-0.34375-0.35938-0.34375-0.25 0-0.42188 0.17188-0.42188 0.42188 0 0.40625 0.3125 0.60938 0.6875 0.60938 1.0625 0 1.4062-1.125 1.4062-2.0156v-1.625c0.78125-0.35938 1.4688-1.0312 1.4688-1.9375s-0.6875-1.5938-1.4688-1.9375zm0 2.5469c0.57812 0.28125 1.0938 0.82812 1.0938 1.5156s-0.51562 1.2188-1.0938 1.5156zm-0.73438 3.2812c-0.25 0.0625-0.51562 0.09375-0.79688 0.09375-0.25 0-0.51562-0.03125-0.76562-0.078125v-3.5625c0.25-0.0625 0.51562-0.078125 0.76562-0.078125 0.28125 0 0.54688 0.015625 0.79688 0.078125zm-2.2812-0.23438c-0.60938-0.29688-1.125-0.82812-1.125-1.5312s0.51562-1.2344 1.125-1.5312z"/>
</g>
</defs>
<g transform="translate(-149.06 -126.51)">
<use x="148.71201" y="134.72501" xlink:href="#a"/>
</g>
</svg>
