<?xml version="1.0" encoding="UTF-8"?>
<svg fill="#000000" version="1.1" viewBox="0 0 5.6406 10.172" xmlns="http://www.w3.org/2000/svg" xmlns:xlink="http://www.w3.org/1999/xlink">
<defs>
<g id="a">
<path d="m6.2344-2.4844v-0.65625h-3.25c-0.96875 0-1.7188-0.9375-1.7188-1.8281 0-0.90625 0.75-1.8125 1.7188-1.8125h3.25v-0.65625h-3.2031c-1.4531 0-2.4219 1.1562-2.4219 2.4844s0.95312 2.4688 2.375 2.4688zm-0.32812 0.73438c-0.14062 0.70312-0.45312 1.375-1.1094 1.375-0.70312 0-1.7188-1.2812-2.6406-1.2812-0.9375 0-1.5156 1.0312-1.5625 2.0312h0.32812c0.14062-0.70312 0.5-1.375 1.1719-1.375 0.6875 0 1.7031 1.2812 2.625 1.2812 0.9375 0 1.4531-1.1875 1.5156-2.0312zm0 2.3438c-0.14062 0.71875-0.45312 1.375-1.1094 1.375-0.70312 0-1.7188-1.2656-2.6406-1.2656-0.9375 0-1.5156 1.0312-1.5625 2.0312h0.32812c0.14062-0.70312 0.5-1.375 1.1719-1.375 0.6875 0 1.7031 1.2656 2.625 1.2656 0.9375 0 1.4531-1.1719 1.5156-2.0312z"/>
</g>
</defs>
<g transform="translate(-149.31 -127.33)">
<use x="148.71201" y="134.765" xlink:href="#a"/>
</g>
</svg>
