<?xml version="1.0" encoding="UTF-8"?>
<svg fill="#000000" version="1.1" viewBox="0 0 6.1875 6.4375" xmlns="http://www.w3.org/2000/svg" xmlns:xlink="http://www.w3.org/1999/xlink">
<defs>
<g id="a">
<path d="m6.5469-5.0469h-4.5625c0-0.20312 0.015625-0.42188 0.046875-0.60938l-0.65625-0.10938c-0.046875 0.23438-0.046875 0.48438-0.046875 0.71875h-0.96875v0.65625h1c0.125 0.95312 0.5 1.8125 1.0625 2.5312l-0.92188 0.9375c-0.09375 0.078125-0.17188 0.078125-0.21875 0.078125-0.1875 0-0.21875-0.14062-0.21875-0.3125 0-0.375 0-0.59375-0.09375-0.98438l-0.28125 0.015625c0.015625 0.3125 0.046875 0.5625 0.046875 0.84375 0 0.64062-0.09375 1.2188-0.375 1.8906l0.0625 0.0625c0.6875-0.26562 1.2969-0.35938 1.9531-0.35938 0.25 0 0.51562 0.015625 0.8125 0.03125v-0.26562c-0.39062-0.0625-0.54688-0.09375-0.96875-0.09375-0.17188 0-0.35938-0.078125-0.35938-0.25 0-0.046875 0.03125-0.10938 0.09375-0.1875l0.89062-0.90625c0.17188 0.17188 0.35938 0.32812 0.5625 0.48438l0.39062-0.53125c-0.17188-0.125-0.32812-0.26562-0.48438-0.42188zm-1.5938 0.65625-2.0625 2.0625c-0.45312-0.59375-0.75-1.2969-0.85938-2.0625z"/>
</g>
</defs>
<g transform="translate(-149.07 -129)">
<use x="148.71201" y="134.765" xlink:href="#a"/>
</g>
</svg>
