<?xml version="1.0" encoding="UTF-8"?>
<svg fill="#000000" version="1.1" viewBox="0 0 7.6406 6.3125" xmlns="http://www.w3.org/2000/svg" xmlns:xlink="http://www.w3.org/1999/xlink">
<defs>
<g id="a">
<path d="m8.1719-3.1406c0.125 0 0.23438-0.078125 0.28125-0.20312 0.26562-0.71875 0.90625-1.1875 1.4688-1.5156 0.09375-0.0625 0.14062-0.15625 0.14062-0.25 0-0.17188-0.14062-0.29688-0.29688-0.29688-0.20312 0-0.64062 0.39062-1.0312 0.6875-0.03125-1.7031-1.4219-3.0938-3.1562-3.0938-1.7188 0-3.1562 1.3906-3.1562 3.1562 0 1.7188 1.3906 3.1562 3.1562 3.1562 0.78125 0 1.5938-0.28125 2.2344-0.92188 0.046875-0.046875 0.078125-0.125 0.078125-0.20312 0-0.1875-0.14062-0.29688-0.28125-0.29688-0.078125 0-0.15625 0.03125-0.21875 0.09375-0.51562 0.5-1.1875 0.75-1.8125 0.75-1.4531 0-2.5625-1.1875-2.5625-2.5781 0-1.4375 1.1875-2.5625 2.5625-2.5625 1.4375 0 2.5312 1.1406 2.5625 2.4844-0.21875-0.34375-0.40625-0.70312-0.67188-1.0156-0.0625-0.078125-0.14062-0.10938-0.23438-0.10938-0.20312 0-0.28125 0.20312-0.28125 0.29688 0 0.0625 0.015625 0.14062 0.0625 0.1875 0.46875 0.5625 0.85938 1.2031 0.85938 1.9375 0 0.15625 0.125 0.29688 0.29688 0.29688z"/>
</g>
</defs>
<g transform="translate(-151.13 -130.84)">
<use x="148.71201" y="138.64999" xlink:href="#a"/>
</g>
</svg>
