<?xml version="1.0" encoding="UTF-8"?>
<svg fill="#000000" version="1.1" viewBox="0 0 6.2344 11.406" xmlns="http://www.w3.org/2000/svg" xmlns:xlink="http://www.w3.org/1999/xlink">
<defs>
<g id="a">
<path d="m3.9375-5.6094h-3.4219l2.6875 2.9219-0.125 0.5-2.75 2.7812h2.0625l-0.15625 0.64062c-0.25 1.0156-0.48438 1.6406-0.95312 1.6406-0.078125 0-0.10938-0.03125-0.10938-0.078125 0-0.10938 0.17188-0.09375 0.17188-0.39062 0-0.15625-0.15625-0.25-0.3125-0.25-0.28125 0-0.51562 0.25-0.51562 0.57812 0 0.25 0.15625 0.45312 0.54688 0.45312 1.125 0 1.7344-1.2031 1.9219-2.0156l0.14062-0.57812h2.9531l0.40625-1.9375h-0.21875c-0.21875 0.76562-0.5625 1.0312-1.3438 1.0312h-1.5781l0.5-1.9844 0.46875-0.46875-0.28125-0.3125 0.51562-2.0312c0.45312 0.03125 0.92188 0.125 1.1094 0.82812 0.03125 0.078125 0.0625 0.20312 0.0625 0.29688h0.20312v-1.625h-1.25l0.14062-0.53125c0.25-1.0469 0.5-1.7656 1-1.7656 0.0625 0 0.10938 0.03125 0.10938 0.078125 0 0.09375-0.1875 0.15625-0.1875 0.40625 0 0.17188 0.17188 0.25 0.3125 0.25 0.28125 0 0.51562-0.26562 0.51562-0.59375 0-0.23438-0.14062-0.45312-0.54688-0.45312-1.1875 0-1.7656 1.375-1.9688 2.1719zm-0.125 0.5-0.35938 1.4375-1.3438-1.4375zm-0.9375 3.7812-0.26562 1.0156h-0.76562z"/>
</g>
</defs>
<g transform="translate(-149.04 -126.51)">
<use x="148.71201" y="134.72501" xlink:href="#a"/>
</g>
</svg>
