<?xml version="1.0" encoding="UTF-8"?>
<svg fill="#000000" version="1.1" viewBox="0 0 3.8906 4.3594" xmlns="http://www.w3.org/2000/svg" xmlns:xlink="http://www.w3.org/1999/xlink">
<defs>
<g id="a">
<path d="m4.5625-3.3594c0-0.20312-0.15625-0.42188-0.35938-0.42188-0.078125 0-0.14062 0.015625-0.21875 0.0625-0.28125 0.15625-0.54688 0.6875-1.2656 1.0625 0-0.6875 0.29688-1.3281 0.29688-1.6406 0-0.20312-0.20312-0.39062-0.39062-0.39062s-0.375 0.1875-0.375 0.39062c0 0.3125 0.29688 0.96875 0.29688 1.6562-0.57812-0.29688-1.0156-0.90625-1.2969-1.0781-0.078125-0.046875-0.15625-0.0625-0.21875-0.0625-0.21875 0-0.35938 0.21875-0.35938 0.42188 0 0.10938 0.0625 0.21875 0.20312 0.29688 0.26562 0.17188 1.0312 0.26562 1.5625 0.5625-0.53125 0.3125-1.2656 0.40625-1.5312 0.5625-0.15625 0.078125-0.20312 0.25-0.20312 0.375 0 0.17188 0.125 0.32812 0.35938 0.32812 0.09375 0 0.1875-0.03125 0.26562-0.078125 0.23438-0.125 0.70312-0.75 1.2188-1.0469 0 0.6875-0.29688 1.2969-0.29688 1.6094 0 0.21875 0.1875 0.42188 0.375 0.42188s0.39062-0.20312 0.39062-0.42188c0-0.3125-0.29688-0.92188-0.29688-1.6094 0.76562 0.4375 1.0156 1.1406 1.4219 1.1406 0.25 0 0.39062-0.20312 0.39062-0.39062 0-0.125-0.0625-0.25-0.20312-0.32812-0.26562-0.15625-0.90625-0.1875-1.5312-0.5625 0.71875-0.40625 1.2969-0.40625 1.5469-0.54688 0.125-0.078125 0.21875-0.20312 0.21875-0.3125z"/>
</g>
</defs>
<g transform="translate(-149.38 -130.08)">
<use x="148.71201" y="134.765" xlink:href="#a"/>
</g>
</svg>
