<?xml version="1.0" encoding="UTF-8"?>
<svg fill="#000000" version="1.1" viewBox="0 0 4.4375 4.518" xmlns="http://www.w3.org/2000/svg" xmlns:xlink="http://www.w3.org/1999/xlink">
<defs>
<g id="a">
<path d="m0.54688-4.3125v0.3125l0.76562 0.09375 0.40625 0.046875c-0.078125 0.15625-0.14062 0.29688-0.23438 0.42188-0.26562 0.35938-0.60938 0.70312-0.75 1.1562-0.046875 0.14062-0.046875 0.29688-0.046875 0.45312 0.015625 0.26562 0.078125 0.54688 0.20312 0.79688 0.10938 0.25 0.25 0.46875 0.4375 0.65625 0.17188 0.15625 0.35938 0.28125 0.5625 0.39062 0.82812 0.39062 1.8125 0.15625 2.4219-0.5 0.23438-0.28125 0.40625-0.625 0.48438-0.98438 0.0625-0.26562 0.078125-0.5625 0.015625-0.79688-0.14062-0.45312-0.5-0.8125-0.76562-1.1719-0.09375-0.125-0.15625-0.26562-0.23438-0.42188l0.40625-0.046875 0.76562-0.09375v-0.3125h-1.0625-0.21875c-0.046875 0-0.10938 0.015625-0.14062 0.0625-0.046875 0.078125-0.03125 0.20312-0.015625 0.28125 0.015625 0.26562 0.10938 0.54688 0.1875 0.79688 0.09375 0.32812 0.20312 0.64062 0.25 0.98438 0.015625 0.15625 0.015625 0.3125 0.015625 0.46875-0.015625 0.34375-0.078125 0.6875-0.23438 0.98438-0.20312 0.375-0.5625 0.71875-1 0.71875s-0.79688-0.34375-0.98438-0.71875c-0.17188-0.29688-0.21875-0.64062-0.25-0.98438 0-0.15625 0-0.3125 0.015625-0.46875 0.046875-0.34375 0.15625-0.65625 0.25-0.98438 0.078125-0.25 0.17188-0.53125 0.1875-0.79688 0.015625-0.078125 0.046875-0.20312-0.015625-0.28125-0.03125-0.046875-0.078125-0.0625-0.125-0.0625h-0.23438z"/>
</g>
</defs>
<g transform="translate(-149.26 -130.45)">
<use x="148.71201" y="134.765" xlink:href="#a"/>
</g>
</svg>
