<?xml version="1.0" encoding="UTF-8"?>
<svg fill="#000000" version="1.1" viewBox="0 0 7.0781 7.3125" xmlns="http://www.w3.org/2000/svg" xmlns:xlink="http://www.w3.org/1999/xlink">
<defs>
<g id="a">
<path d="m0.28125-5.6875c0.60938 0 1.1875-0.25 1.5312-0.6875l0.26562 0.34375 1.0469 0.42188h1.125c-1.4844 0.96875-2.3125 1.7344-2.4375 2.2969-0.78125 0.26562-1.2812 0.92188-1.4688 1.9375 0.1875-0.375 0.4375-0.71875 0.76562-1.0469l0.5-0.28125-0.078125 0.84375c0.046875 1.2969 0.98438 1.9531 2.8281 1.9531h0.35938c1.3281-0.39062 1.9844-1.0781 1.9844-2.0625 0-0.125 0-0.25-0.03125-0.39062-0.375-1.0625-1.0625-1.6094-2.1094-1.6094-0.39062 0-0.8125 0.078125-1.2969 0.23438 0.82812-1.0781 2.2031-2.2031 4.0938-3.4062l-1.0938 0.40625-1.4062 0.35938c-0.23438 0.0625-0.48438 0.078125-0.75 0.078125-0.92188 0-1.7188-0.28125-2.4375-0.92188-0.375 0.78125-0.82812 1.3125-1.3906 1.5312zm3.8438 5.5c-0.79688 0-1.5-0.89062-1.5-1.8906 0-0.14062 0-0.28125 0.015625-0.42188l0.42188-0.8125c0.54688-0.20312 0.67188-0.21875 1.4531-0.21875 0.79688 0.375 1.2031 0.9375 1.2031 1.7031-0.0625 0.9375-0.6875 1.6406-1.5938 1.6406z"/>
</g>
</defs>
<g transform="translate(-148.99 -127.55)">
<use x="148.71201" y="134.765" xlink:href="#a"/>
</g>
</svg>
