<?xml version="1.0" encoding="UTF-8"?>
<svg fill="#000000" version="1.1" viewBox="0 0 4.0625 6.6719" xmlns="http://www.w3.org/2000/svg" xmlns:xlink="http://www.w3.org/1999/xlink">
<defs>
<g id="a">
<path d="m4.7031-2.5c0 1.1875-0.5625 2.2812-1.5 2.9688-0.046875 0.046875-0.078125 0.09375-0.09375 0.14062 0 0.20312 0.1875 0.23438 0.375 0.23438 1.0156 0 1.9219-0.3125 2.7188-0.96875 0.6875-0.59375 0.96875-1.4844 0.96875-2.375 0-0.875-0.28125-1.7656-0.96875-2.3594-0.79688-0.65625-1.7031-0.96875-2.7188-0.96875-0.1875 0-0.375 0.03125-0.375 0.23438 0.015625 0.0625 0.046875 0.10938 0.09375 0.14062 0.9375 0.6875 1.5 1.7812 1.5 2.9531zm0.40625 0c0-1.1094-0.46875-2.1719-1.25-2.9219 0.75 0.046875 1.4844 0.375 2.0781 0.875 0.57812 0.48438 0.84375 1.25 0.84375 2.0469 0 0.8125-0.26562 1.5781-0.84375 2.0625-0.59375 0.5-1.3281 0.82812-2.0781 0.875 0.78125-0.75 1.25-1.8125 1.25-2.9375z"/>
</g>
</defs>
<g transform="translate(-151.82 -128.94)">
<use x="148.71201" y="134.765" xlink:href="#a"/>
</g>
</svg>
