<?xml version="1.0" encoding="UTF-8"?>
<svg fill="#000000" version="1.1" viewBox="0 0 5.4375 4.7656" xmlns="http://www.w3.org/2000/svg" xmlns:xlink="http://www.w3.org/1999/xlink">
<defs>
<g id="a">
<path d="m5.5938-4.4219-0.03125-0.078125-0.5625-0.17188-0.23438 0.10938c-0.32812 1.2812-0.6875 2.375-1.25 3.5625h-0.046875c-0.26562-1.1875-0.625-2.8281-1.1719-3.375-0.21875-0.20312-0.54688-0.3125-0.84375-0.3125-0.53125 0-0.95312 0.21875-1.2969 0.59375l0.1875 0.26562c0.15625-0.09375 0.35938-0.17188 0.67188-0.17188 0.73438 0 1.1562 0.96875 1.3906 1.625 0.26562 0.76562 0.42188 1.5781 0.54688 2.3906l0.0625 0.0625 0.5625-0.3125c0.20312-0.5 0.42188-0.98438 0.65625-1.4531z"/>
</g>
</defs>
<g transform="translate(-148.87 -130.08)">
<use x="148.71201" y="134.765" xlink:href="#a"/>
</g>
</svg>
