<?xml version="1.0" encoding="UTF-8"?>
<svg fill="#000000" version="1.1" viewBox="0 0 7.3438 10.281" xmlns="http://www.w3.org/2000/svg" xmlns:xlink="http://www.w3.org/1999/xlink">
<defs>
<g id="a">
<path d="m5.4375 4.3438c0-0.46875-0.375-0.82812-0.82812-0.82812-0.46875 0-0.82812 0.35938-0.82812 0.82812 0 0.45312 0.35938 0.8125 0.82812 0.8125 0.45312 0 0.82812-0.35938 0.82812-0.8125zm2.8438-5h-0.79688v7.1094c0 1.25-1.3594 2.375-2.9375 2.375-1.5938 0-2.8125-1.125-2.8125-2.375v-7.1094h-0.79688v7c0 1.9688 1.8594 3.2812 3.6094 3.2812 1.9688 0 3.7344-1.3281 3.7344-3.2812z"/>
</g>
</defs>
<g transform="translate(-149.65 -127.13)">
<use x="148.71201" y="127.791" xlink:href="#a"/>
</g>
</svg>
