<?xml version="1.0" encoding="UTF-8"?>
<svg fill="#000000" width="3.875" height="8.8438" version="1.1" viewBox="0 0 3.875 8.8437" xmlns="http://www.w3.org/2000/svg" xmlns:xlink="http://www.w3.org/1999/xlink">
<defs>
<g id="a">
<path d="m3.1875-2.3125v3.8438h-0.5625c-0.17188 0-0.25 0.078125-0.25 0.1875 0 0.125 0.078125 0.20312 0.23438 0.20312h1.6094c0.125-0.015625 0.20312-0.10938 0.20312-0.20312 0-0.10938-0.078125-0.1875-0.25-0.1875h-0.57812v-8.0625h0.57812c0.14062 0 0.25-0.0625 0.25-0.20312s-0.14062-0.1875-0.25-0.1875h-1.75c-1.1719 0-1.875 1.0781-1.875 2.2812 0 1.4375 1.4219 2.3281 2.6406 2.3281z"/>
</g>
</defs>
<g transform="translate(-149.26 -127.84)">
<use x="148.71201" y="134.765" xlink:href="#a"/>
</g>
</svg>
