<?xml version="1.0" encoding="UTF-8"?>
<svg fill="#000000" version="1.1" viewBox="0 0 6.0625 6.9219" xmlns="http://www.w3.org/2000/svg" xmlns:xlink="http://www.w3.org/1999/xlink">
<defs>
<g id="a">
<path d="m3.4219-4.2344h1.7344c0.17188 0 0.35938 0 0.35938-0.1875 0-0.20312-0.17188-0.20312-0.34375-0.20312h-1.4062l1.6406-1.875c0.09375-0.09375 0.10938-0.14062 0.10938-0.21875 0-0.125-0.078125-0.20312-0.1875-0.20312-0.078125 0-0.10938 0.03125-0.21875 0.15625l-1.875 2.1406h-2.2812v-1.9375c0-0.17188 0-0.35938-0.20312-0.35938-0.1875 0-0.1875 0.1875-0.1875 0.35938v5.0156c-0.35938 0.375-0.35938 0.39062-0.90625 1.0156-0.03125 0.046875-0.125 0.15625-0.17188 0.1875-0.015625 0.046875-0.03125 0.10938-0.03125 0.14062 0 0.10938 0.09375 0.20312 0.1875 0.20312s0.14062-0.046875 0.26562-0.1875l0.65625-0.75v0.57812c0 0.17188 0 0.35938 0.1875 0.35938 0.20312 0 0.20312-0.17188 0.20312-0.34375v-1.0625l0.78125-0.89062h3.4375c0.17188 0 0.34375 0 0.34375-0.20312 0-0.1875-0.1875-0.1875-0.35938-0.1875h-3.0781zm-2.4688 0h1.9375l-1.3281 1.5469h-0.60938zm0.25 1.9375-0.25 0.28125v-0.28125z"/>
</g>
</defs>
<g transform="translate(-148.17 -127.84)">
<use x="148.71201" y="134.765" xlink:href="#a"/>
</g>
</svg>
