<?xml version="1.0" encoding="UTF-8"?>
<svg fill="#000000" version="1.1" viewBox="0 0 8.1875 7.875" xmlns="http://www.w3.org/2000/svg" xmlns:xlink="http://www.w3.org/1999/xlink">
<defs>
<g id="a">
<path d="m9.4531-2.1406c-0.0625 0-0.14062 0.03125-0.1875 0.10938-0.46875 0.67188-1.2656 1.0312-2.0625 1.25-0.10938 0.015625-0.17188 0.10938-0.17188 0.21875 0 0.14062 0.10938 0.21875 0.21875 0.21875 0.25 0 1.1094-0.4375 1.6406-0.60938-0.57812 1.125-1.7656 1.875-3.0781 1.875-1.9688 0-3.4688-1.6094-3.4688-3.4688 0-1.9844 1.6094-3.4688 3.4688-3.4688 1.6875 0 3.125 1.2031 3.4219 2.8594 0.015625 0.10938 0.10938 0.20312 0.21875 0.20312 0.14062 0 0.23438-0.125 0.23438-0.23438 0-0.046875-0.14062-1.2031-1.0938-2.1406-0.73438-0.73438-1.7344-1.1562-2.7812-1.1562-2.2188 0-3.9219 1.8281-3.9219 3.9375 0 2.2344 1.8125 3.9375 3.9219 3.9375 1.4062 0 2.6875-0.75 3.3906-1.9375 0.32812 0.96875 0.35938 1.4219 0.64062 1.4219 0.14062 0 0.23438-0.125 0.23438-0.23438 0-0.14062-0.48438-0.89062-0.48438-1.8438 0-0.32812 0.046875-0.39062 0.078125-0.64062 0.015625-0.015625 0.015625-0.046875 0.015625-0.0625 0-0.125-0.09375-0.23438-0.23438-0.23438z"/>
</g>
</defs>
<g transform="translate(-150.6 -128.28)">
<use x="148.71201" y="134.765" xlink:href="#a"/>
</g>
</svg>
