<?xml version="1.0" encoding="UTF-8"?>
<svg fill="#000000" version="1.1" viewBox="0 0 13.125 12.578" xmlns="http://www.w3.org/2000/svg" xmlns:xlink="http://www.w3.org/1999/xlink">
<defs>
<g id="a">
<path d="m13.641 5.875-0.25-0.21875-0.57812 0.53125c-0.10938-0.98438-0.8125-1.7969-1.7812-2.0312 0.03125-0.84375-0.09375-3.8594 1.1875-3.8594 0.125 0 0.23438 0.03125 0.32812 0.125-0.03125 0.046875-0.046875 0.10938-0.046875 0.1875 0 0.29688 0.39062 0.59375 0.67188 0.59375 0.21875 0 0.29688-0.21875 0.29688-0.42188 0-0.54688-0.6875-0.78125-1.1406-0.78125-1.875 0-2.1875 2.7188-2.2656 4.0938h-2.5c0.015625-0.84375-0.0625-3.7969 1.2031-3.7969 0.10938 0 0.23438 0.03125 0.32812 0.125-0.03125 0.046875-0.046875 0.10938-0.046875 0.1875 0 0.29688 0.39062 0.59375 0.6875 0.59375 0.21875 0 0.28125-0.21875 0.28125-0.42188 0-0.54688-0.6875-0.78125-1.1406-0.78125-1.8594 0-2.1562 2.7188-2.25 4.0938h-2.5c0.015625-0.84375-0.0625-3.7969 1.2031-3.7969 0.10938 0 0.23438 0.03125 0.3125 0.125-0.03125 0.046875-0.03125 0.10938-0.03125 0.1875 0 0.29688 0.375 0.59375 0.67188 0.59375 0.23438 0 0.28125-0.21875 0.28125-0.42188 0-0.54688-0.6875-0.78125-1.1406-0.78125-1.8906 0-2.1562 2.75-2.25 4.1406-1.0938 0.25-1.875 1.2188-1.875 2.3438 0 1.0156 0.64062 1.9375 1.6094 2.2812 0 0.21875-0.015625 0.42188-0.03125 0.64062-0.03125 0.8125 0.078125 2.8594-1.125 2.8594-0.125 0-0.25-0.03125-0.32812-0.125 0.03125-0.0625 0.046875-0.125 0.046875-0.17188 0-0.3125-0.40625-0.60938-0.6875-0.60938-0.21875 0-0.26562 0.25-0.26562 0.42188 0 0.5625 0.65625 0.79688 1.125 0.79688 1.3438 0 1.7812-1.5938 1.9844-2.6562 0.0625-0.32812 0.10938-0.65625 0.14062-0.98438v-0.046875h2.5781c-0.078125 0.875 0.1875 3.375-1.1562 3.375-0.10938 0-0.23438-0.03125-0.3125-0.125 0.015625-0.0625 0.046875-0.125 0.046875-0.17188 0-0.3125-0.40625-0.60938-0.6875-0.60938-0.23438 0-0.28125 0.25-0.28125 0.42188 0 0.5625 0.67188 0.79688 1.125 0.79688 1.6875 0 1.875-2.4688 2.125-3.6875h2.5938c-0.015625 0.17188-0.03125 0.34375-0.03125 0.51562-0.015625 0.8125 0.078125 2.8594-1.125 2.8594-0.125 0-0.23438-0.03125-0.3125-0.125 0.015625-0.0625 0.03125-0.125 0.03125-0.17188 0-0.3125-0.39062-0.60938-0.6875-0.60938-0.21875 0-0.26562 0.25-0.26562 0.42188 0 0.5625 0.65625 0.79688 1.125 0.79688 1.3438 0 1.7969-1.5938 1.9844-2.6562 0.0625-0.32812 0.10938-0.65625 0.14062-0.98438v-0.0625c1.1094-0.09375 2.0312-0.96875 2.1562-2.0938zm-1.3125 0.42188-0.70312-0.64062-0.23438 0.21875 0.90625 1c-0.15625 0.78125-0.79688 1.3906-1.5938 1.5 0.14062-1.2344 0.1875-2.4688 0.28125-3.7031 0.73438 0.21875 1.25 0.85938 1.3438 1.625zm-2.2969-1.7188c-0.0625 1.2812-0.14062 2.5469-0.21875 3.8125h-2.5625c0.10938-1.2656 0.1875-2.5312 0.28125-3.8125zm-3.4375 0c-0.078125 1.2812-0.15625 2.5469-0.21875 3.8125h-2.5625c0.125-1.2656 0.1875-2.5312 0.28125-3.8125zm-3.4531 0.09375c-0.078125 1.1875-0.15625 2.375-0.20312 3.5625-0.6875-0.3125-1.1406-1-1.1406-1.75 0-0.84375 0.5625-1.5625 1.3438-1.8125z"/>
</g>
</defs>
<g transform="translate(-149.23 -125.92)">
<use x="148.71201" y="125.923" xlink:href="#a"/>
</g>
</svg>
