<?xml version="1.0" encoding="UTF-8"?>
<svg fill="#000000" version="1.1" viewBox="0 0 5.0938 6.1562" xmlns="http://www.w3.org/2000/svg" xmlns:xlink="http://www.w3.org/1999/xlink">
<defs>
<g id="a">
<path d="m5.7188-4.2812-0.20312-0.078125c-0.15625 0.5625-0.4375 1.0781-1.0938 1.0781-0.21875 0-0.42188-0.10938-0.60938-0.21875l0.85938-2.1406h-0.54688l-0.73438 1.8594c-0.34375-0.28125-0.78125-0.59375-1.2344-0.59375-0.875 0-1.3125 0.53125-1.5312 1.3281l0.1875 0.078125c0.21875-0.51562 0.5625-0.89062 1.1562-0.89062 0.42188 0 0.85938 0.40625 1.1875 0.65625l-0.54688 1.375h-1.9844v0.5625h1.75l-0.70312 1.7812h0.54688l0.70312-1.7969h2.7812v-0.54688h-2.5469l0.4375-1.1094c0.1875 0.09375 0.40625 0.17188 0.64062 0.17188 0.95312 0 1.3438-0.64062 1.4844-1.5156z"/>
</g>
</defs>
<g transform="translate(-149.34 -129.12)">
<use x="148.71201" y="134.765" xlink:href="#a"/>
</g>
</svg>
