<?xml version="1.0" encoding="UTF-8"?>
<svg fill="#000000" version="1.1" viewBox="0 0 7.5625 6.8125" xmlns="http://www.w3.org/2000/svg" xmlns:xlink="http://www.w3.org/1999/xlink">
<defs>
<g id="a">
<path d="m4.7812-5.5c-0.09375-0.73438-0.1875-1.3125-0.89062-1.3125-0.9375 0-1.5938 0.6875-1.5938 0.95312 0 0.078125 0.0625 0.078125 0.10938 0.078125 0.10938 0 0.54688-0.125 0.73438-0.46875l0.015625-0.015625c0.54688 0 0.6875 0.3125 0.78125 1.3438l0.14062 1.4688c-0.35938 0.1875-1.7031 1-2.4219 1.5-1.1406 0.8125-1.1562 1.1094-1.1562 1.3906 0 0.34375 0.17188 0.5625 0.48438 0.5625 0.29688 0 0.75-0.32812 0.75-0.48438 0-0.046875-0.03125-0.046875-0.0625-0.0625-0.09375-0.015625-0.32812-0.046875-0.32812-0.4375 0-0.26562 0-0.39062 1.0625-1.0938 0.60938-0.40625 1.1875-0.71875 1.7031-1.0469 0 0.015625 0.14062 1.5156 0.17188 1.6719 0.078125 0.79688 0.14062 1.4531 0.875 1.4531 0.95312 0 1.6094-0.67188 1.6094-0.95312 0-0.078125-0.0625-0.078125-0.10938-0.078125-0.10938 0-0.54688 0.14062-0.73438 0.46875-0.03125 0.015625-0.078125 0.015625-0.09375 0.015625-0.57812 0-0.64062-0.625-0.71875-1.4688-0.03125-0.3125-0.0625-0.57812-0.15625-1.6094 3.1094-1.8594 3.1094-2.2031 3.1094-2.625 0-0.34375-0.1875-0.5625-0.46875-0.5625-0.3125 0-0.78125 0.34375-0.78125 0.48438 0 0.0625 0.0625 0.0625 0.078125 0.0625 0.078125 0.015625 0.3125 0.0625 0.3125 0.4375 0 0.25-0.03125 0.40625-0.875 0.98438-0.29688 0.20312-0.71875 0.45312-1.4062 0.875z"/>
</g>
</defs>
<g transform="translate(-149.21 -127.95)">
<use x="148.71201" y="134.765" xlink:href="#a"/>
</g>
</svg>
