<?xml version="1.0" encoding="UTF-8"?>
<svg fill="#000000" version="1.1" viewBox="0 0 11.266 5.5625" xmlns="http://www.w3.org/2000/svg" xmlns:xlink="http://www.w3.org/1999/xlink">
<defs>
<g id="a">
<path d="m11.859 0.26562v-0.67188h-2.6875c-1.1406 0-2.0781-1.0469-2.0781-2.1094 0-1.0781 0.9375-2.125 2.0625-2.125h2.7031v-0.65625h-2.7031c-1.5938 0-2.7188 1.2969-2.7188 2.7812 0 1.4688 1.1094 2.7812 2.6875 2.7812zm-11.266-5.5625v0.65625h2.7031c1.1406 0 2.0781 1.0469 2.0781 2.125 0 1.0625-0.95312 2.1094-2.0781 2.1094h-2.7031v0.67188h2.7344c1.5938 0 2.7031-1.3125 2.7031-2.7812 0-1.4844-1.1406-2.7812-2.7344-2.7812z"/>
</g>
</defs>
<g transform="translate(-149.31 -129.47)">
<use x="148.71201" y="134.765" xlink:href="#a"/>
</g>
</svg>
