<?xml version="1.0" encoding="UTF-8"?>
<svg fill="#000000" version="1.1" viewBox="0 0 6.4844 6.9844" xmlns="http://www.w3.org/2000/svg" xmlns:xlink="http://www.w3.org/1999/xlink">
<defs>
<g id="a">
<path d="m7.4844-2.5c0-0.17188-0.15625-0.29688-0.32812-0.29688h-4.0625v-0.89062h4.0781c0.15625 0 0.3125-0.125 0.3125-0.29688s-0.15625-0.29688-0.3125-0.29688h-4.0781v-1.4062c0-0.15625-0.14062-0.29688-0.29688-0.29688-0.17188 0-0.29688 0.14062-0.29688 0.29688v6.3906c0 0.15625 0.125 0.29688 0.29688 0.29688 0.15625 0 0.29688-0.14062 0.29688-0.29688v-1.4062h4.0781c0.15625 0 0.3125-0.14062 0.3125-0.29688s-0.15625-0.29688-0.3125-0.29688h-4.0781v-0.89062h4.0625c0.17188 0 0.32812-0.125 0.32812-0.3125zm-6.1875 3.5c0.15625 0 0.29688-0.14062 0.29688-0.29688v-6.3906c0-0.15625-0.14062-0.29688-0.29688-0.29688s-0.29688 0.14062-0.29688 0.29688v6.3906c0 0.15625 0.14062 0.29688 0.29688 0.29688z"/>
</g>
</defs>
<g transform="translate(-149.71 -128.78)">
<use x="148.71201" y="134.765" xlink:href="#a"/>
</g>
</svg>
