<?xml version="1.0" encoding="UTF-8"?>
<svg fill="#000000" version="1.1" viewBox="0 0 6.625 5.5469" xmlns="http://www.w3.org/2000/svg" xmlns:xlink="http://www.w3.org/1999/xlink">
<defs>
<g id="a">
<path d="m4.5-4.6406c0-0.34375-0.28125-0.625-0.625-0.625s-0.60938 0.28125-0.60938 0.625c0 0.32812 0.26562 0.60938 0.60938 0.60938s0.625-0.28125 0.625-0.60938zm0 4.2969c0-0.32812-0.28125-0.60938-0.625-0.60938s-0.60938 0.28125-0.60938 0.60938c0 0.34375 0.26562 0.625 0.60938 0.625s0.625-0.28125 0.625-0.625zm1.6406-4.125c0.125-0.125 0.14062-0.14062 0.14062-0.21875 0-0.125-0.09375-0.20312-0.20312-0.20312-0.078125 0-0.10938 0.03125-0.21875 0.14062l-1.9844 1.9844-1.9844-1.9844c-0.125-0.125-0.14062-0.14062-0.21875-0.14062-0.10938 0-0.20312 0.078125-0.20312 0.20312 0 0.078125 0.03125 0.10938 0.14062 0.21875l1.7656 1.7812h-2.4688c-0.17188 0-0.34375 0-0.34375 0.1875 0 0.20312 0.17188 0.20312 0.34375 0.20312h2.4688l-1.7656 1.7812c-0.10938 0.10938-0.14062 0.17188-0.14062 0.21875 0 0.125 0.09375 0.20312 0.20312 0.20312 0.078125 0 0.09375-0.015625 0.21875-0.14062l1.9844-1.9844c0.48438 0.48438 1.9375 1.9531 2.0625 2.0625 0.015625 0.03125 0.078125 0.0625 0.14062 0.0625 0.125 0 0.20312-0.078125 0.20312-0.20312 0-0.078125-0.015625-0.09375-0.14062-0.21875l-1.7812-1.7812h2.4844c0.17188 0 0.34375 0 0.34375-0.20312 0-0.1875-0.17188-0.1875-0.34375-0.1875h-2.4844z"/>
</g>
</defs>
<g transform="translate(-149.27 -129.5)">
<use x="148.71201" y="134.765" xlink:href="#a"/>
</g>
</svg>
