<?xml version="1.0" encoding="UTF-8"?>
<svg fill="#000000" version="1.1" viewBox="0 0 5.6406 10.172" xmlns="http://www.w3.org/2000/svg" xmlns:xlink="http://www.w3.org/1999/xlink">
<defs>
<g id="a">
<path d="m0.59375-7.4375v0.65625h3.25c0.96875 0 1.7188 0.90625 1.7188 1.8125 0 0.89062-0.75 1.8281-1.7188 1.8281h-3.25v0.65625h3.25c1.4375 0 2.375-1.1406 2.375-2.4688s-0.96875-2.4844-2.4219-2.4844zm5.3125 5.6875c-0.14062 0.70312-0.45312 1.375-1.1094 1.375-0.70312 0-1.7188-1.2812-2.6406-1.2812-0.9375 0-1.5156 1.0312-1.5625 2.0312h0.32812c0.14062-0.70312 0.5-1.375 1.1719-1.375 0.6875 0 1.7031 1.2812 2.625 1.2812 0.9375 0 1.4531-1.1875 1.5156-2.0312zm0 2.3438c-0.14062 0.71875-0.45312 1.375-1.1094 1.375-0.70312 0-1.7188-1.2656-2.6406-1.2656-0.9375 0-1.5156 1.0312-1.5625 2.0312h0.32812c0.14062-0.70312 0.5-1.375 1.1719-1.375 0.6875 0 1.7031 1.2656 2.625 1.2656 0.9375 0 1.4531-1.1719 1.5156-2.0312z"/>
</g>
</defs>
<g transform="translate(-149.31 -127.33)">
<use x="148.71201" y="134.765" xlink:href="#a"/>
</g>
</svg>
