<?xml version="1.0" encoding="UTF-8"?>
<svg fill="#000000" version="1.1" viewBox="0 0 2.9531 9.5156" xmlns="http://www.w3.org/2000/svg" xmlns:xlink="http://www.w3.org/1999/xlink">
<defs>
<g id="a">
<path d="m3.7969 2.0625c-0.375-0.42188-0.8125-0.95312-1.2031-1.5469 0.70312-0.96875 1.1094-2.0781 1.1094-3.0312 0-0.96875-0.42188-2.0625-1.1094-3.0312 0.39062-0.60938 0.82812-1.1094 1.2031-1.5469v-0.1875c-0.5625 0.39062-1.0625 0.84375-1.4688 1.375-0.42188-0.53125-0.92188-0.98438-1.4844-1.375v0.17188c0.375 0.4375 0.8125 0.95312 1.2031 1.5625-0.6875 0.96875-1.0938 2.0625-1.0938 3.0312 0 0.95312 0.40625 2.0625 1.0938 3.0312-0.39062 0.59375-0.82812 1.0938-1.2031 1.5312v0.1875c0.5625-0.375 1.0625-0.84375 1.4844-1.3594 0.40625 0.51562 0.90625 0.98438 1.4688 1.3594zm-0.75-4.5781c0 0.96875-0.3125 1.8438-0.73438 2.5781-0.40625-0.75-0.70312-1.6094-0.70312-2.5781 0-0.98438 0.29688-1.8438 0.71875-2.5938 0.40625 0.75 0.71875 1.625 0.71875 2.5938z"/>
</g>
</defs>
<g transform="translate(-149.56 -127.48)">
<use x="148.71201" y="134.765" xlink:href="#a"/>
</g>
</svg>
