<?xml version="1.0" encoding="UTF-8"?>
<svg fill="#000000" version="1.1" viewBox="0 0 4.7969 7.4219" xmlns="http://www.w3.org/2000/svg" xmlns:xlink="http://www.w3.org/1999/xlink">
<defs>
<g id="a">
<path d="m3.6875-5.3594-0.34375 1.3438h-2.4531v0.64062h2.2656l-0.32812 1.2656h-1.9375v0.64062h1.7656l-0.625 2.2812 0.5625 0.15625 0.1875-0.70312c0.046875 0.078125 0.10938 0.15625 0.17188 0.21875 0.09375 0.09375 0.23438 0.21875 0.34375 0.21875s0.23438-0.125 0.32812-0.21875c0.10938-0.10938 0.21875-0.23438 0.21875-0.34375s-0.10938-0.23438-0.21875-0.34375c-0.09375-0.09375-0.21875-0.21875-0.32812-0.21875-0.14062 0-0.3125 0.1875-0.40625 0.29688l0.34375-1.3438h2.4531v-0.64062h-2.2656l0.34375-1.2656h1.9219v-0.64062h-1.7656l0.625-2.2812-0.5625-0.15625-0.1875 0.70312c-0.03125-0.078125-0.10938-0.15625-0.17188-0.21875-0.09375-0.09375-0.21875-0.21875-0.32812-0.21875s-0.25 0.125-0.34375 0.21875c-0.10938 0.10938-0.21875 0.23438-0.21875 0.34375 0 0.125 0.10938 0.23438 0.21875 0.34375 0.09375 0.09375 0.23438 0.21875 0.34375 0.21875 0.125 0 0.29688-0.1875 0.39062-0.29688z"/>
</g>
</defs>
<g transform="translate(-149.6 -128.31)">
<use x="148.71201" y="134.765" xlink:href="#a"/>
</g>
</svg>
