<?xml version="1.0" encoding="UTF-8"?>
<svg fill="#000000" version="1.1" viewBox="0 0 5.3438 5.3281" xmlns="http://www.w3.org/2000/svg" xmlns:xlink="http://www.w3.org/1999/xlink">
<defs>
<g id="a">
<path d="m5.9375-0.875c0-0.046875-0.015625-0.10938-0.0625-0.15625l-3.2031-3.2031 1.3438-1.3438c0.046875-0.046875 0.078125-0.10938 0.078125-0.15625 0-0.125-0.09375-0.23438-0.23438-0.23438-0.0625 0-0.125 0.015625-0.15625 0.0625l-3.0312 3.0312c-0.046875 0.046875-0.078125 0.09375-0.078125 0.15625 0 0.17188 0.15625 0.21875 0.23438 0.21875 0.0625 0 0.125-0.015625 0.17188-0.046875l1.3438-1.3594 3.2031 3.2031c0.046875 0.046875 0.10938 0.0625 0.17188 0.0625 0.10938 0 0.21875-0.078125 0.21875-0.23438z"/>
</g>
</defs>
<g transform="translate(-149.31 -128.8)">
<use x="148.71201" y="134.765" xlink:href="#a"/>
</g>
</svg>
