<?xml version="1.0" encoding="UTF-8"?>
<svg fill="#000000" version="1.1" viewBox="0 0 4.75 16.938" xmlns="http://www.w3.org/2000/svg" xmlns:xlink="http://www.w3.org/1999/xlink">
<defs>
<g id="a">
<path d="m4.875-4.625c0-0.078125-0.046875-0.15625-0.10938-0.20312l-1.1094-0.64062 0.875-3.2812 0.23438-0.125c0.0625-0.0625 0.10938-0.125 0.10938-0.20312 0-0.09375-0.0625-0.21875-0.1875-0.23438l0.40625-1.5156v-0.03125c0-0.09375-0.0625-0.15625-0.15625-0.15625-0.0625 0-0.125 0.04687-0.125 0.10938l-0.46875 1.7344-3.6719 2.1094c-0.078125 0.046875-0.10938 0.125-0.10938 0.20312 0 0.09375 0.03125 0.15625 0.10938 0.20312l2.5938 1.5-0.40625 1.4844h-2.0781c-0.125 0-0.21875 0.10938-0.21875 0.23438s0.09375 0.23438 0.21875 0.23438h1.9531l-0.35938 1.3125h-1.5938c-0.125 0-0.21875 0.10938-0.21875 0.23438s0.09375 0.23438 0.21875 0.23438h1.4844l-0.35938 1.3281-1.0156-0.57812c-0.015625-0.015625-0.0625-0.03125-0.10938-0.03125-0.10938 0-0.21875 0.10938-0.21875 0.23438 0 0.078125 0.03125 0.15625 0.10938 0.20312l1.1094 0.64062-0.89062 3.2812-0.21875 0.125c-0.078125 0.0625-0.10938 0.125-0.10938 0.20312 0 0.09375 0.0625 0.21875 0.1875 0.23438l-0.40625 1.5156v0.03125c0 0.09375 0.0625 0.15625 0.14062 0.15625 0.0625 0 0.125-0.046875 0.14062-0.10938l0.46875-1.7344 3.6719-2.1094c0.0625-0.0625 0.10938-0.125 0.10938-0.20312 0-0.09375-0.046875-0.15625-0.10938-0.20312l-2.5938-1.5 0.40625-1.4844h2.0625c0.14062 0 0.23438-0.10938 0.23438-0.23438s-0.09375-0.23438-0.23438-0.23438h-1.9531l0.35938-1.3125h1.5938c0.14062 0 0.23438-0.10938 0.23438-0.23438s-0.09375-0.23438-0.23438-0.23438h-1.4688l0.35938-1.3281 1 0.57812c0.03125 0.015625 0.078125 0.03125 0.10938 0.03125 0.125 0 0.23438-0.10938 0.23438-0.23438zm-3.6094 8.0781 0.78125-2.9219 2.1406 1.2344zm2.9062-12-0.78125 2.9219-2.1406-1.2344z"/>
</g>
</defs>
<g transform="translate(-149.06 -124.87)">
<use x="148.71201" y="135.886" xlink:href="#a"/>
</g>
</svg>
