<?xml version="1.0" encoding="UTF-8"?>
<svg fill="#000000" version="1.1" viewBox="0 0 5.3906 5.3906" xmlns="http://www.w3.org/2000/svg" xmlns:xlink="http://www.w3.org/1999/xlink">
<defs>
<g id="a">
<path d="m3.75-0.6875h-2.2188v-2.2031c1.2188 0 2.2188 0.98438 2.2188 2.2031zm-2.8594-4.75v5.3906h5.3906v-0.64062h-1.8906c0-1.5781-1.2812-2.8438-2.8594-2.8438v-1.9062zm1.875 3.875c0-0.078125-0.0625-0.14062-0.14062-0.21875-0.0625-0.0625-0.14062-0.15625-0.21875-0.15625s-0.15625 0.09375-0.23438 0.15625c-0.0625 0.078125-0.14062 0.14062-0.14062 0.21875 0 0.09375 0.078125 0.15625 0.14062 0.23438 0.078125 0.0625 0.15625 0.15625 0.23438 0.15625s0.15625-0.09375 0.21875-0.15625c0.078125-0.078125 0.14062-0.14062 0.14062-0.23438z"/>
</g>
</defs>
<g transform="translate(-149.6 -129.33)">
<use x="148.71201" y="134.765" xlink:href="#a"/>
</g>
</svg>
