<?xml version="1.0" encoding="UTF-8"?>
<svg fill="#000000" version="1.1" viewBox="0 0 8.4688 11.406" xmlns="http://www.w3.org/2000/svg" xmlns:xlink="http://www.w3.org/1999/xlink">
<defs>
<g id="a">
<path d="m5.9062-4.6094c-0.40625-0.09375-0.84375-0.14062-1.3281-0.14062h-0.32812l0.35938-1.3906c0.25-1.0469 0.5-1.7656 1-1.7656 0.078125 0 0.10938 0.03125 0.10938 0.078125 0 0.09375-0.17188 0.15625-0.17188 0.40625 0 0.17188 0.15625 0.25 0.3125 0.25 0.26562 0 0.51562-0.26562 0.51562-0.59375 0-0.23438-0.15625-0.45312-0.54688-0.45312-1.2031 0-1.7812 1.375-1.9844 2.1719l-0.34375 1.3906c-1.4688 0.28125-2.4062 1.1406-2.4062 2.1406 0 0.75 0.53125 1.4219 1.4219 1.8281l-0.48438 1.9219c-0.25 1.0156-0.48438 1.6406-0.95312 1.6406-0.078125 0-0.10938-0.03125-0.10938-0.078125 0-0.10938 0.17188-0.09375 0.17188-0.39062 0-0.15625-0.15625-0.25-0.29688-0.25-0.28125 0-0.53125 0.25-0.53125 0.57812 0 0.25 0.15625 0.45312 0.5625 0.45312 1.1094 0 1.7031-1.2031 1.9062-2.0156l0.40625-1.6094c0.40625 0.10938 0.89062 0.17188 1.3906 0.17188 0.09375 0 0.17188 0 0.23438-0.015625l-0.35938 1.5156c-0.25 1.0156-0.5 1.6406-0.96875 1.6406-0.0625 0-0.10938-0.03125-0.10938-0.078125 0-0.10938 0.1875-0.09375 0.1875-0.39062 0-0.15625-0.15625-0.25-0.3125-0.25-0.28125 0-0.51562 0.25-0.51562 0.57812 0 0.25 0.14062 0.45312 0.54688 0.45312 1.1094 0 1.7188-1.2031 1.9062-2.0156l0.39062-1.5312c1.5-0.26562 2.4844-1.125 2.4844-2.1562 0-0.78125-0.5625-1.4531-1.4844-1.8594l0.4375-1.7656c0.26562-1.0469 0.51562-1.7656 1.0156-1.7656 0.0625 0 0.10938 0.03125 0.10938 0.078125 0 0.09375-0.1875 0.15625-0.1875 0.40625 0 0.17188 0.15625 0.25 0.3125 0.25 0.28125 0 0.51562-0.26562 0.51562-0.59375 0-0.23438-0.14062-0.45312-0.54688-0.45312-1.2031 0-1.7812 1.375-1.9688 2.1719zm0.57812 0.625c0.71875 0.35938 1.1875 0.89062 1.1875 1.4688 0 0.79688-0.82812 1.4531-1.9844 1.7344zm-1.5625 3.3125c-0.125 0.015625-0.25 0.03125-0.375 0.03125-0.45312 0-0.89062-0.0625-1.2656-0.17188l0.875-3.5469c0.125-0.015625 0.26562-0.015625 0.39062-0.015625 0.45312 0 0.85938 0.046875 1.25 0.15625zm-2.3125-0.39062c-0.70312-0.34375-1.1406-0.875-1.1406-1.4531 0-0.78125 0.78125-1.4688 1.9375-1.7344z"/>
</g>
</defs>
<g transform="translate(-149.02 -126.51)">
<use x="148.71201" y="134.72501" xlink:href="#a"/>
</g>
</svg>
