<?xml version="1.0" encoding="UTF-8"?>
<svg fill="#000000" version="1.1" viewBox="0 0 5.7969 5.7812" xmlns="http://www.w3.org/2000/svg" xmlns:xlink="http://www.w3.org/1999/xlink">
<defs>
<g id="a">
<path d="m5.0156-4.3125c-0.046875 0-0.10938 0.03125-0.15625 0.078125l-1.375 1.3594-1.3594-1.3594c-0.046875-0.046875-0.10938-0.078125-0.17188-0.078125-0.125 0-0.23438 0.09375-0.23438 0.23438 0 0.0625 0.03125 0.125 0.078125 0.15625l1.3594 1.375-1.3594 1.375c-0.046875 0.03125-0.078125 0.09375-0.078125 0.15625 0 0.17188 0.17188 0.23438 0.23438 0.23438s0.125-0.03125 0.17188-0.078125l1.3594-1.3594 1.375 1.3594c0.046875 0.046875 0.10938 0.078125 0.15625 0.078125 0.14062 0 0.23438-0.10938 0.23438-0.23438 0-0.0625-0.03125-0.125-0.0625-0.15625l-1.375-1.375 1.375-1.375c0.03125-0.03125 0.0625-0.09375 0.0625-0.15625 0-0.125-0.09375-0.23438-0.23438-0.23438zm1.375 1.7656c0-1.6562-1.3594-2.8906-2.9062-2.8906-1.6562 0-2.8906 1.3438-2.8906 2.8906 0 1.6562 1.3438 2.8906 2.8906 2.8906 1.6562 0 2.9062-1.3438 2.9062-2.8906zm-2.9062 2.4375c-1.375 0-2.4375-1.1406-2.4375-2.4375 0-1.375 1.1406-2.4375 2.4375-2.4375 1.3906 0 2.4531 1.1406 2.4531 2.4375 0 1.375-1.1406 2.4375-2.4531 2.4375z"/>
</g>
</defs>
<g transform="translate(-149.31 -129.33)">
<use x="148.71201" y="134.765" xlink:href="#a"/>
</g>
</svg>
