<?xml version="1.0" encoding="UTF-8"?>
<svg fill="#000000" version="1.1" viewBox="0 0 5.3555 6.9062" xmlns="http://www.w3.org/2000/svg" xmlns:xlink="http://www.w3.org/1999/xlink">
<defs>
<g id="a">
<path d="m0.59375-6.8125v0.29688c0.14062 0 0.29688 0 0.4375 0.03125 0.09375 0.015625 0.17188 0.046875 0.23438 0.10938s0.078125 0.14062 0.09375 0.23438c0.015625 0.17188 0 0.34375 0 0.51562h-0.65625c-0.10938 0-0.23438-0.015625-0.34375 0-0.09375 0.03125-0.125 0.15625-0.09375 0.23438 0.046875 0.10938 0.1875 0.078125 0.28125 0.078125h0.8125v4.4219c0 0.125 0.03125 0.29688-0.046875 0.42188-0.046875 0.09375-0.14062 0.125-0.23438 0.125-0.15625 0.03125-0.32812 0.03125-0.48438 0.03125v0.29688l0.4375-0.015625 0.90625-0.015625 0.90625 0.03125v-0.29688c-0.15625 0-0.32812 0-0.48438-0.03125-0.09375 0-0.17188-0.03125-0.21875-0.09375-0.09375-0.09375-0.078125-0.23438-0.078125-0.35938v-1.5625c0-0.20312-0.015625-0.40625 0.03125-0.59375 0.0625-0.35938 0.23438-0.70312 0.51562-0.9375 0.10938-0.09375 0.21875-0.15625 0.34375-0.21875 0.14062-0.0625 0.3125-0.09375 0.46875-0.09375 0.09375 0 0.20312 0.03125 0.28125 0.0625 0.23438 0.10938 0.34375 0.35938 0.39062 0.59375 0.046875 0.28125 0.03125 0.57812 0.03125 0.85938v1.9219c0 0.10938 0.015625 0.23438-0.0625 0.32812-0.0625 0.0625-0.14062 0.09375-0.23438 0.09375-0.15625 0.03125-0.3125 0.03125-0.48438 0.03125v0.29688l0.4375-0.015625 0.92188-0.015625 0.90625 0.03125v-0.29688c-0.17188 0-0.32812 0-0.48438-0.03125-0.14062-0.015625-0.26562-0.0625-0.29688-0.21875-0.015625-0.078125 0-0.1875 0-0.28125v-1.9375c0-0.35938 0-0.73438-0.17188-1.0625-0.1875-0.34375-0.51562-0.5-0.89062-0.54688-0.1875-0.03125-0.39062-0.03125-0.57812 0-0.39062 0.0625-0.75 0.29688-0.96875 0.625-0.078125 0.09375-0.14062 0.20312-0.17188 0.3125h-0.015625v-1.8594h1.1094c0.09375 0 0.26562 0.03125 0.29688-0.078125 0.015625-0.015625 0.015625-0.046875 0.015625-0.078125 0-0.015625 0-0.046875-0.015625-0.0625-0.03125-0.125-0.23438-0.09375-0.34375-0.09375h-1.0625v-1.2969z"/>
</g>
</defs>
<g transform="translate(-148.97 -127.84)">
<use x="148.71201" y="134.765" xlink:href="#a"/>
</g>
</svg>
