<?xml version="1.0" encoding="UTF-8"?>
<svg fill="#000000" width="9.7812" height="5.7188" version="1.1" viewBox="0 0 9.7812 5.7187" xmlns="http://www.w3.org/2000/svg" xmlns:xlink="http://www.w3.org/1999/xlink">
<defs>
<g id="a">
<path d="m7.125-0.70312c0 0.15625 0.10938 0.25 0.21875 0.25 0.078125 0 0.14062-0.03125 0.1875-0.09375 0.70312-0.84375 1.5625-1.5938 2.6406-1.7812 0.10938-0.015625 0.20312-0.10938 0.20312-0.21875s-0.09375-0.20312-0.20312-0.21875c-1.0781-0.1875-1.9375-0.9375-2.6406-1.7812-0.046875-0.0625-0.10938-0.09375-0.1875-0.09375-0.10938 0-0.21875 0.10938-0.21875 0.25 0 0.10938 0.15625 0.29688 0.625 0.71875h-1.7031l0.5625-1.5312c0.03125-0.09375-0.03125-0.20312-0.14062-0.20312-0.0625 0-0.125 0.03125-0.14062 0.10938l-0.59375 1.625h-2.5156c0.3125-0.29688 0.625-0.57812 0.625-0.71875 0-0.15625-0.10938-0.25-0.23438-0.25-0.0625 0-0.125 0.03125-0.17188 0.09375-0.70312 0.84375-1.5625 1.5938-2.6562 1.7812-0.10938 0.015625-0.1875 0.10938-0.1875 0.21875s0.078125 0.20312 0.1875 0.21875c1.0938 0.1875 1.9531 0.9375 2.6562 1.7812 0.046875 0.0625 0.10938 0.09375 0.17188 0.09375 0.125 0 0.23438-0.09375 0.23438-0.25 0-0.10938-0.15625-0.29688-0.625-0.71875h1.7031l-0.5625 1.5312c-0.046875 0.09375 0.03125 0.20312 0.14062 0.20312 0.0625 0 0.10938-0.03125 0.14062-0.10938l0.59375-1.625h2.5156c-0.32812 0.29688-0.625 0.57812-0.625 0.71875zm-4.4062-2.5h2.8438l-0.48438 1.3125h-2.3594c-0.23438-0.20312-0.46875-0.42188-0.67188-0.65625 0.20312-0.23438 0.4375-0.45312 0.67188-0.65625zm3.1562 0h2.375c0.23438 0.20312 0.45312 0.42188 0.65625 0.65625-0.20312 0.23438-0.42188 0.45312-0.65625 0.65625h-2.8438z"/>
</g>
</defs>
<g transform="translate(-149.31 -129.36)">
<use x="148.71201" y="134.765" xlink:href="#a"/>
</g>
</svg>
