<?xml version="1.0" encoding="UTF-8"?>
<svg fill="#000000" version="1.1" viewBox="0 0 6.4375 6.1875" xmlns="http://www.w3.org/2000/svg" xmlns:xlink="http://www.w3.org/1999/xlink">
<defs>
<g id="a">
<path d="m6.7031-4.5781c-0.23438-0.046875-0.48438-0.0625-0.71875-0.0625v-0.96875h-0.65625v1.0156c-0.95312 0.125-1.8125 0.5-2.5312 1.0625l-0.9375-0.9375c-0.078125-0.09375-0.078125-0.15625-0.078125-0.21875 0-0.17188 0.125-0.20312 0.3125-0.20312 0.375 0 0.59375-0.015625 0.98438-0.10938l-0.015625-0.28125c-0.3125 0.03125-0.5625 0.046875-0.84375 0.046875-0.64062 0-1.2188-0.09375-1.8906-0.375l-0.0625 0.078125c0.26562 0.6875 0.35938 1.2969 0.35938 1.9375 0 0.26562-0.015625 0.51562-0.03125 0.8125l0.26562 0.015625c0.0625-0.39062 0.09375-0.54688 0.09375-0.98438 0-0.17188 0.078125-0.35938 0.25-0.35938 0.046875 0 0.10938 0.046875 0.1875 0.10938l0.90625 0.89062c-0.17188 0.17188-0.32812 0.34375-0.48438 0.54688l0.53125 0.40625c0.125-0.17188 0.26562-0.34375 0.42188-0.48438l3.2188 3.2188v-4.5625c0.20312 0 0.42188 0.015625 0.60938 0.046875zm-1.375 3.5781-2.0625-2.0781c0.59375-0.4375 1.2969-0.73438 2.0625-0.84375z"/>
</g>
</defs>
<g transform="translate(-148.98 -129.16)">
<use x="148.71201" y="134.765" xlink:href="#a"/>
</g>
</svg>
