<?xml version="1.0" encoding="UTF-8"?>
<svg fill="#000000" version="1.1" viewBox="0 0 6.2344 7.9844" xmlns="http://www.w3.org/2000/svg" xmlns:xlink="http://www.w3.org/1999/xlink">
<defs>
<g id="a">
<path d="m1.3125 0.125c0.078125 0 0.15625-0.03125 0.21875-0.09375l2.2031-2.2188h0.85938l-1.4062 3.375c-0.046875 0.125 0.0625 0.3125 0.20312 0.3125 0.09375 0 0.21875-0.046875 0.26562-0.15625l1.4688-3.5312h1.7969c0.20312 0 0.3125-0.10938 0.3125-0.3125 0-0.1875-0.10938-0.29688-0.3125-0.29688h-1.5469l1.4062-3.375c0.046875-0.125-0.0625-0.3125-0.20312-0.3125-0.09375 0-0.21875 0.046875-0.26562 0.15625l-1.4688 3.5312h-1.1094l-2.2031-2.2188c-0.0625-0.0625-0.14062-0.09375-0.21875-0.09375-0.14062 0-0.3125 0.17188-0.3125 0.3125 0 0.078125 0.03125 0.125 0.09375 0.20312l2.0938 2.0938-2.0938 2.1094c-0.0625 0.0625-0.09375 0.125-0.09375 0.20312 0 0.14062 0.17188 0.3125 0.3125 0.3125z"/>
</g>
</defs>
<g transform="translate(-149.71 -128.28)">
<use x="148.71201" y="134.765" xlink:href="#a"/>
</g>
</svg>
