<?xml version="1.0" encoding="UTF-8"?>
<svg fill="#000000" version="1.1" viewBox="0 0 9.6719 6.2344" xmlns="http://www.w3.org/2000/svg" xmlns:xlink="http://www.w3.org/1999/xlink">
<defs>
<g id="a">
<path d="m6.8125-4.1719c0.23438 0.29688 0.35938 0.65625 0.35938 1.0469 0 1.0469-0.92188 1.8281-1.9844 1.8281-1.0781 0-2-0.78125-2-1.8281 0-0.39062 0.125-0.75 0.35938-1.0469-1.2656 0.54688-2.1562 1.7188-2.1562 3.1406v1.0312h7.5938v-1.0312c0-1.4219-0.90625-2.5938-2.1719-3.1406zm-0.078125 1.0469c0-0.79688-0.71875-1.375-1.5469-1.375s-1.5625 0.57812-1.5625 1.375c0 0.8125 0.73438 1.3906 1.5625 1.3906s1.5469-0.57812 1.5469-1.3906zm-4.1875-1.7031c0.85938-0.21875 1.7344-0.35938 2.6406-0.35938 0.89062 0 1.7656 0.14062 2.625 0.35938l-0.21875 0.67188 2.0781 0.70312 0.34375-0.70312v-1.0312c-1.5781-0.53125-3.1719-1.0469-4.8281-1.0469-1.6719 0-3.2656 0.51562-4.8438 1.0469v1.0312l0.34375 0.70312 2.0781-0.70312z"/>
</g>
</defs>
<g transform="translate(-149.06 -128.53)">
<use x="148.71201" y="134.765" xlink:href="#a"/>
</g>
</svg>
