<?xml version="1.0" encoding="UTF-8"?>
<svg fill="#000000" version="1.1" viewBox="0 0 4.5 11.406" xmlns="http://www.w3.org/2000/svg" xmlns:xlink="http://www.w3.org/1999/xlink">
<defs>
<g id="a">
<path d="m2.9844-6.1406c0-1.0469 0.078125-1.7656 0.57812-1.7656 0.078125 0 0.125 0.046875 0.125 0.10938 0 0.09375-0.09375 0.078125-0.09375 0.28125 0 0.25 0.1875 0.34375 0.35938 0.34375 0.21875 0 0.42188-0.15625 0.42188-0.42188 0-0.3125-0.20312-0.625-0.6875-0.625-1.1875 0-1.4219 1.375-1.4219 2.1719v1.3594c-1.0781 0.15625-1.9219 1.0938-1.9219 2.2188 0 1.1406 0.78125 2.0469 1.9219 2.2031v1.5c0 1.0156-0.078125 1.6406-0.54688 1.6406-0.078125 0-0.14062-0.03125-0.14062-0.10938 0-0.09375 0.09375-0.078125 0.09375-0.26562 0-0.25-0.17188-0.34375-0.35938-0.34375-0.20312 0-0.42188 0.14062-0.42188 0.42188 0 0.29688 0.20312 0.60938 0.6875 0.60938 1.125 0 1.4062-1.2031 1.4062-2.0156v-1.4375c1.0469-0.1875 1.8594-1.1094 1.8594-2.2031 0-1.125-0.8125-2.0312-1.8594-2.2188zm0 1.8281c0.84375 0.1875 1.4844 0.92188 1.4844 1.8438 0 0.89062-0.64062 1.6406-1.4844 1.8281zm-0.71875 3.6719c-0.875-0.17188-1.5312-0.92188-1.5312-1.8281 0-0.92188 0.65625-1.6719 1.5312-1.8438z"/>
</g>
</defs>
<g transform="translate(-149.06 -126.51)">
<use x="148.71201" y="134.72501" xlink:href="#a"/>
</g>
</svg>
