<?xml version="1.0" encoding="UTF-8"?>
<svg fill="#000000" version="1.1" viewBox="0 0 4.4062 7.1406" xmlns="http://www.w3.org/2000/svg" xmlns:xlink="http://www.w3.org/1999/xlink">
<defs>
<g id="a">
<path d="m3.0938-4.1719c0.89062-0.25 1.3281-0.85938 1.3281-1.4375 0-0.75-0.71875-1.4219-1.7031-1.4219-0.78125 0-1.6562 0.48438-1.6562 1.4844v1.25h-0.78125v0.3125h0.78125v3.2344c0 0.4375-0.10938 0.4375-0.78125 0.4375v0.3125c0.1875-0.015625 0.84375-0.03125 0.96875-0.03125 0.10938 0 0.28125 0 0.46875 0.03125v-5.5625c0-1.1406 0.79688-1.25 1-1.25 0.40625 0 0.95312 0.3125 0.95312 1.1875 0 0.64062-0.35938 1.25-1.2344 1.3281-0.09375 0.015625-0.17188 0.015625-0.17188 0.10938 0 0.015625 0 0.09375 0.09375 0.10938 1.1875 0.09375 1.5938 1.3125 1.5938 2.3594 0 1.2812-0.65625 1.6094-1.0312 1.6094-0.09375 0-0.3125-0.015625-0.5-0.1875 0.10938-0.015625 0.29688-0.125 0.29688-0.35938 0-0.21875-0.15625-0.35938-0.35938-0.35938-0.17188 0-0.35938 0.125-0.35938 0.375 0 0.39062 0.375 0.75 0.95312 0.75 0.85938 0 1.7344-0.73438 1.7344-1.8438 0-0.71875-0.3125-1.9219-1.5938-2.4375z"/>
</g>
</defs>
<g transform="translate(-148.99 -127.73)">
<use x="148.71201" y="134.765" xlink:href="#a"/>
</g>
</svg>
