<?xml version="1.0" encoding="UTF-8"?>
<svg fill="#000000" version="1.1" viewBox="0 0 6.1114 6.1139" xmlns="http://www.w3.org/2000/svg" xmlns:xlink="http://www.w3.org/1999/xlink">
<defs>
<g id="a">
<path d="m3.7188-2.8906c-0.14062-0.14062-0.26562-0.3125-0.40625-0.45312-0.3125-0.34375-0.65625-0.67188-0.98438-1l-0.32812-0.32812c-0.0625-0.046875-0.125-0.10938-0.20312-0.0625-0.015625 0.015625-0.046875 0.046875-0.078125 0.0625-0.03125 0.046875-0.078125 0.09375-0.078125 0.15625s0.046875 0.10938 0.078125 0.15625c0.10938 0.09375 0.1875 0.1875 0.29688 0.28125 0.34375 0.34375 0.67188 0.6875 1.0156 1.0156 0.15625 0.14062 0.3125 0.26562 0.45312 0.40625-0.1875 0-0.35938-0.03125-0.54688-0.046875-0.5-0.015625-1 0-1.5 0h-0.375c-0.0625 0-0.14062-0.015625-0.1875 0.015625-0.0625 0.0625-0.0625 0.21875-0.03125 0.29688 0.015625 0.078125 0.09375 0.09375 0.15625 0.09375h0.46875 1.4688c0.1875-0.015625 0.35938-0.046875 0.54688-0.046875-0.14062 0.14062-0.29688 0.26562-0.45312 0.40625-0.34375 0.32812-0.67188 0.67188-1.0156 1.0156-0.10938 0.09375-0.1875 0.1875-0.29688 0.28125-0.03125 0.046875-0.078125 0.09375-0.078125 0.15625s0.046875 0.10938 0.078125 0.14062 0.0625 0.046875 0.078125 0.078125c0.078125 0.03125 0.14062-0.015625 0.20312-0.0625l0.32812-0.32812c0.32812-0.32812 0.67188-0.65625 0.98438-1 0.14062-0.14062 0.26562-0.3125 0.40625-0.45312 0 0.17188-0.03125 0.35938-0.046875 0.53125v1.5156 0.39062c0 0.0625 0 0.125 0.03125 0.1875 0.0625 0.046875 0.21875 0.046875 0.28125 0.015625 0.078125-0.015625 0.09375-0.078125 0.09375-0.15625v-0.46875c0-0.5 0.015625-0.98438 0-1.4844-0.015625-0.17188-0.046875-0.35938-0.046875-0.53125 0.14062 0.14062 0.26562 0.3125 0.40625 0.45312 0.3125 0.34375 0.67188 0.67188 1 1l0.32812 0.32812c0.046875 0.046875 0.10938 0.09375 0.1875 0.0625 0.03125-0.03125 0.0625-0.046875 0.078125-0.078125 0.046875-0.03125 0.09375-0.078125 0.09375-0.14062s-0.046875-0.10938-0.09375-0.15625c-0.09375-0.09375-0.1875-0.1875-0.29688-0.28125-0.32812-0.34375-0.65625-0.6875-1.0156-1.0156-0.14062-0.14062-0.3125-0.26562-0.45312-0.40625 0.1875 0 0.375 0.03125 0.54688 0.046875h1.5 0.39062c0.0625 0 0.125 0 0.17188-0.03125 0.078125-0.046875 0.0625-0.20312 0.046875-0.28125-0.03125-0.078125-0.10938-0.09375-0.17188-0.09375h-0.46875c-0.48438 0-0.98438-0.015625-1.4688 0-0.17188 0.015625-0.35938 0.046875-0.54688 0.046875 0.14062-0.14062 0.3125-0.26562 0.45312-0.40625 0.35938-0.32812 0.6875-0.67188 1.0156-1.0156 0.10938-0.09375 0.20312-0.1875 0.29688-0.28125 0.046875-0.046875 0.09375-0.09375 0.09375-0.15625s-0.046875-0.10938-0.09375-0.15625c-0.015625-0.015625-0.046875-0.046875-0.078125-0.0625-0.078125-0.046875-0.14062 0.015625-0.1875 0.0625l-0.32812 0.32812c-0.32812 0.32812-0.6875 0.65625-1 1-0.14062 0.14062-0.26562 0.3125-0.40625 0.45312 0-0.1875 0.03125-0.35938 0.046875-0.53125 0.015625-0.5 0-1 0-1.5v-0.46875c0-0.0625-0.015625-0.125-0.09375-0.15625-0.0625-0.015625-0.21875-0.03125-0.28125 0.03125-0.03125 0.046875-0.03125 0.125-0.03125 0.1875v0.39062 1.5156c0.015625 0.17188 0.046875 0.34375 0.046875 0.53125z"/>
</g>
</defs>
<g transform="translate(-149.54 -129.2)">
<use x="148.71201" y="134.765" xlink:href="#a"/>
</g>
</svg>
