<?xml version="1.0" encoding="UTF-8"?>
<svg fill="#000000" version="1.1" viewBox="0 0 6.2969 9.2969" xmlns="http://www.w3.org/2000/svg" xmlns:xlink="http://www.w3.org/1999/xlink">
<defs>
<g id="b">
<path d="m6.2812-6.75c0.078125-0.14062 0.078125-0.15625 0.078125-0.1875 0-0.078125-0.0625-0.20312-0.20312-0.20312-0.10938 0-0.14062 0.0625-0.21875 0.20312l-4.4688 8.7031c-0.078125 0.14062-0.078125 0.15625-0.078125 0.1875 0 0.078125 0.0625 0.20312 0.1875 0.20312s0.15625-0.0625 0.21875-0.20312z"/>
</g>
<g id="a">
<path d="m6.8125-5.9844c0-0.32812-0.03125-0.35938-0.35938-0.35938h-5.4688c-0.17188 0-0.35938 0-0.35938 0.20312s0.1875 0.20312 0.35938 0.20312h5.4219v4.9688h-5.4219c-0.15625 0-0.35938 0-0.35938 0.20312s0.1875 0.20312 0.35938 0.20312h5.4688c0.32812 0 0.35938-0.03125 0.35938-0.35938zm-5.8281 6.9531c-0.14062 0-0.35938 0-0.35938 0.20312 0 0.1875 0.1875 0.1875 0.35938 0.1875h5.5781c0.17188 0 0.35938 0 0.35938-0.1875 0-0.20312-0.1875-0.20312-0.35938-0.20312z"/>
</g>
</defs>
<g transform="translate(-149.34 -127.62)">
<use x="148.71201" y="134.765" xlink:href="#b"/>
<use x="148.71201" y="134.765" xlink:href="#a"/>
</g>
</svg>
