<?xml version="1.0" encoding="UTF-8"?>
<svg fill="#000000" version="1.1" viewBox="0 0 4.1562 4.7344" xmlns="http://www.w3.org/2000/svg" xmlns:xlink="http://www.w3.org/1999/xlink">
<defs>
<g id="a">
<path d="m4.2344-4.9062c-0.09375 0-0.17188 0.046875-0.20312 0.10938l-1.1719 2.0312h-2.3281c-0.125 0-0.23438 0.09375-0.23438 0.21875s0.10938 0.23438 0.23438 0.23438h2.3281l1.1719 2.0156c0.03125 0.0625 0.10938 0.125 0.20312 0.125 0.125 0 0.21875-0.125 0.21875-0.25 0-0.03125 0-0.0625-0.03125-0.10938l-1.1562-2.0156 1.1562-2.0156c0.03125-0.046875 0.03125-0.078125 0.03125-0.10938 0-0.125-0.09375-0.23438-0.21875-0.23438z"/>
</g>
</defs>
<g transform="translate(-149.01 -129.86)">
<use x="148.71201" y="134.765" xlink:href="#a"/>
</g>
</svg>
