<?xml version="1.0" encoding="UTF-8"?>
<svg fill="#000000" version="1.1" viewBox="0 0 2.221 2.2357" xmlns="http://www.w3.org/2000/svg" xmlns:xlink="http://www.w3.org/1999/xlink">
<defs>
<g id="a">
<path d="m2-6.3906v1.4844c0 0.09375-0.015625 0.23438 0.015625 0.32812 0.03125 0.0625 0.09375 0.10938 0.17188 0.09375 0.17188-0.03125 0.14062-0.23438 0.14062-0.35938v-1.6406c0-0.0625 0-0.125-0.0625-0.17188-0.046875-0.046875-0.10938-0.046875-0.17188-0.046875h-1.5312c-0.10938 0-0.23438-0.03125-0.32812 0-0.0625 0.03125-0.10938 0.078125-0.125 0.14062 0 0.078125 0.046875 0.14062 0.125 0.15625 0.078125 0.03125 0.20312 0.015625 0.29688 0.015625z"/>
</g>
</defs>
<g transform="translate(-148.82 -128.05)">
<use x="148.71201" y="134.765" xlink:href="#a"/>
</g>
</svg>
