<?xml version="1.0" encoding="UTF-8"?>
<svg fill="#000000" version="1.1" viewBox="0 0 9.1562 11.406" xmlns="http://www.w3.org/2000/svg" xmlns:xlink="http://www.w3.org/1999/xlink">
<defs>
<g id="a">
<path d="m7.7656-6.4375c0-0.375 0-1.4688 0.5625-1.4688 0.078125 0 0.14062 0.03125 0.14062 0.10938s-0.09375 0.125-0.09375 0.28125c0 0.21875 0.14062 0.34375 0.35938 0.34375 0.23438 0 0.42188-0.1875 0.42188-0.42188 0-0.40625-0.3125-0.625-0.6875-0.625-1.1406 0-1.4375 1.2656-1.4375 2.1719v1.5938c-0.51562-0.10938-1.0312-0.15625-1.5625-0.17188v-1.8125c0-0.375 0-1.4688 0.57812-1.4688 0.0625 0 0.125 0.03125 0.125 0.10938s-0.09375 0.125-0.09375 0.28125c0 0.21875 0.15625 0.34375 0.35938 0.34375 0.23438 0 0.42188-0.1875 0.42188-0.42188 0-0.40625-0.3125-0.625-0.6875-0.625-1.1406 0-1.4219 1.2656-1.4219 2.1719v1.4219c-0.53125 0.015625-1.0469 0.0625-1.5625 0.17188v-1.9844c0-0.375 0-1.4688 0.5625-1.4688 0.0625 0 0.125 0.03125 0.125 0.10938s-0.09375 0.125-0.09375 0.28125c0 0.21875 0.15625 0.34375 0.35938 0.34375 0.25 0 0.42188-0.1875 0.42188-0.42188 0-0.40625-0.3125-0.625-0.6875-0.625-1.1406 0-1.4219 1.2656-1.4219 2.1719v1.7969c-0.8125 0.26562-1.9219 0.85938-1.9219 1.8594s1.1094 1.5938 1.9219 1.8594v2.0156c0 0.375 0 1.3906-0.54688 1.3906-0.078125 0-0.125-0.03125-0.125-0.10938s0.078125-0.10938 0.078125-0.26562c0-0.23438-0.14062-0.34375-0.35938-0.34375-0.23438 0-0.40625 0.17188-0.40625 0.42188 0 0.40625 0.29688 0.60938 0.6875 0.60938 1.0625 0 1.4062-1.125 1.4062-2.0156v-1.5156c0.51562 0.10938 1.0312 0.17188 1.5625 0.1875v1.6406c0 0.375 0 1.3906-0.54688 1.3906-0.078125 0-0.14062-0.03125-0.14062-0.10938s0.09375-0.10938 0.09375-0.26562c0-0.23438-0.15625-0.34375-0.35938-0.34375-0.23438 0-0.42188 0.17188-0.42188 0.42188 0 0.40625 0.3125 0.60938 0.6875 0.60938 1.0781 0 1.4062-1.125 1.4062-2.0156v-1.3281c0.53125-0.015625 1.0469-0.078125 1.5625-0.17188v1.8125c0 0.375 0 1.3906-0.54688 1.3906-0.0625 0-0.125-0.03125-0.125-0.10938s0.09375-0.10938 0.09375-0.26562c0-0.23438-0.15625-0.34375-0.35938-0.34375-0.23438 0-0.42188 0.17188-0.42188 0.42188 0 0.40625 0.3125 0.60938 0.6875 0.60938 1.0781 0 1.4062-1.125 1.4062-2.0156v-1.7031c0.8125-0.26562 1.9219-0.85938 1.9219-1.8594s-1.1094-1.5938-1.9219-1.8594zm0 2.5625c0.64062 0.21875 1.5469 0.6875 1.5469 1.4844 0 0.78125-0.90625 1.25-1.5469 1.4688zm-0.73438 3.1562c-0.51562 0.10938-1.0312 0.17188-1.5625 0.1875v-3.7188c0.53125 0.015625 1.0469 0.078125 1.5625 0.1875zm-2.2812 0.1875c-0.53125-0.015625-1.0469-0.078125-1.5625-0.1875v-3.3438c0.51562-0.10938 1.0312-0.17188 1.5625-0.1875zm-2.2969-0.39062c-0.625-0.21875-1.5312-0.6875-1.5312-1.4688s0.90625-1.2656 1.5312-1.4844z"/>
</g>
</defs>
<g transform="translate(-149.24 -126.51)">
<use x="148.71201" y="134.72501" xlink:href="#a"/>
</g>
</svg>
