<?xml version="1.0" encoding="UTF-8"?>
<svg fill="#000000" version="1.1" viewBox="0 0 12.688 6.8125" xmlns="http://www.w3.org/2000/svg" xmlns:xlink="http://www.w3.org/1999/xlink">
<defs>
<g id="a">
<path d="m13.312-2.5625-2.3906-2.5156-0.28125 0.29688 0.75 0.9375h-5.6562l-1.9531-2.125-3.1562 3.4062 3.1562 3.4062 1.9531-2.1094h5.6562l-0.75 0.92188 0.28125 0.29688zm-0.84375 0.015625-0.59375 0.71875h-5.625l0.6875-0.73438-0.67188-0.73438h5.5938zm-6.2812-0.015625-2.4062 2.6094-2.4062-2.6094 2.4062-2.5938zm-1.8281 0c0-0.3125-0.26562-0.59375-0.59375-0.59375-0.3125 0-0.5625 0.26562-0.5625 0.59375 0 0.3125 0.26562 0.5625 0.57812 0.5625s0.57812-0.25 0.57812-0.5625z"/>
</g>
</defs>
<g transform="translate(-149.34 -128.8)">
<use x="148.71201" y="134.765" xlink:href="#a"/>
</g>
</svg>
