<?xml version="1.0" encoding="UTF-8"?>
<svg fill="#000000" version="1.1" viewBox="0 0 4.4219 6.9219" xmlns="http://www.w3.org/2000/svg" xmlns:xlink="http://www.w3.org/1999/xlink">
<defs>
<g id="a">
<path d="m0.57812-6.625 1.9375 3.1719-1.9375 3.1406c-0.015625 0.03125-0.03125 0.078125-0.03125 0.10938 0 0.078125 0.03125 0.14062 0.09375 0.17188 0.03125 0.015625 0.0625 0.03125 0.10938 0.03125 0.0625 0 0.14062-0.03125 0.17188-0.09375l1.8438-2.9844 1.8281 2.9844c0.046875 0.0625 0.09375 0.09375 0.17188 0.09375 0.046875 0 0.078125-0.015625 0.10938-0.03125 0.0625-0.03125 0.09375-0.09375 0.09375-0.17188 0-0.03125-0.015625-0.0625-0.03125-0.10938l-1.9531-3.1406 1.9531-3.1719c0.015625-0.03125 0.03125-0.0625 0.03125-0.10938 0-0.0625-0.03125-0.125-0.09375-0.15625-0.046875-0.015625-0.0625-0.03125-0.10938-0.03125-0.078125 0-0.125 0.03125-0.17188 0.09375l-1.8281 2.9844-1.8438-2.9844c-0.03125-0.0625-0.09375-0.09375-0.17188-0.09375-0.03125 0-0.078125 0.015625-0.10938 0.03125-0.0625 0.03125-0.09375 0.10938-0.09375 0.17188 0 0.046875 0.015625 0.0625 0.03125 0.09375z"/>
</g>
</defs>
<g transform="translate(-149.26 -127.84)">
<use x="148.71201" y="134.765" xlink:href="#a"/>
</g>
</svg>
