<?xml version="1.0" encoding="UTF-8"?>
<svg fill="#000000" version="1.1" viewBox="0 0 6.625 10.75" xmlns="http://www.w3.org/2000/svg" xmlns:xlink="http://www.w3.org/1999/xlink">
<defs>
<g id="a">
<path d="m6.7344-6.875c0.10938-0.0625 0.1875-0.10938 0.1875-0.21875s-0.09375-0.20312-0.20312-0.20312c-0.046875 0-0.14062 0.046875-0.17188 0.0625l-5.5156 2.5938c-0.17188 0.078125-0.20312 0.15625-0.20312 0.23438s0.046875 0.15625 0.20312 0.21875l5.5156 2.5938c0.125 0.0625 0.14062 0.0625 0.17188 0.0625 0.10938 0 0.20312-0.078125 0.20312-0.1875 0-0.14062-0.09375-0.17188-0.20312-0.21875l-5.2188-2.4688zm-2.8281 8.3125c0.54688 0.45312 1 0.8125 1.625 0.8125 1.0469 0 1.6562-1.0625 1.6562-1.9844 0-0.23438-0.0625-0.32812-0.14062-0.32812-0.125 0-0.14062 0.23438-0.14062 0.29688-0.03125 0.85938-0.65625 1.4531-1.375 1.4531-0.53125 0-0.9375-0.26562-1.3906-0.65625l1.0312-1.9062c0.09375-0.14062 0.09375-0.15625 0.09375-0.20312 0-0.09375-0.078125-0.20312-0.20312-0.20312s-0.14062 0.046875-0.25 0.26562l-0.96875 1.7656c-0.54688-0.45312-1-0.8125-1.625-0.8125-1.0469 0-1.6562 1.0625-1.6562 1.9844 0 0.23438 0.0625 0.32812 0.14062 0.32812 0.10938 0 0.14062-0.20312 0.14062-0.23438 0.046875-1.1406 0.84375-1.5312 1.375-1.5312 0.51562 0 0.9375 0.28125 1.3906 0.67188l-1.0312 1.8906c-0.09375 0.15625-0.09375 0.17188-0.09375 0.21875 0 0.09375 0.0625 0.1875 0.20312 0.1875 0.10938 0 0.14062-0.03125 0.25-0.25z"/>
</g>
</defs>
<g transform="translate(-149.27 -127.47)">
<use x="148.71201" y="134.765" xlink:href="#a"/>
</g>
</svg>
