<?xml version="1.0" encoding="UTF-8"?>
<svg fill="#000000" width="5.2344" height="8.9688" version="1.1" viewBox="0 0 5.2344 8.9687" xmlns="http://www.w3.org/2000/svg" xmlns:xlink="http://www.w3.org/1999/xlink">
<defs>
<g id="a">
<path d="m4.3594-6.6719c0-0.03125 0.03125-0.14062 0.03125-0.14062 0-0.015625 0-0.10938-0.125-0.10938-0.09375 0-0.10938 0.03125-0.15625 0.20312l-0.57812 2.2969c-1.5781 0.0625-3.0469 1.375-3.0469 2.7344 0 0.95312 0.70312 1.7344 1.9219 1.8125-0.078125 0.29688-0.15625 0.625-0.23438 0.9375-0.125 0.46875-0.21875 0.84375-0.21875 0.875 0 0.09375 0.078125 0.10938 0.125 0.10938s0.0625-0.015625 0.09375-0.046875c0.015625-0.015625 0.078125-0.25 0.10938-0.39062l0.375-1.4844c1.6094-0.0625 3.0625-1.4062 3.0625-2.7344 0-0.79688-0.53125-1.7031-1.9219-1.8125zm-1.9062 6.5781c-0.59375-0.03125-1.3125-0.39062-1.3125-1.375 0-1.2031 0.85938-2.5938 2.3438-2.7344zm1.2812-4.1094c0.76562 0.046875 1.3281 0.5 1.3281 1.375 0 1.1875-0.85938 2.6094-2.3438 2.7344z"/>
</g>
</defs>
<g transform="translate(-149.2 -127.84)">
<use x="148.71201" y="134.765" xlink:href="#a"/>
</g>
</svg>
