<?xml version="1.0" encoding="UTF-8"?>
<svg fill="#000000" version="1.1" viewBox="0 0 6.625 9.3906" xmlns="http://www.w3.org/2000/svg" xmlns:xlink="http://www.w3.org/1999/xlink">
<defs>
<g id="a">
<path d="m0.14062 1.9375c0.25-0.078125 0.5-0.10938 0.75-0.10938 0.51562 0 1.0156 0.14062 1.4688 0.40625 0.015625 0.015625 0.03125 0.015625 0.046875 0.015625 0.046875 0 0.078125-0.015625 0.09375-0.0625l0.046875-0.015625 0.03125-0.03125v-0.046875c0-0.046875-0.015625-0.078125-0.046875-0.09375-0.51562-0.3125-1.0938-0.45312-1.6719-0.45312h-0.10938c1.5312-1.4062 2.25-3.3906 2.5625-5.4688 0.3125 2.0781 1.0312 4.0469 2.5625 5.4688h-0.15625c-0.5625 0-1.1406 0.14062-1.625 0.45312l-0.03125 0.03125c-0.015625 0.015625-0.015625 0.046875-0.015625 0.0625 0 0.03125 0.015625 0.0625 0.046875 0.078125l0.046875 0.046875c0.03125 0.03125 0.0625 0.03125 0.078125 0.03125s0.03125 0 0.0625-0.015625c0.4375-0.26562 0.9375-0.40625 1.4531-0.40625 0.25 0 0.5 0.03125 0.75 0.10938h0.03125c0.03125 0 0.046875 0 0.046875-0.015625 0.03125-0.015625 0.046875-0.03125 0.0625-0.0625v-0.046875c0-0.015625 0-0.03125-0.015625-0.03125-0.23438-0.4375-0.375-0.90625-0.375-1.3906 0-0.28125 0.0625-0.5625 0.14062-0.82812v-0.03125c0-0.046875-0.03125-0.0625-0.046875-0.09375l-0.0625-0.0625c-0.03125 0-0.046875-0.015625-0.0625-0.015625-0.046875 0-0.10938 0.03125-0.10938 0.078125-0.09375 0.3125-0.14062 0.625-0.14062 0.95312 0 0.25 0.03125 0.5 0.09375 0.75-2.0469-1.9688-2.5312-5.0625-2.5312-8.0938 0-0.10938-0.09375-0.1875-0.20312-0.1875s-0.20312 0.078125-0.20312 0.1875c0 3.0312-0.48438 6.125-2.5312 8.0938 0.0625-0.25 0.09375-0.51562 0.09375-0.78125 0-0.3125-0.046875-0.625-0.14062-0.92188l-0.015625-0.03125c-0.015625-0.03125-0.0625-0.046875-0.09375-0.046875-0.015625 0-0.046875 0.015625-0.0625 0.015625l-0.0625 0.0625c-0.03125 0.03125-0.03125 0.046875-0.03125 0.078125v0.046875c0.078125 0.26562 0.10938 0.53125 0.10938 0.8125 0 0.48438-0.10938 0.96875-0.35938 1.4062-0.015625 0.015625-0.015625 0.046875-0.015625 0.078125 0.015625 0.03125 0.03125 0.046875 0.0625 0.0625 0 0.015625 0.03125 0.015625 0.046875 0.015625z"/>
</g>
</defs>
<g transform="translate(-148.71 -127.62)">
<use x="148.71201" y="134.765" xlink:href="#a"/>
</g>
</svg>
