<?xml version="1.0" encoding="UTF-8"?>
<svg fill="#000000" width="7.8438" height="7.8438" version="1.1" viewBox="0 0 7.8438 7.8437" xmlns="http://www.w3.org/2000/svg" xmlns:xlink="http://www.w3.org/1999/xlink">
<defs>
<g id="a">
<path d="m4.4531-4.0156c-0.39062 0-0.70312 0.3125-0.70312 0.70312 0 0.375 0.32812 0.6875 0.70312 0.6875 0.39062 0 0.70312-0.32812 0.70312-0.6875 0-0.40625-0.32812-0.70312-0.70312-0.70312zm0 4c-1.8906 0-3.3125-1.5469-3.3125-3.2969 0-1.9062 1.5469-3.3281 3.3125-3.3281 1.8906 0 3.3125 1.5469 3.3125 3.3281 0 1.875-1.5469 3.2969-3.3125 3.2969zm3.9219-3.2969c0-2.2344-1.8125-3.9375-3.9219-3.9375-2.2344 0-3.9219 1.8125-3.9219 3.9375 0 2.2188 1.8125 3.9062 3.9219 3.9062 2.2188 0 3.9219-1.8125 3.9219-3.9062z"/>
</g>
</defs>
<g transform="translate(-149.24 -128.29)">
<use x="148.71201" y="135.53999" xlink:href="#a"/>
</g>
</svg>
