<?xml version="1.0" encoding="UTF-8"?>
<svg fill="#000000" version="1.1" viewBox="0 0 7.0156 7.25" xmlns="http://www.w3.org/2000/svg" xmlns:xlink="http://www.w3.org/1999/xlink">
<defs>
<g id="a">
<path d="m1.9531-6.3594c-0.10938 2.1719-1.0156 4.7969-1.6094 6.3594-0.046875 0.125-0.046875 0.14062-0.046875 0.15625 0 0.0625 0.078125 0.0625 0.10938 0.0625 0.17188 0 0.53125-0.1875 0.6875-0.375 0.046875-0.078125 1.3438-3.3281 1.6406-5.8594 0.0625-0.40625 0.078125-0.8125 0.078125-0.85938 0-0.10938 0-0.15625-0.10938-0.15625s-0.40625 0.15625-0.60938 0.25c-0.45312 0.23438-0.84375 0.42188-0.84375 0.59375 0 0.0625 0.078125 0.0625 0.10938 0.0625 0.09375 0 0.10938 0 0.59375-0.23438zm5.2969 5.0938c0-0.015625 0-0.09375-0.125-0.09375-0.046875 0-0.15625 0.015625-0.29688 0.125-0.125 0.078125-0.14062 0.10938-0.1875 0.26562-0.26562 0.76562-1.25 0.76562-1.2656 0.76562-0.96875 0-2.375-3.1406-2.375-4.0312 0-0.15625 0.03125-0.26562 0.375-0.625 0.73438-0.71875 2.5-1.7344 2.9688-1.7344 0.21875 0 0.35938 0.15625 0.35938 0.40625 0 0.078125-0.015625 0.125-0.015625 0.17188s0.03125 0.10938 0.125 0.10938c0.015625 0 0.5-0.03125 0.5-0.53125 0-0.32812-0.21875-0.59375-0.57812-0.59375-0.6875 0-2.0625 0.79688-2.8438 1.3594-0.42188 0.3125-1.4844 1.0625-1.4844 1.6875 0 0.85938 1 3 1.7188 3.7344 0.34375 0.34375 0.5625 0.46875 0.85938 0.46875 0.78125 0 1.5781-0.40625 1.9688-0.89062 0.25-0.3125 0.29688-0.5625 0.29688-0.59375z"/>
</g>
</defs>
<g transform="translate(-149.01 -127.73)">
<use x="148.71201" y="134.765" xlink:href="#a"/>
</g>
</svg>
