<?xml version="1.0" encoding="UTF-8"?>
<svg fill="#000000" version="1.1" viewBox="0 0 3.6875 4.2969" xmlns="http://www.w3.org/2000/svg" xmlns:xlink="http://www.w3.org/1999/xlink">
<defs>
<g id="a">
<path d="m2.7344-4.25c0.015625-0.14062 0.015625-0.39062-0.23438-0.39062-0.17188 0-0.29688 0.14062-0.26562 0.26562v0.125l0.14062 1.5469-1.2812-0.92188c-0.09375-0.046875-0.10938-0.078125-0.17188-0.078125-0.14062 0-0.28125 0.14062-0.28125 0.28125 0 0.15625 0.10938 0.20312 0.20312 0.25l1.4219 0.67188-1.375 0.67188c-0.15625 0.078125-0.25 0.125-0.25 0.26562 0 0.15625 0.14062 0.28125 0.28125 0.28125 0.0625 0 0.078125 0 0.32812-0.1875l1.125-0.79688-0.15625 1.6719c0 0.20312 0.1875 0.25 0.26562 0.25 0.125 0 0.26562-0.0625 0.26562-0.25l-0.14062-1.6719 1.2656 0.92188c0.09375 0.046875 0.10938 0.0625 0.1875 0.0625 0.14062 0 0.26562-0.14062 0.26562-0.28125s-0.09375-0.1875-0.21875-0.25c-0.59375-0.29688-0.60938-0.29688-1.3906-0.67188l1.375-0.67188c0.15625-0.078125 0.23438-0.10938 0.23438-0.26562 0-0.14062-0.125-0.28125-0.26562-0.28125-0.078125 0-0.09375 0-0.34375 0.1875l-1.1094 0.8125z"/>
</g>
</defs>
<g transform="translate(-149.35 -130.12)">
<use x="148.71201" y="134.765" xlink:href="#a"/>
</g>
</svg>
