<?xml version="1.0" encoding="UTF-8"?>
<svg fill="#000000" version="1.1" viewBox="0 0 7.1875 10.672" xmlns="http://www.w3.org/2000/svg" xmlns:xlink="http://www.w3.org/1999/xlink">
<defs>
<g id="a">
<path d="m1.5312-8.0781h-0.64062v7.5312c0 1.8281 1.6875 3.1406 3.5938 3.1406s3.5938-1.3125 3.5938-3.1406v-7.5312h-0.64062v7.5312c0 1.4688-1.3906 2.5-2.9531 2.5-1.5469 0-2.9531-1.0312-2.9531-2.5zm3.7031 4c0-0.15625-0.15625-0.3125-0.29688-0.45312-0.125-0.14062-0.29688-0.29688-0.45312-0.29688-0.14062 0-0.3125 0.17188-0.45312 0.29688-0.125 0.14062-0.29688 0.3125-0.29688 0.46875 0 0.14062 0.17188 0.29688 0.29688 0.4375 0.14062 0.14062 0.3125 0.29688 0.45312 0.29688 0.15625 0 0.32812-0.17188 0.45312-0.29688 0.14062-0.14062 0.29688-0.29688 0.29688-0.45312z"/>
</g>
</defs>
<g transform="translate(-149.6 -126.69)">
<use x="148.71201" y="134.765" xlink:href="#a"/>
</g>
</svg>
