<?xml version="1.0" encoding="UTF-8"?>
<svg fill="#000000" version="1.1" viewBox="0 0 9.9688 10.422" xmlns="http://www.w3.org/2000/svg" xmlns:xlink="http://www.w3.org/1999/xlink">
<defs>
<g id="a">
<path d="m5.2969-7.7031c-0.26562 0.03125-0.54688 0.046875-0.8125 0.10938-2.2656 0.53125-3.9375 2.625-3.9375 5.0781 0 2.1562 1.3438 4.375 3.6562 5.0312 0.4375 0.125 0.89062 0.20312 1.3438 0.20312 2.75 0 4.875-2.3594 4.9688-5.0156v-0.20312c0-2.6719-2.0156-5.2031-5.0781-5.2031zm-4.3438 5.4062v-0.14062c0-2.4844 1.7812-4.875 4.5781-4.875h0.14062c2.3594 0.10938 4.4531 2.1094 4.4531 4.8125 0 2.4375-1.875 4.7969-4.625 4.7969-2.1719 0-4.0625-1.6875-4.4688-3.8594-0.046875-0.23438-0.046875-0.48438-0.078125-0.73438zm2.6094-1.5312v-0.125-0.14062c0-0.10938-0.015625-0.1875-0.015625-0.29688v-0.42188c0-0.078125-0.015625-0.1875-0.125-0.1875-0.078125 0-0.10938 0.078125-0.10938 0.14062v1.8125c0 0.09375 0.0625 0.15625 0.17188 0.15625 0.0625 0 0.125-0.03125 0.14062-0.09375l0.03125-0.17188c0.078125-0.85938 0.92188-1.5312 1.6406-1.5312 1.1562 0 1.9844 1.1562 1.9844 2.3125 0 1.0625-0.75 2.2812-1.9688 2.2812-0.85938 0-1.6406-0.59375-1.75-1.5v-0.0625c0-0.09375-0.046875-0.14062-0.10938-0.14062s-0.125 0.046875-0.14062 0.10938v0.046875c0 1.0469 1 1.7969 1.9844 1.8438h0.10938c1.4062 0 2.8906-1.2344 2.8906-2.5781 0-1.375-1.4844-2.625-2.8438-2.625-0.71875 0-1.5781 0.4375-1.8906 1.1719z"/>
</g>
</defs>
<g transform="translate(-149.26 -127.06)">
<use x="148.71201" y="134.765" xlink:href="#a"/>
</g>
</svg>
