<?xml version="1.0" encoding="UTF-8"?>
<svg fill="#000000" version="1.1" viewBox="0 0 8.8594 2.7969" xmlns="http://www.w3.org/2000/svg" xmlns:xlink="http://www.w3.org/1999/xlink">
<defs>
<g id="a">
<path d="m9.0469-2.2969c0.1875 0 0.35938 0 0.35938-0.20312 0-0.1875-0.17188-0.1875-0.35938-0.1875h-7.5781c0.35938-0.29688 0.60938-0.54688 0.90625-0.95312 0.46875-0.60938 0.6875-1.2812 0.6875-1.3438 0-0.10938-0.125-0.10938-0.1875-0.10938-0.078125 0-0.10938 0-0.15625 0.03125-0.015625 0.015625-0.03125 0.015625-0.10938 0.20312-0.48438 1.1875-1.2656 1.8281-1.9531 2.2344-0.09375 0.0625-0.10938 0.078125-0.10938 0.1875 0 0.14062 0.0625 0.14062 0.28125 0.14062z"/>
</g>
</defs>
<g transform="translate(-149.26 -129.67)">
<use x="148.71201" y="134.765" xlink:href="#a"/>
</g>
</svg>
