<?xml version="1.0" encoding="UTF-8"?>
<svg fill="#000000" version="1.1" viewBox="0 0 11.5 5.4844" xmlns="http://www.w3.org/2000/svg" xmlns:xlink="http://www.w3.org/1999/xlink">
<defs>
<g id="a">
<path d="m5.8438 0.15625c0.17188-0.34375 0.32812-0.51562 0.45312-0.51562s0.26562-0.046875 0.4375-0.125c0.03125-0.03125 0.078125-0.03125 0.10938-0.03125 0.125 0 0.25 0.14062 0.32812 0.45312l0.1875-0.39062v0.39062l0.23438-0.4375c-0.17188-0.09375-0.25-0.25-0.25-0.45312 0-0.32812 0.14062-0.95312 0.98438-0.95312 0.32812 0 0.75 0.078125 1.2656 0.23438 0-0.40625 0.20312-0.625 0.60938-0.625 0.17188 0 0.35938 0.03125 0.59375 0.10938-0.015625-0.09375-0.046875-0.1875-0.046875-0.26562 0-0.39062 0.32812-0.65625 0.96875-0.78125-0.85938-0.6875-1.7344-1.0781-2.625-1.125l0.20312-0.21875c-0.21875 0-0.35938 0.046875-0.39062 0.125-0.046875 0.09375-0.3125 0.1875-0.79688 0.3125-0.46875 0.10938-0.82812 0.25-1.0781 0.375-0.14062 0.078125-0.25 0.10938-0.3125 0.10938-0.09375 0-0.125-0.03125-0.125-0.15625 0-0.10938 0.03125-0.25 0.09375-0.42188 0.0625-0.14062 0.078125-0.29688 0.078125-0.46875-0.03125-0.46875-0.078125-0.625-0.17188-0.625s-0.46875 0.54688-0.75 1.0469c-0.15625-0.29688-0.6875-1.0156-0.76562-1.0156-0.09375 0-0.21875 0.375-0.21875 0.65625 0 0.17188 0.046875 0.29688 0.10938 0.40625 0.078125 0.14062 0.125 0.25 0.125 0.34375 0 0.125-0.0625 0.1875-0.17188 0.1875s-0.23438-0.03125-0.39062-0.10938c-0.29688-0.15625-0.60938-0.25-0.95312-0.3125-0.32812-0.0625-0.5625-0.125-0.67188-0.20312-0.14062-0.09375-0.28125-0.09375-0.48438-0.09375l0.26562 0.15625c-1.1875 0.17188-2.0156 0.57812-2.4688 1.2031 0.54688 0.015625 0.82812 0.17188 0.82812 0.48438 0 0.125-0.046875 0.28125-0.14062 0.45312 0.15625-0.0625 0.3125-0.09375 0.45312-0.09375 0.34375 0 0.60938 0.20312 0.78125 0.60938 0.42188-0.15625 0.78125-0.23438 1.0781-0.23438 0.60938 0 1.1094 0.51562 1.1094 0.98438 0 0.14062-0.078125 0.25-0.21875 0.32812v0.4375l0.1875-0.26562v0.32812c0.15625-0.28125 0.29688-0.42188 0.42188-0.42188 0.046875 0 0.09375 0.015625 0.10938 0.03125 0.14062 0.09375 0.28125 0.125 0.42188 0.125 0.32812 0 0.4375 0 0.59375 0.45312z"/>
</g>
</defs>
<g transform="translate(-148.93 -129.44)">
<use x="148.71201" y="134.765" xlink:href="#a"/>
</g>
</svg>
