<?xml version="1.0" encoding="UTF-8"?>
<svg fill="#000000" version="1.1" viewBox="0 0 4.25 7.1719" xmlns="http://www.w3.org/2000/svg" xmlns:xlink="http://www.w3.org/1999/xlink">
<defs>
<g id="a">
<path d="m3.9219-1.5469c-0.015625 0.65625-0.4375 1.1562-0.9375 1.1562-0.84375-0.078125-1.625-1.1875-1.625-2.4375 0.10938-0.65625 0.42188-0.98438 0.9375-0.98438 0.078125 0 0.15625 0 0.25 0.03125 0.90625 0.40625 1.375 1.1719 1.375 2.2344zm-0.82812 1.5469c0.9375-0.26562 1.6562-1.1875 1.6562-2.0312 0-1.0156-0.51562-1.7188-1.5938-2.1094v-1.5781h0.96875v-0.28125h-0.96875v-1.1719h-0.89062v1.1719h-1.0469v0.28125h1.0469v1.4375c-1.1719 0.078125-1.7656 0.76562-1.7656 2.0312 0 1.5 0.84375 2.25 2.5938 2.25z"/>
</g>
</defs>
<g transform="translate(-149.21 -127.59)">
<use x="148.71201" y="134.765" xlink:href="#a"/>
</g>
</svg>
