<?xml version="1.0" encoding="UTF-8"?>
<svg fill="#000000" version="1.1" viewBox="0 0 6.6376 5.9102" xmlns="http://www.w3.org/2000/svg" xmlns:xlink="http://www.w3.org/1999/xlink">
<defs>
<g id="a">
<path d="m2.4375-5.4375c-0.375 0.046875-0.60938 0.4375-0.4375 0.78125 0.09375 0.20312 0.29688 0.3125 0.45312 0.46875 0.28125 0.26562 0.54688 0.53125 0.78125 0.84375 0.09375 0.14062 0.1875 0.28125 0.28125 0.4375 0.015625 0.0625 0.046875 0.14062 0 0.21875-0.0625 0.046875-0.14062 0.0625-0.20312 0.0625-0.15625 0-0.29688-0.015625-0.4375-0.03125-0.375-0.03125-0.75-0.125-1.1094-0.23438-0.125-0.03125-0.23438-0.0625-0.34375-0.10938-0.09375-0.03125-0.17188-0.0625-0.25-0.078125-0.23438-0.015625-0.45312 0.125-0.54688 0.32812-0.1875 0.375 0.09375 0.8125 0.5 0.8125 0.09375 0 0.1875-0.03125 0.29688-0.0625 0.10938-0.046875 0.23438-0.078125 0.35938-0.125 0.375-0.10938 0.75-0.20312 1.1562-0.23438 0.14062-0.015625 0.29688-0.03125 0.4375 0 0.0625 0 0.14062 0.03125 0.15625 0.09375 0.03125 0.046875 0 0.125-0.03125 0.17188-0.0625 0.125-0.15625 0.26562-0.23438 0.375-0.23438 0.32812-0.51562 0.60938-0.79688 0.89062-0.17188 0.15625-0.35938 0.26562-0.46875 0.46875-0.17188 0.35938 0.10938 0.8125 0.5 0.8125 0.21875 0 0.42188-0.14062 0.51562-0.32812 0.03125-0.078125 0.0625-0.1875 0.078125-0.28125 0.015625-0.10938 0.03125-0.21875 0.0625-0.3125 0.078125-0.34375 0.17188-0.67188 0.3125-1 0.0625-0.17188 0.15625-0.34375 0.26562-0.5 0.03125-0.046875 0.078125-0.125 0.15625-0.10938 0.078125 0 0.10938 0.078125 0.15625 0.125 0.09375 0.125 0.15625 0.26562 0.21875 0.40625 0.15625 0.34375 0.26562 0.70312 0.34375 1.0625 0.03125 0.10938 0.046875 0.21875 0.0625 0.32812s0.046875 0.20312 0.09375 0.3125c0.10938 0.21875 0.375 0.32812 0.60938 0.28125 0.35938-0.078125 0.54688-0.48438 0.39062-0.8125-0.10938-0.1875-0.29688-0.29688-0.45312-0.4375-0.28125-0.28125-0.54688-0.54688-0.78125-0.85938-0.09375-0.125-0.1875-0.26562-0.28125-0.4375-0.015625-0.046875-0.046875-0.14062 0-0.20312 0.046875-0.046875 0.125-0.0625 0.20312-0.0625 0.14062 0 0.28125 0 0.4375 0.015625 0.375 0.046875 0.73438 0.14062 1.1094 0.25 0.125 0.03125 0.23438 0.0625 0.34375 0.10938 0.09375 0.03125 0.17188 0.0625 0.26562 0.0625 0.25 0.015625 0.48438-0.14062 0.5625-0.39062 0.125-0.34375-0.14062-0.71875-0.5-0.75-0.10938 0-0.21875 0.03125-0.3125 0.0625-0.125 0.046875-0.23438 0.078125-0.34375 0.125-0.35938 0.10938-0.73438 0.20312-1.0938 0.23438-0.17188 0.015625-0.34375 0.046875-0.51562 0.03125-0.0625-0.015625-0.15625-0.03125-0.17188-0.10938-0.03125-0.0625 0-0.125 0.03125-0.17188 0.0625-0.14062 0.14062-0.25 0.23438-0.375 0.1875-0.28125 0.4375-0.5625 0.70312-0.8125 0.09375-0.078125 0.20312-0.1875 0.3125-0.26562 0.078125-0.078125 0.17188-0.14062 0.21875-0.25 0.046875-0.0625 0.078125-0.14062 0.09375-0.21875 0.03125-0.3125-0.20312-0.59375-0.51562-0.625-0.125-0.015625-0.25 0.015625-0.35938 0.09375-0.23438 0.14062-0.26562 0.4375-0.3125 0.6875-0.078125 0.42188-0.20312 0.82812-0.39062 1.2188-0.046875 0.15625-0.14062 0.3125-0.23438 0.4375-0.03125 0.0625-0.09375 0.10938-0.17188 0.09375-0.0625-0.03125-0.09375-0.078125-0.125-0.125-0.0625-0.10938-0.125-0.20312-0.17188-0.3125-0.23438-0.45312-0.35938-0.95312-0.45312-1.4531-0.015625-0.10938-0.03125-0.23438-0.078125-0.32812-0.10938-0.21875-0.35938-0.34375-0.57812-0.29688z"/>
</g>
</defs>
<g transform="translate(-149.28 -129.31)">
<use x="148.71201" y="134.765" xlink:href="#a"/>
</g>
</svg>
