<?xml version="1.0" encoding="UTF-8"?>
<svg fill="#000000" version="1.1" viewBox="0 0 6.3976 8.9666" xmlns="http://www.w3.org/2000/svg" xmlns:xlink="http://www.w3.org/1999/xlink">
<defs>
<g id="a">
<path d="m2.9375-7.0469c-0.14062 0.15625-0.25 0.34375-0.35938 0.5-0.20312 0.28125-0.35938 0.5625-0.53125 0.84375-0.1875 0.34375-0.35938 0.67188-0.51562 1.0312-0.10938 0.28125-0.21875 0.57812-0.3125 0.85938-0.21875 0.67188-0.34375 1.375-0.375 2.0781 0 0.21875-0.015625 0.4375 0 0.65625 0.046875 0.53125 0.21875 1.0469 0.48438 1.5 0.10938 0.17188 0.23438 0.34375 0.35938 0.5 0.17188 0.1875 0.375 0.35938 0.57812 0.5 0.3125 0.21875 0.65625 0.35938 1.0156 0.4375 1.0156 0.21875 2.0781-0.17188 2.7812-0.9375 0.45312-0.5 0.71875-1.1562 0.82812-1.8125 0.0625-0.45312 0.03125-0.90625-0.015625-1.3594-0.09375-0.82812-0.32812-1.6406-0.65625-2.4219-0.17188-0.39062-0.375-0.76562-0.57812-1.1406 0.23438 0.046875 0.45312 0.09375 0.67188 0.125 0.1875 0.03125 0.375 0.046875 0.5625 0.0625 0.078125 0.015625 0.1875 0.046875 0.26562 0.015625 0.0625 0 0.09375-0.046875 0.09375-0.10938-0.015625-0.078125-0.078125-0.1875-0.14062-0.21875-0.0625-0.046875-0.14062-0.0625-0.20312-0.078125-0.125-0.046875-0.26562-0.078125-0.40625-0.14062-0.39062-0.125-0.76562-0.28125-1.125-0.46875-0.17188-0.078125-0.32812-0.17188-0.48438-0.26562-0.0625-0.03125-0.14062-0.078125-0.20312-0.03125s-0.046875 0.14062-0.03125 0.21875c0 0.1875 0.015625 0.35938 0.03125 0.54688 0 0.40625-0.03125 0.79688-0.078125 1.1875-0.015625 0.125-0.03125 0.25-0.0625 0.375 0 0.0625-0.03125 0.125-0.03125 0.1875 0 0.078125 0.078125 0.1875 0.14062 0.23438 0.03125 0.046875 0.09375 0.046875 0.14062 0 0.03125-0.03125 0.046875-0.09375 0.078125-0.14062 0.03125-0.10938 0.078125-0.1875 0.10938-0.29688 0.046875-0.10938 0.078125-0.23438 0.14062-0.35938 0.0625-0.1875 0.14062-0.42188 0.1875-0.625 0.09375 0.125 0.17188 0.29688 0.25 0.4375 0.14062 0.26562 0.26562 0.54688 0.375 0.84375 0.3125 0.78125 0.53125 1.5938 0.57812 2.4219 0.015625 0.26562 0.03125 0.53125 0.015625 0.78125-0.0625 0.60938-0.28125 1.1875-0.67188 1.6562-0.125 0.15625-0.28125 0.32812-0.45312 0.45312-0.23438 0.17188-0.48438 0.3125-0.75 0.39062-0.21875 0.078125-0.4375 0.125-0.67188 0.14062-0.1875 0-0.35938-0.015625-0.54688-0.046875-1.0781-0.21875-1.875-1.1406-2.1094-2.1875-0.09375-0.39062-0.09375-0.78125-0.0625-1.1719 0.0625-0.75 0.23438-1.5 0.5-2.2188 0.23438-0.64062 0.54688-1.2656 0.92188-1.8594 0.17188-0.28125 0.375-0.57812 0.57812-0.84375v-0.015625z"/>
</g>
</defs>
<g transform="translate(-149.55 -127.72)">
<use x="148.71201" y="134.765" xlink:href="#a"/>
</g>
</svg>
