<?xml version="1.0" encoding="UTF-8"?>
<svg fill="#000000" version="1.1" viewBox="0 0 6.8281 6.0781" xmlns="http://www.w3.org/2000/svg" xmlns:xlink="http://www.w3.org/1999/xlink">
<defs>
<g id="a">
<path d="m8.0469-4.1094c0.125 0 0.23438-0.09375 0.23438-0.23438 0-0.078125-0.046875-0.14062-0.10938-0.1875-0.67188-0.39062-1.2969-0.875-1.6094-1.5781-0.078125-0.17188-0.10938-0.3125-0.29688-0.3125h-0.03125c-0.03125 0-0.1875 0.0625-0.1875 0.23438 0 0.82812-0.4375 1.5625-0.98438 2.2031-0.03125 0.03125-0.046875 0.09375-0.046875 0.14062 0 0.14062 0.09375 0.23438 0.23438 0.23438 0.046875 0 0.125-0.03125 0.15625-0.078125 0.35938-0.42188 0.60938-0.9375 0.9375-1.3906 0.03125 0.17188 0.03125 0.34375 0.03125 0.5 0 0.96875-0.35938 1.9219-1.0469 2.6406l-2.1719-1.0156c-0.078125-0.03125-0.17188 0-0.20312 0.078125s0 0.15625 0.078125 0.1875l2.0625 0.96875c-0.70312 0.625-1.5781 0.92188-2.4219 0.92188-0.59375 0-0.89062-0.125-1-0.125s-0.21875 0.078125-0.21875 0.21875c0 0.10938 0.046875 0.20312 0.15625 0.23438 0.35938 0.09375 0.70312 0.125 1.0625 0.125 1.1406 0 2.1562-0.46875 2.875-1.1562l1.6094 0.75c0.078125 0.03125 0.17188 0 0.20312-0.078125 0.03125-0.0625 0-0.15625-0.078125-0.20312l-1.5156-0.70312c0.70312-0.78125 1.0781-1.7969 1.0781-2.8438 0-0.10938 0-0.25-0.015625-0.35938 0.40625 0.29688 1.0312 0.82812 1.2188 0.82812z"/>
</g>
</defs>
<g transform="translate(-150.17 -128.34)">
<use x="148.71201" y="134.765" xlink:href="#a"/>
</g>
</svg>
