<?xml version="1.0" encoding="UTF-8"?>
<svg fill="#000000" version="1.1" viewBox="0 0 4.6562 3.4844" xmlns="http://www.w3.org/2000/svg" xmlns:xlink="http://www.w3.org/1999/xlink">
<defs>
<g id="a">
<path d="m5.4375-3.7344c0.14062 0 0.21875-0.125 0.21875-0.25s-0.078125-0.25-0.21875-0.25h-4.2188c-0.125 0-0.21875 0.125-0.21875 0.25s0.09375 0.25 0.21875 0.25zm0 1.4844c0.14062 0 0.21875-0.10938 0.21875-0.25 0-0.125-0.078125-0.23438-0.21875-0.23438h-4.2188c-0.125 0-0.21875 0.10938-0.21875 0.23438 0 0.14062 0.09375 0.25 0.21875 0.25zm0 1.5c0.14062 0 0.21875-0.125 0.21875-0.25s-0.078125-0.25-0.21875-0.25h-4.2188c-0.125 0-0.21875 0.125-0.21875 0.25s0.09375 0.25 0.21875 0.25z"/>
</g>
</defs>
<g transform="translate(-149.71 -130.53)">
<use x="148.71201" y="134.765" xlink:href="#a"/>
</g>
</svg>
