<?xml version="1.0" encoding="UTF-8"?>
<svg fill="#000000" version="1.1" viewBox="0 0 6.8438 4.4062" xmlns="http://www.w3.org/2000/svg" xmlns:xlink="http://www.w3.org/1999/xlink">
<defs>
<g id="a">
<path d="m0.17188-0.3125v0.29688l0.89062-0.03125 0.76562 0.03125v-0.29688c-0.25-0.015625-0.53125-0.14062-0.57812-0.42188 0-0.046875 0-0.09375 0.015625-0.14062 0.015625-0.078125 0.046875-0.15625 0.078125-0.25 0.0625-0.17188 0.125-0.32812 0.1875-0.5 0.14062-0.40625 0.28125-0.8125 0.42188-1.2031 0.09375-0.23438 0.1875-0.46875 0.25-0.70312h0.015625c0.046875 0.23438 0.15625 0.46875 0.25 0.70312 0.17188 0.5 0.34375 0.96875 0.51562 1.4688 0.0625 0.17188 0.125 0.35938 0.20312 0.54688 0.015625 0.078125 0.078125 0.1875 0.046875 0.28125-0.015625 0.078125-0.078125 0.125-0.15625 0.15625-0.14062 0.0625-0.28125 0.0625-0.42188 0.0625v0.29688l0.85938-0.03125 0.73438 0.015625 0.34375 0.015625v-0.29688c-0.1875 0-0.45312 0.015625-0.60938-0.125-0.09375-0.09375-0.125-0.23438-0.17188-0.375-0.03125-0.0625-0.078125-0.15625-0.078125-0.23438s0.046875-0.17188 0.078125-0.25c0.0625-0.15625 0.125-0.32812 0.1875-0.48438 0.1875-0.54688 0.35938-1.0938 0.57812-1.625 0.09375 0.23438 0.17188 0.48438 0.26562 0.73438 0.15625 0.45312 0.3125 0.90625 0.48438 1.3594 0.0625 0.17188 0.125 0.34375 0.1875 0.53125 0.03125 0.078125 0.078125 0.15625 0.046875 0.25-0.03125 0.078125-0.09375 0.125-0.15625 0.15625-0.125 0.0625-0.28125 0.0625-0.42188 0.0625v0.29688l0.89062-0.03125 0.78125 0.015625 0.35938 0.015625v-0.29688c-0.20312 0-0.45312 0.015625-0.60938-0.10938-0.09375-0.09375-0.10938-0.20312-0.15625-0.3125-0.0625-0.1875-0.125-0.35938-0.1875-0.54688-0.26562-0.6875-0.48438-1.375-0.73438-2.0625-0.10938-0.26562-0.20312-0.54688-0.29688-0.8125-0.046875-0.10938-0.078125-0.23438-0.20312-0.26562-0.15625 0-0.20312 0.10938-0.25 0.21875-0.078125 0.26562-0.1875 0.53125-0.26562 0.78125-0.09375 0.26562-0.1875 0.51562-0.28125 0.78125s-0.1875 0.5-0.26562 0.76562c-0.0625 0.15625-0.125 0.29688-0.17188 0.45312-0.0625-0.125-0.09375-0.26562-0.14062-0.40625-0.10938-0.28125-0.21875-0.57812-0.32812-0.875-0.078125-0.25-0.17188-0.5-0.26562-0.76562-0.09375-0.23438-0.17188-0.48438-0.25-0.73438-0.046875-0.10938-0.09375-0.21875-0.23438-0.21875-0.14062 0.015625-0.17188 0.14062-0.21875 0.25-0.09375 0.28125-0.1875 0.53125-0.26562 0.79688-0.28125 0.75-0.54688 1.5-0.8125 2.25-0.046875 0.125-0.09375 0.26562-0.15625 0.39062-0.17188 0.26562-0.4375 0.42188-0.75 0.42188z"/>
</g>
</defs>
<g transform="translate(-148.88 -130.34)">
<use x="148.71201" y="134.765" xlink:href="#a"/>
</g>
</svg>
