<?xml version="1.0" encoding="UTF-8"?>
<svg fill="#000000" version="1.1" viewBox="0 0 5.8594 8.5781" xmlns="http://www.w3.org/2000/svg" xmlns:xlink="http://www.w3.org/1999/xlink">
<defs>
<g id="a">
<path d="m4.625-6.9844c0-0.65625-0.53125-1.1875-1.2031-1.1875-0.65625 0-1.1719 0.53125-1.1719 1.1875 0 0.67188 0.51562 1.1875 1.1719 1.1875 0.67188 0 1.2031-0.51562 1.2031-1.1875zm-0.51562 0c0 0.39062-0.29688 0.6875-0.67188 0.6875-0.39062 0-0.70312-0.29688-0.70312-0.6875 0-0.375 0.3125-0.6875 0.6875-0.6875s0.6875 0.3125 0.6875 0.6875zm2.2344 4.7969v-0.65625h-2.6094v-2.6094h-0.65625v2.6094h-2.5938v0.65625h2.5938v2.5938h0.65625v-2.5938z"/>
</g>
</defs>
<g transform="translate(-149.2 -126.59)">
<use x="148.71201" y="134.765" xlink:href="#a"/>
</g>
</svg>
