<?xml version="1.0" encoding="UTF-8"?>
<svg fill="#000000" width="6.4219" height="7.8438" version="1.1" viewBox="0 0 6.4219 7.8437" xmlns="http://www.w3.org/2000/svg" xmlns:xlink="http://www.w3.org/1999/xlink">
<defs>
<g id="a">
<path d="m3.7344-2.2344c-0.39062 0-0.71875 0.34375-0.71875 0.71875 0 0.40625 0.32812 0.71875 0.71875 0.71875 0.40625 0 0.71875-0.32812 0.71875-0.71875s-0.34375-0.71875-0.71875-0.71875zm3.2188 2.5312c0-0.03125-0.015625-0.078125-0.03125-0.125l-2.9062-7.2344c-0.046875-0.10938-0.14062-0.1875-0.28125-0.1875-0.125 0-0.23438 0.078125-0.28125 0.1875l-2.9062 7.2344c-0.015625 0.046875-0.015625 0.09375-0.015625 0.125 0 0.15625 0.10938 0.29688 0.29688 0.29688 0.125 0 0.23438-0.0625 0.28125-0.1875l2.625-6.5312 2.625 6.5312c0.046875 0.125 0.15625 0.1875 0.29688 0.1875 0.17188 0 0.29688-0.14062 0.29688-0.29688z"/>
</g>
</defs>
<g transform="translate(-149.24 -128.29)">
<use x="148.71201" y="135.53999" xlink:href="#a"/>
</g>
</svg>
