<?xml version="1.0" encoding="UTF-8"?>
<svg fill="#000000" version="1.1" viewBox="0 0 5.8594 9.9844" xmlns="http://www.w3.org/2000/svg" xmlns:xlink="http://www.w3.org/1999/xlink">
<defs>
<g id="a">
<path d="m6.3438-0.375v-0.10938l-2.8281-1.1562 0.28125-1.4844 2.5469 1.0469v-0.65625l-2.4219-0.98438 0.35938-1.8281 2.0625-0.82812v-0.67188l-1.9219 0.8125 0.25-1.25h-0.5l-0.29688 1.4688-3.3906 1.4062v0.10938l2.8438 1.1719-0.28125 1.4844-2.5625-1.0625v0.65625l2.4375 1-0.375 1.7969-2.0625 0.84375v0.67188l1.9375-0.8125-0.25 1.25h0.51562l0.28125-1.4688zm-2.6094-4.9531-0.28125 1.4219-1.5938-0.65625zm1.2031 4.9062-1.8281 0.75 0.29688-1.3906z"/>
</g>
</defs>
<g transform="translate(-149.2 -127.28)">
<use x="148.71201" y="134.765" xlink:href="#a"/>
</g>
</svg>
