<?xml version="1.0" encoding="UTF-8"?>
<svg fill="#000000" version="1.1" viewBox="0 0 4.3125 7.4375" xmlns="http://www.w3.org/2000/svg" xmlns:xlink="http://www.w3.org/1999/xlink">
<defs>
<g id="a">
<path d="m4.6406-0.53125c0.14062 0 0.23438-0.10938 0.23438-0.23438 0-0.0625-0.03125-0.125-0.078125-0.17188-0.59375-0.51562-1.2656-1-2-1.3438l0.15625-0.60938c0.67188-0.34375 1.2812-0.79688 1.8438-1.2656 0.046875-0.046875 0.078125-0.10938 0.078125-0.17188 0-0.125-0.09375-0.23438-0.23438-0.23438-0.1875 0-0.5 0.45312-1.5156 1.0625l0.6875-2.5781c0.03125-0.078125-0.03125-0.1875-0.14062-0.1875-0.0625 0-0.125 0.046875-0.14062 0.10938l-0.76562 2.8594c-0.625 0.3125-1.2812 0.53125-1.9844 0.53125-0.14062 0-0.21875 0.078125-0.21875 0.21875s0.078125 0.23438 0.21875 0.23438c0.5625 0 1.1094 0.125 1.625 0.34375l-0.79688 2.9531c-0.015625 0.078125 0.046875 0.1875 0.15625 0.1875 0.0625 0 0.125-0.046875 0.14062-0.10938l0.78125-2.8906c1.1875 0.57812 1.75 1.2969 1.9531 1.2969zm-2.0312-2.1875-0.09375 0.3125c-0.10938-0.0625-0.23438-0.09375-0.35938-0.14062 0.15625-0.0625 0.3125-0.10938 0.45312-0.17188z"/>
</g>
</defs>
<g transform="translate(-149.27 -128.5)">
<use x="148.71201" y="134.765" xlink:href="#a"/>
</g>
</svg>
