<?xml version="1.0" encoding="UTF-8"?>
<svg fill="#000000" version="1.1" viewBox="0 0 6.625 6.6406" xmlns="http://www.w3.org/2000/svg" xmlns:xlink="http://www.w3.org/1999/xlink">
<defs>
<g id="a">
<path d="m3.875 0.375-2.125-5.0938c0.57812-0.54688 1.3281-0.84375 2.125-0.84375 0.78125 0 1.5312 0.29688 2.0938 0.84375zm-2.3438-5.2188c-0.64062 0.625-0.98438 1.4688-0.98438 2.3438 0 0.89062 0.34375 1.7344 0.98438 2.3594 0.60938 0.625 1.4531 0.96875 2.3438 0.96875 0.875 0 1.7188-0.34375 2.3281-0.96875 0.625-0.625 0.96875-1.4688 0.96875-2.3594 0-0.875-0.34375-1.7188-0.96875-2.3438-0.60938-0.625-1.4531-0.96875-2.3281-0.96875-0.89062 0-1.7344 0.34375-2.3438 0.96875zm4.5 4.5312c-0.53125 0.51562-1.2344 0.84375-1.9688 0.89062l2.0938-5.1094c0.5 0.5625 0.76562 1.2969 0.76562 2.0312 0 0.82812-0.3125 1.6094-0.89062 2.1875zm-5.2344-2.1875c0-0.73438 0.28125-1.4688 0.76562-2.0312l2.1094 5.1094c-0.73438-0.046875-1.4375-0.375-1.9844-0.90625-0.5625-0.5625-0.89062-1.3438-0.89062-2.1719z"/>
</g>
</defs>
<g transform="translate(-149.26 -128.95)">
<use x="148.71201" y="134.765" xlink:href="#a"/>
</g>
</svg>
