<?xml version="1.0" encoding="UTF-8"?>
<svg fill="#000000" version="1.1" viewBox="0 0 7.4826 7.4796" xmlns="http://www.w3.org/2000/svg" xmlns:xlink="http://www.w3.org/1999/xlink">
<defs>
<g id="a">
<path d="m0.20312-6.2344c-0.046875 0.03125-0.0625 0.078125-0.0625 0.125-0.015625 0.09375 0 0.1875 0 0.28125v6.8906c0 0.046875 0 0.09375 0.03125 0.14062 0.03125 0.03125 0.09375 0.03125 0.14062 0.03125h0.29688 6.7812c0.046875 0 0.10938 0.015625 0.15625-0.015625 0.046875-0.015625 0.0625-0.0625 0.0625-0.10938 0.015625-0.10938 0-0.1875 0-0.29688v-6.875c0-0.046875 0-0.09375-0.015625-0.14062-0.03125-0.03125-0.09375-0.03125-0.14062-0.03125h-0.3125-6.7656c-0.0625 0-0.10938-0.015625-0.17188 0zm2.8438 2c-0.26562 0.03125-0.40625 0.32812-0.29688 0.5625 0.0625 0.10938 0.17188 0.1875 0.26562 0.26562 0.14062 0.10938 0.28125 0.23438 0.39062 0.375 0.0625 0.078125 0.125 0.15625 0.17188 0.25 0.03125 0.046875 0.046875 0.09375 0 0.125-0.0625 0.078125-0.23438 0.046875-0.3125 0.03125-0.20312-0.03125-0.39062-0.09375-0.57812-0.15625-0.09375-0.03125-0.1875-0.09375-0.3125-0.09375-0.125-0.03125-0.26562 0.015625-0.34375 0.10938-0.14062 0.17188-0.125 0.4375 0.046875 0.57812 0.1875 0.14062 0.375 0.046875 0.5625-0.015625s0.35938-0.125 0.54688-0.15625c0.10938-0.015625 0.20312-0.046875 0.29688-0.03125 0.046875 0 0.09375 0.015625 0.10938 0.0625 0.03125 0.03125 0 0.078125-0.015625 0.10938-0.046875 0.078125-0.09375 0.17188-0.15625 0.23438-0.125 0.15625-0.26562 0.26562-0.40625 0.39062-0.10938 0.078125-0.21875 0.14062-0.26562 0.26562-0.125 0.25 0.0625 0.54688 0.34375 0.5625 0.14062 0 0.29688-0.078125 0.35938-0.21875 0.046875-0.10938 0.046875-0.21875 0.0625-0.32812 0.03125-0.15625 0.078125-0.32812 0.125-0.48438 0.03125-0.10938 0.078125-0.20312 0.14062-0.3125 0.015625-0.03125 0.0625-0.078125 0.10938-0.078125 0.03125 0.015625 0.0625 0.046875 0.09375 0.078125 0.046875 0.078125 0.078125 0.17188 0.10938 0.26562 0.0625 0.15625 0.10938 0.34375 0.14062 0.51562 0.015625 0.10938 0.015625 0.23438 0.078125 0.34375 0.0625 0.15625 0.25 0.25 0.42188 0.20312 0.25-0.046875 0.375-0.32812 0.26562-0.54688-0.0625-0.125-0.17188-0.20312-0.26562-0.26562-0.14062-0.125-0.28125-0.25-0.39062-0.39062-0.0625-0.0625-0.125-0.15625-0.17188-0.23438-0.03125-0.046875-0.03125-0.09375 0-0.14062 0.03125-0.015625 0.078125-0.03125 0.10938-0.03125 0.09375 0 0.1875 0.015625 0.28125 0.015625 0.17188 0.03125 0.34375 0.09375 0.51562 0.15625 0.09375 0.03125 0.20312 0.09375 0.3125 0.10938 0.1875 0 0.34375-0.09375 0.40625-0.26562 0.078125-0.23438-0.078125-0.5-0.34375-0.51562-0.125 0-0.23438 0.0625-0.35938 0.09375-0.17188 0.078125-0.35938 0.125-0.53125 0.17188-0.09375 0-0.20312 0.015625-0.29688 0.015625-0.03125 0-0.09375-0.015625-0.10938-0.0625s0-0.078125 0.015625-0.10938c0.03125-0.0625 0.078125-0.14062 0.14062-0.20312 0.125-0.15625 0.26562-0.29688 0.42188-0.42188 0.09375-0.078125 0.23438-0.15625 0.28125-0.29688 0.0625-0.14062 0.03125-0.3125-0.078125-0.42188-0.14062-0.14062-0.375-0.15625-0.53125-0.015625-0.125 0.09375-0.14062 0.25-0.15625 0.39062-0.03125 0.20312-0.078125 0.39062-0.14062 0.57812-0.046875 0.09375-0.078125 0.20312-0.14062 0.29688-0.03125 0.03125-0.078125 0.0625-0.125 0.046875-0.03125-0.015625-0.0625-0.046875-0.078125-0.078125-0.03125-0.078125-0.0625-0.14062-0.09375-0.21875-0.078125-0.17188-0.10938-0.34375-0.14062-0.53125-0.015625-0.10938-0.015625-0.25-0.078125-0.35938-0.078125-0.15625-0.25-0.23438-0.40625-0.21875zm-2.5156 5.0781v-6.6875h6.6875v6.6875z"/>
</g>
</defs>
<g transform="translate(-148.85 -128.52)">
<use x="148.71201" y="134.765" xlink:href="#a"/>
</g>
</svg>
