<?xml version="1.0" encoding="UTF-8"?>
<svg fill="#000000" version="1.1" viewBox="0 0 2.8882 6.9062" xmlns="http://www.w3.org/2000/svg" xmlns:xlink="http://www.w3.org/1999/xlink">
<defs>
<g id="a">
<path d="m0.8125-6.8125v0.29688c0.15625 0 0.29688 0 0.45312 0.03125 0.09375 0.015625 0.17188 0.046875 0.23438 0.10938s0.078125 0.14062 0.078125 0.23438c0.03125 0.17188 0.015625 0.34375 0.015625 0.51562v1.9375h-0.67188c-0.10938 0-0.21875-0.015625-0.32812 0-0.10938 0.03125-0.125 0.15625-0.09375 0.23438 0.046875 0.10938 0.1875 0.078125 0.28125 0.078125h0.8125v2.6406c0 0.10938 0 0.21875-0.0625 0.3125-0.078125 0.046875-0.15625 0.078125-0.25 0.078125-0.15625 0.03125-0.29688 0.03125-0.46875 0.03125v0.29688l0.4375-0.015625 0.90625-0.015625 0.89062 0.03125v-0.29688c-0.17188 0-0.3125 0-0.46875-0.03125-0.09375 0-0.17188-0.03125-0.25-0.078125-0.0625-0.09375-0.0625-0.20312-0.0625-0.3125v-2.6406h0.6875c0.09375 0 0.23438 0.015625 0.32812-0.015625 0.09375-0.015625 0.10938-0.14062 0.078125-0.23438-0.046875-0.09375-0.1875-0.0625-0.28125-0.0625h-0.8125v-3.2344z"/>
</g>
</defs>
<g transform="translate(-149.2 -127.84)">
<use x="148.71201" y="134.765" xlink:href="#a"/>
</g>
</svg>
