<?xml version="1.0" encoding="UTF-8"?>
<svg fill="#000000" width="4.3125" height="9.2188" version="1.1" viewBox="0 0 4.3125 9.2187" xmlns="http://www.w3.org/2000/svg" xmlns:xlink="http://www.w3.org/1999/xlink">
<defs>
<g id="a">
<path d="m4.0781-5.2344c-0.1875 0-0.125 0.10938-0.64062 0.5625l0.625-2.2969c0.015625-0.09375-0.046875-0.1875-0.15625-0.1875-0.0625 0-0.125 0.046875-0.14062 0.125l-0.71875 2.6719c-0.65625 0.4375-1.4375 0.6875-2.2656 0.6875-0.125 0-0.21875 0.10938-0.21875 0.23438s0.09375 0.23438 0.21875 0.23438c0.75 0 1.4688-0.20312 2.0938-0.53125l-0.375 1.4688c-0.5625 0.23438-1.125 0.375-1.7188 0.375-0.14062 0-0.21875 0.10938-0.21875 0.23438s0.078125 0.23438 0.21875 0.23438c0.48438 0 0.95312 0.09375 1.4062 0.26562l-0.8125 3.0312c-0.015625 0.09375 0.046875 0.1875 0.15625 0.1875 0.046875 0 0.10938-0.046875 0.14062-0.125l0.79688-2.9844c0.71875 0.3125 1.3906 0.8125 2.0312 1.3438 0.046875 0.046875 0.09375 0.0625 0.14062 0.0625 0.14062 0 0.23438-0.10938 0.23438-0.23438 0-0.0625-0.03125-0.125-0.078125-0.17188-0.65625-0.54688-1.3906-1.0938-2.2031-1.4531l0.09375-0.35938c0.76562-0.35938 1.4844-0.875 2.1094-1.4062 0.046875-0.046875 0.078125-0.10938 0.078125-0.17188 0-0.125-0.09375-0.23438-0.23438-0.23438-0.046875 0-0.09375 0.015625-0.14062 0.046875-0.53125 0.45312-1.0781 0.85938-1.6562 1.1719l0.40625-1.5c0.4375-0.28125 1.0625-0.85938 1.0625-1.0469 0-0.14062-0.10938-0.23438-0.23438-0.23438zm-1.7656 3.625c-0.0625-0.015625-0.10938-0.03125-0.15625-0.046875 0.0625-0.015625 0.125-0.03125 0.1875-0.0625z"/>
</g>
</defs>
<g transform="translate(-149.27 -127.61)">
<use x="148.71201" y="134.765" xlink:href="#a"/>
</g>
</svg>
