<?xml version="1.0" encoding="UTF-8"?>
<svg fill="#000000" version="1.1" viewBox="0 0 2.9375 9.1406" xmlns="http://www.w3.org/2000/svg" xmlns:xlink="http://www.w3.org/1999/xlink">
<defs>
<g id="a">
<path d="m2.0469-3.5h1.0625l0.125-0.375h-1.1406c-0.015625-0.078125-0.046875-0.17188-0.09375-0.25l-0.5-0.95312c-0.078125-0.17188-0.20312-0.42188-0.20312-0.57812 0-0.3125 0.20312-0.46875 0.5-0.46875 0.35938 0 0.64062 0.35938 0.78125 0.6875l0.10938-0.015625 0.46875-0.92188c-0.32812-0.32812-0.82812-0.39062-1.25-0.39062-0.48438 0.34375-1 0.875-1 1.5 0 0.34375 0.26562 1.2188 0.26562 1.4219h-0.71875l-0.15625 0.34375h0.89062c0.015625 0.76562 0.015625 2.0781 0.015625 2.2188 0 1.3281-0.015625 2.1562-0.17188 2.6875l-0.26562 0.89062 0.1875 0.078125 0.5-0.875c0.48438-0.85938 0.5625-1.6562 0.5625-2.9531z"/>
</g>
</defs>
<g transform="translate(-149.01 -128)">
<use x="148.71201" y="134.765" xlink:href="#a"/>
</g>
</svg>
