<?xml version="1.0" encoding="UTF-8"?>
<svg fill="#000000" version="1.1" viewBox="0 0 5.0938 6.1562" xmlns="http://www.w3.org/2000/svg" xmlns:xlink="http://www.w3.org/1999/xlink">
<defs>
<g id="a">
<path d="m5.7188-1.2812v-0.54688h-2.5625l0.70312-1.7656c0.03125 0.078125 0.0625 0.1875 0.0625 0.29688h1.7969v-0.5625h-1.3594c-0.078125-0.125-0.15625-0.23438-0.26562-0.34375l0.57812-1.4375h-0.54688l-0.46875 1.1875c-0.14062-0.046875-0.28125-0.078125-0.42188-0.078125-0.48438 0-0.90625 0.28125-1.125 0.6875h-1.4844v0.54688h1.9219c0-0.375 0.29688-0.6875 0.6875-0.6875 0.078125 0 0.14062 0.03125 0.21875 0.046875l-0.84375 2.1094h-1.9844v0.5625h1.75l-0.70312 1.7812h0.54688l0.70312-1.7969z"/>
</g>
</defs>
<g transform="translate(-149.34 -129.12)">
<use x="148.71201" y="134.765" xlink:href="#a"/>
</g>
</svg>
