<?xml version="1.0" encoding="UTF-8"?>
<svg fill="#000000" version="1.1" viewBox="0 0 3.4869 7.6719" xmlns="http://www.w3.org/2000/svg" xmlns:xlink="http://www.w3.org/1999/xlink">
<defs>
<g id="a">
<path d="m1.4844-6.1406c0 0.125-0.015625 0.23438-0.015625 0.34375-0.078125 0.60938-0.35938 1.3594-1.0156 1.5469-0.078125 0.015625-0.1875 0.03125-0.28125 0.03125v0.21875h0.85938v2.75 0.15625c0.015625 0.03125 0.03125 0.078125 0 0.10938 0 0.0625-0.0625 0.10938-0.10938 0.15625-0.0625 0.078125-0.14062 0.17188-0.1875 0.26562-0.20312 0.26562-0.35938 0.57812-0.5 0.875-0.125 0.3125-0.21875 0.60938-0.3125 0.92188-0.015625 0.09375-0.09375 0.26562 0.03125 0.29688h0.0625c0.09375 0 0.10938-0.078125 0.14062-0.15625 0.015625-0.14062 0.078125-0.28125 0.10938-0.42188 0.1875-0.57812 0.45312-1.1719 0.875-1.625 0.0625 0.23438 0.25 0.4375 0.4375 0.5625 0.20312 0.125 0.45312 0.17188 0.67188 0.20312 0.125 0 0.23438 0.015625 0.35938 0 0.23438-0.046875 0.4375-0.1875 0.57812-0.375 0.29688-0.40625 0.23438-1.0156-0.20312-1.2969-0.17188-0.125-0.375-0.17188-0.57812-0.15625-0.25 0.015625-0.46875 0.15625-0.67188 0.23438v-2.5h1.4219v-0.3125h-1.4219v-1.8281zm0.25 5.0781c0-0.046875-0.015625-0.09375 0.015625-0.125s0.078125-0.0625 0.10938-0.09375c0.10938-0.046875 0.21875-0.10938 0.32812-0.14062 0.125-0.046875 0.25-0.078125 0.39062-0.046875 0.29688 0.03125 0.51562 0.28125 0.54688 0.57812 0.03125 0.28125-0.14062 0.59375-0.40625 0.70312-0.1875 0.0625-0.39062 0.03125-0.5625-0.046875-0.29688-0.17188-0.375-0.51562-0.42188-0.82812z"/>
</g>
</defs>
<g transform="translate(-148.6 -128.62)">
<use x="148.71201" y="134.765" xlink:href="#a"/>
</g>
</svg>
