<?xml version="1.0" encoding="UTF-8"?>
<svg fill="#000000" version="1.1" viewBox="0 0 7.9688 7.1094" xmlns="http://www.w3.org/2000/svg" xmlns:xlink="http://www.w3.org/1999/xlink">
<defs>
<g id="a">
<path d="m4.3125-3.4688c0.03125-0.34375 0.03125-0.70312 0.03125-1.0312 0-0.125-0.046875-0.54688-0.0625-0.60938 0.35938-0.60938 0.75-1.1562 1.3438-1.1562 0.73438 0 0.53125 1.2656 0.75 1.4844 0.09375 0.10938 0.23438 0.15625 0.35938 0.17188l-1.2812 0.73438c-0.45312 0.078125-0.9375 0.29688-1.1406 0.40625zm-0.14062-2c-0.25-0.64062-0.84375-1.375-1.5469-1.375-0.9375 0-1.5938 0.625-1.8281 0.85938-0.28125 0.28125-0.5 0.57812-0.5 0.98438 0 0.53125 0.40625 0.89062 0.70312 1.3281 0.0625 0.078125 0.14062 0.15625 0.14062 0.26562 0 0.3125-0.32812 0.64062-0.64062 0.79688l0.14062 0.10938c0.59375-0.29688 1.2344-0.6875 1.2344-1.3281 0-0.5625-0.89062-1.1094-0.89062-1.5156 0-0.60938 0.40625-0.85938 0.96875-0.85938 0.46875 0 0.92188 0.32812 1.1719 0.70312 0.39062 0.57812 0.40625 1.375 0.40625 1.8438 0 1.2969-0.09375 2.4531-1.1562 3.1719-0.23438-0.25-0.59375-0.57812-0.9375-0.57812-0.51562 0-0.92188 0.6875-1.1719 1.0625l0.10938 0.15625c0.1875-0.23438 0.42188-0.42188 0.73438-0.42188 0.20312 0 0.57812 0.3125 0.79688 0.53125 0.5625-0.45312 1.125-1 1.6875-1.4531 0.39062-0.60938 0.57812-1.2812 0.67188-2.0469 0.26562-0.078125 0.6875-0.1875 0.92188-0.1875 0.28125 0 0.60938 0.14062 0.82812 0.34375 0.10938 0.125 0.28125 0.3125 0.28125 1.2969 0 0.28125-0.015625 0.57812-0.03125 0.89062l0.64062 1.1562 1.3281-1v-0.15625c-0.20312 0.078125-0.53125 0.20312-0.59375 0.20312-0.23438 0-0.42188-0.53125-0.51562-0.84375-0.09375-0.26562-0.14062-1.3125-0.17188-1.9688-0.25-0.21875-0.5-0.375-1.0156-0.375 0.6875-0.53125 1.4531-0.90625 2.0938-1.1562l-0.0625-0.125c-0.125 0.015625-0.25 0.046875-0.375 0.046875-0.65625 0-0.5-0.51562-0.53125-0.78125-0.046875-0.51562-0.25-0.95312-0.79688-0.95312-0.875 0-1.5312 0.65625-2.0625 1.3281z"/>
</g>
</defs>
<g transform="translate(-148.98 -127.92)">
<use x="148.71201" y="134.765" xlink:href="#a"/>
</g>
</svg>
