<?xml version="1.0" encoding="UTF-8"?>
<svg fill="#000000" version="1.1" viewBox="0 0 7.1094 4.5625" xmlns="http://www.w3.org/2000/svg" xmlns:xlink="http://www.w3.org/1999/xlink">
<defs>
<g id="a">
<path d="m6.1562-2.3125h1.3281c0.125 0 0.21875-0.10938 0.21875-0.23438s-0.09375-0.21875-0.21875-0.21875h-1.3281c-0.14062 0-0.23438 0.09375-0.23438 0.21875s0.09375 0.23438 0.23438 0.23438zm-0.71875-2.5156c-0.0625 0-0.125 0.03125-0.14062 0.09375l-1.5625 4.2812c-0.03125 0.078125 0.03125 0.1875 0.14062 0.1875 0.0625 0 0.10938-0.03125 0.14062-0.09375l1.5625-4.2812v-0.046875c0-0.078125-0.0625-0.14062-0.14062-0.14062zm-2.2344 3.7188c0-0.23438-0.67188-0.71875-1.1562-1.2031h1.1094c0.125 0 0.23438-0.10938 0.23438-0.23438s-0.10938-0.21875-0.23438-0.21875h-1.1094c0.46875-0.46875 1.1562-0.96875 1.1562-1.2188 0-0.125-0.10938-0.21875-0.23438-0.21875-0.0625 0-0.125 0.03125-0.17188 0.09375-0.53125 0.625-1.1875 1.1875-2.0156 1.3438-0.10938 0.015625-0.1875 0.10938-0.1875 0.21875s0.078125 0.20312 0.1875 0.21875c0.82812 0.15625 1.4844 0.71875 2.0156 1.3438 0.046875 0.0625 0.10938 0.09375 0.17188 0.09375 0.125 0 0.23438-0.09375 0.23438-0.21875z"/>
</g>
</defs>
<g transform="translate(-149.31 -129.94)">
<use x="148.71201" y="134.765" xlink:href="#a"/>
</g>
</svg>
