<?xml version="1.0" encoding="UTF-8"?>
<svg fill="#000000" version="1.1" viewBox="0 0 6.0938 5.7969" xmlns="http://www.w3.org/2000/svg" xmlns:xlink="http://www.w3.org/1999/xlink">
<defs>
<g id="a">
<path d="m6.7344-2.2656c0.10938-0.0625 0.1875-0.10938 0.1875-0.23438 0-0.10938-0.078125-0.15625-0.1875-0.21875l-5.5312-2.5938c-0.125-0.078125-0.14062-0.078125-0.17188-0.078125-0.10938 0-0.20312 0.09375-0.20312 0.20312 0 0.09375 0.046875 0.15625 0.1875 0.21875l5.2344 2.4688-5.2344 2.4844c-0.14062 0.0625-0.1875 0.125-0.1875 0.21875 0 0.10938 0.09375 0.20312 0.20312 0.20312 0.03125 0 0.046875 0 0.17188-0.078125z"/>
</g>
</defs>
<g transform="translate(-149.54 -129.37)">
<use x="148.71201" y="134.765" xlink:href="#a"/>
</g>
</svg>
