<?xml version="1.0" encoding="UTF-8"?>
<svg fill="#000000" width="5.25" height="8.8438" version="1.1" viewBox="0 0 5.25 8.8437" xmlns="http://www.w3.org/2000/svg" xmlns:xlink="http://www.w3.org/1999/xlink">
<defs>
<g id="a">
<path d="m3.4844 1.5312h-0.5625c-0.15625 0-0.26562 0.0625-0.26562 0.20312s0.14062 0.1875 0.25 0.1875h2.6406c0.17188 0 0.25-0.0625 0.25-0.20312 0-0.10938-0.078125-0.1875-0.25-0.1875h-0.57812v-8.0625h0.57812c0.17188 0 0.25-0.078125 0.25-0.20312 0-0.09375-0.078125-0.1875-0.21875-0.1875h-2.6719c-1.2344 0.046875-2.3594 1.0156-2.3594 2.3125 0 1.4844 1.5 2.1406 2.6719 2.2812h0.0625c0.10938 0 0.20312 0.015625 0.20312 0.10938zm0.39062 0v-8.0625h0.70312v8.0625z"/>
</g>
</defs>
<g transform="translate(-149.26 -127.84)">
<use x="148.71201" y="134.765" xlink:href="#a"/>
</g>
</svg>
