<?xml version="1.0" encoding="UTF-8"?>
<svg fill="#000000" width="7.1719" height="9.9688" version="1.1" viewBox="0 0 7.1719 9.9687" xmlns="http://www.w3.org/2000/svg" xmlns:xlink="http://www.w3.org/1999/xlink">
<defs>
<g id="a">
<path d="m7.0312 9.625c0.0625 0.17188 0.10938 0.34375 0.35938 0.34375 0.17188 0 0.34375-0.14062 0.34375-0.34375 0-0.015625 0-0.078125-0.046875-0.21875l-3.1875-9.0781c-0.046875-0.14062-0.10938-0.32812-0.35938-0.32812-0.23438 0-0.29688 0.17188-0.34375 0.3125l-3.1875 9.0938c-0.046875 0.14062-0.046875 0.20312-0.046875 0.21875 0 0.20312 0.17188 0.34375 0.32812 0.34375 0.1875 0 0.29688-0.09375 0.35938-0.29688l2.8906-8.2812z"/>
</g>
</defs>
<g transform="translate(-149.27 -127.29)">
<use x="148.71201" y="127.293" xlink:href="#a"/>
</g>
</svg>
