<?xml version="1.0" encoding="UTF-8"?>
<svg fill="#000000" version="1.1" viewBox="0 0 5.5469 5.9531" xmlns="http://www.w3.org/2000/svg" xmlns:xlink="http://www.w3.org/1999/xlink">
<defs>
<g id="a">
<path d="m3.1562-2.5312c1.1406-0.10938 3.0312-0.4375 3.0312-1.8906 0-0.60938-0.39062-1.0781-1-1.0781-0.53125 0-0.96875 0.39062-0.98438 0.875h0.48438c0.0625-0.25 0.28125-0.375 0.46875-0.375 0.25 0 0.46875 0.14062 0.46875 0.53125 0 0.98438-1.8438 1.2656-2.6406 1.3906-0.8125 0.125-1.6562 0.17188-2.3438 0.23438v0.65625c0.6875 0.046875 1.5312 0.10938 2.3438 0.21875 0.79688 0.125 2.6406 0.40625 2.6406 1.4062 0 0.375-0.21875 0.51562-0.46875 0.51562-0.1875 0-0.40625-0.125-0.46875-0.375h-0.48438c0.015625 0.48438 0.45312 0.875 0.98438 0.875 0.60938 0 1-0.46875 1-1.0781 0-1.4531-1.8906-1.7812-3.0312-1.8906z"/>
</g>
</defs>
<g transform="translate(-149.35 -129.26)">
<use x="148.71201" y="134.765" xlink:href="#a"/>
</g>
</svg>
