<?xml version="1.0" encoding="UTF-8"?>
<svg fill="#000000" version="1.1" viewBox="0 0 7.1094 7.4375" xmlns="http://www.w3.org/2000/svg" xmlns:xlink="http://www.w3.org/1999/xlink">
<defs>
<g id="a">
<path d="m2.1094 1.0625 0.90625-2.4844h2.4531v1.7344c0 0.10938 0.09375 0.21875 0.21875 0.21875 0.14062 0 0.23438-0.10938 0.23438-0.21875v-5.7188c0-0.10938-0.09375-0.21875-0.23438-0.21875-0.125 0-0.21875 0.10938-0.21875 0.21875v1.7344h-1.6406l0.85938-2.3906c0.046875-0.09375-0.015625-0.20312-0.125-0.20312-0.0625 0-0.125 0.046875-0.14062 0.10938l-0.90625 2.4844h-2.6875c-0.125 0-0.23438 0.10938-0.23438 0.23438s0.10938 0.23438 0.23438 0.23438h2.5156l-0.48438 1.3125h-2.0312c-0.125 0-0.23438 0.10938-0.23438 0.23438s0.10938 0.23438 0.23438 0.23438h1.8594l-0.85938 2.3906c-0.046875 0.09375 0.03125 0.20312 0.14062 0.20312 0.0625 0 0.10938-0.046875 0.14062-0.10938zm5.5938-0.75v-5.7188c0-0.10938-0.09375-0.21875-0.21875-0.21875-0.14062 0-0.23438 0.10938-0.23438 0.21875v5.7188c0 0.10938 0.09375 0.21875 0.23438 0.21875 0.125 0 0.21875-0.10938 0.21875-0.21875zm-4.0469-3.5156h1.8125v1.3125h-2.2812z"/>
</g>
</defs>
<g transform="translate(-149.31 -128.5)">
<use x="148.71201" y="134.765" xlink:href="#a"/>
</g>
</svg>
