<?xml version="1.0" encoding="UTF-8"?>
<svg fill="#000000" version="1.1" viewBox="0 0 6.8438 6.0781" xmlns="http://www.w3.org/2000/svg" xmlns:xlink="http://www.w3.org/1999/xlink">
<defs>
<g id="a">
<path d="m7.0625-0.34375c0.35938 0 0.71875-0.03125 1.0625-0.125 0.09375-0.03125 0.17188-0.125 0.17188-0.23438 0-0.14062-0.10938-0.21875-0.23438-0.21875-0.09375 0-0.39062 0.125-1 0.125-0.96875 0-1.8125-0.375-2.4219-0.92188l1.7969-1.25c0.078125-0.046875 0.09375-0.15625 0.046875-0.21875s-0.14062-0.078125-0.21875-0.03125l-1.8438 1.2969c-0.6875-0.71875-1.0781-1.6719-1.0781-2.6562 0-0.15625 0.015625-0.32812 0.046875-0.5 0.34375 0.45312 0.57812 0.96875 0.92188 1.3906 0.046875 0.046875 0.125 0.078125 0.1875 0.078125 0.10938 0 0.21875-0.09375 0.21875-0.23438 0-0.046875-0.015625-0.10938-0.046875-0.14062-0.53125-0.64062-0.96875-1.375-0.96875-2.2031 0-0.10938-0.078125-0.21875-0.20312-0.23438h-0.046875c-0.375 0-0.046875 0.82812-1.875 1.8906-0.078125 0.046875-0.125 0.10938-0.125 0.1875 0 0.14062 0.125 0.23438 0.23438 0.23438 0.1875 0 0.82812-0.54688 1.2188-0.82812 0 0.10938-0.015625 0.25-0.015625 0.35938 0 1.0625 0.40625 2.1094 1.1406 2.9219l-1.3125 0.92188c-0.078125 0.0625-0.09375 0.14062-0.046875 0.21875 0.046875 0.0625 0.14062 0.078125 0.20312 0.03125l1.375-0.96875c1.0469 0.96875 2.1875 1.1094 2.8125 1.1094z"/>
</g>
</defs>
<g transform="translate(-150.17 -128.34)">
<use x="148.71201" y="134.765" xlink:href="#a"/>
</g>
</svg>
