<?xml version="1.0" encoding="UTF-8"?>
<svg fill="#000000" version="1.1" viewBox="0 0 9.8125 7.3125" xmlns="http://www.w3.org/2000/svg" xmlns:xlink="http://www.w3.org/1999/xlink">
<defs>
<g id="a">
<path d="m3.2031 0.046875s-0.015625 0.015625-0.015625 0.03125c0 0.046875 0.046875 0.09375 0.078125 0.09375h0.10938c0.03125 0 0.046875-0.015625 0.0625-0.03125 1.2344-1.25 3.0625-2.25 4.0156-3.5781 1.0625-1.5156 1.3438-2.5781 2.7656-3.1562 0.01563-0.015625 0.04687-0.046875 0.04687-0.078125l0.01563-0.25c0-0.03125-0.03125-0.0625-0.0625-0.0625-0.01563 0-0.03125 0-0.04687 0.015625-1.5938 0.65625-1.4062 1.2031-2.9688 3.4375-0.73438 1.0156-2.0156 1.8438-3.1094 2.7656 0.71875-1.0312 1.5156-2.1875 1.7812-2.6875 0.64062-1.1875 0.9375-2.3438 1.7969-3.5625 0.015625-0.015625 0.015625-0.03125 0.015625-0.046875 0-0.03125-0.03125-0.078125-0.078125-0.078125h-0.10938c-0.015625 0-0.046875 0-0.0625 0.015625-1.5781 1.625-2.9531 3.2812-4.3906 4.9375 0.25-0.4375 0.45312-0.85938 0.625-1.2656 0.46875-1.2188 1.1406-2.8906 1.7812-3.5625 0.015625 0 0.03125-0.015625 0.03125-0.046875s-0.015625-0.046875-0.03125-0.0625-0.046875-0.015625-0.0625-0.015625h-0.10938c-0.015625 0-0.03125 0-0.0625 0.015625-0.64062 0.65625-1.1562 1.3281-1.5938 2-0.35938 0.23438-0.78125 0.375-1.125 0.375-0.15625 0-0.25-0.0625-0.25-0.17188 0-0.0625 0.046875-0.15625 0.14062-0.25 0.21875-0.21875 0.29688-0.40625 0.29688-0.57812 0-0.3125-0.3125-0.53125-0.78125-0.53125-0.51562 0-1.0469 0.65625-1.4219 1.1719 0 0.015625-0.015625 0.03125-0.015625 0.046875 0 0.046875 0.046875 0.09375 0.078125 0.09375h0.125c0.015625 0 0.046875-0.015625 0.0625-0.046875 0.375-0.53125 0.76562-1.0469 1.1406-1.0469 0.1875 0 0.29688 0.09375 0.29688 0.23438s-0.09375 0.32812-0.28125 0.53125c-0.14062 0.14062-0.20312 0.26562-0.20312 0.375 0 0.25 0.375 0.39062 0.76562 0.39062 0.28125 0 0.625-0.078125 0.95312-0.21875-0.25 0.40625-0.45312 0.82812-0.60938 1.2344-0.48438 1.2031-1.1562 2.875-1.7969 3.5469-0.015625 0.015625-0.015625 0.03125-0.015625 0.046875 0 0.03125 0 0.046875 0.015625 0.0625s0.03125 0.03125 0.0625 0.03125h0.10938c0.03125 0 0.046875-0.015625 0.0625-0.03125 1.1406-1.1719 2.1875-2.375 3.2188-3.5781 0.64062-0.75 1.2812-1.5 1.9531-2.2344-0.60938 0.875-1.1875 1.7344-1.4062 2.1406-0.64062 1.2031-0.9375 2.3594-1.7969 3.5781z"/>
</g>
</defs>
<g transform="translate(-149.18 -127.62)">
<use x="148.71201" y="134.765" xlink:href="#a"/>
</g>
</svg>
