<?xml version="1.0" encoding="UTF-8"?>
<svg fill="#000000" version="1.1" viewBox="0 0 4.3125 9.5781" xmlns="http://www.w3.org/2000/svg" xmlns:xlink="http://www.w3.org/1999/xlink">
<defs>
<g id="a">
<path d="m4.875-1.7969c0-0.09375-0.046875-0.17188-0.10938-0.20312l-3.5156-2.0312 3.5156-2.0312c0.0625-0.03125 0.10938-0.125 0.10938-0.20312 0-0.125-0.10938-0.21875-0.23438-0.21875-0.03125 0-0.078125 0-0.10938 0.03125l-3.8594 2.2188c-0.078125 0.046875-0.10938 0.125-0.10938 0.20312s0.03125 0.15625 0.10938 0.1875l2.5938 1.5-0.40625 1.5h-2.0781c-0.125 0-0.21875 0.10938-0.21875 0.21875 0 0.14062 0.09375 0.23438 0.21875 0.23438h1.9531l-0.35938 1.3281h-1.5938c-0.125 0-0.21875 0.09375-0.21875 0.23438 0 0.125 0.09375 0.21875 0.21875 0.21875h1.4844l-0.40625 1.5156c-0.03125 0.09375 0.03125 0.1875 0.14062 0.1875 0.0625 0 0.125-0.03125 0.14062-0.10938l0.4375-1.5938h2.0625c0.14062 0 0.23438-0.09375 0.23438-0.21875 0-0.14062-0.09375-0.23438-0.23438-0.23438h-1.9531l0.35938-1.3281h1.5938c0.14062 0 0.23438-0.09375 0.23438-0.23438 0-0.10938-0.09375-0.21875-0.23438-0.21875h-1.4688l0.35938-1.3438 1 0.57812c0.03125 0.03125 0.078125 0.03125 0.10938 0.03125 0.125 0 0.23438-0.09375 0.23438-0.21875z"/>
</g>
</defs>
<g transform="translate(-149.27 -128.28)">
<use x="148.71201" y="134.765" xlink:href="#a"/>
</g>
</svg>
