<?xml version="1.0" encoding="UTF-8"?>
<svg fill="#000000" version="1.1" viewBox="0 0 5.5156 9.9844" xmlns="http://www.w3.org/2000/svg" xmlns:xlink="http://www.w3.org/1999/xlink">
<defs>
<g id="a">
<path d="m4.0312-7.3438-3.4688 9.5625v0.078125c0 0.078125 0.046875 0.15625 0.125 0.1875 0.015625 0.015625 0.046875 0.015625 0.0625 0.015625 0.09375 0 0.17188-0.0625 0.1875-0.14062l3.4531-9.5625c0.015625-0.03125 0.015625-0.0625 0.015625-0.078125 0-0.078125-0.046875-0.15625-0.125-0.1875-0.03125-0.015625-0.046875-0.015625-0.078125-0.015625-0.078125 0-0.15625 0.0625-0.17188 0.14062zm1.6562 0-3.4688 9.5625v0.078125c0 0.078125 0.046875 0.15625 0.125 0.1875 0.015625 0.015625 0.046875 0.015625 0.0625 0.015625 0.09375 0 0.17188-0.0625 0.20312-0.14062l3.4531-9.5625c0.015625-0.03125 0.015625-0.046875 0.015625-0.078125 0-0.078125-0.0625-0.15625-0.14062-0.1875-0.015625-0.015625-0.046875-0.015625-0.0625-0.015625-0.078125 0-0.15625 0.0625-0.1875 0.14062z"/>
</g>
</defs>
<g transform="translate(-149.27 -127.28)">
<use x="148.71201" y="134.765" xlink:href="#a"/>
</g>
</svg>
