<?xml version="1.0" encoding="UTF-8"?>
<svg fill="#000000" version="1.1" viewBox="0 0 2.6719 4.5156" xmlns="http://www.w3.org/2000/svg" xmlns:xlink="http://www.w3.org/1999/xlink">
<defs>
<g id="a">
<path d="m3.2344-1.4219c0-0.10938-0.09375-0.10938-0.125-0.10938-0.09375 0-0.10938 0.046875-0.125 0.10938-0.3125 0.98438-1.1406 1.3125-1.5625 1.3125-0.14062 0-0.26562-0.03125-0.26562-0.32812 0-0.23438 0.078125-0.46875 0.17188-0.73438 0.45312-1.2031 0.85938-2.8906 0.85938-2.9688 0-0.17188-0.10938-0.26562-0.28125-0.26562-0.10938 0-0.29688 0.0625-0.375 0.26562-0.0625 0.1875-0.15625 0.67188-0.21875 0.85938-0.015625 0.046875-0.26562 0.92188-0.29688 1.0625-0.03125 0.09375-0.125 0.34375-0.14062 0.4375-0.078125 0.28125-0.3125 0.75-0.3125 1.0781 0 0.40625 0.28125 0.8125 0.82812 0.8125 1.1406 0 1.8438-1.2031 1.8438-1.5312z"/>
</g>
</defs>
<g transform="translate(-149.27 -130.36)">
<use x="148.71201" y="134.765" xlink:href="#a"/>
</g>
</svg>
