<?xml version="1.0" encoding="UTF-8"?>
<svg fill="#000000" version="1.1" viewBox="0 0 4.8125 4.7969" xmlns="http://www.w3.org/2000/svg" xmlns:xlink="http://www.w3.org/1999/xlink">
<defs>
<g id="a">
<path d="m6.1406-4.4688c0.125-0.125 0.14062-0.14062 0.14062-0.21875 0-0.125-0.09375-0.20312-0.20312-0.20312-0.078125 0-0.10938 0.03125-0.21875 0.14062l-1.9844 1.9844-1.9844-1.9844c-0.125-0.125-0.14062-0.14062-0.21875-0.14062-0.20312 0-0.20312 0.1875-0.20312 0.35938v4.0781c0 0.17188 0 0.35938 0.20312 0.35938 0.078125 0 0.09375-0.015625 0.21875-0.14062l1.9844-1.9844c0.48438 0.48438 1.9375 1.9531 2.0625 2.0625 0.015625 0.03125 0.078125 0.0625 0.14062 0.0625 0.125 0 0.20312-0.078125 0.20312-0.20312 0-0.015625 0-0.0625-0.046875-0.125-0.0625-0.0625-1.5469-1.5469-2.0625-2.0781zm-4.2812 3.7031v-3.4375l1.7188 1.7031z"/>
</g>
</defs>
<g transform="translate(-150.18 -129.87)">
<use x="148.71201" y="134.765" xlink:href="#a"/>
</g>
</svg>
