<?xml version="1.0" encoding="UTF-8"?>
<svg fill="#000000" version="1.1" viewBox="0 0 6.625 4.3594" xmlns="http://www.w3.org/2000/svg" xmlns:xlink="http://www.w3.org/1999/xlink">
<defs>
<g id="a">
<path d="m3.8281-2.1406c0.53125 0.42188 1.0469 0.8125 1.6875 0.8125 1 0 1.6719-0.92188 1.6719-1.9219 0-0.3125-0.09375-0.40625-0.15625-0.40625-0.09375 0-0.15625 0.17188-0.15625 0.3125-0.015625 0.21875-0.03125 0.54688-0.39062 0.89062-0.14062 0.125-0.45312 0.375-0.96875 0.375-0.42188 0-0.8125-0.17188-1.2812-0.53125l1.375-1.6406c0.10938-0.125 0.125-0.17188 0.125-0.21875 0-0.0625-0.0625-0.20312-0.20312-0.20312-0.09375 0-0.125 0.03125-0.21875 0.15625l-1.3906 1.6719c-0.53125-0.42188-1.0469-0.8125-1.7031-0.8125-1 0-1.6562 0.92188-1.6562 1.9219 0 0.34375 0.10938 0.40625 0.15625 0.40625 0.10938 0 0.15625-0.20312 0.15625-0.3125 0.015625-0.23438 0.03125-0.54688 0.39062-0.89062 0.125-0.125 0.45312-0.375 0.95312-0.375 0.4375 0 0.82812 0.17188 1.2969 0.53125l-1.375 1.6406c-0.10938 0.125-0.125 0.17188-0.125 0.21875 0 0.0625 0.0625 0.20312 0.20312 0.20312 0.09375 0 0.10938-0.03125 0.21875-0.15625z"/>
</g>
</defs>
<g transform="translate(-149.27 -130.09)">
<use x="148.71201" y="134.765" xlink:href="#a"/>
</g>
</svg>
