<?xml version="1.0" encoding="UTF-8"?>
<svg fill="#000000" width="8.4375" height="5.7188" version="1.1" viewBox="0 0 8.4375 5.7187" xmlns="http://www.w3.org/2000/svg" xmlns:xlink="http://www.w3.org/1999/xlink">
<defs>
<g id="a">
<path d="m3.8438-4.3906c0-0.15625-0.10938-0.25-0.23438-0.25-0.0625 0-0.125 0.03125-0.17188 0.09375-0.70312 0.84375-1.5625 1.5938-2.6562 1.7812-0.10938 0.015625-0.1875 0.10938-0.1875 0.21875s0.078125 0.20312 0.1875 0.21875c1.0938 0.1875 1.9531 0.9375 2.6562 1.7812 0.046875 0.0625 0.10938 0.09375 0.17188 0.09375 0.125 0 0.23438-0.09375 0.23438-0.25 0-0.10938-0.15625-0.29688-0.625-0.71875h2.4531l-0.5625 1.5312c-0.03125 0.09375 0.03125 0.20312 0.14062 0.20312 0.0625 0 0.125-0.03125 0.14062-0.10938l0.59375-1.625h2.8125c0.14062 0 0.23438-0.10938 0.23438-0.23438s-0.09375-0.23438-0.23438-0.23438h-2.6406l0.48438-1.3125h2.1562c0.14062 0 0.23438-0.10938 0.23438-0.23438s-0.09375-0.23438-0.23438-0.23438h-1.9844l0.54688-1.5312c0.046875-0.09375-0.015625-0.20312-0.125-0.20312-0.0625 0-0.125 0.03125-0.14062 0.10938l-0.60938 1.625h-3.2656c0.3125-0.29688 0.625-0.57812 0.625-0.71875zm2 2.5h-3.125c-0.23438-0.20312-0.46875-0.42188-0.67188-0.65625 0.20312-0.23438 0.4375-0.45312 0.67188-0.65625h3.6094z"/>
</g>
</defs>
<g transform="translate(-149.31 -129.36)">
<use x="148.71201" y="134.765" xlink:href="#a"/>
</g>
</svg>
