<?xml version="1.0" encoding="UTF-8"?>
<svg fill="#000000" version="1.1" viewBox="0 0 5.2188 13.156" xmlns="http://www.w3.org/2000/svg" xmlns:xlink="http://www.w3.org/1999/xlink">
<defs>
<g id="a">
<path d="m5.7031-9.1094h-0.65625v2.9375c0 1.1406-0.875 2.0625-1.9531 2.0625-1.0625 0-1.9531-0.92188-1.9531-2.0469v-2.9531h-0.65625v2.9531c0 1.5938 1.125 2.7031 2.6094 2.7031s2.6094-1.0938 2.6094-2.6719zm0 13.156v-2.9531c0-1.5938-1.1406-2.7031-2.6094-2.7031-1.4844 0-2.6094 1.0938-2.6094 2.6719v2.9844h0.65625v-2.9375c0-1.1406 0.85938-2.0625 1.9531-2.0625 1.0469 0 1.9531 0.90625 1.9531 2.0469v2.9531z"/>
</g>
</defs>
<g transform="translate(-149.2 -125.66)">
<use x="148.71201" y="134.765" xlink:href="#a"/>
</g>
</svg>
