<?xml version="1.0" encoding="UTF-8"?>
<svg fill="#000000" version="1.1" viewBox="0 0 5.9219 5.2969" xmlns="http://www.w3.org/2000/svg" xmlns:xlink="http://www.w3.org/1999/xlink">
<defs>
<g id="a">
<path d="m5.7344-1.9062v-0.14062l1.7656-0.82812c0.078125-0.03125 0.10938-0.10938 0.078125-0.20312-0.046875-0.0625-0.125-0.10938-0.20312-0.0625l-1.6562 0.78125c-0.14062-1.6719-1.375-1.4062-2.0312-1.6719-0.20312-0.0625-0.39062-0.20312-0.57812-0.35938 0.54688-0.1875 1.1406-0.23438 1.6719-0.42188 0.10938-0.046875 0.15625-0.125 0.15625-0.21875 0-0.14062-0.10938-0.23438-0.23438-0.23438s-0.78125 0.32812-1.6094 0.32812c-0.29688 0-0.59375-0.046875-0.875-0.14062-0.03125-0.015625-0.046875-0.015625-0.078125-0.015625-0.125 0-0.23438 0.078125-0.23438 0.21875 0 0.29688 0.8125 0.42188 1.1406 2.3594 0.03125 0.10938 0.125 0.1875 0.23438 0.1875 0.14062 0 0.23438-0.10938 0.23438-0.23438 0-0.17188-0.26562-0.96875-0.34375-1.2188 1.0312 0.65625 2.0312-0.078125 2.0938 1.625l-2.0156 0.9375c-0.078125 0.046875-0.10938 0.125-0.078125 0.20312 0.03125 0.0625 0.125 0.10938 0.20312 0.0625l1.9062-0.875c0 0.65625 0.09375 1.1875 0.51562 1.5312 0.32812 0.28125 0.71875 0.32812 1.0781 0.32812 0.25 0 0.48438-0.015625 0.71875-0.015625 0.125 0 0.23438-0.10938 0.23438-0.23438s-0.10938-0.23438-0.23438-0.23438c-0.25 0-0.5 0.03125-0.71875 0.03125-0.92188 0-1.1406-0.4375-1.1406-1.4844z"/>
</g>
</defs>
<g transform="translate(-150.62 -129.5)">
<use x="148.71201" y="134.765" xlink:href="#a"/>
</g>
</svg>
