<?xml version="1.0" encoding="UTF-8"?>
<svg fill="#000000" version="1.1" viewBox="0 0 5.5156 5.5" xmlns="http://www.w3.org/2000/svg" xmlns:xlink="http://www.w3.org/1999/xlink">
<defs>
<g id="a">
<path d="m3.3438-1.7656c-0.046875 0-0.10938 0.015625-0.15625 0.078125l-1.5156 1.5156c-0.03125 0.03125-0.0625 0.09375-0.0625 0.15625 0 0.10938 0.078125 0.21875 0.21875 0.21875 0.0625 0 0.125-0.015625 0.17188-0.0625l1.5156-1.5156c0.046875-0.046875 0.0625-0.09375 0.0625-0.15625 0-0.125-0.078125-0.23438-0.23438-0.23438zm3.0469-0.5625c0.125 0 0.23438-0.09375 0.23438-0.21875 0-0.0625-0.03125-0.23438-0.03125-0.57812 0-1.375 0.53125-1.75 0.53125-1.9531 0-0.14062-0.10938-0.21875-0.23438-0.21875-0.20312 0-0.5625 0.51562-1.9531 0.51562-0.34375 0-0.51562-0.015625-0.57812-0.015625-0.10938 0-0.21875 0.09375-0.21875 0.23438 0 0.21875 0.23438 0.23438 0.48438 0.23438h0.0625c0.375 0 0.76562-0.03125 1.1406-0.03125h0.03125l-1.4062 1.4062c-0.046875 0.03125-0.0625 0.09375-0.0625 0.15625 0 0.10938 0.078125 0.21875 0.21875 0.21875 0.0625 0 0.125-0.015625 0.17188-0.0625l1.4062-1.4062c0 0.39062-0.046875 0.78125-0.046875 1.1719v0.10938c0 0.20312 0.015625 0.4375 0.25 0.4375z"/>
</g>
</defs>
<g transform="translate(-150.32 -129.47)">
<use x="148.71201" y="134.765" xlink:href="#a"/>
</g>
</svg>
