<?xml version="1.0" encoding="UTF-8"?>
<svg fill="#000000" version="1.1" viewBox="0 0 6.0774 7.5788" xmlns="http://www.w3.org/2000/svg" xmlns:xlink="http://www.w3.org/1999/xlink">
<defs>
<g id="b">
<path d="m1.4844-6.1406c0 0.125-0.015625 0.23438-0.015625 0.34375-0.078125 0.60938-0.35938 1.3594-1.0156 1.5469-0.078125 0.015625-0.1875 0.03125-0.28125 0.03125v0.21875h0.85938v2.2344c0 0.4375-0.03125 0.89062 0.1875 1.2969 0.1875 0.34375 0.57812 0.51562 0.95312 0.5625 0.15625 0.015625 0.29688 0.015625 0.4375-0.03125 0.1875-0.0625 0.32812-0.17188 0.4375-0.32812 0.32812-0.45312 0.26562-1.0156 0.26562-1.5469h-0.23438c0 0.4375 0.046875 0.95312-0.1875 1.3438-0.046875 0.078125-0.10938 0.15625-0.1875 0.21875-0.1875 0.125-0.4375 0.125-0.60938 0-0.125-0.09375-0.21875-0.21875-0.26562-0.35938-0.078125-0.20312-0.09375-0.45312-0.09375-0.67188v-2.7188h1.4219v-0.3125h-1.4219v-1.8281z"/>
</g>
<g id="a">
<path d="m1.5781-0.10938c0.35938 0.20312 0.78125 0.21875 1.1875 0.20312 0.25-0.015625 0.5-0.046875 0.75-0.15625 0.125-0.046875 0.25-0.10938 0.35938-0.21875 0.15625-0.17188 0.23438-0.45312 0.17188-0.70312-0.09375-0.34375-0.51562-0.54688-0.85938-0.54688-0.1875 0-0.34375 0.015625-0.51562 0.0625-0.28125 0.078125-0.51562 0.25-0.70312 0.45312-0.125 0.125-0.23438 0.26562-0.3125 0.40625-0.5-0.53125-0.54688-1.375-0.45312-2.0625 0.015625-0.29688 0.10938-0.60938 0.25-0.875 0.15625-0.25 0.375-0.48438 0.64062-0.59375 0.1875-0.09375 0.375-0.09375 0.57812-0.078125 0.32812 0.03125 0.65625 0.125 0.90625 0.35938-0.14062 0.015625-0.26562 0.046875-0.375 0.15625-0.15625 0.21875-0.10938 0.57812 0.14062 0.71875 0.28125 0.14062 0.64062-0.03125 0.6875-0.35938 0.03125-0.28125-0.10938-0.54688-0.32812-0.75-0.21875-0.1875-0.53125-0.29688-0.82812-0.35938-0.25-0.03125-0.48438-0.03125-0.71875 0-1.0469 0.1875-1.7969 1.1406-1.8281 2.1875-0.015625 0.54688 0.125 1.0781 0.45312 1.5156 0.125 0.14062 0.25 0.28125 0.40625 0.40625 0.03125 0.03125 0.09375 0.046875 0.125 0.078125 0.015625 0.03125 0.046875 0.03125 0.046875 0.0625 0.015625 0.046875-0.015625 0.078125-0.03125 0.10938-0.046875 0.0625-0.09375 0.14062-0.14062 0.21875-0.1875 0.28125-0.35938 0.57812-0.54688 0.875-0.0625 0.09375-0.125 0.17188-0.17188 0.28125-0.015625 0.046875-0.03125 0.09375 0.015625 0.14062 0.046875 0.03125 0.10938 0.015625 0.15625-0.03125 0.03125-0.03125 0.046875-0.0625 0.0625-0.10938 0.03125-0.0625 0.0625-0.10938 0.09375-0.17188 0.15625-0.26562 0.34375-0.54688 0.51562-0.8125 0.09375-0.125 0.1875-0.26562 0.26562-0.40625zm2.2344-0.625c-0.0625 0.42188-0.54688 0.53125-0.90625 0.5625-0.078125 0.015625-0.14062 0.015625-0.21875 0.015625-0.10938 0-0.1875 0-0.29688-0.015625-0.15625-0.03125-0.3125-0.09375-0.4375-0.17188-0.046875-0.03125-0.125-0.0625-0.125-0.125 0.015625-0.046875 0.046875-0.078125 0.0625-0.10938l0.1875-0.23438c0.29688-0.3125 0.6875-0.54688 1.1406-0.5 0.25 0.046875 0.54688 0.17188 0.59375 0.45312v0.125z"/>
</g>
</defs>
<g transform="translate(-148.88 -128.62)">
<use x="148.71201" y="134.765" xlink:href="#b"/>
<use x="150.89281" y="134.765" xlink:href="#a"/>
</g>
</svg>
