<?xml version="1.0" encoding="UTF-8"?>
<svg fill="#000000" version="1.1" viewBox="0 0 3.2101 3.7297" xmlns="http://www.w3.org/2000/svg" xmlns:xlink="http://www.w3.org/1999/xlink">
<defs>
<g id="a">
<path d="m1.4844-4.3594c-0.0625 0.03125-0.0625 0.125-0.0625 0.1875v2.7812c0 0.21875-0.015625 0.42188 0 0.625 0 0.078125 0.046875 0.14062 0.14062 0.125 0.09375-0.03125 0.1875-0.10938 0.26562-0.15625 0.17188-0.09375 0.32812-0.1875 0.5-0.29688 0.53125-0.3125 1.0781-0.625 1.5938-0.9375 0.1875-0.09375 0.35938-0.20312 0.54688-0.29688 0.0625-0.046875 0.15625-0.078125 0.15625-0.17188 0-0.078125-0.09375-0.125-0.15625-0.15625-0.15625-0.10938-0.32812-0.1875-0.48438-0.29688-0.625-0.35938-1.25-0.71875-1.8594-1.0781-0.15625-0.09375-0.29688-0.17188-0.4375-0.26562-0.0625-0.03125-0.125-0.09375-0.20312-0.0625z"/>
</g>
</defs>
<g transform="translate(-150.13 -130.4)">
<use x="148.71201" y="134.765" xlink:href="#a"/>
</g>
</svg>
