<?xml version="1.0" encoding="UTF-8"?>
<svg fill="#000000" version="1.1" viewBox="0 0 6.0625 6.0781" xmlns="http://www.w3.org/2000/svg" xmlns:xlink="http://www.w3.org/1999/xlink">
<defs>
<g id="a">
<path d="m4.8906-2.5c0 0.28125-0.10938 0.53125-0.3125 0.71875-0.1875 0.20312-0.4375 0.3125-0.70312 0.3125-0.28125 0-0.53125-0.10938-0.71875-0.3125-0.20312-0.1875-0.3125-0.4375-0.3125-0.71875 0-0.26562 0.10938-0.51562 0.3125-0.70312 0.1875-0.20312 0.4375-0.3125 0.71875-0.3125 0.26562 0 0.51562 0.10938 0.70312 0.3125 0.20312 0.1875 0.3125 0.4375 0.3125 0.70312zm-2.0312-1c-0.25 0.26562-0.40625 0.625-0.40625 1 0 0.39062 0.15625 0.75 0.42188 1.0156 0.25 0.26562 0.60938 0.40625 1 0.40625 0.375 0 0.73438-0.14062 1-0.42188 0.26562-0.25 0.40625-0.60938 0.40625-1 0-0.375-0.14062-0.73438-0.42188-1-0.25-0.26562-0.60938-0.40625-0.98438-0.40625-0.39062 0-0.75 0.14062-1.0156 0.40625zm-2.0312 3.8438c0 0.10938 0.09375 0.20312 0.20312 0.20312h5.6719c0.10938 0 0.1875-0.09375 0.1875-0.20312v-5.6719c0-0.10938-0.078125-0.20312-0.1875-0.20312h-5.6719c-0.10938 0-0.20312 0.09375-0.20312 0.20312zm5.6719-0.1875h-5.2812v-5.2969h5.2812z"/>
</g>
</defs>
<g transform="translate(-149.54 -129.23)">
<use x="148.71201" y="134.765" xlink:href="#a"/>
</g>
</svg>
