<?xml version="1.0" encoding="UTF-8"?>
<svg fill="#000000" version="1.1" viewBox="0 0 8.2344 5.5625" xmlns="http://www.w3.org/2000/svg" xmlns:xlink="http://www.w3.org/1999/xlink">
<defs>
<g id="a">
<path d="m8.6875-2.5781c-0.96875-0.40625-1.7188-1.1406-2.375-1.8906l-0.20312 0.1875c0.23438 0.32812 0.51562 0.64062 0.8125 0.95312 0.09375 0.09375 0.14062 0.20312 0.14062 0.28125 0 0.09375-0.078125 0.20312-0.25 0.20312h-1.375l-4.9844-2.4531v0.64062l3.5312 1.8125h-3.1406v0.65625h3.1562l-3.5469 1.7969v0.65625l4.9844-2.4531h1.375c0.21875 0 0.26562 0.10938 0.26562 0.21875 0 0.078125-0.046875 0.14062-0.14062 0.25-0.28125 0.26562-0.59375 0.625-0.8125 0.96875l0.1875 0.1875c0.65625-0.75 1.4062-1.5156 2.375-1.9062z"/>
</g>
</defs>
<g transform="translate(-149.17 -129.47)">
<use x="148.71201" y="134.765" xlink:href="#a"/>
</g>
</svg>
