<?xml version="1.0" encoding="UTF-8"?>
<svg fill="#000000" version="1.1" viewBox="0 0 7.5156 7.5312" xmlns="http://www.w3.org/2000/svg" xmlns:xlink="http://www.w3.org/1999/xlink">
<defs>
<g id="a">
<path d="m4.1406 0.48438c0 0.14062 0.10938 0.23438 0.21875 0.23438 0.0625 0 0.23438-0.03125 0.57812-0.03125 1.375 0 1.7656 0.53125 1.9531 0.53125 0.14062 0 0.23438-0.10938 0.23438-0.23438 0-0.20312-0.53125-0.5625-0.53125-1.9531 0-0.34375 0.03125-0.5 0.03125-0.5625 0-0.125-0.10938-0.23438-0.23438-0.23438-0.23438 0-0.25 0.23438-0.25 0.48438v0.0625c0 0.39062 0.046875 0.79688 0.046875 1.1719l-1.4062-1.4062 1.4062-1.9844 2.5625 2.5625c0.046875 0.046875 0.10938 0.078125 0.15625 0.078125 0.10938 0 0.21875-0.09375 0.21875-0.23438 0-0.0625-0.015625-0.10938-0.046875-0.17188l-2.6406-2.6094 0.71875-1.0156c0.046875-0.078125 0.03125-0.17188-0.03125-0.21875-0.078125-0.046875-0.17188-0.03125-0.21875 0.046875l-0.67188 0.96875-1.3438-1.3438h0.03125c0.375 0 0.75 0.046875 1.1406 0.046875h0.09375c0.21875 0 0.45312-0.015625 0.45312-0.25 0-0.14062-0.10938-0.21875-0.23438-0.21875-0.0625 0-0.21875 0.015625-0.57812 0.015625-1.375 0-1.75-0.53125-1.9375-0.53125-0.15625 0-0.23438 0.10938-0.23438 0.23438 0 0.20312 0.53125 0.5625 0.53125 1.9531 0 0.34375-0.03125 0.5-0.03125 0.5625 0 0.125 0.10938 0.23438 0.23438 0.23438 0.23438 0 0.25-0.23438 0.25-0.48438v-0.0625c0-0.39062-0.046875-0.79688-0.046875-1.1719l1.4062 1.3906-1.4062 2-2.5625-2.5781c-0.046875-0.03125-0.10938-0.0625-0.17188-0.0625-0.10938 0-0.21875 0.09375-0.21875 0.23438 0 0.0625 0.03125 0.10938 0.0625 0.17188l2.625 2.6094-0.70312 1.0156c-0.0625 0.078125-0.03125 0.17188 0.03125 0.21875s0.15625 0.03125 0.21875-0.046875l0.67188-0.96875 1.3438 1.3438h-0.03125c-0.375 0-0.76562-0.046875-1.1406-0.046875h-0.10938c-0.21875 0-0.4375 0.015625-0.4375 0.25z"/>
</g>
</defs>
<g transform="translate(-150.32 -128.45)">
<use x="148.71201" y="134.765" xlink:href="#a"/>
</g>
</svg>
