<?xml version="1.0" encoding="UTF-8"?>
<svg fill="#000000" version="1.1" viewBox="0 0 6.0781 5.7969" xmlns="http://www.w3.org/2000/svg" xmlns:xlink="http://www.w3.org/1999/xlink">
<defs>
<g id="a">
<path d="m0.82812-5.1875v5.3906c0 0.03125 0.015625 0.0625 0.015625 0.09375 0.046875 0.078125 0.10938 0.10938 0.1875 0.10938 0.03125 0 0.0625 0 0.078125-0.015625l5.6719-2.7031c0.078125-0.03125 0.125-0.09375 0.125-0.17188s-0.046875-0.14062-0.125-0.1875l-5.6719-2.7031c-0.015625-0.015625-0.046875-0.015625-0.078125-0.015625-0.078125 0-0.14062 0.03125-0.1875 0.10938 0 0.03125-0.015625 0.0625-0.015625 0.09375zm0.39062 5.0781v-4.7656l5.0156 2.375z"/>
</g>
</defs>
<g transform="translate(-149.54 -129.37)">
<use x="148.71201" y="134.765" xlink:href="#a"/>
</g>
</svg>
