<?xml version="1.0" encoding="UTF-8"?>
<svg fill="#000000" version="1.1" viewBox="0 0 12.688 6.8125" xmlns="http://www.w3.org/2000/svg" xmlns:xlink="http://www.w3.org/1999/xlink">
<defs>
<g id="a">
<path d="m13.312-2.5625-3.1562-3.4062-1.9688 2.125h-5.6406l0.75-0.9375-0.28125-0.29688-2.3906 2.5156 2.3906 2.5156 0.28125-0.29688-0.75-0.92188h5.6406l1.9688 2.1094zm-0.75 0-2.4062 2.6094-2.4062-2.6094 2.4062-2.5938zm-4.875 0.73438h-5.625l-0.59375-0.71875 0.60938-0.75h5.5938l-0.5 0.73438zm3.0469-0.73438c0-0.32812-0.25-0.59375-0.57812-0.59375-0.3125 0-0.57812 0.28125-0.57812 0.59375s0.26562 0.5625 0.57812 0.5625c0.32812 0 0.57812-0.25 0.57812-0.5625z"/>
</g>
</defs>
<g transform="translate(-149.34 -128.8)">
<use x="148.71201" y="134.765" xlink:href="#a"/>
</g>
</svg>
