<?xml version="1.0" encoding="UTF-8"?>
<svg fill="#000000" version="1.1" viewBox="0 0 5.5938 4.5156" xmlns="http://www.w3.org/2000/svg" xmlns:xlink="http://www.w3.org/1999/xlink">
<defs>
<g id="a">
<path d="m4.75-2.3594c0-1.5625-0.92188-2.0469-1.6562-2.0469-1.375 0-2.6875 1.4219-2.6875 2.8281 0 0.9375 0.59375 1.6875 1.625 1.6875 0.625 0 1.3438-0.23438 2.0938-0.84375 0.125 0.53125 0.45312 0.84375 0.90625 0.84375 0.53125 0 0.84375-0.54688 0.84375-0.70312 0-0.078125-0.0625-0.10938-0.125-0.10938s-0.09375 0.03125-0.125 0.10938c-0.1875 0.48438-0.54688 0.48438-0.5625 0.48438-0.3125 0-0.3125-0.78125-0.3125-1.0156 0-0.20312 0-0.23438 0.10938-0.34375 0.9375-1.1875 1.1406-2.3438 1.1406-2.3438 0-0.03125-0.015625-0.10938-0.125-0.10938-0.09375 0-0.09375 0.03125-0.14062 0.21875-0.1875 0.625-0.51562 1.375-0.98438 1.9688zm-0.65625 1.375c-0.89062 0.76562-1.6562 0.875-2.0469 0.875-0.59375 0-0.90625-0.45312-0.90625-1.0938 0-0.48438 0.26562-1.5625 0.57812-2.0625 0.46875-0.73438 1.0156-0.92188 1.3594-0.92188 0.98438 0 0.98438 1.3125 0.98438 2.0781 0 0.375 0 0.95312 0.03125 1.125z"/>
</g>
</defs>
<g transform="translate(-149.12 -130.36)">
<use x="148.71201" y="134.765" xlink:href="#a"/>
</g>
</svg>
