<?xml version="1.0" encoding="UTF-8"?>
<svg fill="#000000" version="1.1" viewBox="0 0 6.625 5.8594" xmlns="http://www.w3.org/2000/svg" xmlns:xlink="http://www.w3.org/1999/xlink">
<defs>
<g id="a">
<path d="m4.9688-6.0938c0-0.64062-0.53125-1.0938-1.0938-1.0938-0.59375 0-1.0938 0.48438-1.0938 1.0938 0 0.59375 0.48438 1.0938 1.0938 1.0938 0.625 0 1.0938-0.51562 1.0938-1.0938zm-1.0938 0.6875c-0.46875 0-0.6875-0.14062-0.6875-0.6875 0-0.42188 0.10938-0.6875 0.6875-0.6875 0.54688 0 0.6875 0.23438 0.6875 0.6875 0 0.5-0.1875 0.6875-0.6875 0.6875zm-2.9531 3.6875c-0.17188 0-0.35938 0-0.35938 0.1875 0 0.20312 0.17188 0.20312 0.34375 0.20312h5.9375c0.17188 0 0.34375 0 0.34375-0.20312 0-0.1875-0.17188-0.1875-0.35938-0.1875zm-0.015625-1.9375c-0.17188 0-0.34375 0-0.34375 0.20312 0 0.1875 0.1875 0.1875 0.35938 0.1875h5.9062c0.1875 0 0.35938 0 0.35938-0.1875 0-0.20312-0.17188-0.20312-0.34375-0.20312z"/>
</g>
</defs>
<g transform="translate(-149.27 -127.58)">
<use x="148.71201" y="134.765" xlink:href="#a"/>
</g>
</svg>
