<?xml version="1.0" encoding="UTF-8"?>
<svg fill="#000000" version="1.1" viewBox="0 0 5.5469 7.8906" xmlns="http://www.w3.org/2000/svg" xmlns:xlink="http://www.w3.org/1999/xlink">
<defs>
<g id="a">
<path d="m6.4844-2.4688v-0.09375l-2.8594-1.4062c-0.42188-1.2969-1.3281-2.0781-2.0312-2.5l-0.26562 0.42188c0.73438 0.39062 1.25 1.0312 1.5781 1.7188l-1.9688-0.96875v0.67188l2.2656 1.1406c0.09375 0.34375 0.14062 0.67188 0.14062 0.96875s-0.046875 0.625-0.14062 0.96875l-2.2656 1.1406v0.67188l1.9375-0.96875c-0.32812 0.67188-0.82812 1.2969-1.5469 1.6875l0.26562 0.4375c0.70312-0.42188 1.5938-1.2188 2.0156-2.4688zm-1.3438-0.046875-1.3594 0.6875c0.03125-0.21875 0.0625-0.45312 0.0625-0.6875s-0.03125-0.46875-0.0625-0.67188z"/>
</g>
</defs>
<g transform="translate(-149.65 -128.3)">
<use x="148.71201" y="134.765" xlink:href="#a"/>
</g>
</svg>
