<?xml version="1.0" encoding="UTF-8"?>
<svg fill="#000000" version="1.1" viewBox="0 0 8 7.3125" xmlns="http://www.w3.org/2000/svg" xmlns:xlink="http://www.w3.org/1999/xlink">
<defs>
<g id="a">
<path d="m1.6094-5.4688c0.29688-0.1875 0.60938-0.3125 0.82812-0.3125 0.14062 0 0.21875 0.0625 0.21875 0.15625 0 0.078125-0.046875 0.20312-0.1875 0.32812-0.17188 0.1875-0.26562 0.375-0.26562 0.53125 0 0.26562 0.21875 0.4375 0.59375 0.4375 0.26562 0 0.57812-0.17188 0.82812-0.35938 0.046875-0.03125 0.10938-0.078125 0.15625-0.125-0.1875 0.45312-0.32812 0.89062-0.40625 1.2969-0.26562 1.1719-0.57812 2.5625-1.5156 3.5469-0.015625 0.015625-0.03125 0.03125-0.03125 0.046875 0 0.03125 0.015625 0.046875 0.03125 0.078125 0.015625 0 0.03125 0.015625 0.046875 0.015625h0.125c0.015625 0 0.046875-0.015625 0.0625-0.03125 1.0781-1.2344 2.5938-2.3281 3.4844-3.5781 0.82812-1.1719 1.5625-2.4062 2.9219-3.2188 0.03125-0.015625 0.046875-0.03125 0.046875-0.0625l-0.046875-0.20312c-0.015625-0.03125-0.046875-0.0625-0.09375-0.0625 0 0-0.015625 0-0.03125 0.015625-1.4844 0.875-2.2031 2.25-3.0312 3.4375-0.48438 0.6875-1.1875 1.3281-1.8906 1.9688l-0.078125 0.09375c0.4375-0.6875 0.73438-1.375 0.875-2 0.26562-1.2031 0.64062-2.8438 1.3125-3.5469 0.015625 0 0.015625-0.015625 0.015625-0.046875s0-0.046875-0.015625-0.0625-0.046875-0.015625-0.0625-0.015625h-0.10938c-0.015625 0-0.03125 0-0.0625 0.015625-0.53125 0.5625-0.9375 1.125-1.2344 1.6875-0.17188 0.20312-0.375 0.40625-0.60938 0.57812-0.21875 0.17188-0.46875 0.3125-0.64062 0.3125-0.10938 0-0.15625-0.046875-0.15625-0.14062 0-0.10938 0.078125-0.28125 0.28125-0.48438 0.15625-0.15625 0.21875-0.29688 0.21875-0.40625 0-0.26562-0.3125-0.42188-0.70312-0.42188-0.29688 0-0.67188 0.14062-1.0156 0.35938-0.35938 0.23438-0.6875 0.53125-0.90625 0.84375 0 0.015625-0.015625 0.03125-0.015625 0.046875 0 0.0625 0.046875 0.078125 0.09375 0.078125h0.10938c0.015625 0 0.046875 0 0.0625-0.015625 0.20312-0.28125 0.46875-0.5625 0.79688-0.78125z"/>
</g>
</defs>
<g transform="translate(-149.26 -127.62)">
<use x="148.71201" y="134.765" xlink:href="#a"/>
</g>
</svg>
