<?xml version="1.0" encoding="UTF-8"?>
<svg fill="#000000" version="1.1" viewBox="0 0 7.5156 7.5312" xmlns="http://www.w3.org/2000/svg" xmlns:xlink="http://www.w3.org/1999/xlink">
<defs>
<g id="a">
<path d="m9.125-1.0312c0-0.1875-0.51562-0.54688-0.51562-1.9531 0-0.32812 0.03125-0.5 0.03125-0.5625 0-0.125-0.10938-0.23438-0.23438-0.23438-0.23438 0-0.25 0.25-0.25 0.48438v0.0625c0 0.39062 0.046875 0.78125 0.046875 1.1875l-4.1875-4.1875c-0.046875-0.0625-0.10938-0.078125-0.17188-0.078125-0.10938 0-0.21875 0.09375-0.21875 0.23438 0 0.0625 0.03125 0.10938 0.0625 0.15625l4.1875 4.1875h-0.03125c-0.375 0-0.76562-0.046875-1.1406-0.046875h-0.10938c-0.21875 0-0.4375 0.015625-0.4375 0.25 0 0.14062 0.10938 0.21875 0.21875 0.21875 0.0625 0 0.23438-0.015625 0.57812-0.015625 1.375 0 1.7656 0.53125 1.9531 0.53125 0.14062 0 0.21875-0.10938 0.21875-0.23438zm-4.5469-2.5312c0-0.14062-0.09375-0.21875-0.21875-0.21875-0.046875 0-0.23438 0.015625-0.57812 0.015625-1.375 0-1.75-0.53125-1.9531-0.53125-0.14062 0-0.21875 0.10938-0.21875 0.23438 0 0.1875 0.53125 0.54688 0.53125 1.9531 0 0.32812-0.03125 0.5-0.03125 0.5625 0 0.125 0.09375 0.23438 0.23438 0.23438 0.23438 0 0.23438-0.25 0.23438-0.48438v-0.0625c0-0.39062-0.03125-0.78125-0.03125-1.1875l4.1875 4.1875c0.03125 0.0625 0.09375 0.078125 0.15625 0.078125 0.125 0 0.23438-0.09375 0.23438-0.23438 0-0.0625-0.03125-0.10938-0.078125-0.15625l-4.1719-4.1875h0.015625c0.39062 0 0.76562 0.046875 1.1562 0.046875h0.09375c0.21875 0 0.4375-0.015625 0.4375-0.25z"/>
</g>
</defs>
<g transform="translate(-150.32 -128.45)">
<use x="148.71201" y="134.765" xlink:href="#a"/>
</g>
</svg>
