<?xml version="1.0" encoding="UTF-8"?>
<svg fill="#000000" version="1.1" viewBox="0 0 6.875 8.8125" xmlns="http://www.w3.org/2000/svg" xmlns:xlink="http://www.w3.org/1999/xlink">
<defs>
<g id="a">
<path d="m3.5625 1.8125 0.0625 0.078125 0.75-0.35938c-0.0625-0.48438-0.09375-1-0.09375-1.4844l0.078125-0.09375c1.375-0.28125 2.4531-1.4219 2.4531-2.7969 0-0.67188-0.25-1.2969-0.65625-1.8125l-0.20312-0.03125-0.4375 0.48438-0.03125 0.125c0.35938 0.39062 0.625 0.875 0.625 1.4219s-0.10938 1.0781-0.46875 1.5156c-0.14062 0.1875-0.67188 0.71875-1.2969 0.76562l-0.0625-0.0625v-3.5156c0-0.96875 0-2.6094 0.03125-2.9062l-0.078125-0.0625-0.79688 0.32812c0.0625 1 0.125 2.0781 0.125 3.0312v3.1406l-0.078125 0.0625c-0.4375 0-0.9375-0.23438-1.1562-0.4375-0.29688-0.28125-0.42188-0.6875-0.42188-1.4844v-1.2812c0-1.1562-0.34375-1.1406-0.625-1.1406-0.46875 0-0.96875 0.34375-1.3438 0.65625l0.15625 0.20312c0.20312-0.125 0.45312-0.29688 0.64062-0.29688 0.375 0 0.4375 0.60938 0.4375 0.90625v1.5156c0 1.0625 0.42188 1.7031 2.3125 1.7031l0.078125 0.078125z"/>
</g>
</defs>
<g transform="translate(-148.65 -127.84)">
<use x="148.71201" y="134.765" xlink:href="#a"/>
</g>
</svg>
