<?xml version="1.0" encoding="UTF-8"?>
<svg fill="#000000" version="1.1" viewBox="0 0 10.672 10.672" xmlns="http://www.w3.org/2000/svg" xmlns:xlink="http://www.w3.org/1999/xlink">
<defs>
<g id="a">
<path d="m6.5625-3.3125 0.09375-4.1094c1.0938 0.10938 2.1094 0.57812 2.8906 1.3594 0.1875 0.1875 0.375 0.40625 0.51562 0.625zm-0.65625 0-3.5156-2.125c0.15625-0.21875 0.32812-0.4375 0.51562-0.625 0.78125-0.78125 1.8125-1.25 2.9062-1.3594zm-0.32812 0.57812-3.6094 1.9688c-0.28125-0.625-0.4375-1.2812-0.4375-1.9688s0.15625-1.3594 0.4375-1.9844zm0.32812 0.5625-0.09375 4.1094c-1.0938-0.10938-2.125-0.57812-2.9062-1.3594-0.1875-0.1875-0.35938-0.40625-0.51562-0.625zm0.65625 0 3.5 2.125c-0.14062 0.21875-0.32812 0.4375-0.51562 0.625-0.78125 0.78125-1.7969 1.25-2.8906 1.3594zm0.32812-0.5625 3.5938-1.9844c0.29688 0.625 0.4375 1.2969 0.4375 1.9844s-0.14062 1.3438-0.4375 1.9688zm4.6719 0c0-1.4219-0.5625-2.7812-1.5625-3.7812s-2.3594-1.5625-3.7656-1.5625c-1.4219 0-2.7812 0.5625-3.7656 1.5625-1.0156 1-1.5781 2.3594-1.5781 3.7812 0 1.4062 0.5625 2.7656 1.5781 3.7656 0.98438 1 2.3438 1.5625 3.7656 1.5625 1.4062 0 2.7656-0.5625 3.7656-1.5625s1.5625-2.3594 1.5625-3.7656z"/>
</g>
</defs>
<g transform="translate(-149.6 -126.69)">
<use x="148.71201" y="134.765" xlink:href="#a"/>
</g>
</svg>
