<?xml version="1.0" encoding="UTF-8"?>
<svg fill="#000000" version="1.1" viewBox="0 0 5.9375 6.8125" xmlns="http://www.w3.org/2000/svg" xmlns:xlink="http://www.w3.org/1999/xlink">
<defs>
<g id="a">
<path d="m2.7656-3.9062c0.17188-0.46875 0.35938-1.1094 0.35938-1.6094 0-0.75-0.39062-1.2969-1.1875-1.2969-0.29688 0-0.75 0.15625-0.98438 0.39062-0.26562 0.23438-0.40625 0.5625-0.4375 0.92188 0 0.39062 0.015625 0.5 0.078125 0.57812 0.03125 0.0625 0.10938 0.14062 0.15625 0.14062 0.125 0 0.23438-0.046875 0.23438-0.1875 0-0.015625 0-0.046875-0.015625-0.0625-0.046875-0.125-0.0625-0.25-0.0625-0.35938 0.015625-0.28125 0.078125-0.48438 0.23438-0.65625 0.1875-0.21875 0.5-0.35938 0.79688-0.35938 0.48438 0 0.76562 0.35938 0.76562 0.92188 0 0.45312-0.09375 0.8125-0.26562 1.3125-0.25 0.59375-0.25 0.75-0.73438 1.7031-0.015625 0.03125-0.015625 0.078125-0.015625 0.14062s0.09375 0.14062 0.14062 0.14062h2.0625v2.0469c0 0.046875 0.046875 0.14062 0.20312 0.14062s0.20312-0.078125 0.20312-0.14062v-2.0469h1.9531c0.14062 0 0.20312-0.10938 0.20312-0.1875 0-0.125-0.09375-0.20312-0.20312-0.20312h-1.9531v-2c0-0.10938-0.125-0.17188-0.20312-0.1875-0.10938 0.015625-0.17188 0.078125-0.20312 0.15625v2.0312h-1.6875z"/>
</g>
</defs>
<g transform="translate(-149.23 -127.95)">
<use x="148.71201" y="134.765" xlink:href="#a"/>
</g>
</svg>
