<?xml version="1.0" encoding="UTF-8"?>
<svg fill="#000000" version="1.1" viewBox="0 0 6.7188 4.7812" xmlns="http://www.w3.org/2000/svg" xmlns:xlink="http://www.w3.org/1999/xlink">
<defs>
<g id="a">
<path d="m2.5156-0.375c0 0.14062 0.10938 0.21875 0.23438 0.21875 0.078125 0 0.125-0.015625 0.1875-0.078125 0.32812-0.40625 0.6875-0.84375 1.0156-1.2969 0.32812 0.45312 0.6875 0.89062 1.0312 1.2969 0.046875 0.0625 0.10938 0.078125 0.17188 0.078125 0.125 0 0.23438-0.078125 0.23438-0.21875 0-0.1875-0.45312-0.53125-1.1562-1.5625 0.28125-0.45312 0.51562-0.90625 0.6875-1.4062 0.39062 1.1875 1.2344 2.2031 1.9844 3.1094 0.046875 0.0625 0.10938 0.078125 0.1875 0.078125 0.10938 0 0.21875-0.078125 0.21875-0.21875 0-0.0625-0.015625-0.10938-0.0625-0.15625-1.0938-1.2969-2.1094-2.625-2.1094-4.1875 0-0.125-0.09375-0.21875-0.21875-0.21875-0.14062 0-0.23438 0.09375-0.23438 0.21875 0 0.84375-0.29688 1.6094-0.73438 2.3438-0.4375-0.73438-0.73438-1.5-0.73438-2.3438 0-0.125-0.09375-0.21875-0.23438-0.21875-0.125 0-0.21875 0.09375-0.21875 0.21875 0 1.5625-1.0156 2.8906-2.1094 4.1875-0.03125 0.046875-0.0625 0.09375-0.0625 0.15625 0 0.14062 0.10938 0.21875 0.23438 0.21875 0.0625 0 0.125-0.015625 0.17188-0.078125 0.76562-0.90625 1.6094-1.9219 1.9844-3.1094 0.17188 0.5 0.42188 0.95312 0.6875 1.4062-0.73438 1.0938-1.1562 1.3594-1.1562 1.5625z"/>
</g>
</defs>
<g transform="translate(-149.31 -129.83)">
<use x="148.71201" y="134.765" xlink:href="#a"/>
</g>
</svg>
