<?xml version="1.0" encoding="UTF-8"?>
<svg fill="#000000" width="5.4531" height="6.8438" version="1.1" viewBox="0 0 5.4531 6.8437" xmlns="http://www.w3.org/2000/svg" xmlns:xlink="http://www.w3.org/1999/xlink">
<defs>
<g id="a">
<path d="m0.82812 0.875h5c0.125 0 0.21875-0.10938 0.21875-0.23438s-0.09375-0.23438-0.21875-0.23438h-5c-0.125 0-0.23438 0.10938-0.23438 0.23438s0.10938 0.23438 0.23438 0.23438zm0-1.7969h5c0.125 0 0.21875-0.09375 0.21875-0.21875 0-0.14062-0.09375-0.23438-0.21875-0.23438h-2.2656v-4.3594c0-0.125-0.10938-0.23438-0.23438-0.23438s-0.23438 0.10938-0.23438 0.23438v4.3594h-2.2656c-0.125 0-0.23438 0.09375-0.23438 0.23438 0 0.125 0.10938 0.21875 0.23438 0.21875z"/>
</g>
</defs>
<g transform="translate(-149.31 -128.8)">
<use x="148.71201" y="134.765" xlink:href="#a"/>
</g>
</svg>
