<?xml version="1.0" encoding="UTF-8"?>
<svg fill="#000000" version="1.1" viewBox="0 0 3.7656 9.5312" xmlns="http://www.w3.org/2000/svg" xmlns:xlink="http://www.w3.org/1999/xlink">
<defs>
<g id="a">
<path d="m2.5469-7.3125c-0.375 0-0.14062 0.82812-2.0312 1.7188-0.09375 0.046875-0.14062 0.125-0.14062 0.20312 0 0.14062 0.125 0.23438 0.23438 0.23438 0.23438 0 1.0312-0.625 1.5781-0.90625-0.015625 0.25-0.046875 0.5-0.14062 0.70312-0.20312 0.4375-0.73438 0.89062-0.73438 1.5469 0 1.1562 1.4219 1.625 1.4219 2.5312 0 0.57812-0.625 0.92188-0.8125 1.7656-0.60938-1.1562-0.60938-1.1562-0.78125-1.1562-0.0625 0-0.21875 0.046875-0.21875 0.21875 0 0.046875 0 0.09375 0.03125 0.14062 0.4375 0.625 0.79688 1.3281 0.79688 2.0781v0.23438c0 0.10938 0.078125 0.21875 0.21875 0.21875 0.375 0 0.14062-0.82812 2.0312-1.7188 0.09375-0.046875 0.14062-0.125 0.14062-0.20312 0-0.14062-0.125-0.23438-0.23438-0.23438-0.23438 0-1.0312 0.64062-1.5781 0.90625 0.015625-0.25 0.046875-0.5 0.14062-0.70312 0.1875-0.4375 0.73438-0.89062 0.73438-1.5469 0-1.1562-1.4375-1.625-1.4375-2.5312 0-0.57812 0.64062-0.92188 0.82812-1.7656 0.60938 1.1562 0.59375 1.1562 0.78125 1.1562 0.0625 0 0.21875-0.046875 0.21875-0.21875 0-0.046875-0.015625-0.09375-0.03125-0.14062-0.4375-0.625-0.79688-1.3281-0.79688-2.0781v-0.23438c0-0.10938-0.078125-0.21875-0.21875-0.21875z"/>
</g>
</defs>
<g transform="translate(-149.09 -127.45)">
<use x="148.71201" y="134.765" xlink:href="#a"/>
</g>
</svg>
