<?xml version="1.0" encoding="UTF-8"?>
<svg fill="#000000" version="1.1" viewBox="0 0 5.6562 8.0312" xmlns="http://www.w3.org/2000/svg" xmlns:xlink="http://www.w3.org/1999/xlink">
<defs>
<g id="a">
<path d="m5.3281-5.9375v5.0469c0 0.046875 0 0.35938 0.0625 0.76562 0.078125 0.39062 0.09375 0.54688 0.26562 0.54688 0.21875 0 0.32812-0.35938 0.35938-0.42188 0.046875-0.17188 0.046875-0.26562 0.046875-0.75 0-0.71875 0-0.73438-0.29688-4.2344-0.03125-0.34375-0.015625-0.64062-0.03125-0.98438 0.42188-0.10938 0.48438-0.4375 0.48438-0.5625 0-0.0625 0-0.59375-0.78125-0.59375h-3.9219c-0.20312 0-0.45312 0-0.5625-0.32812-0.03125-0.046875-0.0625-0.15625-0.20312-0.15625-0.1875 0-0.1875 0.125-0.1875 0.46875 0 0.76562 0.10938 1.2031 0.90625 1.2031z"/>
</g>
</defs>
<g transform="translate(-149.27 -127.16)">
<use x="148.71201" y="134.765" xlink:href="#a"/>
</g>
</svg>
