<?xml version="1.0" encoding="UTF-8"?>
<svg fill="#000000" version="1.1" viewBox="0 0 3.9375 3.9375" xmlns="http://www.w3.org/2000/svg" xmlns:xlink="http://www.w3.org/1999/xlink">
<defs>
<g id="a">
<path d="m1.25-0.57812h3.4844c0.14062 0 0.23438-0.10938 0.23438-0.23438 0-0.0625-0.03125-0.10938-0.078125-0.15625l-1.5781-1.5781 1.5781-1.5781c0.046875-0.046875 0.078125-0.10938 0.078125-0.15625 0-0.125-0.09375-0.23438-0.23438-0.23438h-3.4844c-0.14062 0-0.21875 0.10938-0.21875 0.23438 0 0.046875 0.015625 0.10938 0.0625 0.15625l1.5781 1.5781-1.5781 1.5781c-0.046875 0.046875-0.0625 0.09375-0.0625 0.15625 0 0.125 0.078125 0.23438 0.21875 0.23438zm1.7344-1.6406 1.2031 1.1875h-2.3906zm0-0.65625-1.1875-1.1875h2.3906z"/>
</g>
</defs>
<g transform="translate(-149.74 -130.25)">
<use x="148.71201" y="134.765" xlink:href="#a"/>
</g>
</svg>
