<?xml version="1.0" encoding="UTF-8"?>
<svg fill="#000000" version="1.1" viewBox="0 0 6.1719 6.1719" xmlns="http://www.w3.org/2000/svg" xmlns:xlink="http://www.w3.org/1999/xlink">
<defs>
<g id="a">
<path d="m2.1406-2-1.375-1.375c-0.03125-0.046875-0.09375-0.0625-0.14062-0.0625-0.0625 0-0.10938 0.015625-0.20312 0.20312 0 0.046875 0.015625 0.10938 0.0625 0.14062l1.375 1.375-1.375 1.375c-0.046875 0.046875-0.0625 0.09375-0.0625 0.14062 0 0.10938 0.09375 0.20312 0.20312 0.20312 0.046875 0 0.10938-0.015625 0.14062-0.0625l1.375-1.375 1.375 1.375c0.046875 0.046875 0.09375 0.0625 0.14062 0.0625 0.10938 0 0.20312-0.09375 0.20312-0.20312 0-0.046875-0.015625-0.09375-0.0625-0.14062l-1.375-1.375 3.7656-3.7656v1.4531c0 0.10938 0.09375 0.1875 0.20312 0.1875s0.20312-0.078125 0.20312-0.1875v-1.9375c0-0.046875-0.03125-0.10938-0.0625-0.14062-0.046875-0.046875-0.09375-0.0625-0.14062-0.0625h-1.9375c-0.10938 0-0.20312 0.09375-0.20312 0.20312s0.09375 0.20312 0.20312 0.20312h1.4531z"/>
</g>
</defs>
<g transform="translate(-149.13 -128.59)">
<use x="148.71201" y="134.765" xlink:href="#a"/>
</g>
</svg>
