<?xml version="1.0" encoding="UTF-8"?>
<svg fill="#000000" version="1.1" viewBox="0 0 4.3125 4.0312" xmlns="http://www.w3.org/2000/svg" xmlns:xlink="http://www.w3.org/1999/xlink">
<defs>
<g id="a">
<path d="m0.5625-2.5469v1.7812c0 0.14062 0.078125 0.23438 0.21875 0.23438h3.8594c0.14062 0 0.23438-0.09375 0.23438-0.23438v-1.7812c0-0.14062-0.09375-0.21875-0.23438-0.21875h-3.8594c-0.14062 0-0.21875 0.078125-0.21875 0.21875zm0.45312 1.5469v-1.3125h3.4062v1.3125zm3.625-3.5625h-3.8594c-0.125 0-0.21875 0.10938-0.21875 0.23438s0.09375 0.23438 0.21875 0.23438h3.8594c0.14062 0 0.23438-0.10938 0.23438-0.23438s-0.09375-0.23438-0.23438-0.23438z"/>
</g>
</defs>
<g transform="translate(-149.27 -130.2)">
<use x="148.71201" y="134.765" xlink:href="#a"/>
</g>
</svg>
