<?xml version="1.0" encoding="UTF-8"?>
<svg fill="#000000" version="1.1" viewBox="0 0 6.4844 8.2812" xmlns="http://www.w3.org/2000/svg" xmlns:xlink="http://www.w3.org/1999/xlink">
<defs>
<g id="a">
<path d="m2.625-2.6562c-0.375 0-0.75 0.125-1.0312 0.35938v-1.7031c0.25-0.28125 0.65625-0.40625 1.0156-0.40625 1.2344 0 2 1.375 3.25 1.375 0.9375 0 1.625-0.73438 1.625-1.6719 0-0.078125-0.03125-0.28125-0.14062-0.28125-0.125 0-0.1875 0.5625-0.23438 0.67188-0.21875 0.4375-0.76562 0.70312-1.25 0.70312-1.2344 0-1.9844-1.375-3.2344-1.375-0.35938 0-0.73438 0.125-1.0312 0.35938v-2.0469c0-0.1875-0.125-0.3125-0.29688-0.3125-0.1875 0-0.29688 0.14062-0.29688 0.3125v7.6719c0 0.17188 0.10938 0.29688 0.29688 0.29688 0.17188 0 0.29688-0.125 0.29688-0.29688v-2.6719c0.25-0.26562 0.65625-0.40625 1.0156-0.40625 1.2344 0 2 1.375 3.25 1.375 0.9375 0 1.625-0.73438 1.625-1.6719 0-0.078125-0.03125-0.28125-0.14062-0.28125-0.125 0-0.1875 0.5625-0.23438 0.67188-0.21875 0.45312-0.79688 0.70312-1.2812 0.70312-1.1719 0-1.9688-1.375-3.2031-1.375z"/>
</g>
</defs>
<g transform="translate(-149.71 -127.78)">
<use x="148.71201" y="134.765" xlink:href="#a"/>
</g>
</svg>
