<?xml version="1.0" encoding="UTF-8"?>
<svg fill="#000000" version="1.1" viewBox="0 0 6.5781 6.5781" xmlns="http://www.w3.org/2000/svg" xmlns:xlink="http://www.w3.org/1999/xlink">
<defs>
<g id="a">
<path d="m6.8906-3.2969c0 0.78125-0.29688 1.5156-0.84375 2.0469-0.54688 0.54688-1.2656 0.84375-2.0469 0.84375-0.76562 0-1.5-0.29688-2.0312-0.84375-0.54688-0.53125-0.85938-1.2656-0.85938-2.0469 0-0.76562 0.3125-1.4844 0.85938-2.0312 0.53125-0.54688 1.2656-0.85938 2.0312-0.85938 0.78125 0 1.5 0.3125 2.0469 0.85938s0.84375 1.2656 0.84375 2.0312zm-5.2031-2.3125c-0.625 0.60938-0.96875 1.4531-0.96875 2.3125 0 0.89062 0.34375 1.7188 0.96875 2.3438 0.60938 0.60938 1.4375 0.95312 2.3125 0.95312s1.7188-0.34375 2.3281-0.96875c0.625-0.60938 0.96875-1.4375 0.96875-2.3281 0-0.85938-0.34375-1.7031-0.96875-2.3125-0.60938-0.625-1.4531-0.96875-2.3281-0.96875s-1.7031 0.34375-2.3125 0.96875zm3.3125 3.9375 0.1875-0.17188c-0.1875-0.48438-0.65625-0.8125-1.1875-0.8125-0.51562 0-0.98438 0.32812-1.1719 0.8125l0.17188 0.17188c0.28125-0.25 0.625-0.39062 1-0.39062s0.73438 0.14062 1 0.39062zm-2.2812-2.3281c0.078125 0.078125 0.17188 0.125 0.28125 0.125 0.09375 0 0.20312-0.046875 0.29688-0.125 0.078125-0.078125 0.125-0.17188 0.125-0.28125s-0.046875-0.21875-0.125-0.29688c-0.09375-0.09375-0.20312-0.125-0.29688-0.125-0.10938 0-0.20312 0.03125-0.28125 0.125-0.09375 0.078125-0.14062 0.1875-0.14062 0.29688s0.046875 0.20312 0.14062 0.28125zm2 0c0.078125 0.078125 0.17188 0.125 0.28125 0.125s0.21875-0.046875 0.29688-0.125c0.09375-0.078125 0.125-0.17188 0.125-0.28125s-0.03125-0.21875-0.125-0.29688c-0.078125-0.09375-0.1875-0.125-0.29688-0.125s-0.20312 0.03125-0.28125 0.125c-0.078125 0.078125-0.125 0.1875-0.125 0.29688s0.046875 0.20312 0.125 0.28125z"/>
</g>
</defs>
<g transform="translate(-149.43 -128.19)">
<use x="148.71201" y="134.765" xlink:href="#a"/>
</g>
</svg>
