<?xml version="1.0" encoding="UTF-8"?>
<svg fill="#000000" width="5.2031" height="4.7188" version="1.1" viewBox="0 0 5.2031 4.7187" xmlns="http://www.w3.org/2000/svg" xmlns:xlink="http://www.w3.org/1999/xlink">
<defs>
<g id="a">
<path d="m2.9844-5.6094c-0.14062 0-0.21875 0.09375-0.59375 0.375 0.28125-0.84375 1.0625-1.3281 1.8438-1.3281 1.0156 0 1.8906 0.82812 1.8906 1.9062 0 1.0312-0.82812 1.9219-1.8906 1.9219-0.82812 0-1.4688-0.5-1.7344-1.1094-0.046875-0.078125-0.125-0.125-0.20312-0.125-0.14062 0-0.21875 0.10938-0.21875 0.21875 0 0.20312 0.6875 1.4531 2.1562 1.4531 1.3438 0 2.3281-1.1094 2.3281-2.3594 0-1.3438-1.0938-2.3594-2.3281-2.3594-1.1719 0-1.9688 0.82812-2.2344 1.6094-0.14062-0.25-0.25-0.45312-0.42188-0.45312-0.10938 0-0.21875 0.078125-0.21875 0.21875 0 0.1875 0.51562 0.53125 0.51562 1.1719 0 0.10938 0.078125 0.20312 0.17188 0.21875 0.03125 0 0.046875 0.015625 0.0625 0.015625 0.28125 0 0.078125-0.4375 0.98438-0.96875 0.078125-0.046875 0.10938-0.10938 0.10938-0.1875 0-0.125-0.10938-0.21875-0.21875-0.21875z"/>
</g>
</defs>
<g transform="translate(-150.07 -129.85)">
<use x="148.71201" y="136.868" xlink:href="#a"/>
</g>
</svg>
