<?xml version="1.0" encoding="UTF-8"?>
<svg fill="#000000" width="3.8594" height="9.9688" version="1.1" viewBox="0 0 3.8594 9.9687" xmlns="http://www.w3.org/2000/svg" xmlns:xlink="http://www.w3.org/1999/xlink">
<defs>
<g id="a">
<path d="m4.1719-7.4844c-0.078125 0.03125-0.125 0.125-0.15625 0.20312l-0.10938 0.26562c-1.0781 3.0156-2.1875 6.0156-3.2656 9.0156-0.03125 0.078125-0.078125 0.1875-0.078125 0.29688 0 0.078125 0.046875 0.1875 0.21875 0.1875 0.10938-0.015625 0.14062-0.10938 0.17188-0.20312l0.125-0.32812c1.0938-3.0156 2.2188-6.0469 3.2969-9.0625 0.015625-0.0625 0.046875-0.125 0.046875-0.20312 0-0.09375-0.09375-0.17188-0.1875-0.17188h-0.0625z"/>
</g>
</defs>
<g transform="translate(-149.27 -127.28)">
<use x="148.71201" y="134.765" xlink:href="#a"/>
</g>
</svg>
