<?xml version="1.0" encoding="UTF-8"?>
<svg fill="#000000" version="1.1" viewBox="0 0 4.6406 10.391" xmlns="http://www.w3.org/2000/svg" xmlns:xlink="http://www.w3.org/1999/xlink">
<defs>
<g id="a">
<path d="m2.6875-6.3125c0.25 0.375 0.51562 0.65625 0.76562 0.84375 0.60938 0.46875 1.2344 0.5625 1.2344 0.5625 0.125 0 0.125-0.10938 0.125-0.1875 0-0.15625 0-0.17188-0.23438-0.23438-0.5-0.14062-0.9375-0.42188-1.2969-0.79688-0.51562-0.57812-0.625-1.1406-0.67188-1.4688-0.015625-0.046875-0.0625-0.09375-0.10938-0.09375-0.09375 0-0.10938 0.0625-0.125 0.1875-0.1875 0.85938-0.60938 1.2969-0.70312 1.4062-0.5625 0.5625-1.0312 0.70312-1.4062 0.79688-0.09375 0.03125-0.09375 0.10938-0.09375 0.20312 0 0.078125 0 0.1875 0.125 0.1875 0.015625 0 0.60938-0.10938 1.1719-0.51562 0.32812-0.25 0.60938-0.54688 0.82812-0.89062v7.6406c-0.25-0.375-0.51562-0.65625-0.76562-0.84375-0.60938-0.46875-1.2344-0.5625-1.2344-0.5625-0.125 0-0.125 0.10938-0.125 0.1875 0 0.15625 0 0.17188 0.23438 0.23438 0.5 0.14062 0.92188 0.40625 1.2812 0.79688 0.51562 0.54688 0.64062 1.1562 0.6875 1.4688 0.015625 0.046875 0.046875 0.09375 0.125 0.09375s0.09375-0.078125 0.10938-0.15625c0.21875-1.125 0.95312-1.9062 2.0312-2.2188 0.15625-0.046875 0.17188-0.046875 0.17188-0.21875 0-0.078125 0-0.1875-0.125-0.1875-0.015625 0-0.60938 0.10938-1.1719 0.51562-0.32812 0.25-0.60938 0.54688-0.82812 0.89062z"/>
</g>
</defs>
<g transform="translate(-148.88 -127.08)">
<use x="148.71201" y="134.765" xlink:href="#a"/>
</g>
</svg>
