<?xml version="1.0" encoding="UTF-8"?>
<svg fill="#000000" version="1.1" viewBox="0 0 5 7.8906" xmlns="http://www.w3.org/2000/svg" xmlns:xlink="http://www.w3.org/1999/xlink">
<defs>
<g id="a">
<path d="m3.0312-7.375v0.3125h0.20312c0.32812 0 0.57812 0.046875 0.57812 0.625v0.26562h-2.1406v0.3125h2.1406l-0.015625 1.5c-0.23438-0.39062-0.8125-0.60938-1.2656-0.60938-1.2188 0-2.2031 1.0625-2.2031 2.2656 0 1.0625 0.8125 2.25 2.1406 2.25 0.51562 0 0.98438-0.25 1.3125-0.65625v0.65625l1.4688-0.10938v-0.3125h-0.14062c-0.32812 0-0.64062-0.03125-0.64062-0.48438v-4.5h0.67188v-0.3125h-0.67188v-1.3125zm-1.8594 4.9062v-0.14062c0-0.73438 0.078125-1.4844 0.76562-1.9531 0.20312-0.10938 0.4375-0.1875 0.67188-0.1875 0.48438 0 1.1719 0.40625 1.1719 1.0312v0.39062 1.6562c0 0.125-0.046875 0.21875-0.125 0.3125-0.25 0.39062-0.6875 0.6875-1.1562 0.6875-0.71875 0-1.1875-0.67188-1.2969-1.3594-0.015625-0.14062-0.015625-0.29688-0.03125-0.4375zm-0.46875 2.4688c-0.09375 0.015625-0.14062 0.09375-0.14062 0.1875 0 0.14062 0.10938 0.21875 0.28125 0.21875 0.0625 0 0.14062-0.015625 0.20312-0.015625h4.0156c0.14062 0 0.26562-0.046875 0.26562-0.20312 0-0.125-0.10938-0.20312-0.25-0.20312h-0.15625-3.8281-0.21875c-0.0625 0-0.125 0-0.17188 0.015625z"/>
</g>
</defs>
<g transform="translate(-149.04 -127.28)">
<use x="148.71201" y="134.765" xlink:href="#a"/>
</g>
</svg>
