<?xml version="1.0" encoding="UTF-8"?>
<svg fill="#000000" version="1.1" viewBox="0 0 5.3125 6.1562" xmlns="http://www.w3.org/2000/svg" xmlns:xlink="http://www.w3.org/1999/xlink">
<defs>
<g id="a">
<path d="m5.8281-0.70312c-0.21875-0.26562-0.8125-1.4375-2.5312-1.4844l0.29688-0.76562c1.4844-0.17188 2.0312-1.2188 2.2344-1.4844l-0.14062-0.09375c-0.54688 0.64062-1.2344 0.89062-1.8594 0.98438l0.84375-2.0938h-0.54688l-0.84375 2.125h-0.125c-0.75 0-1.75-0.14062-2.5156-1.0156l-0.125 0.10938c0.20312 0.28125 0.79688 1.4375 2.5312 1.4844l-0.3125 0.78125c-1.4844 0.15625-2.0312 1.2031-2.2188 1.4688l0.125 0.09375c0.5625-0.625 1.25-0.875 1.8594-0.96875l-0.82812 2.0781h0.54688l0.84375-2.125h0.09375c0.76562 0 1.7656 0.15625 2.5312 1.0156z"/>
</g>
</defs>
<g transform="translate(-149.23 -129.12)">
<use x="148.71201" y="134.765" xlink:href="#a"/>
</g>
</svg>
