<?xml version="1.0" encoding="UTF-8"?>
<svg fill="#000000" version="1.1" viewBox="0 0 7.3594 7.3594" xmlns="http://www.w3.org/2000/svg" xmlns:xlink="http://www.w3.org/1999/xlink">
<defs>
<g id="a">
<path d="m7.8281-5.3906c0-0.1875 0-0.26562-0.10938-0.26562-0.046875 0-0.078125 0.046875-0.09375 0.0625-0.98438 1.7031-2.125 1.9688-3.375 2.0312 0-2.1719 1.4219-3.0156 2.0156-3.3594 0.046875-0.03125 0.09375-0.0625 0.09375-0.10938 0-0.10938-0.078125-0.10938-0.26562-0.10938h-3.8906c-0.17188 0-0.26562 0-0.26562 0.10938 0 0.046875 0.046875 0.078125 0.125 0.125 0.59375 0.34375 1.9844 1.1875 1.9844 3.3438-0.85938-0.03125-2.2656-0.125-3.3125-1.9375-0.10938-0.15625-0.10938-0.15625-0.15625-0.15625-0.10938 0-0.10938 0.078125-0.10938 0.26562v3.8594c0 0.20312 0 0.28125 0.10938 0.28125 0.0625 0 0.09375-0.0625 0.09375-0.078125 1-1.7031 2.125-1.9688 3.375-2.0312 0 2.1875-1.4219 3.0156-2 3.3594-0.0625 0.046875-0.10938 0.0625-0.10938 0.125 0 0.09375 0.09375 0.09375 0.26562 0.09375h3.8906c0.1875 0 0.26562 0 0.26562-0.09375 0-0.0625-0.046875-0.078125-0.125-0.14062-0.59375-0.34375-1.9844-1.1875-1.9844-3.3438 0.85938 0.046875 2.2656 0.125 3.3281 1.9375 0.09375 0.15625 0.10938 0.17188 0.14062 0.17188 0.10938 0 0.10938-0.078125 0.10938-0.28125z"/>
</g>
</defs>
<g transform="translate(-149.18 -127.62)">
<use x="148.71201" y="134.765" xlink:href="#a"/>
</g>
</svg>
