<?xml version="1.0" encoding="UTF-8"?>
<svg fill="#000000" version="1.1" viewBox="0 0 4.9844 9.9844" xmlns="http://www.w3.org/2000/svg" xmlns:xlink="http://www.w3.org/1999/xlink">
<defs>
<g id="b">
<path d="m4.375-7.0938c0.046875-0.14062 0.046875-0.17188 0.046875-0.1875 0-0.10938-0.078125-0.20312-0.1875-0.20312-0.078125 0-0.14062 0.03125-0.17188 0.09375l-3.4688 9.5c-0.046875 0.14062-0.046875 0.17188-0.046875 0.1875 0 0.10938 0.09375 0.20312 0.20312 0.20312 0.125 0 0.15625-0.078125 0.21875-0.25z"/>
</g>
<g id="a">
<path d="m5.4688-2.2969c0.15625 0 0.34375 0 0.34375-0.20312 0-0.1875-0.1875-0.1875-0.34375-0.1875h-4.2344c0.125-1.3438 1.2656-2.2969 2.6719-2.2969h1.5625c0.15625 0 0.34375 0 0.34375-0.20312s-0.1875-0.20312-0.34375-0.20312h-1.5781c-1.7031 0-3.0625 1.2969-3.0625 2.8906 0 1.6094 1.3594 2.9062 3.0625 2.9062h1.5781c0.15625 0 0.34375 0 0.34375-0.20312s-0.1875-0.20312-0.34375-0.20312h-1.5625c-1.4062 0-2.5469-0.95312-2.6719-2.2969z"/>
</g>
</defs>
<g transform="translate(-149.54 -127.28)">
<use x="149.819" y="134.765" xlink:href="#b"/>
<use x="148.71201" y="134.765" xlink:href="#a"/>
</g>
</svg>
