<?xml version="1.0" encoding="UTF-8"?>
<svg fill="#000000" version="1.1" viewBox="0 0 6.0938 9.0781" xmlns="http://www.w3.org/2000/svg" xmlns:xlink="http://www.w3.org/1999/xlink">
<defs>
<g id="a">
<path d="m5.9375-6.6562c0.0625-0.125 0.078125-0.14062 0.078125-0.1875 0-0.10938-0.10938-0.1875-0.20312-0.1875-0.125 0-0.17188 0.078125-0.23438 0.20312l-1.3125 2.9531-3.0469-1.4375c-0.046875-0.03125-0.125-0.0625-0.1875-0.0625-0.20312 0-0.20312 0.1875-0.20312 0.34375v5.0781c0 0.15625 0 0.35938 0.20312 0.35938 0.078125 0 1.4688-0.6875 1.6875-0.78125l-0.76562 1.7031c-0.078125 0.17188-0.21875 0.48438-0.21875 0.53125 0 0.10938 0.09375 0.1875 0.20312 0.1875 0.09375 0 0.14062-0.046875 0.17188-0.10938 0.03125-0.046875 0.5-1.125 0.57812-1.2812l0.5-1.1406c0.078125-0.14062 0.09375-0.15625 0.10938-0.17188l0.29688-0.14062 3.1406-1.4844c0.10938-0.046875 0.1875-0.078125 0.1875-0.21875 0-0.10938-0.09375-0.15625-0.1875-0.21875l-2.1094-0.98438zm-2.4219 5.4531 0.95312-2.125 1.7812 0.82812zm-0.5625 0.26562-1.7344 0.8125v-4.7344l2.8906 1.3438z"/>
</g>
</defs>
<g transform="translate(-149.54 -127.73)">
<use x="148.71201" y="134.765" xlink:href="#a"/>
</g>
</svg>
