<?xml version="1.0" encoding="UTF-8"?>
<svg fill="#000000" version="1.1" viewBox="0 0 4.3552 4.5833" xmlns="http://www.w3.org/2000/svg" xmlns:xlink="http://www.w3.org/1999/xlink">
<defs>
<g id="a">
<path d="m3.5781-3.8594c-0.125 0.015625-0.26562 0.046875-0.34375 0.14062-0.17188 0.1875-0.15625 0.51562 0.03125 0.67188s0.51562 0.14062 0.65625-0.046875c0.10938-0.125 0.10938-0.28125 0.09375-0.42188-0.015625-0.078125-0.03125-0.15625-0.0625-0.25-0.1875-0.4375-0.71875-0.625-1.1719-0.6875-0.25-0.046875-0.51562-0.03125-0.75 0.03125-0.25 0.0625-0.46875 0.15625-0.6875 0.29688-0.125 0.078125-0.23438 0.17188-0.34375 0.28125-0.90625 0.90625-0.89062 2.4844 0.03125 3.3594 0.67188 0.64062 1.8125 0.82812 2.5625 0.20312 0.21875-0.17188 0.375-0.42188 0.46875-0.67188 0.03125-0.078125 0.09375-0.1875 0.0625-0.26562-0.03125-0.09375-0.17188-0.09375-0.21875-0.03125-0.03125 0.046875-0.03125 0.125-0.0625 0.17188-0.03125 0.09375-0.078125 0.20312-0.14062 0.29688-0.23438 0.375-0.625 0.60938-1.0781 0.625-0.10938 0-0.21875 0-0.32812-0.03125-0.10938-0.015625-0.1875-0.0625-0.28125-0.10938-0.60938-0.34375-0.84375-1.0938-0.84375-1.75-0.015625-0.53125 0.03125-1.1094 0.3125-1.5469 0.15625-0.23438 0.34375-0.4375 0.60938-0.54688 0.1875-0.09375 0.375-0.09375 0.57812-0.078125 0.32812 0.03125 0.65625 0.125 0.90625 0.35938z"/>
</g>
</defs>
<g transform="translate(-148.99 -130.28)">
<use x="149.21001" y="134.765" xlink:href="#a"/>
</g>
<path d="m0 2.3365h2.4375" fill="none" stroke="#000" stroke-miterlimit="10" stroke-width=".305"/>
</svg>
