<?xml version="1.0" encoding="UTF-8"?>
<svg fill="#000000" version="1.1" viewBox="0 0 4.9062 6" xmlns="http://www.w3.org/2000/svg" xmlns:xlink="http://www.w3.org/1999/xlink">
<defs>
<g id="a">
<path d="m2.1406 0.35938 0.98438-2.6719h1.9062v1.9062c0 0.125 0.10938 0.23438 0.23438 0.23438s0.23438-0.10938 0.23438-0.23438v-4.2812c0-0.125-0.10938-0.23438-0.23438-0.23438s-0.23438 0.10938-0.23438 0.23438v1.9219h-1.7344l0.9375-2.5938c0.015625-0.078125-0.03125-0.1875-0.14062-0.1875-0.0625 0-0.125 0.03125-0.14062 0.09375l-0.98438 2.6875h-2.1406c-0.125 0-0.23438 0.09375-0.23438 0.21875s0.10938 0.23438 0.23438 0.23438h1.9688l-0.9375 2.5781c-0.03125 0.078125 0.03125 0.1875 0.14062 0.1875 0.0625 0 0.125-0.03125 0.14062-0.09375z"/>
</g>
</defs>
<g transform="translate(-149.31 -129.22)">
<use x="148.71201" y="134.765" xlink:href="#a"/>
</g>
</svg>
