<?xml version="1.0" encoding="UTF-8"?>
<svg fill="#000000" version="1.1" viewBox="0 0 5.5156 5.5" xmlns="http://www.w3.org/2000/svg" xmlns:xlink="http://www.w3.org/1999/xlink">
<defs>
<g id="a">
<path d="m7.625-0.015625c0-0.0625-0.03125-0.125-0.0625-0.15625l-1.9688-1.9844 0.875-1.8906c0.046875-0.0625 0-0.15625-0.0625-0.1875-0.09375-0.046875-0.17188-0.015625-0.20312 0.0625l-0.84375 1.7969-1.9844-1.9844h0.03125c0.375 0 0.76562 0.03125 1.1406 0.03125h0.09375c0.21875 0 0.45312-0.015625 0.45312-0.23438 0-0.14062-0.10938-0.23438-0.23438-0.23438-0.046875 0-0.21875 0.015625-0.5625 0.015625-1.3906 0-1.75-0.51562-1.9531-0.51562-0.14062 0-0.23438 0.10938-0.23438 0.21875 0 0.20312 0.53125 0.5625 0.53125 1.9531 0 0.34375-0.015625 0.51562-0.015625 0.57812 0 0.125 0.09375 0.21875 0.21875 0.21875 0.23438 0 0.25-0.23438 0.25-0.48438v-0.0625c0-0.34375-0.046875-0.70312-0.046875-1.0625v-0.10938l2.1094 2.1094-0.875 1.8906c-0.046875 0.10938 0.03125 0.21875 0.125 0.21875 0.0625 0 0.125-0.03125 0.14062-0.09375l0.84375-1.7812 1.8438 1.8438c0.046875 0.046875 0.10938 0.0625 0.15625 0.0625 0.125 0 0.23438-0.078125 0.23438-0.21875z"/>
</g>
</defs>
<g transform="translate(-150.82 -129.47)">
<use x="148.71201" y="134.765" xlink:href="#a"/>
</g>
</svg>
