<?xml version="1.0" encoding="UTF-8"?>
<svg fill="#000000" version="1.1" viewBox="0 0 4.2969 7.5" xmlns="http://www.w3.org/2000/svg" xmlns:xlink="http://www.w3.org/1999/xlink">
<defs>
<g id="a">
<path d="m4.4531-2.1406c0 0.45312-0.20312 0.90625-0.53125 1.2344-0.3125 0.3125-0.76562 0.5-1.2188 0.5-0.46875 0-0.90625-0.1875-1.2344-0.5-0.32812-0.32812-0.51562-0.78125-0.51562-1.2344 0-0.46875 0.1875-0.90625 0.51562-1.2344s0.76562-0.51562 1.2344-0.51562c0.45312 0 0.90625 0.1875 1.2188 0.51562 0.32812 0.32812 0.53125 0.76562 0.53125 1.2344zm-1.5469-3.4531h1.2969c0.10938 0 0.1875-0.09375 0.1875-0.20312s-0.078125-0.1875-0.1875-0.1875h-1.2969v-1.3125c0-0.10938-0.09375-0.20312-0.20312-0.20312s-0.20312 0.09375-0.20312 0.20312v1.3125h-1.2969c-0.10938 0-0.20312 0.078125-0.20312 0.1875s0.09375 0.20312 0.20312 0.20312h1.2969v1.3125c-0.5 0.046875-0.96875 0.26562-1.3281 0.625-0.39062 0.39062-0.625 0.9375-0.625 1.5156 0 0.5625 0.23438 1.1094 0.625 1.5156 0.40625 0.39062 0.96875 0.625 1.5312 0.625s1.1094-0.23438 1.5156-0.625c0.39062-0.40625 0.625-0.95312 0.625-1.5156 0-0.57812-0.23438-1.125-0.64062-1.5312-0.34375-0.34375-0.8125-0.5625-1.2969-0.60938z"/>
</g>
</defs>
<g transform="translate(-149.26 -128.55)">
<use x="148.71201" y="136.052" xlink:href="#a"/>
</g>
</svg>
