<?xml version="1.0" encoding="UTF-8"?>
<svg fill="#000000" version="1.1" viewBox="0 0 7.4531 7.4375" xmlns="http://www.w3.org/2000/svg" xmlns:xlink="http://www.w3.org/1999/xlink">
<defs>
<g id="a">
<path d="m3.0781-6.4219c-0.375 0-0.14062 0.84375-2.0312 1.7188-0.09375 0.03125-0.14062 0.125-0.14062 0.20312 0 0.14062 0.125 0.23438 0.23438 0.23438 0.1875 0 0.90625-0.51562 1.3594-0.78125-0.03125 0.15625-0.03125 0.32812-0.03125 0.5 0 2.2656 1.8438 4.0156 4.0156 4.0156 0.17188 0 0.32812-0.015625 0.5-0.03125-0.23438 0.39062-0.79688 1.1562-0.79688 1.3438 0 0.125 0.10938 0.23438 0.23438 0.23438 0.09375 0 0.17188-0.046875 0.20312-0.125 0.89062-1.9062 1.7344-1.6406 1.7344-2.0312 0-0.14062-0.10938-0.23438-0.23438-0.23438-0.015625 0-0.09375 0.015625-0.23438 0.015625-1.1719 0-2.0156-0.82812-2.2031-0.82812-0.14062 0-0.23438 0.09375-0.23438 0.21875 0 0.078125 0.046875 0.14062 0.09375 0.1875 0.4375 0.3125 0.9375 0.5 1.375 0.75-0.14062 0.03125-0.29688 0.03125-0.4375 0.03125-2.0312 0-3.5625-1.6562-3.5625-3.5469 0-0.14062 0.015625-0.29688 0.03125-0.45312 0.26562 0.45312 0.45312 0.95312 0.75 1.375 0.046875 0.0625 0.125 0.09375 0.1875 0.09375 0.078125 0 0.23438-0.0625 0.23438-0.23438 0-0.03125-0.015625-0.078125-0.03125-0.125-0.4375-0.625-0.79688-1.3281-0.79688-2.0781v-0.21875c0-0.125-0.09375-0.23438-0.21875-0.23438z"/>
</g>
</defs>
<g transform="translate(-149.62 -128.34)">
<use x="148.71201" y="134.765" xlink:href="#a"/>
</g>
</svg>
