<?xml version="1.0" encoding="UTF-8"?>
<svg fill="#000000" version="1.1" viewBox="0 0 6.5105 3.9219" xmlns="http://www.w3.org/2000/svg" xmlns:xlink="http://www.w3.org/1999/xlink">
<defs>
<g id="b">
<path d="m1.0938-1.6562c-0.3125 0-0.53125 0.25-0.53125 0.54688s0.25 0.53125 0.53125 0.53125c0.32812 0 0.54688-0.26562 0.54688-0.53125 0-0.32812-0.25-0.54688-0.54688-0.54688zm0-2.8438c-0.3125 0-0.53125 0.25-0.53125 0.53125 0 0.3125 0.25 0.54688 0.53125 0.54688 0.32812 0 0.54688-0.26562 0.54688-0.54688 0-0.3125-0.25-0.53125-0.54688-0.53125z"/>
</g>
<g id="a">
<path d="m4.6406-3.6719h-3.8594c-0.125 0-0.21875 0.10938-0.21875 0.23438s0.09375 0.23438 0.21875 0.23438h3.8594c0.14062 0 0.23438-0.10938 0.23438-0.23438s-0.09375-0.23438-0.23438-0.23438zm0 1.7812h-3.8594c-0.125 0-0.21875 0.10938-0.21875 0.23438s0.09375 0.23438 0.21875 0.23438h3.8594c0.14062 0 0.23438-0.10938 0.23438-0.23438s-0.09375-0.23438-0.23438-0.23438z"/>
</g>
</defs>
<g transform="translate(-149.27 -130.26)">
<use x="148.71201" y="134.765" xlink:href="#b"/>
<use x="150.91" y="134.765" xlink:href="#a"/>
</g>
</svg>
