<?xml version="1.0" encoding="UTF-8"?>
<svg fill="#000000" version="1.1" viewBox="0 0 3.394 6.9062" xmlns="http://www.w3.org/2000/svg" xmlns:xlink="http://www.w3.org/1999/xlink">
<defs>
<g id="a">
<path d="m0.875-6.8125v0.29688c0.15625 0 0.29688 0 0.4375 0.03125 0.09375 0.015625 0.17188 0.03125 0.25 0.09375 0.125 0.15625 0.09375 0.40625 0.09375 0.59375v1.4688c-0.32812 0-0.65625 0.046875-0.95312 0.1875-0.14062 0.0625-0.26562 0.15625-0.35938 0.28125-0.25 0.35938-0.10938 0.875 0.20312 1.1562 0.21875 0.1875 0.51562 0.28125 0.8125 0.29688 0.09375 0.015625 0.20312 0.03125 0.29688 0v1.6875c0 0.09375 0 0.21875-0.078125 0.29688-0.0625 0.0625-0.15625 0.078125-0.23438 0.078125-0.15625 0.03125-0.3125 0.03125-0.46875 0.03125v0.29688l0.4375-0.015625 0.90625-0.015625 0.875 0.03125v-0.29688c-0.15625 0-0.29688 0-0.46875-0.03125-0.078125 0-0.15625-0.015625-0.21875-0.078125-0.078125-0.078125-0.078125-0.1875-0.078125-0.28125v-1.8438c0.125-0.03125 0.25-0.09375 0.375-0.15625 0.34375-0.17188 0.64062-0.39062 0.90625-0.65625v-0.015625l-0.14062-0.15625h-0.015625c-0.3125 0.32812-0.70312 0.57812-1.125 0.73438v-4.125zm0.78125 2.7188v1.4062c-0.20312 0-0.4375-0.0625-0.59375-0.1875-0.25-0.20312-0.39062-0.59375-0.1875-0.875 0.125-0.17188 0.3125-0.25 0.51562-0.3125 0.078125-0.015625 0.17188-0.015625 0.26562-0.03125z"/>
</g>
</defs>
<g transform="translate(-148.93 -127.84)">
<use x="148.71201" y="134.765" xlink:href="#a"/>
</g>
</svg>
