<?xml version="1.0" encoding="UTF-8"?>
<svg fill="#000000" version="1.1" viewBox="0 0 3.2344 7.0156" xmlns="http://www.w3.org/2000/svg" xmlns:xlink="http://www.w3.org/1999/xlink">
<defs>
<g id="a">
<path d="m1.1094-4.2969h-0.78125v0.3125h0.78125v3.2969c0 0.34375-0.29688 0.375-0.59375 0.375h-0.17188v0.29688h2.3906v-0.29688h-0.3125c-0.21875 0-0.45312-0.015625-0.5625-0.125-0.078125-0.09375-0.078125-0.21875-0.078125-0.34375v-3.2031h1.125v-0.3125h-1.1562v-1.3125c0-0.54688 0.375-1.2031 0.90625-1.2031 0.10938 0 0.25 0.015625 0.32812 0.078125-0.1875 0.046875-0.29688 0.21875-0.29688 0.42188 0 0.25 0.1875 0.42188 0.4375 0.42188s0.4375-0.20312 0.4375-0.42188c0-0.46875-0.48438-0.71875-0.90625-0.71875-0.90625 0-1.5469 0.70312-1.5469 1.6719z"/>
</g>
</defs>
<g transform="translate(-149.04 -127.73)">
<use x="148.71201" y="134.765" xlink:href="#a"/>
</g>
</svg>
