<?xml version="1.0" encoding="UTF-8"?>
<svg fill="#000000" version="1.1" viewBox="0 0 6.0938 5.7969" xmlns="http://www.w3.org/2000/svg" xmlns:xlink="http://www.w3.org/1999/xlink">
<defs>
<g id="a">
<path d="m3.7344-3.4375c0.09375 0 0.1875-0.015625 0.28125-0.015625 0.5625 0 0.96875 0.45312 0.96875 0.95312 0 0.51562-0.40625 0.96875-0.96875 0.96875-0.09375 0-0.1875-0.015625-0.28125-0.015625h-2.5625c-0.17188 0-0.34375 0-0.34375 0.20312s0.17188 0.20312 0.34375 0.20312h2.5312 0.3125c0.78125 0 1.375-0.625 1.375-1.3594s-0.59375-1.3438-1.375-1.3438h-0.3125-2.5312c-0.17188 0-0.34375 0-0.34375 0.20312s0.17188 0.20312 0.34375 0.20312zm0.10938-1.5469c1.5469 0 2.6719 1.1406 2.6719 2.4844 0 1.3594-1.1094 2.5-2.6719 2.5h-2.6719c-0.17188 0-0.34375 0-0.34375 0.20312s0.17188 0.20312 0.34375 0.20312h2.7031c1.6562 0 3.0469-1.2656 3.0469-2.9062 0-1.625-1.3906-2.8906-3.0469-2.8906h-2.7031c-0.17188 0-0.34375 0-0.34375 0.20312s0.17188 0.20312 0.34375 0.20312z"/>
</g>
</defs>
<g transform="translate(-149.54 -129.37)">
<use x="148.71201" y="134.765" xlink:href="#a"/>
</g>
</svg>
