<?xml version="1.0" encoding="UTF-8"?>
<svg fill="#000000" version="1.1" viewBox="0 0 6.0938 9.0781" xmlns="http://www.w3.org/2000/svg" xmlns:xlink="http://www.w3.org/1999/xlink">
<defs>
<g id="a">
<path d="m4.9219-4.1094 1.7969-0.84375c0.15625-0.078125 0.20312-0.14062 0.20312-0.21875 0-0.14062-0.125-0.20312-0.20312-0.20312-0.046875 0-0.09375 0.015625-0.15625 0.046875l-1.3438 0.64062 0.98438-1.9531c0.078125-0.14062 0.078125-0.15625 0.078125-0.20312 0-0.10938-0.09375-0.1875-0.20312-0.1875s-0.14062 0.046875-0.20312 0.1875l-1.25 2.4375-3.6094 1.6875c-0.125 0.0625-0.1875 0.10938-0.1875 0.21875 0 0.14062 0.078125 0.17188 0.20312 0.23438l2.0156 0.95312-1.4375 2.8438c-0.14062 0.25-0.14062 0.26562-0.14062 0.32812 0 0.10938 0.09375 0.1875 0.20312 0.1875 0 0 0.078125 0 0.125-0.0625 0.09375-0.09375 1.3906-2.6875 1.6094-3.125l2.7031 1.2656 0.35938 0.17188c0.1875 0.09375 0.20312 0.09375 0.25 0.09375 0.078125 0 0.20312-0.0625 0.20312-0.20312 0-0.09375-0.09375-0.15625-0.10938-0.17188-0.125-0.0625-2.7188-1.2656-3.2188-1.5156zm-0.57812 0.28125-1.1094 2.1562-1.7344-0.82812z"/>
</g>
</defs>
<g transform="translate(-149.54 -127.73)">
<use x="148.71201" y="134.765" xlink:href="#a"/>
</g>
</svg>
