<?xml version="1.0" encoding="UTF-8"?>
<svg fill="#000000" version="1.1" viewBox="0 0 7.4731 7.4782" xmlns="http://www.w3.org/2000/svg" xmlns:xlink="http://www.w3.org/1999/xlink">
<defs>
<g id="a">
<path d="m3.6719-6.2344c-0.1875 0.015625-0.35938 0.03125-0.54688 0.078125-0.46875 0.078125-0.92188 0.28125-1.3281 0.54688-0.39062 0.25-0.73438 0.59375-1.0156 1-0.625 0.90625-0.79688 2.1094-0.48438 3.1719 0.125 0.45312 0.35938 0.90625 0.65625 1.2812 0.21875 0.28125 0.5 0.53125 0.79688 0.71875 0.34375 0.25 0.73438 0.4375 1.1406 0.54688 0.42188 0.10938 0.875 0.15625 1.3125 0.10938 0.5625-0.046875 1.1094-0.21875 1.5938-0.51562 0.39062-0.21875 0.75-0.53125 1.0312-0.90625 0.28125-0.35938 0.5-0.78125 0.64062-1.2344 0.3125-1.0625 0.125-2.2188-0.48438-3.1406-0.20312-0.32812-0.46875-0.60938-0.78125-0.85938-0.34375-0.28125-0.75-0.48438-1.1719-0.625-0.29688-0.09375-0.60938-0.14062-0.92188-0.17188-0.125 0-0.29688-0.015625-0.4375 0zm-2 1.2344c0.17188-0.14062 0.34375-0.28125 0.54688-0.39062 0.46875-0.28125 1.0156-0.4375 1.5625-0.45312 0.6875-0.015625 1.375 0.1875 1.9531 0.5625 0.9375 0.64062 1.5469 1.7656 1.4844 2.9062-0.03125 0.53125-0.17188 1.0625-0.4375 1.5312-0.125 0.20312-0.26562 0.35938-0.40625 0.54688l-3.1406-3.125-1.0156-1.0312zm-0.29688 0.28125h0.015625l0.28125 0.29688 4.125 4.125 0.29688 0.28125c-0.21875 0.21875-0.48438 0.375-0.75 0.51562-0.89062 0.4375-1.9531 0.45312-2.8438 0.03125-0.39062-0.17188-0.75-0.4375-1.0469-0.73438-0.32812-0.35938-0.57812-0.76562-0.73438-1.2188-0.28125-0.79688-0.23438-1.7031 0.125-2.4688 0.078125-0.17188 0.15625-0.32812 0.26562-0.46875 0.09375-0.125 0.1875-0.23438 0.26562-0.35938z"/>
</g>
</defs>
<g transform="translate(-148.86 -128.52)">
<use x="148.71201" y="134.765" xlink:href="#a"/>
</g>
</svg>
