<?xml version="1.0" encoding="UTF-8"?>
<svg fill="#000000" version="1.1" viewBox="0 0 4.7969 4.6406" xmlns="http://www.w3.org/2000/svg" xmlns:xlink="http://www.w3.org/1999/xlink">
<defs>
<g id="a">
<path d="m0.82812-2.3125h4.3281c0.125 0 0.23438-0.10938 0.23438-0.23438s-0.10938-0.21875-0.23438-0.21875h-4.3281c-0.125 0-0.23438 0.09375-0.23438 0.21875s0.10938 0.23438 0.23438 0.23438zm2.1562-2.5469c-0.29688 0-0.53125 0.25-0.53125 0.53125 0 0.3125 0.25 0.54688 0.53125 0.54688 0.32812 0 0.54688-0.26562 0.54688-0.54688 0-0.3125-0.25-0.53125-0.54688-0.53125zm0 3.5625c-0.29688 0-0.53125 0.25-0.53125 0.54688s0.25 0.53125 0.53125 0.53125c0.32812 0 0.54688-0.26562 0.54688-0.53125 0-0.32812-0.25-0.54688-0.54688-0.54688z"/>
</g>
</defs>
<g transform="translate(-149.31 -129.91)">
<use x="148.71201" y="134.765" xlink:href="#a"/>
</g>
</svg>
