<?xml version="1.0" encoding="UTF-8"?>
<svg fill="#000000" version="1.1" viewBox="0 0 4.5067 4.5012" xmlns="http://www.w3.org/2000/svg" xmlns:xlink="http://www.w3.org/1999/xlink">
<defs>
<g id="a">
<path d="m1.8281-4.75c-0.046875 0.03125-0.0625 0.046875-0.09375 0.078125-0.046875 0.03125-0.09375 0.078125-0.09375 0.14062-0.015625 0.0625 0.03125 0.09375 0.046875 0.14062 0.078125 0.0625 0.14062 0.14062 0.21875 0.20312l1.5625 1.5625c0.03125 0.03125 0.09375 0.078125 0.09375 0.125-0.015625 0.046875-0.046875 0.078125-0.078125 0.09375l-0.15625 0.15625-0.625 0.64062-0.51562 0.5-0.375 0.375c-0.0625 0.0625-0.14062 0.125-0.17188 0.20312s0.03125 0.125 0.078125 0.1875c0.046875 0.046875 0.10938 0.10938 0.1875 0.078125 0.0625-0.03125 0.10938-0.078125 0.15625-0.14062l0.29688-0.28125 0.98438-1 0.39062-0.39062c0.03125-0.03125 0.09375-0.10938 0.15625-0.10938 0.046875 0.015625 0.09375 0.078125 0.125 0.10938l1.375 1.375c0.125 0.125 0.23438 0.23438 0.34375 0.35938 0.0625 0.046875 0.125 0.10938 0.20312 0.078125 0.0625-0.03125 0.15625-0.125 0.1875-0.20312 0.015625-0.078125 0-0.17188 0-0.26562v-3.5781c0-0.078125 0.03125-0.17188 0-0.25-0.03125-0.046875-0.09375-0.10938-0.14062-0.14062-0.09375-0.078125-0.17188-0.015625-0.25 0.046875l-1.4531 1.4531-0.28125 0.29688c-0.03125 0.03125-0.078125 0.078125-0.125 0.078125s-0.09375-0.046875-0.10938-0.078125l-1.7656-1.7656c-0.046875-0.046875-0.10938-0.10938-0.17188-0.078125zm3.9062 0.6875v3.125l-1.1562-1.1562-0.29688-0.28125-0.078125-0.125 0.078125-0.125 0.29688-0.28125z"/>
</g>
</defs>
<g transform="translate(-150.34 -130.01)">
<use x="148.71201" y="134.765" xlink:href="#a"/>
</g>
</svg>
