<?xml version="1.0" encoding="UTF-8"?>
<svg fill="#000000" version="1.1" viewBox="0 0 7.1094 4.5625" xmlns="http://www.w3.org/2000/svg" xmlns:xlink="http://www.w3.org/1999/xlink">
<defs>
<g id="a">
<path d="m7.7031-1.1094c0-0.28125-0.85938-0.84375-1.3594-1.4375 0.46875-0.5625 1.3594-1.1562 1.3594-1.4375 0-0.125-0.10938-0.21875-0.21875-0.21875-0.078125 0-0.14062 0.03125-0.1875 0.09375-0.53125 0.625-1.1719 1.1875-1.9844 1.3438h-0.92188l0.6875-1.875c0.03125-0.078125-0.03125-0.1875-0.14062-0.1875-0.0625 0-0.125 0.03125-0.14062 0.09375l-0.71875 1.9688h-2.0312c0.46875-0.46875 1.1562-0.96875 1.1562-1.2188 0-0.125-0.10938-0.21875-0.23438-0.21875-0.0625 0-0.125 0.03125-0.17188 0.09375-0.53125 0.625-1.1875 1.1875-2.0156 1.3438-0.10938 0.015625-0.1875 0.10938-0.1875 0.21875s0.078125 0.20312 0.1875 0.21875c0.82812 0.15625 1.4844 0.71875 2.0156 1.3438 0.046875 0.0625 0.10938 0.09375 0.17188 0.09375 0.125 0 0.23438-0.09375 0.23438-0.21875 0-0.23438-0.67188-0.71875-1.1562-1.2031h1.8594l-0.67188 1.8594c-0.03125 0.078125 0.03125 0.1875 0.14062 0.1875 0.0625 0 0.10938-0.03125 0.14062-0.09375l0.71875-1.9531h1.0781c0.8125 0.14062 1.4531 0.70312 1.9844 1.3281 0.046875 0.0625 0.10938 0.09375 0.1875 0.09375 0.10938 0 0.21875-0.09375 0.21875-0.21875z"/>
</g>
</defs>
<g transform="translate(-149.31 -129.94)">
<use x="148.71201" y="134.765" xlink:href="#a"/>
</g>
</svg>
