<?xml version="1.0" encoding="UTF-8"?>
<svg fill="#000000" version="1.1" viewBox="0 0 7 7.0218" xmlns="http://www.w3.org/2000/svg" xmlns:xlink="http://www.w3.org/1999/xlink">
<defs>
<g id="a">
<path d="m0.3125-6.8125v0.29688c0.17188 0 0.32812 0 0.46875 0.03125 0.125 0.03125 0.23438 0.078125 0.28125 0.20312 0.046875 0.15625 0.03125 0.32812 0.03125 0.48438v4.8438c0 0.14062 0.03125 0.32812-0.03125 0.46875-0.0625 0.09375-0.15625 0.14062-0.25 0.14062-0.17188 0.03125-0.32812 0.03125-0.5 0.03125v0.29688l0.4375-0.015625 0.92188-0.015625 0.90625 0.03125v-0.29688c-0.17188 0-0.32812 0-0.48438-0.03125-0.09375 0-0.1875-0.03125-0.23438-0.09375-0.078125-0.09375-0.0625-0.21875-0.0625-0.32812v-1.5c0-0.20312-0.015625-0.42188 0.015625-0.60938 0.046875-0.35938 0.20312-0.6875 0.45312-0.9375 0.078125-0.078125 0.17188-0.15625 0.26562-0.21875 0.32812-0.20312 0.85938-0.28125 1.125 0.078125 0.078125 0.078125 0.10938 0.1875 0.14062 0.29688 0.09375 0.35938 0.046875 0.75 0.0625 1.1094 0.015625 0.53125 0.09375 1.0469 0.3125 1.5469 0.14062 0.34375 0.375 0.65625 0.70312 0.84375 0.17188 0.10938 0.375 0.1875 0.59375 0.21875 0.125 0.03125 0.26562 0.046875 0.40625 0.03125 0.09375 0 0.17188-0.03125 0.26562-0.046875 0.64062-0.23438 0.92188-0.96875 1.0469-1.5781 0.015625-0.10938 0.046875-0.23438 0.0625-0.34375 0.015625-0.15625 0.03125-0.3125 0.046875-0.48438 0.015625-0.20312 0.015625-0.40625 0.015625-0.60938 0-0.34375 0-0.73438-0.14062-1.0625-0.046875-0.17188-0.1875-0.34375-0.375-0.39062-0.28125-0.046875-0.57812 0.25-0.48438 0.54688 0.0625 0.17188 0.20312 0.25 0.34375 0.34375 0.14062 0.125 0.26562 0.29688 0.34375 0.46875 0.09375 0.23438 0.0625 0.51562 0.03125 0.76562-0.015625 0.51562-0.10938 1.0625-0.35938 1.5156-0.125 0.28125-0.35938 0.54688-0.67188 0.625-0.0625 0.03125-0.14062 0.03125-0.23438 0.03125-0.46875 0.015625-0.79688-0.40625-0.9375-0.8125-0.20312-0.51562-0.26562-1.0938-0.26562-1.6406 0-0.48438 0.046875-1.0312-0.28125-1.4219-0.20312-0.26562-0.54688-0.375-0.85938-0.40625-0.15625-0.015625-0.32812-0.015625-0.48438 0.015625-0.40625 0.0625-0.78125 0.29688-1 0.625-0.0625 0.09375-0.125 0.20312-0.15625 0.3125h-0.015625v-3.4688z"/>
</g>
</defs>
<g transform="translate(-149.02 -127.84)">
<use x="148.71201" y="134.765" xlink:href="#a"/>
</g>
</svg>
