<?xml version="1.0" encoding="UTF-8"?>
<svg fill="#000000" version="1.1" viewBox="0 0 8.8556 1.7344" xmlns="http://www.w3.org/2000/svg" xmlns:xlink="http://www.w3.org/1999/xlink">
<defs>
<g id="a">
<path d="m2.0312-2.7031c0.15625-0.17188 0.29688-0.34375 0.45312-0.51562 0.10938-0.14062 0.23438-0.28125 0.34375-0.4375 0.046875-0.0625 0.10938-0.125 0.14062-0.21875 0.015625-0.015625 0.015625-0.015625 0.015625-0.046875 0-0.10938-0.15625-0.10938-0.23438-0.10938-0.03125 0-0.0625 0-0.09375 0.015625-0.0625 0.03125-0.125 0.09375-0.17188 0.14062-0.10938 0.09375-0.21875 0.20312-0.32812 0.28125-0.34375 0.28125-0.70312 0.51562-1.0781 0.75-0.09375 0.046875-0.20312 0.10938-0.3125 0.15625-0.0625 0.03125-0.125 0.0625-0.17188 0.10938s-0.046875 0.14062-0.03125 0.20312c0.03125 0.0625 0.09375 0.078125 0.15625 0.078125h0.375 7.875 0.28125c0.046875 0 0.10938 0 0.14062-0.0625 0.015625-0.03125 0.015625-0.078125 0.015625-0.125 0-0.0625 0.015625-0.125-0.03125-0.17188-0.03125-0.046875-0.078125-0.046875-0.14062-0.046875h-0.3125z"/>
</g>
</defs>
<g transform="translate(-149.27 -130.73)">
<use x="148.71201" y="134.765" xlink:href="#a"/>
</g>
</svg>
