<?xml version="1.0" encoding="UTF-8"?>
<svg fill="#000000" version="1.1" viewBox="0 0 6.0625 11.406" xmlns="http://www.w3.org/2000/svg" xmlns:xlink="http://www.w3.org/1999/xlink">
<defs>
<g id="a">
<path d="m2.5156-0.73438c-0.67188-0.32812-1.1406-1.0469-1.1406-1.875v-2.5312h-0.65625v2.5781c0 1.2188 0.65625 2.1406 1.6406 2.5l-0.32812 1.2969c-0.25 1.0156-0.48438 1.6406-0.95312 1.6406-0.078125 0-0.10938-0.03125-0.10938-0.078125 0-0.10938 0.17188-0.09375 0.17188-0.39062 0-0.15625-0.15625-0.25-0.29688-0.25-0.28125 0-0.53125 0.25-0.53125 0.57812 0 0.25 0.15625 0.45312 0.5625 0.45312 1.1094 0 1.7031-1.2031 1.9062-2.0156l0.26562-1.0781c0.09375 0 0.1875 0.015625 0.28125 0.015625 1.4844 0 2.6094-1.1094 2.6094-2.7031v-2.5469h-0.65625v2.5469c0 1.1406-0.89062 2.0469-1.9531 2.0469h-0.125l1.4062-5.5938c0.25-1.0469 0.5-1.7656 1-1.7656 0.078125 0 0.10938 0.03125 0.10938 0.078125 0 0.09375-0.17188 0.15625-0.17188 0.40625 0 0.17188 0.15625 0.25 0.3125 0.25 0.26562 0 0.51562-0.26562 0.51562-0.59375 0-0.23438-0.15625-0.45312-0.54688-0.45312-1.2031 0-1.7812 1.375-1.9844 2.1719z"/>
</g>
</defs>
<g transform="translate(-149.02 -126.51)">
<use x="148.71201" y="134.72501" xlink:href="#a"/>
</g>
</svg>
