<?xml version="1.0" encoding="UTF-8"?>
<svg fill="#000000" width="9.3906" height="9.9688" version="1.1" viewBox="0 0 9.3906 9.9687" xmlns="http://www.w3.org/2000/svg" xmlns:xlink="http://www.w3.org/1999/xlink">
<defs>
<g id="a">
<path d="m4.2031 5.3281-3.5469 4.375c-0.078125 0.09375-0.09375 0.10938-0.09375 0.15625 0 0.10938 0.09375 0.10938 0.28125 0.10938h8.25l0.85938-2.4844h-0.25c-0.25 0.75-0.90625 1.3594-1.7656 1.6406-0.15625 0.0625-0.84375 0.29688-2.3125 0.29688h-4.2344l3.4688-4.2812c0.0625-0.09375 0.078125-0.10938 0.078125-0.15625s0-0.046875-0.0625-0.14062l-3.2344-4.4375h3.9375c1.1406 0 3.4375 0.0625 4.125 1.9219h0.25l-0.85938-2.3281h-8.25c-0.28125 0-0.28125 0.015625-0.28125 0.3125z"/>
</g>
</defs>
<g transform="translate(-149.27 -127.29)">
<use x="148.71201" y="127.293" xlink:href="#a"/>
</g>
</svg>
