<?xml version="1.0" encoding="UTF-8"?>
<svg fill="#000000" version="1.1" viewBox="0 0 6.1028 8.8468" xmlns="http://www.w3.org/2000/svg" xmlns:xlink="http://www.w3.org/1999/xlink">
<defs>
<g id="a">
<path d="m3.9531-3.0938c-0.17188 0.28125-0.29688 0.57812-0.4375 0.875-0.03125 0.0625-0.0625 0.14062-0.10938 0.20312-0.015625 0.046875-0.03125 0.078125-0.0625 0.09375-0.046875 0.015625-0.14062 0.015625-0.1875 0.015625h-2.1094c-0.0625 0-0.14062-0.015625-0.17188 0.03125-0.03125 0.03125-0.046875 0.078125-0.046875 0.10938 0 0.078125-0.015625 0.20312 0.0625 0.23438 0.046875 0.015625 0.09375 0.015625 0.125 0.015625h2.1406c-0.15625 0.34375-0.32812 0.70312-0.5 1.0312-0.26562 0.53125-0.51562 1.0469-0.78125 1.5625-0.09375 0.20312-0.20312 0.40625-0.3125 0.60938-0.03125 0.078125-0.0625 0.20312 0.046875 0.21875 0.03125 0.015625 0.0625 0.015625 0.078125 0.015625 0.0625 0 0.15625 0.015625 0.21875-0.03125s0.09375-0.14062 0.125-0.21875c0.078125-0.17188 0.15625-0.32812 0.23438-0.5 0.32812-0.64062 0.64062-1.2656 0.96875-1.9062 0.078125-0.1875 0.17188-0.35938 0.25-0.53125 0.03125-0.0625 0.0625-0.1875 0.14062-0.23438 0.046875-0.03125 0.15625-0.015625 0.21875-0.015625h2.6875v1.9531c0 0.09375-0.015625 0.17188 0 0.26562 0.015625 0.10938 0.125 0.10938 0.21875 0.10938 0.046875 0 0.10938 0 0.14062-0.03125 0.03125-0.046875 0.03125-0.10938 0.03125-0.15625v-6.0938c0-0.09375 0.03125-0.26562-0.03125-0.32812-0.046875-0.03125-0.09375-0.03125-0.14062-0.03125s-0.10938 0-0.15625 0.03125c-0.046875 0.015625-0.0625 0.0625-0.0625 0.10938v0.26562 1.9375h-1.9375c0.15625-0.35938 0.34375-0.71875 0.51562-1.0625 0.28125-0.53125 0.53125-1.0625 0.79688-1.6094l0.21875-0.42188c0.03125-0.078125 0.078125-0.14062 0.09375-0.21875 0.015625-0.14062-0.14062-0.125-0.23438-0.125-0.03125 0-0.078125 0-0.10938 0.015625-0.078125 0.03125-0.10938 0.14062-0.14062 0.21875-0.10938 0.1875-0.1875 0.39062-0.29688 0.57812-0.29688 0.60938-0.60938 1.25-0.92188 1.8594-0.078125 0.17188-0.17188 0.35938-0.25 0.51562-0.03125 0.078125-0.0625 0.17188-0.125 0.21875-0.046875 0.046875-0.15625 0.03125-0.21875 0.03125h-2.8125c-0.078125 0-0.15625-0.03125-0.21875 0.015625-0.078125 0.046875-0.0625 0.125-0.0625 0.20312 0 0.03125 0 0.0625 0.015625 0.09375 0 0.03125 0.03125 0.046875 0.046875 0.0625 0.03125 0.03125 0.09375 0.015625 0.14062 0.015625zm-0.14062 1.1875 0.40625-0.82812 0.17188-0.34375 0.17188-0.015625h1.9688v1.1875z"/>
</g>
</defs>
<g transform="translate(-149.54 -127.84)">
<use x="148.71201" y="134.765" xlink:href="#a"/>
</g>
</svg>
