<?xml version="1.0" encoding="UTF-8"?>
<svg fill="#000000" version="1.1" viewBox="0 0 4.7969 6.4531" xmlns="http://www.w3.org/2000/svg" xmlns:xlink="http://www.w3.org/1999/xlink">
<defs>
<g id="a">
<path d="m3.1562-3.3906-0.32812 1.2812h-1.9375v0.64062h1.7656l-0.5 1.8125 0.5625 0.14062 0.53125-1.9531h2.4375v-0.64062h-2.2656l0.25-0.96875c0.21875 0.10938 0.46875 0.17188 0.71875 0.17188 0.53125 0 0.90625-0.40625 1.2969-0.79688l-0.39062-0.375c-0.25 0.26562-0.54688 0.54688-0.92188 0.54688-0.1875 0-0.35938-0.078125-0.53125-0.17188l0.57812-2.125-0.5625-0.14062-0.51562 1.9062c-0.32812-0.25-0.71875-0.4375-1.1562-0.4375-0.51562 0-0.90625 0.42188-1.2969 0.79688l0.39062 0.375c0.25-0.26562 0.54688-0.53125 0.92188-0.53125s0.67188 0.25 0.95312 0.46875z"/>
</g>
</defs>
<g transform="translate(-149.6 -128.8)">
<use x="148.71201" y="134.765" xlink:href="#a"/>
</g>
</svg>
