<?xml version="1.0" encoding="UTF-8"?>
<svg fill="#000000" version="1.1" viewBox="0 0 4.3125 11.594" xmlns="http://www.w3.org/2000/svg" xmlns:xlink="http://www.w3.org/1999/xlink">
<defs>
<g id="a">
<path d="m0.5625-6.4062c0 0.0625 0.015625 0.125 0.078125 0.17188 0.73438 0.60938 1.5625 1.2188 2.4844 1.5625l-0.03125 0.10938c-0.90625 0.32812-1.7344 0.9375-2.4531 1.5469-0.0625 0.046875-0.078125 0.10938-0.078125 0.17188 0 0.125 0.078125 0.23438 0.21875 0.23438 0.0625 0 0.10938-0.015625 0.14062-0.0625 0.65625-0.53125 1.3281-1.0156 2.0312-1.3281l-0.625 2.3125c-0.1875-0.14062-0.39062-0.21875-0.625-0.21875-0.92188 0-1.1406 1.1562-1.1406 1.3906 0 0.125 0.046875 0.28125 0.21875 0.28125 0.10938 0 0.21875-0.09375 0.23438-0.21875 0.03125-0.375 0.23438-1 0.6875-1 0.1875 0 0.34375 0.09375 0.5 0.23438l-0.29688 1.125c-0.0625-0.015625-0.125-0.03125-0.20312-0.03125-0.92188 0-1.1406 1.1562-1.1406 1.375 0 0.14062 0.046875 0.29688 0.21875 0.29688 0.10938 0 0.21875-0.09375 0.23438-0.21875 0.03125-0.375 0.23438-0.98438 0.6875-0.98438h0.078125l-0.71875 2.7188c-0.03125 0.09375 0.03125 0.1875 0.14062 0.1875 0.0625 0 0.125-0.046875 0.14062-0.10938l0.71875-2.6875c0.48438 0.29688 0.92188 1.1094 1.6562 1.1094 0.92188 0 1.1562-1.1562 1.1562-1.3906 0-0.15625-0.0625-0.26562-0.23438-0.26562-0.10938 0-0.21875 0.078125-0.21875 0.20312-0.03125 0.375-0.25 1-0.70312 1-0.53125 0-0.92188-0.79688-1.5312-1.1094l0.26562-1c0.34375 0.35938 0.73438 0.78125 1.2656 0.78125 0.92188 0 1.1562-1.1562 1.1562-1.3906 0-0.14062-0.0625-0.28125-0.23438-0.28125-0.10938 0-0.21875 0.09375-0.21875 0.21875-0.03125 0.375-0.25 1-0.70312 1-0.40625 0-0.73438-0.46875-1.125-0.82812l0.70312-2.6406c0.4375-0.17188 0.875-0.25 1.3438-0.25 0.14062 0 0.23438-0.10938 0.23438-0.23438s-0.09375-0.23438-0.23438-0.23438c-0.375 0-0.75-0.0625-1.1094-0.17188l0.84375-3.125c0.015625-0.09375-0.03125-0.1875-0.14062-0.1875-0.0625 0-0.14062 0.046875-0.14062 0.10938l-0.84375 3.1094c-0.8125-0.3125-1.5781-0.84375-2.3281-1.4688-0.03125-0.03125-0.078125-0.046875-0.14062-0.046875-0.14062 0-0.21875 0.10938-0.21875 0.23438z"/>
</g>
</defs>
<g transform="translate(-149.27 -126.42)">
<use x="148.71201" y="134.765" xlink:href="#a"/>
</g>
</svg>
