<?xml version="1.0" encoding="UTF-8"?>
<svg fill="#000000" version="1.1" viewBox="0 0 6.6562 4.25" xmlns="http://www.w3.org/2000/svg" xmlns:xlink="http://www.w3.org/1999/xlink">
<defs>
<g id="a">
<path d="m7.2031-4.5c0-0.21875-0.078125-0.3125-0.14062-0.3125-0.046875 0-0.14062 0.046875-0.14062 0.28125-0.046875 0.6875-0.73438 1.0938-1.3906 1.0938-0.57812 0-1.0781-0.3125-1.5938-0.65625-0.53125-0.35938-1.0781-0.71875-1.7188-0.71875-0.9375 0-1.6719 0.70312-1.6719 1.625 0 0.21875 0.078125 0.29688 0.14062 0.29688 0.09375 0 0.14062-0.1875 0.14062-0.23438 0.046875-0.82812 0.85938-1.125 1.3906-1.125 0.57812 0 1.0781 0.29688 1.5938 0.65625 0.53125 0.35938 1.0781 0.71875 1.7188 0.71875 0.92188 0 1.6719-0.71875 1.6719-1.625zm0 2.3281c0-0.29688-0.125-0.3125-0.14062-0.3125-0.046875 0-0.14062 0.046875-0.14062 0.26562-0.046875 0.6875-0.73438 1.1094-1.3906 1.1094-0.57812 0-1.0781-0.3125-1.5938-0.67188-0.53125-0.35938-1.0781-0.71875-1.7188-0.71875-0.9375 0-1.6719 0.71875-1.6719 1.625 0 0.23438 0.078125 0.3125 0.14062 0.3125 0.09375 0 0.14062-0.1875 0.14062-0.23438 0.046875-0.84375 0.85938-1.1406 1.3906-1.1406 0.57812 0 1.0781 0.3125 1.5938 0.65625 0.53125 0.35938 1.0781 0.71875 1.7188 0.71875 0.95312 0 1.6719-0.73438 1.6719-1.6094z"/>
</g>
</defs>
<g transform="translate(-149.26 -129.95)">
<use x="148.71201" y="134.765" xlink:href="#a"/>
</g>
</svg>
