<?xml version="1.0" encoding="UTF-8"?>
<svg fill="#000000" version="1.1" viewBox="0 0 6.0938 9.2812" xmlns="http://www.w3.org/2000/svg" xmlns:xlink="http://www.w3.org/1999/xlink">
<defs>
<g id="a">
<path d="m6.7031-3.9844c0.10938-0.046875 0.21875-0.078125 0.21875-0.21875s-0.10938-0.17188-0.21875-0.21875l-5.5-2.3125c-0.10938-0.03125-0.14062-0.046875-0.17188-0.046875-0.10938 0-0.20312 0.078125-0.20312 0.1875 0 0.14062 0.09375 0.17188 0.20312 0.21875l5.1719 2.1719-5.1406 2.1562c-0.14062 0.0625-0.23438 0.10938-0.23438 0.23438 0 0.10938 0.09375 0.20312 0.20312 0.20312 0.03125 0 0.046875 0 0.1875-0.0625zm-0.10938 6.4375c0.09375 0.046875 0.10938 0.046875 0.125 0.046875 0.09375 0 0.20312-0.09375 0.20312-0.20312 0-0.14062-0.10938-0.17188-0.21875-0.21875l-5.1562-2.1719 5.1562-2.1562c0.10938-0.046875 0.21875-0.09375 0.21875-0.21875 0-0.10938-0.09375-0.20312-0.20312-0.20312-0.046875 0-0.0625 0-0.20312 0.0625l-5.4531 2.2969c-0.15625 0.0625-0.23438 0.09375-0.23438 0.21875 0 0.14062 0.09375 0.17188 0.20312 0.21875z"/>
</g>
</defs>
<g transform="translate(-149.54 -127.98)">
<use x="148.71201" y="134.765" xlink:href="#a"/>
</g>
</svg>
