<?xml version="1.0" encoding="UTF-8"?>
<svg fill="#000000" width="3.994" height="5.9688" version="1.1" viewBox="0 0 3.994 5.9687" xmlns="http://www.w3.org/2000/svg" xmlns:xlink="http://www.w3.org/1999/xlink">
<defs>
<g id="a">
<path d="m3.1562-4.0938c-0.25 0.29688-0.45312 0.60938-0.6875 0.90625-0.53125 0.71875-1.0469 1.4375-1.5781 2.1406-0.1875 0.23438-0.35938 0.48438-0.53125 0.71875-0.0625 0.078125-0.14062 0.21875-0.03125 0.29688 0.0625 0.046875 0.15625 0.015625 0.23438 0.015625h1.7969c0.29688 0 0.57812-0.015625 0.85938 0.0625 0.29688 0.046875 0.60938 0.1875 0.75 0.46875 0.15625 0.35938-0.078125 0.73438-0.4375 0.85938-0.1875 0.078125-0.40625 0.0625-0.60938 0.015625-0.125-0.015625-0.23438-0.0625-0.34375-0.09375-0.0625-0.015625-0.10938-0.0625-0.17188-0.0625-0.10938 0.015625-0.14062 0.14062-0.0625 0.20312 0.09375 0.0625 0.23438 0.09375 0.34375 0.125 0.34375 0.10938 0.75 0.14062 1.0781-0.03125 0.10938-0.0625 0.21875-0.14062 0.29688-0.21875 0.21875-0.26562 0.26562-0.625 0.125-0.92188-0.15625-0.32812-0.51562-0.51562-0.84375-0.59375-0.3125-0.078125-0.625-0.0625-0.95312-0.0625h-1.2656c0.23438-0.29688 0.45312-0.60938 0.67188-0.92188 0.48438-0.64062 0.96875-1.2812 1.4375-1.9219 0.1875-0.25 0.375-0.5 0.5625-0.75l0.10938-0.15625c0.046875-0.046875 0.078125-0.09375 0.078125-0.15625 0-0.10938-0.078125-0.14062-0.17188-0.14062h-0.59375-2.375c-0.078125 0-0.17188-0.015625-0.25 0.015625-0.09375 0.046875-0.078125 0.23438-0.078125 0.3125-0.03125 0.3125-0.0625 0.60938-0.078125 0.92188-0.015625 0.10938-0.0625 0.29688 0.046875 0.34375s0.17188-0.03125 0.1875-0.125c0.046875-0.35938 0.03125-0.8125 0.375-1.0469 0.20312-0.15625 0.46875-0.17188 0.70312-0.1875 0.1875-0.015625 0.375-0.015625 0.5625-0.015625z"/>
</g>
</defs>
<g transform="translate(-148.99 -130.45)">
<use x="148.71201" y="134.765" xlink:href="#a"/>
</g>
</svg>
