<?xml version="1.0" encoding="UTF-8"?>
<svg fill="#000000" version="1.1" viewBox="0 0 2.7432 2.1562" xmlns="http://www.w3.org/2000/svg" xmlns:xlink="http://www.w3.org/1999/xlink">
<defs>
<g id="a">
<path d="m0.89062-6.0156 0.89062-0.32812c0.1875-0.078125 0.375-0.14062 0.57812-0.21875 0.14062-0.046875 0.26562-0.09375 0.40625-0.15625 0.0625-0.015625 0.14062-0.046875 0.20312-0.09375 0.10938-0.078125 0.046875-0.28125-0.09375-0.28125-0.078125 0-0.14062 0.046875-0.21875 0.078125-0.14062 0.046875-0.26562 0.09375-0.40625 0.14062-0.45312 0.17188-0.89062 0.34375-1.3281 0.51562-0.17188 0.0625-0.32812 0.125-0.48438 0.17188-0.078125 0.03125-0.15625 0.078125-0.15625 0.17188s0.0625 0.14062 0.14062 0.17188c0.17188 0.0625 0.32812 0.125 0.5 0.1875 0.4375 0.15625 0.90625 0.34375 1.3438 0.51562l0.39062 0.14062c0.078125 0.03125 0.14062 0.0625 0.21875 0.0625 0.14062 0 0.20312-0.1875 0.09375-0.28125-0.0625-0.046875-0.14062-0.0625-0.21875-0.09375l-0.39062-0.15625-0.57812-0.20312c-0.29688-0.10938-0.59375-0.21875-0.89062-0.34375z"/>
</g>
</defs>
<g transform="translate(-148.99 -127.67)">
<use x="148.71201" y="134.765" xlink:href="#a"/>
</g>
</svg>
