<?xml version="1.0" encoding="UTF-8"?>
<svg fill="#000000" width="6.3594" height="6.9688" version="1.1" viewBox="0 0 6.3594 6.9687" xmlns="http://www.w3.org/2000/svg" xmlns:xlink="http://www.w3.org/1999/xlink">
<defs>
<g id="a">
<path d="m4.125-6.9062c-1.5625 0.046875-2.7656 1.2188-3.1094 2.7969h-0.65625l-0.125 0.46875h0.75v0.67188h-0.64062l-0.10938 0.46875h0.8125c0.32812 1.6406 1.4688 2.5625 3.1719 2.5625 0.98438-0.015625 1.7656-0.15625 2.3281-0.45312v-1.3438c-0.42188 0.9375-1.1406 1.4688-1.9844 1.4688-1.2188 0-2.0781-0.84375-2.3125-2.2344h3.1406l0.14062-0.46875h-3.3438c-0.015625-0.10938-0.015625-0.21875-0.015625-0.32812s0-0.21875 0.015625-0.34375h3.5312l0.15625-0.46875-3.6406 0.015625c0.20312-1.6875 0.92188-2.5 2.1562-2.5 0.92188 0 1.5156 0.51562 1.7969 1.5625l0.40625-1.3594c-0.71875-0.35938-1.4844-0.51562-2.4688-0.51562z"/>
</g>
</defs>
<g transform="translate(-148.95 -127.86)">
<use x="148.71201" y="134.765" xlink:href="#a"/>
</g>
</svg>
