<?xml version="1.0" encoding="UTF-8"?>
<svg fill="#000000" version="1.1" viewBox="0 0 8.8444 2.7914" xmlns="http://www.w3.org/2000/svg" xmlns:xlink="http://www.w3.org/1999/xlink">
<defs>
<g id="a">
<path d="m1.5312-2.2812c0.48438 0.34375 1.0625 0.59375 1.6406 0.75 0.70312 0.20312 1.4219 0.25 2.1562 0.21875 0.59375-0.015625 1.1875-0.10938 1.7656-0.29688 0.46875-0.17188 0.9375-0.39062 1.3438-0.67188 0 0.23438-0.03125 0.46875-0.03125 0.70312 0 0.17188-0.015625 0.35938-0.015625 0.53125 0 0.09375 0 0.1875 0.015625 0.28125 0.015625 0.0625 0.078125 0.09375 0.14062 0.078125s0.17188-0.09375 0.20312-0.15625c0.03125-0.078125 0.03125-0.15625 0.046875-0.23438 0.03125-0.14062 0.046875-0.26562 0.078125-0.40625 0.078125-0.42188 0.20312-0.82812 0.3125-1.2344l0.1875-0.51562c0.015625-0.0625 0.0625-0.14062 0-0.20312-0.046875-0.0625-0.14062-0.03125-0.21875-0.015625-0.17188 0.046875-0.35938 0.09375-0.53125 0.125-0.34375 0.046875-0.6875 0.09375-1.0156 0.09375-0.14062 0-0.28125 0.015625-0.42188 0-0.09375 0-0.1875-0.03125-0.28125 0-0.10938 0-0.32812 0.1875-0.1875 0.29688 0.046875 0.03125 0.10938 0.03125 0.15625 0.0625 0.10938 0.015625 0.20312 0.046875 0.29688 0.0625 0.125 0.03125 0.25 0.0625 0.35938 0.09375 0.21875 0.046875 0.4375 0.09375 0.65625 0.10938-0.14062 0.125-0.32812 0.21875-0.48438 0.29688-0.23438 0.125-0.46875 0.23438-0.73438 0.3125-1.1875 0.39062-2.5156 0.40625-3.7031 0.078125-0.34375-0.09375-0.65625-0.21875-0.96875-0.375-0.17188-0.078125-0.35938-0.17188-0.51562-0.3125 0.21875-0.015625 0.4375-0.0625 0.65625-0.10938 0.10938-0.03125 0.23438-0.0625 0.35938-0.09375 0.09375-0.015625 0.1875-0.046875 0.29688-0.0625 0.046875-0.03125 0.10938-0.03125 0.15625-0.0625 0.14062-0.10938-0.078125-0.29688-0.1875-0.29688-0.09375-0.03125-0.1875 0-0.28125 0-0.14062 0.015625-0.28125 0-0.42188 0-0.32812 0-0.67188-0.046875-1.0156-0.09375-0.17188-0.03125-0.35938-0.078125-0.53125-0.125-0.078125-0.015625-0.17188-0.046875-0.21875 0.015625-0.0625 0.0625-0.015625 0.14062 0 0.20312l0.1875 0.51562c0.10938 0.40625 0.23438 0.8125 0.3125 1.2344 0.03125 0.14062 0.046875 0.26562 0.078125 0.40625 0.015625 0.078125 0.015625 0.15625 0.046875 0.23438 0.03125 0.0625 0.14062 0.14062 0.20312 0.15625s0.125-0.015625 0.14062-0.078125c0.015625-0.09375 0.015625-0.1875 0.015625-0.28125 0-0.17188-0.015625-0.35938-0.015625-0.53125 0-0.23438-0.03125-0.46875-0.03125-0.70312z"/>
</g>
</defs>
<g transform="translate(-149.27 -131.29)">
<use x="148.71201" y="134.765" xlink:href="#a"/>
</g>
</svg>
