<?xml version="1.0" encoding="UTF-8"?>
<svg fill="#000000" version="1.1" viewBox="0 0 5.875 12.234" xmlns="http://www.w3.org/2000/svg" xmlns:xlink="http://www.w3.org/1999/xlink">
<defs>
<g id="a">
<path d="m6.2344-4.0312v-0.64062l-4.0625-1.6719 4.0625-1.6562v-0.64062l-5.6406 2.25v0.09375zm-0.09375 0.4375c-0.15625 0.71875-0.48438 1.375-1.1719 1.375-0.71875 0-1.7812-1.2656-2.75-1.2656s-1.5781 1.0312-1.625 2.0312h0.32812c0.17188-0.70312 0.53125-1.375 1.2344-1.375 0.71875 0 1.7812 1.2656 2.7344 1.2656 0.98438 0 1.5156-1.1719 1.5781-2.0312zm0.09375 4.9219v-0.10938l-5.6406-2.2344v0.64062l4.0625 1.6562-4.0625 1.6719v0.64062z"/>
</g>
</defs>
<g transform="translate(-149.31 -126.12)">
<use x="148.71201" y="134.765" xlink:href="#a"/>
</g>
</svg>
