<?xml version="1.0" encoding="UTF-8"?>
<svg fill="#000000" version="1.1" viewBox="0 0 12.953 12.578" xmlns="http://www.w3.org/2000/svg" xmlns:xlink="http://www.w3.org/1999/xlink">
<defs>
<g id="a">
<path d="m13.469 0.78125c0-0.54688-0.6875-0.78125-1.1406-0.78125-1.9531 0-2.2656 2.9062-2.2656 4.3125v0.015625h-2.5v-0.046875c0-0.82812-0.10938-3.9844 1.2031-3.9844 0.10938 0 0.23438 0.03125 0.32812 0.125-0.03125 0.0625-0.046875 0.10938-0.046875 0.1875 0 0.29688 0.39062 0.59375 0.6875 0.59375 0.21875 0 0.28125-0.21875 0.28125-0.42188 0-0.54688-0.6875-0.78125-1.1406-0.78125-1.9531 0-2.2656 2.9062-2.2656 4.3125v0.015625h-2.5v-0.046875c0-0.82812-0.10938-3.9844 1.2188-3.9844 0.10938 0 0.23438 0.03125 0.3125 0.125-0.03125 0.0625-0.03125 0.10938-0.03125 0.1875 0 0.29688 0.375 0.59375 0.67188 0.59375 0.23438 0 0.28125-0.21875 0.28125-0.42188 0-0.54688-0.6875-0.78125-1.1406-0.78125-1.9375 0-2.2656 2.9062-2.2656 4.3125v0.015625h-1.8438v4.3594h1.5938c0 0.25-0.03125 0.46875-0.03125 0.71875-0.015625 0.78125 0.078125 2.8594-1.125 2.8594-0.10938 0-0.25-0.03125-0.32812-0.125 0.03125-0.04687 0.046875-0.125 0.046875-0.17188 0-0.3125-0.39062-0.60938-0.6875-0.60938-0.21875 0-0.26562 0.25-0.26562 0.42188 0 0.5625 0.67188 0.79688 1.125 0.79688 1.6562 0 1.9688-2.4062 2.125-3.6406l0.015625-0.25h2.5625c0 0.25 0 0.46875-0.015625 0.71875-0.015625 0.78125 0.078125 2.8594-1.1406 2.8594-0.10938 0-0.23438-0.03125-0.3125-0.125 0.015625-0.04687 0.046875-0.125 0.046875-0.17188 0-0.3125-0.39062-0.60938-0.6875-0.60938-0.23438 0-0.28125 0.25-0.28125 0.42188 0 0.5625 0.6875 0.79688 1.125 0.79688 1.6562 0 1.9844-2.4062 2.125-3.6406l0.03125-0.25h2.5625c0 0.25-0.015625 0.46875-0.03125 0.71875-0.015625 0.78125 0.078125 2.8594-1.125 2.8594-0.10938 0-0.23438-0.03125-0.3125-0.125 0.015625-0.04687 0.03125-0.125 0.03125-0.17188 0-0.3125-0.39062-0.60938-0.6875-0.60938-0.21875 0-0.26562 0.25-0.26562 0.42188 0 0.5625 0.67188 0.79688 1.125 0.79688 1.6562 0 1.9688-2.4062 2.125-3.6406l0.03125-0.25h1.8906v-4.3594h-1.5625v-0.046875c0-0.82812-0.125-3.9844 1.2031-3.9844 0.10938 0 0.23438 0.03125 0.32812 0.125-0.03125 0.0625-0.04687 0.10938-0.04687 0.1875 0 0.29688 0.39062 0.59375 0.67188 0.59375 0.21875 0 0.29688-0.21875 0.29688-0.42188zm-1.4062 7.4062h-1.3438c0.125-1.1094 0.17188-2.2344 0.25-3.3594h1.0938zm-2.0312-3.3594c-0.09375 1.125-0.15625 2.2344-0.21875 3.3594h-2.5312c0.10938-1.1094 0.17188-2.2344 0.25-3.3594zm-3.4531 0c-0.078125 1.125-0.14062 2.2344-0.20312 3.3594h-2.5312l0.23438-3.3594zm-3.4531 0c-0.078125 1.125-0.14062 2.2344-0.1875 3.3594h-1.1406v-3.3594z"/>
</g>
</defs>
<g transform="translate(-149.23 -125.92)">
<use x="148.71201" y="125.923" xlink:href="#a"/>
</g>
</svg>
