<?xml version="1.0" encoding="UTF-8"?>
<svg fill="#000000" version="1.1" viewBox="0 0 6.625 6.6094" xmlns="http://www.w3.org/2000/svg" xmlns:xlink="http://www.w3.org/1999/xlink">
<defs>
<g id="a">
<path d="m0.96875-2.7969c0.0625-0.65625 0.35938-1.2812 0.82812-1.7656 0.5625-0.54688 1.2969-0.84375 2.0781-0.84375 0.65625 0 1.3125 0.23438 1.8281 0.65625zm0.5625-2.0312c-0.64062 0.60938-0.98438 1.4531-0.98438 2.3281 0 0.89062 0.34375 1.7344 0.98438 2.3438 0.60938 0.625 1.4531 0.96875 2.3438 0.96875 0.875 0 1.7188-0.34375 2.3281-0.96875 0.625-0.60938 0.96875-1.4531 0.96875-2.3438 0-0.875-0.34375-1.7188-0.96875-2.3281-0.60938-0.625-1.4531-0.96875-2.3281-0.96875-0.89062 0-1.7344 0.34375-2.3438 0.96875zm4.4844 4.2969-4.7344-1.9688 4.7344-1.9531c0.5 0.53125 0.76562 1.2344 0.76562 1.9531 0 0.73438-0.26562 1.4375-0.76562 1.9688zm-4.2188 0.10938c-0.46875-0.48438-0.76562-1.1094-0.82812-1.7656l4.7344 1.9531c-0.51562 0.42188-1.1719 0.65625-1.8281 0.65625-0.78125 0-1.5156-0.29688-2.0781-0.84375z"/>
</g>
</defs>
<g transform="translate(-149.26 -128.97)">
<use x="148.71201" y="134.765" xlink:href="#a"/>
</g>
</svg>
