<?xml version="1.0" encoding="UTF-8"?>
<svg fill="#000000" version="1.1" viewBox="0 0 6.1116 6.7383" xmlns="http://www.w3.org/2000/svg" xmlns:xlink="http://www.w3.org/1999/xlink">
<defs>
<g id="a">
<path d="m1.2188-1.5625v-3.4688h5.4531c0.0625 0 0.15625 0.03125 0.21875-0.015625 0.0625-0.0625 0.046875-0.20312 0.03125-0.28125s-0.078125-0.09375-0.15625-0.09375h-0.46875-5.125c-0.078125 0-0.21875-0.015625-0.28125 0.015625-0.078125 0.046875-0.0625 0.15625-0.0625 0.25v3.6875c0 0.078125-0.015625 0.1875 0.015625 0.26562 0.03125 0.03125 0.078125 0.046875 0.14062 0.046875h0.20312 5.4062c0.078125 0 0.21875 0.03125 0.29688-0.03125 0.0625-0.046875 0.046875-0.17188 0.03125-0.25-0.015625-0.15625-0.20312-0.125-0.3125-0.125zm2.2031 1.9844c-0.15625 0.20312-0.35938 0.39062-0.54688 0.59375-0.046875 0.0625-0.15625 0.17188-0.078125 0.25 0.03125 0.046875 0.09375 0.046875 0.14062 0.046875 0.10938 0 0.20312 0 0.28125-0.0625 0.0625-0.0625 0.125-0.14062 0.1875-0.20312 0.10938-0.125 0.21875-0.25 0.34375-0.375 0.03125-0.046875 0.09375-0.10938 0.14062-0.15625l0.09375-0.09375c0.046875-0.015625 0.14062 0 0.21875 0h2.4219c0.078125 0 0.15625 0 0.21875-0.015625 0.078125-0.015625 0.078125-0.09375 0.078125-0.17188s0.015625-0.1875-0.09375-0.21875h-0.15625-2.3281c0.15625-0.20312 0.34375-0.39062 0.53125-0.59375 0.0625-0.0625 0.17188-0.17188 0.078125-0.25-0.03125-0.046875-0.09375-0.046875-0.14062-0.046875-0.09375 0-0.20312 0-0.28125 0.0625-0.0625 0.0625-0.10938 0.14062-0.17188 0.20312-0.125 0.125-0.23438 0.25-0.35938 0.375-0.03125 0.0625-0.078125 0.10938-0.125 0.17188-0.03125 0.015625-0.0625 0.046875-0.09375 0.078125-0.0625 0.03125-0.15625 0-0.21875 0h-2.4375c-0.0625 0-0.14062 0-0.21875 0.015625s-0.078125 0.09375-0.078125 0.17188c0 0.09375-0.015625 0.20312 0.09375 0.21875h0.17188z"/>
</g>
</defs>
<g transform="translate(-149.54 -129.34)">
<use x="148.71201" y="134.765" xlink:href="#a"/>
</g>
</svg>
