<?xml version="1.0" encoding="UTF-8"?>
<svg fill="#000000" version="1.1" viewBox="0 0 4.9375 7.0469" xmlns="http://www.w3.org/2000/svg" xmlns:xlink="http://www.w3.org/1999/xlink">
<defs>
<g id="a">
<path d="m3.5625-2.9062c0.40625 1.0469 0.89062 2.5625 1.0469 2.7969 0.15625 0.21875 0.25 0.21875 0.53125 0.21875h0.21875c0.09375-0.015625 0.10938-0.0625 0.10938-0.09375s-0.03125-0.0625-0.0625-0.09375c-0.09375-0.10938-0.15625-0.26562-0.21875-0.45312l-2.0312-5.6719c-0.21875-0.57812-0.75-0.71875-1.2188-0.71875-0.046875 0-0.1875 0-0.1875 0.10938 0 0.078125 0.078125 0.10938 0.09375 0.10938 0.32812 0.046875 0.40625 0.10938 0.65625 0.79688l0.95312 2.7031-2.75 2.7344c-0.10938 0.125-0.17188 0.17188-0.17188 0.3125 0 0.17188 0.14062 0.28125 0.29688 0.28125s0.25-0.10938 0.32812-0.20312z"/>
</g>
</defs>
<g transform="translate(-149.24 -127.84)">
<use x="148.71201" y="134.765" xlink:href="#a"/>
</g>
</svg>
