<?xml version="1.0" encoding="UTF-8"?>
<svg fill="#000000" version="1.1" viewBox="0 0 5.5469 7.1562" xmlns="http://www.w3.org/2000/svg" xmlns:xlink="http://www.w3.org/1999/xlink">
<defs>
<g id="a">
<path d="m2.4219-3.625h-0.70312c-0.078125 0-0.15625 0.03125-0.15625 0.14062 0 0.15625 0.09375 0.17188 0.21875 0.17188h0.64062v1.7188l-0.015625 0.3125c-0.20312-0.078125-0.4375-0.125-0.65625-0.125-0.5625 0-1.2031 0.32812-1.2031 0.92188 0 0.34375 0.375 0.59375 0.82812 0.59375 0.48438 0 0.95312-0.23438 1.25-0.5625 0.046875-0.046875 0.09375-0.125 0.14062-0.14062 0.0625 0 0.15625 0.078125 0.20312 0.10938 0.5 0.28125 1.0625 0.57812 1.6406 0.57812 0.78125 0 1.4844-0.60938 1.4844-1.4219 0-0.078125-0.015625-0.15625-0.125-0.15625-0.17188 0-0.14062 0.29688-0.1875 0.45312-0.15625 0.4375-0.59375 0.70312-1.0469 0.70312-0.4375 0-0.875-0.21875-1.25-0.42188-0.17188-0.09375-0.32812-0.20312-0.5-0.26562 0.125-0.3125 0.14062-0.625 0.14062-0.95312v-1.3438h0.95312c0.10938 0 0.17188-0.046875 0.17188-0.15625 0-0.15625-0.09375-0.15625-0.21875-0.15625h-0.90625v-1.4375c0-0.57812 0-1.4219 0.75-1.7188 0.10938-0.03125 0.20312-0.046875 0.29688-0.046875 0.6875 0 1.1875 0.59375 1.3438 1.2031-0.046875-0.015625-0.10938-0.03125-0.15625-0.03125-0.26562 0-0.46875 0.1875-0.46875 0.4375s0.17188 0.48438 0.46875 0.48438c0.26562 0 0.45312-0.21875 0.45312-0.48438 0-0.90625-0.65625-1.8281-1.6719-1.8281-0.90625 0-1.625 0.73438-1.7188 1.7344zm-0.125 2.7969c-0.14062 0.375-0.5 0.70312-0.90625 0.70312-0.1875 0-0.48438-0.09375-0.48438-0.35938 0-0.34375 0.42188-0.46875 0.70312-0.46875h0.078125c0.21875 0 0.40625 0.078125 0.60938 0.125z"/>
</g>
</defs>
<g transform="translate(-149.26 -127.72)">
<use x="148.71201" y="134.765" xlink:href="#a"/>
</g>
</svg>
