<?xml version="1.0" encoding="UTF-8"?>
<svg fill="#000000" width="5.4219" height="7.0938" version="1.1" viewBox="0 0 5.4219 7.0937" xmlns="http://www.w3.org/2000/svg" xmlns:xlink="http://www.w3.org/1999/xlink">
<defs>
<g id="a">
<path d="m3.6406-3.0469v-0.40625l-0.17188-0.375c0.10938-0.0625 0.1875-0.15625 0.23438-0.25l0.39062 0.17188h0.40625c-0.14062 0.45312-0.4375 0.73438-0.85938 0.85938zm-2.4375-0.85938c0.1875 0.84375 0.71875 1.3594 1.5625 1.5625v2.3125h0.875v-2.3125c0.82812-0.20312 1.3594-0.73438 1.5469-1.5625h0.71875v-0.9375h-0.71875c-0.1875-0.84375-0.71875-1.3594-1.5469-1.5625v-0.71875h-0.875v0.70312c-0.84375 0.21875-1.375 0.73438-1.5625 1.5781h-0.71875v0.9375zm1.0938 0 0.375-0.17188c0.0625 0.10938 0.14062 0.1875 0.25 0.25l-0.15625 0.375v0.40625c-0.45312-0.14062-0.73438-0.42188-0.875-0.85938zm0.375-0.78125-0.375-0.15625h-0.40625c0.14062-0.4375 0.4375-0.73438 0.875-0.875v0.42188l0.15625 0.375c-0.10938 0.0625-0.1875 0.14062-0.25 0.23438zm0.79688-0.23438 0.17188-0.375v-0.42188c0.39062 0.15625 0.73438 0.48438 0.85938 0.875h-0.40625l-0.39062 0.15625c-0.046875-0.09375-0.14062-0.1875-0.23438-0.23438z"/>
</g>
</defs>
<g transform="translate(-149.2 -127.64)">
<use x="148.71201" y="134.765" xlink:href="#a"/>
</g>
</svg>
