<?xml version="1.0" encoding="UTF-8"?>
<svg fill="#000000" version="1.1" viewBox="0 0 4.507 4.5029" xmlns="http://www.w3.org/2000/svg" xmlns:xlink="http://www.w3.org/1999/xlink">
<defs>
<g id="a">
<path d="m1.8281-4.75c-0.078125 0.03125-0.17188 0.14062-0.1875 0.20312-0.03125 0.078125-0.015625 0.1875-0.015625 0.26562v3.5781c0 0.078125-0.015625 0.1875 0.015625 0.25s0.078125 0.125 0.14062 0.15625c0.078125 0.078125 0.15625 0.03125 0.21875-0.046875l0.32812-0.32812 1.1406-1.125 0.29688-0.29688c0.015625-0.03125 0.0625-0.09375 0.10938-0.09375s0.09375 0.0625 0.125 0.09375l0.28125 0.29688 1.125 1.125c0.125 0.10938 0.23438 0.23438 0.35938 0.34375 0.046875 0.046875 0.10938 0.09375 0.17188 0.0625 0.03125-0.015625 0.0625-0.046875 0.09375-0.078125 0.046875-0.03125 0.09375-0.078125 0.09375-0.14062 0-0.046875-0.03125-0.078125-0.0625-0.125-0.078125-0.078125-0.15625-0.14062-0.21875-0.21875l-1.2344-1.2344-0.32812-0.3125c-0.03125-0.03125-0.09375-0.09375-0.078125-0.14062 0-0.03125 0.046875-0.0625 0.0625-0.09375l0.78125-0.78125 0.51562-0.5 0.375-0.39062c0.0625-0.0625 0.14062-0.10938 0.1875-0.1875 0.015625-0.078125-0.03125-0.14062-0.078125-0.1875-0.0625-0.046875-0.10938-0.125-0.1875-0.09375-0.0625 0.03125-0.125 0.09375-0.17188 0.14062l-0.28125 0.29688-1 1-0.39062 0.375c-0.03125 0.03125-0.09375 0.125-0.14062 0.10938-0.0625 0-0.10938-0.078125-0.14062-0.10938l-1.7344-1.7344c-0.046875-0.046875-0.10938-0.10938-0.17188-0.078125zm0.20312 3.8125v-3.125l1.4375 1.4375 0.09375 0.125-0.09375 0.125z"/>
</g>
</defs>
<g transform="translate(-150.33 -130.01)">
<use x="148.71201" y="134.765" xlink:href="#a"/>
</g>
</svg>
