<?xml version="1.0" encoding="UTF-8"?>
<svg fill="#000000" version="1.1" viewBox="0 0 9.5938 3.5469" xmlns="http://www.w3.org/2000/svg" xmlns:xlink="http://www.w3.org/1999/xlink">
<defs>
<g id="a">
<path d="m7.4531-2.6875c-0.53125 0-0.95312 0.3125-1.3594 0.59375-0.375 0.26562-0.71875 0.51562-1.1094 0.51562-0.57812 0-1.0312-0.5-1.5156-1.0469-0.51562-0.57812-1.0469-1.1875-1.7969-1.1875-0.78125 0-1.3125 0.60938-1.8125 1.1875-0.03125 0.03125-0.046875 0.078125-0.046875 0.125 0 0.125 0.09375 0.20312 0.1875 0.20312 0.0625 0 0.10938-0.015625 0.15625-0.0625 0.48438-0.54688 0.9375-1.0625 1.5156-1.0625 0.5625 0 1.0156 0.51562 1.5 1.0625 0.5 0.57812 1.0625 1.1875 1.8125 1.1875 0.51562 0 0.95312-0.29688 1.3438-0.60938 0.375-0.26562 0.73438-0.51562 1.125-0.51562h1.1094c-0.48438 0.35938-0.84375 0.82812-1.0625 1.4219 0 0.015625-0.015625 0.03125-0.015625 0.046875 0 0.0625 0.046875 0.10938 0.10938 0.10938h0.09375c0.03125 0 0.09375-0.03125 0.09375-0.0625 0.29688-0.76562 0.8125-1.2969 1.5625-1.6094 0.046875-0.015625 0.0625-0.046875 0.0625-0.10938 0-0.046875-0.015625-0.078125-0.0625-0.09375-0.75-0.3125-1.2656-0.84375-1.5625-1.6094 0-0.03125-0.0625-0.0625-0.09375-0.0625h-0.078125c-0.078125 0-0.125 0.046875-0.125 0.10938 0 0.015625 0.015625 0.03125 0.015625 0.046875 0.21875 0.59375 0.57812 1.0625 1.0625 1.4219z"/>
</g>
</defs>
<g transform="translate(-148.52 -130.5)">
<use x="148.71201" y="134.765" xlink:href="#a"/>
</g>
</svg>
