<?xml version="1.0" encoding="UTF-8"?>
<svg fill="#000000" width="4.5938" height="8.0938" version="1.1" viewBox="0 0 4.5938 8.0937" xmlns="http://www.w3.org/2000/svg" xmlns:xlink="http://www.w3.org/1999/xlink">
<defs>
<g id="a">
<path d="m4.6094-4.4375c0.125 0 0.23438-0.09375 0.23438-0.23438 0-0.078125-0.046875-0.15625-0.125-0.20312-1.9062-0.89062-1.6406-1.7188-2.0312-1.7188-0.14062 0-0.23438 0.10938-0.23438 0.21875 0 0.03125 0.015625 0.09375 0.015625 0.23438 0 1.1719-0.82812 2.0156-0.82812 2.2188 0 0.125 0.09375 0.21875 0.21875 0.21875 0.21875 0 0.32812-0.29688 0.76562-1.1406 0.17188 0.96875 0.82812 1.2656 0.82812 1.9375 0 0.3125-0.17188 0.625-0.4375 0.9375l-2.1406-0.78125c-0.09375-0.046875-0.20312 0.03125-0.20312 0.14062 0 0.0625 0.046875 0.10938 0.10938 0.14062l2.0156 0.73438c-0.40625 0.40625-0.76562 0.875-0.76562 1.4688 0 0.78125 0.64062 1.2812 1.0625 1.7031 0.046875 0.03125 0.10938 0.0625 0.17188 0.0625 0.10938 0 0.21875-0.078125 0.21875-0.21875 0-0.29688-1-0.76562-1-1.5469 0-0.40625 0.26562-0.78125 0.64062-1.1562l0.14062-0.14062 1.7812 0.64062c0.10938 0.046875 0.21875-0.03125 0.21875-0.14062 0-0.046875-0.046875-0.10938-0.10938-0.14062l-1.6719-0.60938c0.25-0.32812 0.4375-0.6875 0.4375-1.0938 0-0.6875-0.54688-1.1562-0.73438-1.6406-0.10938-0.23438-0.14062-0.51562-0.15625-0.79688 0.53125 0.26562 1.3594 0.90625 1.5781 0.90625z"/>
</g>
</defs>
<g transform="translate(-149.38 -128.17)">
<use x="148.71201" y="134.765" xlink:href="#a"/>
</g>
</svg>
