<?xml version="1.0" encoding="UTF-8"?>
<svg fill="#000000" version="1.1" viewBox="0 0 3.8594 8.0469" xmlns="http://www.w3.org/2000/svg" xmlns:xlink="http://www.w3.org/1999/xlink">
<defs>
<g id="a">
<path d="m2.6406-3.0938c1.2031 0.25 1.2656 1.2031 1.2656 1.4531 0 0.65625-0.48438 1.3281-1.2656 1.4375zm-0.3125-0.09375v2.9844c-0.875-0.0625-1.3438-0.5625-1.4688-1.1875 0.03125 0.015625 0.125 0.03125 0.15625 0.03125 0.26562 0 0.45312-0.20312 0.45312-0.46875 0-0.28125-0.20312-0.45312-0.45312-0.45312-0.0625 0-0.45312 0.015625-0.45312 0.5 0 0.89062 0.53125 1.8125 1.7656 1.8906v0.45312h0.3125v-0.46875c1.0469-0.078125 1.7812-1.0156 1.7812-2.0312 0-0.82812-0.45312-1.3438-0.54688-1.4375-0.39062-0.4375-0.75-0.51562-1.2344-0.64062v-2.6875c0.84375 0.03125 1.3281 0.46875 1.4688 1.0312-0.03125-0.015625-0.046875-0.015625-0.15625-0.015625-0.25 0-0.45312 0.17188-0.45312 0.45312 0 0.3125 0.25 0.45312 0.45312 0.45312 0.03125 0 0.46875 0 0.46875-0.5 0-0.95312-0.65625-1.6875-1.7812-1.75v-0.45312h-0.3125v0.46875c-1.1094 0.09375-1.7656 1-1.7656 1.9062 0 0.6875 0.35938 1.1562 0.54688 1.3281 0.375 0.39062 0.71875 0.46875 1.2188 0.59375zm0-0.90625c-1.2188-0.26562-1.2656-1.125-1.2656-1.3125 0-0.60938 0.46875-1.2188 1.2656-1.2969z"/>
</g>
</defs>
<g transform="translate(-149.27 -127.28)">
<use x="148.71201" y="134.765" xlink:href="#a"/>
</g>
</svg>
