<?xml version="1.0" encoding="UTF-8"?>
<svg fill="#000000" version="1.1" viewBox="0 0 5.2969 5.9062" xmlns="http://www.w3.org/2000/svg" xmlns:xlink="http://www.w3.org/1999/xlink">
<defs>
<g id="a">
<path d="m5.5-3.4062h-0.125l-0.82812-1.7656c-0.03125-0.078125-0.125-0.10938-0.20312-0.078125-0.0625 0.03125-0.10938 0.125-0.0625 0.20312l0.76562 1.6562c-1.6719 0.14062-1.4062 1.3594-1.6562 2.0312-0.078125 0.1875-0.20312 0.375-0.375 0.57812-0.17188-0.54688-0.21875-1.1406-0.42188-1.6875-0.03125-0.09375-0.125-0.14062-0.21875-0.14062-0.125 0-0.21875 0.10938-0.21875 0.23438 0 0.10938 0.3125 0.76562 0.3125 1.5938 0 0.29688-0.03125 0.60938-0.14062 0.875v0.09375c0 0.125 0.078125 0.21875 0.21875 0.21875 0.28125 0 0.40625-0.79688 2.3438-1.1406 0.10938-0.015625 0.1875-0.10938 0.1875-0.21875 0-0.14062-0.10938-0.23438-0.21875-0.23438-0.1875 0-0.96875 0.26562-1.2188 0.34375 0.64062-1.0312-0.078125-2.0312 1.6094-2.0938l0.95312 2.0156c0.03125 0.078125 0.10938 0.10938 0.20312 0.078125 0.0625-0.046875 0.10938-0.14062 0.0625-0.20312l-0.89062-1.9062c0.65625 0 1.1875-0.09375 1.5469-0.53125 0.26562-0.3125 0.32812-0.70312 0.32812-1.0625 0-0.26562-0.03125-0.5-0.03125-0.73438 0-0.125-0.10938-0.21875-0.23438-0.21875s-0.23438 0.09375-0.23438 0.21875c0 0.25 0.03125 0.5 0.03125 0.73438 0 0.92188-0.42188 1.1406-1.4844 1.1406z"/>
</g>
</defs>
<g transform="translate(-150.87 -129.26)">
<use x="148.71201" y="134.765" xlink:href="#a"/>
</g>
</svg>
