<?xml version="1.0" encoding="UTF-8"?>
<svg fill="#000000" version="1.1" viewBox="0 0 3.8906 8.0312" xmlns="http://www.w3.org/2000/svg" xmlns:xlink="http://www.w3.org/1999/xlink">
<defs>
<g id="a">
<path d="m2.3281-7.4844v0.45312c-0.96875 0-1.7656 0.95312-1.7656 1.9062 0 0.8125 0.5 1.5469 1.2969 1.8125 0.23438 0.078125 0.46875 0.046875 0.46875 0.25v2.8438c-0.67188 0-1.3594-0.48438-1.4844-1.1719 0.046875 0 0.10938 0.015625 0.15625 0.015625 0.26562 0 0.46875-0.1875 0.46875-0.45312 0-0.25-0.20312-0.46875-0.46875-0.46875-0.28125 0-0.46875 0.21875-0.46875 0.54688 0 0.96875 0.67188 1.6875 1.6875 1.8438 0.078125 0 0.10938 0.03125 0.10938 0.10938v0.34375h0.3125v-0.45312c1.125 0 1.7812-1.1875 1.7812-2.0469 0-0.84375-0.5-1.6406-1.3125-1.9375-0.25-0.09375-0.48438-0.0625-0.48438-0.28125 0-0.046875 0.015625-0.09375 0.015625-0.14062v-2.4062c0.46875 0 0.96875 0.20312 1.25 0.57812 0.10938 0.14062 0.17188 0.29688 0.23438 0.45312-0.046875 0-0.10938-0.015625-0.15625-0.015625-0.29688 0-0.45312 0.23438-0.45312 0.46875 0 0.28125 0.21875 0.45312 0.45312 0.45312 0.26562 0 0.45312-0.20312 0.45312-0.51562 0-0.9375-0.625-1.5781-1.6719-1.7344-0.0625 0-0.10938-0.03125-0.10938-0.10938v-0.34375zm0.3125 7.2656v-2.8906c0.67188 0.125 1.2812 0.67188 1.2812 1.4375 0 0.6875-0.46875 1.3438-1.2812 1.4531zm-0.3125-6.5v2.6094c-0.60938-0.10938-1.2656-0.54688-1.2656-1.2969 0-0.6875 0.59375-1.25 1.2656-1.3125z"/>
</g>
</defs>
<g transform="translate(-149.24 -127.28)">
<use x="148.71201" y="134.765" xlink:href="#a"/>
</g>
</svg>
