<?xml version="1.0" encoding="UTF-8"?>
<svg fill="#000000" width="4.5938" height="8.0938" version="1.1" viewBox="0 0 4.5938 8.0937" xmlns="http://www.w3.org/2000/svg" xmlns:xlink="http://www.w3.org/1999/xlink">
<defs>
<g id="a">
<path d="m2.4531-6.375c0 0.29688 1 0.76562 1 1.5469 0 0.40625-0.26562 0.78125-0.64062 1.1562l-0.14062 0.14062-1.7969-0.64062c-0.09375-0.046875-0.20312 0.03125-0.20312 0.14062 0 0.046875 0.046875 0.10938 0.10938 0.14062l1.6875 0.60938c-0.25 0.32812-0.4375 0.67188-0.4375 1.0938 0 0.6875 0.53125 1.1562 0.73438 1.6406 0.09375 0.23438 0.125 0.51562 0.14062 0.8125-0.53125-0.28125-1.3594-0.92188-1.5781-0.92188-0.125 0-0.23438 0.09375-0.23438 0.23438 0 0.078125 0.046875 0.15625 0.125 0.20312 1.9062 0.89062 1.6562 1.7188 2.0469 1.7188 0.14062 0 0.21875-0.10938 0.21875-0.21875v-0.23438c0-1.1719 0.82812-2.0156 0.82812-2.2188 0-0.125-0.10938-0.21875-0.23438-0.21875-0.20312 0-0.32812 0.29688-0.76562 1.1406-0.15625-0.96875-0.82812-1.2656-0.82812-1.9375 0-0.3125 0.17188-0.625 0.4375-0.9375l2.125 0.78125c0.10938 0.046875 0.21875-0.03125 0.21875-0.14062 0-0.0625-0.046875-0.125-0.10938-0.14062l-2-0.73438c0.375-0.40625 0.76562-0.875 0.76562-1.4688 0-0.78125-0.65625-1.2812-1.0781-1.7031-0.046875-0.03125-0.10938-0.0625-0.15625-0.0625-0.125 0-0.23438 0.078125-0.23438 0.21875z"/>
</g>
</defs>
<g transform="translate(-149.38 -128.17)">
<use x="148.71201" y="134.765" xlink:href="#a"/>
</g>
</svg>
