<?xml version="1.0" encoding="UTF-8"?>
<svg fill="#000000" version="1.1" viewBox="0 0 6.3687 4.2795" xmlns="http://www.w3.org/2000/svg" xmlns:xlink="http://www.w3.org/1999/xlink">
<defs>
<g id="a">
<path d="m2.625-4.6406c-0.53125 0.0625-1.0312 0.25-1.4219 0.625-0.5 0.48438-0.75 1.2344-0.60938 1.9219 0.078125 0.34375 0.25 0.67188 0.46875 0.95312 0.35938 0.4375 0.90625 0.6875 1.4531 0.76562 0.32812 0.03125 0.65625 0 0.98438 0h3.2344c0.046875 0 0.10938 0.015625 0.14062-0.015625 0.046875-0.03125 0.046875-0.09375 0.046875-0.14062 0-0.09375 0.015625-0.21875-0.09375-0.23438-0.046875-0.015625-0.10938 0-0.17188 0h-3.2344c-0.4375 0-0.875 0.03125-1.2812-0.10938-0.70312-0.25-1.2188-0.9375-1.1875-1.6875 0.015625-0.23438 0.078125-0.45312 0.17188-0.67188 0.078125-0.14062 0.15625-0.25 0.26562-0.375 0.28125-0.34375 0.70312-0.54688 1.1406-0.60938 0.15625-0.015625 0.29688-0.015625 0.45312-0.015625h3.7656c0.03125 0 0.09375 0 0.125-0.015625 0.0625-0.0625 0.046875-0.14062 0.046875-0.21875v-0.09375c-0.015625-0.015625-0.03125-0.046875-0.046875-0.046875-0.046875-0.03125-0.09375-0.03125-0.125-0.03125h-3.5156-0.60938z"/>
</g>
</defs>
<g transform="translate(-149.27 -130.12)">
<use x="148.71201" y="134.765" xlink:href="#a"/>
</g>
</svg>
