<?xml version="1.0" encoding="UTF-8"?>
<svg fill="#000000" version="1.1" viewBox="0 0 5.8594 9.5469" xmlns="http://www.w3.org/2000/svg" xmlns:xlink="http://www.w3.org/1999/xlink">
<defs>
<g id="a">
<path d="m6.0156-0.5c-0.14062 0.70312-0.46875 1.375-1.1562 1.375-0.53125 0-1.2344-0.67188-1.9531-1.0312l0.60938-2.1875 2.6719 1.2812v-0.625l-2.5156-1.25 0.57812-2.0625 1.9375-0.96875v-0.65625l-1.7188 0.84375 0.42188-1.5h-0.53125l-0.5 1.7969-3.2969 1.6094v0.09375l2.4844 1.2031-0.625 2.2344c-0.10938-0.03125-0.21875-0.0625-0.3125-0.0625-0.98438 0-1.5781 1.0469-1.625 2.0469h0.32812c0.15625-0.71875 0.51562-1.375 1.2188-1.375 0.078125 0 0.14062 0 0.21875 0.03125l-0.5625 1.9688h0.54688l0.48438-1.75c0.625 0.35938 1.375 1.0156 2.0625 1.0156 0.96875 0 1.5156-1.1875 1.5625-2.0312zm-2.375-4.1875-0.4375 1.5312-1.3125-0.67188z"/>
</g>
</defs>
<g transform="translate(-149.2 -127.48)">
<use x="148.71201" y="134.765" xlink:href="#a"/>
</g>
</svg>
