<?xml version="1.0" encoding="UTF-8"?>
<svg fill="#000000" version="1.1" viewBox="0 0 11.219 8.8906" xmlns="http://www.w3.org/2000/svg" xmlns:xlink="http://www.w3.org/1999/xlink">
<defs>
<g id="a">
<path d="m8.0312 0.70312c-0.5 0.35938-1.0312 0.625-1.625 0.85938-0.078125 0.015625-0.14062 0.09375-0.14062 0.17188 0 0.10938 0.10938 0.20312 0.20312 0.20312 0.015625 0 0.046875 0 0.078125-0.015625 0.625-0.23438 1.2188-0.53125 1.75-0.92188 0.14062 0.10938 0.28125 0.20312 0.4375 0.28125 0.03125 0 0.046875 0.015625 0.078125 0.015625 0.09375 0 0.20312-0.09375 0.20312-0.20312 0-0.09375-0.046875-0.15625-0.125-0.1875-0.09375-0.03125-0.17188-0.09375-0.25-0.14062 1.8125-1.4219 2.9219-3.6094 2.9219-6.0156 0-0.98438-0.85938-1.7031-1.8281-1.7031-0.10938 0-0.21875 0.015625-0.32812 0.03125-0.60938 0.10938-1.1094 0.46875-1.4062 0.96875-0.26562-0.57812-0.85938-0.96875-1.5156-0.96875s-1.2031 0.35938-1.4844 0.875c-0.28125-0.51562-0.84375-0.875-1.4844-0.875s-1.2031 0.35938-1.4844 0.875c-0.28125-0.51562-0.82812-0.875-1.4844-0.875-0.10938 0-0.20312 0.09375-0.20312 0.20312s0.09375 0.20312 0.20312 0.20312c0.70312 0 1.2812 0.5625 1.2812 1.2656v5.0469c0 0.10938 0.09375 0.20312 0.20312 0.20312s0.20312-0.09375 0.20312-0.20312v-5.0469c0-0.70312 0.57812-1.2656 1.2812-1.2656 0.71875 0 1.2812 0.5625 1.2812 1.2656v5.0469c0 0.10938 0.09375 0.20312 0.20312 0.20312s0.1875-0.09375 0.1875-0.20312v-5.0469c0-0.70312 0.57812-1.2656 1.2969-1.2656 0.70312 0 1.2656 0.5625 1.2656 1.2656v5.0469c0 0.32812 0.10938 0.65625 0.28125 0.90625zm0.32812-0.23438c-0.125-0.1875-0.20312-0.42188-0.20312-0.67188v-5.0156c0.125-0.67188 0.64062-1.2031 1.3125-1.3125 0.09375-0.015625 0.1875-0.015625 0.26562-0.015625 0.76562 0 1.4375 0.5625 1.4375 1.2969 0 2.2812-1.0781 4.375-2.8125 5.7188z"/>
</g>
</defs>
<g transform="translate(-149.06 -127.81)">
<use x="148.71201" y="134.765" xlink:href="#a"/>
</g>
</svg>
