<?xml version="1.0" encoding="UTF-8"?>
<svg fill="#000000" version="1.1" viewBox="0 0 4.3125 8.625" xmlns="http://www.w3.org/2000/svg" xmlns:xlink="http://www.w3.org/1999/xlink">
<defs>
<g id="a">
<path d="m4.6406-1.125c0.14062 0 0.23438-0.10938 0.23438-0.23438 0-0.0625-0.03125-0.125-0.078125-0.17188-0.5625-0.46875-1.1719-0.9375-1.8594-1.2812l0.21875-0.76562c0.57812-0.32812 1.125-0.75 1.6406-1.1719 0.046875-0.046875 0.078125-0.10938 0.078125-0.17188 0-0.125-0.09375-0.23438-0.23438-0.23438-0.17188 0-0.42188 0.375-1.3281 0.9375l0.67188-2.4531c0.015625-0.09375-0.046875-0.1875-0.15625-0.1875-0.0625 0-0.125 0.046875-0.14062 0.10938l-0.73438 2.75c-0.6875 0.375-1.3906 0.625-2.1719 0.625-0.14062 0-0.21875 0.10938-0.21875 0.23438s0.078125 0.23438 0.21875 0.23438c0.625 0 1.2031 0.15625 1.7656 0.40625l-0.5625 2.0938h-1.2031c-0.125 0-0.21875 0.10938-0.21875 0.23438s0.09375 0.23438 0.21875 0.23438h1.0781l-0.40625 1.5156c-0.015625 0.09375 0.046875 0.1875 0.15625 0.1875 0.0625 0 0.10938-0.046875 0.14062-0.10938l0.42188-1.5938h2.4688c0.14062 0 0.23438-0.10938 0.23438-0.23438s-0.09375-0.23438-0.23438-0.23438h-2.3438l0.53125-1.9531c1.125 0.60938 1.625 1.2344 1.8125 1.2344zm-1.8438-2.2812-0.125 0.46875c-0.17188-0.078125-0.34375-0.14062-0.51562-0.20312 0.21875-0.0625 0.42188-0.15625 0.64062-0.26562z"/>
</g>
</defs>
<g transform="translate(-149.27 -127.91)">
<use x="148.71201" y="134.765" xlink:href="#a"/>
</g>
</svg>
