<?xml version="1.0" encoding="UTF-8"?>
<svg fill="#000000" version="1.1" viewBox="0 0 3.1719 4.7812" xmlns="http://www.w3.org/2000/svg" xmlns:xlink="http://www.w3.org/1999/xlink">
<defs>
<g id="a">
<path d="m1.6562-1 1.1094-1.1094v1.7344c0 0.10938 0.10938 0.21875 0.21875 0.21875 0.14062 0 0.23438-0.10938 0.23438-0.21875v-2.1875l1.3281-1.3281c0.03125-0.03125 0.03125-0.0625 0.03125-0.09375 0-0.046875 0-0.078125-0.03125-0.10938-0.0625-0.0625-0.15625-0.0625-0.20312 0l-1.125 1.1094v-1.7344c0-0.10938-0.09375-0.21875-0.23438-0.21875-0.10938 0-0.21875 0.10938-0.21875 0.21875v2.1875l-1.3125 1.3281c-0.03125 0.03125-0.046875 0.0625-0.046875 0.09375 0 0.09375 0.078125 0.15625 0.15625 0.15625 0.03125 0 0.0625-0.015625 0.09375-0.046875z"/>
</g>
</defs>
<g transform="translate(-150.12 -129.83)">
<use x="148.71201" y="134.765" xlink:href="#a"/>
</g>
</svg>
