<?xml version="1.0" encoding="UTF-8"?>
<svg fill="#000000" width="6" height="6.7188" version="1.1" viewBox="0 0 6 6.7187" xmlns="http://www.w3.org/2000/svg" xmlns:xlink="http://www.w3.org/1999/xlink">
<defs>
<g id="a">
<path d="m3.4531 0.71875 1.1094-3.0312h1.8125c0.10938 0 0.21875-0.10938 0.21875-0.23438s-0.10938-0.21875-0.21875-0.21875h-1.6406l1.0625-2.9375c0.03125-0.09375-0.03125-0.20312-0.14062-0.20312-0.0625 0-0.10938 0.03125-0.14062 0.09375l-1.0938 3.0469h-1.5781v-2.2812c0-0.125-0.10938-0.23438-0.23438-0.23438s-0.23438 0.10938-0.23438 0.23438v5c0 0.125 0.10938 0.21875 0.23438 0.21875s0.23438-0.09375 0.23438-0.21875v-2.2656h1.4062l-1.0625 2.9219c-0.03125 0.09375 0.015625 0.20312 0.125 0.20312 0.0625 0 0.125-0.03125 0.14062-0.09375zm-2.3906-0.76562v-5c0-0.125-0.10938-0.23438-0.23438-0.23438s-0.23438 0.10938-0.23438 0.23438v5c0 0.125 0.10938 0.21875 0.23438 0.21875s0.23438-0.09375 0.23438-0.21875z"/>
</g>
</defs>
<g transform="translate(-149.31 -128.86)">
<use x="148.71201" y="134.765" xlink:href="#a"/>
</g>
</svg>
