<?xml version="1.0" encoding="UTF-8"?>
<svg fill="#000000" width="3.3614" height="6.3438" version="1.1" viewBox="0 0 3.3614 6.3437" xmlns="http://www.w3.org/2000/svg" xmlns:xlink="http://www.w3.org/1999/xlink">
<defs>
<g id="a">
<path d="m0.26562-4.3125v0.3125c0.15625 0 0.32812 0 0.46875 0.03125 0.10938 0.015625 0.21875 0.078125 0.26562 0.1875 0.0625 0.125 0.046875 0.29688 0.046875 0.4375v4.375c0 0.14062 0.03125 0.29688-0.046875 0.42188-0.046875 0.09375-0.14062 0.125-0.25 0.14062-0.15625 0.015625-0.32812 0.015625-0.48438 0.015625v0.3125l0.4375-0.015625 0.96875-0.015625 1.0156 0.03125v-0.3125c-0.21875 0-0.42188 0-0.625-0.015625-0.09375-0.015625-0.20312-0.03125-0.28125-0.125-0.09375-0.10938-0.0625-0.25-0.0625-0.375v-2.7656c0-0.46875-0.03125-0.9375 0.078125-1.4062 0.125-0.48438 0.42188-1.0312 0.96875-1.1094 0.078125-0.015625 0.15625-0.015625 0.23438 0v0.015625c-0.23438 0.09375-0.28125 0.40625-0.15625 0.60938 0.0625 0.10938 0.17188 0.17188 0.3125 0.1875h0.15625c0.046875-0.03125 0.09375-0.046875 0.14062-0.0625 0.25-0.17188 0.20312-0.54688 0.03125-0.73438-0.17188-0.20312-0.46875-0.26562-0.71875-0.23438-0.42188 0.046875-0.73438 0.32812-0.9375 0.6875-0.0625 0.125-0.125 0.25-0.15625 0.375v-1.0781z"/>
</g>
</defs>
<g transform="translate(-148.98 -130.34)">
<use x="148.71201" y="134.765" xlink:href="#a"/>
</g>
</svg>
