<?xml version="1.0" encoding="UTF-8"?>
<svg fill="#000000" version="1.1" viewBox="0 0 7.0156 4.6875" xmlns="http://www.w3.org/2000/svg" xmlns:xlink="http://www.w3.org/1999/xlink">
<defs>
<g id="a">
<path d="m7.6406-4.3438c0-0.3125-0.25-0.5625-0.54688-0.5625-0.3125 0-0.5625 0.26562-0.5625 0.5625 0 0.375 0.34375 0.54688 0.5625 0.54688 0.20312 0 0.54688-0.15625 0.54688-0.54688zm0 3.5938c0-0.32812-0.25-0.57812-0.54688-0.57812-0.3125 0-0.5625 0.26562-0.5625 0.57812 0 0.35938 0.34375 0.53125 0.5625 0.53125 0.20312 0 0.54688-0.15625 0.54688-0.53125zm-1.9219-1.5312v-0.5625h-5.0938v0.5625z"/>
</g>
</defs>
<g transform="translate(-149.34 -129.86)">
<use x="148.71201" y="134.765" xlink:href="#a"/>
</g>
</svg>
