<?xml version="1.0" encoding="UTF-8"?>
<svg fill="#000000" version="1.1" viewBox="0 0 6.1875 3.4375" xmlns="http://www.w3.org/2000/svg" xmlns:xlink="http://www.w3.org/1999/xlink">
<defs>
<g id="a">
<path d="m3.5312-2.875c-0.625-0.64062-1.4219-1.3906-2.4688-1.3906h-0.39062c-0.125 0-0.21875 0.10938-0.21875 0.23438s0.09375 0.21875 0.21875 0.21875h0.39062c0.84375 0 1.5469 0.65625 2.1562 1.2656-0.60938 0.60938-1.3125 1.2656-2.1562 1.2656h-0.39062c-0.125 0-0.21875 0.09375-0.21875 0.21875s0.09375 0.23438 0.21875 0.23438h0.39062c1.0469 0 1.8438-0.75 2.4688-1.3906 0.64062 0.64062 1.4531 1.3906 2.5 1.3906h0.375c0.14062 0 0.23438-0.10938 0.23438-0.23438s-0.09375-0.21875-0.23438-0.21875h-0.375c-0.85938 0-1.5469-0.65625-2.1562-1.2656 0.60938-0.60938 1.2969-1.2656 2.1562-1.2656h0.375c0.14062 0 0.23438-0.09375 0.23438-0.21875s-0.09375-0.23438-0.23438-0.23438h-0.375c-1.0469 0-1.8594 0.75-2.5 1.3906z"/>
</g>
</defs>
<g transform="translate(-149.17 -130.5)">
<use x="148.71201" y="134.765" xlink:href="#a"/>
</g>
</svg>
