<?xml version="1.0" encoding="UTF-8"?>
<svg fill="#000000" version="1.1" viewBox="0 0 6.2053 7.0174" xmlns="http://www.w3.org/2000/svg" xmlns:xlink="http://www.w3.org/1999/xlink">
<defs>
<g id="a">
<path d="m3.4531-3.0156v2.6094h-2.5938c-0.0625 0-0.125-0.015625-0.1875 0-0.125 0.015625-0.10938 0.125-0.10938 0.21875 0 0.046875 0 0.10938 0.03125 0.14062 0.046875 0.03125 0.09375 0.03125 0.14062 0.03125h0.20312 5.6406c0.046875 0 0.09375 0 0.14062-0.03125 0.046875-0.046875 0.046875-0.125 0.046875-0.20312 0-0.03125 0-0.0625-0.015625-0.09375s-0.03125-0.046875-0.0625-0.0625c-0.046875-0.015625-0.09375 0-0.14062 0h-2.6875v-2.6875c0-0.0625-0.015625-0.17188 0.015625-0.21875 0.046875-0.078125 0.15625-0.125 0.21875-0.17188 0.15625-0.10938 0.29688-0.21875 0.45312-0.32812 0.53125-0.39062 1.0469-0.76562 1.5781-1.1406l0.40625-0.29688c0.0625-0.046875 0.14062-0.09375 0.20312-0.15625 0.03125-0.0625 0.015625-0.14062 0.015625-0.21875 0-0.03125 0-0.0625-0.015625-0.09375-0.03125-0.10938-0.125-0.078125-0.1875-0.046875-0.1875 0.125-0.35938 0.26562-0.53125 0.375-0.46875 0.35938-0.95312 0.70312-1.4375 1.0469-0.23438 0.17188-0.48438 0.34375-0.71875 0.53125v-3c0-0.046875 0.015625-0.10938-0.015625-0.17188-0.015625-0.015625-0.03125-0.03125-0.0625-0.046875h-0.09375c-0.0625 0-0.15625-0.015625-0.20312 0.046875s-0.03125 0.17188-0.03125 0.23438v2.9844c0 0.078125 0.03125 0.17188-0.015625 0.23438-0.03125 0.078125-0.125 0.10938-0.1875 0.15625-0.15625 0.10938-0.29688 0.21875-0.45312 0.32812-0.51562 0.375-1.0469 0.75-1.5625 1.1406l-0.46875 0.34375c-0.0625 0.03125-0.15625 0.09375-0.20312 0.17188v0.09375c0 0.09375-0.03125 0.29688 0.14062 0.26562 0.078125-0.03125 0.17188-0.125 0.25-0.17188 0.1875-0.125 0.375-0.26562 0.54688-0.40625 0.42188-0.29688 0.85938-0.60938 1.2656-0.90625 0.23438-0.17188 0.45312-0.34375 0.6875-0.5z"/>
</g>
</defs>
<g transform="translate(-149.27 -127.73)">
<use x="148.71201" y="134.765" xlink:href="#a"/>
</g>
</svg>
