<?xml version="1.0" encoding="UTF-8"?>
<svg fill="#000000" version="1.1" viewBox="0 0 7.1094 3.0312" xmlns="http://www.w3.org/2000/svg" xmlns:xlink="http://www.w3.org/1999/xlink">
<defs>
<g id="a">
<path d="m7.7031-0.96875c0-0.1875-0.25-0.42188-0.25-1.2344 0-0.64062 0.1875-1.2812 0.1875-1.3281 0-0.125-0.078125-0.23438-0.21875-0.23438-0.29688 0-0.28125 0.40625-0.42188 1.4375-0.73438-0.89062-1.8438-1.4375-3.0156-1.4375-1.625 0-2.8125 0.98438-3.3594 2.0781-0.015625 0.015625-0.03125 0.046875-0.03125 0.09375 0 0.10938 0.10938 0.23438 0.23438 0.23438 0.09375 0 0.17188-0.0625 0.20312-0.14062 0.46875-0.9375 1.5156-1.7969 2.9531-1.7969 1.1562 0 2.2031 0.5625 2.8281 1.5-0.51562-0.0625-1.3906-0.32812-1.7344-0.32812-0.125 0-0.23438 0.09375-0.23438 0.23438 0 0.10938 0.09375 0.21875 0.21875 0.21875 1.9219 0.17188 2.1406 0.9375 2.4219 0.9375 0.125 0 0.21875-0.10938 0.21875-0.23438z"/>
</g>
</defs>
<g transform="translate(-149.31 -131)">
<use x="148.71201" y="134.765" xlink:href="#a"/>
</g>
</svg>
