<?xml version="1.0" encoding="UTF-8"?>
<svg fill="#000000" version="1.1" viewBox="0 0 6.4844 6.5" xmlns="http://www.w3.org/2000/svg" xmlns:xlink="http://www.w3.org/1999/xlink">
<defs>
<g id="a">
<path d="m7.8594-1.0312c0-0.42188-0.15625-0.85938-0.48438-1.1875-0.5-0.5-1.1875-0.57812-1.8281-0.57812-0.23438 0-0.46875 0.015625-0.6875 0.015625v-0.6875c0-0.64062-0.0625-1.3281-0.57812-1.8281-0.32812-0.32812-0.75-0.5-1.1875-0.5-1 0-1.7188 0.84375-1.7188 1.7344 0 0.42188 0.15625 0.85938 0.48438 1.1875 0.51562 0.5 1.2031 0.57812 1.8438 0.57812 0.23438 0 0.46875-0.015625 0.6875-0.015625 0 0.21875-0.015625 0.45312-0.015625 0.6875 0 0.64062 0.078125 1.3281 0.57812 1.8281 0.32812 0.32812 0.76562 0.5 1.1875 0.5 1 0 1.7188-0.84375 1.7188-1.7344zm-1.7188 1.2656c-0.3125 0-0.625-0.10938-0.85938-0.34375-0.35938-0.375-0.45312-0.89062-0.45312-1.5156 0-0.23438 0.015625-0.45312 0.015625-0.70312h0.70312c0.60938 0 1.1406 0.0625 1.5156 0.4375 0.23438 0.23438 0.34375 0.54688 0.34375 0.85938 0 0.65625-0.53125 1.2656-1.2656 1.2656zm-3.0469-5.5625c0.32812 0 0.64062 0.10938 0.875 0.34375 0.375 0.375 0.4375 0.89062 0.4375 1.5156 0 0.23438-0.015625 0.45312-0.015625 0.70312h-0.6875c-0.625 0-1.1562-0.0625-1.5156-0.4375-0.25-0.23438-0.35938-0.54688-0.35938-0.85938 0-0.65625 0.54688-1.2656 1.2656-1.2656z"/>
</g>
</defs>
<g transform="translate(-150.09 -128.97)">
<use x="148.71201" y="134.765" xlink:href="#a"/>
</g>
</svg>
