<?xml version="1.0" encoding="UTF-8"?>
<svg fill="#000000" version="1.1" viewBox="0 0 6.0625 11.406" xmlns="http://www.w3.org/2000/svg" xmlns:xlink="http://www.w3.org/1999/xlink">
<defs>
<g id="a">
<path d="m3.5312-4.75h-0.1875c-1.2344 0-2.25 1-2.25 2.2344 0 0.92188 0.5625 1.7188 1.3594 2.0625l-0.42188 1.6875c-0.25 1.0156-0.48438 1.6406-0.95312 1.6406-0.078125 0-0.10938-0.03125-0.10938-0.078125 0-0.10938 0.17188-0.09375 0.17188-0.39062 0-0.15625-0.15625-0.25-0.29688-0.25-0.28125 0-0.53125 0.25-0.53125 0.57812 0 0.25 0.15625 0.45312 0.5625 0.45312 1.1094 0 1.7031-1.2031 1.9062-2.0156l0.35938-1.4531c0.0625 0.015625 0.125 0.015625 0.20312 0.015625 1.2344 0 2.2344-1.0156 2.2344-2.25 0-0.3125-0.0625-0.60938-0.17188-0.875 0 0-0.015625-0.03125-0.015625-0.046875 0-0.0625 0.046875-0.078125 0.10938-0.078125 0.15625 0 0.51562 0.14062 0.76562 0.15625l0.03125-0.125c-0.46875-0.14062-1.0156-0.32812-1.3906-0.625-0.20312-0.20312-0.4375-0.35938-0.6875-0.46875l0.39062-1.5625c0.25-1.0469 0.5-1.7656 1-1.7656 0.078125 0 0.10938 0.03125 0.10938 0.078125 0 0.09375-0.17188 0.15625-0.17188 0.40625 0 0.17188 0.15625 0.25 0.3125 0.25 0.26562 0 0.51562-0.26562 0.51562-0.59375 0-0.23438-0.15625-0.45312-0.54688-0.45312-1.2031 0-1.7812 1.375-1.9844 2.1719zm-0.29688 4.1094 0.875-3.5625c0.25 0.10938 0.45312 0.26562 0.625 0.45312-0.046875 0.40625-0.20312 0.8125-0.35938 1.1719l0.125 0.0625c0.10938-0.20312 0.20312-0.40625 0.3125-0.60938 0.015625-0.078125 0.078125-0.14062 0.15625-0.14062 0.03125 0 0.078125 0 0.09375 0.046875 0.09375 0.21875 0.14062 0.45312 0.14062 0.70312 0 1.0312-0.84375 1.875-1.8594 1.875zm0.1875-3.7344-0.875 3.5469c-0.64062-0.29688-1.0781-0.95312-1.0781-1.6875 0-1.0156 0.84375-1.8594 1.875-1.8594z"/>
</g>
</defs>
<g transform="translate(-149.02 -126.51)">
<use x="148.71201" y="134.72501" xlink:href="#a"/>
</g>
</svg>
