<?xml version="1.0" encoding="UTF-8"?>
<svg fill="#000000" version="1.1" viewBox="0 0 5.3906 5.3906" xmlns="http://www.w3.org/2000/svg" xmlns:xlink="http://www.w3.org/1999/xlink">
<defs>
<g id="a">
<path d="m5.7812-2.6094c0-1.4844-1.2188-2.6875-2.7031-2.6875-1.5 0-2.6875 1.1875-2.6875 2.6875 0.0625 0.6875 0.10938 1.0938 0.59375 1.6875l-0.59375 0.57812 0.39062 0.40625 0.59375-0.57812c0.48438 0.42188 1.0312 0.60938 1.7031 0.60938 1.4844 0 2.7031-1.2344 2.7031-2.7031zm-0.59375 0c0 1.1875-0.9375 2.1094-2.1094 2.1094-0.46875 0-0.89062-0.14062-1.2656-0.42188l0.92188-0.9375-0.42188-0.42188-0.92188 0.9375c-0.28125-0.40625-0.42188-0.82812-0.42188-1.2656 0-1.1562 0.95312-2.1094 2.1094-2.1094s2.1094 0.95312 2.1094 2.1094z"/>
</g>
</defs>
<g transform="translate(-149.1 -129.47)">
<use x="148.71201" y="134.765" xlink:href="#a"/>
</g>
</svg>
