<?xml version="1.0" encoding="UTF-8"?>
<svg fill="#000000" version="1.1" viewBox="0 0 5.5883 4.3002" xmlns="http://www.w3.org/2000/svg" xmlns:xlink="http://www.w3.org/1999/xlink">
<defs>
<g id="a">
<path d="m1.4844-3.8906h4.7812v3.6094c0 0.078125-0.015625 0.1875 0.046875 0.23438 0.046875 0.0625 0.17188 0.046875 0.25 0.03125 0.10938-0.015625 0.10938-0.125 0.10938-0.21875v-3.8281c0-0.078125 0-0.17188-0.0625-0.21875-0.046875-0.015625-0.09375-0.015625-0.125-0.015625h-5.0625c-0.09375 0-0.26562-0.03125-0.3125 0.0625-0.046875 0.078125-0.015625 0.20312-0.015625 0.28125v3.6562c0 0.0625-0.03125 0.17188 0.015625 0.23438 0.046875 0.078125 0.20312 0.0625 0.28125 0.046875 0.10938-0.03125 0.09375-0.14062 0.09375-0.21875z"/>
</g>
</defs>
<g transform="translate(-149.8 -130.46)">
<use x="148.71201" y="134.765" xlink:href="#a"/>
</g>
</svg>
