<?xml version="1.0" encoding="UTF-8"?>
<svg fill="#000000" version="1.1" viewBox="0 0 6.1163 8.3096" xmlns="http://www.w3.org/2000/svg" xmlns:xlink="http://www.w3.org/1999/xlink">
<defs>
<g id="a">
<path d="m6.5312-5.8125v3.4688h-1.3125c0.125-0.21875 0.26562-0.42188 0.39062-0.625 0.046875-0.078125 0.10938-0.1875 0.015625-0.23438-0.03125-0.03125-0.078125-0.03125-0.10938-0.03125-0.0625 0-0.15625-0.015625-0.21875 0.03125s-0.10938 0.125-0.14062 0.20312l-0.26562 0.42188c-0.046875 0.078125-0.10938 0.21875-0.20312 0.23438s-0.21875 0-0.3125 0h-3.2344c-0.078125 0-0.20312-0.03125-0.26562 0.03125-0.046875 0.03125-0.046875 0.09375-0.046875 0.14062 0 0.09375-0.015625 0.20312 0.10938 0.23438h0.23438 3.3281c-0.1875 0.28125-0.35938 0.57812-0.54688 0.85938-0.03125 0.078125-0.078125 0.14062-0.125 0.20312-0.015625 0.046875-0.046875 0.09375-0.09375 0.09375-0.0625 0.03125-0.14062 0.015625-0.21875 0.015625h-2.4375c-0.078125 0-0.15625-0.015625-0.20312 0.03125-0.046875 0.03125-0.046875 0.09375-0.046875 0.14062 0 0.0625-0.015625 0.14062 0.03125 0.1875 0.03125 0.03125 0.09375 0.03125 0.14062 0.03125h0.3125 2.2031c-0.1875 0.28125-0.34375 0.54688-0.51562 0.82812l-0.14062 0.23438c-0.03125 0.046875-0.046875 0.078125-0.09375 0.09375-0.03125 0.03125-0.078125 0.03125-0.14062 0.03125h-1.5781c-0.046875 0-0.09375-0.015625-0.15625 0-0.046875 0.03125-0.0625 0.10938-0.0625 0.17188 0 0.078125-0.015625 0.20312 0.10938 0.21875 0.0625 0.015625 0.125 0 0.1875 0h1.4062c-0.125 0.21875-0.26562 0.42188-0.39062 0.625-0.03125 0.078125-0.10938 0.1875 0 0.25 0.015625 0.015625 0.046875 0.015625 0.078125 0.015625 0.078125 0 0.1875 0.015625 0.25-0.03125 0.046875-0.046875 0.09375-0.125 0.14062-0.20312l0.26562-0.42188c0.03125-0.078125 0.09375-0.21875 0.1875-0.23438h0.3125 3.2344c0.078125 0 0.20312 0.03125 0.28125-0.03125 0.03125-0.03125 0.03125-0.078125 0.03125-0.14062 0-0.078125 0.015625-0.20312-0.10938-0.21875-0.078125-0.015625-0.15625 0-0.23438 0h-3.3125c0.17188-0.29688 0.35938-0.57812 0.53125-0.875 0.046875-0.0625 0.09375-0.14062 0.125-0.20312 0.03125-0.046875 0.0625-0.078125 0.09375-0.09375 0.078125-0.015625 0.15625-0.015625 0.21875-0.015625h2.4375c0.078125 0 0.17188 0.03125 0.21875-0.03125 0.03125-0.03125 0.03125-0.09375 0.03125-0.14062 0-0.0625 0.015625-0.125-0.03125-0.1875-0.015625-0.03125-0.078125-0.03125-0.125-0.03125h-0.3125-2.2188c0.1875-0.28125 0.35938-0.5625 0.54688-0.85938 0.03125-0.0625 0.078125-0.15625 0.14062-0.21875 0.015625-0.046875 0.03125-0.078125 0.078125-0.09375s0.09375 0 0.14062 0h1.2969 0.32812c0.0625 0 0.125-0.015625 0.15625-0.078125 0.03125-0.078125 0-0.20312 0-0.28125v-3.6406c0-0.078125 0.03125-0.20312-0.046875-0.25-0.0625-0.046875-0.15625-0.015625-0.21875-0.015625h-5.625c-0.078125 0-0.1875 0-0.20312 0.09375-0.015625 0.078125-0.015625 0.23438 0.046875 0.28125 0.046875 0.015625 0.09375 0.015625 0.125 0.015625z"/>
</g>
</defs>
<g transform="translate(-149.53 -128.55)">
<use x="148.71201" y="134.765" xlink:href="#a"/>
</g>
</svg>
