<?xml version="1.0" encoding="UTF-8"?>
<svg fill="#000000" version="1.1" viewBox="0 0 4.9531 7.4375" xmlns="http://www.w3.org/2000/svg" xmlns:xlink="http://www.w3.org/1999/xlink">
<defs>
<g id="a">
<path d="m1.9062 1.0625 0.67188-2.4844h2.0625c0.14062 0 0.23438-0.10938 0.23438-0.23438s-0.09375-0.23438-0.23438-0.23438h-1.9531l0.35938-1.3125h1.5938c0.14062 0 0.23438-0.10938 0.23438-0.23438s-0.09375-0.23438-0.23438-0.23438h-1.4688l0.64062-2.4062c0.03125-0.078125-0.03125-0.1875-0.14062-0.1875-0.0625 0-0.125 0.046875-0.14062 0.10938l-0.67188 2.4844h-2.0781c-0.125 0-0.21875 0.10938-0.21875 0.23438s0.09375 0.23438 0.21875 0.23438h1.9531l-0.35938 1.3125h-1.5938c-0.125 0-0.21875 0.10938-0.21875 0.23438s0.09375 0.23438 0.21875 0.23438h1.4844l-0.65625 2.4062c-0.015625 0.078125 0.046875 0.1875 0.15625 0.1875 0.0625 0 0.125-0.046875 0.14062-0.10938zm2.7344-6.8125c-0.29688 0-0.53125 0.25-0.53125 0.53125 0 0.3125 0.25 0.54688 0.53125 0.54688 0.32812 0 0.54688-0.26562 0.54688-0.54688 0-0.3125-0.25-0.53125-0.54688-0.53125zm-3.8594 5.3438c-0.3125 0-0.54688 0.25-0.54688 0.53125 0 0.3125 0.25 0.54688 0.54688 0.54688 0.3125 0 0.53125-0.26562 0.53125-0.54688 0-0.3125-0.25-0.53125-0.53125-0.53125z"/>
</g>
</defs>
<g transform="translate(-148.95 -128.5)">
<use x="148.71201" y="134.765" xlink:href="#a"/>
</g>
</svg>
