<?xml version="1.0" encoding="UTF-8"?>
<svg fill="#000000" version="1.1" viewBox="0 0 4.0312 4.75" xmlns="http://www.w3.org/2000/svg" xmlns:xlink="http://www.w3.org/1999/xlink">
<defs>
<g id="a">
<path d="m5.0312-4.3906-0.51562-0.3125c-0.9375 0.59375-1.8125 1.2812-2.5781 2.0938l-0.046875-0.015625c0-0.3125 0.046875-1.375 0.0625-1.9531l-0.046875-0.0625-0.79688 0.26562c0.03125 0.82812 0.046875 1.6406 0.046875 2.4688 0 0.625 0 1.2656-0.015625 1.8906l0.17188 0.0625 0.625-0.26562c-0.03125-0.625-0.0625-1.2812-0.0625-1.8906l0.09375-0.046875c0.75 0.70312 1.6562 1.4531 2.5 2.1719l0.67188-0.35938v-0.14062c-0.89062-0.625-1.7344-1.3125-2.5312-2.0625l-0.046875-0.10938c0-0.015625 0-0.03125 0.015625-0.0625 0.42188-0.5 1.5469-1.1562 2.4375-1.5312z"/>
</g>
</defs>
<g transform="translate(-149.82 -130.06)">
<use x="148.71201" y="134.765" xlink:href="#a"/>
</g>
</svg>
