<?xml version="1.0" encoding="UTF-8"?>
<svg fill="#000000" version="1.1" viewBox="0 0 5.9844 6.2436" xmlns="http://www.w3.org/2000/svg" xmlns:xlink="http://www.w3.org/1999/xlink">
<defs>
<g id="a">
<path d="m6.9844-6.0312c0-0.10938-0.09375-0.20312-0.20312-0.20312h-5.5781c-0.10938 0-0.20312 0.09375-0.20312 0.20312s0.09375 0.20312 0.20312 0.20312h5.5781c0.10938 0 0.20312-0.09375 0.20312-0.20312zm-3.8594 5.9062c0.046875 0.10938 0.17188 0.17188 0.29688 0.10938 0.15625-0.078125 0.20312-0.15625 0.17188-0.28125l-2.1094-4.5625c-0.0625-0.10938-0.17188-0.17188-0.3125-0.10938-0.14062 0.078125-0.1875 0.15625-0.15625 0.28125zm-0.60938-4.8438c-0.15625 0.078125-0.20312 0.15625-0.15625 0.28125l2.0781 4.5156c0.046875 0.09375 0.0625 0.17188 0.21875 0.17188s0.17188-0.078125 0.21875-0.17188l2.0781-4.5156c0.046875-0.125 0-0.20312-0.15625-0.28125-0.125-0.0625-0.25 0-0.3125 0.10938l-1.8281 3.9844-1.8281-3.9844c-0.0625-0.10938-0.1875-0.17188-0.3125-0.10938z"/>
</g>
</defs>
<g transform="translate(-149.71 -128.53)">
<use x="148.71201" y="134.765" xlink:href="#a"/>
</g>
</svg>
