<?xml version="1.0" encoding="UTF-8"?>
<svg fill="#000000" width="4.7969" height="4.9688" version="1.1" viewBox="0 0 4.7969 4.9687" xmlns="http://www.w3.org/2000/svg" xmlns:xlink="http://www.w3.org/1999/xlink">
<defs>
<g id="a">
<path d="m1.2812-4.2812c0.25-0.26562 0.54688-0.54688 0.92188-0.54688 0.32812 0 0.625 0.1875 0.89062 0.40625 0.35938 0.3125 0.79688 0.5625 1.2969 0.5625 0.53125 0 0.90625-0.42188 1.2969-0.8125l-0.39062-0.375c-0.25 0.26562-0.54688 0.54688-0.92188 0.54688-0.32812 0-0.625-0.1875-0.89062-0.40625-0.35938-0.3125-0.79688-0.5625-1.2969-0.5625-0.51562 0-0.90625 0.42188-1.2969 0.79688zm-0.39062 1.8594h4.7969v-0.64062h-4.7969zm0 1.9219h4.7969v-0.64062h-4.7969z"/>
</g>
</defs>
<g transform="translate(-149.6 -129.3)">
<use x="148.71201" y="134.765" xlink:href="#a"/>
</g>
</svg>
