<?xml version="1.0" encoding="UTF-8"?>
<svg fill="#000000" version="1.1" viewBox="0 0 8.8594 2.7969" xmlns="http://www.w3.org/2000/svg" xmlns:xlink="http://www.w3.org/1999/xlink">
<defs>
<g id="a">
<path d="m9.125-2.2969c0.21875 0 0.28125 0 0.28125-0.15625 0-0.09375 0-0.09375-0.1875-0.21875-1.2969-0.78125-1.7656-1.9062-1.9062-2.2812-0.0625-0.125-0.0625-0.14062-0.21875-0.14062-0.078125 0-0.20312 0-0.20312 0.10938 0 0.0625 0.23438 0.71875 0.70312 1.3438 0.21875 0.3125 0.4375 0.5625 0.89062 0.95312h-7.5781c-0.17188 0-0.35938 0-0.35938 0.1875 0 0.20312 0.1875 0.20312 0.35938 0.20312z"/>
</g>
</defs>
<g transform="translate(-149.26 -129.67)">
<use x="148.71201" y="134.765" xlink:href="#a"/>
</g>
</svg>
