<?xml version="1.0" encoding="UTF-8"?>
<svg fill="#000000" version="1.1" viewBox="0 0 4.2666 4.5221" xmlns="http://www.w3.org/2000/svg" xmlns:xlink="http://www.w3.org/1999/xlink">
<defs>
<g id="a">
<path d="m1.7812-4.4219-0.5 0.046875-0.96875 0.0625v0.3125c0.14062 0 0.28125 0 0.42188 0.015625 0.078125 0.015625 0.15625 0.03125 0.23438 0.09375 0.09375 0.078125 0.125 0.23438 0.125 0.35938v0.73438 1.1406c0 0.1875-0.015625 0.375 0 0.54688 0.015625 0.29688 0.125 0.59375 0.32812 0.8125 0.078125 0.09375 0.17188 0.14062 0.26562 0.20312 0.20312 0.10938 0.4375 0.15625 0.67188 0.1875 0.14062 0.015625 0.29688 0 0.4375-0.015625 0.90625-0.14062 1.5-1 1.7031-1.8281 0.09375-0.35938 0.078125-0.71875 0.078125-1.0781s0-0.73438-0.0625-1.0781c-0.046875-0.17188-0.09375-0.35938-0.25-0.45312-0.28125-0.17188-0.67188 0.078125-0.64062 0.40625 0.03125 0.15625 0.14062 0.25 0.23438 0.35938 0.10938 0.10938 0.20312 0.25 0.28125 0.39062 0.25 0.46875 0.21875 1.0156 0.09375 1.5156-0.1875 0.625-0.59375 1.2656-1.25 1.4844-0.26562 0.09375-0.59375 0.14062-0.82812-0.03125-0.0625-0.0625-0.125-0.10938-0.17188-0.17188-0.1875-0.26562-0.20312-0.625-0.20312-0.92188z"/>
</g>
</defs>
<g transform="translate(-149.02 -130.34)">
<use x="148.71201" y="134.765" xlink:href="#a"/>
</g>
</svg>
