<?xml version="1.0" encoding="UTF-8"?>
<svg fill="#000000" version="1.1" viewBox="0 0 3.3281 11.703" xmlns="http://www.w3.org/2000/svg" xmlns:xlink="http://www.w3.org/1999/xlink">
<defs>
<g id="a">
<path d="m3.7812 1.6094c0-0.82812-0.57812-1.5312-1.3906-1.6562v-5.0312c0.8125-0.125 1.3906-0.82812 1.3906-1.6562 0-0.90625-0.73438-1.6719-1.6562-1.6719s-1.6719 0.76562-1.6719 1.6875c0 0.8125 0.57812 1.5156 1.375 1.6406v5.0469c-0.79688 0.125-1.375 0.84375-1.375 1.6406 0 0.9375 0.75 1.6875 1.6719 1.6875s1.6562-0.75 1.6562-1.6875zm-0.48438 0c0 0.65625-0.51562 1.1875-1.1719 1.1875s-1.1719-0.54688-1.1719-1.1875c0-0.65625 0.51562-1.1875 1.1719-1.1875 0.64062 0 1.1719 0.5625 1.1719 1.1875z"/>
</g>
</defs>
<g transform="translate(-149.17 -126.36)">
<use x="148.71201" y="134.765" xlink:href="#a"/>
</g>
</svg>
