<?xml version="1.0" encoding="UTF-8"?>
<svg fill="#000000" width="6.096" height="2.9688" version="1.1" viewBox="0 0 6.096 2.9687" xmlns="http://www.w3.org/2000/svg" xmlns:xlink="http://www.w3.org/1999/xlink">
<defs>
<g id="a">
<path d="m3.8125-5.25c-0.078125 0-0.15625 0.03125-0.21875 0.078125-0.3125 0.20312-0.32812 0.65625-0.015625 0.875 0.046875 0.03125 0.125 0.0625 0.1875 0.078125 0.046875 0.015625 0.125 0.015625 0.1875 0 0.078125-0.015625 0.14062-0.03125 0.21875-0.078125 0.29688-0.20312 0.3125-0.65625 0-0.875-0.046875-0.03125-0.10938-0.0625-0.17188-0.078125s-0.125-0.015625-0.1875 0zm-2.9219 2.5625c-0.015625 0-0.046875 0.03125-0.046875 0.0625-0.015625 0.015625-0.015625 0.0625-0.015625 0.09375 0 0.078125-0.015625 0.17188 0.0625 0.21875 0.078125 0.03125 0.1875 0.015625 0.26562 0.015625h5.6094c0.046875 0 0.09375 0 0.125-0.046875 0.03125-0.03125 0.03125-0.078125 0.03125-0.125 0-0.078125 0.015625-0.20312-0.078125-0.21875-0.046875-0.015625-0.09375-0.015625-0.14062-0.015625h-5.6562c-0.046875 0-0.09375-0.015625-0.15625 0.015625z"/>
</g>
</defs>
<g transform="translate(-149.54 -129.5)">
<use x="148.71201" y="134.765" xlink:href="#a"/>
</g>
</svg>
