<?xml version="1.0" encoding="UTF-8"?>
<svg fill="#000000" version="1.1" viewBox="0 0 6.4375 6.4531" xmlns="http://www.w3.org/2000/svg" xmlns:xlink="http://www.w3.org/1999/xlink">
<defs>
<g id="a">
<path d="m4.3594-6.6562c-0.046875 0-0.10938 0.03125-0.15625 0.078125l-3.5312 3.5312c-0.046875 0.046875-0.078125 0.10938-0.078125 0.15625 0 0.125 0.09375 0.23438 0.23438 0.23438 0.0625 0 0.125-0.03125 0.17188-0.0625l3.5312-3.5312c0.03125-0.046875 0.046875-0.10938 0.046875-0.17188 0-0.125-0.078125-0.23438-0.21875-0.23438zm2.6719 6.2188c0-0.0625-0.015625-0.125-0.0625-0.17188l-2.7969-2.7812 1.6094-1.6094c0.046875-0.03125 0.078125-0.09375 0.078125-0.15625 0-0.125-0.09375-0.23438-0.23438-0.23438-0.0625 0-0.125 0.03125-0.15625 0.078125l-3.5312 3.5312c-0.046875 0.03125-0.078125 0.09375-0.078125 0.15625 0 0.125 0.09375 0.23438 0.23438 0.23438 0.0625 0 0.125-0.03125 0.15625-0.078125l1.6094-1.6094 2.7812 2.7969c0.046875 0.046875 0.10938 0.078125 0.17188 0.078125 0.10938 0 0.21875-0.09375 0.21875-0.23438z"/>
</g>
</defs>
<g transform="translate(-149.31 -128.11)">
<use x="148.71201" y="134.765" xlink:href="#a"/>
</g>
</svg>
