<?xml version="1.0" encoding="UTF-8"?>
<svg fill="#000000" version="1.1" viewBox="0 0 5.3906 6.9531" xmlns="http://www.w3.org/2000/svg" xmlns:xlink="http://www.w3.org/1999/xlink">
<defs>
<g id="a">
<path d="m3.2656-6.0938v2.3594h-2.375v0.64062h2.375v2.375h0.64062v-2.375h2.375v-0.64062h-2.375v-2.3594zm0.875 6.3906c0-0.10938-0.10938-0.23438-0.21875-0.34375-0.09375-0.09375-0.21875-0.21875-0.32812-0.21875s-0.25 0.125-0.34375 0.21875c-0.09375 0.10938-0.21875 0.23438-0.21875 0.34375s0.125 0.23438 0.21875 0.34375c0.09375 0.09375 0.23438 0.21875 0.34375 0.21875s0.23438-0.125 0.32812-0.21875c0.10938-0.10938 0.21875-0.23438 0.21875-0.34375z"/>
</g>
</defs>
<g transform="translate(-149.6 -128.67)">
<use x="148.71201" y="134.765" xlink:href="#a"/>
</g>
</svg>
