<?xml version="1.0" encoding="UTF-8"?>
<svg fill="#000000" version="1.1" viewBox="0 0 2.125 10" xmlns="http://www.w3.org/2000/svg" xmlns:xlink="http://www.w3.org/1999/xlink">
<defs>
<g id="a">
<path d="m1.9375-2.5156v0.015625c-0.5625 0.09375-1.0938 0.53125-1.1875 1.1094v2.4531c0 1.0156 0.95312 1.4531 1.9531 1.4531 0.078125 0 0.17188-0.015625 0.17188-0.10938 0-0.14062-0.29688-0.125-0.42188-0.14062-0.5625-0.14062-1-0.54688-1-1.2031v-0.29688-1.8594c0-0.92188 0.59375-1.2031 1.2344-1.2969 0.09375 0 0.1875-0.015625 0.1875-0.125-0.015625-0.125-0.21875-0.09375-0.3125-0.10938-0.625-0.09375-1.1094-0.53125-1.1094-1.2344v-2.2031c0-0.76562 0.57812-1.1719 1.2969-1.2031 0.0625 0 0.125-0.046875 0.125-0.10938 0-0.078125-0.0625-0.10938-0.14062-0.10938h-0.046875c-0.6875 0-1.8125 0.28125-1.9375 1.2031v2.4688c0 0.71875 0.5625 1.2031 1.1875 1.2969z"/>
</g>
</defs>
<g transform="translate(-149.46 -127.28)">
<use x="148.71201" y="134.765" xlink:href="#a"/>
</g>
</svg>
