<?xml version="1.0" encoding="UTF-8"?>
<svg fill="#000000" width="6.5938" height="6.5938" version="1.1" viewBox="0 0 6.5938 6.5937" xmlns="http://www.w3.org/2000/svg" xmlns:xlink="http://www.w3.org/1999/xlink">
<defs>
<g id="a">
<path d="m4.4219-2.5156c0-0.375-0.3125-0.64062-0.625-0.64062s-0.64062 0.25-0.64062 0.64062c0 0.375 0.26562 0.625 0.64062 0.625s0.625-0.29688 0.625-0.625zm2.6719 0c0-1.8281-1.4688-3.2969-3.2969-3.2969s-3.2969 1.4688-3.2969 3.2969 1.4688 3.2969 3.2969 3.2969 3.2969-1.4688 3.2969-3.2969zm-0.65625 0c0 1.4531-1.1875 2.6406-2.6406 2.6406s-2.6406-1.1875-2.6406-2.6406 1.1875-2.6406 2.6406-2.6406 2.6406 1.1875 2.6406 2.6406z"/>
</g>
</defs>
<g transform="translate(-149.21 -128.95)">
<use x="148.71201" y="134.765" xlink:href="#a"/>
</g>
</svg>
