<?xml version="1.0" encoding="UTF-8"?>
<svg fill="#000000" version="1.1" viewBox="0 0 4.3125 5.5781" xmlns="http://www.w3.org/2000/svg" xmlns:xlink="http://www.w3.org/1999/xlink">
<defs>
<g id="a">
<path d="m4.3125-0.09375c0-0.046875-0.03125-0.09375-0.0625-0.14062-0.82812-1.0312-2.0938-1.6562-3.4688-1.6562-0.125 0-0.21875 0.10938-0.21875 0.23438s0.09375 0.23438 0.21875 0.23438c1.2344 0 2.375 0.54688 3.1094 1.4844 0.0625 0.046875 0.10938 0.078125 0.1875 0.078125 0.125 0 0.23438-0.09375 0.23438-0.23438zm0.32812-5.3438c-0.046875 0-0.09375 0-0.14062 0.046875-1.125 0.9375-2.3438 1.7344-3.7188 1.7344-0.14062 0-0.21875 0.09375-0.21875 0.23438 0 0.125 0.078125 0.21875 0.21875 0.21875 1.375 0 2.5938 0.78125 3.7188 1.7344 0.046875 0.03125 0.09375 0.046875 0.14062 0.046875 0.14062 0 0.23438-0.10938 0.23438-0.23438 0-0.0625-0.03125-0.125-0.078125-0.17188-0.78125-0.64062-1.6562-1.2812-2.6406-1.5938 0.98438-0.34375 1.8594-0.96875 2.6406-1.625 0.046875-0.03125 0.078125-0.10938 0.078125-0.17188 0-0.125-0.09375-0.21875-0.23438-0.21875z"/>
</g>
</defs>
<g transform="translate(-149.27 -129.33)">
<use x="148.71201" y="134.765" xlink:href="#a"/>
</g>
</svg>
