<?xml version="1.0" encoding="UTF-8"?>
<svg fill="#000000" version="1.1" viewBox="0 0 6.625 7.1406" xmlns="http://www.w3.org/2000/svg" xmlns:xlink="http://www.w3.org/1999/xlink">
<defs>
<g id="a">
<path d="m3.5938-3.3438-2.9219 3.1406c-0.10938 0.125-0.10938 0.15625-0.10938 0.21875 0 0.125 0.078125 0.20312 0.1875 0.20312 0.046875 0 0.10938-0.015625 0.21875-0.125l2.9062-3.1406 2.9062 3.1406c0.10938 0.10938 0.17188 0.125 0.20312 0.125 0.10938 0 0.20312-0.078125 0.20312-0.20312 0-0.0625-0.015625-0.09375-0.125-0.21875l-6.0781-6.5781c-0.14062-0.14062-0.20312-0.14062-0.23438-0.14062-0.10938 0-0.1875 0.078125-0.1875 0.20312 0 0.0625 0 0.09375 0.10938 0.21875z"/>
</g>
</defs>
<g transform="translate(-149.27 -127.84)">
<use x="148.71201" y="134.765" xlink:href="#a"/>
</g>
</svg>
