<?xml version="1.0" encoding="UTF-8"?>
<svg fill="#000000" version="1.1" viewBox="0 0 8.2031 10.25" xmlns="http://www.w3.org/2000/svg" xmlns:xlink="http://www.w3.org/1999/xlink">
<defs>
<g id="a">
<path d="m9.75-2.5469c0-1.8594-1.3125-3.4531-3.1094-3.8438l0.20312-1.1094c0.015625-0.09375-0.046875-0.17188-0.15625-0.17188-0.0625 0-0.125 0.046875-0.14062 0.10938l-0.20312 1.125c-0.17188-0.03125-0.35938-0.046875-0.53125-0.046875-1.3906 0-2.6875 0.75-3.3906 1.9375-0.32812-0.96875-0.375-1.4219-0.64062-1.4219-0.14062 0-0.23438 0.10938-0.23438 0.23438 0 0.14062 0.48438 0.89062 0.48438 1.8438 0 0.32812-0.03125 0.39062-0.09375 0.64062v0.0625c0 0.10938 0.09375 0.23438 0.23438 0.23438 0.078125 0 0.14062-0.03125 0.1875-0.10938 0.46875-0.67188 1.2656-1.0312 2.0625-1.25 0.10938-0.015625 0.17188-0.10938 0.17188-0.21875 0-0.14062-0.10938-0.21875-0.23438-0.21875-0.23438 0-1.0938 0.4375-1.625 0.60938 0.57812-1.1406 1.7656-1.875 3.0781-1.875 0.15625 0 0.3125 0 0.45312 0.03125l-1.2031 6.8281c-1.4062-0.3125-2.4375-1.4219-2.6719-2.7812-0.015625-0.10938-0.125-0.20312-0.21875-0.20312-0.14062 0-0.23438 0.10938-0.23438 0.23438 0 0.29688 0.57812 2.6562 3.0469 3.2031l-0.20312 1.1094c0 0.09375 0.046875 0.17188 0.15625 0.17188 0.0625 0 0.14062-0.046875 0.14062-0.10938l0.20312-1.125c0.17188 0.03125 0.34375 0.046875 0.53125 0.046875 2.2344 0 3.9375-1.8281 3.9375-3.9375zm-3.9375 3.4688c-0.15625 0-0.29688 0-0.45312-0.03125l1.2031-6.8281c1.5938 0.35938 2.7344 1.75 2.7344 3.3906 0 1.9688-1.625 3.4688-3.4844 3.4688z"/>
</g>
</defs>
<g transform="translate(-150.26 -127.09)">
<use x="148.71201" y="134.765" xlink:href="#a"/>
</g>
</svg>
