<?xml version="1.0" encoding="UTF-8"?>
<svg fill="#000000" version="1.1" viewBox="0 0 8.8281 8.8281" xmlns="http://www.w3.org/2000/svg" xmlns:xlink="http://www.w3.org/1999/xlink">
<defs>
<g id="a">
<path d="m8.9062-2.6562c0-2.4219-1.9531-4.4219-4.4062-4.4219-2.4688 0-4.4219 2-4.4219 4.4219 0 2.4531 2.0156 4.4062 4.4219 4.4062s4.4062-1.9531 4.4062-4.4062zm-4.4062 4.0156c-2.2188 0-4.0156-1.8125-4.0156-4.0156s1.7656-4.0156 4.0156-4.0156c2.2344 0 4.0156 1.8125 4.0156 4.0156s-1.8125 4.0156-4.0156 4.0156zm0.078125-3.6094c0.53125 0.125 0.64062 0.14062 0.85938 0.35938 0.0625 0.03125 0.32812 0.3125 0.32812 0.75 0 0.5-0.39062 1.0312-1.0781 1.0312-0.26562 0-0.79688-0.046875-1.2344-0.39062s-0.46875-0.82812-0.48438-1.1094c-0.015625-0.078125-0.09375-0.078125-0.125-0.078125-0.125 0-0.125 0.046875-0.125 0.26562v1.2969c0 0.1875 0 0.26562 0.10938 0.26562 0.046875 0 0.078125-0.03125 0.10938-0.09375 0.015625-0.015625 0.28125-0.39062 0.29688-0.39062 0.28125 0.25 0.79688 0.48438 1.4531 0.48438 0.96875 0 1.5781-0.76562 1.5781-1.5625 0-0.625-0.39062-1.0156-0.39062-1.0312-0.35938-0.375-0.51562-0.40625-1.375-0.60938-0.20312-0.046875-0.54688-0.125-0.60938-0.14062-0.5-0.20312-0.65625-0.59375-0.65625-0.89062 0-0.46875 0.39062-0.95312 1.0625-0.95312 1.2656 0 1.4375 1.1719 1.4844 1.4844 0.015625 0.078125 0.015625 0.14062 0.125 0.14062 0.14062 0 0.14062-0.0625 0.14062-0.26562v-1.3125c0-0.1875 0-0.26562-0.10938-0.26562-0.0625 0-0.078125 0.03125-0.10938 0.09375-0.03125 0.015625-0.28125 0.39062-0.29688 0.39062-0.375-0.35938-0.84375-0.48438-1.25-0.48438-0.90625 0-1.5625 0.6875-1.5625 1.4531 0 0.5625 0.32812 0.89062 0.4375 1.0156 0.29688 0.29688 0.5 0.32812 1.4219 0.54688z"/>
</g>
</defs>
<g transform="translate(-148.79 -127.69)">
<use x="148.71201" y="134.765" xlink:href="#a"/>
</g>
</svg>
