<?xml version="1.0" encoding="UTF-8"?>
<svg fill="#000000" version="1.1" viewBox="0 0 8.8438 6.6562" xmlns="http://www.w3.org/2000/svg" xmlns:xlink="http://www.w3.org/1999/xlink">
<defs>
<g id="a">
<path d="m8.5938-4.7812c-0.09375 0.078125-0.65625 0.5625-1 1.4688h0.29688c0.17188-0.46875 0.5625-1.1719 1.5-1.6719-0.9375-0.51562-1.3281-1.2188-1.5-1.6719h-0.29688c0.21875 0.5625 0.54688 1.0781 1 1.4688h-7.6875c-0.17188 0-0.34375 0-0.34375 0.20312s0.17188 0.20312 0.34375 0.20312zm0.45312 3.3125c0.1875 0 0.35938 0 0.35938-0.20312 0-0.1875-0.17188-0.1875-0.35938-0.1875h-7.6875c0.21875-0.1875 0.73438-0.71875 1.0156-1.4531h-0.3125c-0.28125 0.76562-0.89062 1.3438-1.5 1.6406 0.70312 0.39062 1.2188 0.9375 1.5 1.6719h0.3125c-0.09375-0.23438-0.34375-0.875-1.0156-1.4688z"/>
</g>
</defs>
<g transform="translate(-149.27 -128.11)">
<use x="148.71201" y="134.765" xlink:href="#a"/>
</g>
</svg>
