<?xml version="1.0" encoding="UTF-8"?>
<svg fill="#000000" version="1.1" viewBox="0 0 4.7344 4.7344" xmlns="http://www.w3.org/2000/svg" xmlns:xlink="http://www.w3.org/1999/xlink">
<defs>
<g id="a">
<path d="m2.7188-4.7188c-0.125-0.125-0.14062-0.14062-0.21875-0.14062s-0.09375 0.015625-0.20312 0.125l-2.0469 2.0469c-0.10938 0.10938-0.125 0.125-0.125 0.1875 0 0.046875 0.015625 0.09375 0.03125 0.125 0.03125 0.015625 0.375 0.35938 0.54688 0.54688l1.4219 1.4219c0.09375 0.078125 0.23438 0.21875 0.25 0.25 0 0 0.0625 0.03125 0.125 0.03125 0.015625 0 0.078125 0 0.125-0.046875l0.25-0.23438 1.7031-1.7031 0.23438-0.25c0.015625-0.015625 0.046875-0.046875 0.046875-0.14062 0-0.078125-0.03125-0.10938-0.125-0.20312zm-0.21875 0.32812 1.8906 1.8906-1.8906 1.9062-1.8906-1.9062z"/>
</g>
</defs>
<g transform="translate(-148.84 -129.91)">
<use x="148.71201" y="134.765" xlink:href="#a"/>
</g>
</svg>
