<?xml version="1.0" encoding="UTF-8"?>
<svg fill="#000000" version="1.1" viewBox="0 0 6.1018 10.312" xmlns="http://www.w3.org/2000/svg" xmlns:xlink="http://www.w3.org/1999/xlink">
<defs>
<g id="a">
<path d="m3.6719-1.2656c-0.21875-0.17188-0.48438-0.29688-0.76562-0.375-0.5-0.10938-1.0781-0.015625-1.4844 0.32812-0.26562 0.20312-0.42188 0.51562-0.53125 0.82812-0.015625 0.09375-0.10938 0.25-0.03125 0.32812 0.046875 0.0625 0.15625 0.0625 0.20312 0 0.03125-0.046875 0.03125-0.09375 0.046875-0.14062 0.015625-0.0625 0.03125-0.125 0.0625-0.20312 0.10938-0.28125 0.32812-0.53125 0.625-0.64062 0.17188-0.0625 0.39062-0.078125 0.57812-0.03125 0.32812 0.0625 0.60938 0.26562 0.875 0.4375 0.09375 0.078125 0.20312 0.15625 0.29688 0.23438 0.046875 0.03125 0.10938 0.0625 0.125 0.10938v0.125 0.96875c-0.21875-0.17188-0.48438-0.29688-0.76562-0.35938-0.5-0.125-1.0781-0.03125-1.4844 0.3125-0.26562 0.21875-0.42188 0.51562-0.53125 0.84375-0.015625 0.078125-0.10938 0.25-0.03125 0.32812 0.0625 0.078125 0.17188 0.046875 0.21875-0.046875 0.015625-0.046875 0.03125-0.10938 0.046875-0.17188 0.046875-0.10938 0.078125-0.23438 0.15625-0.34375 0.21875-0.35938 0.625-0.53125 1.0469-0.48438 0.17188 0.03125 0.32812 0.10938 0.46875 0.1875 0.20312 0.10938 0.39062 0.23438 0.57812 0.35938 0.0625 0.0625 0.14062 0.10938 0.20312 0.17188 0.046875 0.03125 0.078125 0.0625 0.09375 0.10938 0.015625 0.0625 0 0.15625 0 0.23438v0.48438c0 0.078125-0.015625 0.21875 0.046875 0.28125 0.03125 0.046875 0.078125 0.046875 0.125 0.046875 0.078125 0 0.1875 0 0.21875-0.078125s0.015625-0.17188 0.015625-0.25v-0.46875c0.21875 0.17188 0.5 0.29688 0.76562 0.35938 0.51562 0.125 1.0938 0.03125 1.5-0.3125 0.25-0.21875 0.42188-0.51562 0.53125-0.84375 0.015625-0.078125 0.09375-0.25 0.015625-0.32812-0.046875-0.0625-0.15625-0.0625-0.1875 0.015625-0.03125 0.03125-0.03125 0.09375-0.046875 0.125-0.03125 0.078125-0.046875 0.14062-0.078125 0.21875-0.10938 0.28125-0.3125 0.51562-0.60938 0.625-0.1875 0.0625-0.40625 0.078125-0.59375 0.046875-0.32812-0.0625-0.60938-0.26562-0.875-0.45312-0.09375-0.0625-0.1875-0.14062-0.29688-0.21875-0.03125-0.03125-0.09375-0.0625-0.10938-0.10938s-0.015625-0.09375-0.015625-0.125v-0.98438c0.21875 0.17188 0.5 0.29688 0.76562 0.375 0.48438 0.10938 1.0625 0.03125 1.4531-0.29688 0.28125-0.20312 0.45312-0.51562 0.5625-0.84375 0.03125-0.09375 0.10938-0.26562 0.03125-0.34375-0.0625-0.078125-0.17188-0.046875-0.21875 0.03125-0.015625 0.0625-0.015625 0.10938-0.046875 0.17188-0.03125 0.10938-0.078125 0.23438-0.14062 0.32812-0.20312 0.35938-0.57812 0.53125-0.98438 0.51562-0.1875-0.015625-0.375-0.09375-0.53125-0.1875-0.1875-0.10938-0.375-0.21875-0.54688-0.35938-0.078125-0.046875-0.15625-0.10938-0.23438-0.15625-0.046875-0.03125-0.078125-0.0625-0.09375-0.10938-0.03125-0.0625-0.015625-0.17188-0.015625-0.25v-2.5781c0.14062 0.078125 0.28125 0.15625 0.4375 0.21875 0.21875 0.125 0.4375 0.25 0.64062 0.375 0.3125 0.20312 0.60938 0.40625 0.89062 0.625 0.14062 0.10938 0.25 0.20312 0.39062 0.3125 0.09375 0.078125 0.26562 0.0625 0.375 0.046875 0.078125 0 0.125-0.078125 0.10938-0.14062-0.03125-0.078125-0.10938-0.10938-0.15625-0.15625-0.125-0.10938-0.25-0.20312-0.375-0.29688-0.48438-0.375-1-0.71875-1.5469-1.0312-0.17188-0.09375-0.375-0.1875-0.5625-0.28125-0.046875-0.03125-0.17188-0.0625-0.1875-0.125-0.03125-0.0625-0.015625-0.15625-0.015625-0.21875v-0.5c0-0.078125-0.015625-0.1875 0.015625-0.25 0.03125-0.046875 0.125-0.078125 0.17188-0.09375 0.15625-0.078125 0.29688-0.15625 0.45312-0.23438 0.46875-0.25 0.90625-0.53125 1.3438-0.84375 0.23438-0.17188 0.48438-0.35938 0.70312-0.54688 0.078125-0.0625 0.23438-0.17188 0.125-0.26562-0.046875-0.046875-0.125-0.03125-0.1875-0.03125s-0.14062-0.015625-0.1875 0.015625c-0.0625 0.015625-0.10938 0.0625-0.15625 0.09375-0.0625 0.0625-0.15625 0.125-0.21875 0.17188-0.40625 0.32812-0.82812 0.625-1.2812 0.89062-0.25 0.14062-0.51562 0.26562-0.78125 0.40625v-1.2188c0-0.21875 0.015625-0.42188 0-0.625-0.015625-0.125-0.125-0.125-0.21875-0.125-0.0625 0-0.14062 0-0.17188 0.0625-0.015625 0.0625-0.015625 0.10938-0.015625 0.17188v1.75c0 0.046875 0.015625 0.10938-0.015625 0.15625-0.03125 0.03125-0.09375 0.046875-0.14062 0.078125-0.125 0.03125-0.25 0.078125-0.375 0.125-0.51562 0.17188-1.0625 0.28125-1.6094 0.32812-0.15625 0.015625-0.3125 0.03125-0.46875 0.03125-0.0625 0-0.14062-0.015625-0.1875 0.03125-0.0625 0.0625-0.046875 0.14062-0.046875 0.21875 0 0.0625 0.015625 0.10938 0.0625 0.14062 0.0625 0.03125 0.15625 0 0.21875 0 0.14062 0 0.28125 0.015625 0.42188 0.03125 0.53125 0.0625 1.0781 0.17188 1.5938 0.32812 0.10938 0.046875 0.25 0.09375 0.35938 0.14062 0.046875 0.015625 0.125 0.03125 0.17188 0.0625 0.046875 0.046875 0.015625 0.125 0.015625 0.1875zm-1.0469-3.4844v-0.015625l0.42188-0.10938 0.625-0.21875v0.67188l-0.625-0.21875z"/>
</g>
</defs>
<g transform="translate(-149.54 -127.11)">
<use x="148.71201" y="134.765" xlink:href="#a"/>
</g>
</svg>
