<?xml version="1.0" encoding="UTF-8"?>
<svg fill="#000000" version="1.1" viewBox="0 0 8.1719 8.1719" xmlns="http://www.w3.org/2000/svg" xmlns:xlink="http://www.w3.org/1999/xlink">
<defs>
<g id="a">
<path d="m6.8594-1.4219c0-0.20312-0.09375-0.375-0.29688-0.46875-0.32812-0.15625-0.9375-0.09375-1.875-0.60938 1.0312-0.5625 1.5469-0.45312 1.875-0.59375 0.17188-0.09375 0.29688-0.25 0.29688-0.46875 0-0.3125-0.17188-0.53125-0.48438-0.53125-0.09375 0-0.17188 0.03125-0.29688 0.09375-0.35938 0.23438-0.4375 0.8125-1.4531 1.3438 0-1 0.4375-1.5938 0.4375-2 0-0.29688-0.25-0.5-0.53125-0.5s-0.53125 0.20312-0.53125 0.5c0 0.40625 0.45312 1.0156 0.45312 2-0.78125-0.4375-1.125-1.0938-1.5312-1.3438-0.10938-0.0625-0.1875-0.09375-0.28125-0.09375-0.34375 0-0.5 0.28125-0.5 0.53125 0 0.21875 0.10938 0.375 0.28125 0.45312 0.375 0.17188 1.1406 0.15625 1.9219 0.60938-0.78125 0.45312-1.5469 0.46875-1.9062 0.60938-0.20312 0.09375-0.29688 0.35938-0.29688 0.54688 0 0.20312 0.1875 0.42188 0.51562 0.42188 0.10938 0 0.21875-0.046875 0.35938-0.10938 0.29688-0.1875 0.76562-0.89062 1.4375-1.3438 0 0.98438-0.45312 1.5625-0.45312 1.9531 0 0.29688 0.25 0.54688 0.53125 0.54688s0.53125-0.25 0.53125-0.54688c0-0.39062-0.4375-0.96875-0.4375-1.9531 1.0625 0.59375 1.1406 1.4531 1.7031 1.4531 0.39062 0 0.53125-0.25 0.53125-0.5zm1.7656 3v-8.1719h-8.1719v8.1719zm-0.65625-0.65625h-6.8594v-6.8594h6.8594z"/>
</g>
</defs>
<g transform="translate(-149.17 -128.17)">
<use x="148.71201" y="134.765" xlink:href="#a"/>
</g>
</svg>
