<?xml version="1.0" encoding="UTF-8"?>
<svg fill="#000000" version="1.1" viewBox="0 0 7.0312 8.4531" xmlns="http://www.w3.org/2000/svg" xmlns:xlink="http://www.w3.org/1999/xlink">
<defs>
<g id="a">
<path d="m3.5156-4.875c-0.42188 0.17188-0.57812 0.20312-0.9375 0.21875 0-0.54688 0.03125-0.78125 0.25-1.3125 0.078125-0.1875 0.10938-0.35938 0.10938-0.46875 0-0.23438-0.23438-0.45312-0.46875-0.45312-0.25 0-0.46875 0.21875-0.46875 0.45312 0 0.10938 0.03125 0.28125 0.10938 0.46875 0.20312 0.53125 0.23438 0.76562 0.23438 1.3125-0.34375-0.015625-0.51562-0.046875-0.9375-0.21875-0.20312-0.078125-0.375-0.14062-0.5-0.14062-0.21875 0-0.39062 0.20312-0.39062 0.45312 0 0.28125 0.15625 0.45312 0.4375 0.45312 0.14062 0 0.23438-0.03125 0.46875-0.14062 0.40625-0.14062 0.57812-0.1875 0.92188-0.21875 0 0.90625-0.09375 1.4219-0.40625 1.8125 0.29688 0.28125 0.40625 0.79688 0.40625 1.7812-0.34375-0.015625-0.5-0.046875-0.92188-0.21875-0.21875-0.078125-0.40625-0.125-0.53125-0.125-0.21875 0-0.39062 0.1875-0.39062 0.4375 0 0.26562 0.17188 0.45312 0.39062 0.45312 0.125 0 0.3125-0.046875 0.5-0.125 0.4375-0.17188 0.59375-0.21875 0.95312-0.21875 0 0.54688-0.046875 0.76562-0.23438 1.2969-0.078125 0.20312-0.125 0.375-0.125 0.48438 0 0.21875 0.23438 0.45312 0.46875 0.45312s0.48438-0.23438 0.48438-0.45312c0-0.10938-0.046875-0.28125-0.125-0.48438-0.20312-0.53125-0.23438-0.75-0.23438-1.2969 0.35938 0 0.5 0.046875 0.9375 0.21875 0.1875 0.0625 0.375 0.10938 0.48438 0.125 0.17188 0 0.34375-0.0625 0.51562-0.125 0.42188-0.17188 0.59375-0.21875 0.95312-0.21875 0 0.54688-0.046875 0.76562-0.25 1.2969-0.078125 0.20312-0.10938 0.375-0.10938 0.48438 0 0.21875 0.21875 0.45312 0.46875 0.45312 0.23438 0 0.46875-0.23438 0.46875-0.45312 0-0.10938-0.03125-0.28125-0.10938-0.48438-0.21875-0.53125-0.25-0.75-0.25-1.2969 0.375 0 0.51562 0.046875 0.9375 0.21875 0.21875 0.078125 0.39062 0.125 0.5 0.125 0.23438 0 0.40625-0.1875 0.40625-0.4375 0-0.26562-0.17188-0.45312-0.39062-0.45312-0.125 0-0.32812 0.046875-0.53125 0.125-0.42188 0.17188-0.5625 0.20312-0.92188 0.21875 0-0.98438 0.09375-1.4219 0.40625-1.7812-0.3125-0.375-0.40625-0.82812-0.40625-1.8125 0.35938 0.03125 0.5 0.0625 0.9375 0.21875 0.21875 0.078125 0.39062 0.14062 0.53125 0.14062 0.21875 0 0.375-0.20312 0.375-0.4375 0-0.26562-0.17188-0.46875-0.39062-0.46875-0.125 0-0.29688 0.0625-0.5 0.14062-0.4375 0.17188-0.57812 0.20312-0.95312 0.21875 0-0.54688 0.046875-0.78125 0.25-1.3125 0.078125-0.1875 0.125-0.35938 0.125-0.46875 0-0.23438-0.23438-0.45312-0.48438-0.45312-0.23438 0-0.46875 0.21875-0.46875 0.45312 0 0.10938 0.046875 0.28125 0.125 0.46875 0.20312 0.53125 0.23438 0.76562 0.23438 1.3125-0.35938-0.015625-0.51562-0.046875-0.9375-0.21875-0.20312-0.078125-0.39062-0.14062-0.5-0.14062-0.14062 0-0.29688 0.0625-0.51562 0.14062zm0.51562 3.6562c-0.14062 0-0.32812 0.046875-0.54688 0.125-0.42188 0.17188-0.5625 0.20312-0.90625 0.21875 0-0.98438 0.078125-1.4219 0.40625-1.7812-0.32812-0.375-0.40625-0.82812-0.40625-1.8125 0.35938 0.03125 0.5 0.0625 0.92188 0.21875 0.17188 0.0625 0.3125 0.10938 0.42188 0.125 0.03125 0.015625 0.078125 0.015625 0.10938 0.015625 0.125 0 0.28125-0.03125 0.51562-0.14062 0.39062-0.14062 0.5625-0.1875 0.92188-0.21875 0 0.90625-0.10938 1.4219-0.40625 1.8125 0.29688 0.28125 0.40625 0.79688 0.40625 1.7812-0.35938-0.015625-0.5-0.046875-0.9375-0.21875-0.20312-0.078125-0.375-0.125-0.5-0.125z"/>
</g>
</defs>
<g transform="translate(-149.21 -127.87)">
<use x="148.71201" y="134.765" xlink:href="#a"/>
</g>
</svg>
