<?xml version="1.0" encoding="UTF-8"?>
<svg fill="#000000" version="1.1" viewBox="0 0 4.375 12.016" xmlns="http://www.w3.org/2000/svg" xmlns:xlink="http://www.w3.org/1999/xlink">
<defs>
<g id="a">
<path d="m2.8594-1.8594v1.1875h-0.92188zm0-2.9844v1.1719l-0.92188-1.1719zm-1.875 4.9062h1.875v0.9375c0 0.78125-0.375 1.5625-1.0781 1.5625h-0.48438l0.09375 0.70312h0.0625c1.25 0 2.2656-1.0156 2.2656-2.2656v-0.9375h1.4375v-0.73438h-1.4375v-4.1719h1.4531v-0.73438h-1.4531v-0.9375c0-0.76562 0.3125-1.5469 0.98438-1.5469 0.15625 0 0.32812 0.015625 0.48438 0.046875l0.17188-0.6875c-0.14062-0.046875-0.3125-0.046875-0.46875-0.046875-1.1562 0.03125-2.0312 1.0469-2.0312 2.2344v0.9375h-1.875v0.71875l1.6094 2.0938-1.6094 2.0938z"/>
</g>
</defs>
<g transform="translate(-149.7 -126.02)">
<use x="148.71201" y="134.765" xlink:href="#a"/>
</g>
</svg>
