<?xml version="1.0" encoding="UTF-8"?>
<svg fill="#000000" version="1.1" viewBox="0 0 6.0781 6.7344" xmlns="http://www.w3.org/2000/svg" xmlns:xlink="http://www.w3.org/1999/xlink">
<defs>
<g id="a">
<path d="m6.4531-6.375c0-0.375-0.3125-0.64062-0.625-0.64062-0.32812 0-0.64062 0.25-0.64062 0.64062s0.25 0.64062 0.64062 0.64062c0.375 0 0.625-0.3125 0.625-0.64062zm-1.6094 0c0-0.375-0.3125-0.64062-0.625-0.64062-0.32812 0-0.64062 0.25-0.64062 0.64062s0.26562 0.64062 0.64062 0.64062 0.625-0.3125 0.625-0.64062zm-1.5938 0c0-0.375-0.3125-0.64062-0.625-0.64062-0.32812 0-0.64062 0.25-0.64062 0.64062s0.26562 0.64062 0.64062 0.64062 0.625-0.3125 0.625-0.64062zm3.0938 2.2656v-0.65625h-5.8594v0.65625zm-4.7031-2.2656c0-0.375-0.3125-0.64062-0.625-0.64062s-0.64062 0.25-0.64062 0.64062 0.26562 0.64062 0.64062 0.64062 0.625-0.3125 0.625-0.64062zm4.7031 4.1875v-0.65625h-5.8594v0.65625zm0 1.9062v-0.65625h-5.8594v0.65625z"/>
</g>
</defs>
<g transform="translate(-149.09 -127.75)">
<use x="148.71201" y="134.765" xlink:href="#a"/>
</g>
</svg>
