<?xml version="1.0" encoding="UTF-8"?>
<svg fill="#000000" version="1.1" viewBox="0 0 5.479 8.4661" xmlns="http://www.w3.org/2000/svg" xmlns:xlink="http://www.w3.org/1999/xlink">
<defs>
<g id="a">
<path d="m3.0312-6.8125v0.29688c0.15625 0 0.29688 0 0.45312 0.03125 0.078125 0.015625 0.17188 0.046875 0.21875 0.10938 0.0625 0.0625 0.078125 0.14062 0.09375 0.23438 0.015625 0.15625 0.015625 0.32812 0.015625 0.48438v1.8438c-0.17188-0.1875-0.35938-0.34375-0.57812-0.45312-0.85938-0.40625-1.9062 0.03125-2.4531 0.73438-0.67188 0.90625-0.57812 2.2812 0.25 3.0469 0.1875 0.17188 0.39062 0.32812 0.64062 0.42188 0.35938 0.15625 0.76562 0.21875 1.1406 0.125-0.21875 0.35938-0.42188 0.71875-0.59375 1.0938l-0.046875 0.0625c-0.03125 0.09375-0.15625 0.26562-0.015625 0.3125 0.0625 0.03125 0.125 0 0.15625-0.03125 0.046875-0.046875 0.0625-0.10938 0.09375-0.17188 0.03125-0.078125 0.09375-0.1875 0.14062-0.26562 0.14062-0.26562 0.28125-0.53125 0.42188-0.78125 0.0625-0.10938 0.125-0.23438 0.21875-0.32812 0.046875-0.0625 0.15625-0.10938 0.21875-0.15625 0.17188-0.10938 0.35938-0.28125 0.45312-0.46875h0.015625c0.0625 0.1875 0.1875 0.35938 0.32812 0.5 0.125 0.10938 0.28125 0.1875 0.4375 0.23438 0.17188 0.046875 0.34375 0.046875 0.51562 0 0.125-0.015625 0.23438-0.078125 0.32812-0.14062 0.078125-0.0625 0.15625-0.14062 0.20312-0.23438 0.046875-0.078125 0.09375-0.17188 0.10938-0.25 0.10938-0.5-0.28125-1.0156-0.79688-1.0469-0.1875 0-0.35938 0.03125-0.53125 0.09375v-5.4062zm-1.8594 4.9062c-0.015625-0.17188 0-0.35938 0-0.53125 0.03125-0.5 0.14062-1.0156 0.51562-1.375 0.078125-0.0625 0.15625-0.14062 0.25-0.1875 0.35938-0.23438 0.79688-0.25 1.1875-0.078125 0.14062 0.078125 0.26562 0.17188 0.375 0.28125 0.078125 0.078125 0.15625 0.17188 0.20312 0.26562 0.03125 0.046875 0.0625 0.10938 0.078125 0.15625 0.015625 0.1875 0 0.39062 0 0.5625v1.5156c0 0.0625 0 0.14062-0.015625 0.20312-0.03125 0.046875-0.09375 0.09375-0.14062 0.14062-0.09375 0.078125-0.1875 0.17188-0.26562 0.26562-0.09375 0.09375-0.17188 0.20312-0.25 0.29688-0.03125 0.0625-0.078125 0.14062-0.15625 0.1875-0.09375 0.046875-0.21875 0.0625-0.32812 0.078125-0.5625 0.0625-1.0469-0.3125-1.2656-0.8125-0.14062-0.3125-0.15625-0.64062-0.1875-0.96875zm3.2969 0.89062c0-0.0625-0.015625-0.1875 0.03125-0.23438 0.015625-0.046875 0.078125-0.0625 0.125-0.078125 0.125-0.046875 0.26562-0.0625 0.40625-0.03125 0.28125 0.046875 0.5 0.28125 0.53125 0.57812 0.03125 0.34375-0.26562 0.75-0.64062 0.65625-0.046875 0-0.09375-0.03125-0.14062-0.0625-0.26562-0.1875-0.28125-0.54688-0.3125-0.82812z"/>
</g>
</defs>
<g transform="translate(-149.05 -127.84)">
<use x="148.71201" y="134.765" xlink:href="#a"/>
</g>
</svg>
