<?xml version="1.0" encoding="UTF-8"?>
<svg fill="#000000" version="1.1" viewBox="0 0 4.4219 4.9844" xmlns="http://www.w3.org/2000/svg" xmlns:xlink="http://www.w3.org/1999/xlink">
<defs>
<g id="a">
<path d="m2.9531 0.078125v-2.4844l1.9531-1.9531c0.03125-0.046875 0.0625-0.09375 0.0625-0.14062 0-0.0625-0.03125-0.10938-0.0625-0.15625-0.046875-0.03125-0.09375-0.046875-0.14062-0.046875s-0.09375 0.015625-0.14062 0.046875l-1.8594 1.8906-1.875-1.8906c-0.03125-0.03125-0.09375-0.046875-0.14062-0.046875s-0.10938 0.015625-0.14062 0.046875c-0.046875 0.046875-0.0625 0.09375-0.0625 0.15625 0 0.046875 0.015625 0.09375 0.0625 0.14062l1.9531 1.9531v2.4844c0 0.10938 0.09375 0.20312 0.20312 0.20312s0.1875-0.09375 0.1875-0.20312z"/>
</g>
</defs>
<g transform="translate(-149.26 -130.06)">
<use x="148.71201" y="134.765" xlink:href="#a"/>
</g>
</svg>
