<?xml version="1.0" encoding="UTF-8"?>
<svg fill="#000000" version="1.1" viewBox="0 0 8.8594 2.7969" xmlns="http://www.w3.org/2000/svg" xmlns:xlink="http://www.w3.org/1999/xlink">
<defs>
<g id="a">
<path d="m8.4844-2.2969c-0.35938 0.29688-0.60938 0.54688-0.89062 0.95312-0.46875 0.60938-0.70312 1.2812-0.70312 1.3438 0 0.10938 0.125 0.10938 0.20312 0.10938 0.0625 0 0.10938 0 0.14062-0.03125 0.015625-0.015625 0.03125-0.015625 0.10938-0.20312 0.54688-1.3125 1.4219-1.9219 1.9844-2.25 0.046875-0.03125 0.078125-0.0625 0.078125-0.15625 0-0.15625-0.0625-0.15625-0.28125-0.15625h-8.2188c-0.17188 0-0.35938 0-0.35938 0.1875 0 0.20312 0.1875 0.20312 0.35938 0.20312z"/>
</g>
</defs>
<g transform="translate(-149.26 -132.08)">
<use x="148.71201" y="134.765" xlink:href="#a"/>
</g>
</svg>
