<?xml version="1.0" encoding="UTF-8"?>
<svg fill="#000000" version="1.1" viewBox="0 0 7.8438 7.375" xmlns="http://www.w3.org/2000/svg" xmlns:xlink="http://www.w3.org/1999/xlink">
<defs>
<g id="a">
<path d="m8.4688-5.6094c0-0.046875-0.03125-0.078125-0.078125-0.078125-0.17188 0-0.32812 0.03125-0.5 0.078125-0.28125-0.89062-1.0781-1.4531-2.4062-1.4531-1.1719 0-2.75 0.6875-3.5156 1.7812-0.40625 0.5625-0.60938 1.125-0.60938 1.5781 0 0.59375 0.375 0.98438 1.1562 0.98438 0.71875 0 1.6562-0.6875 2.1562-1.4219 0.32812-0.46875 0.51562-0.92188 0.51562-1.3125v-0.14062c-0.015625-0.03125-0.046875-0.0625-0.078125-0.0625h-0.03125c-0.015625 0-0.046875 0-0.0625 0.015625-0.046875 0.015625-0.0625 0.03125-0.0625 0.078125 0 0.375-0.17188 0.84375-0.51562 1.3281-0.48438 0.67188-1.2969 1.2969-1.875 1.2969-0.5 0-0.73438-0.25-0.73438-0.65625s0.23438-0.98438 0.67188-1.5938c0.65625-0.9375 1.9844-1.6562 2.9375-1.6562 1.2188 0 1.9219 0.51562 2.1562 1.3438-1 0.45312-2 1.625-2.7656 2.6875-0.6875 0.98438-1.4531 2.0625-2.0938 2.5156-0.23438-0.09375-0.48438-0.1875-0.8125-0.1875h-0.078125c-0.39062 0-0.96875 0.015625-1.1719 0.28125-0.03125 0.046875-0.046875 0.078125-0.046875 0.10938 0 0.23438 0.73438 0.26562 1.2031 0.26562h0.3125c0.23438 0 0.48438-0.0625 0.71875-0.15625 0.32812 0.14062 0.625 0.29688 1.0469 0.29688 0.21875 0 0.45312-0.046875 0.75-0.15625 1.1406-0.40625 2.0469-1.4688 2.5625-2.4219 0.5-0.9375 0.78125-1.8125 0.78125-2.5625 0-0.17188-0.03125-0.35938-0.0625-0.51562 0.14062-0.078125 0.28125-0.125 0.40625-0.125 0.03125 0 0.046875-0.015625 0.0625-0.03125 0.03125-0.046875 0.0625-0.078125 0.0625-0.10938zm-1.5156 3.2656c-0.46875 0.90625-1.2656 1.8906-2.3125 2.2969-0.26562 0.09375-0.5 0.14062-0.70312 0.14062-0.3125 0-0.5625-0.09375-0.8125-0.20312 0.9375-0.51562 1.8594-1.6094 2.5625-2.6094 0.65625-0.9375 1.375-1.9219 1.9844-2.4219 0 0.10938 0.015625 0.21875 0.015625 0.32812 0 0.70312-0.25 1.5469-0.73438 2.4688zm-4.7656 2.2812c-0.90625 0-0.98438-0.0625-0.98438-0.046875 0.078125-0.125 0.35938-0.14062 0.6875-0.14062 0.23438 0 0.4375 0.046875 0.60938 0.10938-0.10938 0.046875-0.21875 0.078125-0.3125 0.078125z"/>
</g>
</defs>
<g transform="translate(-149.34 -127.7)">
<use x="148.71201" y="134.765" xlink:href="#a"/>
</g>
</svg>
