<?xml version="1.0" encoding="UTF-8"?>
<svg fill="#000000" version="1.1" viewBox="0 0 6.0988 8.3063" xmlns="http://www.w3.org/2000/svg" xmlns:xlink="http://www.w3.org/1999/xlink">
<defs>
<g id="a">
<path d="m4.5-1.9375c-0.1875 0.28125-0.35938 0.57812-0.54688 0.85938-0.03125 0.078125-0.078125 0.14062-0.125 0.20312-0.015625 0.046875-0.046875 0.09375-0.09375 0.09375-0.0625 0.03125-0.14062 0.015625-0.21875 0.015625h-2.4375c-0.078125 0-0.15625-0.015625-0.20312 0.03125-0.046875 0.03125-0.046875 0.09375-0.046875 0.14062 0 0.0625-0.015625 0.14062 0.03125 0.1875 0.03125 0.03125 0.09375 0.03125 0.14062 0.03125h0.3125 2.2031c-0.1875 0.28125-0.34375 0.54688-0.51562 0.82812l-0.14062 0.23438c-0.03125 0.046875-0.046875 0.078125-0.09375 0.09375-0.03125 0.03125-0.078125 0.03125-0.14062 0.03125h-1.5781c-0.046875 0-0.09375-0.015625-0.15625 0-0.046875 0.03125-0.0625 0.10938-0.0625 0.17188 0 0.078125-0.015625 0.20312 0.10938 0.21875 0.0625 0.015625 0.125 0 0.1875 0h1.4062c-0.125 0.21875-0.26562 0.42188-0.39062 0.625-0.03125 0.078125-0.10938 0.1875 0 0.25 0.015625 0.015625 0.046875 0.015625 0.078125 0.015625 0.078125 0 0.1875 0.015625 0.25-0.03125 0.046875-0.046875 0.09375-0.125 0.14062-0.20312l0.26562-0.42188c0.03125-0.078125 0.09375-0.21875 0.1875-0.23438h0.3125 3.2344c0.078125 0 0.20312 0.03125 0.28125-0.03125 0.03125-0.03125 0.03125-0.078125 0.03125-0.14062 0-0.078125 0.015625-0.20312-0.10938-0.21875-0.078125-0.015625-0.15625 0-0.23438 0h-3.3125c0.17188-0.29688 0.35938-0.57812 0.53125-0.875 0.046875-0.0625 0.09375-0.14062 0.125-0.20312 0.03125-0.046875 0.0625-0.078125 0.09375-0.09375 0.078125-0.015625 0.15625-0.015625 0.21875-0.015625h2.4375c0.078125 0 0.17188 0.03125 0.21875-0.03125 0.03125-0.03125 0.03125-0.09375 0.03125-0.14062 0-0.0625 0.015625-0.125-0.03125-0.1875-0.015625-0.03125-0.078125-0.03125-0.125-0.03125h-0.3125-2.2188c0.1875-0.26562 0.34375-0.54688 0.51562-0.82812l0.14062-0.23438c0.03125-0.03125 0.046875-0.078125 0.09375-0.09375 0.046875-0.03125 0.09375-0.015625 0.14062-0.015625h1.5781c0.0625 0 0.10938 0 0.15625-0.015625 0.0625-0.03125 0.0625-0.09375 0.0625-0.15625 0-0.09375 0.015625-0.21875-0.10938-0.23438-0.046875-0.015625-0.125 0-0.1875 0h-1.4062c0.125-0.20312 0.25-0.40625 0.39062-0.60938 0.03125-0.0625 0.10938-0.17188 0.03125-0.25-0.03125-0.015625-0.0625-0.03125-0.09375-0.03125-0.078125 0-0.1875-0.015625-0.25 0.03125s-0.10938 0.14062-0.15625 0.21875l-0.26562 0.4375c-0.046875 0.046875-0.09375 0.1875-0.15625 0.20312-0.046875 0.015625-0.09375 0-0.14062 0h-3.3594v-3.4688h5.375c0.09375 0 0.28125 0.046875 0.32812-0.078125v-0.09375c0-0.078125 0.015625-0.17188-0.046875-0.20312-0.046875-0.015625-0.09375-0.015625-0.14062-0.015625h-5.6875c-0.046875 0-0.09375-0.015625-0.15625 0-0.078125 0.046875-0.0625 0.15625-0.0625 0.23438v3.7656c0 0.0625-0.015625 0.17188 0.046875 0.23438 0.0625 0.046875 0.1875 0.03125 0.26562 0.03125z"/>
</g>
</defs>
<g transform="translate(-149.54 -128.55)">
<use x="148.71201" y="134.765" xlink:href="#a"/>
</g>
</svg>
