<?xml version="1.0" encoding="UTF-8"?>
<svg fill="#000000" version="1.1" viewBox="0 0 3.8602 4.5698" xmlns="http://www.w3.org/2000/svg" xmlns:xlink="http://www.w3.org/1999/xlink">
<defs>
<g id="a">
<path d="m3.2969-2.3125c0 0.59375-0.03125 1.25-0.45312 1.7031-0.0625 0.078125-0.14062 0.15625-0.21875 0.20312-0.10938 0.078125-0.21875 0.14062-0.32812 0.17188-0.125 0.0625-0.25 0.078125-0.39062 0.078125-0.15625 0-0.3125-0.015625-0.45312-0.078125-0.34375-0.10938-0.60938-0.34375-0.78125-0.64062-0.046875-0.078125-0.078125-0.14062-0.10938-0.21875-0.015625-0.046875-0.03125-0.10938-0.046875-0.15625-0.03125-0.0625-0.14062-0.078125-0.20312-0.03125-0.046875 0.0625-0.015625 0.14062 0 0.1875 0.03125 0.14062 0.10938 0.28125 0.1875 0.42188 0.32812 0.51562 0.90625 0.78125 1.5156 0.76562 0.25 0 0.5-0.0625 0.73438-0.15625 0.21875-0.09375 0.4375-0.21875 0.60938-0.375s0.3125-0.32812 0.4375-0.53125c0.51562-0.85938 0.4375-2-0.20312-2.7812-0.17188-0.1875-0.35938-0.34375-0.57812-0.48438-0.64062-0.34375-1.5469-0.34375-2.125 0.15625-0.1875 0.17188-0.32812 0.375-0.4375 0.60938-0.09375 0.26562-0.14062 0.53125-0.15625 0.8125-0.015625 0.078125-0.046875 0.21875 0.015625 0.29688 0.046875 0.0625 0.14062 0.046875 0.20312 0.046875zm-2.3438-0.20312c0.015625-0.125 0-0.25 0.03125-0.35938 0.03125-0.40625 0.125-0.82812 0.4375-1.125 0.078125-0.0625 0.15625-0.10938 0.25-0.15625 0.10938-0.046875 0.21875-0.09375 0.32812-0.09375 0.35938-0.03125 0.70312 0.1875 0.90625 0.46875 0.28125 0.34375 0.39062 0.82812 0.39062 1.2656z"/>
</g>
</defs>
<g transform="translate(-148.99 -130.29)">
<use x="148.71201" y="134.765" xlink:href="#a"/>
</g>
</svg>
