<?xml version="1.0" encoding="UTF-8"?>
<svg fill="#000000" version="1.1" viewBox="0 0 5.3906 5.3906" xmlns="http://www.w3.org/2000/svg" xmlns:xlink="http://www.w3.org/1999/xlink">
<defs>
<g id="a">
<path d="m1.5312-5.4375h-0.64062v3.0781c0 1.3594 1.2812 2.3125 2.7031 2.3125 1.4062 0 2.6875-0.95312 2.6875-2.3125v-3.0781h-0.64062v3.0781c0 1-0.98438 1.6719-2.0469 1.6719-1.0781 0-2.0625-0.67188-2.0625-1.6719zm2.6094 1.7969c0-0.10938-0.10938-0.23438-0.21875-0.34375-0.09375-0.09375-0.21875-0.21875-0.32812-0.21875s-0.25 0.125-0.34375 0.21875c-0.09375 0.10938-0.21875 0.23438-0.21875 0.34375s0.125 0.23438 0.21875 0.34375c0.09375 0.09375 0.23438 0.21875 0.34375 0.21875s0.23438-0.125 0.32812-0.21875c0.10938-0.10938 0.21875-0.23438 0.21875-0.34375z"/>
</g>
</defs>
<g transform="translate(-149.6 -129.33)">
<use x="148.71201" y="134.765" xlink:href="#a"/>
</g>
</svg>
