<?xml version="1.0" encoding="UTF-8"?>
<svg fill="#000000" version="1.1" viewBox="0 0 0.40625 9.9531" xmlns="http://www.w3.org/2000/svg" xmlns:xlink="http://www.w3.org/1999/xlink">
<defs>
<g id="a">
<path d="m0.78125-1.7188c-0.078125 0.015625-0.14062 0.078125-0.15625 0.15625v3.7656c0 0.14062 0.046875 0.26562 0.20312 0.26562h0.046875c0.078125 0 0.125-0.078125 0.15625-0.15625v-3.7656c0-0.125-0.046875-0.28125-0.1875-0.28125-0.03125 0-0.03125 0.015625-0.0625 0.015625zm0-5.7656c-0.078125 0.03125-0.14062 0.09375-0.15625 0.17188v3.7656c0 0.14062 0.046875 0.26562 0.20312 0.26562h0.03125c0.14062-0.015625 0.17188-0.14062 0.17188-0.26562v-3.6719c0-0.125-0.046875-0.26562-0.1875-0.26562h-0.0625z"/>
</g>
</defs>
<g transform="translate(-149.34 -127.28)">
<use x="148.71201" y="134.765" xlink:href="#a"/>
</g>
</svg>
