<?xml version="1.0" encoding="UTF-8"?>
<svg fill="#000000" version="1.1" viewBox="0 0 11.438 8.3125" xmlns="http://www.w3.org/2000/svg" xmlns:xlink="http://www.w3.org/1999/xlink">
<defs>
<g id="a">
<path d="m8.4375-0.3125c0-0.09375-0.03125-0.17188-0.10938-0.20312l-2.1094-1.2188 0.51562-1.9219 1.5938-0.92188c0.078125-0.03125 0.10938-0.10938 0.10938-0.20312 0-0.125-0.10938-0.21875-0.21875-0.21875-0.046875 0-0.078125 0-0.10938 0.03125l-1.2031 0.6875 0.59375-2.2344c0.03125-0.09375-0.03125-0.1875-0.14062-0.1875-0.0625 0-0.125 0.046875-0.14062 0.10938l-0.67188 2.5156-2.3125 1.3438c-0.0625 0.03125-0.10938 0.10938-0.10938 0.1875s0.046875 0.15625 0.10938 0.1875l1.5938 0.9375-0.76562 2.8438c-0.015625 0.09375 0.046875 0.1875 0.15625 0.1875 0.0625 0 0.10938-0.046875 0.14062-0.10938l0.73438-2.7812 2.0156 1.1562c0.03125 0.03125 0.0625 0.03125 0.10938 0.03125 0.10938 0 0.21875-0.09375 0.21875-0.21875zm-2.0625-3.1406-0.42188 1.5625-1.1406-0.65625zm-1.7344-1.5469c-0.03125 0-0.078125 0-0.10938 0.03125l-3.8594 2.2344c-0.078125 0.03125-0.10938 0.10938-0.10938 0.1875s0.03125 0.15625 0.10938 0.1875l3.8594 2.2344c0.03125 0.03125 0.078125 0.03125 0.10938 0.03125 0.125 0 0.23438-0.09375 0.23438-0.21875 0-0.09375-0.046875-0.17188-0.10938-0.20312l-3.5156-2.0312 3.5156-2.0312c0.0625-0.03125 0.10938-0.10938 0.10938-0.20312 0-0.125-0.10938-0.21875-0.23438-0.21875zm7.125 0c-0.03125 0-0.07813 0-0.10938 0.03125l-3.8594 2.2344c-0.078125 0.03125-0.10938 0.10938-0.10938 0.1875s0.03125 0.15625 0.10938 0.1875l3.8594 2.2344c0.03125 0.03125 0.07813 0.03125 0.10938 0.03125 0.125 0 0.23438-0.09375 0.23438-0.21875 0-0.09375-0.03125-0.17188-0.10938-0.20312l-3.5156-2.0312 3.5156-2.0312c0.078125-0.03125 0.10938-0.10938 0.10938-0.20312 0-0.125-0.10938-0.21875-0.23438-0.21875z"/>
</g>
</defs>
<g transform="translate(-149.27 -128.06)">
<use x="148.71201" y="134.765" xlink:href="#a"/>
</g>
</svg>
