<?xml version="1.0" encoding="UTF-8"?>
<svg fill="#000000" version="1.1" viewBox="0 0 4.7969 4.7812" xmlns="http://www.w3.org/2000/svg" xmlns:xlink="http://www.w3.org/1999/xlink">
<defs>
<g id="a">
<path d="m0.59375-4.7188c0 0.0625 0.03125 0.10938 0.0625 0.15625 1.0938 1.2969 2.1094 2.625 2.1094 4.1875 0 0.125 0.09375 0.21875 0.21875 0.21875 0.14062 0 0.23438-0.09375 0.23438-0.21875 0-1.5625 1.0156-2.8906 2.1094-4.1875 0.046875-0.046875 0.0625-0.09375 0.0625-0.15625 0-0.14062-0.10938-0.21875-0.23438-0.21875-0.0625 0-0.125 0.015625-0.17188 0.078125-0.75 0.90625-1.5938 1.9219-2 3.1094-0.375-1.1875-1.2188-2.2031-1.9844-3.1094-0.046875-0.0625-0.10938-0.078125-0.17188-0.078125-0.125 0-0.23438 0.078125-0.23438 0.21875z"/>
</g>
</defs>
<g transform="translate(-149.31 -129.83)">
<use x="148.71201" y="134.765" xlink:href="#a"/>
</g>
</svg>
