<?xml version="1.0" encoding="UTF-8"?>
<svg fill="#000000" version="1.1" viewBox="0 0 8.8447 8.8315" xmlns="http://www.w3.org/2000/svg" xmlns:xlink="http://www.w3.org/1999/xlink">
<defs>
<g id="a">
<path d="m8.1875 1c-0.21875 0-0.4375 0.03125-0.67188 0.046875-0.1875 0.015625-0.375 0.03125-0.5625 0.0625-0.078125 0-0.17188 0-0.25 0.03125-0.046875 0.03125-0.078125 0.09375-0.0625 0.15625 0.03125 0.0625 0.10938 0.15625 0.17188 0.17188 0.078125 0.03125 0.17188 0.03125 0.25 0.03125 0.125 0 0.25 0.015625 0.375 0.03125 0.40625 0.046875 0.8125 0.10938 1.2031 0.21875 0.17188 0.03125 0.34375 0.078125 0.51562 0.14062 0.078125 0.015625 0.17188 0.046875 0.21875 0 0.0625-0.0625 0.03125-0.14062 0-0.21875-0.046875-0.17188-0.10938-0.34375-0.14062-0.51562-0.10938-0.40625-0.17188-0.8125-0.21875-1.2188-0.015625-0.125-0.03125-0.25-0.03125-0.375 0-0.078125 0-0.15625-0.015625-0.23438-0.03125-0.0625-0.10938-0.14062-0.1875-0.17188-0.0625-0.03125-0.125 0-0.14062 0.0625-0.03125 0.078125-0.03125 0.17188-0.046875 0.25-0.03125 0.1875-0.046875 0.375-0.0625 0.5625-0.03125 0.23438-0.03125 0.45312-0.046875 0.67188l-5.9219-5.9219-1.3906-1.375-0.078125-0.09375c-0.10938-0.10938-0.25-0.29688-0.42188-0.20312-0.03125 0-0.046875 0.015625-0.046875 0.015625-0.17188 0.1875 0.078125 0.375 0.1875 0.48438l0.078125 0.09375z"/>
</g>
</defs>
<g transform="translate(-149.28 -127.85)">
<use x="148.71201" y="134.765" xlink:href="#a"/>
</g>
</svg>
