<?xml version="1.0" encoding="UTF-8"?>
<svg fill="#000000" version="1.1" viewBox="0 0 6.0955 6.0955" xmlns="http://www.w3.org/2000/svg" xmlns:xlink="http://www.w3.org/1999/xlink">
<defs>
<g id="a">
<path d="m3.6719-4.2188c-0.1875 0.03125-0.39062 0.078125-0.57812 0.17188-0.51562 0.26562-0.84375 0.78125-0.9375 1.3438h-1.0938c-0.046875 0-0.09375-0.015625-0.14062 0.015625-0.10938 0.015625-0.09375 0.14062-0.09375 0.21875 0 0.03125 0 0.078125 0.015625 0.10938 0.03125 0.046875 0.078125 0.0625 0.14062 0.0625h0.20312 0.96875c0.09375 0.5625 0.42188 1.0781 0.9375 1.3438 0.1875 0.078125 0.39062 0.14062 0.57812 0.17188v0.96875 0.21875c0 0.046875 0.015625 0.09375 0.0625 0.125 0.03125 0.015625 0.078125 0.015625 0.10938 0.015625 0.078125 0 0.20312 0.015625 0.21875-0.09375 0.03125-0.046875 0.015625-0.09375 0.015625-0.14062v-1.0938c0.20312-0.03125 0.39062-0.09375 0.57812-0.17188 0.53125-0.26562 0.85938-0.78125 0.9375-1.3438h0.96875 0.21875c0.046875 0 0.09375-0.015625 0.125-0.0625 0.015625-0.03125 0.015625-0.078125 0.015625-0.10938 0-0.078125 0.015625-0.20312-0.078125-0.21875-0.0625-0.03125-0.10938-0.015625-0.15625-0.015625h-1.0938c-0.078125-0.5625-0.40625-1.0781-0.9375-1.3438-0.1875-0.09375-0.375-0.14062-0.57812-0.17188v-0.96875-0.21875c0-0.046875-0.015625-0.09375-0.046875-0.125-0.046875-0.015625-0.078125-0.015625-0.125-0.015625-0.078125 0-0.20312-0.015625-0.21875 0.078125-0.015625 0.0625-0.015625 0.10938-0.015625 0.15625zm-1.0938 1.5156c0.03125-0.4375 0.375-0.84375 0.76562-1.0156 0.10938-0.046875 0.21875-0.078125 0.32812-0.09375v1.1094zm1.5 0v-1.1094c0.10938 0.015625 0.23438 0.046875 0.32812 0.09375 0.39062 0.17188 0.73438 0.57812 0.78125 1.0156zm-1.5 0.40625h1.0938v1.0938c-0.10938 0-0.21875-0.046875-0.32812-0.078125-0.39062-0.17188-0.73438-0.57812-0.76562-1.0156zm1.5 1.0938v-1.0938h1.1094c-0.046875 0.4375-0.39062 0.84375-0.78125 1.0156-0.09375 0.03125-0.21875 0.078125-0.32812 0.078125z"/>
</g>
</defs>
<g transform="translate(-149.54 -129.22)">
<use x="148.71201" y="134.765" xlink:href="#a"/>
</g>
</svg>
