<?xml version="1.0" encoding="UTF-8"?>
<svg fill="#000000" version="1.1" viewBox="0 0 5.0938 7.1562" xmlns="http://www.w3.org/2000/svg" xmlns:xlink="http://www.w3.org/1999/xlink">
<defs>
<g id="a">
<path d="m5.7188 0.85938v-0.76562c0-0.015625-0.5-1.0156-2.6094-1.8125l0.26562-0.6875c1.8438 0.79688 2.3438 1.7812 2.3438 1.7812v-0.76562s-0.60938-0.85938-2.1562-1.4844l0.42188-1.0469c1.2344-0.60938 1.7344-1.2969 1.7344-1.2969v-0.76562c0 0.015625-0.32812 0.65625-1.4531 1.3438l0.59375-1.5h-0.53125l-0.73438 1.8594c-0.75 0.32812-1.7031 0.65625-2.9688 0.85938v0.23438c0.90625 0.15625 1.6719 0.35938 2.2812 0.57812l-0.28125 0.71875c-0.5625-0.1875-1.2344-0.35938-2-0.5v0.5c0.6875 0.10938 1.3125 0.25 1.8438 0.4375l-1 2.4688h0.54688l0.92188-2.2969c2.1406 0.85938 2.7812 2.1406 2.7812 2.1406zm-2.375-4.5156-0.25 0.60938c-0.29688-0.10938-0.59375-0.1875-0.95312-0.26562 0.45312-0.09375 0.84375-0.21875 1.2031-0.34375z"/>
</g>
</defs>
<g transform="translate(-149.34 -128.62)">
<use x="148.71201" y="134.765" xlink:href="#a"/>
</g>
</svg>
