<?xml version="1.0" encoding="UTF-8"?>
<svg fill="#000000" version="1.1" viewBox="0 0 6.6562 6.6406" xmlns="http://www.w3.org/2000/svg" xmlns:xlink="http://www.w3.org/1999/xlink">
<defs>
<g id="a">
<path d="m7.2031-2.5c0-1.8281-1.5-3.3125-3.3281-3.3125-1.8438 0-3.3281 1.5-3.3281 3.3125 0 1.8438 1.5 3.3281 3.3281 3.3281 1.8438 0 3.3281-1.5 3.3281-3.3281zm-5.3125-2.1406c-0.015625-0.015625-0.09375-0.078125-0.09375-0.10938s0.8125-0.8125 2.0781-0.8125c0.34375 0 1.2656 0.046875 2.0781 0.8125l-2.0781 2.0938zm-0.28125 4.2344c-0.60938-0.6875-0.8125-1.4531-0.8125-2.0938 0-0.76562 0.29688-1.4844 0.8125-2.0781l2.0781 2.0781zm4.5156-4.1719c0.48438 0.51562 0.82812 1.2656 0.82812 2.0781 0 0.78125-0.29688 1.5-0.8125 2.0938l-2.0781-2.0938zm-0.26562 4.2344c0.015625 0.015625 0.078125 0.078125 0.078125 0.10938s-0.79688 0.8125-2.0625 0.8125c-0.34375 0-1.2656-0.046875-2.0781-0.8125l2.0781-2.0938z"/>
</g>
</defs>
<g transform="translate(-149.26 -128.95)">
<use x="148.71201" y="134.765" xlink:href="#a"/>
</g>
</svg>
