<?xml version="1.0" encoding="UTF-8"?>
<svg fill="#000000" version="1.1" viewBox="0 0 3.8955 7.0211" xmlns="http://www.w3.org/2000/svg" xmlns:xlink="http://www.w3.org/1999/xlink">
<defs>
<g id="a">
<path d="m2.2812-2.375h-1.0469c-0.10938 0-0.29688-0.03125-0.32812 0.10938-0.015625 0.015625-0.015625 0.046875-0.015625 0.0625 0.015625 0.17188 0.1875 0.14062 0.3125 0.14062h1.0781v1.1875c0 0.14062 0.046875 0.34375-0.078125 0.45312-0.0625 0.0625-0.14062 0.078125-0.20312 0.078125-0.17188 0.03125-0.32812 0.03125-0.48438 0.03125v0.29688l0.375-0.015625 0.73438-0.015625 0.75 0.015625 0.39062 0.015625v-0.29688c-0.17188 0-0.32812 0-0.48438-0.03125-0.078125 0-0.15625-0.015625-0.20312-0.078125-0.125-0.10938-0.09375-0.3125-0.09375-0.46875v-1.1719h1.0312c0.09375 0 0.29688 0.03125 0.34375-0.078125 0.03125-0.078125 0-0.21875-0.09375-0.23438h-0.15625-1.125v-1.0312c0-0.046875 0-0.078125-0.03125-0.125-0.046875-0.0625-0.1875-0.0625-0.26562-0.078125-0.1875-0.046875-0.35938-0.125-0.53125-0.21875-0.35938-0.23438-0.625-0.59375-0.73438-1.0156-0.0625-0.26562-0.046875-0.54688-0.03125-0.8125 0.03125-0.34375 0.14062-0.67188 0.40625-0.90625 0.20312-0.14062 0.4375-0.21875 0.67188-0.25 0.35938-0.03125 0.75 0.03125 1.0781 0.20312 0.20312 0.09375 0.39062 0.23438 0.5 0.4375-0.14062-0.015625-0.28125 0.015625-0.39062 0.10938-0.20312 0.1875-0.20312 0.51562 0 0.6875 0.26562 0.21875 0.6875 0.09375 0.76562-0.23438 0.0625-0.32812-0.10938-0.6875-0.34375-0.92188-0.21875-0.21875-0.51562-0.35938-0.8125-0.42188-0.28125-0.078125-0.57812-0.09375-0.89062-0.078125-0.46875 0.03125-0.9375 0.17188-1.2969 0.48438-0.40625 0.35938-0.57812 0.96875-0.53125 1.5 0.078125 0.60938 0.51562 1.0625 1.0469 1.3438 0.15625 0.0625 0.3125 0.14062 0.46875 0.1875 0.0625 0 0.17188 0.03125 0.20312 0.078125 0.015625 0.015625 0.015625 0.0625 0.015625 0.09375v0.1875z"/>
</g>
</defs>
<g transform="translate(-149.25 -127.73)">
<use x="148.71201" y="134.765" xlink:href="#a"/>
</g>
</svg>
