<?xml version="1.0" encoding="UTF-8"?>
<svg fill="#000000" version="1.1" viewBox="0 0 7.1562 7.1562" xmlns="http://www.w3.org/2000/svg" xmlns:xlink="http://www.w3.org/1999/xlink">
<defs>
<g id="a">
<path d="m9.4375-5.1719c-0.0625 0-0.10938 0.015625-0.17188 0.0625l-2.0625 2.0781-0.60938-1.2812 1.75-1.7344c0.046875-0.046875 0.0625-0.10938 0.0625-0.15625 0-0.125-0.09375-0.23438-0.23438-0.23438-0.0625 0-0.10938 0.03125-0.15625 0.0625l-1.625 1.625-0.6875-1.4844c-0.03125-0.078125-0.125-0.10938-0.20312-0.0625-0.0625 0.03125-0.10938 0.10938-0.0625 0.1875l0.73438 1.5781-2.5312 2.5312c0.015625-0.10938 0.015625-0.23438 0.015625-0.35938v-0.14062c0-0.28125-0.015625-0.51562-0.25-0.51562-0.14062 0-0.23438 0.09375-0.23438 0.21875 0 0.078125 0.03125 0.29688 0.03125 0.75 0 0.84375-0.15625 1.7031-0.64062 2.3906-0.03125 0.046875-0.046875 0.09375-0.046875 0.14062 0 0.14062 0.10938 0.23438 0.23438 0.23438 0.25 0 0.6875-0.70312 2.5312-0.70312 0.45312 0 0.67188 0.046875 0.73438 0.046875 0.14062 0 0.23438-0.10938 0.23438-0.23438 0-0.23438-0.23438-0.25-0.5-0.25h-0.17188c-0.10938 0-0.23438 0-0.35938 0.015625l1.9531-1.9531 0.6875 1.4844c0.046875 0.0625 0.14062 0.10938 0.20312 0.0625 0.078125-0.03125 0.10938-0.10938 0.078125-0.1875l-0.73438-1.5938 2.1875-2.1875c0.046875-0.046875 0.078125-0.10938 0.078125-0.15625 0-0.125-0.09375-0.23438-0.23438-0.23438zm-2.4688 2.375-2.4219 2.4219h-0.46875c-0.15625 0-0.3125 0-0.45312-0.015625-0.03125-0.14062-0.03125-0.3125-0.03125-0.45312 0-0.15625 0-0.3125 0.015625-0.46875l2.7656-2.7656z"/>
</g>
</defs>
<g transform="translate(-151.23 -128.33)">
<use x="148.71201" y="134.765" xlink:href="#a"/>
</g>
</svg>
