<?xml version="1.0" encoding="UTF-8"?>
<svg fill="#000000" version="1.1" viewBox="0 0 12.703 3.3281" xmlns="http://www.w3.org/2000/svg" xmlns:xlink="http://www.w3.org/1999/xlink">
<defs>
<g id="a">
<path d="m12.469-2.2969c-0.17188 0.15625-0.67188 0.625-1 1.4688h0.29688c0.3125-0.8125 0.92188-1.3594 1.5-1.6719-0.67188-0.34375-1.2031-0.89062-1.5-1.6562h-0.29688c0.21875 0.5625 0.54688 1.0625 1 1.4688h-1.4062l-0.4375-0.46875c-0.35938-0.35938-0.375-0.35938-0.45312-0.35938-0.03125 0-0.07813 0-0.14062 0.046875-0.03125 0.03125-1.3125 1.3281-1.4844 1.5156l-1.4062-1.4375c-0.125-0.125-0.15625-0.125-0.21875-0.125-0.078125 0-0.125 0.03125-0.14062 0.03125l-1.4844 1.5312-1.4062-1.4219c-0.10938-0.125-0.14062-0.14062-0.21875-0.14062s-0.09375 0-0.35938 0.28125l-0.54688 0.54688h-1.4062c0.09375-0.078125 0.67188-0.57812 1.0156-1.4688h-0.3125c-0.17188 0.45312-0.5625 1.1719-1.5 1.6562 0.9375 0.51562 1.3438 1.2188 1.5 1.6719h0.3125c-0.34375-0.89062-0.92188-1.3906-1.0156-1.4688h1.3438c0.21875 0 0.23438 0 0.3125-0.078125 0.17188-0.15625 0.0625-0.078125 0.65625-0.65625 0.10938 0.14062 0.5625 0.57812 0.84375 0.85938 0.14062 0.14062 0.5 0.53125 0.64062 0.67188 0.0625 0.03125 0.125 0.03125 0.14062 0.03125 0.078125 0 0.10938-0.03125 0.1875-0.09375 0.0625-0.078125 0.25-0.26562 0.32812-0.34375l0.39062-0.40625c0.23438-0.25 0.46875-0.48438 0.71875-0.71875 0.25 0.23438 0.48438 0.48438 0.71875 0.73438 0.15625 0.17188 0.45312 0.46875 0.6875 0.70312 0.09375 0.09375 0.125 0.125 0.21875 0.125 0.015625 0 0.0625 0 0.10938-0.03125 0.1875-0.14062 0.57812-0.57812 0.73438-0.75l0.78125-0.78125 0.42188 0.42188c0.28125 0.3125 0.29688 0.3125 0.54688 0.3125z"/>
</g>
</defs>
<g transform="translate(-149.27 -130.61)">
<use x="148.71201" y="134.765" xlink:href="#a"/>
</g>
</svg>
