<?xml version="1.0" encoding="UTF-8"?>
<svg fill="#000000" version="1.1" viewBox="0 0 25.441 11.078" xmlns="http://www.w3.org/2000/svg" xmlns:xlink="http://www.w3.org/1999/xlink">
<defs>
<g id="b">
<path d="m2.7188 8.7656c-0.14062 1.6406-0.5 2.0938-1.0625 2.0938-0.125 0-0.4375-0.03125-0.64062-0.21875 0.29688-0.03125 0.375-0.26562 0.375-0.40625 0-0.28125-0.21875-0.42188-0.40625-0.42188-0.20312 0-0.42188 0.14062-0.42188 0.4375 0 0.46875 0.5 0.82812 1.0938 0.82812 0.95312 0 1.4219-0.875 1.6406-1.7656 0.125-0.51562 0.48438-3.4219 0.57812-4.5312l0.1875-2.4844c0.14062-1.8281 0.46875-2.0781 0.92188-2.0781 0.09375 0 0.40625 0.015625 0.625 0.20312-0.28125 0.046875-0.35938 0.28125-0.35938 0.42188 0 0.28125 0.21875 0.40625 0.40625 0.40625 0.20312 0 0.42188-0.125 0.42188-0.42188 0-0.48438-0.5-0.82812-1.1094-0.82812-0.9375 0-1.3281 0.96875-1.5 1.7188-0.125 0.54688-0.48438 3.3594-0.5625 4.5781z"/>
</g>
<g id="a">
<path d="m1.9062-2.5c0-0.28125-0.23438-0.51562-0.51562-0.51562-0.29688 0-0.53125 0.23438-0.53125 0.51562 0 0.29688 0.23438 0.53125 0.53125 0.53125 0.28125 0 0.51562-0.23438 0.51562-0.53125z"/>
</g>
</defs>
<g transform="translate(-149.27 -126.74)">
<use x="148.71201" y="126.739" xlink:href="#b"/>
<use x="157.01401" y="134.765" xlink:href="#a"/>
<use x="160.60851" y="134.765" xlink:href="#a"/>
<use x="164.21298" y="134.765" xlink:href="#a"/>
<use x="168.63699" y="126.739" xlink:href="#b"/>
</g>
</svg>
