<?xml version="1.0" encoding="UTF-8"?>
<svg fill="#000000" version="1.1" viewBox="0 0 7.4375 7.4375" xmlns="http://www.w3.org/2000/svg" xmlns:xlink="http://www.w3.org/1999/xlink">
<defs>
<g id="a">
<path d="m8.4375-4.5c0-0.078125-0.046875-0.17188-0.14062-0.20312-1.8906-0.89062-1.6406-1.7188-2.0312-1.7188-0.14062 0-0.21875 0.10938-0.21875 0.23438v0.21875c0 1.1719-0.82812 2.0156-0.82812 2.2031 0 0.14062 0.10938 0.23438 0.23438 0.23438 0.0625 0 0.14062-0.03125 0.1875-0.09375 0.29688-0.42188 0.48438-0.92188 0.75-1.375 0.015625 0.15625 0.03125 0.3125 0.03125 0.45312 0 0.85938-0.3125 1.7031-0.90625 2.375l-1.0938-1.5625c-0.0625-0.078125-0.14062-0.09375-0.21875-0.046875-0.0625 0.046875-0.078125 0.14062-0.03125 0.21875l1.125 1.5938c-0.67188 0.64062-1.5469 0.96875-2.4375 0.96875-0.14062 0-0.28125 0-0.4375-0.03125 0.45312-0.25 0.9375-0.4375 1.3594-0.75 0.078125-0.046875 0.10938-0.10938 0.10938-0.1875 0-0.0625-0.0625-0.21875-0.23438-0.21875-0.046875 0-0.09375 0-0.125 0.03125-0.625 0.4375-1.3438 0.79688-2.0781 0.79688-0.14062 0-0.20312-0.015625-0.23438-0.015625-0.14062 0-0.21875 0.125-0.21875 0.23438 0 0.078125 0.03125 0.15625 0.125 0.20312 0.75 0.35938 1.2344 1.0625 1.5938 1.8281 0.03125 0.078125 0.10938 0.125 0.20312 0.125 0.14062 0 0.23438-0.10938 0.23438-0.23438 0-0.1875-0.53125-0.89062-0.79688-1.3438 0.17188 0.015625 0.34375 0.03125 0.5 0.03125 0.98438 0 1.9531-0.35938 2.7031-1.0469l1.1094 1.5625c0.03125 0.078125 0.14062 0.09375 0.20312 0.046875s0.078125-0.14062 0.03125-0.20312l-1.125-1.625c0.71875-0.75 1.0938-1.75 1.0938-2.75 0-0.17188 0-0.34375-0.03125-0.5 0.40625 0.23438 1.1719 0.78125 1.3594 0.78125 0.125 0 0.23438-0.09375 0.23438-0.23438z"/>
</g>
</defs>
<g transform="translate(-149.71 -128.34)">
<use x="148.71201" y="134.765" xlink:href="#a"/>
</g>
</svg>
