<?xml version="1.0" encoding="UTF-8"?>
<svg fill="#000000" version="1.1" viewBox="0 0 5.9219 6.625" xmlns="http://www.w3.org/2000/svg" xmlns:xlink="http://www.w3.org/1999/xlink">
<defs>
<g id="a">
<path d="m3.1875 1.8281 0.125 0.14062 0.6875-0.21875c-0.046875-0.53125-0.078125-1.0625-0.078125-1.5938l0.078125-0.09375c0.8125-0.10938 1.5781-0.375 2.1562-0.95312 0.48438-0.5 0.67188-1.1875 0.67188-1.875 0-0.95312-0.5-1.8594-1.6094-1.8594-0.40625 0-0.92188 0.10938-1.3438 0.48438-0.57812 0.48438-0.67188 1.1406-0.67188 1.75v2.0469l-0.0625 0.0625c-0.1875 0-0.45312-0.09375-0.82812-0.45312-0.48438-0.46875-0.60938-1.2656-0.60938-1.9219 0-0.8125 0.3125-1.3906 1.1406-1.7812l-0.10938-0.21875c-0.98438 0.29688-1.8281 1.125-1.8281 2.1719 0 0.6875 0.1875 1.2812 0.625 1.8125 0.51562 0.59375 1.0156 0.6875 1.6094 0.75l0.0625 0.078125zm0.8125-2.0938-0.078125-0.0625v-2.3125c0-0.90625 0.29688-1.5938 1.1094-1.5938 0.82812 0 0.96875 1.1875 0.96875 1.4688 0 0.65625-0.14062 1.4062-0.59375 1.8594-0.375 0.39062-0.875 0.625-1.4062 0.64062z"/>
</g>
</defs>
<g transform="translate(-149.62 -130.11)">
<use x="148.71201" y="134.765" xlink:href="#a"/>
</g>
</svg>
