<?xml version="1.0" encoding="UTF-8"?>
<svg fill="#000000" version="1.1" viewBox="0 0 5.2188 5.6562" xmlns="http://www.w3.org/2000/svg" xmlns:xlink="http://www.w3.org/1999/xlink">
<defs>
<g id="a">
<path d="m3.7344-2.8906c0-0.375-0.3125-0.625-0.64062-0.625-0.3125 0-0.625 0.25-0.625 0.625 0 0.39062 0.25 0.64062 0.625 0.64062 0.39062 0 0.64062-0.29688 0.64062-0.64062zm1.9688-2.4531h-0.65625v2.9531c0 1.1406-0.90625 2.0469-1.9531 2.0469-1.0938 0-1.9531-0.92188-1.9531-2.0625v-2.9375h-0.65625v2.9844c0 1.5781 1.125 2.6719 2.6094 2.6719 1.4688 0 2.6094-1.1094 2.6094-2.7031z"/>
</g>
</defs>
<g transform="translate(-149.2 -129.42)">
<use x="148.71201" y="134.765" xlink:href="#a"/>
</g>
</svg>
