<?xml version="1.0" encoding="UTF-8"?>
<svg fill="#000000" version="1.1" viewBox="0 0 7.3906 9.2656" xmlns="http://www.w3.org/2000/svg" xmlns:xlink="http://www.w3.org/1999/xlink">
<defs>
<g id="a">
<path d="m5.9062-6.4062-1.4062-1.6719h-0.60938l-1.3906 1.6719h0.34375l1.3594-1.0312 1.3594 1.0312zm0.3125 5.4531-1.5469-1.5625 1.5469-1.5469-0.46875-0.46875-1.5469 1.5469-1.5625-1.5469-0.46875 0.46875 1.5625 1.5469-1.5625 1.5625 0.46875 0.46875 1.5625-1.5625 1.5469 1.5625zm1.6719-1.5625c0-2.0469-1.6562-3.6875-3.6875-3.6875-2.0469 0-3.7031 1.6406-3.7031 3.6875s1.6562 3.7031 3.7031 3.7031c2.0312 0 3.6875-1.6562 3.6875-3.7031zm-0.65625 0c0 1.6719-1.3594 3.0469-3.0312 3.0469-1.6875 0-3.0469-1.375-3.0469-3.0469s1.3594-3.0312 3.0469-3.0312c1.6719 0 3.0312 1.3594 3.0312 3.0312z"/>
</g>
</defs>
<g transform="translate(-149.21 -126.69)">
<use x="148.71201" y="134.765" xlink:href="#a"/>
</g>
</svg>
