<?xml version="1.0" encoding="UTF-8"?>
<svg fill="#000000" width="8.1719" height="7.3438" version="1.1" viewBox="0 0 8.1719 7.3437" xmlns="http://www.w3.org/2000/svg" xmlns:xlink="http://www.w3.org/1999/xlink">
<defs>
<g id="a">
<path d="m4.5-7.25c-1.7656 0-4.0781 1.2031-4.0781 3.7656 0 1.9062 1.875 3.5781 3.9844 3.5781 1.375 0 2.4375-0.4375 3.3125-1.4219h-0.59375c-0.82812 0.875-1.625 1.2031-2.6094 1.2031-0.57812 0-1.3438-0.21875-1.7188-0.46875-0.71875-0.42188-0.85938-0.65625-0.85938-1.0469v-1.7031c0-0.078125 0.03125-0.125 0.10938-0.125h6.5469c0-2.5469-2.2812-3.7812-4.0938-3.7812zm-2.5625 1.75c0-0.34375 0.0625-0.46875 0.45312-0.76562 0.67188-0.51562 1.3125-0.75 2.1094-0.75 1.2969 0 2.5938 0.76562 2.5938 1.5156v1.6875c0 0.09375-0.046875 0.14062-0.14062 0.14062h-4.8906c-0.09375 0-0.125-0.0625-0.125-0.14062z"/>
</g>
</defs>
<g transform="translate(-149.13 -127.52)">
<use x="148.71201" y="134.765" xlink:href="#a"/>
</g>
</svg>
