<?xml version="1.0" encoding="UTF-8"?>
<svg fill="#000000" version="1.1" viewBox="0 0 4.7969 8.375" xmlns="http://www.w3.org/2000/svg" xmlns:xlink="http://www.w3.org/1999/xlink">
<defs>
<g id="a">
<path d="m4.1094-7.8906-0.32812 1.25h-0.09375l-0.39062-1.1406-0.40625 1.1406-1.2031 0.015625 0.96875 0.73438-0.35938 1.1406 1-0.67188 0.125 0.09375-0.34375 1.3125h-2.1875v0.64062h2.0156l-0.34375 1.2656h-1.6719v0.64062h1.5l-0.48438 1.8125 0.5625 0.14062 0.51562-1.9531h2.7031v-0.64062h-2.5312l0.34375-1.2656h2.1875v-0.64062h-2.0156l0.25-0.96875 0.35938 0.23438-0.21875-0.70312 0.17188-0.67188 0.65625-0.5h-0.51562l0.29688-1.1094z"/>
</g>
</defs>
<g transform="translate(-149.6 -126.87)">
<use x="148.71201" y="134.765" xlink:href="#a"/>
</g>
</svg>
