<?xml version="1.0" encoding="UTF-8"?>
<svg fill="#000000" version="1.1" viewBox="0 0 7.1094 3.0312" xmlns="http://www.w3.org/2000/svg" xmlns:xlink="http://www.w3.org/1999/xlink">
<defs>
<g id="a">
<path d="m0.59375-4.125c0 0.1875 0.26562 0.42188 0.26562 1.2344 0 0.64062-0.20312 1.2812-0.20312 1.3281 0 0.10938 0.09375 0.23438 0.23438 0.23438 0.29688 0 0.26562-0.40625 0.42188-1.4375 0.71875 0.89062 1.8281 1.4375 3 1.4375 1.625 0 2.8281-0.98438 3.3594-2.0781 0.03125-0.015625 0.03125-0.046875 0.03125-0.09375 0-0.10938-0.09375-0.23438-0.21875-0.23438-0.09375 0-0.17188 0.0625-0.21875 0.14062-0.46875 0.9375-1.5156 1.7969-2.9531 1.7969-1.125 0-2.2031-0.5625-2.8281-1.5 0.53125 0.0625 1.3906 0.32812 1.75 0.32812 0.10938 0 0.21875-0.09375 0.21875-0.23438 0-0.10938-0.078125-0.21875-0.20312-0.21875-1.9219-0.17188-2.1562-0.9375-2.4219-0.9375-0.125 0-0.23438 0.10938-0.23438 0.23438z"/>
</g>
</defs>
<g transform="translate(-149.31 -130.41)">
<use x="148.71201" y="134.765" xlink:href="#a"/>
</g>
</svg>
