<?xml version="1.0" encoding="UTF-8"?>
<svg fill="#000000" version="1.1" viewBox="0 0 7.125 9.0312" xmlns="http://www.w3.org/2000/svg" xmlns:xlink="http://www.w3.org/1999/xlink">
<defs>
<g id="a">
<path d="m3.5156-3.9531c0 1.1406-0.35938 2.1875-1.3594 2.7344-0.15625-0.015625-0.46875-0.015625-0.6875-0.015625-0.39062 0.34375-0.84375 0.73438-1.2031 1.125l0.10938 0.15625c0.35938-0.26562 0.79688-0.57812 1.25-0.57812 0.23438 0 0.625 0.125 1 0.32812 0.3125 0.1875 0.76562 0.40625 1.0625 0.40625 0.42188 0 0.90625-0.67188 1.2344-1.0938l-0.09375-0.17188c-0.21875 0.25-0.5 0.48438-0.84375 0.48438-0.51562 0-0.98438-0.40625-1.5312-0.5625l1.1562-0.92188c0.51562-0.78125 0.67188-1.7031 0.70312-2.6094 0-0.14062-0.015625-0.29688-0.046875-0.4375 0.40625-0.53125 1.0781-0.85938 1.1562-0.875 0.35938 0.14062 0.64062 0.4375 0.89062 0.73438 0.23438 0.6875 0.28125 1.4062 0.28125 2.125 0 1.5469-0.10938 3.2812-1.0938 4.2344-0.40625 0.39062-0.73438 0.59375-1.3594 0.59375-0.53125 0-0.98438-0.42188-1.0938-0.92188h-0.09375l-0.67188 0.70312c0.20312 0.51562 0.8125 0.70312 1.3281 0.70312 1.125 0 2.4531-0.98438 3.125-2.0312 0.54688-1.0312 0.65625-2.3438 0.65625-3.5625 0-0.84375 0-1.7344-0.15625-2.5312-0.39062-0.26562-0.78125-0.54688-1.0781-0.90625-0.70312 0.32812-1.3594 0.89062-1.9062 1.4375l-0.046875 0.046875c-0.21875-0.70312-0.85938-1.4844-1.5938-1.4844-0.9375 0-1.5781 0.625-1.8281 0.85938-0.26562 0.28125-0.5 0.57812-0.5 0.98438 0 0.53125 0.40625 0.89062 0.71875 1.3281 0.0625 0.078125 0.125 0.15625 0.125 0.26562 0 0.3125-0.32812 0.64062-0.64062 0.79688l0.15625 0.10938c0.57812-0.29688 1.2188-0.6875 1.2188-1.3281 0-0.59375-0.92188-1.0625-0.92188-1.6719 0-0.46875 0.35938-0.70312 1-0.70312 1.0156 0 1.5781 1.1562 1.5781 2.25z"/>
</g>
</defs>
<g transform="translate(-148.98 -127.92)">
<use x="148.71201" y="134.765" xlink:href="#a"/>
</g>
</svg>
