<?xml version="1.0" encoding="UTF-8"?>
<svg fill="#000000" version="1.1" viewBox="0 0 2.2969 9.4062" xmlns="http://www.w3.org/2000/svg" xmlns:xlink="http://www.w3.org/1999/xlink">
<defs>
<g id="a">
<path d="m3.0781-4.8281c0-0.17188 0-0.26562-0.10938-0.26562-0.03125 0-0.0625 0-0.15625 0.046875l-1.7812 0.6875v-2.625c0-0.1875 0-0.26562-0.10938-0.26562-0.14062 0-0.14062 0.09375-0.14062 0.28125v7.5c0 0.17188 0 0.26562 0.10938 0.26562 0.046875 0 0.0625 0 0.17188-0.046875l1.7656-0.6875v1.8281c0 0.1875 0 0.26562 0.10938 0.26562 0.14062 0 0.14062-0.09375 0.14062-0.28125zm-2.0469 4.7656v-3.4688l1.7969-0.70312v3.4844z"/>
</g>
</defs>
<g transform="translate(-149.49 -127.52)">
<use x="148.71201" y="134.765" xlink:href="#a"/>
</g>
</svg>
