<?xml version="1.0" encoding="UTF-8"?>
<svg fill="#000000" version="1.1" viewBox="0 0 6.0625 6.0781" xmlns="http://www.w3.org/2000/svg" xmlns:xlink="http://www.w3.org/1999/xlink">
<defs>
<g id="a">
<path d="m0.82812 0.34375c0 0.10938 0.09375 0.20312 0.20312 0.20312h5.6719c0.10938 0 0.1875-0.09375 0.1875-0.20312v-5.6719c0-0.10938-0.078125-0.20312-0.1875-0.20312h-5.6719c-0.10938 0-0.20312 0.09375-0.20312 0.20312zm5.6719-0.1875h-5.2812v-5.2969h5.2812zm-2.625-3.3438c-0.1875 0-0.35938 0.09375-0.5 0.20312-0.10938 0.14062-0.1875 0.3125-0.1875 0.48438 0 0.1875 0.078125 0.35938 0.1875 0.5 0.14062 0.10938 0.3125 0.20312 0.5 0.20312 0.17188 0 0.35938-0.09375 0.46875-0.20312 0.125-0.14062 0.20312-0.3125 0.20312-0.5 0-0.17188-0.078125-0.34375-0.20312-0.48438-0.10938-0.10938-0.29688-0.20312-0.46875-0.20312z"/>
</g>
</defs>
<g transform="translate(-149.54 -129.23)">
<use x="148.71201" y="134.765" xlink:href="#a"/>
</g>
</svg>
