<?xml version="1.0" encoding="UTF-8"?>
<svg fill="#000000" width="6.0938" height="6.8438" version="1.1" viewBox="0 0 6.0938 6.8437" xmlns="http://www.w3.org/2000/svg" xmlns:xlink="http://www.w3.org/1999/xlink">
<defs>
<g id="a">
<path d="m6.1562-2.6875c0.046875 0 0.10938-0.015625 0.15625-0.046875 0.64062-0.54688 1.375-0.98438 2.2031-0.98438 0.10938 0 0.20312-0.078125 0.23438-0.1875 0-0.09375 0-0.20312-0.15625-0.26562-0.82812-0.29688-1.3594-1.0312-1.7344-1.6719-0.046875-0.078125-0.125-0.125-0.20312-0.125-0.14062 0-0.21875 0.125-0.21875 0.23438 0 0.1875 0.54688 0.82812 0.82812 1.2344-0.125-0.015625-0.25-0.015625-0.375-0.015625-1.0625 0-2.1094 0.40625-2.9062 1.1406l-0.9375-1.3281c-0.046875-0.078125-0.14062-0.078125-0.20312-0.03125-0.078125 0.046875-0.078125 0.14062-0.046875 0.20312l0.96875 1.375c-0.95312 1.0312-1.1094 2.1719-1.1094 2.8125 0 0.35938 0.046875 0.70312 0.14062 1.0469 0.03125 0.10938 0.10938 0.17188 0.21875 0.17188 0.14062 0 0.23438-0.10938 0.23438-0.23438 0-0.09375-0.14062-0.39062-0.14062-0.98438 0-0.96875 0.375-1.8125 0.92188-2.4219l1.2656 1.7812c0.046875 0.078125 0.14062 0.09375 0.20312 0.046875 0.078125-0.046875 0.09375-0.14062 0.046875-0.20312l-1.2969-1.8438c0.71875-0.70312 1.6719-1.0781 2.6406-1.0781 0.17188 0 0.34375 0.015625 0.5 0.03125-0.4375 0.34375-0.95312 0.57812-1.375 0.9375-0.046875 0.046875-0.078125 0.10938-0.078125 0.17188 0 0.125 0.078125 0.23438 0.21875 0.23438z"/>
</g>
</defs>
<g transform="translate(-151.37 -128.8)">
<use x="148.71201" y="134.765" xlink:href="#a"/>
</g>
</svg>
