<?xml version="1.0" encoding="UTF-8"?>
<svg fill="#000000" version="1.1" viewBox="0 0 5.375 8.2344" xmlns="http://www.w3.org/2000/svg" xmlns:xlink="http://www.w3.org/1999/xlink">
<defs>
<g id="a">
<path d="m0.6875-4.9375c0.26562-0.48438 0.625-1.0625 1.2188-1.0625 0.67188 0 1.0469 0.71875 1.7031 0.85938 0.3125-0.10938 1.0781-0.48438 1.5938-0.75v-0.20312c-0.3125 0.15625-0.64062 0.3125-1 0.3125-0.67188 0-1.2656-1.0625-1.9688-1.0625-0.78125 0-1.3906 1.0312-1.7031 1.7969zm-0.8125 4.3438c0.17188-0.10938 0.46875-0.20312 0.65625-0.20312 0.40625 0 0.46875 0.39062 0.53125 1.0156 0.03125 0.29688 0.10938 0.625 0.32812 0.84375 0.25 0.26562 0.64062 0.32812 1 0.32812 1.0938 0 2.1719-1.1094 2.1719-2.2344 0-0.54688-0.42188-2.1094-0.42188-2.9688 0-0.65625 0.3125-1.0156 0.6875-1.3906l-0.15625-0.09375c-0.51562 0.40625-0.98438 0.89062-1.375 1.4219 0 0.09375-0.015625 0.20312-0.015625 0.29688 0 1.0312 0.54688 2.0938 0.54688 3.2031 0 0.67188-0.3125 1.4062-1.0625 1.4062-0.6875 0-0.96875-0.625-0.96875-1.5625 0-0.46875-0.046875-0.90625-0.625-0.90625-0.45312 0-0.95312 0.375-1.3438 0.70312z"/>
</g>
</defs>
<g transform="translate(-148.54 -127.92)">
<use x="148.71201" y="134.765" xlink:href="#a"/>
</g>
</svg>
