<?xml version="1.0" encoding="UTF-8"?>
<svg fill="#000000" version="1.1" viewBox="0 0 5.6406 10.359" xmlns="http://www.w3.org/2000/svg" xmlns:xlink="http://www.w3.org/1999/xlink">
<defs>
<g id="a">
<path d="m0.73438-7.1562v0.65625h2.8906c1.1406 0 2.0938 1.0625 2.0938 2.125s-0.9375 2.125-2.0781 2.125h-0.17188l0.39062-1.1094h-0.53125l-0.39062 1.1094h-2.2031v0.65625h1.9844l-0.375 1.0625h-1.6094v0.65625h1.375l-0.46875 1.3281h-0.90625v0.65625h0.6875l-0.39062 1.0938h0.53125l0.375-1.0938h4.3281v-0.65625h-4.0938l0.46875-1.3281h3.625v-0.65625h-3.3906l0.35938-1.0625h0.40625c1.5938 0 2.7344-1.3125 2.7344-2.7812 0-1.4844-1.125-2.7812-2.7031-2.7812z"/>
</g>
</defs>
<g transform="translate(-149.45 -127.61)">
<use x="148.71201" y="134.765" xlink:href="#a"/>
</g>
</svg>
