<?xml version="1.0" encoding="UTF-8"?>
<svg fill="#000000" width="8.2031" height="7.8438" version="1.1" viewBox="0 0 8.2031 7.8437" xmlns="http://www.w3.org/2000/svg" xmlns:xlink="http://www.w3.org/1999/xlink">
<defs>
<g id="a">
<path d="m2.2969 0.59375c0.09375 0 0.17188-0.03125 0.23438-0.10938 0.70312-0.8125 1.3125-1.7031 1.7812-2.6719 0.5 0.96875 1.0938 1.8594 1.7812 2.6719 0.0625 0.078125 0.15625 0.10938 0.25 0.10938 0.21875 0 0.29688-0.1875 0.29688-0.29688 0-0.0625-0.015625-0.14062-0.078125-0.20312-0.76562-0.90625-1.4219-1.9219-1.9062-2.9844 0.21875-0.53125 0.40625-1.0938 0.5625-1.6406 0.45312 1.8438 1.4375 3.5469 2.6719 5.0156 0.046875 0.078125 0.14062 0.10938 0.21875 0.10938 0.21875 0 0.3125-0.1875 0.3125-0.29688 0-0.0625-0.03125-0.14062-0.078125-0.20312-1.6875-2-2.8281-4.4531-2.8281-7.0312 0-0.1875-0.125-0.3125-0.29688-0.3125-0.1875 0-0.3125 0.125-0.3125 0.3125 0 1.1094-0.21875 2.1875-0.59375 3.2344-0.35938-1.0469-0.57812-2.125-0.57812-3.2344 0-0.1875-0.125-0.3125-0.3125-0.3125-0.17188 0-0.29688 0.125-0.29688 0.3125 0 2.5781-1.1406 5.0312-2.8281 7.0312-0.0625 0.0625-0.078125 0.14062-0.078125 0.20312 0 0.21875 0.20312 0.29688 0.29688 0.29688s0.1875-0.03125 0.23438-0.10938c1.25-1.4688 2.2031-3.1719 2.6719-5.0156 0.14062 0.54688 0.34375 1.1094 0.5625 1.6406-0.48438 1.0625-1.1406 2.0781-1.9062 2.9844-0.046875 0.0625-0.078125 0.14062-0.078125 0.20312 0 0.21875 0.1875 0.29688 0.29688 0.29688z"/>
</g>
</defs>
<g transform="translate(-148.93 -128.29)">
<use x="148.71201" y="135.53999" xlink:href="#a"/>
</g>
</svg>
