<?xml version="1.0" encoding="UTF-8"?>
<svg fill="#000000" version="1.1" viewBox="0 0 6.75 6.7969" xmlns="http://www.w3.org/2000/svg" xmlns:xlink="http://www.w3.org/1999/xlink">
<defs>
<g id="a">
<path d="m1.4375-4.0781h-0.8125c-0.10938 0-0.17188 0.015625-0.17188 0.14062 0 0.0625 0 0.15625 0.09375 0.17188h0.84375c0 0.0625-0.015625 0.14062-0.015625 0.21875s0.015625 0.14062 0.015625 0.21875h-0.84375c-0.09375 0.015625-0.09375 0.09375-0.09375 0.17188 0 0.10938 0.0625 0.14062 0.17188 0.14062h0.79688c0.25 1.6562 1.6719 2.9062 3.3906 3h1.8438c0.1875 0 0.17188-0.375 0.21875-0.5625 0.078125-0.48438 0.15625-0.95312 0.25-1.4375l0.046875-0.35938c0.015625-0.03125 0.03125-0.0625 0.03125-0.09375 0-0.078125-0.078125-0.10938-0.14062-0.10938-0.1875 0-0.20312 0.60938-0.25 0.78125-0.125 0.6875-0.25 1.4844-1.1406 1.4844h-0.32812-0.1875c-0.23438 0-0.45312-0.015625-0.6875-0.0625-1.0156-0.26562-1.7031-1.2656-1.9375-2.2031-0.03125-0.15625-0.046875-0.29688-0.09375-0.4375 0.25 0 0.48438-0.015625 0.71875-0.015625h0.17188c0.54688 0 1.2188 0.015625 1.5625 0.35938s0.39062 0.90625 0.39062 1.3594v0.078125c0 0.0625 0.015625 0.125 0.09375 0.14062h0.03125c0.125 0 0.125-0.078125 0.125-0.17188v-1.9219c0-0.0625-0.015625-0.15625-0.14062-0.15625-0.046875 0-0.09375 0.015625-0.14062 0.015625h-2.5938c-0.03125 0-0.078125 0.015625-0.10938 0.015625-0.078125 0-0.14062-0.03125-0.14062-0.10938v-0.03125c0-0.10938 0-0.21875 0.015625-0.3125h2.9531c0.125 0 0.15625-0.046875 0.15625-0.17188v-1.9375c0-0.09375-0.046875-0.14062-0.125-0.14062s-0.125 0.03125-0.125 0.14062v0.046875c0 0.5-0.03125 1.0781-0.42188 1.4375-0.35938 0.3125-1.0781 0.32812-1.6094 0.32812h-0.09375c-0.23438 0-0.46875-0.015625-0.70312-0.015625 0.20312-1.2031 1.0312-2.3281 2.4219-2.4375h0.51562 0.34375c1.2188 0 1 1.1094 1.2188 1.8438 0.015625 0.0625 0.0625 0.09375 0.125 0.09375s0.125-0.03125 0.125-0.10938c0-0.14062-0.03125-0.28125-0.0625-0.42188-0.078125-0.51562-0.17188-1.0469-0.21875-1.5625 0-0.0625-0.03125-0.14062-0.14062-0.14062h-1.9688c-1.3281 0.09375-2.5938 0.76562-3.1562 2.0156-0.09375 0.23438-0.1875 0.46875-0.21875 0.71875z"/>
</g>
</defs>
<g transform="translate(-149.17 -127.95)">
<use x="148.71201" y="134.765" xlink:href="#a"/>
</g>
</svg>
