<?xml version="1.0" encoding="UTF-8"?>
<svg fill="#000000" version="1.1" viewBox="0 0 8.1875 10.25" xmlns="http://www.w3.org/2000/svg" xmlns:xlink="http://www.w3.org/1999/xlink">
<defs>
<g id="a">
<path d="m9.4531-2.1406c-0.10938 0-0.20312 0.09375-0.21875 0.20312-0.125 0.6875-0.46875 1.3438-0.95312 1.8438-0.57812 0.57812-1.4531 1.0156-2.4531 1.0156-0.15625 0-0.3125 0-0.46875-0.03125l1.2031-6.8281c1 0.21875 1.8438 0.875 2.3281 1.7969-0.53125-0.17188-1.3906-0.60938-1.6406-0.60938-0.10938 0-0.21875 0.078125-0.21875 0.21875 0 0.10938 0.0625 0.20312 0.17188 0.21875 1.9375 0.53125 1.9219 1.3594 2.25 1.3594 0.14062 0 0.23438-0.125 0.23438-0.23438 0-0.015625 0-0.046875-0.015625-0.0625-0.03125-0.25-0.078125-0.3125-0.078125-0.64062 0-0.95312 0.48438-1.7031 0.48438-1.8438 0-0.125-0.09375-0.23438-0.23438-0.23438-0.28125 0-0.32812 0.46875-0.64062 1.4219-0.59375-1-1.5625-1.625-2.5625-1.8438l0.20312-1.1094c0.015625-0.09375-0.046875-0.17188-0.15625-0.17188-0.0625 0-0.125 0.046875-0.14062 0.10938l-0.20312 1.125c-0.17188-0.03125-0.35938-0.046875-0.53125-0.046875-2.2188 0-3.9219 1.8281-3.9219 3.9375 0 1.875 1.3125 3.4531 3.0938 3.8438l-0.20312 1.1094c0 0.09375 0.046875 0.17188 0.15625 0.17188 0.0625 0 0.14062-0.046875 0.14062-0.10938l0.20312-1.125c0.17188 0.03125 0.34375 0.046875 0.53125 0.046875 1.0469 0 2.0469-0.42188 2.7812-1.1562 0.67188-0.67188 1.0938-1.75 1.0938-2.1406 0-0.125-0.09375-0.23438-0.23438-0.23438zm-3.6406-3.875c0.15625 0 0.3125 0 0.45312 0.03125l-1.2031 6.8281c-1.5938-0.35938-2.7188-1.75-2.7188-3.3906 0-1.9844 1.6094-3.4688 3.4688-3.4688z"/>
</g>
</defs>
<g transform="translate(-150.6 -127.09)">
<use x="148.71201" y="134.765" xlink:href="#a"/>
</g>
</svg>
