<?xml version="1.0" encoding="UTF-8"?>
<svg fill="#000000" version="1.1" viewBox="0 0 8.2344 5.5625" xmlns="http://www.w3.org/2000/svg" xmlns:xlink="http://www.w3.org/1999/xlink">
<defs>
<g id="a">
<path d="m8.6875 0.26562v-0.67188h-2.8594c-1.0156 0-1.8594-0.84375-2.0156-1.7812h4.4688v-0.65625h-4.4688c0.15625-0.9375 0.98438-1.7969 2.0156-1.7969h2.8594v-0.65625h-2.8594c-1.4844 0-2.5312 1.125-2.6719 2.4531h-0.82812c-0.1875 0-0.26562-0.10938-0.26562-0.20312 0-0.078125 0.046875-0.1875 0.14062-0.28125 0.29688-0.3125 0.48438-0.53125 0.71875-0.85938l-0.20312-0.1875c-0.65625 0.75-1.3125 1.3906-2.2656 1.7969v0.10938c0.95312 0.39062 1.6094 1.0469 2.2656 1.7969l0.1875-0.1875c-0.21875-0.32812-0.42188-0.59375-0.71875-0.85938-0.09375-0.10938-0.14062-0.17188-0.14062-0.25 0-0.10938 0.0625-0.21875 0.26562-0.21875h0.84375c0.14062 1.3281 1.1719 2.4531 2.6406 2.4531z"/>
</g>
</defs>
<g transform="translate(-149.17 -129.47)">
<use x="148.71201" y="134.765" xlink:href="#a"/>
</g>
</svg>
