<?xml version="1.0" encoding="UTF-8"?>
<svg fill="#000000" version="1.1" viewBox="0 0 4.3125 9.8906" xmlns="http://www.w3.org/2000/svg" xmlns:xlink="http://www.w3.org/1999/xlink">
<defs>
<g id="a">
<path d="m4.6406-6.6406c-0.046875 0-0.09375 0.015625-0.14062 0.046875-1.125 0.95312-2.3438 1.7344-3.7188 1.7344-0.14062 0-0.21875 0.10938-0.21875 0.23438s0.078125 0.23438 0.21875 0.23438c0.95312 0 1.8438 0.375 2.6719 0.92188l-0.60938 2.2188c-0.3125-0.3125-0.65625-0.65625-1.1406-0.65625-0.92188 0-1.1406 1.1562-1.1406 1.3906 0 0.125 0.046875 0.28125 0.21875 0.28125 0.10938 0 0.21875-0.09375 0.23438-0.21875 0.03125-0.375 0.23438-1 0.6875-1 0.375 0 0.67188 0.375 1.0156 0.71875l-0.25 0.90625c-0.21875-0.15625-0.46875-0.29688-0.76562-0.29688-0.92188 0-1.1406 1.1562-1.1406 1.375 0 0.14062 0.046875 0.29688 0.21875 0.29688 0.10938 0 0.21875-0.09375 0.23438-0.21875 0.03125-0.375 0.23438-0.98438 0.6875-0.98438 0.23438 0 0.4375 0.14062 0.625 0.32812l-0.64062 2.3906c-0.015625 0.09375 0.046875 0.1875 0.15625 0.1875 0.0625 0 0.125-0.046875 0.14062-0.10938l0.59375-2.2188c0.3125 0.3125 0.65625 0.64062 1.1406 0.64062 0.92188 0 1.1562-1.1562 1.1562-1.3906 0-0.15625-0.0625-0.26562-0.23438-0.26562-0.10938 0-0.21875 0.078125-0.21875 0.20312-0.03125 0.375-0.25 1-0.70312 1-0.35938 0-0.65625-0.375-1-0.70312l0.23438-0.92188c0.23438 0.17188 0.46875 0.29688 0.76562 0.29688 0.92188 0 1.1562-1.1562 1.1562-1.3906 0-0.14062-0.0625-0.28125-0.23438-0.28125-0.10938 0-0.21875 0.09375-0.21875 0.21875-0.03125 0.375-0.25 1-0.70312 1-0.21875 0-0.42188-0.14062-0.625-0.32812l0.60938-2.2969c0.85938 0.60938 0.78125 0.6875 0.9375 0.6875 0.14062 0 0.23438-0.10938 0.23438-0.23438 0-0.0625-0.03125-0.125-0.078125-0.17188-0.78125-0.65625-1.6562-1.2812-2.6406-1.6094 0.98438-0.32812 1.8594-0.95312 2.6406-1.6094 0.046875-0.046875 0.078125-0.10938 0.078125-0.17188 0-0.125-0.09375-0.23438-0.23438-0.23438z"/>
</g>
</defs>
<g transform="translate(-149.27 -128.12)">
<use x="148.71201" y="134.765" xlink:href="#a"/>
</g>
</svg>
