<?xml version="1.0" encoding="UTF-8"?>
<svg fill="#000000" version="1.1" viewBox="0 0 4.3125 7.4375" xmlns="http://www.w3.org/2000/svg" xmlns:xlink="http://www.w3.org/1999/xlink">
<defs>
<g id="a">
<path d="m1.9062 1.0625 0.42188-1.5938h2.3125c0.14062 0 0.23438-0.10938 0.23438-0.23438s-0.09375-0.23438-0.23438-0.23438h-2.1875l0.35938-1.3125h1.8281c0.14062 0 0.23438-0.09375 0.23438-0.23438v-1.7812c0-0.14062-0.09375-0.23438-0.23438-0.23438h-1.2344l0.40625-1.5156c0.03125-0.078125-0.03125-0.1875-0.14062-0.1875-0.0625 0-0.125 0.046875-0.14062 0.10938l-0.4375 1.5938h-2.3125c-0.14062 0-0.21875 0.09375-0.21875 0.23438v1.7812c0 0.14062 0.078125 0.23438 0.21875 0.23438h1.7188l-0.35938 1.3125h-1.3594c-0.125 0-0.21875 0.10938-0.21875 0.23438s0.09375 0.23438 0.21875 0.23438h1.25l-0.42188 1.5156c-0.015625 0.078125 0.046875 0.1875 0.15625 0.1875 0.0625 0 0.125-0.046875 0.14062-0.10938zm1.3906-5.1562h1.125v1.3281h-1.4844zm-0.3125 0-0.35938 1.3281h-1.6094v-1.3281z"/>
</g>
</defs>
<g transform="translate(-149.27 -128.5)">
<use x="148.71201" y="134.765" xlink:href="#a"/>
</g>
</svg>
