<?xml version="1.0" encoding="UTF-8"?>
<svg fill="#000000" version="1.1" viewBox="0 0 6.0625 6.0781" xmlns="http://www.w3.org/2000/svg" xmlns:xlink="http://www.w3.org/1999/xlink">
<defs>
<g id="a">
<path d="m0.82812 0.34375c0 0.10938 0.09375 0.20312 0.20312 0.20312h5.6719c0.10938 0 0.1875-0.09375 0.1875-0.20312v-5.6719c0-0.10938-0.078125-0.20312-0.1875-0.20312h-5.6719c-0.10938 0-0.20312 0.09375-0.20312 0.20312zm5.6719-0.1875h-5.2812v-5.2969h5.2812zm-4.3594-1.6562c0.046875 0.078125 0.14062 0.14062 0.23438 0.14062 0.046875 0 0.09375-0.015625 0.125-0.046875l1.25-0.89062-0.14062 1.5625c0 0.125 0.125 0.21875 0.26562 0.21875 0.125 0 0.25-0.09375 0.25-0.21875l-0.14062-1.5625 1.25 0.89062c0.046875 0.03125 0.078125 0.046875 0.125 0.046875 0.09375 0 0.17188-0.0625 0.21875-0.14062 0.03125-0.046875 0.046875-0.078125 0.046875-0.14062 0-0.078125-0.046875-0.17188-0.125-0.21875l-1.4062-0.64062 1.4062-0.625c0.078125-0.046875 0.125-0.14062 0.125-0.21875 0-0.0625-0.015625-0.09375-0.046875-0.14062-0.046875-0.078125-0.125-0.14062-0.21875-0.14062-0.046875 0-0.078125 0.015625-0.125 0.046875l-1.25 0.89062 0.14062-1.5625c0-0.125-0.125-0.21875-0.25-0.21875-0.14062 0-0.26562 0.09375-0.26562 0.21875l0.14062 1.5625-1.25-0.89062c-0.03125-0.03125-0.078125-0.046875-0.125-0.046875-0.09375 0-0.1875 0.0625-0.23438 0.14062-0.015625 0.03125-0.03125 0.078125-0.03125 0.14062 0 0.078125 0.046875 0.17188 0.14062 0.21875l1.3906 0.625-1.3906 0.64062c-0.09375 0.046875-0.14062 0.14062-0.14062 0.21875 0 0.0625 0.015625 0.10938 0.03125 0.14062z"/>
</g>
</defs>
<g transform="translate(-149.54 -129.23)">
<use x="148.71201" y="134.765" xlink:href="#a"/>
</g>
</svg>
