<?xml version="1.0" encoding="UTF-8"?>
<svg fill="#000000" version="1.1" viewBox="0 0 9.0312 6.1562" xmlns="http://www.w3.org/2000/svg" xmlns:xlink="http://www.w3.org/1999/xlink">
<defs>
<g id="a">
<path d="m3.7656-2.2969h4.8281c-0.09375 0.078125-0.65625 0.57812-1 1.4688h0.29688c0.17188-0.45312 0.5625-1.1719 1.5-1.6719-0.9375-0.5-1.3281-1.2031-1.5-1.6562h-0.29688c0.34375 0.89062 0.90625 1.3906 1 1.4688h-4.8281v-0.60938c0-1.5312-0.3125-2.4375-1.7188-2.4375-1.1719 0-1.6875 0.60938-1.6875 1.7031 0 1.3438 0.78125 1.7344 2.375 1.7344h0.625v2.3594c0 0.17188 0 0.35938 0.20312 0.35938s0.20312-0.1875 0.20312-0.35938zm-1-0.39062c-1.5938 0-2.0156-0.375-2.0156-1.3438 0-0.95312 0.42188-1.3125 1.2969-1.3125 0.98438 0 1.3125 0.45312 1.3125 2.0781v0.57812z"/>
</g>
</defs>
<g transform="translate(-149.07 -129.03)">
<use x="148.71201" y="134.765" xlink:href="#a"/>
</g>
</svg>
