<?xml version="1.0" encoding="UTF-8"?>
<svg fill="#000000" width="3.5781" height="4.3438" version="1.1" viewBox="0 0 3.5781 4.3437" xmlns="http://www.w3.org/2000/svg" xmlns:xlink="http://www.w3.org/1999/xlink">
<defs>
<g id="a">
<path d="m1.0312-6.7188c0.23438-0.42188 0.5625-0.6875 1.0312-0.73438h0.0625c0.42188 0 0.67188 0.21875 0.67188 0.73438 0 0.34375-0.14062 0.8125-0.51562 0.95312-0.15625 0.046875-0.625 0-0.625 0.15625 0 0.0625 0.03125 0.10938 0.09375 0.125h0.25c0.48438 0 0.96875 0.17188 0.96875 0.95312 0 0.45312-0.23438 0.89062-0.85938 0.89062-0.21875 0-0.46875-0.015625-0.6875-0.0625-0.10938-0.03125-0.20312-0.0625-0.28125-0.078125v-0.015625c0.25-0.0625 0.39062-0.29688 0.39062-0.54688 0-0.28125-0.20312-0.53125-0.5625-0.53125-0.3125 0-0.54688 0.23438-0.54688 0.5625v0.03125c0.046875 0.79688 1.125 0.92188 1.7188 0.92188 0.6875 0 1.8594-0.26562 1.8594-1.2188 0-0.64062-0.84375-1-1.2969-1.0469 0.5-0.21875 1.0312-0.51562 1.0312-1.1094 0-0.64062-0.84375-0.96875-1.4844-0.96875-0.6875 0-1.5625 0.4375-1.5625 1.4375 0 0.3125 0.20312 0.53125 0.5 0.53125 0.26562 0 0.5-0.17188 0.5-0.5 0-0.28125-0.21875-0.5-0.5-0.5-0.046875 0-0.09375 0-0.15625 0.015625z"/>
</g>
</defs>
<g transform="translate(-149.13 -127.06)">
<use x="148.71201" y="134.765" xlink:href="#a"/>
</g>
</svg>
