<?xml version="1.0" encoding="UTF-8"?>
<svg fill="#000000" version="1.1" viewBox="0 0 5.8594 9.9844" xmlns="http://www.w3.org/2000/svg" xmlns:xlink="http://www.w3.org/1999/xlink">
<defs>
<g id="a">
<path d="m6.3438 2.0625v-0.67188l-3.1719-1.2969 0.23438-1.1562 2.9375-1.1875v-0.65625l-2.8125 1.1719 0.35938-1.75 2.4531-1.0156v-0.10938l-2.0625-0.85938 0.40625-2.0156h-0.51562l-0.35938 1.8281-3.3281-1.3906v0.67188l3.2031 1.2969-0.23438 1.1406-2.9688 1.2031v0.65625l2.8438-1.1875-0.34375 1.75-2.5 1.0312v0.10938l2.0938 0.875-0.39062 2h0.5l0.35938-1.8125zm-1.375-6.625-0.9375 0.39062 0.14062-0.71875zm-2.125 3.7344-0.14062 0.75-0.84375-0.34375z"/>
</g>
</defs>
<g transform="translate(-149.2 -127.28)">
<use x="148.71201" y="134.765" xlink:href="#a"/>
</g>
</svg>
