<?xml version="1.0" encoding="UTF-8"?>
<svg fill="#000000" version="1.1" viewBox="0 0 5.7344 10.922" xmlns="http://www.w3.org/2000/svg" xmlns:xlink="http://www.w3.org/1999/xlink">
<defs>
<g id="a">
<path d="m0.26562 0.3125c0 0.078125 0.046875 0.15625 0.09375 0.20312 0.26562 0.1875 0.5625 0.29688 0.85938 0.29688 1.25 0 1.5938-1.5 1.8281-2.8438l0.10938-0.59375c1.0781 0 2-0.89062 2-2.0312 0-0.98438-0.65625-1.6562-1.3125-1.9062l0.125-0.71875c0.125-0.6875 0.39062-2.4062 1.0781-2.4062 0.125 0 0.25 0.046875 0.34375 0.125 0.03125 0.1875 0.1875 0.26562 0.29688 0.26562 0.17188 0 0.3125-0.14062 0.3125-0.3125 0-0.34375-0.67188-0.5-0.95312-0.5-1.2344 0-1.5781 1.5-1.8125 2.8281l-0.10938 0.60938c-0.98438 0-1.6562 0.67188-1.9062 1.3281-0.078125-0.15625-0.17188-0.3125-0.28125-0.45312-0.0625-0.078125-0.1875-0.078125-0.28125-0.015625-0.078125 0.078125-0.09375 0.1875-0.015625 0.26562 0.23438 0.26562 0.46875 0.625 0.46875 1.0625 0 0.09375 0.0625 0.17188 0.15625 0.1875h0.046875c0.25 0 0.046875-0.42188 0.96875-0.95312 0.09375-0.046875 0.125-0.17188 0.078125-0.26562-0.046875-0.0625-0.09375-0.09375-0.15625-0.09375-0.15625 0-0.375 0.21875-0.625 0.40625 0.1875-0.53125 0.71875-1.0625 1.4844-1.0938l-0.5625 3.1719c-0.39062-0.17188-0.6875-0.45312-0.85938-0.82812-0.046875-0.09375-0.15625-0.14062-0.25-0.09375s-0.14062 0.15625-0.09375 0.26562c0.20312 0.4375 0.59375 0.84375 1.1406 1.0469l-0.14062 0.70312c-0.10938 0.70312-0.39062 2.4219-1.0625 2.4219-0.125 0-0.25-0.046875-0.35938-0.14062-0.03125-0.1875-0.17188-0.25-0.29688-0.25-0.15625 0-0.3125 0.14062-0.3125 0.3125zm2.9375-3.3125 0.57812-3.1719c0.45312 0.1875 1 0.71875 1 1.5156 0 0.95312-0.75 1.6094-1.5781 1.6562z"/>
</g>
</defs>
<g transform="translate(-148.98 -126.76)">
<use x="148.71201" y="136.868" xlink:href="#a"/>
</g>
</svg>
