<?xml version="1.0" encoding="UTF-8"?>
<svg fill="#000000" version="1.1" viewBox="0 0 6.375 6.875" xmlns="http://www.w3.org/2000/svg" xmlns:xlink="http://www.w3.org/1999/xlink">
<defs>
<g id="a">
<path d="m8.5312-1.9062c0-0.125-0.09375-0.23438-0.23438-0.23438-0.078125 0-0.17188 0.0625-0.21875 0.14062-0.1875 0.54688-0.23438 1.1406-0.40625 1.6875-0.14062-0.17188-0.25-0.32812-0.3125-0.51562-0.23438-0.67188 0.10938-1.9062-1.75-1.9375l0.82812-1.7812c0.03125-0.078125 0-0.17188-0.0625-0.20312-0.078125-0.03125-0.17188 0-0.20312 0.078125l-0.89062 1.8906c-0.53125 0-0.9375-0.046875-1.1719-0.3125-0.32812-0.39062-0.10938-0.95312-0.48438-1.625 0.28125 0.078125 1.0469 0.34375 1.2344 0.34375 0.10938 0 0.21875-0.09375 0.21875-0.23438 0-0.10938-0.078125-0.20312-0.1875-0.21875-1.9375-0.34375-2.0469-1.1562-2.3438-1.1562-0.046875 0-0.078125 0.015625-0.10938 0.03125-0.09375 0.046875-0.10938 0.10938-0.10938 0.1875 0 0.15625 0.14062 0.40625 0.14062 0.96875 0 0.78125-0.3125 1.5312-0.3125 1.6094 0 0.125 0.09375 0.23438 0.21875 0.23438 0.09375 0 0.1875-0.0625 0.21875-0.14062 0.20312-0.5625 0.25-1.1406 0.42188-1.6875 0.14062 0.17188 0.25 0.32812 0.3125 0.51562 0.23438 0.67188-0.10938 1.9062 1.75 1.9375l-0.82812 1.7812c-0.046875 0.078125 0 0.17188 0.0625 0.20312 0.078125 0.03125 0.15625 0 0.20312-0.078125l0.89062-1.8906c0.53125 0 0.9375 0.046875 1.1562 0.3125 0.34375 0.39062 0.10938 0.95312 0.5 1.625-0.29688-0.078125-1.0469-0.34375-1.2344-0.34375-0.10938 0-0.21875 0.09375-0.21875 0.23438 0 0.10938 0.078125 0.20312 0.1875 0.21875 1.9375 0.34375 2.0469 1.1562 2.3438 1.1562 0.03125 0 0.078125-0.015625 0.10938-0.03125 0.078125-0.046875 0.10938-0.10938 0.10938-0.17188 0-0.17188-0.15625-0.42188-0.15625-0.98438 0-0.78125 0.32812-1.5312 0.32812-1.6094z"/>
</g>
</defs>
<g transform="translate(-150.87 -128.78)">
<use x="148.71201" y="134.765" xlink:href="#a"/>
</g>
</svg>
