<?xml version="1.0" encoding="UTF-8"?>
<svg fill="#000000" version="1.1" viewBox="0 0 5.8594 9.4531" xmlns="http://www.w3.org/2000/svg" xmlns:xlink="http://www.w3.org/1999/xlink">
<defs>
<g id="a">
<path d="m6.1875-4.2344c-2.0156-0.15625-4.3594-0.84375-5.5469-2.4375v0.76562c0.5 0.85938 2.0938 1.6562 3.3281 2.0156-1.2344 0.34375-2.8281 1.1562-3.3281 2v0.78125c1.1875-1.6094 3.5312-2.2969 5.5469-2.4531zm-0.17188 4.0312c-0.14062 0.71875-0.46875 1.375-1.1562 1.375-0.32812 0-0.71875-0.25-1.125-0.53125l0.79688-1.6875h-0.54688l-0.67188 1.4219c-0.40625-0.26562-0.8125-0.46875-1.2031-0.46875-0.98438 0-1.5781 1.0312-1.625 2.0312h0.32812c0.15625-0.71875 0.51562-1.375 1.2188-1.375 0.28125 0 0.625 0.1875 0.98438 0.42188l-0.84375 1.7969h0.54688l0.70312-1.5c0.45312 0.28125 0.92188 0.54688 1.3594 0.54688 0.96875 0 1.5156-1.1875 1.5625-2.0312z"/>
</g>
</defs>
<g transform="translate(-149.2 -128.09)">
<use x="148.71201" y="134.765" xlink:href="#a"/>
</g>
</svg>
