<?xml version="1.0" encoding="UTF-8"?>
<svg fill="#000000" version="1.1" viewBox="0 0 6.7188 6.7969" xmlns="http://www.w3.org/2000/svg" xmlns:xlink="http://www.w3.org/1999/xlink">
<defs>
<g id="a">
<path d="m0.34375-6.8125v0.29688h0.32812c0.42188 0 0.6875 0.03125 0.6875 0.4375v2.5781h-0.84375c-0.10938 0-0.17188 0.046875-0.17188 0.15625 0 0.0625 0.03125 0.14062 0.10938 0.15625h0.90625v2.4375c0 0.39062-0.32812 0.4375-0.6875 0.4375h-0.32812v0.29688h3.4531c1.2812 0 2.4688-0.60938 3.0469-2.0625 0.14062-0.42188 0.21875-0.84375 0.21875-1.2812 0-1.5625-0.98438-3.2344-2.7656-3.4531h-0.48438zm1.875 3.3125v-2.6562c0-0.32812 0.20312-0.35938 0.42188-0.35938h0.84375c0.625 0 1.25 0.078125 1.7969 0.625 0.625 0.625 0.78125 1.5469 0.78125 2.4219 0 1.3281-0.20312 3.1562-2.5625 3.1562h-0.84375c-0.23438 0-0.4375-0.03125-0.4375-0.35938v-2.5156h1.75c0.09375 0 0.14062-0.046875 0.14062-0.15625s-0.03125-0.15625-0.125-0.15625z"/>
</g>
</defs>
<g transform="translate(-149.06 -127.95)">
<use x="148.71201" y="134.765" xlink:href="#a"/>
</g>
</svg>
