<?xml version="1.0" encoding="UTF-8"?>
<svg fill="#000000" version="1.1" viewBox="0 0 7.4826 7.4796" xmlns="http://www.w3.org/2000/svg" xmlns:xlink="http://www.w3.org/1999/xlink">
<defs>
<g id="a">
<path d="m0.20312-6.2344c-0.046875 0.03125-0.0625 0.078125-0.0625 0.125-0.015625 0.09375 0 0.1875 0 0.28125v6.8906c0 0.046875 0 0.09375 0.03125 0.14062 0.03125 0.03125 0.09375 0.03125 0.14062 0.03125h0.29688 6.7812c0.046875 0 0.10938 0.015625 0.15625-0.015625 0.046875-0.015625 0.0625-0.0625 0.0625-0.10938 0.015625-0.10938 0-0.1875 0-0.29688v-6.875c0-0.046875 0-0.09375-0.015625-0.14062-0.03125-0.03125-0.09375-0.03125-0.14062-0.03125h-0.3125-6.7656c-0.0625 0-0.10938-0.015625-0.17188 0zm1.75 1.6094c-0.046875 0.015625-0.0625 0.046875-0.09375 0.0625-0.046875 0.046875-0.09375 0.09375-0.10938 0.14062 0 0.046875 0.015625 0.078125 0.046875 0.125 0.0625 0.0625 0.10938 0.125 0.17188 0.1875l1.2031 1.1875 0.29688 0.29688c0.03125 0.03125 0.09375 0.078125 0.09375 0.125-0.015625 0.03125-0.046875 0.0625-0.0625 0.09375l-0.15625 0.15625-0.59375 0.57812-0.82812 0.82812c-0.0625 0.0625-0.14062 0.125-0.17188 0.20312-0.015625 0.0625 0.03125 0.10938 0.078125 0.15625 0.0625 0.0625 0.10938 0.14062 0.20312 0.09375 0.0625-0.03125 0.10938-0.09375 0.15625-0.14062l0.28125-0.26562 0.90625-0.92188 0.35938-0.35938c0.03125-0.03125 0.09375-0.10938 0.15625-0.10938 0.046875 0.015625 0.09375 0.078125 0.10938 0.10938l0.28125 0.26562 1.0156 1.0312 0.32812 0.32812c0.0625 0.046875 0.10938 0.09375 0.1875 0.078125 0.046875-0.03125 0.0625-0.046875 0.09375-0.078125s0.078125-0.078125 0.09375-0.14062c0.015625-0.046875-0.015625-0.078125-0.046875-0.125l-0.1875-0.1875-1.1875-1.1719-0.29688-0.29688c-0.03125-0.03125-0.09375-0.09375-0.078125-0.14062 0-0.03125 0.03125-0.0625 0.046875-0.078125 0.0625-0.046875 0.10938-0.10938 0.17188-0.15625l0.57812-0.59375 0.48438-0.46875 0.34375-0.35938c0.0625-0.0625 0.14062-0.10938 0.17188-0.1875 0.015625-0.0625-0.03125-0.10938-0.0625-0.17188-0.0625-0.046875-0.125-0.125-0.21875-0.078125-0.0625 0.03125-0.10938 0.078125-0.15625 0.14062l-0.26562 0.26562-0.92188 0.90625-0.35938 0.35938c-0.03125 0.03125-0.09375 0.125-0.14062 0.10938-0.0625 0-0.09375-0.0625-0.125-0.09375l-1.625-1.625c-0.046875-0.03125-0.09375-0.09375-0.17188-0.078125zm-1.4219 5.4688v-6.6875h6.6875v6.6875z"/>
</g>
</defs>
<g transform="translate(-148.85 -128.52)">
<use x="148.71201" y="134.765" xlink:href="#a"/>
</g>
</svg>
