<?xml version="1.0" encoding="UTF-8"?>
<svg fill="#000000" version="1.1" viewBox="0 0 1.6875 4.7812" xmlns="http://www.w3.org/2000/svg" xmlns:xlink="http://www.w3.org/1999/xlink">
<defs>
<g id="a">
<path d="m0.82812-4.9375c-0.125 0-0.23438 0.09375-0.23438 0.21875s0.09375 0.21875 0.21875 0.23438c0.4375 0.03125 1 0.32812 1 0.8125 0 0.73438-1.2344 1.2656-1.2344 2.25 0 1.0156 1.2031 1.2656 1.4531 1.2656 0.10938 0 0.21875-0.09375 0.21875-0.21875s-0.09375-0.21875-0.20312-0.23438c-0.45312-0.03125-1.0156-0.32812-1.0156-0.8125 0-0.73438 1.2344-1.2656 1.2344-2.25 0-1.0156-1.2031-1.2656-1.4375-1.2656z"/>
</g>
</defs>
<g transform="translate(-149.29 -129.83)">
<use x="148.71201" y="134.765" xlink:href="#a"/>
</g>
</svg>
