<?xml version="1.0" encoding="UTF-8"?>
<svg fill="#000000" version="1.1" viewBox="0 0 6.7656 6.8906" xmlns="http://www.w3.org/2000/svg" xmlns:xlink="http://www.w3.org/1999/xlink">
<defs>
<g id="a">
<path d="m4.3281-1.4688c0 0.14062 0.10938 0.21875 0.23438 0.21875 0.046875 0 0.21875-0.015625 0.57812-0.015625 0.625 0 1.2656 0.10938 1.7969 0.48438l0.6875 0.6875h-0.015625c-0.39062 0-0.76562-0.046875-1.1562-0.046875h-0.10938c-0.20312 0-0.4375 0.015625-0.4375 0.25 0 0.125 0.10938 0.23438 0.21875 0.23438 0.0625 0 0.23438-0.03125 0.57812-0.03125 1.3906 0 1.7656 0.53125 1.9531 0.53125 0.14062 0 0.21875-0.10938 0.21875-0.23438 0-0.20312-0.51562-0.5625-0.51562-1.9375 0-0.35938 0.03125-0.53125 0.03125-0.57812 0-0.125-0.10938-0.23438-0.23438-0.23438-0.23438 0-0.25 0.23438-0.25 0.48438v0.0625c0 0.39062 0.046875 0.78125 0.046875 1.1719l-0.70312-0.6875c-0.35938-0.53125-0.46875-1.1562-0.46875-1.8125 0-0.34375 0.03125-0.5 0.03125-0.5625 0-0.14062-0.10938-0.23438-0.25-0.23438-0.21875 0-0.23438 0.23438-0.23438 0.48438v0.0625c0 0.39062 0.046875 0.78125 0.046875 1.1719l-1.9531-1.9531 0.875-1.8906c0.0625-0.09375-0.015625-0.20312-0.125-0.20312-0.0625 0-0.125 0.03125-0.14062 0.078125l-0.82812 1.7969-1.7031-1.6875c-0.03125-0.046875-0.09375-0.078125-0.15625-0.078125-0.125 0-0.23438 0.09375-0.23438 0.23438 0 0.0625 0.03125 0.125 0.078125 0.15625l1.7969 1.8125-0.875 1.8906c-0.03125 0.078125 0 0.17188 0.078125 0.20312s0.15625 0 0.1875-0.078125l0.84375-1.7969 1.8281 1.8438h-0.03125c-0.375 0-0.76562-0.046875-1.1406-0.046875h-0.09375c-0.21875 0-0.45312 0.015625-0.45312 0.25z"/>
</g>
</defs>
<g transform="translate(-150.82 -128.72)">
<use x="148.71201" y="134.765" xlink:href="#a"/>
</g>
</svg>
