<?xml version="1.0" encoding="UTF-8"?>
<svg fill="#000000" version="1.1" viewBox="0 0 4.7969 5.6719" xmlns="http://www.w3.org/2000/svg" xmlns:xlink="http://www.w3.org/1999/xlink">
<defs>
<g id="a">
<path d="m0.89062-3.375h4.7969v-0.64062h-4.7969zm0 1.9062h4.7969v-0.64062h-4.7969zm2.4062-5.6719c-0.57812 0-1.0469 0.46875-1.0469 1.0469 0 0.5625 0.48438 1.0312 1.0469 1.0312 0.54688 0 1.0312-0.46875 1.0312-1.0312 0-0.57812-0.46875-1.0469-1.0312-1.0469zm0 1.5938c-0.3125 0-0.5625-0.25-0.5625-0.54688 0-0.3125 0.25-0.5625 0.5625-0.5625 0.29688 0 0.54688 0.25 0.54688 0.5625 0 0.29688-0.25 0.54688-0.54688 0.54688z"/>
</g>
</defs>
<g transform="translate(-149.6 -127.62)">
<use x="148.71201" y="134.765" xlink:href="#a"/>
</g>
</svg>
