<?xml version="1.0" encoding="UTF-8"?>
<svg fill="#000000" width="8.3906" height="4.4688" version="1.1" viewBox="0 0 8.3906 4.4687" xmlns="http://www.w3.org/2000/svg" xmlns:xlink="http://www.w3.org/1999/xlink">
<defs>
<g id="a">
<path d="m4.0625-0.54688c0-0.078125-0.03125-0.17188-0.51562-0.625h5.25c0.10938 0 0.1875-0.078125 0.1875-0.1875 0-0.09375-0.078125-0.17188-0.1875-0.17188h-5.6406c-0.29688-0.26562-0.59375-0.54688-0.875-0.82812h6.5156c0.10938 0 0.1875-0.09375 0.1875-0.1875s-0.078125-0.17188-0.1875-0.17188h-6.5156c0.28125-0.29688 0.57812-0.57812 0.875-0.84375h5.6406c0.10938 0 0.1875-0.078125 0.1875-0.17188 0-0.10938-0.078125-0.1875-0.1875-0.1875h-5.25c0.34375-0.32812 0.51562-0.5 0.51562-0.625 0-0.14062-0.10938-0.23438-0.23438-0.23438-0.0625 0-0.125 0.03125-0.17188 0.09375-0.76562 0.90625-1.7031 1.7031-2.875 1.9219-0.10938 0.015625-0.1875 0.10938-0.1875 0.21875s0.078125 0.20312 0.1875 0.21875c1.1719 0.21875 2.1094 1.0156 2.875 1.9219 0.046875 0.0625 0.10938 0.09375 0.17188 0.09375 0.125 0 0.23438-0.09375 0.23438-0.23438z"/>
</g>
</defs>
<g transform="translate(-149.31 -129.98)">
<use x="148.71201" y="134.765" xlink:href="#a"/>
</g>
</svg>
