<?xml version="1.0" encoding="UTF-8"?>
<svg fill="#000000" width="4.3125" height="6.8438" version="1.1" viewBox="0 0 4.3125 6.8437" xmlns="http://www.w3.org/2000/svg" xmlns:xlink="http://www.w3.org/1999/xlink">
<defs>
<g id="a">
<path d="m1.9844 0.75 0.42188-1.5781h2.2344c0.14062 0 0.23438-0.10938 0.23438-0.23438s-0.09375-0.21875-0.23438-0.21875h-2.1094l0.59375-2.25c0.1875-0.17188 0.39062-0.28125 0.59375-0.28125 0.42188 0 0.67188 0.53125 0.70312 0.98438 0 0.125 0.10938 0.21875 0.21875 0.21875 0.14062 0 0.23438-0.10938 0.23438-0.23438 0-0.28125-0.25-1.4375-1.1562-1.4375-0.15625 0-0.28125 0.03125-0.40625 0.078125l0.42188-1.5625c0.03125-0.10938-0.03125-0.20312-0.14062-0.20312-0.0625 0-0.125 0.046875-0.14062 0.10938l-0.51562 1.9062c-0.4375 0.35938-0.78125 0.90625-1.2344 0.90625-0.40625 0-0.65625-0.54688-0.6875-1-0.015625-0.125-0.125-0.20312-0.23438-0.20312-0.14062 0-0.21875 0.09375-0.21875 0.21875 0 0.26562 0.23438 1.4375 1.1406 1.4375 0.40625 0 0.73438-0.25 1.0156-0.51562l-0.5 1.8281h-1.4375c-0.125 0-0.21875 0.09375-0.21875 0.21875s0.09375 0.23438 0.21875 0.23438h1.3281l-0.42188 1.5156c-0.015625 0.09375 0.046875 0.1875 0.15625 0.1875 0.0625 0 0.125-0.046875 0.14062-0.125z"/>
</g>
</defs>
<g transform="translate(-149.27 -128.8)">
<use x="148.71201" y="134.765" xlink:href="#a"/>
</g>
</svg>
