<?xml version="1.0" encoding="UTF-8"?>
<svg fill="#000000" version="1.1" viewBox="0 0 5.5156 7.0781" xmlns="http://www.w3.org/2000/svg" xmlns:xlink="http://www.w3.org/1999/xlink">
<defs>
<g id="a">
<path d="m2.6562-5.9844c-0.57812 0.25-1.125 0.60938-1.6406 1-0.28125 0.5625-0.42188 1.1719-0.42188 1.7969 0 0.89062 0.15625 1.9219 0.78125 2.5469 0.625 0.59375 1.5 0.875 2.375 0.875 0.28125 0 0.54688-0.015625 0.8125-0.078125 0.48438-0.3125 1.0156-0.67188 1.4375-1.0156v-0.20312l-0.85938 0.46875c-0.14062 0.078125-0.39062 0.14062-0.71875 0.14062-0.82812 0-1.6562-0.28125-2.2344-0.875-0.60938-0.59375-0.79688-1.4375-0.79688-2.2812 0-0.85938 0.32812-1.9844 1.375-2.0156-0.03125 0.10938-0.03125 0.20312-0.03125 0.29688 0 0.53125 0.29688 1.2656 0.29688 1.6719 0 0.23438 0 0.53125-0.15625 0.6875-0.21875 0.20312-0.46875 0.35938-0.73438 0.42188l0.10938 0.17188c0.84375-0.14062 1.7344-0.54688 1.7344-1.6094 0-0.29688-0.14062-0.76562-0.20312-0.92188-0.0625-0.20312-0.125-0.5-0.125-0.67188 0-0.10938 0.046875-0.54688 0.48438-0.6875 0.23438 0.375 0.53125 0.85938 0.79688 1.0156 0.39062-0.046875 0.82812-0.25 1.1719-0.40625v-0.23438c-0.125 0.03125-0.34375 0.09375-0.5 0.09375-0.20312 0-0.21875-0.09375-0.28125-0.23438l-0.28125-0.8125c-0.71875 0.28125-1.4375 0.5625-2.0625 1.0156z"/>
</g>
</defs>
<g transform="translate(-149.31 -127.92)">
<use x="148.71201" y="134.765" xlink:href="#a"/>
</g>
</svg>
