<?xml version="1.0" encoding="UTF-8"?>
<svg fill="#000000" version="1.1" viewBox="0 0 5.2344 11.406" xmlns="http://www.w3.org/2000/svg" xmlns:xlink="http://www.w3.org/1999/xlink">
<defs>
<g id="a">
<path d="m4.2969-2.4062c0-0.45312-0.375-0.78125-0.78125-0.78125-0.375 0-0.78125 0.3125-0.78125 0.78125 0 0.48438 0.32812 0.78125 0.78125 0.78125 0.46875 0 0.78125-0.375 0.78125-0.78125zm-1.6719-3.6094c0-1.0469 0.078125-1.7656 0.57812-1.7656 0.078125 0 0.125 0.03125 0.125 0.10938 0 0.09375-0.09375 0.078125-0.09375 0.28125 0 0.25 0.1875 0.32812 0.35938 0.32812 0.21875 0 0.42188-0.14062 0.42188-0.42188 0-0.29688-0.20312-0.60938-0.6875-0.60938-1.1875 0-1.4219 1.375-1.4219 2.1719v2.6094c0.3125-0.5625 0.92188-0.9375 1.6094-0.9375 1.0312 0 1.875 0.82812 1.875 1.8594s-0.84375 1.8594-1.875 1.8594c-0.67188 0-1.2812-0.35938-1.6094-0.90625v2.7969c0 1-0.078125 1.6406-0.54688 1.6406-0.078125 0-0.14062-0.046875-0.14062-0.10938 0-0.09375 0.09375-0.078125 0.09375-0.28125 0-0.25-0.17188-0.34375-0.35938-0.34375-0.20312 0-0.42188 0.15625-0.42188 0.42188 0 0.3125 0.20312 0.625 0.6875 0.625 1.125 0 1.4062-1.2031 1.4062-2.0156v-1.625c0.28125 0.10938 0.57812 0.17188 0.89062 0.17188 1.2344 0 2.25-1 2.25-2.2344s-1.0156-2.25-2.25-2.25c-0.3125 0-0.60938 0.0625-0.89062 0.1875z"/>
</g>
</defs>
<g transform="translate(-149.24 -126.63)">
<use x="148.71201" y="134.72501" xlink:href="#a"/>
</g>
</svg>
