<?xml version="1.0" encoding="UTF-8"?>
<svg fill="#000000" version="1.1" viewBox="0 0 6.0938 8.85" xmlns="http://www.w3.org/2000/svg" xmlns:xlink="http://www.w3.org/1999/xlink">
<defs>
<g id="a">
<path d="m3.6719-3.4219c-0.14062-0.09375-0.28125-0.15625-0.4375-0.23438-0.21875-0.10938-0.4375-0.23438-0.64062-0.375-0.3125-0.20312-0.59375-0.39062-0.89062-0.625-0.125-0.09375-0.25-0.20312-0.375-0.29688-0.10938-0.078125-0.26562-0.078125-0.39062-0.0625-0.0625 0.015625-0.125 0.078125-0.09375 0.15625 0.03125 0.0625 0.10938 0.10938 0.15625 0.15625 0.10938 0.09375 0.23438 0.20312 0.35938 0.28125 0.5 0.39062 1.0156 0.73438 1.5469 1.0312 0.1875 0.09375 0.375 0.20312 0.5625 0.29688 0.0625 0.015625 0.1875 0.046875 0.20312 0.10938 0.03125 0.078125 0 0.15625 0 0.23438v0.5c0 0.0625 0.03125 0.1875-0.015625 0.23438-0.03125 0.046875-0.125 0.078125-0.17188 0.10938-0.14062 0.078125-0.29688 0.14062-0.4375 0.21875-0.46875 0.25-0.92188 0.54688-1.3594 0.84375-0.23438 0.1875-0.46875 0.35938-0.70312 0.54688-0.0625 0.0625-0.23438 0.1875-0.10938 0.28125 0.046875 0.03125 0.125 0.03125 0.1875 0.03125 0.046875 0 0.125 0 0.1875-0.015625s0.09375-0.0625 0.14062-0.09375c0.078125-0.0625 0.15625-0.125 0.21875-0.1875 0.40625-0.3125 0.82812-0.60938 1.2812-0.875 0.26562-0.15625 0.53125-0.26562 0.78125-0.42188v3.2344c0 0.0625 0 0.14062 0.015625 0.20312 0.046875 0.078125 0.15625 0.0625 0.23438 0.0625 0.046875 0 0.09375 0 0.125-0.03125 0.046875-0.0625 0.03125-0.1875 0.03125-0.25v-3.125c0-0.078125-0.015625-0.17188 0.015625-0.23438 0.015625-0.0625 0.078125-0.0625 0.14062-0.078125 0.10938-0.0625 0.23438-0.09375 0.35938-0.14062 0.54688-0.17188 1.0938-0.28125 1.6562-0.32812 0.14062-0.03125 0.29688-0.03125 0.42188-0.03125 0.0625 0 0.15625 0.015625 0.21875-0.03125 0.046875-0.046875 0.03125-0.10938 0.03125-0.17188s0.015625-0.125-0.03125-0.17188c-0.0625-0.046875-0.15625-0.03125-0.21875-0.03125-0.125 0-0.28125-0.015625-0.42188-0.03125-0.5625-0.046875-1.1094-0.15625-1.6562-0.34375-0.125-0.03125-0.25-0.078125-0.35938-0.125-0.0625-0.015625-0.125-0.03125-0.14062-0.078125-0.03125-0.0625-0.015625-0.17188-0.015625-0.23438v-3.125c0-0.0625 0.015625-0.1875-0.03125-0.25-0.03125-0.03125-0.078125-0.03125-0.125-0.03125-0.078125 0-0.1875-0.03125-0.23438 0.0625-0.015625 0.0625-0.015625 0.14062-0.015625 0.20312zm0.40625 1.2656v-0.6875l0.625 0.21875 0.4375 0.10938v0.015625l-0.4375 0.125z"/>
</g>
</defs>
<g transform="translate(-149.54 -127.84)">
<use x="148.71201" y="134.765" xlink:href="#a"/>
</g>
</svg>
