<?xml version="1.0" encoding="UTF-8"?>
<svg fill="#000000" version="1.1" viewBox="0 0 6.0983 1.9827" xmlns="http://www.w3.org/2000/svg" xmlns:xlink="http://www.w3.org/1999/xlink">
<defs>
<g id="a">
<path d="m3.0781-3.0938c-0.25 0.35938-0.25 0.82812 0 1.1875h-1.875-0.21875c-0.0625 0-0.10938 0-0.14062 0.046875-0.03125 0.0625-0.015625 0.10938-0.015625 0.17188 0 0.046875 0 0.09375 0.03125 0.125 0.0625 0.078125 0.20312 0.046875 0.28125 0.046875h5.5938c0.046875 0 0.10938 0.015625 0.14062-0.015625 0.046875-0.046875 0.046875-0.10938 0.046875-0.15625 0-0.09375 0.015625-0.21875-0.10938-0.21875-0.078125-0.015625-0.17188 0-0.25 0h-1.8906c0.25-0.35938 0.25-0.82812 0-1.1875h1.8906c0.078125 0 0.17188 0.015625 0.25 0 0.125 0 0.10938-0.125 0.10938-0.21875 0-0.0625 0-0.10938-0.046875-0.15625-0.03125-0.03125-0.09375-0.015625-0.14062-0.015625h-5.5938c-0.078125 0-0.21875-0.03125-0.28125 0.03125-0.03125 0.046875-0.03125 0.09375-0.03125 0.14062s-0.015625 0.10938 0.015625 0.15625c0.03125 0.0625 0.078125 0.0625 0.14062 0.0625h0.21875zm0.125 0.65625c-0.015625-0.1875 0.046875-0.39062 0.17188-0.51562 0.046875-0.0625 0.10938-0.10938 0.15625-0.125s0.09375-0.015625 0.14062-0.015625h0.25c0.09375 0 0.21875-0.015625 0.3125 0.015625 0.1875 0.09375 0.29688 0.3125 0.32812 0.5 0.015625 0.20312-0.0625 0.39062-0.1875 0.53125-0.046875 0.046875-0.09375 0.10938-0.15625 0.125-0.046875 0.015625-0.09375 0.015625-0.14062 0.015625h-0.23438c-0.10938 0-0.23438 0.015625-0.32812-0.03125-0.17188-0.09375-0.28125-0.3125-0.3125-0.5z"/>
</g>
</defs>
<g transform="translate(-149.54 -131.27)">
<use x="148.71201" y="134.765" xlink:href="#a"/>
</g>
</svg>
