<?xml version="1.0" encoding="UTF-8"?>
<svg fill="#000000" version="1.1" viewBox="0 0 7.3281 7.3281" xmlns="http://www.w3.org/2000/svg" xmlns:xlink="http://www.w3.org/1999/xlink">
<defs>
<g id="a">
<path d="m5.875-3.4531c0 0.5-0.1875 0.96875-0.54688 1.3125-0.34375 0.35938-0.82812 0.5625-1.3281 0.5625-0.48438 0-0.96875-0.20312-1.3125-0.5625-0.35938-0.34375-0.54688-0.8125-0.54688-1.3125s0.1875-0.98438 0.54688-1.3438c0.34375-0.34375 0.82812-0.53125 1.3125-0.53125 0.5 0 0.98438 0.1875 1.3281 0.54688 0.35938 0.34375 0.54688 0.82812 0.54688 1.3281zm-1.6719-3.4688c0-0.10938-0.09375-0.20312-0.20312-0.20312s-0.1875 0.09375-0.1875 0.20312v1.1875c-0.46875 0.046875-0.90625 0.23438-1.2656 0.53125l-0.85938-0.84375c-0.03125-0.046875-0.078125-0.0625-0.125-0.0625-0.10938 0-0.20312 0.09375-0.20312 0.20312 0 0.046875 0.015625 0.10938 0.0625 0.14062l0.84375 0.84375c-0.29688 0.35938-0.48438 0.79688-0.53125 1.2656h-1.1875c-0.125 0-0.20312 0.09375-0.20312 0.20312s0.078125 0.1875 0.20312 0.1875h1.1875c0.046875 0.46875 0.23438 0.90625 0.53125 1.2656l-0.84375 0.84375c-0.046875 0.046875-0.0625 0.09375-0.0625 0.14062 0 0.10938 0.09375 0.20312 0.20312 0.20312 0.046875 0 0.09375-0.03125 0.125-0.0625l0.85938-0.84375c0.35938 0.29688 0.79688 0.48438 1.2656 0.51562v1.2031c0 0.10938 0.078125 0.20312 0.1875 0.20312s0.20312-0.09375 0.20312-0.20312v-1.2031c0.46875-0.03125 0.90625-0.21875 1.2656-0.51562l0.84375 0.84375c0.03125 0.03125 0.09375 0.0625 0.14062 0.0625 0.10938 0 0.20312-0.09375 0.20312-0.20312 0-0.046875-0.03125-0.09375-0.0625-0.14062l-0.84375-0.84375c0.29688-0.35938 0.48438-0.79688 0.51562-1.2656h1.2031c0.10938 0 0.20312-0.078125 0.20312-0.1875s-0.09375-0.20312-0.20312-0.20312h-1.2031c-0.03125-0.46875-0.21875-0.90625-0.51562-1.2656l0.84375-0.84375c0.03125-0.03125 0.0625-0.09375 0.0625-0.14062 0-0.10938-0.10938-0.20312-0.20312-0.20312-0.046875 0-0.10938 0.015625-0.14062 0.0625l-0.84375 0.84375c-0.35938-0.29688-0.79688-0.48438-1.2656-0.53125z"/>
</g>
</defs>
<g transform="translate(-149.06 -127.64)">
<use x="148.71201" y="134.765" xlink:href="#a"/>
</g>
</svg>
