<?xml version="1.0" encoding="UTF-8"?>
<svg fill="#000000" version="1.1" viewBox="0 0 5.4688 6.8125" xmlns="http://www.w3.org/2000/svg" xmlns:xlink="http://www.w3.org/1999/xlink">
<defs>
<g id="b">
<path d="m2.6094-3.625-0.10938-0.28125-2.2344 0.8125 0.10938 0.29688z"/>
</g>
<g id="a">
<path d="m5.7969-2.5781h-0.25c-0.10938 1.0156-0.25 2.2656-2 2.2656h-0.8125c-0.46875 0-0.48438-0.0625-0.48438-0.39062v-5.3125c0-0.34375 0-0.48438 0.9375-0.48438h0.32812v-0.3125c-0.35938 0.03125-1.2656 0.03125-1.6719 0.03125-0.39062 0-1.1719 0-1.5156-0.03125v0.3125h0.23438c0.76562 0 0.79688 0.10938 0.79688 0.46875v5.25c0 0.35938-0.03125 0.46875-0.79688 0.46875h-0.23438v0.3125h5.1875z"/>
</g>
</defs>
<g transform="translate(-149.04 -127.95)">
<use x="149.127" y="134.765" xlink:href="#b"/>
<use x="148.71654" y="134.765" xlink:href="#a"/>
</g>
</svg>
