<?xml version="1.0" encoding="UTF-8"?>
<svg fill="#000000" version="1.1" viewBox="0 0 5.5469 7.1406" xmlns="http://www.w3.org/2000/svg" xmlns:xlink="http://www.w3.org/1999/xlink">
<defs>
<g id="a">
<path d="m5.5-6.5469c0.046875-0.10938 0.046875-0.125 0.046875-0.17188 0-0.09375-0.078125-0.20312-0.20312-0.20312s-0.1875 0.125-0.23438 0.23438l-0.82812 2.1875h-3.0312l-0.82812-2.1875c-0.046875-0.14062-0.09375-0.23438-0.21875-0.23438-0.10938 0-0.20312 0.10938-0.20312 0.20312 0 0.015625 0 0.046875 0.0625 0.17188l2.4844 6.5312c0.046875 0.14062 0.09375 0.23438 0.21875 0.23438 0.14062 0 0.1875-0.10938 0.21875-0.20312zm-4.0781 2.4531h2.7031l-1.3594 3.5469z"/>
</g>
</defs>
<g transform="translate(-148.71 -127.84)">
<use x="148.71201" y="134.765" xlink:href="#a"/>
</g>
</svg>
