<?xml version="1.0" encoding="UTF-8"?>
<svg fill="#000000" version="1.1" viewBox="0 0 6.5156 6.5156" xmlns="http://www.w3.org/2000/svg" xmlns:xlink="http://www.w3.org/1999/xlink">
<defs>
<g id="a">
<path d="m5.6562-6.0781c0 0.0625 0.015625 0.10938 0.0625 0.15625l0.84375 0.84375-4.8906 4.9062c-0.03125 0.03125-0.0625 0.09375-0.0625 0.15625 0 0.10938 0.078125 0.21875 0.21875 0.21875 0.0625 0 0.125-0.015625 0.17188-0.0625l4.8906-4.8906 0.84375 0.85938c0.046875 0.03125 0.09375 0.046875 0.15625 0.046875 0.125 0 0.23438-0.078125 0.23438-0.21875 0-0.0625-0.015625-0.10938-0.0625-0.17188l-2.0156-2c-0.046875-0.0625-0.10938-0.078125-0.17188-0.078125-0.10938 0-0.21875 0.09375-0.21875 0.23438z"/>
</g>
</defs>
<g transform="translate(-150.32 -128.45)">
<use x="148.71201" y="134.765" xlink:href="#a"/>
</g>
</svg>
