<?xml version="1.0" encoding="UTF-8"?>
<svg fill="#000000" version="1.1" viewBox="0 0 6.2188 6.9219" xmlns="http://www.w3.org/2000/svg" xmlns:xlink="http://www.w3.org/1999/xlink">
<defs>
<g id="a">
<path d="m8.4688-2.4688c0-0.046875-0.03125-0.10938-0.078125-0.15625l-3.5312-3.5312c-0.046875-0.046875-0.09375-0.0625-0.15625-0.0625-0.125 0-0.23438 0.078125-0.23438 0.23438 0 0.046875 0.03125 0.10938 0.0625 0.15625l0.98438 0.96875-1.125 1.125-0.90625-1.9688c-0.046875-0.078125-0.14062-0.10938-0.20312-0.078125-0.078125 0.046875-0.10938 0.125-0.078125 0.20312l0.96875 2.0625-1.875 1.8594c-0.03125 0.046875-0.046875 0.09375-0.046875 0.15625 0 0.125 0.078125 0.23438 0.21875 0.23438 0.0625 0 0.10938-0.015625 0.15625-0.0625l1.75-1.75 0.59375 1.2812-1.4062 1.3906c-0.046875 0.0625-0.0625 0.10938-0.0625 0.17188 0 0.125 0.09375 0.23438 0.23438 0.23438 0.046875 0 0.10938-0.03125 0.15625-0.0625l1.2812-1.2969 0.92188 1.9688c0.03125 0.0625 0.078125 0.09375 0.14062 0.09375 0.09375 0 0.17188-0.10938 0.125-0.21875l-0.95312-2.0625 1.6875-1.7031 0.96875 0.98438c0.046875 0.03125 0.10938 0.0625 0.17188 0.0625 0.125 0 0.23438-0.09375 0.23438-0.23438zm-3.875-0.82812 1.2344-1.2344 0.9375 0.9375-1.5781 1.5625z"/>
</g>
</defs>
<g transform="translate(-150.96 -128.55)">
<use x="148.71201" y="134.765" xlink:href="#a"/>
</g>
</svg>
