<?xml version="1.0" encoding="UTF-8"?>
<svg fill="#000000" version="1.1" viewBox="0 0 5.4531 4.7812" xmlns="http://www.w3.org/2000/svg" xmlns:xlink="http://www.w3.org/1999/xlink">
<defs>
<g id="a">
<path d="m0.51562-0.26562 1.3594-1.1562v1.0469c0 0.10938 0.09375 0.21875 0.23438 0.21875 0.125 0 0.21875-0.10938 0.21875-0.21875v-1.4219l1.3281-1.1094v2.5312c0 0.10938 0.10938 0.21875 0.23438 0.21875s0.21875-0.10938 0.21875-0.21875v-2.9219l1.5625-1.2969c0.03125-0.03125 0.046875-0.078125 0.046875-0.125 0-0.03125 0-0.0625-0.03125-0.09375-0.0625-0.0625-0.14062-0.0625-0.20312-0.015625l-1.375 1.1562v-1.0469c0-0.10938-0.09375-0.21875-0.21875-0.21875s-0.23438 0.10938-0.23438 0.21875v1.4219l-1.3281 1.1094v-2.5312c0-0.10938-0.09375-0.21875-0.21875-0.21875-0.14062 0-0.23438 0.10938-0.23438 0.21875v2.9219l-1.5625 1.2969c-0.015625 0.03125-0.046875 0.078125-0.046875 0.125 0 0.078125 0.078125 0.14062 0.15625 0.14062 0.03125 0 0.0625-0.015625 0.09375-0.03125z"/>
</g>
</defs>
<g transform="translate(-148.98 -129.83)">
<use x="148.71201" y="134.765" xlink:href="#a"/>
</g>
</svg>
