<?xml version="1.0" encoding="UTF-8"?>
<svg fill="#000000" version="1.1" viewBox="0 0 6.6562 6.6406" xmlns="http://www.w3.org/2000/svg" xmlns:xlink="http://www.w3.org/1999/xlink">
<defs>
<g id="a">
<path d="m7.2031-2.5c0-1.8281-1.5-3.3125-3.3281-3.3125-1.8438 0-3.3281 1.5-3.3281 3.3125 0 1.8438 1.5 3.3281 3.3281 3.3281 1.8438 0 3.3281-1.5 3.3281-3.3281zm-5.5 1.9844c-0.078125 0.078125-0.078125 0.09375-0.09375 0.09375-0.03125 0-0.8125-0.79688-0.8125-2.0781 0-1.7031 1.3906-3.0625 3.0781-3.0625 0.34375 0 1.2656 0.046875 2.0781 0.8125zm4.4219-4.0625c0.48438 0.51562 0.82812 1.2656 0.82812 2.0781 0 1.7188-1.4062 3.0781-3.0781 3.0781-0.34375 0-1.2656-0.046875-2.0781-0.8125z"/>
</g>
</defs>
<g transform="translate(-149.26 -128.95)">
<use x="148.71201" y="134.765" xlink:href="#a"/>
</g>
</svg>
