<?xml version="1.0" encoding="UTF-8"?>
<svg fill="#000000" width="6.2344" height="6.2188" version="1.1" viewBox="0 0 6.2344 6.2187" xmlns="http://www.w3.org/2000/svg" xmlns:xlink="http://www.w3.org/1999/xlink">
<defs>
<g id="a">
<path d="m1.0625-1.5781v-3.8594c0-0.125-0.10938-0.21875-0.23438-0.21875s-0.23438 0.09375-0.23438 0.21875v3.8594c0 1.3281 1.4062 2.1406 3.125 2.1406 1.4688 0 3.1094-0.65625 3.1094-2.1406v-3.8594c0-0.125-0.09375-0.21875-0.23438-0.21875-0.10938 0-0.21875 0.09375-0.21875 0.21875v3.8594c0 1.0625-1.2344 1.6875-2.6562 1.6875s-2.6562-0.625-2.6562-1.6875zm1.6719-1.1406v-2.7188c0-0.125-0.09375-0.21875-0.21875-0.21875-0.14062 0-0.23438 0.09375-0.23438 0.21875v2.7188c0 0.82812 0.59375 1.6094 1.4375 1.6094s1.4219-0.78125 1.4219-1.6094v-2.7188c0-0.125-0.09375-0.21875-0.21875-0.21875s-0.23438 0.09375-0.23438 0.21875v2.7188c0 0.64062-0.4375 1.1406-0.96875 1.1406-0.54688 0-0.98438-0.5-0.98438-1.1406z"/>
</g>
</defs>
<g transform="translate(-149.31 -129.11)">
<use x="148.71201" y="134.765" xlink:href="#a"/>
</g>
</svg>
