<?xml version="1.0" encoding="UTF-8"?>
<svg fill="#000000" version="1.1" viewBox="0 0 7.0625 12.016" xmlns="http://www.w3.org/2000/svg" xmlns:xlink="http://www.w3.org/1999/xlink">
<defs>
<g id="a">
<path d="m5.0625-8.7031c-0.14062-0.046875-0.3125-0.046875-0.46875-0.046875-1.1562 0.03125-2.0312 1.0469-2.0312 2.2344v7.5156c0 0.78125-0.375 1.5625-1.0938 1.5625h-0.46875l0.09375 0.70312h0.046875c1.2656 0 2.2812-1.0156 2.2812-2.2656v-7.5156c0-0.76562 0.3125-1.5469 0.98438-1.5469 0.15625 0 0.32812 0.015625 0.48438 0.046875zm3 0.015625c-0.17188-0.046875-0.3125-0.0625-0.46875-0.0625-1.1562 0.03125-2.0469 1.0469-2.0469 2.2344v7.5156c0 0.78125-0.375 1.5625-1.0781 1.5625h-0.48438l0.10938 0.70312h0.046875c1.25 0 2.2656-1.0156 2.2656-2.2656v-7.5156c0-0.76562 0.3125-1.5469 0.98438-1.5469 0.17188 0 0.32812 0.015625 0.48438 0.046875z"/>
</g>
</defs>
<g transform="translate(-149.71 -126.02)">
<use x="148.71201" y="134.765" xlink:href="#a"/>
</g>
</svg>
