<?xml version="1.0" encoding="UTF-8"?>
<svg fill="#000000" version="1.1" viewBox="0 0 5.7344 10.922" xmlns="http://www.w3.org/2000/svg" xmlns:xlink="http://www.w3.org/1999/xlink">
<defs>
<g id="a">
<path d="m6-9.6094c0-0.34375-0.67188-0.5-0.95312-0.5-1.2344 0-1.5781 1.5-1.8125 2.8281l-0.10938 0.60938c-1.0938 0-2.0156 0.89062-2.0156 2.0156 0 1 0.67188 1.6719 1.3281 1.9219l-0.14062 0.70312c-0.10938 0.70312-0.39062 2.4219-1.0625 2.4219-0.125 0-0.25-0.046875-0.35938-0.14062-0.03125-0.1875-0.17188-0.25-0.29688-0.25-0.15625 0-0.3125 0.14062-0.3125 0.3125 0 0.078125 0.046875 0.15625 0.09375 0.20312 0.26562 0.1875 0.5625 0.29688 0.85938 0.29688 1.25 0 1.5938-1.5 1.8281-2.8438l0.10938-0.59375c0.98438 0 1.6562-0.67188 1.8906-1.3281 0.09375 0.14062 0.17188 0.29688 0.29688 0.4375 0.0625 0.09375 0.1875 0.09375 0.26562 0.03125 0.078125-0.078125 0.09375-0.1875 0.015625-0.28125-0.21875-0.26562-0.46875-0.625-0.46875-1.0469 0-0.09375-0.0625-0.17188-0.15625-0.1875h-0.046875c-0.25 0-0.03125 0.42188-0.96875 0.95312-0.09375 0.046875-0.10938 0.17188-0.0625 0.26562 0.03125 0.0625 0.078125 0.09375 0.14062 0.09375 0.17188 0 0.39062-0.23438 0.625-0.40625-0.1875 0.53125-0.70312 1.0469-1.4844 1.0938l0.57812-3.1719c0.39062 0.15625 0.6875 0.45312 0.85938 0.8125 0.03125 0.10938 0.15625 0.14062 0.25 0.10938 0.09375-0.046875 0.14062-0.15625 0.078125-0.26562-0.20312-0.45312-0.59375-0.84375-1.125-1.0469l0.125-0.71875c0.125-0.6875 0.39062-2.4062 1.0781-2.4062 0.125 0 0.25 0.046875 0.34375 0.125 0.03125 0.1875 0.1875 0.26562 0.29688 0.26562 0.17188 0 0.3125-0.14062 0.3125-0.3125zm-2.9375 3.3125-0.5625 3.1719c-0.45312-0.1875-1.0156-0.71875-1.0156-1.5312 0-0.9375 0.75-1.6094 1.5781-1.6406z"/>
</g>
</defs>
<g transform="translate(-148.98 -126.76)">
<use x="148.71201" y="136.868" xlink:href="#a"/>
</g>
</svg>
