<?xml version="1.0" encoding="UTF-8"?>
<svg fill="#000000" version="1.1" viewBox="0 0 5.3438 5.3281" xmlns="http://www.w3.org/2000/svg" xmlns:xlink="http://www.w3.org/1999/xlink">
<defs>
<g id="a">
<path d="m7.2344-2.6094c-0.0625 0-0.125 0.03125-0.17188 0.0625l-1.3438 1.3594-3.2188-3.2031c-0.03125-0.046875-0.09375-0.0625-0.15625-0.0625-0.125 0-0.23438 0.078125-0.23438 0.21875 0 0.0625 0.03125 0.125 0.078125 0.17188l3.2031 3.1875-1.3594 1.3594c-0.046875 0.046875-0.0625 0.10938-0.0625 0.15625 0 0.125 0.09375 0.23438 0.23438 0.23438 0.046875 0 0.10938-0.015625 0.15625-0.0625l3.0312-3.0312c0.03125-0.046875 0.0625-0.09375 0.0625-0.15625 0-0.125-0.09375-0.23438-0.21875-0.23438z"/>
</g>
</defs>
<g transform="translate(-150.82 -130.31)">
<use x="148.71201" y="134.765" xlink:href="#a"/>
</g>
</svg>
