<?xml version="1.0" encoding="UTF-8"?>
<svg fill="#000000" version="1.1" viewBox="0 0 6.3767 6.6429" xmlns="http://www.w3.org/2000/svg" xmlns:xlink="http://www.w3.org/1999/xlink">
<defs>
<g id="a">
<path d="m0.90625-5.8125c-0.0625 0.015625-0.078125 0.078125-0.078125 0.14062v0.23438 6.0625c0 0.046875 0 0.09375 0.015625 0.125 0.046875 0.078125 0.14062 0.0625 0.20312 0.0625h0.09375c0.0625-0.015625 0.078125-0.0625 0.078125-0.10938 0.015625-0.078125 0-0.17188 0-0.25v-6.0938c0-0.046875 0-0.078125-0.015625-0.125-0.03125-0.0625-0.125-0.0625-0.20312-0.0625-0.015625 0-0.0625 0-0.09375 0.015625zm1.8906 3.5156h4.1562c0.09375 0 0.21875 0.015625 0.25-0.10938 0-0.078125 0.015625-0.21875-0.046875-0.26562s-0.1875-0.03125-0.26562-0.03125h-4.0938v-2.875c0-0.046875 0.015625-0.125 0-0.17188-0.046875-0.09375-0.15625-0.078125-0.23438-0.078125-0.046875 0-0.09375 0-0.125 0.046875s-0.03125 0.09375-0.03125 0.14062v0.26562 5.8125 0.20312c0 0.0625 0 0.10938 0.03125 0.14062 0.046875 0.03125 0.09375 0.03125 0.14062 0.03125 0.09375 0 0.20312 0.015625 0.21875-0.10938 0.015625-0.0625 0-0.125 0-0.1875z"/>
</g>
</defs>
<g transform="translate(-149.54 -128.94)">
<use x="148.71201" y="134.765" xlink:href="#a"/>
</g>
</svg>
