<?xml version="1.0" encoding="UTF-8"?>
<svg fill="#000000" version="1.1" viewBox="0 0 4.7969 5.5156" xmlns="http://www.w3.org/2000/svg" xmlns:xlink="http://www.w3.org/1999/xlink">
<defs>
<g id="a">
<path d="m3.7344-5.5-0.6875 2.5469c-0.25 0.21875-0.53125 0.375-0.85938 0.375-0.35938 0-0.64062-0.26562-0.90625-0.54688l-0.39062 0.39062c0.39062 0.375 0.78125 0.79688 1.3125 0.79688 0.20312 0 0.42188-0.046875 0.60938-0.125l-0.51562 1.9219 0.54688 0.15625 0.6875-2.5469c0.25-0.20312 0.53125-0.375 0.85938-0.375 0.35938 0 0.64062 0.28125 0.90625 0.54688l0.39062-0.375c-0.39062-0.39062-0.76562-0.79688-1.3125-0.79688-0.20312 0-0.42188 0.03125-0.60938 0.10938l0.51562-1.9219z"/>
</g>
</defs>
<g transform="translate(-149.6 -129.26)">
<use x="148.71201" y="134.765" xlink:href="#a"/>
</g>
</svg>
