<?xml version="1.0" encoding="UTF-8"?>
<svg fill="#000000" version="1.1" viewBox="0 0 6.0938 11.016" xmlns="http://www.w3.org/2000/svg" xmlns:xlink="http://www.w3.org/1999/xlink">
<defs>
<g id="a">
<path d="m6.7031-3.2344c0.14062-0.0625 0.21875-0.09375 0.21875-0.21875 0-0.10938-0.09375-0.17188-0.1875-0.21875l-1.9062-0.89062 1.1406-3.0781c0.046875-0.125 0.046875-0.15625 0.046875-0.17188 0-0.10938-0.10938-0.1875-0.20312-0.1875-0.14062 0-0.15625 0.078125-0.21875 0.21875l-1.125 3.0469-3.2344-1.5312c-0.0625-0.03125-0.14062-0.078125-0.20312-0.078125-0.20312 0-0.20312 0.1875-0.20312 0.35938v5.0625c0 0.15625 0 0.35938 0.20312 0.35938 0.03125 0 0.0625-0.015625 0.15625-0.0625l2.1562-1.0156-0.9375 2.6094h-1.2344c-0.17188 0-0.34375 0-0.34375 0.20312 0 0.1875 0.20312 0.1875 0.375 0.1875h1.0469c-0.14062 0.42188-0.21875 0.60938-0.25 0.71875-0.09375 0.25-0.26562 0.70312-0.26562 0.75 0 0.10938 0.09375 0.1875 0.20312 0.1875 0.14062 0 0.17188-0.09375 0.21875-0.23438l0.53125-1.4219h3.8594c0.17188 0 0.375 0 0.375-0.1875 0-0.20312-0.17188-0.20312-0.35938-0.20312h-3.7344l1.0469-2.8594zm-0.45312-0.21875-2.1875 1.0312 0.64062-1.7656zm-5.0312 2.3594v-4.7344l3.125 1.4688-0.79688 2.1719z"/>
</g>
</defs>
<g transform="translate(-149.54 -126.76)">
<use x="148.71201" y="134.765" xlink:href="#a"/>
</g>
</svg>
