<?xml version="1.0" encoding="UTF-8"?>
<svg fill="#000000" version="1.1" viewBox="0 0 5.3906 4.4062" xmlns="http://www.w3.org/2000/svg" xmlns:xlink="http://www.w3.org/1999/xlink">
<defs>
<g id="a">
<path d="m2.6406-3.7188h1.125c-0.32812 1.4688-0.42188 1.9062-0.42188 2.5781 0 0.14062 0 0.40625 0.078125 0.75 0.10938 0.4375 0.21875 0.5 0.35938 0.5 0.20312 0 0.42188-0.17188 0.42188-0.375 0-0.0625 0-0.078125-0.0625-0.21875-0.29688-0.71875-0.29688-1.375-0.29688-1.6562 0-0.51562 0.078125-1.0625 0.1875-1.5781h1.125c0.14062 0 0.5 0 0.5-0.34375 0-0.23438-0.21875-0.23438-0.40625-0.23438h-3.3438c-0.21875 0-0.59375 0-1.0312 0.46875-0.34375 0.39062-0.60938 0.84375-0.60938 0.89062 0 0.015625 0 0.10938 0.125 0.10938 0.078125 0 0.09375-0.046875 0.15625-0.125 0.48438-0.76562 1.0625-0.76562 1.2656-0.76562h0.5625c-0.3125 1.2031-0.84375 2.4062-1.2656 3.3125-0.078125 0.15625-0.078125 0.17188-0.078125 0.25 0 0.1875 0.15625 0.26562 0.28125 0.26562 0.29688 0 0.375-0.28125 0.5-0.64062 0.14062-0.46875 0.14062-0.48438 0.26562-0.98438z"/>
</g>
</defs>
<g transform="translate(-148.98 -130.47)">
<use x="148.71201" y="134.765" xlink:href="#a"/>
</g>
</svg>
