<?xml version="1.0" encoding="UTF-8"?>
<svg fill="#000000" version="1.1" viewBox="0 0 7.0625 8.3594" xmlns="http://www.w3.org/2000/svg" xmlns:xlink="http://www.w3.org/1999/xlink">
<defs>
<g id="a">
<path d="m0.8125 0.85938h7.0625v-0.40625c-0.42188 0-0.76562-0.35938-0.76562-0.79688v-5.9688c0-0.42188 0.34375-0.78125 0.76562-0.78125v-0.40625h-2.3594v0.40625c0.42188 0 0.76562 0.35938 0.76562 0.78125v6.1719c0 0.21875-0.1875 0.40625-0.40625 0.40625h-3.0625c-0.21875 0-0.40625-0.1875-0.40625-0.40625v-6.1719c0-0.42188 0.34375-0.78125 0.78125-0.78125v-0.40625h-2.375v0.40625c0.4375 0 0.76562 0.35938 0.76562 0.78125v5.9688c0 0.4375-0.32812 0.79688-0.76562 0.79688z"/>
</g>
</defs>
<g transform="translate(-149.52 -128.04)">
<use x="148.71201" y="135.53999" xlink:href="#a"/>
</g>
</svg>
