<?xml version="1.0" encoding="UTF-8"?>
<svg fill="#000000" version="1.1" viewBox="0 0 4.9531 7.1406" xmlns="http://www.w3.org/2000/svg" xmlns:xlink="http://www.w3.org/1999/xlink">
<defs>
<g id="a">
<path d="m5.4531-6.7344c0.0625-0.14062 0.0625-0.1875 0.0625-0.20312 0-0.10938-0.078125-0.20312-0.1875-0.20312-0.14062 0-0.17188 0.078125-0.21875 0.20312l-2.0625 4.3438-2.0625-4.3594c-0.0625-0.10938-0.10938-0.1875-0.23438-0.1875-0.10938 0-0.1875 0.09375-0.1875 0.20312 0 0.0625 0.03125 0.125 0.0625 0.17188l2.2031 4.6406c0.046875 0.09375 0.09375 0.1875 0.21875 0.1875s0.15625-0.09375 0.21875-0.20312zm-4.5312 6.3281c-0.17188 0-0.35938 0-0.35938 0.20312s0.1875 0.20312 0.35938 0.20312h4.25c0.17188 0 0.34375 0 0.34375-0.20312s-0.17188-0.20312-0.34375-0.20312z"/>
</g>
</defs>
<g transform="translate(-149.27 -127.62)">
<use x="148.71201" y="134.765" xlink:href="#a"/>
</g>
</svg>
