<?xml version="1.0" encoding="UTF-8"?>
<svg fill="#000000" version="1.1" viewBox="0 0 6.0938 9.2344" xmlns="http://www.w3.org/2000/svg" xmlns:xlink="http://www.w3.org/1999/xlink">
<defs>
<g id="a">
<path d="m6.7344-7.0938c0.10938-0.046875 0.1875-0.10938 0.1875-0.21875s-0.09375-0.1875-0.20312-0.1875c-0.046875 0-0.14062 0.03125-0.17188 0.046875l-5.5156 2.6094c-0.17188 0.078125-0.20312 0.15625-0.20312 0.23438s0.046875 0.14062 0.20312 0.21875l5.5156 2.5938c0.125 0.0625 0.14062 0.0625 0.17188 0.0625 0.10938 0 0.20312-0.09375 0.20312-0.20312 0-0.125-0.09375-0.17188-0.20312-0.21875l-5.2188-2.4531zm-0.17188 8.8281c0.17188 0 0.35938 0 0.35938-0.20312s-0.1875-0.20312-0.35938-0.20312h-5.375c-0.17188 0-0.35938 0-0.35938 0.20312s0.17188 0.20312 0.34375 0.20312zm0-1.9375c0.17188 0 0.35938 0 0.35938-0.20312 0-0.1875-0.1875-0.1875-0.35938-0.1875h-5.375c-0.17188 0-0.35938 0-0.35938 0.1875 0 0.20312 0.17188 0.20312 0.34375 0.20312z"/>
</g>
</defs>
<g transform="translate(-149.54 -127.26)">
<use x="148.71201" y="134.765" xlink:href="#a"/>
</g>
</svg>
