<?xml version="1.0" encoding="UTF-8"?>
<svg fill="#000000" version="1.1" viewBox="0 0 6.1875 6.4375" xmlns="http://www.w3.org/2000/svg" xmlns:xlink="http://www.w3.org/1999/xlink">
<defs>
<g id="a">
<path d="m6.5469 0-3.2344-3.2188c0.15625-0.15625 0.3125-0.29688 0.48438-0.42188l-0.39062-0.53125c-0.20312 0.15625-0.39062 0.3125-0.5625 0.48438l-0.89062-0.90625c-0.0625-0.078125-0.09375-0.125-0.09375-0.1875 0-0.17188 0.1875-0.25 0.35938-0.25 0.42188 0 0.57812-0.015625 0.96875-0.09375v-0.26562c-0.29688 0.015625-0.5625 0.03125-0.8125 0.03125-0.65625 0-1.2656-0.078125-1.9531-0.35938l-0.0625 0.0625c0.28125 0.67188 0.375 1.2656 0.375 1.8906 0 0.28125-0.03125 0.53125-0.046875 0.84375l0.28125 0.015625c0.09375-0.39062 0.09375-0.60938 0.09375-0.98438 0-0.17188 0.03125-0.3125 0.21875-0.3125 0.046875 0 0.125 0 0.21875 0.09375l0.92188 0.92188c-0.5625 0.71875-0.9375 1.5781-1.0625 2.5312h-1v0.65625h0.96875c0 0.23438 0 0.48438 0.046875 0.71875l0.65625-0.09375c-0.03125-0.20312-0.046875-0.42188-0.046875-0.625zm-1.5938-0.65625h-2.9219c0.10938-0.76562 0.40625-1.4688 0.85938-2.0625z"/>
</g>
</defs>
<g transform="translate(-149.07 -129.05)">
<use x="148.71201" y="134.765" xlink:href="#a"/>
</g>
</svg>
