<?xml version="1.0" encoding="UTF-8"?>
<svg fill="#000000" version="1.1" viewBox="0 0 1.7266 8.857" xmlns="http://www.w3.org/2000/svg" xmlns:xlink="http://www.w3.org/1999/xlink">
<defs>
<g id="a">
<path d="m2.6875-5.4688c0.17188 0.17188 0.34375 0.3125 0.51562 0.46875 0.14062 0.10938 0.28125 0.21875 0.4375 0.32812 0.0625 0.0625 0.14062 0.125 0.21875 0.15625 0.0625 0.03125 0.125 0.015625 0.14062-0.046875 0.03125-0.078125 0.03125-0.21875 0-0.26562-0.03125-0.078125-0.10938-0.125-0.15625-0.1875-0.078125-0.10938-0.17188-0.21875-0.26562-0.32812-0.26562-0.34375-0.51562-0.70312-0.73438-1.0625-0.0625-0.10938-0.125-0.21875-0.17188-0.3125-0.03125-0.0625-0.0625-0.125-0.09375-0.17188-0.0625-0.046875-0.15625-0.046875-0.21875-0.03125-0.0625 0.03125-0.0625 0.09375-0.0625 0.15625v0.35938 7.8906 0.28125c0 0.046875 0 0.10938 0.046875 0.14062 0.03125 0.015625 0.09375 0.015625 0.125 0.015625 0.046875 0 0.125 0.015625 0.17188-0.015625 0.046875-0.046875 0.046875-0.10938 0.046875-0.15625v-0.3125z"/>
</g>
</defs>
<g transform="translate(-151.01 -127.83)">
<use x="148.71201" y="134.765" xlink:href="#a"/>
</g>
</svg>
