<?xml version="1.0" encoding="UTF-8"?>
<svg fill="#000000" version="1.1" viewBox="0 0 5.8906 12.672" xmlns="http://www.w3.org/2000/svg" xmlns:xlink="http://www.w3.org/1999/xlink">
<defs>
<g id="a">
<path d="m6.4844-8.4062c0.14062-0.046875 0.23438-0.09375 0.23438-0.23438 0-0.10938-0.09375-0.1875-0.20312-0.1875-0.015625 0-0.03125 0-0.17188 0.0625l-5.2812 2c-0.17188 0.0625-0.23438 0.10938-0.23438 0.23438 0 0.14062 0.10938 0.1875 0.20312 0.21875l5.2969 2.0312c0.14062 0.046875 0.15625 0.046875 0.1875 0.046875 0.10938 0 0.20312-0.078125 0.20312-0.1875 0-0.14062-0.09375-0.1875-0.20312-0.21875l-4.9375-1.8906zm0 10.188c0.14062-0.0625 0.23438-0.10938 0.23438-0.23438 0-0.14062-0.125-0.1875-0.20312-0.21875l-5.3125-2.0312c-0.14062-0.046875-0.15625-0.046875-0.17188-0.046875-0.10938 0-0.20312 0.078125-0.20312 0.1875 0 0.14062 0.10938 0.1875 0.20312 0.21875l4.9375 1.8906-4.9062 1.875c-0.125 0.046875-0.23438 0.09375-0.23438 0.23438 0 0.10938 0.09375 0.1875 0.20312 0.1875 0.03125 0 0.046875 0 0.1875-0.0625zm-0.10938-4.0781c0.17188 0 0.34375 0 0.34375-0.20312 0-0.1875-0.1875-0.1875-0.35938-0.1875h-5.1719c-0.17188 0-0.35938 0-0.35938 0.1875 0 0.20312 0.17188 0.20312 0.34375 0.20312z"/>
</g>
</defs>
<g transform="translate(-149.54 -125.94)">
<use x="148.71201" y="134.765" xlink:href="#a"/>
</g>
</svg>
