<?xml version="1.0" encoding="UTF-8"?>
<svg fill="#000000" version="1.1" viewBox="0 0 7.5312 7.5312" xmlns="http://www.w3.org/2000/svg" xmlns:xlink="http://www.w3.org/1999/xlink">
<defs>
<g id="a">
<path d="m7.4219 0.125-4.4219-4.4062c0-0.15625-0.015625-0.3125-0.015625-0.46875s0.015625-0.3125 0.03125-0.46875c0.14062 0 0.29688-0.015625 0.45312-0.015625s0.3125 0.015625 0.46875 0.015625l4.4219 4.4062v0.46875c0 0.15625 0 0.3125-0.015625 0.46875-0.15625 0-0.3125 0.015625-0.45312 0.015625-0.17188 0-0.32812-0.015625-0.46875-0.015625zm2.0156 0.85938c0-0.25-0.6875-0.6875-0.6875-2.5312 0-0.45312 0.03125-0.67188 0.03125-0.75 0-0.10938-0.09375-0.21875-0.23438-0.21875-0.23438 0-0.25 0.26562-0.25 0.54688v0.125c0 0.125 0.015625 0.23438 0.015625 0.34375l-3.6875-3.6875h0.34375 0.14062c0.29688 0 0.54688 0 0.54688-0.23438 0-0.14062-0.10938-0.23438-0.23438-0.23438-0.078125 0-0.29688 0.03125-0.75 0.03125-0.85938 0-1.7031-0.15625-2.4062-0.64062-0.03125-0.03125-0.078125-0.046875-0.125-0.046875-0.14062 0-0.23438 0.10938-0.23438 0.23438 0 0.25 0.70312 0.6875 0.70312 2.5312 0 0.45312-0.03125 0.67188-0.03125 0.75 0 0.10938 0.078125 0.21875 0.21875 0.21875 0.21875 0 0.25-0.21875 0.25-0.5v-0.17188-0.34375l3.6875 3.6875h-0.35938-0.14062c-0.29688 0-0.53125 0-0.53125 0.23438 0 0.14062 0.10938 0.23438 0.23438 0.23438 0.078125 0 0.29688-0.03125 0.73438-0.03125 0.85938 0 1.7188 0.15625 2.4062 0.64062 0.046875 0.03125 0.09375 0.046875 0.14062 0.046875 0.125 0 0.21875-0.10938 0.21875-0.23438z"/>
</g>
</defs>
<g transform="translate(-150.62 -128.45)">
<use x="148.71201" y="134.765" xlink:href="#a"/>
</g>
</svg>
