<?xml version="1.0" encoding="UTF-8"?>
<svg fill="#000000" version="1.1" viewBox="0 0 3.0312 8.4375" xmlns="http://www.w3.org/2000/svg" xmlns:xlink="http://www.w3.org/1999/xlink">
<defs>
<g id="a">
<path d="m2.2031-4.0625c0-0.21875-0.3125-1.0781-0.40625-1.4375 0.82812 0.71875 1.3438 1.7969 1.3438 2.9531s-0.51562 2.2344-1.3438 2.9531c0.09375-0.35938 0.40625-1.2188 0.40625-1.4375 0-0.125-0.09375-0.23438-0.23438-0.23438-0.10938 0-0.20312 0.078125-0.21875 0.20312-0.34375 1.9219-1.1562 2.0469-1.1562 2.3438 0 0.03125 0.015625 0.0625 0.03125 0.10938 0.046875 0.078125 0.10938 0.10938 0.1875 0.10938 0.15625 0 0.40625-0.15625 0.96875-0.15625 0.78125 0 1.5312 0.32812 1.625 0.32812 0.10938 0 0.21875-0.09375 0.21875-0.23438 0-0.09375-0.0625-0.1875-0.14062-0.21875-0.5-0.17188-1.0156-0.23438-1.5156-0.375 1.0156-0.8125 1.625-2.0469 1.625-3.3906s-0.60938-2.5781-1.625-3.3906c0.95312-0.26562 1.6562-0.25 1.6562-0.59375 0-0.14062-0.10938-0.23438-0.21875-0.23438-0.14062 0-0.79688 0.32812-1.625 0.32812-0.29688 0-0.57812-0.046875-0.875-0.14062-0.03125-0.015625-0.0625-0.015625-0.078125-0.015625-0.125 0-0.23438 0.10938-0.23438 0.21875 0 0.29688 0.8125 0.40625 1.1562 2.3438 0.015625 0.125 0.10938 0.20312 0.21875 0.20312 0.14062 0 0.23438-0.10938 0.23438-0.23438z"/>
</g>
</defs>
<g transform="translate(-149.31 -128)">
<use x="148.71201" y="134.765" xlink:href="#a"/>
</g>
</svg>
