<?xml version="1.0" encoding="UTF-8"?>
<svg fill="#000000" version="1.1" viewBox="0 0 5.7969 5.8125" xmlns="http://www.w3.org/2000/svg" xmlns:xlink="http://www.w3.org/1999/xlink">
<defs>
<g id="a">
<path d="m4.0469-4.6094c0-0.35938-0.3125-0.625-0.625-0.625-0.32812 0-0.64062 0.25-0.64062 0.625 0 0.39062 0.26562 0.64062 0.64062 0.64062s0.625-0.29688 0.625-0.64062zm2.2656 4.5312-2.0781-2.1094h2.0781v-0.65625h-2.1094l2.1094-2.125-0.45312-0.46875-2.4375 2.4531-2.4531-2.4531-0.45312 0.46875 2.1094 2.125h-2.1094v0.65625h2.0938l-2.0938 2.1094 0.45312 0.45312 2.4531-2.4219 2.4375 2.4219zm-2.2656-0.375c0-0.40625-0.28125-0.625-0.64062-0.625-0.32812 0-0.625 0.23438-0.625 0.625 0 0.34375 0.29688 0.64062 0.625 0.64062 0.35938 0 0.64062-0.29688 0.64062-0.64062z"/>
</g>
</defs>
<g transform="translate(-149.23 -129.33)">
<use x="148.71201" y="134.765" xlink:href="#a"/>
</g>
</svg>
