<?xml version="1.0" encoding="UTF-8"?>
<svg fill="#000000" version="1.1" viewBox="0 0 4.4946 6.3407" xmlns="http://www.w3.org/2000/svg" xmlns:xlink="http://www.w3.org/1999/xlink">
<defs>
<g id="a">
<path d="m3.8125-6.5938c-0.078125 0.015625-0.15625 0.03125-0.21875 0.078125-0.3125 0.21875-0.3125 0.65625-0.015625 0.875 0.046875 0.03125 0.10938 0.0625 0.1875 0.09375h0.1875c0.078125-0.015625 0.14062-0.03125 0.21875-0.078125 0.29688-0.21875 0.29688-0.67188 0-0.875-0.046875-0.046875-0.10938-0.0625-0.17188-0.09375h-0.1875zm-1.9844 1.8438c-0.03125 0.015625-0.0625 0.046875-0.078125 0.0625-0.0625 0.046875-0.14062 0.125-0.10938 0.21875 0.03125 0.0625 0.10938 0.125 0.15625 0.17188l1.6719 1.6719c0.03125 0.03125 0.09375 0.078125 0.09375 0.125s-0.0625 0.09375-0.09375 0.125l-1.4375 1.4375c-0.10938 0.09375-0.20312 0.1875-0.29688 0.29688-0.046875 0.03125-0.09375 0.078125-0.09375 0.15625 0 0.0625 0.046875 0.10938 0.078125 0.14062s0.0625 0.046875 0.078125 0.078125c0.0625 0.03125 0.125 0 0.17188-0.046875 0.09375-0.09375 0.1875-0.17188 0.28125-0.26562l1.1875-1.2031 0.32812-0.3125c0.015625-0.03125 0.078125-0.10938 0.125-0.09375 0.0625 0.03125 0.10938 0.09375 0.14062 0.14062l0.3125 0.29688 1.0625 1.0625c0.10938 0.125 0.21875 0.23438 0.34375 0.34375 0.046875 0.046875 0.125 0.10938 0.1875 0.078125 0.03125-0.015625 0.0625-0.046875 0.09375-0.078125 0.046875-0.03125 0.09375-0.078125 0.09375-0.14062 0-0.046875-0.03125-0.078125-0.0625-0.125-0.078125-0.078125-0.15625-0.14062-0.21875-0.21875l-1.2344-1.2344-0.32812-0.3125c-0.03125-0.03125-0.09375-0.09375-0.078125-0.14062 0-0.03125 0.046875-0.0625 0.0625-0.09375l0.78125-0.78125 0.51562-0.5 0.375-0.39062c0.0625-0.0625 0.14062-0.10938 0.1875-0.1875 0.015625-0.078125-0.03125-0.14062-0.078125-0.1875-0.0625-0.046875-0.10938-0.125-0.1875-0.09375-0.0625 0.03125-0.125 0.09375-0.17188 0.14062l-0.28125 0.29688-1 1-0.39062 0.375c-0.03125 0.03125-0.09375 0.125-0.14062 0.10938-0.0625 0-0.10938-0.078125-0.14062-0.10938l-1.7344-1.7344c-0.046875-0.046875-0.10938-0.10938-0.17188-0.078125z"/>
</g>
</defs>
<g transform="translate(-150.35 -128.17)">
<use x="148.71201" y="134.765" xlink:href="#a"/>
</g>
</svg>
