<?xml version="1.0" encoding="UTF-8"?>
<svg fill="#000000" version="1.1" viewBox="0 0 2.6668 6.6639" xmlns="http://www.w3.org/2000/svg" xmlns:xlink="http://www.w3.org/1999/xlink">
<defs>
<g id="a">
<path d="m1.3594-6.6719c-0.0625 0.015625-0.14062 0.03125-0.1875 0.078125-0.0625 0.03125-0.10938 0.078125-0.15625 0.14062-0.03125 0.046875-0.0625 0.125-0.09375 0.1875-0.078125 0.35938 0.25 0.6875 0.60938 0.64062 0.0625-0.015625 0.14062-0.03125 0.1875-0.078125 0.0625-0.03125 0.10938-0.09375 0.15625-0.14062 0.03125-0.0625 0.0625-0.125 0.09375-0.20312 0.078125-0.35938-0.25-0.6875-0.60938-0.625zm-0.82812 2.3594v0.3125c0.125 0 0.26562 0 0.39062 0.015625 0.078125 0.015625 0.17188 0.03125 0.21875 0.09375 0.125 0.10938 0.125 0.28125 0.125 0.4375v0.95312h-0.59375c-0.10938 0-0.21875-0.015625-0.29688 0-0.10938 0.03125-0.14062 0.17188-0.078125 0.25 0.03125 0.078125 0.15625 0.0625 0.23438 0.0625h0.73438v1.2812c0 0.15625 0.046875 0.375-0.09375 0.5-0.0625 0.046875-0.14062 0.0625-0.21875 0.0625-0.15625 0.03125-0.3125 0.03125-0.46875 0.03125v0.29688l0.875-0.03125 0.875 0.015625 0.39062 0.015625v-0.29688c-0.125 0-0.28125 0-0.42188-0.03125-0.0625 0-0.14062-0.03125-0.20312-0.078125-0.10938-0.10938-0.0625-0.34375-0.0625-0.5v-1.2656h0.60938c0.078125 0 0.20312 0.015625 0.29688-0.015625 0.09375-0.015625 0.10938-0.15625 0.0625-0.23438-0.03125-0.078125-0.17188-0.0625-0.25-0.0625h-0.71875v-1.9219z"/>
</g>
</defs>
<g transform="translate(-148.98 -128.09)">
<use x="148.71201" y="134.765" xlink:href="#a"/>
</g>
</svg>
