<?xml version="1.0" encoding="UTF-8"?>
<svg fill="#000000" version="1.1" viewBox="0 0 4.3125 10.688" xmlns="http://www.w3.org/2000/svg" xmlns:xlink="http://www.w3.org/1999/xlink">
<defs>
<g id="a">
<path d="m0.5625-5.375c0 0.078125 0.03125 0.15625 0.10938 0.20312l2.25 1.2969-0.46875 1.7344-1.7812 1.0312c-0.078125 0.046875-0.10938 0.125-0.10938 0.1875 0 0.14062 0.10938 0.23438 0.21875 0.23438 0.046875 0 0.09375-0.015625 0.10938-0.03125l1.3906-0.79688-0.42188 1.5625h-1.0781c-0.125 0-0.21875 0.10938-0.21875 0.23438s0.09375 0.23438 0.21875 0.23438h0.96875l-0.57812 2.0938c-0.015625 0.09375 0.046875 0.1875 0.15625 0.1875 0.0625 0 0.125-0.03125 0.14062-0.10938l0.57812-2.1719h2.5938c0.14062 0 0.23438-0.10938 0.23438-0.23438s-0.09375-0.23438-0.23438-0.23438h-2.4688l0.48438-1.7656 2.1094-1.2188c0.0625-0.046875 0.10938-0.10938 0.10938-0.20312s-0.046875-0.15625-0.10938-0.20312l-1.4531-0.82812 0.9375-3.5312c0.03125-0.09375-0.03125-0.1875-0.14062-0.1875-0.0625 0-0.125 0.03125-0.14062 0.10938l-0.92188 3.4375-2.1562-1.2344c-0.015625-0.015625-0.0625-0.03125-0.10938-0.03125-0.10938 0-0.21875 0.10938-0.21875 0.23438zm2.2656 3.0156 0.35938-1.3594 1 0.57812zm-1.5156-1.3125c-0.3125 0-0.53125 0.25-0.53125 0.53125 0 0.3125 0.25 0.53125 0.53125 0.53125 0.32812 0 0.54688-0.25 0.54688-0.53125 0-0.3125-0.25-0.53125-0.54688-0.53125z"/>
</g>
</defs>
<g transform="translate(-149.27 -126.87)">
<use x="148.71201" y="134.765" xlink:href="#a"/>
</g>
</svg>
