<?xml version="1.0" encoding="UTF-8"?>
<svg fill="#000000" version="1.1" viewBox="0 0 5.5431 4.5072" xmlns="http://www.w3.org/2000/svg" xmlns:xlink="http://www.w3.org/1999/xlink">
<defs>
<g id="a">
<path d="m3.875-1.2188c-0.10938-0.26562-0.20312-0.53125-0.34375-0.79688-0.34375-0.65625-0.84375-1.2188-1.4219-1.6875-0.21875-0.1875-0.45312-0.35938-0.70312-0.5-0.078125-0.046875-0.20312-0.14062-0.26562-0.046875-0.015625 0.015625-0.015625 0.03125-0.03125 0.046875 0 0.078125-0.015625 0.20312 0.03125 0.28125 0.03125 0.0625 0.125 0.09375 0.1875 0.14062 0.14062 0.078125 0.28125 0.17188 0.40625 0.26562 0.57812 0.45312 1.0938 1 1.4375 1.6562 0.25 0.46875 0.42188 0.98438 0.48438 1.5312 0.015625 0.14062 0.015625 0.28125 0.015625 0.42188 0.015625 0.046875 0.03125 0.09375 0.09375 0.10938 0.078125 0.015625 0.23438 0.03125 0.28125-0.03125s0.03125-0.17188 0.03125-0.23438c0.015625-0.21875 0.03125-0.42188 0.078125-0.60938 0.21875-1.125 0.92188-2.0938 1.8125-2.7812 0.125-0.10938 0.26562-0.21875 0.42188-0.3125 0.0625-0.046875 0.17188-0.078125 0.21875-0.14062 0.046875-0.078125 0.046875-0.20312 0.03125-0.28125-0.015625-0.03125-0.015625-0.046875-0.046875-0.0625-0.0625-0.09375-0.1875 0-0.25 0.046875-0.21875 0.14062-0.4375 0.28125-0.64062 0.4375-0.59375 0.48438-1.125 1.0781-1.4844 1.75-0.14062 0.26562-0.23438 0.53125-0.34375 0.79688z"/>
</g>
</defs>
<g transform="translate(-149.82 -130.47)">
<use x="148.71201" y="134.765" xlink:href="#a"/>
</g>
</svg>
