<?xml version="1.0" encoding="UTF-8"?>
<svg fill="#000000" version="1.1" viewBox="0 0 8.8594 7.3125" xmlns="http://www.w3.org/2000/svg" xmlns:xlink="http://www.w3.org/1999/xlink">
<defs>
<g id="a">
<path d="m6.0938-3.6406h-0.21875c0.57812-0.9375 1.2344-1.9062 2.2031-2.6562 0.15625 0.17188 0.25 0.39062 0.25 0.65625 0 0.29688-0.125 0.65625-0.40625 1.0625-0.23438 0.32812-0.57812 0.65625-0.98438 0.85938-0.125 0.0625-0.26562 0.125-0.39062 0.1875-0.10938-0.0625-0.26562-0.10938-0.45312-0.10938zm-1.1719 0.21875c-0.3125 0.4375-0.60938 0.85938-0.90625 1.2812-0.71875 1.0156-1.7656 2.0312-2.6094 2.0312-0.65625 0-1.125-0.1875-1.125-0.5625 0-0.0625 0.015625-0.14062 0.046875-0.21875 0.078125 0.0625 0.15625 0.078125 0.25 0.078125 0.26562 0 0.54688-0.1875 0.54688-0.375 0-0.25-0.14062-0.34375-0.32812-0.34375-0.20312 0-0.45312 0.125-0.57812 0.29688-0.15625 0.23438-0.23438 0.42188-0.23438 0.59375 0 0.51562 0.65625 0.75 1.375 0.75 1.1562 0 2.7031-1 3.5-2.1562 0.25-0.32812 0.46875-0.70312 0.75-1.0938 0.20312 0 0.4375-0.015625 0.67188-0.0625 0 0.015625 0 0.0625-0.015625 0.10938-0.03125 0.1875-0.26562 0.54688-0.5 0.875l-0.8125 1.125c-0.10938 0.14062-0.14062 0.29688-0.14062 0.42188 0 0.17188 0.078125 0.32812 0.1875 0.4375 0.14062 0.17188 0.34375 0.26562 0.57812 0.3125 0.078125 0.046875 0.20312 0.09375 0.32812 0.09375 0.1875 0 0.40625-0.10938 0.60938-0.23438 0.125-0.078125 0.25-0.17188 0.375-0.25 0.40625-0.3125 0.73438-0.67188 1-1.0312 0-0.015625 0.015625-0.03125 0.015625-0.046875 0-0.03125-0.015625-0.0625-0.046875-0.078125h-0.046875-0.10938c-0.03125 0-0.046875 0-0.0625 0.015625-0.25 0.35938-0.5625 0.71875-0.9375 1.0312-0.09375 0.078125-0.1875 0.15625-0.28125 0.21875-0.17188 0.09375-0.32812 0.14062-0.46875 0.14062-0.10938 0-0.21875 0-0.3125-0.015625-0.046875-0.046875-0.078125-0.10938-0.09375-0.1875v-0.0625c0-0.1875 0.09375-0.42188 0.26562-0.67188l0.75-1.0469c0.21875-0.3125 0.32812-0.64062 0.32812-0.90625 0-0.0625 0-0.125-0.015625-0.1875-0.015625-0.078125-0.046875-0.15625-0.09375-0.21875 0.14062-0.046875 0.28125-0.09375 0.4375-0.17188 0.46875-0.23438 0.95312-0.5625 1.2188-0.95312 0.28125-0.39062 0.40625-0.75 0.40625-1.0625 0-0.32812-0.125-0.60938-0.32812-0.82812-0.046875-0.0625-0.09375-0.09375-0.14062-0.14062l0.35938-0.23438c0.03125-0.015625 0.03125-0.03125 0.03125-0.0625l-0.015625-0.10938c0-0.03125-0.0625-0.0625-0.09375-0.0625 0 0-0.015625 0-0.015625 0.015625-0.17188 0.09375-0.32812 0.1875-0.46875 0.29688-0.53125-0.34375-1.2656-0.46875-2.0781-0.46875-0.6875 0-1.5312 0.20312-2.375 0.64062-0.75 0.39062-1.4688 0.95312-1.9062 1.5625-0.34375 0.48438-0.5625 0.98438-0.5625 1.4062 0 0.0625 0 0.10938 0.015625 0.17188 0.0625 0.42188 0.40625 0.70312 0.95312 0.70312 0.29688 0 0.65625-0.125 0.98438-0.32812 0.35938-0.21875 0.67188-0.5 0.89062-0.79688 0.39062-0.57812 0.84375-1.2188 0.84375-1.7344v-0.10938c-0.015625-0.03125-0.046875-0.0625-0.09375-0.0625l-0.15625 0.0625c-0.03125 0-0.046875 0.03125-0.046875 0.0625v0.0625c0 0.42188-0.79688 1.2031-1.0781 1.6094-0.1875 0.26562-0.375 0.51562-0.65625 0.73438-0.21875 0.17188-0.46875 0.28125-0.65625 0.28125-0.45312 0-0.6875-0.20312-0.71875-0.53125l-0.015625-0.125c0-0.35938 0.20312-0.8125 0.54688-1.2969 0.40625-0.57812 1.0625-1.125 1.7812-1.4844 0.79688-0.42188 1.5625-0.60938 2.2188-0.60938 0.75 0 1.4062 0.14062 1.8281 0.4375-1.1562 0.82812-2.0469 1.8594-2.8438 2.9219-0.03125 0-0.046875 0-0.078125 0.03125-0.03125 0.046875-0.046875 0.078125-0.046875 0.10938zm1.1406 0.015625h0.03125c-0.14062 0.03125-0.26562 0.03125-0.39062 0.046875 0.015625-0.015625 0.015625-0.046875 0.03125-0.046875z"/>
</g>
</defs>
<g transform="translate(-148.7 -127.62)">
<use x="148.71201" y="134.765" xlink:href="#a"/>
</g>
</svg>
