<?xml version="1.0" encoding="UTF-8"?>
<svg fill="#000000" version="1.1" viewBox="0 0 8.3594 3.75" xmlns="http://www.w3.org/2000/svg" xmlns:xlink="http://www.w3.org/1999/xlink">
<defs>
<g id="a">
<path d="m8.7188-3.0625c-0.03125 0-0.078125 0.015625-0.21875 0.015625-1.1875 0-2.0156-0.84375-2.2188-0.84375-0.125 0-0.23438 0.10938-0.23438 0.23438 0 0.23438 0.45312 0.39062 1.2344 0.8125-0.65625 0.21875-0.90625 0.78125-1.375 0.78125-0.73438 0-1.2656-1.4219-2.25-1.4219-0.79688 0-0.9375 0.73438-1.7969 0.85938 0.25-0.5 0.90625-1.3438 0.90625-1.5781 0-0.10938-0.10938-0.21875-0.23438-0.21875-0.09375 0-0.17188 0.046875-0.20312 0.14062-0.89062 1.8906-1.7344 1.6406-1.7344 2.0156 0 0.14062 0.10938 0.23438 0.23438 0.23438 0.03125 0 0.09375-0.015625 0.23438-0.015625 1.1719 0 2.0156 0.84375 2.2031 0.84375 0.14062 0 0.23438-0.10938 0.23438-0.23438 0-0.23438-0.45312-0.39062-1.2344-0.8125 0.67188-0.21875 0.92188-0.78125 1.3906-0.78125 0.70312 0 1.2656 1.4219 2.25 1.4219 0.78125 0 0.92188-0.73438 1.7969-0.85938-0.26562 0.5-0.92188 1.3438-0.92188 1.5781 0 0.10938 0.10938 0.21875 0.25 0.21875 0.078125 0 0.17188-0.046875 0.20312-0.14062 0.875-1.8906 1.7188-1.6406 1.7188-2.0156 0-0.14062-0.10938-0.23438-0.23438-0.23438z"/>
</g>
</defs>
<g transform="translate(-149.31 -130.34)">
<use x="148.71201" y="134.765" xlink:href="#a"/>
</g>
</svg>
