<?xml version="1.0" encoding="UTF-8"?>
<svg fill="#000000" version="1.1" viewBox="0 0 7.1094 4.5625" xmlns="http://www.w3.org/2000/svg" xmlns:xlink="http://www.w3.org/1999/xlink">
<defs>
<g id="a">
<path d="m5.1094-1.1094c0 0.125 0.10938 0.21875 0.21875 0.21875 0.078125 0 0.14062-0.03125 0.1875-0.09375 0.53125-0.625 1.1875-1.1875 2-1.3438 0.10938-0.015625 0.1875-0.10938 0.1875-0.21875s-0.078125-0.20312-0.1875-0.21875c-0.8125-0.15625-1.4688-0.71875-2-1.3438-0.046875-0.0625-0.10938-0.09375-0.1875-0.09375-0.10938 0-0.21875 0.09375-0.21875 0.21875 0 0.23438 0.65625 0.71875 1.1406 1.2188h-2.5781l0.6875-1.875c0.03125-0.078125-0.03125-0.1875-0.14062-0.1875-0.0625 0-0.125 0.03125-0.14062 0.09375l-0.71875 1.9688h-1.8125c-0.29688 0-0.48438-0.23438-0.48438-0.5s0.21875-0.48438 0.48438-0.48438c0.125 0 0.23438-0.09375 0.23438-0.23438 0-0.10938-0.10938-0.21875-0.23438-0.21875-0.53125 0-0.95312 0.4375-0.95312 0.9375 0 0.53125 0.4375 0.95312 0.95312 0.95312h1.6562l-0.6875 1.8594c-0.03125 0.078125 0.03125 0.1875 0.14062 0.1875 0.0625 0 0.125-0.03125 0.14062-0.09375l0.71875-1.9531h2.7344c-0.45312 0.45312-1.1406 0.95312-1.1406 1.2031z"/>
</g>
</defs>
<g transform="translate(-149.31 -129.94)">
<use x="148.71201" y="134.765" xlink:href="#a"/>
</g>
</svg>
