<?xml version="1.0" encoding="UTF-8"?>
<svg fill="#000000" width="7.1094" height="3.2188" version="1.1" viewBox="0 0 7.1094 3.2187" xmlns="http://www.w3.org/2000/svg" xmlns:xlink="http://www.w3.org/1999/xlink">
<defs>
<g id="a">
<path d="m7.4844-3.0625c-0.03125 0-0.09375 0.015625-0.23438 0.015625-1.1719 0-2.0156-0.84375-2.2031-0.84375-0.14062 0-0.23438 0.10938-0.23438 0.23438 0 0.23438 0.40625 0.375 1.1875 0.79688-0.75 0.20312-0.96875 0.79688-1.5 0.79688-0.78125 0-1.3125-1.4219-2.3438-1.4219-0.73438 0-1.0781 0.65625-1.4844 1.0625-0.046875 0.046875-0.078125 0.09375-0.078125 0.15625 0 0.125 0.09375 0.23438 0.23438 0.23438 0.3125 0 0.6875-1 1.3281-1 0.78125 0 1.2969 1.4219 2.3438 1.4219 0.84375 0 0.9375-0.75 1.9531-0.875-0.26562 0.51562-0.90625 1.3594-0.90625 1.5938 0 0.10938 0.09375 0.21875 0.23438 0.21875 0.078125 0 0.17188-0.046875 0.20312-0.14062 0.89062-1.8906 1.7188-1.6406 1.7188-2.0156 0-0.14062-0.10938-0.23438-0.21875-0.23438z"/>
</g>
</defs>
<g transform="translate(-149.31 -130.87)">
<use x="148.71201" y="134.765" xlink:href="#a"/>
</g>
</svg>
