<?xml version="1.0" encoding="UTF-8"?>
<svg fill="#000000" width="5.0938" height="8.3438" version="1.1" viewBox="0 0 5.0938 8.3437" xmlns="http://www.w3.org/2000/svg" xmlns:xlink="http://www.w3.org/1999/xlink">
<defs>
<g id="a">
<path d="m5.7188-0.375v-0.015625l-0.1875-0.09375c0 0.03125-0.23438 1.0938-1.1094 1.0938-0.73438 0-1.1406-0.78125-1.8438-1.0156l0.76562-1.9219c1.875 0.79688 2.375 1.7969 2.375 1.7969v-0.75c0-0.015625-0.60938-0.875-2.1875-1.5156l0.40625-1.0156c1.2812-0.59375 1.7812-1.2969 1.7812-1.3125v-0.75s-0.34375 0.67188-1.5 1.3594l0.89062-2.2188h-0.54688l-1.0312 2.5625c-0.71875 0.32812-1.6719 0.64062-2.9062 0.84375v0.25c0.89062 0.14062 1.6406 0.34375 2.25 0.5625l-0.79688 2.0312c-1.2031 0.0625-1.4531 1.3125-1.4531 1.3125l0.1875 0.09375c0-0.015625 0.29688-0.8125 1.0469-0.875l-0.625 1.5625h0.54688l0.59375-1.4844c0.59375 0.25 0.9375 0.98438 1.8438 0.98438 1.3906 0 1.5-1.4844 1.5-1.4844zm-2.4219-3.1562-0.23438 0.57812c-0.28125-0.09375-0.59375-0.1875-0.92188-0.25v-0.015625c0.4375-0.09375 0.8125-0.20312 1.1562-0.3125z"/>
</g>
</defs>
<g transform="translate(-149.34 -128.03)">
<use x="148.71201" y="134.765" xlink:href="#a"/>
</g>
</svg>
