<?xml version="1.0" encoding="UTF-8"?>
<svg fill="#000000" version="1.1" viewBox="0 0 3.1448 8.1777" xmlns="http://www.w3.org/2000/svg" xmlns:xlink="http://www.w3.org/1999/xlink">
<defs>
<g id="a">
<path d="m1.4844-6.1406c0 0.125-0.015625 0.23438-0.015625 0.34375-0.078125 0.60938-0.35938 1.3594-1.0156 1.5469-0.078125 0.015625-0.1875 0.03125-0.28125 0.03125v0.21875h0.85938v2.2188c0 0.45312-0.03125 0.89062 0.17188 1.2969 0.21875 0.40625 0.6875 0.57812 1.1406 0.57812 0.28125 0 0.59375-0.14062 0.71875-0.39062h0.015625v0.59375c0 0.34375-0.015625 0.65625-0.14062 0.98438-0.10938 0.28125-0.34375 0.53125-0.67188 0.53125-0.17188 0-0.3125-0.0625-0.46875-0.125 0.09375-0.015625 0.17188-0.046875 0.23438-0.10938 0.26562-0.25 0.14062-0.70312-0.20312-0.79688-0.078125-0.015625-0.15625-0.015625-0.21875 0-0.046875 0.015625-0.09375 0.03125-0.14062 0.0625-0.23438 0.14062-0.26562 0.4375-0.15625 0.67188s0.35938 0.39062 0.59375 0.46875c0.14062 0.046875 0.3125 0.0625 0.45312 0.046875 0.46875-0.046875 0.76562-0.45312 0.875-0.875 0.10938-0.39062 0.078125-0.79688 0.078125-1.2031v-1.7656h-0.23438c0 0.4375 0.046875 0.95312-0.1875 1.3438-0.046875 0.078125-0.10938 0.15625-0.1875 0.21875-0.1875 0.125-0.4375 0.125-0.60938 0-0.125-0.09375-0.21875-0.21875-0.26562-0.35938-0.078125-0.20312-0.09375-0.45312-0.09375-0.67188v-2.7188h1.4219v-0.3125h-1.4219v-1.8281z"/>
</g>
</defs>
<g transform="translate(-148.88 -128.62)">
<use x="148.71201" y="134.765" xlink:href="#a"/>
</g>
</svg>
