<?xml version="1.0" encoding="UTF-8"?>
<svg fill="#000000" version="1.1" viewBox="0 0 8.9688 8.9844" xmlns="http://www.w3.org/2000/svg" xmlns:xlink="http://www.w3.org/1999/xlink">
<defs>
<g id="a">
<path d="m9.9688-2.5c0-2.4062-2.0781-4.4844-4.4844-4.4844-2.5 0-4.4844 2.0781-4.4844 4.4844 0 2.5156 1.9844 4.5 4.4844 4.5 2.4062 0 4.4844-2.0156 4.4844-4.5zm-0.59375 0c0 2.1562-1.7969 3.9062-3.8906 3.9062-2.1719 0-3.8906-1.7188-3.8906-3.9062 0-2.0781 1.7188-3.875 3.8906-3.875 2.0938 0 3.8906 1.7969 3.8906 3.875zm-5.8906 0.96875c0 0.1875 0.14062 0.3125 0.32812 0.3125 0.125 0 0.82812-0.42188 1.1875-0.64062 0.078125-0.046875 0.14062-0.078125 0.17188-0.10938v1.4219c0 0.15625 0.14062 0.3125 0.29688 0.3125 0.17188 0 0.32812-0.14062 0.32812-0.3125v-1.4219c0.03125 0.03125 0.0625 0.046875 0.17188 0.09375 0.35938 0.23438 1.0469 0.65625 1.1719 0.65625 0.20312 0 0.34375-0.10938 0.34375-0.3125 0-0.10938-0.0625-0.21875-0.15625-0.26562-0.39062-0.25-0.8125-0.5-1.2344-0.70312l1.2344-0.70312c0.09375-0.0625 0.15625-0.17188 0.15625-0.28125 0-0.1875-0.17188-0.29688-0.34375-0.29688-0.125 0-1.1562 0.59375-1.3438 0.73438v-1.4062c0-0.17188-0.15625-0.3125-0.32812-0.3125-0.15625 0-0.29688 0.15625-0.29688 0.3125v1.4062c-0.046875-0.03125-0.078125-0.046875-0.17188-0.10938-0.375-0.21875-1.0469-0.625-1.1875-0.625-0.17188 0-0.32812 0.125-0.32812 0.29688 0 0.10938 0.046875 0.23438 0.15625 0.28125l1.2188 0.70312-1.2188 0.70312c-0.10938 0.046875-0.15625 0.15625-0.15625 0.26562z"/>
</g>
</defs>
<g transform="translate(-149.71 -127.78)">
<use x="148.71201" y="134.765" xlink:href="#a"/>
</g>
</svg>
