<?xml version="1.0" encoding="UTF-8"?>
<svg fill="#000000" version="1.1" viewBox="0 0 6.3594 6.7408" xmlns="http://www.w3.org/2000/svg" xmlns:xlink="http://www.w3.org/1999/xlink">
<defs>
<g id="a">
<path d="m4.0625-1.1562c-0.20312 0.29688-0.4375 0.59375-0.65625 0.875-0.046875 0.078125-0.09375 0.14062-0.14062 0.21875-0.03125 0.03125-0.0625 0.0625-0.10938 0.078125-0.0625 0.015625-0.125 0-0.1875 0h-1.9375c-0.046875 0-0.125 0-0.15625 0.046875-0.046875 0.03125-0.046875 0.09375-0.046875 0.14062 0 0.09375-0.015625 0.20312 0.10938 0.21875h0.23438 1.7344c-0.17188 0.20312-0.3125 0.40625-0.46875 0.60938-0.046875 0.078125-0.14062 0.1875-0.03125 0.25 0.03125 0.03125 0.0625 0.03125 0.09375 0.03125 0.078125 0 0.1875 0.015625 0.25-0.03125 0.078125-0.0625 0.125-0.15625 0.1875-0.21875 0.09375-0.14062 0.20312-0.29688 0.3125-0.4375 0.046875-0.0625 0.09375-0.1875 0.1875-0.20312s0.1875 0 0.28125 0h2.8906c0.078125 0 0.20312 0.015625 0.26562-0.015625 0.046875-0.046875 0.046875-0.10938 0.046875-0.15625 0-0.09375 0.015625-0.20312-0.10938-0.23438h-0.20312-2.9062c0.1875-0.29688 0.42188-0.57812 0.64062-0.875 0.046875-0.0625 0.10938-0.14062 0.15625-0.20312 0.03125-0.046875 0.0625-0.078125 0.09375-0.09375 0.0625-0.015625 0.125 0 0.1875 0h1.9375c0.0625 0 0.125 0.015625 0.17188-0.046875 0.03125-0.015625 0.03125-0.078125 0.03125-0.125 0-0.09375 0.015625-0.20312-0.10938-0.23438h-0.21875-1.7344c0.15625-0.1875 0.29688-0.40625 0.45312-0.60938 0.046875-0.078125 0.14062-0.1875 0.046875-0.25-0.046875-0.03125-0.09375-0.015625-0.14062-0.015625-0.0625 0-0.14062-0.015625-0.1875 0.015625-0.0625 0.015625-0.09375 0.0625-0.10938 0.10938-0.14062 0.17188-0.26562 0.35938-0.40625 0.53125-0.046875 0.0625-0.09375 0.1875-0.17188 0.21875-0.0625 0.03125-0.1875 0-0.26562 0h-0.60938c-0.34375 0-0.71875 0.03125-1.0625-0.03125-0.60938-0.125-1.1562-0.5625-1.3594-1.1562-0.046875-0.15625-0.078125-0.32812-0.09375-0.48438-0.015625-0.76562 0.51562-1.4531 1.2344-1.7031 0.39062-0.125 0.8125-0.09375 1.2188-0.09375h3.125 0.25c0.0625 0 0.10938-0.015625 0.14062-0.078125v-0.09375c0-0.078125 0.015625-0.1875-0.078125-0.20312-0.0625-0.03125-0.14062-0.015625-0.1875-0.015625h-3.2969c-0.28125 0-0.5625-0.015625-0.84375 0.015625-0.39062 0.046875-0.78125 0.1875-1.0938 0.4375-0.21875 0.14062-0.39062 0.32812-0.53125 0.54688-0.51562 0.79688-0.40625 1.8594 0.21875 2.5625 0.28125 0.29688 0.65625 0.5 1.0469 0.625 0.29688 0.078125 0.60938 0.078125 0.92188 0.078125z"/>
</g>
</defs>
<g transform="translate(-149.28 -129.34)">
<use x="148.71201" y="134.765" xlink:href="#a"/>
</g>
</svg>
