<?xml version="1.0" encoding="UTF-8"?>
<svg fill="#000000" version="1.1" viewBox="0 0 7.1094 4.9062" xmlns="http://www.w3.org/2000/svg" xmlns:xlink="http://www.w3.org/1999/xlink">
<defs>
<g id="a">
<path d="m2.0312-5c-0.20312 0-1.4375 0.89062-1.4375 2.4531 0 0.96875 0.5 1.875 1.2969 2.4062 0.046875 0.015625 0.078125 0.046875 0.14062 0.046875 0.15625 0 0.21875-0.17188 0.21875-0.23438 0-0.078125-0.03125-0.15625-0.10938-0.1875-0.60938-0.40625-1-1.0781-1.0781-1.7969h6.4219c0.125 0 0.21875-0.10938 0.21875-0.23438s-0.09375-0.21875-0.21875-0.21875h-6.4219c0.078125-0.73438 0.46875-1.4062 1.0781-1.7969 0.078125-0.046875 0.10938-0.125 0.10938-0.20312 0-0.0625-0.0625-0.23438-0.21875-0.23438z"/>
</g>
</defs>
<g transform="translate(-149.31 -129.76)">
<use x="148.71201" y="134.765" xlink:href="#a"/>
</g>
</svg>
