<?xml version="1.0" encoding="UTF-8"?>
<svg fill="#000000" version="1.1" viewBox="0 0 7.8125 8.8125" xmlns="http://www.w3.org/2000/svg" xmlns:xlink="http://www.w3.org/1999/xlink">
<defs>
<g id="a">
<path d="m4.8594-6.9219h-0.5v3.9844c-0.42188-0.73438-0.9375-1.3438-1.8438-1.3438s-1.8125 0.82812-1.8125 2.1719c0 0.96875 0.60938 2.1094 1.875 2.1094 0.65625 0 1.25-0.23438 1.7812-0.84375v2.7344h0.5v-3.2031c0.42188 0.78125 1.0312 1.3125 1.9062 1.3125 0.84375 0 1.75-0.71875 1.75-2.0938 0-1.8281-1.2344-2.1875-1.8125-2.1875-0.59375 0-1.125 0.046875-1.8438 0.875zm0.0625 5.0156c0.90625-1.2812 1.25-1.5469 2.0625-1.5469 0.76562 0 1.2344 0.51562 1.2344 1.2031 0 0.92188-0.71875 1.4062-1.5625 1.4062-0.89062 0-1.4688-0.6875-1.7344-1.0469zm-0.60938-0.5c-0.875 1.375-1.2656 1.5625-2.0781 1.5625-0.78125 0-1.2344-0.5-1.2344-1.2031 0-0.90625 0.71875-1.4062 1.5625-1.4062 0.98438 0 1.4531 0.71875 1.75 1.0469z"/>
</g>
</defs>
<g transform="translate(-149.42 -127.84)">
<use x="148.71201" y="134.765" xlink:href="#a"/>
</g>
</svg>
