<?xml version="1.0" encoding="UTF-8"?>
<svg fill="#000000" version="1.1" viewBox="0 0 8.1406 8.9844" xmlns="http://www.w3.org/2000/svg" xmlns:xlink="http://www.w3.org/1999/xlink">
<defs>
<g id="a">
<path d="m5.125 0.96875c0.0625 0 0.125-0.03125 0.15625-0.078125l4.0469-4.0312c0.046875-0.046875 0.0625-0.09375 0.0625-0.15625 0-0.125-0.09375-0.23438-0.23438-0.23438-0.0625 0-0.10938 0.015625-0.17188 0.078125l-1.2031 1.2188-1.9219-1.9062 1.125-2.4062c0.046875-0.10938-0.03125-0.21875-0.14062-0.21875-0.046875 0-0.10938 0.03125-0.125 0.09375l-1.0781 2.3125-1.5-1.5c-0.046875-0.046875-0.10938-0.078125-0.15625-0.078125-0.10938 0-0.23438 0.09375-0.23438 0.23438 0 0.0625 0.03125 0.125 0.0625 0.15625l1.625 1.625-0.60938 1.2656-1.9531-1.9531c-0.03125-0.03125-0.09375-0.0625-0.15625-0.0625-0.17188 0-0.21875 0.15625-0.21875 0.21875s0.015625 0.125 0.0625 0.17188l2.0625 2.0625-1.1094 2.4219c-0.046875 0.0625 0 0.15625 0.0625 0.20312 0.078125 0.015625 0.17188 0 0.20312-0.078125l1.0781-2.3125 1.3281 1.3438-1.2188 1.2031c-0.046875 0.0625-0.078125 0.10938-0.078125 0.17188 0 0.125 0.09375 0.23438 0.23438 0.23438zm5.2969-3.2344c-0.0625 0-0.125 0.015625-0.15625 0.0625l-4.0469 4.0312c-0.03125 0.046875-0.0625 0.10938-0.0625 0.17188 0 0.10938 0.078125 0.21875 0.23438 0.21875 0.046875 0 0.10938-0.015625 0.15625-0.0625l4.0312-4.0312c0.04687-0.046875 0.0625-0.10938 0.0625-0.17188 0-0.10938-0.07813-0.21875-0.21875-0.21875zm-4.7656-1.4375 1.7969 1.7969-0.9375 0.92188-1.4531-1.4375z"/>
</g>
</defs>
<g transform="translate(-151.21 -128)">
<use x="148.71201" y="134.765" xlink:href="#a"/>
</g>
</svg>
