<?xml version="1.0" encoding="UTF-8"?>
<svg fill="#000000" version="1.1" viewBox="0 0 7.8594 10.25" xmlns="http://www.w3.org/2000/svg" xmlns:xlink="http://www.w3.org/1999/xlink">
<defs>
<g id="a">
<path d="m6.6406-6.3906 0.20312-1.1094c0.015625-0.09375-0.046875-0.17188-0.15625-0.17188-0.0625 0-0.125 0.046875-0.14062 0.10938l-0.20312 1.125c-0.17188-0.03125-0.35938-0.046875-0.53125-0.046875-2.2188 0-3.9219 1.8281-3.9219 3.9375 0 1.4062 0.73438 2.6875 1.9219 3.3906-0.96875 0.32812-1.4062 0.35938-1.4062 0.64062 0 0.14062 0.10938 0.23438 0.21875 0.23438 0.14062 0 0.89062-0.48438 1.8438-0.48438 0.3125 0 0.46875 0.046875 0.51562 0.0625l-0.20312 1.1094c0 0.09375 0.046875 0.17188 0.15625 0.17188 0.0625 0 0.14062-0.046875 0.14062-0.10938l0.20312-1.1719c0.078125-0.046875 0.125-0.125 0.125-0.20312 0-0.046875-0.015625-0.10938-0.046875-0.14062l1.2031-6.8906c1.5938 0.35938 2.7344 1.75 2.7344 3.3906-0.015625 1.6875-1.2188 3.125-2.875 3.4219-0.10938 0.015625-0.1875 0.10938-0.1875 0.21875 0 0.14062 0.10938 0.23438 0.21875 0.23438h0.046875c1.875-0.32812 3.2344-1.9688 3.25-3.875 0-1.875-1.3125-3.4531-3.1094-3.8438zm-3.0312 5.2969c0 0.23438 0.4375 1.1094 0.60938 1.625-1.125-0.57812-1.875-1.7656-1.875-3.0781 0-1.9844 1.6094-3.4688 3.4688-3.4688 0.15625 0 0.3125 0 0.45312 0.03125l-1.1875 6.7188c-0.53125-0.48438-0.82812-1.1875-1.0156-1.8906-0.03125-0.09375-0.125-0.17188-0.21875-0.17188-0.14062 0-0.23438 0.10938-0.23438 0.23438z"/>
</g>
</defs>
<g transform="translate(-150.6 -127.09)">
<use x="148.71201" y="134.765" xlink:href="#a"/>
</g>
</svg>
