<?xml version="1.0" encoding="UTF-8"?>
<svg fill="#000000" version="1.1" viewBox="0 0 8.8594 4.5156" xmlns="http://www.w3.org/2000/svg" xmlns:xlink="http://www.w3.org/1999/xlink">
<defs>
<g id="a">
<path d="m5.0625-2.7031c-0.53125-0.67188-0.65625-0.82812-0.96875-1.0781-0.5625-0.45312-1.1094-0.625-1.625-0.625-1.1562 0-1.9219 1.0938-1.9219 2.2656 0 1.1406 0.73438 2.25 1.8906 2.25 1.1406 0 1.9688-0.90625 2.4531-1.7031 0.54688 0.67188 0.65625 0.82812 0.96875 1.0781 0.5625 0.45312 1.125 0.625 1.625 0.625 1.1719 0 1.9219-1.0938 1.9219-2.2656 0-1.1406-0.73438-2.25-1.875-2.25-1.1562 0-1.9844 0.90625-2.4688 1.7031zm0.26562 0.34375c0.40625-0.71875 1.1406-1.7344 2.2656-1.7344 1.0625 0 1.5938 1.0469 1.5938 1.9375 0 0.98438-0.67188 1.7812-1.5469 1.7812-0.57812 0-1.0156-0.40625-1.2344-0.625-0.25-0.26562-0.46875-0.57812-1.0781-1.3594zm-0.6875 0.42188c-0.40625 0.71875-1.1562 1.7344-2.2812 1.7344-1.0469 0-1.5938-1.0469-1.5938-1.9375 0-0.98438 0.67188-1.7812 1.5469-1.7812 0.57812 0 1.0312 0.40625 1.2344 0.625 0.25 0.26562 0.48438 0.57812 1.0938 1.3594z"/>
</g>
</defs>
<g transform="translate(-149.26 -130.36)">
<use x="148.71201" y="134.765" xlink:href="#a"/>
</g>
</svg>
