<?xml version="1.0" encoding="UTF-8"?>
<svg fill="#000000" version="1.1" viewBox="0 0 7.1562 7.1562" xmlns="http://www.w3.org/2000/svg" xmlns:xlink="http://www.w3.org/1999/xlink">
<defs>
<g id="a">
<path d="m8.2031-5.8125c-0.26562 0-0.70312 0.70312-2.5469 0.70312-0.4375 0-0.65625-0.046875-0.73438-0.046875-0.10938 0-0.23438 0.10938-0.23438 0.23438 0 0.23438 0.23438 0.25 0.5 0.25h0.17188c0.125 0 0.25 0 0.35938-0.015625l-4.375 4.375c-0.03125 0.046875-0.0625 0.10938-0.0625 0.15625 0 0.14062 0.10938 0.23438 0.23438 0.23438 0.046875 0 0.10938-0.015625 0.15625-0.0625l4.7344-4.7344h0.46875c0.15625 0 0.29688 0 0.46875 0.015625 0 0.14062 0.015625 0.3125 0.015625 0.45312 0 0.15625-0.015625 0.3125-0.015625 0.46875l-4.7344 4.7344c-0.046875 0.046875-0.0625 0.10938-0.0625 0.15625 0 0.125 0.078125 0.23438 0.21875 0.23438 0.0625 0 0.125-0.03125 0.17188-0.0625l4.375-4.375c-0.015625 0.10938-0.015625 0.23438-0.015625 0.35938v0.125c0 0.29688 0.015625 0.53125 0.25 0.53125 0.14062 0 0.23438-0.09375 0.23438-0.21875 0-0.078125-0.03125-0.29688-0.03125-0.75 0-0.84375 0.14062-1.7031 0.64062-2.3906 0.03125-0.046875 0.046875-0.09375 0.046875-0.14062 0-0.14062-0.10938-0.23438-0.23438-0.23438z"/>
</g>
</defs>
<g transform="translate(-149.99 -128.95)">
<use x="148.71201" y="134.765" xlink:href="#a"/>
</g>
</svg>
