<?xml version="1.0" encoding="UTF-8"?>
<svg fill="#000000" version="1.1" viewBox="0 0 6.5156 6.5156" xmlns="http://www.w3.org/2000/svg" xmlns:xlink="http://www.w3.org/1999/xlink">
<defs>
<g id="a">
<path d="m6.8906-2.3281c0.14062 0 0.23438-0.09375 0.23438-0.21875 0-0.0625-0.03125-0.23438-0.03125-0.57812 0-1.375 0.53125-1.75 0.53125-1.9531 0-0.14062-0.10938-0.21875-0.23438-0.21875-0.1875 0-0.54688 0.51562-1.9531 0.51562-0.32812 0-0.51562-0.015625-0.5625-0.015625-0.125 0-0.23438 0.09375-0.23438 0.23438 0 0.21875 0.25 0.23438 0.5 0.23438h0.046875c0.39062 0 0.78125-0.03125 1.1562-0.03125h0.03125l-1.5 1.4844-0.84375-1.7969c-0.03125-0.078125-0.10938-0.10938-0.1875-0.078125s-0.10938 0.125-0.078125 0.20312l0.89062 1.8906-0.95312 0.9375c-0.51562 0.375-1.1562 0.48438-1.7969 0.48438-0.34375 0-0.51562-0.015625-0.57812-0.015625-0.125 0-0.21875 0.078125-0.21875 0.21875 0 0.23438 0.23438 0.25 0.48438 0.25h0.0625c0.375 0 0.76562-0.046875 1.1406-0.046875 0.10938 0 0.23438 0 0.34375 0.015625 0.015625 0.10938 0.015625 0.21875 0.015625 0.32812 0 0.39062-0.046875 0.78125-0.046875 1.1562v0.09375c0 0.21875 0.015625 0.45312 0.23438 0.45312 0.14062 0 0.23438-0.10938 0.23438-0.23438 0-0.0625-0.015625-0.23438-0.015625-0.5625 0-0.65625 0.10938-1.2969 0.46875-1.8125l0.82812-0.82812 0.82812 1.7969c0.046875 0.078125 0.14062 0.10938 0.20312 0.078125 0.078125-0.03125 0.10938-0.125 0.078125-0.20312l-0.89062-1.8906 1.6094-1.6094c0 0.39062-0.03125 0.78125-0.03125 1.1719v0.10938c0 0.21875 0 0.4375 0.23438 0.4375z"/>
</g>
</defs>
<g transform="translate(-149.82 -129.47)">
<use x="148.71201" y="134.765" xlink:href="#a"/>
</g>
</svg>
