<?xml version="1.0" encoding="UTF-8"?>
<svg fill="#000000" version="1.1" viewBox="0 0 10.672 10.672" xmlns="http://www.w3.org/2000/svg" xmlns:xlink="http://www.w3.org/1999/xlink">
<defs>
<g id="a">
<path d="m6.2344-3.1875-3.0938-3.0938c0.84375-0.75 1.9531-1.1562 3.0938-1.1562 1.125 0 2.2344 0.40625 3.0938 1.1562zm-0.45312 0.45312-3.0938 3.0781c-0.75-0.84375-1.1562-1.9531-1.1562-3.0781 0-1.1406 0.40625-2.25 1.1562-3.0938zm0.89062 0 3.0938-3.0938c0.75 0.84375 1.1562 1.9531 1.1562 3.0938 0 1.125-0.40625 2.2344-1.1562 3.0781zm-0.4375 0.4375 3.0938 3.0938c-0.85938 0.75-1.9688 1.1562-3.0938 1.1562-1.1406 0-2.25-0.40625-3.0938-1.1562zm5.3281-0.4375c0-1.4219-0.5625-2.7812-1.5625-3.7812s-2.3594-1.5625-3.7656-1.5625c-1.4219 0-2.7812 0.5625-3.7656 1.5625-1.0156 1-1.5781 2.3594-1.5781 3.7812 0 1.4062 0.5625 2.7656 1.5781 3.7656 0.98438 1 2.3438 1.5625 3.7656 1.5625 1.4062 0 2.7656-0.5625 3.7656-1.5625s1.5625-2.3594 1.5625-3.7656z"/>
</g>
</defs>
<g transform="translate(-149.6 -126.69)">
<use x="148.71201" y="134.765" xlink:href="#a"/>
</g>
</svg>
