<?xml version="1.0" encoding="UTF-8"?>
<svg fill="#000000" version="1.1" viewBox="0 0 7.1562 7.1562" xmlns="http://www.w3.org/2000/svg" xmlns:xlink="http://www.w3.org/1999/xlink">
<defs>
<g id="a">
<path d="m1.9062-5.5781c0 0.25 0.70312 0.6875 0.70312 2.5312 0 0.45312-0.03125 0.67188-0.03125 0.75 0 0.125 0.078125 0.21875 0.21875 0.21875 0.21875 0 0.25-0.21875 0.25-0.48438v-0.17188-0.35938l4.3594 4.375c0.046875 0.03125 0.10938 0.0625 0.17188 0.0625 0.10938 0 0.23438-0.09375 0.23438-0.23438 0-0.046875-0.03125-0.10938-0.078125-0.15625l-4.7344-4.7344c0-0.15625-0.015625-0.3125-0.015625-0.46875 0-0.14062 0.015625-0.3125 0.03125-0.45312 0.14062-0.015625 0.29688-0.015625 0.45312-0.015625h0.46875l4.7344 4.7344c0.046875 0.046875 0.09375 0.0625 0.15625 0.0625 0.125 0 0.23438-0.09375 0.23438-0.23438 0-0.046875-0.015625-0.10938-0.078125-0.15625l-4.3594-4.375c0.125 0.015625 0.23438 0.015625 0.34375 0.015625h0.14062c0.29688 0 0.54688-0.015625 0.54688-0.25 0-0.125-0.10938-0.23438-0.23438-0.23438-0.078125 0-0.29688 0.046875-0.75 0.046875-0.85938 0-1.7031-0.17188-2.4062-0.65625-0.03125-0.03125-0.078125-0.046875-0.125-0.046875-0.14062 0-0.23438 0.125-0.23438 0.23438z"/>
</g>
</defs>
<g transform="translate(-150.62 -128.95)">
<use x="148.71201" y="134.765" xlink:href="#a"/>
</g>
</svg>
