<?xml version="1.0" encoding="UTF-8"?>
<svg fill="#000000" version="1.1" viewBox="0 0 7.8594 8.2031" xmlns="http://www.w3.org/2000/svg" xmlns:xlink="http://www.w3.org/1999/xlink">
<defs>
<g id="a">
<path d="m6.4531 1.3281c0.03125 0 0.046875 0 0.0625-0.015625 0.25-0.03125 0.32812-0.078125 0.64062-0.078125 0.95312 0 1.7031 0.48438 1.8438 0.48438 0.10938 0 0.23438-0.09375 0.23438-0.23438 0-0.28125-0.48438-0.32812-1.4219-0.64062 1.1875-0.70312 1.9219-1.9844 1.9375-3.3906 0-2.2344-1.8281-3.9375-3.9375-3.9375-2.2188 0-3.9219 1.8281-3.9219 3.9375 0 1.9062 1.375 3.5469 3.25 3.875h0.03125c0.125 0 0.23438-0.09375 0.23438-0.23438 0-0.10938-0.078125-0.20312-0.1875-0.21875-1.6719-0.29688-2.875-1.7344-2.875-3.4219 0-1.9844 1.6094-3.4688 3.4688-3.4688 1.9688 0 3.4844 1.6094 3.4844 3.4688-0.015625 1.3125-0.75 2.5-1.875 3.0781 0.15625-0.51562 0.60938-1.3906 0.60938-1.625 0-0.125-0.09375-0.23438-0.23438-0.23438-0.10938 0-0.20312 0.078125-0.23438 0.17188-0.51562 1.9375-1.3281 1.9375-1.3281 2.25 0 0.14062 0.10938 0.23438 0.21875 0.23438z"/>
</g>
</defs>
<g transform="translate(-150.6 -128.28)">
<use x="148.71201" y="134.765" xlink:href="#a"/>
</g>
</svg>
