<?xml version="1.0" encoding="UTF-8"?>
<svg fill="#000000" width="10.25" height="4.0938" version="1.1" viewBox="0 0 10.25 4.0937" xmlns="http://www.w3.org/2000/svg" xmlns:xlink="http://www.w3.org/1999/xlink">
<defs>
<g id="a">
<path d="m10.562-2.2812v-0.5625c-0.65625 0-1.2031-1.0469-1.7812-1.0469-0.53125 0-1.0938 1.5625-1.5781 1.9062-0.4375-0.3125-1.0781-1.9062-1.5312-1.9062-0.51562 0-1.2969 1.9844-1.6562 1.9844-0.40625 0-0.92188-0.9375-1.6406-0.9375h-0.98438l1.1875-1.4375-0.3125-0.32812-1.9531 2.0469 1.9531 2.0469 0.3125-0.34375-1.1875-1.4219h0.92188c0.625 0 1.2031 1.0469 1.7812 1.0469 0.51562 0 1.125-1.5469 1.5625-1.8906 0.4375 0.29688 1.1094 1.8906 1.5469 1.8906 0.51562 0 1.2656-1.9688 1.6406-1.9688s1.0312 0.92188 1.5312 0.92188z"/>
</g>
</defs>
<g transform="translate(-149.02 -130.16)">
<use x="148.71201" y="134.765" xlink:href="#a"/>
</g>
</svg>
