<?xml version="1.0" encoding="UTF-8"?>
<svg fill="#000000" version="1.1" viewBox="0 0 4.2656 6.1562" xmlns="http://www.w3.org/2000/svg" xmlns:xlink="http://www.w3.org/1999/xlink">
<defs>
<g id="a">
<path d="m2.2656-5.3906c0 0.23438 0.67188 0.71875 1.1406 1.1875h-2.5781c-0.125 0-0.23438 0.10938-0.23438 0.23438v4.2656c0 0.125 0.10938 0.23438 0.23438 0.23438s0.23438-0.10938 0.23438-0.23438v-4.0312h2.3438c-0.45312 0.45312-1.1406 0.96875-1.1406 1.1875 0 0.14062 0.10938 0.23438 0.23438 0.23438 0.0625 0 0.125-0.03125 0.17188-0.078125 0.53125-0.64062 1.1875-1.2031 2-1.3438 0.10938-0.03125 0.1875-0.125 0.1875-0.23438s-0.078125-0.20312-0.1875-0.23438c-0.8125-0.14062-1.4688-0.70312-2-1.3438-0.046875-0.046875-0.10938-0.078125-0.17188-0.078125-0.125 0-0.23438 0.09375-0.23438 0.23438z"/>
</g>
</defs>
<g transform="translate(-149.31 -129.14)">
<use x="148.71201" y="134.765" xlink:href="#a"/>
</g>
</svg>
