<?xml version="1.0" encoding="UTF-8"?>
<svg fill="#000000" version="1.1" viewBox="0 0 4.9414 6.4505" xmlns="http://www.w3.org/2000/svg" xmlns:xlink="http://www.w3.org/1999/xlink">
<defs>
<g id="a">
<path d="m2.6719-0.67188h0.015625c0.015625 0.10938 0.0625 0.21875 0.10938 0.32812 0.046875 0.1875 0.125 0.39062 0.1875 0.57812 0.10938 0.32812 0.20312 0.65625 0.3125 0.96875 0.078125 0.26562 0.17188 0.5625 0.40625 0.71875 0.32812 0.20312 0.75 0.10938 1-0.14062 0.1875-0.20312 0.29688-0.46875 0.34375-0.75 0.03125-0.10938 0.046875-0.21875 0.046875-0.34375 0-0.046875 0.015625-0.09375-0.015625-0.125-0.03125-0.078125-0.15625-0.09375-0.21875-0.03125-0.015625 0.046875-0.015625 0.09375-0.03125 0.14062 0 0.078125-0.015625 0.14062-0.046875 0.20312-0.17188 0.29688-0.54688 0.40625-0.85938 0.26562-0.25-0.09375-0.4375-0.32812-0.54688-0.5625-0.046875-0.10938-0.078125-0.21875-0.10938-0.32812-0.078125-0.20312-0.14062-0.40625-0.21875-0.59375-0.03125-0.125-0.078125-0.25-0.10938-0.35938-0.03125-0.078125-0.078125-0.15625-0.078125-0.21875-0.015625-0.078125 0.078125-0.17188 0.10938-0.21875 0.10938-0.1875 0.21875-0.35938 0.32812-0.53125 0.35938-0.60938 0.71875-1.2031 1.0781-1.8125 0.09375-0.17188 0.20312-0.32812 0.29688-0.5 0.046875-0.0625 0.10938-0.14062 0.10938-0.21875 0.015625-0.09375-0.078125-0.10938-0.14062-0.10938h-0.32812c-0.078125 0-0.17188 0-0.21875 0.078125-0.09375 0.14062-0.17188 0.29688-0.26562 0.4375-0.20312 0.34375-0.40625 0.67188-0.60938 1.0156-0.125 0.20312-0.26562 0.42188-0.39062 0.64062-0.078125 0.14062-0.1875 0.28125-0.25 0.42188-0.0625-0.17188-0.10938-0.35938-0.1875-0.53125-0.125-0.375-0.26562-0.76562-0.35938-1.1562-0.09375-0.3125-0.20312-0.73438-0.5-0.90625-0.078125-0.046875-0.17188-0.078125-0.25-0.09375s-0.15625-0.015625-0.21875 0c-0.48438 0.0625-0.75 0.51562-0.85938 0.95312-0.03125 0.125-0.046875 0.25-0.046875 0.375 0 0.0625 0 0.125 0.015625 0.15625 0.046875 0.078125 0.17188 0.078125 0.21875 0 0.015625-0.03125 0.015625-0.09375 0.03125-0.14062 0-0.0625 0.03125-0.125 0.0625-0.17188 0.14062-0.29688 0.48438-0.42188 0.78125-0.32812 0.5 0.15625 0.65625 0.71875 0.8125 1.1562 0.03125 0.10938 0.078125 0.25 0.125 0.35938 0.046875 0.125 0.078125 0.25 0.125 0.35938 0.03125 0.078125 0.046875 0.14062 0.0625 0.21875s-0.0625 0.17188-0.10938 0.25c-0.125 0.1875-0.23438 0.375-0.34375 0.57812-0.35938 0.57812-0.71875 1.1562-1.0625 1.7344-0.09375 0.15625-0.1875 0.32812-0.28125 0.48438-0.046875 0.078125-0.10938 0.15625-0.125 0.23438s0.046875 0.10938 0.10938 0.10938c0.125 0.015625 0.26562 0 0.39062 0 0.0625 0 0.14062 0 0.1875-0.0625 0.09375-0.125 0.15625-0.28125 0.23438-0.40625 0.17188-0.28125 0.34375-0.5625 0.51562-0.84375 0.17188-0.26562 0.32812-0.54688 0.5-0.8125 0.09375-0.15625 0.20312-0.3125 0.26562-0.46875z"/>
</g>
</defs>
<g transform="translate(-148.87 -130.35)">
<use x="148.71201" y="134.765" xlink:href="#a"/>
</g>
</svg>
