<?xml version="1.0" encoding="UTF-8"?>
<svg fill="#000000" version="1.1" viewBox="0 0 2.8594 4.9375" xmlns="http://www.w3.org/2000/svg" xmlns:xlink="http://www.w3.org/1999/xlink">
<defs>
<g id="a">
<path d="m3.5781-0.92188-0.078125-0.17188c-0.34375 0.20312-0.73438 0.42188-1.0469 0.51562-0.3125-0.28125-0.65625-0.59375-0.84375-0.89062-0.046875-0.29688-0.0625-0.64062-0.0625-0.98438 0-0.48438 0.03125-1.1719 0.20312-1.4688 0.375 0 0.875 0.25 1.2031 0.53125l0.09375-0.03125 0.51562-0.78125c-0.32812-0.21875-0.6875-0.40625-1.0781-0.4375l-1.6406 1.0156c-0.125 0.5625-0.125 1.1562-0.125 1.4531 0 0.45312 0.015625 0.89062 0.046875 1.3281 0.34375 0.40625 0.70312 0.79688 1.0938 1.1406z"/>
</g>
</defs>
<g transform="translate(-149.43 -130.12)">
<use x="148.71201" y="134.765" xlink:href="#a"/>
</g>
</svg>
