<?xml version="1.0" encoding="UTF-8"?>
<svg fill="#000000" version="1.1" viewBox="0 0 3.9062 3.9062" xmlns="http://www.w3.org/2000/svg" xmlns:xlink="http://www.w3.org/1999/xlink">
<defs>
<g id="a">
<path d="m5.1094-1.5312c0-0.15625-0.15625-0.3125-0.29688-0.45312-0.125-0.125-0.29688-0.29688-0.45312-0.29688-0.14062 0-0.29688 0.17188-0.4375 0.29688-0.14062 0.14062-0.29688 0.29688-0.29688 0.45312 0 0.14062 0.15625 0.3125 0.29688 0.4375 0.14062 0.14062 0.29688 0.3125 0.4375 0.3125 0.15625 0 0.32812-0.17188 0.45312-0.3125 0.14062-0.125 0.29688-0.29688 0.29688-0.4375zm-2.4062-2.4219c0-0.14062-0.15625-0.3125-0.29688-0.4375-0.14062-0.14062-0.29688-0.29688-0.45312-0.29688s-0.3125 0.15625-0.45312 0.29688c-0.125 0.125-0.29688 0.29688-0.29688 0.4375 0 0.15625 0.17188 0.3125 0.29688 0.45312 0.14062 0.125 0.29688 0.29688 0.45312 0.29688s0.3125-0.17188 0.45312-0.29688c0.14062-0.14062 0.29688-0.29688 0.29688-0.45312z"/>
</g>
</defs>
<g transform="translate(-149.92 -130.08)">
<use x="148.71201" y="134.765" xlink:href="#a"/>
</g>
</svg>
