<?xml version="1.0" encoding="UTF-8"?>
<svg fill="#000000" width="6.4219" height="7.8438" version="1.1" viewBox="0 0 6.4219 7.8437" xmlns="http://www.w3.org/2000/svg" xmlns:xlink="http://www.w3.org/1999/xlink">
<defs>
<g id="a">
<path d="m3.7344-4.9375c-0.39062 0-0.71875 0.32812-0.71875 0.70312 0 0.40625 0.32812 0.71875 0.71875 0.71875 0.40625 0 0.71875-0.32812 0.71875-0.71875s-0.34375-0.70312-0.71875-0.70312zm-2.5938 4.9219v-6.9219c0-0.17188-0.14062-0.3125-0.3125-0.3125s-0.29688 0.14062-0.29688 0.3125v7.2344c0 0.17188 0.125 0.29688 0.29688 0.29688h5.8281c0.15625 0 0.29688-0.125 0.29688-0.29688v-7.2344c0-0.17188-0.14062-0.3125-0.29688-0.3125-0.17188 0-0.3125 0.14062-0.3125 0.3125v6.9219z"/>
</g>
</defs>
<g transform="translate(-149.24 -128.29)">
<use x="148.71201" y="135.53999" xlink:href="#a"/>
</g>
</svg>
