<?xml version="1.0" encoding="UTF-8"?>
<svg fill="#000000" version="1.1" viewBox="0 0 6.0469 12.578" xmlns="http://www.w3.org/2000/svg" xmlns:xlink="http://www.w3.org/1999/xlink">
<defs>
<g id="a">
<path d="m6.5625 0.78125c0-0.54688-0.6875-0.78125-1.1406-0.78125-1.9375 0-2.1562 2.9062-2.2656 4.3125l-0.078125 1.3125-1.7969 0.53125 0.14062 0.5 1.625-0.5c-0.078125 1.0781-0.14062 2.1562-0.17188 3.25-0.03125 0.78125 0.078125 2.8594-1.125 2.8594-0.10938 0-0.25-0.04687-0.32812-0.125 0.03125-0.04687 0.046875-0.125 0.046875-0.17188 0-0.3125-0.39062-0.60938-0.6875-0.60938-0.21875 0-0.26562 0.25-0.26562 0.42188 0 0.5625 0.67188 0.79688 1.125 0.79688 1.6562 0 1.9844-2.4062 2.125-3.6406 0.10938-1.0156 0.1875-2.0469 0.23438-3.0625l1.9688-0.59375-0.15625-0.5-1.7656 0.54688c0.015625-0.35938 0.046875-0.70312 0.0625-1.0625 0.0625-0.8125-0.10938-3.9688 1.2188-3.9688 0.10938 0 0.23438 0.03125 0.3125 0.125-0.03125 0.046875-0.03125 0.10938-0.03125 0.1875 0 0.29688 0.375 0.59375 0.67188 0.59375 0.23438 0 0.28125-0.21875 0.28125-0.42188z"/>
</g>
</defs>
<g transform="translate(-149.23 -125.92)">
<use x="148.71201" y="125.923" xlink:href="#a"/>
</g>
</svg>
