<?xml version="1.0" encoding="UTF-8"?>
<svg fill="#000000" version="1.1" viewBox="0 0 3.8438 4.8125" xmlns="http://www.w3.org/2000/svg" xmlns:xlink="http://www.w3.org/1999/xlink">
<defs>
<g id="a">
<path d="m2.0312-2.4219c-0.64062 0.625-1.125 1.3594-1.4375 2.1875-0.03125 0.03125-0.03125 0.078125-0.03125 0.10938v0.03125c0 0.046875 0.0625 0.078125 0.10938 0.078125 0.078125 0 0.125-0.10938 0.15625-0.1875 0.42188-0.78125 1.0156-1.5469 1.7656-2.0469 0.0625-0.03125 0.15625-0.09375 0.15625-0.15625v-0.015625c0-0.09375-0.20312-0.20312-0.29688-0.26562-0.65625-0.5-1.1562-1.1094-1.5625-1.8125-0.046875-0.10938-0.14062-0.32812-0.21875-0.32812s-0.10938 0.046875-0.10938 0.10938c0 0.14062 0.14062 0.39062 0.21875 0.5625 0.3125 0.625 0.71875 1.3125 1.25 1.7344zm1.6406 0c-0.625 0.625-1.1094 1.3594-1.4219 2.1875-0.03125 0.03125-0.03125 0.078125-0.03125 0.10938v0.03125c0 0.046875 0.046875 0.078125 0.10938 0.078125 0.078125 0 0.125-0.10938 0.15625-0.1875 0.42188-0.78125 1.0156-1.5469 1.7656-2.0469 0.0625-0.03125 0.15625-0.09375 0.15625-0.15625v-0.015625c0-0.09375-0.20312-0.20312-0.29688-0.26562-0.65625-0.5-1.1562-1.1094-1.5625-1.8125-0.046875-0.10938-0.14062-0.32812-0.21875-0.32812s-0.10938 0.046875-0.10938 0.10938c0 0.14062 0.14062 0.39062 0.21875 0.5625 0.29688 0.625 0.71875 1.3125 1.2344 1.7344z"/>
</g>
</defs>
<g transform="translate(-149.27 -129.94)">
<use x="148.71201" y="134.765" xlink:href="#a"/>
</g>
</svg>
