<?xml version="1.0" encoding="UTF-8"?>
<svg fill="#000000" version="1.1" viewBox="0 0 6.3681 8.8499" xmlns="http://www.w3.org/2000/svg" xmlns:xlink="http://www.w3.org/1999/xlink">
<defs>
<g id="a">
<path d="m5.2969-5.8125c-0.046875-0.015625-0.078125-0.015625-0.14062-0.015625-0.046875 0-0.10938 0-0.15625 0.03125-0.0625 0.0625-0.046875 0.14062-0.046875 0.21875v0.29688c0 0.0625 0 0.14062-0.015625 0.20312-0.09375 0.21875-0.21875 0.40625-0.3125 0.625-0.1875 0.375-0.375 0.75-0.5625 1.1406l-0.21875 0.4375c-0.03125 0.046875-0.0625 0.14062-0.10938 0.15625-0.0625 0.03125-0.14062 0.015625-0.20312 0.015625h-2.7031c-0.078125 0-0.15625-0.015625-0.21875 0.015625-0.0625 0.0625-0.046875 0.14062-0.046875 0.21875v0.09375c0.015625 0.015625 0.03125 0.046875 0.0625 0.046875 0.03125 0.03125 0.09375 0.03125 0.14062 0.03125h2.7969c-0.09375 0.14062-0.15625 0.29688-0.25 0.46875-0.125 0.28125-0.28125 0.57812-0.42188 0.875-0.3125 0.64062-0.625 1.2656-0.95312 1.9062l-0.26562 0.54688c-0.0625 0.09375-0.10938 0.1875-0.14062 0.28125-0.03125 0.14062 0.125 0.14062 0.21875 0.14062 0.046875 0 0.09375 0 0.14062-0.015625 0.03125-0.015625 0.0625-0.078125 0.078125-0.10938 0.03125-0.078125 0.078125-0.14062 0.10938-0.21875 0.10938-0.25 0.25-0.48438 0.35938-0.73438 0.39062-0.76562 0.75-1.5156 1.125-2.2812l0.3125-0.60938 0.078125-0.15625c0.015625-0.03125 0.03125-0.0625 0.0625-0.078125 0.015625-0.015625 0.0625-0.015625 0.09375-0.015625h0.84375v2.9062c0 0.0625-0.015625 0.125 0.046875 0.17188 0.03125 0.046875 0.10938 0.03125 0.15625 0.03125 0.0625 0 0.125 0.015625 0.15625-0.03125 0.046875-0.03125 0.046875-0.078125 0.046875-0.125v-0.25-4.9062c0-0.15625-0.015625-0.32812 0-0.48438 0-0.0625 0.03125-0.10938 0.046875-0.15625 0.046875-0.078125 0.09375-0.15625 0.125-0.23438 0.15625-0.34375 0.34375-0.6875 0.51562-1.0312 0.046875-0.10938 0.10938-0.21875 0.15625-0.32812 0.03125-0.046875 0.03125-0.10938-0.015625-0.15625-0.03125-0.03125-0.078125-0.03125-0.10938-0.03125-0.09375 0-0.1875-0.03125-0.25 0.046875-0.03125 0.03125-0.046875 0.09375-0.0625 0.125-0.046875 0.09375-0.078125 0.17188-0.14062 0.26562l-0.20312 0.40625c-0.03125 0.09375-0.09375 0.17188-0.125 0.26562zm1.2969 0c-0.046875 0.015625-0.0625 0.078125-0.0625 0.125v0.25 6.0781c0 0.03125 0 0.078125 0.015625 0.10938 0.046875 0.078125 0.125 0.0625 0.20312 0.0625h0.09375c0.046875-0.015625 0.078125-0.0625 0.078125-0.10938 0.015625-0.078125 0-0.17188 0-0.26562v-6.0625-0.125c-0.046875-0.078125-0.14062-0.078125-0.21875-0.078125-0.03125 0-0.078125 0-0.10938 0.015625zm-2.3906 3.1094 0.65625-1.3125 0.078125-0.20312h0.015625v1.5156z"/>
</g>
</defs>
<g transform="translate(-149.27 -127.84)">
<use x="148.71201" y="134.765" xlink:href="#a"/>
</g>
</svg>
