<?xml version="1.0" encoding="UTF-8"?>
<svg fill="#000000" version="1.1" viewBox="0 0 3.9062 7.4062" xmlns="http://www.w3.org/2000/svg" xmlns:xlink="http://www.w3.org/1999/xlink">
<defs>
<g id="a">
<path d="m0.89062-2.5469c0 0.76562-0.015625 1.4219-0.10938 2.0312 0.20312 0.17188 0.42188 0.5 0.57812 0.78125l0.75-0.75c-0.29688-0.375-0.4375-0.65625-0.4375-1.0312 0-1.0625 0.015625-1.2344 0.015625-1.875 0.3125-0.23438 0.75-0.5 0.89062-0.5 0.26562 0.046875 0.5625 0.1875 0.79688 0.34375 0.0625 0.54688 0.10938 1.1094 0.10938 1.6562 0 1.1406 0.015625 2.5625-0.71875 3.2812-0.26562 0.26562-0.59375 0.45312-0.9375 0.625l0.39062 0.17188c0.67188-0.51562 1.7031-1.5 1.8438-1.9531 0.21875-0.76562 0.29688-1.7031 0.29688-2.5 0-0.5625-0.046875-1.2656-0.10938-1.8594-0.40625-0.15625-0.78125-0.375-1.1562-0.59375l-1.4062 1.0625v-0.32812c-0.23438-0.26562-0.46875-0.51562-0.46875-0.73438 0-0.17188 0.078125-0.32812 0.17188-0.46875l-0.14062-0.03125c-0.29688 0.28125-0.79688 0.84375-0.79688 1.125 0 0.35938 0.375 0.46875 0.40625 0.75 0.03125 0.45312 0.015625 0.5 0.03125 0.79688z"/>
</g>
</defs>
<g transform="translate(-149.17 -129.55)">
<use x="148.71201" y="134.765" xlink:href="#a"/>
</g>
</svg>
