<?xml version="1.0" encoding="UTF-8"?>
<svg fill="#000000" version="1.1" viewBox="0 0 6.0938 11.016" xmlns="http://www.w3.org/2000/svg" xmlns:xlink="http://www.w3.org/1999/xlink">
<defs>
<g id="a">
<path d="m3.5156-2.0625-1.1094 3.0312h-1.2344c-0.17188 0-0.34375 0-0.34375 0.20312 0 0.1875 0.20312 0.1875 0.375 0.1875h1.0469c-0.14062 0.42188-0.21875 0.60938-0.25 0.71875-0.09375 0.25-0.26562 0.70312-0.26562 0.75 0 0.10938 0.09375 0.1875 0.20312 0.1875 0.14062 0 0.17188-0.09375 0.21875-0.23438l0.53125-1.4219h3.8594c0.17188 0 0.375 0 0.375-0.1875 0-0.20312-0.17188-0.20312-0.35938-0.20312h-3.7344l1.0469-2.8594 2.5469 1.1875c0.25 0.14062 0.26562 0.14062 0.29688 0.14062 0.20312 0 0.20312-0.20312 0.20312-0.35938v-5.0625c0-0.1875 0-0.35938-0.20312-0.35938-0.0625 0-0.14062 0.03125-0.1875 0.0625l-1.2812 0.625 0.71875-1.9844c0.046875-0.10938 0.046875-0.15625 0.046875-0.17188 0-0.10938-0.10938-0.1875-0.20312-0.1875-0.14062 0-0.15625 0.078125-0.21875 0.21875l-0.875 2.3594-3.6875 1.7344c-0.125 0.0625-0.20312 0.125-0.20312 0.23438 0 0.125 0.09375 0.17188 0.20312 0.21875zm1.0156-2.8281-0.89062 2.4531-2.1406-1.0156zm-0.53125 2.625 1.0469-2.875 1.4688-0.6875v4.7344z"/>
</g>
</defs>
<g transform="translate(-149.54 -126.76)">
<use x="148.71201" y="134.765" xlink:href="#a"/>
</g>
</svg>
